G75*
G70*
%OFA0B0*%
%FSLAX24Y24*%
%IPPOS*%
%LPD*%
%AMOC8*
5,1,8,0,0,1.08239X$1,22.5*
%
%ADD10C,0.0515*%
%ADD11C,0.0600*%
%ADD12C,0.0709*%
%ADD13C,0.0310*%
%ADD14C,0.0160*%
%ADD15C,0.0240*%
%ADD16C,0.0150*%
D10*
X001600Y014762D03*
X001600Y015550D03*
X001600Y016337D03*
X001600Y017124D03*
D11*
X008725Y018012D03*
X009725Y018012D03*
X010725Y018012D03*
X011725Y018012D03*
X012725Y018012D03*
X013725Y018012D03*
X014725Y018012D03*
X015725Y018012D03*
X016725Y018012D03*
X017725Y018012D03*
X018725Y018012D03*
D12*
X018475Y015996D03*
X018475Y015012D03*
X018475Y014028D03*
D13*
X015100Y016387D03*
X014475Y016762D03*
X013850Y017137D03*
X009725Y019262D03*
X008725Y019637D03*
X005975Y019262D03*
X004975Y018887D03*
X002725Y017637D03*
X002475Y017137D03*
X002600Y016762D03*
X002975Y013387D03*
X002100Y012512D03*
X003350Y011762D03*
X003350Y011262D03*
X003350Y010762D03*
X003850Y009762D03*
X006850Y011762D03*
X007600Y010262D03*
X009100Y010012D03*
X009100Y008512D03*
X008850Y007762D03*
X010850Y006762D03*
X010225Y005887D03*
X011975Y005262D03*
X014350Y004512D03*
X014975Y006262D03*
X016100Y006262D03*
X018725Y005012D03*
X018725Y002762D03*
X010600Y011012D03*
X011350Y011762D03*
X009350Y012262D03*
X009225Y011637D03*
X009225Y014262D03*
X007975Y014387D03*
X005225Y006512D03*
X003850Y006637D03*
X003600Y005887D03*
X006475Y003012D03*
X008975Y003512D03*
D14*
X006975Y005512D02*
X004600Y005512D01*
X004225Y005887D01*
X003600Y005887D01*
X003850Y006637D02*
X004350Y006637D01*
X004850Y006137D01*
X009975Y006137D01*
X010225Y005887D01*
X008850Y007762D02*
X007600Y006512D01*
X006975Y005512D02*
X008975Y003512D01*
X006475Y003012D02*
X012850Y003012D01*
X014350Y004512D01*
X014975Y006262D02*
X016100Y006262D01*
X010600Y011012D02*
X009350Y012262D01*
X009225Y011637D02*
X010225Y010637D01*
X010225Y009637D01*
X009100Y008512D01*
X008850Y009762D02*
X009100Y010012D01*
X008850Y009762D02*
X003850Y009762D01*
X003350Y010762D02*
X007100Y010762D01*
X007600Y010262D01*
X006350Y011262D02*
X006850Y011762D01*
X006350Y011262D02*
X003350Y011262D01*
X003350Y011762D02*
X004350Y011762D01*
X005350Y012762D01*
X010350Y012762D01*
X011350Y011762D01*
X009225Y014262D02*
X008100Y014262D01*
X007975Y014387D01*
X011225Y017512D02*
X015725Y017512D01*
X016350Y016887D01*
X016350Y016387D01*
X017850Y014887D01*
X018350Y014887D01*
X018475Y015012D01*
X015100Y016387D02*
X003475Y016387D01*
X003100Y016762D01*
X002600Y016762D01*
X002475Y017137D02*
X003225Y017137D01*
X003600Y016762D01*
X014475Y016762D01*
X013850Y017137D02*
X003725Y017137D01*
X003225Y017637D01*
X002725Y017637D01*
X004975Y018887D02*
X005350Y019262D01*
X005975Y019262D01*
X008725Y019637D02*
X008725Y018012D01*
X009725Y018012D02*
X009725Y019262D01*
X010725Y018012D02*
X011225Y017512D01*
X002975Y013387D02*
X002100Y012512D01*
D15*
X010850Y006762D02*
X011850Y005762D01*
X017975Y005762D01*
X018725Y005012D01*
X018100Y004762D02*
X018100Y003387D01*
X018725Y002762D01*
X018100Y004762D02*
X017600Y005262D01*
X011975Y005262D01*
D16*
X007600Y006512D02*
X005225Y006512D01*
M02*
