G75*
G70*
%OFA0B0*%
%FSLAX24Y24*%
%IPPOS*%
%LPD*%
%AMOC8*
5,1,8,0,0,1.08239X$1,22.5*
%
%ADD10C,0.0400*%
%ADD11C,0.0595*%
%ADD12C,0.0680*%
%ADD13C,0.0789*%
%ADD14C,0.0946*%
%ADD15C,0.0390*%
D10*
X009354Y003620D03*
X011086Y003620D03*
D11*
X001600Y014762D03*
X001600Y015550D03*
X001600Y016337D03*
X001600Y017124D03*
D12*
X008725Y018012D03*
X009725Y018012D03*
X010725Y018012D03*
X011725Y018012D03*
X012725Y018012D03*
X013725Y018012D03*
X014725Y018012D03*
X015725Y018012D03*
X016725Y018012D03*
X017725Y018012D03*
X018725Y018012D03*
D13*
X018475Y015996D03*
X018475Y015012D03*
X018475Y014028D03*
D14*
X017176Y013122D03*
X017176Y016941D03*
D15*
X003600Y005887D03*
X003850Y006637D03*
X005225Y006512D03*
X003850Y009762D03*
X003350Y010762D03*
X003350Y011262D03*
X003350Y011762D03*
X002100Y012512D03*
X002975Y013387D03*
X002600Y016762D03*
X002475Y017137D03*
X002725Y017637D03*
X004975Y018887D03*
X005975Y019262D03*
X008725Y019637D03*
X009725Y019262D03*
X013850Y017137D03*
X014475Y016762D03*
X015100Y016387D03*
X011350Y011762D03*
X010600Y011012D03*
X009225Y011637D03*
X009350Y012262D03*
X009225Y014262D03*
X007975Y014387D03*
X006850Y011762D03*
X007600Y010262D03*
X009100Y010012D03*
X009100Y008512D03*
X008850Y007762D03*
X010850Y006762D03*
X010225Y005887D03*
X011975Y005262D03*
X014350Y004512D03*
X014975Y006262D03*
X016100Y006262D03*
X018725Y005012D03*
X018725Y002762D03*
X008975Y003512D03*
X006475Y003012D03*
M02*
