%
M48
M72
T01C0.0150
T02C0.0315
T03C0.0320
T04C0.0400
T05C0.0472
T06C0.0866
%
T01
X3600Y5887
X3850Y6637
X5225Y6512
X3850Y9762
X3350Y10762
X3350Y11262
X3350Y11762
X2100Y12512
X2975Y13387
X2600Y16762
X2475Y17137
X2725Y17637
X4975Y18887
X5975Y19262
X8725Y19637
X9725Y19262
X13850Y17137
X14475Y16762
X15100Y16387
X11350Y11762
X10600Y11012
X9225Y11637
X9350Y12262
X9225Y14262
X7975Y14387
X6850Y11762
X7600Y10262
X9100Y10012
X9100Y8512
X8850Y7762
X10850Y6762
X10225Y5887
X11975Y5262
X14350Y4512
X14975Y6262
X16100Y6262
X18725Y5012
X18725Y2762
X8975Y3512
X6475Y3012
T02
X1600Y14762
X1600Y15550
X1600Y16337
X1600Y17124
T03
X9354Y3620
X11086Y3620
T04
X10725Y18012
X9725Y18012
X8725Y18012
X11725Y18012
X12725Y18012
X13725Y18012
X14725Y18012
X15725Y18012
X16725Y18012
X17725Y18012
X18725Y18012
T05
X18475Y15996
X18475Y15012
X18475Y14028
T06
X17176Y13122
X17176Y16941
M30
