G75*
G70*
%OFA0B0*%
%FSLAX24Y24*%
%IPPOS*%
%LPD*%
%AMOC8*
5,1,8,0,0,1.08239X$1,22.5*
%
%ADD10C,0.0250*%
%ADD11R,0.0680X0.0680*%
%ADD12R,0.0780X0.0520*%
%ADD13R,0.0880X0.0680*%
%ADD14R,0.0880X0.1580*%
%ADD15R,0.0530X0.0530*%
%ADD16R,0.0860X0.0480*%
%ADD17R,0.0480X0.0280*%
%ADD18C,0.0230*%
%ADD19R,0.0280X0.1080*%
%ADD20R,0.0980X0.0780*%
%ADD21C,0.0400*%
%ADD22R,0.0356X0.0867*%
%ADD23C,0.0595*%
%ADD24C,0.0680*%
%ADD25C,0.0789*%
%ADD26C,0.0946*%
%ADD27C,0.0390*%
D10*
X004025Y014472D02*
X004025Y015002D01*
X004336Y015004D02*
X004336Y014474D01*
X004651Y014474D02*
X004651Y015004D01*
X004966Y015004D02*
X004966Y014474D01*
X005281Y014474D02*
X005281Y015004D01*
X005595Y015004D02*
X005595Y014474D01*
X005911Y014474D02*
X005911Y015004D01*
X006225Y015004D02*
X006225Y014474D01*
X006430Y015207D02*
X006960Y015207D01*
X006960Y015527D02*
X006430Y015527D01*
X006430Y015847D02*
X006960Y015847D01*
X006960Y016157D02*
X006430Y016157D01*
X006430Y016467D02*
X006960Y016467D01*
X006960Y016787D02*
X006430Y016787D01*
X006430Y017097D02*
X006960Y017097D01*
X006960Y017417D02*
X006430Y017417D01*
X006225Y017622D02*
X006225Y018152D01*
X005910Y018152D02*
X005910Y017622D01*
X005595Y017622D02*
X005595Y018152D01*
X005281Y018152D02*
X005281Y017622D01*
X004966Y017622D02*
X004966Y018152D01*
X004651Y018152D02*
X004651Y017622D01*
X004336Y017622D02*
X004336Y018152D01*
X004021Y018152D02*
X004021Y017622D01*
X003810Y017417D02*
X003280Y017417D01*
X003280Y017097D02*
X003810Y017097D01*
X003810Y016787D02*
X003280Y016787D01*
X003280Y016467D02*
X003810Y016467D01*
X003810Y016157D02*
X003280Y016157D01*
X003280Y015847D02*
X003810Y015847D01*
X003810Y015527D02*
X003280Y015527D01*
X003277Y015209D02*
X003807Y015209D01*
D11*
X005350Y011262D03*
X005350Y010362D03*
X006850Y010262D03*
X006850Y011162D03*
X008350Y011162D03*
X008350Y010262D03*
X009850Y010262D03*
X009850Y011162D03*
X011350Y011162D03*
X011350Y010262D03*
X011350Y008662D03*
X011350Y007762D03*
X009850Y007762D03*
X009850Y008662D03*
X006850Y008662D03*
X006850Y007762D03*
X014350Y006262D03*
X014350Y005362D03*
D12*
X012850Y007762D03*
X012850Y008862D03*
X012850Y010162D03*
X012850Y011262D03*
D13*
X016475Y011312D03*
X016475Y010412D03*
X016475Y009512D03*
D14*
X013875Y010412D03*
D15*
X005350Y008762D03*
X005350Y007412D03*
D16*
X014350Y007187D03*
X014350Y008762D03*
D17*
X015700Y004582D03*
X015700Y004267D03*
X015700Y003952D03*
X015700Y003637D03*
X016350Y003637D03*
X016350Y003952D03*
X016350Y004267D03*
X016350Y004582D03*
X002500Y010817D03*
X002500Y011132D03*
X002500Y011447D03*
X002500Y011762D03*
X001850Y011762D03*
X001850Y011447D03*
X001850Y011132D03*
X001850Y010817D03*
D18*
X002475Y002512D02*
X003125Y002512D01*
X003125Y002768D02*
X002475Y002768D01*
X002475Y003024D02*
X003125Y003024D01*
X003125Y003280D02*
X002475Y003280D01*
X002475Y003536D02*
X003125Y003536D01*
X003125Y003792D02*
X002475Y003792D01*
X002475Y004047D02*
X003125Y004047D01*
X003125Y004303D02*
X002475Y004303D01*
X002475Y004559D02*
X003125Y004559D01*
X003125Y004815D02*
X002475Y004815D01*
X002475Y005071D02*
X003125Y005071D01*
X003125Y005327D02*
X002475Y005327D01*
X002475Y005583D02*
X003125Y005583D01*
X003125Y005839D02*
X002475Y005839D01*
X005275Y005839D02*
X005925Y005839D01*
X005925Y005583D02*
X005275Y005583D01*
X005275Y005327D02*
X005925Y005327D01*
X005925Y005071D02*
X005275Y005071D01*
X005275Y004815D02*
X005925Y004815D01*
X005925Y004559D02*
X005275Y004559D01*
X005275Y004303D02*
X005925Y004303D01*
X005925Y004047D02*
X005275Y004047D01*
X005275Y003792D02*
X005925Y003792D01*
X005925Y003536D02*
X005275Y003536D01*
X005275Y003280D02*
X005925Y003280D01*
X005925Y003024D02*
X005275Y003024D01*
X005275Y002768D02*
X005925Y002768D01*
X005925Y002512D02*
X005275Y002512D01*
D19*
X009590Y004762D03*
X009905Y004762D03*
X010220Y004762D03*
X010535Y004762D03*
X010850Y004762D03*
D20*
X011920Y004620D03*
X011920Y002420D03*
X008520Y002420D03*
X008520Y004620D03*
D21*
X009354Y003620D03*
X011086Y003620D03*
D22*
X003369Y018887D03*
X002975Y018887D03*
X002581Y018887D03*
D23*
X001600Y017124D03*
X001600Y016337D03*
X001600Y015550D03*
X001600Y014762D03*
D24*
X008725Y018012D03*
X009725Y018012D03*
X010725Y018012D03*
X011725Y018012D03*
X012725Y018012D03*
X013725Y018012D03*
X014725Y018012D03*
X015725Y018012D03*
X016725Y018012D03*
X017725Y018012D03*
X018725Y018012D03*
D25*
X018475Y015996D03*
X018475Y015012D03*
X018475Y014028D03*
D26*
X017176Y013122D03*
X017176Y016941D03*
D27*
X015100Y016387D03*
X014475Y016762D03*
X013850Y017137D03*
X009725Y019262D03*
X008725Y019637D03*
X005975Y019262D03*
X004975Y018887D03*
X002725Y017637D03*
X002475Y017137D03*
X002600Y016762D03*
X002975Y013387D03*
X002100Y012512D03*
X003350Y011762D03*
X003350Y011262D03*
X003350Y010762D03*
X003850Y009762D03*
X006850Y011762D03*
X007600Y010262D03*
X009100Y010012D03*
X009100Y008512D03*
X008850Y007762D03*
X010850Y006762D03*
X010225Y005887D03*
X011975Y005262D03*
X014350Y004512D03*
X014975Y006262D03*
X016100Y006262D03*
X018725Y005012D03*
X018725Y002762D03*
X010600Y011012D03*
X011350Y011762D03*
X009350Y012262D03*
X009225Y011637D03*
X009225Y014262D03*
X007975Y014387D03*
X005225Y006512D03*
X003850Y006637D03*
X003600Y005887D03*
X006475Y003012D03*
X008975Y003512D03*
M02*
