G04 start of page 7 for group -4079 idx -4079 *
G04 Title: (unknown), topsilk *
G04 Creator: pcb 20110918 *
G04 CreationDate: Sun 02 Feb 2014 07:13:27 PM GMT UTC *
G04 For: doho *
G04 Format: Gerber/RS-274X *
G04 PCB-Dimensions: 600000 450000 *
G04 PCB-Coordinate-Origin: lower left *
%MOIN*%
%FSLAX25Y25*%
%LNTOPSILK*%
%ADD118C,0.0060*%
%ADD117C,0.0080*%
%ADD116C,0.0100*%
G54D116*X500Y124000D02*X220500D01*
X500D02*Y449500D01*
X220500D01*
Y124000D01*
X153000Y405500D02*X178000D01*
Y380500D01*
X153000D01*
Y405500D01*
X154500Y419000D02*X189500D01*
X154500Y444000D02*Y419000D01*
Y421000D02*X189500D01*
Y444000D02*Y419000D01*
X154500Y444000D02*X189500D01*
X181672Y368172D02*G75*G03X173328Y368172I-4172J-4172D01*G01*
X173328Y359828D02*G75*G03X181672Y359828I4172J4172D01*G01*
X183086Y369586D02*G75*G03X171914Y369586I-5586J-5586D01*G01*
X171914Y358414D02*G75*G03X183086Y358414I5586J5586D01*G01*
X43000Y405500D02*X68000D01*
Y380500D01*
X43000D01*
Y405500D01*
X88800Y382100D02*Y393900D01*
X111100Y382100D02*X88800D01*
X111100Y393900D02*Y382100D01*
X101800Y393900D02*X111100D01*
X88800D02*X98000D01*
G75*G03X101800Y393900I1900J0D01*G01*
G54D117*X60741Y305841D02*X57841Y308741D01*
X60741Y305841D02*X112159D01*
Y360159D02*Y305841D01*
X57841Y360159D02*X112159D01*
X57841D02*Y308741D01*
X60741Y307741D02*G75*G03X60741Y307741I0J1000D01*G01*
G54D116*X101142Y227358D02*X99642Y228858D01*
X101142Y207642D02*X120858D01*
X101142Y227358D02*Y207642D01*
Y227358D02*X120858D01*
Y207642D01*
X136268Y221142D03*
Y218075D01*
X134693Y216500D02*X136268Y218075D01*
Y214925D02*X134693Y216500D01*
X136268Y214925D02*Y211858D01*
X127732D02*X136268D01*
X127732Y221142D02*Y211858D01*
Y221142D02*X136268D01*
X5600Y158300D02*Y129800D01*
Y158300D02*X47000D01*
Y129800D01*
X5600D02*X47000D01*
X43000Y193000D02*X68000D01*
Y168000D01*
X43000D01*
Y193000D01*
X50000Y210500D02*X63900D01*
Y223300D02*Y210500D01*
X50000Y223300D02*X63900D01*
X50000D02*Y210500D01*
X28600Y245000D02*Y231100D01*
X41400D01*
Y245000D02*Y231100D01*
X28600Y245000D02*X41400D01*
X26100D02*Y231100D01*
X13300Y245000D02*X26100D01*
X13300D02*Y231100D01*
X26100D01*
X48000Y223400D02*Y209500D01*
X35200Y223400D02*X48000D01*
X35200D02*Y209500D01*
X48000D01*
X55100Y245000D02*X69000D01*
X55100D02*Y232200D01*
X69000D01*
Y245000D02*Y232200D01*
X131988Y338087D03*
X135500D01*
X138500Y335087D02*X135500Y338087D01*
X141500D02*X138500Y335087D01*
X141500Y338087D02*X145012D01*
Y321913D01*
X131988D02*X145012D01*
X131988Y338087D02*Y321913D01*
X181672Y345172D02*G75*G03X173328Y345172I-4172J-4172D01*G01*
X173328Y336828D02*G75*G03X181672Y336828I4172J4172D01*G01*
X183086Y346586D02*G75*G03X171914Y346586I-5586J-5586D01*G01*
X171914Y335414D02*G75*G03X183086Y335414I5586J5586D01*G01*
X181672Y322172D02*G75*G03X173328Y322172I-4172J-4172D01*G01*
X173328Y313828D02*G75*G03X181672Y313828I4172J4172D01*G01*
X183086Y323586D02*G75*G03X171914Y323586I-5586J-5586D01*G01*
X171914Y312414D02*G75*G03X183086Y312414I5586J5586D01*G01*
X181672Y299172D02*G75*G03X173328Y299172I-4172J-4172D01*G01*
X173328Y290828D02*G75*G03X181672Y290828I4172J4172D01*G01*
X183086Y300586D02*G75*G03X171914Y300586I-5586J-5586D01*G01*
X171914Y289414D02*G75*G03X183086Y289414I5586J5586D01*G01*
X153000Y193000D02*X178000D01*
Y168000D01*
X153000D01*
Y193000D01*
X124587Y196512D03*
Y193000D01*
X121587Y190000D02*X124587Y193000D01*
Y187000D02*X121587Y190000D01*
X124587Y187000D02*Y183488D01*
X108413D02*X124587D01*
X108413Y196512D02*Y183488D01*
Y196512D02*X124587D01*
G54D118*X32000Y255000D02*Y252000D01*
Y255000D02*X32500Y255500D01*
X33500D01*
X34000Y255000D01*
Y252000D01*
X33500Y251500D02*X34000Y252000D01*
X32500Y251500D02*X33500D01*
X32000Y252000D02*X32500Y251500D01*
X33000Y252500D02*X34000Y251500D01*
X35200Y255000D02*X35700Y255500D01*
X37200D01*
X37700Y255000D01*
Y254000D01*
X35200Y251500D02*X37700Y254000D01*
X35200Y251500D02*X37700D01*
X38000Y295000D02*X40000D01*
X40500Y294500D01*
Y293500D01*
X40000Y293000D02*X40500Y293500D01*
X38500Y293000D02*X40000D01*
X38500Y295000D02*Y291000D01*
Y293000D02*X40500Y291000D01*
X41700Y294500D02*X42200Y295000D01*
X43700D01*
X44200Y294500D01*
Y293500D01*
X41700Y291000D02*X44200Y293500D01*
X41700Y291000D02*X44200D01*
X45400Y294500D02*X45900Y295000D01*
X47400D01*
X47900Y294500D01*
Y293500D01*
X45400Y291000D02*X47900Y293500D01*
X45400Y291000D02*X47900D01*
X20850Y257150D02*X22850D01*
X23350Y256650D01*
Y255650D01*
X22850Y255150D02*X23350Y255650D01*
X21350Y255150D02*X22850D01*
X21350Y257150D02*Y253150D01*
Y255150D02*X23350Y253150D01*
X25050D02*X26050D01*
X25550Y257150D02*Y253150D01*
X24550Y256150D02*X25550Y257150D01*
X27250Y253150D02*X29750Y255650D01*
Y257150D02*Y255650D01*
X27250Y257150D02*X29750D01*
X50500Y303000D02*Y299500D01*
X51000Y299000D01*
X52000D01*
X52500Y299500D01*
Y303000D02*Y299500D01*
X55200Y303000D02*X55700Y302500D01*
X54200Y303000D02*X55200D01*
X53700Y302500D02*X54200Y303000D01*
X53700Y302500D02*Y299500D01*
X54200Y299000D01*
X55200Y301000D02*X55700Y300500D01*
X53700Y301000D02*X55200D01*
X54200Y299000D02*X55200D01*
X55700Y299500D01*
Y300500D02*Y299500D01*
X48500Y283500D02*X50500D01*
X51000Y283000D01*
Y282000D01*
X50500Y281500D02*X51000Y282000D01*
X49000Y281500D02*X50500D01*
X49000Y283500D02*Y279500D01*
Y281500D02*X51000Y279500D01*
X52200Y283000D02*X52700Y283500D01*
X54200D01*
X54700Y283000D01*
Y282000D01*
X52200Y279500D02*X54700Y282000D01*
X52200Y279500D02*X54700D01*
X55900Y283000D02*X56400Y283500D01*
X57400D01*
X57900Y283000D01*
Y280000D01*
X57400Y279500D02*X57900Y280000D01*
X56400Y279500D02*X57400D01*
X55900Y280000D02*X56400Y279500D01*
Y281500D02*X57900D01*
X57500Y142000D02*Y140500D01*
X58000Y142500D02*X57500Y142000D01*
X58000Y142500D02*X61000D01*
X61500Y142000D01*
Y140500D01*
X57500Y138800D02*Y137800D01*
Y138300D02*X61500D01*
X60500Y139300D02*X61500Y138300D01*
Y136600D02*Y134600D01*
X59500Y136600D02*X61500D01*
X59500D02*X60000Y136100D01*
Y135100D01*
X59500Y134600D01*
X58000D02*X59500D01*
X57500Y135100D02*X58000Y134600D01*
X57500Y136100D02*Y135100D01*
X58000Y136600D02*X57500Y136100D01*
X58000Y133400D02*X57500Y132900D01*
X58000Y133400D02*X59000D01*
X59500Y132900D01*
Y131900D01*
X59000Y131400D01*
X58000D02*X59000D01*
X57500Y131900D02*X58000Y131400D01*
X57500Y132900D02*Y131900D01*
X60000Y133400D02*X59500Y132900D01*
X60000Y133400D02*X61000D01*
X61500Y132900D01*
Y131900D01*
X61000Y131400D01*
X60000D02*X61000D01*
X59500Y131900D02*X60000Y131400D01*
X57500Y156500D02*Y155000D01*
X58000Y157000D02*X57500Y156500D01*
X58000Y157000D02*X61000D01*
X61500Y156500D01*
Y155000D01*
X57500Y153300D02*Y152300D01*
Y152800D02*X61500D01*
X60500Y153800D02*X61500Y152800D01*
Y151100D02*Y149100D01*
X59500Y151100D02*X61500D01*
X59500D02*X60000Y150600D01*
Y149600D01*
X59500Y149100D01*
X58000D02*X59500D01*
X57500Y149600D02*X58000Y149100D01*
X57500Y150600D02*Y149600D01*
X58000Y151100D02*X57500Y150600D01*
Y147900D02*X59500Y145900D01*
X61000D01*
X61500Y146400D02*X61000Y145900D01*
X61500Y147400D02*Y146400D01*
X61000Y147900D02*X61500Y147400D01*
X60000Y147900D02*X61000D01*
X60000D02*X59500Y147400D01*
Y145900D01*
X52000Y208500D02*Y205000D01*
X52500Y204500D01*
X53500D01*
X54000Y205000D01*
Y208500D02*Y205000D01*
X55200Y206500D02*X57200Y208500D01*
X55200Y206500D02*X57700D01*
X57200Y208500D02*Y204500D01*
X35350Y198650D02*X36850D01*
X34850Y199150D02*X35350Y198650D01*
X34850Y202150D02*Y199150D01*
Y202150D02*X35350Y202650D01*
X36850D01*
X38550Y198650D02*X39550D01*
X39050Y202650D02*Y198650D01*
X38050Y201650D02*X39050Y202650D01*
X42250D02*X42750Y202150D01*
X41250Y202650D02*X42250D01*
X40750Y202150D02*X41250Y202650D01*
X40750Y202150D02*Y199150D01*
X41250Y198650D01*
X42250Y200650D02*X42750Y200150D01*
X40750Y200650D02*X42250D01*
X41250Y198650D02*X42250D01*
X42750Y199150D01*
Y200150D02*Y199150D01*
X44450Y198650D02*X45450D01*
X44950Y202650D02*Y198650D01*
X43950Y201650D02*X44950Y202650D01*
X43000Y229500D02*Y225500D01*
X44500Y229500D02*X45000Y229000D01*
Y226000D01*
X44500Y225500D02*X45000Y226000D01*
X42500Y225500D02*X44500D01*
X42500Y229500D02*X44500D01*
X47700D02*X48200Y229000D01*
X46700Y229500D02*X47700D01*
X46200Y229000D02*X46700Y229500D01*
X46200Y229000D02*Y226000D01*
X46700Y225500D01*
X47700Y227500D02*X48200Y227000D01*
X46200Y227500D02*X47700D01*
X46700Y225500D02*X47700D01*
X48200Y226000D01*
Y227000D02*Y226000D01*
X9500Y164000D02*Y160500D01*
X10000Y160000D01*
X11000D01*
X11500Y160500D01*
Y164000D02*Y160500D01*
X12700Y164000D02*X14700D01*
X12700D02*Y162000D01*
X13200Y162500D01*
X14200D01*
X14700Y162000D01*
Y160500D01*
X14200Y160000D02*X14700Y160500D01*
X13200Y160000D02*X14200D01*
X12700Y160500D02*X13200Y160000D01*
X72000Y221000D02*Y219500D01*
X72500Y221500D02*X72000Y221000D01*
X72500Y221500D02*X75500D01*
X76000Y221000D01*
Y219500D01*
X72000Y217800D02*Y216800D01*
Y217300D02*X76000D01*
X75000Y218300D02*X76000Y217300D01*
Y214100D02*X75500Y213600D01*
X76000Y215100D02*Y214100D01*
X75500Y215600D02*X76000Y215100D01*
X72500Y215600D02*X75500D01*
X72500D02*X72000Y215100D01*
X74000Y214100D02*X73500Y213600D01*
X74000Y215600D02*Y214100D01*
X72000Y215100D02*Y214100D01*
X72500Y213600D01*
X73500D01*
X72500Y212400D02*X72000Y211900D01*
X72500Y212400D02*X75500D01*
X76000Y211900D01*
Y210900D01*
X75500Y210400D01*
X72500D02*X75500D01*
X72000Y210900D02*X72500Y210400D01*
X72000Y211900D02*Y210900D01*
X73000Y212400D02*X75000Y210400D01*
X67000Y272500D02*Y270500D01*
Y272500D02*X67500Y273000D01*
X68500D01*
X69000Y272500D02*X68500Y273000D01*
X69000Y272500D02*Y271000D01*
X67000D02*X71000D01*
X69000D02*X71000Y273000D01*
Y275700D02*Y274700D01*
X67000Y275200D02*X71000D01*
X68000Y274200D02*X67000Y275200D01*
X69000Y276900D02*X67000Y278900D01*
X69000Y279400D02*Y276900D01*
X67000Y278900D02*X71000D01*
X60000Y251000D02*Y247000D01*
X61500Y251000D02*X62000Y250500D01*
Y247500D01*
X61500Y247000D02*X62000Y247500D01*
X59500Y247000D02*X61500D01*
X59500Y251000D02*X61500D01*
X63200D02*X65200D01*
X63200D02*Y249000D01*
X63700Y249500D01*
X64700D01*
X65200Y249000D01*
Y247500D01*
X64700Y247000D02*X65200Y247500D01*
X63700Y247000D02*X64700D01*
X63200Y247500D02*X63700Y247000D01*
X19500Y228500D02*X21500D01*
X22000Y228000D01*
Y227000D01*
X21500Y226500D02*X22000Y227000D01*
X20000Y226500D02*X21500D01*
X20000Y228500D02*Y224500D01*
Y226500D02*X22000Y224500D01*
X23700D02*X24700D01*
X24200Y228500D02*Y224500D01*
X23200Y227500D02*X24200Y228500D01*
X25900Y225000D02*X26400Y224500D01*
X25900Y226000D02*Y225000D01*
Y226000D02*X26400Y226500D01*
X27400D01*
X27900Y226000D01*
Y225000D01*
X27400Y224500D02*X27900Y225000D01*
X26400Y224500D02*X27400D01*
X25900Y227000D02*X26400Y226500D01*
X25900Y228000D02*Y227000D01*
Y228000D02*X26400Y228500D01*
X27400D01*
X27900Y228000D01*
Y227000D01*
X27400Y226500D02*X27900Y227000D01*
X6500Y234500D02*Y231500D01*
Y234500D02*X7000Y235000D01*
X8000D01*
X8500Y234500D01*
Y231500D01*
X8000Y231000D02*X8500Y231500D01*
X7000Y231000D02*X8000D01*
X6500Y231500D02*X7000Y231000D01*
X7500Y232000D02*X8500Y231000D01*
X10200D02*X11200D01*
X10700Y235000D02*Y231000D01*
X9700Y234000D02*X10700Y235000D01*
X6000Y251500D02*Y249500D01*
X5500Y249000D01*
X4500D02*X5500D01*
X4000Y249500D02*X4500Y249000D01*
X4000Y251000D02*Y249500D01*
X2000Y251000D02*X6000D01*
X4000D02*X2000Y249000D01*
X5500Y247800D02*X6000Y247300D01*
Y245800D01*
X5500Y245300D01*
X4500D02*X5500D01*
X2000Y247800D02*X4500Y245300D01*
X2000Y247800D02*Y245300D01*
Y243600D02*Y242600D01*
Y243100D02*X6000D01*
X5000Y244100D02*X6000Y243100D01*
X17500Y414000D02*X19000D01*
Y410500D01*
X18500Y410000D02*X19000Y410500D01*
X18000Y410000D02*X18500D01*
X17500Y410500D02*X18000Y410000D01*
X20200Y412000D02*X22200Y414000D01*
X20200Y412000D02*X22700D01*
X22200Y414000D02*Y410000D01*
X109000Y172500D02*X110500D01*
X108500Y173000D02*X109000Y172500D01*
X108500Y176000D02*Y173000D01*
Y176000D02*X109000Y176500D01*
X110500D01*
X112200Y172500D02*X113200D01*
X112700Y176500D02*Y172500D01*
X111700Y175500D02*X112700Y176500D01*
X114400Y174500D02*X116400Y176500D01*
X114400Y174500D02*X116900D01*
X116400Y176500D02*Y172500D01*
X118100Y173000D02*X118600Y172500D01*
X118100Y176000D02*Y173000D01*
Y176000D02*X118600Y176500D01*
X119600D01*
X120100Y176000D01*
Y173000D01*
X119600Y172500D02*X120100Y173000D01*
X118600Y172500D02*X119600D01*
X118100Y173500D02*X120100Y175500D01*
X94500Y170000D02*X96000D01*
Y166500D01*
X95500Y166000D02*X96000Y166500D01*
X95000Y166000D02*X95500D01*
X94500Y166500D02*X95000Y166000D01*
X97200Y170000D02*X99200D01*
X97200D02*Y168000D01*
X97700Y168500D01*
X98700D01*
X99200Y168000D01*
Y166500D01*
X98700Y166000D02*X99200Y166500D01*
X97700Y166000D02*X98700D01*
X97200Y166500D02*X97700Y166000D01*
X148850Y187350D02*Y185850D01*
X148350Y185350D02*X148850Y185850D01*
X145350Y185350D02*X148350D01*
X145350D02*X144850Y185850D01*
Y187350D02*Y185850D01*
X148850Y190050D02*Y189050D01*
X144850Y189550D02*X148850D01*
X145850Y188550D02*X144850Y189550D01*
Y192750D02*X145350Y193250D01*
X144850Y192750D02*Y191750D01*
X145350Y191250D02*X144850Y191750D01*
X145350Y191250D02*X148350D01*
X148850Y191750D01*
X146850Y192750D02*X147350Y193250D01*
X146850Y192750D02*Y191250D01*
X148850Y192750D02*Y191750D01*
Y192750D02*X148350Y193250D01*
X147350D02*X148350D01*
X145350Y194450D02*X144850Y194950D01*
Y196450D02*Y194950D01*
Y196450D02*X145350Y196950D01*
X146350D01*
X148850Y194450D02*X146350Y196950D01*
X148850D02*Y194450D01*
X159000Y157500D02*X160500D01*
Y154000D01*
X160000Y153500D02*X160500Y154000D01*
X159500Y153500D02*X160000D01*
X159000Y154000D02*X159500Y153500D01*
X161700Y157000D02*X162200Y157500D01*
X163700D01*
X164200Y157000D01*
Y156000D01*
X161700Y153500D02*X164200Y156000D01*
X161700Y153500D02*X164200D01*
X133000Y181500D02*Y179500D01*
Y181500D02*X133500Y182000D01*
X134500D01*
X135000Y181500D02*X134500Y182000D01*
X135000Y181500D02*Y180000D01*
X133000D02*X137000D01*
X135000D02*X137000Y182000D01*
X133500Y183200D02*X133000Y183700D01*
Y185200D02*Y183700D01*
Y185200D02*X133500Y185700D01*
X134500D01*
X137000Y183200D02*X134500Y185700D01*
X137000D02*Y183200D01*
X136500Y186900D02*X137000Y187400D01*
X133500Y186900D02*X136500D01*
X133500D02*X133000Y187400D01*
Y188400D02*Y187400D01*
Y188400D02*X133500Y188900D01*
X136500D01*
X137000Y188400D02*X136500Y188900D01*
X137000Y188400D02*Y187400D01*
X136000Y186900D02*X134000Y188900D01*
X100500Y189000D02*Y188500D01*
X103000Y186000D01*
Y185000D01*
X100500Y186000D02*Y185000D01*
Y186000D02*X103000Y188500D01*
Y189000D02*Y188500D01*
X104200D02*X104700Y189000D01*
X106200D01*
X106700Y188500D01*
Y187500D01*
X104200Y185000D02*X106700Y187500D01*
X104200Y185000D02*X106700D01*
X130000Y170500D02*Y169000D01*
X129500Y168500D02*X130000Y169000D01*
X126500Y168500D02*X129500D01*
X126500D02*X126000Y169000D01*
Y170500D02*Y169000D01*
X130000Y173200D02*Y172200D01*
X126000Y172700D02*X130000D01*
X127000Y171700D02*X126000Y172700D01*
X128000Y174400D02*X126000Y176400D01*
X128000Y176900D02*Y174400D01*
X126000Y176400D02*X130000D01*
Y179600D02*Y178600D01*
X126000Y179100D02*X130000D01*
X127000Y178100D02*X126000Y179100D01*
X195500Y343000D02*Y339000D01*
X197000Y343000D02*X197500Y342500D01*
Y339500D01*
X197000Y339000D02*X197500Y339500D01*
X195000Y339000D02*X197000D01*
X195000Y343000D02*X197000D01*
X198700Y342500D02*X199200Y343000D01*
X200200D01*
X200700Y342500D01*
Y339500D01*
X200200Y339000D02*X200700Y339500D01*
X199200Y339000D02*X200200D01*
X198700Y339500D02*X199200Y339000D01*
Y341000D02*X200700D01*
X185500Y358000D02*Y354000D01*
X187000Y358000D02*X187500Y357500D01*
Y354500D01*
X187000Y354000D02*X187500Y354500D01*
X185000Y354000D02*X187000D01*
X185000Y358000D02*X187000D01*
X188700Y356000D02*X190700Y358000D01*
X188700Y356000D02*X191200D01*
X190700Y358000D02*Y354000D01*
X195500Y320000D02*Y316000D01*
X197000Y320000D02*X197500Y319500D01*
Y316500D01*
X197000Y316000D02*X197500Y316500D01*
X195000Y316000D02*X197000D01*
X195000Y320000D02*X197000D01*
X198700Y319500D02*X199200Y320000D01*
X200700D01*
X201200Y319500D01*
Y318500D01*
X198700Y316000D02*X201200Y318500D01*
X198700Y316000D02*X201200D01*
X195500Y297000D02*Y293000D01*
X197000Y297000D02*X197500Y296500D01*
Y293500D01*
X197000Y293000D02*X197500Y293500D01*
X195000Y293000D02*X197000D01*
X195000Y297000D02*X197000D01*
X199200Y293000D02*X200200D01*
X199700Y297000D02*Y293000D01*
X198700Y296000D02*X199700Y297000D01*
X145500D02*X147500D01*
X148000Y296500D01*
Y295500D01*
X147500Y295000D02*X148000Y295500D01*
X146000Y295000D02*X147500D01*
X146000Y297000D02*Y293000D01*
Y295000D02*X148000Y293000D01*
X149700D02*X150700D01*
X150200Y297000D02*Y293000D01*
X149200Y296000D02*X150200Y297000D01*
X151900Y293500D02*X152400Y293000D01*
X151900Y296500D02*Y293500D01*
Y296500D02*X152400Y297000D01*
X153400D01*
X153900Y296500D01*
Y293500D01*
X153400Y293000D02*X153900Y293500D01*
X152400Y293000D02*X153400D01*
X151900Y294000D02*X153900Y296000D01*
X145500Y309000D02*X147500D01*
X148000Y308500D01*
Y307500D01*
X147500Y307000D02*X148000Y307500D01*
X146000Y307000D02*X147500D01*
X146000Y309000D02*Y305000D01*
Y307000D02*X148000Y305000D01*
X149700D02*X150700D01*
X150200Y309000D02*Y305000D01*
X149200Y308000D02*X150200Y309000D01*
X151900Y308500D02*X152400Y309000D01*
X153900D01*
X154400Y308500D01*
Y307500D01*
X151900Y305000D02*X154400Y307500D01*
X151900Y305000D02*X154400D01*
X197000Y275000D02*X197500Y274500D01*
X195500Y275000D02*X197000D01*
X195000Y274500D02*X195500Y275000D01*
X195000Y274500D02*Y273500D01*
X195500Y273000D01*
X197000D01*
X197500Y272500D01*
Y271500D01*
X197000Y271000D02*X197500Y271500D01*
X195500Y271000D02*X197000D01*
X195000Y271500D02*X195500Y271000D01*
X198700Y274500D02*X199200Y275000D01*
X200700D01*
X201200Y274500D01*
Y273500D01*
X198700Y271000D02*X201200Y273500D01*
X198700Y271000D02*X201200D01*
X197000Y257000D02*X197500Y256500D01*
X195500Y257000D02*X197000D01*
X195000Y256500D02*X195500Y257000D01*
X195000Y256500D02*Y255500D01*
X195500Y255000D01*
X197000D01*
X197500Y254500D01*
Y253500D01*
X197000Y253000D02*X197500Y253500D01*
X195500Y253000D02*X197000D01*
X195000Y253500D02*X195500Y253000D01*
X199200D02*X200200D01*
X199700Y257000D02*Y253000D01*
X198700Y256000D02*X199700Y257000D01*
X167000Y418000D02*X169250D01*
Y412750D01*
X168500Y412000D02*X169250Y412750D01*
X167750Y412000D02*X168500D01*
X167000Y412750D02*X167750Y412000D01*
X173300Y418000D02*X174050Y417250D01*
X171800Y418000D02*X173300D01*
X171050Y417250D02*X171800Y418000D01*
X171050Y417250D02*Y412750D01*
X171800Y412000D01*
X173300Y415000D02*X174050Y414250D01*
X171050Y415000D02*X173300D01*
X171800Y412000D02*X173300D01*
X174050Y412750D01*
Y414250D02*Y412750D01*
X135500Y319500D02*Y319000D01*
X138000Y316500D01*
Y315500D01*
X135500Y316500D02*Y315500D01*
Y316500D02*X138000Y319000D01*
Y319500D02*Y319000D01*
X139700Y315500D02*X140700D01*
X140200Y319500D02*Y315500D01*
X139200Y318500D02*X140200Y319500D01*
X133500Y346000D02*X135000D01*
X133000Y346500D02*X133500Y346000D01*
X133000Y349500D02*Y346500D01*
Y349500D02*X133500Y350000D01*
X135000D01*
X136700Y346000D02*X137700D01*
X137200Y350000D02*Y346000D01*
X136200Y349000D02*X137200Y350000D01*
X138900D02*X140900D01*
X138900D02*Y348000D01*
X139400Y348500D01*
X140400D01*
X140900Y348000D01*
Y346500D01*
X140400Y346000D02*X140900Y346500D01*
X139400Y346000D02*X140400D01*
X138900Y346500D02*X139400Y346000D01*
X142600D02*X143600D01*
X143100Y350000D02*Y346000D01*
X142100Y349000D02*X143100Y350000D01*
X153500Y334000D02*Y332500D01*
X154000Y334500D02*X153500Y334000D01*
X154000Y334500D02*X157000D01*
X157500Y334000D01*
Y332500D01*
X153500Y330800D02*Y329800D01*
Y330300D02*X157500D01*
X156500Y331300D02*X157500Y330300D01*
Y328600D02*Y326600D01*
X155500Y328600D02*X157500D01*
X155500D02*X156000Y328100D01*
Y327100D01*
X155500Y326600D01*
X154000D02*X155500D01*
X153500Y327100D02*X154000Y326600D01*
X153500Y328100D02*Y327100D01*
X154000Y328600D02*X153500Y328100D01*
X154000Y325400D02*X153500Y324900D01*
X154000Y325400D02*X157000D01*
X157500Y324900D01*
Y323900D01*
X157000Y323400D01*
X154000D02*X157000D01*
X153500Y323900D02*X154000Y323400D01*
X153500Y324900D02*Y323900D01*
X154500Y325400D02*X156500Y323400D01*
X155500Y358500D02*Y356500D01*
Y358500D02*X156000Y359000D01*
X157000D01*
X157500Y358500D02*X157000Y359000D01*
X157500Y358500D02*Y357000D01*
X155500D02*X159500D01*
X157500D02*X159500Y359000D01*
Y361700D02*Y360700D01*
X155500Y361200D02*X159500D01*
X156500Y360200D02*X155500Y361200D01*
X156000Y362900D02*X155500Y363400D01*
Y364400D02*Y363400D01*
Y364400D02*X156000Y364900D01*
X159000D01*
X159500Y364400D02*X159000Y364900D01*
X159500Y364400D02*Y363400D01*
X159000Y362900D02*X159500Y363400D01*
X157500Y364900D02*Y363400D01*
X98000Y380000D02*Y376500D01*
X98500Y376000D01*
X99500D01*
X100000Y376500D01*
Y380000D02*Y376500D01*
X101200Y376000D02*X103700Y378500D01*
Y380000D02*Y378500D01*
X101200Y380000D02*X103700D01*
X92000Y403500D02*X93500D01*
Y400000D01*
X93000Y399500D02*X93500Y400000D01*
X92500Y399500D02*X93000D01*
X92000Y400000D02*X92500Y399500D01*
X94700Y403000D02*X95200Y403500D01*
X96200D01*
X96700Y403000D01*
Y400000D01*
X96200Y399500D02*X96700Y400000D01*
X95200Y399500D02*X96200D01*
X94700Y400000D02*X95200Y399500D01*
Y401500D02*X96700D01*
X122000Y245000D02*Y243500D01*
X121500Y243000D02*X122000Y243500D01*
X118500Y243000D02*X121500D01*
X118500D02*X118000Y243500D01*
Y245000D02*Y243500D01*
X122000Y247700D02*Y246700D01*
X118000Y247200D02*X122000D01*
X119000Y246200D02*X118000Y247200D01*
X120000Y248900D02*X118000Y250900D01*
X120000Y251400D02*Y248900D01*
X118000Y250900D02*X122000D01*
X120000Y252600D02*X118000Y254600D01*
X120000Y255100D02*Y252600D01*
X118000Y254600D02*X122000D01*
X93500Y234000D02*Y230500D01*
X94000Y230000D01*
X95000D01*
X95500Y230500D01*
Y234000D02*Y230500D01*
X96700Y233500D02*X97200Y234000D01*
X98700D01*
X99200Y233500D01*
Y232500D01*
X96700Y230000D02*X99200Y232500D01*
X96700Y230000D02*X99200D01*
X127500Y240500D02*Y239000D01*
X127000Y238500D02*X127500Y239000D01*
X124000Y238500D02*X127000D01*
X124000D02*X123500Y239000D01*
Y240500D02*Y239000D01*
X127500Y243200D02*Y242200D01*
X123500Y242700D02*X127500D01*
X124500Y241700D02*X123500Y242700D01*
X125500Y244400D02*X123500Y246400D01*
X125500Y246900D02*Y244400D01*
X123500Y246400D02*X127500D01*
X123500Y249600D02*X124000Y250100D01*
X123500Y249600D02*Y248600D01*
X124000Y248100D02*X123500Y248600D01*
X124000Y248100D02*X127000D01*
X127500Y248600D01*
X125500Y249600D02*X126000Y250100D01*
X125500Y249600D02*Y248100D01*
X127500Y249600D02*Y248600D01*
Y249600D02*X127000Y250100D01*
X126000D02*X127000D01*
X113000Y248000D02*Y246000D01*
Y248000D02*X113500Y248500D01*
X114500D01*
X115000Y248000D02*X114500Y248500D01*
X115000Y248000D02*Y246500D01*
X113000D02*X117000D01*
X115000D02*X117000Y248500D01*
Y249700D02*X114500Y252200D01*
X113000D02*X114500D01*
X113000D02*Y249700D01*
X112000Y248000D02*Y246500D01*
X111500Y246000D02*X112000Y246500D01*
X108500Y246000D02*X111500D01*
X108500D02*X108000Y246500D01*
Y248000D02*Y246500D01*
X112000Y250700D02*Y249700D01*
X108000Y250200D02*X112000D01*
X109000Y249200D02*X108000Y250200D01*
X110000Y251900D02*X108000Y253900D01*
X110000Y254400D02*Y251900D01*
X108000Y253900D02*X112000D01*
X108500Y255600D02*X108000Y256100D01*
Y257100D02*Y256100D01*
Y257100D02*X108500Y257600D01*
X111500D01*
X112000Y257100D02*X111500Y257600D01*
X112000Y257100D02*Y256100D01*
X111500Y255600D02*X112000Y256100D01*
X110000Y257600D02*Y256100D01*
X78500Y283500D02*Y281500D01*
Y283500D02*X79000Y284000D01*
X80000D01*
X80500Y283500D02*X80000Y284000D01*
X80500Y283500D02*Y282000D01*
X78500D02*X82500D01*
X80500D02*X82500Y284000D01*
Y286700D02*Y285700D01*
X78500Y286200D02*X82500D01*
X79500Y285200D02*X78500Y286200D01*
Y289900D02*Y287900D01*
X80500D01*
X80000Y288400D01*
Y289400D02*Y288400D01*
Y289400D02*X80500Y289900D01*
X82000D01*
X82500Y289400D02*X82000Y289900D01*
X82500Y289400D02*Y288400D01*
X82000Y287900D02*X82500Y288400D01*
X145500Y303000D02*X147500D01*
X148000Y302500D01*
Y301500D01*
X147500Y301000D02*X148000Y301500D01*
X146000Y301000D02*X147500D01*
X146000Y303000D02*Y299000D01*
Y301000D02*X148000Y299000D01*
X149700D02*X150700D01*
X150200Y303000D02*Y299000D01*
X149200Y302000D02*X150200Y303000D01*
X152400Y299000D02*X153400D01*
X152900Y303000D02*Y299000D01*
X151900Y302000D02*X152900Y303000D01*
X148500Y272000D02*X150500D01*
X151000Y271500D01*
Y270500D01*
X150500Y270000D02*X151000Y270500D01*
X149000Y270000D02*X150500D01*
X149000Y272000D02*Y268000D01*
Y270000D02*X151000Y268000D01*
X152200D02*X154200Y270000D01*
Y271500D02*Y270000D01*
X153700Y272000D02*X154200Y271500D01*
X152700Y272000D02*X153700D01*
X152200Y271500D02*X152700Y272000D01*
X152200Y271500D02*Y270500D01*
X152700Y270000D01*
X154200D01*
X148500Y254000D02*X150500D01*
X151000Y253500D01*
Y252500D01*
X150500Y252000D02*X151000Y252500D01*
X149000Y252000D02*X150500D01*
X149000Y254000D02*Y250000D01*
Y252000D02*X151000Y250000D01*
X152200Y250500D02*X152700Y250000D01*
X152200Y251500D02*Y250500D01*
Y251500D02*X152700Y252000D01*
X153700D01*
X154200Y251500D01*
Y250500D01*
X153700Y250000D02*X154200Y250500D01*
X152700Y250000D02*X153700D01*
X152200Y252500D02*X152700Y252000D01*
X152200Y253500D02*Y252500D01*
Y253500D02*X152700Y254000D01*
X153700D01*
X154200Y253500D01*
Y252500D01*
X153700Y252000D02*X154200Y252500D01*
X141000Y226000D02*Y222000D01*
X143000D01*
X144700D02*X145700D01*
X145200Y226000D02*Y222000D01*
X144200Y225000D02*X145200Y226000D01*
X149000Y207000D02*X150500D01*
X148500Y207500D02*X149000Y207000D01*
X148500Y210500D02*Y207500D01*
Y210500D02*X149000Y211000D01*
X150500D01*
X152200Y207000D02*X153200D01*
X152700Y211000D02*Y207000D01*
X151700Y210000D02*X152700Y211000D01*
X155900D02*X156400Y210500D01*
X154900Y211000D02*X155900D01*
X154400Y210500D02*X154900Y211000D01*
X154400Y210500D02*Y207500D01*
X154900Y207000D01*
X155900Y209000D02*X156400Y208500D01*
X154400Y209000D02*X155900D01*
X154900Y207000D02*X155900D01*
X156400Y207500D01*
Y208500D02*Y207500D01*
X157600Y210500D02*X158100Y211000D01*
X159100D01*
X159600Y210500D01*
Y207500D01*
X159100Y207000D02*X159600Y207500D01*
X158100Y207000D02*X159100D01*
X157600Y207500D02*X158100Y207000D01*
Y209000D02*X159600D01*
X129000Y227000D02*Y223500D01*
X129500Y223000D01*
X130500D01*
X131000Y223500D01*
Y227000D02*Y223500D01*
X132200D02*X132700Y223000D01*
X132200Y224500D02*Y223500D01*
Y224500D02*X132700Y225000D01*
X133700D01*
X134200Y224500D01*
Y223500D01*
X133700Y223000D02*X134200Y223500D01*
X132700Y223000D02*X133700D01*
X132200Y225500D02*X132700Y225000D01*
X132200Y226500D02*Y225500D01*
Y226500D02*X132700Y227000D01*
X133700D01*
X134200Y226500D01*
Y225500D01*
X133700Y225000D02*X134200Y225500D01*
X149500Y222000D02*X151000D01*
X149000Y222500D02*X149500Y222000D01*
X149000Y225500D02*Y222500D01*
Y225500D02*X149500Y226000D01*
X151000D01*
X152700Y222000D02*X153700D01*
X153200Y226000D02*Y222000D01*
X152200Y225000D02*X153200Y226000D01*
X156400D02*X156900Y225500D01*
X155400Y226000D02*X156400D01*
X154900Y225500D02*X155400Y226000D01*
X154900Y225500D02*Y222500D01*
X155400Y222000D01*
X156400Y224000D02*X156900Y223500D01*
X154900Y224000D02*X156400D01*
X155400Y222000D02*X156400D01*
X156900Y222500D01*
Y223500D02*Y222500D01*
X158100Y224000D02*X160100Y226000D01*
X158100Y224000D02*X160600D01*
X160100Y226000D02*Y222000D01*
M02*
