G04 start of page 9 for group -4015 idx -4015 *
G04 Title: (unknown), toppaste *
G04 Creator: pcb 20110918 *
G04 CreationDate: Sun 02 Feb 2014 07:13:27 PM GMT UTC *
G04 For: doho *
G04 Format: Gerber/RS-274X *
G04 PCB-Dimensions: 600000 450000 *
G04 PCB-Coordinate-Origin: lower left *
%MOIN*%
%FSLAX25Y25*%
%LNTOPPASTE*%
%ADD132R,0.0142X0.0142*%
%ADD131R,0.0197X0.0197*%
%ADD130R,0.0120X0.0120*%
%ADD129C,0.0120*%
%ADD128R,0.0157X0.0157*%
%ADD127R,0.1220X0.1220*%
%ADD126R,0.0560X0.0560*%
%ADD125C,0.0001*%
%ADD124R,0.0110X0.0110*%
%ADD123R,0.0472X0.0472*%
%ADD122R,0.0295X0.0295*%
%ADD121R,0.0340X0.0340*%
G54D121*X60700Y213000D02*X61300D01*
X60700Y220800D02*X61300D01*
X52500Y216900D02*X53100D01*
G54D122*X119008Y231441D02*X119992D01*
X119008Y236559D02*X119992D01*
G54D121*X31100Y234300D02*Y233700D01*
X38900Y234300D02*Y233700D01*
X35000Y242500D02*Y241900D01*
G54D123*X135350Y334724D02*Y333937D01*
Y326063D02*Y325276D01*
X141650Y326063D02*Y325276D01*
Y334724D02*Y333937D01*
G54D122*X134508Y191941D02*X135492D01*
X134508Y197059D02*X135492D01*
G54D123*X120437Y193150D02*X121224D01*
X111776D02*X112563D01*
X111776Y186850D02*X112563D01*
X120437D02*X121224D01*
G54D122*X112441Y179992D02*Y179008D01*
X117559Y179992D02*Y179008D01*
G54D124*X102693Y221437D02*X105134D01*
X102693Y219468D02*X105134D01*
X102693Y217500D02*X105134D01*
X102693Y215532D02*X105134D01*
X102693Y213563D02*X105134D01*
X107063Y211634D02*Y209193D01*
X109032Y211634D02*Y209193D01*
X111000Y211634D02*Y209193D01*
X112968Y211634D02*Y209193D01*
X114937Y211634D02*Y209193D01*
X116866Y213563D02*X119307D01*
X116866Y215532D02*X119307D01*
X116866Y217500D02*X119307D01*
X116866Y219468D02*X119307D01*
X116866Y221437D02*X119307D01*
X114937Y225807D02*Y223366D01*
X112968Y225807D02*Y223366D01*
X111000Y225807D02*Y223366D01*
X109032Y225807D02*Y223366D01*
X107063Y225807D02*Y223366D01*
G54D125*G36*
X106866Y221634D02*Y213366D01*
X115134D01*
Y221634D01*
X106866D01*
G37*
G54D122*X124008Y225941D02*X124992D01*
X124008Y231059D02*X124992D01*
X53008Y134941D02*X53992D01*
X53008Y140059D02*X53992D01*
X140508Y191941D02*X141492D01*
X140508Y197059D02*X141492D01*
X114008Y233941D02*X114992D01*
X114008Y239059D02*X114992D01*
X56559Y293492D02*Y292508D01*
X51441Y293492D02*Y292508D01*
X135441Y342992D02*Y342008D01*
X140559Y342992D02*Y342008D01*
X149508Y325441D02*X150492D01*
X149508Y330559D02*X150492D01*
X53008Y153559D02*X53992D01*
X53008Y148441D02*X53992D01*
X37559Y227992D02*Y227008D01*
X32441Y227992D02*Y227008D01*
G54D121*X23600Y242400D02*Y241800D01*
X15800Y242400D02*Y241800D01*
X19700Y234200D02*Y233600D01*
G54D122*X17441Y250492D02*Y249508D01*
X22559Y250492D02*Y249508D01*
X37441Y205992D02*Y205008D01*
X42559Y205992D02*Y205008D01*
X9008Y250059D02*X9992D01*
X9008Y244941D02*X9992D01*
G54D121*X45500Y220800D02*Y220200D01*
X37700Y220800D02*Y220200D01*
X41600Y212600D02*Y212000D01*
G54D122*X157441Y301492D02*Y300508D01*
X162559Y301492D02*Y300508D01*
X127508Y192559D02*X128492D01*
X127508Y187441D02*X128492D01*
G54D126*X35200Y135000D02*X41800D01*
X35200Y144000D02*X41800D01*
X35200Y153100D02*X41800D01*
G54D127*X14100Y148500D02*Y139500D01*
G54D122*X68008Y219059D02*X68992D01*
X68008Y213941D02*X68992D01*
X157441Y295492D02*Y294508D01*
X162559Y295492D02*Y294508D01*
X69508Y282941D02*X70492D01*
X69508Y288059D02*X70492D01*
X157441Y307492D02*Y306508D01*
X162559Y307492D02*Y306508D01*
G54D121*X57700Y242500D02*X58300D01*
X57700Y234700D02*X58300D01*
X65900Y238600D02*X66500D01*
G54D128*X61378Y302654D02*Y298228D01*
X64527Y302654D02*Y298228D01*
X67677Y302654D02*Y298228D01*
X70826Y302654D02*Y298228D01*
X73976Y302654D02*Y298228D01*
X77126Y302654D02*Y298228D01*
X80275Y302654D02*Y298228D01*
X83425Y302654D02*Y298228D01*
X86574Y302654D02*Y298228D01*
X89724Y302654D02*Y298228D01*
X92874Y302654D02*Y298228D01*
X96023Y302654D02*Y298228D01*
X99173Y302654D02*Y298228D01*
X102322Y302654D02*Y298228D01*
X105472Y302654D02*Y298228D01*
X108622Y302654D02*Y298228D01*
X115346Y309378D02*X119772D01*
X115346Y312527D02*X119772D01*
X115346Y315677D02*X119772D01*
X115346Y318826D02*X119772D01*
X115346Y321976D02*X119772D01*
X115346Y325126D02*X119772D01*
X115346Y328275D02*X119772D01*
X115346Y331425D02*X119772D01*
X115346Y334574D02*X119772D01*
X115346Y337724D02*X119772D01*
X115346Y340874D02*X119772D01*
X115346Y344023D02*X119772D01*
X115346Y347173D02*X119772D01*
X115346Y350322D02*X119772D01*
X115346Y353472D02*X119772D01*
X115346Y356622D02*X119772D01*
X108622Y367772D02*Y363346D01*
X105473Y367772D02*Y363346D01*
X102323Y367772D02*Y363346D01*
X99174Y367772D02*Y363346D01*
X96024Y367772D02*Y363346D01*
X92874Y367772D02*Y363346D01*
X89725Y367772D02*Y363346D01*
X86575Y367772D02*Y363346D01*
X83426Y367772D02*Y363346D01*
X80276Y367772D02*Y363346D01*
X77126Y367772D02*Y363346D01*
X73977Y367772D02*Y363346D01*
X70827Y367772D02*Y363346D01*
X67678Y367772D02*Y363346D01*
X64528Y367772D02*Y363346D01*
X61378Y367772D02*Y363346D01*
X50228Y356622D02*X54654D01*
X50228Y353473D02*X54654D01*
X50228Y350323D02*X54654D01*
X50228Y347174D02*X54654D01*
X50228Y344024D02*X54654D01*
X50228Y340874D02*X54654D01*
X50228Y337725D02*X54654D01*
X50228Y334575D02*X54654D01*
X50228Y331426D02*X54654D01*
X50228Y328276D02*X54654D01*
X50228Y325126D02*X54654D01*
X50228Y321977D02*X54654D01*
X50228Y318827D02*X54654D01*
X50228Y315678D02*X54654D01*
X50228Y312528D02*X54654D01*
X50228Y309378D02*X54654D01*
G54D122*X162508Y358941D02*X163492D01*
X162508Y364059D02*X163492D01*
X56559Y287492D02*Y286508D01*
X51441Y287492D02*Y286508D01*
X109008Y233941D02*X109992D01*
X109008Y239059D02*X109992D01*
X74508Y282941D02*X75492D01*
X74508Y288059D02*X75492D01*
G54D125*G36*
X183800Y272400D02*Y268400D01*
X187800D01*
Y272400D01*
X183800D01*
G37*
G36*
X167200D02*Y268400D01*
X171200D01*
Y272400D01*
X167200D01*
G37*
G36*
X183800Y277600D02*Y273600D01*
X187800D01*
Y277600D01*
X183800D01*
G37*
G36*
X167200D02*Y273600D01*
X171200D01*
Y277600D01*
X167200D01*
G37*
G36*
X183800Y254400D02*Y250400D01*
X187800D01*
Y254400D01*
X183800D01*
G37*
G36*
X167200D02*Y250400D01*
X171200D01*
Y254400D01*
X167200D01*
G37*
G36*
X183800Y259600D02*Y255600D01*
X187800D01*
Y259600D01*
X183800D01*
G37*
G36*
X167200D02*Y255600D01*
X171200D01*
Y259600D01*
X167200D01*
G37*
G54D122*X156941Y270492D02*Y269508D01*
X162059Y270492D02*Y269508D01*
X156941Y252492D02*Y251508D01*
X162059Y252492D02*Y251508D01*
G54D129*X90400Y392000D02*X93000D01*
G54D130*X90400Y390000D02*X93000D01*
X90400Y388000D02*X93000D01*
X90400Y386100D02*X93000D01*
X90400Y384100D02*X93000D01*
X106900Y384000D02*X109500D01*
X106900Y386000D02*X109500D01*
X106900Y388000D02*X109500D01*
X106900Y389900D02*X109500D01*
X106900Y391900D02*X109500D01*
G54D131*X141926Y219393D02*Y218607D01*
X145074Y219393D02*Y218607D01*
X144607Y210426D02*X145393D01*
X144607Y213574D02*X145393D01*
G54D132*X134559Y219433D02*Y218488D01*
X132000Y219433D02*Y218488D01*
X129441Y219433D02*Y218488D01*
Y214512D02*Y213567D01*
X132000Y214512D02*Y213567D01*
X134559Y214512D02*Y213567D01*
G54D122*X156059Y219492D02*Y218508D01*
X150941Y219492D02*Y218508D01*
M02*
