G04 start of page 11 for group -3984 idx -3984 *
G04 Title: (unknown), fab *
G04 Creator: pcb 20110918 *
G04 CreationDate: Sun 02 Feb 2014 07:13:27 PM GMT UTC *
G04 For: doho *
G04 Format: Gerber/RS-274X *
G04 PCB-Dimensions: 600000 450000 *
G04 PCB-Coordinate-Origin: lower left *
%MOIN*%
%FSLAX25Y25*%
%LNFAB*%
%ADD137C,0.0100*%
%ADD136C,0.0060*%
%ADD135R,0.0080X0.0080*%
G54D135*X81700Y160500D02*G75*G03X83300Y160500I800J0D01*G01*
G75*G03X81700Y160500I-800J0D01*G01*
X80100D02*G75*G03X84900Y160500I2400J0D01*G01*
G75*G03X80100Y160500I-2400J0D01*G01*
X14200Y461250D02*G75*G03X15800Y461250I800J0D01*G01*
G75*G03X14200Y461250I-800J0D01*G01*
X12600D02*G75*G03X17400Y461250I2400J0D01*G01*
G75*G03X12600Y461250I-2400J0D01*G01*
G54D136*X135000Y463500D02*Y462750D01*
X136500Y461250D01*
X138000Y462750D01*
Y463500D02*Y462750D01*
X136500Y461250D02*Y457500D01*
X139800Y460500D02*X142050D01*
X139800Y457500D02*X142800D01*
X139800Y463500D02*Y457500D01*
Y463500D02*X142800D01*
X147600D02*X148350Y462750D01*
X145350Y463500D02*X147600D01*
X144600Y462750D02*X145350Y463500D01*
X144600Y462750D02*Y461250D01*
X145350Y460500D01*
X147600D01*
X148350Y459750D01*
Y458250D01*
X147600Y457500D02*X148350Y458250D01*
X145350Y457500D02*X147600D01*
X144600Y458250D02*X145350Y457500D01*
X98750D02*X100250D01*
X99500Y463500D02*Y457500D01*
X98000Y462000D02*X99500Y463500D01*
X45000Y458250D02*X45750Y457500D01*
X45000Y462750D02*Y458250D01*
Y462750D02*X45750Y463500D01*
X47250D01*
X48000Y462750D01*
Y458250D01*
X47250Y457500D02*X48000Y458250D01*
X45750Y457500D02*X47250D01*
X45000Y459000D02*X48000Y462000D01*
X49800Y457500D02*X50550D01*
X53100D02*X54600D01*
X53850Y463500D02*Y457500D01*
X52350Y462000D02*X53850Y463500D01*
X56400Y460500D02*X59400Y463500D01*
X56400Y460500D02*X60150D01*
X59400Y463500D02*Y457500D01*
X61950Y460500D02*X64950Y463500D01*
X61950Y460500D02*X65700D01*
X64950Y463500D02*Y457500D01*
X80100Y139278D02*X84900Y134478D01*
X80100D02*X84900Y139278D01*
X80900Y138478D02*X84100D01*
X80900D02*Y135278D01*
X84100D01*
Y138478D02*Y135278D01*
X98604Y151089D02*X103404Y146289D01*
X98604D02*X103404Y151089D01*
X99404Y150289D02*X102604D01*
X99404D02*Y147089D01*
X102604D01*
Y150289D02*Y147089D01*
X163100Y182900D02*X167900Y178100D01*
X163100D02*X167900Y182900D01*
X163900Y182100D02*X167100D01*
X163900D02*Y178900D01*
X167100D01*
Y182100D02*Y178900D01*
X163100Y395400D02*X167900Y390600D01*
X163100D02*X167900Y395400D01*
X163900Y394600D02*X167100D01*
X163900D02*Y391400D01*
X167100D01*
Y394600D02*Y391400D01*
X53100Y395400D02*X57900Y390600D01*
X53100D02*X57900Y395400D01*
X53900Y394600D02*X57100D01*
X53900D02*Y391400D01*
X57100D01*
Y394600D02*Y391400D01*
X53100Y182900D02*X57900Y178100D01*
X53100D02*X57900Y182900D01*
X53900Y182100D02*X57100D01*
X53900D02*Y178900D01*
X57100D01*
Y182100D02*Y178900D01*
X12600Y478650D02*X17400Y473850D01*
X12600D02*X17400Y478650D01*
X13400Y477850D02*X16600D01*
X13400D02*Y474650D01*
X16600D01*
Y477850D02*Y474650D01*
X135000Y478500D02*Y477750D01*
X136500Y476250D01*
X138000Y477750D01*
Y478500D02*Y477750D01*
X136500Y476250D02*Y472500D01*
X139800Y475500D02*X142050D01*
X139800Y472500D02*X142800D01*
X139800Y478500D02*Y472500D01*
Y478500D02*X142800D01*
X147600D02*X148350Y477750D01*
X145350Y478500D02*X147600D01*
X144600Y477750D02*X145350Y478500D01*
X144600Y477750D02*Y476250D01*
X145350Y475500D01*
X147600D01*
X148350Y474750D01*
Y473250D01*
X147600Y472500D02*X148350Y473250D01*
X145350Y472500D02*X147600D01*
X144600Y473250D02*X145350Y472500D01*
X100250Y478500D02*X101000Y477750D01*
X98750Y478500D02*X100250D01*
X98000Y477750D02*X98750Y478500D01*
X98000Y477750D02*Y473250D01*
X98750Y472500D01*
X100250Y475500D02*X101000Y474750D01*
X98000Y475500D02*X100250D01*
X98750Y472500D02*X100250D01*
X101000Y473250D01*
Y474750D02*Y473250D01*
X45000D02*X45750Y472500D01*
X45000Y477750D02*Y473250D01*
Y477750D02*X45750Y478500D01*
X47250D01*
X48000Y477750D01*
Y473250D01*
X47250Y472500D02*X48000Y473250D01*
X45750Y472500D02*X47250D01*
X45000Y474000D02*X48000Y477000D01*
X49800Y472500D02*X50550D01*
X53100D02*X54600D01*
X53850Y478500D02*Y472500D01*
X52350Y477000D02*X53850Y478500D01*
X56400Y477750D02*X57150Y478500D01*
X59400D01*
X60150Y477750D01*
Y476250D01*
X56400Y472500D02*X60150Y476250D01*
X56400Y472500D02*X60150D01*
X61950Y478500D02*X64950D01*
X61950D02*Y475500D01*
X62700Y476250D01*
X64200D01*
X64950Y475500D01*
Y473250D01*
X64200Y472500D02*X64950Y473250D01*
X62700Y472500D02*X64200D01*
X61950Y473250D02*X62700Y472500D01*
X68000Y435700D02*Y429300D01*
X64800Y432500D02*X71200D01*
X66400Y434100D02*X69600D01*
X66400D02*Y430900D01*
X69600D01*
Y434100D02*Y430900D01*
X16300Y435700D02*Y429300D01*
X13100Y432500D02*X19500D01*
X14700Y434100D02*X17900D01*
X14700D02*Y430900D01*
X17900D01*
Y434100D02*Y430900D01*
X89000Y435700D02*Y429300D01*
X85800Y432500D02*X92200D01*
X87400Y434100D02*X90600D01*
X87400D02*Y430900D01*
X90600D01*
Y434100D02*Y430900D01*
X136402Y435700D02*Y429300D01*
X133202Y432500D02*X139602D01*
X134802Y434100D02*X138002D01*
X134802D02*Y430900D01*
X138002D01*
Y434100D02*Y430900D01*
X15000Y494450D02*Y488050D01*
X11800Y491250D02*X18200D01*
X13400Y492850D02*X16600D01*
X13400D02*Y489650D01*
X16600D01*
Y492850D02*Y489650D01*
X135000Y493500D02*Y492750D01*
X136500Y491250D01*
X138000Y492750D01*
Y493500D02*Y492750D01*
X136500Y491250D02*Y487500D01*
X139800Y490500D02*X142050D01*
X139800Y487500D02*X142800D01*
X139800Y493500D02*Y487500D01*
Y493500D02*X142800D01*
X147600D02*X148350Y492750D01*
X145350Y493500D02*X147600D01*
X144600Y492750D02*X145350Y493500D01*
X144600Y492750D02*Y491250D01*
X145350Y490500D01*
X147600D01*
X148350Y489750D01*
Y488250D01*
X147600Y487500D02*X148350Y488250D01*
X145350Y487500D02*X147600D01*
X144600Y488250D02*X145350Y487500D01*
X98000Y490500D02*X101000Y493500D01*
X98000Y490500D02*X101750D01*
X101000Y493500D02*Y487500D01*
X45000Y488250D02*X45750Y487500D01*
X45000Y492750D02*Y488250D01*
Y492750D02*X45750Y493500D01*
X47250D01*
X48000Y492750D01*
Y488250D01*
X47250Y487500D02*X48000Y488250D01*
X45750Y487500D02*X47250D01*
X45000Y489000D02*X48000Y492000D01*
X49800Y487500D02*X50550D01*
X52350Y488250D02*X53100Y487500D01*
X52350Y492750D02*Y488250D01*
Y492750D02*X53100Y493500D01*
X54600D01*
X55350Y492750D01*
Y488250D01*
X54600Y487500D02*X55350Y488250D01*
X53100Y487500D02*X54600D01*
X52350Y489000D02*X55350Y492000D01*
X57150Y487500D02*X60150Y490500D01*
Y492750D02*Y490500D01*
X59400Y493500D02*X60150Y492750D01*
X57900Y493500D02*X59400D01*
X57150Y492750D02*X57900Y493500D01*
X57150Y492750D02*Y491250D01*
X57900Y490500D01*
X60150D01*
X62700Y487500D02*X64200D01*
X63450Y493500D02*Y487500D01*
X61950Y492000D02*X63450Y493500D01*
X141000Y146000D02*Y142800D01*
Y146000D02*X143773Y147600D01*
X141000Y146000D02*X138227Y147600D01*
X139400Y146000D02*G75*G03X142600Y146000I1600J0D01*G01*
G75*G03X139400Y146000I-1600J0D01*G01*
X151000Y156000D02*Y152800D01*
Y156000D02*X153773Y157600D01*
X151000Y156000D02*X148227Y157600D01*
X149400Y156000D02*G75*G03X152600Y156000I1600J0D01*G01*
G75*G03X149400Y156000I-1600J0D01*G01*
X151000Y136000D02*Y132800D01*
Y136000D02*X153773Y137600D01*
X151000Y136000D02*X148227Y137600D01*
X149400Y136000D02*G75*G03X152600Y136000I1600J0D01*G01*
G75*G03X149400Y136000I-1600J0D01*G01*
X131000D02*Y132800D01*
Y136000D02*X133773Y137600D01*
X131000Y136000D02*X128227Y137600D01*
X129400Y136000D02*G75*G03X132600Y136000I1600J0D01*G01*
G75*G03X129400Y136000I-1600J0D01*G01*
X131000Y156000D02*Y152800D01*
Y156000D02*X133773Y157600D01*
X131000Y156000D02*X128227Y157600D01*
X129400Y156000D02*G75*G03X132600Y156000I1600J0D01*G01*
G75*G03X129400Y156000I-1600J0D01*G01*
X15000Y506250D02*Y503050D01*
Y506250D02*X17773Y507850D01*
X15000Y506250D02*X12227Y507850D01*
X13400Y506250D02*G75*G03X16600Y506250I1600J0D01*G01*
G75*G03X13400Y506250I-1600J0D01*G01*
X135000Y508500D02*Y507750D01*
X136500Y506250D01*
X138000Y507750D01*
Y508500D02*Y507750D01*
X136500Y506250D02*Y502500D01*
X139800Y505500D02*X142050D01*
X139800Y502500D02*X142800D01*
X139800Y508500D02*Y502500D01*
Y508500D02*X142800D01*
X147600D02*X148350Y507750D01*
X145350Y508500D02*X147600D01*
X144600Y507750D02*X145350Y508500D01*
X144600Y507750D02*Y506250D01*
X145350Y505500D01*
X147600D01*
X148350Y504750D01*
Y503250D01*
X147600Y502500D02*X148350Y503250D01*
X145350Y502500D02*X147600D01*
X144600Y503250D02*X145350Y502500D01*
X98000Y508500D02*X101000D01*
X98000D02*Y505500D01*
X98750Y506250D01*
X100250D01*
X101000Y505500D01*
Y503250D01*
X100250Y502500D02*X101000Y503250D01*
X98750Y502500D02*X100250D01*
X98000Y503250D02*X98750Y502500D01*
X45000Y503250D02*X45750Y502500D01*
X45000Y507750D02*Y503250D01*
Y507750D02*X45750Y508500D01*
X47250D01*
X48000Y507750D01*
Y503250D01*
X47250Y502500D02*X48000Y503250D01*
X45750Y502500D02*X47250D01*
X45000Y504000D02*X48000Y507000D01*
X49800Y502500D02*X50550D01*
X52350Y503250D02*X53100Y502500D01*
X52350Y507750D02*Y503250D01*
Y507750D02*X53100Y508500D01*
X54600D01*
X55350Y507750D01*
Y503250D01*
X54600Y502500D02*X55350Y503250D01*
X53100Y502500D02*X54600D01*
X52350Y504000D02*X55350Y507000D01*
X59400Y508500D02*X60150Y507750D01*
X57900Y508500D02*X59400D01*
X57150Y507750D02*X57900Y508500D01*
X57150Y507750D02*Y503250D01*
X57900Y502500D01*
X59400Y505500D02*X60150Y504750D01*
X57150Y505500D02*X59400D01*
X57900Y502500D02*X59400D01*
X60150Y503250D01*
Y504750D02*Y503250D01*
X61950Y507750D02*X62700Y508500D01*
X64200D01*
X64950Y507750D01*
Y503250D01*
X64200Y502500D02*X64950Y503250D01*
X62700Y502500D02*X64200D01*
X61950Y503250D02*X62700Y502500D01*
Y505500D02*X64950D01*
X180900Y342600D02*X184100D01*
X180900D02*Y339400D01*
X184100D01*
Y342600D02*Y339400D01*
X170900Y342600D02*X174100D01*
X170900D02*Y339400D01*
X174100D01*
Y342600D02*Y339400D01*
X180900Y319600D02*X184100D01*
X180900D02*Y316400D01*
X184100D01*
Y319600D02*Y316400D01*
X170900Y319600D02*X174100D01*
X170900D02*Y316400D01*
X174100D01*
Y319600D02*Y316400D01*
X180900Y296600D02*X184100D01*
X180900D02*Y293400D01*
X184100D01*
Y296600D02*Y293400D01*
X170900Y296600D02*X174100D01*
X170900D02*Y293400D01*
X174100D01*
Y296600D02*Y293400D01*
X180900Y365600D02*X184100D01*
X180900D02*Y362400D01*
X184100D01*
Y365600D02*Y362400D01*
X170900Y365600D02*X174100D01*
X170900D02*Y362400D01*
X174100D01*
Y365600D02*Y362400D01*
X13400Y522850D02*X16600D01*
X13400D02*Y519650D01*
X16600D01*
Y522850D02*Y519650D01*
X135000Y523500D02*Y522750D01*
X136500Y521250D01*
X138000Y522750D01*
Y523500D02*Y522750D01*
X136500Y521250D02*Y517500D01*
X139800Y520500D02*X142050D01*
X139800Y517500D02*X142800D01*
X139800Y523500D02*Y517500D01*
Y523500D02*X142800D01*
X147600D02*X148350Y522750D01*
X145350Y523500D02*X147600D01*
X144600Y522750D02*X145350Y523500D01*
X144600Y522750D02*Y521250D01*
X145350Y520500D01*
X147600D01*
X148350Y519750D01*
Y518250D01*
X147600Y517500D02*X148350Y518250D01*
X145350Y517500D02*X147600D01*
X144600Y518250D02*X145350Y517500D01*
X98000Y518250D02*X98750Y517500D01*
X98000Y519750D02*Y518250D01*
Y519750D02*X98750Y520500D01*
X100250D01*
X101000Y519750D01*
Y518250D01*
X100250Y517500D02*X101000Y518250D01*
X98750Y517500D02*X100250D01*
X98000Y521250D02*X98750Y520500D01*
X98000Y522750D02*Y521250D01*
Y522750D02*X98750Y523500D01*
X100250D01*
X101000Y522750D01*
Y521250D01*
X100250Y520500D02*X101000Y521250D01*
X45000Y518250D02*X45750Y517500D01*
X45000Y522750D02*Y518250D01*
Y522750D02*X45750Y523500D01*
X47250D01*
X48000Y522750D01*
Y518250D01*
X47250Y517500D02*X48000Y518250D01*
X45750Y517500D02*X47250D01*
X45000Y519000D02*X48000Y522000D01*
X49800Y517500D02*X50550D01*
X52350Y518250D02*X53100Y517500D01*
X52350Y522750D02*Y518250D01*
Y522750D02*X53100Y523500D01*
X54600D01*
X55350Y522750D01*
Y518250D01*
X54600Y517500D02*X55350Y518250D01*
X53100Y517500D02*X54600D01*
X52350Y519000D02*X55350Y522000D01*
X57150Y520500D02*X60150Y523500D01*
X57150Y520500D02*X60900D01*
X60150Y523500D02*Y517500D01*
X62700Y522750D02*X63450Y523500D01*
X64950D01*
X65700Y522750D01*
Y518250D01*
X64950Y517500D02*X65700Y518250D01*
X63450Y517500D02*X64950D01*
X62700Y518250D02*X63450Y517500D01*
Y520500D02*X65700D01*
X161200Y432500D02*G75*G03X162800Y432500I800J0D01*G01*
G75*G03X161200Y432500I-800J0D01*G01*
X171200D02*G75*G03X172800Y432500I800J0D01*G01*
G75*G03X171200Y432500I-800J0D01*G01*
X181200D02*G75*G03X182800Y432500I800J0D01*G01*
G75*G03X181200Y432500I-800J0D01*G01*
X14200Y536250D02*G75*G03X15800Y536250I800J0D01*G01*
G75*G03X14200Y536250I-800J0D01*G01*
X135000Y538500D02*Y537750D01*
X136500Y536250D01*
X138000Y537750D01*
Y538500D02*Y537750D01*
X136500Y536250D02*Y532500D01*
X139800Y535500D02*X142050D01*
X139800Y532500D02*X142800D01*
X139800Y538500D02*Y532500D01*
Y538500D02*X142800D01*
X147600D02*X148350Y537750D01*
X145350Y538500D02*X147600D01*
X144600Y537750D02*X145350Y538500D01*
X144600Y537750D02*Y536250D01*
X145350Y535500D01*
X147600D01*
X148350Y534750D01*
Y533250D01*
X147600Y532500D02*X148350Y533250D01*
X145350Y532500D02*X147600D01*
X144600Y533250D02*X145350Y532500D01*
X98000Y537750D02*X98750Y538500D01*
X100250D01*
X101000Y537750D01*
Y533250D01*
X100250Y532500D02*X101000Y533250D01*
X98750Y532500D02*X100250D01*
X98000Y533250D02*X98750Y532500D01*
Y535500D02*X101000D01*
X45000Y533250D02*X45750Y532500D01*
X45000Y537750D02*Y533250D01*
Y537750D02*X45750Y538500D01*
X47250D01*
X48000Y537750D01*
Y533250D01*
X47250Y532500D02*X48000Y533250D01*
X45750Y532500D02*X47250D01*
X45000Y534000D02*X48000Y537000D01*
X49800Y532500D02*X50550D01*
X52350Y533250D02*X53100Y532500D01*
X52350Y537750D02*Y533250D01*
Y537750D02*X53100Y538500D01*
X54600D01*
X55350Y537750D01*
Y533250D01*
X54600Y532500D02*X55350Y533250D01*
X53100Y532500D02*X54600D01*
X52350Y534000D02*X55350Y537000D01*
X57150Y537750D02*X57900Y538500D01*
X59400D01*
X60150Y537750D01*
Y533250D01*
X59400Y532500D02*X60150Y533250D01*
X57900Y532500D02*X59400D01*
X57150Y533250D02*X57900Y532500D01*
Y535500D02*X60150D01*
X61950Y533250D02*X62700Y532500D01*
X61950Y534750D02*Y533250D01*
Y534750D02*X62700Y535500D01*
X64200D01*
X64950Y534750D01*
Y533250D01*
X64200Y532500D02*X64950Y533250D01*
X62700Y532500D02*X64200D01*
X61950Y536250D02*X62700Y535500D01*
X61950Y537750D02*Y536250D01*
Y537750D02*X62700Y538500D01*
X64200D01*
X64950Y537750D01*
Y536250D01*
X64200Y535500D02*X64950Y536250D01*
X54700Y423000D02*X57100Y420600D01*
X54700D02*X57100Y423000D01*
X44900D02*X47300Y420600D01*
X44900D02*X47300Y423000D01*
X37000D02*X39400Y420600D01*
X37000D02*X39400Y423000D01*
X27200D02*X29600Y420600D01*
X27200D02*X29600Y423000D01*
X116422Y415157D02*X118822Y412757D01*
X116422D02*X118822Y415157D01*
X106680D02*X109080Y412757D01*
X106680D02*X109080Y415157D01*
X116422Y423031D02*X118822Y420631D01*
X116422D02*X118822Y423031D01*
X106680D02*X109080Y420631D01*
X106680D02*X109080Y423031D01*
X13800Y552450D02*X16200Y550050D01*
X13800D02*X16200Y552450D01*
X135000Y553500D02*Y552750D01*
X136500Y551250D01*
X138000Y552750D01*
Y553500D02*Y552750D01*
X136500Y551250D02*Y547500D01*
X139800Y550500D02*X142050D01*
X139800Y547500D02*X142800D01*
X139800Y553500D02*Y547500D01*
Y553500D02*X142800D01*
X147600D02*X148350Y552750D01*
X145350Y553500D02*X147600D01*
X144600Y552750D02*X145350Y553500D01*
X144600Y552750D02*Y551250D01*
X145350Y550500D01*
X147600D01*
X148350Y549750D01*
Y548250D01*
X147600Y547500D02*X148350Y548250D01*
X145350Y547500D02*X147600D01*
X144600Y548250D02*X145350Y547500D01*
X98000Y548250D02*X98750Y547500D01*
X98000Y549750D02*Y548250D01*
Y549750D02*X98750Y550500D01*
X100250D01*
X101000Y549750D01*
Y548250D01*
X100250Y547500D02*X101000Y548250D01*
X98750Y547500D02*X100250D01*
X98000Y551250D02*X98750Y550500D01*
X98000Y552750D02*Y551250D01*
Y552750D02*X98750Y553500D01*
X100250D01*
X101000Y552750D01*
Y551250D01*
X100250Y550500D02*X101000Y551250D01*
X45000Y548250D02*X45750Y547500D01*
X45000Y552750D02*Y548250D01*
Y552750D02*X45750Y553500D01*
X47250D01*
X48000Y552750D01*
Y548250D01*
X47250Y547500D02*X48000Y548250D01*
X45750Y547500D02*X47250D01*
X45000Y549000D02*X48000Y552000D01*
X49800Y547500D02*X50550D01*
X52350Y548250D02*X53100Y547500D01*
X52350Y552750D02*Y548250D01*
Y552750D02*X53100Y553500D01*
X54600D01*
X55350Y552750D01*
Y548250D01*
X54600Y547500D02*X55350Y548250D01*
X53100Y547500D02*X54600D01*
X52350Y549000D02*X55350Y552000D01*
X57150Y552750D02*X57900Y553500D01*
X59400D01*
X60150Y552750D01*
Y548250D01*
X59400Y547500D02*X60150Y548250D01*
X57900Y547500D02*X59400D01*
X57150Y548250D02*X57900Y547500D01*
Y550500D02*X60150D01*
X64200Y553500D02*X64950Y552750D01*
X62700Y553500D02*X64200D01*
X61950Y552750D02*X62700Y553500D01*
X61950Y552750D02*Y548250D01*
X62700Y547500D01*
X64200Y550500D02*X64950Y549750D01*
X61950Y550500D02*X64200D01*
X62700Y547500D02*X64200D01*
X64950Y548250D01*
Y549750D02*Y548250D01*
X38000Y275600D02*Y272400D01*
X36400Y274000D02*X39600D01*
X5500Y138600D02*Y135400D01*
X3900Y137000D02*X7100D01*
X29000Y145600D02*Y142400D01*
X27400Y144000D02*X30600D01*
X5500Y145600D02*Y142400D01*
X3900Y144000D02*X7100D01*
X5500Y153100D02*Y149900D01*
X3900Y151500D02*X7100D01*
X61000Y209600D02*Y206400D01*
X59400Y208000D02*X62600D01*
X17500Y132600D02*Y129400D01*
X15900Y131000D02*X19100D01*
X140000Y279100D02*Y275900D01*
X138400Y277500D02*X141600D01*
X11000Y132600D02*Y129400D01*
X9400Y131000D02*X12600D01*
X87500Y270100D02*Y266900D01*
X85900Y268500D02*X89100D01*
X47500Y145600D02*Y142400D01*
X45900Y144000D02*X49100D01*
X11000Y158600D02*Y155400D01*
X9400Y157000D02*X12600D01*
X17500Y158600D02*Y155400D01*
X15900Y157000D02*X19100D01*
X23000Y145600D02*Y142400D01*
X21400Y144000D02*X24600D01*
X68500Y211600D02*Y208400D01*
X66900Y210000D02*X70100D01*
X128000Y184600D02*Y181400D01*
X126400Y183000D02*X129600D01*
X145559Y193541D02*Y190341D01*
X143959Y191941D02*X147159D01*
X145500Y344100D02*Y340900D01*
X143900Y342500D02*X147100D01*
X122500Y181100D02*Y177900D01*
X120900Y179500D02*X124100D01*
X35000Y249600D02*Y246400D01*
X33400Y248000D02*X36600D01*
X135000Y314100D02*Y310900D01*
X133400Y312500D02*X136600D01*
X185500Y282600D02*Y279400D01*
X183900Y281000D02*X187100D01*
X130500Y318100D02*Y314900D01*
X128900Y316500D02*X132100D01*
X119500Y211600D02*Y208400D01*
X117900Y210000D02*X121100D01*
X119500Y241600D02*Y238400D01*
X117900Y240000D02*X121100D01*
X170000Y354100D02*Y350900D01*
X168400Y352500D02*X171600D01*
X86000Y225600D02*Y222400D01*
X84400Y224000D02*X87600D01*
X185500Y264600D02*Y261400D01*
X183900Y263000D02*X187100D01*
X123000Y376600D02*Y373400D01*
X121400Y375000D02*X124600D01*
X119500Y227600D02*Y224400D01*
X117900Y226000D02*X121100D01*
X113000Y201600D02*Y198400D01*
X111400Y200000D02*X114600D01*
X84000Y254100D02*Y250900D01*
X82400Y252500D02*X85600D01*
X124500Y236600D02*Y233400D01*
X122900Y235000D02*X126100D01*
X150000Y336600D02*Y333400D01*
X148400Y335000D02*X151600D01*
X124000Y349600D02*Y346400D01*
X122400Y348000D02*X125600D01*
X104500Y235600D02*Y232400D01*
X102900Y234000D02*X106100D01*
X17500Y257100D02*Y253900D01*
X15900Y255500D02*X19100D01*
X88000Y289100D02*Y285900D01*
X86400Y287500D02*X89600D01*
X51000Y244100D02*Y240900D01*
X49400Y242500D02*X52600D01*
X53500Y145600D02*Y142400D01*
X51900Y144000D02*X55100D01*
X46500Y207100D02*Y203900D01*
X44900Y205500D02*X48100D01*
X9500Y242600D02*Y239400D01*
X7900Y241000D02*X11100D01*
X96500Y208100D02*Y204900D01*
X94900Y206500D02*X98100D01*
X95500Y217100D02*Y213900D01*
X93900Y215500D02*X97100D01*
X77000Y402100D02*Y398900D01*
X75400Y400500D02*X78600D01*
X46500Y288600D02*Y285400D01*
X44900Y287000D02*X48100D01*
X80500Y327100D02*Y323900D01*
X78900Y325500D02*X82100D01*
X77000Y308600D02*Y305400D01*
X75400Y307000D02*X78600D01*
X80500Y313100D02*Y309900D01*
X78900Y311500D02*X82100D01*
X60000Y348600D02*Y345400D01*
X58400Y347000D02*X61600D01*
X110500Y327600D02*Y324400D01*
X108900Y326000D02*X112100D01*
X106500Y323100D02*Y319900D01*
X104900Y321500D02*X108100D01*
X126000Y322100D02*Y318900D01*
X124400Y320500D02*X127600D01*
X30500Y282100D02*Y278900D01*
X28900Y280500D02*X32100D01*
X45000Y345600D02*Y342400D01*
X43400Y344000D02*X46600D01*
X45000Y314100D02*Y310900D01*
X43400Y312500D02*X46600D01*
X114500Y244100D02*Y240900D01*
X112900Y242500D02*X116100D01*
X109500Y244100D02*Y240900D01*
X107900Y242500D02*X111100D01*
X100000Y259600D02*Y256400D01*
X98400Y258000D02*X101600D01*
X88500Y247600D02*Y244400D01*
X86900Y246000D02*X90100D01*
X104000Y285600D02*Y282400D01*
X102400Y284000D02*X105600D01*
X75000Y276600D02*Y273400D01*
X73400Y275000D02*X76600D01*
X84000Y280600D02*Y277400D01*
X82400Y279000D02*X85600D01*
X64500Y292600D02*Y289400D01*
X62900Y291000D02*X66100D01*
X15000Y567850D02*Y564650D01*
X13400Y566250D02*X16600D01*
X135000Y568500D02*Y567750D01*
X136500Y566250D01*
X138000Y567750D01*
Y568500D02*Y567750D01*
X136500Y566250D02*Y562500D01*
X139800Y565500D02*X142050D01*
X139800Y562500D02*X142800D01*
X139800Y568500D02*Y562500D01*
Y568500D02*X142800D01*
X147600D02*X148350Y567750D01*
X145350Y568500D02*X147600D01*
X144600Y567750D02*X145350Y568500D01*
X144600Y567750D02*Y566250D01*
X145350Y565500D01*
X147600D01*
X148350Y564750D01*
Y563250D01*
X147600Y562500D02*X148350Y563250D01*
X145350Y562500D02*X147600D01*
X144600Y563250D02*X145350Y562500D01*
X100250Y568500D02*X101000Y567750D01*
X98750Y568500D02*X100250D01*
X98000Y567750D02*X98750Y568500D01*
X98000Y567750D02*Y563250D01*
X98750Y562500D01*
X100250Y565500D02*X101000Y564750D01*
X98000Y565500D02*X100250D01*
X98750Y562500D02*X100250D01*
X101000Y563250D01*
Y564750D02*Y563250D01*
X102800Y565500D02*X105800Y568500D01*
X102800Y565500D02*X106550D01*
X105800Y568500D02*Y562500D01*
X45000Y563250D02*X45750Y562500D01*
X45000Y567750D02*Y563250D01*
Y567750D02*X45750Y568500D01*
X47250D01*
X48000Y567750D01*
Y563250D01*
X47250Y562500D02*X48000Y563250D01*
X45750Y562500D02*X47250D01*
X45000Y564000D02*X48000Y567000D01*
X49800Y562500D02*X50550D01*
X52350Y563250D02*X53100Y562500D01*
X52350Y567750D02*Y563250D01*
Y567750D02*X53100Y568500D01*
X54600D01*
X55350Y567750D01*
Y563250D01*
X54600Y562500D02*X55350Y563250D01*
X53100Y562500D02*X54600D01*
X52350Y564000D02*X55350Y567000D01*
X57150Y567750D02*X57900Y568500D01*
X60150D01*
X60900Y567750D01*
Y566250D01*
X57150Y562500D02*X60900Y566250D01*
X57150Y562500D02*X60900D01*
X62700Y563250D02*X63450Y562500D01*
X62700Y567750D02*Y563250D01*
Y567750D02*X63450Y568500D01*
X64950D01*
X65700Y567750D01*
Y563250D01*
X64950Y562500D02*X65700Y563250D01*
X63450Y562500D02*X64950D01*
X62700Y564000D02*X65700Y567000D01*
X108500Y220000D02*Y218400D01*
Y220000D02*X109887Y220800D01*
X108500Y220000D02*X107113Y220800D01*
X113500Y220000D02*Y218400D01*
Y220000D02*X114887Y220800D01*
X113500Y220000D02*X112113Y220800D01*
X113500Y215000D02*Y213400D01*
Y215000D02*X114887Y215800D01*
X113500Y215000D02*X112113Y215800D01*
X108500Y215000D02*Y213400D01*
Y215000D02*X109887Y215800D01*
X108500Y215000D02*X107113Y215800D01*
X111000Y217500D02*Y215900D01*
Y217500D02*X112387Y218300D01*
X111000Y217500D02*X109613Y218300D01*
X132000Y224000D02*Y222400D01*
Y224000D02*X133387Y224800D01*
X132000Y224000D02*X130613Y224800D01*
X132000Y209500D02*Y207900D01*
Y209500D02*X133387Y210300D01*
X132000Y209500D02*X130613Y210300D01*
X145000Y207500D02*Y205900D01*
Y207500D02*X146387Y208300D01*
X145000Y207500D02*X143613Y208300D01*
X15000Y581250D02*Y579650D01*
Y581250D02*X16387Y582050D01*
X15000Y581250D02*X13613Y582050D01*
X135000Y583500D02*Y582750D01*
X136500Y581250D01*
X138000Y582750D01*
Y583500D02*Y582750D01*
X136500Y581250D02*Y577500D01*
X139800Y580500D02*X142050D01*
X139800Y577500D02*X142800D01*
X139800Y583500D02*Y577500D01*
Y583500D02*X142800D01*
X147600D02*X148350Y582750D01*
X145350Y583500D02*X147600D01*
X144600Y582750D02*X145350Y583500D01*
X144600Y582750D02*Y581250D01*
X145350Y580500D01*
X147600D01*
X148350Y579750D01*
Y578250D01*
X147600Y577500D02*X148350Y578250D01*
X145350Y577500D02*X147600D01*
X144600Y578250D02*X145350Y577500D01*
X98000Y578250D02*X98750Y577500D01*
X98000Y579750D02*Y578250D01*
Y579750D02*X98750Y580500D01*
X100250D01*
X101000Y579750D01*
Y578250D01*
X100250Y577500D02*X101000Y578250D01*
X98750Y577500D02*X100250D01*
X98000Y581250D02*X98750Y580500D01*
X98000Y582750D02*Y581250D01*
Y582750D02*X98750Y583500D01*
X100250D01*
X101000Y582750D01*
Y581250D01*
X100250Y580500D02*X101000Y581250D01*
X45000Y578250D02*X45750Y577500D01*
X45000Y582750D02*Y578250D01*
Y582750D02*X45750Y583500D01*
X47250D01*
X48000Y582750D01*
Y578250D01*
X47250Y577500D02*X48000Y578250D01*
X45750Y577500D02*X47250D01*
X45000Y579000D02*X48000Y582000D01*
X49800Y577500D02*X50550D01*
X52350Y578250D02*X53100Y577500D01*
X52350Y582750D02*Y578250D01*
Y582750D02*X53100Y583500D01*
X54600D01*
X55350Y582750D01*
Y578250D01*
X54600Y577500D02*X55350Y578250D01*
X53100Y577500D02*X54600D01*
X52350Y579000D02*X55350Y582000D01*
X57900Y577500D02*X59400D01*
X58650Y583500D02*Y577500D01*
X57150Y582000D02*X58650Y583500D01*
X61200D02*X64200D01*
X61200D02*Y580500D01*
X61950Y581250D01*
X63450D01*
X64200Y580500D01*
Y578250D01*
X63450Y577500D02*X64200Y578250D01*
X61950Y577500D02*X63450D01*
X61200Y578250D02*X61950Y577500D01*
X3000Y598500D02*X3750Y597750D01*
X750Y598500D02*X3000D01*
X0Y597750D02*X750Y598500D01*
X0Y597750D02*Y596250D01*
X750Y595500D01*
X3000D01*
X3750Y594750D01*
Y593250D01*
X3000Y592500D02*X3750Y593250D01*
X750Y592500D02*X3000D01*
X0Y593250D02*X750Y592500D01*
X5550Y595500D02*Y593250D01*
X6300Y592500D01*
X8550Y595500D02*Y591000D01*
X7800Y590250D02*X8550Y591000D01*
X6300Y590250D02*X7800D01*
X5550Y591000D02*X6300Y590250D01*
Y592500D02*X7800D01*
X8550Y593250D01*
X11100Y594750D02*Y592500D01*
Y594750D02*X11850Y595500D01*
X12600D01*
X13350Y594750D01*
Y592500D01*
Y594750D02*X14100Y595500D01*
X14850D01*
X15600Y594750D01*
Y592500D01*
X10350Y595500D02*X11100Y594750D01*
X17400Y598500D02*Y592500D01*
Y593250D02*X18150Y592500D01*
X19650D01*
X20400Y593250D01*
Y594750D02*Y593250D01*
X19650Y595500D02*X20400Y594750D01*
X18150Y595500D02*X19650D01*
X17400Y594750D02*X18150Y595500D01*
X22200Y594750D02*Y593250D01*
Y594750D02*X22950Y595500D01*
X24450D01*
X25200Y594750D01*
Y593250D01*
X24450Y592500D02*X25200Y593250D01*
X22950Y592500D02*X24450D01*
X22200Y593250D02*X22950Y592500D01*
X27000Y598500D02*Y593250D01*
X27750Y592500D01*
X0Y589250D02*X29250D01*
X41750Y598500D02*Y592500D01*
X44000Y598500D02*X44750Y597750D01*
Y593250D01*
X44000Y592500D02*X44750Y593250D01*
X41000Y592500D02*X44000D01*
X41000Y598500D02*X44000D01*
X46550Y597000D02*Y596250D01*
Y594750D02*Y592500D01*
X50300Y595500D02*X51050Y594750D01*
X48800Y595500D02*X50300D01*
X48050Y594750D02*X48800Y595500D01*
X48050Y594750D02*Y593250D01*
X48800Y592500D01*
X51050Y595500D02*Y593250D01*
X51800Y592500D01*
X48800D02*X50300D01*
X51050Y593250D01*
X54350Y594750D02*Y592500D01*
Y594750D02*X55100Y595500D01*
X55850D01*
X56600Y594750D01*
Y592500D01*
Y594750D02*X57350Y595500D01*
X58100D01*
X58850Y594750D01*
Y592500D01*
X53600Y595500D02*X54350Y594750D01*
X60650Y592500D02*X61400D01*
X65900Y593250D02*X66650Y592500D01*
X65900Y597750D02*X66650Y598500D01*
X65900Y597750D02*Y593250D01*
X68450Y598500D02*X69950D01*
X69200D02*Y592500D01*
X68450D02*X69950D01*
X72500Y594750D02*Y592500D01*
Y594750D02*X73250Y595500D01*
X74000D01*
X74750Y594750D01*
Y592500D01*
X71750Y595500D02*X72500Y594750D01*
X77300Y595500D02*X79550D01*
X76550Y594750D02*X77300Y595500D01*
X76550Y594750D02*Y593250D01*
X77300Y592500D01*
X79550D01*
X81350Y598500D02*Y592500D01*
Y594750D02*X82100Y595500D01*
X83600D01*
X84350Y594750D01*
Y592500D01*
X86150Y598500D02*X86900Y597750D01*
Y593250D01*
X86150Y592500D02*X86900Y593250D01*
X41000Y589250D02*X88700D01*
X95750Y592500D02*X98000D01*
X95000Y593250D02*X95750Y592500D01*
X95000Y597750D02*Y593250D01*
Y597750D02*X95750Y598500D01*
X98000D01*
X99800Y594750D02*Y593250D01*
Y594750D02*X100550Y595500D01*
X102050D01*
X102800Y594750D01*
Y593250D01*
X102050Y592500D02*X102800Y593250D01*
X100550Y592500D02*X102050D01*
X99800Y593250D02*X100550Y592500D01*
X104600Y595500D02*Y593250D01*
X105350Y592500D01*
X106850D01*
X107600Y593250D01*
Y595500D02*Y593250D01*
X110150Y594750D02*Y592500D01*
Y594750D02*X110900Y595500D01*
X111650D01*
X112400Y594750D01*
Y592500D01*
X109400Y595500D02*X110150Y594750D01*
X114950Y598500D02*Y593250D01*
X115700Y592500D01*
X114200Y596250D02*X115700D01*
X95000Y589250D02*X117200D01*
X130750Y598500D02*Y592500D01*
X130000Y598500D02*X133000D01*
X133750Y597750D01*
Y596250D01*
X133000Y595500D02*X133750Y596250D01*
X130750Y595500D02*X133000D01*
X135550Y598500D02*Y593250D01*
X136300Y592500D01*
X140050Y595500D02*X140800Y594750D01*
X138550Y595500D02*X140050D01*
X137800Y594750D02*X138550Y595500D01*
X137800Y594750D02*Y593250D01*
X138550Y592500D01*
X140800Y595500D02*Y593250D01*
X141550Y592500D01*
X138550D02*X140050D01*
X140800Y593250D01*
X144100Y598500D02*Y593250D01*
X144850Y592500D01*
X143350Y596250D02*X144850D01*
X147100Y592500D02*X149350D01*
X146350Y593250D02*X147100Y592500D01*
X146350Y594750D02*Y593250D01*
Y594750D02*X147100Y595500D01*
X148600D01*
X149350Y594750D01*
X146350Y594000D02*X149350D01*
Y594750D02*Y594000D01*
X154150Y598500D02*Y592500D01*
X153400D02*X154150Y593250D01*
X151900Y592500D02*X153400D01*
X151150Y593250D02*X151900Y592500D01*
X151150Y594750D02*Y593250D01*
Y594750D02*X151900Y595500D01*
X153400D01*
X154150Y594750D01*
X157450Y595500D02*Y594750D01*
Y593250D02*Y592500D01*
X155950Y597750D02*Y597000D01*
Y597750D02*X156700Y598500D01*
X158200D01*
X158950Y597750D01*
Y597000D01*
X157450Y595500D02*X158950Y597000D01*
X130000Y589250D02*X160750D01*
X0Y613500D02*X3000D01*
X1500D02*Y607500D01*
X4800Y613500D02*Y607500D01*
Y609750D02*X5550Y610500D01*
X7050D01*
X7800Y609750D01*
Y607500D01*
X10350D02*X12600D01*
X9600Y608250D02*X10350Y607500D01*
X9600Y609750D02*Y608250D01*
Y609750D02*X10350Y610500D01*
X11850D01*
X12600Y609750D01*
X9600Y609000D02*X12600D01*
Y609750D02*Y609000D01*
X15150Y609750D02*Y607500D01*
Y609750D02*X15900Y610500D01*
X17400D01*
X14400D02*X15150Y609750D01*
X19950Y607500D02*X22200D01*
X19200Y608250D02*X19950Y607500D01*
X19200Y609750D02*Y608250D01*
Y609750D02*X19950Y610500D01*
X21450D01*
X22200Y609750D01*
X19200Y609000D02*X22200D01*
Y609750D02*Y609000D01*
X28950Y610500D02*X29700Y609750D01*
X27450Y610500D02*X28950D01*
X26700Y609750D02*X27450Y610500D01*
X26700Y609750D02*Y608250D01*
X27450Y607500D01*
X29700Y610500D02*Y608250D01*
X30450Y607500D01*
X27450D02*X28950D01*
X29700Y608250D01*
X33000Y609750D02*Y607500D01*
Y609750D02*X33750Y610500D01*
X35250D01*
X32250D02*X33000Y609750D01*
X37800Y607500D02*X40050D01*
X37050Y608250D02*X37800Y607500D01*
X37050Y609750D02*Y608250D01*
Y609750D02*X37800Y610500D01*
X39300D01*
X40050Y609750D01*
X37050Y609000D02*X40050D01*
Y609750D02*Y609000D01*
X44550Y607500D02*X47550Y610500D01*
Y612750D02*Y610500D01*
X46800Y613500D02*X47550Y612750D01*
X45300Y613500D02*X46800D01*
X44550Y612750D02*X45300Y613500D01*
X44550Y612750D02*Y611250D01*
X45300Y610500D01*
X47550D01*
X55050Y613500D02*Y607500D01*
X54300D02*X55050Y608250D01*
X52800Y607500D02*X54300D01*
X52050Y608250D02*X52800Y607500D01*
X52050Y609750D02*Y608250D01*
Y609750D02*X52800Y610500D01*
X54300D01*
X55050Y609750D01*
X56850Y612000D02*Y611250D01*
Y609750D02*Y607500D01*
X59100Y612750D02*Y607500D01*
Y612750D02*X59850Y613500D01*
X60600D01*
X58350Y610500D02*X59850D01*
X62850Y612750D02*Y607500D01*
Y612750D02*X63600Y613500D01*
X64350D01*
X62100Y610500D02*X63600D01*
X66600Y607500D02*X68850D01*
X65850Y608250D02*X66600Y607500D01*
X65850Y609750D02*Y608250D01*
Y609750D02*X66600Y610500D01*
X68100D01*
X68850Y609750D01*
X65850Y609000D02*X68850D01*
Y609750D02*Y609000D01*
X71400Y609750D02*Y607500D01*
Y609750D02*X72150Y610500D01*
X73650D01*
X70650D02*X71400Y609750D01*
X76200Y607500D02*X78450D01*
X75450Y608250D02*X76200Y607500D01*
X75450Y609750D02*Y608250D01*
Y609750D02*X76200Y610500D01*
X77700D01*
X78450Y609750D01*
X75450Y609000D02*X78450D01*
Y609750D02*Y609000D01*
X81000Y609750D02*Y607500D01*
Y609750D02*X81750Y610500D01*
X82500D01*
X83250Y609750D01*
Y607500D01*
X80250Y610500D02*X81000Y609750D01*
X85800Y613500D02*Y608250D01*
X86550Y607500D01*
X85050Y611250D02*X86550D01*
X93750Y613500D02*Y607500D01*
X93000D02*X93750Y608250D01*
X91500Y607500D02*X93000D01*
X90750Y608250D02*X91500Y607500D01*
X90750Y609750D02*Y608250D01*
Y609750D02*X91500Y610500D01*
X93000D01*
X93750Y609750D01*
X96300D02*Y607500D01*
Y609750D02*X97050Y610500D01*
X98550D01*
X95550D02*X96300Y609750D01*
X100350Y612000D02*Y611250D01*
Y609750D02*Y607500D01*
X101850Y613500D02*Y608250D01*
X102600Y607500D01*
X104100Y613500D02*Y608250D01*
X104850Y607500D01*
X109800D02*X112050D01*
X112800Y608250D01*
X112050Y609000D02*X112800Y608250D01*
X109800Y609000D02*X112050D01*
X109050Y609750D02*X109800Y609000D01*
X109050Y609750D02*X109800Y610500D01*
X112050D01*
X112800Y609750D01*
X109050Y608250D02*X109800Y607500D01*
X114600Y612000D02*Y611250D01*
Y609750D02*Y607500D01*
X116100Y610500D02*X119100D01*
X116100Y607500D02*X119100Y610500D01*
X116100Y607500D02*X119100D01*
X121650D02*X123900D01*
X120900Y608250D02*X121650Y607500D01*
X120900Y609750D02*Y608250D01*
Y609750D02*X121650Y610500D01*
X123150D01*
X123900Y609750D01*
X120900Y609000D02*X123900D01*
Y609750D02*Y609000D01*
X126450Y607500D02*X128700D01*
X129450Y608250D01*
X128700Y609000D02*X129450Y608250D01*
X126450Y609000D02*X128700D01*
X125700Y609750D02*X126450Y609000D01*
X125700Y609750D02*X126450Y610500D01*
X128700D01*
X129450Y609750D01*
X125700Y608250D02*X126450Y607500D01*
X133950Y610500D02*Y608250D01*
X134700Y607500D01*
X136200D01*
X136950Y608250D01*
Y610500D02*Y608250D01*
X139500Y607500D02*X141750D01*
X142500Y608250D01*
X141750Y609000D02*X142500Y608250D01*
X139500Y609000D02*X141750D01*
X138750Y609750D02*X139500Y609000D01*
X138750Y609750D02*X139500Y610500D01*
X141750D01*
X142500Y609750D01*
X138750Y608250D02*X139500Y607500D01*
X145050D02*X147300D01*
X144300Y608250D02*X145050Y607500D01*
X144300Y609750D02*Y608250D01*
Y609750D02*X145050Y610500D01*
X146550D01*
X147300Y609750D01*
X144300Y609000D02*X147300D01*
Y609750D02*Y609000D01*
X152100Y613500D02*Y607500D01*
X151350D02*X152100Y608250D01*
X149850Y607500D02*X151350D01*
X149100Y608250D02*X149850Y607500D01*
X149100Y609750D02*Y608250D01*
Y609750D02*X149850Y610500D01*
X151350D01*
X152100Y609750D01*
X156600Y612000D02*Y611250D01*
Y609750D02*Y607500D01*
X158850Y609750D02*Y607500D01*
Y609750D02*X159600Y610500D01*
X160350D01*
X161100Y609750D01*
Y607500D01*
X158100Y610500D02*X158850Y609750D01*
X166350Y613500D02*Y608250D01*
X167100Y607500D01*
X165600Y611250D02*X167100D01*
X168600Y613500D02*Y607500D01*
Y609750D02*X169350Y610500D01*
X170850D01*
X171600Y609750D01*
Y607500D01*
X173400Y612000D02*Y611250D01*
Y609750D02*Y607500D01*
X175650D02*X177900D01*
X178650Y608250D01*
X177900Y609000D02*X178650Y608250D01*
X175650Y609000D02*X177900D01*
X174900Y609750D02*X175650Y609000D01*
X174900Y609750D02*X175650Y610500D01*
X177900D01*
X178650Y609750D01*
X174900Y608250D02*X175650Y607500D01*
X183150Y613500D02*Y608250D01*
X183900Y607500D01*
X187650Y610500D02*X188400Y609750D01*
X186150Y610500D02*X187650D01*
X185400Y609750D02*X186150Y610500D01*
X185400Y609750D02*Y608250D01*
X186150Y607500D01*
X188400Y610500D02*Y608250D01*
X189150Y607500D01*
X186150D02*X187650D01*
X188400Y608250D01*
X190950Y610500D02*Y608250D01*
X191700Y607500D01*
X193950Y610500D02*Y606000D01*
X193200Y605250D02*X193950Y606000D01*
X191700Y605250D02*X193200D01*
X190950Y606000D02*X191700Y605250D01*
Y607500D02*X193200D01*
X193950Y608250D01*
X195750Y609750D02*Y608250D01*
Y609750D02*X196500Y610500D01*
X198000D01*
X198750Y609750D01*
Y608250D01*
X198000Y607500D02*X198750Y608250D01*
X196500Y607500D02*X198000D01*
X195750Y608250D02*X196500Y607500D01*
X200550Y610500D02*Y608250D01*
X201300Y607500D01*
X202800D01*
X203550Y608250D01*
Y610500D02*Y608250D01*
X206100Y613500D02*Y608250D01*
X206850Y607500D01*
X205350Y611250D02*X206850D01*
X208350Y606000D02*X209850Y607500D01*
X215100D02*X216600D01*
X215850Y613500D02*Y607500D01*
X214350Y612000D02*X215850Y613500D01*
X218400Y608250D02*X219150Y607500D01*
X218400Y612750D02*Y608250D01*
Y612750D02*X219150Y613500D01*
X220650D01*
X221400Y612750D01*
Y608250D01*
X220650Y607500D02*X221400Y608250D01*
X219150Y607500D02*X220650D01*
X218400Y609000D02*X221400Y612000D01*
X223200Y607500D02*X226950Y611250D01*
Y613500D02*Y611250D01*
X223200Y613500D02*X226950D01*
X231450D02*Y607500D01*
Y609750D02*X232200Y610500D01*
X233700D01*
X234450Y609750D01*
Y607500D01*
X236250Y609750D02*Y608250D01*
Y609750D02*X237000Y610500D01*
X238500D01*
X239250Y609750D01*
Y608250D01*
X238500Y607500D02*X239250Y608250D01*
X237000Y607500D02*X238500D01*
X236250Y608250D02*X237000Y607500D01*
X241050Y613500D02*Y608250D01*
X241800Y607500D01*
X244050D02*X246300D01*
X243300Y608250D02*X244050Y607500D01*
X243300Y609750D02*Y608250D01*
Y609750D02*X244050Y610500D01*
X245550D01*
X246300Y609750D01*
X243300Y609000D02*X246300D01*
Y609750D02*Y609000D01*
X248850Y607500D02*X251100D01*
X251850Y608250D01*
X251100Y609000D02*X251850Y608250D01*
X248850Y609000D02*X251100D01*
X248100Y609750D02*X248850Y609000D01*
X248100Y609750D02*X248850Y610500D01*
X251100D01*
X251850Y609750D01*
X248100Y608250D02*X248850Y607500D01*
X257100Y613500D02*Y608250D01*
X257850Y607500D01*
X256350Y611250D02*X257850D01*
X259350Y609750D02*Y608250D01*
Y609750D02*X260100Y610500D01*
X261600D01*
X262350Y609750D01*
Y608250D01*
X261600Y607500D02*X262350Y608250D01*
X260100Y607500D02*X261600D01*
X259350Y608250D02*X260100Y607500D01*
X264900Y613500D02*Y608250D01*
X265650Y607500D01*
X264150Y611250D02*X265650D01*
X269400Y610500D02*X270150Y609750D01*
X267900Y610500D02*X269400D01*
X267150Y609750D02*X267900Y610500D01*
X267150Y609750D02*Y608250D01*
X267900Y607500D01*
X270150Y610500D02*Y608250D01*
X270900Y607500D01*
X267900D02*X269400D01*
X270150Y608250D01*
X272700Y613500D02*Y608250D01*
X273450Y607500D01*
G54D137*X0Y450000D02*X600000D01*
X0D02*Y0D01*
X600000Y450000D02*Y0D01*
X0D02*X600000D01*
G54D136*X200000Y463500D02*Y457500D01*
Y463500D02*X202250Y461250D01*
X204500Y463500D01*
Y457500D01*
X208550Y460500D02*X209300Y459750D01*
X207050Y460500D02*X208550D01*
X206300Y459750D02*X207050Y460500D01*
X206300Y459750D02*Y458250D01*
X207050Y457500D01*
X209300Y460500D02*Y458250D01*
X210050Y457500D01*
X207050D02*X208550D01*
X209300Y458250D01*
X211850Y460500D02*X214850Y457500D01*
X211850D02*X214850Y460500D01*
X216650Y462000D02*Y461250D01*
Y459750D02*Y457500D01*
X218900Y459750D02*Y457500D01*
Y459750D02*X219650Y460500D01*
X220400D01*
X221150Y459750D01*
Y457500D01*
Y459750D02*X221900Y460500D01*
X222650D01*
X223400Y459750D01*
Y457500D01*
X218150Y460500D02*X218900Y459750D01*
X225200Y460500D02*Y458250D01*
X225950Y457500D01*
X227450D01*
X228200Y458250D01*
Y460500D02*Y458250D01*
X230750Y459750D02*Y457500D01*
Y459750D02*X231500Y460500D01*
X232250D01*
X233000Y459750D01*
Y457500D01*
Y459750D02*X233750Y460500D01*
X234500D01*
X235250Y459750D01*
Y457500D01*
X230000Y460500D02*X230750Y459750D01*
X240500Y463500D02*Y457500D01*
X242750Y463500D02*X243500Y462750D01*
Y458250D01*
X242750Y457500D02*X243500Y458250D01*
X239750Y457500D02*X242750D01*
X239750Y463500D02*X242750D01*
X245300Y462000D02*Y461250D01*
Y459750D02*Y457500D01*
X247550Y459750D02*Y457500D01*
Y459750D02*X248300Y460500D01*
X249050D01*
X249800Y459750D01*
Y457500D01*
Y459750D02*X250550Y460500D01*
X251300D01*
X252050Y459750D01*
Y457500D01*
X246800Y460500D02*X247550Y459750D01*
X254600Y457500D02*X256850D01*
X253850Y458250D02*X254600Y457500D01*
X253850Y459750D02*Y458250D01*
Y459750D02*X254600Y460500D01*
X256100D01*
X256850Y459750D01*
X253850Y459000D02*X256850D01*
Y459750D02*Y459000D01*
X259400Y459750D02*Y457500D01*
Y459750D02*X260150Y460500D01*
X260900D01*
X261650Y459750D01*
Y457500D01*
X258650Y460500D02*X259400Y459750D01*
X264200Y457500D02*X266450D01*
X267200Y458250D01*
X266450Y459000D02*X267200Y458250D01*
X264200Y459000D02*X266450D01*
X263450Y459750D02*X264200Y459000D01*
X263450Y459750D02*X264200Y460500D01*
X266450D01*
X267200Y459750D01*
X263450Y458250D02*X264200Y457500D01*
X269000Y462000D02*Y461250D01*
Y459750D02*Y457500D01*
X270500Y459750D02*Y458250D01*
Y459750D02*X271250Y460500D01*
X272750D01*
X273500Y459750D01*
Y458250D01*
X272750Y457500D02*X273500Y458250D01*
X271250Y457500D02*X272750D01*
X270500Y458250D02*X271250Y457500D01*
X276050Y459750D02*Y457500D01*
Y459750D02*X276800Y460500D01*
X277550D01*
X278300Y459750D01*
Y457500D01*
X275300Y460500D02*X276050Y459750D01*
X280850Y457500D02*X283100D01*
X283850Y458250D01*
X283100Y459000D02*X283850Y458250D01*
X280850Y459000D02*X283100D01*
X280100Y459750D02*X280850Y459000D01*
X280100Y459750D02*X280850Y460500D01*
X283100D01*
X283850Y459750D01*
X280100Y458250D02*X280850Y457500D01*
X285650Y461250D02*X286400D01*
X285650Y459750D02*X286400D01*
X293150Y463500D02*X293900Y462750D01*
X291650Y463500D02*X293150D01*
X290900Y462750D02*X291650Y463500D01*
X290900Y462750D02*Y458250D01*
X291650Y457500D01*
X293150Y460500D02*X293900Y459750D01*
X290900Y460500D02*X293150D01*
X291650Y457500D02*X293150D01*
X293900Y458250D01*
Y459750D02*Y458250D01*
X295700D02*X296450Y457500D01*
X295700Y462750D02*Y458250D01*
Y462750D02*X296450Y463500D01*
X297950D01*
X298700Y462750D01*
Y458250D01*
X297950Y457500D02*X298700Y458250D01*
X296450Y457500D02*X297950D01*
X295700Y459000D02*X298700Y462000D01*
X300500Y458250D02*X301250Y457500D01*
X300500Y462750D02*Y458250D01*
Y462750D02*X301250Y463500D01*
X302750D01*
X303500Y462750D01*
Y458250D01*
X302750Y457500D02*X303500Y458250D01*
X301250Y457500D02*X302750D01*
X300500Y459000D02*X303500Y462000D01*
X305300Y458250D02*X306050Y457500D01*
X305300Y462750D02*Y458250D01*
Y462750D02*X306050Y463500D01*
X307550D01*
X308300Y462750D01*
Y458250D01*
X307550Y457500D02*X308300Y458250D01*
X306050Y457500D02*X307550D01*
X305300Y459000D02*X308300Y462000D01*
X310100Y457500D02*X310850D01*
X312650Y458250D02*X313400Y457500D01*
X312650Y462750D02*Y458250D01*
Y462750D02*X313400Y463500D01*
X314900D01*
X315650Y462750D01*
Y458250D01*
X314900Y457500D02*X315650Y458250D01*
X313400Y457500D02*X314900D01*
X312650Y459000D02*X315650Y462000D01*
X317450Y458250D02*X318200Y457500D01*
X317450Y462750D02*Y458250D01*
Y462750D02*X318200Y463500D01*
X319700D01*
X320450Y462750D01*
Y458250D01*
X319700Y457500D02*X320450Y458250D01*
X318200Y457500D02*X319700D01*
X317450Y459000D02*X320450Y462000D01*
X322250Y458250D02*X323000Y457500D01*
X322250Y462750D02*Y458250D01*
Y462750D02*X323000Y463500D01*
X324500D01*
X325250Y462750D01*
Y458250D01*
X324500Y457500D02*X325250Y458250D01*
X323000Y457500D02*X324500D01*
X322250Y459000D02*X325250Y462000D01*
X327050Y458250D02*X327800Y457500D01*
X327050Y462750D02*Y458250D01*
Y462750D02*X327800Y463500D01*
X329300D01*
X330050Y462750D01*
Y458250D01*
X329300Y457500D02*X330050Y458250D01*
X327800Y457500D02*X329300D01*
X327050Y459000D02*X330050Y462000D01*
X331850Y458250D02*X332600Y457500D01*
X331850Y462750D02*Y458250D01*
Y462750D02*X332600Y463500D01*
X334100D01*
X334850Y462750D01*
Y458250D01*
X334100Y457500D02*X334850Y458250D01*
X332600Y457500D02*X334100D01*
X331850Y459000D02*X334850Y462000D01*
X336650Y458250D02*X337400Y457500D01*
X336650Y462750D02*Y458250D01*
Y462750D02*X337400Y463500D01*
X338900D01*
X339650Y462750D01*
Y458250D01*
X338900Y457500D02*X339650Y458250D01*
X337400Y457500D02*X338900D01*
X336650Y459000D02*X339650Y462000D01*
X344900Y459750D02*Y457500D01*
Y459750D02*X345650Y460500D01*
X346400D01*
X347150Y459750D01*
Y457500D01*
Y459750D02*X347900Y460500D01*
X348650D01*
X349400Y459750D01*
Y457500D01*
X344150Y460500D02*X344900Y459750D01*
X351200Y462000D02*Y461250D01*
Y459750D02*Y457500D01*
X352700Y463500D02*Y458250D01*
X353450Y457500D01*
X355700D02*X357950D01*
X358700Y458250D01*
X357950Y459000D02*X358700Y458250D01*
X355700Y459000D02*X357950D01*
X354950Y459750D02*X355700Y459000D01*
X354950Y459750D02*X355700Y460500D01*
X357950D01*
X358700Y459750D01*
X354950Y458250D02*X355700Y457500D01*
X363200Y460500D02*Y458250D01*
X363950Y457500D01*
X364700D01*
X365450Y458250D01*
Y460500D02*Y458250D01*
X366200Y457500D01*
X366950D01*
X367700Y458250D01*
Y460500D02*Y458250D01*
X369500Y462000D02*Y461250D01*
Y459750D02*Y457500D01*
X374000Y463500D02*Y457500D01*
X373250D02*X374000Y458250D01*
X371750Y457500D02*X373250D01*
X371000Y458250D02*X371750Y457500D01*
X371000Y459750D02*Y458250D01*
Y459750D02*X371750Y460500D01*
X373250D01*
X374000Y459750D01*
X376550Y457500D02*X378800D01*
X375800Y458250D02*X376550Y457500D01*
X375800Y459750D02*Y458250D01*
Y459750D02*X376550Y460500D01*
X378050D01*
X378800Y459750D01*
X375800Y459000D02*X378800D01*
Y459750D02*Y459000D01*
X380600Y456000D02*X382100Y457500D01*
X386600Y460500D02*X389600Y463500D01*
X386600Y460500D02*X390350D01*
X389600Y463500D02*Y457500D01*
X392150Y463500D02*X395150D01*
X392150D02*Y460500D01*
X392900Y461250D01*
X394400D01*
X395150Y460500D01*
Y458250D01*
X394400Y457500D02*X395150Y458250D01*
X392900Y457500D02*X394400D01*
X392150Y458250D02*X392900Y457500D01*
X396950Y458250D02*X397700Y457500D01*
X396950Y462750D02*Y458250D01*
Y462750D02*X397700Y463500D01*
X399200D01*
X399950Y462750D01*
Y458250D01*
X399200Y457500D02*X399950Y458250D01*
X397700Y457500D02*X399200D01*
X396950Y459000D02*X399950Y462000D01*
X401750Y458250D02*X402500Y457500D01*
X401750Y462750D02*Y458250D01*
Y462750D02*X402500Y463500D01*
X404000D01*
X404750Y462750D01*
Y458250D01*
X404000Y457500D02*X404750Y458250D01*
X402500Y457500D02*X404000D01*
X401750Y459000D02*X404750Y462000D01*
X406550Y457500D02*X407300D01*
X409100Y458250D02*X409850Y457500D01*
X409100Y462750D02*Y458250D01*
Y462750D02*X409850Y463500D01*
X411350D01*
X412100Y462750D01*
Y458250D01*
X411350Y457500D02*X412100Y458250D01*
X409850Y457500D02*X411350D01*
X409100Y459000D02*X412100Y462000D01*
X413900Y458250D02*X414650Y457500D01*
X413900Y462750D02*Y458250D01*
Y462750D02*X414650Y463500D01*
X416150D01*
X416900Y462750D01*
Y458250D01*
X416150Y457500D02*X416900Y458250D01*
X414650Y457500D02*X416150D01*
X413900Y459000D02*X416900Y462000D01*
X418700Y458250D02*X419450Y457500D01*
X418700Y462750D02*Y458250D01*
Y462750D02*X419450Y463500D01*
X420950D01*
X421700Y462750D01*
Y458250D01*
X420950Y457500D02*X421700Y458250D01*
X419450Y457500D02*X420950D01*
X418700Y459000D02*X421700Y462000D01*
X423500Y458250D02*X424250Y457500D01*
X423500Y462750D02*Y458250D01*
Y462750D02*X424250Y463500D01*
X425750D01*
X426500Y462750D01*
Y458250D01*
X425750Y457500D02*X426500Y458250D01*
X424250Y457500D02*X425750D01*
X423500Y459000D02*X426500Y462000D01*
X428300Y458250D02*X429050Y457500D01*
X428300Y462750D02*Y458250D01*
Y462750D02*X429050Y463500D01*
X430550D01*
X431300Y462750D01*
Y458250D01*
X430550Y457500D02*X431300Y458250D01*
X429050Y457500D02*X430550D01*
X428300Y459000D02*X431300Y462000D01*
X433100Y458250D02*X433850Y457500D01*
X433100Y462750D02*Y458250D01*
Y462750D02*X433850Y463500D01*
X435350D01*
X436100Y462750D01*
Y458250D01*
X435350Y457500D02*X436100Y458250D01*
X433850Y457500D02*X435350D01*
X433100Y459000D02*X436100Y462000D01*
X441350Y459750D02*Y457500D01*
Y459750D02*X442100Y460500D01*
X442850D01*
X443600Y459750D01*
Y457500D01*
Y459750D02*X444350Y460500D01*
X445100D01*
X445850Y459750D01*
Y457500D01*
X440600Y460500D02*X441350Y459750D01*
X447650Y462000D02*Y461250D01*
Y459750D02*Y457500D01*
X449150Y463500D02*Y458250D01*
X449900Y457500D01*
X452150D02*X454400D01*
X455150Y458250D01*
X454400Y459000D02*X455150Y458250D01*
X452150Y459000D02*X454400D01*
X451400Y459750D02*X452150Y459000D01*
X451400Y459750D02*X452150Y460500D01*
X454400D01*
X455150Y459750D01*
X451400Y458250D02*X452150Y457500D01*
X459650Y463500D02*Y457500D01*
Y459750D02*X460400Y460500D01*
X461900D01*
X462650Y459750D01*
Y457500D01*
X464450Y462000D02*Y461250D01*
Y459750D02*Y457500D01*
X468200Y460500D02*X468950Y459750D01*
X466700Y460500D02*X468200D01*
X465950Y459750D02*X466700Y460500D01*
X465950Y459750D02*Y458250D01*
X466700Y457500D01*
X468200D01*
X468950Y458250D01*
X465950Y456000D02*X466700Y455250D01*
X468200D01*
X468950Y456000D01*
Y460500D02*Y456000D01*
X470750Y463500D02*Y457500D01*
Y459750D02*X471500Y460500D01*
X473000D01*
X473750Y459750D01*
Y457500D01*
X96900Y-9500D02*X99900D01*
X100650Y-8750D01*
Y-7250D02*Y-8750D01*
X99900Y-6500D02*X100650Y-7250D01*
X97650Y-6500D02*X99900D01*
X97650Y-3500D02*Y-9500D01*
X96900Y-3500D02*X99900D01*
X100650Y-4250D01*
Y-5750D01*
X99900Y-6500D02*X100650Y-5750D01*
X102450Y-7250D02*Y-8750D01*
Y-7250D02*X103200Y-6500D01*
X104700D01*
X105450Y-7250D01*
Y-8750D01*
X104700Y-9500D02*X105450Y-8750D01*
X103200Y-9500D02*X104700D01*
X102450Y-8750D02*X103200Y-9500D01*
X109500Y-6500D02*X110250Y-7250D01*
X108000Y-6500D02*X109500D01*
X107250Y-7250D02*X108000Y-6500D01*
X107250Y-7250D02*Y-8750D01*
X108000Y-9500D01*
X110250Y-6500D02*Y-8750D01*
X111000Y-9500D01*
X108000D02*X109500D01*
X110250Y-8750D01*
X113550Y-7250D02*Y-9500D01*
Y-7250D02*X114300Y-6500D01*
X115800D01*
X112800D02*X113550Y-7250D01*
X120600Y-3500D02*Y-9500D01*
X119850D02*X120600Y-8750D01*
X118350Y-9500D02*X119850D01*
X117600Y-8750D02*X118350Y-9500D01*
X117600Y-7250D02*Y-8750D01*
Y-7250D02*X118350Y-6500D01*
X119850D01*
X120600Y-7250D01*
X125100D02*Y-8750D01*
Y-7250D02*X125850Y-6500D01*
X127350D01*
X128100Y-7250D01*
Y-8750D01*
X127350Y-9500D02*X128100Y-8750D01*
X125850Y-9500D02*X127350D01*
X125100Y-8750D02*X125850Y-9500D01*
X129900Y-6500D02*Y-8750D01*
X130650Y-9500D01*
X132150D01*
X132900Y-8750D01*
Y-6500D02*Y-8750D01*
X135450Y-3500D02*Y-8750D01*
X136200Y-9500D01*
X134700Y-5750D02*X136200D01*
X137700Y-3500D02*Y-8750D01*
X138450Y-9500D01*
X139950Y-5000D02*Y-5750D01*
Y-7250D02*Y-9500D01*
X142200Y-7250D02*Y-9500D01*
Y-7250D02*X142950Y-6500D01*
X143700D01*
X144450Y-7250D01*
Y-9500D01*
X141450Y-6500D02*X142200Y-7250D01*
X147000Y-9500D02*X149250D01*
X146250Y-8750D02*X147000Y-9500D01*
X146250Y-7250D02*Y-8750D01*
Y-7250D02*X147000Y-6500D01*
X148500D01*
X149250Y-7250D01*
X146250Y-8000D02*X149250D01*
Y-7250D02*Y-8000D01*
X153750Y-5000D02*Y-5750D01*
Y-7250D02*Y-9500D01*
X156000D02*X158250D01*
X159000Y-8750D01*
X158250Y-8000D02*X159000Y-8750D01*
X156000Y-8000D02*X158250D01*
X155250Y-7250D02*X156000Y-8000D01*
X155250Y-7250D02*X156000Y-6500D01*
X158250D01*
X159000Y-7250D01*
X155250Y-8750D02*X156000Y-9500D01*
X164250Y-3500D02*Y-8750D01*
X165000Y-9500D01*
X163500Y-5750D02*X165000D01*
X166500Y-3500D02*Y-9500D01*
Y-7250D02*X167250Y-6500D01*
X168750D01*
X169500Y-7250D01*
Y-9500D01*
X172050D02*X174300D01*
X171300Y-8750D02*X172050Y-9500D01*
X171300Y-7250D02*Y-8750D01*
Y-7250D02*X172050Y-6500D01*
X173550D01*
X174300Y-7250D01*
X171300Y-8000D02*X174300D01*
Y-7250D02*Y-8000D01*
X179550Y-6500D02*X181800D01*
X178800Y-7250D02*X179550Y-6500D01*
X178800Y-7250D02*Y-8750D01*
X179550Y-9500D01*
X181800D01*
X184350D02*X186600D01*
X183600Y-8750D02*X184350Y-9500D01*
X183600Y-7250D02*Y-8750D01*
Y-7250D02*X184350Y-6500D01*
X185850D01*
X186600Y-7250D01*
X183600Y-8000D02*X186600D01*
Y-7250D02*Y-8000D01*
X189150Y-7250D02*Y-9500D01*
Y-7250D02*X189900Y-6500D01*
X190650D01*
X191400Y-7250D01*
Y-9500D01*
X188400Y-6500D02*X189150Y-7250D01*
X193950Y-3500D02*Y-8750D01*
X194700Y-9500D01*
X193200Y-5750D02*X194700D01*
X196950Y-9500D02*X199200D01*
X196200Y-8750D02*X196950Y-9500D01*
X196200Y-7250D02*Y-8750D01*
Y-7250D02*X196950Y-6500D01*
X198450D01*
X199200Y-7250D01*
X196200Y-8000D02*X199200D01*
Y-7250D02*Y-8000D01*
X201750Y-7250D02*Y-9500D01*
Y-7250D02*X202500Y-6500D01*
X204000D01*
X201000D02*X201750Y-7250D01*
X205800Y-3500D02*Y-8750D01*
X206550Y-9500D01*
X208050Y-5000D02*Y-5750D01*
Y-7250D02*Y-9500D01*
X210300Y-7250D02*Y-9500D01*
Y-7250D02*X211050Y-6500D01*
X211800D01*
X212550Y-7250D01*
Y-9500D01*
X209550Y-6500D02*X210300Y-7250D01*
X215100Y-9500D02*X217350D01*
X214350Y-8750D02*X215100Y-9500D01*
X214350Y-7250D02*Y-8750D01*
Y-7250D02*X215100Y-6500D01*
X216600D01*
X217350Y-7250D01*
X214350Y-8000D02*X217350D01*
Y-7250D02*Y-8000D01*
X221850Y-7250D02*Y-8750D01*
Y-7250D02*X222600Y-6500D01*
X224100D01*
X224850Y-7250D01*
Y-8750D01*
X224100Y-9500D02*X224850Y-8750D01*
X222600Y-9500D02*X224100D01*
X221850Y-8750D02*X222600Y-9500D01*
X227400Y-4250D02*Y-9500D01*
Y-4250D02*X228150Y-3500D01*
X228900D01*
X226650Y-6500D02*X228150D01*
X233850Y-3500D02*Y-8750D01*
X234600Y-9500D01*
X233100Y-5750D02*X234600D01*
X236100Y-3500D02*Y-9500D01*
Y-7250D02*X236850Y-6500D01*
X238350D01*
X239100Y-7250D01*
Y-9500D01*
X240900Y-5000D02*Y-5750D01*
Y-7250D02*Y-9500D01*
X243150D02*X245400D01*
X246150Y-8750D01*
X245400Y-8000D02*X246150Y-8750D01*
X243150Y-8000D02*X245400D01*
X242400Y-7250D02*X243150Y-8000D01*
X242400Y-7250D02*X243150Y-6500D01*
X245400D01*
X246150Y-7250D01*
X242400Y-8750D02*X243150Y-9500D01*
X250650Y-8750D02*X251400Y-9500D01*
X250650Y-7250D02*Y-8750D01*
Y-7250D02*X251400Y-6500D01*
X252900D01*
X253650Y-7250D01*
Y-8750D01*
X252900Y-9500D02*X253650Y-8750D01*
X251400Y-9500D02*X252900D01*
X250650Y-5750D02*X251400Y-6500D01*
X250650Y-4250D02*Y-5750D01*
Y-4250D02*X251400Y-3500D01*
X252900D01*
X253650Y-4250D01*
Y-5750D01*
X252900Y-6500D02*X253650Y-5750D01*
X255450Y-9500D02*X256200D01*
X258000Y-8750D02*X258750Y-9500D01*
X258000Y-4250D02*Y-8750D01*
Y-4250D02*X258750Y-3500D01*
X260250D01*
X261000Y-4250D01*
Y-8750D01*
X260250Y-9500D02*X261000Y-8750D01*
X258750Y-9500D02*X260250D01*
X258000Y-8000D02*X261000Y-5000D01*
X262800Y-8750D02*X263550Y-9500D01*
X262800Y-4250D02*Y-8750D01*
Y-4250D02*X263550Y-3500D01*
X265050D01*
X265800Y-4250D01*
Y-8750D01*
X265050Y-9500D02*X265800Y-8750D01*
X263550Y-9500D02*X265050D01*
X262800Y-8000D02*X265800Y-5000D01*
X267600Y-8750D02*X268350Y-9500D01*
X267600Y-4250D02*Y-8750D01*
Y-4250D02*X268350Y-3500D01*
X269850D01*
X270600Y-4250D01*
Y-8750D01*
X269850Y-9500D02*X270600Y-8750D01*
X268350Y-9500D02*X269850D01*
X267600Y-8000D02*X270600Y-5000D01*
X272400Y-8750D02*X273150Y-9500D01*
X272400Y-4250D02*Y-8750D01*
Y-4250D02*X273150Y-3500D01*
X274650D01*
X275400Y-4250D01*
Y-8750D01*
X274650Y-9500D02*X275400Y-8750D01*
X273150Y-9500D02*X274650D01*
X272400Y-8000D02*X275400Y-5000D01*
X277200Y-8750D02*X277950Y-9500D01*
X277200Y-4250D02*Y-8750D01*
Y-4250D02*X277950Y-3500D01*
X279450D01*
X280200Y-4250D01*
Y-8750D01*
X279450Y-9500D02*X280200Y-8750D01*
X277950Y-9500D02*X279450D01*
X277200Y-8000D02*X280200Y-5000D01*
X282000Y-8750D02*X282750Y-9500D01*
X282000Y-4250D02*Y-8750D01*
Y-4250D02*X282750Y-3500D01*
X284250D01*
X285000Y-4250D01*
Y-8750D01*
X284250Y-9500D02*X285000Y-8750D01*
X282750Y-9500D02*X284250D01*
X282000Y-8000D02*X285000Y-5000D01*
X290250Y-7250D02*Y-9500D01*
Y-7250D02*X291000Y-6500D01*
X291750D01*
X292500Y-7250D01*
Y-9500D01*
Y-7250D02*X293250Y-6500D01*
X294000D01*
X294750Y-7250D01*
Y-9500D01*
X289500Y-6500D02*X290250Y-7250D01*
X296550Y-5000D02*Y-5750D01*
Y-7250D02*Y-9500D01*
X298050Y-3500D02*Y-8750D01*
X298800Y-9500D01*
X303750Y-7250D02*Y-9500D01*
Y-7250D02*X304500Y-6500D01*
X306000D01*
X303000D02*X303750Y-7250D01*
X308550Y-9500D02*X310800D01*
X307800Y-8750D02*X308550Y-9500D01*
X307800Y-7250D02*Y-8750D01*
Y-7250D02*X308550Y-6500D01*
X310050D01*
X310800Y-7250D01*
X307800Y-8000D02*X310800D01*
Y-7250D02*Y-8000D01*
X313350Y-6500D02*X315600D01*
X312600Y-7250D02*X313350Y-6500D01*
X312600Y-7250D02*Y-8750D01*
X313350Y-9500D01*
X315600D01*
X318150Y-3500D02*Y-8750D01*
X318900Y-9500D01*
X317400Y-5750D02*X318900D01*
X322650Y-6500D02*X323400Y-7250D01*
X321150Y-6500D02*X322650D01*
X320400Y-7250D02*X321150Y-6500D01*
X320400Y-7250D02*Y-8750D01*
X321150Y-9500D01*
X323400Y-6500D02*Y-8750D01*
X324150Y-9500D01*
X321150D02*X322650D01*
X323400Y-8750D01*
X326700Y-7250D02*Y-9500D01*
Y-7250D02*X327450Y-6500D01*
X328200D01*
X328950Y-7250D01*
Y-9500D01*
X325950Y-6500D02*X326700Y-7250D01*
X333000Y-6500D02*X333750Y-7250D01*
X331500Y-6500D02*X333000D01*
X330750Y-7250D02*X331500Y-6500D01*
X330750Y-7250D02*Y-8750D01*
X331500Y-9500D01*
X333000D01*
X333750Y-8750D01*
X330750Y-11000D02*X331500Y-11750D01*
X333000D01*
X333750Y-11000D01*
Y-6500D02*Y-11000D01*
X335550Y-3500D02*Y-8750D01*
X336300Y-9500D01*
X338550D02*X340800D01*
X337800Y-8750D02*X338550Y-9500D01*
X337800Y-7250D02*Y-8750D01*
Y-7250D02*X338550Y-6500D01*
X340050D01*
X340800Y-7250D01*
X337800Y-8000D02*X340800D01*
Y-7250D02*Y-8000D01*
X345300Y-6500D02*X348300D01*
X352800Y-8750D02*X353550Y-9500D01*
X352800Y-4250D02*Y-8750D01*
Y-4250D02*X353550Y-3500D01*
X355050D01*
X355800Y-4250D01*
Y-8750D01*
X355050Y-9500D02*X355800Y-8750D01*
X353550Y-9500D02*X355050D01*
X352800Y-8000D02*X355800Y-5000D01*
X357600Y-11000D02*X359100Y-9500D01*
X360900Y-8750D02*X361650Y-9500D01*
X360900Y-4250D02*Y-8750D01*
Y-4250D02*X361650Y-3500D01*
X363150D01*
X363900Y-4250D01*
Y-8750D01*
X363150Y-9500D02*X363900Y-8750D01*
X361650Y-9500D02*X363150D01*
X360900Y-8000D02*X363900Y-5000D01*
X369150Y-3500D02*Y-8750D01*
X369900Y-9500D01*
X368400Y-5750D02*X369900D01*
X371400Y-7250D02*Y-8750D01*
Y-7250D02*X372150Y-6500D01*
X373650D01*
X374400Y-7250D01*
Y-8750D01*
X373650Y-9500D02*X374400Y-8750D01*
X372150Y-9500D02*X373650D01*
X371400Y-8750D02*X372150Y-9500D01*
X381150Y-3500D02*X381900Y-4250D01*
X379650Y-3500D02*X381150D01*
X378900Y-4250D02*X379650Y-3500D01*
X378900Y-4250D02*Y-8750D01*
X379650Y-9500D01*
X381150Y-6500D02*X381900Y-7250D01*
X378900Y-6500D02*X381150D01*
X379650Y-9500D02*X381150D01*
X381900Y-8750D01*
Y-7250D02*Y-8750D01*
X383700D02*X384450Y-9500D01*
X383700Y-4250D02*Y-8750D01*
Y-4250D02*X384450Y-3500D01*
X385950D01*
X386700Y-4250D01*
Y-8750D01*
X385950Y-9500D02*X386700Y-8750D01*
X384450Y-9500D02*X385950D01*
X383700Y-8000D02*X386700Y-5000D01*
X388500Y-8750D02*X389250Y-9500D01*
X388500Y-4250D02*Y-8750D01*
Y-4250D02*X389250Y-3500D01*
X390750D01*
X391500Y-4250D01*
Y-8750D01*
X390750Y-9500D02*X391500Y-8750D01*
X389250Y-9500D02*X390750D01*
X388500Y-8000D02*X391500Y-5000D01*
X393300Y-8750D02*X394050Y-9500D01*
X393300Y-4250D02*Y-8750D01*
Y-4250D02*X394050Y-3500D01*
X395550D01*
X396300Y-4250D01*
Y-8750D01*
X395550Y-9500D02*X396300Y-8750D01*
X394050Y-9500D02*X395550D01*
X393300Y-8000D02*X396300Y-5000D01*
X398100Y-9500D02*X398850D01*
X400650Y-8750D02*X401400Y-9500D01*
X400650Y-4250D02*Y-8750D01*
Y-4250D02*X401400Y-3500D01*
X402900D01*
X403650Y-4250D01*
Y-8750D01*
X402900Y-9500D02*X403650Y-8750D01*
X401400Y-9500D02*X402900D01*
X400650Y-8000D02*X403650Y-5000D01*
X405450Y-8750D02*X406200Y-9500D01*
X405450Y-4250D02*Y-8750D01*
Y-4250D02*X406200Y-3500D01*
X407700D01*
X408450Y-4250D01*
Y-8750D01*
X407700Y-9500D02*X408450Y-8750D01*
X406200Y-9500D02*X407700D01*
X405450Y-8000D02*X408450Y-5000D01*
X410250Y-8750D02*X411000Y-9500D01*
X410250Y-4250D02*Y-8750D01*
Y-4250D02*X411000Y-3500D01*
X412500D01*
X413250Y-4250D01*
Y-8750D01*
X412500Y-9500D02*X413250Y-8750D01*
X411000Y-9500D02*X412500D01*
X410250Y-8000D02*X413250Y-5000D01*
X415050Y-8750D02*X415800Y-9500D01*
X415050Y-4250D02*Y-8750D01*
Y-4250D02*X415800Y-3500D01*
X417300D01*
X418050Y-4250D01*
Y-8750D01*
X417300Y-9500D02*X418050Y-8750D01*
X415800Y-9500D02*X417300D01*
X415050Y-8000D02*X418050Y-5000D01*
X419850Y-8750D02*X420600Y-9500D01*
X419850Y-4250D02*Y-8750D01*
Y-4250D02*X420600Y-3500D01*
X422100D01*
X422850Y-4250D01*
Y-8750D01*
X422100Y-9500D02*X422850Y-8750D01*
X420600Y-9500D02*X422100D01*
X419850Y-8000D02*X422850Y-5000D01*
X424650Y-8750D02*X425400Y-9500D01*
X424650Y-4250D02*Y-8750D01*
Y-4250D02*X425400Y-3500D01*
X426900D01*
X427650Y-4250D01*
Y-8750D01*
X426900Y-9500D02*X427650Y-8750D01*
X425400Y-9500D02*X426900D01*
X424650Y-8000D02*X427650Y-5000D01*
X429450Y-11000D02*X430950Y-9500D01*
X432750Y-6500D02*X435750Y-3500D01*
X432750Y-6500D02*X436500D01*
X435750Y-3500D02*Y-9500D01*
X438300Y-3500D02*X441300D01*
X438300D02*Y-6500D01*
X439050Y-5750D01*
X440550D01*
X441300Y-6500D01*
Y-8750D01*
X440550Y-9500D02*X441300Y-8750D01*
X439050Y-9500D02*X440550D01*
X438300Y-8750D02*X439050Y-9500D01*
X443100Y-8750D02*X443850Y-9500D01*
X443100Y-4250D02*Y-8750D01*
Y-4250D02*X443850Y-3500D01*
X445350D01*
X446100Y-4250D01*
Y-8750D01*
X445350Y-9500D02*X446100Y-8750D01*
X443850Y-9500D02*X445350D01*
X443100Y-8000D02*X446100Y-5000D01*
X447900Y-8750D02*X448650Y-9500D01*
X447900Y-4250D02*Y-8750D01*
Y-4250D02*X448650Y-3500D01*
X450150D01*
X450900Y-4250D01*
Y-8750D01*
X450150Y-9500D02*X450900Y-8750D01*
X448650Y-9500D02*X450150D01*
X447900Y-8000D02*X450900Y-5000D01*
X452700Y-9500D02*X453450D01*
X455250Y-8750D02*X456000Y-9500D01*
X455250Y-4250D02*Y-8750D01*
Y-4250D02*X456000Y-3500D01*
X457500D01*
X458250Y-4250D01*
Y-8750D01*
X457500Y-9500D02*X458250Y-8750D01*
X456000Y-9500D02*X457500D01*
X455250Y-8000D02*X458250Y-5000D01*
X460050Y-8750D02*X460800Y-9500D01*
X460050Y-4250D02*Y-8750D01*
Y-4250D02*X460800Y-3500D01*
X462300D01*
X463050Y-4250D01*
Y-8750D01*
X462300Y-9500D02*X463050Y-8750D01*
X460800Y-9500D02*X462300D01*
X460050Y-8000D02*X463050Y-5000D01*
X464850Y-8750D02*X465600Y-9500D01*
X464850Y-4250D02*Y-8750D01*
Y-4250D02*X465600Y-3500D01*
X467100D01*
X467850Y-4250D01*
Y-8750D01*
X467100Y-9500D02*X467850Y-8750D01*
X465600Y-9500D02*X467100D01*
X464850Y-8000D02*X467850Y-5000D01*
X469650Y-8750D02*X470400Y-9500D01*
X469650Y-4250D02*Y-8750D01*
Y-4250D02*X470400Y-3500D01*
X471900D01*
X472650Y-4250D01*
Y-8750D01*
X471900Y-9500D02*X472650Y-8750D01*
X470400Y-9500D02*X471900D01*
X469650Y-8000D02*X472650Y-5000D01*
X474450Y-8750D02*X475200Y-9500D01*
X474450Y-4250D02*Y-8750D01*
Y-4250D02*X475200Y-3500D01*
X476700D01*
X477450Y-4250D01*
Y-8750D01*
X476700Y-9500D02*X477450Y-8750D01*
X475200Y-9500D02*X476700D01*
X474450Y-8000D02*X477450Y-5000D01*
X479250Y-8750D02*X480000Y-9500D01*
X479250Y-4250D02*Y-8750D01*
Y-4250D02*X480000Y-3500D01*
X481500D01*
X482250Y-4250D01*
Y-8750D01*
X481500Y-9500D02*X482250Y-8750D01*
X480000Y-9500D02*X481500D01*
X479250Y-8000D02*X482250Y-5000D01*
X487500Y-7250D02*Y-9500D01*
Y-7250D02*X488250Y-6500D01*
X489000D01*
X489750Y-7250D01*
Y-9500D01*
Y-7250D02*X490500Y-6500D01*
X491250D01*
X492000Y-7250D01*
Y-9500D01*
X486750Y-6500D02*X487500Y-7250D01*
X493800Y-5000D02*Y-5750D01*
Y-7250D02*Y-9500D01*
X495300Y-3500D02*Y-8750D01*
X496050Y-9500D01*
X498300D02*X500550D01*
X501300Y-8750D01*
X500550Y-8000D02*X501300Y-8750D01*
X498300Y-8000D02*X500550D01*
X497550Y-7250D02*X498300Y-8000D01*
X497550Y-7250D02*X498300Y-6500D01*
X500550D01*
X501300Y-7250D01*
X497550Y-8750D02*X498300Y-9500D01*
X200750Y478500D02*Y472500D01*
X203000Y478500D02*X203750Y477750D01*
Y473250D01*
X203000Y472500D02*X203750Y473250D01*
X200000Y472500D02*X203000D01*
X200000Y478500D02*X203000D01*
X207800Y475500D02*X208550Y474750D01*
X206300Y475500D02*X207800D01*
X205550Y474750D02*X206300Y475500D01*
X205550Y474750D02*Y473250D01*
X206300Y472500D01*
X208550Y475500D02*Y473250D01*
X209300Y472500D01*
X206300D02*X207800D01*
X208550Y473250D01*
X211850Y478500D02*Y473250D01*
X212600Y472500D01*
X211100Y476250D02*X212600D01*
X214850Y472500D02*X217100D01*
X214100Y473250D02*X214850Y472500D01*
X214100Y474750D02*Y473250D01*
Y474750D02*X214850Y475500D01*
X216350D01*
X217100Y474750D01*
X214100Y474000D02*X217100D01*
Y474750D02*Y474000D01*
X218900Y476250D02*X219650D01*
X218900Y474750D02*X219650D01*
X227150Y478500D02*X227900Y477750D01*
X224900Y478500D02*X227150D01*
X224150Y477750D02*X224900Y478500D01*
X224150Y477750D02*Y476250D01*
X224900Y475500D01*
X227150D01*
X227900Y474750D01*
Y473250D01*
X227150Y472500D02*X227900Y473250D01*
X224900Y472500D02*X227150D01*
X224150Y473250D02*X224900Y472500D01*
X229700Y475500D02*Y473250D01*
X230450Y472500D01*
X231950D01*
X232700Y473250D01*
Y475500D02*Y473250D01*
X235250Y474750D02*Y472500D01*
Y474750D02*X236000Y475500D01*
X236750D01*
X237500Y474750D01*
Y472500D01*
X234500Y475500D02*X235250Y474750D01*
X242000Y473250D02*X242750Y472500D01*
X242000Y477750D02*Y473250D01*
Y477750D02*X242750Y478500D01*
X244250D01*
X245000Y477750D01*
Y473250D01*
X244250Y472500D02*X245000Y473250D01*
X242750Y472500D02*X244250D01*
X242000Y474000D02*X245000Y477000D01*
X246800Y477750D02*X247550Y478500D01*
X249800D01*
X250550Y477750D01*
Y476250D01*
X246800Y472500D02*X250550Y476250D01*
X246800Y472500D02*X250550D01*
X255050Y478500D02*Y472500D01*
Y478500D02*X258050D01*
X255050Y475500D02*X257300D01*
X260600Y472500D02*X262850D01*
X259850Y473250D02*X260600Y472500D01*
X259850Y474750D02*Y473250D01*
Y474750D02*X260600Y475500D01*
X262100D01*
X262850Y474750D01*
X259850Y474000D02*X262850D01*
Y474750D02*Y474000D01*
X264650Y478500D02*Y472500D01*
Y473250D02*X265400Y472500D01*
X266900D01*
X267650Y473250D01*
Y474750D02*Y473250D01*
X266900Y475500D02*X267650Y474750D01*
X265400Y475500D02*X266900D01*
X264650Y474750D02*X265400Y475500D01*
X272150Y477750D02*X272900Y478500D01*
X275150D01*
X275900Y477750D01*
Y476250D01*
X272150Y472500D02*X275900Y476250D01*
X272150Y472500D02*X275900D01*
X277700Y473250D02*X278450Y472500D01*
X277700Y477750D02*Y473250D01*
Y477750D02*X278450Y478500D01*
X279950D01*
X280700Y477750D01*
Y473250D01*
X279950Y472500D02*X280700Y473250D01*
X278450Y472500D02*X279950D01*
X277700Y474000D02*X280700Y477000D01*
X283250Y472500D02*X284750D01*
X284000Y478500D02*Y472500D01*
X282500Y477000D02*X284000Y478500D01*
X286550Y475500D02*X289550Y478500D01*
X286550Y475500D02*X290300D01*
X289550Y478500D02*Y472500D01*
X294800Y473250D02*X295550Y472500D01*
X294800Y477750D02*Y473250D01*
Y477750D02*X295550Y478500D01*
X297050D01*
X297800Y477750D01*
Y473250D01*
X297050Y472500D02*X297800Y473250D01*
X295550Y472500D02*X297050D01*
X294800Y474000D02*X297800Y477000D01*
X299600Y472500D02*X303350Y476250D01*
Y478500D02*Y476250D01*
X299600Y478500D02*X303350D01*
X305150Y476250D02*X305900D01*
X305150Y474750D02*X305900D01*
X308450Y472500D02*X309950D01*
X309200Y478500D02*Y472500D01*
X307700Y477000D02*X309200Y478500D01*
X311750Y477750D02*X312500Y478500D01*
X314000D01*
X314750Y477750D01*
Y473250D01*
X314000Y472500D02*X314750Y473250D01*
X312500Y472500D02*X314000D01*
X311750Y473250D02*X312500Y472500D01*
Y475500D02*X314750D01*
X316550Y476250D02*X317300D01*
X316550Y474750D02*X317300D01*
X319100Y477750D02*X319850Y478500D01*
X322100D01*
X322850Y477750D01*
Y476250D01*
X319100Y472500D02*X322850Y476250D01*
X319100Y472500D02*X322850D01*
X324650D02*X328400Y476250D01*
Y478500D02*Y476250D01*
X324650Y478500D02*X328400D01*
X333650D02*Y472500D01*
X332900Y478500D02*X335900D01*
X336650Y477750D01*
Y476250D01*
X335900Y475500D02*X336650Y476250D01*
X333650Y475500D02*X335900D01*
X338450Y478500D02*Y472500D01*
Y478500D02*X340700Y476250D01*
X342950Y478500D01*
Y472500D01*
X350450Y478500D02*X351200Y477750D01*
X348200Y478500D02*X350450D01*
X347450Y477750D02*X348200Y478500D01*
X347450Y477750D02*Y473250D01*
X348200Y472500D01*
X350450D01*
X351200Y473250D01*
Y474750D02*Y473250D01*
X350450Y475500D02*X351200Y474750D01*
X348950Y475500D02*X350450D01*
X353000Y478500D02*Y472500D01*
Y478500D02*X355250Y476250D01*
X357500Y478500D01*
Y472500D01*
X359300Y478500D02*X362300D01*
X360800D02*Y472500D01*
X366800Y478500D02*Y473250D01*
X367550Y472500D01*
X369050D01*
X369800Y473250D01*
Y478500D02*Y473250D01*
X371600Y478500D02*X374600D01*
X373100D02*Y472500D01*
X377150D02*X379400D01*
X376400Y473250D02*X377150Y472500D01*
X376400Y477750D02*Y473250D01*
Y477750D02*X377150Y478500D01*
X379400D01*
X200000Y492750D02*Y487500D01*
Y492750D02*X200750Y493500D01*
X203000D01*
X203750Y492750D01*
Y487500D01*
X200000Y490500D02*X203750D01*
X205550D02*Y488250D01*
X206300Y487500D01*
X207800D01*
X208550Y488250D01*
Y490500D02*Y488250D01*
X211100Y493500D02*Y488250D01*
X211850Y487500D01*
X210350Y491250D02*X211850D01*
X213350Y493500D02*Y487500D01*
Y489750D02*X214100Y490500D01*
X215600D01*
X216350Y489750D01*
Y487500D01*
X218150Y489750D02*Y488250D01*
Y489750D02*X218900Y490500D01*
X220400D01*
X221150Y489750D01*
Y488250D01*
X220400Y487500D02*X221150Y488250D01*
X218900Y487500D02*X220400D01*
X218150Y488250D02*X218900Y487500D01*
X223700Y489750D02*Y487500D01*
Y489750D02*X224450Y490500D01*
X225950D01*
X222950D02*X223700Y489750D01*
X227750Y491250D02*X228500D01*
X227750Y489750D02*X228500D01*
X233750Y487500D02*X236000D01*
X233000Y488250D02*X233750Y487500D01*
X233000Y492750D02*Y488250D01*
Y492750D02*X233750Y493500D01*
X236000D01*
X237800D02*Y487500D01*
Y489750D02*X238550Y490500D01*
X240050D01*
X240800Y489750D01*
Y487500D01*
X243350Y489750D02*Y487500D01*
Y489750D02*X244100Y490500D01*
X245600D01*
X242600D02*X243350Y489750D01*
X247400Y492000D02*Y491250D01*
Y489750D02*Y487500D01*
X249650D02*X251900D01*
X252650Y488250D01*
X251900Y489000D02*X252650Y488250D01*
X249650Y489000D02*X251900D01*
X248900Y489750D02*X249650Y489000D01*
X248900Y489750D02*X249650Y490500D01*
X251900D01*
X252650Y489750D01*
X248900Y488250D02*X249650Y487500D01*
X255200Y493500D02*Y488250D01*
X255950Y487500D01*
X254450Y491250D02*X255950D01*
X257450Y489750D02*Y488250D01*
Y489750D02*X258200Y490500D01*
X259700D01*
X260450Y489750D01*
Y488250D01*
X259700Y487500D02*X260450Y488250D01*
X258200Y487500D02*X259700D01*
X257450Y488250D02*X258200Y487500D01*
X263000Y489750D02*Y485250D01*
X262250Y490500D02*X263000Y489750D01*
X263750Y490500D01*
X265250D01*
X266000Y489750D01*
Y488250D01*
X265250Y487500D02*X266000Y488250D01*
X263750Y487500D02*X265250D01*
X263000Y488250D02*X263750Y487500D01*
X267800Y493500D02*Y487500D01*
Y489750D02*X268550Y490500D01*
X270050D01*
X270800Y489750D01*
Y487500D01*
X273350D02*X275600D01*
X272600Y488250D02*X273350Y487500D01*
X272600Y489750D02*Y488250D01*
Y489750D02*X273350Y490500D01*
X274850D01*
X275600Y489750D01*
X272600Y489000D02*X275600D01*
Y489750D02*Y489000D01*
X278150Y489750D02*Y487500D01*
Y489750D02*X278900Y490500D01*
X280400D01*
X277400D02*X278150Y489750D01*
X285650Y493500D02*Y487500D01*
X287900Y493500D02*X288650Y492750D01*
Y488250D01*
X287900Y487500D02*X288650Y488250D01*
X284900Y487500D02*X287900D01*
X284900Y493500D02*X287900D01*
X290450Y489750D02*Y488250D01*
Y489750D02*X291200Y490500D01*
X292700D01*
X293450Y489750D01*
Y488250D01*
X292700Y487500D02*X293450Y488250D01*
X291200Y487500D02*X292700D01*
X290450Y488250D02*X291200Y487500D01*
X295250Y493500D02*Y487500D01*
Y489750D02*X296000Y490500D01*
X297500D01*
X298250Y489750D01*
Y487500D01*
X300050Y489750D02*Y488250D01*
Y489750D02*X300800Y490500D01*
X302300D01*
X303050Y489750D01*
Y488250D01*
X302300Y487500D02*X303050Y488250D01*
X300800Y487500D02*X302300D01*
X300050Y488250D02*X300800Y487500D01*
X305600Y489750D02*Y485250D01*
X304850Y490500D02*X305600Y489750D01*
X306350Y490500D01*
X307850D01*
X308600Y489750D01*
Y488250D01*
X307850Y487500D02*X308600Y488250D01*
X306350Y487500D02*X307850D01*
X305600Y488250D02*X306350Y487500D01*
X310400Y489750D02*Y488250D01*
Y489750D02*X311150Y490500D01*
X312650D01*
X313400Y489750D01*
Y488250D01*
X312650Y487500D02*X313400Y488250D01*
X311150Y487500D02*X312650D01*
X310400Y488250D02*X311150Y487500D01*
X315200Y493500D02*Y488250D01*
X315950Y487500D01*
X318200D02*X320450D01*
X321200Y488250D01*
X320450Y489000D02*X321200Y488250D01*
X318200Y489000D02*X320450D01*
X317450Y489750D02*X318200Y489000D01*
X317450Y489750D02*X318200Y490500D01*
X320450D01*
X321200Y489750D01*
X317450Y488250D02*X318200Y487500D01*
X323000Y493500D02*Y487500D01*
Y489750D02*X325250Y487500D01*
X323000Y489750D02*X324500Y491250D01*
X327050Y492000D02*Y491250D01*
Y489750D02*Y487500D01*
X200000Y508500D02*X203000D01*
X201500D02*Y502500D01*
X204800Y507000D02*Y506250D01*
Y504750D02*Y502500D01*
X207050Y508500D02*Y503250D01*
X207800Y502500D01*
X206300Y506250D02*X207800D01*
X209300Y508500D02*Y503250D01*
X210050Y502500D01*
X212300D02*X214550D01*
X211550Y503250D02*X212300Y502500D01*
X211550Y504750D02*Y503250D01*
Y504750D02*X212300Y505500D01*
X213800D01*
X214550Y504750D01*
X211550Y504000D02*X214550D01*
Y504750D02*Y504000D01*
X216350Y506250D02*X217100D01*
X216350Y504750D02*X217100D01*
X221600Y503250D02*X222350Y502500D01*
X221600Y507750D02*X222350Y508500D01*
X221600Y507750D02*Y503250D01*
X224150Y505500D02*Y503250D01*
X224900Y502500D01*
X226400D01*
X227150Y503250D01*
Y505500D02*Y503250D01*
X229700Y504750D02*Y502500D01*
Y504750D02*X230450Y505500D01*
X231200D01*
X231950Y504750D01*
Y502500D01*
X228950Y505500D02*X229700Y504750D01*
X233750Y508500D02*Y502500D01*
Y504750D02*X236000Y502500D01*
X233750Y504750D02*X235250Y506250D01*
X238550Y504750D02*Y502500D01*
Y504750D02*X239300Y505500D01*
X240050D01*
X240800Y504750D01*
Y502500D01*
X237800Y505500D02*X238550Y504750D01*
X242600D02*Y503250D01*
Y504750D02*X243350Y505500D01*
X244850D01*
X245600Y504750D01*
Y503250D01*
X244850Y502500D02*X245600Y503250D01*
X243350Y502500D02*X244850D01*
X242600Y503250D02*X243350Y502500D01*
X247400Y505500D02*Y503250D01*
X248150Y502500D01*
X248900D01*
X249650Y503250D01*
Y505500D02*Y503250D01*
X250400Y502500D01*
X251150D01*
X251900Y503250D01*
Y505500D02*Y503250D01*
X254450Y504750D02*Y502500D01*
Y504750D02*X255200Y505500D01*
X255950D01*
X256700Y504750D01*
Y502500D01*
X253700Y505500D02*X254450Y504750D01*
X258500Y508500D02*X259250Y507750D01*
Y503250D01*
X258500Y502500D02*X259250Y503250D01*
X263750Y505500D02*X266750D01*
X271250Y508500D02*Y502500D01*
Y508500D02*X274250D01*
X271250Y505500D02*X273500D01*
X278300D02*X279050Y504750D01*
X276800Y505500D02*X278300D01*
X276050Y504750D02*X276800Y505500D01*
X276050Y504750D02*Y503250D01*
X276800Y502500D01*
X279050Y505500D02*Y503250D01*
X279800Y502500D01*
X276800D02*X278300D01*
X279050Y503250D01*
X281600Y508500D02*Y502500D01*
Y503250D02*X282350Y502500D01*
X283850D01*
X284600Y503250D01*
Y504750D02*Y503250D01*
X283850Y505500D02*X284600Y504750D01*
X282350Y505500D02*X283850D01*
X281600Y504750D02*X282350Y505500D01*
X287150Y504750D02*Y502500D01*
Y504750D02*X287900Y505500D01*
X289400D01*
X286400D02*X287150Y504750D01*
X291200Y507000D02*Y506250D01*
Y504750D02*Y502500D01*
X293450Y505500D02*X295700D01*
X292700Y504750D02*X293450Y505500D01*
X292700Y504750D02*Y503250D01*
X293450Y502500D01*
X295700D01*
X299750Y505500D02*X300500Y504750D01*
X298250Y505500D02*X299750D01*
X297500Y504750D02*X298250Y505500D01*
X297500Y504750D02*Y503250D01*
X298250Y502500D01*
X300500Y505500D02*Y503250D01*
X301250Y502500D01*
X298250D02*X299750D01*
X300500Y503250D01*
X303800Y508500D02*Y503250D01*
X304550Y502500D01*
X303050Y506250D02*X304550D01*
X306050Y507000D02*Y506250D01*
Y504750D02*Y502500D01*
X307550Y504750D02*Y503250D01*
Y504750D02*X308300Y505500D01*
X309800D01*
X310550Y504750D01*
Y503250D01*
X309800Y502500D02*X310550Y503250D01*
X308300Y502500D02*X309800D01*
X307550Y503250D02*X308300Y502500D01*
X313100Y504750D02*Y502500D01*
Y504750D02*X313850Y505500D01*
X314600D01*
X315350Y504750D01*
Y502500D01*
X312350Y505500D02*X313100Y504750D01*
X320600Y508500D02*Y502500D01*
X322850Y508500D02*X323600Y507750D01*
Y503250D01*
X322850Y502500D02*X323600Y503250D01*
X319850Y502500D02*X322850D01*
X319850Y508500D02*X322850D01*
X326150Y504750D02*Y502500D01*
Y504750D02*X326900Y505500D01*
X328400D01*
X325400D02*X326150Y504750D01*
X332450Y505500D02*X333200Y504750D01*
X330950Y505500D02*X332450D01*
X330200Y504750D02*X330950Y505500D01*
X330200Y504750D02*Y503250D01*
X330950Y502500D01*
X333200Y505500D02*Y503250D01*
X333950Y502500D01*
X330950D02*X332450D01*
X333200Y503250D01*
X335750Y505500D02*Y503250D01*
X336500Y502500D01*
X337250D01*
X338000Y503250D01*
Y505500D02*Y503250D01*
X338750Y502500D01*
X339500D01*
X340250Y503250D01*
Y505500D02*Y503250D01*
X342050Y507000D02*Y506250D01*
Y504750D02*Y502500D01*
X344300Y504750D02*Y502500D01*
Y504750D02*X345050Y505500D01*
X345800D01*
X346550Y504750D01*
Y502500D01*
X343550Y505500D02*X344300Y504750D01*
X350600Y505500D02*X351350Y504750D01*
X349100Y505500D02*X350600D01*
X348350Y504750D02*X349100Y505500D01*
X348350Y504750D02*Y503250D01*
X349100Y502500D01*
X350600D01*
X351350Y503250D01*
X348350Y501000D02*X349100Y500250D01*
X350600D01*
X351350Y501000D01*
Y505500D02*Y501000D01*
M02*
