G75*
G70*
%OFA0B0*%
%FSLAX24Y24*%
%IPPOS*%
%LPD*%
%AMOC8*
5,1,8,0,0,1.08239X$1,22.5*
%
%ADD10R,0.0945X0.0945*%
%ADD11R,0.1500X0.0820*%
%ADD12R,0.3500X0.4500*%
%ADD13R,0.0866X0.0236*%
%ADD14C,0.0945*%
%ADD15R,0.0630X0.0710*%
%ADD16R,0.0591X0.0787*%
%ADD17R,0.1004X0.0984*%
%ADD18C,0.0974*%
%ADD19R,0.0433X0.0394*%
%ADD20R,0.0748X0.0236*%
%ADD21R,0.1102X0.0827*%
%ADD22R,0.0551X0.0709*%
%ADD23R,0.0272X0.0394*%
%ADD24R,0.0394X0.0433*%
%ADD25R,0.0120X0.0350*%
%ADD26R,0.0740X0.0661*%
%ADD27R,0.0709X0.0630*%
%ADD28R,0.0512X0.0591*%
%ADD29R,0.0480X0.0880*%
%ADD30R,0.1417X0.0866*%
%ADD31R,0.0350X0.0310*%
%ADD32R,0.1260X0.0709*%
%ADD33R,0.0591X0.0472*%
%ADD34R,0.5118X0.1969*%
%ADD35C,0.1125*%
%ADD36C,0.0100*%
%ADD37C,0.0310*%
%ADD38C,0.0160*%
%ADD39C,0.0120*%
%ADD40C,0.0240*%
%ADD41C,0.0320*%
%ADD42C,0.0700*%
%ADD43C,0.0660*%
D10*
X001261Y020734D03*
X001261Y022466D03*
D11*
X022511Y019850D03*
X022511Y017850D03*
D12*
X018011Y018850D03*
D13*
X025237Y005850D03*
X025237Y005350D03*
X025237Y004850D03*
X025237Y004350D03*
X027284Y004350D03*
X027284Y004850D03*
X027284Y005350D03*
X027284Y005850D03*
D14*
X035761Y006350D03*
X035761Y012350D03*
X043511Y012350D03*
X043511Y006350D03*
D15*
X043951Y007850D03*
X045070Y007850D03*
X037320Y007850D03*
X036201Y007850D03*
D16*
X026851Y006850D03*
X025670Y006850D03*
D17*
X025267Y008100D03*
X027255Y008100D03*
D18*
X035731Y004850D03*
X037290Y004850D03*
X043481Y004850D03*
X045040Y004850D03*
X009040Y005850D03*
X007481Y005850D03*
D19*
X010511Y008265D03*
X010511Y008935D03*
X011511Y008935D03*
X011511Y008265D03*
X008345Y009600D03*
X007676Y009600D03*
X006261Y011265D03*
X006261Y011935D03*
X005011Y011935D03*
X005011Y011265D03*
X003761Y011265D03*
X003761Y011935D03*
X003761Y007185D03*
X003761Y006515D03*
X015011Y013515D03*
X015011Y014185D03*
X017011Y014185D03*
X017011Y013515D03*
X018011Y010685D03*
X018011Y010015D03*
X023511Y006185D03*
X023511Y005515D03*
X023511Y003935D03*
X023511Y003265D03*
X025426Y009350D03*
X026095Y009350D03*
X026345Y018850D03*
X025676Y018850D03*
D20*
X002761Y010606D03*
X002761Y010212D03*
X002761Y009819D03*
X002761Y009425D03*
X002761Y009031D03*
X002761Y008637D03*
X002761Y008244D03*
X002761Y007850D03*
D21*
X001835Y006610D03*
X001835Y011846D03*
D22*
X023341Y011350D03*
X024680Y011350D03*
X035091Y017100D03*
X036430Y017100D03*
X042841Y017100D03*
X044180Y017100D03*
D23*
X006385Y009112D03*
X006011Y009112D03*
X005637Y009112D03*
X005637Y008088D03*
X006011Y008088D03*
X006385Y008088D03*
D24*
X007511Y011265D03*
X007511Y011935D03*
X013011Y013515D03*
X013176Y012850D03*
X013845Y012850D03*
X014011Y013515D03*
X014011Y014185D03*
X013011Y014185D03*
X016011Y014185D03*
X016011Y013515D03*
X017011Y010685D03*
X017011Y010015D03*
X014845Y006350D03*
X014176Y006350D03*
X018426Y005600D03*
X019095Y005600D03*
X025676Y011350D03*
X026345Y011350D03*
X024345Y015100D03*
X023676Y015100D03*
X022845Y015100D03*
X022176Y015100D03*
X021345Y015100D03*
X020676Y015100D03*
X024176Y018850D03*
X024845Y018850D03*
X025676Y017850D03*
X026345Y017850D03*
D25*
X016048Y012350D03*
X015851Y012350D03*
X015654Y012350D03*
X015457Y012350D03*
X015261Y012350D03*
X015261Y010641D03*
X015457Y010641D03*
X015654Y010641D03*
X015851Y010641D03*
X016048Y010641D03*
D26*
X015654Y011496D03*
D27*
X016011Y008401D03*
X016011Y007299D03*
D28*
X022387Y016100D03*
X023135Y016100D03*
D29*
X021921Y006630D03*
X021011Y006630D03*
X020101Y006630D03*
D30*
X021011Y009070D03*
D31*
X020861Y005720D03*
X020861Y004960D03*
X021661Y005340D03*
D32*
X021011Y010248D03*
X021011Y012452D03*
D33*
X017581Y005600D03*
X016440Y005600D03*
D34*
X019729Y023600D03*
X010229Y023600D03*
X029229Y023600D03*
D35*
X033611Y013850D03*
X035761Y013850D03*
X037911Y013850D03*
X041361Y013850D03*
X043511Y013850D03*
X045661Y013850D03*
D36*
X044011Y008100D02*
X043011Y008100D01*
X043011Y004100D01*
X036261Y004100D01*
X036261Y008100D01*
X035261Y008100D01*
X035261Y004100D01*
X033261Y004100D01*
X031761Y005600D01*
X031761Y024600D01*
X000761Y024600D01*
X000761Y022600D01*
X029511Y022600D01*
X029511Y013100D01*
X020511Y013100D01*
X020511Y012350D01*
X029511Y012350D01*
X029511Y004100D01*
X031761Y001850D01*
X044011Y001850D01*
X044011Y008100D01*
X044011Y008003D02*
X043011Y008003D01*
X043011Y007904D02*
X044011Y007904D01*
X044011Y007806D02*
X043011Y007806D01*
X043011Y007707D02*
X044011Y007707D01*
X044011Y007609D02*
X043011Y007609D01*
X043011Y007510D02*
X044011Y007510D01*
X044011Y007412D02*
X043011Y007412D01*
X043011Y007313D02*
X044011Y007313D01*
X044011Y007215D02*
X043011Y007215D01*
X043011Y007116D02*
X044011Y007116D01*
X044011Y007018D02*
X043011Y007018D01*
X043011Y006919D02*
X044011Y006919D01*
X044011Y006821D02*
X043011Y006821D01*
X043011Y006722D02*
X044011Y006722D01*
X044011Y006624D02*
X043011Y006624D01*
X043011Y006525D02*
X044011Y006525D01*
X044011Y006427D02*
X043011Y006427D01*
X043011Y006328D02*
X044011Y006328D01*
X044011Y006230D02*
X043011Y006230D01*
X043011Y006131D02*
X044011Y006131D01*
X044011Y006033D02*
X043011Y006033D01*
X043011Y005934D02*
X044011Y005934D01*
X044011Y005836D02*
X043011Y005836D01*
X043011Y005737D02*
X044011Y005737D01*
X044011Y005639D02*
X043011Y005639D01*
X043011Y005540D02*
X044011Y005540D01*
X044011Y005442D02*
X043011Y005442D01*
X043011Y005343D02*
X044011Y005343D01*
X044011Y005245D02*
X043011Y005245D01*
X043011Y005146D02*
X044011Y005146D01*
X044011Y005048D02*
X043011Y005048D01*
X043011Y004949D02*
X044011Y004949D01*
X044011Y004851D02*
X043011Y004851D01*
X043011Y004752D02*
X044011Y004752D01*
X044011Y004654D02*
X043011Y004654D01*
X043011Y004555D02*
X044011Y004555D01*
X044011Y004457D02*
X043011Y004457D01*
X043011Y004358D02*
X044011Y004358D01*
X044011Y004260D02*
X043011Y004260D01*
X043011Y004161D02*
X044011Y004161D01*
X044011Y004063D02*
X029548Y004063D01*
X029511Y004161D02*
X033200Y004161D01*
X033101Y004260D02*
X029511Y004260D01*
X029511Y004358D02*
X033003Y004358D01*
X032904Y004457D02*
X029511Y004457D01*
X029511Y004555D02*
X032806Y004555D01*
X032707Y004654D02*
X029511Y004654D01*
X029511Y004752D02*
X032609Y004752D01*
X032510Y004851D02*
X029511Y004851D01*
X029511Y004949D02*
X032412Y004949D01*
X032313Y005048D02*
X029511Y005048D01*
X029511Y005146D02*
X032215Y005146D01*
X032116Y005245D02*
X029511Y005245D01*
X029511Y005343D02*
X032018Y005343D01*
X031919Y005442D02*
X029511Y005442D01*
X029511Y005540D02*
X031821Y005540D01*
X031761Y005639D02*
X029511Y005639D01*
X029511Y005737D02*
X031761Y005737D01*
X031761Y005836D02*
X029511Y005836D01*
X029511Y005934D02*
X031761Y005934D01*
X031761Y006033D02*
X029511Y006033D01*
X029511Y006131D02*
X031761Y006131D01*
X031761Y006230D02*
X029511Y006230D01*
X029511Y006328D02*
X031761Y006328D01*
X031761Y006427D02*
X029511Y006427D01*
X029511Y006525D02*
X031761Y006525D01*
X031761Y006624D02*
X029511Y006624D01*
X029511Y006722D02*
X031761Y006722D01*
X031761Y006821D02*
X029511Y006821D01*
X029511Y006919D02*
X031761Y006919D01*
X031761Y007018D02*
X029511Y007018D01*
X029511Y007116D02*
X031761Y007116D01*
X031761Y007215D02*
X029511Y007215D01*
X029511Y007313D02*
X031761Y007313D01*
X031761Y007412D02*
X029511Y007412D01*
X029511Y007510D02*
X031761Y007510D01*
X031761Y007609D02*
X029511Y007609D01*
X029511Y007707D02*
X031761Y007707D01*
X031761Y007806D02*
X029511Y007806D01*
X029511Y007904D02*
X031761Y007904D01*
X031761Y008003D02*
X029511Y008003D01*
X029511Y008101D02*
X031761Y008101D01*
X031761Y008200D02*
X029511Y008200D01*
X029511Y008298D02*
X031761Y008298D01*
X031761Y008397D02*
X029511Y008397D01*
X029511Y008495D02*
X031761Y008495D01*
X031761Y008594D02*
X029511Y008594D01*
X029511Y008692D02*
X031761Y008692D01*
X031761Y008791D02*
X029511Y008791D01*
X029511Y008889D02*
X031761Y008889D01*
X031761Y008988D02*
X029511Y008988D01*
X029511Y009086D02*
X031761Y009086D01*
X031761Y009185D02*
X029511Y009185D01*
X029511Y009283D02*
X031761Y009283D01*
X031761Y009382D02*
X029511Y009382D01*
X029511Y009480D02*
X031761Y009480D01*
X031761Y009579D02*
X029511Y009579D01*
X029511Y009677D02*
X031761Y009677D01*
X031761Y009776D02*
X029511Y009776D01*
X029511Y009874D02*
X031761Y009874D01*
X031761Y009973D02*
X029511Y009973D01*
X029511Y010071D02*
X031761Y010071D01*
X031761Y010170D02*
X029511Y010170D01*
X029511Y010268D02*
X031761Y010268D01*
X031761Y010367D02*
X029511Y010367D01*
X029511Y010465D02*
X031761Y010465D01*
X031761Y010564D02*
X029511Y010564D01*
X029511Y010662D02*
X031761Y010662D01*
X031761Y010761D02*
X029511Y010761D01*
X029511Y010859D02*
X031761Y010859D01*
X031761Y010958D02*
X029511Y010958D01*
X029511Y011056D02*
X031761Y011056D01*
X031761Y011155D02*
X029511Y011155D01*
X029511Y011253D02*
X031761Y011253D01*
X031761Y011352D02*
X029511Y011352D01*
X029511Y011450D02*
X031761Y011450D01*
X031761Y011549D02*
X029511Y011549D01*
X029511Y011647D02*
X031761Y011647D01*
X031761Y011746D02*
X029511Y011746D01*
X029511Y011844D02*
X031761Y011844D01*
X031761Y011943D02*
X029511Y011943D01*
X029511Y012041D02*
X031761Y012041D01*
X031761Y012140D02*
X029511Y012140D01*
X029511Y012238D02*
X031761Y012238D01*
X031761Y012337D02*
X029511Y012337D01*
X029511Y013125D02*
X031761Y013125D01*
X031761Y013223D02*
X029511Y013223D01*
X029511Y013322D02*
X031761Y013322D01*
X031761Y013420D02*
X029511Y013420D01*
X029511Y013519D02*
X031761Y013519D01*
X031761Y013617D02*
X029511Y013617D01*
X029511Y013716D02*
X031761Y013716D01*
X031761Y013814D02*
X029511Y013814D01*
X029511Y013913D02*
X031761Y013913D01*
X031761Y014011D02*
X029511Y014011D01*
X029511Y014110D02*
X031761Y014110D01*
X031761Y014208D02*
X029511Y014208D01*
X029511Y014307D02*
X031761Y014307D01*
X031761Y014405D02*
X029511Y014405D01*
X029511Y014504D02*
X031761Y014504D01*
X031761Y014602D02*
X029511Y014602D01*
X029511Y014701D02*
X031761Y014701D01*
X031761Y014799D02*
X029511Y014799D01*
X029511Y014898D02*
X031761Y014898D01*
X031761Y014996D02*
X029511Y014996D01*
X029511Y015095D02*
X031761Y015095D01*
X031761Y015193D02*
X029511Y015193D01*
X029511Y015292D02*
X031761Y015292D01*
X031761Y015390D02*
X029511Y015390D01*
X029511Y015489D02*
X031761Y015489D01*
X031761Y015587D02*
X029511Y015587D01*
X029511Y015686D02*
X031761Y015686D01*
X031761Y015784D02*
X029511Y015784D01*
X029511Y015883D02*
X031761Y015883D01*
X031761Y015981D02*
X029511Y015981D01*
X029511Y016080D02*
X031761Y016080D01*
X031761Y016178D02*
X029511Y016178D01*
X029511Y016277D02*
X031761Y016277D01*
X031761Y016375D02*
X029511Y016375D01*
X029511Y016474D02*
X031761Y016474D01*
X031761Y016572D02*
X029511Y016572D01*
X029511Y016671D02*
X031761Y016671D01*
X031761Y016769D02*
X029511Y016769D01*
X029511Y016868D02*
X031761Y016868D01*
X031761Y016966D02*
X029511Y016966D01*
X029511Y017065D02*
X031761Y017065D01*
X031761Y017163D02*
X029511Y017163D01*
X029511Y017262D02*
X031761Y017262D01*
X031761Y017360D02*
X029511Y017360D01*
X029511Y017459D02*
X031761Y017459D01*
X031761Y017557D02*
X029511Y017557D01*
X029511Y017656D02*
X031761Y017656D01*
X031761Y017754D02*
X029511Y017754D01*
X029511Y017853D02*
X031761Y017853D01*
X031761Y017951D02*
X029511Y017951D01*
X029511Y018050D02*
X031761Y018050D01*
X031761Y018148D02*
X029511Y018148D01*
X029511Y018247D02*
X031761Y018247D01*
X031761Y018345D02*
X029511Y018345D01*
X029511Y018444D02*
X031761Y018444D01*
X031761Y018542D02*
X029511Y018542D01*
X029511Y018641D02*
X031761Y018641D01*
X031761Y018739D02*
X029511Y018739D01*
X029511Y018838D02*
X031761Y018838D01*
X031761Y018936D02*
X029511Y018936D01*
X029511Y019035D02*
X031761Y019035D01*
X031761Y019133D02*
X029511Y019133D01*
X029511Y019232D02*
X031761Y019232D01*
X031761Y019330D02*
X029511Y019330D01*
X029511Y019429D02*
X031761Y019429D01*
X031761Y019527D02*
X029511Y019527D01*
X029511Y019626D02*
X031761Y019626D01*
X031761Y019724D02*
X029511Y019724D01*
X029511Y019823D02*
X031761Y019823D01*
X031761Y019921D02*
X029511Y019921D01*
X029511Y020020D02*
X031761Y020020D01*
X031761Y020118D02*
X029511Y020118D01*
X029511Y020217D02*
X031761Y020217D01*
X031761Y020315D02*
X029511Y020315D01*
X029511Y020414D02*
X031761Y020414D01*
X031761Y020512D02*
X029511Y020512D01*
X029511Y020611D02*
X031761Y020611D01*
X031761Y020709D02*
X029511Y020709D01*
X029511Y020808D02*
X031761Y020808D01*
X031761Y020906D02*
X029511Y020906D01*
X029511Y021005D02*
X031761Y021005D01*
X031761Y021103D02*
X029511Y021103D01*
X029511Y021202D02*
X031761Y021202D01*
X031761Y021300D02*
X029511Y021300D01*
X029511Y021399D02*
X031761Y021399D01*
X031761Y021497D02*
X029511Y021497D01*
X029511Y021596D02*
X031761Y021596D01*
X031761Y021694D02*
X029511Y021694D01*
X029511Y021793D02*
X031761Y021793D01*
X031761Y021891D02*
X029511Y021891D01*
X029511Y021990D02*
X031761Y021990D01*
X031761Y022088D02*
X029511Y022088D01*
X029511Y022187D02*
X031761Y022187D01*
X031761Y022285D02*
X029511Y022285D01*
X029511Y022384D02*
X031761Y022384D01*
X031761Y022482D02*
X029511Y022482D01*
X029511Y022581D02*
X031761Y022581D01*
X031761Y022679D02*
X000761Y022679D01*
X000761Y022778D02*
X031761Y022778D01*
X031761Y022876D02*
X000761Y022876D01*
X000761Y022975D02*
X031761Y022975D01*
X031761Y023073D02*
X000761Y023073D01*
X000761Y023172D02*
X031761Y023172D01*
X031761Y023270D02*
X000761Y023270D01*
X000761Y023369D02*
X031761Y023369D01*
X031761Y023467D02*
X000761Y023467D01*
X000761Y023566D02*
X031761Y023566D01*
X031761Y023664D02*
X000761Y023664D01*
X000761Y023763D02*
X031761Y023763D01*
X031761Y023861D02*
X000761Y023861D01*
X000761Y023960D02*
X031761Y023960D01*
X031761Y024058D02*
X000761Y024058D01*
X000761Y024157D02*
X031761Y024157D01*
X031761Y024255D02*
X000761Y024255D01*
X000761Y024354D02*
X031761Y024354D01*
X031761Y024452D02*
X000761Y024452D01*
X000761Y024551D02*
X031761Y024551D01*
X022387Y016100D02*
X018511Y016100D01*
X019511Y017100D02*
X013761Y017100D01*
X013761Y018100D01*
X016511Y018100D01*
X016511Y019850D01*
X019511Y019850D01*
X019511Y017100D01*
X019511Y017163D02*
X013761Y017163D01*
X013761Y017262D02*
X019511Y017262D01*
X019511Y017360D02*
X013761Y017360D01*
X013761Y017459D02*
X019511Y017459D01*
X019511Y017557D02*
X013761Y017557D01*
X013761Y017656D02*
X019511Y017656D01*
X019511Y017754D02*
X013761Y017754D01*
X013761Y017853D02*
X019511Y017853D01*
X019511Y017951D02*
X013761Y017951D01*
X013761Y018050D02*
X019511Y018050D01*
X019511Y018148D02*
X016511Y018148D01*
X016511Y018247D02*
X019511Y018247D01*
X019511Y018345D02*
X016511Y018345D01*
X016511Y018444D02*
X019511Y018444D01*
X019511Y018542D02*
X016511Y018542D01*
X016511Y018641D02*
X019511Y018641D01*
X019511Y018739D02*
X016511Y018739D01*
X016511Y018838D02*
X019511Y018838D01*
X019511Y018936D02*
X016511Y018936D01*
X016511Y019035D02*
X019511Y019035D01*
X019511Y019133D02*
X016511Y019133D01*
X016511Y019232D02*
X019511Y019232D01*
X019511Y019330D02*
X016511Y019330D01*
X016511Y019429D02*
X019511Y019429D01*
X019511Y019527D02*
X016511Y019527D01*
X016511Y019626D02*
X019511Y019626D01*
X019511Y019724D02*
X016511Y019724D01*
X016511Y019823D02*
X019511Y019823D01*
X020676Y015100D02*
X014761Y015100D01*
X014511Y014850D01*
X014511Y013850D01*
X014845Y013515D01*
X015011Y013515D01*
X015011Y013100D01*
X015457Y012653D01*
X015457Y012350D01*
X015261Y012350D02*
X014011Y012350D01*
X013845Y012515D01*
X013845Y012850D01*
X014011Y013015D01*
X014011Y013515D01*
X013176Y012850D02*
X013011Y013015D01*
X013011Y013515D01*
X012761Y014100D02*
X014351Y014100D01*
X014351Y014850D01*
X012761Y014850D01*
X012761Y014100D01*
X012761Y014110D02*
X014351Y014110D01*
X014351Y014208D02*
X012761Y014208D01*
X012761Y014307D02*
X014351Y014307D01*
X014351Y014405D02*
X012761Y014405D01*
X012761Y014504D02*
X014351Y014504D01*
X014351Y014602D02*
X012761Y014602D01*
X012761Y014701D02*
X014351Y014701D01*
X014351Y014799D02*
X012761Y014799D01*
X014671Y014784D02*
X014671Y014100D01*
X017261Y014100D01*
X017261Y014850D01*
X014737Y014850D01*
X014671Y014784D01*
X014686Y014799D02*
X017261Y014799D01*
X017261Y014701D02*
X014671Y014701D01*
X014671Y014602D02*
X017261Y014602D01*
X017261Y014504D02*
X014671Y014504D01*
X014671Y014405D02*
X017261Y014405D01*
X017261Y014307D02*
X014671Y014307D01*
X014671Y014208D02*
X017261Y014208D01*
X017261Y014110D02*
X014671Y014110D01*
X016011Y013515D02*
X016011Y013100D01*
X015654Y012744D01*
X015654Y012350D01*
X015851Y012350D02*
X015851Y012691D01*
X016011Y012850D01*
X016761Y012850D01*
X017011Y013100D01*
X017011Y013515D01*
X016048Y012350D02*
X016048Y011889D01*
X015809Y011650D01*
X015811Y011650D01*
X015809Y011650D02*
X015654Y011496D01*
X015654Y010641D02*
X015654Y009206D01*
X016011Y008850D01*
X016011Y008401D01*
X015457Y007547D02*
X014845Y006935D01*
X014845Y006350D01*
X016011Y006350D01*
X016440Y005921D01*
X016440Y005600D01*
X014176Y006350D02*
X013511Y006350D01*
X015457Y007547D02*
X015457Y010641D01*
X015261Y010641D02*
X015261Y010350D01*
X015011Y010100D01*
X015851Y010009D02*
X016261Y009600D01*
X019261Y009600D01*
X019761Y010100D01*
X019761Y010350D01*
X020261Y010350D02*
X021761Y010350D01*
X021761Y008850D01*
X020261Y008850D01*
X020261Y010350D01*
X020261Y010268D02*
X021761Y010268D01*
X021761Y010170D02*
X020261Y010170D01*
X020261Y010071D02*
X021761Y010071D01*
X021761Y009973D02*
X020261Y009973D01*
X020261Y009874D02*
X021761Y009874D01*
X021761Y009776D02*
X020261Y009776D01*
X020261Y009677D02*
X021761Y009677D01*
X021761Y009579D02*
X020261Y009579D01*
X020261Y009480D02*
X021761Y009480D01*
X021761Y009382D02*
X020261Y009382D01*
X020261Y009283D02*
X021761Y009283D01*
X021761Y009185D02*
X020261Y009185D01*
X020261Y009086D02*
X021761Y009086D01*
X021761Y008988D02*
X020261Y008988D01*
X020261Y008889D02*
X021761Y008889D01*
X024261Y008600D02*
X024261Y007600D01*
X025011Y007600D01*
X025011Y008600D01*
X024261Y008600D01*
X024261Y008594D02*
X025011Y008594D01*
X025011Y008495D02*
X024261Y008495D01*
X024261Y008397D02*
X025011Y008397D01*
X025011Y008298D02*
X024261Y008298D01*
X024261Y008200D02*
X025011Y008200D01*
X025011Y008101D02*
X024261Y008101D01*
X024261Y008003D02*
X025011Y008003D01*
X025011Y007904D02*
X024261Y007904D01*
X024261Y007806D02*
X025011Y007806D01*
X025011Y007707D02*
X024261Y007707D01*
X024261Y007609D02*
X025011Y007609D01*
X025670Y006850D02*
X025590Y006770D01*
X029647Y003964D02*
X044011Y003964D01*
X044011Y003866D02*
X029745Y003866D01*
X029844Y003767D02*
X044011Y003767D01*
X044011Y003669D02*
X029942Y003669D01*
X030041Y003570D02*
X044011Y003570D01*
X044011Y003472D02*
X030139Y003472D01*
X030238Y003373D02*
X044011Y003373D01*
X044011Y003275D02*
X030336Y003275D01*
X030435Y003176D02*
X044011Y003176D01*
X044011Y003078D02*
X030533Y003078D01*
X030632Y002979D02*
X044011Y002979D01*
X044011Y002881D02*
X030730Y002881D01*
X030829Y002782D02*
X044011Y002782D01*
X044011Y002684D02*
X030927Y002684D01*
X031026Y002585D02*
X044011Y002585D01*
X044011Y002487D02*
X031124Y002487D01*
X031223Y002388D02*
X044011Y002388D01*
X044011Y002290D02*
X031321Y002290D01*
X031420Y002191D02*
X044011Y002191D01*
X044011Y002093D02*
X031518Y002093D01*
X031617Y001994D02*
X044011Y001994D01*
X044011Y001896D02*
X031715Y001896D01*
X035261Y004161D02*
X036261Y004161D01*
X036261Y004260D02*
X035261Y004260D01*
X035261Y004358D02*
X036261Y004358D01*
X036261Y004457D02*
X035261Y004457D01*
X035261Y004555D02*
X036261Y004555D01*
X036261Y004654D02*
X035261Y004654D01*
X035261Y004752D02*
X036261Y004752D01*
X036261Y004851D02*
X035261Y004851D01*
X035261Y004949D02*
X036261Y004949D01*
X036261Y005048D02*
X035261Y005048D01*
X035261Y005146D02*
X036261Y005146D01*
X036261Y005245D02*
X035261Y005245D01*
X035261Y005343D02*
X036261Y005343D01*
X036261Y005442D02*
X035261Y005442D01*
X035261Y005540D02*
X036261Y005540D01*
X036261Y005639D02*
X035261Y005639D01*
X035261Y005737D02*
X036261Y005737D01*
X036261Y005836D02*
X035261Y005836D01*
X035261Y005934D02*
X036261Y005934D01*
X036261Y006033D02*
X035261Y006033D01*
X035261Y006131D02*
X036261Y006131D01*
X036261Y006230D02*
X035261Y006230D01*
X035261Y006328D02*
X036261Y006328D01*
X036261Y006427D02*
X035261Y006427D01*
X035261Y006525D02*
X036261Y006525D01*
X036261Y006624D02*
X035261Y006624D01*
X035261Y006722D02*
X036261Y006722D01*
X036261Y006821D02*
X035261Y006821D01*
X035261Y006919D02*
X036261Y006919D01*
X036261Y007018D02*
X035261Y007018D01*
X035261Y007116D02*
X036261Y007116D01*
X036261Y007215D02*
X035261Y007215D01*
X035261Y007313D02*
X036261Y007313D01*
X036261Y007412D02*
X035261Y007412D01*
X035261Y007510D02*
X036261Y007510D01*
X036261Y007609D02*
X035261Y007609D01*
X035261Y007707D02*
X036261Y007707D01*
X036261Y007806D02*
X035261Y007806D01*
X035261Y007904D02*
X036261Y007904D01*
X036261Y008003D02*
X035261Y008003D01*
X031761Y012435D02*
X020511Y012435D01*
X020511Y012534D02*
X031761Y012534D01*
X031761Y012632D02*
X020511Y012632D01*
X020511Y012731D02*
X031761Y012731D01*
X031761Y012829D02*
X020511Y012829D01*
X020511Y012928D02*
X031761Y012928D01*
X031761Y013026D02*
X020511Y013026D01*
X021345Y015100D02*
X022176Y015100D01*
X022845Y015100D02*
X023676Y015100D01*
X024345Y015100D02*
X029761Y015100D01*
X018011Y011350D02*
X018011Y010685D01*
X018011Y010015D02*
X017011Y010015D01*
X016345Y010015D01*
X016048Y010313D01*
X016048Y010641D01*
X015851Y010641D02*
X015851Y010009D01*
X017011Y010685D02*
X017011Y011350D01*
X001761Y013600D02*
X000761Y013600D01*
X000761Y021100D01*
X001761Y021100D01*
X001761Y013600D01*
X001761Y013617D02*
X000761Y013617D01*
X000761Y013716D02*
X001761Y013716D01*
X001761Y013814D02*
X000761Y013814D01*
X000761Y013913D02*
X001761Y013913D01*
X001761Y014011D02*
X000761Y014011D01*
X000761Y014110D02*
X001761Y014110D01*
X001761Y014208D02*
X000761Y014208D01*
X000761Y014307D02*
X001761Y014307D01*
X001761Y014405D02*
X000761Y014405D01*
X000761Y014504D02*
X001761Y014504D01*
X001761Y014602D02*
X000761Y014602D01*
X000761Y014701D02*
X001761Y014701D01*
X001761Y014799D02*
X000761Y014799D01*
X000761Y014898D02*
X001761Y014898D01*
X001761Y014996D02*
X000761Y014996D01*
X000761Y015095D02*
X001761Y015095D01*
X001761Y015193D02*
X000761Y015193D01*
X000761Y015292D02*
X001761Y015292D01*
X001761Y015390D02*
X000761Y015390D01*
X000761Y015489D02*
X001761Y015489D01*
X001761Y015587D02*
X000761Y015587D01*
X000761Y015686D02*
X001761Y015686D01*
X001761Y015784D02*
X000761Y015784D01*
X000761Y015883D02*
X001761Y015883D01*
X001761Y015981D02*
X000761Y015981D01*
X000761Y016080D02*
X001761Y016080D01*
X001761Y016178D02*
X000761Y016178D01*
X000761Y016277D02*
X001761Y016277D01*
X001761Y016375D02*
X000761Y016375D01*
X000761Y016474D02*
X001761Y016474D01*
X001761Y016572D02*
X000761Y016572D01*
X000761Y016671D02*
X001761Y016671D01*
X001761Y016769D02*
X000761Y016769D01*
X000761Y016868D02*
X001761Y016868D01*
X001761Y016966D02*
X000761Y016966D01*
X000761Y017065D02*
X001761Y017065D01*
X001761Y017163D02*
X000761Y017163D01*
X000761Y017262D02*
X001761Y017262D01*
X001761Y017360D02*
X000761Y017360D01*
X000761Y017459D02*
X001761Y017459D01*
X001761Y017557D02*
X000761Y017557D01*
X000761Y017656D02*
X001761Y017656D01*
X001761Y017754D02*
X000761Y017754D01*
X000761Y017853D02*
X001761Y017853D01*
X001761Y017951D02*
X000761Y017951D01*
X000761Y018050D02*
X001761Y018050D01*
X001761Y018148D02*
X000761Y018148D01*
X000761Y018247D02*
X001761Y018247D01*
X001761Y018345D02*
X000761Y018345D01*
X000761Y018444D02*
X001761Y018444D01*
X001761Y018542D02*
X000761Y018542D01*
X000761Y018641D02*
X001761Y018641D01*
X001761Y018739D02*
X000761Y018739D01*
X000761Y018838D02*
X001761Y018838D01*
X001761Y018936D02*
X000761Y018936D01*
X000761Y019035D02*
X001761Y019035D01*
X001761Y019133D02*
X000761Y019133D01*
X000761Y019232D02*
X001761Y019232D01*
X001761Y019330D02*
X000761Y019330D01*
X000761Y019429D02*
X001761Y019429D01*
X001761Y019527D02*
X000761Y019527D01*
X000761Y019626D02*
X001761Y019626D01*
X001761Y019724D02*
X000761Y019724D01*
X000761Y019823D02*
X001761Y019823D01*
X001761Y019921D02*
X000761Y019921D01*
X000761Y020020D02*
X001761Y020020D01*
X001761Y020118D02*
X000761Y020118D01*
X000761Y020217D02*
X001761Y020217D01*
X001761Y020315D02*
X000761Y020315D01*
X000761Y020414D02*
X001761Y020414D01*
X001761Y020512D02*
X000761Y020512D01*
X000761Y020611D02*
X001761Y020611D01*
X001761Y020709D02*
X000761Y020709D01*
X000761Y020808D02*
X001761Y020808D01*
X001761Y020906D02*
X000761Y020906D01*
X000761Y021005D02*
X001761Y021005D01*
D37*
X001511Y014350D03*
X001511Y013850D03*
X001011Y013850D03*
X001011Y014350D03*
X005011Y010600D03*
X005011Y009850D03*
X006011Y007600D03*
X003761Y005100D03*
X009011Y009600D03*
X010511Y009600D03*
X013511Y006350D03*
X016761Y007600D03*
X016761Y008600D03*
X015011Y010100D03*
X015461Y011330D03*
X015461Y011650D03*
X015811Y011650D03*
X015811Y011330D03*
X017011Y011350D03*
X018011Y011350D03*
X019761Y010350D03*
X022761Y011350D03*
X023011Y009350D03*
X024511Y008350D03*
X024511Y007850D03*
X023511Y006850D03*
X020261Y005350D03*
X019761Y005600D03*
X023511Y002600D03*
X028261Y004850D03*
X028261Y005850D03*
X016511Y014600D03*
X015511Y014600D03*
X014011Y014600D03*
X013011Y014600D03*
X014011Y017350D03*
X014511Y017350D03*
X014511Y017850D03*
X014011Y017850D03*
X018511Y016100D03*
X024011Y016100D03*
X027011Y018850D03*
X023761Y019850D03*
D38*
X022511Y019850D01*
X024176Y018850D02*
X018011Y018850D01*
X022387Y017726D02*
X022387Y016100D01*
X023135Y016100D02*
X024011Y016100D01*
X022387Y017726D02*
X022511Y017850D01*
X026345Y017850D02*
X026345Y018850D01*
X027011Y018850D01*
X026851Y006850D02*
X026511Y006509D01*
X026511Y005600D01*
X026761Y005350D01*
X027284Y005350D01*
X026011Y005600D02*
X026011Y006509D01*
X025670Y006850D01*
X026011Y005600D02*
X025761Y005350D01*
X025237Y005350D01*
D39*
X005176Y003935D02*
X004511Y004600D01*
X004511Y007600D01*
X003867Y008244D01*
X002761Y008244D01*
X002761Y008637D02*
X003973Y008637D01*
X004761Y007850D01*
X004761Y004850D01*
X005261Y004350D01*
X022761Y004350D01*
X023511Y005100D01*
X023511Y005515D01*
X024176Y005515D01*
X024511Y005850D01*
X025237Y005850D01*
X025237Y004850D02*
X024011Y004850D01*
X023511Y004350D01*
X023511Y003935D01*
X005176Y003935D01*
X005511Y004600D02*
X014261Y004600D01*
X014845Y005185D01*
X014845Y006350D01*
X016440Y005600D02*
X016440Y005171D01*
X016651Y004960D01*
X020861Y004960D01*
X020261Y005350D02*
X020261Y005600D01*
X020381Y005720D01*
X020861Y005720D01*
X020101Y005940D02*
X019761Y005600D01*
X019095Y005600D01*
X018426Y005600D02*
X017581Y005600D01*
X020101Y005940D02*
X020101Y006630D01*
X021661Y005750D02*
X021661Y005340D01*
X021661Y005750D02*
X021921Y006010D01*
X021921Y006630D01*
X021921Y007510D01*
X022511Y008100D01*
X022511Y009850D01*
X023011Y010350D01*
X024261Y010350D01*
X024680Y010769D01*
X024680Y011350D01*
X025676Y011350D01*
X026345Y011350D02*
X029761Y011350D01*
X029761Y015600D02*
X012011Y015600D01*
X011511Y015100D01*
X011511Y008935D01*
X011511Y008265D02*
X010511Y008265D01*
X010511Y007600D01*
X010011Y007100D01*
X006011Y007100D01*
X005637Y007474D01*
X005637Y008088D01*
X006011Y008088D02*
X006011Y007600D01*
X006385Y007726D02*
X006385Y008088D01*
X006385Y007726D02*
X006511Y007600D01*
X007511Y007600D01*
X007676Y007765D01*
X007676Y009600D01*
X007676Y010185D01*
X007511Y010350D01*
X007511Y011265D01*
X007511Y011935D02*
X006261Y011935D01*
X005011Y011935D01*
X003761Y011935D01*
X003761Y011265D02*
X003761Y010850D01*
X003517Y010606D01*
X002761Y010606D01*
X002761Y010212D02*
X006261Y010212D01*
X006261Y009850D01*
X006385Y009726D01*
X006385Y009112D01*
X006011Y009112D02*
X006011Y009600D01*
X005761Y009850D01*
X005011Y009850D01*
X002792Y009850D01*
X002761Y009819D01*
X002761Y009031D02*
X004079Y009031D01*
X005011Y008100D01*
X005011Y005100D01*
X005511Y004600D01*
X003761Y005100D02*
X003761Y006515D01*
X003761Y007185D02*
X003761Y007600D01*
X003511Y007850D01*
X002761Y007850D01*
X005011Y010600D02*
X005011Y011265D01*
X006261Y011265D02*
X006261Y010212D01*
X008345Y009600D02*
X009011Y009600D01*
X010511Y009600D02*
X010511Y008935D01*
X023511Y006850D02*
X023511Y006185D01*
X023511Y003265D02*
X023511Y002600D01*
X025676Y017850D02*
X025676Y018850D01*
X024845Y018850D01*
D40*
X023341Y011350D02*
X022761Y011350D01*
X027284Y005850D02*
X028261Y005850D01*
X028261Y004850D02*
X027284Y004850D01*
D41*
X026851Y006850D02*
X026851Y007696D01*
X027255Y008100D01*
X027261Y008094D01*
X027255Y008100D02*
X027255Y008856D01*
X026761Y009350D01*
X026095Y009350D01*
X025426Y009350D02*
X023011Y009350D01*
X021011Y009070D02*
X021011Y006630D01*
X016761Y007600D02*
X016459Y007299D01*
X016011Y007299D01*
X016011Y008401D02*
X016562Y008401D01*
X016761Y008600D01*
X025261Y008100D02*
X025670Y007691D01*
X025670Y006850D01*
X033611Y013850D02*
X033611Y016450D01*
X034261Y017100D01*
X035091Y017100D01*
X036430Y017100D02*
X037261Y017100D01*
X037911Y016450D01*
X037911Y013850D01*
X041361Y013850D02*
X041361Y016450D01*
X042011Y017100D01*
X042841Y017100D01*
X044180Y017100D02*
X045011Y017100D01*
X045661Y016450D01*
X045661Y013850D01*
D42*
X043511Y013850D02*
X043511Y012350D01*
X043511Y010850D01*
X045070Y009290D01*
X045070Y007850D01*
X045070Y004880D01*
X037320Y004880D02*
X037320Y007850D01*
X037320Y009290D01*
X035761Y010850D01*
X035761Y012350D01*
X035761Y013850D01*
D43*
X037320Y004880D02*
X037290Y004850D01*
X045040Y004850D02*
X045070Y004880D01*
M02*
