G75*
G70*
%OFA0B0*%
%FSLAX24Y24*%
%IPPOS*%
%LPD*%
%AMOC8*
5,1,8,0,0,1.08239X$1,22.5*
%
%ADD10C,0.0060*%
%ADD11R,0.4750X1.4750*%
%ADD12C,0.0100*%
%ADD13C,0.0160*%
%ADD14C,0.0040*%
%ADD15C,0.0030*%
%ADD16C,0.0050*%
%ADD17C,0.0500*%
%ADD18C,0.0070*%
%ADD19R,0.3600X0.0200*%
%ADD20R,0.0500X0.0500*%
%ADD21R,0.0340X0.0160*%
%ADD22R,0.0354X0.0374*%
%ADD23R,0.0160X0.0340*%
%ADD24C,0.0020*%
%ADD25R,0.0059X0.0079*%
%ADD26R,0.0020X0.0020*%
%ADD27R,0.0148X0.0020*%
%ADD28R,0.0118X0.0079*%
%ADD29R,0.0089X0.0354*%
%ADD30R,0.0197X0.0079*%
%ADD31R,0.0089X0.0217*%
%ADD32R,0.0039X0.0039*%
%ADD33R,0.0098X0.0098*%
%ADD34R,0.2756X0.0394*%
%ADD35R,0.0840X0.1700*%
%ADD36R,0.1230X0.1700*%
%ADD37R,0.0770X0.1700*%
D10*
X006541Y004380D02*
X006541Y005021D01*
X006861Y005021D01*
X006968Y004914D01*
X006968Y004700D01*
X006861Y004594D01*
X006541Y004594D01*
X007185Y004487D02*
X007292Y004380D01*
X007505Y004380D01*
X007612Y004487D01*
X007612Y004914D01*
X007505Y005021D01*
X007292Y005021D01*
X007185Y004914D01*
X007185Y004487D01*
X007830Y004380D02*
X008043Y004594D01*
X008257Y004380D01*
X008257Y005021D01*
X008474Y005021D02*
X008474Y004380D01*
X008901Y004380D01*
X009119Y004380D02*
X009119Y005021D01*
X009439Y005021D01*
X009546Y004914D01*
X009546Y004700D01*
X009439Y004594D01*
X009119Y004594D01*
X009332Y004594D02*
X009546Y004380D01*
X008688Y004700D02*
X008474Y004700D01*
X008474Y005021D02*
X008901Y005021D01*
X007830Y005021D02*
X007830Y004380D01*
X006504Y005987D02*
X006504Y006414D01*
X006291Y006200D02*
X006718Y006200D01*
X009791Y006273D02*
X010218Y006273D01*
X014341Y008460D02*
X014681Y008460D01*
X014681Y008740D02*
X014341Y008740D01*
X014507Y001021D02*
X014507Y000380D01*
X014080Y001021D01*
X014080Y000380D01*
X013862Y000380D02*
X013862Y000807D01*
X013649Y001021D01*
X013435Y000807D01*
X013435Y000380D01*
X013218Y000487D02*
X013111Y000380D01*
X012791Y000380D01*
X012791Y001021D01*
X013111Y001021D01*
X013218Y000914D01*
X013218Y000487D01*
X013435Y000700D02*
X013862Y000700D01*
X014724Y000487D02*
X014831Y000380D01*
X015045Y000380D01*
X015151Y000487D01*
X015151Y000700D01*
X014938Y000700D01*
X014724Y000487D02*
X014724Y000914D01*
X014831Y001021D01*
X015045Y001021D01*
X015151Y000914D01*
X015369Y001021D02*
X015369Y000380D01*
X015796Y000380D01*
X016013Y000380D02*
X016013Y001021D01*
X016334Y001021D01*
X016440Y000914D01*
X016440Y000700D01*
X016334Y000594D01*
X016013Y000594D01*
X016227Y000594D02*
X016440Y000380D01*
X015796Y001021D02*
X015369Y001021D01*
X015369Y000700D02*
X015582Y000700D01*
X017302Y000700D02*
X017729Y000700D01*
X018592Y000700D02*
X019019Y000700D01*
X019019Y000380D02*
X019019Y001021D01*
X019236Y001021D02*
X019450Y001021D01*
X019343Y001021D02*
X019343Y000380D01*
X019236Y000380D02*
X019450Y000380D01*
X019666Y000487D02*
X019773Y000380D01*
X019986Y000380D01*
X020093Y000487D01*
X020093Y000700D01*
X019879Y000700D01*
X019666Y000914D02*
X019666Y000487D01*
X019666Y000914D02*
X019773Y001021D01*
X019986Y001021D01*
X020093Y000914D01*
X020310Y001021D02*
X020310Y000380D01*
X020310Y000700D02*
X020737Y000700D01*
X020737Y000380D02*
X020737Y001021D01*
X021599Y001021D02*
X021599Y000594D01*
X021813Y000380D01*
X022026Y000594D01*
X022026Y001021D01*
X022244Y000914D02*
X022244Y000487D01*
X022351Y000380D01*
X022564Y000380D01*
X022671Y000487D01*
X022671Y000914D01*
X022564Y001021D01*
X022351Y001021D01*
X022244Y000914D01*
X022889Y001021D02*
X022889Y000380D01*
X023316Y000380D01*
X023747Y000380D02*
X023747Y001021D01*
X023960Y001021D02*
X023533Y001021D01*
X024178Y000807D02*
X024178Y000380D01*
X024178Y000700D02*
X024605Y000700D01*
X024605Y000807D02*
X024605Y000380D01*
X024822Y000487D02*
X024929Y000380D01*
X025142Y000380D01*
X025249Y000487D01*
X025249Y000700D01*
X025036Y000700D01*
X025249Y000914D02*
X025142Y001021D01*
X024929Y001021D01*
X024822Y000914D01*
X024822Y000487D01*
X024605Y000807D02*
X024391Y001021D01*
X024178Y000807D01*
X025467Y000700D02*
X025680Y000700D01*
X025467Y000380D02*
X025894Y000380D01*
X025467Y000380D02*
X025467Y001021D01*
X025894Y001021D01*
X018592Y001021D02*
X018592Y000380D01*
X032870Y010430D02*
X032870Y010770D01*
X033151Y010770D02*
X033151Y010430D01*
X033961Y011200D02*
X033961Y007500D01*
X037561Y007500D01*
X037561Y011200D01*
X033961Y011200D01*
X034147Y012630D02*
X034361Y012630D01*
X034468Y012737D01*
X034468Y012950D01*
X034254Y012950D01*
X034041Y012737D02*
X034147Y012630D01*
X034041Y012737D02*
X034041Y013164D01*
X034147Y013271D01*
X034361Y013271D01*
X034468Y013164D01*
X035761Y010350D02*
X035761Y009350D01*
X036011Y009850D01*
X035511Y009850D01*
X035761Y009350D01*
X036011Y009350D01*
X035761Y009350D02*
X035511Y009350D01*
X035761Y009350D02*
X035761Y008900D01*
X034754Y005164D02*
X034754Y004737D01*
X034541Y004950D02*
X034968Y004950D01*
X035291Y004021D02*
X035291Y003380D01*
X035291Y003594D02*
X035718Y004021D01*
X035935Y004021D02*
X036149Y004021D01*
X036042Y004021D02*
X036042Y003380D01*
X035935Y003380D02*
X036149Y003380D01*
X036365Y003487D02*
X036365Y003914D01*
X036472Y004021D01*
X036685Y004021D01*
X036792Y003914D01*
X037009Y004021D02*
X037009Y003380D01*
X037009Y003594D02*
X037436Y004021D01*
X037116Y003700D02*
X037436Y003380D01*
X036792Y003487D02*
X036685Y003380D01*
X036472Y003380D01*
X036365Y003487D01*
X035718Y003380D02*
X035397Y003700D01*
X038041Y005023D02*
X038468Y005023D01*
X041711Y007500D02*
X041711Y011200D01*
X045311Y011200D01*
X045311Y007500D01*
X041711Y007500D01*
X043511Y008900D02*
X043511Y009350D01*
X043761Y009850D01*
X043261Y009850D01*
X043511Y009350D01*
X043761Y009350D01*
X043511Y009350D02*
X043511Y010350D01*
X043511Y009350D02*
X043261Y009350D01*
X040901Y010430D02*
X040901Y010770D01*
X040620Y010770D02*
X040620Y010430D01*
X041775Y012630D02*
X042202Y012630D01*
X042111Y012630D02*
X042218Y012737D01*
X042218Y012950D01*
X042004Y012950D01*
X041989Y012950D02*
X041775Y012950D01*
X041791Y012737D02*
X041791Y013164D01*
X041897Y013271D01*
X042111Y013271D01*
X042218Y013164D01*
X042202Y013271D02*
X041775Y013271D01*
X041775Y012630D01*
X041791Y012737D02*
X041897Y012630D01*
X042111Y012630D01*
X045658Y012737D02*
X045765Y012630D01*
X045978Y012630D01*
X046085Y012737D01*
X046085Y013164D02*
X045978Y013271D01*
X045765Y013271D01*
X045658Y013164D01*
X045658Y012737D01*
X049525Y012630D02*
X049952Y012630D01*
X049739Y012950D02*
X049525Y012950D01*
X049525Y012630D02*
X049525Y013271D01*
X049952Y013271D01*
X046218Y005023D02*
X045791Y005023D01*
X045080Y004021D02*
X044759Y004021D01*
X044759Y003380D01*
X044759Y003594D02*
X045080Y003594D01*
X045186Y003700D01*
X045186Y003914D01*
X045080Y004021D01*
X044543Y004021D02*
X044330Y004021D01*
X044436Y004021D02*
X044436Y003380D01*
X044330Y003380D02*
X044543Y003380D01*
X044112Y003380D02*
X044112Y004021D01*
X044112Y003700D02*
X043685Y003700D01*
X043468Y003487D02*
X043361Y003380D01*
X043147Y003380D01*
X043041Y003487D01*
X043041Y003914D01*
X043147Y004021D01*
X043361Y004021D01*
X043468Y003914D01*
X043685Y004021D02*
X043685Y003380D01*
X042504Y004737D02*
X042504Y005164D01*
X042291Y004950D02*
X042718Y004950D01*
X038228Y012630D02*
X038335Y012737D01*
X038228Y012630D02*
X038015Y012630D01*
X037908Y012737D01*
X037908Y013164D01*
X038015Y013271D01*
X038228Y013271D01*
X038335Y013164D01*
X038340Y025130D02*
X038767Y025130D01*
X038981Y025344D01*
X038767Y025557D01*
X038340Y025557D01*
X038340Y025775D02*
X038554Y025988D01*
X038340Y026202D01*
X038981Y026202D01*
X038981Y026419D02*
X038554Y026419D01*
X038340Y026633D01*
X038554Y026846D01*
X038981Y026846D01*
X038981Y027064D02*
X038340Y027491D01*
X038554Y027708D02*
X038660Y027708D01*
X038660Y027815D01*
X038554Y027815D01*
X038554Y027708D01*
X038874Y027708D02*
X038981Y027708D01*
X038981Y027815D01*
X038874Y027815D01*
X038874Y027708D01*
X038981Y027491D02*
X038340Y027064D01*
X038660Y026846D02*
X038660Y026419D01*
X037837Y027064D02*
X037837Y027491D01*
X037731Y027708D02*
X037090Y027708D01*
X037090Y028028D01*
X037197Y028135D01*
X037410Y028135D01*
X037517Y028028D01*
X037517Y027708D01*
X037517Y027922D02*
X037731Y028135D01*
X037731Y028353D02*
X037304Y028353D01*
X037090Y028566D01*
X037304Y028780D01*
X037731Y028780D01*
X037410Y028780D02*
X037410Y028353D01*
X037090Y028997D02*
X037090Y029424D01*
X037090Y029211D02*
X037731Y029211D01*
X037731Y029642D02*
X037090Y029642D01*
X037090Y030069D01*
X037304Y030286D02*
X037410Y030286D01*
X037410Y030393D01*
X037304Y030393D01*
X037304Y030286D01*
X037624Y030286D02*
X037731Y030286D01*
X037731Y030393D01*
X037624Y030393D01*
X037624Y030286D01*
X037731Y030069D02*
X037731Y029642D01*
X037410Y029642D02*
X037410Y029855D01*
X037304Y030609D02*
X037197Y030609D01*
X037090Y030715D01*
X037090Y030929D01*
X037197Y031036D01*
X037624Y031036D01*
X037731Y030929D01*
X037731Y030715D01*
X037624Y030609D01*
X037410Y030715D02*
X037410Y031036D01*
X037410Y031253D02*
X037410Y031680D01*
X037304Y031680D02*
X037731Y031680D01*
X037731Y031253D02*
X037304Y031253D01*
X037090Y031467D01*
X037304Y031680D01*
X037410Y030715D02*
X037304Y030609D01*
X038340Y030609D02*
X038767Y030609D01*
X038981Y030822D01*
X038767Y031036D01*
X038340Y031036D01*
X038447Y030391D02*
X038874Y029964D01*
X038981Y030071D01*
X038981Y030284D01*
X038874Y030391D01*
X038447Y030391D01*
X038340Y030284D01*
X038340Y030071D01*
X038447Y029964D01*
X038874Y029964D01*
X038874Y029747D02*
X038981Y029640D01*
X038981Y029426D01*
X038874Y029320D01*
X038660Y029320D02*
X038554Y029533D01*
X038554Y029640D01*
X038660Y029747D01*
X038874Y029747D01*
X038660Y029320D02*
X038340Y029320D01*
X038340Y029747D01*
X038447Y029102D02*
X038340Y028995D01*
X038340Y028782D01*
X038447Y028675D01*
X038660Y028458D02*
X038660Y028030D01*
X038447Y028244D02*
X038874Y028244D01*
X038981Y028675D02*
X038554Y029102D01*
X038447Y029102D01*
X038981Y029102D02*
X038981Y028675D01*
X040590Y028135D02*
X040590Y027922D01*
X040590Y028028D02*
X041124Y028028D01*
X041231Y027922D01*
X041231Y027815D01*
X041124Y027708D01*
X041124Y027491D02*
X040910Y027491D01*
X040804Y027384D01*
X040804Y027170D01*
X040910Y027064D01*
X041124Y027064D01*
X041231Y027170D01*
X041231Y027384D01*
X041124Y027491D01*
X041124Y026846D02*
X040910Y026846D01*
X040804Y026739D01*
X040804Y026419D01*
X040590Y026419D02*
X041231Y026419D01*
X041231Y026739D01*
X041124Y026846D01*
X041590Y026849D02*
X042231Y026849D01*
X042017Y026849D02*
X041804Y027169D01*
X041910Y027386D02*
X041804Y027493D01*
X041804Y027706D01*
X041910Y027813D01*
X042017Y027813D01*
X042017Y027386D01*
X042124Y027386D02*
X041910Y027386D01*
X042124Y027386D02*
X042231Y027493D01*
X042231Y027706D01*
X042231Y028030D02*
X041804Y028030D01*
X042017Y028030D02*
X041804Y028244D01*
X041804Y028351D01*
X041231Y028460D02*
X041124Y028353D01*
X041017Y028460D01*
X041017Y028780D01*
X040910Y028780D02*
X041231Y028780D01*
X041231Y028460D01*
X040804Y028460D02*
X040804Y028673D01*
X040910Y028780D01*
X040910Y028997D02*
X041124Y028997D01*
X041231Y029104D01*
X041231Y029424D01*
X041231Y029642D02*
X040590Y029642D01*
X040804Y029424D02*
X040804Y029104D01*
X040910Y028997D01*
X041017Y029642D02*
X040804Y029962D01*
X040910Y030179D02*
X040804Y030286D01*
X040804Y030499D01*
X040910Y030606D01*
X041017Y030606D01*
X041017Y030179D01*
X041124Y030179D02*
X040910Y030179D01*
X041124Y030179D02*
X041231Y030286D01*
X041231Y030499D01*
X041590Y030608D02*
X041590Y030822D01*
X041697Y030928D01*
X042124Y030501D01*
X042231Y030608D01*
X042231Y030822D01*
X042124Y030928D01*
X041697Y030928D01*
X041697Y031146D02*
X041804Y031146D01*
X041910Y031253D01*
X041910Y031466D01*
X042017Y031573D01*
X042124Y031573D01*
X042231Y031466D01*
X042231Y031253D01*
X042124Y031146D01*
X042017Y031146D01*
X041910Y031253D01*
X041910Y031466D02*
X041804Y031573D01*
X041697Y031573D01*
X041590Y031466D01*
X041590Y031253D01*
X041697Y031146D01*
X041231Y031253D02*
X041231Y031573D01*
X041124Y031680D01*
X041017Y031573D01*
X041017Y031360D01*
X040910Y031253D01*
X040804Y031360D01*
X040804Y031680D01*
X040804Y031037D02*
X040804Y030824D01*
X040697Y030930D02*
X041124Y030930D01*
X041231Y031037D01*
X041590Y030608D02*
X041697Y030501D01*
X042124Y030501D01*
X042124Y030284D02*
X041697Y030284D01*
X042124Y029857D01*
X042231Y029963D01*
X042231Y030177D01*
X042124Y030284D01*
X041697Y030284D02*
X041590Y030177D01*
X041590Y029963D01*
X041697Y029857D01*
X042124Y029857D01*
X042231Y029639D02*
X042231Y029212D01*
X041804Y029639D01*
X041697Y029639D01*
X041590Y029532D01*
X041590Y029319D01*
X041697Y029212D01*
X041017Y029642D02*
X041231Y029962D01*
X041804Y032435D02*
X042231Y032435D01*
X042017Y032435D02*
X041804Y032648D01*
X041804Y032755D01*
X041910Y032972D02*
X041804Y033079D01*
X041804Y033292D01*
X041910Y033399D01*
X042017Y033399D01*
X042017Y032972D01*
X042124Y032972D02*
X041910Y032972D01*
X042124Y032972D02*
X042231Y033079D01*
X042231Y033292D01*
X041804Y033617D02*
X042231Y033830D01*
X041804Y034044D01*
X041231Y034152D02*
X041124Y034258D01*
X040910Y034258D01*
X040804Y034152D01*
X040804Y033831D01*
X040590Y033831D02*
X041231Y033831D01*
X041231Y034152D01*
X041124Y034476D02*
X041231Y034583D01*
X041231Y034796D01*
X041124Y034903D01*
X040910Y034903D01*
X040804Y034796D01*
X040804Y034583D01*
X040910Y034476D01*
X041124Y034476D01*
X041590Y035012D02*
X041697Y034906D01*
X042124Y034906D01*
X042231Y035012D01*
X042231Y035226D01*
X042124Y035333D01*
X041697Y035333D02*
X041590Y035226D01*
X041590Y035012D01*
X041231Y035227D02*
X041231Y035441D01*
X041124Y035548D01*
X041124Y035765D02*
X041231Y035872D01*
X041231Y036192D01*
X040804Y036192D01*
X040804Y036410D02*
X040804Y036730D01*
X040910Y036837D01*
X041124Y036837D01*
X041231Y036730D01*
X041231Y036410D01*
X041444Y036410D02*
X040804Y036410D01*
X040804Y035765D02*
X041124Y035765D01*
X040697Y035548D02*
X040590Y035441D01*
X040590Y035227D01*
X040697Y035121D01*
X041124Y035121D01*
X041231Y035227D01*
X041124Y033614D02*
X040910Y033614D01*
X040804Y033507D01*
X040804Y033294D01*
X040910Y033187D01*
X041124Y033187D01*
X041231Y033294D01*
X041231Y033507D01*
X041124Y033614D01*
X041231Y032969D02*
X041017Y032756D01*
X041017Y032863D02*
X041017Y032542D01*
X041231Y032542D02*
X040590Y032542D01*
X040590Y032863D01*
X040697Y032969D01*
X040910Y032969D01*
X041017Y032863D01*
X038481Y035630D02*
X037840Y035630D01*
X037840Y036057D01*
X037840Y036275D02*
X037840Y036595D01*
X037947Y036702D01*
X038160Y036702D01*
X038267Y036595D01*
X038267Y036275D01*
X038267Y036488D02*
X038481Y036702D01*
X038374Y036919D02*
X038481Y037026D01*
X038481Y037239D01*
X038374Y037346D01*
X037947Y037346D01*
X037840Y037239D01*
X037840Y037026D01*
X037947Y036919D01*
X038374Y036919D01*
X038481Y036275D02*
X037840Y036275D01*
X038160Y035844D02*
X038160Y035630D01*
X037840Y037564D02*
X038481Y037991D01*
X037840Y037991D01*
X037840Y038208D02*
X037840Y038635D01*
X037840Y038422D02*
X038481Y038422D01*
X038481Y037564D02*
X037840Y037564D01*
X040590Y037805D02*
X040697Y037699D01*
X040804Y037699D01*
X040910Y037805D01*
X040910Y038019D01*
X041017Y038126D01*
X041124Y038126D01*
X041231Y038019D01*
X041231Y037805D01*
X041124Y037699D01*
X040590Y037805D02*
X040590Y038019D01*
X040697Y038126D01*
X040697Y038343D02*
X040804Y038343D01*
X040910Y038450D01*
X040910Y038664D01*
X041017Y038770D01*
X041124Y038770D01*
X041231Y038664D01*
X041231Y038450D01*
X041124Y038343D01*
X040697Y038343D02*
X040590Y038450D01*
X040590Y038664D01*
X040697Y038770D01*
X040590Y038988D02*
X041231Y038988D01*
X041231Y039415D01*
X048340Y038733D02*
X048340Y038306D01*
X048981Y038306D01*
X048981Y038733D01*
X048660Y038520D02*
X048660Y038306D01*
X048660Y038089D02*
X048660Y037875D01*
X048660Y038089D02*
X048874Y038089D01*
X048981Y037982D01*
X048981Y037768D01*
X048874Y037662D01*
X048447Y037662D01*
X048340Y037768D01*
X048340Y037982D01*
X048447Y038089D01*
X048554Y037444D02*
X048340Y037231D01*
X048554Y037017D01*
X048981Y037017D01*
X048660Y037017D02*
X048660Y037444D01*
X048554Y037444D02*
X048981Y037444D01*
X048981Y036586D02*
X048340Y036586D01*
X048340Y036372D02*
X048340Y036800D01*
X048981Y036155D02*
X048981Y035728D01*
X048340Y035728D01*
X048447Y035510D02*
X048340Y035404D01*
X048340Y035190D01*
X048447Y035083D01*
X048874Y035083D01*
X048981Y035190D01*
X048981Y035404D01*
X048874Y035510D01*
X048447Y035510D01*
X048340Y034866D02*
X048767Y034866D01*
X048981Y034652D01*
X048767Y034439D01*
X048340Y034439D01*
X048340Y033577D02*
X048981Y033577D01*
X048660Y033577D02*
X048660Y033150D01*
X048660Y032932D02*
X048660Y032719D01*
X048660Y032932D02*
X048874Y032932D01*
X048981Y032825D01*
X048981Y032612D01*
X048874Y032505D01*
X048447Y032505D01*
X048340Y032612D01*
X048340Y032825D01*
X048447Y032932D01*
X048340Y033150D02*
X048981Y033150D01*
X048981Y032289D02*
X048981Y032075D01*
X048981Y032182D02*
X048340Y032182D01*
X048340Y032075D02*
X048340Y032289D01*
X048340Y031858D02*
X048981Y031858D01*
X048660Y031858D02*
X048660Y031431D01*
X048340Y031431D02*
X048981Y031431D01*
X048660Y030569D02*
X048660Y030142D01*
X048660Y029280D02*
X048767Y029173D01*
X048767Y028853D01*
X048767Y029066D02*
X048981Y029280D01*
X048660Y029280D02*
X048447Y029280D01*
X048340Y029173D01*
X048340Y028853D01*
X048981Y028853D01*
X048981Y028635D02*
X048981Y028208D01*
X048340Y028208D01*
X048340Y028635D01*
X048660Y028422D02*
X048660Y028208D01*
X048660Y027991D02*
X048660Y027777D01*
X048660Y027991D02*
X048874Y027991D01*
X048981Y027884D01*
X048981Y027670D01*
X048874Y027564D01*
X048447Y027564D01*
X048340Y027670D01*
X048340Y027884D01*
X048447Y027991D01*
X048340Y027346D02*
X048981Y027346D01*
X048340Y026919D01*
X048981Y026919D01*
X048981Y026702D02*
X048554Y026702D01*
X048340Y026488D01*
X048554Y026275D01*
X048981Y026275D01*
X048874Y026057D02*
X048447Y026057D01*
X048340Y025950D01*
X048340Y025630D01*
X048981Y025630D01*
X048981Y025950D01*
X048874Y026057D01*
X048660Y026275D02*
X048660Y026702D01*
X042231Y026631D02*
X042231Y026311D01*
X042124Y026204D01*
X041910Y026204D01*
X041804Y026311D01*
X041804Y026631D01*
X042017Y026849D02*
X042231Y027169D01*
X042231Y025988D02*
X042231Y025775D01*
X042231Y025881D02*
X041804Y025881D01*
X041804Y025775D01*
X041590Y025881D02*
X041483Y025881D01*
X041231Y025881D02*
X041231Y026095D01*
X041124Y026202D01*
X040910Y026202D01*
X040804Y026095D01*
X040804Y025881D01*
X040910Y025775D01*
X041124Y025775D01*
X041231Y025881D01*
X041231Y025557D02*
X041017Y025344D01*
X041017Y025450D02*
X041017Y025130D01*
X041231Y025130D02*
X040590Y025130D01*
X040590Y025450D01*
X040697Y025557D01*
X040910Y025557D01*
X041017Y025450D01*
X041590Y025557D02*
X042017Y025130D01*
X041910Y025237D02*
X042231Y025557D01*
X042231Y025130D02*
X041590Y025130D01*
X038981Y025775D02*
X038340Y025775D01*
X037731Y025775D02*
X037090Y025775D01*
X037197Y025557D02*
X037090Y025450D01*
X037090Y025237D01*
X037197Y025130D01*
X037624Y025130D01*
X037731Y025237D01*
X037731Y025450D01*
X037624Y025557D01*
X037410Y025775D02*
X037410Y026202D01*
X037197Y026419D02*
X037624Y026419D01*
X037731Y026526D01*
X037731Y026739D01*
X037624Y026846D01*
X037410Y026846D01*
X037410Y026633D01*
X037197Y026846D02*
X037090Y026739D01*
X037090Y026526D01*
X037197Y026419D01*
X037090Y026202D02*
X037731Y026202D01*
D11*
X045136Y032475D03*
D12*
X035261Y025100D02*
X003261Y025100D01*
X003261Y040850D01*
X035261Y040850D02*
X035261Y025100D01*
D13*
X038761Y035600D02*
X038761Y040600D01*
X039761Y039100D01*
X037761Y039100D01*
X038761Y040600D01*
D14*
X040607Y023830D02*
X040761Y023830D01*
X040838Y023754D01*
X040838Y023447D01*
X040761Y023370D01*
X040607Y023370D01*
X040531Y023447D01*
X040531Y023754D01*
X040607Y023830D01*
X040684Y023523D02*
X040838Y023370D01*
X040991Y023370D02*
X040991Y023447D01*
X041298Y023754D01*
X041298Y023830D01*
X040991Y023830D01*
X033548Y023830D02*
X033394Y023754D01*
X033241Y023600D01*
X033471Y023600D01*
X033548Y023523D01*
X033548Y023447D01*
X033471Y023370D01*
X033318Y023370D01*
X033241Y023447D01*
X033241Y023600D01*
X033088Y023447D02*
X033011Y023370D01*
X032857Y023370D01*
X032781Y023447D01*
X032781Y023754D01*
X032857Y023830D01*
X033011Y023830D01*
X033088Y023754D01*
X033088Y023447D01*
X033088Y023370D02*
X032934Y023523D01*
X032510Y011137D02*
X032510Y010830D01*
X032280Y011061D01*
X032741Y011061D01*
X032741Y010677D02*
X032587Y010523D01*
X032587Y010600D02*
X032587Y010370D01*
X032741Y010370D02*
X032280Y010370D01*
X032280Y010600D01*
X032357Y010677D01*
X032510Y010677D01*
X032587Y010600D01*
X036934Y006080D02*
X037088Y006080D01*
X037011Y006080D02*
X037011Y005697D01*
X036934Y005620D01*
X036857Y005620D01*
X036781Y005697D01*
X037241Y005620D02*
X037548Y005927D01*
X037548Y006004D01*
X037471Y006080D01*
X037318Y006080D01*
X037241Y006004D01*
X037241Y005620D02*
X037548Y005620D01*
X040030Y010370D02*
X040030Y010600D01*
X040107Y010677D01*
X040260Y010677D01*
X040337Y010600D01*
X040337Y010370D01*
X040337Y010523D02*
X040491Y010677D01*
X040414Y010830D02*
X040260Y010830D01*
X040260Y011061D01*
X040337Y011137D01*
X040414Y011137D01*
X040491Y011061D01*
X040491Y010907D01*
X040414Y010830D01*
X040260Y010830D02*
X040107Y010984D01*
X040030Y011137D01*
X040030Y010370D02*
X040491Y010370D01*
X044684Y006080D02*
X044838Y006080D01*
X044761Y006080D02*
X044761Y005697D01*
X044684Y005620D01*
X044607Y005620D01*
X044531Y005697D01*
X044991Y005697D02*
X045068Y005620D01*
X045221Y005620D01*
X045298Y005697D01*
X045298Y005773D01*
X045221Y005850D01*
X045144Y005850D01*
X045221Y005850D02*
X045298Y005927D01*
X045298Y006004D01*
X045221Y006080D01*
X045068Y006080D01*
X044991Y006004D01*
X021758Y002004D02*
X021451Y001697D01*
X021528Y001620D01*
X021682Y001620D01*
X021758Y001697D01*
X021758Y002004D01*
X021682Y002080D01*
X021528Y002080D01*
X021451Y002004D01*
X021451Y001697D01*
X021298Y001620D02*
X020991Y001620D01*
X021144Y001620D02*
X021144Y002080D01*
X020991Y001927D01*
X020838Y002004D02*
X020761Y002080D01*
X020531Y002080D01*
X020531Y001620D01*
X020761Y001620D01*
X020838Y001697D01*
X020838Y002004D01*
X020873Y001507D02*
X021158Y001507D01*
X021326Y001469D02*
X021305Y001465D01*
X021286Y001458D01*
X021268Y001448D01*
X021252Y001434D01*
X021239Y001418D01*
X021228Y001400D01*
X021221Y001381D01*
X021217Y001360D01*
X021217Y001340D01*
X021221Y001319D01*
X021228Y001300D01*
X021239Y001282D01*
X021252Y001266D01*
X021268Y001252D01*
X021286Y001242D01*
X021305Y001235D01*
X021326Y001231D01*
X021148Y001193D02*
X020873Y001193D01*
X014800Y008023D02*
X014570Y008023D01*
X014570Y007870D02*
X014570Y008330D01*
X014800Y008330D01*
X014877Y008254D01*
X014877Y008100D01*
X014800Y008023D01*
X014417Y007870D02*
X014417Y008330D01*
X014110Y008330D02*
X014417Y007870D01*
X014110Y007870D02*
X014110Y008330D01*
X013981Y008920D02*
X013981Y009380D01*
X014211Y009380D01*
X014288Y009304D01*
X014288Y009150D01*
X014211Y009073D01*
X013981Y009073D01*
X014134Y009073D02*
X014288Y008920D01*
X014441Y008920D02*
X014748Y008920D01*
X014594Y008920D02*
X014594Y009380D01*
X014441Y009227D01*
X014901Y009227D02*
X014978Y009150D01*
X015208Y009150D01*
X015208Y008997D02*
X015208Y009304D01*
X015132Y009380D01*
X014978Y009380D01*
X014901Y009304D01*
X014901Y009227D01*
X014901Y008997D02*
X014978Y008920D01*
X015132Y008920D01*
X015208Y008997D01*
X010768Y007842D02*
X009154Y007842D01*
X009215Y007991D02*
X008306Y007991D01*
X008150Y008019D02*
X008583Y007941D01*
X008938Y007941D01*
X009371Y008019D01*
X009843Y008256D01*
X010178Y008551D01*
X007363Y008551D01*
X007343Y008551D01*
X007678Y008256D01*
X008150Y008019D01*
X008130Y008030D02*
X009391Y008030D01*
X009468Y008068D02*
X008053Y008068D01*
X007976Y008107D02*
X009545Y008107D01*
X009622Y008145D02*
X007899Y008145D01*
X007822Y008184D02*
X009699Y008184D01*
X009776Y008222D02*
X007745Y008222D01*
X007672Y008261D02*
X009849Y008261D01*
X009893Y008299D02*
X007629Y008299D01*
X007585Y008338D02*
X009936Y008338D01*
X009980Y008376D02*
X007541Y008376D01*
X007498Y008415D02*
X010024Y008415D01*
X010067Y008453D02*
X007454Y008453D01*
X007410Y008492D02*
X010111Y008492D01*
X010154Y008530D02*
X007367Y008530D01*
X007304Y008570D02*
X010198Y008570D01*
X010768Y007842D02*
X010768Y010952D01*
X009863Y011858D01*
X009154Y011858D01*
X009863Y011858D02*
X010768Y010952D01*
X010768Y007842D01*
X006753Y007842D01*
X006753Y010952D01*
X007658Y011858D01*
X008367Y011858D01*
X007658Y011858D02*
X009863Y011858D01*
X007658Y011858D02*
X006753Y010952D01*
X006753Y007842D01*
X008367Y007842D01*
X008517Y007953D02*
X009004Y007953D01*
X009144Y007080D02*
X009144Y006620D01*
X008991Y006620D02*
X009298Y006620D01*
X008991Y006927D02*
X009144Y007080D01*
X008838Y007080D02*
X008684Y007080D01*
X008761Y007080D02*
X008761Y006697D01*
X008684Y006620D01*
X008607Y006620D01*
X008531Y006697D01*
X006812Y009850D02*
X006814Y009946D01*
X006821Y010041D01*
X006833Y010136D01*
X006849Y010230D01*
X006870Y010324D01*
X006896Y010416D01*
X006926Y010507D01*
X006960Y010596D01*
X006999Y010683D01*
X007042Y010769D01*
X007089Y010852D01*
X007140Y010933D01*
X007196Y011011D01*
X007254Y011086D01*
X007317Y011159D01*
X007383Y011228D01*
X007452Y011294D01*
X007525Y011357D01*
X007600Y011415D01*
X007678Y011471D01*
X007759Y011522D01*
X007842Y011569D01*
X007928Y011612D01*
X008015Y011651D01*
X008104Y011685D01*
X008195Y011715D01*
X008287Y011741D01*
X008381Y011762D01*
X008475Y011778D01*
X008570Y011790D01*
X008665Y011797D01*
X008761Y011799D01*
X008857Y011797D01*
X008952Y011790D01*
X009047Y011778D01*
X009141Y011762D01*
X009235Y011741D01*
X009327Y011715D01*
X009418Y011685D01*
X009507Y011651D01*
X009594Y011612D01*
X009680Y011569D01*
X009763Y011522D01*
X009844Y011471D01*
X009922Y011415D01*
X009997Y011357D01*
X010070Y011294D01*
X010139Y011228D01*
X010205Y011159D01*
X010268Y011086D01*
X010326Y011011D01*
X010382Y010933D01*
X010433Y010852D01*
X010480Y010769D01*
X010523Y010683D01*
X010562Y010596D01*
X010596Y010507D01*
X010626Y010416D01*
X010652Y010324D01*
X010673Y010230D01*
X010689Y010136D01*
X010701Y010041D01*
X010708Y009946D01*
X010710Y009850D01*
X010708Y009754D01*
X010701Y009659D01*
X010689Y009564D01*
X010673Y009470D01*
X010652Y009376D01*
X010626Y009284D01*
X010596Y009193D01*
X010562Y009104D01*
X010523Y009017D01*
X010480Y008931D01*
X010433Y008848D01*
X010382Y008767D01*
X010326Y008689D01*
X010268Y008614D01*
X010205Y008541D01*
X010139Y008472D01*
X010070Y008406D01*
X009997Y008343D01*
X009922Y008285D01*
X009844Y008229D01*
X009763Y008178D01*
X009680Y008131D01*
X009594Y008088D01*
X009507Y008049D01*
X009418Y008015D01*
X009327Y007985D01*
X009235Y007959D01*
X009141Y007938D01*
X009047Y007922D01*
X008952Y007910D01*
X008857Y007903D01*
X008761Y007901D01*
X008665Y007903D01*
X008570Y007910D01*
X008475Y007922D01*
X008381Y007938D01*
X008287Y007959D01*
X008195Y007985D01*
X008104Y008015D01*
X008015Y008049D01*
X007928Y008088D01*
X007842Y008131D01*
X007759Y008178D01*
X007678Y008229D01*
X007600Y008285D01*
X007525Y008343D01*
X007452Y008406D01*
X007383Y008472D01*
X007317Y008541D01*
X007254Y008614D01*
X007196Y008689D01*
X007140Y008767D01*
X007089Y008848D01*
X007042Y008931D01*
X006999Y009017D01*
X006960Y009104D01*
X006926Y009193D01*
X006896Y009284D01*
X006870Y009376D01*
X006849Y009470D01*
X006833Y009564D01*
X006821Y009659D01*
X006814Y009754D01*
X006812Y009850D01*
X009155Y007940D02*
X009248Y007962D01*
X009339Y007988D01*
X009429Y008018D01*
X009518Y008053D01*
X009605Y008092D01*
X009690Y008135D01*
X009772Y008183D01*
X009852Y008234D01*
X009930Y008289D01*
X010005Y008348D01*
X010077Y008411D01*
X010145Y008477D01*
X010211Y008546D01*
X010273Y008618D01*
X010331Y008693D01*
X010386Y008771D01*
X010436Y008852D01*
X010483Y008935D01*
X010526Y009020D01*
X010564Y009107D01*
X010598Y009196D01*
X010628Y009287D01*
X010653Y009379D01*
X010674Y009471D01*
X010690Y009565D01*
X010702Y009660D01*
X010709Y009755D01*
X010711Y009850D01*
X010709Y009945D01*
X010702Y010040D01*
X010690Y010135D01*
X010674Y010229D01*
X010653Y010321D01*
X010628Y010413D01*
X010598Y010504D01*
X010564Y010593D01*
X010526Y010680D01*
X010483Y010765D01*
X010436Y010848D01*
X010386Y010929D01*
X010331Y011007D01*
X010273Y011082D01*
X010211Y011154D01*
X010145Y011223D01*
X010077Y011289D01*
X010005Y011352D01*
X009930Y011411D01*
X009852Y011466D01*
X009772Y011517D01*
X009690Y011565D01*
X009605Y011608D01*
X009518Y011647D01*
X009429Y011682D01*
X009339Y011712D01*
X009248Y011738D01*
X009155Y011760D01*
X008367Y011760D02*
X008274Y011738D01*
X008183Y011712D01*
X008093Y011682D01*
X008004Y011647D01*
X007917Y011608D01*
X007832Y011565D01*
X007750Y011517D01*
X007670Y011466D01*
X007592Y011411D01*
X007517Y011352D01*
X007445Y011289D01*
X007377Y011223D01*
X007311Y011154D01*
X007249Y011082D01*
X007191Y011007D01*
X007136Y010929D01*
X007086Y010848D01*
X007039Y010765D01*
X006996Y010680D01*
X006958Y010593D01*
X006924Y010504D01*
X006894Y010413D01*
X006869Y010321D01*
X006848Y010229D01*
X006832Y010135D01*
X006820Y010040D01*
X006813Y009945D01*
X006811Y009850D01*
X006813Y009755D01*
X006820Y009660D01*
X006832Y009565D01*
X006848Y009471D01*
X006869Y009379D01*
X006894Y009287D01*
X006924Y009196D01*
X006958Y009107D01*
X006996Y009020D01*
X007039Y008935D01*
X007086Y008852D01*
X007136Y008771D01*
X007191Y008693D01*
X007249Y008618D01*
X007311Y008546D01*
X007377Y008477D01*
X007445Y008411D01*
X007517Y008348D01*
X007592Y008289D01*
X007670Y008234D01*
X007750Y008183D01*
X007832Y008135D01*
X007917Y008092D01*
X008004Y008053D01*
X008093Y008018D01*
X008183Y007988D01*
X008274Y007962D01*
X008367Y007940D01*
X002808Y010439D02*
X002501Y010439D01*
X002655Y010439D02*
X002655Y010899D01*
X002501Y010746D01*
X002348Y010899D02*
X002041Y010899D01*
X002041Y010439D01*
X002041Y010669D02*
X002194Y010669D01*
X001394Y009917D02*
X001087Y009917D01*
X000934Y009763D01*
X001087Y009610D01*
X001394Y009610D01*
X001317Y009456D02*
X001394Y009379D01*
X001394Y009226D01*
X001317Y009149D01*
X001010Y009456D01*
X001317Y009456D01*
X001164Y009610D02*
X001164Y009917D01*
X001010Y009456D02*
X000934Y009379D01*
X000934Y009226D01*
X001010Y009149D01*
X001317Y009149D01*
X001394Y008996D02*
X001394Y008689D01*
X001394Y008842D02*
X000934Y008842D01*
X001087Y008689D01*
X005024Y021320D02*
X005024Y021780D01*
X004871Y021780D02*
X005178Y021780D01*
X005331Y021627D02*
X005484Y021780D01*
X005484Y021320D01*
X005331Y021320D02*
X005638Y021320D01*
X008121Y021330D02*
X008351Y021330D01*
X008428Y021407D01*
X008428Y021714D01*
X008351Y021790D01*
X008121Y021790D01*
X008121Y021330D01*
X008581Y021330D02*
X008581Y021637D01*
X008734Y021790D01*
X008888Y021637D01*
X008888Y021330D01*
X009041Y021330D02*
X009348Y021637D01*
X009348Y021714D01*
X009272Y021790D01*
X009118Y021790D01*
X009041Y021714D01*
X008888Y021560D02*
X008581Y021560D01*
X009041Y021330D02*
X009348Y021330D01*
X009502Y021407D02*
X009809Y021714D01*
X009809Y021407D01*
X009732Y021330D01*
X009579Y021330D01*
X009502Y021407D01*
X009502Y021714D01*
X009579Y021790D01*
X009732Y021790D01*
X009809Y021714D01*
X009962Y021714D02*
X010039Y021790D01*
X010192Y021790D01*
X010269Y021714D01*
X010269Y021637D01*
X010192Y021560D01*
X010269Y021483D01*
X010269Y021407D01*
X010192Y021330D01*
X010039Y021330D01*
X009962Y021407D01*
X010116Y021560D02*
X010192Y021560D01*
X010423Y021560D02*
X010729Y021560D01*
X010653Y021330D02*
X010653Y021790D01*
X010423Y021560D01*
D15*
X002746Y013485D02*
X002746Y013238D01*
X002622Y013115D01*
X002499Y013238D01*
X002499Y013485D01*
X002377Y013424D02*
X002131Y013177D01*
X002192Y013115D01*
X002316Y013115D01*
X002377Y013177D01*
X002377Y013424D01*
X002316Y013485D01*
X002192Y013485D01*
X002131Y013424D01*
X002131Y013177D01*
X002009Y013177D02*
X002009Y013300D01*
X001947Y013362D01*
X001886Y013362D01*
X001762Y013300D01*
X001762Y013485D01*
X002009Y013485D01*
X002009Y013177D02*
X001947Y013115D01*
X001824Y013115D01*
X001762Y013177D01*
X001641Y013115D02*
X001394Y013115D01*
X001641Y013362D01*
X001641Y013424D01*
X001579Y013485D01*
X001456Y013485D01*
X001394Y013424D01*
X001272Y013300D02*
X001026Y013300D01*
X001149Y013177D02*
X001149Y013424D01*
X010936Y008353D02*
X011060Y008229D01*
X010998Y008108D02*
X010936Y008046D01*
X010936Y007923D01*
X010998Y007861D01*
X011245Y007861D01*
X011307Y007923D01*
X011307Y008046D01*
X011245Y008108D01*
X011307Y008229D02*
X011307Y008476D01*
X011307Y008353D02*
X010936Y008353D01*
D16*
X009835Y005850D02*
X009835Y004275D01*
X009835Y003015D01*
X006686Y003015D01*
X006686Y004275D01*
X009835Y004275D01*
X006686Y004275D02*
X006686Y005850D01*
X003455Y006946D02*
X001566Y006946D01*
X001566Y010254D01*
X003455Y010254D01*
X003455Y006946D01*
X003626Y013050D02*
X003626Y021150D01*
X011896Y021150D01*
X011896Y013050D01*
X003626Y013050D01*
X011149Y013600D02*
X011151Y013629D01*
X011157Y013657D01*
X011167Y013684D01*
X011180Y013710D01*
X011197Y013734D01*
X011216Y013755D01*
X011239Y013773D01*
X011263Y013788D01*
X011290Y013800D01*
X011318Y013808D01*
X011347Y013812D01*
X011375Y013812D01*
X011404Y013808D01*
X011432Y013800D01*
X011459Y013788D01*
X011483Y013773D01*
X011506Y013755D01*
X011525Y013734D01*
X011542Y013710D01*
X011555Y013684D01*
X011565Y013657D01*
X011571Y013629D01*
X011573Y013600D01*
X011571Y013571D01*
X011565Y013543D01*
X011555Y013516D01*
X011542Y013490D01*
X011525Y013466D01*
X011506Y013445D01*
X011483Y013427D01*
X011459Y013412D01*
X011432Y013400D01*
X011404Y013392D01*
X011375Y013388D01*
X011347Y013388D01*
X011318Y013392D01*
X011290Y013400D01*
X011263Y013412D01*
X011239Y013427D01*
X011216Y013445D01*
X011197Y013466D01*
X011180Y013490D01*
X011167Y013516D01*
X011157Y013543D01*
X011151Y013571D01*
X011149Y013600D01*
X032586Y015850D02*
X032586Y024250D01*
X038936Y024250D01*
X038936Y015850D01*
X032586Y015850D01*
X040336Y015850D02*
X040336Y024250D01*
X046686Y024250D01*
X046686Y015850D01*
X040336Y015850D01*
X038085Y004850D02*
X038085Y003275D01*
X038085Y002015D01*
X034936Y002015D01*
X034936Y003275D01*
X038085Y003275D01*
X034936Y003275D02*
X034936Y004850D01*
X042686Y004850D02*
X042686Y003275D01*
X042686Y002015D01*
X045835Y002015D01*
X045835Y003275D01*
X045835Y004850D01*
X045835Y003275D02*
X042686Y003275D01*
D17*
X043511Y006350D02*
X043511Y006900D01*
X043511Y011800D02*
X043511Y012350D01*
X035761Y012350D02*
X035761Y011800D01*
X035761Y006900D02*
X035761Y006350D01*
D18*
X033816Y007545D02*
X033816Y007860D01*
X033711Y007965D01*
X033290Y007965D01*
X033185Y007860D01*
X033185Y007545D01*
X033816Y007545D01*
X033711Y008190D02*
X033816Y008295D01*
X033816Y008505D01*
X033711Y008610D01*
X033605Y008610D01*
X033500Y008505D01*
X033500Y008400D01*
X033500Y008505D02*
X033395Y008610D01*
X033290Y008610D01*
X033185Y008505D01*
X033185Y008295D01*
X033290Y008190D01*
X040935Y008295D02*
X041040Y008190D01*
X040935Y008295D02*
X040935Y008505D01*
X041040Y008610D01*
X041145Y008610D01*
X041566Y008190D01*
X041566Y008610D01*
X041461Y007965D02*
X041040Y007965D01*
X040935Y007860D01*
X040935Y007545D01*
X041566Y007545D01*
X041566Y007860D01*
X041461Y007965D01*
D19*
X043511Y008100D03*
X035761Y008100D03*
D20*
X035761Y007250D03*
X035761Y011450D03*
X043511Y011450D03*
X043511Y007250D03*
D21*
X040761Y010350D03*
X040761Y010850D03*
X033011Y010850D03*
X033011Y010350D03*
D22*
X008761Y011966D03*
X008761Y007734D03*
D23*
X014261Y008600D03*
X014761Y008600D03*
D24*
X020686Y001458D02*
X020706Y001456D01*
X020725Y001451D01*
X020743Y001442D01*
X020759Y001430D01*
X020772Y001415D01*
X020783Y001398D01*
X020790Y001380D01*
X020794Y001360D01*
X020794Y001340D01*
X020790Y001320D01*
X020783Y001302D01*
X020772Y001285D01*
X020759Y001270D01*
X020743Y001258D01*
X020725Y001249D01*
X020706Y001244D01*
X020686Y001242D01*
X021227Y001488D02*
X021229Y001498D01*
X021234Y001507D01*
X021242Y001514D01*
X021252Y001518D01*
X021262Y001518D01*
X021272Y001514D01*
X021280Y001507D01*
X021285Y001498D01*
X021287Y001488D01*
X021285Y001478D01*
X021280Y001469D01*
X021272Y001462D01*
X021262Y001458D01*
X021252Y001458D01*
X021242Y001462D01*
X021234Y001469D01*
X021229Y001478D01*
X021227Y001488D01*
D25*
X021316Y001488D03*
D26*
X021237Y001448D03*
D27*
X021222Y001517D03*
D28*
X021286Y001212D03*
D29*
X021193Y001350D03*
D30*
X020774Y001212D03*
X020774Y001488D03*
D31*
X020829Y001350D03*
D32*
X020774Y001261D03*
X020774Y001439D03*
D33*
X021060Y001350D03*
D34*
X025095Y022222D03*
X015595Y022222D03*
X006095Y022222D03*
D35*
X033611Y015000D03*
X041361Y015000D03*
D36*
X043511Y015000D03*
X035761Y015000D03*
D37*
X037876Y015000D03*
X045626Y015000D03*
M02*
