%
M48
M72
T01C0.0150
T02C0.0236
T03C0.0256
T04C0.0315
T05C0.0400
T06C0.0590
T07C0.0630
T08C0.0650
T09C0.1500
%
T01
X6025Y2460
X6025Y3060
X6025Y3660
X6525Y5060
X7525Y5060
X8525Y3660
X8525Y3060
X8525Y2460
X11975Y2460
X11975Y3060
X11975Y3660
X12475Y5060
X13475Y5060
X14575Y5560
X14575Y6010
X14575Y6460
X15675Y6810
X16675Y6810
X17925Y6460
X17925Y6010
X17925Y5560
X16675Y5060
X15675Y5060
X15175Y3660
X15175Y3060
X15175Y2460
X14475Y2460
X14475Y3060
X14475Y3660
X17675Y3660
X17675Y3060
X17675Y2460
X21125Y4060
X23575Y4910
X25425Y4260
X25425Y6110
X24075Y7060
X24075Y7460
X23625Y6810
X23225Y6810
X22775Y7060
X22775Y7460
X20075Y9610
X19675Y9610
X19125Y10510
X18725Y10910
X18925Y11460
X18425Y11860
X18575Y12910
X20275Y13560
X20525Y15010
X21275Y15010
X22275Y15010
X22925Y15010
X23975Y15060
X23975Y16360
X23975Y16810
X23975Y17810
X23975Y18410
X23975Y19460
X23975Y20310
X23975Y21010
X23975Y21810
X22575Y21760
X22075Y21010
X20775Y21810
X18970Y21752
X18385Y21750
X17325Y20760
X17325Y20060
X17325Y19460
X17321Y18271
X17325Y17060
X17375Y16310
X18625Y15010
X19275Y15010
X20025Y15660
X22725Y18560
X25825Y17360
X25725Y16510
X25675Y15310
X26425Y14660
X26075Y14310
X25725Y14010
X25375Y13760
X24725Y13510
X23825Y13510
X22025Y12910
X19975Y11110
X17175Y8860
X16975Y8360
X13975Y8860
X13725Y8410
X13475Y6860
X12475Y6860
X11575Y8410
X8025Y8760
X7775Y8310
X7525Y6860
X6525Y6860
X2575Y8410
X4975Y10710
X5675Y13060
X7725Y13160
X8275Y13160
X8425Y15810
X9025Y16560
X11025Y18060
X11025Y18460
X11025Y18910
X11325Y19310
X11825Y19310
X11825Y19810
X11825Y20310
X11975Y21060
X11975Y21510
X11975Y21960
X12475Y21960
X12975Y21960
X13475Y21960
X13925Y21510
X15075Y21810
X15475Y21960
X15525Y22960
X15975Y22960
X15975Y23460
X15525Y23460
X16725Y24060
X17175Y24460
X18575Y24560
X18875Y25010
X18975Y25560
X19575Y25560
X20175Y25560
X21575Y27010
X21525Y27660
X22575Y27310
X22225Y25610
X24170Y23242
X25725Y22310
X26725Y22460
X27275Y22360
X28975Y21760
X29625Y20710
X29675Y19760
X28875Y19760
X28265Y20425
X27775Y20060
X27625Y19460
X27275Y20660
X27625Y18510
X28925Y16960
X29375Y17360
X30225Y17760
X30225Y18260
X29825Y18710
X30025Y16410
X29375Y15560
X28265Y15650
X28225Y14660
X27625Y14660
X27025Y14660
X31225Y15360
X32275Y16010
X34175Y16210
X34425Y17060
X33975Y17310
X33625Y17660
X33275Y17960
X33225Y18810
X34225Y18760
X35425Y18460
X36525Y18010
X37725Y18110
X38625Y18460
X38775Y17460
X39675Y17810
X40025Y18710
X40075Y19760
X40175Y20160
X41225Y20910
X41275Y22360
X40775Y22610
X42525Y23210
X43225Y22310
X43225Y21810
X44225Y22360
X44725Y22360
X44725Y22860
X44225Y22860
X44475Y23710
X45775Y23610
X45575Y23010
X45575Y22060
X46625Y21710
X47275Y22160
X48025Y21810
X46725Y20760
X45925Y19710
X44675Y19660
X42975Y20860
X44675Y21360
X46625Y23310
X42525Y25160
X41625Y27210
X42375Y27510
X39225Y26160
X38775Y26160
X38275Y26160
X38275Y24710
X37575Y24710
X36975Y24710
X36525Y23760
X36325Y23410
X36075Y24060
X35475Y22760
X35175Y21910
X34075Y21310
X33225Y20910
X32075Y21910
X33125Y22310
X30625Y21910
X30625Y23060
X30875Y26010
X31325Y26010
X31825Y26010
X34075Y25210
X35375Y25860
X34325Y27360
X33725Y28210
X33225Y30460
X31225Y30960
X30975Y30510
X31475Y32510
X32475Y32510
X32475Y34260
X31475Y34260
X30275Y33760
X30275Y33310
X30275Y32860
X29275Y32510
X28275Y32510
X27025Y32860
X27025Y33310
X27025Y33760
X26075Y34260
X25075Y34260
X24075Y35660
X24075Y36210
X24075Y36760
X24275Y37760
X26575Y36760
X27275Y36760
X27275Y36210
X27275Y35660
X26575Y35660
X26575Y36210
X28275Y34260
X29275Y34260
X29775Y35660
X29775Y36210
X30475Y36210
X30475Y35660
X30475Y36760
X29775Y36760
X32325Y38560
X32975Y36760
X32975Y36210
X32975Y35660
X36925Y35660
X36925Y36210
X36925Y36760
X39425Y36760
X39425Y36210
X39425Y35660
X40125Y35660
X40125Y36210
X40125Y36760
X42625Y36760
X42625Y36210
X42625Y35660
X43325Y35660
X43325Y36210
X43325Y36760
X45825Y36760
X45825Y36210
X45825Y35660
X45325Y34260
X44325Y34260
X43125Y33810
X43125Y33360
X43125Y32910
X42125Y32510
X41125Y32510
X39925Y32910
X39925Y33360
X39925Y33810
X38925Y34260
X37925Y34260
X37925Y32510
X38925Y32510
X37675Y30910
X37425Y30510
X36025Y31460
X36025Y31910
X40625Y30510
X40875Y30910
X43825Y30510
X44125Y30910
X44325Y32510
X45325Y32510
X47525Y33210
X48225Y30760
X46175Y30410
X42125Y34260
X41125Y34260
X41625Y39010
X39525Y39110
X45425Y40860
X28025Y30960
X27775Y30510
X26075Y32510
X25075Y32510
X24825Y30960
X24575Y30510
X23675Y29460
X23225Y29460
X19825Y28760
X19025Y30510
X19325Y31660
X19325Y33260
X19275Y33760
X19775Y34560
X20225Y36110
X19575Y36310
X17375Y37360
X15125Y36760
X15125Y36210
X15125Y35660
X14625Y34260
X13625Y34260
X12425Y33810
X12425Y33360
X12425Y32910
X11425Y32510
X10425Y32510
X9225Y32910
X9225Y33360
X9225Y33810
X8225Y34260
X7225Y34260
X6225Y35660
X6225Y36210
X6225Y36760
X3675Y36210
X2125Y34910
X2425Y34610
X2725Y34310
X3025Y34010
X7225Y32510
X8225Y32510
X6975Y30910
X6725Y30510
X9925Y30510
X10175Y30910
X13125Y30510
X13375Y30910
X14625Y30510
X14625Y32510
X13625Y32510
X15925Y34060
X16325Y34060
X12625Y35660
X12625Y36210
X12625Y36760
X11925Y36760
X11925Y36210
X11925Y35660
X11425Y34260
X10425Y34260
X9425Y35660
X9425Y36210
X9425Y36760
X8725Y36760
X8725Y36210
X8725Y35660
X10675Y27310
X11225Y27310
X11775Y27310
X12275Y27310
X9225Y26710
X9075Y25110
X9725Y24010
X10425Y21910
X10675Y21460
X6525Y21760
X6175Y21360
X5625Y21360
X5175Y21710
X5175Y22210
X5175Y22710
X5625Y23060
X6125Y23060
X6525Y22660
X3725Y22760
X2175Y22110
X2175Y21710
X2175Y21310
X2175Y20910
X2175Y20510
X2175Y19960
X3725Y19060
X5775Y18860
X11725Y15610
X12025Y15960
X13425Y16260
X15575Y14760
X15625Y14260
X15675Y12710
X16075Y12710
X16475Y12710
X15275Y12710
X14375Y11410
X13725Y11410
X13625Y13610
X19725Y20260
X14975Y24810
X18025Y26260
X17825Y27110
X25475Y26410
X26775Y26210
X27425Y26210
X29575Y26010
X35575Y20210
X36875Y20610
X37175Y21310
X38025Y21010
X38575Y21210
X38575Y20360
X38575Y19560
X37125Y19810
X36675Y19410
X35425Y16860
X36625Y16610
X35825Y15660
X36525Y15410
X36125Y14760
X36625Y14210
X37875Y14110
X37825Y15210
X39725Y16560
X40075Y16260
X40775Y15960
X40825Y15210
X41225Y14410
X40425Y14210
X38725Y12510
X39075Y12160
X40225Y11860
X42425Y11260
X43175Y12060
X45275Y13910
X46475Y15610
X46675Y16560
X38325Y23060
X37675Y23410
X38525Y23760
X33575Y14460
X32625Y14110
X34875Y11310
X34625Y10910
X34125Y10910
X33225Y10610
X32925Y10910
X32625Y10610
X32325Y10910
X32025Y10610
X33725Y9460
X34075Y7860
X34075Y7410
X36025Y8960
X38125Y8560
X38375Y8960
X37875Y6960
X36875Y6960
X36875Y5210
X37875Y5210
X39025Y5660
X39025Y6110
X39025Y6560
X40075Y6960
X41075Y6960
X42325Y6560
X42325Y6110
X42325Y5660
X43275Y5210
X44275Y5210
X45275Y3810
X45275Y3210
X45275Y2610
X42775Y2610
X42775Y3210
X42775Y3810
X42075Y3810
X42075Y3210
X42075Y2610
X39575Y2610
X39575Y3210
X39575Y3810
X38875Y3810
X38875Y3210
X38875Y2610
X36375Y2610
X36375Y3210
X36375Y3810
X40075Y5210
X41075Y5210
X43275Y6960
X44275Y6960
X44525Y8560
X44775Y8960
X47525Y7010
X48925Y7260
X49225Y6960
X49525Y6660
X41575Y8960
X41325Y8560
X30375Y8710
X29575Y8260
X27625Y6810
X5575Y25410
X5625Y27260
X21525Y34160
T02
X26775Y4375
X27275Y4375
X27775Y4375
X28275Y4375
X28775Y4375
X29275Y4375
T03
X13225Y24475
X13225Y26444
T04
X3275Y26397
X3275Y27185
X3275Y27972
X3275Y28760
X12150Y39910
X12937Y39910
X13725Y39910
X16338Y39910
X17125Y39910
X17912Y39910
X18700Y39910
X19487Y39910
X20275Y39910
X22563Y39910
X23350Y39910
X24138Y39910
X24925Y39910
X25712Y39910
X26500Y39910
X27287Y39910
X28075Y39910
X30637Y39910
X31425Y39910
X35275Y39660
X36275Y39660
X37275Y39660
X37275Y40660
X36275Y40660
X35275Y40660
X40990Y39760
X42959Y39760
X44790Y39760
X46759Y39760
X48775Y28772
X48775Y27984
X48775Y27197
X48775Y26410
X49375Y24410
X49875Y23910
X50375Y24410
X50375Y23410
X49375Y23410
X48775Y15172
X48775Y14384
X48775Y13597
X48775Y12810
X24925Y1910
X24925Y910
X19425Y2160
X19425Y2947
X19425Y3735
X19425Y4522
X19425Y5310
X12475Y12410
X12475Y13197
X12475Y13984
X12475Y14772
X10125Y14772
X10125Y13984
X10125Y13197
X10125Y12410
X3275Y12847
X3275Y13635
X3275Y14422
X3275Y15210
T05
X4985Y40200
X6765Y40200
T06
X7255Y39220
X4495Y39220
T07
X22325Y10760
X23725Y10760
X25525Y10760
X26925Y10760
T08
X31745Y2960
X33304Y2960
X11004Y6110
X9445Y6110
T09
X2475Y2010
X2475Y40010
X49475Y40010
X49475Y2010
M30
