G75*
G70*
%OFA0B0*%
%FSLAX24Y24*%
%IPPOS*%
%LPD*%
%AMOC8*
5,1,8,0,0,1.08239X$1,22.5*
%
%ADD10R,0.0118X0.0630*%
%ADD11R,0.0630X0.0118*%
%ADD12R,0.0315X0.0315*%
%ADD13R,0.0394X0.0433*%
%ADD14C,0.0515*%
%ADD15R,0.0515X0.0515*%
%ADD16OC8,0.0600*%
%ADD17C,0.0885*%
%ADD18R,0.0197X0.0354*%
%ADD19R,0.0748X0.0236*%
%ADD20R,0.1102X0.0827*%
%ADD21R,0.0945X0.0945*%
%ADD22R,0.0299X0.0110*%
%ADD23R,0.0110X0.0299*%
%ADD24R,0.0551X0.0472*%
%ADD25R,0.0354X0.0276*%
%ADD26R,0.0276X0.0354*%
%ADD27R,0.0138X0.0394*%
%ADD28R,0.0350X0.0310*%
%ADD29R,0.0433X0.0394*%
%ADD30C,0.0456*%
%ADD31R,0.0430X0.0790*%
%ADD32R,0.0866X0.0984*%
%ADD33R,0.0787X0.0197*%
%ADD34R,0.0354X0.0394*%
%ADD35R,0.0512X0.0591*%
%ADD36R,0.1496X0.0551*%
%ADD37R,0.0551X0.0551*%
%ADD38R,0.0591X0.0472*%
%ADD39R,0.0630X0.0709*%
%ADD40R,0.0217X0.0472*%
%ADD41R,0.0472X0.0236*%
%ADD42R,0.0880X0.0480*%
%ADD43R,0.0866X0.1417*%
%ADD44R,0.0591X0.0512*%
%ADD45C,0.0974*%
%ADD46R,0.0974X0.0974*%
%ADD47R,0.1770X0.0710*%
%ADD48R,0.0354X0.0197*%
%ADD49R,0.0315X0.0130*%
%ADD50R,0.0130X0.0315*%
%ADD51R,0.0189X0.0165*%
%ADD52R,0.0165X0.0189*%
%ADD53C,0.0945*%
%ADD54R,0.0250X0.0500*%
%ADD55C,0.0050*%
%ADD56R,0.0850X0.0701*%
%ADD57C,0.0436*%
%ADD58R,0.0200X0.0400*%
%ADD59R,0.0236X0.0165*%
%ADD60R,0.1535X0.0630*%
%ADD61C,0.2400*%
%ADD62R,0.0248X0.0327*%
%ADD63C,0.0100*%
%ADD64C,0.0310*%
%ADD65C,0.0160*%
%ADD66C,0.0320*%
%ADD67C,0.0240*%
%ADD68C,0.0500*%
D10*
X017200Y014196D03*
X017397Y014196D03*
X017593Y014196D03*
X017790Y014196D03*
X017987Y014196D03*
X018184Y014196D03*
X018381Y014196D03*
X018578Y014196D03*
X018775Y014196D03*
X018971Y014196D03*
X019168Y014196D03*
X019365Y014196D03*
X019562Y014196D03*
X019759Y014196D03*
X019956Y014196D03*
X020152Y014196D03*
X020349Y014196D03*
X020546Y014196D03*
X020743Y014196D03*
X020940Y014196D03*
X021137Y014196D03*
X021334Y014196D03*
X021530Y014196D03*
X021727Y014196D03*
X021924Y014196D03*
X022121Y014196D03*
X022318Y014196D03*
X022515Y014196D03*
X022712Y014196D03*
X022908Y014196D03*
X023105Y014196D03*
X023302Y014196D03*
X023499Y014196D03*
X023696Y014196D03*
X023893Y014196D03*
X024089Y014196D03*
X024089Y022543D03*
X023893Y022543D03*
X023696Y022543D03*
X023499Y022543D03*
X023302Y022543D03*
X023105Y022543D03*
X022908Y022543D03*
X022712Y022543D03*
X022515Y022543D03*
X022318Y022543D03*
X022121Y022543D03*
X021924Y022543D03*
X021727Y022543D03*
X021530Y022543D03*
X021334Y022543D03*
X021137Y022543D03*
X020940Y022543D03*
X020743Y022543D03*
X020546Y022543D03*
X020349Y022543D03*
X020152Y022543D03*
X019956Y022543D03*
X019759Y022543D03*
X019562Y022543D03*
X019365Y022543D03*
X019168Y022543D03*
X018971Y022543D03*
X018775Y022543D03*
X018578Y022543D03*
X018381Y022543D03*
X018184Y022543D03*
X017987Y022543D03*
X017790Y022543D03*
X017593Y022543D03*
X017397Y022543D03*
X017200Y022543D03*
X035548Y021864D03*
X035745Y021864D03*
X035942Y021864D03*
X036139Y021864D03*
X036336Y021864D03*
X036532Y021864D03*
X036729Y021864D03*
X036926Y021864D03*
X037123Y021864D03*
X037320Y021864D03*
X037517Y021864D03*
X037714Y021864D03*
X037910Y021864D03*
X038107Y021864D03*
X038304Y021864D03*
X038501Y021864D03*
X038501Y017455D03*
X038304Y017455D03*
X038107Y017455D03*
X037910Y017455D03*
X037714Y017455D03*
X037517Y017455D03*
X037320Y017455D03*
X037123Y017455D03*
X036926Y017455D03*
X036729Y017455D03*
X036532Y017455D03*
X036336Y017455D03*
X036139Y017455D03*
X035942Y017455D03*
X035745Y017455D03*
X035548Y017455D03*
D11*
X034820Y018183D03*
X034820Y018380D03*
X034820Y018577D03*
X034820Y018774D03*
X034820Y018971D03*
X034820Y019168D03*
X034820Y019364D03*
X034820Y019561D03*
X034820Y019758D03*
X034820Y019955D03*
X034820Y020152D03*
X034820Y020349D03*
X034820Y020545D03*
X034820Y020742D03*
X034820Y020939D03*
X034820Y021136D03*
X039229Y021136D03*
X039229Y020939D03*
X039229Y020742D03*
X039229Y020545D03*
X039229Y020349D03*
X039229Y020152D03*
X039229Y019955D03*
X039229Y019758D03*
X039229Y019561D03*
X039229Y019364D03*
X039229Y019168D03*
X039229Y018971D03*
X039229Y018774D03*
X039229Y018577D03*
X039229Y018380D03*
X039229Y018183D03*
X024818Y018271D03*
X024818Y018074D03*
X024818Y017878D03*
X024818Y017681D03*
X024818Y017484D03*
X024818Y017287D03*
X024818Y017090D03*
X024818Y016893D03*
X024818Y016696D03*
X024818Y016500D03*
X024818Y016303D03*
X024818Y016106D03*
X024818Y015909D03*
X024818Y015712D03*
X024818Y015515D03*
X024818Y015318D03*
X024818Y015122D03*
X024818Y014925D03*
X024818Y018468D03*
X024818Y018665D03*
X024818Y018862D03*
X024818Y019059D03*
X024818Y019255D03*
X024818Y019452D03*
X024818Y019649D03*
X024818Y019846D03*
X024818Y020043D03*
X024818Y020240D03*
X024818Y020437D03*
X024818Y020633D03*
X024818Y020830D03*
X024818Y021027D03*
X024818Y021224D03*
X024818Y021421D03*
X024818Y021618D03*
X024818Y021815D03*
X016471Y021815D03*
X016471Y021618D03*
X016471Y021421D03*
X016471Y021224D03*
X016471Y021027D03*
X016471Y020830D03*
X016471Y020633D03*
X016471Y020437D03*
X016471Y020240D03*
X016471Y020043D03*
X016471Y019846D03*
X016471Y019649D03*
X016471Y019452D03*
X016471Y019255D03*
X016471Y019059D03*
X016471Y018862D03*
X016471Y018665D03*
X016471Y018468D03*
X016471Y018271D03*
X016471Y018074D03*
X016471Y017878D03*
X016471Y017681D03*
X016471Y017484D03*
X016471Y017287D03*
X016471Y017090D03*
X016471Y016893D03*
X016471Y016696D03*
X016471Y016500D03*
X016471Y016303D03*
X016471Y016106D03*
X016471Y015909D03*
X016471Y015712D03*
X016471Y015515D03*
X016471Y015318D03*
X016471Y015122D03*
X016471Y014925D03*
D12*
X025929Y023260D03*
X026520Y023260D03*
D13*
X025389Y023240D03*
X024720Y023240D03*
X025990Y020610D03*
X026659Y020610D03*
X026340Y019310D03*
X027009Y019310D03*
X027009Y018510D03*
X026340Y018510D03*
X034790Y016210D03*
X035459Y016210D03*
X038325Y015194D03*
X038325Y014525D03*
X039975Y014525D03*
X039975Y015194D03*
X043340Y014560D03*
X044009Y014560D03*
X045340Y015610D03*
X046009Y015610D03*
X045875Y018525D03*
X045875Y019194D03*
X045925Y020175D03*
X045925Y020844D03*
X043425Y020844D03*
X043425Y020175D03*
X044990Y024060D03*
X045659Y024060D03*
X048425Y023994D03*
X048425Y023325D03*
X045399Y012700D03*
X044730Y012700D03*
X022809Y004460D03*
X022140Y004460D03*
X016309Y013710D03*
X015640Y013710D03*
X015049Y014280D03*
X014380Y014280D03*
X010475Y017325D03*
X010475Y017994D03*
X006955Y018234D03*
X006955Y017565D03*
X005239Y016610D03*
X004570Y016610D03*
X005970Y019670D03*
X006639Y019670D03*
X009290Y021310D03*
X009959Y021310D03*
X009209Y024010D03*
X008540Y024010D03*
X008559Y025810D03*
X007890Y025810D03*
X007890Y027660D03*
X008559Y027660D03*
X018625Y033125D03*
X018925Y032544D03*
X018925Y031875D03*
X021290Y030460D03*
X021959Y030460D03*
X020809Y029660D03*
X020140Y029660D03*
X018625Y033794D03*
X018725Y035225D03*
X018725Y035894D03*
X019575Y035894D03*
X019575Y035225D03*
X014759Y038310D03*
X014090Y038310D03*
D14*
X012937Y039910D03*
X012150Y039910D03*
X016338Y039910D03*
X017125Y039910D03*
X017912Y039910D03*
X018700Y039910D03*
X019487Y039910D03*
X022563Y039910D03*
X023350Y039910D03*
X024138Y039910D03*
X024925Y039910D03*
X025712Y039910D03*
X026500Y039910D03*
X027287Y039910D03*
X030637Y039910D03*
X035275Y039660D03*
X036275Y039660D03*
X037275Y039660D03*
X036275Y040660D03*
X035275Y040660D03*
X040990Y039760D03*
X042959Y039760D03*
X044790Y039760D03*
X046759Y039760D03*
X048775Y028772D03*
X048775Y027984D03*
X048775Y027197D03*
X049375Y024410D03*
X049875Y023910D03*
X050375Y024410D03*
X050375Y023410D03*
X049375Y023410D03*
X048775Y015172D03*
X048775Y014384D03*
X048775Y013597D03*
X019425Y004522D03*
X019425Y003735D03*
X019425Y002947D03*
X019425Y002160D03*
X012475Y013197D03*
X012475Y013984D03*
X012475Y014772D03*
X010125Y014772D03*
X010125Y013984D03*
X010125Y013197D03*
X003275Y012847D03*
X003275Y013635D03*
X003275Y014422D03*
X003275Y026397D03*
X003275Y027185D03*
X003275Y027972D03*
D15*
X003275Y028760D03*
X013725Y039910D03*
X020275Y039910D03*
X028075Y039910D03*
X031425Y039910D03*
X037275Y040660D03*
X048775Y026410D03*
X048775Y012810D03*
X024925Y001910D03*
X024925Y000910D03*
X019425Y005310D03*
X012475Y012410D03*
X010125Y012410D03*
X003275Y015210D03*
D16*
X004985Y040200D03*
X006765Y040200D03*
D17*
X007255Y039220D03*
X004495Y039220D03*
D18*
X015502Y033644D03*
X015817Y033644D03*
X016132Y033644D03*
X016447Y033644D03*
X016447Y032975D03*
X016132Y032975D03*
X015817Y032975D03*
X015502Y032975D03*
X023152Y030494D03*
X023467Y030494D03*
X023782Y030494D03*
X024097Y030494D03*
X024097Y029825D03*
X023782Y029825D03*
X023467Y029825D03*
X023152Y029825D03*
X021647Y012944D03*
X021332Y012944D03*
X021017Y012944D03*
X020702Y012944D03*
X020702Y012275D03*
X021017Y012275D03*
X021332Y012275D03*
X021647Y012275D03*
X020197Y009044D03*
X019882Y009044D03*
X019567Y009044D03*
X019252Y009044D03*
X019252Y008375D03*
X019567Y008375D03*
X019882Y008375D03*
X020197Y008375D03*
X044617Y014275D03*
X044932Y014275D03*
X044932Y014944D03*
X044617Y014944D03*
D19*
X048231Y009978D03*
X048231Y009584D03*
X048231Y009191D03*
X048231Y008797D03*
X048231Y008403D03*
X048231Y008010D03*
X048231Y007616D03*
X048231Y007222D03*
X048231Y006829D03*
X048231Y006435D03*
X048231Y006041D03*
X048231Y031641D03*
X048231Y032035D03*
X048231Y032429D03*
X048231Y032822D03*
X048231Y033216D03*
X048231Y033610D03*
X048231Y034003D03*
X048231Y034397D03*
X048231Y034791D03*
X048231Y035184D03*
X048231Y035578D03*
X003719Y035578D03*
X003719Y035184D03*
X003719Y034791D03*
X003719Y034397D03*
X003719Y034003D03*
X003719Y033610D03*
X003719Y033216D03*
X003719Y032822D03*
X003719Y032429D03*
X003719Y032035D03*
X003719Y031641D03*
X003725Y022310D03*
X003725Y021916D03*
X003725Y021522D03*
X003725Y021129D03*
X003725Y020735D03*
X003725Y020341D03*
X003725Y019947D03*
X003725Y019554D03*
X003719Y009978D03*
X003719Y009584D03*
X003719Y009191D03*
X003719Y008797D03*
X003719Y008403D03*
X003719Y008010D03*
X003719Y007616D03*
X003719Y007222D03*
X003719Y006829D03*
X003719Y006435D03*
X003719Y006041D03*
D20*
X002794Y004781D03*
X002794Y011238D03*
X002799Y018314D03*
X002799Y023550D03*
X002794Y030381D03*
X002794Y036838D03*
X049156Y036838D03*
X049156Y030381D03*
X049156Y011238D03*
X049156Y004781D03*
D21*
X044475Y022610D03*
D22*
X045175Y022610D03*
X045175Y022806D03*
X045175Y023003D03*
X045175Y022413D03*
X045175Y022216D03*
X043774Y022216D03*
X043774Y022413D03*
X043774Y022610D03*
X043774Y022806D03*
X043774Y023003D03*
D23*
X044081Y023310D03*
X044278Y023310D03*
X044475Y023310D03*
X044671Y023310D03*
X044868Y023310D03*
X044868Y021909D03*
X044671Y021909D03*
X044475Y021909D03*
X044278Y021909D03*
X044081Y021909D03*
D24*
X044242Y020825D03*
X045108Y020825D03*
X045108Y020195D03*
X044242Y020195D03*
D25*
X048425Y021854D03*
X048425Y022366D03*
D26*
X047881Y022860D03*
X047369Y022860D03*
D27*
X046881Y022864D03*
X046625Y022864D03*
X046369Y022864D03*
X046369Y022155D03*
X046625Y022155D03*
X046881Y022155D03*
D28*
X042075Y015570D03*
X041275Y015950D03*
X041275Y015190D03*
D29*
X039125Y015194D03*
X039125Y014525D03*
X040875Y019675D03*
X040875Y020344D03*
X046725Y020294D03*
X046725Y019625D03*
X047275Y018044D03*
X047275Y017375D03*
X047275Y016544D03*
X047275Y015875D03*
X024875Y003744D03*
X024875Y003075D03*
X005175Y019125D03*
X005175Y019794D03*
X007910Y024880D03*
X008579Y024880D03*
X008569Y026730D03*
X007900Y026730D03*
X019490Y030510D03*
X020159Y030510D03*
X020359Y033810D03*
X019690Y033810D03*
D30*
X013225Y026444D03*
X013225Y024475D03*
D31*
X028925Y013180D03*
X029925Y013180D03*
X030925Y013180D03*
X031925Y013180D03*
X031925Y009640D03*
X030925Y009640D03*
X029925Y009640D03*
X028925Y009640D03*
D32*
X048237Y017356D03*
X050324Y017356D03*
X050324Y020663D03*
X048237Y020663D03*
D33*
X048139Y019640D03*
X048139Y019325D03*
X048139Y019010D03*
X048139Y018695D03*
X048139Y018380D03*
D34*
X043982Y012675D03*
X043982Y012045D03*
X042368Y012045D03*
X042368Y012675D03*
D35*
X007859Y015800D03*
X007111Y015800D03*
D36*
X008056Y013710D03*
X005694Y013710D03*
D37*
X006947Y016560D03*
X008443Y016560D03*
D38*
X008805Y019920D03*
X007664Y019920D03*
D39*
X009793Y019850D03*
X010896Y019850D03*
D40*
X006149Y018421D03*
X005775Y018421D03*
X005401Y018421D03*
X005401Y017398D03*
X005775Y017398D03*
X006149Y017398D03*
D41*
X006110Y025036D03*
X006110Y025410D03*
X006110Y025784D03*
X007139Y025784D03*
X007139Y025036D03*
X007139Y026886D03*
X007139Y027634D03*
X006110Y027634D03*
X006110Y027260D03*
X006110Y026886D03*
D42*
X008295Y023119D03*
X008295Y022210D03*
X008295Y021300D03*
D43*
X005855Y022210D03*
D44*
X009275Y022286D03*
X009275Y023034D03*
D45*
X011004Y006110D03*
X033304Y002960D03*
D46*
X031745Y002960D03*
X009445Y006110D03*
D47*
X008675Y017560D03*
X008675Y018860D03*
D48*
X016590Y024987D03*
X016590Y025302D03*
X016590Y025617D03*
X016590Y025932D03*
X017259Y025932D03*
X017259Y025617D03*
X017259Y025302D03*
X017259Y024987D03*
X005859Y009832D03*
X005859Y009517D03*
X005859Y009202D03*
X005859Y008887D03*
X005190Y008887D03*
X005190Y009202D03*
X005190Y009517D03*
X005190Y009832D03*
X034490Y007932D03*
X034490Y007617D03*
X034490Y007302D03*
X034490Y006987D03*
X035159Y006987D03*
X035159Y007302D03*
X035159Y007617D03*
X035159Y007932D03*
X037490Y011537D03*
X037490Y011852D03*
X037490Y012167D03*
X037490Y012482D03*
X038159Y012482D03*
X038159Y012167D03*
X038159Y011852D03*
X038159Y011537D03*
X045490Y026952D03*
X045490Y027267D03*
X045490Y027787D03*
X045490Y028102D03*
X045490Y028417D03*
X045490Y028732D03*
X046159Y028732D03*
X046159Y028417D03*
X046159Y028102D03*
X046159Y027787D03*
X046159Y027267D03*
X046159Y026952D03*
X037109Y031037D03*
X037109Y031352D03*
X037109Y031667D03*
X037109Y031982D03*
X036440Y031982D03*
X036440Y031667D03*
X036440Y031352D03*
X036440Y031037D03*
D49*
X021312Y031668D03*
X021312Y031864D03*
X021312Y032061D03*
X021312Y032258D03*
X021312Y032455D03*
X021312Y032652D03*
X019737Y032652D03*
X019737Y032455D03*
X019737Y032258D03*
X019737Y032061D03*
X019737Y031864D03*
X019737Y031668D03*
D50*
X020032Y031372D03*
X020229Y031372D03*
X020426Y031372D03*
X020623Y031372D03*
X020820Y031372D03*
X021017Y031372D03*
X021017Y032947D03*
X020820Y032947D03*
X020623Y032947D03*
X020426Y032947D03*
X020229Y032947D03*
X020032Y032947D03*
D51*
X020172Y035160D03*
X021077Y035160D03*
D52*
X021008Y035632D03*
X020753Y035632D03*
X020497Y035632D03*
X020241Y035632D03*
X020241Y034687D03*
X020497Y034687D03*
X020753Y034687D03*
X021008Y034687D03*
D53*
X022325Y010760D03*
X023725Y010760D03*
X025525Y010760D03*
X026925Y010760D03*
D54*
X023125Y003310D03*
X022125Y003310D03*
X021125Y003310D03*
X021625Y000810D03*
X023625Y000810D03*
D55*
X023375Y000797D02*
X023875Y000797D01*
X023875Y000749D02*
X023375Y000749D01*
X023375Y000700D02*
X023875Y000700D01*
X023875Y000685D02*
X023375Y000685D01*
X023375Y001310D01*
X023875Y001310D01*
X023875Y000685D01*
X023875Y000846D02*
X023375Y000846D01*
X023375Y000894D02*
X023875Y000894D01*
X023875Y000943D02*
X023375Y000943D01*
X023375Y000991D02*
X023875Y000991D01*
X023875Y001040D02*
X023375Y001040D01*
X023375Y001088D02*
X023875Y001088D01*
X023875Y001137D02*
X023375Y001137D01*
X023375Y001185D02*
X023875Y001185D01*
X023875Y001234D02*
X023375Y001234D01*
X023375Y001282D02*
X023875Y001282D01*
X021875Y001282D02*
X021375Y001282D01*
X021375Y001310D02*
X021375Y000685D01*
X021875Y000685D01*
X021875Y001310D01*
X021375Y001310D01*
X021375Y001234D02*
X021875Y001234D01*
X021875Y001185D02*
X021375Y001185D01*
X021375Y001137D02*
X021875Y001137D01*
X021875Y001088D02*
X021375Y001088D01*
X021375Y001040D02*
X021875Y001040D01*
X021875Y000991D02*
X021375Y000991D01*
X021375Y000943D02*
X021875Y000943D01*
X021875Y000894D02*
X021375Y000894D01*
X021375Y000846D02*
X021875Y000846D01*
X021875Y000797D02*
X021375Y000797D01*
X021375Y000749D02*
X021875Y000749D01*
X021875Y000700D02*
X021375Y000700D01*
X025475Y007360D02*
X027075Y007360D01*
X027075Y008860D01*
X027125Y008860D01*
X027125Y009260D01*
X026925Y009260D01*
X026925Y008960D01*
X026625Y008960D01*
X026625Y009260D01*
X026425Y009260D01*
X026425Y008960D01*
X026125Y008960D01*
X026125Y009260D01*
X025925Y009260D01*
X025925Y008960D01*
X025625Y008960D01*
X025625Y009260D01*
X025425Y009260D01*
X025425Y008860D01*
X025475Y008860D01*
X025475Y007360D01*
X025475Y007393D02*
X027075Y007393D01*
X027075Y007442D02*
X025475Y007442D01*
X025475Y007490D02*
X027075Y007490D01*
X027075Y007539D02*
X025475Y007539D01*
X025475Y007587D02*
X027075Y007587D01*
X027075Y007636D02*
X025475Y007636D01*
X025475Y007684D02*
X027075Y007684D01*
X027075Y007733D02*
X025475Y007733D01*
X025475Y007781D02*
X027075Y007781D01*
X027075Y007830D02*
X025475Y007830D01*
X025475Y007878D02*
X027075Y007878D01*
X027075Y007927D02*
X025475Y007927D01*
X025475Y007975D02*
X027075Y007975D01*
X027075Y008024D02*
X025475Y008024D01*
X025475Y008072D02*
X027075Y008072D01*
X027075Y008121D02*
X025475Y008121D01*
X025475Y008169D02*
X027075Y008169D01*
X027075Y008218D02*
X025475Y008218D01*
X025475Y008266D02*
X027075Y008266D01*
X027075Y008315D02*
X025475Y008315D01*
X025475Y008363D02*
X027075Y008363D01*
X027075Y008412D02*
X025475Y008412D01*
X025475Y008460D02*
X027075Y008460D01*
X027075Y008509D02*
X025475Y008509D01*
X025475Y008557D02*
X027075Y008557D01*
X027075Y008606D02*
X025475Y008606D01*
X025475Y008654D02*
X027075Y008654D01*
X027075Y008703D02*
X025475Y008703D01*
X025475Y008751D02*
X027075Y008751D01*
X027075Y008800D02*
X025475Y008800D01*
X025475Y008848D02*
X027075Y008848D01*
X027125Y008897D02*
X025425Y008897D01*
X025425Y008945D02*
X027125Y008945D01*
X027125Y008994D02*
X026925Y008994D01*
X026925Y009042D02*
X027125Y009042D01*
X027125Y009091D02*
X026925Y009091D01*
X026925Y009139D02*
X027125Y009139D01*
X027125Y009188D02*
X026925Y009188D01*
X026925Y009236D02*
X027125Y009236D01*
X026625Y009236D02*
X026425Y009236D01*
X026425Y009188D02*
X026625Y009188D01*
X026625Y009139D02*
X026425Y009139D01*
X026425Y009091D02*
X026625Y009091D01*
X026625Y009042D02*
X026425Y009042D01*
X026425Y008994D02*
X026625Y008994D01*
X026125Y008994D02*
X025925Y008994D01*
X025925Y009042D02*
X026125Y009042D01*
X026125Y009091D02*
X025925Y009091D01*
X025925Y009139D02*
X026125Y009139D01*
X026125Y009188D02*
X025925Y009188D01*
X025925Y009236D02*
X026125Y009236D01*
X025625Y009236D02*
X025425Y009236D01*
X025425Y009188D02*
X025625Y009188D01*
X025625Y009139D02*
X025425Y009139D01*
X025425Y009091D02*
X025625Y009091D01*
X025625Y009042D02*
X025425Y009042D01*
X025425Y008994D02*
X025625Y008994D01*
D56*
X023425Y009009D03*
X023425Y007406D03*
D57*
X026775Y004375D03*
X027275Y004375D03*
X027775Y004375D03*
X028275Y004375D03*
X028775Y004375D03*
X029275Y004375D03*
D58*
X027025Y006760D03*
X026525Y006760D03*
X026025Y006760D03*
X025525Y006760D03*
X025525Y009060D03*
X026025Y009060D03*
X026525Y009060D03*
X027025Y009060D03*
D59*
X019249Y007766D03*
X019249Y007510D03*
X019249Y007254D03*
X018501Y007254D03*
X018501Y007510D03*
X018501Y007766D03*
X035751Y007866D03*
X035751Y007610D03*
X035751Y007354D03*
X036499Y007354D03*
X036499Y007610D03*
X036499Y007866D03*
X037901Y031354D03*
X037901Y031610D03*
X037901Y031866D03*
X038649Y031866D03*
X038649Y031610D03*
X038649Y031354D03*
X025199Y031304D03*
X025199Y031560D03*
X025199Y031816D03*
X024451Y031816D03*
X024451Y031560D03*
X024451Y031304D03*
X015549Y031404D03*
X015549Y031660D03*
X015549Y031916D03*
X014801Y031916D03*
X014801Y031660D03*
X014801Y031404D03*
D60*
X012498Y033360D03*
X009151Y033360D03*
X027001Y033310D03*
X030348Y033310D03*
X039851Y033360D03*
X043198Y033360D03*
X042348Y006110D03*
X039001Y006110D03*
X017898Y006010D03*
X014551Y006010D03*
D61*
X049475Y040010D03*
D62*
X029072Y006838D03*
X028166Y006838D03*
D63*
X027653Y006838D01*
X027625Y006810D01*
X027646Y006831D01*
X027625Y006810D02*
X027275Y006460D01*
X027075Y006460D01*
X027025Y006510D01*
X027025Y006760D01*
X026775Y006738D02*
X025225Y006738D01*
X025225Y006836D02*
X026775Y006836D01*
X026775Y006935D02*
X025225Y006935D01*
X025225Y007033D02*
X026775Y007033D01*
X026775Y007060D02*
X026775Y006360D01*
X026925Y006210D01*
X031225Y006210D01*
X032475Y004960D01*
X032475Y002110D01*
X030975Y002110D01*
X030975Y004160D01*
X030225Y004910D01*
X025925Y004910D01*
X025225Y005610D01*
X025225Y007060D01*
X026775Y007060D01*
X026775Y006639D02*
X025225Y006639D01*
X025225Y006541D02*
X026775Y006541D01*
X026775Y006442D02*
X025225Y006442D01*
X025225Y006344D02*
X026791Y006344D01*
X026889Y006245D02*
X025225Y006245D01*
X025225Y006147D02*
X031288Y006147D01*
X031386Y006048D02*
X025225Y006048D01*
X025225Y005950D02*
X031485Y005950D01*
X031583Y005851D02*
X025225Y005851D01*
X025225Y005753D02*
X031682Y005753D01*
X031780Y005654D02*
X025225Y005654D01*
X025279Y005556D02*
X031879Y005556D01*
X031977Y005457D02*
X025377Y005457D01*
X025425Y005460D02*
X025225Y005460D01*
X023675Y003910D01*
X023275Y003910D01*
X023125Y003760D01*
X023125Y003310D01*
X022125Y003310D02*
X022125Y004444D01*
X022140Y004460D01*
X022809Y004460D02*
X023125Y004460D01*
X023575Y004910D01*
X024875Y004110D02*
X025025Y004260D01*
X025425Y004260D01*
X024875Y004110D02*
X024875Y003744D01*
X024875Y003075D02*
X024875Y002760D01*
X024325Y002210D01*
X024325Y001510D01*
X024925Y000910D01*
X021125Y003310D02*
X021125Y004060D01*
X020675Y004197D02*
X019425Y002947D01*
X019425Y003735D02*
X020425Y004735D01*
X020425Y006510D01*
X021075Y007160D01*
X021075Y011660D01*
X021325Y011910D01*
X021325Y012268D01*
X021332Y012275D01*
X021625Y012253D02*
X021625Y011910D01*
X021325Y011610D01*
X021325Y007060D01*
X020675Y006410D01*
X020675Y004197D01*
X020175Y005272D02*
X019425Y004522D01*
X019425Y005310D02*
X019925Y005810D01*
X019925Y006702D01*
X020625Y007402D01*
X020625Y011760D01*
X020702Y011887D01*
X020702Y012275D01*
X021017Y012275D02*
X021025Y012268D01*
X021025Y011910D01*
X020875Y011760D01*
X020875Y007310D01*
X020175Y006610D01*
X020175Y005272D01*
X018675Y005360D02*
X018675Y006660D01*
X017125Y006660D01*
X017125Y005360D01*
X018675Y005360D01*
X018675Y005457D02*
X017125Y005457D01*
X017125Y005556D02*
X018675Y005556D01*
X018675Y005654D02*
X017125Y005654D01*
X017125Y005753D02*
X018675Y005753D01*
X018675Y005851D02*
X017125Y005851D01*
X017125Y005950D02*
X018675Y005950D01*
X018675Y006048D02*
X017125Y006048D01*
X017125Y006147D02*
X018675Y006147D01*
X018675Y006245D02*
X017125Y006245D01*
X017125Y006344D02*
X018675Y006344D01*
X018675Y006442D02*
X017125Y006442D01*
X017125Y006541D02*
X018675Y006541D01*
X018675Y006639D02*
X017125Y006639D01*
X016675Y006810D02*
X016675Y006060D01*
X015675Y005060D01*
X015325Y005360D02*
X013825Y005360D01*
X013825Y006660D01*
X015325Y006660D01*
X015325Y005360D01*
X015325Y005457D02*
X013825Y005457D01*
X013825Y005556D02*
X015325Y005556D01*
X015325Y005654D02*
X013825Y005654D01*
X013825Y005753D02*
X015325Y005753D01*
X015325Y005851D02*
X013825Y005851D01*
X013825Y005950D02*
X015325Y005950D01*
X015325Y006048D02*
X013825Y006048D01*
X013825Y006147D02*
X015325Y006147D01*
X015325Y006245D02*
X013825Y006245D01*
X013825Y006344D02*
X015325Y006344D01*
X015325Y006442D02*
X013825Y006442D01*
X013825Y006541D02*
X015325Y006541D01*
X015325Y006639D02*
X013825Y006639D01*
X013475Y006860D02*
X013475Y006060D01*
X012475Y005060D01*
X012475Y006860D02*
X012475Y007160D01*
X012825Y007510D01*
X018501Y007510D01*
X018501Y007766D02*
X006804Y007766D01*
X006525Y007486D01*
X006525Y006860D01*
X007525Y006860D02*
X007525Y006060D01*
X006525Y005060D01*
X003719Y008403D02*
X002581Y008403D01*
X002575Y008410D01*
X005859Y008887D02*
X007452Y008887D01*
X007925Y009360D01*
X015175Y009360D01*
X018075Y012260D01*
X019025Y012260D01*
X019365Y012600D01*
X019365Y014196D01*
X019175Y014203D02*
X019175Y014910D01*
X019275Y015010D01*
X019520Y015110D02*
X020279Y015110D01*
X020260Y015062D02*
X020260Y014957D01*
X020300Y014860D01*
X020354Y014805D01*
X019432Y014792D01*
X019499Y014860D01*
X019540Y014957D01*
X019540Y015062D01*
X019499Y015160D01*
X019425Y015234D01*
X019327Y015275D01*
X019222Y015275D01*
X019124Y015234D01*
X019050Y015160D01*
X019010Y015062D01*
X019010Y014957D01*
X019015Y014945D01*
X019015Y014786D01*
X018935Y014785D01*
X018935Y014798D01*
X018942Y014853D01*
X018935Y014863D01*
X018935Y014876D01*
X018896Y014915D01*
X018881Y014935D01*
X018890Y014957D01*
X018890Y015062D01*
X018849Y015160D01*
X018775Y015234D01*
X018677Y015275D01*
X018572Y015275D01*
X018474Y015234D01*
X018400Y015160D01*
X018360Y015062D01*
X018360Y014957D01*
X018400Y014860D01*
X018474Y014785D01*
X018490Y014778D01*
X017175Y014760D01*
X017175Y016135D01*
X017224Y016085D01*
X017322Y016045D01*
X017427Y016045D01*
X017525Y016085D01*
X017599Y016160D01*
X017640Y016257D01*
X017640Y016362D01*
X017599Y016460D01*
X017525Y016534D01*
X017427Y016575D01*
X017322Y016575D01*
X017224Y016534D01*
X017175Y016484D01*
X017175Y016835D01*
X017272Y016795D01*
X017377Y016795D01*
X017475Y016835D01*
X017549Y016910D01*
X017590Y017007D01*
X017590Y017112D01*
X017549Y017210D01*
X017475Y017284D01*
X017377Y017325D01*
X017272Y017325D01*
X017175Y017284D01*
X017175Y018045D01*
X017269Y018006D01*
X017374Y018006D01*
X017471Y018047D01*
X017546Y018121D01*
X017586Y018219D01*
X017586Y018324D01*
X017546Y018421D01*
X017471Y018496D01*
X017374Y018536D01*
X017269Y018536D01*
X017175Y018497D01*
X017175Y019835D01*
X017272Y019795D01*
X017377Y019795D01*
X017475Y019835D01*
X017549Y019910D01*
X017590Y020007D01*
X017590Y020112D01*
X017549Y020210D01*
X017475Y020284D01*
X017377Y020325D01*
X017272Y020325D01*
X017175Y020284D01*
X017175Y020473D01*
X017265Y020473D01*
X017286Y020495D01*
X017377Y020495D01*
X017475Y020535D01*
X017549Y020610D01*
X017590Y020707D01*
X017590Y020812D01*
X017549Y020910D01*
X017475Y020984D01*
X017377Y021025D01*
X017272Y021025D01*
X017175Y020984D01*
X017175Y021960D01*
X018220Y021960D01*
X018160Y021900D01*
X018120Y021802D01*
X018120Y021697D01*
X018160Y021600D01*
X018234Y021525D01*
X018332Y021485D01*
X018437Y021485D01*
X018535Y021525D01*
X018609Y021600D01*
X018650Y021697D01*
X018650Y021802D01*
X018609Y021900D01*
X018549Y021960D01*
X018802Y021960D01*
X018745Y021902D01*
X018705Y021805D01*
X018705Y021699D01*
X018745Y021602D01*
X018819Y021527D01*
X018917Y021487D01*
X019022Y021487D01*
X019120Y021527D01*
X019194Y021602D01*
X019235Y021699D01*
X019235Y021805D01*
X019194Y021902D01*
X019137Y021960D01*
X020550Y021960D01*
X020510Y021862D01*
X020510Y021757D01*
X020550Y021660D01*
X020624Y021585D01*
X020722Y021545D01*
X020827Y021545D01*
X020925Y021585D01*
X020999Y021660D01*
X021040Y021757D01*
X021040Y021862D01*
X020999Y021960D01*
X022400Y021960D01*
X022350Y021910D01*
X022310Y021812D01*
X022310Y021707D01*
X022350Y021610D01*
X022424Y021535D01*
X022522Y021495D01*
X022627Y021495D01*
X022725Y021535D01*
X022799Y021610D01*
X022840Y021707D01*
X022840Y021798D01*
X022872Y021830D01*
X022872Y021960D01*
X023750Y021960D01*
X023710Y021862D01*
X023710Y021757D01*
X023750Y021660D01*
X023824Y021585D01*
X023922Y021545D01*
X024027Y021545D01*
X024125Y021585D01*
X024175Y021635D01*
X024175Y020597D01*
X024035Y020597D01*
X024013Y020575D01*
X023922Y020575D01*
X023824Y020534D01*
X023750Y020460D01*
X023710Y020362D01*
X023710Y020257D01*
X023750Y020160D01*
X023824Y020085D01*
X023922Y020045D01*
X024027Y020045D01*
X024125Y020085D01*
X024175Y020135D01*
X024175Y019786D01*
X024163Y019774D01*
X024064Y019709D01*
X024027Y019725D01*
X023922Y019725D01*
X023824Y019684D01*
X023750Y019610D01*
X023710Y019512D01*
X023710Y019407D01*
X023750Y019310D01*
X023824Y019235D01*
X023922Y019195D01*
X024027Y019195D01*
X024125Y019235D01*
X024175Y019285D01*
X024175Y018628D01*
X024131Y018628D01*
X024125Y018634D01*
X024027Y018675D01*
X023922Y018675D01*
X023824Y018634D01*
X023750Y018560D01*
X023710Y018462D01*
X023710Y018357D01*
X023750Y018260D01*
X023824Y018185D01*
X023922Y018145D01*
X024027Y018145D01*
X024125Y018185D01*
X024175Y018235D01*
X024175Y016984D01*
X024125Y017034D01*
X024027Y017075D01*
X023922Y017075D01*
X023824Y017034D01*
X023750Y016960D01*
X023710Y016862D01*
X023710Y016757D01*
X023750Y016660D01*
X023824Y016585D01*
X023825Y016585D01*
X023824Y016584D01*
X023750Y016510D01*
X023710Y016412D01*
X023710Y016307D01*
X023750Y016210D01*
X023824Y016135D01*
X023922Y016095D01*
X024027Y016095D01*
X024125Y016135D01*
X024175Y016185D01*
X024175Y015234D01*
X024125Y015284D01*
X024027Y015325D01*
X023922Y015325D01*
X023824Y015284D01*
X023750Y015210D01*
X023710Y015112D01*
X023710Y015007D01*
X023750Y014910D01*
X023805Y014854D01*
X023135Y014845D01*
X023149Y014860D01*
X023190Y014957D01*
X023190Y015062D01*
X023149Y015160D01*
X023075Y015234D01*
X022977Y015275D01*
X022872Y015275D01*
X022774Y015234D01*
X022700Y015160D01*
X022660Y015062D01*
X022660Y014957D01*
X022700Y014860D01*
X022721Y014839D01*
X022478Y014835D01*
X022478Y014838D01*
X022499Y014860D01*
X022540Y014957D01*
X022540Y015062D01*
X022499Y015160D01*
X022425Y015234D01*
X022327Y015275D01*
X022222Y015275D01*
X022124Y015234D01*
X022050Y015160D01*
X022010Y015062D01*
X022010Y014957D01*
X022050Y014860D01*
X022080Y014830D01*
X020903Y014813D01*
X020903Y014857D01*
X020790Y014971D01*
X020790Y015062D01*
X020749Y015160D01*
X020675Y015234D01*
X020577Y015275D01*
X020472Y015275D01*
X020374Y015234D01*
X020300Y015160D01*
X020260Y015062D01*
X020260Y015012D02*
X019540Y015012D01*
X019521Y014913D02*
X020278Y014913D01*
X020345Y014815D02*
X019454Y014815D01*
X019562Y014697D02*
X019825Y014960D01*
X019562Y014697D02*
X019562Y014196D01*
X019759Y014196D02*
X019759Y012594D01*
X019025Y011860D01*
X018425Y011860D01*
X018925Y011460D02*
X019956Y012491D01*
X019956Y014196D01*
X020743Y014196D02*
X020743Y014791D01*
X020525Y015010D01*
X020770Y015110D02*
X022029Y015110D01*
X022010Y015012D02*
X020790Y015012D01*
X020847Y014913D02*
X022028Y014913D01*
X022275Y015010D02*
X022318Y014966D01*
X022318Y014196D01*
X022515Y014196D02*
X022515Y014800D01*
X022625Y014960D01*
X022660Y015012D02*
X022540Y015012D01*
X022520Y015110D02*
X022679Y015110D01*
X022749Y015209D02*
X022450Y015209D01*
X022521Y014913D02*
X022678Y014913D01*
X022908Y014993D02*
X022925Y015010D01*
X022908Y014993D02*
X022908Y014196D01*
X023302Y014196D02*
X023302Y012682D01*
X023675Y012310D01*
X028325Y012310D01*
X028525Y012110D01*
X036875Y012110D01*
X036932Y012167D01*
X037490Y012167D01*
X037490Y011852D02*
X036932Y011852D01*
X036875Y011910D01*
X028425Y011910D01*
X028225Y012110D01*
X023575Y012110D01*
X022121Y013563D01*
X022121Y014196D01*
X021924Y014196D02*
X021924Y013460D01*
X023475Y011910D01*
X028125Y011910D01*
X028325Y011710D01*
X036725Y011710D01*
X036897Y011537D01*
X037490Y011537D01*
X038159Y011537D02*
X042147Y011537D01*
X042425Y011260D01*
X042368Y012045D02*
X043160Y012045D01*
X043175Y012060D01*
X043190Y012045D01*
X043982Y012045D01*
X043982Y012675D02*
X042368Y012675D01*
X042353Y012660D01*
X041925Y012660D01*
X041775Y012810D01*
X037275Y012810D01*
X036625Y013460D01*
X036625Y014210D01*
X036926Y014208D02*
X036926Y017455D01*
X036729Y017455D02*
X036729Y016714D01*
X036625Y016610D01*
X036336Y016399D02*
X036525Y016210D01*
X036525Y015410D01*
X036275Y015660D02*
X036125Y015510D01*
X036125Y014760D01*
X036275Y015660D02*
X036275Y015910D01*
X036139Y016045D01*
X036139Y017455D01*
X036336Y017455D02*
X036336Y016399D01*
X035745Y016495D02*
X035459Y016210D01*
X035745Y016495D02*
X035745Y017455D01*
X035548Y017455D02*
X035548Y016983D01*
X035425Y016860D01*
X035942Y017455D02*
X035942Y015777D01*
X035825Y015660D01*
X034790Y016210D02*
X034790Y017425D01*
X035375Y018010D01*
X035444Y017880D02*
X035379Y017815D01*
X035379Y017710D01*
X035225Y017710D01*
X035225Y018058D01*
X035245Y018079D01*
X035245Y018265D01*
X035274Y018235D01*
X035372Y018195D01*
X035477Y018195D01*
X035575Y018235D01*
X035649Y018310D01*
X035690Y018407D01*
X035690Y018512D01*
X035649Y018610D01*
X035575Y018684D01*
X035477Y018725D01*
X035386Y018725D01*
X035374Y018737D01*
X035225Y018737D01*
X035225Y018846D01*
X035245Y018866D01*
X035245Y019763D01*
X035265Y019743D01*
X035358Y019650D01*
X036208Y019650D01*
X036410Y019448D01*
X036410Y019357D01*
X036450Y019260D01*
X036524Y019185D01*
X036622Y019145D01*
X036727Y019145D01*
X036825Y019185D01*
X036899Y019260D01*
X036940Y019357D01*
X036940Y019462D01*
X036899Y019560D01*
X036825Y019634D01*
X036727Y019675D01*
X036636Y019675D01*
X036341Y019970D01*
X035491Y019970D01*
X035346Y020115D01*
X035245Y020115D01*
X035245Y021241D01*
X035225Y021261D01*
X035225Y021460D01*
X035423Y021460D01*
X035444Y021439D01*
X036942Y021439D01*
X036910Y021362D01*
X036910Y021257D01*
X036950Y021160D01*
X037024Y021085D01*
X037122Y021045D01*
X037227Y021045D01*
X037325Y021085D01*
X037399Y021160D01*
X037440Y021257D01*
X037440Y021362D01*
X037408Y021439D01*
X038212Y021439D01*
X038232Y021460D01*
X038341Y021460D01*
X038341Y021338D01*
X038310Y021262D01*
X038310Y021157D01*
X038350Y021060D01*
X038424Y020985D01*
X038522Y020945D01*
X038627Y020945D01*
X038725Y020985D01*
X038799Y021060D01*
X038804Y021072D01*
X038804Y021031D01*
X038804Y020509D01*
X038800Y020509D01*
X038799Y020510D01*
X038725Y020584D01*
X038627Y020625D01*
X038522Y020625D01*
X038424Y020584D01*
X038350Y020510D01*
X038310Y020412D01*
X038310Y020307D01*
X038350Y020210D01*
X038424Y020135D01*
X038522Y020095D01*
X038627Y020095D01*
X038725Y020135D01*
X038778Y020189D01*
X038804Y020189D01*
X038804Y019720D01*
X038789Y019720D01*
X038725Y019784D01*
X038627Y019825D01*
X038522Y019825D01*
X038424Y019784D01*
X038350Y019710D01*
X038310Y019612D01*
X038310Y019507D01*
X038350Y019410D01*
X038424Y019335D01*
X038522Y019295D01*
X038627Y019295D01*
X038725Y019335D01*
X038789Y019400D01*
X038825Y019400D01*
X038825Y019292D01*
X038804Y019272D01*
X038804Y018655D01*
X038775Y018684D01*
X038677Y018725D01*
X038572Y018725D01*
X038474Y018684D01*
X038400Y018610D01*
X038360Y018512D01*
X038360Y018407D01*
X038400Y018310D01*
X038474Y018235D01*
X038572Y018195D01*
X038677Y018195D01*
X038739Y018220D01*
X038825Y018220D01*
X038825Y017725D01*
X038722Y017725D01*
X038686Y017710D01*
X038670Y017710D01*
X038670Y017815D01*
X038606Y017880D01*
X037874Y017880D01*
X037874Y017885D01*
X037875Y017885D01*
X037949Y017960D01*
X037990Y018057D01*
X037990Y018162D01*
X037949Y018260D01*
X037875Y018334D01*
X037777Y018375D01*
X037672Y018375D01*
X037574Y018334D01*
X037500Y018260D01*
X037460Y018162D01*
X037460Y018057D01*
X037500Y017960D01*
X037554Y017906D01*
X037554Y017824D01*
X037545Y017815D01*
X037545Y017710D01*
X037292Y017710D01*
X037292Y017815D01*
X037228Y017880D01*
X036758Y017880D01*
X036790Y017957D01*
X036790Y018062D01*
X036749Y018160D01*
X036675Y018234D01*
X036577Y018275D01*
X036472Y018275D01*
X036374Y018234D01*
X036300Y018160D01*
X036260Y018062D01*
X036260Y017957D01*
X036292Y017880D01*
X035444Y017880D01*
X035432Y017868D02*
X035225Y017868D01*
X035225Y017770D02*
X035379Y017770D01*
X035225Y017967D02*
X036260Y017967D01*
X036261Y018065D02*
X035231Y018065D01*
X035245Y018164D02*
X036304Y018164D01*
X036442Y018262D02*
X035602Y018262D01*
X035670Y018361D02*
X037638Y018361D01*
X037502Y018262D02*
X036607Y018262D01*
X036745Y018164D02*
X037460Y018164D01*
X037460Y018065D02*
X036788Y018065D01*
X036790Y017967D02*
X037497Y017967D01*
X037554Y017868D02*
X037239Y017868D01*
X037292Y017770D02*
X037545Y017770D01*
X037714Y017455D02*
X037714Y018099D01*
X037725Y018110D01*
X037811Y018361D02*
X038379Y018361D01*
X038360Y018459D02*
X035690Y018459D01*
X035671Y018558D02*
X038378Y018558D01*
X038446Y018656D02*
X035603Y018656D01*
X035425Y018460D02*
X035307Y018577D01*
X034820Y018577D01*
X034820Y018774D02*
X035339Y018774D01*
X035425Y018860D01*
X035232Y018853D02*
X038804Y018853D01*
X038804Y018755D02*
X035225Y018755D01*
X035245Y018952D02*
X038804Y018952D01*
X038804Y019050D02*
X035245Y019050D01*
X035245Y019149D02*
X036612Y019149D01*
X036737Y019149D02*
X038804Y019149D01*
X038804Y019247D02*
X036887Y019247D01*
X036935Y019346D02*
X038414Y019346D01*
X038336Y019444D02*
X036940Y019444D01*
X036906Y019543D02*
X038310Y019543D01*
X038322Y019641D02*
X037331Y019641D01*
X037349Y019660D02*
X037390Y019757D01*
X037390Y019862D01*
X037349Y019960D01*
X037275Y020034D01*
X037177Y020075D01*
X037072Y020075D01*
X036974Y020034D01*
X036900Y019960D01*
X036860Y019862D01*
X036860Y019757D01*
X036900Y019660D01*
X036974Y019585D01*
X037072Y019545D01*
X037177Y019545D01*
X037275Y019585D01*
X037349Y019660D01*
X037382Y019740D02*
X038380Y019740D01*
X038575Y019560D02*
X039228Y019560D01*
X039229Y019561D01*
X039229Y019364D02*
X038879Y019364D01*
X038725Y019210D01*
X038735Y019346D02*
X038825Y019346D01*
X038804Y019740D02*
X038769Y019740D01*
X038804Y019838D02*
X037390Y019838D01*
X037359Y019937D02*
X038804Y019937D01*
X038804Y020035D02*
X037273Y020035D01*
X036977Y020035D02*
X035425Y020035D01*
X035279Y019955D02*
X035425Y019810D01*
X036275Y019810D01*
X036675Y019410D01*
X036808Y019641D02*
X036918Y019641D01*
X036867Y019740D02*
X036571Y019740D01*
X036472Y019838D02*
X036860Y019838D01*
X036890Y019937D02*
X036374Y019937D01*
X036217Y019641D02*
X035245Y019641D01*
X035245Y019543D02*
X036315Y019543D01*
X036410Y019444D02*
X035245Y019444D01*
X035245Y019346D02*
X036414Y019346D01*
X036462Y019247D02*
X035245Y019247D01*
X034820Y019168D02*
X033582Y019168D01*
X033225Y018810D01*
X032929Y019364D02*
X034820Y019364D01*
X034820Y019561D02*
X032676Y019561D01*
X031925Y018810D01*
X031925Y013180D01*
X030925Y013180D02*
X030925Y013860D01*
X031625Y014560D01*
X031625Y018810D01*
X032573Y019758D01*
X034820Y019758D01*
X034820Y019955D02*
X035279Y019955D01*
X035245Y020134D02*
X038428Y020134D01*
X038341Y020232D02*
X035245Y020232D01*
X035245Y020331D02*
X038310Y020331D01*
X038317Y020429D02*
X037069Y020429D01*
X037099Y020460D02*
X037140Y020557D01*
X037140Y020662D01*
X037099Y020760D01*
X037025Y020834D01*
X036927Y020875D01*
X036822Y020875D01*
X036724Y020834D01*
X036650Y020760D01*
X036610Y020662D01*
X036610Y020557D01*
X036650Y020460D01*
X036724Y020385D01*
X036822Y020345D01*
X036927Y020345D01*
X037025Y020385D01*
X037099Y020460D01*
X037127Y020528D02*
X038368Y020528D01*
X038575Y020360D02*
X038586Y020349D01*
X039229Y020349D01*
X039237Y020160D02*
X040175Y020160D01*
X040075Y019760D02*
X040076Y019758D01*
X039229Y019758D01*
X039229Y019364D02*
X040564Y019364D01*
X040875Y019675D01*
X040875Y020344D02*
X040477Y020742D01*
X039229Y020742D01*
X039229Y020939D02*
X041195Y020939D01*
X041225Y020910D01*
X040651Y021136D02*
X039229Y021136D01*
X038804Y021020D02*
X038760Y021020D01*
X038804Y020922D02*
X035245Y020922D01*
X035245Y021020D02*
X038389Y021020D01*
X038325Y021119D02*
X037358Y021119D01*
X037423Y021217D02*
X038310Y021217D01*
X038332Y021316D02*
X037440Y021316D01*
X037418Y021414D02*
X038341Y021414D01*
X038304Y021439D02*
X038275Y021410D01*
X038304Y021439D02*
X038304Y021864D01*
X038107Y021864D02*
X038107Y022392D01*
X038325Y022610D01*
X040775Y022610D01*
X042125Y022610D02*
X040651Y021136D01*
X040875Y020344D02*
X042059Y020344D01*
X043175Y021460D01*
X044125Y021460D01*
X044278Y021613D01*
X044278Y021909D01*
X044475Y021909D02*
X044475Y021560D01*
X044175Y021260D01*
X043875Y021260D01*
X043775Y021160D01*
X043775Y020175D01*
X043425Y020175D01*
X043775Y020175D02*
X044222Y020175D01*
X044242Y020195D01*
X043425Y020844D02*
X043409Y020860D01*
X042975Y020860D01*
X043225Y021810D02*
X043631Y022216D01*
X043774Y022216D01*
X043774Y022413D02*
X043328Y022413D01*
X043225Y022310D01*
X042928Y022806D02*
X042525Y023210D01*
X042928Y022806D02*
X043774Y022806D01*
X043774Y022610D02*
X042125Y022610D01*
X042525Y023760D02*
X038525Y023760D01*
X037714Y022949D01*
X037714Y021864D01*
X037910Y021864D02*
X037910Y022645D01*
X038325Y023060D01*
X037675Y023410D02*
X037517Y023252D01*
X037517Y021864D01*
X037325Y021869D02*
X037325Y023760D01*
X038275Y024710D01*
X038825Y024560D02*
X037675Y023410D01*
X037075Y023110D02*
X036926Y022961D01*
X036926Y021864D01*
X036729Y021864D02*
X036725Y021869D01*
X036725Y023060D01*
X036875Y023210D01*
X036875Y023810D01*
X036725Y023960D01*
X036725Y024460D01*
X036975Y024710D01*
X036975Y025160D02*
X042525Y025160D01*
X041875Y025410D02*
X036925Y025410D01*
X035175Y023660D01*
X023775Y023660D01*
X023302Y023187D01*
X023302Y022543D01*
X023105Y022543D02*
X023105Y023290D01*
X023675Y023860D01*
X035075Y023860D01*
X036825Y025610D01*
X041775Y025610D01*
X043432Y027267D01*
X045490Y027267D01*
X045490Y026952D02*
X043417Y026952D01*
X041875Y025410D01*
X042525Y023760D02*
X043281Y023003D01*
X043774Y023003D01*
X044081Y023310D02*
X044081Y024003D01*
X043525Y024560D01*
X038825Y024560D01*
X037575Y024710D02*
X037075Y024210D01*
X037075Y023110D01*
X036675Y023360D02*
X036675Y023610D01*
X036525Y023760D01*
X036525Y024710D01*
X036975Y025160D01*
X037075Y026160D02*
X038275Y026160D01*
X038475Y026460D02*
X038775Y026160D01*
X038475Y026460D02*
X037075Y026460D01*
X034875Y024260D01*
X023425Y024260D01*
X022318Y023153D01*
X022318Y022543D01*
X022515Y022543D02*
X022515Y023050D01*
X023525Y024060D01*
X034975Y024060D01*
X037075Y026160D01*
X036975Y026660D02*
X038725Y026660D01*
X039225Y026160D01*
X041225Y027260D02*
X036675Y027260D01*
X035775Y026360D01*
X035075Y026360D01*
X034425Y025710D01*
X033825Y025710D01*
X033425Y025310D01*
X022975Y025310D01*
X021334Y023669D01*
X021334Y022543D01*
X021530Y022543D02*
X021530Y023565D01*
X023075Y025110D01*
X033525Y025110D01*
X033925Y025510D01*
X034525Y025510D01*
X035175Y026160D01*
X035875Y026160D01*
X036775Y027060D01*
X041475Y027060D01*
X041625Y027210D01*
X041475Y027510D02*
X041225Y027260D01*
X041475Y027510D02*
X042375Y027510D01*
X042675Y027810D02*
X035875Y027810D01*
X034725Y026660D01*
X029575Y026660D01*
X028625Y025710D01*
X022775Y025710D01*
X020940Y023875D01*
X020940Y022543D01*
X021137Y022543D02*
X021137Y023772D01*
X022875Y025510D01*
X029075Y025510D01*
X029575Y026010D01*
X027425Y026210D02*
X027125Y025910D01*
X022025Y025910D01*
X020349Y024234D01*
X020349Y022543D01*
X020152Y022543D02*
X020152Y024338D01*
X021925Y026110D01*
X026675Y026110D01*
X026775Y026210D01*
X025475Y026410D02*
X025375Y026310D01*
X021825Y026310D01*
X019956Y024441D01*
X019956Y022543D01*
X019759Y022543D02*
X019759Y024544D01*
X021725Y026510D01*
X024625Y026510D01*
X025025Y026910D01*
X034575Y026910D01*
X035725Y028060D01*
X042475Y028060D01*
X043147Y028732D01*
X045490Y028732D01*
X045490Y028417D02*
X043282Y028417D01*
X042675Y027810D01*
X043425Y028110D02*
X042175Y026860D01*
X036875Y026860D01*
X034725Y024710D01*
X023275Y024710D01*
X021924Y023359D01*
X021924Y022543D01*
X021727Y022543D02*
X021727Y023462D01*
X023175Y024910D01*
X034425Y024910D01*
X035375Y025860D01*
X034775Y024460D02*
X036975Y026660D01*
X034775Y024460D02*
X023325Y024460D01*
X022121Y023256D01*
X022121Y022543D01*
X022712Y022543D02*
X022712Y021897D01*
X022575Y021760D01*
X022671Y021513D02*
X024175Y021513D01*
X024175Y021611D02*
X024151Y021611D01*
X024175Y021414D02*
X017175Y021414D01*
X017175Y021316D02*
X024175Y021316D01*
X024175Y021217D02*
X022242Y021217D01*
X022225Y021234D02*
X022127Y021275D01*
X022022Y021275D01*
X021924Y021234D01*
X021850Y021160D01*
X021810Y021062D01*
X021810Y020957D01*
X021850Y020860D01*
X021924Y020785D01*
X022022Y020745D01*
X022127Y020745D01*
X022225Y020785D01*
X022299Y020860D01*
X022340Y020957D01*
X022340Y021062D01*
X022299Y021160D01*
X022225Y021234D01*
X022316Y021119D02*
X024175Y021119D01*
X024175Y021020D02*
X022340Y021020D01*
X022325Y020922D02*
X024175Y020922D01*
X024175Y020823D02*
X022263Y020823D01*
X021886Y020823D02*
X017585Y020823D01*
X017590Y020725D02*
X024175Y020725D01*
X024125Y020810D02*
X023975Y020960D01*
X023975Y021010D01*
X024800Y021010D01*
X024818Y021027D01*
X024818Y020830D02*
X024797Y020810D01*
X024125Y020810D01*
X024175Y020626D02*
X017556Y020626D01*
X017457Y020528D02*
X023818Y020528D01*
X023737Y020429D02*
X019930Y020429D01*
X019949Y020410D02*
X019875Y020484D01*
X019777Y020525D01*
X019672Y020525D01*
X019574Y020484D01*
X019500Y020410D01*
X019460Y020312D01*
X019460Y020207D01*
X019500Y020110D01*
X019574Y020035D01*
X017590Y020035D01*
X017581Y020134D02*
X019490Y020134D01*
X019460Y020232D02*
X017527Y020232D01*
X017325Y020060D02*
X017308Y020043D01*
X016471Y020043D01*
X016471Y020240D02*
X013695Y020240D01*
X011975Y021960D01*
X011975Y021510D02*
X013638Y019846D01*
X016471Y019846D01*
X016471Y019649D02*
X013435Y019649D01*
X011975Y021060D01*
X011825Y020310D02*
X012879Y019255D01*
X016471Y019255D01*
X016471Y019059D02*
X012576Y019059D01*
X011825Y019810D01*
X011825Y019310D02*
X012272Y018862D01*
X016471Y018862D01*
X016471Y018665D02*
X011269Y018665D01*
X011025Y018910D01*
X011025Y018460D02*
X016463Y018460D01*
X016471Y018468D01*
X016471Y018271D02*
X017321Y018271D01*
X017564Y018164D02*
X023876Y018164D01*
X023749Y018262D02*
X017586Y018262D01*
X017571Y018361D02*
X022549Y018361D01*
X022574Y018335D02*
X022672Y018295D01*
X022777Y018295D01*
X022875Y018335D01*
X022949Y018410D01*
X022990Y018507D01*
X022990Y018612D01*
X022949Y018710D01*
X022875Y018784D01*
X022777Y018825D01*
X022672Y018825D01*
X022574Y018784D01*
X022500Y018710D01*
X022460Y018612D01*
X022460Y018507D01*
X022500Y018410D01*
X022574Y018335D01*
X022479Y018459D02*
X017508Y018459D01*
X017175Y018558D02*
X022460Y018558D01*
X022478Y018656D02*
X017175Y018656D01*
X017175Y018755D02*
X022545Y018755D01*
X022904Y018755D02*
X024175Y018755D01*
X024175Y018853D02*
X017175Y018853D01*
X017175Y018952D02*
X024175Y018952D01*
X024175Y019050D02*
X017175Y019050D01*
X017175Y019149D02*
X024175Y019149D01*
X024175Y019247D02*
X024137Y019247D01*
X023982Y019452D02*
X023975Y019460D01*
X024264Y019649D01*
X024818Y019649D01*
X024818Y019452D02*
X023982Y019452D01*
X023812Y019247D02*
X017175Y019247D01*
X017175Y019346D02*
X023735Y019346D01*
X023710Y019444D02*
X017175Y019444D01*
X017175Y019543D02*
X023722Y019543D01*
X023781Y019641D02*
X017175Y019641D01*
X017175Y019740D02*
X024110Y019740D01*
X024175Y019838D02*
X017478Y019838D01*
X017561Y019937D02*
X024175Y019937D01*
X024125Y019910D02*
X024188Y019846D01*
X024818Y019846D01*
X026838Y019846D01*
X027009Y019675D01*
X027009Y019310D01*
X026340Y019310D02*
X026325Y019294D01*
X026325Y018860D01*
X024820Y018860D01*
X024818Y018862D01*
X024818Y018468D02*
X024033Y018468D01*
X023975Y018410D01*
X024072Y018656D02*
X024175Y018656D01*
X023877Y018656D02*
X022971Y018656D01*
X022990Y018558D02*
X023749Y018558D01*
X023710Y018459D02*
X022970Y018459D01*
X022900Y018361D02*
X023710Y018361D01*
X024073Y018164D02*
X024175Y018164D01*
X024175Y018065D02*
X017490Y018065D01*
X017175Y017967D02*
X024175Y017967D01*
X024175Y017868D02*
X017175Y017868D01*
X017175Y017770D02*
X024175Y017770D01*
X024175Y017671D02*
X017175Y017671D01*
X017175Y017573D02*
X024175Y017573D01*
X024175Y017474D02*
X017175Y017474D01*
X017175Y017376D02*
X024175Y017376D01*
X024152Y017287D02*
X024075Y017210D01*
X024175Y017179D02*
X017562Y017179D01*
X017590Y017080D02*
X024175Y017080D01*
X024175Y017277D02*
X017482Y017277D01*
X017294Y017090D02*
X016471Y017090D01*
X017175Y016785D02*
X023710Y016785D01*
X023718Y016883D02*
X017523Y016883D01*
X017579Y016982D02*
X023772Y016982D01*
X023975Y016810D02*
X024138Y016696D01*
X024818Y016696D01*
X024818Y016500D02*
X024115Y016500D01*
X023975Y016360D01*
X023741Y016489D02*
X017570Y016489D01*
X017628Y016391D02*
X023710Y016391D01*
X023716Y016292D02*
X017640Y016292D01*
X017613Y016194D02*
X023766Y016194D01*
X023921Y016095D02*
X017535Y016095D01*
X017375Y016310D02*
X016478Y016310D01*
X016471Y016303D01*
X013468Y016303D01*
X013425Y016260D01*
X012275Y015410D02*
X015325Y015410D01*
X015613Y015122D01*
X016471Y015122D01*
X017137Y015122D01*
X017225Y015210D01*
X017175Y015209D02*
X018449Y015209D01*
X018379Y015110D02*
X017175Y015110D01*
X017175Y015012D02*
X018360Y015012D01*
X018378Y014913D02*
X017175Y014913D01*
X017175Y014815D02*
X018445Y014815D01*
X018625Y015010D02*
X018775Y014810D01*
X018775Y014196D01*
X018775Y013110D01*
X018575Y012910D01*
X018971Y012656D02*
X018825Y012510D01*
X017975Y012510D01*
X015075Y009610D01*
X007725Y009610D01*
X007317Y009202D01*
X005859Y009202D01*
X005867Y009510D02*
X007225Y009510D01*
X007575Y009860D01*
X015025Y009860D01*
X018578Y013413D01*
X018578Y014196D01*
X018381Y014196D02*
X018381Y013516D01*
X016775Y011910D01*
X015975Y011910D01*
X015275Y012610D01*
X015275Y012710D01*
X015675Y012710D02*
X015675Y012610D01*
X016125Y012160D01*
X016725Y012160D01*
X017987Y013422D01*
X017987Y014196D01*
X017790Y014196D02*
X017790Y013475D01*
X016675Y012360D01*
X016325Y012360D01*
X016075Y012610D01*
X016075Y012710D01*
X016475Y012710D02*
X016775Y012710D01*
X017593Y013528D01*
X017593Y014196D01*
X017200Y014196D02*
X017200Y013885D01*
X017025Y013710D01*
X016309Y013710D01*
X015640Y013710D02*
X015640Y014244D01*
X015625Y014260D01*
X015605Y014280D01*
X015049Y014280D01*
X014380Y014280D02*
X013710Y013610D01*
X013625Y013610D01*
X013855Y014280D02*
X014380Y014280D01*
X013855Y014280D02*
X013362Y014772D01*
X012475Y014772D01*
X012275Y015410D02*
X011425Y014810D01*
X011425Y014010D01*
X010612Y013197D01*
X010125Y013197D01*
X008775Y013239D02*
X007325Y013239D01*
X007325Y013337D02*
X008775Y013337D01*
X008775Y013436D02*
X007325Y013436D01*
X007325Y013534D02*
X008775Y013534D01*
X008775Y013633D02*
X007325Y013633D01*
X007325Y013731D02*
X008775Y013731D01*
X008775Y013830D02*
X007325Y013830D01*
X007325Y013928D02*
X008775Y013928D01*
X008775Y013960D02*
X007325Y013960D01*
X007325Y012760D01*
X008775Y012760D01*
X008775Y013960D01*
X008775Y013140D02*
X007325Y013140D01*
X007325Y013042D02*
X008775Y013042D01*
X008775Y012943D02*
X007325Y012943D01*
X007325Y012845D02*
X008775Y012845D01*
X011725Y015610D02*
X015425Y015610D01*
X015716Y015318D01*
X016471Y015318D01*
X016466Y015510D02*
X016471Y015515D01*
X016466Y015510D02*
X015825Y015510D01*
X015375Y015960D01*
X012025Y015960D01*
X011025Y018060D02*
X016457Y018060D01*
X016471Y018074D01*
X017294Y017090D02*
X017325Y017060D01*
X017175Y016686D02*
X023739Y016686D01*
X023822Y016588D02*
X017175Y016588D01*
X017175Y016489D02*
X017179Y016489D01*
X017128Y016106D02*
X017275Y015960D01*
X017175Y015997D02*
X024175Y015997D01*
X024175Y016095D02*
X024029Y016095D01*
X024075Y015910D02*
X024075Y015909D01*
X024818Y015909D01*
X024818Y015712D02*
X025872Y015712D01*
X026075Y015510D01*
X026075Y014310D01*
X025725Y014610D02*
X025725Y014010D01*
X025375Y013760D02*
X024938Y014196D01*
X024089Y014196D01*
X023893Y014196D02*
X023893Y013842D01*
X024025Y013710D01*
X024525Y013710D01*
X024725Y013510D01*
X023825Y013510D02*
X023696Y013638D01*
X023696Y014196D01*
X023499Y014196D02*
X023499Y012785D01*
X023775Y012510D01*
X028425Y012510D01*
X028625Y012310D01*
X036725Y012310D01*
X036897Y012482D01*
X037490Y012482D01*
X038159Y012482D02*
X038697Y012482D01*
X038725Y012510D01*
X039067Y012167D02*
X038159Y012167D01*
X038159Y011852D02*
X040217Y011852D01*
X040225Y011860D01*
X039075Y012160D02*
X039067Y012167D01*
X037675Y013460D02*
X036926Y014208D01*
X037123Y014311D02*
X037123Y017455D01*
X036532Y017455D02*
X036532Y018002D01*
X036525Y018010D01*
X037952Y017967D02*
X038825Y017967D01*
X038825Y018065D02*
X037990Y018065D01*
X037989Y018164D02*
X038825Y018164D01*
X038898Y018183D02*
X038775Y018060D01*
X038898Y018183D02*
X039229Y018183D01*
X039229Y017605D01*
X040075Y016760D01*
X040075Y016260D01*
X040775Y015960D02*
X040785Y015950D01*
X041275Y015950D01*
X041275Y015190D02*
X040845Y015190D01*
X040825Y015210D01*
X039975Y015194D02*
X039959Y015210D01*
X039675Y015210D01*
X039575Y015110D01*
X039575Y014660D01*
X039440Y014525D01*
X039125Y014525D01*
X038475Y014110D02*
X039875Y014110D01*
X039975Y014210D01*
X039975Y014525D01*
X039125Y015194D02*
X038325Y015194D01*
X038304Y015215D01*
X038304Y017455D01*
X038107Y017455D02*
X038107Y016042D01*
X037825Y015760D01*
X037825Y015210D01*
X037990Y014525D02*
X037875Y014410D01*
X037875Y014110D01*
X037990Y014525D02*
X038325Y014525D01*
X038325Y014260D01*
X038475Y014110D01*
X037775Y013660D02*
X037123Y014311D01*
X037775Y013660D02*
X044425Y013660D01*
X044617Y013852D01*
X044617Y014275D01*
X044932Y014275D02*
X044932Y013817D01*
X044575Y013460D01*
X037675Y013460D01*
X034790Y016210D02*
X034175Y016210D01*
X033575Y016110D02*
X034425Y016960D01*
X034425Y017060D01*
X034125Y017460D02*
X034125Y018010D01*
X034298Y018183D01*
X034820Y018183D01*
X034820Y018380D02*
X033695Y018380D01*
X033275Y017960D01*
X033975Y017310D02*
X034125Y017460D01*
X035245Y018262D02*
X035247Y018262D01*
X034820Y018971D02*
X034436Y018971D01*
X034225Y018760D01*
X035245Y019740D02*
X035268Y019740D01*
X034820Y020152D02*
X032517Y020152D01*
X031275Y018910D01*
X031275Y016860D01*
X030875Y016460D01*
X030875Y014910D01*
X029925Y013960D01*
X029925Y013180D01*
X028925Y013180D02*
X028925Y013910D01*
X030475Y015460D01*
X030475Y016560D01*
X030975Y017060D01*
X030975Y019010D01*
X032314Y020349D01*
X034820Y020349D01*
X034820Y020545D02*
X032110Y020545D01*
X031325Y019760D01*
X029675Y019760D01*
X029625Y020710D02*
X031875Y020710D01*
X032425Y021260D01*
X033475Y021260D01*
X033795Y020939D01*
X034820Y020939D01*
X034820Y020742D02*
X033392Y020742D01*
X033225Y020910D01*
X034075Y021310D02*
X034248Y021136D01*
X034820Y021136D01*
X035245Y021119D02*
X036991Y021119D01*
X036926Y021217D02*
X035245Y021217D01*
X035225Y021316D02*
X036910Y021316D01*
X036931Y021414D02*
X035225Y021414D01*
X035548Y021864D02*
X035548Y022686D01*
X035475Y022760D01*
X035745Y022939D02*
X035475Y023210D01*
X030775Y023210D01*
X030625Y023060D01*
X030625Y021910D02*
X032075Y021910D01*
X032929Y019364D02*
X032225Y018660D01*
X032225Y016060D01*
X032275Y016010D01*
X033575Y016110D02*
X033575Y014460D01*
X030225Y017760D02*
X030146Y017681D01*
X024818Y017681D01*
X024818Y017878D02*
X029842Y017878D01*
X030225Y018260D01*
X027775Y020060D02*
X024818Y020043D01*
X024818Y020240D02*
X026605Y020240D01*
X026675Y020310D01*
X026675Y020594D01*
X026659Y020610D01*
X026975Y021010D02*
X026760Y021224D01*
X025990Y021224D01*
X025990Y020610D01*
X025990Y021224D02*
X024818Y021224D01*
X024818Y021421D02*
X025068Y021421D01*
X025070Y021420D01*
X027035Y021420D01*
X027275Y021660D01*
X027275Y022360D01*
X026725Y022460D02*
X026520Y022664D01*
X026520Y023260D01*
X025929Y023260D02*
X025409Y023260D01*
X025389Y023240D01*
X025389Y022024D01*
X025175Y021810D01*
X024818Y021810D01*
X024818Y021815D01*
X024818Y021618D02*
X025333Y021618D01*
X025725Y022010D01*
X025725Y022310D01*
X024818Y021421D02*
X024386Y021421D01*
X023975Y021010D01*
X024102Y020437D02*
X023975Y020310D01*
X024102Y020437D02*
X024818Y020437D01*
X024818Y020240D02*
X024305Y020240D01*
X024125Y020060D01*
X024125Y019910D01*
X024175Y020035D02*
X019875Y020035D01*
X019949Y020110D01*
X019990Y020207D01*
X019990Y020312D01*
X019949Y020410D01*
X019982Y020331D02*
X023710Y020331D01*
X023720Y020232D02*
X019990Y020232D01*
X019959Y020134D02*
X023776Y020134D01*
X024173Y020134D02*
X024175Y020134D01*
X022478Y021513D02*
X019084Y021513D01*
X019198Y021611D02*
X020598Y021611D01*
X020529Y021710D02*
X019235Y021710D01*
X019233Y021808D02*
X020510Y021808D01*
X020528Y021907D02*
X019190Y021907D01*
X018970Y021752D02*
X018970Y022541D01*
X018971Y022543D01*
X018775Y022543D02*
X018775Y021960D01*
X018675Y021860D01*
X018647Y021808D02*
X018706Y021808D01*
X018705Y021710D02*
X018650Y021710D01*
X018614Y021611D02*
X018741Y021611D01*
X018855Y021513D02*
X018505Y021513D01*
X018264Y021513D02*
X017175Y021513D01*
X017175Y021611D02*
X018155Y021611D01*
X018120Y021710D02*
X017175Y021710D01*
X017175Y021808D02*
X018122Y021808D01*
X018167Y021907D02*
X017175Y021907D01*
X017175Y021217D02*
X021907Y021217D01*
X021833Y021119D02*
X017175Y021119D01*
X017175Y021020D02*
X017261Y021020D01*
X017388Y021020D02*
X021810Y021020D01*
X021824Y020922D02*
X017537Y020922D01*
X017325Y020760D02*
X017198Y020633D01*
X016471Y020633D01*
X016471Y020437D02*
X013998Y020437D01*
X012475Y021960D01*
X012975Y021960D02*
X014104Y020830D01*
X016471Y020830D01*
X016471Y021027D02*
X014407Y021027D01*
X013925Y021510D01*
X013925Y021960D02*
X013475Y021960D01*
X013925Y021960D02*
X014660Y021224D01*
X016471Y021224D01*
X016471Y021618D02*
X015267Y021618D01*
X015075Y021810D01*
X015475Y021960D02*
X015620Y021815D01*
X016471Y021815D01*
X017200Y022543D02*
X017200Y023585D01*
X016725Y024060D01*
X017175Y024460D02*
X017397Y024238D01*
X017397Y022543D01*
X017593Y022543D02*
X017593Y024891D01*
X017497Y024987D01*
X017259Y024987D01*
X017259Y025302D02*
X017532Y025302D01*
X017790Y025044D01*
X017790Y022543D01*
X017987Y022543D02*
X017987Y025197D01*
X017567Y025617D01*
X017259Y025617D01*
X017259Y025932D02*
X017602Y025932D01*
X018184Y025350D01*
X018184Y022543D01*
X018381Y022543D02*
X018385Y022539D01*
X018385Y021750D01*
X018602Y021907D02*
X018749Y021907D01*
X018578Y022543D02*
X018575Y022546D01*
X018575Y024560D01*
X018875Y025010D02*
X018625Y025260D01*
X018625Y026310D01*
X017825Y027110D01*
X018025Y026260D02*
X016975Y027310D01*
X016975Y035810D01*
X015675Y037110D01*
X014025Y037110D01*
X012225Y038910D01*
X009925Y038910D01*
X008635Y040200D01*
X006765Y040200D01*
X005125Y038460D02*
X011975Y038460D01*
X012975Y037460D01*
X012975Y035160D01*
X012375Y035160D01*
X012375Y037160D01*
X011575Y037960D01*
X005375Y037960D01*
X004975Y037560D01*
X004975Y033760D01*
X004325Y033110D01*
X003325Y033110D01*
X003325Y033710D01*
X004175Y033710D01*
X004425Y033980D01*
X004425Y037760D01*
X005125Y038460D01*
X005120Y038455D02*
X011980Y038455D01*
X012078Y038356D02*
X005021Y038356D01*
X004923Y038258D02*
X012177Y038258D01*
X012275Y038159D02*
X004824Y038159D01*
X004726Y038061D02*
X012374Y038061D01*
X012472Y037962D02*
X004627Y037962D01*
X004529Y037864D02*
X005279Y037864D01*
X005180Y037765D02*
X004430Y037765D01*
X004425Y037667D02*
X005082Y037667D01*
X004983Y037568D02*
X004425Y037568D01*
X004425Y037470D02*
X004975Y037470D01*
X004975Y037371D02*
X004425Y037371D01*
X004425Y037273D02*
X004975Y037273D01*
X004975Y037174D02*
X004425Y037174D01*
X004425Y037076D02*
X004975Y037076D01*
X004975Y036977D02*
X004425Y036977D01*
X004425Y036879D02*
X004975Y036879D01*
X004975Y036780D02*
X004425Y036780D01*
X004425Y036682D02*
X004975Y036682D01*
X004975Y036583D02*
X004425Y036583D01*
X004425Y036485D02*
X004975Y036485D01*
X004975Y036386D02*
X004425Y036386D01*
X004425Y036288D02*
X004975Y036288D01*
X004975Y036189D02*
X004425Y036189D01*
X004425Y036091D02*
X004975Y036091D01*
X004975Y035992D02*
X004425Y035992D01*
X004425Y035894D02*
X004975Y035894D01*
X004975Y035795D02*
X004425Y035795D01*
X004425Y035697D02*
X004975Y035697D01*
X004975Y035598D02*
X004425Y035598D01*
X004425Y035500D02*
X004975Y035500D01*
X004975Y035401D02*
X004425Y035401D01*
X004425Y035303D02*
X004975Y035303D01*
X004975Y035204D02*
X004425Y035204D01*
X004425Y035106D02*
X004975Y035106D01*
X004975Y035007D02*
X004425Y035007D01*
X004425Y034909D02*
X004975Y034909D01*
X004975Y034810D02*
X004425Y034810D01*
X004425Y034712D02*
X004975Y034712D01*
X004975Y034613D02*
X004425Y034613D01*
X004425Y034515D02*
X004975Y034515D01*
X004975Y034416D02*
X004425Y034416D01*
X004425Y034318D02*
X004975Y034318D01*
X004975Y034219D02*
X004425Y034219D01*
X004425Y034121D02*
X004975Y034121D01*
X004975Y034022D02*
X004425Y034022D01*
X004373Y033924D02*
X004975Y033924D01*
X004975Y033825D02*
X004282Y033825D01*
X004190Y033727D02*
X004942Y033727D01*
X004843Y033628D02*
X003325Y033628D01*
X003325Y033530D02*
X004745Y033530D01*
X004646Y033431D02*
X003325Y033431D01*
X003325Y033333D02*
X004548Y033333D01*
X004449Y033234D02*
X003325Y033234D01*
X003325Y033136D02*
X004351Y033136D01*
X004504Y032939D02*
X005404Y032939D01*
X005502Y033037D02*
X004602Y033037D01*
X004701Y033136D02*
X005601Y033136D01*
X005699Y033234D02*
X004799Y033234D01*
X004898Y033333D02*
X005725Y033333D01*
X005725Y033260D02*
X004775Y032310D01*
X003325Y032310D01*
X003325Y032910D01*
X004475Y032910D01*
X005175Y033610D01*
X005175Y037460D01*
X005425Y037710D01*
X009575Y037710D01*
X009775Y037510D01*
X009775Y035160D01*
X009175Y035160D01*
X009175Y037260D01*
X005725Y037260D01*
X005725Y033260D01*
X005725Y033431D02*
X004996Y033431D01*
X005095Y033530D02*
X005725Y033530D01*
X005725Y033628D02*
X005175Y033628D01*
X005175Y033727D02*
X005725Y033727D01*
X005725Y033825D02*
X005175Y033825D01*
X005175Y033924D02*
X005725Y033924D01*
X005725Y034022D02*
X005175Y034022D01*
X005175Y034121D02*
X005725Y034121D01*
X005725Y034219D02*
X005175Y034219D01*
X005175Y034318D02*
X005725Y034318D01*
X005725Y034416D02*
X005175Y034416D01*
X005175Y034515D02*
X005725Y034515D01*
X005725Y034613D02*
X005175Y034613D01*
X005175Y034712D02*
X005725Y034712D01*
X005725Y034810D02*
X005175Y034810D01*
X005175Y034909D02*
X005725Y034909D01*
X005725Y035007D02*
X005175Y035007D01*
X005175Y035106D02*
X005725Y035106D01*
X005725Y035204D02*
X005175Y035204D01*
X005175Y035303D02*
X005725Y035303D01*
X005725Y035401D02*
X005175Y035401D01*
X005175Y035500D02*
X005725Y035500D01*
X005725Y035598D02*
X005175Y035598D01*
X005175Y035697D02*
X005725Y035697D01*
X005725Y035795D02*
X005175Y035795D01*
X005175Y035894D02*
X005725Y035894D01*
X005725Y035992D02*
X005175Y035992D01*
X005175Y036091D02*
X005725Y036091D01*
X005725Y036189D02*
X005175Y036189D01*
X005175Y036288D02*
X005725Y036288D01*
X005725Y036386D02*
X005175Y036386D01*
X005175Y036485D02*
X005725Y036485D01*
X005725Y036583D02*
X005175Y036583D01*
X005175Y036682D02*
X005725Y036682D01*
X005725Y036780D02*
X005175Y036780D01*
X005175Y036879D02*
X005725Y036879D01*
X005725Y036977D02*
X005175Y036977D01*
X005175Y037076D02*
X005725Y037076D01*
X005725Y037174D02*
X005175Y037174D01*
X005175Y037273D02*
X009775Y037273D01*
X009775Y037371D02*
X005175Y037371D01*
X005185Y037470D02*
X009775Y037470D01*
X009716Y037568D02*
X005283Y037568D01*
X005382Y037667D02*
X009618Y037667D01*
X009775Y037174D02*
X009175Y037174D01*
X009175Y037076D02*
X009775Y037076D01*
X009775Y036977D02*
X009175Y036977D01*
X009175Y036879D02*
X009775Y036879D01*
X009775Y036780D02*
X009175Y036780D01*
X009175Y036682D02*
X009775Y036682D01*
X009775Y036583D02*
X009175Y036583D01*
X009175Y036485D02*
X009775Y036485D01*
X009775Y036386D02*
X009175Y036386D01*
X009175Y036288D02*
X009775Y036288D01*
X009775Y036189D02*
X009175Y036189D01*
X009175Y036091D02*
X009775Y036091D01*
X009775Y035992D02*
X009175Y035992D01*
X009175Y035894D02*
X009775Y035894D01*
X009775Y035795D02*
X009175Y035795D01*
X009175Y035697D02*
X009775Y035697D01*
X009775Y035598D02*
X009175Y035598D01*
X009175Y035500D02*
X009775Y035500D01*
X009775Y035401D02*
X009175Y035401D01*
X009175Y035303D02*
X009775Y035303D01*
X009775Y035204D02*
X009175Y035204D01*
X009425Y035660D02*
X010375Y034710D01*
X010975Y034710D01*
X011425Y034260D01*
X012375Y035204D02*
X012975Y035204D01*
X012975Y035303D02*
X012375Y035303D01*
X012375Y035401D02*
X012975Y035401D01*
X012975Y035500D02*
X012375Y035500D01*
X012375Y035598D02*
X012975Y035598D01*
X012975Y035697D02*
X012375Y035697D01*
X012375Y035795D02*
X012975Y035795D01*
X012975Y035894D02*
X012375Y035894D01*
X012375Y035992D02*
X012975Y035992D01*
X012975Y036091D02*
X012375Y036091D01*
X012375Y036189D02*
X012975Y036189D01*
X012975Y036288D02*
X012375Y036288D01*
X012375Y036386D02*
X012975Y036386D01*
X012975Y036485D02*
X012375Y036485D01*
X012375Y036583D02*
X012975Y036583D01*
X012975Y036682D02*
X012375Y036682D01*
X012375Y036780D02*
X012975Y036780D01*
X012975Y036879D02*
X012375Y036879D01*
X012375Y036977D02*
X012975Y036977D01*
X012975Y037076D02*
X012375Y037076D01*
X012360Y037174D02*
X012975Y037174D01*
X012975Y037273D02*
X012262Y037273D01*
X012163Y037371D02*
X012975Y037371D01*
X012965Y037470D02*
X012065Y037470D01*
X011966Y037568D02*
X012866Y037568D01*
X012768Y037667D02*
X011868Y037667D01*
X011769Y037765D02*
X012669Y037765D01*
X012571Y037864D02*
X011671Y037864D01*
X012625Y035660D02*
X013575Y034710D01*
X014175Y034710D01*
X014625Y034260D01*
X015675Y034219D02*
X016575Y034219D01*
X016575Y034310D02*
X016575Y033410D01*
X015699Y033410D01*
X015711Y033422D01*
X015711Y033867D01*
X015675Y033903D01*
X015675Y034310D01*
X016575Y034310D01*
X016575Y034121D02*
X015675Y034121D01*
X015675Y034022D02*
X016575Y034022D01*
X016575Y033924D02*
X015675Y033924D01*
X015711Y033825D02*
X016575Y033825D01*
X016575Y033727D02*
X015711Y033727D01*
X015711Y033628D02*
X016575Y033628D01*
X016575Y033530D02*
X015711Y033530D01*
X015711Y033431D02*
X016575Y033431D01*
X016447Y032975D02*
X016447Y031832D01*
X016019Y031404D01*
X015549Y031404D01*
X015549Y031660D02*
X015875Y031660D01*
X016132Y031917D01*
X016132Y032975D01*
X015817Y032975D02*
X015817Y032002D01*
X015731Y031916D01*
X015549Y031916D01*
X014801Y031916D02*
X014625Y031916D01*
X014525Y032016D01*
X014525Y032160D01*
X014625Y032260D01*
X014625Y032510D01*
X014801Y031660D02*
X012275Y031660D01*
X011425Y032510D01*
X009331Y031404D02*
X008225Y032510D01*
X009331Y031404D02*
X014801Y031404D01*
X017375Y028560D02*
X019225Y026710D01*
X024425Y026710D01*
X024875Y027160D01*
X034125Y027160D01*
X034325Y027360D01*
X033725Y028210D02*
X033725Y033760D01*
X035025Y035060D01*
X035025Y038810D01*
X031562Y035660D02*
X032475Y034747D01*
X032475Y034260D01*
X031125Y033960D02*
X029625Y033960D01*
X029625Y032660D01*
X031125Y032660D01*
X031125Y033960D01*
X031125Y033924D02*
X029625Y033924D01*
X029625Y033825D02*
X031125Y033825D01*
X031125Y033727D02*
X029625Y033727D01*
X029625Y033628D02*
X031125Y033628D01*
X031125Y033530D02*
X029625Y033530D01*
X029625Y033431D02*
X031125Y033431D01*
X031125Y033333D02*
X029625Y033333D01*
X029625Y033234D02*
X031125Y033234D01*
X031125Y033136D02*
X029625Y033136D01*
X029625Y033037D02*
X031125Y033037D01*
X031125Y032939D02*
X029625Y032939D01*
X029625Y032840D02*
X031125Y032840D01*
X031125Y032742D02*
X029625Y032742D01*
X029275Y032510D02*
X029275Y032060D01*
X029025Y031810D01*
X026275Y031810D01*
X026025Y031560D01*
X025199Y031560D01*
X025199Y031816D02*
X025831Y031816D01*
X026075Y032060D01*
X026075Y032510D01*
X026375Y031510D02*
X032151Y031510D01*
X032475Y031833D01*
X032475Y032510D01*
X035825Y032110D02*
X035825Y031260D01*
X036675Y031260D01*
X036675Y032110D01*
X035825Y032110D01*
X035825Y032052D02*
X036675Y032052D01*
X036675Y031954D02*
X035825Y031954D01*
X035825Y031855D02*
X036675Y031855D01*
X036675Y031757D02*
X035825Y031757D01*
X035825Y031658D02*
X036675Y031658D01*
X036675Y031560D02*
X035825Y031560D01*
X035825Y031461D02*
X036675Y031461D01*
X036675Y031363D02*
X035825Y031363D01*
X035825Y031264D02*
X036675Y031264D01*
X037109Y031352D02*
X037111Y031354D01*
X037901Y031354D01*
X037901Y031610D02*
X037625Y031610D01*
X037567Y031667D01*
X037109Y031667D01*
X037109Y031982D02*
X037552Y031982D01*
X037669Y031866D01*
X037901Y031866D01*
X038649Y031866D02*
X038781Y031866D01*
X038925Y032010D01*
X038925Y032510D01*
X038649Y031610D02*
X041901Y031610D01*
X042125Y031833D01*
X042125Y032510D01*
X044845Y031354D02*
X038649Y031354D01*
X043425Y028110D02*
X043432Y028102D01*
X045490Y028102D01*
X046159Y028102D02*
X047167Y028102D01*
X047475Y028410D01*
X047475Y031810D01*
X047700Y032035D01*
X048231Y032035D01*
X048231Y032429D02*
X047594Y032429D01*
X047225Y032060D01*
X047225Y028610D01*
X047032Y028417D01*
X046159Y028417D01*
X046159Y028732D02*
X046697Y028732D01*
X046925Y028960D01*
X046925Y032310D01*
X047437Y032822D01*
X048231Y032822D01*
X048224Y033210D02*
X047525Y033210D01*
X048224Y033210D02*
X048231Y033216D01*
X048231Y031641D02*
X048231Y030766D01*
X048225Y030760D01*
X048237Y028772D02*
X048775Y028772D01*
X048237Y028772D02*
X047225Y027760D01*
X046652Y027760D01*
X046159Y027267D01*
X046159Y026952D02*
X046917Y026952D01*
X047162Y027197D01*
X048775Y027197D01*
X048425Y023994D02*
X049790Y023994D01*
X049875Y023910D01*
X047369Y022860D02*
X047364Y022864D01*
X046881Y022864D01*
X046625Y022864D02*
X046625Y023310D01*
X046369Y022864D02*
X045979Y022864D01*
X045725Y022610D01*
X045175Y022610D01*
X045175Y022806D02*
X045371Y022806D01*
X045575Y023010D01*
X045568Y023003D01*
X045175Y023003D01*
X044868Y023310D02*
X044868Y022610D01*
X044475Y022610D01*
X044278Y022806D01*
X044278Y022860D01*
X044225Y022860D01*
X044278Y022860D02*
X044278Y023310D01*
X044475Y023310D02*
X044475Y023710D01*
X044671Y023506D02*
X044990Y023825D01*
X044990Y024060D01*
X044671Y023506D02*
X044671Y023310D01*
X045175Y022413D02*
X045721Y022413D01*
X045979Y022155D01*
X046369Y022155D01*
X046625Y022155D02*
X046625Y021710D01*
X046881Y022155D02*
X046885Y022160D01*
X047275Y022160D01*
X046725Y020760D02*
X046725Y020294D01*
X047190Y020294D01*
X047475Y020010D01*
X047475Y019760D01*
X047595Y019640D01*
X048139Y019640D01*
X048139Y019010D02*
X046975Y019010D01*
X046725Y019260D01*
X046659Y019194D01*
X045875Y019194D01*
X045790Y019110D01*
X045125Y019110D01*
X044617Y018602D01*
X044617Y014944D01*
X044159Y014944D01*
X044009Y014794D01*
X044009Y014560D01*
X043340Y014560D02*
X043125Y014560D01*
X042775Y014910D01*
X042775Y015160D01*
X042365Y015570D01*
X042075Y015570D01*
X039675Y017810D02*
X039875Y018010D01*
X039875Y018310D01*
X039607Y018577D01*
X039229Y018577D01*
X039229Y018774D02*
X039960Y018774D01*
X040025Y018710D01*
X039229Y018380D02*
X038704Y018380D01*
X038625Y018460D01*
X038803Y018656D02*
X038804Y018656D01*
X038447Y018262D02*
X037947Y018262D01*
X038617Y017868D02*
X038825Y017868D01*
X038825Y017770D02*
X038670Y017770D01*
X038775Y017460D02*
X038770Y017455D01*
X038501Y017455D01*
X038722Y020134D02*
X038804Y020134D01*
X038781Y020528D02*
X038804Y020528D01*
X038804Y020626D02*
X037140Y020626D01*
X037114Y020725D02*
X038804Y020725D01*
X038804Y020823D02*
X037036Y020823D01*
X036713Y020823D02*
X035245Y020823D01*
X035245Y020725D02*
X036635Y020725D01*
X036610Y020626D02*
X035245Y020626D01*
X035245Y020528D02*
X036622Y020528D01*
X036680Y020429D02*
X035245Y020429D01*
X035745Y021864D02*
X035745Y022939D01*
X035942Y023092D02*
X035575Y023460D01*
X028525Y023460D01*
X027825Y022760D01*
X027825Y021410D01*
X027425Y021010D01*
X026975Y021010D01*
X026325Y018860D02*
X026325Y018494D01*
X026340Y018510D01*
X026325Y018494D02*
X026325Y018460D01*
X025700Y017484D02*
X025825Y017360D01*
X025700Y017484D02*
X024818Y017484D01*
X024818Y017287D02*
X024152Y017287D01*
X024818Y016893D02*
X026441Y016893D01*
X027025Y016310D01*
X027025Y014660D01*
X026425Y014660D02*
X026425Y015810D01*
X026128Y016106D01*
X024818Y016106D01*
X024818Y016303D02*
X025518Y016303D01*
X025725Y016510D01*
X025675Y015310D02*
X024818Y015310D01*
X024818Y015318D01*
X024818Y015122D02*
X025213Y015122D01*
X025725Y014610D01*
X024818Y014925D02*
X024109Y014925D01*
X023975Y015060D01*
X024069Y015307D02*
X024175Y015307D01*
X024175Y015406D02*
X020104Y015406D01*
X020077Y015395D02*
X020175Y015435D01*
X020249Y015510D01*
X020290Y015607D01*
X020290Y015712D01*
X020249Y015810D01*
X020175Y015884D01*
X020077Y015925D01*
X019972Y015925D01*
X019874Y015884D01*
X019800Y015810D01*
X019760Y015712D01*
X019760Y015607D01*
X019800Y015510D01*
X019874Y015435D01*
X019972Y015395D01*
X020077Y015395D01*
X019945Y015406D02*
X017175Y015406D01*
X017175Y015504D02*
X019805Y015504D01*
X019761Y015603D02*
X017175Y015603D01*
X017175Y015701D02*
X019760Y015701D01*
X019796Y015800D02*
X017175Y015800D01*
X017175Y015898D02*
X019908Y015898D01*
X020141Y015898D02*
X024175Y015898D01*
X024175Y015800D02*
X020253Y015800D01*
X020290Y015701D02*
X024175Y015701D01*
X024175Y015603D02*
X020288Y015603D01*
X020244Y015504D02*
X024175Y015504D01*
X023880Y015307D02*
X017175Y015307D01*
X016471Y014925D02*
X015740Y014925D01*
X015575Y014760D01*
X016471Y016106D02*
X017128Y016106D01*
X017175Y016095D02*
X017214Y016095D01*
X018800Y015209D02*
X019099Y015209D01*
X019029Y015110D02*
X018870Y015110D01*
X018890Y015012D02*
X019010Y015012D01*
X019015Y014913D02*
X018897Y014913D01*
X018937Y014815D02*
X019015Y014815D01*
X019450Y015209D02*
X020349Y015209D01*
X020700Y015209D02*
X022099Y015209D01*
X023100Y015209D02*
X023750Y015209D01*
X023710Y015110D02*
X023170Y015110D01*
X023190Y015012D02*
X023710Y015012D01*
X023748Y014913D02*
X023171Y014913D01*
X021530Y014196D02*
X021530Y013604D01*
X021647Y013487D01*
X021647Y012944D01*
X021332Y012944D02*
X021332Y014195D01*
X021334Y014196D01*
X021137Y014196D02*
X021137Y013622D01*
X021017Y013502D01*
X021017Y012944D01*
X020702Y012944D02*
X020702Y013487D01*
X020940Y013725D01*
X020940Y014196D01*
X020903Y014815D02*
X021027Y014815D01*
X019175Y014203D02*
X019168Y014196D01*
X018971Y014196D02*
X018971Y012656D01*
X021625Y012253D02*
X021647Y012275D01*
X020275Y009810D02*
X019475Y009810D01*
X019475Y008860D01*
X020275Y008860D01*
X020275Y009810D01*
X020275Y009791D02*
X019475Y009791D01*
X019475Y009693D02*
X020275Y009693D01*
X020275Y009594D02*
X019475Y009594D01*
X019475Y009496D02*
X020275Y009496D01*
X020275Y009397D02*
X019475Y009397D01*
X019475Y009299D02*
X020275Y009299D01*
X020275Y009200D02*
X019475Y009200D01*
X019475Y009102D02*
X020275Y009102D01*
X020275Y009003D02*
X019475Y009003D01*
X019475Y008905D02*
X020275Y008905D01*
X020197Y008375D02*
X020197Y007632D01*
X019819Y007254D01*
X019249Y007254D01*
X019249Y007510D02*
X019625Y007510D01*
X019882Y007767D01*
X019882Y008375D01*
X019567Y008375D02*
X019567Y007902D01*
X019431Y007766D01*
X019249Y007766D01*
X018501Y007254D02*
X015819Y007254D01*
X015675Y007110D01*
X015675Y006810D01*
X024825Y007360D02*
X024875Y011510D01*
X027775Y011510D01*
X027725Y007360D01*
X024825Y007360D01*
X024825Y007427D02*
X027725Y007427D01*
X027727Y007526D02*
X024827Y007526D01*
X024828Y007624D02*
X027728Y007624D01*
X027729Y007723D02*
X024829Y007723D01*
X024830Y007821D02*
X027730Y007821D01*
X027731Y007920D02*
X024831Y007920D01*
X024833Y008018D02*
X027733Y008018D01*
X027734Y008117D02*
X024834Y008117D01*
X024835Y008215D02*
X027735Y008215D01*
X027736Y008314D02*
X024836Y008314D01*
X024837Y008412D02*
X027737Y008412D01*
X027738Y008511D02*
X024838Y008511D01*
X024840Y008609D02*
X027740Y008609D01*
X027741Y008708D02*
X024841Y008708D01*
X024842Y008806D02*
X027742Y008806D01*
X027743Y008905D02*
X024843Y008905D01*
X024844Y009003D02*
X027744Y009003D01*
X027746Y009102D02*
X024846Y009102D01*
X024847Y009200D02*
X027747Y009200D01*
X027748Y009299D02*
X024848Y009299D01*
X024849Y009397D02*
X027749Y009397D01*
X027750Y009496D02*
X024850Y009496D01*
X024852Y009594D02*
X027752Y009594D01*
X027753Y009693D02*
X024853Y009693D01*
X024854Y009791D02*
X027754Y009791D01*
X027755Y009890D02*
X024855Y009890D01*
X024856Y009988D02*
X027756Y009988D01*
X027757Y010087D02*
X024857Y010087D01*
X024859Y010185D02*
X027759Y010185D01*
X027760Y010284D02*
X024860Y010284D01*
X024861Y010382D02*
X027761Y010382D01*
X027762Y010481D02*
X024862Y010481D01*
X024863Y010579D02*
X027763Y010579D01*
X027765Y010678D02*
X024865Y010678D01*
X024866Y010776D02*
X027766Y010776D01*
X027767Y010875D02*
X024867Y010875D01*
X024868Y010973D02*
X027768Y010973D01*
X027769Y011072D02*
X024869Y011072D01*
X024871Y011170D02*
X027771Y011170D01*
X027772Y011269D02*
X024872Y011269D01*
X024873Y011367D02*
X027773Y011367D01*
X027774Y011466D02*
X024874Y011466D01*
X028925Y009640D02*
X029925Y009640D01*
X029925Y008610D01*
X029575Y008260D01*
X029575Y007010D01*
X029403Y006838D01*
X029072Y006838D01*
X030268Y004866D02*
X032475Y004866D01*
X032475Y004768D02*
X030367Y004768D01*
X030465Y004669D02*
X032475Y004669D01*
X032475Y004571D02*
X030564Y004571D01*
X030662Y004472D02*
X032475Y004472D01*
X032475Y004374D02*
X030761Y004374D01*
X030859Y004275D02*
X032475Y004275D01*
X032475Y004177D02*
X030958Y004177D01*
X030975Y004078D02*
X032475Y004078D01*
X032475Y003980D02*
X030975Y003980D01*
X030975Y003881D02*
X032475Y003881D01*
X032475Y003783D02*
X030975Y003783D01*
X030975Y003684D02*
X032475Y003684D01*
X032475Y003586D02*
X030975Y003586D01*
X030975Y003487D02*
X032475Y003487D01*
X032475Y003389D02*
X030975Y003389D01*
X030975Y003290D02*
X032475Y003290D01*
X032475Y003192D02*
X030975Y003192D01*
X030975Y003093D02*
X032475Y003093D01*
X032475Y002995D02*
X030975Y002995D01*
X030975Y002896D02*
X032475Y002896D01*
X032475Y002798D02*
X030975Y002798D01*
X030975Y002699D02*
X032475Y002699D01*
X032475Y002601D02*
X030975Y002601D01*
X030975Y002502D02*
X032475Y002502D01*
X032475Y002404D02*
X030975Y002404D01*
X030975Y002305D02*
X032475Y002305D01*
X032475Y002207D02*
X030975Y002207D01*
X032470Y004965D02*
X025870Y004965D01*
X025771Y005063D02*
X032371Y005063D01*
X032273Y005162D02*
X025673Y005162D01*
X025574Y005260D02*
X032174Y005260D01*
X032076Y005359D02*
X025476Y005359D01*
X030375Y008710D02*
X033725Y008710D01*
X034125Y009110D01*
X034125Y010910D01*
X033545Y009640D02*
X033725Y009460D01*
X033545Y009640D02*
X031925Y009640D01*
X030925Y009640D02*
X030925Y009110D01*
X030825Y009010D01*
X030675Y009010D01*
X030375Y008710D01*
X033825Y008110D02*
X033825Y007160D01*
X034231Y007160D01*
X034267Y007196D01*
X034713Y007196D01*
X034725Y007184D01*
X034725Y008110D01*
X033825Y008110D01*
X033825Y008018D02*
X034725Y008018D01*
X034725Y007920D02*
X033825Y007920D01*
X033825Y007821D02*
X034725Y007821D01*
X034725Y007723D02*
X033825Y007723D01*
X033825Y007624D02*
X034725Y007624D01*
X034725Y007526D02*
X033825Y007526D01*
X033825Y007427D02*
X034725Y007427D01*
X034725Y007329D02*
X033825Y007329D01*
X033825Y007230D02*
X034725Y007230D01*
X035159Y007302D02*
X035467Y007302D01*
X035519Y007354D01*
X035751Y007354D01*
X035751Y007610D02*
X035167Y007610D01*
X035159Y007617D01*
X035159Y007932D02*
X035452Y007932D01*
X035519Y007866D01*
X035751Y007866D01*
X036499Y007866D02*
X043045Y007866D01*
X043275Y007636D01*
X043275Y006960D01*
X045025Y006935D02*
X045525Y006935D01*
X045525Y007033D02*
X045025Y007033D01*
X045025Y007132D02*
X045525Y007132D01*
X045525Y007230D02*
X045025Y007230D01*
X045025Y007329D02*
X045525Y007329D01*
X045525Y007427D02*
X045025Y007427D01*
X045025Y007526D02*
X045525Y007526D01*
X045525Y007624D02*
X045025Y007624D01*
X045025Y007723D02*
X045525Y007723D01*
X045525Y007810D02*
X045525Y002310D01*
X045025Y002310D01*
X045025Y008060D01*
X047025Y010060D01*
X048570Y010060D01*
X048584Y010046D01*
X048625Y010046D01*
X048625Y009510D01*
X047225Y009510D01*
X045525Y007810D01*
X045536Y007821D02*
X045025Y007821D01*
X045025Y007920D02*
X045635Y007920D01*
X045733Y008018D02*
X045025Y008018D01*
X045082Y008117D02*
X045832Y008117D01*
X045930Y008215D02*
X045180Y008215D01*
X045279Y008314D02*
X046029Y008314D01*
X046127Y008412D02*
X045377Y008412D01*
X045476Y008511D02*
X046226Y008511D01*
X046324Y008609D02*
X045574Y008609D01*
X045673Y008708D02*
X046423Y008708D01*
X046521Y008806D02*
X045771Y008806D01*
X045870Y008905D02*
X046620Y008905D01*
X046718Y009003D02*
X045968Y009003D01*
X046067Y009102D02*
X046817Y009102D01*
X046915Y009200D02*
X046165Y009200D01*
X046264Y009299D02*
X047014Y009299D01*
X047112Y009397D02*
X046362Y009397D01*
X046461Y009496D02*
X047211Y009496D01*
X047325Y009310D02*
X048625Y009310D01*
X048625Y008710D01*
X047475Y008710D01*
X046225Y007460D01*
X046225Y001960D01*
X045825Y001560D01*
X042125Y001560D01*
X041825Y001910D01*
X041825Y004210D01*
X042325Y004210D01*
X042325Y002060D01*
X042425Y001960D01*
X045625Y001960D01*
X045725Y002060D01*
X045725Y007710D01*
X047325Y009310D01*
X047314Y009299D02*
X048625Y009299D01*
X048625Y009200D02*
X047215Y009200D01*
X047117Y009102D02*
X048625Y009102D01*
X048625Y009003D02*
X047018Y009003D01*
X046920Y008905D02*
X048625Y008905D01*
X048625Y008806D02*
X046821Y008806D01*
X046723Y008708D02*
X047473Y008708D01*
X047374Y008609D02*
X046624Y008609D01*
X046526Y008511D02*
X047276Y008511D01*
X047177Y008412D02*
X046427Y008412D01*
X046329Y008314D02*
X047079Y008314D01*
X046980Y008215D02*
X046230Y008215D01*
X046132Y008117D02*
X046882Y008117D01*
X046783Y008018D02*
X046033Y008018D01*
X045935Y007920D02*
X046685Y007920D01*
X046586Y007821D02*
X045836Y007821D01*
X045738Y007723D02*
X046488Y007723D01*
X046389Y007624D02*
X045725Y007624D01*
X045725Y007526D02*
X046291Y007526D01*
X046225Y007427D02*
X045725Y007427D01*
X045725Y007329D02*
X046225Y007329D01*
X046225Y007230D02*
X045725Y007230D01*
X045725Y007132D02*
X046225Y007132D01*
X046225Y007033D02*
X045725Y007033D01*
X045725Y006935D02*
X046225Y006935D01*
X046225Y006836D02*
X045725Y006836D01*
X045725Y006738D02*
X046225Y006738D01*
X046225Y006639D02*
X045725Y006639D01*
X045725Y006541D02*
X046225Y006541D01*
X046225Y006442D02*
X045725Y006442D01*
X045725Y006344D02*
X046225Y006344D01*
X046225Y006245D02*
X045725Y006245D01*
X045725Y006147D02*
X046225Y006147D01*
X046225Y006048D02*
X045725Y006048D01*
X045725Y005950D02*
X046225Y005950D01*
X046225Y005851D02*
X045725Y005851D01*
X045725Y005753D02*
X046225Y005753D01*
X046225Y005654D02*
X045725Y005654D01*
X045725Y005556D02*
X046225Y005556D01*
X046225Y005457D02*
X045725Y005457D01*
X045725Y005359D02*
X046225Y005359D01*
X046225Y005260D02*
X045725Y005260D01*
X045725Y005162D02*
X046225Y005162D01*
X046225Y005063D02*
X045725Y005063D01*
X045725Y004965D02*
X046225Y004965D01*
X046225Y004866D02*
X045725Y004866D01*
X045725Y004768D02*
X046225Y004768D01*
X046225Y004669D02*
X045725Y004669D01*
X045725Y004571D02*
X046225Y004571D01*
X046225Y004472D02*
X045725Y004472D01*
X045725Y004374D02*
X046225Y004374D01*
X046225Y004275D02*
X045725Y004275D01*
X045725Y004177D02*
X046225Y004177D01*
X046225Y004078D02*
X045725Y004078D01*
X045725Y003980D02*
X046225Y003980D01*
X046225Y003881D02*
X045725Y003881D01*
X045725Y003783D02*
X046225Y003783D01*
X046225Y003684D02*
X045725Y003684D01*
X045725Y003586D02*
X046225Y003586D01*
X046225Y003487D02*
X045725Y003487D01*
X045725Y003389D02*
X046225Y003389D01*
X046225Y003290D02*
X045725Y003290D01*
X045725Y003192D02*
X046225Y003192D01*
X046225Y003093D02*
X045725Y003093D01*
X045725Y002995D02*
X046225Y002995D01*
X046225Y002896D02*
X045725Y002896D01*
X045725Y002798D02*
X046225Y002798D01*
X046225Y002699D02*
X045725Y002699D01*
X045725Y002601D02*
X046225Y002601D01*
X046225Y002502D02*
X045725Y002502D01*
X045725Y002404D02*
X046225Y002404D01*
X046225Y002305D02*
X045725Y002305D01*
X045725Y002207D02*
X046225Y002207D01*
X046225Y002108D02*
X045725Y002108D01*
X045675Y002010D02*
X046225Y002010D01*
X046176Y001911D02*
X041825Y001911D01*
X041825Y002010D02*
X042375Y002010D01*
X042325Y002108D02*
X041825Y002108D01*
X041825Y002207D02*
X042325Y002207D01*
X042325Y002305D02*
X041825Y002305D01*
X041825Y002404D02*
X042325Y002404D01*
X042325Y002502D02*
X041825Y002502D01*
X041825Y002601D02*
X042325Y002601D01*
X042325Y002699D02*
X041825Y002699D01*
X041825Y002798D02*
X042325Y002798D01*
X042325Y002896D02*
X041825Y002896D01*
X041825Y002995D02*
X042325Y002995D01*
X042325Y003093D02*
X041825Y003093D01*
X041825Y003192D02*
X042325Y003192D01*
X042325Y003290D02*
X041825Y003290D01*
X041825Y003389D02*
X042325Y003389D01*
X042325Y003487D02*
X041825Y003487D01*
X041825Y003586D02*
X042325Y003586D01*
X042325Y003684D02*
X041825Y003684D01*
X041825Y003783D02*
X042325Y003783D01*
X042325Y003881D02*
X041825Y003881D01*
X041825Y003980D02*
X042325Y003980D01*
X042325Y004078D02*
X041825Y004078D01*
X041825Y004177D02*
X042325Y004177D01*
X041908Y001813D02*
X046078Y001813D01*
X045979Y001714D02*
X041992Y001714D01*
X042077Y001616D02*
X045881Y001616D01*
X046134Y001419D02*
X046784Y001419D01*
X046882Y001517D02*
X046232Y001517D01*
X046331Y001616D02*
X046981Y001616D01*
X047075Y001710D02*
X046275Y000910D01*
X039825Y000910D01*
X038625Y002110D01*
X038625Y004260D01*
X039125Y004260D01*
X039125Y002310D01*
X040125Y001310D01*
X046025Y001310D01*
X046575Y001860D01*
X046575Y007460D01*
X047625Y008510D01*
X048625Y008510D01*
X048625Y007910D01*
X047775Y007910D01*
X047075Y007210D01*
X047075Y001710D01*
X047075Y001714D02*
X046429Y001714D01*
X046528Y001813D02*
X047075Y001813D01*
X047075Y001911D02*
X046575Y001911D01*
X046575Y002010D02*
X047075Y002010D01*
X047075Y002108D02*
X046575Y002108D01*
X046575Y002207D02*
X047075Y002207D01*
X047075Y002305D02*
X046575Y002305D01*
X046575Y002404D02*
X047075Y002404D01*
X047075Y002502D02*
X046575Y002502D01*
X046575Y002601D02*
X047075Y002601D01*
X047075Y002699D02*
X046575Y002699D01*
X046575Y002798D02*
X047075Y002798D01*
X047075Y002896D02*
X046575Y002896D01*
X046575Y002995D02*
X047075Y002995D01*
X047075Y003093D02*
X046575Y003093D01*
X046575Y003192D02*
X047075Y003192D01*
X047075Y003290D02*
X046575Y003290D01*
X046575Y003389D02*
X047075Y003389D01*
X047075Y003487D02*
X046575Y003487D01*
X046575Y003586D02*
X047075Y003586D01*
X047075Y003684D02*
X046575Y003684D01*
X046575Y003783D02*
X047075Y003783D01*
X047075Y003881D02*
X046575Y003881D01*
X046575Y003980D02*
X047075Y003980D01*
X047075Y004078D02*
X046575Y004078D01*
X046575Y004177D02*
X047075Y004177D01*
X047075Y004275D02*
X046575Y004275D01*
X046575Y004374D02*
X047075Y004374D01*
X047075Y004472D02*
X046575Y004472D01*
X046575Y004571D02*
X047075Y004571D01*
X047075Y004669D02*
X046575Y004669D01*
X046575Y004768D02*
X047075Y004768D01*
X047075Y004866D02*
X046575Y004866D01*
X046575Y004965D02*
X047075Y004965D01*
X047075Y005063D02*
X046575Y005063D01*
X046575Y005162D02*
X047075Y005162D01*
X047075Y005260D02*
X046575Y005260D01*
X046575Y005359D02*
X047075Y005359D01*
X047075Y005457D02*
X046575Y005457D01*
X046575Y005556D02*
X047075Y005556D01*
X047075Y005654D02*
X046575Y005654D01*
X046575Y005753D02*
X047075Y005753D01*
X047075Y005851D02*
X046575Y005851D01*
X046575Y005950D02*
X047075Y005950D01*
X047075Y006048D02*
X046575Y006048D01*
X046575Y006147D02*
X047075Y006147D01*
X047075Y006245D02*
X046575Y006245D01*
X046575Y006344D02*
X047075Y006344D01*
X047075Y006442D02*
X046575Y006442D01*
X046575Y006541D02*
X047075Y006541D01*
X047075Y006639D02*
X046575Y006639D01*
X046575Y006738D02*
X047075Y006738D01*
X047075Y006836D02*
X046575Y006836D01*
X046575Y006935D02*
X047075Y006935D01*
X047075Y007033D02*
X046575Y007033D01*
X046575Y007132D02*
X047075Y007132D01*
X047095Y007230D02*
X046575Y007230D01*
X046575Y007329D02*
X047194Y007329D01*
X047292Y007427D02*
X046575Y007427D01*
X046641Y007526D02*
X047391Y007526D01*
X047489Y007624D02*
X046739Y007624D01*
X046838Y007723D02*
X047588Y007723D01*
X047686Y007821D02*
X046936Y007821D01*
X047035Y007920D02*
X048625Y007920D01*
X048625Y008018D02*
X047133Y008018D01*
X047232Y008117D02*
X048625Y008117D01*
X048625Y008215D02*
X047330Y008215D01*
X047429Y008314D02*
X048625Y008314D01*
X048625Y008412D02*
X047527Y008412D01*
X047831Y007616D02*
X047525Y007310D01*
X047525Y007010D01*
X047831Y007616D02*
X048231Y007616D01*
X048231Y007222D02*
X048887Y007222D01*
X048925Y007260D01*
X049225Y006960D02*
X049094Y006829D01*
X048231Y006829D01*
X048231Y006435D02*
X049300Y006435D01*
X049525Y006660D01*
X049556Y006041D02*
X050425Y006910D01*
X050425Y012310D01*
X049925Y012810D01*
X048775Y012810D01*
X048625Y009988D02*
X046953Y009988D01*
X046855Y009890D02*
X048625Y009890D01*
X048625Y009791D02*
X046756Y009791D01*
X046658Y009693D02*
X048625Y009693D01*
X048625Y009594D02*
X046559Y009594D01*
X045525Y006836D02*
X045025Y006836D01*
X045025Y006738D02*
X045525Y006738D01*
X045525Y006639D02*
X045025Y006639D01*
X045025Y006541D02*
X045525Y006541D01*
X045525Y006442D02*
X045025Y006442D01*
X045025Y006344D02*
X045525Y006344D01*
X045525Y006245D02*
X045025Y006245D01*
X045025Y006147D02*
X045525Y006147D01*
X045525Y006048D02*
X045025Y006048D01*
X045025Y005950D02*
X045525Y005950D01*
X045525Y005851D02*
X045025Y005851D01*
X045025Y005753D02*
X045525Y005753D01*
X045525Y005654D02*
X045025Y005654D01*
X045025Y005556D02*
X045525Y005556D01*
X045525Y005457D02*
X045025Y005457D01*
X045025Y005359D02*
X045525Y005359D01*
X045525Y005260D02*
X045025Y005260D01*
X045025Y005162D02*
X045525Y005162D01*
X045525Y005063D02*
X045025Y005063D01*
X045025Y004965D02*
X045525Y004965D01*
X045525Y004866D02*
X045025Y004866D01*
X045025Y004768D02*
X045525Y004768D01*
X045525Y004669D02*
X045025Y004669D01*
X045025Y004571D02*
X045525Y004571D01*
X045525Y004472D02*
X045025Y004472D01*
X045025Y004374D02*
X045525Y004374D01*
X045525Y004275D02*
X045025Y004275D01*
X045025Y004177D02*
X045525Y004177D01*
X045525Y004078D02*
X045025Y004078D01*
X045025Y003980D02*
X045525Y003980D01*
X045525Y003881D02*
X045025Y003881D01*
X045025Y003783D02*
X045525Y003783D01*
X045525Y003684D02*
X045025Y003684D01*
X045025Y003586D02*
X045525Y003586D01*
X045525Y003487D02*
X045025Y003487D01*
X045025Y003389D02*
X045525Y003389D01*
X045525Y003290D02*
X045025Y003290D01*
X045025Y003192D02*
X045525Y003192D01*
X045525Y003093D02*
X045025Y003093D01*
X045025Y002995D02*
X045525Y002995D01*
X045525Y002896D02*
X045025Y002896D01*
X045025Y002798D02*
X045525Y002798D01*
X045525Y002699D02*
X045025Y002699D01*
X045025Y002601D02*
X045525Y002601D01*
X045525Y002502D02*
X045025Y002502D01*
X045025Y002404D02*
X045525Y002404D01*
X046035Y001320D02*
X046685Y001320D01*
X046587Y001222D02*
X039513Y001222D01*
X039611Y001123D02*
X046488Y001123D01*
X046390Y001025D02*
X039710Y001025D01*
X039808Y000926D02*
X046291Y000926D01*
X048231Y006041D02*
X049556Y006041D01*
X044705Y012675D02*
X043982Y012675D01*
X044705Y012675D02*
X044730Y012700D01*
X044932Y014944D02*
X044932Y015660D01*
X044982Y015610D01*
X045340Y015610D01*
X044932Y015660D02*
X044932Y018067D01*
X045390Y018525D01*
X045875Y018525D01*
X046790Y018525D01*
X046960Y018695D01*
X048139Y018695D01*
X048139Y018380D02*
X047610Y018380D01*
X047275Y018044D01*
X047275Y017375D02*
X047275Y016544D01*
X047259Y016560D01*
X046675Y016560D01*
X046725Y019260D02*
X046725Y019625D01*
X045925Y019710D02*
X045925Y020175D01*
X045905Y020825D02*
X045108Y020825D01*
X045108Y021377D01*
X044868Y021616D01*
X044868Y021909D01*
X044671Y021909D02*
X044671Y021363D01*
X044675Y021360D01*
X045175Y022216D02*
X045418Y022216D01*
X045575Y022060D01*
X045925Y020844D02*
X045905Y020825D01*
X039237Y020160D02*
X039229Y020152D01*
X038575Y021210D02*
X038501Y021283D01*
X038501Y021864D01*
X037325Y021869D02*
X037320Y021864D01*
X037123Y021864D02*
X037123Y021361D01*
X037175Y021310D01*
X036532Y021864D02*
X036532Y023210D01*
X036575Y023260D01*
X036675Y023360D01*
X036336Y023410D02*
X036325Y023410D01*
X036336Y023410D02*
X036336Y021864D01*
X036139Y021864D02*
X036139Y023195D01*
X035975Y023360D01*
X035975Y023960D01*
X036075Y024060D01*
X035942Y023092D02*
X035942Y021864D01*
X024720Y023240D02*
X024720Y023241D01*
X024719Y023243D01*
X024717Y023243D01*
X024717Y023242D02*
X024170Y023242D01*
X024089Y022543D02*
X024089Y021925D01*
X023975Y021810D01*
X023728Y021907D02*
X022872Y021907D01*
X022908Y021926D02*
X023075Y021760D01*
X022849Y021808D02*
X023710Y021808D01*
X023729Y021710D02*
X022840Y021710D01*
X022800Y021611D02*
X023798Y021611D01*
X022908Y021926D02*
X022908Y022543D01*
X022349Y021907D02*
X021021Y021907D01*
X021040Y021808D02*
X022310Y021808D01*
X022310Y021710D02*
X021020Y021710D01*
X020951Y021611D02*
X022349Y021611D01*
X020775Y021810D02*
X020743Y021841D01*
X020743Y022543D01*
X020546Y022543D02*
X020546Y023931D01*
X022225Y025610D01*
X021575Y027010D02*
X019825Y028760D01*
X020820Y028514D02*
X020820Y029670D01*
X020809Y029660D01*
X020820Y029670D02*
X020820Y031372D01*
X021017Y031372D02*
X021017Y030733D01*
X021290Y030460D01*
X021290Y028594D01*
X022575Y027310D01*
X021525Y027660D02*
X021525Y027810D01*
X020820Y028514D01*
X020229Y030510D02*
X020159Y030510D01*
X020229Y030510D02*
X020229Y031372D01*
X019737Y031668D02*
X019729Y031660D01*
X019325Y031660D01*
X019140Y031660D01*
X018925Y031875D01*
X018925Y032544D02*
X019032Y032652D01*
X019737Y032652D01*
X019637Y032947D02*
X019325Y033260D01*
X019690Y033494D02*
X019825Y033360D01*
X020075Y033360D01*
X020229Y033205D01*
X020229Y032947D01*
X020032Y032947D02*
X019637Y032947D01*
X019690Y033494D02*
X019690Y033810D01*
X019675Y034210D02*
X019675Y034460D01*
X019775Y034560D01*
X019675Y034210D02*
X018025Y034210D01*
X018725Y035225D02*
X019575Y035225D01*
X020106Y035225D01*
X020172Y035160D01*
X020241Y035632D02*
X020241Y036094D01*
X020240Y036100D01*
X020236Y036105D01*
X020231Y036109D01*
X020225Y036110D01*
X021008Y035632D02*
X021008Y036810D01*
X021025Y036810D01*
X021077Y035160D02*
X021625Y035160D01*
X021825Y034960D01*
X021825Y032810D01*
X021667Y032652D01*
X021312Y032652D01*
X021017Y032947D02*
X021017Y034679D01*
X021008Y034687D01*
X020625Y034210D02*
X019675Y034210D01*
X020359Y033810D02*
X020426Y033743D01*
X020426Y032947D01*
X020623Y032947D02*
X020820Y032947D01*
X020820Y034014D01*
X020625Y034210D01*
X017375Y036010D02*
X017375Y028560D01*
X016590Y025932D02*
X015802Y025932D01*
X013675Y028060D01*
X011425Y028060D01*
X010675Y027310D01*
X011225Y027310D02*
X011775Y027860D01*
X013575Y027860D01*
X015817Y025617D01*
X016590Y025617D01*
X016590Y025302D02*
X015832Y025302D01*
X013475Y027660D01*
X012125Y027660D01*
X011775Y027310D01*
X012275Y027310D02*
X013525Y027310D01*
X015847Y024987D01*
X016590Y024987D01*
X018975Y025560D02*
X019168Y025366D01*
X019168Y022543D01*
X019365Y022543D02*
X019365Y025350D01*
X019575Y025560D01*
X020175Y025560D02*
X020175Y025260D01*
X019562Y024647D01*
X019562Y022543D01*
X019519Y020429D02*
X017175Y020429D01*
X017175Y020331D02*
X019467Y020331D01*
X019574Y020035D02*
X019672Y019995D01*
X019777Y019995D01*
X019875Y020035D01*
X017325Y019460D02*
X017317Y019452D01*
X016471Y019452D01*
X010875Y021110D02*
X010875Y022210D01*
X009875Y022210D01*
X009875Y021110D01*
X010875Y021110D01*
X010875Y021119D02*
X009875Y021119D01*
X009875Y021217D02*
X010875Y021217D01*
X010875Y021316D02*
X009875Y021316D01*
X009875Y021414D02*
X010875Y021414D01*
X010875Y021513D02*
X009875Y021513D01*
X009875Y021611D02*
X010875Y021611D01*
X010875Y021710D02*
X009875Y021710D01*
X009875Y021808D02*
X010875Y021808D01*
X010875Y021907D02*
X009875Y021907D01*
X009875Y022005D02*
X010875Y022005D01*
X010875Y022104D02*
X009875Y022104D01*
X009875Y022202D02*
X010875Y022202D01*
X009975Y020060D02*
X008575Y020060D01*
X008575Y018560D01*
X009975Y018560D01*
X009975Y020060D01*
X009975Y020035D02*
X008575Y020035D01*
X008575Y019937D02*
X009975Y019937D01*
X009975Y019838D02*
X008575Y019838D01*
X008575Y019740D02*
X009975Y019740D01*
X009975Y019641D02*
X008575Y019641D01*
X008575Y019543D02*
X009975Y019543D01*
X009975Y019444D02*
X008575Y019444D01*
X008575Y019346D02*
X009975Y019346D01*
X009975Y019247D02*
X008575Y019247D01*
X008575Y019149D02*
X009975Y019149D01*
X009975Y019050D02*
X008575Y019050D01*
X008575Y018952D02*
X009975Y018952D01*
X009975Y018853D02*
X008575Y018853D01*
X008575Y018755D02*
X009975Y018755D01*
X009975Y018656D02*
X008575Y018656D01*
X003725Y019060D02*
X003725Y019554D01*
X003725Y019947D02*
X002187Y019947D01*
X002175Y019960D01*
X002343Y020341D02*
X002175Y020510D01*
X002343Y020341D02*
X003725Y020341D01*
X003725Y020735D02*
X002449Y020735D01*
X002175Y020910D01*
X002406Y021129D02*
X003725Y021129D01*
X003725Y021522D02*
X002362Y021522D01*
X002175Y021710D01*
X002368Y021916D02*
X003725Y021916D01*
X003725Y022310D02*
X003725Y022760D01*
X002368Y021916D02*
X002175Y022110D01*
X002175Y021310D02*
X002406Y021129D01*
X007890Y025810D02*
X007910Y025790D01*
X005125Y031560D02*
X003379Y031560D01*
X005125Y031560D01*
X006525Y032960D01*
X006525Y037060D01*
X005975Y037060D01*
X005975Y033110D01*
X004975Y032110D01*
X003325Y032110D01*
X003325Y031573D01*
X003365Y031573D01*
X003379Y031560D01*
X003325Y031658D02*
X005223Y031658D01*
X005322Y031757D02*
X003325Y031757D01*
X003325Y031855D02*
X005420Y031855D01*
X005519Y031954D02*
X003325Y031954D01*
X003325Y032052D02*
X005617Y032052D01*
X005716Y032151D02*
X005016Y032151D01*
X005114Y032249D02*
X005814Y032249D01*
X005913Y032348D02*
X005213Y032348D01*
X005311Y032446D02*
X006011Y032446D01*
X006110Y032545D02*
X005410Y032545D01*
X005508Y032643D02*
X006208Y032643D01*
X006307Y032742D02*
X005607Y032742D01*
X005705Y032840D02*
X006405Y032840D01*
X006504Y032939D02*
X005804Y032939D01*
X005902Y033037D02*
X006525Y033037D01*
X006525Y033136D02*
X005975Y033136D01*
X005975Y033234D02*
X006525Y033234D01*
X006525Y033333D02*
X005975Y033333D01*
X005975Y033431D02*
X006525Y033431D01*
X006525Y033530D02*
X005975Y033530D01*
X005975Y033628D02*
X006525Y033628D01*
X006525Y033727D02*
X005975Y033727D01*
X005975Y033825D02*
X006525Y033825D01*
X006525Y033924D02*
X005975Y033924D01*
X005975Y034022D02*
X006525Y034022D01*
X006525Y034121D02*
X005975Y034121D01*
X005975Y034219D02*
X006525Y034219D01*
X006525Y034318D02*
X005975Y034318D01*
X005975Y034416D02*
X006525Y034416D01*
X006525Y034515D02*
X005975Y034515D01*
X005975Y034613D02*
X006525Y034613D01*
X006525Y034712D02*
X005975Y034712D01*
X005975Y034810D02*
X006525Y034810D01*
X006525Y034909D02*
X005975Y034909D01*
X005975Y035007D02*
X006525Y035007D01*
X006525Y035106D02*
X005975Y035106D01*
X005975Y035204D02*
X006525Y035204D01*
X006525Y035303D02*
X005975Y035303D01*
X005975Y035401D02*
X006525Y035401D01*
X006525Y035500D02*
X005975Y035500D01*
X005975Y035598D02*
X006525Y035598D01*
X006525Y035697D02*
X005975Y035697D01*
X005975Y035795D02*
X006525Y035795D01*
X006525Y035894D02*
X005975Y035894D01*
X005975Y035992D02*
X006525Y035992D01*
X006525Y036091D02*
X005975Y036091D01*
X005975Y036189D02*
X006525Y036189D01*
X006525Y036288D02*
X005975Y036288D01*
X005975Y036386D02*
X006525Y036386D01*
X006525Y036485D02*
X005975Y036485D01*
X005975Y036583D02*
X006525Y036583D01*
X006525Y036682D02*
X005975Y036682D01*
X005975Y036780D02*
X006525Y036780D01*
X006525Y036879D02*
X005975Y036879D01*
X005975Y036977D02*
X006525Y036977D01*
X006225Y035660D02*
X007175Y034710D01*
X007775Y034710D01*
X008225Y034260D01*
X005305Y032840D02*
X003325Y032840D01*
X003325Y032742D02*
X005207Y032742D01*
X005108Y032643D02*
X003325Y032643D01*
X003325Y032545D02*
X005010Y032545D01*
X004911Y032446D02*
X003325Y032446D01*
X003325Y032348D02*
X004813Y032348D01*
X003719Y034003D02*
X003031Y034003D01*
X003025Y034010D01*
X002725Y034310D02*
X002812Y034397D01*
X003719Y034397D01*
X003719Y034791D02*
X002606Y034791D01*
X002425Y034610D01*
X002125Y034910D02*
X002399Y035184D01*
X003719Y035184D01*
X003719Y035578D02*
X003719Y036166D01*
X003675Y036210D01*
X014125Y037660D02*
X014325Y037460D01*
X015925Y037460D01*
X017375Y036010D01*
X014125Y037660D02*
X014125Y038275D01*
X014090Y038310D01*
X023152Y031037D02*
X023931Y031816D01*
X024451Y031816D01*
X024451Y031560D02*
X024025Y031560D01*
X023467Y031002D01*
X023467Y030494D01*
X023152Y030494D02*
X023152Y031037D01*
X023782Y030967D02*
X023782Y030494D01*
X023782Y030967D02*
X024119Y031304D01*
X024451Y031304D01*
X025199Y031304D02*
X026169Y031304D01*
X026375Y031510D01*
X023875Y030010D02*
X023875Y029260D01*
X023025Y029260D01*
X023025Y030010D01*
X023875Y030010D01*
X023875Y029984D02*
X023025Y029984D01*
X023025Y029885D02*
X023875Y029885D01*
X023875Y029787D02*
X023025Y029787D01*
X023025Y029688D02*
X023875Y029688D01*
X023875Y029590D02*
X023025Y029590D01*
X023025Y029491D02*
X023875Y029491D01*
X023875Y029393D02*
X023025Y029393D01*
X023025Y029294D02*
X023875Y029294D01*
X026075Y034260D02*
X026075Y034747D01*
X025162Y035660D01*
X024075Y035660D01*
X027275Y035660D02*
X028362Y035660D01*
X029275Y034747D01*
X029275Y034260D01*
X030475Y035660D02*
X031562Y035660D01*
X044845Y031354D02*
X045325Y031833D01*
X045325Y032510D01*
X039775Y007610D02*
X036499Y007610D01*
X036499Y007354D02*
X036781Y007354D01*
X036875Y007260D01*
X036875Y006960D01*
X039775Y007610D02*
X040075Y007310D01*
X040075Y006960D01*
X039125Y004177D02*
X038625Y004177D01*
X038625Y004078D02*
X039125Y004078D01*
X039125Y003980D02*
X038625Y003980D01*
X038625Y003881D02*
X039125Y003881D01*
X039125Y003783D02*
X038625Y003783D01*
X038625Y003684D02*
X039125Y003684D01*
X039125Y003586D02*
X038625Y003586D01*
X038625Y003487D02*
X039125Y003487D01*
X039125Y003389D02*
X038625Y003389D01*
X038625Y003290D02*
X039125Y003290D01*
X039125Y003192D02*
X038625Y003192D01*
X038625Y003093D02*
X039125Y003093D01*
X039125Y002995D02*
X038625Y002995D01*
X038625Y002896D02*
X039125Y002896D01*
X039125Y002798D02*
X038625Y002798D01*
X038625Y002699D02*
X039125Y002699D01*
X039125Y002601D02*
X038625Y002601D01*
X038625Y002502D02*
X039125Y002502D01*
X039125Y002404D02*
X038625Y002404D01*
X038625Y002305D02*
X039129Y002305D01*
X039228Y002207D02*
X038625Y002207D01*
X038626Y002108D02*
X039326Y002108D01*
X039425Y002010D02*
X038725Y002010D01*
X038823Y001911D02*
X039523Y001911D01*
X039622Y001813D02*
X038922Y001813D01*
X039020Y001714D02*
X039720Y001714D01*
X039819Y001616D02*
X039119Y001616D01*
X039217Y001517D02*
X039917Y001517D01*
X040016Y001419D02*
X039316Y001419D01*
X039414Y001320D02*
X040114Y001320D01*
X005867Y009510D02*
X005859Y009517D01*
D64*
X004975Y010710D03*
X002575Y008410D03*
X006525Y006860D03*
X007525Y006860D03*
X007775Y008310D03*
X008025Y008760D03*
X011575Y008410D03*
X012475Y006860D03*
X013475Y006860D03*
X014575Y006460D03*
X014575Y006010D03*
X014575Y005560D03*
X015675Y005060D03*
X016675Y005060D03*
X017925Y005560D03*
X017925Y006010D03*
X017925Y006460D03*
X016675Y006810D03*
X015675Y006810D03*
X016975Y008360D03*
X017175Y008860D03*
X019125Y010510D03*
X018725Y010910D03*
X018925Y011460D03*
X018425Y011860D03*
X018575Y012910D03*
X020275Y013560D03*
X020525Y015010D03*
X021275Y015010D03*
X022275Y015010D03*
X022925Y015010D03*
X023975Y015060D03*
X023975Y016360D03*
X023975Y016810D03*
X023975Y017810D03*
X023975Y018410D03*
X023975Y019460D03*
X023975Y020310D03*
X023975Y021010D03*
X023975Y021810D03*
X022575Y021760D03*
X022075Y021010D03*
X020775Y021810D03*
X018970Y021752D03*
X018385Y021750D03*
X017325Y020760D03*
X017325Y020060D03*
X017325Y019460D03*
X017321Y018271D03*
X017325Y017060D03*
X017375Y016310D03*
X018625Y015010D03*
X019275Y015010D03*
X020025Y015660D03*
X022725Y018560D03*
X025825Y017360D03*
X025725Y016510D03*
X025675Y015310D03*
X026425Y014660D03*
X026075Y014310D03*
X025725Y014010D03*
X025375Y013760D03*
X024725Y013510D03*
X023825Y013510D03*
X022025Y012910D03*
X019975Y011110D03*
X020075Y009610D03*
X019675Y009610D03*
X022775Y007460D03*
X022775Y007060D03*
X023225Y006810D03*
X023625Y006810D03*
X024075Y007060D03*
X024075Y007460D03*
X025425Y006110D03*
X023575Y004910D03*
X025425Y004260D03*
X027625Y006810D03*
X029575Y008260D03*
X030375Y008710D03*
X032025Y010610D03*
X032325Y010910D03*
X032625Y010610D03*
X032925Y010910D03*
X033225Y010610D03*
X034125Y010910D03*
X034625Y010910D03*
X034875Y011310D03*
X033725Y009460D03*
X034075Y007860D03*
X034075Y007410D03*
X036025Y008960D03*
X038125Y008560D03*
X038375Y008960D03*
X037875Y006960D03*
X036875Y006960D03*
X036875Y005210D03*
X037875Y005210D03*
X039025Y005660D03*
X039025Y006110D03*
X039025Y006560D03*
X040075Y006960D03*
X041075Y006960D03*
X042325Y006560D03*
X042325Y006110D03*
X042325Y005660D03*
X043275Y005210D03*
X044275Y005210D03*
X045275Y003810D03*
X045275Y003210D03*
X045275Y002610D03*
X042775Y002610D03*
X042775Y003210D03*
X042775Y003810D03*
X042075Y003810D03*
X042075Y003210D03*
X042075Y002610D03*
X039575Y002610D03*
X039575Y003210D03*
X039575Y003810D03*
X038875Y003810D03*
X038875Y003210D03*
X038875Y002610D03*
X036375Y002610D03*
X036375Y003210D03*
X036375Y003810D03*
X040075Y005210D03*
X041075Y005210D03*
X043275Y006960D03*
X044275Y006960D03*
X044525Y008560D03*
X044775Y008960D03*
X047525Y007010D03*
X048925Y007260D03*
X049225Y006960D03*
X049525Y006660D03*
X043175Y012060D03*
X042425Y011260D03*
X040225Y011860D03*
X039075Y012160D03*
X038725Y012510D03*
X037875Y014110D03*
X036625Y014210D03*
X036125Y014760D03*
X036525Y015410D03*
X035825Y015660D03*
X036625Y016610D03*
X035425Y016860D03*
X034425Y017060D03*
X033975Y017310D03*
X033625Y017660D03*
X033275Y017960D03*
X033225Y018810D03*
X034225Y018760D03*
X035425Y018460D03*
X036525Y018010D03*
X037725Y018110D03*
X038625Y018460D03*
X038775Y017460D03*
X039675Y017810D03*
X040025Y018710D03*
X040075Y019760D03*
X040175Y020160D03*
X041225Y020910D03*
X041275Y022360D03*
X040775Y022610D03*
X042525Y023210D03*
X043225Y022310D03*
X043225Y021810D03*
X044225Y022360D03*
X044725Y022360D03*
X044725Y022860D03*
X044225Y022860D03*
X044475Y023710D03*
X045775Y023610D03*
X045575Y023010D03*
X045575Y022060D03*
X046625Y021710D03*
X047275Y022160D03*
X048025Y021810D03*
X046725Y020760D03*
X045925Y019710D03*
X044675Y019660D03*
X042975Y020860D03*
X044675Y021360D03*
X046625Y023310D03*
X042525Y025160D03*
X041625Y027210D03*
X042375Y027510D03*
X039225Y026160D03*
X038775Y026160D03*
X038275Y026160D03*
X038275Y024710D03*
X037575Y024710D03*
X036975Y024710D03*
X036525Y023760D03*
X036325Y023410D03*
X036075Y024060D03*
X035475Y022760D03*
X035175Y021910D03*
X034075Y021310D03*
X033225Y020910D03*
X032075Y021910D03*
X033125Y022310D03*
X030625Y021910D03*
X030625Y023060D03*
X028975Y021760D03*
X029625Y020710D03*
X029675Y019760D03*
X028875Y019760D03*
X028265Y020425D03*
X027775Y020060D03*
X027625Y019460D03*
X027275Y020660D03*
X027275Y022360D03*
X026725Y022460D03*
X025725Y022310D03*
X024170Y023242D03*
X022225Y025610D03*
X021575Y027010D03*
X021525Y027660D03*
X022575Y027310D03*
X023225Y029460D03*
X023675Y029460D03*
X024575Y030510D03*
X024825Y030960D03*
X025075Y032510D03*
X026075Y032510D03*
X027025Y032860D03*
X027025Y033310D03*
X027025Y033760D03*
X026075Y034260D03*
X025075Y034260D03*
X024075Y035660D03*
X024075Y036210D03*
X024075Y036760D03*
X024275Y037760D03*
X026575Y036760D03*
X027275Y036760D03*
X027275Y036210D03*
X027275Y035660D03*
X026575Y035660D03*
X026575Y036210D03*
X028275Y034260D03*
X029275Y034260D03*
X030275Y033760D03*
X030275Y033310D03*
X030275Y032860D03*
X029275Y032510D03*
X028275Y032510D03*
X028025Y030960D03*
X027775Y030510D03*
X030975Y030510D03*
X031225Y030960D03*
X031475Y032510D03*
X032475Y032510D03*
X032475Y034260D03*
X031475Y034260D03*
X030475Y035660D03*
X030475Y036210D03*
X029775Y036210D03*
X029775Y035660D03*
X029775Y036760D03*
X030475Y036760D03*
X032325Y038560D03*
X032975Y036760D03*
X032975Y036210D03*
X032975Y035660D03*
X036925Y035660D03*
X036925Y036210D03*
X036925Y036760D03*
X039425Y036760D03*
X039425Y036210D03*
X039425Y035660D03*
X040125Y035660D03*
X040125Y036210D03*
X040125Y036760D03*
X042625Y036760D03*
X042625Y036210D03*
X042625Y035660D03*
X043325Y035660D03*
X043325Y036210D03*
X043325Y036760D03*
X045825Y036760D03*
X045825Y036210D03*
X045825Y035660D03*
X045325Y034260D03*
X044325Y034260D03*
X043125Y033810D03*
X043125Y033360D03*
X043125Y032910D03*
X042125Y032510D03*
X041125Y032510D03*
X039925Y032910D03*
X039925Y033360D03*
X039925Y033810D03*
X038925Y034260D03*
X037925Y034260D03*
X037925Y032510D03*
X038925Y032510D03*
X037675Y030910D03*
X037425Y030510D03*
X036025Y031460D03*
X036025Y031910D03*
X033225Y030460D03*
X033725Y028210D03*
X034325Y027360D03*
X035375Y025860D03*
X034075Y025210D03*
X031825Y026010D03*
X031325Y026010D03*
X030875Y026010D03*
X029575Y026010D03*
X027425Y026210D03*
X026775Y026210D03*
X025475Y026410D03*
X020175Y025560D03*
X019575Y025560D03*
X018975Y025560D03*
X018875Y025010D03*
X018575Y024560D03*
X017175Y024460D03*
X016725Y024060D03*
X015975Y023460D03*
X015525Y023460D03*
X015525Y022960D03*
X015975Y022960D03*
X015475Y021960D03*
X015075Y021810D03*
X013925Y021510D03*
X013475Y021960D03*
X012975Y021960D03*
X012475Y021960D03*
X011975Y021960D03*
X011975Y021510D03*
X011975Y021060D03*
X011825Y020310D03*
X011825Y019810D03*
X011825Y019310D03*
X011325Y019310D03*
X011025Y018910D03*
X011025Y018460D03*
X011025Y018060D03*
X009025Y016560D03*
X008425Y015810D03*
X008275Y013160D03*
X007725Y013160D03*
X005675Y013060D03*
X011725Y015610D03*
X012025Y015960D03*
X013425Y016260D03*
X015575Y014760D03*
X015625Y014260D03*
X015675Y012710D03*
X016075Y012710D03*
X016475Y012710D03*
X015275Y012710D03*
X014375Y011410D03*
X013725Y011410D03*
X013625Y013610D03*
X013975Y008860D03*
X013725Y008410D03*
X013475Y005060D03*
X012475Y005060D03*
X011975Y003660D03*
X011975Y003060D03*
X011975Y002460D03*
X014475Y002460D03*
X014475Y003060D03*
X014475Y003660D03*
X015175Y003660D03*
X015175Y003060D03*
X015175Y002460D03*
X017675Y002460D03*
X017675Y003060D03*
X017675Y003660D03*
X021125Y004060D03*
X032625Y014110D03*
X033575Y014460D03*
X034175Y016210D03*
X032275Y016010D03*
X031225Y015360D03*
X030025Y016410D03*
X029375Y015560D03*
X028265Y015650D03*
X028225Y014660D03*
X027625Y014660D03*
X027025Y014660D03*
X028925Y016960D03*
X029375Y017360D03*
X030225Y017760D03*
X030225Y018260D03*
X029825Y018710D03*
X027625Y018510D03*
X035575Y020210D03*
X036875Y020610D03*
X037175Y021310D03*
X038025Y021010D03*
X038575Y021210D03*
X038575Y020360D03*
X038575Y019560D03*
X037125Y019810D03*
X036675Y019410D03*
X039725Y016560D03*
X040075Y016260D03*
X040775Y015960D03*
X040825Y015210D03*
X041225Y014410D03*
X040425Y014210D03*
X037825Y015210D03*
X045275Y013910D03*
X046475Y015610D03*
X046675Y016560D03*
X038325Y023060D03*
X037675Y023410D03*
X038525Y023760D03*
X040625Y030510D03*
X040875Y030910D03*
X043825Y030510D03*
X044125Y030910D03*
X044325Y032510D03*
X045325Y032510D03*
X047525Y033210D03*
X048225Y030760D03*
X046175Y030410D03*
X042125Y034260D03*
X041125Y034260D03*
X041625Y039010D03*
X039525Y039110D03*
X045425Y040860D03*
X021525Y034160D03*
X019775Y034560D03*
X019275Y033760D03*
X019325Y033260D03*
X019325Y031660D03*
X019025Y030510D03*
X019825Y028760D03*
X017825Y027110D03*
X018025Y026260D03*
X014975Y024810D03*
X012275Y027310D03*
X011775Y027310D03*
X011225Y027310D03*
X010675Y027310D03*
X009225Y026710D03*
X009075Y025110D03*
X009725Y024010D03*
X010425Y021910D03*
X010675Y021460D03*
X006525Y021760D03*
X006175Y021360D03*
X005625Y021360D03*
X005175Y021710D03*
X005175Y022210D03*
X005175Y022710D03*
X005625Y023060D03*
X006125Y023060D03*
X006525Y022660D03*
X003725Y022760D03*
X002175Y022110D03*
X002175Y021710D03*
X002175Y021310D03*
X002175Y020910D03*
X002175Y020510D03*
X002175Y019960D03*
X003725Y019060D03*
X005775Y018860D03*
X005575Y025410D03*
X005625Y027260D03*
X006725Y030510D03*
X006975Y030910D03*
X007225Y032510D03*
X008225Y032510D03*
X009225Y032910D03*
X009225Y033360D03*
X009225Y033810D03*
X008225Y034260D03*
X007225Y034260D03*
X006225Y035660D03*
X006225Y036210D03*
X006225Y036760D03*
X003675Y036210D03*
X002125Y034910D03*
X002425Y034610D03*
X002725Y034310D03*
X003025Y034010D03*
X008725Y035660D03*
X008725Y036210D03*
X008725Y036760D03*
X009425Y036760D03*
X009425Y036210D03*
X009425Y035660D03*
X010425Y034260D03*
X011425Y034260D03*
X012425Y033810D03*
X012425Y033360D03*
X012425Y032910D03*
X011425Y032510D03*
X010425Y032510D03*
X010175Y030910D03*
X009925Y030510D03*
X013125Y030510D03*
X013375Y030910D03*
X014625Y030510D03*
X014625Y032510D03*
X013625Y032510D03*
X013625Y034260D03*
X014625Y034260D03*
X015925Y034060D03*
X016325Y034060D03*
X015125Y035660D03*
X015125Y036210D03*
X015125Y036760D03*
X017375Y037360D03*
X019575Y036310D03*
X020225Y036110D03*
X012625Y036210D03*
X012625Y035660D03*
X011925Y035660D03*
X011925Y036210D03*
X011925Y036760D03*
X012625Y036760D03*
X019725Y020260D03*
X007525Y005060D03*
X006525Y005060D03*
X006025Y003660D03*
X006025Y003060D03*
X006025Y002460D03*
X008525Y002460D03*
X008525Y003060D03*
X008525Y003660D03*
X041325Y008560D03*
X041575Y008960D03*
D65*
X004925Y002010D02*
X004175Y002010D01*
X004175Y005960D01*
X003421Y005960D01*
X003378Y006003D01*
X003375Y006003D01*
X003375Y006510D01*
X004375Y006510D01*
X004625Y006260D01*
X004625Y002310D01*
X005725Y001210D01*
X016075Y001210D01*
X017425Y002560D01*
X017425Y003810D01*
X017925Y003810D01*
X017925Y002310D01*
X016375Y000760D01*
X005425Y000760D01*
X004175Y002010D01*
X004175Y002168D02*
X004766Y002168D01*
X004625Y002327D02*
X004175Y002327D01*
X004175Y002485D02*
X004625Y002485D01*
X004625Y002644D02*
X004175Y002644D01*
X004175Y002802D02*
X004625Y002802D01*
X004625Y002961D02*
X004175Y002961D01*
X004175Y003119D02*
X004625Y003119D01*
X004625Y003278D02*
X004175Y003278D01*
X004175Y003436D02*
X004625Y003436D01*
X004625Y003595D02*
X004175Y003595D01*
X004175Y003753D02*
X004625Y003753D01*
X004625Y003912D02*
X004175Y003912D01*
X004175Y004070D02*
X004625Y004070D01*
X004625Y004229D02*
X004175Y004229D01*
X004175Y004387D02*
X004625Y004387D01*
X004625Y004546D02*
X004175Y004546D01*
X004175Y004704D02*
X004625Y004704D01*
X004625Y004863D02*
X004175Y004863D01*
X004175Y005021D02*
X004625Y005021D01*
X004625Y005180D02*
X004175Y005180D01*
X004175Y005338D02*
X004625Y005338D01*
X004625Y005497D02*
X004175Y005497D01*
X004175Y005655D02*
X004625Y005655D01*
X004625Y005814D02*
X004175Y005814D01*
X004625Y005972D02*
X003409Y005972D01*
X003375Y006131D02*
X004625Y006131D01*
X004595Y006289D02*
X003375Y006289D01*
X003375Y006448D02*
X004437Y006448D01*
X004625Y006760D02*
X003375Y006760D01*
X003375Y007310D01*
X004925Y007310D01*
X005375Y006860D01*
X005375Y002660D01*
X006025Y002010D01*
X005375Y002010D01*
X005533Y001851D02*
X014666Y001851D01*
X014775Y001960D02*
X014325Y001510D01*
X005875Y001510D01*
X004925Y002460D01*
X004925Y006460D01*
X004625Y006760D01*
X004778Y006606D02*
X005375Y006606D01*
X005375Y006448D02*
X004925Y006448D01*
X004925Y006289D02*
X005375Y006289D01*
X005375Y006131D02*
X004925Y006131D01*
X004925Y005972D02*
X005375Y005972D01*
X005375Y005814D02*
X004925Y005814D01*
X004925Y005655D02*
X005375Y005655D01*
X005375Y005497D02*
X004925Y005497D01*
X004925Y005338D02*
X005375Y005338D01*
X005375Y005180D02*
X004925Y005180D01*
X004925Y005021D02*
X005375Y005021D01*
X005375Y004863D02*
X004925Y004863D01*
X004925Y004704D02*
X005375Y004704D01*
X005375Y004546D02*
X004925Y004546D01*
X004925Y004387D02*
X005375Y004387D01*
X005375Y004229D02*
X004925Y004229D01*
X004925Y004070D02*
X005375Y004070D01*
X005375Y003912D02*
X004925Y003912D01*
X004925Y003753D02*
X005375Y003753D01*
X005375Y003595D02*
X004925Y003595D01*
X004925Y003436D02*
X005375Y003436D01*
X005375Y003278D02*
X004925Y003278D01*
X004925Y003119D02*
X005375Y003119D01*
X005375Y002961D02*
X004925Y002961D01*
X004925Y002802D02*
X005375Y002802D01*
X005391Y002644D02*
X004925Y002644D01*
X004925Y002485D02*
X005549Y002485D01*
X005708Y002327D02*
X005058Y002327D01*
X005216Y002168D02*
X005866Y002168D01*
X006025Y002010D02*
X013975Y002010D01*
X014775Y002010D01*
X014775Y001960D02*
X014775Y003810D01*
X014225Y003810D01*
X014225Y002260D01*
X013975Y002010D01*
X014133Y002168D02*
X014775Y002168D01*
X014775Y002327D02*
X014225Y002327D01*
X014225Y002485D02*
X014775Y002485D01*
X014775Y002644D02*
X014225Y002644D01*
X014225Y002802D02*
X014775Y002802D01*
X014775Y002961D02*
X014225Y002961D01*
X014225Y003119D02*
X014775Y003119D01*
X014775Y003278D02*
X014225Y003278D01*
X014225Y003436D02*
X014775Y003436D01*
X014775Y003595D02*
X014225Y003595D01*
X014225Y003753D02*
X014775Y003753D01*
X014475Y003660D02*
X013387Y003660D01*
X012475Y004572D01*
X012475Y005060D01*
X015675Y005060D02*
X015675Y004572D01*
X016587Y003660D01*
X017675Y003660D01*
X017425Y003595D02*
X017925Y003595D01*
X017925Y003753D02*
X017425Y003753D01*
X017425Y003436D02*
X017925Y003436D01*
X017925Y003278D02*
X017425Y003278D01*
X017425Y003119D02*
X017925Y003119D01*
X017925Y002961D02*
X017425Y002961D01*
X017425Y002802D02*
X017925Y002802D01*
X017925Y002644D02*
X017425Y002644D01*
X017350Y002485D02*
X017925Y002485D01*
X017925Y002327D02*
X017192Y002327D01*
X017033Y002168D02*
X017783Y002168D01*
X017625Y002010D02*
X016875Y002010D01*
X016716Y001851D02*
X017466Y001851D01*
X017308Y001693D02*
X016558Y001693D01*
X016399Y001534D02*
X017149Y001534D01*
X016991Y001376D02*
X016241Y001376D01*
X016082Y001217D02*
X016832Y001217D01*
X016674Y001059D02*
X005126Y001059D01*
X005284Y000900D02*
X016515Y000900D01*
X014508Y001693D02*
X005692Y001693D01*
X005850Y001534D02*
X014349Y001534D01*
X008825Y002260D02*
X008275Y002260D01*
X008275Y003560D01*
X007825Y004010D01*
X006275Y004010D01*
X005675Y004610D01*
X005675Y007060D01*
X005222Y007542D01*
X003372Y007542D01*
X003375Y008075D01*
X005375Y008075D01*
X006175Y007310D01*
X006175Y004960D01*
X006475Y004660D01*
X008075Y004660D01*
X008825Y003910D01*
X008825Y002260D01*
X008825Y002327D02*
X008275Y002327D01*
X008275Y002485D02*
X008825Y002485D01*
X008825Y002644D02*
X008275Y002644D01*
X008275Y002802D02*
X008825Y002802D01*
X008825Y002961D02*
X008275Y002961D01*
X008275Y003119D02*
X008825Y003119D01*
X008825Y003278D02*
X008275Y003278D01*
X008275Y003436D02*
X008825Y003436D01*
X008825Y003595D02*
X008240Y003595D01*
X008081Y003753D02*
X008825Y003753D01*
X008823Y003912D02*
X007923Y003912D01*
X008347Y004387D02*
X005897Y004387D01*
X006056Y004229D02*
X008506Y004229D01*
X008664Y004070D02*
X006214Y004070D01*
X006430Y004704D02*
X005675Y004704D01*
X005675Y004863D02*
X006272Y004863D01*
X006225Y004760D02*
X006525Y005060D01*
X006175Y005021D02*
X005675Y005021D01*
X005675Y005180D02*
X006175Y005180D01*
X006175Y005338D02*
X005675Y005338D01*
X005675Y005497D02*
X006175Y005497D01*
X006175Y005655D02*
X005675Y005655D01*
X005675Y005814D02*
X006175Y005814D01*
X006175Y005972D02*
X005675Y005972D01*
X005675Y006131D02*
X006175Y006131D01*
X006175Y006289D02*
X005675Y006289D01*
X005675Y006448D02*
X006175Y006448D01*
X006175Y006606D02*
X005675Y006606D01*
X005675Y006765D02*
X006175Y006765D01*
X006175Y006923D02*
X005675Y006923D01*
X005654Y007082D02*
X006175Y007082D01*
X006175Y007240D02*
X005505Y007240D01*
X005357Y007399D02*
X006082Y007399D01*
X005916Y007557D02*
X003372Y007557D01*
X003373Y007716D02*
X005750Y007716D01*
X005584Y007874D02*
X003374Y007874D01*
X003374Y008033D02*
X005419Y008033D01*
X005190Y008887D02*
X004602Y008887D01*
X004512Y008797D01*
X003719Y008797D01*
X003719Y009191D02*
X004556Y009191D01*
X004575Y009210D01*
X004582Y009202D01*
X005190Y009202D01*
X005190Y009517D02*
X004567Y009517D01*
X004500Y009584D01*
X003719Y009584D01*
X003375Y007240D02*
X004994Y007240D01*
X005153Y007082D02*
X003375Y007082D01*
X003375Y006923D02*
X005311Y006923D01*
X005375Y006765D02*
X003375Y006765D01*
X005739Y004546D02*
X008189Y004546D01*
X005083Y001851D02*
X004333Y001851D01*
X004492Y001693D02*
X005242Y001693D01*
X005400Y001534D02*
X004650Y001534D01*
X004809Y001376D02*
X005559Y001376D01*
X005717Y001217D02*
X004967Y001217D01*
X008575Y013860D02*
X009487Y014772D01*
X010125Y014772D01*
X008425Y015810D02*
X008415Y015800D01*
X007859Y015800D01*
X007111Y015800D02*
X006035Y015800D01*
X005775Y016060D01*
X005775Y016560D01*
X005725Y016610D01*
X005239Y016610D01*
X005775Y016560D02*
X005775Y017398D01*
X006149Y017398D02*
X006787Y017398D01*
X006955Y017565D01*
X006955Y018234D02*
X006767Y018421D01*
X006149Y018421D01*
X005775Y018421D02*
X005775Y018860D01*
X006275Y018860D01*
X006639Y019224D01*
X006639Y019670D01*
X005970Y019670D02*
X005935Y019670D01*
X005390Y019125D01*
X005175Y019125D01*
X005401Y018899D01*
X005401Y018421D01*
X005401Y017398D02*
X004963Y017398D01*
X004570Y017005D01*
X004570Y016610D01*
X006955Y018234D02*
X006955Y018990D01*
X007625Y019660D01*
X007625Y019710D01*
X007664Y019749D01*
X007664Y019920D01*
X007675Y020860D02*
X004875Y020860D01*
X004875Y023660D01*
X007675Y023660D01*
X007675Y020860D01*
X007675Y020871D02*
X004875Y020871D01*
X004875Y021030D02*
X007675Y021030D01*
X007675Y021188D02*
X004875Y021188D01*
X004875Y021347D02*
X007675Y021347D01*
X007675Y021505D02*
X004875Y021505D01*
X004875Y021664D02*
X007675Y021664D01*
X007675Y021822D02*
X004875Y021822D01*
X004875Y021981D02*
X007675Y021981D01*
X007675Y022139D02*
X004875Y022139D01*
X004875Y022298D02*
X007675Y022298D01*
X007675Y022456D02*
X004875Y022456D01*
X004875Y022615D02*
X007675Y022615D01*
X007675Y022773D02*
X004875Y022773D01*
X004875Y022932D02*
X007675Y022932D01*
X007675Y023090D02*
X004875Y023090D01*
X004875Y023249D02*
X007675Y023249D01*
X007675Y023407D02*
X004875Y023407D01*
X004875Y023566D02*
X007675Y023566D01*
X008295Y023119D02*
X009189Y023119D01*
X009275Y023034D01*
X008575Y023160D02*
X008335Y023160D01*
X008295Y023119D01*
X008540Y023194D02*
X008575Y023160D01*
X008540Y023194D02*
X008540Y024010D01*
X008540Y024244D01*
X008375Y024410D01*
X006425Y024410D01*
X006110Y024724D01*
X006110Y025036D01*
X005349Y025036D01*
X004975Y025410D01*
X004975Y025784D01*
X006110Y025784D01*
X006110Y025410D02*
X005575Y025410D01*
X004975Y025784D02*
X004975Y026860D01*
X005051Y026886D01*
X006110Y026886D01*
X006110Y027260D02*
X005625Y027260D01*
X005225Y027610D02*
X006086Y027610D01*
X006110Y027634D01*
X005225Y027610D02*
X004975Y027360D01*
X004975Y026860D01*
X007139Y027634D02*
X007864Y027634D01*
X007890Y027660D01*
X007900Y027650D01*
X007900Y026730D01*
X008569Y026730D02*
X009205Y026730D01*
X009225Y026710D01*
X007910Y025790D02*
X007910Y024880D01*
X008579Y024880D02*
X008845Y024880D01*
X009075Y025110D01*
X007890Y025784D02*
X007890Y025810D01*
X007890Y025784D02*
X007139Y025784D01*
X008295Y022210D02*
X009199Y022210D01*
X009275Y022286D01*
X009290Y021310D02*
X009280Y021300D01*
X008295Y021300D01*
X008675Y020510D02*
X008625Y020460D01*
X005475Y020460D01*
X005175Y020160D01*
X005175Y019794D01*
X008443Y016560D02*
X009025Y016560D01*
X010275Y016560D01*
X010475Y016760D01*
X010475Y017325D01*
X010475Y017994D02*
X010475Y018660D01*
X010325Y018810D01*
X009825Y018810D01*
X010896Y019738D02*
X011325Y019310D01*
X010896Y019738D02*
X010896Y019850D01*
X019025Y030510D02*
X019490Y030510D01*
X019690Y033760D02*
X019275Y033760D01*
X019690Y033760D02*
X019690Y033810D01*
X019575Y035894D02*
X019575Y036310D01*
X014625Y034260D02*
X013625Y033260D01*
X013625Y032510D01*
X013225Y032660D02*
X011825Y032660D01*
X011825Y034060D01*
X013225Y034060D01*
X013225Y032660D01*
X013225Y032759D02*
X011825Y032759D01*
X011825Y032917D02*
X013225Y032917D01*
X013225Y033076D02*
X011825Y033076D01*
X011825Y033234D02*
X013225Y033234D01*
X013225Y033393D02*
X011825Y033393D01*
X011825Y033551D02*
X013225Y033551D01*
X013225Y033710D02*
X011825Y033710D01*
X011825Y033868D02*
X013225Y033868D01*
X013225Y034027D02*
X011825Y034027D01*
X011425Y034260D02*
X010425Y033260D01*
X010425Y032510D01*
X009925Y032710D02*
X008625Y032710D01*
X008625Y034060D01*
X009925Y034060D01*
X009925Y032710D01*
X009925Y032759D02*
X008625Y032759D01*
X008625Y032917D02*
X009925Y032917D01*
X009925Y033076D02*
X008625Y033076D01*
X008625Y033234D02*
X009925Y033234D01*
X009925Y033393D02*
X008625Y033393D01*
X008625Y033551D02*
X009925Y033551D01*
X009925Y033710D02*
X008625Y033710D01*
X008625Y033868D02*
X009925Y033868D01*
X009925Y034027D02*
X008625Y034027D01*
X008225Y034260D02*
X007225Y033260D01*
X007225Y032510D01*
X025075Y032510D02*
X025075Y033260D01*
X026075Y034260D01*
X026425Y034010D02*
X027825Y034010D01*
X027825Y032660D01*
X026425Y032660D01*
X026425Y034010D01*
X026425Y033868D02*
X027825Y033868D01*
X027825Y033710D02*
X026425Y033710D01*
X026425Y033551D02*
X027825Y033551D01*
X027825Y033393D02*
X026425Y033393D01*
X026425Y033234D02*
X027825Y033234D01*
X027825Y033076D02*
X026425Y033076D01*
X026425Y032917D02*
X027825Y032917D01*
X027825Y032759D02*
X026425Y032759D01*
X028275Y032510D02*
X028275Y033260D01*
X029275Y034260D01*
X031475Y033260D02*
X031475Y032510D01*
X031475Y033260D02*
X032475Y034260D01*
X036675Y035210D02*
X036675Y037460D01*
X037775Y038560D01*
X046275Y038560D01*
X046875Y037960D01*
X046875Y036310D01*
X047475Y035660D01*
X048528Y035660D01*
X048571Y035616D01*
X048575Y035616D01*
X048575Y035110D01*
X047175Y035110D01*
X046225Y036060D01*
X046225Y037660D01*
X045825Y038060D01*
X038025Y038060D01*
X037225Y037260D01*
X037225Y035210D01*
X036675Y035210D01*
X036675Y035295D02*
X037225Y035295D01*
X037125Y035360D02*
X037425Y035060D01*
X038475Y035060D01*
X038925Y034610D01*
X038925Y034260D01*
X037925Y033260D01*
X037925Y032510D01*
X039325Y032660D02*
X039325Y034060D01*
X040625Y034060D01*
X040625Y032660D01*
X039325Y032660D01*
X039325Y032759D02*
X040625Y032759D01*
X040625Y032917D02*
X039325Y032917D01*
X039325Y033076D02*
X040625Y033076D01*
X040625Y033234D02*
X039325Y033234D01*
X039325Y033393D02*
X040625Y033393D01*
X040625Y033551D02*
X039325Y033551D01*
X039325Y033710D02*
X040625Y033710D01*
X040625Y033868D02*
X039325Y033868D01*
X039325Y034027D02*
X040625Y034027D01*
X041125Y033260D02*
X042125Y034260D01*
X042125Y034610D01*
X041775Y034960D01*
X040725Y034960D01*
X040325Y035360D01*
X040375Y035295D02*
X039875Y035295D01*
X039875Y035210D02*
X039875Y037710D01*
X045025Y037710D01*
X045475Y037260D01*
X045475Y035560D01*
X046175Y034860D01*
X048575Y034860D01*
X048575Y034310D01*
X046075Y034310D01*
X044975Y035410D01*
X044975Y036960D01*
X044725Y037210D01*
X040575Y037210D01*
X040375Y037010D01*
X040375Y035210D01*
X039875Y035210D01*
X039875Y035453D02*
X040375Y035453D01*
X040375Y035612D02*
X039875Y035612D01*
X039875Y035770D02*
X040375Y035770D01*
X040375Y035929D02*
X039875Y035929D01*
X039875Y036087D02*
X040375Y036087D01*
X040375Y036246D02*
X039875Y036246D01*
X039875Y036404D02*
X040375Y036404D01*
X040375Y036563D02*
X039875Y036563D01*
X039875Y036721D02*
X040375Y036721D01*
X040375Y036880D02*
X039875Y036880D01*
X039875Y037038D02*
X040403Y037038D01*
X040562Y037197D02*
X039875Y037197D01*
X039875Y037355D02*
X045379Y037355D01*
X045475Y037197D02*
X044738Y037197D01*
X044896Y037038D02*
X045475Y037038D01*
X045475Y036880D02*
X044975Y036880D01*
X044975Y036721D02*
X045475Y036721D01*
X045475Y036563D02*
X044975Y036563D01*
X044975Y036404D02*
X045475Y036404D01*
X045475Y036246D02*
X044975Y036246D01*
X044975Y036087D02*
X045475Y036087D01*
X045475Y035929D02*
X044975Y035929D01*
X044975Y035770D02*
X045475Y035770D01*
X045475Y035612D02*
X044975Y035612D01*
X044975Y035453D02*
X045581Y035453D01*
X045740Y035295D02*
X045090Y035295D01*
X045248Y035136D02*
X045898Y035136D01*
X046057Y034978D02*
X045407Y034978D01*
X045565Y034819D02*
X048575Y034819D01*
X048575Y034661D02*
X045724Y034661D01*
X045882Y034502D02*
X048575Y034502D01*
X048575Y034344D02*
X046041Y034344D01*
X045875Y034060D02*
X048575Y034060D01*
X048575Y033510D01*
X045725Y033510D01*
X044325Y034910D01*
X043575Y034910D01*
X043075Y035410D01*
X043075Y036910D01*
X043625Y036910D01*
X043625Y035660D01*
X043925Y035360D01*
X044575Y035360D01*
X045875Y034060D01*
X045749Y034185D02*
X045049Y034185D01*
X045208Y034027D02*
X048575Y034027D01*
X048575Y033868D02*
X045366Y033868D01*
X045525Y033710D02*
X048575Y033710D01*
X048575Y033551D02*
X045683Y033551D01*
X045325Y034260D02*
X044325Y033260D01*
X044325Y032510D01*
X043925Y032660D02*
X042525Y032660D01*
X042525Y034060D01*
X043925Y034060D01*
X043925Y032660D01*
X043925Y032759D02*
X042525Y032759D01*
X042525Y032917D02*
X043925Y032917D01*
X043925Y033076D02*
X042525Y033076D01*
X042525Y033234D02*
X043925Y033234D01*
X043925Y033393D02*
X042525Y033393D01*
X042525Y033551D02*
X043925Y033551D01*
X043925Y033710D02*
X042525Y033710D01*
X042525Y033868D02*
X043925Y033868D01*
X043925Y034027D02*
X042525Y034027D01*
X043507Y034978D02*
X044957Y034978D01*
X045115Y034819D02*
X044415Y034819D01*
X044574Y034661D02*
X045274Y034661D01*
X045432Y034502D02*
X044732Y034502D01*
X044891Y034344D02*
X045591Y034344D01*
X044798Y035136D02*
X043348Y035136D01*
X043190Y035295D02*
X044640Y035295D01*
X043831Y035453D02*
X043075Y035453D01*
X043075Y035612D02*
X043673Y035612D01*
X043625Y035770D02*
X043075Y035770D01*
X043075Y035929D02*
X043625Y035929D01*
X043625Y036087D02*
X043075Y036087D01*
X043075Y036246D02*
X043625Y036246D01*
X043625Y036404D02*
X043075Y036404D01*
X043075Y036563D02*
X043625Y036563D01*
X043625Y036721D02*
X043075Y036721D01*
X043075Y036880D02*
X043625Y036880D01*
X045062Y037672D02*
X039875Y037672D01*
X039875Y037514D02*
X045221Y037514D01*
X045895Y037989D02*
X046845Y037989D01*
X046875Y037831D02*
X046054Y037831D01*
X046212Y037672D02*
X046875Y037672D01*
X046875Y037514D02*
X046225Y037514D01*
X046225Y037355D02*
X046875Y037355D01*
X046875Y037197D02*
X046225Y037197D01*
X046225Y037038D02*
X046875Y037038D01*
X046875Y036880D02*
X046225Y036880D01*
X046225Y036721D02*
X046875Y036721D01*
X046875Y036563D02*
X046225Y036563D01*
X046225Y036404D02*
X046875Y036404D01*
X046934Y036246D02*
X046225Y036246D01*
X046225Y036087D02*
X047080Y036087D01*
X047226Y035929D02*
X046356Y035929D01*
X046514Y035770D02*
X047373Y035770D01*
X046990Y035295D02*
X048575Y035295D01*
X048575Y035453D02*
X046831Y035453D01*
X046673Y035612D02*
X048575Y035612D01*
X048575Y035136D02*
X047148Y035136D01*
X046687Y038148D02*
X037363Y038148D01*
X037521Y038306D02*
X046528Y038306D01*
X046370Y038465D02*
X037680Y038465D01*
X037954Y037989D02*
X037204Y037989D01*
X037046Y037831D02*
X037796Y037831D01*
X037637Y037672D02*
X036887Y037672D01*
X036729Y037514D02*
X037479Y037514D01*
X037320Y037355D02*
X036675Y037355D01*
X036675Y037197D02*
X037225Y037197D01*
X037225Y037038D02*
X036675Y037038D01*
X036675Y036880D02*
X037225Y036880D01*
X037225Y036721D02*
X036675Y036721D01*
X036675Y036563D02*
X037225Y036563D01*
X037225Y036404D02*
X036675Y036404D01*
X036675Y036246D02*
X037225Y036246D01*
X037225Y036087D02*
X036675Y036087D01*
X036675Y035929D02*
X037225Y035929D01*
X037225Y035770D02*
X036675Y035770D01*
X036675Y035612D02*
X037225Y035612D01*
X037225Y035453D02*
X036675Y035453D01*
X041125Y033260D02*
X041125Y032510D01*
X042959Y039760D02*
X044790Y039760D01*
X045659Y024060D02*
X045775Y023944D01*
X045775Y023610D01*
X047881Y022860D02*
X048425Y022860D01*
X048425Y022366D01*
X048425Y022860D02*
X048425Y023325D01*
X048425Y021854D02*
X048381Y021810D01*
X048025Y021810D01*
X045275Y013910D02*
X045399Y013785D01*
X045399Y012700D01*
X044275Y006960D02*
X044275Y006210D01*
X043275Y005210D01*
X043275Y004722D01*
X044187Y003810D01*
X045275Y003810D01*
X042925Y005460D02*
X041575Y005460D01*
X041625Y006760D01*
X042975Y006760D01*
X042925Y005460D01*
X042926Y005497D02*
X041576Y005497D01*
X041582Y005655D02*
X042932Y005655D01*
X042938Y005814D02*
X041588Y005814D01*
X041594Y005972D02*
X042944Y005972D01*
X042950Y006131D02*
X041600Y006131D01*
X041607Y006289D02*
X042957Y006289D01*
X042963Y006448D02*
X041613Y006448D01*
X041619Y006606D02*
X042969Y006606D01*
X041075Y006960D02*
X041075Y006210D01*
X040075Y005210D01*
X040075Y004722D01*
X040987Y003810D01*
X042075Y003810D01*
X039725Y005460D02*
X038375Y005460D01*
X038375Y006760D01*
X039725Y006760D01*
X039725Y005460D01*
X039725Y005497D02*
X038375Y005497D01*
X038375Y005655D02*
X039725Y005655D01*
X039725Y005814D02*
X038375Y005814D01*
X038375Y005972D02*
X039725Y005972D01*
X039725Y006131D02*
X038375Y006131D01*
X038375Y006289D02*
X039725Y006289D01*
X039725Y006448D02*
X038375Y006448D01*
X038375Y006606D02*
X039725Y006606D01*
X037875Y006960D02*
X037875Y006210D01*
X036875Y005210D01*
X036875Y004722D01*
X037787Y003810D01*
X038875Y003810D01*
X027625Y018510D02*
X027009Y018510D01*
D66*
X008805Y019920D02*
X008805Y020379D01*
X008675Y020510D01*
X008295Y020890D01*
X008295Y021300D01*
X008295Y022210D02*
X005855Y022210D01*
X006955Y017565D02*
X006947Y017557D01*
X006947Y016560D01*
X007111Y015800D02*
X007111Y015174D01*
X008056Y014229D01*
X008056Y013710D01*
X005694Y013710D02*
X005694Y013079D01*
X005675Y013060D01*
X006960Y017560D02*
X008675Y017560D01*
X006960Y017560D02*
X006955Y017565D01*
D67*
X003275Y015210D02*
X002725Y015210D01*
X002325Y014810D01*
X002325Y012510D01*
X002725Y012110D01*
X003425Y012110D01*
X003719Y011816D01*
X003719Y009978D01*
X016525Y022510D02*
X017375Y021660D01*
X016525Y022510D02*
X016525Y023760D01*
X016225Y024060D01*
X015325Y024060D01*
X014975Y024410D01*
X014975Y024810D01*
X015525Y023460D02*
X013075Y023460D01*
X008875Y027660D01*
X008559Y027660D01*
X008559Y025810D02*
X009125Y025810D01*
X011975Y022960D01*
X015525Y022960D01*
X015975Y022960D01*
X015975Y023460D02*
X015525Y023460D01*
X016525Y022510D02*
X011675Y022510D01*
X010175Y024010D01*
X009725Y024010D01*
X009209Y024010D01*
X018025Y030910D02*
X018025Y033860D01*
X018559Y033860D01*
X018625Y033794D01*
X018025Y033860D02*
X018025Y034210D01*
X018025Y035660D01*
X018275Y035910D01*
X018709Y035910D01*
X018709Y036494D01*
X019025Y036810D01*
X020275Y036810D01*
X020275Y037360D01*
X023875Y037360D01*
X024275Y037760D01*
X022175Y035960D02*
X022175Y032210D01*
X021959Y031994D01*
X021959Y030460D01*
X020140Y029660D02*
X019275Y029660D01*
X018025Y030910D01*
X018925Y032544D02*
X018625Y033125D01*
X018725Y035894D02*
X018709Y035910D01*
X020275Y036810D02*
X021025Y036810D01*
X021325Y036810D01*
X022175Y035960D01*
X020275Y037360D02*
X017375Y037360D01*
X016775Y037360D01*
X015825Y038310D01*
X014759Y038310D01*
X014090Y038310D02*
X013525Y038310D01*
X012937Y038897D01*
X012937Y039910D01*
X020275Y039910D02*
X020275Y037360D01*
X031425Y039910D02*
X033925Y039910D01*
X035025Y038810D01*
X046009Y015610D02*
X046475Y015610D01*
X046740Y015875D01*
X047275Y015875D01*
X024275Y007760D02*
X024275Y006560D01*
X022575Y006560D01*
X022575Y007760D01*
X024275Y007760D01*
X024275Y007734D02*
X022575Y007734D01*
X022575Y007495D02*
X024275Y007495D01*
X024275Y007257D02*
X022575Y007257D01*
X022575Y007018D02*
X024275Y007018D01*
X024275Y006780D02*
X022575Y006780D01*
D68*
X023425Y009009D02*
X023425Y009760D01*
X023725Y010060D01*
X023725Y010760D01*
X024075Y035660D02*
X024075Y036210D01*
X024075Y036760D01*
X025025Y036760D01*
X026500Y038235D01*
X026500Y039910D01*
X027287Y039910D02*
X027287Y036772D01*
X027275Y036760D01*
X027275Y036210D01*
X027275Y035660D01*
X030475Y035660D02*
X030475Y036210D01*
X030475Y036760D01*
X028075Y039160D01*
X028075Y039910D01*
M02*
