G75*
G70*
%OFA0B0*%
%FSLAX24Y24*%
%IPPOS*%
%LPD*%
%AMOC8*
5,1,8,0,0,1.08239X$1,22.5*
%
%ADD10R,0.0945X0.0945*%
%ADD11R,0.1300X0.0500*%
%ADD12R,0.0820X0.1500*%
%ADD13R,0.4500X0.3500*%
%ADD14R,0.0866X0.0236*%
%ADD15C,0.0945*%
%ADD16R,0.0630X0.0709*%
%ADD17R,0.0591X0.0787*%
%ADD18R,0.1004X0.0984*%
%ADD19R,0.1181X0.0945*%
%ADD20C,0.0974*%
%ADD21R,0.0394X0.0433*%
%ADD22R,0.0748X0.0236*%
%ADD23R,0.1102X0.0827*%
%ADD24C,0.0825*%
%ADD25R,0.0433X0.0394*%
%ADD26C,0.1181*%
%ADD27R,0.0272X0.0394*%
%ADD28R,0.0120X0.0350*%
%ADD29R,0.0740X0.0661*%
%ADD30R,0.0630X0.1535*%
%ADD31R,0.0709X0.0630*%
%ADD32R,0.0512X0.0591*%
%ADD33R,0.0480X0.0880*%
%ADD34R,0.1417X0.0866*%
%ADD35R,0.0350X0.0310*%
%ADD36R,0.0551X0.0709*%
%ADD37R,0.1260X0.0709*%
%ADD38R,0.0591X0.0472*%
%ADD39C,0.0100*%
%ADD40C,0.0240*%
%ADD41C,0.0320*%
%ADD42C,0.0160*%
%ADD43C,0.0120*%
%ADD44C,0.0310*%
%ADD45C,0.0860*%
%ADD46C,0.0357*%
%ADD47C,0.0060*%
%ADD48C,0.0400*%
D10*
X035261Y034022D03*
X035261Y035754D03*
D11*
X032971Y033988D03*
X032971Y032808D03*
X032971Y031628D03*
X032971Y030448D03*
X032971Y029268D03*
X032971Y028088D03*
X022371Y028088D03*
X022371Y029268D03*
X022371Y030448D03*
X022371Y031628D03*
X022371Y032808D03*
X022371Y033988D03*
D12*
X023341Y018538D03*
X021341Y018538D03*
D13*
X022341Y023038D03*
D14*
X035372Y005278D03*
X035372Y004778D03*
X035372Y004278D03*
X035372Y003778D03*
X037420Y003778D03*
X037420Y004278D03*
X037420Y004778D03*
X037420Y005278D03*
D15*
X042631Y007448D03*
X048631Y007448D03*
X051681Y007508D03*
X057681Y007508D03*
D16*
X054872Y004768D03*
X053770Y004768D03*
X048402Y004713D03*
X047300Y004713D03*
D17*
X037006Y006118D03*
X035825Y006118D03*
D18*
X035452Y007383D03*
X037440Y007383D03*
D19*
X025901Y007794D03*
X025901Y005881D03*
D20*
X025900Y003668D03*
X024341Y003668D03*
X046941Y003668D03*
X048500Y003668D03*
X053641Y003668D03*
X055200Y003668D03*
D21*
X034021Y003733D03*
X034021Y004402D03*
X034021Y005133D03*
X034021Y005802D03*
X023821Y011733D03*
X023821Y012402D03*
X023801Y013113D03*
X023801Y013782D03*
X023791Y014573D03*
X023791Y015242D03*
X023941Y016753D03*
X023941Y017422D03*
X021221Y017402D03*
X021221Y016733D03*
X021221Y016102D03*
X021221Y015433D03*
X019821Y015533D03*
X019821Y016202D03*
X019821Y014802D03*
X019821Y014133D03*
X021151Y013802D03*
X021151Y013133D03*
X022021Y013133D03*
X022021Y013802D03*
X022021Y011402D03*
X022021Y010733D03*
X020881Y008212D03*
X020881Y007543D03*
X016121Y010433D03*
X015421Y010433D03*
X014721Y010433D03*
X014721Y011102D03*
X015421Y011102D03*
X016121Y011102D03*
X016721Y011233D03*
X016721Y011902D03*
X017821Y013933D03*
X017821Y014602D03*
X041321Y033033D03*
X041321Y033702D03*
D22*
X013921Y009824D03*
X013921Y009430D03*
X013921Y009036D03*
X013921Y008643D03*
X013921Y008249D03*
X013921Y007855D03*
X013921Y007461D03*
X013921Y007068D03*
D23*
X012996Y005828D03*
X012996Y011064D03*
D24*
X040121Y011068D03*
X040121Y010068D03*
X042321Y010068D03*
X042321Y011068D03*
X044521Y011068D03*
X044521Y010068D03*
X048821Y010068D03*
X048821Y011068D03*
X051021Y011068D03*
X051021Y010068D03*
X053221Y010068D03*
X053221Y011068D03*
D25*
X054686Y011068D03*
X055356Y011068D03*
X055356Y010068D03*
X054686Y010068D03*
X046256Y010068D03*
X045586Y010068D03*
X045586Y011068D03*
X046256Y011068D03*
X036756Y008768D03*
X036086Y008768D03*
X018256Y012668D03*
X017586Y012668D03*
X016156Y015368D03*
X015486Y015368D03*
X017686Y016968D03*
X018356Y016968D03*
X026986Y022168D03*
X027656Y022168D03*
X027656Y023068D03*
X026986Y023068D03*
X026356Y023068D03*
X025686Y023068D03*
X038286Y029568D03*
X038956Y029568D03*
X015656Y006868D03*
X014986Y006868D03*
D26*
X009575Y017289D03*
X013853Y018436D03*
X015000Y022714D03*
X007589Y024699D03*
X057842Y022714D03*
X065253Y024699D03*
X058989Y018436D03*
X063267Y017289D03*
D27*
X018695Y011380D03*
X018321Y011380D03*
X017947Y011380D03*
X017947Y010356D03*
X018321Y010356D03*
X018695Y010356D03*
D28*
X022034Y014668D03*
X022230Y014668D03*
X022427Y014668D03*
X022624Y014668D03*
X022821Y014668D03*
X022821Y016376D03*
X022624Y016376D03*
X022427Y016376D03*
X022230Y016376D03*
X022034Y016376D03*
D29*
X022427Y015522D03*
D30*
X027931Y016724D03*
X027931Y020071D03*
D31*
X024941Y018709D03*
X024941Y017607D03*
D32*
X020495Y018568D03*
X019747Y018568D03*
D33*
X038311Y030748D03*
X039221Y030748D03*
X040131Y030748D03*
D34*
X039221Y033188D03*
D35*
X041321Y031978D03*
X042121Y032358D03*
X042121Y031598D03*
D36*
X042690Y030668D03*
X041352Y030668D03*
D37*
X039221Y034365D03*
X039221Y036570D03*
D38*
X041350Y029568D03*
X042492Y029568D03*
D39*
X039821Y032968D02*
X038621Y032968D01*
X038621Y034568D01*
X039821Y034568D01*
X039821Y032968D01*
X039821Y033013D02*
X038621Y033013D01*
X038621Y033112D02*
X039821Y033112D01*
X039821Y033210D02*
X038621Y033210D01*
X038621Y033309D02*
X039821Y033309D01*
X039821Y033407D02*
X038621Y033407D01*
X038621Y033506D02*
X039821Y033506D01*
X039821Y033604D02*
X038621Y033604D01*
X038621Y033703D02*
X039821Y033703D01*
X039821Y033802D02*
X038621Y033802D01*
X038621Y033900D02*
X039821Y033900D01*
X039821Y033999D02*
X038621Y033999D01*
X038621Y034097D02*
X039821Y034097D01*
X039821Y034196D02*
X038621Y034196D01*
X038621Y034294D02*
X039821Y034294D01*
X039821Y034393D02*
X038621Y034393D01*
X038621Y034491D02*
X039821Y034491D01*
X035821Y035268D02*
X034721Y035268D01*
X034721Y036468D01*
X017621Y036468D01*
X017621Y019968D01*
X013921Y016168D01*
X011821Y016168D01*
X011821Y025168D01*
X012321Y025168D01*
X012321Y037668D01*
X015521Y037668D01*
X015521Y041068D01*
X057321Y041068D01*
X057321Y037768D01*
X060221Y037768D01*
X060221Y023068D01*
X061021Y023068D01*
X061021Y015668D01*
X055121Y015668D01*
X055121Y022568D01*
X051721Y022568D01*
X051721Y036468D01*
X035821Y036468D01*
X035821Y035268D01*
X035821Y035280D02*
X034721Y035280D01*
X034721Y035378D02*
X035821Y035378D01*
X035821Y035477D02*
X034721Y035477D01*
X034721Y035575D02*
X035821Y035575D01*
X035821Y035674D02*
X034721Y035674D01*
X034721Y035772D02*
X035821Y035772D01*
X035821Y035871D02*
X034721Y035871D01*
X034721Y035970D02*
X035821Y035970D01*
X035821Y036068D02*
X034721Y036068D01*
X034721Y036167D02*
X035821Y036167D01*
X035821Y036265D02*
X034721Y036265D01*
X034721Y036364D02*
X035821Y036364D01*
X035821Y036462D02*
X034721Y036462D01*
X034121Y031868D02*
X031721Y031868D01*
X031721Y017568D01*
X026921Y017568D01*
X026921Y016168D01*
X025121Y016168D01*
X025121Y007468D01*
X026621Y007468D01*
X026621Y014168D01*
X034121Y014168D01*
X034121Y031868D01*
X034121Y031831D02*
X031721Y031831D01*
X031721Y031732D02*
X034121Y031732D01*
X034121Y031634D02*
X031721Y031634D01*
X031721Y031535D02*
X034121Y031535D01*
X034121Y031437D02*
X031721Y031437D01*
X031721Y031338D02*
X034121Y031338D01*
X034121Y031239D02*
X031721Y031239D01*
X031721Y031141D02*
X034121Y031141D01*
X034121Y031042D02*
X031721Y031042D01*
X031721Y030944D02*
X034121Y030944D01*
X034121Y030845D02*
X031721Y030845D01*
X031721Y030747D02*
X034121Y030747D01*
X034121Y030648D02*
X031721Y030648D01*
X031721Y030550D02*
X034121Y030550D01*
X034121Y030451D02*
X031721Y030451D01*
X031721Y030353D02*
X034121Y030353D01*
X034121Y030254D02*
X031721Y030254D01*
X031721Y030155D02*
X034121Y030155D01*
X034121Y030057D02*
X031721Y030057D01*
X031721Y029958D02*
X034121Y029958D01*
X034121Y029860D02*
X031721Y029860D01*
X031721Y029761D02*
X034121Y029761D01*
X034121Y029663D02*
X031721Y029663D01*
X031721Y029564D02*
X034121Y029564D01*
X034121Y029466D02*
X031721Y029466D01*
X031721Y029367D02*
X034121Y029367D01*
X034121Y029269D02*
X031721Y029269D01*
X031721Y029170D02*
X034121Y029170D01*
X034121Y029071D02*
X031721Y029071D01*
X031721Y028973D02*
X034121Y028973D01*
X034121Y028874D02*
X031721Y028874D01*
X031721Y028776D02*
X034121Y028776D01*
X034121Y028677D02*
X031721Y028677D01*
X031721Y028579D02*
X034121Y028579D01*
X034121Y028480D02*
X031721Y028480D01*
X031721Y028382D02*
X034121Y028382D01*
X034121Y028283D02*
X031721Y028283D01*
X031721Y028185D02*
X034121Y028185D01*
X034121Y028086D02*
X031721Y028086D01*
X031721Y027988D02*
X034121Y027988D01*
X034121Y027889D02*
X031721Y027889D01*
X031721Y027790D02*
X034121Y027790D01*
X034121Y027692D02*
X031721Y027692D01*
X031721Y027593D02*
X034121Y027593D01*
X034121Y027495D02*
X031721Y027495D01*
X031721Y027396D02*
X034121Y027396D01*
X034121Y027298D02*
X031721Y027298D01*
X031721Y027199D02*
X034121Y027199D01*
X034121Y027101D02*
X031721Y027101D01*
X031721Y027002D02*
X034121Y027002D01*
X034121Y026904D02*
X031721Y026904D01*
X031721Y026805D02*
X034121Y026805D01*
X034121Y026706D02*
X031721Y026706D01*
X031721Y026608D02*
X034121Y026608D01*
X034121Y026509D02*
X031721Y026509D01*
X031721Y026411D02*
X034121Y026411D01*
X034121Y026312D02*
X031721Y026312D01*
X031721Y026214D02*
X034121Y026214D01*
X034121Y026115D02*
X031721Y026115D01*
X031721Y026017D02*
X034121Y026017D01*
X034121Y025918D02*
X031721Y025918D01*
X031721Y025820D02*
X034121Y025820D01*
X034121Y025721D02*
X031721Y025721D01*
X031721Y025622D02*
X034121Y025622D01*
X034121Y025524D02*
X031721Y025524D01*
X031721Y025425D02*
X034121Y025425D01*
X034121Y025327D02*
X031721Y025327D01*
X031721Y025228D02*
X034121Y025228D01*
X034121Y025130D02*
X031721Y025130D01*
X031721Y025031D02*
X034121Y025031D01*
X034121Y024933D02*
X031721Y024933D01*
X031721Y024834D02*
X034121Y024834D01*
X034121Y024736D02*
X031721Y024736D01*
X031721Y024637D02*
X034121Y024637D01*
X034121Y024539D02*
X031721Y024539D01*
X031721Y024440D02*
X034121Y024440D01*
X034121Y024341D02*
X031721Y024341D01*
X031721Y024243D02*
X034121Y024243D01*
X034121Y024144D02*
X031721Y024144D01*
X031721Y024046D02*
X034121Y024046D01*
X034121Y023947D02*
X031721Y023947D01*
X031721Y023849D02*
X034121Y023849D01*
X034121Y023750D02*
X031721Y023750D01*
X031721Y023652D02*
X034121Y023652D01*
X034121Y023553D02*
X031721Y023553D01*
X031721Y023455D02*
X034121Y023455D01*
X034121Y023356D02*
X031721Y023356D01*
X031721Y023257D02*
X034121Y023257D01*
X034121Y023159D02*
X031721Y023159D01*
X031721Y023060D02*
X034121Y023060D01*
X034121Y022962D02*
X031721Y022962D01*
X031721Y022863D02*
X034121Y022863D01*
X034121Y022765D02*
X031721Y022765D01*
X031721Y022666D02*
X034121Y022666D01*
X034121Y022568D02*
X031721Y022568D01*
X031721Y022469D02*
X034121Y022469D01*
X034121Y022371D02*
X031721Y022371D01*
X031721Y022272D02*
X034121Y022272D01*
X034121Y022173D02*
X031721Y022173D01*
X031721Y022075D02*
X034121Y022075D01*
X034121Y021976D02*
X031721Y021976D01*
X031721Y021878D02*
X034121Y021878D01*
X034121Y021779D02*
X031721Y021779D01*
X031721Y021681D02*
X034121Y021681D01*
X034121Y021582D02*
X031721Y021582D01*
X031721Y021484D02*
X034121Y021484D01*
X034121Y021385D02*
X031721Y021385D01*
X031721Y021287D02*
X034121Y021287D01*
X034121Y021188D02*
X031721Y021188D01*
X031721Y021089D02*
X034121Y021089D01*
X034121Y020991D02*
X031721Y020991D01*
X031721Y020892D02*
X034121Y020892D01*
X034121Y020794D02*
X031721Y020794D01*
X031721Y020695D02*
X034121Y020695D01*
X034121Y020597D02*
X031721Y020597D01*
X031721Y020498D02*
X034121Y020498D01*
X034121Y020400D02*
X031721Y020400D01*
X031721Y020301D02*
X034121Y020301D01*
X034121Y020203D02*
X031721Y020203D01*
X031721Y020104D02*
X034121Y020104D01*
X034121Y020006D02*
X031721Y020006D01*
X031721Y019907D02*
X034121Y019907D01*
X034121Y019808D02*
X031721Y019808D01*
X031721Y019710D02*
X034121Y019710D01*
X034121Y019611D02*
X031721Y019611D01*
X031721Y019513D02*
X034121Y019513D01*
X034121Y019414D02*
X031721Y019414D01*
X031721Y019316D02*
X034121Y019316D01*
X034121Y019217D02*
X031721Y019217D01*
X031721Y019119D02*
X034121Y019119D01*
X034121Y019020D02*
X031721Y019020D01*
X031721Y018922D02*
X034121Y018922D01*
X034121Y018823D02*
X031721Y018823D01*
X031721Y018724D02*
X034121Y018724D01*
X034121Y018626D02*
X031721Y018626D01*
X031721Y018527D02*
X034121Y018527D01*
X034121Y018429D02*
X031721Y018429D01*
X031721Y018330D02*
X034121Y018330D01*
X034121Y018232D02*
X031721Y018232D01*
X031721Y018133D02*
X034121Y018133D01*
X034121Y018035D02*
X031721Y018035D01*
X031721Y017936D02*
X034121Y017936D01*
X034121Y017838D02*
X031721Y017838D01*
X031721Y017739D02*
X034121Y017739D01*
X034121Y017640D02*
X031721Y017640D01*
X034121Y017542D02*
X026921Y017542D01*
X026921Y017443D02*
X034121Y017443D01*
X034121Y017345D02*
X026921Y017345D01*
X026921Y017246D02*
X034121Y017246D01*
X034121Y017148D02*
X026921Y017148D01*
X026921Y017049D02*
X034121Y017049D01*
X034121Y016951D02*
X026921Y016951D01*
X026921Y016852D02*
X034121Y016852D01*
X034121Y016754D02*
X026921Y016754D01*
X026921Y016655D02*
X034121Y016655D01*
X034121Y016556D02*
X026921Y016556D01*
X026921Y016458D02*
X034121Y016458D01*
X034121Y016359D02*
X026921Y016359D01*
X026921Y016261D02*
X034121Y016261D01*
X034121Y016162D02*
X025121Y016162D01*
X025121Y016064D02*
X034121Y016064D01*
X034121Y015965D02*
X025121Y015965D01*
X025121Y015867D02*
X034121Y015867D01*
X034121Y015768D02*
X025121Y015768D01*
X025121Y015670D02*
X034121Y015670D01*
X034121Y015571D02*
X025121Y015571D01*
X025121Y015473D02*
X034121Y015473D01*
X034121Y015374D02*
X025121Y015374D01*
X025121Y015275D02*
X034121Y015275D01*
X034121Y015177D02*
X025121Y015177D01*
X025121Y015078D02*
X034121Y015078D01*
X034121Y014980D02*
X025121Y014980D01*
X025121Y014881D02*
X034121Y014881D01*
X034121Y014783D02*
X025121Y014783D01*
X025121Y014684D02*
X034121Y014684D01*
X034121Y014586D02*
X025121Y014586D01*
X025121Y014487D02*
X034121Y014487D01*
X034121Y014389D02*
X025121Y014389D01*
X025121Y014290D02*
X034121Y014290D01*
X034121Y014191D02*
X025121Y014191D01*
X025121Y014093D02*
X026621Y014093D01*
X026621Y013994D02*
X025121Y013994D01*
X025121Y013896D02*
X026621Y013896D01*
X026621Y013797D02*
X025121Y013797D01*
X025121Y013699D02*
X026621Y013699D01*
X026621Y013600D02*
X025121Y013600D01*
X025121Y013502D02*
X026621Y013502D01*
X026621Y013403D02*
X025121Y013403D01*
X025121Y013305D02*
X026621Y013305D01*
X026621Y013206D02*
X025121Y013206D01*
X025121Y013107D02*
X026621Y013107D01*
X026621Y013009D02*
X025121Y013009D01*
X025121Y012910D02*
X026621Y012910D01*
X026621Y012812D02*
X025121Y012812D01*
X025121Y012713D02*
X026621Y012713D01*
X026621Y012615D02*
X025121Y012615D01*
X025121Y012516D02*
X026621Y012516D01*
X026621Y012418D02*
X025121Y012418D01*
X025121Y012319D02*
X026621Y012319D01*
X026621Y012221D02*
X025121Y012221D01*
X025121Y012122D02*
X026621Y012122D01*
X026621Y012024D02*
X025121Y012024D01*
X025121Y011925D02*
X026621Y011925D01*
X026621Y011826D02*
X025121Y011826D01*
X025121Y011728D02*
X026621Y011728D01*
X026621Y011629D02*
X025121Y011629D01*
X025121Y011531D02*
X026621Y011531D01*
X026621Y011432D02*
X025121Y011432D01*
X025121Y011334D02*
X026621Y011334D01*
X026621Y011235D02*
X025121Y011235D01*
X025121Y011137D02*
X026621Y011137D01*
X026621Y011038D02*
X025121Y011038D01*
X025121Y010940D02*
X026621Y010940D01*
X026621Y010841D02*
X025121Y010841D01*
X025121Y010742D02*
X026621Y010742D01*
X026621Y010644D02*
X025121Y010644D01*
X025121Y010545D02*
X026621Y010545D01*
X026621Y010447D02*
X025121Y010447D01*
X025121Y010348D02*
X026621Y010348D01*
X026621Y010250D02*
X025121Y010250D01*
X025121Y010151D02*
X026621Y010151D01*
X026621Y010053D02*
X025121Y010053D01*
X025121Y009954D02*
X026621Y009954D01*
X026621Y009856D02*
X025121Y009856D01*
X025121Y009757D02*
X026621Y009757D01*
X026621Y009658D02*
X025121Y009658D01*
X025121Y009560D02*
X026621Y009560D01*
X026621Y009461D02*
X025121Y009461D01*
X025121Y009363D02*
X026621Y009363D01*
X026621Y009264D02*
X025121Y009264D01*
X025121Y009166D02*
X026621Y009166D01*
X026621Y009067D02*
X025121Y009067D01*
X025121Y008969D02*
X026621Y008969D01*
X026621Y008870D02*
X025121Y008870D01*
X025121Y008772D02*
X026621Y008772D01*
X026621Y008673D02*
X025121Y008673D01*
X025121Y008574D02*
X026621Y008574D01*
X026621Y008476D02*
X025121Y008476D01*
X025121Y008377D02*
X026621Y008377D01*
X026621Y008279D02*
X025121Y008279D01*
X025121Y008180D02*
X026621Y008180D01*
X026621Y008082D02*
X025121Y008082D01*
X025121Y007983D02*
X026621Y007983D01*
X026621Y007885D02*
X025121Y007885D01*
X025121Y007786D02*
X026621Y007786D01*
X026621Y007688D02*
X025121Y007688D01*
X025121Y007589D02*
X026621Y007589D01*
X026621Y007491D02*
X025121Y007491D01*
X022021Y010268D02*
X022021Y010733D01*
X022021Y011402D02*
X022021Y012168D01*
X022421Y012168D01*
X022624Y012371D01*
X022624Y014668D01*
X022427Y014668D02*
X022427Y013974D01*
X022321Y013868D01*
X022021Y013868D01*
X022021Y013802D01*
X022021Y013133D02*
X022021Y012568D01*
X022021Y012168D02*
X020121Y012168D01*
X019821Y012468D01*
X019821Y014133D01*
X019821Y014168D01*
X021121Y013868D02*
X021221Y013968D01*
X021221Y014168D01*
X021321Y014268D01*
X022121Y014268D01*
X022230Y014377D01*
X022230Y014668D01*
X022034Y014668D02*
X022034Y015180D01*
X022221Y015368D01*
X022427Y015522D02*
X022427Y015561D01*
X022421Y015568D01*
X022521Y015668D01*
X022621Y015668D01*
X022624Y016376D02*
X022624Y016871D01*
X022821Y017068D01*
X022921Y016768D02*
X023921Y016768D01*
X023936Y016753D01*
X023941Y016753D01*
X022921Y016768D02*
X022821Y016668D01*
X022821Y016376D01*
X022427Y016376D02*
X022427Y017374D01*
X022521Y017468D01*
X023921Y017468D01*
X023941Y017448D01*
X023941Y017422D01*
X023321Y017868D02*
X023321Y018568D01*
X023341Y018548D01*
X023341Y018538D01*
X023321Y017868D02*
X022421Y017868D01*
X022230Y017677D01*
X022230Y016376D01*
X022034Y016376D02*
X022034Y016655D01*
X021921Y016768D01*
X021221Y016768D01*
X019821Y016202D02*
X019821Y016168D01*
X019021Y016968D01*
X018356Y016968D01*
X018321Y016968D01*
X017686Y016968D02*
X015721Y016968D01*
X015521Y016768D01*
X015486Y016768D01*
X014875Y017148D02*
X011821Y017148D01*
X011821Y017246D02*
X014971Y017246D01*
X015067Y017345D02*
X011821Y017345D01*
X011821Y017443D02*
X015163Y017443D01*
X015259Y017542D02*
X011821Y017542D01*
X011821Y017640D02*
X015355Y017640D01*
X015451Y017739D02*
X011821Y017739D01*
X011821Y017838D02*
X015547Y017838D01*
X015643Y017936D02*
X011821Y017936D01*
X011821Y018035D02*
X015739Y018035D01*
X015835Y018133D02*
X011821Y018133D01*
X011821Y018232D02*
X015931Y018232D01*
X016027Y018330D02*
X011821Y018330D01*
X011821Y018429D02*
X016123Y018429D01*
X016219Y018527D02*
X011821Y018527D01*
X011821Y018626D02*
X016314Y018626D01*
X016410Y018724D02*
X011821Y018724D01*
X011821Y018823D02*
X016506Y018823D01*
X016602Y018922D02*
X011821Y018922D01*
X011821Y019020D02*
X016698Y019020D01*
X016794Y019119D02*
X011821Y019119D01*
X011821Y019217D02*
X016890Y019217D01*
X016986Y019316D02*
X011821Y019316D01*
X011821Y019414D02*
X017082Y019414D01*
X017178Y019513D02*
X011821Y019513D01*
X011821Y019611D02*
X017274Y019611D01*
X017370Y019710D02*
X011821Y019710D01*
X011821Y019808D02*
X017466Y019808D01*
X017562Y019907D02*
X011821Y019907D01*
X011821Y020006D02*
X017621Y020006D01*
X017621Y020104D02*
X011821Y020104D01*
X011821Y020203D02*
X017621Y020203D01*
X017621Y020301D02*
X011821Y020301D01*
X011821Y020400D02*
X017621Y020400D01*
X017621Y020498D02*
X011821Y020498D01*
X011821Y020597D02*
X017621Y020597D01*
X017621Y020695D02*
X011821Y020695D01*
X011821Y020794D02*
X017621Y020794D01*
X017621Y020892D02*
X011821Y020892D01*
X011821Y020991D02*
X017621Y020991D01*
X017621Y021089D02*
X011821Y021089D01*
X011821Y021188D02*
X017621Y021188D01*
X017621Y021287D02*
X011821Y021287D01*
X011821Y021385D02*
X017621Y021385D01*
X017621Y021484D02*
X011821Y021484D01*
X011821Y021582D02*
X014751Y021582D01*
X014773Y021573D02*
X015226Y021573D01*
X015646Y021747D01*
X015966Y022068D01*
X016140Y022487D01*
X016140Y022941D01*
X015966Y023360D01*
X015646Y023681D01*
X015226Y023854D01*
X014773Y023854D01*
X014354Y023681D01*
X014033Y023360D01*
X013859Y022941D01*
X013859Y022487D01*
X014033Y022068D01*
X014354Y021747D01*
X014773Y021573D01*
X014513Y021681D02*
X011821Y021681D01*
X011821Y021779D02*
X014321Y021779D01*
X014223Y021878D02*
X011821Y021878D01*
X011821Y021976D02*
X014124Y021976D01*
X014030Y022075D02*
X011821Y022075D01*
X011821Y022173D02*
X013989Y022173D01*
X013948Y022272D02*
X011821Y022272D01*
X011821Y022371D02*
X013907Y022371D01*
X013866Y022469D02*
X011821Y022469D01*
X011821Y022568D02*
X013859Y022568D01*
X013859Y022666D02*
X011821Y022666D01*
X011821Y022765D02*
X013859Y022765D01*
X013859Y022863D02*
X011821Y022863D01*
X011821Y022962D02*
X013868Y022962D01*
X013909Y023060D02*
X011821Y023060D01*
X011821Y023159D02*
X013949Y023159D01*
X013990Y023257D02*
X011821Y023257D01*
X011821Y023356D02*
X014031Y023356D01*
X014127Y023455D02*
X011821Y023455D01*
X011821Y023553D02*
X014226Y023553D01*
X014324Y023652D02*
X011821Y023652D01*
X011821Y023750D02*
X014521Y023750D01*
X014759Y023849D02*
X011821Y023849D01*
X011821Y023947D02*
X017621Y023947D01*
X017621Y023849D02*
X015240Y023849D01*
X015478Y023750D02*
X017621Y023750D01*
X017621Y023652D02*
X015675Y023652D01*
X015773Y023553D02*
X017621Y023553D01*
X017621Y023455D02*
X015872Y023455D01*
X015968Y023356D02*
X017621Y023356D01*
X017621Y023257D02*
X016009Y023257D01*
X016050Y023159D02*
X017621Y023159D01*
X017621Y023060D02*
X016091Y023060D01*
X016131Y022962D02*
X017621Y022962D01*
X017621Y022863D02*
X016140Y022863D01*
X016140Y022765D02*
X017621Y022765D01*
X017621Y022666D02*
X016140Y022666D01*
X016140Y022568D02*
X017621Y022568D01*
X017621Y022469D02*
X016133Y022469D01*
X016092Y022371D02*
X017621Y022371D01*
X017621Y022272D02*
X016051Y022272D01*
X016010Y022173D02*
X017621Y022173D01*
X017621Y022075D02*
X015969Y022075D01*
X015875Y021976D02*
X017621Y021976D01*
X017621Y021878D02*
X015777Y021878D01*
X015678Y021779D02*
X017621Y021779D01*
X017621Y021681D02*
X015486Y021681D01*
X015248Y021582D02*
X017621Y021582D01*
X019921Y021582D02*
X024821Y021582D01*
X024821Y021484D02*
X019921Y021484D01*
X019921Y021385D02*
X024821Y021385D01*
X024821Y021368D02*
X024821Y031768D01*
X019921Y031768D01*
X019921Y021368D01*
X024821Y021368D01*
X024821Y021681D02*
X019921Y021681D01*
X019921Y021779D02*
X024821Y021779D01*
X024821Y021878D02*
X019921Y021878D01*
X019921Y021976D02*
X024821Y021976D01*
X024821Y022075D02*
X019921Y022075D01*
X019921Y022173D02*
X024821Y022173D01*
X024821Y022272D02*
X019921Y022272D01*
X019921Y022371D02*
X024821Y022371D01*
X024821Y022469D02*
X019921Y022469D01*
X019921Y022568D02*
X024821Y022568D01*
X024821Y022666D02*
X019921Y022666D01*
X019921Y022765D02*
X024821Y022765D01*
X024821Y022863D02*
X019921Y022863D01*
X019921Y022962D02*
X024821Y022962D01*
X024821Y023060D02*
X019921Y023060D01*
X019921Y023159D02*
X024821Y023159D01*
X024821Y023257D02*
X019921Y023257D01*
X019921Y023356D02*
X024821Y023356D01*
X024821Y023455D02*
X019921Y023455D01*
X019921Y023553D02*
X024821Y023553D01*
X024821Y023652D02*
X019921Y023652D01*
X019921Y023750D02*
X024821Y023750D01*
X024821Y023849D02*
X019921Y023849D01*
X019921Y023947D02*
X024821Y023947D01*
X024821Y024046D02*
X019921Y024046D01*
X019921Y024144D02*
X024821Y024144D01*
X024821Y024243D02*
X019921Y024243D01*
X019921Y024341D02*
X024821Y024341D01*
X024821Y024440D02*
X019921Y024440D01*
X019921Y024539D02*
X024821Y024539D01*
X024821Y024637D02*
X019921Y024637D01*
X019921Y024736D02*
X024821Y024736D01*
X024821Y024834D02*
X019921Y024834D01*
X019921Y024933D02*
X024821Y024933D01*
X024821Y025031D02*
X019921Y025031D01*
X019921Y025130D02*
X024821Y025130D01*
X024821Y025228D02*
X019921Y025228D01*
X019921Y025327D02*
X024821Y025327D01*
X024821Y025425D02*
X019921Y025425D01*
X019921Y025524D02*
X024821Y025524D01*
X024821Y025622D02*
X019921Y025622D01*
X019921Y025721D02*
X024821Y025721D01*
X024821Y025820D02*
X019921Y025820D01*
X019921Y025918D02*
X024821Y025918D01*
X024821Y026017D02*
X019921Y026017D01*
X019921Y026115D02*
X024821Y026115D01*
X024821Y026214D02*
X019921Y026214D01*
X019921Y026312D02*
X024821Y026312D01*
X024821Y026411D02*
X019921Y026411D01*
X019921Y026509D02*
X024821Y026509D01*
X024821Y026608D02*
X019921Y026608D01*
X019921Y026706D02*
X024821Y026706D01*
X024821Y026805D02*
X019921Y026805D01*
X019921Y026904D02*
X024821Y026904D01*
X024821Y027002D02*
X019921Y027002D01*
X019921Y027101D02*
X024821Y027101D01*
X024821Y027199D02*
X019921Y027199D01*
X019921Y027298D02*
X024821Y027298D01*
X024821Y027396D02*
X019921Y027396D01*
X019921Y027495D02*
X024821Y027495D01*
X024821Y027593D02*
X019921Y027593D01*
X019921Y027692D02*
X024821Y027692D01*
X024821Y027790D02*
X019921Y027790D01*
X019921Y027889D02*
X024821Y027889D01*
X024821Y027988D02*
X019921Y027988D01*
X019921Y028086D02*
X024821Y028086D01*
X024821Y028185D02*
X019921Y028185D01*
X019921Y028283D02*
X024821Y028283D01*
X024821Y028382D02*
X019921Y028382D01*
X019921Y028480D02*
X024821Y028480D01*
X024821Y028579D02*
X019921Y028579D01*
X019921Y028677D02*
X024821Y028677D01*
X024821Y028776D02*
X019921Y028776D01*
X019921Y028874D02*
X024821Y028874D01*
X024821Y028973D02*
X019921Y028973D01*
X019921Y029071D02*
X024821Y029071D01*
X024821Y029170D02*
X019921Y029170D01*
X019921Y029269D02*
X024821Y029269D01*
X024821Y029367D02*
X019921Y029367D01*
X019921Y029466D02*
X024821Y029466D01*
X024821Y029564D02*
X019921Y029564D01*
X019921Y029663D02*
X024821Y029663D01*
X024821Y029761D02*
X019921Y029761D01*
X019921Y029860D02*
X024821Y029860D01*
X024821Y029958D02*
X019921Y029958D01*
X019921Y030057D02*
X024821Y030057D01*
X024821Y030155D02*
X019921Y030155D01*
X019921Y030254D02*
X024821Y030254D01*
X024821Y030353D02*
X019921Y030353D01*
X019921Y030451D02*
X024821Y030451D01*
X024821Y030550D02*
X019921Y030550D01*
X019921Y030648D02*
X024821Y030648D01*
X024821Y030747D02*
X019921Y030747D01*
X019921Y030845D02*
X024821Y030845D01*
X024821Y030944D02*
X019921Y030944D01*
X019921Y031042D02*
X024821Y031042D01*
X024821Y031141D02*
X019921Y031141D01*
X019921Y031239D02*
X024821Y031239D01*
X024821Y031338D02*
X019921Y031338D01*
X019921Y031437D02*
X024821Y031437D01*
X024821Y031535D02*
X019921Y031535D01*
X019921Y031634D02*
X024821Y031634D01*
X024821Y031732D02*
X019921Y031732D01*
X017621Y031732D02*
X012321Y031732D01*
X012321Y031634D02*
X017621Y031634D01*
X017621Y031535D02*
X012321Y031535D01*
X012321Y031437D02*
X017621Y031437D01*
X017621Y031338D02*
X012321Y031338D01*
X012321Y031239D02*
X017621Y031239D01*
X017621Y031141D02*
X012321Y031141D01*
X012321Y031042D02*
X017621Y031042D01*
X017621Y030944D02*
X012321Y030944D01*
X012321Y030845D02*
X017621Y030845D01*
X017621Y030747D02*
X012321Y030747D01*
X012321Y030648D02*
X017621Y030648D01*
X017621Y030550D02*
X012321Y030550D01*
X012321Y030451D02*
X017621Y030451D01*
X017621Y030353D02*
X012321Y030353D01*
X012321Y030254D02*
X017621Y030254D01*
X017621Y030155D02*
X012321Y030155D01*
X012321Y030057D02*
X017621Y030057D01*
X017621Y029958D02*
X012321Y029958D01*
X012321Y029860D02*
X017621Y029860D01*
X017621Y029761D02*
X012321Y029761D01*
X012321Y029663D02*
X017621Y029663D01*
X017621Y029564D02*
X012321Y029564D01*
X012321Y029466D02*
X017621Y029466D01*
X017621Y029367D02*
X012321Y029367D01*
X012321Y029269D02*
X017621Y029269D01*
X017621Y029170D02*
X012321Y029170D01*
X012321Y029071D02*
X017621Y029071D01*
X017621Y028973D02*
X012321Y028973D01*
X012321Y028874D02*
X017621Y028874D01*
X017621Y028776D02*
X012321Y028776D01*
X012321Y028677D02*
X017621Y028677D01*
X017621Y028579D02*
X012321Y028579D01*
X012321Y028480D02*
X017621Y028480D01*
X017621Y028382D02*
X012321Y028382D01*
X012321Y028283D02*
X017621Y028283D01*
X017621Y028185D02*
X012321Y028185D01*
X012321Y028086D02*
X017621Y028086D01*
X017621Y027988D02*
X012321Y027988D01*
X012321Y027889D02*
X017621Y027889D01*
X017621Y027790D02*
X012321Y027790D01*
X012321Y027692D02*
X017621Y027692D01*
X017621Y027593D02*
X012321Y027593D01*
X012321Y027495D02*
X017621Y027495D01*
X017621Y027396D02*
X012321Y027396D01*
X012321Y027298D02*
X017621Y027298D01*
X017621Y027199D02*
X012321Y027199D01*
X012321Y027101D02*
X017621Y027101D01*
X017621Y027002D02*
X012321Y027002D01*
X012321Y026904D02*
X017621Y026904D01*
X017621Y026805D02*
X012321Y026805D01*
X012321Y026706D02*
X017621Y026706D01*
X017621Y026608D02*
X012321Y026608D01*
X012321Y026509D02*
X017621Y026509D01*
X017621Y026411D02*
X012321Y026411D01*
X012321Y026312D02*
X017621Y026312D01*
X017621Y026214D02*
X012321Y026214D01*
X012321Y026115D02*
X017621Y026115D01*
X017621Y026017D02*
X012321Y026017D01*
X012321Y025918D02*
X017621Y025918D01*
X017621Y025820D02*
X012321Y025820D01*
X012321Y025721D02*
X017621Y025721D01*
X017621Y025622D02*
X012321Y025622D01*
X012321Y025524D02*
X017621Y025524D01*
X017621Y025425D02*
X012321Y025425D01*
X012321Y025327D02*
X017621Y025327D01*
X017621Y025228D02*
X012321Y025228D01*
X011821Y025130D02*
X017621Y025130D01*
X017621Y025031D02*
X011821Y025031D01*
X011821Y024933D02*
X017621Y024933D01*
X017621Y024834D02*
X011821Y024834D01*
X011821Y024736D02*
X017621Y024736D01*
X017621Y024637D02*
X011821Y024637D01*
X011821Y024539D02*
X017621Y024539D01*
X017621Y024440D02*
X011821Y024440D01*
X011821Y024341D02*
X017621Y024341D01*
X017621Y024243D02*
X011821Y024243D01*
X011821Y024144D02*
X017621Y024144D01*
X017621Y024046D02*
X011821Y024046D01*
X011821Y017049D02*
X014779Y017049D01*
X014683Y016951D02*
X011821Y016951D01*
X011821Y016852D02*
X014587Y016852D01*
X014491Y016754D02*
X011821Y016754D01*
X011821Y016655D02*
X014395Y016655D01*
X014300Y016556D02*
X011821Y016556D01*
X011821Y016458D02*
X014204Y016458D01*
X014108Y016359D02*
X011821Y016359D01*
X011821Y016261D02*
X014012Y016261D01*
X019821Y015568D02*
X019821Y015533D01*
X019821Y014802D01*
X021121Y013868D02*
X021151Y013838D01*
X021151Y013802D01*
X021151Y013133D02*
X021151Y012598D01*
X021121Y012568D01*
X022821Y013868D02*
X022921Y013768D01*
X023821Y013768D01*
X023791Y013798D01*
X023791Y014573D01*
X022821Y014668D02*
X022821Y013868D01*
X023801Y013782D02*
X023806Y013782D01*
X023821Y013768D01*
X023801Y013113D02*
X023801Y012388D01*
X023821Y012368D01*
X023821Y012402D01*
X016621Y006868D02*
X015656Y006868D01*
X034321Y006968D02*
X034321Y007868D01*
X035721Y007868D01*
X035721Y006968D01*
X034321Y006968D01*
X034321Y006998D02*
X035721Y006998D01*
X035721Y007096D02*
X034321Y007096D01*
X034321Y007195D02*
X035721Y007195D01*
X035721Y007293D02*
X034321Y007293D01*
X034321Y007392D02*
X035721Y007392D01*
X035721Y007491D02*
X034321Y007491D01*
X034321Y007589D02*
X035721Y007589D01*
X035721Y007688D02*
X034321Y007688D01*
X034321Y007786D02*
X035721Y007786D01*
X041321Y007786D02*
X047421Y007786D01*
X047421Y007688D02*
X041321Y007688D01*
X041321Y007589D02*
X047421Y007589D01*
X047421Y007491D02*
X041321Y007491D01*
X041321Y007392D02*
X047421Y007392D01*
X047421Y007293D02*
X041321Y007293D01*
X041321Y007195D02*
X047421Y007195D01*
X047421Y007096D02*
X041321Y007096D01*
X041321Y006998D02*
X047421Y006998D01*
X047421Y006899D02*
X041321Y006899D01*
X041321Y006801D02*
X047421Y006801D01*
X047421Y006702D02*
X041321Y006702D01*
X041321Y006604D02*
X047421Y006604D01*
X047421Y006505D02*
X041321Y006505D01*
X041321Y006407D02*
X047421Y006407D01*
X047421Y006308D02*
X041321Y006308D01*
X041321Y006209D02*
X047421Y006209D01*
X047421Y006111D02*
X041321Y006111D01*
X041321Y006012D02*
X047421Y006012D01*
X047421Y005914D02*
X041321Y005914D01*
X041321Y005815D02*
X047421Y005815D01*
X047421Y005717D02*
X041321Y005717D01*
X041321Y005618D02*
X047421Y005618D01*
X047421Y005520D02*
X041321Y005520D01*
X041321Y005421D02*
X047421Y005421D01*
X047421Y005323D02*
X041321Y005323D01*
X041321Y005224D02*
X047421Y005224D01*
X047421Y005125D02*
X041321Y005125D01*
X041321Y005027D02*
X047421Y005027D01*
X047421Y004928D02*
X041321Y004928D01*
X041321Y004830D02*
X047421Y004830D01*
X047421Y004731D02*
X041321Y004731D01*
X041321Y004633D02*
X047421Y004633D01*
X047421Y004534D02*
X041321Y004534D01*
X041321Y004436D02*
X047421Y004436D01*
X047421Y004337D02*
X041321Y004337D01*
X041321Y004239D02*
X047421Y004239D01*
X047421Y004140D02*
X041321Y004140D01*
X041321Y004041D02*
X047421Y004041D01*
X047421Y003943D02*
X041321Y003943D01*
X041321Y003844D02*
X047421Y003844D01*
X047421Y003746D02*
X041321Y003746D01*
X041321Y003647D02*
X047421Y003647D01*
X047421Y003549D02*
X041321Y003549D01*
X041321Y003450D02*
X047421Y003450D01*
X047421Y003352D02*
X041321Y003352D01*
X041321Y003253D02*
X047421Y003253D01*
X047421Y003168D02*
X041321Y003168D01*
X041321Y011768D01*
X043421Y011768D01*
X043421Y009268D01*
X047421Y009268D01*
X047421Y003168D01*
X048021Y003155D02*
X049621Y003155D01*
X049621Y003253D02*
X048021Y003253D01*
X048021Y003352D02*
X049621Y003352D01*
X049621Y003450D02*
X048021Y003450D01*
X048021Y003549D02*
X049621Y003549D01*
X049621Y003647D02*
X048021Y003647D01*
X048021Y003746D02*
X049621Y003746D01*
X049621Y003844D02*
X048021Y003844D01*
X048021Y003943D02*
X049621Y003943D01*
X049621Y004041D02*
X048021Y004041D01*
X048021Y004140D02*
X049621Y004140D01*
X049621Y004239D02*
X048021Y004239D01*
X048021Y004337D02*
X049621Y004337D01*
X049621Y004436D02*
X048021Y004436D01*
X048021Y004534D02*
X049621Y004534D01*
X049621Y004633D02*
X048021Y004633D01*
X048021Y004731D02*
X049621Y004731D01*
X049621Y004830D02*
X048021Y004830D01*
X048021Y004928D02*
X049621Y004928D01*
X049621Y005027D02*
X048021Y005027D01*
X048021Y005125D02*
X049621Y005125D01*
X049621Y005224D02*
X048021Y005224D01*
X048021Y005323D02*
X049621Y005323D01*
X049621Y005421D02*
X048021Y005421D01*
X048021Y005520D02*
X049621Y005520D01*
X049621Y005618D02*
X048021Y005618D01*
X048021Y005717D02*
X049621Y005717D01*
X049621Y005815D02*
X048021Y005815D01*
X048021Y005914D02*
X049621Y005914D01*
X049621Y006012D02*
X048021Y006012D01*
X048021Y006111D02*
X049621Y006111D01*
X049621Y006209D02*
X048021Y006209D01*
X048021Y006308D02*
X049621Y006308D01*
X049621Y006407D02*
X048021Y006407D01*
X048021Y006505D02*
X049621Y006505D01*
X049621Y006604D02*
X048021Y006604D01*
X048021Y006702D02*
X049621Y006702D01*
X049621Y006801D02*
X048021Y006801D01*
X048021Y006899D02*
X049621Y006899D01*
X049621Y006998D02*
X048021Y006998D01*
X048021Y007096D02*
X049621Y007096D01*
X049621Y007195D02*
X048021Y007195D01*
X048021Y007293D02*
X049621Y007293D01*
X049621Y007392D02*
X048021Y007392D01*
X048021Y007491D02*
X049621Y007491D01*
X049621Y007589D02*
X048021Y007589D01*
X048021Y007688D02*
X049621Y007688D01*
X049621Y007786D02*
X048021Y007786D01*
X048021Y007885D02*
X049621Y007885D01*
X049621Y007983D02*
X048021Y007983D01*
X048021Y008082D02*
X049621Y008082D01*
X049621Y008168D02*
X048021Y008168D01*
X048021Y001168D01*
X057321Y001168D01*
X057321Y004768D01*
X060521Y004768D01*
X060521Y016268D01*
X056621Y016268D01*
X056621Y009168D01*
X054721Y009168D01*
X054721Y002468D01*
X049621Y002468D01*
X049621Y008168D01*
X050321Y008180D02*
X054121Y008180D01*
X054121Y008082D02*
X050321Y008082D01*
X050321Y007983D02*
X054121Y007983D01*
X054121Y007885D02*
X050321Y007885D01*
X050321Y007786D02*
X054121Y007786D01*
X054121Y007688D02*
X050321Y007688D01*
X050321Y007589D02*
X054121Y007589D01*
X054121Y007491D02*
X050321Y007491D01*
X050321Y007392D02*
X054121Y007392D01*
X054121Y007293D02*
X050321Y007293D01*
X050321Y007195D02*
X054121Y007195D01*
X054121Y007096D02*
X050321Y007096D01*
X050321Y006998D02*
X054121Y006998D01*
X054121Y006899D02*
X050321Y006899D01*
X050321Y006801D02*
X054121Y006801D01*
X054121Y006702D02*
X050321Y006702D01*
X050321Y006604D02*
X054121Y006604D01*
X054121Y006505D02*
X050321Y006505D01*
X050321Y006407D02*
X054121Y006407D01*
X054121Y006308D02*
X050321Y006308D01*
X050321Y006209D02*
X054121Y006209D01*
X054121Y006111D02*
X050321Y006111D01*
X050321Y006012D02*
X054121Y006012D01*
X054121Y005914D02*
X050321Y005914D01*
X050321Y005815D02*
X054121Y005815D01*
X054121Y005717D02*
X050321Y005717D01*
X050321Y005618D02*
X054121Y005618D01*
X054121Y005520D02*
X050321Y005520D01*
X050321Y005421D02*
X054121Y005421D01*
X054121Y005323D02*
X050321Y005323D01*
X050321Y005224D02*
X054121Y005224D01*
X054121Y005125D02*
X050321Y005125D01*
X050321Y005027D02*
X054121Y005027D01*
X054121Y004928D02*
X050321Y004928D01*
X050321Y004830D02*
X054121Y004830D01*
X054121Y004731D02*
X050321Y004731D01*
X050321Y004633D02*
X054121Y004633D01*
X054121Y004534D02*
X050321Y004534D01*
X050321Y004436D02*
X054121Y004436D01*
X054121Y004337D02*
X050321Y004337D01*
X050321Y004239D02*
X054121Y004239D01*
X054121Y004140D02*
X050321Y004140D01*
X050321Y004041D02*
X054121Y004041D01*
X054121Y003943D02*
X050321Y003943D01*
X050321Y003844D02*
X054121Y003844D01*
X054121Y003746D02*
X050321Y003746D01*
X050321Y003647D02*
X054121Y003647D01*
X054121Y003549D02*
X050321Y003549D01*
X050321Y003450D02*
X054121Y003450D01*
X054121Y003352D02*
X050321Y003352D01*
X050321Y003253D02*
X054121Y003253D01*
X054121Y003168D02*
X050321Y003168D01*
X050321Y011768D01*
X052321Y011768D01*
X052321Y009168D01*
X054121Y009168D01*
X054121Y003168D01*
X054721Y003155D02*
X057321Y003155D01*
X057321Y003253D02*
X054721Y003253D01*
X054721Y003352D02*
X057321Y003352D01*
X057321Y003450D02*
X054721Y003450D01*
X054721Y003549D02*
X057321Y003549D01*
X057321Y003647D02*
X054721Y003647D01*
X054721Y003746D02*
X057321Y003746D01*
X057321Y003844D02*
X054721Y003844D01*
X054721Y003943D02*
X057321Y003943D01*
X057321Y004041D02*
X054721Y004041D01*
X054721Y004140D02*
X057321Y004140D01*
X057321Y004239D02*
X054721Y004239D01*
X054721Y004337D02*
X057321Y004337D01*
X057321Y004436D02*
X054721Y004436D01*
X054721Y004534D02*
X057321Y004534D01*
X057321Y004633D02*
X054721Y004633D01*
X054721Y004731D02*
X057321Y004731D01*
X054721Y004830D02*
X060521Y004830D01*
X060521Y004928D02*
X054721Y004928D01*
X054721Y005027D02*
X060521Y005027D01*
X060521Y005125D02*
X054721Y005125D01*
X054721Y005224D02*
X060521Y005224D01*
X060521Y005323D02*
X054721Y005323D01*
X054721Y005421D02*
X060521Y005421D01*
X060521Y005520D02*
X054721Y005520D01*
X054721Y005618D02*
X060521Y005618D01*
X060521Y005717D02*
X054721Y005717D01*
X054721Y005815D02*
X060521Y005815D01*
X060521Y005914D02*
X054721Y005914D01*
X054721Y006012D02*
X060521Y006012D01*
X060521Y006111D02*
X054721Y006111D01*
X054721Y006209D02*
X060521Y006209D01*
X060521Y006308D02*
X054721Y006308D01*
X054721Y006407D02*
X060521Y006407D01*
X060521Y006505D02*
X054721Y006505D01*
X054721Y006604D02*
X060521Y006604D01*
X060521Y006702D02*
X054721Y006702D01*
X054721Y006801D02*
X060521Y006801D01*
X060521Y006899D02*
X054721Y006899D01*
X054721Y006998D02*
X060521Y006998D01*
X060521Y007096D02*
X054721Y007096D01*
X054721Y007195D02*
X060521Y007195D01*
X060521Y007293D02*
X054721Y007293D01*
X054721Y007392D02*
X060521Y007392D01*
X060521Y007491D02*
X054721Y007491D01*
X054721Y007589D02*
X060521Y007589D01*
X060521Y007688D02*
X054721Y007688D01*
X054721Y007786D02*
X060521Y007786D01*
X060521Y007885D02*
X054721Y007885D01*
X054721Y007983D02*
X060521Y007983D01*
X060521Y008082D02*
X054721Y008082D01*
X054721Y008180D02*
X060521Y008180D01*
X060521Y008279D02*
X054721Y008279D01*
X054721Y008377D02*
X060521Y008377D01*
X060521Y008476D02*
X054721Y008476D01*
X054721Y008574D02*
X060521Y008574D01*
X060521Y008673D02*
X054721Y008673D01*
X054721Y008772D02*
X060521Y008772D01*
X060521Y008870D02*
X054721Y008870D01*
X054721Y008969D02*
X060521Y008969D01*
X060521Y009067D02*
X054721Y009067D01*
X054721Y009166D02*
X060521Y009166D01*
X060521Y009264D02*
X056621Y009264D01*
X056621Y009363D02*
X060521Y009363D01*
X060521Y009461D02*
X056621Y009461D01*
X056621Y009560D02*
X060521Y009560D01*
X060521Y009658D02*
X056621Y009658D01*
X056621Y009757D02*
X060521Y009757D01*
X060521Y009856D02*
X056621Y009856D01*
X056621Y009954D02*
X060521Y009954D01*
X060521Y010053D02*
X056621Y010053D01*
X056621Y010151D02*
X060521Y010151D01*
X060521Y010250D02*
X056621Y010250D01*
X056621Y010348D02*
X060521Y010348D01*
X060521Y010447D02*
X056621Y010447D01*
X056621Y010545D02*
X060521Y010545D01*
X060521Y010644D02*
X056621Y010644D01*
X056621Y010742D02*
X060521Y010742D01*
X060521Y010841D02*
X056621Y010841D01*
X056621Y010940D02*
X060521Y010940D01*
X060521Y011038D02*
X056621Y011038D01*
X056621Y011137D02*
X060521Y011137D01*
X060521Y011235D02*
X056621Y011235D01*
X056621Y011334D02*
X060521Y011334D01*
X060521Y011432D02*
X056621Y011432D01*
X056621Y011531D02*
X060521Y011531D01*
X060521Y011629D02*
X056621Y011629D01*
X056621Y011728D02*
X060521Y011728D01*
X060521Y011826D02*
X056621Y011826D01*
X056621Y011925D02*
X060521Y011925D01*
X060521Y012024D02*
X056621Y012024D01*
X056621Y012122D02*
X060521Y012122D01*
X060521Y012221D02*
X056621Y012221D01*
X056621Y012319D02*
X060521Y012319D01*
X060521Y012418D02*
X056621Y012418D01*
X056621Y012516D02*
X060521Y012516D01*
X060521Y012615D02*
X056621Y012615D01*
X056621Y012713D02*
X060521Y012713D01*
X060521Y012812D02*
X056621Y012812D01*
X056621Y012910D02*
X060521Y012910D01*
X060521Y013009D02*
X056621Y013009D01*
X056621Y013107D02*
X060521Y013107D01*
X060521Y013206D02*
X056621Y013206D01*
X056621Y013305D02*
X060521Y013305D01*
X060521Y013403D02*
X056621Y013403D01*
X056621Y013502D02*
X060521Y013502D01*
X060521Y013600D02*
X056621Y013600D01*
X056621Y013699D02*
X060521Y013699D01*
X060521Y013797D02*
X056621Y013797D01*
X056621Y013896D02*
X060521Y013896D01*
X060521Y013994D02*
X056621Y013994D01*
X056621Y014093D02*
X060521Y014093D01*
X060521Y014191D02*
X056621Y014191D01*
X056621Y014290D02*
X060521Y014290D01*
X060521Y014389D02*
X056621Y014389D01*
X056621Y014487D02*
X060521Y014487D01*
X060521Y014586D02*
X056621Y014586D01*
X056621Y014684D02*
X060521Y014684D01*
X060521Y014783D02*
X056621Y014783D01*
X056621Y014881D02*
X060521Y014881D01*
X060521Y014980D02*
X056621Y014980D01*
X056621Y015078D02*
X060521Y015078D01*
X060521Y015177D02*
X056621Y015177D01*
X056621Y015275D02*
X060521Y015275D01*
X060521Y015374D02*
X056621Y015374D01*
X056621Y015473D02*
X060521Y015473D01*
X060521Y015571D02*
X056621Y015571D01*
X056621Y015670D02*
X060521Y015670D01*
X060521Y015768D02*
X056621Y015768D01*
X056621Y015867D02*
X060521Y015867D01*
X060521Y015965D02*
X056621Y015965D01*
X056621Y016064D02*
X060521Y016064D01*
X060521Y016162D02*
X056621Y016162D01*
X056621Y016261D02*
X060521Y016261D01*
X061021Y016261D02*
X055121Y016261D01*
X055121Y016359D02*
X061021Y016359D01*
X061021Y016458D02*
X055121Y016458D01*
X055121Y016556D02*
X061021Y016556D01*
X061021Y016655D02*
X055121Y016655D01*
X055121Y016754D02*
X061021Y016754D01*
X061021Y016852D02*
X055121Y016852D01*
X055121Y016951D02*
X061021Y016951D01*
X061021Y017049D02*
X055121Y017049D01*
X055121Y017148D02*
X061021Y017148D01*
X061021Y017246D02*
X055121Y017246D01*
X055121Y017345D02*
X061021Y017345D01*
X061021Y017443D02*
X055121Y017443D01*
X055121Y017542D02*
X061021Y017542D01*
X061021Y017640D02*
X055121Y017640D01*
X055121Y017739D02*
X061021Y017739D01*
X061021Y017838D02*
X055121Y017838D01*
X055121Y017936D02*
X061021Y017936D01*
X061021Y018035D02*
X055121Y018035D01*
X055121Y018133D02*
X061021Y018133D01*
X061021Y018232D02*
X055121Y018232D01*
X055121Y018330D02*
X061021Y018330D01*
X061021Y018429D02*
X055121Y018429D01*
X055121Y018527D02*
X061021Y018527D01*
X061021Y018626D02*
X055121Y018626D01*
X055121Y018724D02*
X061021Y018724D01*
X061021Y018823D02*
X055121Y018823D01*
X055121Y018922D02*
X061021Y018922D01*
X061021Y019020D02*
X055121Y019020D01*
X055121Y019119D02*
X061021Y019119D01*
X061021Y019217D02*
X055121Y019217D01*
X055121Y019316D02*
X061021Y019316D01*
X061021Y019414D02*
X055121Y019414D01*
X055121Y019513D02*
X061021Y019513D01*
X061021Y019611D02*
X055121Y019611D01*
X055121Y019710D02*
X061021Y019710D01*
X061021Y019808D02*
X055121Y019808D01*
X055121Y019907D02*
X061021Y019907D01*
X061021Y020006D02*
X055121Y020006D01*
X055121Y020104D02*
X061021Y020104D01*
X061021Y020203D02*
X055121Y020203D01*
X055121Y020301D02*
X061021Y020301D01*
X061021Y020400D02*
X055121Y020400D01*
X055121Y020498D02*
X061021Y020498D01*
X061021Y020597D02*
X055121Y020597D01*
X055121Y020695D02*
X061021Y020695D01*
X061021Y020794D02*
X055121Y020794D01*
X055121Y020892D02*
X061021Y020892D01*
X061021Y020991D02*
X055121Y020991D01*
X055121Y021089D02*
X061021Y021089D01*
X061021Y021188D02*
X055121Y021188D01*
X055121Y021287D02*
X061021Y021287D01*
X061021Y021385D02*
X055121Y021385D01*
X055121Y021484D02*
X061021Y021484D01*
X061021Y021582D02*
X058090Y021582D01*
X058069Y021573D02*
X058488Y021747D01*
X058809Y022068D01*
X058983Y022487D01*
X058983Y022941D01*
X058809Y023360D01*
X058488Y023681D01*
X058069Y023854D01*
X057615Y023854D01*
X057196Y023681D01*
X056875Y023360D01*
X056702Y022941D01*
X056702Y022487D01*
X056875Y022068D01*
X057196Y021747D01*
X057615Y021573D01*
X058069Y021573D01*
X058328Y021681D02*
X061021Y021681D01*
X061021Y021779D02*
X058521Y021779D01*
X058619Y021878D02*
X061021Y021878D01*
X061021Y021976D02*
X058718Y021976D01*
X058812Y022075D02*
X061021Y022075D01*
X061021Y022173D02*
X058853Y022173D01*
X058894Y022272D02*
X061021Y022272D01*
X061021Y022371D02*
X058934Y022371D01*
X058975Y022469D02*
X061021Y022469D01*
X061021Y022568D02*
X058983Y022568D01*
X058983Y022666D02*
X061021Y022666D01*
X061021Y022765D02*
X058983Y022765D01*
X058983Y022863D02*
X061021Y022863D01*
X061021Y022962D02*
X058974Y022962D01*
X058933Y023060D02*
X061021Y023060D01*
X060221Y023159D02*
X058892Y023159D01*
X058852Y023257D02*
X060221Y023257D01*
X060221Y023356D02*
X058811Y023356D01*
X058715Y023455D02*
X060221Y023455D01*
X060221Y023553D02*
X058616Y023553D01*
X058517Y023652D02*
X060221Y023652D01*
X060221Y023750D02*
X058321Y023750D01*
X058083Y023849D02*
X060221Y023849D01*
X060221Y023947D02*
X051721Y023947D01*
X051721Y023849D02*
X057602Y023849D01*
X057364Y023750D02*
X051721Y023750D01*
X051721Y023652D02*
X057167Y023652D01*
X057068Y023553D02*
X051721Y023553D01*
X051721Y023455D02*
X056970Y023455D01*
X056874Y023356D02*
X051721Y023356D01*
X051721Y023257D02*
X056833Y023257D01*
X056792Y023159D02*
X051721Y023159D01*
X051721Y023060D02*
X056751Y023060D01*
X056710Y022962D02*
X051721Y022962D01*
X051721Y022863D02*
X056702Y022863D01*
X056702Y022765D02*
X051721Y022765D01*
X051721Y022666D02*
X056702Y022666D01*
X056702Y022568D02*
X055121Y022568D01*
X055121Y022469D02*
X056709Y022469D01*
X056750Y022371D02*
X055121Y022371D01*
X055121Y022272D02*
X056791Y022272D01*
X056832Y022173D02*
X055121Y022173D01*
X055121Y022075D02*
X056872Y022075D01*
X056967Y021976D02*
X055121Y021976D01*
X055121Y021878D02*
X057065Y021878D01*
X057164Y021779D02*
X055121Y021779D01*
X055121Y021681D02*
X057356Y021681D01*
X057594Y021582D02*
X055121Y021582D01*
X051721Y024046D02*
X060221Y024046D01*
X060221Y024144D02*
X051721Y024144D01*
X051721Y024243D02*
X060221Y024243D01*
X060221Y024341D02*
X051721Y024341D01*
X051721Y024440D02*
X060221Y024440D01*
X060221Y024539D02*
X051721Y024539D01*
X051721Y024637D02*
X060221Y024637D01*
X060221Y024736D02*
X051721Y024736D01*
X051721Y024834D02*
X060221Y024834D01*
X060221Y024933D02*
X051721Y024933D01*
X051721Y025031D02*
X060221Y025031D01*
X060221Y025130D02*
X051721Y025130D01*
X051721Y025228D02*
X060221Y025228D01*
X060221Y025327D02*
X051721Y025327D01*
X051721Y025425D02*
X060221Y025425D01*
X060221Y025524D02*
X051721Y025524D01*
X051721Y025622D02*
X060221Y025622D01*
X060221Y025721D02*
X051721Y025721D01*
X051721Y025820D02*
X060221Y025820D01*
X060221Y025918D02*
X051721Y025918D01*
X051721Y026017D02*
X060221Y026017D01*
X060221Y026115D02*
X051721Y026115D01*
X051721Y026214D02*
X060221Y026214D01*
X060221Y026312D02*
X051721Y026312D01*
X051721Y026411D02*
X060221Y026411D01*
X060221Y026509D02*
X051721Y026509D01*
X051721Y026608D02*
X060221Y026608D01*
X060221Y026706D02*
X051721Y026706D01*
X051721Y026805D02*
X060221Y026805D01*
X060221Y026904D02*
X051721Y026904D01*
X051721Y027002D02*
X060221Y027002D01*
X060221Y027101D02*
X051721Y027101D01*
X051721Y027199D02*
X060221Y027199D01*
X060221Y027298D02*
X051721Y027298D01*
X051721Y027396D02*
X060221Y027396D01*
X060221Y027495D02*
X051721Y027495D01*
X051721Y027593D02*
X060221Y027593D01*
X060221Y027692D02*
X051721Y027692D01*
X051721Y027790D02*
X060221Y027790D01*
X060221Y027889D02*
X051721Y027889D01*
X051721Y027988D02*
X060221Y027988D01*
X060221Y028086D02*
X051721Y028086D01*
X051721Y028185D02*
X060221Y028185D01*
X060221Y028283D02*
X051721Y028283D01*
X051721Y028382D02*
X060221Y028382D01*
X060221Y028480D02*
X051721Y028480D01*
X051721Y028579D02*
X060221Y028579D01*
X060221Y028677D02*
X051721Y028677D01*
X051721Y028776D02*
X060221Y028776D01*
X060221Y028874D02*
X051721Y028874D01*
X051721Y028973D02*
X060221Y028973D01*
X060221Y029071D02*
X051721Y029071D01*
X051721Y029170D02*
X060221Y029170D01*
X060221Y029269D02*
X051721Y029269D01*
X051721Y029367D02*
X060221Y029367D01*
X060221Y029466D02*
X051721Y029466D01*
X051721Y029564D02*
X060221Y029564D01*
X060221Y029663D02*
X051721Y029663D01*
X051721Y029761D02*
X060221Y029761D01*
X060221Y029860D02*
X051721Y029860D01*
X051721Y029958D02*
X060221Y029958D01*
X060221Y030057D02*
X051721Y030057D01*
X051721Y030155D02*
X060221Y030155D01*
X060221Y030254D02*
X051721Y030254D01*
X051721Y030353D02*
X060221Y030353D01*
X060221Y030451D02*
X051721Y030451D01*
X051721Y030550D02*
X060221Y030550D01*
X060221Y030648D02*
X051721Y030648D01*
X051721Y030747D02*
X060221Y030747D01*
X060221Y030845D02*
X051721Y030845D01*
X051721Y030944D02*
X060221Y030944D01*
X060221Y031042D02*
X051721Y031042D01*
X051721Y031141D02*
X060221Y031141D01*
X060221Y031239D02*
X051721Y031239D01*
X051721Y031338D02*
X060221Y031338D01*
X060221Y031437D02*
X051721Y031437D01*
X051721Y031535D02*
X060221Y031535D01*
X060221Y031634D02*
X051721Y031634D01*
X051721Y031732D02*
X060221Y031732D01*
X060221Y031831D02*
X051721Y031831D01*
X051721Y031929D02*
X060221Y031929D01*
X060221Y032028D02*
X051721Y032028D01*
X051721Y032126D02*
X060221Y032126D01*
X060221Y032225D02*
X051721Y032225D01*
X051721Y032323D02*
X060221Y032323D01*
X060221Y032422D02*
X051721Y032422D01*
X051721Y032521D02*
X060221Y032521D01*
X060221Y032619D02*
X051721Y032619D01*
X051721Y032718D02*
X060221Y032718D01*
X060221Y032816D02*
X051721Y032816D01*
X051721Y032915D02*
X060221Y032915D01*
X060221Y033013D02*
X051721Y033013D01*
X051721Y033112D02*
X060221Y033112D01*
X060221Y033210D02*
X051721Y033210D01*
X051721Y033309D02*
X060221Y033309D01*
X060221Y033407D02*
X051721Y033407D01*
X051721Y033506D02*
X060221Y033506D01*
X060221Y033604D02*
X051721Y033604D01*
X051721Y033703D02*
X060221Y033703D01*
X060221Y033802D02*
X051721Y033802D01*
X051721Y033900D02*
X060221Y033900D01*
X060221Y033999D02*
X051721Y033999D01*
X051721Y034097D02*
X060221Y034097D01*
X060221Y034196D02*
X051721Y034196D01*
X051721Y034294D02*
X060221Y034294D01*
X060221Y034393D02*
X051721Y034393D01*
X051721Y034491D02*
X060221Y034491D01*
X060221Y034590D02*
X051721Y034590D01*
X051721Y034688D02*
X060221Y034688D01*
X060221Y034787D02*
X051721Y034787D01*
X051721Y034886D02*
X060221Y034886D01*
X060221Y034984D02*
X051721Y034984D01*
X051721Y035083D02*
X060221Y035083D01*
X060221Y035181D02*
X051721Y035181D01*
X051721Y035280D02*
X060221Y035280D01*
X060221Y035378D02*
X051721Y035378D01*
X051721Y035477D02*
X060221Y035477D01*
X060221Y035575D02*
X051721Y035575D01*
X051721Y035674D02*
X060221Y035674D01*
X060221Y035772D02*
X051721Y035772D01*
X051721Y035871D02*
X060221Y035871D01*
X060221Y035970D02*
X051721Y035970D01*
X051721Y036068D02*
X060221Y036068D01*
X060221Y036167D02*
X051721Y036167D01*
X051721Y036265D02*
X060221Y036265D01*
X060221Y036364D02*
X051721Y036364D01*
X051721Y036462D02*
X060221Y036462D01*
X060221Y036561D02*
X012321Y036561D01*
X012321Y036659D02*
X060221Y036659D01*
X060221Y036758D02*
X012321Y036758D01*
X012321Y036856D02*
X060221Y036856D01*
X060221Y036955D02*
X012321Y036955D01*
X012321Y037054D02*
X060221Y037054D01*
X060221Y037152D02*
X012321Y037152D01*
X012321Y037251D02*
X060221Y037251D01*
X060221Y037349D02*
X012321Y037349D01*
X012321Y037448D02*
X060221Y037448D01*
X060221Y037546D02*
X012321Y037546D01*
X012321Y037645D02*
X060221Y037645D01*
X060221Y037743D02*
X015521Y037743D01*
X015521Y037842D02*
X057321Y037842D01*
X057321Y037940D02*
X015521Y037940D01*
X015521Y038039D02*
X057321Y038039D01*
X057321Y038137D02*
X015521Y038137D01*
X015521Y038236D02*
X057321Y038236D01*
X057321Y038335D02*
X015521Y038335D01*
X015521Y038433D02*
X057321Y038433D01*
X057321Y038532D02*
X015521Y038532D01*
X015521Y038630D02*
X057321Y038630D01*
X057321Y038729D02*
X015521Y038729D01*
X015521Y038827D02*
X057321Y038827D01*
X057321Y038926D02*
X015521Y038926D01*
X015521Y039024D02*
X057321Y039024D01*
X057321Y039123D02*
X015521Y039123D01*
X015521Y039221D02*
X057321Y039221D01*
X057321Y039320D02*
X015521Y039320D01*
X015521Y039419D02*
X057321Y039419D01*
X057321Y039517D02*
X015521Y039517D01*
X015521Y039616D02*
X057321Y039616D01*
X057321Y039714D02*
X015521Y039714D01*
X015521Y039813D02*
X057321Y039813D01*
X057321Y039911D02*
X015521Y039911D01*
X015521Y040010D02*
X057321Y040010D01*
X057321Y040108D02*
X015521Y040108D01*
X015521Y040207D02*
X057321Y040207D01*
X057321Y040305D02*
X015521Y040305D01*
X015521Y040404D02*
X057321Y040404D01*
X057321Y040503D02*
X015521Y040503D01*
X015521Y040601D02*
X057321Y040601D01*
X057321Y040700D02*
X015521Y040700D01*
X015521Y040798D02*
X057321Y040798D01*
X057321Y040897D02*
X015521Y040897D01*
X015521Y040995D02*
X057321Y040995D01*
X023021Y035168D02*
X023021Y033768D01*
X020721Y033768D01*
X020721Y035168D01*
X023021Y035168D01*
X023021Y035083D02*
X020721Y035083D01*
X020721Y034984D02*
X023021Y034984D01*
X023021Y034886D02*
X020721Y034886D01*
X020721Y034787D02*
X023021Y034787D01*
X023021Y034688D02*
X020721Y034688D01*
X020721Y034590D02*
X023021Y034590D01*
X023021Y034491D02*
X020721Y034491D01*
X020721Y034393D02*
X023021Y034393D01*
X023021Y034294D02*
X020721Y034294D01*
X020721Y034196D02*
X023021Y034196D01*
X023021Y034097D02*
X020721Y034097D01*
X020721Y033999D02*
X023021Y033999D01*
X023021Y033900D02*
X020721Y033900D01*
X020721Y033802D02*
X023021Y033802D01*
X017621Y033802D02*
X012321Y033802D01*
X012321Y033900D02*
X017621Y033900D01*
X017621Y033999D02*
X012321Y033999D01*
X012321Y034097D02*
X017621Y034097D01*
X017621Y034196D02*
X012321Y034196D01*
X012321Y034294D02*
X017621Y034294D01*
X017621Y034393D02*
X012321Y034393D01*
X012321Y034491D02*
X017621Y034491D01*
X017621Y034590D02*
X012321Y034590D01*
X012321Y034688D02*
X017621Y034688D01*
X017621Y034787D02*
X012321Y034787D01*
X012321Y034886D02*
X017621Y034886D01*
X017621Y034984D02*
X012321Y034984D01*
X012321Y035083D02*
X017621Y035083D01*
X017621Y035181D02*
X012321Y035181D01*
X012321Y035280D02*
X017621Y035280D01*
X017621Y035378D02*
X012321Y035378D01*
X012321Y035477D02*
X017621Y035477D01*
X017621Y035575D02*
X012321Y035575D01*
X012321Y035674D02*
X017621Y035674D01*
X017621Y035772D02*
X012321Y035772D01*
X012321Y035871D02*
X017621Y035871D01*
X017621Y035970D02*
X012321Y035970D01*
X012321Y036068D02*
X017621Y036068D01*
X017621Y036167D02*
X012321Y036167D01*
X012321Y036265D02*
X017621Y036265D01*
X017621Y036364D02*
X012321Y036364D01*
X012321Y036462D02*
X017621Y036462D01*
X017621Y033703D02*
X012321Y033703D01*
X012321Y033604D02*
X017621Y033604D01*
X017621Y033506D02*
X012321Y033506D01*
X012321Y033407D02*
X017621Y033407D01*
X017621Y033309D02*
X012321Y033309D01*
X012321Y033210D02*
X017621Y033210D01*
X017621Y033112D02*
X012321Y033112D01*
X012321Y033013D02*
X017621Y033013D01*
X017621Y032915D02*
X012321Y032915D01*
X012321Y032816D02*
X017621Y032816D01*
X017621Y032718D02*
X012321Y032718D01*
X012321Y032619D02*
X017621Y032619D01*
X017621Y032521D02*
X012321Y032521D01*
X012321Y032422D02*
X017621Y032422D01*
X017621Y032323D02*
X012321Y032323D01*
X012321Y032225D02*
X017621Y032225D01*
X017621Y032126D02*
X012321Y032126D01*
X012321Y032028D02*
X017621Y032028D01*
X017621Y031929D02*
X012321Y031929D01*
X012321Y031831D02*
X017621Y031831D01*
X026921Y020868D02*
X026921Y019268D01*
X028921Y019268D01*
X028921Y020868D01*
X026921Y020868D01*
X026921Y020794D02*
X028921Y020794D01*
X028921Y020695D02*
X026921Y020695D01*
X026921Y020597D02*
X028921Y020597D01*
X028921Y020498D02*
X026921Y020498D01*
X026921Y020400D02*
X028921Y020400D01*
X028921Y020301D02*
X026921Y020301D01*
X026921Y020203D02*
X028921Y020203D01*
X028921Y020104D02*
X026921Y020104D01*
X026921Y020006D02*
X028921Y020006D01*
X028921Y019907D02*
X026921Y019907D01*
X026921Y019808D02*
X028921Y019808D01*
X028921Y019710D02*
X026921Y019710D01*
X026921Y019611D02*
X028921Y019611D01*
X028921Y019513D02*
X026921Y019513D01*
X026921Y019414D02*
X028921Y019414D01*
X028921Y019316D02*
X026921Y019316D01*
X041321Y011728D02*
X043421Y011728D01*
X043421Y011629D02*
X041321Y011629D01*
X041321Y011531D02*
X043421Y011531D01*
X043421Y011432D02*
X041321Y011432D01*
X041321Y011334D02*
X043421Y011334D01*
X043421Y011235D02*
X041321Y011235D01*
X041321Y011137D02*
X043421Y011137D01*
X043421Y011038D02*
X041321Y011038D01*
X041321Y010940D02*
X043421Y010940D01*
X043421Y010841D02*
X041321Y010841D01*
X041321Y010742D02*
X043421Y010742D01*
X043421Y010644D02*
X041321Y010644D01*
X041321Y010545D02*
X043421Y010545D01*
X043421Y010447D02*
X041321Y010447D01*
X041321Y010348D02*
X043421Y010348D01*
X043421Y010250D02*
X041321Y010250D01*
X041321Y010151D02*
X043421Y010151D01*
X043421Y010053D02*
X041321Y010053D01*
X041321Y009954D02*
X043421Y009954D01*
X043421Y009856D02*
X041321Y009856D01*
X041321Y009757D02*
X043421Y009757D01*
X043421Y009658D02*
X041321Y009658D01*
X041321Y009560D02*
X043421Y009560D01*
X043421Y009461D02*
X041321Y009461D01*
X041321Y009363D02*
X043421Y009363D01*
X041321Y009264D02*
X047421Y009264D01*
X047421Y009166D02*
X041321Y009166D01*
X041321Y009067D02*
X047421Y009067D01*
X047421Y008969D02*
X041321Y008969D01*
X041321Y008870D02*
X047421Y008870D01*
X047421Y008772D02*
X041321Y008772D01*
X041321Y008673D02*
X047421Y008673D01*
X047421Y008574D02*
X041321Y008574D01*
X041321Y008476D02*
X047421Y008476D01*
X047421Y008377D02*
X041321Y008377D01*
X041321Y008279D02*
X047421Y008279D01*
X047421Y008180D02*
X041321Y008180D01*
X041321Y008082D02*
X047421Y008082D01*
X047421Y007983D02*
X041321Y007983D01*
X041321Y007885D02*
X047421Y007885D01*
X050321Y008279D02*
X054121Y008279D01*
X054121Y008377D02*
X050321Y008377D01*
X050321Y008476D02*
X054121Y008476D01*
X054121Y008574D02*
X050321Y008574D01*
X050321Y008673D02*
X054121Y008673D01*
X054121Y008772D02*
X050321Y008772D01*
X050321Y008870D02*
X054121Y008870D01*
X054121Y008969D02*
X050321Y008969D01*
X050321Y009067D02*
X054121Y009067D01*
X054121Y009166D02*
X050321Y009166D01*
X050321Y009264D02*
X052321Y009264D01*
X052321Y009363D02*
X050321Y009363D01*
X050321Y009461D02*
X052321Y009461D01*
X052321Y009560D02*
X050321Y009560D01*
X050321Y009658D02*
X052321Y009658D01*
X052321Y009757D02*
X050321Y009757D01*
X050321Y009856D02*
X052321Y009856D01*
X052321Y009954D02*
X050321Y009954D01*
X050321Y010053D02*
X052321Y010053D01*
X052321Y010151D02*
X050321Y010151D01*
X050321Y010250D02*
X052321Y010250D01*
X052321Y010348D02*
X050321Y010348D01*
X050321Y010447D02*
X052321Y010447D01*
X052321Y010545D02*
X050321Y010545D01*
X050321Y010644D02*
X052321Y010644D01*
X052321Y010742D02*
X050321Y010742D01*
X050321Y010841D02*
X052321Y010841D01*
X052321Y010940D02*
X050321Y010940D01*
X050321Y011038D02*
X052321Y011038D01*
X052321Y011137D02*
X050321Y011137D01*
X050321Y011235D02*
X052321Y011235D01*
X052321Y011334D02*
X050321Y011334D01*
X050321Y011432D02*
X052321Y011432D01*
X052321Y011531D02*
X050321Y011531D01*
X050321Y011629D02*
X052321Y011629D01*
X052321Y011728D02*
X050321Y011728D01*
X055121Y015670D02*
X061021Y015670D01*
X061021Y015768D02*
X055121Y015768D01*
X055121Y015867D02*
X061021Y015867D01*
X061021Y015965D02*
X055121Y015965D01*
X055121Y016064D02*
X061021Y016064D01*
X061021Y016162D02*
X055121Y016162D01*
X054721Y003056D02*
X057321Y003056D01*
X057321Y002958D02*
X054721Y002958D01*
X054721Y002859D02*
X057321Y002859D01*
X057321Y002760D02*
X054721Y002760D01*
X054721Y002662D02*
X057321Y002662D01*
X057321Y002563D02*
X054721Y002563D01*
X057321Y002465D02*
X048021Y002465D01*
X048021Y002563D02*
X049621Y002563D01*
X049621Y002662D02*
X048021Y002662D01*
X048021Y002760D02*
X049621Y002760D01*
X049621Y002859D02*
X048021Y002859D01*
X048021Y002958D02*
X049621Y002958D01*
X049621Y003056D02*
X048021Y003056D01*
X048021Y002366D02*
X057321Y002366D01*
X057321Y002268D02*
X048021Y002268D01*
X048021Y002169D02*
X057321Y002169D01*
X057321Y002071D02*
X048021Y002071D01*
X048021Y001972D02*
X057321Y001972D01*
X057321Y001874D02*
X048021Y001874D01*
X048021Y001775D02*
X057321Y001775D01*
X057321Y001676D02*
X048021Y001676D01*
X048021Y001578D02*
X057321Y001578D01*
X057321Y001479D02*
X048021Y001479D01*
X048021Y001381D02*
X057321Y001381D01*
X057321Y001282D02*
X048021Y001282D01*
X048021Y001184D02*
X057321Y001184D01*
D40*
X054686Y011068D02*
X053221Y011068D01*
X045586Y011068D02*
X044521Y011068D01*
X027656Y022168D02*
X027656Y022602D01*
X027721Y022668D01*
X027656Y022733D01*
X027656Y023068D01*
X027021Y023068D02*
X026986Y023068D01*
X026986Y022202D01*
X027021Y022168D01*
X026986Y022168D01*
X026986Y023068D02*
X026356Y023068D01*
X025686Y023068D02*
X024621Y023068D01*
X021341Y018538D02*
X021341Y018488D01*
X021221Y018368D01*
X021221Y017402D01*
X021221Y016768D02*
X021221Y016733D01*
X021221Y016102D01*
X021221Y015433D02*
X021221Y014968D01*
X023791Y015242D02*
X023791Y015738D01*
X023821Y015768D01*
X023941Y017422D02*
X024676Y017422D01*
X024921Y017668D01*
X024941Y017648D01*
X024941Y017607D01*
X023821Y011733D02*
X023821Y011168D01*
X020881Y007543D02*
X020881Y006908D01*
X020921Y006868D01*
D41*
X026121Y008768D02*
X036086Y008768D01*
X036756Y008768D02*
X037021Y008768D01*
X037421Y008368D01*
X037421Y007468D01*
X037440Y007449D01*
X037440Y007383D01*
X037436Y007383D01*
X037421Y007368D01*
X037421Y006468D01*
X037071Y006118D01*
X037006Y006118D01*
X035825Y006118D02*
X035821Y006113D01*
X035775Y006113D01*
X035421Y006468D01*
X035421Y007368D01*
X035436Y007383D01*
X035452Y007383D01*
X035821Y006113D02*
X035821Y006068D01*
X044521Y010068D02*
X045586Y010068D01*
X046221Y010068D02*
X046256Y010102D01*
X046256Y011068D01*
X045621Y011068D02*
X045586Y011068D01*
X046221Y010068D02*
X046256Y010068D01*
X046921Y010068D01*
X053221Y010068D02*
X054686Y010068D01*
X054721Y010068D01*
X055321Y010068D02*
X055356Y010102D01*
X055356Y011068D01*
X055356Y010068D02*
X055921Y010068D01*
X055356Y010068D02*
X055321Y010068D01*
X027206Y016753D02*
X023941Y016753D01*
X024941Y018709D02*
X024941Y019248D01*
X024921Y019268D01*
X021341Y018548D02*
X021341Y018538D01*
X021341Y018548D02*
X021321Y018568D01*
X020495Y018568D01*
X019747Y018568D02*
X019221Y018568D01*
X018821Y018568D01*
X039221Y030748D02*
X039221Y033188D01*
X039221Y033268D01*
D42*
X024937Y017784D02*
X024941Y017607D01*
X018695Y013594D02*
X018421Y013868D01*
X017921Y013868D01*
X017821Y013968D01*
X016421Y013968D01*
X016121Y014268D01*
X016121Y015368D01*
X016156Y015368D01*
X015486Y015368D02*
X015486Y016768D01*
X015486Y016802D01*
X014721Y017568D01*
X017821Y015168D02*
X017821Y014602D01*
X017821Y013968D02*
X017821Y013933D01*
X018695Y013594D02*
X018695Y011380D01*
X018321Y011380D02*
X018321Y011968D01*
X018321Y012568D01*
X018221Y012668D01*
X018256Y012668D01*
X017621Y012568D02*
X017521Y012668D01*
X017586Y012668D01*
X017621Y012568D02*
X017621Y012168D01*
X017947Y011842D01*
X017947Y011380D01*
X016721Y011902D02*
X016721Y011968D01*
X034021Y005802D02*
X034021Y005768D01*
X034321Y005768D01*
X034821Y005268D01*
X035321Y005268D01*
X035372Y004778D02*
X034031Y004778D01*
X034021Y004768D01*
X034021Y005133D01*
X034021Y004768D02*
X034021Y004402D01*
X034021Y004368D01*
X034321Y003768D02*
X034831Y004278D01*
X035372Y004278D01*
X035372Y004778D02*
X035931Y004778D01*
X036121Y004968D01*
X036121Y005768D01*
X035821Y006068D01*
X035825Y006072D01*
X035825Y006118D01*
X036721Y005768D02*
X037021Y006068D01*
X037006Y006082D01*
X037006Y006118D01*
X036721Y005768D02*
X036721Y004968D01*
X036911Y004778D01*
X037420Y004778D01*
X037420Y005278D02*
X038311Y005278D01*
X038321Y005268D01*
X038311Y004278D02*
X037420Y004278D01*
X038311Y004278D02*
X038321Y004268D01*
X034321Y003768D02*
X034021Y003768D01*
X034021Y003733D01*
D43*
X034021Y003668D01*
X034021Y003768D02*
X034021Y001968D01*
X033521Y001468D01*
X019621Y001468D01*
X018321Y002768D01*
X018321Y006968D01*
X017827Y007461D01*
X013921Y007461D01*
X013921Y007068D02*
X014721Y007068D01*
X014921Y006868D01*
X014986Y006868D01*
X013921Y007855D02*
X018334Y007855D01*
X018821Y007368D01*
X018821Y002968D01*
X019921Y001868D01*
X031221Y001868D01*
X032221Y002868D01*
X032221Y005068D01*
X032921Y005768D01*
X034021Y005768D01*
X036086Y008768D02*
X036121Y008768D01*
X036021Y008868D01*
X037821Y010168D02*
X037821Y029168D01*
X038221Y029568D01*
X038286Y029568D01*
X038286Y030633D01*
X038321Y030668D01*
X038311Y030678D01*
X038311Y030748D01*
X038921Y029568D02*
X038956Y029568D01*
X041350Y029568D01*
X042492Y029568D02*
X042521Y029568D01*
X042521Y028568D01*
X041421Y027468D01*
X038621Y027468D01*
X037221Y027468D02*
X035721Y025968D01*
X035721Y014568D01*
X034521Y013368D01*
X027221Y013368D01*
X024621Y015968D02*
X024321Y016268D01*
X023621Y016268D01*
X023421Y016068D01*
X024621Y015968D02*
X024621Y009968D01*
X022866Y008212D01*
X020881Y008212D01*
X020881Y008228D01*
X020902Y008249D01*
X020921Y008268D01*
X020902Y008249D02*
X013921Y008249D01*
X013921Y009036D02*
X016121Y009036D01*
X016121Y009068D01*
X016121Y009036D02*
X016121Y008968D01*
X016121Y009036D02*
X017889Y009036D01*
X018321Y009468D01*
X018321Y010356D01*
X018321Y010368D01*
X017947Y010356D02*
X017947Y009794D01*
X017583Y009430D01*
X015421Y009430D01*
X015421Y010433D01*
X016121Y010433D02*
X016121Y009868D01*
X015421Y009430D02*
X013921Y009430D01*
X013921Y009824D02*
X014577Y009824D01*
X014721Y009968D01*
X014721Y010433D01*
X014756Y011068D02*
X015421Y011068D01*
X016086Y011068D01*
X016121Y011102D01*
X016556Y011102D01*
X016721Y011268D01*
X016721Y011233D01*
X015421Y011102D02*
X015421Y011068D01*
X014756Y011068D02*
X014721Y011102D01*
X016721Y011968D02*
X016721Y012268D01*
X017121Y012668D01*
X017521Y012668D01*
X037821Y010168D02*
X040021Y007968D01*
X040021Y002668D01*
X038621Y001268D01*
X037421Y001268D01*
X042521Y029568D02*
X043121Y029568D01*
X043621Y030068D01*
X043621Y031868D01*
X043121Y032368D01*
X042121Y032368D01*
X042121Y032358D01*
X041352Y031937D02*
X041321Y031968D01*
X041321Y031978D01*
X041321Y033033D01*
X041321Y033068D01*
X041321Y033702D02*
X041321Y036668D01*
X039221Y036570D02*
X039123Y036570D01*
X039121Y036568D01*
X039221Y033188D02*
X039221Y033168D01*
X041352Y031937D02*
X041352Y030668D01*
X040221Y030668D01*
X040131Y030758D01*
X040131Y030748D01*
X040131Y030758D02*
X040121Y030768D01*
X042121Y031598D02*
X042691Y031598D01*
X042721Y031568D01*
X042690Y031537D01*
X042690Y030668D01*
D44*
X042721Y031568D03*
X038621Y027468D03*
X037221Y027468D03*
X027721Y022668D03*
X027221Y020668D03*
X027221Y020068D03*
X027221Y019568D03*
X028621Y019568D03*
X028621Y020068D03*
X028621Y020668D03*
X024921Y019268D03*
X022821Y017068D03*
X023421Y016068D03*
X023821Y015768D03*
X022621Y015668D03*
X022621Y015368D03*
X022221Y015368D03*
X022221Y015668D03*
X021221Y014968D03*
X017821Y015168D03*
X021121Y012568D03*
X022021Y012568D03*
X023821Y011168D03*
X022021Y010268D03*
X018321Y011968D03*
X016121Y009868D03*
X016121Y009068D03*
X016621Y006868D03*
X020921Y006868D03*
X027221Y013368D03*
X034621Y007668D03*
X034621Y007168D03*
X038321Y005268D03*
X038321Y004268D03*
X037421Y001268D03*
X046921Y010068D03*
X055921Y010068D03*
X019221Y018568D03*
X018821Y018568D03*
D45*
X025901Y005881D02*
X025908Y005881D01*
X025921Y005868D01*
X025900Y005847D01*
X025900Y003668D01*
D46*
X021521Y034068D03*
X021521Y034568D03*
X021021Y034568D03*
X021021Y034068D03*
D47*
X035321Y005268D02*
X035372Y005278D01*
D48*
X035221Y033968D02*
X035201Y033988D01*
X032971Y033988D01*
X035221Y033968D02*
X035261Y034008D01*
X035261Y034022D01*
M02*
