G75*
G70*
%OFA0B0*%
%FSLAX24Y24*%
%IPPOS*%
%LPD*%
%AMOC8*
5,1,8,0,0,1.08239X$1,22.5*
%
%ADD10C,0.0060*%
%ADD11C,0.0040*%
%ADD12R,0.0860X0.0210*%
%ADD13C,0.0080*%
%ADD14R,0.1496X0.0217*%
%ADD15C,0.0050*%
%ADD16R,0.0440X0.0560*%
%ADD17R,0.0560X0.0560*%
%ADD18R,0.0560X0.0980*%
%ADD19C,0.0100*%
%ADD20R,0.0433X0.0193*%
%ADD21R,0.0200X0.3600*%
%ADD22C,0.0500*%
%ADD23R,0.0500X0.0500*%
%ADD24C,0.0070*%
%ADD25R,0.0290X0.0690*%
%ADD26R,0.0197X0.0630*%
%ADD27C,0.0030*%
%ADD28R,0.0059X0.0866*%
%ADD29R,0.0197X0.1240*%
%ADD30R,0.0340X0.0160*%
%ADD31R,0.0950X0.0800*%
%ADD32R,0.1100X0.0800*%
%ADD33R,0.0500X0.0750*%
%ADD34R,0.0160X0.0340*%
%ADD35R,0.0197X0.0374*%
%ADD36R,0.0374X0.0197*%
%ADD37R,0.0354X0.0374*%
%ADD38C,0.0001*%
%ADD39R,0.0669X0.0295*%
%ADD40R,0.0256X0.0551*%
%ADD41R,0.1260X0.0730*%
%ADD42R,0.0340X0.0730*%
%ADD43R,0.0200X0.0150*%
%ADD44R,0.0220X0.0680*%
%ADD45R,0.0240X0.0620*%
%ADD46R,0.1221X0.0335*%
%ADD47R,0.0079X0.0551*%
D10*
X015151Y006728D02*
X015491Y006728D01*
X015491Y007008D02*
X015151Y007008D01*
X020741Y007708D02*
X020741Y008048D01*
X021021Y008048D02*
X021021Y007708D01*
X021881Y010898D02*
X021881Y011238D01*
X022161Y011238D02*
X022161Y010898D01*
X021291Y013298D02*
X021291Y013638D01*
X021011Y013638D02*
X021011Y013298D01*
X019961Y014298D02*
X019961Y014638D01*
X019681Y014638D02*
X019681Y014298D01*
X019681Y015698D02*
X019681Y016038D01*
X019961Y016038D02*
X019961Y015698D01*
X021081Y016898D02*
X021081Y017238D01*
X021361Y017238D02*
X021361Y016898D01*
X020282Y018318D02*
X019960Y018318D01*
X019960Y018818D02*
X020282Y018818D01*
X018191Y017108D02*
X017851Y017108D01*
X017851Y016828D02*
X018191Y016828D01*
X015991Y015508D02*
X015651Y015508D01*
X015651Y015228D02*
X015991Y015228D01*
X017681Y014438D02*
X017681Y014098D01*
X017961Y014098D02*
X017961Y014438D01*
X016261Y010938D02*
X016261Y010598D01*
X015981Y010598D02*
X015981Y010938D01*
X015561Y010938D02*
X015561Y010598D01*
X015281Y010598D02*
X015281Y010938D01*
X014861Y010938D02*
X014861Y010598D01*
X014581Y010598D02*
X014581Y010938D01*
X023661Y013278D02*
X023661Y013618D01*
X023941Y013618D02*
X023941Y013278D01*
X023801Y016918D02*
X023801Y017258D01*
X024081Y017258D02*
X024081Y016918D01*
X027151Y022028D02*
X027491Y022028D01*
X027491Y022308D02*
X027151Y022308D01*
X026191Y022928D02*
X025851Y022928D01*
X025851Y023208D02*
X026191Y023208D01*
X038451Y029428D02*
X038791Y029428D01*
X038791Y029708D02*
X038451Y029708D01*
X041501Y030358D02*
X042541Y030358D01*
X042315Y029843D02*
X041527Y029843D01*
X041527Y029292D01*
X042315Y029292D01*
X042315Y029843D01*
X041960Y029725D02*
X041724Y029568D01*
X041960Y029410D01*
X041960Y029725D01*
X041501Y030978D02*
X042541Y030978D01*
X041871Y031408D02*
X041571Y031408D01*
X041571Y032548D01*
X041871Y032548D01*
X041871Y031408D01*
X041461Y033198D02*
X041461Y033538D01*
X041181Y033538D02*
X041181Y033198D01*
X039801Y034538D02*
X039801Y036407D01*
X039801Y036057D02*
X039801Y034888D01*
X038641Y034888D02*
X038641Y036057D01*
X038641Y036407D02*
X038641Y034538D01*
X039641Y038598D02*
X039855Y038811D01*
X039748Y038811D02*
X040068Y038811D01*
X040068Y038598D02*
X040068Y039238D01*
X039748Y039238D01*
X039641Y039131D01*
X039641Y038918D01*
X039748Y038811D01*
X040286Y038598D02*
X040713Y038598D01*
X040713Y039238D01*
X040286Y039238D01*
X040499Y038918D02*
X040713Y038918D01*
X040930Y038918D02*
X041144Y038918D01*
X040930Y038918D02*
X040930Y038704D01*
X041037Y038598D01*
X041251Y038598D01*
X041357Y038704D01*
X041357Y039131D01*
X041251Y039238D01*
X041037Y039238D01*
X040930Y039131D01*
X041575Y039238D02*
X041575Y038598D01*
X042002Y039238D01*
X042002Y038598D01*
X042219Y038598D02*
X042219Y039025D01*
X042433Y039238D01*
X042646Y039025D01*
X042646Y038598D01*
X042864Y038704D02*
X042864Y039131D01*
X042971Y039238D01*
X043291Y039238D01*
X043291Y038598D01*
X042971Y038598D01*
X042864Y038704D01*
X042646Y038918D02*
X042219Y038918D01*
X038779Y038918D02*
X038352Y038918D01*
X037490Y038918D02*
X037063Y038918D01*
X037063Y039238D02*
X037063Y038598D01*
X036846Y038598D02*
X036632Y038598D01*
X036739Y038598D02*
X036739Y039238D01*
X036846Y039238D02*
X036632Y039238D01*
X036416Y039131D02*
X036416Y038704D01*
X036309Y038598D01*
X036096Y038598D01*
X035989Y038704D01*
X035989Y038918D01*
X036202Y038918D01*
X035989Y039131D02*
X036096Y039238D01*
X036309Y039238D01*
X036416Y039131D01*
X035771Y039238D02*
X035771Y038598D01*
X035771Y038918D02*
X035344Y038918D01*
X035344Y039238D02*
X035344Y038598D01*
X034482Y038811D02*
X034482Y039238D01*
X034055Y039238D02*
X034055Y038811D01*
X034269Y038598D01*
X034482Y038811D01*
X033838Y038704D02*
X033838Y039131D01*
X033731Y039238D01*
X033518Y039238D01*
X033411Y039131D01*
X033411Y038704D01*
X033518Y038598D01*
X033731Y038598D01*
X033838Y038704D01*
X033193Y038598D02*
X033193Y039238D01*
X033193Y038598D02*
X032766Y038598D01*
X032335Y038598D02*
X032335Y039238D01*
X032122Y039238D02*
X032549Y039238D01*
X031904Y039025D02*
X031904Y038598D01*
X031904Y038918D02*
X031477Y038918D01*
X031477Y039025D02*
X031477Y038598D01*
X031260Y038704D02*
X031260Y039131D01*
X031153Y039238D01*
X030940Y039238D01*
X030833Y039131D01*
X030833Y038918D02*
X031046Y038918D01*
X030833Y038918D02*
X030833Y038704D01*
X030940Y038598D01*
X031153Y038598D01*
X031260Y038704D01*
X031477Y039025D02*
X031691Y039238D01*
X031904Y039025D01*
X030615Y038918D02*
X030402Y038918D01*
X030615Y038598D02*
X030188Y038598D01*
X030615Y038598D02*
X030615Y039238D01*
X030188Y039238D01*
X037490Y039238D02*
X037490Y038598D01*
X039221Y021268D02*
X039221Y017518D01*
X045421Y017518D01*
X045421Y021268D01*
X047921Y021268D02*
X047921Y017518D01*
X054121Y017518D01*
X054121Y021268D01*
X050171Y019068D02*
X050175Y019145D01*
X050185Y019222D01*
X050203Y019297D01*
X050227Y019371D01*
X050258Y019442D01*
X050295Y019510D01*
X050338Y019574D01*
X050387Y019634D01*
X050441Y019689D01*
X050500Y019739D01*
X050563Y019784D01*
X050630Y019823D01*
X050700Y019855D01*
X050773Y019881D01*
X050848Y019900D01*
X050924Y019912D01*
X051002Y019918D01*
X051079Y019916D01*
X051156Y019907D01*
X051232Y019891D01*
X051306Y019869D01*
X051377Y019840D01*
X051446Y019804D01*
X051511Y019762D01*
X051572Y019715D01*
X051629Y019662D01*
X051680Y019604D01*
X051726Y019542D01*
X051767Y019476D01*
X051801Y019407D01*
X051828Y019334D01*
X051849Y019260D01*
X051863Y019184D01*
X051870Y019107D01*
X051870Y019029D01*
X051863Y018952D01*
X051849Y018876D01*
X051828Y018802D01*
X051801Y018729D01*
X051767Y018660D01*
X051726Y018594D01*
X051680Y018532D01*
X051629Y018474D01*
X051572Y018421D01*
X051511Y018374D01*
X051446Y018332D01*
X051377Y018296D01*
X051306Y018267D01*
X051232Y018245D01*
X051156Y018229D01*
X051079Y018220D01*
X051002Y018218D01*
X050924Y018224D01*
X050848Y018236D01*
X050773Y018255D01*
X050700Y018281D01*
X050630Y018313D01*
X050563Y018352D01*
X050500Y018397D01*
X050441Y018447D01*
X050387Y018502D01*
X050338Y018562D01*
X050295Y018626D01*
X050258Y018694D01*
X050227Y018765D01*
X050203Y018839D01*
X050185Y018914D01*
X050175Y018991D01*
X050171Y019068D01*
X047921Y017518D02*
X047921Y013368D01*
X054121Y013368D01*
X054121Y017518D01*
X045421Y017518D02*
X045421Y013368D01*
X039221Y013368D01*
X039221Y017518D01*
X041471Y019068D02*
X041475Y019145D01*
X041485Y019222D01*
X041503Y019297D01*
X041527Y019371D01*
X041558Y019442D01*
X041595Y019510D01*
X041638Y019574D01*
X041687Y019634D01*
X041741Y019689D01*
X041800Y019739D01*
X041863Y019784D01*
X041930Y019823D01*
X042000Y019855D01*
X042073Y019881D01*
X042148Y019900D01*
X042224Y019912D01*
X042302Y019918D01*
X042379Y019916D01*
X042456Y019907D01*
X042532Y019891D01*
X042606Y019869D01*
X042677Y019840D01*
X042746Y019804D01*
X042811Y019762D01*
X042872Y019715D01*
X042929Y019662D01*
X042980Y019604D01*
X043026Y019542D01*
X043067Y019476D01*
X043101Y019407D01*
X043128Y019334D01*
X043149Y019260D01*
X043163Y019184D01*
X043170Y019107D01*
X043170Y019029D01*
X043163Y018952D01*
X043149Y018876D01*
X043128Y018802D01*
X043101Y018729D01*
X043067Y018660D01*
X043026Y018594D01*
X042980Y018532D01*
X042929Y018474D01*
X042872Y018421D01*
X042811Y018374D01*
X042746Y018332D01*
X042677Y018296D01*
X042606Y018267D01*
X042532Y018245D01*
X042456Y018229D01*
X042379Y018220D01*
X042302Y018218D01*
X042224Y018224D01*
X042148Y018236D01*
X042073Y018255D01*
X042000Y018281D01*
X041930Y018313D01*
X041863Y018352D01*
X041800Y018397D01*
X041741Y018447D01*
X041687Y018502D01*
X041638Y018562D01*
X041595Y018626D01*
X041558Y018694D01*
X041527Y018765D01*
X041503Y018839D01*
X041485Y018914D01*
X041475Y018991D01*
X041471Y019068D01*
X045751Y011208D02*
X046091Y011208D01*
X046091Y010928D02*
X045751Y010928D01*
X045751Y010208D02*
X046091Y010208D01*
X046091Y009928D02*
X045751Y009928D01*
X047481Y009248D02*
X043781Y009248D01*
X043781Y005648D01*
X047481Y005648D01*
X047481Y009248D01*
X045631Y007698D02*
X045631Y007448D01*
X045131Y007198D01*
X045131Y007698D01*
X045631Y007448D01*
X045631Y007198D01*
X045631Y007448D02*
X044631Y007448D01*
X045631Y007448D02*
X046081Y007448D01*
X047471Y005033D02*
X048226Y005033D01*
X048226Y004393D02*
X047471Y004393D01*
X052831Y005708D02*
X056531Y005708D01*
X056531Y009308D01*
X052831Y009308D01*
X052831Y005708D01*
X053941Y005088D02*
X054696Y005088D01*
X054696Y004448D02*
X053941Y004448D01*
X054181Y007258D02*
X054681Y007508D01*
X054681Y007258D01*
X054681Y007508D02*
X053681Y007508D01*
X054181Y007758D02*
X054181Y007258D01*
X054181Y007758D02*
X054681Y007508D01*
X054681Y007758D01*
X054681Y007508D02*
X055131Y007508D01*
X055191Y009928D02*
X054851Y009928D01*
X054851Y010208D02*
X055191Y010208D01*
X055191Y010928D02*
X054851Y010928D01*
X054851Y011208D02*
X055191Y011208D01*
X034161Y005638D02*
X034161Y005298D01*
X033881Y005298D02*
X033881Y005638D01*
X033881Y004238D02*
X033881Y003898D01*
X034161Y003898D02*
X034161Y004238D01*
D11*
X033791Y003284D02*
X033791Y002977D01*
X033791Y002824D02*
X033944Y002670D01*
X033944Y002747D02*
X033944Y002517D01*
X033791Y002517D02*
X034251Y002517D01*
X034251Y002747D01*
X034175Y002824D01*
X034021Y002824D01*
X033944Y002747D01*
X034098Y002977D02*
X034251Y003131D01*
X033791Y003131D01*
X035779Y003105D02*
X035856Y003028D01*
X036010Y003028D01*
X036086Y003105D01*
X036086Y003181D01*
X036010Y003258D01*
X035856Y003258D01*
X035779Y003181D01*
X035779Y003105D01*
X035856Y003028D02*
X035779Y002951D01*
X035779Y002874D01*
X035856Y002798D01*
X036010Y002798D01*
X036086Y002874D01*
X036086Y002951D01*
X036010Y003028D01*
X036240Y002874D02*
X036240Y003258D01*
X036547Y003258D02*
X036547Y002874D01*
X036470Y002798D01*
X036317Y002798D01*
X036240Y002874D01*
X035816Y005822D02*
X037016Y005822D01*
X037016Y006413D02*
X035816Y006413D01*
X035344Y006772D02*
X035344Y007993D01*
X037548Y007993D01*
X037548Y006772D01*
X035344Y006772D01*
X034251Y006775D02*
X034175Y006698D01*
X034251Y006775D02*
X034251Y006928D01*
X034175Y007005D01*
X034098Y007005D01*
X033791Y006698D01*
X033791Y007005D01*
X033791Y006545D02*
X033944Y006391D01*
X033944Y006468D02*
X033944Y006238D01*
X033791Y006238D02*
X034251Y006238D01*
X034251Y006468D01*
X034175Y006545D01*
X034021Y006545D01*
X033944Y006468D01*
X036281Y008603D02*
X036561Y008603D01*
X036561Y008938D02*
X036281Y008938D01*
X037304Y008971D02*
X037381Y009048D01*
X037535Y009048D01*
X037611Y008971D01*
X037304Y008971D02*
X037304Y008895D01*
X037611Y008588D01*
X037304Y008588D01*
X037765Y008588D02*
X038072Y008588D01*
X038072Y009048D01*
X038098Y007645D02*
X038098Y007568D01*
X038405Y007261D01*
X038405Y007184D01*
X038559Y007261D02*
X038635Y007184D01*
X038789Y007184D01*
X038866Y007261D01*
X038866Y007568D01*
X038789Y007645D01*
X038635Y007645D01*
X038559Y007568D01*
X038405Y007645D02*
X038098Y007645D01*
X045193Y005053D02*
X045347Y004976D01*
X045500Y004823D01*
X045270Y004823D01*
X045193Y004746D01*
X045193Y004669D01*
X045270Y004593D01*
X045424Y004593D01*
X045500Y004669D01*
X045500Y004823D01*
X045654Y004593D02*
X045961Y004593D01*
X046114Y004593D02*
X046268Y004746D01*
X046191Y004746D02*
X046421Y004746D01*
X046421Y004593D02*
X046421Y005053D01*
X046191Y005053D01*
X046114Y004976D01*
X046114Y004823D01*
X046191Y004746D01*
X045961Y004900D02*
X045807Y005053D01*
X045807Y004593D01*
X049654Y002671D02*
X049654Y002595D01*
X049731Y002518D01*
X049654Y002441D01*
X049654Y002364D01*
X049731Y002288D01*
X049885Y002288D01*
X049961Y002364D01*
X049808Y002518D02*
X049731Y002518D01*
X049654Y002671D02*
X049731Y002748D01*
X049885Y002748D01*
X049961Y002671D01*
X050115Y002748D02*
X050268Y002748D01*
X050192Y002748D02*
X050192Y002364D01*
X050268Y002288D01*
X050345Y002288D01*
X050422Y002364D01*
X051920Y004588D02*
X052074Y004588D01*
X052150Y004664D01*
X052150Y004818D02*
X051997Y004895D01*
X051920Y004895D01*
X051843Y004818D01*
X051843Y004664D01*
X051920Y004588D01*
X052150Y004818D02*
X052150Y005048D01*
X051843Y005048D01*
X052457Y005048D02*
X052611Y004895D01*
X052764Y004971D02*
X052764Y004818D01*
X052841Y004741D01*
X053071Y004741D01*
X053071Y004588D02*
X053071Y005048D01*
X052841Y005048D01*
X052764Y004971D01*
X052918Y004741D02*
X052764Y004588D01*
X052611Y004588D02*
X052304Y004588D01*
X052457Y004588D02*
X052457Y005048D01*
X056354Y002671D02*
X056431Y002748D01*
X056585Y002748D01*
X056661Y002671D01*
X056815Y002748D02*
X056968Y002748D01*
X056892Y002748D02*
X056892Y002364D01*
X056968Y002288D01*
X057045Y002288D01*
X057122Y002364D01*
X056661Y002288D02*
X056354Y002595D01*
X056354Y002671D01*
X056354Y002288D02*
X056661Y002288D01*
X056472Y010338D02*
X056472Y010798D01*
X056242Y010798D01*
X056165Y010721D01*
X056165Y010568D01*
X056242Y010491D01*
X056472Y010491D01*
X056318Y010491D02*
X056165Y010338D01*
X056011Y010568D02*
X055704Y010568D01*
X055781Y010798D02*
X056011Y010568D01*
X055781Y010338D02*
X055781Y010798D01*
X055351Y011538D02*
X055351Y011998D01*
X055121Y011998D01*
X055044Y011921D01*
X055044Y011768D01*
X055121Y011691D01*
X055351Y011691D01*
X055198Y011691D02*
X055044Y011538D01*
X054891Y011614D02*
X054814Y011538D01*
X054660Y011538D01*
X054584Y011614D01*
X054584Y011691D01*
X054660Y011768D01*
X054737Y011768D01*
X054660Y011768D02*
X054584Y011845D01*
X054584Y011921D01*
X054660Y011998D01*
X054814Y011998D01*
X054891Y011921D01*
X047272Y010798D02*
X047272Y010338D01*
X047272Y010491D02*
X047042Y010491D01*
X046965Y010568D01*
X046965Y010721D01*
X047042Y010798D01*
X047272Y010798D01*
X047118Y010491D02*
X046965Y010338D01*
X046811Y010414D02*
X046735Y010338D01*
X046581Y010338D01*
X046504Y010414D01*
X046504Y010491D01*
X046581Y010568D01*
X046811Y010568D01*
X046811Y010414D01*
X046811Y010568D02*
X046658Y010721D01*
X046504Y010798D01*
X046351Y011638D02*
X046351Y012098D01*
X046121Y012098D01*
X046044Y012021D01*
X046044Y011868D01*
X046121Y011791D01*
X046351Y011791D01*
X046198Y011791D02*
X046044Y011638D01*
X045891Y011714D02*
X045814Y011638D01*
X045660Y011638D01*
X045584Y011714D01*
X045584Y011868D01*
X045660Y011945D01*
X045737Y011945D01*
X045891Y011868D01*
X045891Y012098D01*
X045584Y012098D01*
X029939Y017295D02*
X029939Y020406D01*
X028325Y020406D01*
X028327Y020267D02*
X027535Y020267D01*
X027537Y020406D02*
X025923Y020406D01*
X025923Y017295D01*
X026829Y016390D01*
X027537Y016390D01*
X026829Y016390D02*
X029033Y016390D01*
X029939Y017295D01*
X029939Y020406D01*
X025923Y020406D01*
X025923Y017295D01*
X026829Y016390D01*
X025702Y016453D02*
X025702Y015993D01*
X025702Y016146D02*
X025472Y016146D01*
X025395Y016223D01*
X025395Y016376D01*
X025472Y016453D01*
X025702Y016453D01*
X025549Y016146D02*
X025395Y015993D01*
X025242Y015993D02*
X024935Y015993D01*
X025088Y015993D02*
X025088Y016453D01*
X025242Y016300D01*
X024781Y016300D02*
X024705Y016223D01*
X024474Y016223D01*
X024474Y016376D02*
X024474Y016069D01*
X024551Y015993D01*
X024705Y015993D01*
X024781Y016069D01*
X024781Y016300D02*
X024781Y016376D01*
X024705Y016453D01*
X024551Y016453D01*
X024474Y016376D01*
X024631Y017778D02*
X024631Y018538D01*
X025251Y018538D02*
X025251Y017778D01*
X026474Y019677D02*
X029368Y019677D01*
X029348Y019697D02*
X026533Y019697D01*
X026514Y019697D01*
X026848Y019992D01*
X027321Y020228D01*
X027754Y020307D01*
X028108Y020307D01*
X028541Y020228D01*
X029014Y019992D01*
X029348Y019697D01*
X029313Y019728D02*
X026549Y019728D01*
X026592Y019766D02*
X029270Y019766D01*
X029226Y019805D02*
X026636Y019805D01*
X026680Y019843D02*
X029182Y019843D01*
X029139Y019882D02*
X026723Y019882D01*
X026767Y019921D02*
X029095Y019921D01*
X029051Y019959D02*
X026811Y019959D01*
X026859Y019998D02*
X029003Y019998D01*
X028926Y020036D02*
X026936Y020036D01*
X027013Y020075D02*
X028849Y020075D01*
X028771Y020113D02*
X027090Y020113D01*
X027167Y020152D02*
X028694Y020152D01*
X028617Y020190D02*
X027245Y020190D01*
X027323Y020229D02*
X028539Y020229D01*
X028115Y020306D02*
X027747Y020306D01*
X028181Y021938D02*
X028335Y021938D01*
X028411Y022014D01*
X028411Y022168D02*
X028258Y022245D01*
X028181Y022245D01*
X028104Y022168D01*
X028104Y022014D01*
X028181Y021938D01*
X028411Y022168D02*
X028411Y022398D01*
X028104Y022398D01*
X028181Y022788D02*
X028335Y022788D01*
X028411Y022864D01*
X028104Y023171D01*
X028104Y022864D01*
X028181Y022788D01*
X028411Y022864D02*
X028411Y023171D01*
X028335Y023248D01*
X028181Y023248D01*
X028104Y023171D01*
X028565Y022788D02*
X028872Y022788D01*
X028718Y022788D02*
X028718Y023248D01*
X028872Y023095D01*
X029025Y023171D02*
X029102Y023248D01*
X029255Y023248D01*
X029332Y023171D01*
X029332Y022864D01*
X029255Y022788D01*
X029102Y022788D01*
X029025Y022864D01*
X029102Y022398D02*
X029025Y022321D01*
X029025Y022168D01*
X029102Y022091D01*
X029332Y022091D01*
X029332Y021938D02*
X029332Y022398D01*
X029102Y022398D01*
X028872Y022321D02*
X028795Y022398D01*
X028642Y022398D01*
X028565Y022321D01*
X028565Y022245D01*
X028872Y021938D01*
X028565Y021938D01*
X029025Y021938D02*
X029179Y022091D01*
X027461Y022898D02*
X027181Y022898D01*
X027181Y023233D02*
X027461Y023233D01*
X026451Y023438D02*
X026451Y023898D01*
X026221Y023898D01*
X026144Y023821D01*
X026144Y023668D01*
X026221Y023591D01*
X026451Y023591D01*
X026298Y023591D02*
X026144Y023438D01*
X025991Y023438D02*
X025684Y023745D01*
X025684Y023821D01*
X025760Y023898D01*
X025914Y023898D01*
X025991Y023821D01*
X025991Y023438D02*
X025684Y023438D01*
X025530Y023668D02*
X025223Y023668D01*
X025300Y023438D02*
X025300Y023898D01*
X025530Y023668D01*
X024661Y021835D02*
X024661Y021528D01*
X024661Y021375D02*
X024814Y021221D01*
X024738Y021068D02*
X024661Y021144D01*
X024661Y021298D01*
X024738Y021375D01*
X025045Y021375D01*
X025121Y021298D01*
X025121Y021144D01*
X025045Y021068D01*
X024738Y021068D01*
X024968Y021528D02*
X025121Y021681D01*
X024661Y021681D01*
X024861Y020545D02*
X024861Y020238D01*
X025168Y020545D01*
X025245Y020545D01*
X025321Y020468D01*
X025321Y020315D01*
X025245Y020238D01*
X025245Y020085D02*
X025321Y020008D01*
X025321Y019854D01*
X025245Y019778D01*
X024938Y019778D01*
X024861Y019854D01*
X024861Y020008D01*
X024938Y020085D01*
X025982Y018398D02*
X025990Y018575D01*
X026014Y018751D01*
X026054Y018924D01*
X026110Y019092D01*
X026181Y019255D01*
X026266Y019411D01*
X026365Y019558D01*
X026477Y019696D01*
X026601Y019822D01*
X026736Y019937D01*
X026881Y020040D01*
X027034Y020128D01*
X027195Y020203D01*
X027363Y020262D01*
X027534Y020306D01*
X027710Y020334D01*
X027887Y020346D01*
X028064Y020342D01*
X028240Y020322D01*
X028414Y020286D01*
X028584Y020234D01*
X028748Y020168D01*
X028905Y020086D01*
X029055Y019990D01*
X029195Y019881D01*
X029325Y019760D01*
X029443Y019628D01*
X029548Y019485D01*
X029641Y019334D01*
X029719Y019174D01*
X029782Y019009D01*
X029830Y018838D01*
X029862Y018663D01*
X029878Y018487D01*
X029878Y018309D01*
X029862Y018133D01*
X029830Y017958D01*
X029782Y017787D01*
X029719Y017622D01*
X029641Y017462D01*
X029548Y017311D01*
X029443Y017168D01*
X029325Y017036D01*
X029195Y016915D01*
X029055Y016806D01*
X028906Y016710D01*
X028748Y016628D01*
X028584Y016562D01*
X028414Y016510D01*
X028240Y016474D01*
X028064Y016454D01*
X027887Y016450D01*
X027710Y016462D01*
X027534Y016490D01*
X027363Y016534D01*
X027195Y016593D01*
X027034Y016668D01*
X026881Y016756D01*
X026736Y016859D01*
X026601Y016974D01*
X026477Y017100D01*
X026365Y017238D01*
X026266Y017385D01*
X026181Y017541D01*
X026110Y017704D01*
X026054Y017872D01*
X026014Y018045D01*
X025990Y018221D01*
X025982Y018398D01*
X028325Y016390D02*
X029033Y016390D01*
X029939Y017295D01*
X025672Y014901D02*
X025672Y014594D01*
X025595Y014518D01*
X025442Y014518D01*
X025365Y014594D01*
X025212Y014518D02*
X024905Y014518D01*
X025058Y014518D02*
X025058Y014978D01*
X025212Y014825D01*
X025365Y014901D02*
X025442Y014978D01*
X025595Y014978D01*
X025672Y014901D01*
X024751Y014901D02*
X024675Y014978D01*
X024521Y014978D01*
X024444Y014901D01*
X024444Y014825D01*
X024751Y014518D01*
X024444Y014518D01*
X023961Y014768D02*
X023961Y015048D01*
X023626Y015048D02*
X023626Y014768D01*
X022825Y013705D02*
X022748Y013705D01*
X022671Y013628D01*
X022594Y013705D01*
X022518Y013705D01*
X022441Y013628D01*
X022441Y013475D01*
X022518Y013398D01*
X022518Y013245D02*
X022441Y013168D01*
X022441Y013014D01*
X022518Y012938D01*
X022825Y012938D01*
X022901Y013014D01*
X022901Y013168D01*
X022825Y013245D01*
X022825Y013398D02*
X022901Y013475D01*
X022901Y013628D01*
X022825Y013705D01*
X022671Y013628D02*
X022671Y013551D01*
X022186Y013608D02*
X022186Y013328D01*
X021851Y013328D02*
X021851Y013608D01*
X021443Y014178D02*
X021290Y014178D01*
X021213Y014255D01*
X021213Y014639D01*
X021059Y014639D02*
X021059Y014408D01*
X020906Y014485D01*
X020829Y014485D01*
X020753Y014408D01*
X020753Y014255D01*
X020829Y014178D01*
X020983Y014178D01*
X021059Y014255D01*
X021059Y014639D02*
X020753Y014639D01*
X021520Y014639D02*
X021520Y014255D01*
X021443Y014178D01*
X020825Y015217D02*
X020518Y015217D01*
X020441Y015294D01*
X020441Y015447D01*
X020518Y015524D01*
X020518Y015677D02*
X020441Y015754D01*
X020441Y015907D01*
X020518Y015984D01*
X020825Y015984D01*
X020901Y015907D01*
X020901Y015754D01*
X020825Y015677D01*
X020748Y015677D01*
X020671Y015754D01*
X020671Y015984D01*
X021051Y015908D02*
X021051Y015628D01*
X020901Y015447D02*
X020825Y015524D01*
X020901Y015447D02*
X020901Y015294D01*
X020825Y015217D01*
X021386Y015628D02*
X021386Y015908D01*
X020851Y016357D02*
X020391Y016357D01*
X020544Y016357D02*
X020544Y016587D01*
X020621Y016663D01*
X020775Y016663D01*
X020851Y016587D01*
X020851Y016357D01*
X020544Y016510D02*
X020391Y016663D01*
X020391Y016817D02*
X020391Y017124D01*
X020391Y016970D02*
X020851Y016970D01*
X020698Y016817D01*
X020621Y017277D02*
X020621Y017584D01*
X020391Y017507D02*
X020851Y017507D01*
X020621Y017277D01*
X019351Y016407D02*
X019351Y016254D01*
X019275Y016177D01*
X019275Y016024D02*
X019351Y015947D01*
X019351Y015794D01*
X019275Y015717D01*
X019275Y015563D02*
X019121Y015563D01*
X019044Y015487D01*
X019044Y015257D01*
X019044Y015410D02*
X018891Y015563D01*
X018891Y015717D02*
X019198Y016024D01*
X019275Y016024D01*
X018891Y016024D02*
X018891Y015717D01*
X019275Y015563D02*
X019351Y015487D01*
X019351Y015257D01*
X018891Y015257D01*
X018968Y014984D02*
X018891Y014907D01*
X018891Y014754D01*
X018968Y014677D01*
X018891Y014524D02*
X018891Y014217D01*
X019198Y014524D01*
X019275Y014524D01*
X019351Y014447D01*
X019351Y014294D01*
X019275Y014217D01*
X019275Y014063D02*
X019121Y014063D01*
X019044Y013987D01*
X019044Y013757D01*
X019044Y013910D02*
X018891Y014063D01*
X018891Y013757D02*
X019351Y013757D01*
X019351Y013987D01*
X019275Y014063D01*
X019275Y014677D02*
X019351Y014754D01*
X019351Y014907D01*
X019275Y014984D01*
X019198Y014984D01*
X019121Y014907D01*
X019044Y014984D01*
X018968Y014984D01*
X019121Y014907D02*
X019121Y014831D01*
X018891Y016177D02*
X019198Y016484D01*
X019275Y016484D01*
X019351Y016407D01*
X018891Y016484D02*
X018891Y016177D01*
X017351Y014607D02*
X017275Y014684D01*
X016968Y014684D01*
X016891Y014607D01*
X016891Y014454D01*
X016968Y014377D01*
X017121Y014454D02*
X017121Y014684D01*
X017121Y014454D02*
X017198Y014377D01*
X017275Y014377D01*
X017351Y014454D01*
X017351Y014607D01*
X017275Y014224D02*
X017121Y014224D01*
X017044Y014147D01*
X017044Y013917D01*
X016891Y013917D02*
X017351Y013917D01*
X017351Y014147D01*
X017275Y014224D01*
X017044Y014070D02*
X016891Y014224D01*
X016272Y014438D02*
X016272Y014898D01*
X016042Y014898D01*
X015965Y014821D01*
X015965Y014668D01*
X016042Y014591D01*
X016272Y014591D01*
X016118Y014591D02*
X015965Y014438D01*
X015811Y014514D02*
X015811Y014591D01*
X015735Y014668D01*
X015581Y014668D01*
X015504Y014591D01*
X015504Y014514D01*
X015581Y014438D01*
X015735Y014438D01*
X015811Y014514D01*
X015735Y014668D02*
X015811Y014745D01*
X015811Y014821D01*
X015735Y014898D01*
X015581Y014898D01*
X015504Y014821D01*
X015504Y014745D01*
X015581Y014668D01*
X016541Y013105D02*
X016541Y012798D01*
X016541Y012645D02*
X016541Y012338D01*
X017001Y012338D01*
X016848Y012798D02*
X017001Y012951D01*
X016541Y012951D01*
X016275Y012665D02*
X016198Y012665D01*
X016121Y012589D01*
X016044Y012665D01*
X015968Y012665D01*
X015891Y012589D01*
X015891Y012435D01*
X015968Y012358D01*
X015891Y012205D02*
X015891Y011898D01*
X015891Y011745D02*
X016044Y011591D01*
X016044Y011668D02*
X016044Y011438D01*
X015891Y011438D02*
X016351Y011438D01*
X016351Y011668D01*
X016275Y011745D01*
X016121Y011745D01*
X016044Y011668D01*
X016198Y011898D02*
X016351Y012051D01*
X015891Y012051D01*
X015651Y012051D02*
X015191Y012051D01*
X015191Y011898D02*
X015191Y012205D01*
X015191Y012358D02*
X015498Y012665D01*
X015575Y012665D01*
X015651Y012589D01*
X015651Y012435D01*
X015575Y012358D01*
X015651Y012051D02*
X015498Y011898D01*
X015575Y011745D02*
X015421Y011745D01*
X015344Y011668D01*
X015344Y011438D01*
X015191Y011438D02*
X015651Y011438D01*
X015651Y011668D01*
X015575Y011745D01*
X015344Y011591D02*
X015191Y011745D01*
X014951Y011668D02*
X014875Y011745D01*
X014721Y011745D01*
X014644Y011668D01*
X014644Y011438D01*
X014491Y011438D02*
X014951Y011438D01*
X014951Y011668D01*
X014875Y011898D02*
X014951Y011975D01*
X014951Y012128D01*
X014875Y012205D01*
X014798Y012205D01*
X014491Y011898D01*
X014491Y012205D01*
X014568Y012358D02*
X014491Y012435D01*
X014491Y012589D01*
X014568Y012665D01*
X014644Y012665D01*
X014721Y012589D01*
X014721Y012358D01*
X014568Y012358D01*
X014721Y012358D02*
X014875Y012512D01*
X014951Y012665D01*
X015191Y012665D02*
X015191Y012358D01*
X014491Y011745D02*
X014644Y011591D01*
X016121Y012512D02*
X016121Y012589D01*
X016275Y012665D02*
X016351Y012589D01*
X016351Y012435D01*
X016275Y012358D01*
X016556Y011708D02*
X016556Y011428D01*
X016891Y011428D02*
X016891Y011708D01*
X017781Y012498D02*
X018061Y012498D01*
X018061Y012833D02*
X017781Y012833D01*
X018704Y012771D02*
X018704Y012695D01*
X018781Y012618D01*
X018935Y012618D01*
X019011Y012695D01*
X019011Y012771D01*
X018935Y012848D01*
X018781Y012848D01*
X018704Y012771D01*
X018781Y012618D02*
X018704Y012541D01*
X018704Y012464D01*
X018781Y012388D01*
X018935Y012388D01*
X019011Y012464D01*
X019011Y012541D01*
X018935Y012618D01*
X019165Y012771D02*
X019242Y012848D01*
X019395Y012848D01*
X019472Y012771D01*
X019472Y012464D01*
X019395Y012388D01*
X019242Y012388D01*
X019165Y012464D01*
X020821Y012007D02*
X020821Y011854D01*
X020898Y011777D01*
X021205Y012084D01*
X020898Y012084D01*
X020821Y012007D01*
X020898Y011777D02*
X021205Y011777D01*
X021281Y011854D01*
X021281Y012007D01*
X021205Y012084D01*
X021205Y011624D02*
X021281Y011547D01*
X021281Y011394D01*
X021205Y011317D01*
X021205Y011163D02*
X021051Y011163D01*
X020974Y011087D01*
X020974Y010857D01*
X020974Y011010D02*
X020821Y011163D01*
X020821Y011317D02*
X021128Y011624D01*
X021205Y011624D01*
X020821Y011624D02*
X020821Y011317D01*
X021205Y011163D02*
X021281Y011087D01*
X021281Y010857D01*
X020821Y010857D01*
X020009Y011045D02*
X020009Y010661D01*
X019932Y010585D01*
X019779Y010585D01*
X019702Y010661D01*
X019702Y011045D01*
X019549Y010891D02*
X019395Y011045D01*
X019395Y010585D01*
X019242Y010585D02*
X019549Y010585D01*
X021328Y008475D02*
X021251Y008399D01*
X021251Y008245D01*
X021328Y008168D01*
X021404Y008168D01*
X021481Y008245D01*
X021481Y008399D01*
X021404Y008475D01*
X021328Y008475D01*
X021481Y008399D02*
X021558Y008475D01*
X021635Y008475D01*
X021711Y008399D01*
X021711Y008245D01*
X021635Y008168D01*
X021558Y008168D01*
X021481Y008245D01*
X021251Y008015D02*
X021251Y007708D01*
X021251Y007555D02*
X021404Y007401D01*
X021404Y007478D02*
X021404Y007248D01*
X021251Y007248D02*
X021711Y007248D01*
X021711Y007478D01*
X021635Y007555D01*
X021481Y007555D01*
X021404Y007478D01*
X021558Y007708D02*
X021711Y007861D01*
X021251Y007861D01*
X022604Y010338D02*
X022911Y010338D01*
X022758Y010338D02*
X022758Y010798D01*
X022911Y010645D01*
X023218Y010798D02*
X023218Y010338D01*
X023065Y010338D02*
X023372Y010338D01*
X023525Y010338D02*
X023679Y010491D01*
X023602Y010491D02*
X023832Y010491D01*
X023832Y010338D02*
X023832Y010798D01*
X023602Y010798D01*
X023525Y010721D01*
X023525Y010568D01*
X023602Y010491D01*
X023372Y010645D02*
X023218Y010798D01*
X023651Y011928D02*
X023651Y012208D01*
X023986Y012208D02*
X023986Y011928D01*
X024404Y011941D02*
X024404Y011864D01*
X024481Y011788D01*
X024635Y011788D01*
X024711Y011864D01*
X024865Y011788D02*
X025172Y011788D01*
X025018Y011788D02*
X025018Y012248D01*
X025172Y012095D01*
X025325Y012171D02*
X025402Y012248D01*
X025555Y012248D01*
X025632Y012171D01*
X025632Y011864D01*
X025555Y011788D01*
X025402Y011788D01*
X025325Y011864D01*
X024711Y012171D02*
X024635Y012248D01*
X024481Y012248D01*
X024404Y012171D01*
X024404Y012095D01*
X024481Y012018D01*
X024404Y011941D01*
X024481Y012018D02*
X024558Y012018D01*
X024501Y013218D02*
X024655Y013218D01*
X024731Y013294D01*
X024424Y013601D01*
X024424Y013294D01*
X024501Y013218D01*
X024731Y013294D02*
X024731Y013601D01*
X024655Y013678D01*
X024501Y013678D01*
X024424Y013601D01*
X024885Y013218D02*
X025192Y013218D01*
X025345Y013218D02*
X025499Y013371D01*
X025422Y013371D02*
X025652Y013371D01*
X025652Y013218D02*
X025652Y013678D01*
X025422Y013678D01*
X025345Y013601D01*
X025345Y013448D01*
X025422Y013371D01*
X025192Y013525D02*
X025038Y013678D01*
X025038Y013218D01*
X018851Y017638D02*
X018851Y018098D01*
X018621Y018098D01*
X018544Y018021D01*
X018544Y017868D01*
X018621Y017791D01*
X018851Y017791D01*
X018698Y017791D02*
X018544Y017638D01*
X018391Y017638D02*
X018084Y017945D01*
X018084Y018021D01*
X018160Y018098D01*
X018314Y018098D01*
X018391Y018021D01*
X018391Y017638D02*
X018084Y017638D01*
X017930Y017638D02*
X017623Y017638D01*
X017777Y017638D02*
X017777Y018098D01*
X017930Y017945D01*
X018830Y019238D02*
X018830Y019314D01*
X018523Y019621D01*
X018523Y019698D01*
X018830Y019698D01*
X019137Y019698D02*
X019137Y019238D01*
X018984Y019238D02*
X019291Y019238D01*
X019444Y019238D02*
X019598Y019391D01*
X019521Y019391D02*
X019751Y019391D01*
X019751Y019238D02*
X019751Y019698D01*
X019521Y019698D01*
X019444Y019621D01*
X019444Y019468D01*
X019521Y019391D01*
X019291Y019545D02*
X019137Y019698D01*
X036623Y029414D02*
X036623Y029721D01*
X036700Y029798D01*
X036854Y029798D01*
X036930Y029721D01*
X036930Y029645D01*
X036854Y029568D01*
X036623Y029568D01*
X036623Y029414D02*
X036700Y029338D01*
X036854Y029338D01*
X036930Y029414D01*
X037084Y029338D02*
X037391Y029338D01*
X037084Y029645D01*
X037084Y029721D01*
X037160Y029798D01*
X037314Y029798D01*
X037391Y029721D01*
X037544Y029721D02*
X037544Y029568D01*
X037621Y029491D01*
X037851Y029491D01*
X037851Y029338D02*
X037851Y029798D01*
X037621Y029798D01*
X037544Y029721D01*
X037698Y029491D02*
X037544Y029338D01*
X038612Y030334D02*
X038659Y030288D01*
X038752Y030288D01*
X038799Y030334D01*
X038706Y030428D02*
X038659Y030428D01*
X038612Y030381D01*
X038612Y030334D01*
X038659Y030428D02*
X038612Y030475D01*
X038612Y030521D01*
X038659Y030568D01*
X038752Y030568D01*
X038799Y030521D01*
X039522Y030518D02*
X039569Y030564D01*
X039662Y030564D01*
X039709Y030518D01*
X039522Y030518D02*
X039522Y030471D01*
X039709Y030284D01*
X039522Y030284D01*
X040373Y030288D02*
X040560Y030288D01*
X040467Y030288D02*
X040467Y030568D01*
X040560Y030475D01*
X043021Y029678D02*
X043098Y029754D01*
X043252Y029754D01*
X043328Y029678D01*
X043328Y029601D01*
X043252Y029524D01*
X043021Y029524D01*
X043021Y029371D02*
X043021Y029678D01*
X043021Y029371D02*
X043098Y029294D01*
X043252Y029294D01*
X043328Y029371D01*
X043482Y029371D02*
X043482Y029678D01*
X043558Y029754D01*
X043789Y029754D01*
X043789Y029294D01*
X043558Y029294D01*
X043482Y029371D01*
X043385Y030438D02*
X043461Y030514D01*
X043461Y030591D01*
X043385Y030668D01*
X043231Y030668D01*
X043154Y030591D01*
X043154Y030514D01*
X043231Y030438D01*
X043385Y030438D01*
X043385Y030668D02*
X043461Y030745D01*
X043461Y030821D01*
X043385Y030898D01*
X043231Y030898D01*
X043154Y030821D01*
X043154Y030745D01*
X043231Y030668D01*
X043615Y030821D02*
X043692Y030898D01*
X043922Y030898D01*
X043922Y030438D01*
X043692Y030438D01*
X043615Y030514D01*
X043615Y030821D01*
X042151Y033038D02*
X042151Y033268D01*
X042075Y033345D01*
X041921Y033345D01*
X041844Y033268D01*
X041844Y033038D01*
X041691Y033038D02*
X042151Y033038D01*
X041844Y033191D02*
X041691Y033345D01*
X041691Y033498D02*
X041998Y033805D01*
X042075Y033805D01*
X042151Y033728D01*
X042151Y033575D01*
X042075Y033498D01*
X041691Y033498D02*
X041691Y033805D01*
X041768Y033958D02*
X041844Y033958D01*
X041921Y034035D01*
X041921Y034189D01*
X041844Y034265D01*
X041768Y034265D01*
X041691Y034189D01*
X041691Y034035D01*
X041768Y033958D01*
X041921Y034035D02*
X041998Y033958D01*
X042075Y033958D01*
X042151Y034035D01*
X042151Y034189D01*
X042075Y034265D01*
X041998Y034265D01*
X041921Y034189D01*
X040451Y034438D02*
X040451Y034668D01*
X040375Y034745D01*
X040221Y034745D01*
X040144Y034668D01*
X040144Y034438D01*
X039991Y034438D02*
X040451Y034438D01*
X040144Y034591D02*
X039991Y034745D01*
X039991Y034898D02*
X040298Y035205D01*
X040375Y035205D01*
X040451Y035128D01*
X040451Y034975D01*
X040375Y034898D01*
X039991Y034898D02*
X039991Y035205D01*
X039991Y035358D02*
X040068Y035358D01*
X040375Y035665D01*
X040451Y035665D01*
X040451Y035358D01*
X038311Y033268D02*
X038451Y033128D01*
X038264Y033128D01*
X038311Y032988D02*
X038311Y033268D01*
X037624Y032268D02*
X037471Y032268D01*
X037394Y032191D01*
X037394Y031884D01*
X037471Y031808D01*
X037624Y031808D01*
X037701Y031884D01*
X037701Y032191D01*
X037624Y032268D01*
X037548Y031961D02*
X037394Y031808D01*
X037241Y031884D02*
X037164Y031808D01*
X037010Y031808D01*
X036934Y031884D01*
X036934Y032038D01*
X037010Y032115D01*
X037087Y032115D01*
X037241Y032038D01*
X037241Y032268D01*
X036934Y032268D01*
X036011Y033998D02*
X034511Y033998D01*
X034511Y035778D01*
X036011Y035778D01*
X036011Y033998D01*
X036261Y034448D02*
X036261Y034678D01*
X036338Y034755D01*
X036645Y034755D01*
X036721Y034678D01*
X036721Y034448D01*
X036261Y034448D01*
X036261Y034908D02*
X036261Y035215D01*
X036261Y035061D02*
X036721Y035061D01*
X036568Y034908D01*
X027661Y036268D02*
X027354Y036268D01*
X027508Y036268D02*
X027508Y035808D01*
X027201Y035808D02*
X026894Y035808D01*
X027047Y035808D02*
X027047Y036268D01*
X027201Y036115D01*
X015651Y007698D02*
X015421Y007698D01*
X015344Y007621D01*
X015344Y007468D01*
X015421Y007391D01*
X015651Y007391D01*
X015651Y007238D02*
X015651Y007698D01*
X015498Y007391D02*
X015344Y007238D01*
X015191Y007238D02*
X015191Y007314D01*
X014884Y007621D01*
X014884Y007698D01*
X015191Y007698D01*
X012668Y005048D02*
X012515Y005048D01*
X012592Y005048D02*
X012592Y004664D01*
X012668Y004588D01*
X012745Y004588D01*
X012822Y004664D01*
X012361Y004818D02*
X012131Y005048D01*
X012131Y004588D01*
X012054Y004818D02*
X012361Y004818D01*
X022434Y002788D02*
X022741Y002788D01*
X022587Y002788D02*
X022587Y003248D01*
X022741Y003095D01*
X022894Y003248D02*
X023048Y003248D01*
X022971Y003248D02*
X022971Y002864D01*
X023048Y002788D01*
X023124Y002788D01*
X023201Y002864D01*
X026967Y005677D02*
X026967Y005984D01*
X026967Y005830D02*
X027428Y005830D01*
X027274Y005677D01*
X027602Y005677D02*
X028062Y005677D01*
X028062Y005984D01*
X027909Y006137D02*
X028062Y006290D01*
X027602Y006290D01*
X027602Y006137D02*
X027602Y006444D01*
X027428Y006367D02*
X027351Y006444D01*
X027044Y006137D01*
X026967Y006214D01*
X026967Y006367D01*
X027044Y006444D01*
X027351Y006444D01*
X027428Y006367D02*
X027428Y006214D01*
X027351Y006137D01*
X027044Y006137D01*
X026967Y006597D02*
X027274Y006597D01*
X027428Y006751D01*
X027274Y006904D01*
X026967Y006904D01*
X027198Y006904D02*
X027198Y006597D01*
X027832Y005830D02*
X027832Y005677D01*
D12*
X035261Y033893D03*
X035261Y035883D03*
D13*
X035261Y035214D02*
X034867Y034812D01*
X035655Y034812D01*
X035261Y035214D01*
X037931Y032668D02*
X040511Y032668D01*
X040511Y031268D01*
X037931Y031268D01*
X037931Y032668D01*
X041874Y030668D02*
X042268Y030904D01*
X042268Y030431D01*
X041874Y030668D01*
X037144Y005473D02*
X035845Y005473D01*
X035845Y003583D01*
X037144Y003583D01*
X037144Y005473D01*
X035845Y005473D02*
X035648Y005473D01*
X035648Y003583D01*
X035845Y003583D01*
D14*
X035261Y035311D03*
D15*
X011480Y010847D02*
X011480Y006123D01*
X012346Y006123D01*
X013370Y006280D02*
X013370Y010611D01*
X012346Y010847D02*
X011480Y010847D01*
X017730Y011065D02*
X017730Y010277D01*
X018911Y010277D02*
X018911Y011065D01*
X017730Y011065D01*
X017730Y011458D01*
X018911Y011458D02*
X018911Y011065D01*
X021837Y014668D02*
X021837Y015061D01*
X021837Y016439D01*
X023018Y016439D01*
X023018Y015061D01*
X022624Y015061D01*
X022624Y014668D01*
X021837Y014668D01*
X022624Y014668D02*
X023018Y014668D01*
X023018Y015061D01*
X024956Y008491D02*
X024956Y005184D01*
X026846Y005184D01*
X026846Y008491D01*
X024956Y008491D01*
X023546Y003668D02*
X023546Y002093D01*
X023546Y000833D01*
X026696Y000833D01*
X026696Y002093D01*
X023546Y002093D01*
X026696Y002093D02*
X026696Y003668D01*
X046146Y003668D02*
X046146Y002093D01*
X046146Y000833D01*
X049296Y000833D01*
X049296Y002093D01*
X046146Y002093D01*
X049296Y002093D02*
X049296Y003668D01*
X052846Y003668D02*
X052846Y002093D01*
X052846Y000833D01*
X055996Y000833D01*
X055996Y002093D01*
X052846Y002093D01*
X055996Y002093D02*
X055996Y003668D01*
X054121Y021268D02*
X047921Y021268D01*
X045421Y021268D02*
X039221Y021268D01*
X031806Y026988D02*
X023536Y026988D01*
X023536Y035088D01*
X031806Y035088D01*
X031806Y026988D01*
X042581Y031893D02*
X042581Y032343D01*
X042806Y032118D01*
X042506Y032118D01*
X042966Y032268D02*
X042966Y031968D01*
X043042Y031893D01*
X043192Y031893D01*
X043267Y031968D01*
X043267Y032268D01*
X043192Y032343D01*
X043042Y032343D01*
X042966Y032268D01*
X043117Y032043D02*
X042966Y031893D01*
X031059Y034538D02*
X031061Y034568D01*
X031067Y034596D01*
X031077Y034624D01*
X031091Y034650D01*
X031109Y034674D01*
X031129Y034696D01*
X031152Y034714D01*
X031178Y034729D01*
X031205Y034740D01*
X031234Y034747D01*
X031264Y034750D01*
X031293Y034749D01*
X031322Y034744D01*
X031350Y034735D01*
X031377Y034722D01*
X031402Y034705D01*
X031424Y034685D01*
X031443Y034663D01*
X031458Y034638D01*
X031470Y034611D01*
X031478Y034582D01*
X031482Y034553D01*
X031482Y034523D01*
X031478Y034494D01*
X031470Y034465D01*
X031458Y034438D01*
X031443Y034413D01*
X031424Y034391D01*
X031402Y034371D01*
X031377Y034354D01*
X031350Y034341D01*
X031322Y034332D01*
X031293Y034327D01*
X031264Y034326D01*
X031234Y034329D01*
X031205Y034336D01*
X031178Y034347D01*
X031152Y034362D01*
X031129Y034380D01*
X031109Y034402D01*
X031091Y034426D01*
X031077Y034452D01*
X031067Y034480D01*
X031061Y034508D01*
X031059Y034538D01*
X003241Y021568D02*
X003272Y022248D01*
X003365Y022923D01*
X003518Y023586D01*
X003732Y024233D01*
X004003Y024857D01*
X004330Y025454D01*
X004710Y026020D01*
X005140Y026548D01*
X005616Y027035D01*
X006134Y027476D01*
X006690Y027869D01*
X007280Y028209D01*
X007898Y028495D01*
X008539Y028723D01*
X009199Y028892D01*
X009871Y029000D01*
X010551Y029046D01*
X011231Y029031D01*
X011908Y028953D01*
X012575Y028815D01*
X013226Y028616D01*
X013856Y028359D01*
X014461Y028046D01*
X015035Y027679D01*
X015572Y027261D01*
X016070Y026797D01*
X016523Y026289D01*
X016929Y025741D01*
X017282Y025160D01*
X017582Y024548D01*
X017824Y023912D01*
X018008Y023256D01*
X018131Y022587D01*
X018193Y021908D01*
X018193Y021228D01*
X018131Y020549D01*
X018008Y019880D01*
X017824Y019224D01*
X017582Y018588D01*
X017282Y017976D01*
X016929Y017395D01*
X016523Y016847D01*
X016070Y016339D01*
X015572Y015875D01*
X015035Y015457D01*
X014461Y015090D01*
X013856Y014777D01*
X013226Y014520D01*
X012575Y014321D01*
X011908Y014183D01*
X011231Y014105D01*
X010551Y014090D01*
X009871Y014136D01*
X009199Y014244D01*
X008539Y014413D01*
X007898Y014641D01*
X007280Y014927D01*
X006690Y015267D01*
X006134Y015660D01*
X005616Y016101D01*
X005140Y016588D01*
X004710Y017116D01*
X004330Y017682D01*
X004003Y018279D01*
X003732Y018903D01*
X003518Y019550D01*
X003365Y020213D01*
X003272Y020888D01*
X003241Y021568D01*
X054641Y021568D02*
X054672Y022248D01*
X054765Y022923D01*
X054918Y023586D01*
X055132Y024233D01*
X055403Y024857D01*
X055730Y025454D01*
X056110Y026020D01*
X056540Y026548D01*
X057016Y027035D01*
X057534Y027476D01*
X058090Y027869D01*
X058680Y028209D01*
X059298Y028495D01*
X059939Y028723D01*
X060599Y028892D01*
X061271Y029000D01*
X061951Y029046D01*
X062631Y029031D01*
X063308Y028953D01*
X063975Y028815D01*
X064626Y028616D01*
X065256Y028359D01*
X065861Y028046D01*
X066435Y027679D01*
X066972Y027261D01*
X067470Y026797D01*
X067923Y026289D01*
X068329Y025741D01*
X068682Y025160D01*
X068982Y024548D01*
X069224Y023912D01*
X069408Y023256D01*
X069531Y022587D01*
X069593Y021908D01*
X069593Y021228D01*
X069531Y020549D01*
X069408Y019880D01*
X069224Y019224D01*
X068982Y018588D01*
X068682Y017976D01*
X068329Y017395D01*
X067923Y016847D01*
X067470Y016339D01*
X066972Y015875D01*
X066435Y015457D01*
X065861Y015090D01*
X065256Y014777D01*
X064626Y014520D01*
X063975Y014321D01*
X063308Y014183D01*
X062631Y014105D01*
X061951Y014090D01*
X061271Y014136D01*
X060599Y014244D01*
X059939Y014413D01*
X059298Y014641D01*
X058680Y014927D01*
X058090Y015267D01*
X057534Y015660D01*
X057016Y016101D01*
X056540Y016588D01*
X056110Y017116D01*
X055730Y017682D01*
X055403Y018279D01*
X055132Y018903D01*
X054918Y019550D01*
X054765Y020213D01*
X054672Y020888D01*
X054641Y021568D01*
D16*
X023341Y018568D03*
X021341Y018568D03*
D17*
X021341Y019108D03*
X023341Y019108D03*
D18*
X023341Y019878D03*
X022341Y019878D03*
X021341Y019878D03*
D19*
X020321Y020428D02*
X020321Y021128D01*
X020321Y020428D02*
X020321Y023788D01*
X024361Y023788D01*
X024361Y023888D02*
X024361Y020428D01*
X024361Y021128D01*
X024361Y020428D02*
X020321Y020428D01*
X020321Y023788D02*
X021111Y024328D01*
X023671Y024328D01*
X024361Y023888D01*
D20*
X035392Y005278D03*
X035392Y004778D03*
X035392Y004278D03*
X035392Y003778D03*
X037400Y003778D03*
X037400Y004278D03*
X037400Y004778D03*
X037400Y005278D03*
D21*
X046881Y007448D03*
X055931Y007508D03*
D22*
X057131Y007508D02*
X057681Y007508D01*
X052231Y007508D02*
X051681Y007508D01*
X048631Y007448D02*
X048081Y007448D01*
X043181Y007448D02*
X042631Y007448D01*
D23*
X043531Y007448D03*
X047731Y007448D03*
X052581Y007508D03*
X056781Y007508D03*
D24*
X052486Y006383D02*
X052486Y005753D01*
X052171Y005753D01*
X052066Y005858D01*
X052066Y006278D01*
X052171Y006383D01*
X052486Y006383D01*
X051841Y006278D02*
X051736Y006383D01*
X051526Y006383D01*
X051421Y006278D01*
X051421Y006173D01*
X051526Y006068D01*
X051421Y005963D01*
X051421Y005858D01*
X051526Y005753D01*
X051736Y005753D01*
X051841Y005858D01*
X051631Y006068D02*
X051526Y006068D01*
X043436Y006223D02*
X043436Y005593D01*
X043121Y005593D01*
X043016Y005698D01*
X043016Y006118D01*
X043121Y006223D01*
X043436Y006223D01*
X042791Y006118D02*
X042686Y006223D01*
X042476Y006223D01*
X042371Y006118D01*
X042371Y006013D01*
X042791Y005593D01*
X042371Y005593D01*
X042466Y021603D02*
X042676Y021813D01*
X042886Y021708D02*
X042886Y022128D01*
X042781Y022233D01*
X042571Y022233D01*
X042466Y022128D01*
X042466Y021708D01*
X042571Y021603D01*
X042781Y021603D01*
X042886Y021708D01*
X042241Y021708D02*
X042136Y021603D01*
X041926Y021603D01*
X041821Y021708D01*
X041821Y021813D01*
X041926Y021918D01*
X042031Y021918D01*
X041926Y021918D02*
X041821Y022023D01*
X041821Y022128D01*
X041926Y022233D01*
X042136Y022233D01*
X042241Y022128D01*
X050621Y022128D02*
X050726Y022233D01*
X050936Y022233D01*
X051041Y022128D01*
X051266Y022128D02*
X051266Y021708D01*
X051371Y021603D01*
X051581Y021603D01*
X051686Y021708D01*
X051686Y022128D01*
X051581Y022233D01*
X051371Y022233D01*
X051266Y022128D01*
X051476Y021813D02*
X051266Y021603D01*
X051041Y021603D02*
X050621Y022023D01*
X050621Y022128D01*
X050621Y021603D02*
X051041Y021603D01*
D25*
X053801Y004768D03*
X054841Y004768D03*
X048371Y004713D03*
X047331Y004713D03*
D26*
X036947Y006118D03*
X035884Y006118D03*
D27*
X037402Y006023D02*
X037464Y006085D01*
X037649Y006085D01*
X037649Y005961D01*
X037588Y005900D01*
X037464Y005900D01*
X037402Y005961D01*
X037402Y006023D01*
X037526Y006208D02*
X037649Y006085D01*
X037771Y006208D02*
X037832Y006270D01*
X037956Y006270D01*
X038018Y006208D01*
X038018Y005961D01*
X037956Y005900D01*
X037832Y005900D01*
X037771Y005961D01*
X037526Y006208D02*
X037402Y006270D01*
X029878Y020562D02*
X029755Y020562D01*
X029693Y020623D01*
X029572Y020562D02*
X029325Y020562D01*
X029448Y020562D02*
X029448Y020932D01*
X029572Y020809D01*
X029693Y020870D02*
X029755Y020932D01*
X029878Y020932D01*
X029940Y020870D01*
X029940Y020623D01*
X029878Y020562D01*
D28*
X035294Y007383D03*
X037598Y007383D03*
D29*
X037312Y007383D03*
D30*
X034021Y005718D03*
X034021Y005218D03*
X034021Y004318D03*
X034021Y003818D03*
X022021Y010818D03*
X022021Y011318D03*
X021151Y013218D03*
X021151Y013718D03*
X019821Y014218D03*
X019821Y014718D03*
X019821Y015618D03*
X019821Y016118D03*
X021221Y016818D03*
X021221Y017318D03*
X023941Y017338D03*
X023941Y016838D03*
X023801Y013698D03*
X023801Y013198D03*
X017821Y014018D03*
X017821Y014518D03*
X016121Y011018D03*
X016121Y010518D03*
X015421Y010518D03*
X015421Y011018D03*
X014721Y011018D03*
X014721Y010518D03*
X020881Y008128D03*
X020881Y007628D03*
X041321Y033118D03*
X041321Y033618D03*
D31*
X040346Y012968D03*
X044296Y012968D03*
X049046Y012968D03*
X052996Y012968D03*
D32*
X051021Y012968D03*
X042321Y012968D03*
D33*
X042321Y012193D03*
X042321Y011443D03*
X044521Y011443D03*
X044521Y012193D03*
X048821Y012193D03*
X048821Y011443D03*
X051021Y011443D03*
X051021Y012193D03*
X053221Y012193D03*
X053221Y011443D03*
X040121Y011443D03*
X040121Y012193D03*
D34*
X045671Y011068D03*
X046171Y011068D03*
X046171Y010068D03*
X045671Y010068D03*
X054771Y010068D03*
X055271Y010068D03*
X055271Y011068D03*
X054771Y011068D03*
X027571Y022168D03*
X027071Y022168D03*
X026271Y023068D03*
X025771Y023068D03*
X018271Y016968D03*
X017771Y016968D03*
X016071Y015368D03*
X015571Y015368D03*
X015571Y006868D03*
X015071Y006868D03*
X038371Y029568D03*
X038871Y029568D03*
D35*
X027549Y023066D03*
X027089Y023066D03*
X018149Y012666D03*
X017689Y012666D03*
X036193Y008770D03*
X036652Y008770D03*
D36*
X023819Y011839D03*
X023819Y012299D03*
X022019Y013239D03*
X022019Y013699D03*
X023793Y014676D03*
X023793Y015136D03*
X021219Y015539D03*
X021219Y015999D03*
X016723Y011796D03*
X016723Y011336D03*
D37*
X027931Y016282D03*
X027931Y020514D03*
D38*
X027533Y020327D02*
X027541Y020289D01*
X027456Y020270D01*
X027373Y020247D01*
X027291Y020220D01*
X027210Y020189D01*
X027130Y020155D01*
X027052Y020117D01*
X026976Y020076D01*
X026902Y020032D01*
X026829Y019984D01*
X026760Y019933D01*
X026692Y019879D01*
X026627Y019822D01*
X026564Y019762D01*
X026505Y019700D01*
X026448Y019634D01*
X026394Y019567D01*
X026343Y019497D01*
X026295Y019424D01*
X026251Y019350D01*
X026210Y019274D01*
X026172Y019196D01*
X026138Y019116D01*
X026108Y019035D01*
X026081Y018953D01*
X026058Y018869D01*
X026039Y018785D01*
X026024Y018700D01*
X026012Y018614D01*
X026004Y018528D01*
X026000Y018441D01*
X026000Y018355D01*
X026004Y018268D01*
X026012Y018182D01*
X026024Y018096D01*
X026039Y018011D01*
X026058Y017927D01*
X026081Y017843D01*
X026108Y017761D01*
X026138Y017680D01*
X026172Y017600D01*
X026210Y017522D01*
X026251Y017446D01*
X026295Y017372D01*
X026343Y017299D01*
X026394Y017229D01*
X026448Y017162D01*
X026505Y017096D01*
X026564Y017034D01*
X026627Y016974D01*
X026692Y016917D01*
X026760Y016863D01*
X026829Y016812D01*
X026902Y016764D01*
X026976Y016720D01*
X027052Y016679D01*
X027130Y016641D01*
X027210Y016607D01*
X027291Y016576D01*
X027373Y016549D01*
X027456Y016526D01*
X027541Y016507D01*
X027533Y016469D01*
X027447Y016488D01*
X027362Y016512D01*
X027278Y016540D01*
X027195Y016571D01*
X027114Y016605D01*
X027034Y016644D01*
X026957Y016686D01*
X026881Y016731D01*
X026807Y016780D01*
X026736Y016832D01*
X026667Y016887D01*
X026600Y016945D01*
X026537Y017006D01*
X026476Y017070D01*
X026418Y017137D01*
X026363Y017206D01*
X026311Y017277D01*
X026262Y017351D01*
X026217Y017427D01*
X026175Y017505D01*
X026137Y017584D01*
X026102Y017665D01*
X026071Y017748D01*
X026044Y017832D01*
X026021Y017917D01*
X026001Y018003D01*
X025985Y018090D01*
X025973Y018178D01*
X025965Y018266D01*
X025961Y018354D01*
X025961Y018442D01*
X025965Y018530D01*
X025973Y018618D01*
X025985Y018706D01*
X026001Y018793D01*
X026021Y018879D01*
X026044Y018964D01*
X026071Y019048D01*
X026102Y019131D01*
X026137Y019212D01*
X026175Y019291D01*
X026217Y019369D01*
X026262Y019445D01*
X026311Y019519D01*
X026363Y019590D01*
X026418Y019659D01*
X026476Y019726D01*
X026537Y019790D01*
X026600Y019851D01*
X026667Y019909D01*
X026736Y019964D01*
X026807Y020016D01*
X026881Y020065D01*
X026957Y020110D01*
X027034Y020152D01*
X027114Y020191D01*
X027195Y020225D01*
X027278Y020256D01*
X027362Y020284D01*
X027447Y020308D01*
X027533Y020327D01*
X027533Y020326D01*
X027447Y020307D01*
X027362Y020283D01*
X027278Y020256D01*
X027195Y020224D01*
X027114Y020190D01*
X027035Y020151D01*
X026957Y020109D01*
X026881Y020064D01*
X026808Y020015D01*
X026736Y019963D01*
X026668Y019908D01*
X026601Y019850D01*
X026537Y019789D01*
X026476Y019725D01*
X026418Y019659D01*
X026363Y019590D01*
X026312Y019518D01*
X026263Y019444D01*
X026218Y019369D01*
X026176Y019291D01*
X026138Y019211D01*
X026103Y019130D01*
X026072Y019048D01*
X026045Y018964D01*
X026022Y018879D01*
X026002Y018792D01*
X025986Y018706D01*
X025974Y018618D01*
X025966Y018530D01*
X025962Y018442D01*
X025962Y018354D01*
X025966Y018266D01*
X025974Y018178D01*
X025986Y018090D01*
X026002Y018004D01*
X026022Y017917D01*
X026045Y017832D01*
X026072Y017748D01*
X026103Y017666D01*
X026138Y017585D01*
X026176Y017505D01*
X026218Y017427D01*
X026263Y017352D01*
X026312Y017278D01*
X026363Y017206D01*
X026418Y017137D01*
X026476Y017071D01*
X026537Y017007D01*
X026601Y016946D01*
X026668Y016888D01*
X026736Y016833D01*
X026808Y016781D01*
X026881Y016732D01*
X026957Y016687D01*
X027035Y016645D01*
X027114Y016606D01*
X027195Y016572D01*
X027278Y016540D01*
X027362Y016513D01*
X027447Y016489D01*
X027533Y016470D01*
X027533Y016471D01*
X027447Y016490D01*
X027362Y016514D01*
X027278Y016541D01*
X027196Y016573D01*
X027115Y016607D01*
X027035Y016646D01*
X026958Y016688D01*
X026882Y016733D01*
X026808Y016782D01*
X026737Y016834D01*
X026668Y016889D01*
X026602Y016947D01*
X026538Y017008D01*
X026477Y017072D01*
X026419Y017138D01*
X026364Y017207D01*
X026312Y017278D01*
X026264Y017352D01*
X026219Y017428D01*
X026177Y017506D01*
X026139Y017585D01*
X026104Y017666D01*
X026073Y017749D01*
X026046Y017833D01*
X026023Y017918D01*
X026003Y018004D01*
X025987Y018091D01*
X025975Y018178D01*
X025967Y018266D01*
X025963Y018354D01*
X025963Y018442D01*
X025967Y018530D01*
X025975Y018618D01*
X025987Y018705D01*
X026003Y018792D01*
X026023Y018878D01*
X026046Y018963D01*
X026073Y019047D01*
X026104Y019130D01*
X026139Y019211D01*
X026177Y019290D01*
X026219Y019368D01*
X026264Y019444D01*
X026312Y019518D01*
X026364Y019589D01*
X026419Y019658D01*
X026477Y019724D01*
X026538Y019788D01*
X026602Y019849D01*
X026668Y019907D01*
X026737Y019962D01*
X026808Y020014D01*
X026882Y020063D01*
X026958Y020108D01*
X027035Y020150D01*
X027115Y020189D01*
X027196Y020223D01*
X027278Y020255D01*
X027362Y020282D01*
X027447Y020306D01*
X027533Y020325D01*
X027533Y020324D01*
X027447Y020305D01*
X027362Y020281D01*
X027279Y020254D01*
X027196Y020223D01*
X027115Y020188D01*
X027036Y020149D01*
X026958Y020108D01*
X026882Y020062D01*
X026809Y020014D01*
X026738Y019962D01*
X026669Y019907D01*
X026602Y019849D01*
X026539Y019788D01*
X026478Y019724D01*
X026420Y019657D01*
X026365Y019588D01*
X026313Y019517D01*
X026265Y019443D01*
X026220Y019368D01*
X026178Y019290D01*
X026140Y019211D01*
X026105Y019129D01*
X026074Y019047D01*
X026047Y018963D01*
X026023Y018878D01*
X026004Y018792D01*
X025988Y018705D01*
X025976Y018618D01*
X025968Y018530D01*
X025964Y018442D01*
X025964Y018354D01*
X025968Y018266D01*
X025976Y018178D01*
X025988Y018091D01*
X026004Y018004D01*
X026023Y017918D01*
X026047Y017833D01*
X026074Y017749D01*
X026105Y017667D01*
X026140Y017585D01*
X026178Y017506D01*
X026220Y017428D01*
X026265Y017353D01*
X026313Y017279D01*
X026365Y017208D01*
X026420Y017139D01*
X026478Y017072D01*
X026539Y017008D01*
X026602Y016947D01*
X026669Y016889D01*
X026738Y016834D01*
X026809Y016782D01*
X026882Y016734D01*
X026958Y016688D01*
X027036Y016647D01*
X027115Y016608D01*
X027196Y016573D01*
X027279Y016542D01*
X027362Y016515D01*
X027447Y016491D01*
X027533Y016472D01*
X027534Y016473D01*
X027448Y016492D01*
X027363Y016516D01*
X027279Y016543D01*
X027196Y016574D01*
X027116Y016609D01*
X027036Y016647D01*
X026959Y016689D01*
X026883Y016735D01*
X026810Y016783D01*
X026738Y016835D01*
X026669Y016890D01*
X026603Y016948D01*
X026540Y017009D01*
X026479Y017073D01*
X026421Y017139D01*
X026366Y017208D01*
X026314Y017280D01*
X026266Y017353D01*
X026220Y017429D01*
X026179Y017506D01*
X026141Y017586D01*
X026106Y017667D01*
X026075Y017749D01*
X026048Y017833D01*
X026024Y017918D01*
X026005Y018004D01*
X025989Y018091D01*
X025977Y018178D01*
X025969Y018266D01*
X025965Y018354D01*
X025965Y018442D01*
X025969Y018530D01*
X025977Y018618D01*
X025989Y018705D01*
X026005Y018792D01*
X026024Y018878D01*
X026048Y018963D01*
X026075Y019047D01*
X026106Y019129D01*
X026141Y019210D01*
X026179Y019290D01*
X026220Y019367D01*
X026266Y019443D01*
X026314Y019516D01*
X026366Y019588D01*
X026421Y019657D01*
X026479Y019723D01*
X026540Y019787D01*
X026603Y019848D01*
X026669Y019906D01*
X026738Y019961D01*
X026810Y020013D01*
X026883Y020061D01*
X026959Y020107D01*
X027036Y020149D01*
X027116Y020187D01*
X027196Y020222D01*
X027279Y020253D01*
X027363Y020280D01*
X027448Y020304D01*
X027534Y020323D01*
X027534Y020322D01*
X027448Y020303D01*
X027363Y020279D01*
X027279Y020252D01*
X027197Y020221D01*
X027116Y020186D01*
X027037Y020148D01*
X026959Y020106D01*
X026884Y020061D01*
X026810Y020012D01*
X026739Y019960D01*
X026670Y019905D01*
X026604Y019847D01*
X026540Y019786D01*
X026479Y019722D01*
X026422Y019656D01*
X026367Y019587D01*
X026315Y019516D01*
X026266Y019442D01*
X026221Y019367D01*
X026180Y019289D01*
X026141Y019210D01*
X026107Y019129D01*
X026076Y019046D01*
X026049Y018962D01*
X026025Y018878D01*
X026006Y018792D01*
X025990Y018705D01*
X025978Y018618D01*
X025970Y018530D01*
X025966Y018442D01*
X025966Y018354D01*
X025970Y018266D01*
X025978Y018178D01*
X025990Y018091D01*
X026006Y018004D01*
X026025Y017918D01*
X026049Y017834D01*
X026076Y017750D01*
X026107Y017667D01*
X026141Y017586D01*
X026180Y017507D01*
X026221Y017429D01*
X026266Y017354D01*
X026315Y017280D01*
X026367Y017209D01*
X026422Y017140D01*
X026479Y017074D01*
X026540Y017010D01*
X026604Y016949D01*
X026670Y016891D01*
X026739Y016836D01*
X026810Y016784D01*
X026884Y016735D01*
X026959Y016690D01*
X027037Y016648D01*
X027116Y016610D01*
X027197Y016575D01*
X027279Y016544D01*
X027363Y016517D01*
X027448Y016493D01*
X027534Y016474D01*
X027534Y016475D01*
X027448Y016494D01*
X027363Y016518D01*
X027280Y016545D01*
X027197Y016576D01*
X027116Y016611D01*
X027037Y016649D01*
X026960Y016691D01*
X026884Y016736D01*
X026811Y016785D01*
X026740Y016837D01*
X026671Y016892D01*
X026605Y016950D01*
X026541Y017011D01*
X026480Y017074D01*
X026422Y017141D01*
X026367Y017209D01*
X026316Y017281D01*
X026267Y017354D01*
X026222Y017430D01*
X026181Y017507D01*
X026142Y017587D01*
X026108Y017668D01*
X026077Y017750D01*
X026050Y017834D01*
X026026Y017919D01*
X026007Y018005D01*
X025991Y018091D01*
X025979Y018178D01*
X025971Y018266D01*
X025967Y018354D01*
X025967Y018442D01*
X025971Y018530D01*
X025979Y018618D01*
X025991Y018705D01*
X026007Y018791D01*
X026026Y018877D01*
X026050Y018962D01*
X026077Y019046D01*
X026108Y019128D01*
X026142Y019209D01*
X026181Y019289D01*
X026222Y019366D01*
X026267Y019442D01*
X026316Y019515D01*
X026367Y019587D01*
X026422Y019655D01*
X026480Y019722D01*
X026541Y019785D01*
X026605Y019846D01*
X026671Y019904D01*
X026740Y019959D01*
X026811Y020011D01*
X026884Y020060D01*
X026960Y020105D01*
X027037Y020147D01*
X027116Y020185D01*
X027197Y020220D01*
X027280Y020251D01*
X027363Y020278D01*
X027448Y020302D01*
X027534Y020321D01*
X027534Y020320D01*
X027448Y020301D01*
X027364Y020277D01*
X027280Y020250D01*
X027198Y020219D01*
X027117Y020184D01*
X027038Y020146D01*
X026960Y020104D01*
X026885Y020059D01*
X026811Y020010D01*
X026740Y019959D01*
X026671Y019904D01*
X026605Y019846D01*
X026542Y019785D01*
X026481Y019721D01*
X026423Y019655D01*
X026368Y019586D01*
X026317Y019515D01*
X026268Y019441D01*
X026223Y019366D01*
X026181Y019288D01*
X026143Y019209D01*
X026109Y019128D01*
X026078Y019046D01*
X026051Y018962D01*
X026027Y018877D01*
X026008Y018791D01*
X025992Y018705D01*
X025980Y018618D01*
X025972Y018530D01*
X025968Y018442D01*
X025968Y018354D01*
X025972Y018266D01*
X025980Y018178D01*
X025992Y018091D01*
X026008Y018005D01*
X026027Y017919D01*
X026051Y017834D01*
X026078Y017750D01*
X026109Y017668D01*
X026143Y017587D01*
X026181Y017508D01*
X026223Y017430D01*
X026268Y017355D01*
X026317Y017281D01*
X026368Y017210D01*
X026423Y017141D01*
X026481Y017075D01*
X026542Y017011D01*
X026605Y016950D01*
X026671Y016892D01*
X026740Y016837D01*
X026811Y016786D01*
X026885Y016737D01*
X026960Y016692D01*
X027038Y016650D01*
X027117Y016612D01*
X027198Y016577D01*
X027280Y016546D01*
X027364Y016519D01*
X027448Y016495D01*
X027534Y016476D01*
X027534Y016477D01*
X027449Y016496D01*
X027364Y016520D01*
X027280Y016547D01*
X027198Y016578D01*
X027117Y016613D01*
X027038Y016651D01*
X026961Y016693D01*
X026885Y016738D01*
X026812Y016787D01*
X026741Y016838D01*
X026672Y016893D01*
X026606Y016951D01*
X026542Y017012D01*
X026482Y017076D01*
X026424Y017142D01*
X026369Y017211D01*
X026317Y017282D01*
X026269Y017355D01*
X026224Y017431D01*
X026182Y017508D01*
X026144Y017588D01*
X026110Y017668D01*
X026079Y017751D01*
X026052Y017834D01*
X026028Y017919D01*
X026009Y018005D01*
X025993Y018091D01*
X025981Y018179D01*
X025973Y018266D01*
X025969Y018354D01*
X025969Y018442D01*
X025973Y018530D01*
X025981Y018617D01*
X025993Y018705D01*
X026009Y018791D01*
X026028Y018877D01*
X026052Y018962D01*
X026079Y019045D01*
X026110Y019128D01*
X026144Y019208D01*
X026182Y019288D01*
X026224Y019365D01*
X026269Y019441D01*
X026317Y019514D01*
X026369Y019585D01*
X026424Y019654D01*
X026482Y019720D01*
X026542Y019784D01*
X026606Y019845D01*
X026672Y019903D01*
X026741Y019958D01*
X026812Y020009D01*
X026885Y020058D01*
X026961Y020103D01*
X027038Y020145D01*
X027117Y020183D01*
X027198Y020218D01*
X027280Y020249D01*
X027364Y020276D01*
X027449Y020300D01*
X027534Y020319D01*
X027535Y020318D01*
X027449Y020299D01*
X027364Y020275D01*
X027281Y020248D01*
X027198Y020217D01*
X027118Y020182D01*
X027038Y020144D01*
X026961Y020102D01*
X026886Y020057D01*
X026812Y020009D01*
X026741Y019957D01*
X026673Y019902D01*
X026607Y019844D01*
X026543Y019783D01*
X026482Y019720D01*
X026425Y019654D01*
X026370Y019585D01*
X026318Y019514D01*
X026270Y019440D01*
X026225Y019365D01*
X026183Y019287D01*
X026145Y019208D01*
X026111Y019127D01*
X026080Y019045D01*
X026053Y018961D01*
X026029Y018877D01*
X026010Y018791D01*
X025994Y018704D01*
X025982Y018617D01*
X025974Y018530D01*
X025970Y018442D01*
X025970Y018354D01*
X025974Y018266D01*
X025982Y018179D01*
X025994Y018092D01*
X026010Y018005D01*
X026029Y017919D01*
X026053Y017835D01*
X026080Y017751D01*
X026111Y017669D01*
X026145Y017588D01*
X026183Y017509D01*
X026225Y017431D01*
X026270Y017356D01*
X026318Y017282D01*
X026370Y017211D01*
X026425Y017142D01*
X026482Y017076D01*
X026543Y017013D01*
X026607Y016952D01*
X026673Y016894D01*
X026741Y016839D01*
X026812Y016787D01*
X026886Y016739D01*
X026961Y016694D01*
X027038Y016652D01*
X027118Y016614D01*
X027198Y016579D01*
X027281Y016548D01*
X027364Y016521D01*
X027449Y016497D01*
X027535Y016478D01*
X027449Y016498D01*
X027364Y016522D01*
X027281Y016549D01*
X027199Y016580D01*
X027118Y016615D01*
X027039Y016653D01*
X026962Y016695D01*
X026886Y016740D01*
X026813Y016788D01*
X026742Y016840D01*
X026673Y016895D01*
X026607Y016953D01*
X026544Y017013D01*
X026483Y017077D01*
X026425Y017143D01*
X026371Y017212D01*
X026319Y017283D01*
X026271Y017356D01*
X026226Y017432D01*
X026184Y017509D01*
X026146Y017588D01*
X026112Y017669D01*
X026081Y017751D01*
X026054Y017835D01*
X026030Y017920D01*
X026011Y018005D01*
X025995Y018092D01*
X025983Y018179D01*
X025975Y018266D01*
X025971Y018354D01*
X025971Y018442D01*
X025975Y018530D01*
X025983Y018617D01*
X025995Y018704D01*
X026011Y018791D01*
X026030Y018876D01*
X026054Y018961D01*
X026081Y019045D01*
X026112Y019127D01*
X026146Y019208D01*
X026184Y019287D01*
X026226Y019364D01*
X026271Y019440D01*
X026319Y019513D01*
X026371Y019584D01*
X026425Y019653D01*
X026483Y019719D01*
X026544Y019783D01*
X026607Y019843D01*
X026673Y019901D01*
X026742Y019956D01*
X026813Y020008D01*
X026886Y020056D01*
X026962Y020101D01*
X027039Y020143D01*
X027118Y020181D01*
X027199Y020216D01*
X027281Y020247D01*
X027364Y020274D01*
X027449Y020298D01*
X027535Y020318D01*
X027535Y020317D01*
X027449Y020297D01*
X027365Y020273D01*
X027281Y020246D01*
X027199Y020215D01*
X027118Y020181D01*
X027039Y020142D01*
X026962Y020101D01*
X026887Y020055D01*
X026814Y020007D01*
X026743Y019955D01*
X026674Y019901D01*
X026608Y019843D01*
X026544Y019782D01*
X026484Y019718D01*
X026426Y019652D01*
X026371Y019584D01*
X026320Y019512D01*
X026272Y019439D01*
X026227Y019364D01*
X026185Y019286D01*
X026147Y019207D01*
X026112Y019126D01*
X026082Y019044D01*
X026055Y018961D01*
X026031Y018876D01*
X026012Y018790D01*
X025996Y018704D01*
X025984Y018617D01*
X025976Y018530D01*
X025972Y018442D01*
X025972Y018354D01*
X025976Y018266D01*
X025984Y018179D01*
X025996Y018092D01*
X026012Y018006D01*
X026031Y017920D01*
X026055Y017835D01*
X026082Y017752D01*
X026112Y017670D01*
X026147Y017589D01*
X026185Y017510D01*
X026227Y017432D01*
X026272Y017357D01*
X026320Y017284D01*
X026371Y017212D01*
X026426Y017144D01*
X026484Y017078D01*
X026544Y017014D01*
X026608Y016953D01*
X026674Y016895D01*
X026743Y016841D01*
X026814Y016789D01*
X026887Y016741D01*
X026962Y016695D01*
X027039Y016654D01*
X027118Y016615D01*
X027199Y016581D01*
X027281Y016550D01*
X027365Y016523D01*
X027449Y016499D01*
X027535Y016479D01*
X027535Y016480D01*
X027450Y016500D01*
X027365Y016524D01*
X027282Y016551D01*
X027199Y016582D01*
X027119Y016616D01*
X027040Y016655D01*
X026963Y016696D01*
X026887Y016741D01*
X026814Y016790D01*
X026743Y016841D01*
X026675Y016896D01*
X026609Y016954D01*
X026545Y017015D01*
X026485Y017078D01*
X026427Y017144D01*
X026372Y017213D01*
X026321Y017284D01*
X026272Y017357D01*
X026227Y017433D01*
X026186Y017510D01*
X026148Y017589D01*
X026113Y017670D01*
X026083Y017752D01*
X026056Y017836D01*
X026032Y017920D01*
X026013Y018006D01*
X025997Y018092D01*
X025985Y018179D01*
X025977Y018266D01*
X025973Y018354D01*
X025973Y018442D01*
X025977Y018530D01*
X025985Y018617D01*
X025997Y018704D01*
X026013Y018790D01*
X026032Y018876D01*
X026056Y018960D01*
X026083Y019044D01*
X026113Y019126D01*
X026148Y019207D01*
X026186Y019286D01*
X026227Y019363D01*
X026272Y019439D01*
X026321Y019512D01*
X026372Y019583D01*
X026427Y019652D01*
X026485Y019718D01*
X026545Y019781D01*
X026609Y019842D01*
X026675Y019900D01*
X026743Y019955D01*
X026814Y020006D01*
X026887Y020055D01*
X026963Y020100D01*
X027040Y020141D01*
X027119Y020180D01*
X027199Y020214D01*
X027282Y020245D01*
X027365Y020272D01*
X027450Y020296D01*
X027535Y020316D01*
X027535Y020315D01*
X027450Y020295D01*
X027365Y020271D01*
X027282Y020244D01*
X027200Y020213D01*
X027119Y020179D01*
X027040Y020141D01*
X026963Y020099D01*
X026888Y020054D01*
X026815Y020005D01*
X026744Y019954D01*
X026675Y019899D01*
X026609Y019841D01*
X026546Y019781D01*
X026485Y019717D01*
X026428Y019651D01*
X026373Y019582D01*
X026322Y019511D01*
X026273Y019438D01*
X026228Y019363D01*
X026187Y019285D01*
X026149Y019206D01*
X026114Y019126D01*
X026084Y019044D01*
X026056Y018960D01*
X026033Y018876D01*
X026014Y018790D01*
X025998Y018704D01*
X025986Y018617D01*
X025978Y018529D01*
X025974Y018442D01*
X025974Y018354D01*
X025978Y018267D01*
X025986Y018179D01*
X025998Y018092D01*
X026014Y018006D01*
X026033Y017920D01*
X026056Y017836D01*
X026084Y017752D01*
X026114Y017670D01*
X026149Y017590D01*
X026187Y017511D01*
X026228Y017433D01*
X026273Y017358D01*
X026322Y017285D01*
X026373Y017214D01*
X026428Y017145D01*
X026485Y017079D01*
X026546Y017015D01*
X026609Y016955D01*
X026675Y016897D01*
X026744Y016842D01*
X026815Y016791D01*
X026888Y016742D01*
X026963Y016697D01*
X027040Y016655D01*
X027119Y016617D01*
X027200Y016583D01*
X027282Y016552D01*
X027365Y016525D01*
X027450Y016501D01*
X027535Y016481D01*
X027536Y016482D01*
X027450Y016502D01*
X027366Y016525D01*
X027282Y016553D01*
X027200Y016584D01*
X027120Y016618D01*
X027041Y016656D01*
X026964Y016698D01*
X026888Y016743D01*
X026815Y016791D01*
X026744Y016843D01*
X026676Y016898D01*
X026610Y016956D01*
X026547Y017016D01*
X026486Y017080D01*
X026428Y017146D01*
X026374Y017214D01*
X026322Y017285D01*
X026274Y017358D01*
X026229Y017434D01*
X026188Y017511D01*
X026150Y017590D01*
X026115Y017671D01*
X026085Y017753D01*
X026057Y017836D01*
X026034Y017921D01*
X026015Y018006D01*
X025999Y018092D01*
X025987Y018179D01*
X025979Y018267D01*
X025975Y018354D01*
X025975Y018442D01*
X025979Y018529D01*
X025987Y018617D01*
X025999Y018704D01*
X026015Y018790D01*
X026034Y018875D01*
X026057Y018960D01*
X026085Y019043D01*
X026115Y019125D01*
X026150Y019206D01*
X026188Y019285D01*
X026229Y019362D01*
X026274Y019438D01*
X026322Y019511D01*
X026374Y019582D01*
X026428Y019650D01*
X026486Y019716D01*
X026547Y019780D01*
X026610Y019840D01*
X026676Y019898D01*
X026744Y019953D01*
X026815Y020005D01*
X026888Y020053D01*
X026964Y020098D01*
X027041Y020140D01*
X027120Y020178D01*
X027200Y020212D01*
X027282Y020243D01*
X027366Y020271D01*
X027450Y020294D01*
X027536Y020314D01*
X027536Y020313D01*
X027450Y020293D01*
X027366Y020270D01*
X027283Y020242D01*
X027201Y020211D01*
X027120Y020177D01*
X027041Y020139D01*
X026964Y020097D01*
X026889Y020052D01*
X026816Y020004D01*
X026745Y019952D01*
X026677Y019897D01*
X026611Y019840D01*
X026547Y019779D01*
X026487Y019716D01*
X026429Y019650D01*
X026375Y019581D01*
X026323Y019510D01*
X026275Y019437D01*
X026230Y019362D01*
X026189Y019285D01*
X026151Y019206D01*
X026116Y019125D01*
X026085Y019043D01*
X026058Y018960D01*
X026035Y018875D01*
X026016Y018790D01*
X026000Y018703D01*
X025988Y018617D01*
X025980Y018529D01*
X025976Y018442D01*
X025976Y018354D01*
X025980Y018267D01*
X025988Y018179D01*
X026000Y018093D01*
X026016Y018006D01*
X026035Y017921D01*
X026058Y017836D01*
X026085Y017753D01*
X026116Y017671D01*
X026151Y017590D01*
X026189Y017511D01*
X026230Y017434D01*
X026275Y017359D01*
X026323Y017286D01*
X026375Y017215D01*
X026429Y017146D01*
X026487Y017080D01*
X026547Y017017D01*
X026611Y016956D01*
X026677Y016899D01*
X026745Y016844D01*
X026816Y016792D01*
X026889Y016744D01*
X026964Y016699D01*
X027041Y016657D01*
X027120Y016619D01*
X027201Y016585D01*
X027283Y016554D01*
X027366Y016526D01*
X027450Y016503D01*
X027536Y016483D01*
X027536Y016484D01*
X027451Y016504D01*
X027366Y016527D01*
X027283Y016555D01*
X027201Y016585D01*
X027120Y016620D01*
X027042Y016658D01*
X026965Y016700D01*
X026889Y016745D01*
X026816Y016793D01*
X026746Y016845D01*
X026677Y016899D01*
X026611Y016957D01*
X026548Y017018D01*
X026488Y017081D01*
X026430Y017147D01*
X026375Y017215D01*
X026324Y017286D01*
X026276Y017360D01*
X026231Y017435D01*
X026189Y017512D01*
X026152Y017591D01*
X026117Y017671D01*
X026086Y017753D01*
X026059Y017837D01*
X026036Y017921D01*
X026017Y018007D01*
X026001Y018093D01*
X025989Y018179D01*
X025981Y018267D01*
X025977Y018354D01*
X025977Y018442D01*
X025981Y018529D01*
X025989Y018617D01*
X026001Y018703D01*
X026017Y018789D01*
X026036Y018875D01*
X026059Y018959D01*
X026086Y019043D01*
X026117Y019125D01*
X026152Y019205D01*
X026189Y019284D01*
X026231Y019361D01*
X026276Y019436D01*
X026324Y019510D01*
X026375Y019581D01*
X026430Y019649D01*
X026488Y019715D01*
X026548Y019778D01*
X026611Y019839D01*
X026677Y019897D01*
X026746Y019951D01*
X026816Y020003D01*
X026889Y020051D01*
X026965Y020096D01*
X027042Y020138D01*
X027120Y020176D01*
X027201Y020211D01*
X027283Y020241D01*
X027366Y020269D01*
X027451Y020292D01*
X027536Y020312D01*
X027536Y020311D01*
X027451Y020291D01*
X027366Y020268D01*
X027283Y020240D01*
X027201Y020210D01*
X027121Y020175D01*
X027042Y020137D01*
X026965Y020095D01*
X026890Y020050D01*
X026817Y020002D01*
X026746Y019951D01*
X026678Y019896D01*
X026612Y019838D01*
X026549Y019778D01*
X026488Y019714D01*
X026431Y019648D01*
X026376Y019580D01*
X026325Y019509D01*
X026277Y019436D01*
X026232Y019361D01*
X026190Y019284D01*
X026152Y019205D01*
X026118Y019124D01*
X026087Y019042D01*
X026060Y018959D01*
X026037Y018875D01*
X026018Y018789D01*
X026002Y018703D01*
X025990Y018616D01*
X025982Y018529D01*
X025978Y018442D01*
X025978Y018354D01*
X025982Y018267D01*
X025990Y018180D01*
X026002Y018093D01*
X026018Y018007D01*
X026037Y017921D01*
X026060Y017837D01*
X026087Y017754D01*
X026118Y017672D01*
X026152Y017591D01*
X026190Y017512D01*
X026232Y017435D01*
X026277Y017360D01*
X026325Y017287D01*
X026376Y017216D01*
X026431Y017148D01*
X026488Y017082D01*
X026549Y017018D01*
X026612Y016958D01*
X026678Y016900D01*
X026746Y016845D01*
X026817Y016794D01*
X026890Y016746D01*
X026965Y016701D01*
X027042Y016659D01*
X027121Y016621D01*
X027201Y016586D01*
X027283Y016556D01*
X027366Y016528D01*
X027451Y016505D01*
X027536Y016485D01*
X027536Y016486D01*
X027451Y016506D01*
X027367Y016529D01*
X027284Y016556D01*
X027202Y016587D01*
X027121Y016622D01*
X027043Y016660D01*
X026966Y016701D01*
X026890Y016746D01*
X026818Y016795D01*
X026747Y016846D01*
X026678Y016901D01*
X026613Y016958D01*
X026549Y017019D01*
X026489Y017082D01*
X026432Y017148D01*
X026377Y017217D01*
X026326Y017288D01*
X026277Y017361D01*
X026233Y017436D01*
X026191Y017513D01*
X026153Y017592D01*
X026119Y017672D01*
X026088Y017754D01*
X026061Y017837D01*
X026038Y017922D01*
X026019Y018007D01*
X026003Y018093D01*
X025991Y018180D01*
X025983Y018267D01*
X025979Y018354D01*
X025979Y018442D01*
X025983Y018529D01*
X025991Y018616D01*
X026003Y018703D01*
X026019Y018789D01*
X026038Y018874D01*
X026061Y018959D01*
X026088Y019042D01*
X026119Y019124D01*
X026153Y019204D01*
X026191Y019283D01*
X026233Y019360D01*
X026277Y019435D01*
X026326Y019508D01*
X026377Y019579D01*
X026432Y019648D01*
X026489Y019714D01*
X026549Y019777D01*
X026613Y019838D01*
X026678Y019895D01*
X026747Y019950D01*
X026818Y020001D01*
X026890Y020050D01*
X026966Y020095D01*
X027043Y020136D01*
X027121Y020174D01*
X027202Y020209D01*
X027284Y020240D01*
X027367Y020267D01*
X027451Y020290D01*
X027536Y020310D01*
X027537Y020309D01*
X027451Y020289D01*
X027367Y020266D01*
X027284Y020239D01*
X027202Y020208D01*
X027122Y020173D01*
X027043Y020135D01*
X026966Y020094D01*
X026891Y020049D01*
X026818Y020000D01*
X026747Y019949D01*
X026679Y019894D01*
X026613Y019837D01*
X026550Y019776D01*
X026490Y019713D01*
X026432Y019647D01*
X026378Y019579D01*
X026326Y019508D01*
X026278Y019435D01*
X026234Y019360D01*
X026192Y019283D01*
X026154Y019204D01*
X026120Y019124D01*
X026089Y019042D01*
X026062Y018958D01*
X026039Y018874D01*
X026020Y018789D01*
X026004Y018703D01*
X025992Y018616D01*
X025984Y018529D01*
X025980Y018442D01*
X025980Y018354D01*
X025984Y018267D01*
X025992Y018180D01*
X026004Y018093D01*
X026020Y018007D01*
X026039Y017922D01*
X026062Y017838D01*
X026089Y017754D01*
X026120Y017672D01*
X026154Y017592D01*
X026192Y017513D01*
X026234Y017436D01*
X026278Y017361D01*
X026326Y017288D01*
X026378Y017217D01*
X026432Y017149D01*
X026490Y017083D01*
X026550Y017020D01*
X026613Y016959D01*
X026679Y016902D01*
X026747Y016847D01*
X026818Y016796D01*
X026891Y016747D01*
X026966Y016702D01*
X027043Y016661D01*
X027122Y016623D01*
X027202Y016588D01*
X027284Y016557D01*
X027367Y016530D01*
X027451Y016507D01*
X027537Y016487D01*
X027537Y016488D01*
X027452Y016508D01*
X027367Y016531D01*
X027284Y016558D01*
X027202Y016589D01*
X027122Y016624D01*
X027043Y016662D01*
X026967Y016703D01*
X026892Y016748D01*
X026819Y016796D01*
X026748Y016848D01*
X026680Y016902D01*
X026614Y016960D01*
X026551Y017020D01*
X026491Y017084D01*
X026433Y017150D01*
X026379Y017218D01*
X026327Y017289D01*
X026279Y017362D01*
X026234Y017437D01*
X026193Y017514D01*
X026155Y017592D01*
X026121Y017673D01*
X026090Y017755D01*
X026063Y017838D01*
X026040Y017922D01*
X026021Y018007D01*
X026005Y018093D01*
X025993Y018180D01*
X025985Y018267D01*
X025981Y018354D01*
X025981Y018442D01*
X025985Y018529D01*
X025993Y018616D01*
X026005Y018703D01*
X026021Y018789D01*
X026040Y018874D01*
X026063Y018958D01*
X026090Y019041D01*
X026121Y019123D01*
X026155Y019204D01*
X026193Y019282D01*
X026234Y019359D01*
X026279Y019434D01*
X026327Y019507D01*
X026379Y019578D01*
X026433Y019646D01*
X026491Y019712D01*
X026551Y019776D01*
X026614Y019836D01*
X026680Y019894D01*
X026748Y019948D01*
X026819Y020000D01*
X026892Y020048D01*
X026967Y020093D01*
X027043Y020134D01*
X027122Y020172D01*
X027202Y020207D01*
X027284Y020238D01*
X027367Y020265D01*
X027452Y020288D01*
X027537Y020308D01*
X027537Y020307D01*
X027452Y020287D01*
X027368Y020264D01*
X027285Y020237D01*
X027203Y020206D01*
X027123Y020171D01*
X027044Y020133D01*
X026967Y020092D01*
X026892Y020047D01*
X026819Y019999D01*
X026749Y019947D01*
X026680Y019893D01*
X026615Y019835D01*
X026552Y019775D01*
X026491Y019712D01*
X026434Y019646D01*
X026379Y019577D01*
X026328Y019507D01*
X026280Y019434D01*
X026235Y019359D01*
X026194Y019282D01*
X026156Y019203D01*
X026122Y019123D01*
X026091Y019041D01*
X026064Y018958D01*
X026041Y018874D01*
X026022Y018788D01*
X026006Y018703D01*
X025994Y018616D01*
X025986Y018529D01*
X025982Y018442D01*
X025982Y018354D01*
X025986Y018267D01*
X025994Y018180D01*
X026006Y018093D01*
X026022Y018008D01*
X026041Y017922D01*
X026064Y017838D01*
X026091Y017755D01*
X026122Y017673D01*
X026156Y017593D01*
X026194Y017514D01*
X026235Y017437D01*
X026280Y017362D01*
X026328Y017289D01*
X026379Y017219D01*
X026434Y017150D01*
X026491Y017084D01*
X026552Y017021D01*
X026615Y016961D01*
X026680Y016903D01*
X026749Y016849D01*
X026819Y016797D01*
X026892Y016749D01*
X026967Y016704D01*
X027044Y016663D01*
X027123Y016625D01*
X027203Y016590D01*
X027285Y016559D01*
X027368Y016532D01*
X027452Y016509D01*
X027537Y016489D01*
X027537Y016490D01*
X027452Y016510D01*
X027368Y016533D01*
X027285Y016560D01*
X027203Y016591D01*
X027123Y016625D01*
X027044Y016663D01*
X026968Y016705D01*
X026893Y016750D01*
X026820Y016798D01*
X026749Y016849D01*
X026681Y016904D01*
X026615Y016961D01*
X026552Y017022D01*
X026492Y017085D01*
X026435Y017151D01*
X026380Y017219D01*
X026329Y017290D01*
X026281Y017363D01*
X026236Y017438D01*
X026195Y017515D01*
X026157Y017593D01*
X026123Y017674D01*
X026092Y017755D01*
X026065Y017838D01*
X026042Y017923D01*
X026022Y018008D01*
X026007Y018094D01*
X025995Y018180D01*
X025987Y018267D01*
X025983Y018354D01*
X025983Y018442D01*
X025987Y018529D01*
X025995Y018616D01*
X026007Y018702D01*
X026022Y018788D01*
X026042Y018873D01*
X026065Y018958D01*
X026092Y019041D01*
X026123Y019122D01*
X026157Y019203D01*
X026195Y019281D01*
X026236Y019358D01*
X026281Y019433D01*
X026329Y019506D01*
X026380Y019577D01*
X026435Y019645D01*
X026492Y019711D01*
X026552Y019774D01*
X026615Y019835D01*
X026681Y019892D01*
X026749Y019947D01*
X026820Y019998D01*
X026893Y020046D01*
X026968Y020091D01*
X027044Y020133D01*
X027123Y020171D01*
X027203Y020205D01*
X027285Y020236D01*
X027368Y020263D01*
X027452Y020286D01*
X027537Y020306D01*
X027537Y020305D01*
X027452Y020285D01*
X027368Y020262D01*
X027285Y020235D01*
X027204Y020204D01*
X027123Y020170D01*
X027045Y020132D01*
X026968Y020090D01*
X026893Y020045D01*
X026820Y019997D01*
X026750Y019946D01*
X026682Y019891D01*
X026616Y019834D01*
X026553Y019773D01*
X026493Y019710D01*
X026435Y019645D01*
X026381Y019576D01*
X026330Y019506D01*
X026282Y019433D01*
X026237Y019358D01*
X026196Y019281D01*
X026158Y019202D01*
X026124Y019122D01*
X026093Y019040D01*
X026066Y018957D01*
X026043Y018873D01*
X026023Y018788D01*
X026008Y018702D01*
X025996Y018616D01*
X025988Y018529D01*
X025984Y018442D01*
X025984Y018354D01*
X025988Y018267D01*
X025996Y018180D01*
X026008Y018094D01*
X026023Y018008D01*
X026043Y017923D01*
X026066Y017839D01*
X026093Y017756D01*
X026124Y017674D01*
X026158Y017594D01*
X026196Y017515D01*
X026237Y017438D01*
X026282Y017363D01*
X026330Y017290D01*
X026381Y017220D01*
X026435Y017151D01*
X026493Y017086D01*
X026553Y017023D01*
X026616Y016962D01*
X026682Y016905D01*
X026750Y016850D01*
X026820Y016799D01*
X026893Y016751D01*
X026968Y016706D01*
X027045Y016664D01*
X027123Y016626D01*
X027204Y016592D01*
X027285Y016561D01*
X027368Y016534D01*
X027452Y016511D01*
X027537Y016491D01*
X027538Y016492D01*
X027453Y016512D01*
X027368Y016535D01*
X027286Y016562D01*
X027204Y016593D01*
X027124Y016627D01*
X027045Y016665D01*
X026969Y016707D01*
X026894Y016752D01*
X026821Y016800D01*
X026750Y016851D01*
X026682Y016905D01*
X026617Y016963D01*
X026554Y017023D01*
X026493Y017086D01*
X026436Y017152D01*
X026382Y017220D01*
X026331Y017291D01*
X026283Y017364D01*
X026238Y017439D01*
X026197Y017516D01*
X026159Y017594D01*
X026125Y017674D01*
X026094Y017756D01*
X026067Y017839D01*
X026044Y017923D01*
X026024Y018008D01*
X026009Y018094D01*
X025997Y018180D01*
X025989Y018267D01*
X025985Y018354D01*
X025985Y018442D01*
X025989Y018529D01*
X025997Y018616D01*
X026009Y018702D01*
X026024Y018788D01*
X026044Y018873D01*
X026067Y018957D01*
X026094Y019040D01*
X026125Y019122D01*
X026159Y019202D01*
X026197Y019280D01*
X026238Y019357D01*
X026283Y019432D01*
X026331Y019505D01*
X026382Y019576D01*
X026436Y019644D01*
X026493Y019710D01*
X026554Y019773D01*
X026617Y019833D01*
X026682Y019891D01*
X026750Y019945D01*
X026821Y019996D01*
X026894Y020044D01*
X026969Y020089D01*
X027045Y020131D01*
X027124Y020169D01*
X027204Y020203D01*
X027286Y020234D01*
X027368Y020261D01*
X027453Y020284D01*
X027538Y020304D01*
X027538Y020303D01*
X027453Y020283D01*
X027369Y020260D01*
X027286Y020233D01*
X027204Y020202D01*
X027124Y020168D01*
X027046Y020130D01*
X026969Y020088D01*
X026894Y020044D01*
X026822Y019996D01*
X026751Y019944D01*
X026683Y019890D01*
X026617Y019832D01*
X026554Y019772D01*
X026494Y019709D01*
X026437Y019643D01*
X026383Y019575D01*
X026331Y019504D01*
X026283Y019432D01*
X026239Y019357D01*
X026197Y019280D01*
X026160Y019201D01*
X026125Y019121D01*
X026095Y019040D01*
X026068Y018957D01*
X026045Y018873D01*
X026025Y018788D01*
X026010Y018702D01*
X025998Y018616D01*
X025990Y018529D01*
X025986Y018442D01*
X025986Y018354D01*
X025990Y018267D01*
X025998Y018180D01*
X026010Y018094D01*
X026025Y018008D01*
X026045Y017923D01*
X026068Y017839D01*
X026095Y017756D01*
X026125Y017675D01*
X026160Y017595D01*
X026197Y017516D01*
X026239Y017439D01*
X026283Y017364D01*
X026331Y017292D01*
X026383Y017221D01*
X026437Y017153D01*
X026494Y017087D01*
X026554Y017024D01*
X026617Y016964D01*
X026683Y016906D01*
X026751Y016852D01*
X026822Y016800D01*
X026894Y016752D01*
X026969Y016708D01*
X027046Y016666D01*
X027124Y016628D01*
X027204Y016594D01*
X027286Y016563D01*
X027369Y016536D01*
X027453Y016513D01*
X027538Y016493D01*
X027538Y016494D01*
X027453Y016514D01*
X027369Y016537D01*
X027286Y016564D01*
X027205Y016595D01*
X027125Y016629D01*
X027046Y016667D01*
X026969Y016708D01*
X026895Y016753D01*
X026822Y016801D01*
X026752Y016853D01*
X026684Y016907D01*
X026618Y016964D01*
X026555Y017025D01*
X026495Y017088D01*
X026438Y017153D01*
X026383Y017222D01*
X026332Y017292D01*
X026284Y017365D01*
X026240Y017440D01*
X026198Y017516D01*
X026161Y017595D01*
X026126Y017675D01*
X026096Y017757D01*
X026069Y017840D01*
X026046Y017924D01*
X026026Y018009D01*
X026011Y018094D01*
X025999Y018181D01*
X025991Y018267D01*
X025987Y018354D01*
X025987Y018442D01*
X025991Y018529D01*
X025999Y018615D01*
X026011Y018702D01*
X026026Y018787D01*
X026046Y018872D01*
X026069Y018956D01*
X026096Y019039D01*
X026126Y019121D01*
X026161Y019201D01*
X026198Y019280D01*
X026240Y019356D01*
X026284Y019431D01*
X026332Y019504D01*
X026383Y019574D01*
X026438Y019643D01*
X026495Y019708D01*
X026555Y019771D01*
X026618Y019832D01*
X026684Y019889D01*
X026752Y019943D01*
X026822Y019995D01*
X026895Y020043D01*
X026969Y020088D01*
X027046Y020129D01*
X027125Y020167D01*
X027205Y020201D01*
X027286Y020232D01*
X027369Y020259D01*
X027453Y020282D01*
X027538Y020302D01*
X027538Y020301D01*
X027453Y020281D01*
X027369Y020258D01*
X027287Y020231D01*
X027205Y020200D01*
X027125Y020166D01*
X027047Y020128D01*
X026970Y020087D01*
X026895Y020042D01*
X026823Y019994D01*
X026752Y019943D01*
X026684Y019888D01*
X026619Y019831D01*
X026556Y019771D01*
X026496Y019708D01*
X026438Y019642D01*
X026384Y019574D01*
X026333Y019503D01*
X026285Y019431D01*
X026241Y019356D01*
X026199Y019279D01*
X026162Y019201D01*
X026127Y019121D01*
X026097Y019039D01*
X026070Y018956D01*
X026047Y018872D01*
X026027Y018787D01*
X026012Y018702D01*
X026000Y018615D01*
X025992Y018529D01*
X025988Y018442D01*
X025988Y018354D01*
X025992Y018267D01*
X026000Y018181D01*
X026012Y018094D01*
X026027Y018009D01*
X026047Y017924D01*
X026070Y017840D01*
X026097Y017757D01*
X026127Y017675D01*
X026162Y017595D01*
X026199Y017517D01*
X026241Y017440D01*
X026285Y017365D01*
X026333Y017293D01*
X026384Y017222D01*
X026438Y017154D01*
X026496Y017088D01*
X026556Y017025D01*
X026619Y016965D01*
X026684Y016908D01*
X026752Y016853D01*
X026823Y016802D01*
X026895Y016754D01*
X026970Y016709D01*
X027047Y016668D01*
X027125Y016630D01*
X027205Y016596D01*
X027287Y016565D01*
X027369Y016538D01*
X027453Y016515D01*
X027538Y016495D01*
X027538Y016496D01*
X027454Y016516D01*
X027370Y016539D01*
X027287Y016566D01*
X027205Y016597D01*
X027125Y016631D01*
X027047Y016669D01*
X026970Y016710D01*
X026896Y016755D01*
X026823Y016803D01*
X026753Y016854D01*
X026685Y016909D01*
X026619Y016966D01*
X026557Y017026D01*
X026496Y017089D01*
X026439Y017155D01*
X026385Y017223D01*
X026334Y017293D01*
X026286Y017366D01*
X026241Y017441D01*
X026200Y017517D01*
X026162Y017596D01*
X026128Y017676D01*
X026098Y017757D01*
X026071Y017840D01*
X026048Y017924D01*
X026028Y018009D01*
X026013Y018095D01*
X026001Y018181D01*
X025993Y018268D01*
X025989Y018354D01*
X025989Y018442D01*
X025993Y018528D01*
X026001Y018615D01*
X026013Y018701D01*
X026028Y018787D01*
X026048Y018872D01*
X026071Y018956D01*
X026098Y019039D01*
X026128Y019120D01*
X026162Y019200D01*
X026200Y019279D01*
X026241Y019355D01*
X026286Y019430D01*
X026334Y019503D01*
X026385Y019573D01*
X026439Y019641D01*
X026496Y019707D01*
X026557Y019770D01*
X026619Y019830D01*
X026685Y019887D01*
X026753Y019942D01*
X026823Y019993D01*
X026896Y020041D01*
X026970Y020086D01*
X027047Y020127D01*
X027125Y020165D01*
X027205Y020199D01*
X027287Y020230D01*
X027370Y020257D01*
X027454Y020280D01*
X027538Y020300D01*
X027539Y020299D01*
X027454Y020279D01*
X027370Y020256D01*
X027287Y020229D01*
X027206Y020198D01*
X027126Y020164D01*
X027048Y020126D01*
X026971Y020085D01*
X026896Y020040D01*
X026824Y019992D01*
X026753Y019941D01*
X026686Y019887D01*
X026620Y019829D01*
X026557Y019769D01*
X026497Y019706D01*
X026440Y019641D01*
X026386Y019573D01*
X026335Y019502D01*
X026287Y019430D01*
X026242Y019355D01*
X026201Y019278D01*
X026163Y019200D01*
X026129Y019120D01*
X026099Y019038D01*
X026072Y018956D01*
X026049Y018872D01*
X026029Y018787D01*
X026014Y018701D01*
X026002Y018615D01*
X025994Y018528D01*
X025990Y018442D01*
X025990Y018354D01*
X025994Y018268D01*
X026002Y018181D01*
X026014Y018095D01*
X026029Y018009D01*
X026049Y017924D01*
X026072Y017840D01*
X026099Y017758D01*
X026129Y017676D01*
X026163Y017596D01*
X026201Y017518D01*
X026242Y017441D01*
X026287Y017366D01*
X026335Y017294D01*
X026386Y017223D01*
X026440Y017155D01*
X026497Y017090D01*
X026557Y017027D01*
X026620Y016967D01*
X026686Y016909D01*
X026753Y016855D01*
X026824Y016804D01*
X026896Y016756D01*
X026971Y016711D01*
X027048Y016670D01*
X027126Y016632D01*
X027206Y016598D01*
X027287Y016567D01*
X027370Y016540D01*
X027454Y016517D01*
X027539Y016497D01*
X027539Y016498D01*
X027454Y016518D01*
X027370Y016541D01*
X027288Y016568D01*
X027206Y016598D01*
X027126Y016633D01*
X027048Y016671D01*
X026971Y016712D01*
X026897Y016757D01*
X026824Y016805D01*
X026754Y016856D01*
X026686Y016910D01*
X026621Y016967D01*
X026558Y017027D01*
X026498Y017090D01*
X026441Y017156D01*
X026387Y017224D01*
X026336Y017294D01*
X026288Y017367D01*
X026243Y017442D01*
X026202Y017518D01*
X026164Y017597D01*
X026130Y017677D01*
X026100Y017758D01*
X026073Y017841D01*
X026050Y017925D01*
X026030Y018009D01*
X026015Y018095D01*
X026003Y018181D01*
X025995Y018268D01*
X025991Y018355D01*
X025991Y018441D01*
X025995Y018528D01*
X026003Y018615D01*
X026015Y018701D01*
X026030Y018787D01*
X026050Y018871D01*
X026073Y018955D01*
X026100Y019038D01*
X026130Y019119D01*
X026164Y019199D01*
X026202Y019278D01*
X026243Y019354D01*
X026288Y019429D01*
X026336Y019502D01*
X026387Y019572D01*
X026441Y019640D01*
X026498Y019706D01*
X026558Y019769D01*
X026621Y019829D01*
X026686Y019886D01*
X026754Y019940D01*
X026824Y019991D01*
X026897Y020039D01*
X026971Y020084D01*
X027048Y020125D01*
X027126Y020163D01*
X027206Y020198D01*
X027288Y020228D01*
X027370Y020255D01*
X027454Y020278D01*
X027539Y020298D01*
X027539Y020297D01*
X027454Y020277D01*
X027371Y020254D01*
X027288Y020227D01*
X027207Y020197D01*
X027127Y020162D01*
X027048Y020125D01*
X026972Y020083D01*
X026897Y020039D01*
X026825Y019991D01*
X026755Y019939D01*
X026687Y019885D01*
X026621Y019828D01*
X026559Y019768D01*
X026499Y019705D01*
X026442Y019639D01*
X026387Y019571D01*
X026336Y019501D01*
X026289Y019429D01*
X026244Y019354D01*
X026203Y019277D01*
X026165Y019199D01*
X026131Y019119D01*
X026101Y019038D01*
X026074Y018955D01*
X026051Y018871D01*
X026031Y018786D01*
X026016Y018701D01*
X026004Y018615D01*
X025996Y018528D01*
X025992Y018441D01*
X025992Y018355D01*
X025996Y018268D01*
X026004Y018181D01*
X026016Y018095D01*
X026031Y018010D01*
X026051Y017925D01*
X026074Y017841D01*
X026101Y017758D01*
X026131Y017677D01*
X026165Y017597D01*
X026203Y017519D01*
X026244Y017442D01*
X026289Y017367D01*
X026336Y017295D01*
X026387Y017225D01*
X026442Y017157D01*
X026499Y017091D01*
X026559Y017028D01*
X026621Y016968D01*
X026687Y016911D01*
X026755Y016857D01*
X026825Y016805D01*
X026897Y016757D01*
X026972Y016713D01*
X027048Y016671D01*
X027127Y016634D01*
X027207Y016599D01*
X027288Y016569D01*
X027371Y016542D01*
X027454Y016519D01*
X027539Y016499D01*
X027539Y016500D01*
X027454Y016519D01*
X027371Y016543D01*
X027288Y016570D01*
X027207Y016600D01*
X027127Y016635D01*
X027049Y016672D01*
X026972Y016714D01*
X026898Y016758D01*
X026826Y016806D01*
X026755Y016857D01*
X026687Y016912D01*
X026622Y016969D01*
X026559Y017029D01*
X026499Y017092D01*
X026442Y017157D01*
X026388Y017225D01*
X026337Y017295D01*
X026289Y017368D01*
X026245Y017443D01*
X026204Y017519D01*
X026166Y017597D01*
X026132Y017677D01*
X026101Y017759D01*
X026075Y017841D01*
X026052Y017925D01*
X026032Y018010D01*
X026017Y018095D01*
X026005Y018181D01*
X025997Y018268D01*
X025993Y018355D01*
X025993Y018441D01*
X025997Y018528D01*
X026005Y018615D01*
X026017Y018701D01*
X026032Y018786D01*
X026052Y018871D01*
X026075Y018955D01*
X026101Y019037D01*
X026132Y019119D01*
X026166Y019199D01*
X026204Y019277D01*
X026245Y019353D01*
X026289Y019428D01*
X026337Y019501D01*
X026388Y019571D01*
X026442Y019639D01*
X026499Y019704D01*
X026559Y019767D01*
X026622Y019827D01*
X026687Y019884D01*
X026755Y019939D01*
X026826Y019990D01*
X026898Y020038D01*
X026972Y020082D01*
X027049Y020124D01*
X027127Y020161D01*
X027207Y020196D01*
X027288Y020226D01*
X027371Y020253D01*
X027454Y020277D01*
X027539Y020296D01*
X027539Y020295D01*
X027455Y020276D01*
X027371Y020252D01*
X027289Y020225D01*
X027207Y020195D01*
X027128Y020160D01*
X027049Y020123D01*
X026973Y020081D01*
X026898Y020037D01*
X026826Y019989D01*
X026756Y019938D01*
X026688Y019884D01*
X026623Y019826D01*
X026560Y019766D01*
X026500Y019704D01*
X026443Y019638D01*
X026389Y019570D01*
X026338Y019500D01*
X026290Y019427D01*
X026246Y019353D01*
X026205Y019276D01*
X026167Y019198D01*
X026133Y019118D01*
X026102Y019037D01*
X026076Y018954D01*
X026053Y018871D01*
X026033Y018786D01*
X026018Y018701D01*
X026006Y018615D01*
X025998Y018528D01*
X025994Y018441D01*
X025994Y018355D01*
X025998Y018268D01*
X026006Y018181D01*
X026018Y018095D01*
X026033Y018010D01*
X026053Y017925D01*
X026076Y017842D01*
X026102Y017759D01*
X026133Y017678D01*
X026167Y017598D01*
X026205Y017520D01*
X026246Y017443D01*
X026290Y017369D01*
X026338Y017296D01*
X026389Y017226D01*
X026443Y017158D01*
X026500Y017092D01*
X026560Y017030D01*
X026623Y016970D01*
X026688Y016912D01*
X026756Y016858D01*
X026826Y016807D01*
X026898Y016759D01*
X026973Y016715D01*
X027049Y016673D01*
X027128Y016636D01*
X027207Y016601D01*
X027289Y016571D01*
X027371Y016544D01*
X027455Y016520D01*
X027539Y016501D01*
X027540Y016502D01*
X027455Y016521D01*
X027371Y016545D01*
X027289Y016572D01*
X027208Y016602D01*
X027128Y016636D01*
X027050Y016674D01*
X026973Y016715D01*
X026899Y016760D01*
X026827Y016808D01*
X026756Y016859D01*
X026689Y016913D01*
X026623Y016970D01*
X026561Y017030D01*
X026501Y017093D01*
X026444Y017158D01*
X026390Y017226D01*
X026339Y017297D01*
X026291Y017369D01*
X026247Y017444D01*
X026206Y017520D01*
X026168Y017598D01*
X026134Y017678D01*
X026103Y017759D01*
X026077Y017842D01*
X026054Y017926D01*
X026034Y018010D01*
X026019Y018096D01*
X026007Y018181D01*
X025999Y018268D01*
X025995Y018355D01*
X025995Y018441D01*
X025999Y018528D01*
X026007Y018615D01*
X026019Y018700D01*
X026034Y018786D01*
X026054Y018870D01*
X026077Y018954D01*
X026103Y019037D01*
X026134Y019118D01*
X026168Y019198D01*
X026206Y019276D01*
X026247Y019352D01*
X026291Y019427D01*
X026339Y019499D01*
X026390Y019570D01*
X026444Y019638D01*
X026501Y019703D01*
X026561Y019766D01*
X026623Y019826D01*
X026689Y019883D01*
X026756Y019937D01*
X026827Y019988D01*
X026899Y020036D01*
X026973Y020081D01*
X027050Y020122D01*
X027128Y020160D01*
X027208Y020194D01*
X027289Y020224D01*
X027371Y020251D01*
X027455Y020275D01*
X027540Y020294D01*
X027540Y020293D01*
X027455Y020274D01*
X027372Y020250D01*
X027289Y020223D01*
X027208Y020193D01*
X027128Y020159D01*
X027050Y020121D01*
X026974Y020080D01*
X026900Y020035D01*
X026827Y019987D01*
X026757Y019936D01*
X026689Y019882D01*
X026624Y019825D01*
X026561Y019765D01*
X026502Y019702D01*
X026445Y019637D01*
X026391Y019569D01*
X026340Y019499D01*
X026292Y019426D01*
X026247Y019352D01*
X026206Y019276D01*
X026169Y019197D01*
X026135Y019118D01*
X026104Y019036D01*
X026078Y018954D01*
X026055Y018870D01*
X026035Y018786D01*
X026020Y018700D01*
X026008Y018614D01*
X026000Y018528D01*
X025996Y018441D01*
X025996Y018355D01*
X026000Y018268D01*
X026008Y018182D01*
X026020Y018096D01*
X026035Y018010D01*
X026055Y017926D01*
X026078Y017842D01*
X026104Y017760D01*
X026135Y017678D01*
X026169Y017599D01*
X026206Y017520D01*
X026247Y017444D01*
X026292Y017370D01*
X026340Y017297D01*
X026391Y017227D01*
X026445Y017159D01*
X026502Y017094D01*
X026561Y017031D01*
X026624Y016971D01*
X026689Y016914D01*
X026757Y016860D01*
X026827Y016809D01*
X026900Y016761D01*
X026974Y016716D01*
X027050Y016675D01*
X027128Y016637D01*
X027208Y016603D01*
X027289Y016573D01*
X027372Y016546D01*
X027455Y016522D01*
X027540Y016503D01*
X027540Y016504D01*
X027455Y016523D01*
X027372Y016547D01*
X027290Y016573D01*
X027208Y016604D01*
X027129Y016638D01*
X027051Y016676D01*
X026974Y016717D01*
X026900Y016762D01*
X026828Y016810D01*
X026758Y016861D01*
X026690Y016915D01*
X026625Y016972D01*
X026562Y017032D01*
X026502Y017094D01*
X026445Y017160D01*
X026391Y017228D01*
X026340Y017298D01*
X026293Y017370D01*
X026248Y017445D01*
X026207Y017521D01*
X026170Y017599D01*
X026136Y017679D01*
X026105Y017760D01*
X026079Y017842D01*
X026055Y017926D01*
X026036Y018011D01*
X026021Y018096D01*
X026009Y018182D01*
X026001Y018268D01*
X025997Y018355D01*
X025997Y018441D01*
X026001Y018528D01*
X026009Y018614D01*
X026021Y018700D01*
X026036Y018785D01*
X026055Y018870D01*
X026079Y018954D01*
X026105Y019036D01*
X026136Y019117D01*
X026170Y019197D01*
X026207Y019275D01*
X026248Y019351D01*
X026293Y019426D01*
X026340Y019498D01*
X026391Y019568D01*
X026445Y019636D01*
X026502Y019702D01*
X026562Y019764D01*
X026625Y019824D01*
X026690Y019881D01*
X026758Y019935D01*
X026828Y019986D01*
X026900Y020034D01*
X026974Y020079D01*
X027051Y020120D01*
X027129Y020158D01*
X027208Y020192D01*
X027290Y020223D01*
X027372Y020249D01*
X027455Y020273D01*
X027540Y020292D01*
X027540Y020291D01*
X027456Y020272D01*
X027372Y020248D01*
X027290Y020222D01*
X027209Y020191D01*
X027129Y020157D01*
X027051Y020119D01*
X026975Y020078D01*
X026901Y020033D01*
X026828Y019986D01*
X026758Y019935D01*
X026691Y019881D01*
X026625Y019823D01*
X026563Y019764D01*
X026503Y019701D01*
X026446Y019636D01*
X026392Y019568D01*
X026341Y019498D01*
X026294Y019425D01*
X026249Y019351D01*
X026208Y019275D01*
X026171Y019197D01*
X026137Y019117D01*
X026106Y019036D01*
X026079Y018953D01*
X026056Y018870D01*
X026037Y018785D01*
X026022Y018700D01*
X026010Y018614D01*
X026002Y018528D01*
X025998Y018441D01*
X025998Y018355D01*
X026002Y018268D01*
X026010Y018182D01*
X026022Y018096D01*
X026037Y018011D01*
X026056Y017926D01*
X026079Y017843D01*
X026106Y017760D01*
X026137Y017679D01*
X026171Y017599D01*
X026208Y017521D01*
X026249Y017445D01*
X026294Y017371D01*
X026341Y017298D01*
X026392Y017228D01*
X026446Y017160D01*
X026503Y017095D01*
X026563Y017032D01*
X026625Y016973D01*
X026691Y016915D01*
X026758Y016861D01*
X026828Y016810D01*
X026901Y016763D01*
X026975Y016718D01*
X027051Y016677D01*
X027129Y016639D01*
X027209Y016605D01*
X027290Y016574D01*
X027372Y016548D01*
X027456Y016524D01*
X027540Y016505D01*
X027540Y016506D01*
X027456Y016525D01*
X027373Y016548D01*
X027290Y016575D01*
X027209Y016606D01*
X027130Y016640D01*
X027052Y016678D01*
X026975Y016719D01*
X026901Y016763D01*
X026829Y016811D01*
X026759Y016862D01*
X026691Y016916D01*
X026626Y016973D01*
X026564Y017033D01*
X026504Y017096D01*
X026447Y017161D01*
X026393Y017229D01*
X026342Y017299D01*
X026294Y017371D01*
X026250Y017446D01*
X026209Y017522D01*
X026172Y017600D01*
X026138Y017680D01*
X026107Y017761D01*
X026080Y017843D01*
X026057Y017926D01*
X026038Y018011D01*
X026023Y018096D01*
X026011Y018182D01*
X026003Y018268D01*
X025999Y018355D01*
X025999Y018441D01*
X026003Y018528D01*
X026011Y018614D01*
X026023Y018700D01*
X026038Y018785D01*
X026057Y018870D01*
X026080Y018953D01*
X026107Y019035D01*
X026138Y019116D01*
X026172Y019196D01*
X026209Y019274D01*
X026250Y019350D01*
X026294Y019425D01*
X026342Y019497D01*
X026393Y019567D01*
X026447Y019635D01*
X026504Y019700D01*
X026564Y019763D01*
X026626Y019823D01*
X026691Y019880D01*
X026759Y019934D01*
X026829Y019985D01*
X026901Y020033D01*
X026975Y020077D01*
X027052Y020118D01*
X027130Y020156D01*
X027209Y020190D01*
X027290Y020221D01*
X027373Y020248D01*
X027456Y020271D01*
X027540Y020290D01*
X028329Y016469D02*
X028321Y016507D01*
X028406Y016526D01*
X028489Y016549D01*
X028571Y016576D01*
X028652Y016607D01*
X028732Y016641D01*
X028810Y016679D01*
X028886Y016720D01*
X028960Y016764D01*
X029033Y016812D01*
X029102Y016863D01*
X029170Y016917D01*
X029235Y016974D01*
X029298Y017034D01*
X029357Y017096D01*
X029414Y017162D01*
X029468Y017229D01*
X029519Y017299D01*
X029567Y017372D01*
X029611Y017446D01*
X029652Y017522D01*
X029690Y017600D01*
X029724Y017680D01*
X029754Y017761D01*
X029781Y017843D01*
X029804Y017927D01*
X029823Y018011D01*
X029838Y018096D01*
X029850Y018182D01*
X029858Y018268D01*
X029862Y018355D01*
X029862Y018441D01*
X029858Y018528D01*
X029850Y018614D01*
X029838Y018700D01*
X029823Y018785D01*
X029804Y018869D01*
X029781Y018953D01*
X029754Y019035D01*
X029724Y019116D01*
X029690Y019196D01*
X029652Y019274D01*
X029611Y019350D01*
X029567Y019424D01*
X029519Y019497D01*
X029468Y019567D01*
X029414Y019634D01*
X029357Y019700D01*
X029298Y019762D01*
X029235Y019822D01*
X029170Y019879D01*
X029102Y019933D01*
X029033Y019984D01*
X028960Y020032D01*
X028886Y020076D01*
X028810Y020117D01*
X028732Y020155D01*
X028652Y020189D01*
X028571Y020220D01*
X028489Y020247D01*
X028406Y020270D01*
X028321Y020289D01*
X028329Y020327D01*
X028415Y020308D01*
X028500Y020284D01*
X028584Y020256D01*
X028667Y020225D01*
X028748Y020191D01*
X028828Y020152D01*
X028905Y020110D01*
X028981Y020065D01*
X029055Y020016D01*
X029126Y019964D01*
X029195Y019909D01*
X029262Y019851D01*
X029325Y019790D01*
X029386Y019726D01*
X029444Y019659D01*
X029499Y019590D01*
X029551Y019519D01*
X029600Y019445D01*
X029645Y019369D01*
X029687Y019291D01*
X029725Y019212D01*
X029760Y019131D01*
X029791Y019048D01*
X029818Y018964D01*
X029841Y018879D01*
X029861Y018793D01*
X029877Y018706D01*
X029889Y018618D01*
X029897Y018530D01*
X029901Y018442D01*
X029901Y018354D01*
X029897Y018266D01*
X029889Y018178D01*
X029877Y018090D01*
X029861Y018003D01*
X029841Y017917D01*
X029818Y017832D01*
X029791Y017748D01*
X029760Y017665D01*
X029725Y017584D01*
X029687Y017505D01*
X029645Y017427D01*
X029600Y017351D01*
X029551Y017277D01*
X029499Y017206D01*
X029444Y017137D01*
X029386Y017070D01*
X029325Y017006D01*
X029262Y016945D01*
X029195Y016887D01*
X029126Y016832D01*
X029055Y016780D01*
X028981Y016731D01*
X028905Y016686D01*
X028828Y016644D01*
X028748Y016605D01*
X028667Y016571D01*
X028584Y016540D01*
X028500Y016512D01*
X028415Y016488D01*
X028329Y016469D01*
X028329Y016470D01*
X028415Y016489D01*
X028500Y016513D01*
X028584Y016540D01*
X028667Y016572D01*
X028748Y016606D01*
X028827Y016645D01*
X028905Y016687D01*
X028981Y016732D01*
X029054Y016781D01*
X029126Y016833D01*
X029194Y016888D01*
X029261Y016946D01*
X029325Y017007D01*
X029386Y017071D01*
X029444Y017137D01*
X029499Y017206D01*
X029550Y017278D01*
X029599Y017352D01*
X029644Y017427D01*
X029686Y017505D01*
X029724Y017585D01*
X029759Y017666D01*
X029790Y017748D01*
X029817Y017832D01*
X029840Y017917D01*
X029860Y018004D01*
X029876Y018090D01*
X029888Y018178D01*
X029896Y018266D01*
X029900Y018354D01*
X029900Y018442D01*
X029896Y018530D01*
X029888Y018618D01*
X029876Y018706D01*
X029860Y018792D01*
X029840Y018879D01*
X029817Y018964D01*
X029790Y019048D01*
X029759Y019130D01*
X029724Y019211D01*
X029686Y019291D01*
X029644Y019369D01*
X029599Y019444D01*
X029550Y019518D01*
X029499Y019590D01*
X029444Y019659D01*
X029386Y019725D01*
X029325Y019789D01*
X029261Y019850D01*
X029194Y019908D01*
X029126Y019963D01*
X029054Y020015D01*
X028981Y020064D01*
X028905Y020109D01*
X028827Y020151D01*
X028748Y020190D01*
X028667Y020224D01*
X028584Y020256D01*
X028500Y020283D01*
X028415Y020307D01*
X028329Y020326D01*
X028329Y020325D01*
X028415Y020306D01*
X028500Y020282D01*
X028584Y020255D01*
X028666Y020223D01*
X028747Y020189D01*
X028827Y020150D01*
X028904Y020108D01*
X028980Y020063D01*
X029054Y020014D01*
X029125Y019962D01*
X029194Y019907D01*
X029260Y019849D01*
X029324Y019788D01*
X029385Y019724D01*
X029443Y019658D01*
X029498Y019589D01*
X029550Y019518D01*
X029598Y019444D01*
X029643Y019368D01*
X029685Y019290D01*
X029723Y019211D01*
X029758Y019130D01*
X029789Y019047D01*
X029816Y018963D01*
X029839Y018878D01*
X029859Y018792D01*
X029875Y018705D01*
X029887Y018618D01*
X029895Y018530D01*
X029899Y018442D01*
X029899Y018354D01*
X029895Y018266D01*
X029887Y018178D01*
X029875Y018091D01*
X029859Y018004D01*
X029839Y017918D01*
X029816Y017833D01*
X029789Y017749D01*
X029758Y017666D01*
X029723Y017585D01*
X029685Y017506D01*
X029643Y017428D01*
X029598Y017352D01*
X029550Y017278D01*
X029498Y017207D01*
X029443Y017138D01*
X029385Y017072D01*
X029324Y017008D01*
X029260Y016947D01*
X029194Y016889D01*
X029125Y016834D01*
X029054Y016782D01*
X028980Y016733D01*
X028904Y016688D01*
X028827Y016646D01*
X028747Y016607D01*
X028666Y016573D01*
X028584Y016541D01*
X028500Y016514D01*
X028415Y016490D01*
X028329Y016471D01*
X028329Y016472D01*
X028415Y016491D01*
X028500Y016515D01*
X028583Y016542D01*
X028666Y016573D01*
X028747Y016608D01*
X028826Y016647D01*
X028904Y016688D01*
X028980Y016734D01*
X029053Y016782D01*
X029124Y016834D01*
X029193Y016889D01*
X029260Y016947D01*
X029323Y017008D01*
X029384Y017072D01*
X029442Y017139D01*
X029497Y017208D01*
X029549Y017279D01*
X029597Y017353D01*
X029642Y017428D01*
X029684Y017506D01*
X029722Y017585D01*
X029757Y017667D01*
X029788Y017749D01*
X029815Y017833D01*
X029839Y017918D01*
X029858Y018004D01*
X029874Y018091D01*
X029886Y018178D01*
X029894Y018266D01*
X029898Y018354D01*
X029898Y018442D01*
X029894Y018530D01*
X029886Y018618D01*
X029874Y018705D01*
X029858Y018792D01*
X029839Y018878D01*
X029815Y018963D01*
X029788Y019047D01*
X029757Y019129D01*
X029722Y019211D01*
X029684Y019290D01*
X029642Y019368D01*
X029597Y019443D01*
X029549Y019517D01*
X029497Y019588D01*
X029442Y019657D01*
X029384Y019724D01*
X029323Y019788D01*
X029260Y019849D01*
X029193Y019907D01*
X029124Y019962D01*
X029053Y020014D01*
X028980Y020062D01*
X028904Y020108D01*
X028826Y020149D01*
X028747Y020188D01*
X028666Y020223D01*
X028583Y020254D01*
X028500Y020281D01*
X028415Y020305D01*
X028329Y020324D01*
X028328Y020323D01*
X028414Y020304D01*
X028499Y020280D01*
X028583Y020253D01*
X028666Y020222D01*
X028746Y020187D01*
X028826Y020149D01*
X028903Y020107D01*
X028979Y020061D01*
X029052Y020013D01*
X029124Y019961D01*
X029193Y019906D01*
X029259Y019848D01*
X029322Y019787D01*
X029383Y019723D01*
X029441Y019657D01*
X029496Y019588D01*
X029548Y019516D01*
X029596Y019443D01*
X029642Y019367D01*
X029683Y019290D01*
X029721Y019210D01*
X029756Y019129D01*
X029787Y019047D01*
X029814Y018963D01*
X029838Y018878D01*
X029857Y018792D01*
X029873Y018705D01*
X029885Y018618D01*
X029893Y018530D01*
X029897Y018442D01*
X029897Y018354D01*
X029893Y018266D01*
X029885Y018178D01*
X029873Y018091D01*
X029857Y018004D01*
X029838Y017918D01*
X029814Y017833D01*
X029787Y017749D01*
X029756Y017667D01*
X029721Y017586D01*
X029683Y017506D01*
X029642Y017429D01*
X029596Y017353D01*
X029548Y017280D01*
X029496Y017208D01*
X029441Y017139D01*
X029383Y017073D01*
X029322Y017009D01*
X029259Y016948D01*
X029193Y016890D01*
X029124Y016835D01*
X029052Y016783D01*
X028979Y016735D01*
X028903Y016689D01*
X028826Y016647D01*
X028746Y016609D01*
X028666Y016574D01*
X028583Y016543D01*
X028499Y016516D01*
X028414Y016492D01*
X028328Y016473D01*
X028328Y016474D01*
X028414Y016493D01*
X028499Y016517D01*
X028583Y016544D01*
X028665Y016575D01*
X028746Y016610D01*
X028825Y016648D01*
X028903Y016690D01*
X028978Y016735D01*
X029052Y016784D01*
X029123Y016836D01*
X029192Y016891D01*
X029258Y016949D01*
X029322Y017010D01*
X029383Y017074D01*
X029440Y017140D01*
X029495Y017209D01*
X029547Y017280D01*
X029596Y017354D01*
X029641Y017429D01*
X029682Y017507D01*
X029721Y017586D01*
X029755Y017667D01*
X029786Y017750D01*
X029813Y017834D01*
X029837Y017918D01*
X029856Y018004D01*
X029872Y018091D01*
X029884Y018178D01*
X029892Y018266D01*
X029896Y018354D01*
X029896Y018442D01*
X029892Y018530D01*
X029884Y018618D01*
X029872Y018705D01*
X029856Y018792D01*
X029837Y018878D01*
X029813Y018962D01*
X029786Y019046D01*
X029755Y019129D01*
X029721Y019210D01*
X029682Y019289D01*
X029641Y019367D01*
X029596Y019442D01*
X029547Y019516D01*
X029495Y019587D01*
X029440Y019656D01*
X029383Y019722D01*
X029322Y019786D01*
X029258Y019847D01*
X029192Y019905D01*
X029123Y019960D01*
X029052Y020012D01*
X028978Y020061D01*
X028903Y020106D01*
X028825Y020148D01*
X028746Y020186D01*
X028665Y020221D01*
X028583Y020252D01*
X028499Y020279D01*
X028414Y020303D01*
X028328Y020322D01*
X028328Y020321D01*
X028414Y020302D01*
X028499Y020278D01*
X028582Y020251D01*
X028665Y020220D01*
X028746Y020185D01*
X028825Y020147D01*
X028902Y020105D01*
X028978Y020060D01*
X029051Y020011D01*
X029122Y019959D01*
X029191Y019904D01*
X029257Y019846D01*
X029321Y019785D01*
X029382Y019722D01*
X029440Y019655D01*
X029495Y019587D01*
X029546Y019515D01*
X029595Y019442D01*
X029640Y019366D01*
X029681Y019289D01*
X029720Y019209D01*
X029754Y019128D01*
X029785Y019046D01*
X029812Y018962D01*
X029836Y018877D01*
X029855Y018791D01*
X029871Y018705D01*
X029883Y018618D01*
X029891Y018530D01*
X029895Y018442D01*
X029895Y018354D01*
X029891Y018266D01*
X029883Y018178D01*
X029871Y018091D01*
X029855Y018005D01*
X029836Y017919D01*
X029812Y017834D01*
X029785Y017750D01*
X029754Y017668D01*
X029720Y017587D01*
X029681Y017507D01*
X029640Y017430D01*
X029595Y017354D01*
X029546Y017281D01*
X029495Y017209D01*
X029440Y017141D01*
X029382Y017074D01*
X029321Y017011D01*
X029257Y016950D01*
X029191Y016892D01*
X029122Y016837D01*
X029051Y016785D01*
X028978Y016736D01*
X028902Y016691D01*
X028825Y016649D01*
X028746Y016611D01*
X028665Y016576D01*
X028582Y016545D01*
X028499Y016518D01*
X028414Y016494D01*
X028328Y016475D01*
X028328Y016476D01*
X028414Y016495D01*
X028498Y016519D01*
X028582Y016546D01*
X028664Y016577D01*
X028745Y016612D01*
X028824Y016650D01*
X028902Y016692D01*
X028977Y016737D01*
X029051Y016786D01*
X029122Y016837D01*
X029191Y016892D01*
X029257Y016950D01*
X029320Y017011D01*
X029381Y017075D01*
X029439Y017141D01*
X029494Y017210D01*
X029545Y017281D01*
X029594Y017355D01*
X029639Y017430D01*
X029681Y017508D01*
X029719Y017587D01*
X029753Y017668D01*
X029784Y017750D01*
X029811Y017834D01*
X029835Y017919D01*
X029854Y018005D01*
X029870Y018091D01*
X029882Y018178D01*
X029890Y018266D01*
X029894Y018354D01*
X029894Y018442D01*
X029890Y018530D01*
X029882Y018618D01*
X029870Y018705D01*
X029854Y018791D01*
X029835Y018877D01*
X029811Y018962D01*
X029784Y019046D01*
X029753Y019128D01*
X029719Y019209D01*
X029681Y019288D01*
X029639Y019366D01*
X029594Y019441D01*
X029545Y019515D01*
X029494Y019586D01*
X029439Y019655D01*
X029381Y019721D01*
X029320Y019785D01*
X029257Y019846D01*
X029191Y019904D01*
X029122Y019959D01*
X029051Y020010D01*
X028977Y020059D01*
X028902Y020104D01*
X028824Y020146D01*
X028745Y020184D01*
X028664Y020219D01*
X028582Y020250D01*
X028498Y020277D01*
X028414Y020301D01*
X028328Y020320D01*
X028328Y020319D01*
X028413Y020300D01*
X028498Y020276D01*
X028582Y020249D01*
X028664Y020218D01*
X028745Y020183D01*
X028824Y020145D01*
X028901Y020103D01*
X028977Y020058D01*
X029050Y020009D01*
X029121Y019958D01*
X029190Y019903D01*
X029256Y019845D01*
X029320Y019784D01*
X029380Y019720D01*
X029438Y019654D01*
X029493Y019585D01*
X029545Y019514D01*
X029593Y019441D01*
X029638Y019365D01*
X029680Y019288D01*
X029718Y019208D01*
X029752Y019128D01*
X029783Y019045D01*
X029810Y018962D01*
X029834Y018877D01*
X029853Y018791D01*
X029869Y018705D01*
X029881Y018617D01*
X029889Y018530D01*
X029893Y018442D01*
X029893Y018354D01*
X029889Y018266D01*
X029881Y018179D01*
X029869Y018091D01*
X029853Y018005D01*
X029834Y017919D01*
X029810Y017834D01*
X029783Y017751D01*
X029752Y017668D01*
X029718Y017588D01*
X029680Y017508D01*
X029638Y017431D01*
X029593Y017355D01*
X029545Y017282D01*
X029493Y017211D01*
X029438Y017142D01*
X029380Y017076D01*
X029320Y017012D01*
X029256Y016951D01*
X029190Y016893D01*
X029121Y016838D01*
X029050Y016787D01*
X028977Y016738D01*
X028901Y016693D01*
X028824Y016651D01*
X028745Y016613D01*
X028664Y016578D01*
X028582Y016547D01*
X028498Y016520D01*
X028413Y016496D01*
X028328Y016477D01*
X028327Y016478D01*
X028413Y016497D01*
X028498Y016521D01*
X028581Y016548D01*
X028664Y016579D01*
X028744Y016614D01*
X028824Y016652D01*
X028901Y016694D01*
X028976Y016739D01*
X029050Y016787D01*
X029121Y016839D01*
X029189Y016894D01*
X029255Y016952D01*
X029319Y017013D01*
X029380Y017076D01*
X029437Y017142D01*
X029492Y017211D01*
X029544Y017282D01*
X029592Y017356D01*
X029637Y017431D01*
X029679Y017509D01*
X029717Y017588D01*
X029751Y017669D01*
X029782Y017751D01*
X029809Y017835D01*
X029833Y017919D01*
X029852Y018005D01*
X029868Y018092D01*
X029880Y018179D01*
X029888Y018266D01*
X029892Y018354D01*
X029892Y018442D01*
X029888Y018530D01*
X029880Y018617D01*
X029868Y018704D01*
X029852Y018791D01*
X029833Y018877D01*
X029809Y018961D01*
X029782Y019045D01*
X029751Y019127D01*
X029717Y019208D01*
X029679Y019287D01*
X029637Y019365D01*
X029592Y019440D01*
X029544Y019514D01*
X029492Y019585D01*
X029437Y019654D01*
X029380Y019720D01*
X029319Y019783D01*
X029255Y019844D01*
X029189Y019902D01*
X029121Y019957D01*
X029050Y020009D01*
X028976Y020057D01*
X028901Y020102D01*
X028824Y020144D01*
X028744Y020182D01*
X028664Y020217D01*
X028581Y020248D01*
X028498Y020275D01*
X028413Y020299D01*
X028327Y020318D01*
X028413Y020298D01*
X028498Y020274D01*
X028581Y020247D01*
X028663Y020216D01*
X028744Y020181D01*
X028823Y020143D01*
X028900Y020101D01*
X028976Y020056D01*
X029049Y020008D01*
X029120Y019956D01*
X029189Y019901D01*
X029255Y019843D01*
X029318Y019783D01*
X029379Y019719D01*
X029437Y019653D01*
X029491Y019584D01*
X029543Y019513D01*
X029591Y019440D01*
X029636Y019364D01*
X029678Y019287D01*
X029716Y019208D01*
X029750Y019127D01*
X029781Y019045D01*
X029808Y018961D01*
X029832Y018876D01*
X029851Y018791D01*
X029867Y018704D01*
X029879Y018617D01*
X029887Y018530D01*
X029891Y018442D01*
X029891Y018354D01*
X029887Y018266D01*
X029879Y018179D01*
X029867Y018092D01*
X029851Y018005D01*
X029832Y017920D01*
X029808Y017835D01*
X029781Y017751D01*
X029750Y017669D01*
X029716Y017588D01*
X029678Y017509D01*
X029636Y017432D01*
X029591Y017356D01*
X029543Y017283D01*
X029491Y017212D01*
X029437Y017143D01*
X029379Y017077D01*
X029318Y017013D01*
X029255Y016953D01*
X029189Y016895D01*
X029120Y016840D01*
X029049Y016788D01*
X028976Y016740D01*
X028900Y016695D01*
X028823Y016653D01*
X028744Y016615D01*
X028663Y016580D01*
X028581Y016549D01*
X028498Y016522D01*
X028413Y016498D01*
X028327Y016478D01*
X028327Y016479D01*
X028413Y016499D01*
X028497Y016523D01*
X028581Y016550D01*
X028663Y016581D01*
X028744Y016615D01*
X028823Y016654D01*
X028900Y016695D01*
X028975Y016741D01*
X029048Y016789D01*
X029119Y016841D01*
X029188Y016895D01*
X029254Y016953D01*
X029318Y017014D01*
X029378Y017078D01*
X029436Y017144D01*
X029491Y017212D01*
X029542Y017284D01*
X029590Y017357D01*
X029635Y017432D01*
X029677Y017510D01*
X029715Y017589D01*
X029750Y017670D01*
X029780Y017752D01*
X029807Y017835D01*
X029831Y017920D01*
X029850Y018006D01*
X029866Y018092D01*
X029878Y018179D01*
X029886Y018266D01*
X029890Y018354D01*
X029890Y018442D01*
X029886Y018530D01*
X029878Y018617D01*
X029866Y018704D01*
X029850Y018790D01*
X029831Y018876D01*
X029807Y018961D01*
X029780Y019044D01*
X029750Y019126D01*
X029715Y019207D01*
X029677Y019286D01*
X029635Y019364D01*
X029590Y019439D01*
X029542Y019512D01*
X029491Y019584D01*
X029436Y019652D01*
X029378Y019718D01*
X029318Y019782D01*
X029254Y019843D01*
X029188Y019901D01*
X029119Y019955D01*
X029048Y020007D01*
X028975Y020055D01*
X028900Y020101D01*
X028823Y020142D01*
X028744Y020181D01*
X028663Y020215D01*
X028581Y020246D01*
X028497Y020273D01*
X028413Y020297D01*
X028327Y020317D01*
X028327Y020316D01*
X028412Y020296D01*
X028497Y020272D01*
X028580Y020245D01*
X028663Y020214D01*
X028743Y020180D01*
X028822Y020141D01*
X028899Y020100D01*
X028975Y020055D01*
X029048Y020006D01*
X029119Y019955D01*
X029187Y019900D01*
X029253Y019842D01*
X029317Y019781D01*
X029377Y019718D01*
X029435Y019652D01*
X029490Y019583D01*
X029541Y019512D01*
X029590Y019439D01*
X029635Y019363D01*
X029676Y019286D01*
X029714Y019207D01*
X029749Y019126D01*
X029779Y019044D01*
X029806Y018960D01*
X029830Y018876D01*
X029849Y018790D01*
X029865Y018704D01*
X029877Y018617D01*
X029885Y018530D01*
X029889Y018442D01*
X029889Y018354D01*
X029885Y018266D01*
X029877Y018179D01*
X029865Y018092D01*
X029849Y018006D01*
X029830Y017920D01*
X029806Y017836D01*
X029779Y017752D01*
X029749Y017670D01*
X029714Y017589D01*
X029676Y017510D01*
X029635Y017433D01*
X029590Y017357D01*
X029541Y017284D01*
X029490Y017213D01*
X029435Y017144D01*
X029377Y017078D01*
X029317Y017015D01*
X029253Y016954D01*
X029187Y016896D01*
X029119Y016841D01*
X029048Y016790D01*
X028975Y016741D01*
X028899Y016696D01*
X028822Y016655D01*
X028743Y016616D01*
X028663Y016582D01*
X028580Y016551D01*
X028497Y016524D01*
X028412Y016500D01*
X028327Y016480D01*
X028327Y016481D01*
X028412Y016501D01*
X028497Y016525D01*
X028580Y016552D01*
X028662Y016583D01*
X028743Y016617D01*
X028822Y016655D01*
X028899Y016697D01*
X028974Y016742D01*
X029047Y016791D01*
X029118Y016842D01*
X029187Y016897D01*
X029253Y016955D01*
X029316Y017015D01*
X029377Y017079D01*
X029434Y017145D01*
X029489Y017214D01*
X029540Y017285D01*
X029589Y017358D01*
X029634Y017433D01*
X029675Y017511D01*
X029713Y017590D01*
X029748Y017670D01*
X029778Y017752D01*
X029806Y017836D01*
X029829Y017920D01*
X029848Y018006D01*
X029864Y018092D01*
X029876Y018179D01*
X029884Y018267D01*
X029888Y018354D01*
X029888Y018442D01*
X029884Y018529D01*
X029876Y018617D01*
X029864Y018704D01*
X029848Y018790D01*
X029829Y018876D01*
X029806Y018960D01*
X029778Y019044D01*
X029748Y019126D01*
X029713Y019206D01*
X029675Y019285D01*
X029634Y019363D01*
X029589Y019438D01*
X029540Y019511D01*
X029489Y019582D01*
X029434Y019651D01*
X029377Y019717D01*
X029316Y019781D01*
X029253Y019841D01*
X029187Y019899D01*
X029118Y019954D01*
X029047Y020005D01*
X028974Y020054D01*
X028899Y020099D01*
X028822Y020141D01*
X028743Y020179D01*
X028662Y020213D01*
X028580Y020244D01*
X028497Y020271D01*
X028412Y020295D01*
X028327Y020315D01*
X028326Y020314D01*
X028412Y020294D01*
X028496Y020271D01*
X028580Y020243D01*
X028662Y020212D01*
X028742Y020178D01*
X028821Y020140D01*
X028898Y020098D01*
X028974Y020053D01*
X029047Y020005D01*
X029118Y019953D01*
X029186Y019898D01*
X029252Y019840D01*
X029315Y019780D01*
X029376Y019716D01*
X029434Y019650D01*
X029488Y019582D01*
X029540Y019511D01*
X029588Y019438D01*
X029633Y019362D01*
X029674Y019285D01*
X029712Y019206D01*
X029747Y019125D01*
X029777Y019043D01*
X029805Y018960D01*
X029828Y018875D01*
X029847Y018790D01*
X029863Y018704D01*
X029875Y018617D01*
X029883Y018529D01*
X029887Y018442D01*
X029887Y018354D01*
X029883Y018267D01*
X029875Y018179D01*
X029863Y018092D01*
X029847Y018006D01*
X029828Y017921D01*
X029805Y017836D01*
X029777Y017753D01*
X029747Y017671D01*
X029712Y017590D01*
X029674Y017511D01*
X029633Y017434D01*
X029588Y017358D01*
X029540Y017285D01*
X029488Y017214D01*
X029434Y017146D01*
X029376Y017080D01*
X029315Y017016D01*
X029252Y016956D01*
X029186Y016898D01*
X029118Y016843D01*
X029047Y016791D01*
X028974Y016743D01*
X028898Y016698D01*
X028821Y016656D01*
X028742Y016618D01*
X028662Y016584D01*
X028580Y016553D01*
X028496Y016525D01*
X028412Y016502D01*
X028326Y016482D01*
X028326Y016483D01*
X028412Y016503D01*
X028496Y016526D01*
X028579Y016554D01*
X028661Y016585D01*
X028742Y016619D01*
X028821Y016657D01*
X028898Y016699D01*
X028973Y016744D01*
X029046Y016792D01*
X029117Y016844D01*
X029185Y016899D01*
X029251Y016956D01*
X029315Y017017D01*
X029375Y017080D01*
X029433Y017146D01*
X029487Y017215D01*
X029539Y017286D01*
X029587Y017359D01*
X029632Y017434D01*
X029673Y017511D01*
X029711Y017590D01*
X029746Y017671D01*
X029777Y017753D01*
X029804Y017836D01*
X029827Y017921D01*
X029846Y018006D01*
X029862Y018093D01*
X029874Y018179D01*
X029882Y018267D01*
X029886Y018354D01*
X029886Y018442D01*
X029882Y018529D01*
X029874Y018617D01*
X029862Y018703D01*
X029846Y018790D01*
X029827Y018875D01*
X029804Y018960D01*
X029777Y019043D01*
X029746Y019125D01*
X029711Y019206D01*
X029673Y019285D01*
X029632Y019362D01*
X029587Y019437D01*
X029539Y019510D01*
X029487Y019581D01*
X029433Y019650D01*
X029375Y019716D01*
X029315Y019779D01*
X029251Y019840D01*
X029185Y019897D01*
X029117Y019952D01*
X029046Y020004D01*
X028973Y020052D01*
X028898Y020097D01*
X028821Y020139D01*
X028742Y020177D01*
X028661Y020211D01*
X028579Y020242D01*
X028496Y020270D01*
X028412Y020293D01*
X028326Y020313D01*
X028326Y020312D01*
X028411Y020292D01*
X028496Y020269D01*
X028579Y020241D01*
X028661Y020211D01*
X028742Y020176D01*
X028820Y020138D01*
X028897Y020096D01*
X028973Y020051D01*
X029046Y020003D01*
X029116Y019951D01*
X029185Y019897D01*
X029251Y019839D01*
X029314Y019778D01*
X029374Y019715D01*
X029432Y019649D01*
X029487Y019581D01*
X029538Y019510D01*
X029586Y019436D01*
X029631Y019361D01*
X029673Y019284D01*
X029710Y019205D01*
X029745Y019125D01*
X029776Y019043D01*
X029803Y018959D01*
X029826Y018875D01*
X029845Y018789D01*
X029861Y018703D01*
X029873Y018617D01*
X029881Y018529D01*
X029885Y018442D01*
X029885Y018354D01*
X029881Y018267D01*
X029873Y018179D01*
X029861Y018093D01*
X029845Y018007D01*
X029826Y017921D01*
X029803Y017837D01*
X029776Y017753D01*
X029745Y017671D01*
X029710Y017591D01*
X029673Y017512D01*
X029631Y017435D01*
X029586Y017360D01*
X029538Y017286D01*
X029487Y017215D01*
X029432Y017147D01*
X029374Y017081D01*
X029314Y017018D01*
X029251Y016957D01*
X029185Y016899D01*
X029116Y016845D01*
X029046Y016793D01*
X028973Y016745D01*
X028897Y016700D01*
X028820Y016658D01*
X028742Y016620D01*
X028661Y016585D01*
X028579Y016555D01*
X028496Y016527D01*
X028411Y016504D01*
X028326Y016484D01*
X028326Y016485D01*
X028411Y016505D01*
X028496Y016528D01*
X028579Y016556D01*
X028661Y016586D01*
X028741Y016621D01*
X028820Y016659D01*
X028897Y016701D01*
X028972Y016746D01*
X029045Y016794D01*
X029116Y016845D01*
X029184Y016900D01*
X029250Y016958D01*
X029313Y017018D01*
X029374Y017082D01*
X029431Y017148D01*
X029486Y017216D01*
X029537Y017287D01*
X029585Y017360D01*
X029630Y017435D01*
X029672Y017512D01*
X029710Y017591D01*
X029744Y017672D01*
X029775Y017754D01*
X029802Y017837D01*
X029825Y017921D01*
X029844Y018007D01*
X029860Y018093D01*
X029872Y018180D01*
X029880Y018267D01*
X029884Y018354D01*
X029884Y018442D01*
X029880Y018529D01*
X029872Y018616D01*
X029860Y018703D01*
X029844Y018789D01*
X029825Y018875D01*
X029802Y018959D01*
X029775Y019042D01*
X029744Y019124D01*
X029710Y019205D01*
X029672Y019284D01*
X029630Y019361D01*
X029585Y019436D01*
X029537Y019509D01*
X029486Y019580D01*
X029431Y019648D01*
X029374Y019714D01*
X029313Y019778D01*
X029250Y019838D01*
X029184Y019896D01*
X029116Y019951D01*
X029045Y020002D01*
X028972Y020050D01*
X028897Y020095D01*
X028820Y020137D01*
X028741Y020175D01*
X028661Y020210D01*
X028579Y020240D01*
X028496Y020268D01*
X028411Y020291D01*
X028326Y020311D01*
X028326Y020310D01*
X028411Y020290D01*
X028495Y020267D01*
X028578Y020240D01*
X028660Y020209D01*
X028741Y020174D01*
X028819Y020136D01*
X028896Y020095D01*
X028972Y020050D01*
X029044Y020001D01*
X029115Y019950D01*
X029184Y019895D01*
X029249Y019838D01*
X029313Y019777D01*
X029373Y019714D01*
X029430Y019648D01*
X029485Y019579D01*
X029536Y019508D01*
X029585Y019435D01*
X029629Y019360D01*
X029671Y019283D01*
X029709Y019204D01*
X029743Y019124D01*
X029774Y019042D01*
X029801Y018959D01*
X029824Y018874D01*
X029843Y018789D01*
X029859Y018703D01*
X029871Y018616D01*
X029879Y018529D01*
X029883Y018442D01*
X029883Y018354D01*
X029879Y018267D01*
X029871Y018180D01*
X029859Y018093D01*
X029843Y018007D01*
X029824Y017922D01*
X029801Y017837D01*
X029774Y017754D01*
X029743Y017672D01*
X029709Y017592D01*
X029671Y017513D01*
X029629Y017436D01*
X029585Y017361D01*
X029536Y017288D01*
X029485Y017217D01*
X029430Y017148D01*
X029373Y017082D01*
X029313Y017019D01*
X029249Y016958D01*
X029184Y016901D01*
X029115Y016846D01*
X029044Y016795D01*
X028972Y016746D01*
X028896Y016701D01*
X028819Y016660D01*
X028741Y016622D01*
X028660Y016587D01*
X028578Y016556D01*
X028495Y016529D01*
X028411Y016506D01*
X028326Y016486D01*
X028325Y016487D01*
X028411Y016507D01*
X028495Y016530D01*
X028578Y016557D01*
X028660Y016588D01*
X028740Y016623D01*
X028819Y016661D01*
X028896Y016702D01*
X028971Y016747D01*
X029044Y016796D01*
X029115Y016847D01*
X029183Y016902D01*
X029249Y016959D01*
X029312Y017020D01*
X029372Y017083D01*
X029430Y017149D01*
X029484Y017217D01*
X029536Y017288D01*
X029584Y017361D01*
X029628Y017436D01*
X029670Y017513D01*
X029708Y017592D01*
X029742Y017672D01*
X029773Y017754D01*
X029800Y017838D01*
X029823Y017922D01*
X029842Y018007D01*
X029858Y018093D01*
X029870Y018180D01*
X029878Y018267D01*
X029882Y018354D01*
X029882Y018442D01*
X029878Y018529D01*
X029870Y018616D01*
X029858Y018703D01*
X029842Y018789D01*
X029823Y018874D01*
X029800Y018958D01*
X029773Y019042D01*
X029742Y019124D01*
X029708Y019204D01*
X029670Y019283D01*
X029628Y019360D01*
X029584Y019435D01*
X029536Y019508D01*
X029484Y019579D01*
X029430Y019647D01*
X029372Y019713D01*
X029312Y019776D01*
X029249Y019837D01*
X029183Y019894D01*
X029115Y019949D01*
X029044Y020000D01*
X028971Y020049D01*
X028896Y020094D01*
X028819Y020135D01*
X028740Y020173D01*
X028660Y020208D01*
X028578Y020239D01*
X028495Y020266D01*
X028411Y020289D01*
X028325Y020309D01*
X028325Y020308D01*
X028410Y020288D01*
X028495Y020265D01*
X028578Y020238D01*
X028660Y020207D01*
X028740Y020172D01*
X028819Y020134D01*
X028895Y020093D01*
X028970Y020048D01*
X029043Y020000D01*
X029114Y019948D01*
X029182Y019894D01*
X029248Y019836D01*
X029311Y019776D01*
X029371Y019712D01*
X029429Y019646D01*
X029483Y019578D01*
X029535Y019507D01*
X029583Y019434D01*
X029628Y019359D01*
X029669Y019282D01*
X029707Y019204D01*
X029741Y019123D01*
X029772Y019041D01*
X029799Y018958D01*
X029822Y018874D01*
X029841Y018789D01*
X029857Y018703D01*
X029869Y018616D01*
X029877Y018529D01*
X029881Y018442D01*
X029881Y018354D01*
X029877Y018267D01*
X029869Y018180D01*
X029857Y018093D01*
X029841Y018007D01*
X029822Y017922D01*
X029799Y017838D01*
X029772Y017755D01*
X029741Y017673D01*
X029707Y017592D01*
X029669Y017514D01*
X029628Y017437D01*
X029583Y017362D01*
X029535Y017289D01*
X029483Y017218D01*
X029429Y017150D01*
X029371Y017084D01*
X029311Y017020D01*
X029248Y016960D01*
X029182Y016902D01*
X029114Y016848D01*
X029043Y016796D01*
X028970Y016748D01*
X028895Y016703D01*
X028819Y016662D01*
X028740Y016624D01*
X028660Y016589D01*
X028578Y016558D01*
X028495Y016531D01*
X028410Y016508D01*
X028325Y016488D01*
X028325Y016489D01*
X028410Y016509D01*
X028494Y016532D01*
X028577Y016559D01*
X028659Y016590D01*
X028739Y016625D01*
X028818Y016663D01*
X028895Y016704D01*
X028970Y016749D01*
X029043Y016797D01*
X029113Y016849D01*
X029182Y016903D01*
X029247Y016961D01*
X029310Y017021D01*
X029371Y017084D01*
X029428Y017150D01*
X029483Y017219D01*
X029534Y017289D01*
X029582Y017362D01*
X029627Y017437D01*
X029668Y017514D01*
X029706Y017593D01*
X029740Y017673D01*
X029771Y017755D01*
X029798Y017838D01*
X029821Y017922D01*
X029840Y018008D01*
X029856Y018093D01*
X029868Y018180D01*
X029876Y018267D01*
X029880Y018354D01*
X029880Y018442D01*
X029876Y018529D01*
X029868Y018616D01*
X029856Y018703D01*
X029840Y018788D01*
X029821Y018874D01*
X029798Y018958D01*
X029771Y019041D01*
X029740Y019123D01*
X029706Y019203D01*
X029668Y019282D01*
X029627Y019359D01*
X029582Y019434D01*
X029534Y019507D01*
X029483Y019577D01*
X029428Y019646D01*
X029371Y019712D01*
X029310Y019775D01*
X029247Y019835D01*
X029182Y019893D01*
X029113Y019947D01*
X029043Y019999D01*
X028970Y020047D01*
X028895Y020092D01*
X028818Y020133D01*
X028739Y020171D01*
X028659Y020206D01*
X028577Y020237D01*
X028494Y020264D01*
X028410Y020287D01*
X028325Y020307D01*
X028325Y020306D01*
X028410Y020286D01*
X028494Y020263D01*
X028577Y020236D01*
X028659Y020205D01*
X028739Y020171D01*
X028818Y020133D01*
X028894Y020091D01*
X028969Y020046D01*
X029042Y019998D01*
X029113Y019947D01*
X029181Y019892D01*
X029247Y019835D01*
X029310Y019774D01*
X029370Y019711D01*
X029427Y019645D01*
X029482Y019577D01*
X029533Y019506D01*
X029581Y019433D01*
X029626Y019358D01*
X029667Y019281D01*
X029705Y019203D01*
X029739Y019122D01*
X029770Y019041D01*
X029797Y018958D01*
X029820Y018873D01*
X029840Y018788D01*
X029855Y018702D01*
X029867Y018616D01*
X029875Y018529D01*
X029879Y018442D01*
X029879Y018354D01*
X029875Y018267D01*
X029867Y018180D01*
X029855Y018094D01*
X029840Y018008D01*
X029820Y017923D01*
X029797Y017838D01*
X029770Y017755D01*
X029739Y017674D01*
X029705Y017593D01*
X029667Y017515D01*
X029626Y017438D01*
X029581Y017363D01*
X029533Y017290D01*
X029482Y017219D01*
X029427Y017151D01*
X029370Y017085D01*
X029310Y017022D01*
X029247Y016961D01*
X029181Y016904D01*
X029113Y016849D01*
X029042Y016798D01*
X028969Y016750D01*
X028894Y016705D01*
X028818Y016663D01*
X028739Y016625D01*
X028659Y016591D01*
X028577Y016560D01*
X028494Y016533D01*
X028410Y016510D01*
X028325Y016490D01*
X028325Y016491D01*
X028410Y016511D01*
X028494Y016534D01*
X028577Y016561D01*
X028658Y016592D01*
X028739Y016626D01*
X028817Y016664D01*
X028894Y016706D01*
X028969Y016751D01*
X029042Y016799D01*
X029112Y016850D01*
X029180Y016905D01*
X029246Y016962D01*
X029309Y017023D01*
X029369Y017086D01*
X029427Y017151D01*
X029481Y017220D01*
X029532Y017290D01*
X029580Y017363D01*
X029625Y017438D01*
X029666Y017515D01*
X029704Y017594D01*
X029738Y017674D01*
X029769Y017756D01*
X029796Y017839D01*
X029819Y017923D01*
X029839Y018008D01*
X029854Y018094D01*
X029866Y018180D01*
X029874Y018267D01*
X029878Y018354D01*
X029878Y018442D01*
X029874Y018529D01*
X029866Y018616D01*
X029854Y018702D01*
X029839Y018788D01*
X029819Y018873D01*
X029796Y018957D01*
X029769Y019040D01*
X029738Y019122D01*
X029704Y019202D01*
X029666Y019281D01*
X029625Y019358D01*
X029580Y019433D01*
X029532Y019506D01*
X029481Y019576D01*
X029427Y019645D01*
X029369Y019710D01*
X029309Y019773D01*
X029246Y019834D01*
X029180Y019891D01*
X029112Y019946D01*
X029042Y019997D01*
X028969Y020045D01*
X028894Y020090D01*
X028817Y020132D01*
X028739Y020170D01*
X028658Y020204D01*
X028577Y020235D01*
X028494Y020262D01*
X028410Y020285D01*
X028325Y020305D01*
X028324Y020304D01*
X028409Y020284D01*
X028494Y020261D01*
X028576Y020234D01*
X028658Y020203D01*
X028738Y020169D01*
X028817Y020131D01*
X028893Y020089D01*
X028968Y020044D01*
X029041Y019996D01*
X029112Y019945D01*
X029180Y019891D01*
X029245Y019833D01*
X029308Y019773D01*
X029369Y019710D01*
X029426Y019644D01*
X029480Y019576D01*
X029531Y019505D01*
X029579Y019432D01*
X029624Y019357D01*
X029665Y019280D01*
X029703Y019202D01*
X029737Y019122D01*
X029768Y019040D01*
X029795Y018957D01*
X029818Y018873D01*
X029838Y018788D01*
X029853Y018702D01*
X029865Y018616D01*
X029873Y018529D01*
X029877Y018442D01*
X029877Y018354D01*
X029873Y018267D01*
X029865Y018180D01*
X029853Y018094D01*
X029838Y018008D01*
X029818Y017923D01*
X029795Y017839D01*
X029768Y017756D01*
X029737Y017674D01*
X029703Y017594D01*
X029665Y017516D01*
X029624Y017439D01*
X029579Y017364D01*
X029531Y017291D01*
X029480Y017220D01*
X029426Y017152D01*
X029369Y017086D01*
X029308Y017023D01*
X029245Y016963D01*
X029180Y016905D01*
X029112Y016851D01*
X029041Y016800D01*
X028968Y016752D01*
X028893Y016707D01*
X028817Y016665D01*
X028738Y016627D01*
X028658Y016593D01*
X028576Y016562D01*
X028494Y016535D01*
X028409Y016512D01*
X028324Y016492D01*
X028324Y016493D01*
X028409Y016513D01*
X028493Y016536D01*
X028576Y016563D01*
X028658Y016594D01*
X028738Y016628D01*
X028816Y016666D01*
X028893Y016708D01*
X028968Y016752D01*
X029040Y016800D01*
X029111Y016852D01*
X029179Y016906D01*
X029245Y016964D01*
X029308Y017024D01*
X029368Y017087D01*
X029425Y017153D01*
X029479Y017221D01*
X029531Y017292D01*
X029579Y017364D01*
X029623Y017439D01*
X029665Y017516D01*
X029702Y017595D01*
X029737Y017675D01*
X029767Y017756D01*
X029794Y017839D01*
X029817Y017923D01*
X029837Y018008D01*
X029852Y018094D01*
X029864Y018180D01*
X029872Y018267D01*
X029876Y018354D01*
X029876Y018442D01*
X029872Y018529D01*
X029864Y018616D01*
X029852Y018702D01*
X029837Y018788D01*
X029817Y018873D01*
X029794Y018957D01*
X029767Y019040D01*
X029737Y019121D01*
X029702Y019201D01*
X029665Y019280D01*
X029623Y019357D01*
X029579Y019432D01*
X029531Y019504D01*
X029479Y019575D01*
X029425Y019643D01*
X029368Y019709D01*
X029308Y019772D01*
X029245Y019832D01*
X029179Y019890D01*
X029111Y019944D01*
X029040Y019996D01*
X028968Y020044D01*
X028893Y020088D01*
X028816Y020130D01*
X028738Y020168D01*
X028658Y020202D01*
X028576Y020233D01*
X028493Y020260D01*
X028409Y020283D01*
X028324Y020303D01*
X028324Y020302D01*
X028409Y020282D01*
X028493Y020259D01*
X028576Y020232D01*
X028657Y020201D01*
X028737Y020167D01*
X028816Y020129D01*
X028893Y020088D01*
X028967Y020043D01*
X029040Y019995D01*
X029110Y019943D01*
X029178Y019889D01*
X029244Y019832D01*
X029307Y019771D01*
X029367Y019708D01*
X029424Y019643D01*
X029479Y019574D01*
X029530Y019504D01*
X029578Y019431D01*
X029622Y019356D01*
X029664Y019280D01*
X029701Y019201D01*
X029736Y019121D01*
X029766Y019039D01*
X029793Y018956D01*
X029816Y018872D01*
X029836Y018787D01*
X029851Y018702D01*
X029863Y018615D01*
X029871Y018529D01*
X029875Y018442D01*
X029875Y018354D01*
X029871Y018267D01*
X029863Y018181D01*
X029851Y018094D01*
X029836Y018009D01*
X029816Y017924D01*
X029793Y017840D01*
X029766Y017757D01*
X029736Y017675D01*
X029701Y017595D01*
X029664Y017516D01*
X029622Y017440D01*
X029578Y017365D01*
X029530Y017292D01*
X029479Y017222D01*
X029424Y017153D01*
X029367Y017088D01*
X029307Y017025D01*
X029244Y016964D01*
X029178Y016907D01*
X029110Y016853D01*
X029040Y016801D01*
X028967Y016753D01*
X028893Y016708D01*
X028816Y016667D01*
X028737Y016629D01*
X028657Y016595D01*
X028576Y016564D01*
X028493Y016537D01*
X028409Y016514D01*
X028324Y016494D01*
X028324Y016495D01*
X028409Y016515D01*
X028493Y016538D01*
X028575Y016565D01*
X028657Y016596D01*
X028737Y016630D01*
X028815Y016668D01*
X028892Y016709D01*
X028967Y016754D01*
X029039Y016802D01*
X029110Y016853D01*
X029178Y016908D01*
X029243Y016965D01*
X029306Y017025D01*
X029366Y017088D01*
X029424Y017154D01*
X029478Y017222D01*
X029529Y017293D01*
X029577Y017365D01*
X029621Y017440D01*
X029663Y017517D01*
X029700Y017595D01*
X029735Y017675D01*
X029765Y017757D01*
X029792Y017840D01*
X029815Y017924D01*
X029835Y018009D01*
X029850Y018094D01*
X029862Y018181D01*
X029870Y018267D01*
X029874Y018354D01*
X029874Y018442D01*
X029870Y018529D01*
X029862Y018615D01*
X029850Y018702D01*
X029835Y018787D01*
X029815Y018872D01*
X029792Y018956D01*
X029765Y019039D01*
X029735Y019121D01*
X029700Y019201D01*
X029663Y019279D01*
X029621Y019356D01*
X029577Y019431D01*
X029529Y019503D01*
X029478Y019574D01*
X029424Y019642D01*
X029366Y019708D01*
X029306Y019771D01*
X029243Y019831D01*
X029178Y019888D01*
X029110Y019943D01*
X029039Y019994D01*
X028967Y020042D01*
X028892Y020087D01*
X028815Y020128D01*
X028737Y020166D01*
X028657Y020200D01*
X028575Y020231D01*
X028493Y020258D01*
X028409Y020281D01*
X028324Y020301D01*
X028324Y020300D01*
X028408Y020280D01*
X028492Y020257D01*
X028575Y020230D01*
X028657Y020199D01*
X028737Y020165D01*
X028815Y020127D01*
X028892Y020086D01*
X028966Y020041D01*
X029039Y019993D01*
X029109Y019942D01*
X029177Y019887D01*
X029243Y019830D01*
X029305Y019770D01*
X029366Y019707D01*
X029423Y019641D01*
X029477Y019573D01*
X029528Y019503D01*
X029576Y019430D01*
X029621Y019355D01*
X029662Y019279D01*
X029700Y019200D01*
X029734Y019120D01*
X029764Y019039D01*
X029791Y018956D01*
X029814Y018872D01*
X029834Y018787D01*
X029849Y018701D01*
X029861Y018615D01*
X029869Y018528D01*
X029873Y018442D01*
X029873Y018354D01*
X029869Y018268D01*
X029861Y018181D01*
X029849Y018095D01*
X029834Y018009D01*
X029814Y017924D01*
X029791Y017840D01*
X029764Y017757D01*
X029734Y017676D01*
X029700Y017596D01*
X029662Y017517D01*
X029621Y017441D01*
X029576Y017366D01*
X029528Y017293D01*
X029477Y017223D01*
X029423Y017155D01*
X029366Y017089D01*
X029305Y017026D01*
X029243Y016966D01*
X029177Y016909D01*
X029109Y016854D01*
X029039Y016803D01*
X028966Y016755D01*
X028892Y016710D01*
X028815Y016669D01*
X028737Y016631D01*
X028657Y016597D01*
X028575Y016566D01*
X028492Y016539D01*
X028408Y016516D01*
X028324Y016496D01*
X028323Y016497D01*
X028408Y016517D01*
X028492Y016540D01*
X028575Y016567D01*
X028656Y016598D01*
X028736Y016632D01*
X028814Y016670D01*
X028891Y016711D01*
X028966Y016756D01*
X029038Y016804D01*
X029109Y016855D01*
X029176Y016909D01*
X029242Y016967D01*
X029305Y017027D01*
X029365Y017090D01*
X029422Y017155D01*
X029476Y017223D01*
X029527Y017294D01*
X029575Y017366D01*
X029620Y017441D01*
X029661Y017518D01*
X029699Y017596D01*
X029733Y017676D01*
X029763Y017758D01*
X029790Y017840D01*
X029813Y017924D01*
X029833Y018009D01*
X029848Y018095D01*
X029860Y018181D01*
X029868Y018268D01*
X029872Y018354D01*
X029872Y018442D01*
X029868Y018528D01*
X029860Y018615D01*
X029848Y018701D01*
X029833Y018787D01*
X029813Y018872D01*
X029790Y018956D01*
X029763Y019038D01*
X029733Y019120D01*
X029699Y019200D01*
X029661Y019278D01*
X029620Y019355D01*
X029575Y019430D01*
X029527Y019502D01*
X029476Y019573D01*
X029422Y019641D01*
X029365Y019706D01*
X029305Y019769D01*
X029242Y019829D01*
X029176Y019887D01*
X029109Y019941D01*
X029038Y019992D01*
X028966Y020040D01*
X028891Y020085D01*
X028814Y020126D01*
X028736Y020164D01*
X028656Y020198D01*
X028575Y020229D01*
X028492Y020256D01*
X028408Y020279D01*
X028323Y020299D01*
X028323Y020298D01*
X028408Y020278D01*
X028492Y020255D01*
X028574Y020228D01*
X028656Y020198D01*
X028736Y020163D01*
X028814Y020125D01*
X028891Y020084D01*
X028965Y020039D01*
X029038Y019991D01*
X029108Y019940D01*
X029176Y019886D01*
X029241Y019829D01*
X029304Y019769D01*
X029364Y019706D01*
X029421Y019640D01*
X029475Y019572D01*
X029526Y019502D01*
X029574Y019429D01*
X029619Y019354D01*
X029660Y019278D01*
X029698Y019199D01*
X029732Y019119D01*
X029762Y019038D01*
X029789Y018955D01*
X029812Y018871D01*
X029832Y018787D01*
X029847Y018701D01*
X029859Y018615D01*
X029867Y018528D01*
X029871Y018441D01*
X029871Y018355D01*
X029867Y018268D01*
X029859Y018181D01*
X029847Y018095D01*
X029832Y018009D01*
X029812Y017925D01*
X029789Y017841D01*
X029762Y017758D01*
X029732Y017677D01*
X029698Y017597D01*
X029660Y017518D01*
X029619Y017442D01*
X029574Y017367D01*
X029526Y017294D01*
X029475Y017224D01*
X029421Y017156D01*
X029364Y017090D01*
X029304Y017027D01*
X029241Y016967D01*
X029176Y016910D01*
X029108Y016856D01*
X029038Y016805D01*
X028965Y016757D01*
X028891Y016712D01*
X028814Y016671D01*
X028736Y016633D01*
X028656Y016598D01*
X028574Y016568D01*
X028492Y016541D01*
X028408Y016518D01*
X028323Y016498D01*
X028323Y016499D01*
X028408Y016519D01*
X028491Y016542D01*
X028574Y016569D01*
X028655Y016599D01*
X028735Y016634D01*
X028814Y016671D01*
X028890Y016713D01*
X028965Y016757D01*
X029037Y016805D01*
X029107Y016857D01*
X029175Y016911D01*
X029241Y016968D01*
X029303Y017028D01*
X029363Y017091D01*
X029420Y017157D01*
X029475Y017225D01*
X029526Y017295D01*
X029573Y017367D01*
X029618Y017442D01*
X029659Y017519D01*
X029697Y017597D01*
X029731Y017677D01*
X029761Y017758D01*
X029788Y017841D01*
X029811Y017925D01*
X029831Y018010D01*
X029846Y018095D01*
X029858Y018181D01*
X029866Y018268D01*
X029870Y018355D01*
X029870Y018441D01*
X029866Y018528D01*
X029858Y018615D01*
X029846Y018701D01*
X029831Y018786D01*
X029811Y018871D01*
X029788Y018955D01*
X029761Y019038D01*
X029731Y019119D01*
X029697Y019199D01*
X029659Y019277D01*
X029618Y019354D01*
X029573Y019429D01*
X029526Y019501D01*
X029475Y019571D01*
X029420Y019639D01*
X029363Y019705D01*
X029303Y019768D01*
X029241Y019828D01*
X029175Y019885D01*
X029107Y019939D01*
X029037Y019991D01*
X028965Y020039D01*
X028890Y020083D01*
X028814Y020125D01*
X028735Y020162D01*
X028655Y020197D01*
X028574Y020227D01*
X028491Y020254D01*
X028408Y020277D01*
X028323Y020297D01*
X028323Y020296D01*
X028408Y020277D01*
X028491Y020253D01*
X028574Y020226D01*
X028655Y020196D01*
X028735Y020161D01*
X028813Y020124D01*
X028890Y020082D01*
X028964Y020038D01*
X029036Y019990D01*
X029107Y019939D01*
X029175Y019884D01*
X029240Y019827D01*
X029303Y019767D01*
X029363Y019704D01*
X029420Y019639D01*
X029474Y019571D01*
X029525Y019501D01*
X029573Y019428D01*
X029617Y019353D01*
X029658Y019277D01*
X029696Y019199D01*
X029730Y019119D01*
X029761Y019037D01*
X029787Y018955D01*
X029810Y018871D01*
X029830Y018786D01*
X029845Y018701D01*
X029857Y018615D01*
X029865Y018528D01*
X029869Y018441D01*
X029869Y018355D01*
X029865Y018268D01*
X029857Y018181D01*
X029845Y018095D01*
X029830Y018010D01*
X029810Y017925D01*
X029787Y017841D01*
X029761Y017759D01*
X029730Y017677D01*
X029696Y017597D01*
X029658Y017519D01*
X029617Y017443D01*
X029573Y017368D01*
X029525Y017295D01*
X029474Y017225D01*
X029420Y017157D01*
X029363Y017092D01*
X029303Y017029D01*
X029240Y016969D01*
X029175Y016912D01*
X029107Y016857D01*
X029036Y016806D01*
X028964Y016758D01*
X028890Y016714D01*
X028813Y016672D01*
X028735Y016635D01*
X028655Y016600D01*
X028574Y016570D01*
X028491Y016543D01*
X028408Y016519D01*
X028323Y016500D01*
X028323Y016501D01*
X028407Y016520D01*
X028491Y016544D01*
X028573Y016571D01*
X028655Y016601D01*
X028734Y016636D01*
X028813Y016673D01*
X028889Y016715D01*
X028964Y016759D01*
X029036Y016807D01*
X029106Y016858D01*
X029174Y016912D01*
X029239Y016970D01*
X029302Y017030D01*
X029362Y017092D01*
X029419Y017158D01*
X029473Y017226D01*
X029524Y017296D01*
X029572Y017369D01*
X029616Y017443D01*
X029657Y017520D01*
X029695Y017598D01*
X029729Y017678D01*
X029760Y017759D01*
X029786Y017842D01*
X029809Y017925D01*
X029829Y018010D01*
X029844Y018095D01*
X029856Y018181D01*
X029864Y018268D01*
X029868Y018355D01*
X029868Y018441D01*
X029864Y018528D01*
X029856Y018615D01*
X029844Y018701D01*
X029829Y018786D01*
X029809Y018871D01*
X029786Y018954D01*
X029760Y019037D01*
X029729Y019118D01*
X029695Y019198D01*
X029657Y019276D01*
X029616Y019353D01*
X029572Y019427D01*
X029524Y019500D01*
X029473Y019570D01*
X029419Y019638D01*
X029362Y019704D01*
X029302Y019766D01*
X029239Y019826D01*
X029174Y019884D01*
X029106Y019938D01*
X029036Y019989D01*
X028964Y020037D01*
X028889Y020081D01*
X028813Y020123D01*
X028734Y020160D01*
X028655Y020195D01*
X028573Y020225D01*
X028491Y020252D01*
X028407Y020276D01*
X028323Y020295D01*
X028322Y020294D01*
X028407Y020275D01*
X028491Y020251D01*
X028573Y020224D01*
X028654Y020194D01*
X028734Y020160D01*
X028812Y020122D01*
X028889Y020081D01*
X028963Y020036D01*
X029035Y019988D01*
X029106Y019937D01*
X029173Y019883D01*
X029239Y019826D01*
X029301Y019766D01*
X029361Y019703D01*
X029418Y019638D01*
X029472Y019570D01*
X029523Y019499D01*
X029571Y019427D01*
X029615Y019352D01*
X029656Y019276D01*
X029694Y019198D01*
X029728Y019118D01*
X029759Y019037D01*
X029785Y018954D01*
X029808Y018870D01*
X029828Y018786D01*
X029843Y018700D01*
X029855Y018615D01*
X029863Y018528D01*
X029867Y018441D01*
X029867Y018355D01*
X029863Y018268D01*
X029855Y018181D01*
X029843Y018096D01*
X029828Y018010D01*
X029808Y017926D01*
X029785Y017842D01*
X029759Y017759D01*
X029728Y017678D01*
X029694Y017598D01*
X029656Y017520D01*
X029615Y017444D01*
X029571Y017369D01*
X029523Y017297D01*
X029472Y017226D01*
X029418Y017158D01*
X029361Y017093D01*
X029301Y017030D01*
X029239Y016970D01*
X029173Y016913D01*
X029106Y016859D01*
X029035Y016808D01*
X028963Y016760D01*
X028889Y016715D01*
X028812Y016674D01*
X028734Y016636D01*
X028654Y016602D01*
X028573Y016572D01*
X028491Y016545D01*
X028407Y016521D01*
X028322Y016502D01*
X028322Y016503D01*
X028407Y016522D01*
X028490Y016546D01*
X028573Y016573D01*
X028654Y016603D01*
X028734Y016637D01*
X028812Y016675D01*
X028888Y016716D01*
X028962Y016761D01*
X029035Y016809D01*
X029105Y016860D01*
X029173Y016914D01*
X029238Y016971D01*
X029301Y017031D01*
X029360Y017094D01*
X029417Y017159D01*
X029471Y017227D01*
X029522Y017297D01*
X029570Y017370D01*
X029615Y017444D01*
X029656Y017520D01*
X029693Y017599D01*
X029727Y017678D01*
X029758Y017760D01*
X029784Y017842D01*
X029807Y017926D01*
X029827Y018010D01*
X029842Y018096D01*
X029854Y018182D01*
X029862Y018268D01*
X029866Y018355D01*
X029866Y018441D01*
X029862Y018528D01*
X029854Y018614D01*
X029842Y018700D01*
X029827Y018786D01*
X029807Y018870D01*
X029784Y018954D01*
X029758Y019036D01*
X029727Y019118D01*
X029693Y019197D01*
X029656Y019276D01*
X029615Y019352D01*
X029570Y019426D01*
X029522Y019499D01*
X029471Y019569D01*
X029417Y019637D01*
X029360Y019702D01*
X029301Y019765D01*
X029238Y019825D01*
X029173Y019882D01*
X029105Y019936D01*
X029035Y019987D01*
X028962Y020035D01*
X028888Y020080D01*
X028812Y020121D01*
X028734Y020159D01*
X028654Y020193D01*
X028573Y020223D01*
X028490Y020250D01*
X028407Y020274D01*
X028322Y020293D01*
X028322Y020292D01*
X028407Y020273D01*
X028490Y020249D01*
X028572Y020223D01*
X028654Y020192D01*
X028733Y020158D01*
X028811Y020120D01*
X028888Y020079D01*
X028962Y020034D01*
X029034Y019986D01*
X029104Y019935D01*
X029172Y019881D01*
X029237Y019824D01*
X029300Y019764D01*
X029360Y019702D01*
X029417Y019636D01*
X029471Y019568D01*
X029522Y019498D01*
X029569Y019426D01*
X029614Y019351D01*
X029655Y019275D01*
X029692Y019197D01*
X029726Y019117D01*
X029757Y019036D01*
X029783Y018954D01*
X029807Y018870D01*
X029826Y018785D01*
X029841Y018700D01*
X029853Y018614D01*
X029861Y018528D01*
X029865Y018441D01*
X029865Y018355D01*
X029861Y018268D01*
X029853Y018182D01*
X029841Y018096D01*
X029826Y018011D01*
X029807Y017926D01*
X029783Y017842D01*
X029757Y017760D01*
X029726Y017679D01*
X029692Y017599D01*
X029655Y017521D01*
X029614Y017445D01*
X029569Y017370D01*
X029522Y017298D01*
X029471Y017228D01*
X029417Y017160D01*
X029360Y017094D01*
X029300Y017032D01*
X029237Y016972D01*
X029172Y016915D01*
X029104Y016861D01*
X029034Y016810D01*
X028962Y016762D01*
X028888Y016717D01*
X028811Y016676D01*
X028733Y016638D01*
X028654Y016604D01*
X028572Y016573D01*
X028490Y016547D01*
X028407Y016523D01*
X028322Y016504D01*
X028322Y016505D01*
X028406Y016524D01*
X028490Y016548D01*
X028572Y016574D01*
X028653Y016605D01*
X028733Y016639D01*
X028811Y016677D01*
X028887Y016718D01*
X028961Y016763D01*
X029034Y016810D01*
X029104Y016861D01*
X029171Y016915D01*
X029237Y016973D01*
X029299Y017032D01*
X029359Y017095D01*
X029416Y017160D01*
X029470Y017228D01*
X029521Y017298D01*
X029568Y017371D01*
X029613Y017445D01*
X029654Y017521D01*
X029691Y017599D01*
X029725Y017679D01*
X029756Y017760D01*
X029783Y017843D01*
X029806Y017926D01*
X029825Y018011D01*
X029840Y018096D01*
X029852Y018182D01*
X029860Y018268D01*
X029864Y018355D01*
X029864Y018441D01*
X029860Y018528D01*
X029852Y018614D01*
X029840Y018700D01*
X029825Y018785D01*
X029806Y018870D01*
X029783Y018953D01*
X029756Y019036D01*
X029725Y019117D01*
X029691Y019197D01*
X029654Y019275D01*
X029613Y019351D01*
X029568Y019425D01*
X029521Y019498D01*
X029470Y019568D01*
X029416Y019636D01*
X029359Y019701D01*
X029299Y019764D01*
X029237Y019823D01*
X029171Y019881D01*
X029104Y019935D01*
X029034Y019986D01*
X028961Y020033D01*
X028887Y020078D01*
X028811Y020119D01*
X028733Y020157D01*
X028653Y020191D01*
X028572Y020222D01*
X028490Y020248D01*
X028406Y020272D01*
X028322Y020291D01*
X028322Y020290D01*
X028406Y020271D01*
X028489Y020248D01*
X028572Y020221D01*
X028653Y020190D01*
X028732Y020156D01*
X028810Y020118D01*
X028887Y020077D01*
X028961Y020033D01*
X029033Y019985D01*
X029103Y019934D01*
X029171Y019880D01*
X029236Y019823D01*
X029298Y019763D01*
X029358Y019700D01*
X029415Y019635D01*
X029469Y019567D01*
X029520Y019497D01*
X029568Y019425D01*
X029612Y019350D01*
X029653Y019274D01*
X029690Y019196D01*
X029724Y019116D01*
X029755Y019035D01*
X029782Y018953D01*
X029805Y018870D01*
X029824Y018785D01*
X029839Y018700D01*
X029851Y018614D01*
X029859Y018528D01*
X029863Y018441D01*
X029863Y018355D01*
X029859Y018268D01*
X029851Y018182D01*
X029839Y018096D01*
X029824Y018011D01*
X029805Y017926D01*
X029782Y017843D01*
X029755Y017761D01*
X029724Y017680D01*
X029690Y017600D01*
X029653Y017522D01*
X029612Y017446D01*
X029568Y017371D01*
X029520Y017299D01*
X029469Y017229D01*
X029415Y017161D01*
X029358Y017096D01*
X029298Y017033D01*
X029236Y016973D01*
X029171Y016916D01*
X029103Y016862D01*
X029033Y016811D01*
X028961Y016763D01*
X028887Y016719D01*
X028810Y016678D01*
X028732Y016640D01*
X028653Y016606D01*
X028572Y016575D01*
X028489Y016548D01*
X028406Y016525D01*
X028322Y016506D01*
D39*
X024941Y017635D03*
X024941Y018680D03*
D40*
X020409Y018567D03*
X019829Y018567D03*
D41*
X039221Y033043D03*
X039221Y033043D03*
D42*
X039221Y030893D03*
X039221Y030893D03*
X038311Y030893D03*
X038311Y030893D03*
X040131Y030893D03*
X040131Y030893D03*
D43*
X041991Y031593D03*
X041451Y031973D03*
X041991Y032353D03*
D44*
X041401Y030668D03*
X042641Y030668D03*
D45*
X041801Y030668D03*
D46*
X039221Y034375D03*
X039221Y036565D03*
D47*
X041685Y029568D03*
M02*
