G75*
G70*
%OFA0B0*%
%FSLAX24Y24*%
%IPPOS*%
%LPD*%
%AMOC8*
5,1,8,0,0,1.08239X$1,22.5*
%
%ADD10C,0.0945*%
%ADD11C,0.0974*%
%ADD12C,0.0825*%
%ADD13C,0.1181*%
%ADD14R,0.0551X0.0709*%
%ADD15R,0.0709X0.0551*%
%ADD16R,0.0315X0.0315*%
%ADD17C,0.0310*%
%ADD18C,0.0120*%
%ADD19C,0.0100*%
%ADD20C,0.0357*%
%ADD21C,0.0060*%
%ADD22C,0.0320*%
%ADD23C,0.0500*%
%ADD24C,0.0240*%
%ADD25C,0.0160*%
D10*
X042631Y007448D03*
X048631Y007448D03*
X051681Y007508D03*
X057681Y007508D03*
D11*
X055200Y003668D03*
X053641Y003668D03*
X048500Y003668D03*
X046941Y003668D03*
X025900Y003668D03*
X024341Y003668D03*
D12*
X040121Y010068D03*
X040121Y011068D03*
X042321Y011068D03*
X042321Y010068D03*
X044521Y010068D03*
X044521Y011068D03*
X048821Y011068D03*
X048821Y010068D03*
X051021Y010068D03*
X051021Y011068D03*
X053221Y011068D03*
X053221Y010068D03*
D13*
X063267Y017289D03*
X058989Y018436D03*
X057842Y022714D03*
X065253Y024699D03*
X015000Y022714D03*
X007589Y024699D03*
X013853Y018436D03*
X009575Y017289D03*
D14*
X041352Y008768D03*
X042690Y008768D03*
X050452Y008768D03*
X051790Y008768D03*
D15*
X055321Y010998D03*
X055321Y012337D03*
X046321Y012337D03*
X046321Y010998D03*
D16*
X036716Y001268D03*
X036126Y001268D03*
D17*
X037421Y001268D03*
X038321Y004268D03*
X038321Y005268D03*
X034621Y007168D03*
X034621Y007668D03*
X027221Y013368D03*
X023821Y011168D03*
X022021Y010268D03*
X022021Y012568D03*
X021121Y012568D03*
X018321Y011968D03*
X016121Y009868D03*
X016121Y009068D03*
X016621Y006868D03*
X020921Y006868D03*
X021221Y014968D03*
X022221Y015368D03*
X022221Y015668D03*
X022621Y015668D03*
X022621Y015368D03*
X023821Y015768D03*
X023421Y016068D03*
X022821Y017068D03*
X024921Y019268D03*
X027221Y019568D03*
X027221Y020068D03*
X027221Y020668D03*
X028621Y020668D03*
X028621Y020068D03*
X028621Y019568D03*
X027721Y022668D03*
X019221Y018568D03*
X018821Y018568D03*
X017821Y015168D03*
X037221Y027468D03*
X038621Y027468D03*
X042721Y031568D03*
X046921Y010068D03*
X055921Y010068D03*
D18*
X037421Y001268D02*
X036716Y001268D01*
X036126Y001268D02*
X036126Y002963D01*
X036121Y002968D01*
X027221Y013368D02*
X024521Y016068D01*
X023421Y016068D01*
X023421Y016468D01*
X022821Y017068D01*
X016121Y009868D02*
X016121Y009068D01*
X037221Y027468D02*
X038621Y027468D01*
D19*
X016321Y008669D02*
X016321Y002568D01*
X039021Y002568D01*
X039021Y003858D01*
X038494Y003858D01*
X038409Y003823D01*
X038232Y003823D01*
X038069Y003890D01*
X037944Y004016D01*
X037876Y004179D01*
X037876Y004356D01*
X037944Y004520D01*
X038069Y004645D01*
X038232Y004713D01*
X038409Y004713D01*
X038494Y004678D01*
X039021Y004678D01*
X039021Y004858D01*
X038494Y004858D01*
X038409Y004823D01*
X038232Y004823D01*
X038069Y004890D01*
X037944Y005016D01*
X037876Y005179D01*
X037876Y005356D01*
X037944Y005520D01*
X038069Y005645D01*
X038232Y005713D01*
X038409Y005713D01*
X038494Y005678D01*
X039021Y005678D01*
X039021Y009268D01*
X040821Y009268D01*
X040821Y011668D01*
X041934Y011668D01*
X042181Y011770D01*
X042461Y011770D01*
X042708Y011668D01*
X044134Y011668D01*
X044381Y011770D01*
X044661Y011770D01*
X044908Y011668D01*
X048121Y011668D01*
X048121Y009268D01*
X049521Y009268D01*
X049521Y011668D01*
X050634Y011668D01*
X050881Y011770D01*
X051161Y011770D01*
X051408Y011668D01*
X052834Y011668D01*
X053081Y011770D01*
X053361Y011770D01*
X053608Y011668D01*
X056621Y011668D01*
X056621Y023968D01*
X066621Y023968D01*
X066621Y027568D01*
X060221Y027568D01*
X060221Y037768D01*
X057321Y037768D01*
X057321Y041068D01*
X015521Y041068D01*
X015521Y037668D01*
X012321Y037668D01*
X012321Y027168D01*
X006821Y027168D01*
X006821Y023768D01*
X016321Y023768D01*
X016321Y010266D01*
X016373Y010245D01*
X016498Y010120D01*
X016566Y009956D01*
X016566Y009779D01*
X016498Y009616D01*
X016471Y009588D01*
X016471Y009347D01*
X016498Y009320D01*
X016566Y009156D01*
X016566Y008979D01*
X016498Y008816D01*
X016373Y008690D01*
X016321Y008669D01*
X016331Y008673D02*
X039021Y008673D01*
X039021Y008574D02*
X016321Y008574D01*
X016321Y008476D02*
X039021Y008476D01*
X039021Y008377D02*
X016321Y008377D01*
X016321Y008279D02*
X039021Y008279D01*
X039021Y008180D02*
X016321Y008180D01*
X016321Y008082D02*
X039021Y008082D01*
X039021Y007983D02*
X016321Y007983D01*
X016321Y007885D02*
X039021Y007885D01*
X039021Y007786D02*
X016321Y007786D01*
X016321Y007688D02*
X039021Y007688D01*
X039021Y007589D02*
X016321Y007589D01*
X016321Y007491D02*
X039021Y007491D01*
X039021Y007392D02*
X016321Y007392D01*
X016321Y007293D02*
X039021Y007293D01*
X039021Y007195D02*
X016321Y007195D01*
X016321Y007096D02*
X039021Y007096D01*
X039021Y006998D02*
X016321Y006998D01*
X016321Y006899D02*
X039021Y006899D01*
X039021Y006801D02*
X016321Y006801D01*
X016321Y006702D02*
X039021Y006702D01*
X039021Y006604D02*
X016321Y006604D01*
X016321Y006505D02*
X039021Y006505D01*
X039021Y006407D02*
X016321Y006407D01*
X016321Y006308D02*
X039021Y006308D01*
X039021Y006209D02*
X016321Y006209D01*
X016321Y006111D02*
X039021Y006111D01*
X039021Y006012D02*
X016321Y006012D01*
X016321Y005914D02*
X039021Y005914D01*
X039021Y005815D02*
X016321Y005815D01*
X016321Y005717D02*
X039021Y005717D01*
X038042Y005618D02*
X016321Y005618D01*
X016321Y005520D02*
X037944Y005520D01*
X037903Y005421D02*
X016321Y005421D01*
X016321Y005323D02*
X037876Y005323D01*
X037876Y005224D02*
X016321Y005224D01*
X016321Y005125D02*
X037898Y005125D01*
X037939Y005027D02*
X016321Y005027D01*
X016321Y004928D02*
X038031Y004928D01*
X038215Y004830D02*
X016321Y004830D01*
X016321Y004731D02*
X039021Y004731D01*
X039021Y004830D02*
X038427Y004830D01*
X038057Y004633D02*
X016321Y004633D01*
X016321Y004534D02*
X037958Y004534D01*
X037909Y004436D02*
X026077Y004436D01*
X026055Y004445D02*
X025746Y004445D01*
X025460Y004327D01*
X025242Y004108D01*
X025123Y003822D01*
X025123Y003513D01*
X025242Y003227D01*
X025460Y003009D01*
X025746Y002891D01*
X026055Y002891D01*
X026341Y003009D01*
X026559Y003227D01*
X026678Y003513D01*
X026678Y003822D01*
X026559Y004108D01*
X026341Y004327D01*
X026055Y004445D01*
X026315Y004337D02*
X037876Y004337D01*
X037876Y004239D02*
X026429Y004239D01*
X026527Y004140D02*
X037892Y004140D01*
X037933Y004041D02*
X026587Y004041D01*
X026628Y003943D02*
X038016Y003943D01*
X038180Y003844D02*
X026669Y003844D01*
X026678Y003746D02*
X039021Y003746D01*
X039021Y003844D02*
X038462Y003844D01*
X039021Y003647D02*
X026678Y003647D01*
X026678Y003549D02*
X039021Y003549D01*
X039021Y003450D02*
X026652Y003450D01*
X026611Y003352D02*
X039021Y003352D01*
X039021Y003253D02*
X026570Y003253D01*
X026486Y003155D02*
X039021Y003155D01*
X039021Y003056D02*
X026388Y003056D01*
X026217Y002958D02*
X039021Y002958D01*
X039021Y002859D02*
X016321Y002859D01*
X016321Y002958D02*
X025584Y002958D01*
X025413Y003056D02*
X016321Y003056D01*
X016321Y003155D02*
X025314Y003155D01*
X025231Y003253D02*
X016321Y003253D01*
X016321Y003352D02*
X025190Y003352D01*
X025149Y003450D02*
X016321Y003450D01*
X016321Y003549D02*
X025123Y003549D01*
X025123Y003647D02*
X016321Y003647D01*
X016321Y003746D02*
X025123Y003746D01*
X025132Y003844D02*
X016321Y003844D01*
X016321Y003943D02*
X025173Y003943D01*
X025214Y004041D02*
X016321Y004041D01*
X016321Y004140D02*
X025274Y004140D01*
X025372Y004239D02*
X016321Y004239D01*
X016321Y004337D02*
X025486Y004337D01*
X025724Y004436D02*
X016321Y004436D01*
X016321Y002760D02*
X039021Y002760D01*
X039021Y002662D02*
X016321Y002662D01*
X023521Y002662D02*
X025021Y002662D01*
X025021Y002568D02*
X023521Y002568D01*
X023521Y005068D01*
X025021Y005068D01*
X025021Y002568D01*
X025021Y002760D02*
X023521Y002760D01*
X023521Y002859D02*
X025021Y002859D01*
X025021Y002958D02*
X023521Y002958D01*
X023521Y003056D02*
X025021Y003056D01*
X025021Y003155D02*
X023521Y003155D01*
X023521Y003253D02*
X025021Y003253D01*
X025021Y003352D02*
X023521Y003352D01*
X023521Y003450D02*
X025021Y003450D01*
X025021Y003549D02*
X023521Y003549D01*
X023521Y003647D02*
X025021Y003647D01*
X025021Y003746D02*
X023521Y003746D01*
X023521Y003844D02*
X025021Y003844D01*
X025021Y003943D02*
X023521Y003943D01*
X023521Y004041D02*
X025021Y004041D01*
X025021Y004140D02*
X023521Y004140D01*
X023521Y004239D02*
X025021Y004239D01*
X025021Y004337D02*
X023521Y004337D01*
X023521Y004436D02*
X025021Y004436D01*
X025021Y004534D02*
X023521Y004534D01*
X023521Y004633D02*
X025021Y004633D01*
X025021Y004731D02*
X023521Y004731D01*
X023521Y004830D02*
X025021Y004830D01*
X025021Y004928D02*
X023521Y004928D01*
X023521Y005027D02*
X025021Y005027D01*
X016521Y008870D02*
X039021Y008870D01*
X039021Y008772D02*
X016454Y008772D01*
X016562Y008969D02*
X039021Y008969D01*
X039021Y009067D02*
X016566Y009067D01*
X016562Y009166D02*
X039021Y009166D01*
X039021Y009264D02*
X016521Y009264D01*
X016471Y009363D02*
X040821Y009363D01*
X040821Y009461D02*
X016471Y009461D01*
X016471Y009560D02*
X040821Y009560D01*
X040821Y009658D02*
X016516Y009658D01*
X016557Y009757D02*
X040821Y009757D01*
X040821Y009856D02*
X016566Y009856D01*
X016566Y009954D02*
X040821Y009954D01*
X040821Y010053D02*
X016526Y010053D01*
X016467Y010151D02*
X040821Y010151D01*
X040821Y010250D02*
X016361Y010250D01*
X016321Y010348D02*
X040821Y010348D01*
X040821Y010447D02*
X016321Y010447D01*
X016321Y010545D02*
X040821Y010545D01*
X040821Y010644D02*
X016321Y010644D01*
X016321Y010742D02*
X040821Y010742D01*
X040821Y010841D02*
X016321Y010841D01*
X016321Y010940D02*
X040821Y010940D01*
X040821Y011038D02*
X016321Y011038D01*
X016321Y011137D02*
X040821Y011137D01*
X040821Y011235D02*
X016321Y011235D01*
X016321Y011334D02*
X040821Y011334D01*
X040821Y011432D02*
X016321Y011432D01*
X016321Y011531D02*
X040821Y011531D01*
X040821Y011629D02*
X016321Y011629D01*
X016321Y011728D02*
X042079Y011728D01*
X042563Y011728D02*
X044279Y011728D01*
X044763Y011728D02*
X050779Y011728D01*
X051263Y011728D02*
X052979Y011728D01*
X053463Y011728D02*
X056621Y011728D01*
X056621Y011826D02*
X016321Y011826D01*
X016321Y011925D02*
X056621Y011925D01*
X056621Y012024D02*
X016321Y012024D01*
X016321Y012122D02*
X056621Y012122D01*
X056621Y012221D02*
X016321Y012221D01*
X016321Y012319D02*
X056621Y012319D01*
X056621Y012418D02*
X016321Y012418D01*
X016321Y012516D02*
X056621Y012516D01*
X056621Y012615D02*
X016321Y012615D01*
X016321Y012713D02*
X056621Y012713D01*
X056621Y012812D02*
X016321Y012812D01*
X016321Y012910D02*
X056621Y012910D01*
X056621Y013009D02*
X027491Y013009D01*
X027473Y012990D02*
X027598Y013116D01*
X027666Y013279D01*
X027666Y013456D01*
X027598Y013620D01*
X027473Y013745D01*
X027309Y013813D01*
X027271Y013813D01*
X024666Y016418D01*
X024376Y016418D01*
X023771Y016418D01*
X023771Y016613D01*
X023566Y016818D01*
X023266Y017118D01*
X023266Y017156D01*
X023198Y017320D01*
X023073Y017445D01*
X022909Y017513D01*
X022732Y017513D01*
X022569Y017445D01*
X022444Y017320D01*
X022376Y017156D01*
X022376Y016979D01*
X022444Y016816D01*
X022569Y016690D01*
X022732Y016623D01*
X022771Y016623D01*
X023059Y016335D01*
X023044Y016320D01*
X022976Y016156D01*
X022976Y015979D01*
X023044Y015816D01*
X023169Y015690D01*
X023332Y015623D01*
X023509Y015623D01*
X023673Y015690D01*
X023700Y015718D01*
X024376Y015718D01*
X026776Y013318D01*
X026776Y013279D01*
X026844Y013116D01*
X026969Y012990D01*
X027132Y012923D01*
X027309Y012923D01*
X027473Y012990D01*
X027590Y013107D02*
X056621Y013107D01*
X056621Y013206D02*
X027636Y013206D01*
X027666Y013305D02*
X056621Y013305D01*
X056621Y013403D02*
X027666Y013403D01*
X027647Y013502D02*
X056621Y013502D01*
X056621Y013600D02*
X027606Y013600D01*
X027519Y013699D02*
X056621Y013699D01*
X056621Y013797D02*
X027347Y013797D01*
X027188Y013896D02*
X056621Y013896D01*
X056621Y013994D02*
X027089Y013994D01*
X026991Y014093D02*
X056621Y014093D01*
X056621Y014191D02*
X026892Y014191D01*
X026794Y014290D02*
X056621Y014290D01*
X056621Y014389D02*
X026695Y014389D01*
X026596Y014487D02*
X056621Y014487D01*
X056621Y014586D02*
X026498Y014586D01*
X026399Y014684D02*
X056621Y014684D01*
X056621Y014783D02*
X026301Y014783D01*
X026202Y014881D02*
X056621Y014881D01*
X056621Y014980D02*
X026104Y014980D01*
X026005Y015078D02*
X056621Y015078D01*
X056621Y015177D02*
X025907Y015177D01*
X025808Y015275D02*
X056621Y015275D01*
X056621Y015374D02*
X025710Y015374D01*
X025611Y015473D02*
X056621Y015473D01*
X056621Y015571D02*
X025512Y015571D01*
X025414Y015670D02*
X056621Y015670D01*
X056621Y015768D02*
X025315Y015768D01*
X025217Y015867D02*
X056621Y015867D01*
X056621Y015965D02*
X025118Y015965D01*
X025020Y016064D02*
X056621Y016064D01*
X056621Y016162D02*
X024921Y016162D01*
X024823Y016261D02*
X056621Y016261D01*
X056621Y016359D02*
X024724Y016359D01*
X023771Y016458D02*
X056621Y016458D01*
X056621Y016556D02*
X023771Y016556D01*
X023729Y016655D02*
X056621Y016655D01*
X056621Y016754D02*
X023630Y016754D01*
X023531Y016852D02*
X041751Y016852D01*
X041653Y016877D02*
X041855Y016826D01*
X042061Y016793D01*
X042269Y016778D01*
X042477Y016783D01*
X042684Y016807D01*
X042888Y016849D01*
X043088Y016910D01*
X043281Y016989D01*
X043466Y017085D01*
X043642Y017197D01*
X043806Y017325D01*
X043959Y017467D01*
X044097Y017623D01*
X044221Y017790D01*
X044330Y017968D01*
X044421Y018155D01*
X044496Y018350D01*
X044552Y018551D01*
X044590Y018756D01*
X044609Y018963D01*
X044609Y019172D01*
X044590Y019380D01*
X044552Y019585D01*
X044496Y019785D01*
X044421Y019980D01*
X044330Y020167D01*
X044221Y020345D01*
X044097Y020513D01*
X043959Y020668D01*
X043806Y020811D01*
X043642Y020939D01*
X043466Y021051D01*
X043281Y021147D01*
X043088Y021225D01*
X042888Y021286D01*
X042684Y021329D01*
X042477Y021352D01*
X042269Y021357D01*
X042061Y021343D01*
X041855Y021310D01*
X041653Y021258D01*
X041457Y021188D01*
X041267Y021101D01*
X041087Y020997D01*
X040917Y020876D01*
X040758Y020741D01*
X040612Y020592D01*
X040481Y020431D01*
X040364Y020258D01*
X040264Y020075D01*
X040181Y019884D01*
X040116Y019686D01*
X040069Y019482D01*
X040040Y019276D01*
X040031Y019068D01*
X040040Y018859D01*
X040069Y018653D01*
X040116Y018450D01*
X040181Y018252D01*
X040264Y018061D01*
X040364Y017878D01*
X040481Y017705D01*
X040612Y017543D01*
X040758Y017394D01*
X040917Y017259D01*
X041087Y017139D01*
X041267Y017034D01*
X041457Y016947D01*
X041653Y016877D01*
X041449Y016951D02*
X023433Y016951D01*
X023334Y017049D02*
X041242Y017049D01*
X041074Y017148D02*
X023266Y017148D01*
X023229Y017246D02*
X040934Y017246D01*
X040816Y017345D02*
X023173Y017345D01*
X023075Y017443D02*
X040710Y017443D01*
X040613Y017542D02*
X016321Y017542D01*
X016321Y017640D02*
X040533Y017640D01*
X040458Y017739D02*
X016321Y017739D01*
X016321Y017838D02*
X040391Y017838D01*
X040332Y017936D02*
X016321Y017936D01*
X016321Y018035D02*
X040278Y018035D01*
X040233Y018133D02*
X016321Y018133D01*
X016321Y018232D02*
X040190Y018232D01*
X040155Y018330D02*
X016321Y018330D01*
X016321Y018429D02*
X040123Y018429D01*
X040098Y018527D02*
X016321Y018527D01*
X016321Y018626D02*
X040075Y018626D01*
X040059Y018724D02*
X016321Y018724D01*
X016321Y018823D02*
X040045Y018823D01*
X040038Y018922D02*
X016321Y018922D01*
X016321Y019020D02*
X040033Y019020D01*
X040033Y019119D02*
X016321Y019119D01*
X016321Y019217D02*
X040038Y019217D01*
X040046Y019316D02*
X016321Y019316D01*
X016321Y019414D02*
X040059Y019414D01*
X040076Y019513D02*
X016321Y019513D01*
X016321Y019611D02*
X040099Y019611D01*
X040124Y019710D02*
X016321Y019710D01*
X016321Y019808D02*
X040156Y019808D01*
X040191Y019907D02*
X016321Y019907D01*
X016321Y020006D02*
X040234Y020006D01*
X040280Y020104D02*
X016321Y020104D01*
X016321Y020203D02*
X040334Y020203D01*
X040394Y020301D02*
X016321Y020301D01*
X016321Y020400D02*
X040460Y020400D01*
X040536Y020498D02*
X016321Y020498D01*
X016321Y020597D02*
X040617Y020597D01*
X040713Y020695D02*
X016321Y020695D01*
X016321Y020794D02*
X040820Y020794D01*
X040939Y020892D02*
X016321Y020892D01*
X016321Y020991D02*
X041079Y020991D01*
X041248Y021089D02*
X016321Y021089D01*
X016321Y021188D02*
X041456Y021188D01*
X041764Y021287D02*
X016321Y021287D01*
X016321Y021385D02*
X056621Y021385D01*
X056621Y021287D02*
X051587Y021287D01*
X051588Y021286D02*
X051384Y021329D01*
X051177Y021352D01*
X050969Y021357D01*
X050761Y021343D01*
X050555Y021310D01*
X050353Y021258D01*
X050157Y021188D01*
X049967Y021101D01*
X049787Y020997D01*
X049617Y020876D01*
X049458Y020741D01*
X049312Y020592D01*
X049181Y020431D01*
X049064Y020258D01*
X048964Y020075D01*
X048881Y019884D01*
X048816Y019686D01*
X048769Y019482D01*
X048740Y019276D01*
X048731Y019068D01*
X048740Y018859D01*
X048769Y018653D01*
X048816Y018450D01*
X048881Y018252D01*
X048964Y018061D01*
X049064Y017878D01*
X049181Y017705D01*
X049312Y017543D01*
X049458Y017394D01*
X049617Y017259D01*
X049787Y017139D01*
X049967Y017034D01*
X050157Y016947D01*
X050353Y016877D01*
X050555Y016826D01*
X050761Y016793D01*
X050969Y016778D01*
X051177Y016783D01*
X051384Y016807D01*
X051588Y016849D01*
X051788Y016910D01*
X051981Y016989D01*
X052166Y017085D01*
X052342Y017197D01*
X052506Y017325D01*
X052659Y017467D01*
X052797Y017623D01*
X052921Y017790D01*
X053030Y017968D01*
X053121Y018155D01*
X053196Y018350D01*
X053252Y018551D01*
X053290Y018756D01*
X053309Y018963D01*
X053309Y019172D01*
X053290Y019380D01*
X053252Y019585D01*
X053196Y019785D01*
X053121Y019980D01*
X053030Y020167D01*
X052921Y020345D01*
X052797Y020513D01*
X052659Y020668D01*
X052506Y020811D01*
X052342Y020939D01*
X052166Y021051D01*
X051981Y021147D01*
X051788Y021225D01*
X051588Y021286D01*
X051880Y021188D02*
X056621Y021188D01*
X056621Y021089D02*
X052091Y021089D01*
X052260Y020991D02*
X056621Y020991D01*
X056621Y020892D02*
X052401Y020892D01*
X052524Y020794D02*
X056621Y020794D01*
X056621Y020695D02*
X052630Y020695D01*
X052722Y020597D02*
X056621Y020597D01*
X056621Y020498D02*
X052808Y020498D01*
X052881Y020400D02*
X056621Y020400D01*
X056621Y020301D02*
X052948Y020301D01*
X053008Y020203D02*
X056621Y020203D01*
X056621Y020104D02*
X053061Y020104D01*
X053109Y020006D02*
X056621Y020006D01*
X056621Y019907D02*
X053149Y019907D01*
X053187Y019808D02*
X056621Y019808D01*
X056621Y019710D02*
X053217Y019710D01*
X053244Y019611D02*
X056621Y019611D01*
X056621Y019513D02*
X053265Y019513D01*
X053283Y019414D02*
X056621Y019414D01*
X056621Y019316D02*
X053295Y019316D01*
X053304Y019217D02*
X056621Y019217D01*
X056621Y019119D02*
X053309Y019119D01*
X053309Y019020D02*
X056621Y019020D01*
X056621Y018922D02*
X053305Y018922D01*
X053296Y018823D02*
X056621Y018823D01*
X056621Y018724D02*
X053284Y018724D01*
X053266Y018626D02*
X056621Y018626D01*
X056621Y018527D02*
X053245Y018527D01*
X053218Y018429D02*
X056621Y018429D01*
X056621Y018330D02*
X053188Y018330D01*
X053150Y018232D02*
X056621Y018232D01*
X056621Y018133D02*
X053110Y018133D01*
X053062Y018035D02*
X056621Y018035D01*
X056621Y017936D02*
X053010Y017936D01*
X052950Y017838D02*
X056621Y017838D01*
X056621Y017739D02*
X052884Y017739D01*
X052811Y017640D02*
X056621Y017640D01*
X056621Y017542D02*
X052725Y017542D01*
X052633Y017443D02*
X056621Y017443D01*
X056621Y017345D02*
X052528Y017345D01*
X052405Y017246D02*
X056621Y017246D01*
X056621Y017148D02*
X052265Y017148D01*
X052098Y017049D02*
X056621Y017049D01*
X056621Y016951D02*
X051888Y016951D01*
X051598Y016852D02*
X056621Y016852D01*
X050451Y016852D02*
X042898Y016852D01*
X043188Y016951D02*
X050149Y016951D01*
X049942Y017049D02*
X043398Y017049D01*
X043565Y017148D02*
X049774Y017148D01*
X049634Y017246D02*
X043705Y017246D01*
X043828Y017345D02*
X049516Y017345D01*
X049410Y017443D02*
X043933Y017443D01*
X044025Y017542D02*
X049313Y017542D01*
X049233Y017640D02*
X044111Y017640D01*
X044184Y017739D02*
X049158Y017739D01*
X049091Y017838D02*
X044250Y017838D01*
X044310Y017936D02*
X049032Y017936D01*
X048978Y018035D02*
X044362Y018035D01*
X044410Y018133D02*
X048933Y018133D01*
X048890Y018232D02*
X044450Y018232D01*
X044488Y018330D02*
X048855Y018330D01*
X048823Y018429D02*
X044518Y018429D01*
X044545Y018527D02*
X048798Y018527D01*
X048775Y018626D02*
X044566Y018626D01*
X044584Y018724D02*
X048759Y018724D01*
X048745Y018823D02*
X044596Y018823D01*
X044605Y018922D02*
X048738Y018922D01*
X048733Y019020D02*
X044609Y019020D01*
X044609Y019119D02*
X048733Y019119D01*
X048738Y019217D02*
X044604Y019217D01*
X044595Y019316D02*
X048746Y019316D01*
X048759Y019414D02*
X044583Y019414D01*
X044565Y019513D02*
X048776Y019513D01*
X048799Y019611D02*
X044544Y019611D01*
X044517Y019710D02*
X048824Y019710D01*
X048856Y019808D02*
X044487Y019808D01*
X044449Y019907D02*
X048891Y019907D01*
X048934Y020006D02*
X044409Y020006D01*
X044361Y020104D02*
X048980Y020104D01*
X049034Y020203D02*
X044308Y020203D01*
X044248Y020301D02*
X049094Y020301D01*
X049160Y020400D02*
X044181Y020400D01*
X044108Y020498D02*
X049236Y020498D01*
X049317Y020597D02*
X044022Y020597D01*
X043930Y020695D02*
X049413Y020695D01*
X049520Y020794D02*
X043824Y020794D01*
X043701Y020892D02*
X049639Y020892D01*
X049779Y020991D02*
X043560Y020991D01*
X043391Y021089D02*
X049948Y021089D01*
X050156Y021188D02*
X043180Y021188D01*
X042887Y021287D02*
X050464Y021287D01*
X056621Y021484D02*
X016321Y021484D01*
X016321Y021582D02*
X056621Y021582D01*
X056621Y021681D02*
X016321Y021681D01*
X016321Y021779D02*
X056621Y021779D01*
X056621Y021878D02*
X016321Y021878D01*
X016321Y021976D02*
X056621Y021976D01*
X056621Y022075D02*
X016321Y022075D01*
X016321Y022173D02*
X056621Y022173D01*
X056621Y022272D02*
X016321Y022272D01*
X016321Y022371D02*
X056621Y022371D01*
X056621Y022469D02*
X016321Y022469D01*
X016321Y022568D02*
X056621Y022568D01*
X056621Y022666D02*
X016321Y022666D01*
X016321Y022765D02*
X056621Y022765D01*
X056621Y022863D02*
X016321Y022863D01*
X016321Y022962D02*
X056621Y022962D01*
X056621Y023060D02*
X016321Y023060D01*
X016321Y023159D02*
X056621Y023159D01*
X056621Y023257D02*
X016321Y023257D01*
X016321Y023356D02*
X056621Y023356D01*
X056621Y023455D02*
X016321Y023455D01*
X016321Y023553D02*
X056621Y023553D01*
X056621Y023652D02*
X016321Y023652D01*
X016321Y023750D02*
X056621Y023750D01*
X056621Y023849D02*
X006821Y023849D01*
X006821Y023947D02*
X056621Y023947D01*
X060221Y027593D02*
X039051Y027593D01*
X039066Y027556D02*
X038998Y027720D01*
X038873Y027845D01*
X038709Y027913D01*
X038532Y027913D01*
X038369Y027845D01*
X038342Y027818D01*
X037500Y027818D01*
X037473Y027845D01*
X037309Y027913D01*
X037132Y027913D01*
X036969Y027845D01*
X036844Y027720D01*
X036776Y027556D01*
X036776Y027379D01*
X036844Y027216D01*
X036969Y027090D01*
X037132Y027023D01*
X037309Y027023D01*
X037473Y027090D01*
X037500Y027118D01*
X038342Y027118D01*
X038369Y027090D01*
X038532Y027023D01*
X038709Y027023D01*
X038873Y027090D01*
X038998Y027216D01*
X039066Y027379D01*
X039066Y027556D01*
X039066Y027495D02*
X066621Y027495D01*
X066621Y027396D02*
X039066Y027396D01*
X039032Y027298D02*
X066621Y027298D01*
X066621Y027199D02*
X038982Y027199D01*
X038883Y027101D02*
X066621Y027101D01*
X066621Y027002D02*
X006821Y027002D01*
X006821Y026904D02*
X066621Y026904D01*
X066621Y026805D02*
X006821Y026805D01*
X006821Y026706D02*
X066621Y026706D01*
X066621Y026608D02*
X006821Y026608D01*
X006821Y026509D02*
X066621Y026509D01*
X066621Y026411D02*
X006821Y026411D01*
X006821Y026312D02*
X066621Y026312D01*
X066621Y026214D02*
X006821Y026214D01*
X006821Y026115D02*
X066621Y026115D01*
X066621Y026017D02*
X006821Y026017D01*
X006821Y025918D02*
X066621Y025918D01*
X066621Y025820D02*
X006821Y025820D01*
X006821Y025721D02*
X066621Y025721D01*
X066621Y025622D02*
X006821Y025622D01*
X006821Y025524D02*
X066621Y025524D01*
X066621Y025425D02*
X006821Y025425D01*
X006821Y025327D02*
X066621Y025327D01*
X066621Y025228D02*
X006821Y025228D01*
X006821Y025130D02*
X066621Y025130D01*
X066621Y025031D02*
X006821Y025031D01*
X006821Y024933D02*
X066621Y024933D01*
X066621Y024834D02*
X006821Y024834D01*
X006821Y024736D02*
X066621Y024736D01*
X066621Y024637D02*
X006821Y024637D01*
X006821Y024539D02*
X066621Y024539D01*
X066621Y024440D02*
X006821Y024440D01*
X006821Y024341D02*
X066621Y024341D01*
X066621Y024243D02*
X006821Y024243D01*
X006821Y024144D02*
X066621Y024144D01*
X066621Y024046D02*
X006821Y024046D01*
X006821Y027101D02*
X036959Y027101D01*
X036860Y027199D02*
X012321Y027199D01*
X012321Y027298D02*
X036810Y027298D01*
X036776Y027396D02*
X012321Y027396D01*
X012321Y027495D02*
X036776Y027495D01*
X036791Y027593D02*
X012321Y027593D01*
X012321Y027692D02*
X036832Y027692D01*
X036914Y027790D02*
X012321Y027790D01*
X012321Y027889D02*
X037075Y027889D01*
X037367Y027889D02*
X038475Y027889D01*
X038767Y027889D02*
X060221Y027889D01*
X060221Y027988D02*
X012321Y027988D01*
X012321Y028086D02*
X060221Y028086D01*
X060221Y028185D02*
X012321Y028185D01*
X012321Y028283D02*
X060221Y028283D01*
X060221Y028382D02*
X012321Y028382D01*
X012321Y028480D02*
X060221Y028480D01*
X060221Y028579D02*
X012321Y028579D01*
X012321Y028677D02*
X060221Y028677D01*
X060221Y028776D02*
X012321Y028776D01*
X012321Y028874D02*
X060221Y028874D01*
X060221Y028973D02*
X012321Y028973D01*
X012321Y029071D02*
X060221Y029071D01*
X060221Y029170D02*
X012321Y029170D01*
X012321Y029269D02*
X060221Y029269D01*
X060221Y029367D02*
X012321Y029367D01*
X012321Y029466D02*
X060221Y029466D01*
X060221Y029564D02*
X012321Y029564D01*
X012321Y029663D02*
X060221Y029663D01*
X060221Y029761D02*
X012321Y029761D01*
X012321Y029860D02*
X060221Y029860D01*
X060221Y029958D02*
X012321Y029958D01*
X012321Y030057D02*
X060221Y030057D01*
X060221Y030155D02*
X012321Y030155D01*
X012321Y030254D02*
X060221Y030254D01*
X060221Y030353D02*
X012321Y030353D01*
X012321Y030451D02*
X060221Y030451D01*
X060221Y030550D02*
X012321Y030550D01*
X012321Y030648D02*
X060221Y030648D01*
X060221Y030747D02*
X012321Y030747D01*
X012321Y030845D02*
X060221Y030845D01*
X060221Y030944D02*
X012321Y030944D01*
X012321Y031042D02*
X060221Y031042D01*
X060221Y031141D02*
X012321Y031141D01*
X012321Y031239D02*
X060221Y031239D01*
X060221Y031338D02*
X012321Y031338D01*
X012321Y031437D02*
X060221Y031437D01*
X060221Y031535D02*
X012321Y031535D01*
X012321Y031634D02*
X060221Y031634D01*
X060221Y031732D02*
X012321Y031732D01*
X012321Y031831D02*
X060221Y031831D01*
X060221Y031929D02*
X012321Y031929D01*
X012321Y032028D02*
X060221Y032028D01*
X060221Y032126D02*
X012321Y032126D01*
X012321Y032225D02*
X060221Y032225D01*
X060221Y032323D02*
X012321Y032323D01*
X012321Y032422D02*
X060221Y032422D01*
X060221Y032521D02*
X012321Y032521D01*
X012321Y032619D02*
X060221Y032619D01*
X060221Y032718D02*
X012321Y032718D01*
X012321Y032816D02*
X060221Y032816D01*
X060221Y032915D02*
X012321Y032915D01*
X012321Y033013D02*
X060221Y033013D01*
X060221Y033112D02*
X012321Y033112D01*
X012321Y033210D02*
X060221Y033210D01*
X060221Y033309D02*
X012321Y033309D01*
X012321Y033407D02*
X060221Y033407D01*
X060221Y033506D02*
X012321Y033506D01*
X012321Y033604D02*
X060221Y033604D01*
X060221Y033703D02*
X012321Y033703D01*
X012321Y033802D02*
X060221Y033802D01*
X060221Y033900D02*
X012321Y033900D01*
X012321Y033999D02*
X060221Y033999D01*
X060221Y034097D02*
X012321Y034097D01*
X012321Y034196D02*
X060221Y034196D01*
X060221Y034294D02*
X012321Y034294D01*
X012321Y034393D02*
X060221Y034393D01*
X060221Y034491D02*
X012321Y034491D01*
X012321Y034590D02*
X060221Y034590D01*
X060221Y034688D02*
X012321Y034688D01*
X012321Y034787D02*
X060221Y034787D01*
X060221Y034886D02*
X012321Y034886D01*
X012321Y034984D02*
X060221Y034984D01*
X060221Y035083D02*
X012321Y035083D01*
X012321Y035181D02*
X060221Y035181D01*
X060221Y035280D02*
X012321Y035280D01*
X012321Y035378D02*
X060221Y035378D01*
X060221Y035477D02*
X012321Y035477D01*
X012321Y035575D02*
X060221Y035575D01*
X060221Y035674D02*
X012321Y035674D01*
X012321Y035772D02*
X060221Y035772D01*
X060221Y035871D02*
X012321Y035871D01*
X012321Y035970D02*
X060221Y035970D01*
X060221Y036068D02*
X012321Y036068D01*
X012321Y036167D02*
X060221Y036167D01*
X060221Y036265D02*
X012321Y036265D01*
X012321Y036364D02*
X060221Y036364D01*
X060221Y036462D02*
X012321Y036462D01*
X012321Y036561D02*
X060221Y036561D01*
X060221Y036659D02*
X012321Y036659D01*
X012321Y036758D02*
X060221Y036758D01*
X060221Y036856D02*
X012321Y036856D01*
X012321Y036955D02*
X060221Y036955D01*
X060221Y037054D02*
X012321Y037054D01*
X012321Y037152D02*
X060221Y037152D01*
X060221Y037251D02*
X012321Y037251D01*
X012321Y037349D02*
X060221Y037349D01*
X060221Y037448D02*
X012321Y037448D01*
X012321Y037546D02*
X060221Y037546D01*
X060221Y037645D02*
X012321Y037645D01*
X015521Y037743D02*
X060221Y037743D01*
X057321Y037842D02*
X015521Y037842D01*
X015521Y037940D02*
X057321Y037940D01*
X057321Y038039D02*
X015521Y038039D01*
X015521Y038137D02*
X057321Y038137D01*
X057321Y038236D02*
X015521Y038236D01*
X015521Y038335D02*
X057321Y038335D01*
X057321Y038433D02*
X015521Y038433D01*
X015521Y038532D02*
X057321Y038532D01*
X057321Y038630D02*
X015521Y038630D01*
X015521Y038729D02*
X057321Y038729D01*
X057321Y038827D02*
X015521Y038827D01*
X015521Y038926D02*
X057321Y038926D01*
X057321Y039024D02*
X015521Y039024D01*
X015521Y039123D02*
X057321Y039123D01*
X057321Y039221D02*
X015521Y039221D01*
X015521Y039320D02*
X057321Y039320D01*
X057321Y039419D02*
X015521Y039419D01*
X015521Y039517D02*
X057321Y039517D01*
X057321Y039616D02*
X015521Y039616D01*
X015521Y039714D02*
X057321Y039714D01*
X057321Y039813D02*
X015521Y039813D01*
X015521Y039911D02*
X057321Y039911D01*
X057321Y040010D02*
X015521Y040010D01*
X015521Y040108D02*
X057321Y040108D01*
X057321Y040207D02*
X015521Y040207D01*
X015521Y040305D02*
X057321Y040305D01*
X057321Y040404D02*
X015521Y040404D01*
X015521Y040503D02*
X057321Y040503D01*
X057321Y040601D02*
X015521Y040601D01*
X015521Y040700D02*
X057321Y040700D01*
X057321Y040798D02*
X015521Y040798D01*
X015521Y040897D02*
X057321Y040897D01*
X057321Y040995D02*
X015521Y040995D01*
X038927Y027790D02*
X060221Y027790D01*
X060221Y027692D02*
X039010Y027692D01*
X038359Y027101D02*
X037483Y027101D01*
X022567Y017443D02*
X016321Y017443D01*
X016321Y017345D02*
X022469Y017345D01*
X022413Y017246D02*
X016321Y017246D01*
X016321Y017148D02*
X022376Y017148D01*
X022376Y017049D02*
X016321Y017049D01*
X016321Y016951D02*
X022388Y016951D01*
X022429Y016852D02*
X016321Y016852D01*
X016321Y016754D02*
X022506Y016754D01*
X022654Y016655D02*
X016321Y016655D01*
X016321Y016556D02*
X022837Y016556D01*
X022936Y016458D02*
X016321Y016458D01*
X016321Y016359D02*
X023034Y016359D01*
X023019Y016261D02*
X016321Y016261D01*
X016321Y016162D02*
X022979Y016162D01*
X022976Y016064D02*
X016321Y016064D01*
X016321Y015965D02*
X022982Y015965D01*
X023023Y015867D02*
X016321Y015867D01*
X016321Y015768D02*
X023091Y015768D01*
X023219Y015670D02*
X016321Y015670D01*
X016321Y015571D02*
X024523Y015571D01*
X024621Y015473D02*
X016321Y015473D01*
X016321Y015374D02*
X024720Y015374D01*
X024818Y015275D02*
X016321Y015275D01*
X016321Y015177D02*
X024917Y015177D01*
X025015Y015078D02*
X016321Y015078D01*
X016321Y014980D02*
X025114Y014980D01*
X025212Y014881D02*
X016321Y014881D01*
X016321Y014783D02*
X025311Y014783D01*
X025410Y014684D02*
X016321Y014684D01*
X016321Y014586D02*
X025508Y014586D01*
X025607Y014487D02*
X016321Y014487D01*
X016321Y014389D02*
X025705Y014389D01*
X025804Y014290D02*
X016321Y014290D01*
X016321Y014191D02*
X025902Y014191D01*
X026001Y014093D02*
X016321Y014093D01*
X016321Y013994D02*
X026099Y013994D01*
X026198Y013896D02*
X016321Y013896D01*
X016321Y013797D02*
X026296Y013797D01*
X026395Y013699D02*
X016321Y013699D01*
X016321Y013600D02*
X026494Y013600D01*
X026592Y013502D02*
X016321Y013502D01*
X016321Y013403D02*
X026691Y013403D01*
X026776Y013305D02*
X016321Y013305D01*
X016321Y013206D02*
X026806Y013206D01*
X026852Y013107D02*
X016321Y013107D01*
X016321Y013009D02*
X026950Y013009D01*
X024424Y015670D02*
X023623Y015670D01*
X048121Y011629D02*
X049521Y011629D01*
X049521Y011531D02*
X048121Y011531D01*
X048121Y011432D02*
X049521Y011432D01*
X049521Y011334D02*
X048121Y011334D01*
X048121Y011235D02*
X049521Y011235D01*
X049521Y011137D02*
X048121Y011137D01*
X048121Y011038D02*
X049521Y011038D01*
X049521Y010940D02*
X048121Y010940D01*
X048121Y010841D02*
X049521Y010841D01*
X049521Y010742D02*
X048121Y010742D01*
X048121Y010644D02*
X049521Y010644D01*
X049521Y010545D02*
X048121Y010545D01*
X048121Y010447D02*
X049521Y010447D01*
X049521Y010348D02*
X048121Y010348D01*
X048121Y010250D02*
X049521Y010250D01*
X049521Y010151D02*
X048121Y010151D01*
X048121Y010053D02*
X049521Y010053D01*
X049521Y009954D02*
X048121Y009954D01*
X048121Y009856D02*
X049521Y009856D01*
X049521Y009757D02*
X048121Y009757D01*
X048121Y009658D02*
X049521Y009658D01*
X049521Y009560D02*
X048121Y009560D01*
X048121Y009461D02*
X049521Y009461D01*
X049521Y009363D02*
X048121Y009363D01*
D20*
X021521Y034068D03*
X021521Y034568D03*
X021021Y034568D03*
X021021Y034068D03*
D21*
X048921Y011768D02*
X048921Y011268D01*
X048821Y011068D01*
D22*
X048821Y010068D02*
X050121Y008768D01*
X050421Y008768D01*
X050452Y008768D01*
X050452Y008837D01*
X050421Y008868D01*
X051790Y008768D02*
X051921Y008768D01*
X053221Y010068D01*
X044521Y009968D02*
X044521Y010068D01*
X044521Y009968D02*
X043321Y008768D01*
X042690Y008768D01*
X041352Y008768D02*
X041352Y008837D01*
X040121Y010068D01*
X041321Y008768D02*
X041352Y008737D01*
X041352Y008768D02*
X041321Y008768D01*
D23*
X045321Y006368D02*
X047421Y008468D01*
X050321Y008568D02*
X050321Y006368D01*
X045321Y006368D01*
X045521Y004868D02*
X054021Y004868D01*
X056421Y007268D01*
X056421Y007968D01*
X054921Y009068D02*
X052221Y006368D01*
X050321Y006368D01*
X045521Y004868D02*
X043721Y003068D01*
X038921Y003068D01*
D24*
X038321Y004268D02*
X043221Y004268D01*
X044621Y005668D01*
X053021Y005668D01*
X055921Y008668D01*
X055921Y010068D01*
X055321Y010998D02*
X053290Y010998D01*
X053221Y011068D01*
X046921Y010068D02*
X046321Y009468D01*
X046321Y008668D01*
X042921Y005268D01*
X038321Y005268D01*
X041421Y006368D02*
X041721Y006068D01*
X042621Y006068D01*
X045621Y009068D01*
X046321Y010998D02*
X044590Y010998D01*
X044521Y011068D01*
X041421Y008768D02*
X041421Y006368D01*
D25*
X041421Y008768D02*
X041321Y008768D01*
X050321Y008668D02*
X050421Y008768D01*
X050321Y008668D02*
X050321Y008568D01*
M02*
