G75*
G70*
%OFA0B0*%
%FSLAX24Y24*%
%IPPOS*%
%LPD*%
%AMOC8*
5,1,8,0,0,1.08239X$1,22.5*
%
%ADD10C,0.0060*%
%ADD11R,1.4900X0.4000*%
%ADD12C,0.0050*%
%ADD13C,0.0040*%
%ADD14R,0.0220X0.0680*%
%ADD15R,0.0240X0.0620*%
%ADD16C,0.0080*%
%ADD17R,0.0680X0.0220*%
%ADD18R,0.0620X0.0240*%
%ADD19C,0.0001*%
%ADD20C,0.0020*%
%ADD21R,0.0059X0.0079*%
%ADD22R,0.0020X0.0020*%
%ADD23R,0.0148X0.0020*%
%ADD24R,0.0118X0.0079*%
%ADD25R,0.0089X0.0354*%
%ADD26R,0.0197X0.0079*%
%ADD27R,0.0089X0.0217*%
%ADD28R,0.0039X0.0039*%
%ADD29R,0.0098X0.0098*%
D10*
X019951Y001098D02*
X019951Y001738D01*
X020378Y001738D01*
X020595Y001738D02*
X020916Y001738D01*
X021022Y001631D01*
X021022Y001418D01*
X020916Y001311D01*
X020595Y001311D01*
X020595Y001098D02*
X020595Y001738D01*
X020809Y001311D02*
X021022Y001098D01*
X021240Y001204D02*
X021240Y001631D01*
X021347Y001738D01*
X021560Y001738D01*
X021667Y001631D01*
X021667Y001204D01*
X021560Y001098D01*
X021347Y001098D01*
X021240Y001204D01*
X021885Y001098D02*
X021885Y001738D01*
X022098Y001525D01*
X022312Y001738D01*
X022312Y001098D01*
X023174Y001204D02*
X023174Y001631D01*
X023280Y001738D01*
X023494Y001738D01*
X023601Y001631D01*
X023818Y001631D02*
X023818Y001204D01*
X023925Y001098D01*
X024138Y001098D01*
X024245Y001204D01*
X024245Y001631D01*
X024138Y001738D01*
X023925Y001738D01*
X023818Y001631D01*
X023651Y001998D02*
X023651Y002638D01*
X023971Y002638D01*
X024078Y002531D01*
X024078Y002318D01*
X023971Y002211D01*
X023651Y002211D01*
X024295Y002104D02*
X024402Y001998D01*
X024616Y001998D01*
X024722Y002104D01*
X024722Y002531D01*
X024616Y002638D01*
X024402Y002638D01*
X024295Y002531D01*
X024295Y002104D01*
X024463Y001738D02*
X024890Y001098D01*
X024890Y001738D01*
X025107Y001738D02*
X025534Y001738D01*
X025321Y001738D02*
X025321Y001098D01*
X025752Y001098D02*
X025752Y001738D01*
X026072Y001738D01*
X026179Y001631D01*
X026179Y001418D01*
X026072Y001311D01*
X025752Y001311D01*
X025965Y001311D02*
X026179Y001098D01*
X026396Y001204D02*
X026396Y001631D01*
X026503Y001738D01*
X026716Y001738D01*
X026823Y001631D01*
X026823Y001204D01*
X026716Y001098D01*
X026503Y001098D01*
X026396Y001204D01*
X027041Y001098D02*
X027468Y001098D01*
X027041Y001098D02*
X027041Y001738D01*
X026656Y001998D02*
X026443Y002211D01*
X026549Y002211D02*
X026229Y002211D01*
X026229Y001998D02*
X026229Y002638D01*
X026549Y002638D01*
X026656Y002531D01*
X026656Y002318D01*
X026549Y002211D01*
X026012Y001998D02*
X025585Y001998D01*
X025585Y002638D01*
X026012Y002638D01*
X025798Y002318D02*
X025585Y002318D01*
X025367Y001998D02*
X025367Y002638D01*
X024940Y002638D02*
X024940Y001998D01*
X025154Y002211D01*
X025367Y001998D01*
X024463Y001738D02*
X024463Y001098D01*
X023601Y001204D02*
X023494Y001098D01*
X023280Y001098D01*
X023174Y001204D01*
X020164Y001418D02*
X019951Y001418D01*
X024151Y004918D02*
X024578Y004918D01*
X025751Y004918D02*
X026178Y004918D01*
X025964Y005131D02*
X025964Y004704D01*
X028330Y001738D02*
X028650Y001738D01*
X028757Y001631D01*
X028757Y001525D01*
X028650Y001418D01*
X028330Y001418D01*
X028650Y001418D02*
X028757Y001311D01*
X028757Y001204D01*
X028650Y001098D01*
X028330Y001098D01*
X028330Y001738D01*
X028974Y001631D02*
X028974Y001204D01*
X029081Y001098D01*
X029295Y001098D01*
X029401Y001204D01*
X029401Y001631D01*
X029295Y001738D01*
X029081Y001738D01*
X028974Y001631D01*
X029619Y001525D02*
X029619Y001098D01*
X029619Y001418D02*
X030046Y001418D01*
X030046Y001525D02*
X030046Y001098D01*
X030263Y001098D02*
X030263Y001738D01*
X030584Y001738D01*
X030690Y001631D01*
X030690Y001418D01*
X030584Y001311D01*
X030263Y001311D01*
X030477Y001311D02*
X030690Y001098D01*
X030908Y001098D02*
X031228Y001098D01*
X031335Y001204D01*
X031335Y001631D01*
X031228Y001738D01*
X030908Y001738D01*
X030908Y001098D01*
X030046Y001525D02*
X029832Y001738D01*
X029619Y001525D01*
X041501Y008458D02*
X042541Y008458D01*
X042541Y009078D02*
X041501Y009078D01*
X046011Y011148D02*
X046011Y012188D01*
X046631Y012188D02*
X046631Y011148D01*
X050601Y009078D02*
X051641Y009078D01*
X051641Y008458D02*
X050601Y008458D01*
X055011Y011148D02*
X055011Y012188D01*
X055631Y012188D02*
X055631Y011148D01*
X055390Y002338D02*
X055070Y002338D01*
X055070Y001698D01*
X055070Y001911D02*
X055390Y001911D01*
X055497Y002018D01*
X055497Y002231D01*
X055390Y002338D01*
X054854Y002338D02*
X054640Y002338D01*
X054747Y002338D02*
X054747Y001698D01*
X054640Y001698D02*
X054854Y001698D01*
X054422Y001698D02*
X054422Y002338D01*
X054422Y002018D02*
X053995Y002018D01*
X053778Y002231D02*
X053671Y002338D01*
X053458Y002338D01*
X053351Y002231D01*
X053351Y001804D01*
X053458Y001698D01*
X053671Y001698D01*
X053778Y001804D01*
X053995Y001698D02*
X053995Y002338D01*
X048797Y002338D02*
X048370Y001911D01*
X048476Y002018D02*
X048797Y001698D01*
X048370Y001698D02*
X048370Y002338D01*
X048152Y002231D02*
X048045Y002338D01*
X047832Y002338D01*
X047725Y002231D01*
X047725Y001804D01*
X047832Y001698D01*
X048045Y001698D01*
X048152Y001804D01*
X047509Y001698D02*
X047295Y001698D01*
X047402Y001698D02*
X047402Y002338D01*
X047295Y002338D02*
X047509Y002338D01*
X047078Y002338D02*
X046651Y001911D01*
X046758Y002018D02*
X047078Y001698D01*
X046651Y001698D02*
X046651Y002338D01*
X045846Y028198D02*
X045953Y028304D01*
X045846Y028198D02*
X045633Y028198D01*
X045526Y028304D01*
X045526Y028731D01*
X045633Y028838D01*
X045846Y028838D01*
X045953Y028731D01*
X047030Y029184D02*
X047030Y029825D01*
X047350Y029825D01*
X047457Y029718D01*
X047457Y029504D01*
X047350Y029398D01*
X047030Y029398D01*
X046813Y029398D02*
X046813Y029825D01*
X046813Y029398D02*
X046492Y029398D01*
X046386Y029504D01*
X046386Y029825D01*
X046168Y029931D02*
X046061Y030038D01*
X045848Y030038D01*
X045741Y029931D01*
X045741Y029504D01*
X045848Y029398D01*
X046061Y029398D01*
X046168Y029504D01*
X045524Y029504D02*
X045524Y029718D01*
X045417Y029825D01*
X045203Y029825D01*
X045097Y029718D01*
X045097Y029504D01*
X045203Y029398D01*
X045417Y029398D01*
X045524Y029504D01*
X044879Y029504D02*
X044879Y029718D01*
X044772Y029825D01*
X044452Y029825D01*
X044452Y030038D02*
X044452Y029398D01*
X044772Y029398D01*
X044879Y029504D01*
X044235Y029504D02*
X044235Y029718D01*
X044128Y029825D01*
X043914Y029825D01*
X043808Y029718D01*
X043808Y029504D01*
X043914Y029398D01*
X044128Y029398D01*
X044235Y029504D01*
X043590Y029398D02*
X043376Y029611D01*
X043483Y029611D02*
X043163Y029611D01*
X043163Y029398D02*
X043163Y030038D01*
X043483Y030038D01*
X043590Y029931D01*
X043590Y029718D01*
X043483Y029611D01*
X042301Y029504D02*
X042194Y029611D01*
X041981Y029611D01*
X041874Y029718D01*
X041981Y029825D01*
X042301Y029825D01*
X042301Y029504D02*
X042194Y029398D01*
X041874Y029398D01*
X041658Y029398D02*
X041551Y029504D01*
X041551Y029931D01*
X041444Y029825D02*
X041658Y029825D01*
X041227Y029718D02*
X041227Y029611D01*
X040800Y029611D01*
X040800Y029504D02*
X040800Y029718D01*
X040906Y029825D01*
X041120Y029825D01*
X041227Y029718D01*
X041120Y029398D02*
X040906Y029398D01*
X040800Y029504D01*
X040583Y029398D02*
X040263Y029611D01*
X040583Y029825D01*
X040263Y030038D02*
X040263Y029398D01*
X040045Y029398D02*
X039725Y029398D01*
X039618Y029504D01*
X039618Y029718D01*
X039725Y029825D01*
X040045Y029825D01*
X039401Y029718D02*
X039401Y029398D01*
X039080Y029398D01*
X038974Y029504D01*
X039080Y029611D01*
X039401Y029611D01*
X039401Y029718D02*
X039294Y029825D01*
X039080Y029825D01*
X038756Y030038D02*
X038543Y030038D01*
X038649Y030038D02*
X038649Y029504D01*
X038543Y029398D01*
X038436Y029398D01*
X038329Y029504D01*
X038112Y029504D02*
X038112Y029718D01*
X038005Y029825D01*
X037791Y029825D01*
X037685Y029718D01*
X037685Y029504D01*
X037791Y029398D01*
X038005Y029398D01*
X038112Y029504D01*
X037467Y029504D02*
X037467Y029718D01*
X037360Y029825D01*
X037040Y029825D01*
X037040Y030038D02*
X037040Y029398D01*
X037360Y029398D01*
X037467Y029504D01*
X036822Y029504D02*
X036822Y029718D01*
X036716Y029825D01*
X036502Y029825D01*
X036395Y029718D01*
X036395Y029504D01*
X036502Y029398D01*
X036716Y029398D01*
X036822Y029504D01*
X036502Y028945D02*
X036502Y028838D01*
X036502Y028625D02*
X036502Y028198D01*
X036395Y028198D02*
X036609Y028198D01*
X036825Y028304D02*
X036932Y028198D01*
X037252Y028198D01*
X037470Y028198D02*
X037470Y028838D01*
X037252Y028625D02*
X036932Y028625D01*
X036825Y028518D01*
X036825Y028304D01*
X036502Y028625D02*
X036395Y028625D01*
X036178Y028838D02*
X035751Y028411D01*
X035858Y028518D02*
X036178Y028198D01*
X035751Y028198D02*
X035751Y028838D01*
X035751Y029398D02*
X035751Y030038D01*
X036071Y030038D01*
X036178Y029931D01*
X036178Y029718D01*
X036071Y029611D01*
X035751Y029611D01*
X035964Y029611D02*
X036178Y029398D01*
X037470Y028411D02*
X037790Y028625D01*
X038007Y028518D02*
X038007Y028304D01*
X038114Y028198D01*
X038327Y028198D01*
X038434Y028411D02*
X038007Y028411D01*
X038007Y028518D02*
X038114Y028625D01*
X038327Y028625D01*
X038434Y028518D01*
X038434Y028411D01*
X038651Y028411D02*
X038865Y028625D01*
X038972Y028625D01*
X038651Y028625D02*
X038651Y028198D01*
X039833Y028198D02*
X040260Y028625D01*
X040260Y028731D01*
X040153Y028838D01*
X039940Y028838D01*
X039833Y028731D01*
X039833Y028198D02*
X040260Y028198D01*
X040477Y028304D02*
X040904Y028731D01*
X040904Y028304D01*
X040798Y028198D01*
X040584Y028198D01*
X040477Y028304D01*
X040477Y028731D01*
X040584Y028838D01*
X040798Y028838D01*
X040904Y028731D01*
X041122Y028625D02*
X041335Y028838D01*
X041335Y028198D01*
X041122Y028198D02*
X041549Y028198D01*
X041766Y028198D02*
X042194Y028198D01*
X041980Y028198D02*
X041980Y028838D01*
X041766Y028625D01*
X043056Y028625D02*
X043056Y028198D01*
X043056Y028411D02*
X043269Y028625D01*
X043376Y028625D01*
X043593Y028518D02*
X043699Y028625D01*
X043913Y028625D01*
X044020Y028518D01*
X044020Y028411D01*
X043593Y028411D01*
X043593Y028304D02*
X043593Y028518D01*
X043593Y028304D02*
X043699Y028198D01*
X043913Y028198D01*
X044237Y028625D02*
X044451Y028198D01*
X044664Y028625D01*
X048319Y029504D02*
X048426Y029398D01*
X048639Y029398D01*
X048746Y029504D01*
X048746Y029611D01*
X048639Y029718D01*
X048426Y029718D01*
X048319Y029825D01*
X048319Y029931D01*
X048426Y030038D01*
X048639Y030038D01*
X048746Y029931D01*
X048964Y029931D02*
X048964Y029825D01*
X049070Y029718D01*
X049284Y029718D01*
X049391Y029611D01*
X049391Y029504D01*
X049284Y029398D01*
X049070Y029398D01*
X048964Y029504D01*
X048964Y029931D02*
X049070Y030038D01*
X049284Y030038D01*
X049391Y029931D01*
X049608Y030038D02*
X049608Y029398D01*
X050035Y029398D01*
X037790Y028198D02*
X037470Y028411D01*
X037346Y038598D02*
X037133Y038598D01*
X037026Y038704D01*
X037026Y039131D01*
X037133Y039238D01*
X037346Y039238D01*
X037453Y039131D01*
X037453Y038918D02*
X037239Y038918D01*
X037453Y038918D02*
X037453Y038704D01*
X037346Y038598D01*
X037670Y038598D02*
X037670Y039238D01*
X037670Y038918D02*
X038097Y038918D01*
X038097Y039238D02*
X038097Y038598D01*
X038959Y038811D02*
X038959Y039238D01*
X038959Y038811D02*
X039173Y038598D01*
X039386Y038811D01*
X039386Y039238D01*
X039604Y039131D02*
X039604Y038704D01*
X039711Y038598D01*
X039924Y038598D01*
X040031Y038704D01*
X040031Y039131D01*
X039924Y039238D01*
X039711Y039238D01*
X039604Y039131D01*
X040249Y039238D02*
X040249Y038598D01*
X040676Y038598D01*
X041107Y038598D02*
X041107Y039238D01*
X041320Y039238D02*
X040893Y039238D01*
X041538Y039025D02*
X041538Y038598D01*
X041538Y038918D02*
X041965Y038918D01*
X041965Y039025D02*
X041965Y038598D01*
X042182Y038704D02*
X042289Y038598D01*
X042502Y038598D01*
X042609Y038704D01*
X042609Y038918D01*
X042396Y038918D01*
X042609Y039131D02*
X042502Y039238D01*
X042289Y039238D01*
X042182Y039131D01*
X042182Y038704D01*
X041965Y039025D02*
X041751Y039238D01*
X041538Y039025D01*
X042827Y038918D02*
X043040Y038918D01*
X042827Y039238D02*
X042827Y038598D01*
X043254Y038598D01*
X043254Y039238D02*
X042827Y039238D01*
X036810Y039238D02*
X036596Y039238D01*
X036703Y039238D02*
X036703Y038598D01*
X036596Y038598D02*
X036810Y038598D01*
X036379Y038598D02*
X036379Y039238D01*
X036379Y038918D02*
X035952Y038918D01*
X035952Y038598D02*
X035952Y039238D01*
X035090Y038918D02*
X034663Y038918D01*
X033801Y038918D02*
X033801Y039131D01*
X033694Y039238D01*
X033374Y039238D01*
X033374Y038598D01*
X033374Y038811D02*
X033694Y038811D01*
X033801Y038918D01*
X033587Y038811D02*
X033801Y038598D01*
X033156Y038598D02*
X032729Y038598D01*
X032729Y039238D01*
X033156Y039238D01*
X032943Y038918D02*
X032729Y038918D01*
X032512Y038918D02*
X032298Y038918D01*
X032512Y038918D02*
X032512Y038704D01*
X032405Y038598D01*
X032191Y038598D01*
X032085Y038704D01*
X032085Y039131D01*
X032191Y039238D01*
X032405Y039238D01*
X032512Y039131D01*
X031867Y039238D02*
X031867Y038598D01*
X031440Y039238D01*
X031440Y038598D01*
X031222Y038598D02*
X031222Y039025D01*
X031009Y039238D01*
X030795Y039025D01*
X030795Y038598D01*
X030578Y038704D02*
X030578Y039131D01*
X030471Y039238D01*
X030151Y039238D01*
X030151Y038598D01*
X030471Y038598D01*
X030578Y038704D01*
X030795Y038918D02*
X031222Y038918D01*
D11*
X043171Y024368D03*
D12*
X054641Y021568D02*
X054672Y022248D01*
X054765Y022923D01*
X054918Y023586D01*
X055132Y024233D01*
X055403Y024857D01*
X055730Y025454D01*
X056110Y026020D01*
X056540Y026548D01*
X057016Y027035D01*
X057534Y027476D01*
X058090Y027869D01*
X058680Y028209D01*
X059298Y028495D01*
X059939Y028723D01*
X060599Y028892D01*
X061271Y029000D01*
X061951Y029046D01*
X062631Y029031D01*
X063308Y028953D01*
X063975Y028815D01*
X064626Y028616D01*
X065256Y028359D01*
X065861Y028046D01*
X066435Y027679D01*
X066972Y027261D01*
X067470Y026797D01*
X067923Y026289D01*
X068329Y025741D01*
X068682Y025160D01*
X068982Y024548D01*
X069224Y023912D01*
X069408Y023256D01*
X069531Y022587D01*
X069593Y021908D01*
X069593Y021228D01*
X069531Y020549D01*
X069408Y019880D01*
X069224Y019224D01*
X068982Y018588D01*
X068682Y017976D01*
X068329Y017395D01*
X067923Y016847D01*
X067470Y016339D01*
X066972Y015875D01*
X066435Y015457D01*
X065861Y015090D01*
X065256Y014777D01*
X064626Y014520D01*
X063975Y014321D01*
X063308Y014183D01*
X062631Y014105D01*
X061951Y014090D01*
X061271Y014136D01*
X060599Y014244D01*
X059939Y014413D01*
X059298Y014641D01*
X058680Y014927D01*
X058090Y015267D01*
X057534Y015660D01*
X057016Y016101D01*
X056540Y016588D01*
X056110Y017116D01*
X055730Y017682D01*
X055403Y018279D01*
X055132Y018903D01*
X054918Y019550D01*
X054765Y020213D01*
X054672Y020888D01*
X054641Y021568D01*
X003241Y021568D02*
X003272Y022248D01*
X003365Y022923D01*
X003518Y023586D01*
X003732Y024233D01*
X004003Y024857D01*
X004330Y025454D01*
X004710Y026020D01*
X005140Y026548D01*
X005616Y027035D01*
X006134Y027476D01*
X006690Y027869D01*
X007280Y028209D01*
X007898Y028495D01*
X008539Y028723D01*
X009199Y028892D01*
X009871Y029000D01*
X010551Y029046D01*
X011231Y029031D01*
X011908Y028953D01*
X012575Y028815D01*
X013226Y028616D01*
X013856Y028359D01*
X014461Y028046D01*
X015035Y027679D01*
X015572Y027261D01*
X016070Y026797D01*
X016523Y026289D01*
X016929Y025741D01*
X017282Y025160D01*
X017582Y024548D01*
X017824Y023912D01*
X018008Y023256D01*
X018131Y022587D01*
X018193Y021908D01*
X018193Y021228D01*
X018131Y020549D01*
X018008Y019880D01*
X017824Y019224D01*
X017582Y018588D01*
X017282Y017976D01*
X016929Y017395D01*
X016523Y016847D01*
X016070Y016339D01*
X015572Y015875D01*
X015035Y015457D01*
X014461Y015090D01*
X013856Y014777D01*
X013226Y014520D01*
X012575Y014321D01*
X011908Y014183D01*
X011231Y014105D01*
X010551Y014090D01*
X009871Y014136D01*
X009199Y014244D01*
X008539Y014413D01*
X007898Y014641D01*
X007280Y014927D01*
X006690Y015267D01*
X006134Y015660D01*
X005616Y016101D01*
X005140Y016588D01*
X004710Y017116D01*
X004330Y017682D01*
X004003Y018279D01*
X003732Y018903D01*
X003518Y019550D01*
X003365Y020213D01*
X003272Y020888D01*
X003241Y021568D01*
D13*
X011544Y021249D02*
X011544Y021141D01*
X011761Y020924D01*
X011870Y020924D01*
X011978Y021032D01*
X011978Y021141D01*
X011978Y021358D02*
X012195Y021575D01*
X011978Y021683D02*
X011978Y021358D01*
X011761Y021358D02*
X011653Y021358D01*
X011544Y021249D01*
X011978Y021683D02*
X012304Y021358D01*
X040720Y008198D02*
X040720Y007738D01*
X040950Y007738D01*
X041027Y007814D01*
X041027Y008121D01*
X040950Y008198D01*
X040720Y008198D01*
X041181Y007968D02*
X041181Y007814D01*
X041257Y007738D01*
X041411Y007738D01*
X041487Y007814D01*
X041487Y007891D01*
X041411Y007968D01*
X041181Y007968D01*
X041334Y008121D01*
X041487Y008198D01*
X045391Y011088D02*
X045391Y011318D01*
X045467Y011395D01*
X045774Y011395D01*
X045851Y011318D01*
X045851Y011088D01*
X045391Y011088D01*
X045391Y011548D02*
X045391Y011855D01*
X045467Y011855D01*
X045774Y011548D01*
X045851Y011548D01*
X050320Y008298D02*
X050550Y008298D01*
X050627Y008221D01*
X050627Y007914D01*
X050550Y007838D01*
X050320Y007838D01*
X050320Y008298D01*
X050781Y008068D02*
X051087Y008068D01*
X051011Y008298D02*
X050781Y008068D01*
X051011Y007838D02*
X051011Y008298D01*
X054391Y011088D02*
X054391Y011318D01*
X054467Y011395D01*
X054774Y011395D01*
X054851Y011318D01*
X054851Y011088D01*
X054391Y011088D01*
X054391Y011548D02*
X054621Y011548D01*
X054544Y011701D01*
X054544Y011778D01*
X054621Y011855D01*
X054774Y011855D01*
X054851Y011778D01*
X054851Y011625D01*
X054774Y011548D01*
X054391Y011548D02*
X054391Y011855D01*
X061911Y019985D02*
X061803Y020093D01*
X061803Y020202D01*
X061911Y020310D02*
X062074Y020256D01*
X062128Y020202D01*
X062128Y020093D01*
X062020Y019985D01*
X061911Y019985D01*
X061911Y020310D02*
X062074Y020473D01*
X062291Y020256D01*
X061911Y020527D02*
X061911Y020636D01*
X061803Y020744D01*
X061694Y020744D01*
X061477Y020527D01*
X061477Y020419D01*
X061586Y020310D01*
X061694Y020310D01*
X036559Y001425D02*
X036283Y001425D01*
X036273Y001110D02*
X036559Y001110D01*
X035587Y001014D02*
X035511Y000938D01*
X035357Y000938D01*
X035281Y001014D01*
X035587Y001321D01*
X035587Y001014D01*
X035281Y001014D02*
X035281Y001321D01*
X035357Y001398D01*
X035511Y001398D01*
X035587Y001321D01*
X035127Y000938D02*
X034820Y000938D01*
X034974Y000938D02*
X034974Y001398D01*
X034820Y001245D01*
X034667Y001321D02*
X034667Y001014D01*
X034590Y000938D01*
X034360Y000938D01*
X034360Y001398D01*
X034590Y001398D01*
X034667Y001321D01*
D14*
X041401Y008768D03*
X042641Y008768D03*
X050501Y008768D03*
X051741Y008768D03*
D15*
X051341Y008768D03*
X042241Y008768D03*
D16*
X042168Y008768D02*
X041774Y009004D01*
X041774Y008531D01*
X042168Y008768D01*
X046321Y011521D02*
X046557Y011915D01*
X046085Y011915D01*
X046321Y011521D01*
X050874Y009004D02*
X050874Y008531D01*
X051268Y008768D01*
X050874Y009004D01*
X055321Y011521D02*
X055557Y011915D01*
X055085Y011915D01*
X055321Y011521D01*
D17*
X055321Y011048D03*
X055321Y012288D03*
X046321Y012288D03*
X046321Y011048D03*
D18*
X046321Y011448D03*
X055321Y011448D03*
D19*
X036746Y001385D02*
X036746Y001366D01*
X036746Y001367D02*
X036726Y001365D01*
X036708Y001359D01*
X036691Y001350D01*
X036676Y001338D01*
X036664Y001323D01*
X036654Y001306D01*
X036649Y001287D01*
X036647Y001268D01*
X036649Y001249D01*
X036654Y001230D01*
X036664Y001213D01*
X036676Y001198D01*
X036691Y001186D01*
X036708Y001177D01*
X036726Y001171D01*
X036746Y001169D01*
X036746Y001151D01*
X036746Y001150D01*
X036724Y001152D01*
X036703Y001158D01*
X036684Y001168D01*
X036666Y001181D01*
X036652Y001197D01*
X036640Y001216D01*
X036632Y001236D01*
X036629Y001257D01*
X036629Y001279D01*
X036632Y001300D01*
X036640Y001320D01*
X036652Y001339D01*
X036666Y001355D01*
X036684Y001368D01*
X036703Y001378D01*
X036724Y001384D01*
X036746Y001386D01*
X036746Y001385D01*
X036724Y001383D01*
X036703Y001377D01*
X036684Y001367D01*
X036667Y001354D01*
X036653Y001338D01*
X036641Y001320D01*
X036633Y001300D01*
X036629Y001279D01*
X036629Y001257D01*
X036633Y001236D01*
X036641Y001216D01*
X036653Y001198D01*
X036667Y001182D01*
X036684Y001169D01*
X036703Y001159D01*
X036724Y001153D01*
X036746Y001151D01*
X036746Y001152D01*
X036724Y001154D01*
X036704Y001160D01*
X036685Y001170D01*
X036668Y001182D01*
X036653Y001198D01*
X036642Y001216D01*
X036634Y001236D01*
X036630Y001257D01*
X036630Y001279D01*
X036634Y001300D01*
X036642Y001320D01*
X036653Y001338D01*
X036668Y001354D01*
X036685Y001366D01*
X036704Y001376D01*
X036724Y001382D01*
X036746Y001384D01*
X036746Y001383D01*
X036724Y001381D01*
X036704Y001375D01*
X036685Y001366D01*
X036668Y001353D01*
X036654Y001337D01*
X036643Y001319D01*
X036635Y001299D01*
X036631Y001279D01*
X036631Y001257D01*
X036635Y001237D01*
X036643Y001217D01*
X036654Y001199D01*
X036668Y001183D01*
X036685Y001170D01*
X036704Y001161D01*
X036724Y001155D01*
X036746Y001153D01*
X036746Y001154D01*
X036725Y001156D01*
X036704Y001162D01*
X036686Y001171D01*
X036669Y001184D01*
X036655Y001199D01*
X036644Y001217D01*
X036636Y001237D01*
X036632Y001258D01*
X036632Y001278D01*
X036636Y001299D01*
X036644Y001319D01*
X036655Y001337D01*
X036669Y001352D01*
X036686Y001365D01*
X036704Y001374D01*
X036725Y001380D01*
X036746Y001382D01*
X036746Y001381D01*
X036725Y001379D01*
X036705Y001373D01*
X036686Y001364D01*
X036670Y001351D01*
X036656Y001336D01*
X036645Y001318D01*
X036637Y001299D01*
X036633Y001278D01*
X036633Y001258D01*
X036637Y001237D01*
X036645Y001218D01*
X036656Y001200D01*
X036670Y001185D01*
X036686Y001172D01*
X036705Y001163D01*
X036725Y001157D01*
X036746Y001155D01*
X036746Y001156D01*
X036725Y001158D01*
X036705Y001164D01*
X036687Y001173D01*
X036670Y001185D01*
X036656Y001201D01*
X036646Y001218D01*
X036638Y001237D01*
X036634Y001258D01*
X036634Y001278D01*
X036638Y001299D01*
X036646Y001318D01*
X036656Y001335D01*
X036670Y001351D01*
X036687Y001363D01*
X036705Y001372D01*
X036725Y001378D01*
X036746Y001380D01*
X036746Y001379D01*
X036725Y001377D01*
X036706Y001371D01*
X036687Y001362D01*
X036671Y001350D01*
X036657Y001335D01*
X036647Y001317D01*
X036639Y001298D01*
X036635Y001278D01*
X036635Y001258D01*
X036639Y001238D01*
X036647Y001219D01*
X036657Y001201D01*
X036671Y001186D01*
X036687Y001174D01*
X036706Y001165D01*
X036725Y001159D01*
X036746Y001157D01*
X036746Y001158D01*
X036725Y001160D01*
X036706Y001166D01*
X036688Y001175D01*
X036672Y001187D01*
X036658Y001202D01*
X036647Y001219D01*
X036640Y001238D01*
X036636Y001258D01*
X036636Y001278D01*
X036640Y001298D01*
X036647Y001317D01*
X036658Y001334D01*
X036672Y001349D01*
X036688Y001361D01*
X036706Y001370D01*
X036725Y001376D01*
X036746Y001378D01*
X036746Y001377D01*
X036724Y001375D01*
X036704Y001369D01*
X036685Y001358D01*
X036669Y001345D01*
X036655Y001328D01*
X036645Y001310D01*
X036639Y001289D01*
X036637Y001268D01*
X036639Y001247D01*
X036645Y001226D01*
X036655Y001208D01*
X036669Y001191D01*
X036685Y001178D01*
X036704Y001167D01*
X036724Y001161D01*
X036746Y001159D01*
X036746Y001160D01*
X036725Y001162D01*
X036704Y001168D01*
X036686Y001178D01*
X036669Y001192D01*
X036656Y001208D01*
X036646Y001227D01*
X036640Y001247D01*
X036638Y001268D01*
X036640Y001289D01*
X036646Y001309D01*
X036656Y001328D01*
X036669Y001344D01*
X036686Y001358D01*
X036704Y001368D01*
X036725Y001374D01*
X036746Y001376D01*
X036746Y001375D01*
X036725Y001373D01*
X036705Y001367D01*
X036686Y001357D01*
X036670Y001343D01*
X036657Y001327D01*
X036647Y001309D01*
X036641Y001289D01*
X036639Y001268D01*
X036641Y001247D01*
X036647Y001227D01*
X036657Y001209D01*
X036670Y001193D01*
X036686Y001179D01*
X036705Y001169D01*
X036725Y001163D01*
X036746Y001161D01*
X036746Y001162D01*
X036725Y001164D01*
X036705Y001170D01*
X036687Y001180D01*
X036671Y001193D01*
X036658Y001209D01*
X036648Y001228D01*
X036642Y001247D01*
X036640Y001268D01*
X036642Y001289D01*
X036648Y001308D01*
X036658Y001327D01*
X036671Y001343D01*
X036687Y001356D01*
X036705Y001366D01*
X036725Y001372D01*
X036746Y001374D01*
X036746Y001373D01*
X036725Y001371D01*
X036705Y001365D01*
X036687Y001355D01*
X036672Y001342D01*
X036659Y001326D01*
X036649Y001308D01*
X036643Y001288D01*
X036641Y001268D01*
X036643Y001248D01*
X036649Y001228D01*
X036659Y001210D01*
X036672Y001194D01*
X036687Y001181D01*
X036705Y001171D01*
X036725Y001165D01*
X036746Y001163D01*
X036746Y001164D01*
X036725Y001166D01*
X036706Y001172D01*
X036688Y001182D01*
X036672Y001195D01*
X036659Y001210D01*
X036650Y001228D01*
X036644Y001248D01*
X036642Y001268D01*
X036644Y001288D01*
X036650Y001308D01*
X036659Y001326D01*
X036672Y001341D01*
X036688Y001354D01*
X036706Y001364D01*
X036725Y001370D01*
X036746Y001372D01*
X036746Y001371D01*
X036725Y001369D01*
X036706Y001363D01*
X036689Y001353D01*
X036673Y001341D01*
X036660Y001325D01*
X036651Y001307D01*
X036645Y001288D01*
X036643Y001268D01*
X036645Y001248D01*
X036651Y001229D01*
X036660Y001211D01*
X036673Y001195D01*
X036689Y001183D01*
X036706Y001173D01*
X036725Y001167D01*
X036746Y001165D01*
X036746Y001166D01*
X036726Y001168D01*
X036707Y001174D01*
X036689Y001183D01*
X036674Y001196D01*
X036661Y001211D01*
X036652Y001229D01*
X036646Y001248D01*
X036644Y001268D01*
X036646Y001288D01*
X036652Y001307D01*
X036661Y001325D01*
X036674Y001340D01*
X036689Y001353D01*
X036707Y001362D01*
X036726Y001368D01*
X036746Y001370D01*
X036746Y001369D01*
X036726Y001367D01*
X036707Y001361D01*
X036690Y001352D01*
X036674Y001339D01*
X036662Y001324D01*
X036653Y001307D01*
X036647Y001288D01*
X036645Y001268D01*
X036647Y001248D01*
X036653Y001229D01*
X036662Y001212D01*
X036674Y001197D01*
X036690Y001184D01*
X036707Y001175D01*
X036726Y001169D01*
X036746Y001167D01*
X036746Y001168D01*
X036726Y001170D01*
X036707Y001176D01*
X036690Y001185D01*
X036675Y001197D01*
X036663Y001213D01*
X036654Y001230D01*
X036648Y001249D01*
X036646Y001268D01*
X036648Y001287D01*
X036654Y001306D01*
X036663Y001323D01*
X036675Y001339D01*
X036690Y001351D01*
X036707Y001360D01*
X036726Y001366D01*
X036746Y001368D01*
X036096Y001131D02*
X036096Y001170D01*
X036096Y001169D02*
X036116Y001171D01*
X036134Y001177D01*
X036151Y001186D01*
X036166Y001198D01*
X036178Y001213D01*
X036188Y001230D01*
X036193Y001249D01*
X036195Y001268D01*
X036193Y001287D01*
X036188Y001306D01*
X036178Y001323D01*
X036166Y001338D01*
X036151Y001350D01*
X036134Y001359D01*
X036116Y001365D01*
X036096Y001367D01*
X036096Y001405D01*
X036096Y001406D01*
X036120Y001404D01*
X036144Y001398D01*
X036165Y001387D01*
X036185Y001374D01*
X036202Y001357D01*
X036216Y001337D01*
X036226Y001315D01*
X036232Y001292D01*
X036234Y001268D01*
X036232Y001244D01*
X036226Y001221D01*
X036216Y001199D01*
X036202Y001179D01*
X036185Y001162D01*
X036165Y001149D01*
X036144Y001138D01*
X036120Y001132D01*
X036096Y001130D01*
X036096Y001131D01*
X036120Y001133D01*
X036143Y001139D01*
X036165Y001150D01*
X036184Y001163D01*
X036201Y001180D01*
X036215Y001200D01*
X036225Y001221D01*
X036231Y001244D01*
X036233Y001268D01*
X036231Y001292D01*
X036225Y001315D01*
X036215Y001336D01*
X036201Y001356D01*
X036184Y001373D01*
X036165Y001386D01*
X036143Y001397D01*
X036120Y001403D01*
X036096Y001405D01*
X036096Y001404D01*
X036120Y001402D01*
X036143Y001396D01*
X036164Y001386D01*
X036184Y001372D01*
X036200Y001355D01*
X036214Y001336D01*
X036224Y001314D01*
X036230Y001292D01*
X036232Y001268D01*
X036230Y001244D01*
X036224Y001222D01*
X036214Y001200D01*
X036200Y001181D01*
X036184Y001164D01*
X036164Y001150D01*
X036143Y001140D01*
X036120Y001134D01*
X036096Y001132D01*
X036096Y001133D01*
X036120Y001135D01*
X036143Y001141D01*
X036164Y001151D01*
X036183Y001165D01*
X036200Y001181D01*
X036213Y001201D01*
X036223Y001222D01*
X036229Y001245D01*
X036231Y001268D01*
X036229Y001291D01*
X036223Y001314D01*
X036213Y001335D01*
X036200Y001355D01*
X036183Y001371D01*
X036164Y001385D01*
X036143Y001395D01*
X036120Y001401D01*
X036096Y001403D01*
X036096Y001402D01*
X036120Y001400D01*
X036142Y001394D01*
X036163Y001384D01*
X036182Y001370D01*
X036199Y001354D01*
X036212Y001335D01*
X036222Y001314D01*
X036228Y001291D01*
X036230Y001268D01*
X036228Y001245D01*
X036222Y001222D01*
X036212Y001201D01*
X036199Y001182D01*
X036182Y001166D01*
X036163Y001152D01*
X036142Y001142D01*
X036120Y001136D01*
X036096Y001134D01*
X036096Y001135D01*
X036120Y001137D01*
X036142Y001143D01*
X036163Y001153D01*
X036182Y001166D01*
X036198Y001183D01*
X036211Y001202D01*
X036221Y001223D01*
X036227Y001245D01*
X036229Y001268D01*
X036227Y001291D01*
X036221Y001313D01*
X036211Y001334D01*
X036198Y001353D01*
X036182Y001370D01*
X036163Y001383D01*
X036142Y001393D01*
X036120Y001399D01*
X036096Y001401D01*
X036096Y001400D01*
X036119Y001398D01*
X036142Y001392D01*
X036162Y001382D01*
X036181Y001369D01*
X036197Y001353D01*
X036210Y001334D01*
X036220Y001313D01*
X036226Y001291D01*
X036228Y001268D01*
X036226Y001245D01*
X036220Y001223D01*
X036210Y001202D01*
X036197Y001183D01*
X036181Y001167D01*
X036162Y001154D01*
X036142Y001144D01*
X036119Y001138D01*
X036096Y001136D01*
X036096Y001137D01*
X036119Y001139D01*
X036141Y001145D01*
X036162Y001155D01*
X036180Y001168D01*
X036196Y001184D01*
X036210Y001203D01*
X036219Y001223D01*
X036225Y001245D01*
X036227Y001268D01*
X036225Y001291D01*
X036219Y001313D01*
X036210Y001333D01*
X036196Y001352D01*
X036180Y001368D01*
X036162Y001381D01*
X036141Y001391D01*
X036119Y001397D01*
X036096Y001399D01*
X036096Y001398D01*
X036119Y001396D01*
X036141Y001390D01*
X036161Y001380D01*
X036180Y001367D01*
X036196Y001351D01*
X036209Y001333D01*
X036218Y001312D01*
X036224Y001291D01*
X036226Y001268D01*
X036224Y001245D01*
X036218Y001224D01*
X036209Y001203D01*
X036196Y001185D01*
X036180Y001169D01*
X036161Y001156D01*
X036141Y001146D01*
X036119Y001140D01*
X036096Y001138D01*
X036096Y001139D01*
X036119Y001141D01*
X036140Y001147D01*
X036161Y001156D01*
X036179Y001169D01*
X036195Y001185D01*
X036208Y001204D01*
X036217Y001224D01*
X036223Y001246D01*
X036225Y001268D01*
X036223Y001290D01*
X036217Y001312D01*
X036208Y001332D01*
X036195Y001351D01*
X036179Y001367D01*
X036161Y001380D01*
X036140Y001389D01*
X036119Y001395D01*
X036096Y001397D01*
X036096Y001396D01*
X036119Y001394D01*
X036140Y001388D01*
X036160Y001379D01*
X036178Y001366D01*
X036194Y001350D01*
X036207Y001332D01*
X036216Y001312D01*
X036222Y001290D01*
X036224Y001268D01*
X036222Y001246D01*
X036216Y001224D01*
X036207Y001204D01*
X036194Y001186D01*
X036178Y001170D01*
X036160Y001157D01*
X036140Y001148D01*
X036119Y001142D01*
X036096Y001140D01*
X036096Y001141D01*
X036118Y001143D01*
X036140Y001149D01*
X036160Y001158D01*
X036178Y001171D01*
X036193Y001187D01*
X036206Y001205D01*
X036215Y001225D01*
X036221Y001246D01*
X036223Y001268D01*
X036221Y001290D01*
X036215Y001311D01*
X036206Y001331D01*
X036193Y001349D01*
X036178Y001365D01*
X036160Y001378D01*
X036140Y001387D01*
X036118Y001393D01*
X036096Y001395D01*
X036096Y001394D01*
X036118Y001392D01*
X036139Y001386D01*
X036159Y001377D01*
X036177Y001364D01*
X036193Y001349D01*
X036205Y001331D01*
X036214Y001311D01*
X036220Y001290D01*
X036222Y001268D01*
X036220Y001246D01*
X036214Y001225D01*
X036205Y001205D01*
X036193Y001187D01*
X036177Y001172D01*
X036159Y001159D01*
X036139Y001150D01*
X036118Y001144D01*
X036096Y001142D01*
X036096Y001143D01*
X036118Y001145D01*
X036139Y001151D01*
X036159Y001160D01*
X036177Y001172D01*
X036192Y001188D01*
X036204Y001206D01*
X036213Y001225D01*
X036219Y001246D01*
X036221Y001268D01*
X036219Y001290D01*
X036213Y001311D01*
X036204Y001330D01*
X036192Y001348D01*
X036177Y001364D01*
X036159Y001376D01*
X036139Y001385D01*
X036118Y001391D01*
X036096Y001393D01*
X036096Y001392D01*
X036118Y001390D01*
X036139Y001384D01*
X036158Y001375D01*
X036176Y001363D01*
X036191Y001348D01*
X036203Y001330D01*
X036213Y001310D01*
X036218Y001289D01*
X036220Y001268D01*
X036218Y001247D01*
X036213Y001226D01*
X036203Y001206D01*
X036191Y001188D01*
X036176Y001173D01*
X036158Y001161D01*
X036139Y001152D01*
X036118Y001146D01*
X036096Y001144D01*
X036096Y001145D01*
X036119Y001147D01*
X036141Y001153D01*
X036161Y001164D01*
X036179Y001177D01*
X036194Y001194D01*
X036206Y001213D01*
X036214Y001234D01*
X036218Y001257D01*
X036218Y001279D01*
X036214Y001302D01*
X036206Y001323D01*
X036194Y001342D01*
X036179Y001359D01*
X036161Y001372D01*
X036141Y001383D01*
X036119Y001389D01*
X036096Y001391D01*
X036096Y001390D01*
X036119Y001388D01*
X036140Y001382D01*
X036160Y001372D01*
X036178Y001358D01*
X036193Y001341D01*
X036205Y001322D01*
X036213Y001301D01*
X036217Y001279D01*
X036217Y001257D01*
X036213Y001235D01*
X036205Y001214D01*
X036193Y001195D01*
X036178Y001178D01*
X036160Y001164D01*
X036140Y001154D01*
X036119Y001148D01*
X036096Y001146D01*
X036096Y001147D01*
X036119Y001149D01*
X036140Y001155D01*
X036160Y001165D01*
X036178Y001179D01*
X036193Y001195D01*
X036204Y001214D01*
X036212Y001235D01*
X036216Y001257D01*
X036216Y001279D01*
X036212Y001301D01*
X036204Y001322D01*
X036193Y001341D01*
X036178Y001357D01*
X036160Y001371D01*
X036140Y001381D01*
X036119Y001387D01*
X036096Y001389D01*
X036096Y001388D01*
X036118Y001386D01*
X036140Y001380D01*
X036159Y001370D01*
X036177Y001357D01*
X036192Y001340D01*
X036203Y001321D01*
X036211Y001301D01*
X036215Y001279D01*
X036215Y001257D01*
X036211Y001235D01*
X036203Y001215D01*
X036192Y001196D01*
X036177Y001179D01*
X036159Y001166D01*
X036140Y001156D01*
X036118Y001150D01*
X036096Y001148D01*
X036096Y001149D01*
X036118Y001151D01*
X036139Y001157D01*
X036159Y001167D01*
X036176Y001180D01*
X036191Y001196D01*
X036203Y001215D01*
X036210Y001236D01*
X036214Y001257D01*
X036214Y001279D01*
X036210Y001300D01*
X036203Y001321D01*
X036191Y001340D01*
X036176Y001356D01*
X036159Y001369D01*
X036139Y001379D01*
X036118Y001385D01*
X036096Y001387D01*
X036096Y001386D01*
X036118Y001384D01*
X036139Y001378D01*
X036158Y001368D01*
X036176Y001355D01*
X036190Y001339D01*
X036202Y001320D01*
X036210Y001300D01*
X036213Y001279D01*
X036213Y001257D01*
X036210Y001236D01*
X036202Y001216D01*
X036190Y001197D01*
X036176Y001181D01*
X036158Y001168D01*
X036139Y001158D01*
X036118Y001152D01*
X036096Y001150D01*
X036096Y001151D01*
X036118Y001153D01*
X036139Y001159D01*
X036158Y001169D01*
X036175Y001182D01*
X036189Y001198D01*
X036201Y001216D01*
X036209Y001236D01*
X036213Y001257D01*
X036213Y001279D01*
X036209Y001300D01*
X036201Y001320D01*
X036189Y001338D01*
X036175Y001354D01*
X036158Y001367D01*
X036139Y001377D01*
X036118Y001383D01*
X036096Y001385D01*
X036096Y001384D01*
X036118Y001382D01*
X036138Y001376D01*
X036157Y001366D01*
X036174Y001354D01*
X036189Y001338D01*
X036200Y001320D01*
X036208Y001300D01*
X036212Y001279D01*
X036212Y001257D01*
X036208Y001236D01*
X036200Y001216D01*
X036189Y001198D01*
X036174Y001182D01*
X036157Y001170D01*
X036138Y001160D01*
X036118Y001154D01*
X036096Y001152D01*
X036096Y001153D01*
X036118Y001155D01*
X036138Y001161D01*
X036157Y001170D01*
X036174Y001183D01*
X036188Y001199D01*
X036199Y001217D01*
X036207Y001237D01*
X036211Y001257D01*
X036211Y001279D01*
X036207Y001299D01*
X036199Y001319D01*
X036188Y001337D01*
X036174Y001353D01*
X036157Y001366D01*
X036138Y001375D01*
X036118Y001381D01*
X036096Y001383D01*
X036096Y001382D01*
X036117Y001380D01*
X036138Y001374D01*
X036156Y001365D01*
X036173Y001352D01*
X036187Y001337D01*
X036198Y001319D01*
X036206Y001299D01*
X036210Y001278D01*
X036210Y001258D01*
X036206Y001237D01*
X036198Y001217D01*
X036187Y001199D01*
X036173Y001184D01*
X036156Y001171D01*
X036138Y001162D01*
X036117Y001156D01*
X036096Y001154D01*
X036096Y001155D01*
X036117Y001157D01*
X036137Y001163D01*
X036156Y001172D01*
X036172Y001185D01*
X036186Y001200D01*
X036197Y001218D01*
X036205Y001237D01*
X036209Y001258D01*
X036209Y001278D01*
X036205Y001299D01*
X036197Y001318D01*
X036186Y001336D01*
X036172Y001351D01*
X036156Y001364D01*
X036137Y001373D01*
X036117Y001379D01*
X036096Y001381D01*
X036096Y001380D01*
X036117Y001378D01*
X036137Y001372D01*
X036155Y001363D01*
X036172Y001351D01*
X036186Y001335D01*
X036196Y001318D01*
X036204Y001299D01*
X036208Y001278D01*
X036208Y001258D01*
X036204Y001237D01*
X036196Y001218D01*
X036186Y001201D01*
X036172Y001185D01*
X036155Y001173D01*
X036137Y001164D01*
X036117Y001158D01*
X036096Y001156D01*
X036096Y001157D01*
X036117Y001159D01*
X036136Y001165D01*
X036155Y001174D01*
X036171Y001186D01*
X036185Y001201D01*
X036195Y001219D01*
X036203Y001238D01*
X036207Y001258D01*
X036207Y001278D01*
X036203Y001298D01*
X036195Y001317D01*
X036185Y001335D01*
X036171Y001350D01*
X036155Y001362D01*
X036136Y001371D01*
X036117Y001377D01*
X036096Y001379D01*
X036096Y001378D01*
X036117Y001376D01*
X036136Y001370D01*
X036154Y001361D01*
X036170Y001349D01*
X036184Y001334D01*
X036195Y001317D01*
X036202Y001298D01*
X036206Y001278D01*
X036206Y001258D01*
X036202Y001238D01*
X036195Y001219D01*
X036184Y001202D01*
X036170Y001187D01*
X036154Y001175D01*
X036136Y001166D01*
X036117Y001160D01*
X036096Y001158D01*
X036096Y001159D01*
X036118Y001161D01*
X036138Y001167D01*
X036157Y001178D01*
X036173Y001191D01*
X036187Y001208D01*
X036197Y001226D01*
X036203Y001247D01*
X036205Y001268D01*
X036203Y001289D01*
X036197Y001310D01*
X036187Y001328D01*
X036173Y001345D01*
X036157Y001358D01*
X036138Y001369D01*
X036118Y001375D01*
X036096Y001377D01*
X036096Y001376D01*
X036117Y001374D01*
X036138Y001368D01*
X036156Y001358D01*
X036173Y001344D01*
X036186Y001328D01*
X036196Y001309D01*
X036202Y001289D01*
X036204Y001268D01*
X036202Y001247D01*
X036196Y001227D01*
X036186Y001208D01*
X036173Y001192D01*
X036156Y001178D01*
X036138Y001168D01*
X036117Y001162D01*
X036096Y001160D01*
X036096Y001161D01*
X036117Y001163D01*
X036137Y001169D01*
X036156Y001179D01*
X036172Y001193D01*
X036185Y001209D01*
X036195Y001227D01*
X036201Y001247D01*
X036203Y001268D01*
X036201Y001289D01*
X036195Y001309D01*
X036185Y001327D01*
X036172Y001343D01*
X036156Y001357D01*
X036137Y001367D01*
X036117Y001373D01*
X036096Y001375D01*
X036096Y001374D01*
X036117Y001372D01*
X036137Y001366D01*
X036155Y001356D01*
X036171Y001343D01*
X036184Y001327D01*
X036194Y001308D01*
X036200Y001289D01*
X036202Y001268D01*
X036200Y001247D01*
X036194Y001228D01*
X036184Y001209D01*
X036171Y001193D01*
X036155Y001180D01*
X036137Y001170D01*
X036117Y001164D01*
X036096Y001162D01*
X036096Y001163D01*
X036117Y001165D01*
X036137Y001171D01*
X036155Y001181D01*
X036170Y001194D01*
X036183Y001210D01*
X036193Y001228D01*
X036199Y001248D01*
X036201Y001268D01*
X036199Y001288D01*
X036193Y001308D01*
X036183Y001326D01*
X036170Y001342D01*
X036155Y001355D01*
X036137Y001365D01*
X036117Y001371D01*
X036096Y001373D01*
X036096Y001372D01*
X036117Y001370D01*
X036136Y001364D01*
X036154Y001354D01*
X036170Y001341D01*
X036183Y001326D01*
X036192Y001308D01*
X036198Y001288D01*
X036200Y001268D01*
X036198Y001248D01*
X036192Y001228D01*
X036183Y001210D01*
X036170Y001195D01*
X036154Y001182D01*
X036136Y001172D01*
X036117Y001166D01*
X036096Y001164D01*
X036096Y001165D01*
X036117Y001167D01*
X036136Y001173D01*
X036153Y001183D01*
X036169Y001195D01*
X036182Y001211D01*
X036191Y001229D01*
X036197Y001248D01*
X036199Y001268D01*
X036197Y001288D01*
X036191Y001307D01*
X036182Y001325D01*
X036169Y001341D01*
X036153Y001353D01*
X036136Y001363D01*
X036117Y001369D01*
X036096Y001371D01*
X036096Y001370D01*
X036116Y001368D01*
X036135Y001362D01*
X036153Y001353D01*
X036168Y001340D01*
X036181Y001325D01*
X036190Y001307D01*
X036196Y001288D01*
X036198Y001268D01*
X036196Y001248D01*
X036190Y001229D01*
X036181Y001211D01*
X036168Y001196D01*
X036153Y001183D01*
X036135Y001174D01*
X036116Y001168D01*
X036096Y001166D01*
X036096Y001167D01*
X036116Y001169D01*
X036135Y001175D01*
X036152Y001184D01*
X036168Y001197D01*
X036180Y001212D01*
X036189Y001229D01*
X036195Y001248D01*
X036197Y001268D01*
X036195Y001288D01*
X036189Y001307D01*
X036180Y001324D01*
X036168Y001339D01*
X036152Y001352D01*
X036135Y001361D01*
X036116Y001367D01*
X036096Y001369D01*
X036096Y001368D01*
X036116Y001366D01*
X036135Y001360D01*
X036152Y001351D01*
X036167Y001339D01*
X036179Y001323D01*
X036188Y001306D01*
X036194Y001287D01*
X036196Y001268D01*
X036194Y001249D01*
X036188Y001230D01*
X036179Y001213D01*
X036167Y001197D01*
X036152Y001185D01*
X036135Y001176D01*
X036116Y001170D01*
X036096Y001168D01*
D20*
X036145Y001130D02*
X036147Y001141D01*
X036153Y001150D01*
X036162Y001157D01*
X036172Y001160D01*
X036183Y001159D01*
X036193Y001154D01*
X036201Y001146D01*
X036204Y001136D01*
X036204Y001124D01*
X036201Y001114D01*
X036193Y001106D01*
X036183Y001101D01*
X036172Y001100D01*
X036162Y001103D01*
X036153Y001110D01*
X036147Y001119D01*
X036145Y001130D01*
D21*
X036116Y001130D03*
D22*
X036195Y001169D03*
D23*
X036209Y001100D03*
D24*
X036145Y001406D03*
D25*
X036239Y001268D03*
D26*
X036657Y001406D03*
X036657Y001130D03*
D27*
X036603Y001268D03*
D28*
X036657Y001356D03*
X036657Y001179D03*
D29*
X036372Y001268D03*
M02*
