%
M48
M72
T01C0.0236
T02C0.0276
T03C0.0315
T04C0.0320
T05C0.0400
T06C0.0440
T07C0.0630
T08C0.1300
T09C0.1504
%
T01
X3331Y10763
X6087Y14436
X7898Y16247
X3489Y15893
X15772Y16208
X17504Y17586
X19473Y16798
X16756Y14318
X17504Y14042
X16756Y13334
X15693Y11208
X16717Y10381
X17504Y10893
X18095Y10066
X18607Y10066
X19197Y10105
X19473Y10893
X21599Y7664
X19827Y6129
X16008Y6995
X23410Y16798
X26166Y21916
T02
X16437Y21523
X16437Y20735
X11225Y14251
X11225Y13463
X11225Y12676
X11225Y11889
X13642Y6837
X13642Y6050
T03
X13606Y3723
X12606Y3723
X11606Y3723
X10606Y3723
X9606Y3723
X8606Y3723
X7606Y3723
X6606Y3723
X5606Y3723
X4606Y3723
X14606Y3723
X15606Y3723
X16606Y3723
X17606Y3723
X18606Y3723
X19606Y3723
X20606Y3723
X21606Y3723
X28601Y7759
X28601Y8759
X28601Y11759
X28601Y12759
X28601Y13759
X28601Y14759
X28601Y15759
X28601Y16759
X28601Y17759
X28601Y18759
T04
X22796Y18841
X22796Y19841
X22811Y21676
X22811Y22676
X19906Y22676
X19906Y21676
X19890Y19841
X19890Y18841
X13095Y17412
X12095Y17412
T05
X10374Y9306
X9374Y9306
X9374Y8306
X10374Y8306
X10374Y7306
X9374Y7306
X9374Y6306
X10374Y6306
X10374Y5306
X9374Y5306
T06
X6032Y20282
X6032Y21282
X6032Y22282
T07
X5595Y8361
X4595Y7361
X5595Y6361
X3595Y6361
X3595Y8361
X24382Y7751
X25382Y8751
X24382Y9751
X26382Y9751
X26382Y7751
T08
X11932Y21282
T09
X2150Y1837
X2150Y22310
X29709Y22310
X29709Y1837
M30
