G75*
%MOIN*%
%OFA0B0*%
%FSLAX24Y24*%
%IPPOS*%
%LPD*%
%AMOC8*
5,1,8,0,0,1.08239X$1,22.5*
%
%ADD10C,0.0318*%
%ADD11R,0.0394X0.0433*%
%ADD12R,0.0433X0.0394*%
%ADD13R,0.1600X0.0600*%
%ADD14R,0.0740X0.0740*%
%ADD15C,0.0740*%
%ADD16C,0.0160*%
%ADD17C,0.0400*%
%ADD18C,0.0120*%
%ADD19C,0.0310*%
%ADD20C,0.0320*%
%ADD21C,0.0396*%
%ADD22C,0.0360*%
D10*
X004150Y004100D03*
X004400Y004350D03*
X004150Y004600D03*
X004650Y004600D03*
X004650Y004100D03*
D11*
X005500Y005415D03*
X005500Y006085D03*
X003600Y002285D03*
X003600Y001615D03*
D12*
X002835Y003550D03*
X002165Y003550D03*
X004600Y006215D03*
X004600Y006885D03*
D13*
X009600Y006150D03*
X009600Y004150D03*
D14*
X000750Y000750D03*
D15*
X000750Y001750D03*
X000750Y002750D03*
X000750Y003750D03*
X000750Y004750D03*
X000750Y005750D03*
X000750Y006750D03*
X000750Y007750D03*
D16*
X001171Y007450D02*
X005268Y007450D01*
X005300Y007417D02*
X005300Y006441D01*
X005245Y006441D01*
X005163Y006359D01*
X005163Y005810D01*
X005223Y005750D01*
X005163Y005690D01*
X005163Y005170D01*
X004742Y005590D01*
X004767Y005601D01*
X004850Y005684D01*
X004895Y005792D01*
X004895Y005899D01*
X004957Y005961D01*
X004957Y006470D01*
X004899Y006528D01*
X004927Y006544D01*
X004961Y006577D01*
X004984Y006618D01*
X004997Y006664D01*
X004997Y006866D01*
X004618Y006866D01*
X004618Y006903D01*
X004582Y006903D01*
X004582Y007261D01*
X004360Y007261D01*
X004314Y007249D01*
X004273Y007226D01*
X004239Y007192D01*
X004216Y007151D01*
X004203Y007105D01*
X004203Y006903D01*
X004582Y006903D01*
X004582Y006866D01*
X004203Y006866D01*
X004203Y006664D01*
X004216Y006618D01*
X004217Y006615D01*
X004183Y006650D01*
X003017Y006650D01*
X002660Y006293D01*
X002602Y006237D01*
X002602Y006234D01*
X002600Y006233D01*
X002600Y006152D01*
X002579Y005012D01*
X002517Y004950D01*
X001219Y004950D01*
X001182Y005039D01*
X001039Y005182D01*
X000876Y005250D01*
X001039Y005318D01*
X001182Y005461D01*
X001260Y005649D01*
X001260Y005851D01*
X001182Y006039D01*
X001039Y006182D01*
X000876Y006250D01*
X001039Y006318D01*
X001182Y006461D01*
X001260Y006649D01*
X001260Y006851D01*
X001182Y007039D01*
X001039Y007182D01*
X000876Y007250D01*
X001039Y007318D01*
X001182Y007461D01*
X001219Y007550D01*
X005167Y007550D01*
X005300Y007417D01*
X005300Y007291D02*
X000975Y007291D01*
X001089Y007133D02*
X004211Y007133D01*
X004203Y006974D02*
X001209Y006974D01*
X001260Y006816D02*
X004203Y006816D01*
X004205Y006657D02*
X001260Y006657D01*
X001198Y006499D02*
X002866Y006499D01*
X002707Y006340D02*
X001061Y006340D01*
X001040Y006182D02*
X002600Y006182D01*
X002598Y006023D02*
X001189Y006023D01*
X001255Y005865D02*
X002595Y005865D01*
X002592Y005706D02*
X001260Y005706D01*
X001218Y005548D02*
X002589Y005548D01*
X002586Y005389D02*
X001110Y005389D01*
X000923Y005231D02*
X002583Y005231D01*
X002580Y005072D02*
X001149Y005072D01*
X001219Y004550D02*
X002570Y004550D01*
X002558Y003885D01*
X002528Y003854D01*
X002526Y003857D01*
X002492Y003891D01*
X002451Y003915D01*
X002406Y003927D01*
X002184Y003927D01*
X002184Y003568D01*
X002147Y003568D01*
X002147Y003532D01*
X001769Y003532D01*
X001769Y003329D01*
X001781Y003284D01*
X001805Y003243D01*
X001838Y003209D01*
X001879Y003185D01*
X001925Y003173D01*
X002147Y003173D01*
X002147Y003532D01*
X002184Y003532D01*
X002184Y003173D01*
X002406Y003173D01*
X002451Y003185D01*
X002492Y003209D01*
X002526Y003243D01*
X002528Y003246D01*
X002560Y003213D01*
X002754Y003213D01*
X002900Y003067D01*
X003017Y002950D01*
X003322Y002950D01*
X003305Y002909D01*
X003305Y002791D01*
X003350Y002683D01*
X003380Y002653D01*
X003380Y002641D01*
X003345Y002641D01*
X003263Y002559D01*
X003263Y002010D01*
X003296Y001978D01*
X003293Y001976D01*
X003259Y001942D01*
X003235Y001901D01*
X003223Y001856D01*
X003223Y001634D01*
X003582Y001634D01*
X003582Y001597D01*
X003618Y001597D01*
X003618Y001219D01*
X003821Y001219D01*
X003866Y001231D01*
X003907Y001255D01*
X003941Y001288D01*
X003965Y001329D01*
X003977Y001375D01*
X003977Y001597D01*
X003618Y001597D01*
X003618Y001634D01*
X003977Y001634D01*
X003977Y001856D01*
X003965Y001901D01*
X003941Y001942D01*
X003907Y001976D01*
X003904Y001978D01*
X003937Y002010D01*
X003937Y002559D01*
X003866Y002630D01*
X004691Y002630D01*
X004820Y002759D01*
X005000Y002939D01*
X005180Y002759D01*
X005309Y002630D01*
X005691Y002630D01*
X006516Y003455D01*
X006559Y003455D01*
X006667Y003500D01*
X006750Y003583D01*
X006795Y003691D01*
X006795Y003809D01*
X006750Y003917D01*
X006667Y004000D01*
X006559Y004045D01*
X006441Y004045D01*
X006333Y004000D01*
X006250Y003917D01*
X006205Y003809D01*
X006205Y003766D01*
X006100Y003661D01*
X006100Y004333D01*
X005900Y004533D01*
X005783Y004650D01*
X005700Y004650D01*
X005700Y005059D01*
X005755Y005059D01*
X005837Y005141D01*
X005837Y005690D01*
X005777Y005750D01*
X005837Y005810D01*
X005837Y006359D01*
X005755Y006441D01*
X005700Y006441D01*
X005700Y007583D01*
X005583Y007700D01*
X005343Y007940D01*
X009912Y007940D01*
X009912Y006630D01*
X009670Y006630D01*
X009670Y006220D01*
X009530Y006220D01*
X009530Y006630D01*
X008776Y006630D01*
X008731Y006618D01*
X008689Y006594D01*
X008656Y006561D01*
X008632Y006519D01*
X008620Y006474D01*
X008620Y006220D01*
X009530Y006220D01*
X009530Y006080D01*
X009670Y006080D01*
X009670Y005670D01*
X009912Y005670D01*
X009912Y004630D01*
X009670Y004630D01*
X009670Y004220D01*
X009530Y004220D01*
X009530Y004630D01*
X008776Y004630D01*
X008731Y004618D01*
X008689Y004594D01*
X008656Y004561D01*
X008632Y004519D01*
X008620Y004474D01*
X008620Y004220D01*
X009530Y004220D01*
X009530Y004080D01*
X009670Y004080D01*
X009670Y003670D01*
X009912Y003670D01*
X009912Y002764D01*
X009884Y002812D01*
X009562Y003134D01*
X009168Y003362D01*
X008728Y003480D01*
X008272Y003480D01*
X007832Y003362D01*
X007438Y003134D01*
X007116Y002812D01*
X006888Y002418D01*
X006770Y001978D01*
X006770Y001522D01*
X006888Y001082D01*
X007116Y000688D01*
X007323Y000480D01*
X001300Y000480D01*
X001300Y000730D01*
X000770Y000730D01*
X000770Y000770D01*
X001300Y000770D01*
X001300Y001144D01*
X001288Y001189D01*
X001264Y001231D01*
X001231Y001264D01*
X001189Y001288D01*
X001144Y001300D01*
X000996Y001300D01*
X001039Y001318D01*
X001182Y001461D01*
X001260Y001649D01*
X001260Y001851D01*
X001182Y002039D01*
X001039Y002182D01*
X000876Y002250D01*
X001039Y002318D01*
X001182Y002461D01*
X001260Y002649D01*
X001260Y002851D01*
X001182Y003039D01*
X001039Y003182D01*
X000876Y003250D01*
X001039Y003318D01*
X001182Y003461D01*
X001260Y003649D01*
X001260Y003851D01*
X001182Y004039D01*
X001039Y004182D01*
X000876Y004250D01*
X001039Y004318D01*
X001182Y004461D01*
X001219Y004550D01*
X001159Y004438D02*
X002568Y004438D01*
X002565Y004280D02*
X000947Y004280D01*
X001100Y004121D02*
X002562Y004121D01*
X002559Y003963D02*
X001214Y003963D01*
X001260Y003804D02*
X001778Y003804D01*
X001781Y003816D02*
X001769Y003771D01*
X001769Y003568D01*
X002147Y003568D01*
X002147Y003927D01*
X001925Y003927D01*
X001879Y003915D01*
X001838Y003891D01*
X001805Y003857D01*
X001781Y003816D01*
X001769Y003646D02*
X001259Y003646D01*
X001193Y003487D02*
X001769Y003487D01*
X001769Y003329D02*
X001050Y003329D01*
X001051Y003170D02*
X002797Y003170D01*
X002900Y003067D02*
X002900Y003067D01*
X002956Y003012D02*
X001194Y003012D01*
X001259Y002853D02*
X003305Y002853D01*
X003345Y002695D02*
X001260Y002695D01*
X001213Y002536D02*
X003263Y002536D01*
X003263Y002378D02*
X001099Y002378D01*
X000950Y002219D02*
X003263Y002219D01*
X003263Y002061D02*
X001161Y002061D01*
X001239Y001902D02*
X003236Y001902D01*
X003223Y001744D02*
X001260Y001744D01*
X001234Y001585D02*
X003223Y001585D01*
X003223Y001597D02*
X003223Y001375D01*
X003235Y001329D01*
X003259Y001288D01*
X003293Y001255D01*
X003334Y001231D01*
X003379Y001219D01*
X003582Y001219D01*
X003582Y001597D01*
X003223Y001597D01*
X003223Y001427D02*
X001148Y001427D01*
X001224Y001268D02*
X003279Y001268D01*
X003582Y001268D02*
X003618Y001268D01*
X003618Y001427D02*
X003582Y001427D01*
X003582Y001585D02*
X003618Y001585D01*
X003977Y001585D02*
X006770Y001585D01*
X006770Y001744D02*
X003977Y001744D01*
X003964Y001902D02*
X006770Y001902D01*
X006792Y002061D02*
X003937Y002061D01*
X003937Y002219D02*
X006835Y002219D01*
X006877Y002378D02*
X003937Y002378D01*
X003937Y002536D02*
X006956Y002536D01*
X007048Y002695D02*
X005756Y002695D01*
X005600Y002850D02*
X006500Y003750D01*
X006205Y003804D02*
X006100Y003804D01*
X006100Y003963D02*
X006295Y003963D01*
X006100Y004121D02*
X009530Y004121D01*
X009530Y004080D02*
X008620Y004080D01*
X008620Y003826D01*
X008632Y003781D01*
X008656Y003739D01*
X008689Y003706D01*
X008731Y003682D01*
X008776Y003670D01*
X009530Y003670D01*
X009530Y004080D01*
X009530Y003963D02*
X009670Y003963D01*
X009670Y003804D02*
X009530Y003804D01*
X009912Y003646D02*
X006776Y003646D01*
X006795Y003804D02*
X008626Y003804D01*
X008620Y003963D02*
X006705Y003963D01*
X006100Y004280D02*
X008620Y004280D01*
X008620Y004438D02*
X005995Y004438D01*
X005836Y004597D02*
X008694Y004597D01*
X009100Y004597D02*
X007700Y004597D01*
X007700Y004755D02*
X009100Y004755D01*
X009100Y004914D02*
X007700Y004914D01*
X007700Y005072D02*
X009100Y005072D01*
X009100Y005231D02*
X007700Y005231D01*
X007700Y005389D02*
X009100Y005389D01*
X009100Y005548D02*
X007700Y005548D01*
X007700Y005706D02*
X009100Y005706D01*
X009100Y005865D02*
X007700Y005865D01*
X007700Y006023D02*
X009100Y006023D01*
X009100Y006182D02*
X007700Y006182D01*
X007700Y006340D02*
X009100Y006340D01*
X009100Y006499D02*
X007700Y006499D01*
X007700Y006550D02*
X007700Y003750D01*
X009100Y003750D01*
X009100Y006550D01*
X007700Y006550D01*
X008627Y006499D02*
X005700Y006499D01*
X005700Y006657D02*
X009912Y006657D01*
X009912Y006816D02*
X005700Y006816D01*
X005700Y006974D02*
X009912Y006974D01*
X009912Y007133D02*
X005700Y007133D01*
X005700Y007291D02*
X009912Y007291D01*
X009912Y007450D02*
X005700Y007450D01*
X005675Y007608D02*
X009912Y007608D01*
X009912Y007767D02*
X005516Y007767D01*
X005358Y007925D02*
X009912Y007925D01*
X009670Y006499D02*
X009530Y006499D01*
X009530Y006340D02*
X009670Y006340D01*
X009530Y006182D02*
X005837Y006182D01*
X005837Y006340D02*
X008620Y006340D01*
X008620Y006080D02*
X008620Y005826D01*
X008632Y005781D01*
X008656Y005739D01*
X008689Y005706D01*
X005821Y005706D01*
X005837Y005548D02*
X009912Y005548D01*
X009912Y005389D02*
X005837Y005389D01*
X005837Y005231D02*
X009912Y005231D01*
X009912Y005072D02*
X005768Y005072D01*
X005700Y004914D02*
X009912Y004914D01*
X009912Y004755D02*
X005700Y004755D01*
X005163Y005231D02*
X005102Y005231D01*
X005163Y005389D02*
X004944Y005389D01*
X004785Y005548D02*
X005163Y005548D01*
X005179Y005706D02*
X004859Y005706D01*
X004895Y005865D02*
X005163Y005865D01*
X005163Y006023D02*
X004957Y006023D01*
X004957Y006182D02*
X005163Y006182D01*
X005163Y006340D02*
X004957Y006340D01*
X004928Y006499D02*
X005300Y006499D01*
X005300Y006657D02*
X004995Y006657D01*
X004997Y006816D02*
X005300Y006816D01*
X005300Y006974D02*
X004997Y006974D01*
X004997Y006903D02*
X004997Y007105D01*
X004984Y007151D01*
X004961Y007192D01*
X004927Y007226D01*
X004886Y007249D01*
X004840Y007261D01*
X004618Y007261D01*
X004618Y006903D01*
X004997Y006903D01*
X004989Y007133D02*
X005300Y007133D01*
X004618Y007133D02*
X004582Y007133D01*
X004582Y006974D02*
X004618Y006974D01*
X005837Y006023D02*
X008620Y006023D01*
X008620Y006080D02*
X009530Y006080D01*
X009530Y005670D01*
X008776Y005670D01*
X008731Y005682D01*
X008689Y005706D01*
X008620Y005865D02*
X005837Y005865D01*
X007700Y004438D02*
X009100Y004438D01*
X009100Y004280D02*
X007700Y004280D01*
X007700Y004121D02*
X009100Y004121D01*
X009100Y003963D02*
X007700Y003963D01*
X007700Y003804D02*
X009100Y003804D01*
X009530Y004280D02*
X009670Y004280D01*
X009670Y004438D02*
X009530Y004438D01*
X009530Y004597D02*
X009670Y004597D01*
X009670Y005706D02*
X009530Y005706D01*
X009530Y005865D02*
X009670Y005865D01*
X009670Y006023D02*
X009530Y006023D01*
X009912Y003487D02*
X006636Y003487D01*
X006390Y003329D02*
X007774Y003329D01*
X007500Y003170D02*
X006231Y003170D01*
X006073Y003012D02*
X007315Y003012D01*
X007156Y002853D02*
X005914Y002853D01*
X005600Y002850D02*
X005400Y002850D01*
X005000Y003250D01*
X004600Y002850D01*
X003600Y002850D01*
X003600Y002285D01*
X003977Y001427D02*
X006796Y001427D01*
X006838Y001268D02*
X003921Y001268D01*
X004756Y002695D02*
X005244Y002695D01*
X005086Y002853D02*
X004914Y002853D01*
X006881Y001110D02*
X001300Y001110D01*
X001300Y000951D02*
X006964Y000951D01*
X007055Y000793D02*
X001300Y000793D01*
X001300Y000634D02*
X007169Y000634D01*
X009844Y002853D02*
X009912Y002853D01*
X009912Y003012D02*
X009685Y003012D01*
X009500Y003170D02*
X009912Y003170D01*
X009912Y003329D02*
X009226Y003329D01*
X002184Y003329D02*
X002147Y003329D01*
X002147Y003487D02*
X002184Y003487D01*
X002184Y003646D02*
X002147Y003646D01*
X002147Y003804D02*
X002184Y003804D01*
D17*
X008100Y004150D03*
X008500Y004450D03*
X008500Y005850D03*
X008100Y006150D03*
D18*
X005900Y004250D02*
X005900Y003433D01*
X005617Y003150D01*
X005383Y003150D01*
X005275Y003258D01*
X005275Y003305D01*
X005233Y003406D01*
X005156Y003483D01*
X005055Y003525D01*
X004945Y003525D01*
X004844Y003483D01*
X004767Y003406D01*
X004725Y003305D01*
X004725Y003258D01*
X004617Y003150D01*
X003100Y003150D01*
X003017Y003233D01*
X003101Y003233D01*
X003171Y003303D01*
X003171Y003370D01*
X003375Y003370D01*
X003380Y003375D01*
X003455Y003375D01*
X003556Y003417D01*
X003633Y003494D01*
X003675Y003595D01*
X003675Y003705D01*
X003633Y003806D01*
X003556Y003883D01*
X003455Y003925D01*
X003345Y003925D01*
X003244Y003883D01*
X003167Y003806D01*
X003165Y003802D01*
X003101Y003867D01*
X002758Y003867D01*
X002773Y004668D01*
X002780Y004675D01*
X002980Y004875D01*
X003055Y004875D01*
X003156Y004917D01*
X003233Y004994D01*
X003275Y005095D01*
X003275Y005205D01*
X003233Y005306D01*
X003156Y005383D01*
X003055Y005425D01*
X002945Y005425D01*
X002844Y005383D01*
X002785Y005324D01*
X002800Y006150D01*
X003100Y006450D01*
X004100Y006450D01*
X004200Y006350D01*
X004200Y005850D01*
X004620Y005430D01*
X004620Y005394D01*
X004663Y005291D01*
X004741Y005213D01*
X004844Y005170D01*
X004880Y005170D01*
X005600Y004450D01*
X005700Y004450D01*
X005900Y004250D01*
X005884Y004266D02*
X004879Y004266D01*
X004887Y004258D02*
X004808Y004337D01*
X004776Y004350D01*
X004808Y004363D01*
X004887Y004442D01*
X004929Y004544D01*
X004929Y004656D01*
X004887Y004758D01*
X004808Y004837D01*
X004706Y004879D01*
X004594Y004879D01*
X004492Y004837D01*
X004413Y004758D01*
X004400Y004726D01*
X004387Y004758D01*
X004308Y004837D01*
X004206Y004879D01*
X004094Y004879D01*
X003992Y004837D01*
X003913Y004758D01*
X003871Y004656D01*
X003871Y004544D01*
X003913Y004442D01*
X003992Y004363D01*
X004024Y004350D01*
X003992Y004337D01*
X003913Y004258D01*
X003871Y004156D01*
X003871Y004044D01*
X003913Y003942D01*
X003992Y003863D01*
X004094Y003821D01*
X004206Y003821D01*
X004308Y003863D01*
X004387Y003942D01*
X004400Y003974D01*
X004413Y003942D01*
X004492Y003863D01*
X004594Y003821D01*
X004706Y003821D01*
X004808Y003863D01*
X004887Y003942D01*
X004929Y004044D01*
X004929Y004156D01*
X004887Y004258D01*
X004929Y004148D02*
X005900Y004148D01*
X005900Y004029D02*
X004923Y004029D01*
X004855Y003911D02*
X005900Y003911D01*
X005900Y003792D02*
X003639Y003792D01*
X003675Y003674D02*
X005900Y003674D01*
X005900Y003555D02*
X003658Y003555D01*
X003575Y003437D02*
X004798Y003437D01*
X004731Y003318D02*
X003171Y003318D01*
X003050Y003200D02*
X004667Y003200D01*
X005202Y003437D02*
X005900Y003437D01*
X005785Y003318D02*
X005269Y003318D01*
X005333Y003200D02*
X005667Y003200D01*
X004445Y003911D02*
X004355Y003911D01*
X003945Y003911D02*
X003490Y003911D01*
X003310Y003911D02*
X002759Y003911D01*
X002761Y004029D02*
X003877Y004029D01*
X003871Y004148D02*
X002763Y004148D01*
X002765Y004266D02*
X003921Y004266D01*
X003971Y004385D02*
X002767Y004385D01*
X002769Y004503D02*
X003888Y004503D01*
X003871Y004622D02*
X002772Y004622D01*
X002845Y004740D02*
X003906Y004740D01*
X004000Y004850D02*
X003300Y005950D01*
X002931Y006281D02*
X004200Y006281D01*
X004200Y006162D02*
X002812Y006162D01*
X002798Y006044D02*
X004200Y006044D01*
X004200Y005925D02*
X002796Y005925D01*
X002794Y005807D02*
X004243Y005807D01*
X004362Y005688D02*
X002791Y005688D01*
X002789Y005570D02*
X004480Y005570D01*
X004599Y005451D02*
X002787Y005451D01*
X002785Y005333D02*
X002794Y005333D01*
X003000Y005150D02*
X002600Y004750D01*
X000750Y004750D01*
X002835Y003550D02*
X003300Y003550D01*
X003400Y003650D01*
X004394Y004740D02*
X004406Y004740D01*
X004545Y004859D02*
X004255Y004859D01*
X004045Y004859D02*
X002963Y004859D01*
X003216Y004977D02*
X005073Y004977D01*
X005191Y004859D02*
X004755Y004859D01*
X004600Y004850D02*
X004000Y004850D01*
X004600Y004850D02*
X004900Y004550D01*
X005500Y004550D01*
X005500Y005415D01*
X005100Y005650D02*
X005100Y007150D01*
X005500Y007500D02*
X005500Y006085D01*
X005100Y005650D02*
X004900Y005450D01*
X004646Y005333D02*
X003206Y005333D01*
X003271Y005214D02*
X004740Y005214D01*
X004954Y005096D02*
X003275Y005096D01*
X004600Y005851D02*
X004600Y006215D01*
X004151Y006399D02*
X003049Y006399D01*
X003300Y006850D02*
X003300Y006950D01*
X005250Y007750D02*
X005500Y007500D01*
X005250Y007750D02*
X000750Y007750D01*
X004894Y004740D02*
X005310Y004740D01*
X005428Y004622D02*
X004929Y004622D01*
X004912Y004503D02*
X005547Y004503D01*
X005765Y004385D02*
X004829Y004385D01*
X006000Y001850D02*
X005900Y001550D01*
X003600Y001615D02*
X003435Y001450D01*
X002600Y001450D01*
D19*
X003600Y002850D03*
X003400Y003650D03*
X003000Y004025D03*
X003000Y005150D03*
X003300Y005950D03*
X003500Y006350D03*
X003750Y005950D03*
X004000Y006350D03*
X004600Y005851D03*
X005800Y004750D03*
X006500Y003750D03*
X005500Y003250D03*
X005400Y003650D03*
X005000Y003250D03*
X005900Y001550D03*
D20*
X004900Y005450D03*
D21*
X006200Y007100D03*
X003600Y007200D03*
X002700Y007200D03*
X006400Y002700D03*
X004300Y000800D03*
X002500Y001300D03*
D22*
X001900Y005100D03*
M02*
