%
M48
M72
T01C0.0118
T02C0.0150
T03C0.0160
T04C0.0200
T05C0.0236
T06C0.0240
T07C0.0400
T08C0.2500
%
T01
X4150Y4100
X4400Y4350
X4150Y4600
X4650Y4600
X4650Y4100
T02
X5400Y3650
X5500Y3250
X5000Y3250
X3600Y2850
X3400Y3650
X3000Y4025
X3000Y5150
X3300Y5950
X3500Y6350
X3750Y5950
X4000Y6350
X4600Y5851
X5800Y4750
X6500Y3750
X5900Y1550
T03
X4900Y5450
T04
X1900Y5100
T05
X2700Y7200
X3600Y7200
X6200Y7100
X6400Y2700
X4300Y800
X2500Y1300
T06
X8100Y4150
X8500Y4450
X8500Y5850
X8100Y6150
T07
X750Y750
X750Y1750
X750Y2750
X750Y3750
X750Y4750
X750Y5750
X750Y6750
X750Y7750
T08
X8500Y1750
M30
