G75*
%MOIN*%
%OFA0B0*%
%FSLAX24Y24*%
%IPPOS*%
%LPD*%
%AMOC8*
5,1,8,0,0,1.08239X$1,22.5*
%
%ADD10C,0.0318*%
%ADD11C,0.0600*%
%ADD12C,0.0400*%
%ADD13C,0.0310*%
%ADD14C,0.0320*%
%ADD15C,0.0396*%
%ADD16C,0.0360*%
D10*
X004150Y004100D03*
X004400Y004350D03*
X004150Y004600D03*
X004650Y004600D03*
X004650Y004100D03*
D11*
X000750Y000750D03*
X000750Y001750D03*
X000750Y002750D03*
X000750Y003750D03*
X000750Y004750D03*
X000750Y005750D03*
X000750Y006750D03*
X000750Y007750D03*
D12*
X008100Y006150D03*
X008500Y005850D03*
X008500Y004450D03*
X008100Y004150D03*
D13*
X006500Y003750D03*
X005500Y003250D03*
X005400Y003650D03*
X005000Y003250D03*
X003600Y002850D03*
X003400Y003650D03*
X003000Y004025D03*
X003000Y005150D03*
X003300Y005950D03*
X003500Y006350D03*
X003750Y005950D03*
X004000Y006350D03*
X004600Y005851D03*
X005800Y004750D03*
X005900Y001550D03*
D14*
X004900Y005450D03*
D15*
X006200Y007100D03*
X003600Y007200D03*
X002700Y007200D03*
X006400Y002700D03*
X004300Y000800D03*
X002500Y001300D03*
D16*
X001900Y005100D03*
M02*
