G75*
%MOIN*%
%OFA0B0*%
%FSLAX24Y24*%
%IPPOS*%
%LPD*%
%AMOC8*
5,1,8,0,0,1.08239X$1,22.5*
%
%ADD10C,0.0318*%
%ADD11C,0.0600*%
%ADD12C,0.0400*%
%ADD13C,0.0310*%
%ADD14C,0.0320*%
%ADD15C,0.0120*%
%ADD16C,0.0396*%
%ADD17C,0.0360*%
D10*
X004150Y004100D03*
X004400Y004350D03*
X004150Y004600D03*
X004650Y004600D03*
X004650Y004100D03*
D11*
X000750Y003750D03*
X000750Y002750D03*
X000750Y001750D03*
X000750Y000750D03*
X000750Y004750D03*
X000750Y005750D03*
X000750Y006750D03*
X000750Y007750D03*
D12*
X008100Y006150D03*
X008500Y005850D03*
X008500Y004450D03*
X008100Y004150D03*
D13*
X006500Y003750D03*
X005500Y003250D03*
X005400Y003650D03*
X005000Y003250D03*
X003600Y002850D03*
X003400Y003650D03*
X003000Y004025D03*
X003000Y005150D03*
X003300Y005950D03*
X003500Y006350D03*
X003750Y005950D03*
X004000Y006350D03*
X004600Y005851D03*
X005800Y004750D03*
X005900Y001550D03*
D14*
X004900Y005450D03*
D15*
X007372Y000460D02*
X000460Y000460D01*
X000460Y001361D01*
X000478Y001343D01*
X000655Y001270D01*
X000845Y001270D01*
X001022Y001343D01*
X001157Y001478D01*
X001230Y001655D01*
X001230Y001845D01*
X001157Y002022D01*
X001022Y002157D01*
X000845Y002230D01*
X000655Y002230D01*
X000478Y002157D01*
X000460Y002139D01*
X000460Y002361D01*
X000478Y002343D01*
X000655Y002270D01*
X000845Y002270D01*
X001022Y002343D01*
X001157Y002478D01*
X001230Y002655D01*
X001230Y002845D01*
X001157Y003022D01*
X001022Y003157D01*
X000845Y003230D01*
X000655Y003230D01*
X000478Y003157D01*
X000460Y003139D01*
X000460Y003361D01*
X000478Y003343D01*
X000655Y003270D01*
X000845Y003270D01*
X001022Y003343D01*
X001157Y003478D01*
X001230Y003655D01*
X001230Y003845D01*
X001157Y004022D01*
X001022Y004157D01*
X000845Y004230D01*
X000655Y004230D01*
X000478Y004157D01*
X000460Y004139D01*
X000460Y004361D01*
X000478Y004343D01*
X000655Y004270D01*
X000845Y004270D01*
X001022Y004343D01*
X001157Y004478D01*
X001230Y004655D01*
X001230Y004845D01*
X001157Y005022D01*
X001022Y005157D01*
X000845Y005230D01*
X000655Y005230D01*
X000478Y005157D01*
X000460Y005139D01*
X000460Y005361D01*
X000478Y005343D01*
X000655Y005270D01*
X000845Y005270D01*
X001022Y005343D01*
X001157Y005478D01*
X001230Y005655D01*
X001230Y005845D01*
X001157Y006022D01*
X001022Y006157D01*
X000845Y006230D01*
X000655Y006230D01*
X000478Y006157D01*
X000460Y006139D01*
X000460Y006361D01*
X000478Y006343D01*
X000655Y006270D01*
X000845Y006270D01*
X001022Y006343D01*
X001157Y006478D01*
X001230Y006655D01*
X001230Y006845D01*
X001157Y007022D01*
X001022Y007157D01*
X000845Y007230D01*
X000655Y007230D01*
X000478Y007157D01*
X000460Y007139D01*
X000460Y007361D01*
X000478Y007343D01*
X000655Y007270D01*
X000845Y007270D01*
X001022Y007343D01*
X001157Y007478D01*
X001230Y007655D01*
X001230Y007845D01*
X001183Y007960D01*
X009932Y007960D01*
X009932Y002689D01*
X009868Y002800D01*
X009550Y003118D01*
X009160Y003343D01*
X008725Y003460D01*
X008275Y003460D01*
X007840Y003343D01*
X007450Y003118D01*
X007132Y002800D01*
X006907Y002410D01*
X006790Y001975D01*
X006790Y001525D01*
X006907Y001090D01*
X007132Y000700D01*
X007372Y000460D01*
X007358Y000474D02*
X000460Y000474D01*
X000460Y000593D02*
X007239Y000593D01*
X007125Y000711D02*
X000460Y000711D01*
X000460Y000830D02*
X007057Y000830D01*
X006988Y000948D02*
X000460Y000948D01*
X000460Y001067D02*
X006920Y001067D01*
X006881Y001185D02*
X000460Y001185D01*
X000460Y001304D02*
X000574Y001304D01*
X000926Y001304D02*
X006849Y001304D01*
X006818Y001422D02*
X001101Y001422D01*
X001183Y001541D02*
X006790Y001541D01*
X006790Y001659D02*
X001230Y001659D01*
X001230Y001778D02*
X006790Y001778D01*
X006790Y001896D02*
X001209Y001896D01*
X001160Y002015D02*
X006801Y002015D01*
X006832Y002133D02*
X001046Y002133D01*
X001049Y002370D02*
X006896Y002370D01*
X006864Y002252D02*
X000460Y002252D01*
X001161Y002489D02*
X006952Y002489D01*
X007020Y002607D02*
X003831Y002607D01*
X003790Y002566D02*
X003667Y002515D01*
X003533Y002515D01*
X003410Y002566D01*
X003316Y002660D01*
X003265Y002783D01*
X003265Y002917D01*
X003316Y003040D01*
X003410Y003134D01*
X003533Y003185D01*
X003667Y003185D01*
X003790Y003134D01*
X003884Y003040D01*
X003935Y002917D01*
X003935Y002783D01*
X003884Y002660D01*
X003790Y002566D01*
X003911Y002726D02*
X007089Y002726D01*
X007176Y002844D02*
X003935Y002844D01*
X003916Y002963D02*
X004819Y002963D01*
X004810Y002966D02*
X004716Y003060D01*
X004665Y003183D01*
X004665Y003317D01*
X004716Y003440D01*
X004810Y003534D01*
X004933Y003585D01*
X005065Y003585D01*
X005065Y003717D01*
X005116Y003840D01*
X005210Y003934D01*
X005333Y003985D01*
X005467Y003985D01*
X005590Y003934D01*
X005684Y003840D01*
X005735Y003717D01*
X005735Y003583D01*
X005707Y003516D01*
X005784Y003440D01*
X005835Y003317D01*
X005835Y003183D01*
X005784Y003060D01*
X005690Y002966D01*
X005567Y002915D01*
X005433Y002915D01*
X005310Y002966D01*
X005250Y003026D01*
X005190Y002966D01*
X005067Y002915D01*
X004933Y002915D01*
X004810Y002966D01*
X004707Y003081D02*
X003843Y003081D01*
X003590Y003366D02*
X003467Y003315D01*
X003333Y003315D01*
X003210Y003366D01*
X003116Y003460D01*
X003065Y003583D01*
X003065Y003690D01*
X002933Y003690D01*
X002810Y003741D01*
X002716Y003835D01*
X002665Y003958D01*
X002665Y004092D01*
X002716Y004215D01*
X002810Y004309D01*
X002933Y004360D01*
X003067Y004360D01*
X003190Y004309D01*
X003284Y004215D01*
X003335Y004092D01*
X003335Y003985D01*
X003467Y003985D01*
X003590Y003934D01*
X003684Y003840D01*
X003735Y003717D01*
X003735Y003583D01*
X003684Y003460D01*
X003590Y003366D01*
X003660Y003437D02*
X004715Y003437D01*
X004666Y003318D02*
X003474Y003318D01*
X003326Y003318D02*
X000961Y003318D01*
X000919Y003200D02*
X004665Y003200D01*
X004861Y003555D02*
X003723Y003555D01*
X003735Y003674D02*
X005065Y003674D01*
X005096Y003792D02*
X003704Y003792D01*
X003613Y003911D02*
X005187Y003911D01*
X005613Y003911D02*
X006204Y003911D01*
X006216Y003940D02*
X006165Y003817D01*
X006165Y003683D01*
X006216Y003560D01*
X006310Y003466D01*
X006433Y003415D01*
X006567Y003415D01*
X006690Y003466D01*
X006784Y003560D01*
X006835Y003683D01*
X006835Y003817D01*
X006784Y003940D01*
X006690Y004034D01*
X006567Y004085D01*
X006433Y004085D01*
X006310Y004034D01*
X006216Y003940D01*
X006305Y004029D02*
X003335Y004029D01*
X003312Y004148D02*
X009932Y004148D01*
X009932Y004266D02*
X003233Y004266D01*
X002767Y004266D02*
X000460Y004266D01*
X000460Y004148D02*
X000469Y004148D01*
X001031Y004148D02*
X002688Y004148D01*
X002665Y004029D02*
X001150Y004029D01*
X001203Y003911D02*
X002685Y003911D01*
X002759Y003792D02*
X001230Y003792D01*
X001230Y003674D02*
X003065Y003674D01*
X003077Y003555D02*
X001189Y003555D01*
X001115Y003437D02*
X003140Y003437D01*
X003357Y003081D02*
X001098Y003081D01*
X001182Y002963D02*
X003284Y002963D01*
X003265Y002844D02*
X001230Y002844D01*
X001230Y002726D02*
X003289Y002726D01*
X003369Y002607D02*
X001210Y002607D01*
X000581Y003200D02*
X000460Y003200D01*
X000460Y003318D02*
X000539Y003318D01*
X001063Y004385D02*
X009932Y004385D01*
X009932Y004503D02*
X001167Y004503D01*
X001216Y004622D02*
X009932Y004622D01*
X009932Y004740D02*
X001230Y004740D01*
X001225Y004859D02*
X002828Y004859D01*
X002810Y004866D02*
X002933Y004815D01*
X003067Y004815D01*
X003190Y004866D01*
X003284Y004960D01*
X003335Y005083D01*
X003335Y005217D01*
X003284Y005340D01*
X003190Y005434D01*
X003067Y005485D01*
X002933Y005485D01*
X002810Y005434D01*
X002716Y005340D01*
X002665Y005217D01*
X002665Y005083D01*
X002716Y004960D01*
X002810Y004866D01*
X002709Y004977D02*
X001176Y004977D01*
X001083Y005096D02*
X002665Y005096D01*
X002665Y005214D02*
X000884Y005214D01*
X000996Y005333D02*
X002713Y005333D01*
X002851Y005451D02*
X001130Y005451D01*
X001195Y005570D02*
X004408Y005570D01*
X004410Y005567D02*
X004533Y005516D01*
X004667Y005516D01*
X004790Y005567D01*
X004884Y005661D01*
X004935Y005784D01*
X004935Y005917D01*
X004884Y006041D01*
X004790Y006135D01*
X004667Y006186D01*
X004533Y006186D01*
X004410Y006135D01*
X004316Y006041D01*
X004265Y005917D01*
X004265Y005784D01*
X004316Y005661D01*
X004410Y005567D01*
X004305Y005688D02*
X003962Y005688D01*
X003940Y005666D02*
X004034Y005760D01*
X004085Y005883D01*
X004085Y006017D01*
X004083Y006022D01*
X004190Y006066D01*
X004284Y006160D01*
X004335Y006283D01*
X004335Y006417D01*
X004284Y006540D01*
X004190Y006634D01*
X004067Y006685D01*
X003933Y006685D01*
X003810Y006634D01*
X003750Y006574D01*
X003690Y006634D01*
X003567Y006685D01*
X003433Y006685D01*
X003310Y006634D01*
X003216Y006540D01*
X003165Y006417D01*
X003165Y006283D01*
X003174Y006261D01*
X003110Y006234D01*
X003016Y006140D01*
X002965Y006017D01*
X002965Y005883D01*
X003016Y005760D01*
X003110Y005666D01*
X003233Y005615D01*
X003367Y005615D01*
X003490Y005666D01*
X003525Y005701D01*
X003560Y005666D01*
X003683Y005615D01*
X003817Y005615D01*
X003940Y005666D01*
X004053Y005807D02*
X004265Y005807D01*
X004268Y005925D02*
X004085Y005925D01*
X004135Y006044D02*
X004319Y006044D01*
X004285Y006162D02*
X004476Y006162D01*
X004334Y006281D02*
X009932Y006281D01*
X009932Y006162D02*
X004724Y006162D01*
X004881Y006044D02*
X009932Y006044D01*
X009932Y005925D02*
X004932Y005925D01*
X004935Y005807D02*
X009932Y005807D01*
X009932Y005688D02*
X004895Y005688D01*
X004792Y005570D02*
X009932Y005570D01*
X009932Y005451D02*
X003149Y005451D01*
X003287Y005333D02*
X009932Y005333D01*
X009932Y005214D02*
X003335Y005214D01*
X003335Y005096D02*
X009932Y005096D01*
X009932Y004977D02*
X003291Y004977D01*
X003172Y004859D02*
X009932Y004859D01*
X009932Y004029D02*
X006695Y004029D01*
X006796Y003911D02*
X009932Y003911D01*
X009932Y003792D02*
X006835Y003792D01*
X006831Y003674D02*
X009932Y003674D01*
X009932Y003555D02*
X006779Y003555D01*
X006619Y003437D02*
X008187Y003437D01*
X007796Y003318D02*
X005834Y003318D01*
X005835Y003200D02*
X007591Y003200D01*
X007413Y003081D02*
X005793Y003081D01*
X005681Y002963D02*
X007294Y002963D01*
X006381Y003437D02*
X005785Y003437D01*
X005723Y003555D02*
X006221Y003555D01*
X006169Y003674D02*
X005735Y003674D01*
X005704Y003792D02*
X006165Y003792D01*
X005319Y002963D02*
X005181Y002963D01*
X003538Y005688D02*
X003512Y005688D01*
X003088Y005688D02*
X001230Y005688D01*
X001230Y005807D02*
X002997Y005807D01*
X002965Y005925D02*
X001197Y005925D01*
X001135Y006044D02*
X002976Y006044D01*
X003038Y006162D02*
X001010Y006162D01*
X000871Y006281D02*
X003166Y006281D01*
X003165Y006399D02*
X001078Y006399D01*
X001173Y006518D02*
X003207Y006518D01*
X003315Y006636D02*
X001222Y006636D01*
X001230Y006755D02*
X009932Y006755D01*
X009932Y006873D02*
X001219Y006873D01*
X001170Y006992D02*
X009932Y006992D01*
X009932Y007110D02*
X001069Y007110D01*
X000849Y007229D02*
X009932Y007229D01*
X009932Y007347D02*
X001026Y007347D01*
X001144Y007466D02*
X009932Y007466D01*
X009932Y007584D02*
X001201Y007584D01*
X001230Y007703D02*
X009932Y007703D01*
X009932Y007821D02*
X001230Y007821D01*
X001191Y007940D02*
X009932Y007940D01*
X009932Y006636D02*
X004185Y006636D01*
X004293Y006518D02*
X009932Y006518D01*
X009932Y006399D02*
X004335Y006399D01*
X003815Y006636D02*
X003685Y006636D01*
X000651Y007229D02*
X000460Y007229D01*
X000460Y007347D02*
X000474Y007347D01*
X000460Y006281D02*
X000629Y006281D01*
X000490Y006162D02*
X000460Y006162D01*
X000460Y005333D02*
X000504Y005333D01*
X000460Y005214D02*
X000616Y005214D01*
X008813Y003437D02*
X009932Y003437D01*
X009932Y003318D02*
X009204Y003318D01*
X009409Y003200D02*
X009932Y003200D01*
X009932Y003081D02*
X009587Y003081D01*
X009706Y002963D02*
X009932Y002963D01*
X009932Y002844D02*
X009824Y002844D01*
X009911Y002726D02*
X009932Y002726D01*
D16*
X006400Y002700D03*
X004300Y000800D03*
X002500Y001300D03*
X006200Y007100D03*
X003600Y007200D03*
X002700Y007200D03*
D17*
X001900Y005100D03*
M02*
