G75*
%MOIN*%
%OFA0B0*%
%FSLAX24Y24*%
%IPPOS*%
%LPD*%
%AMOC8*
5,1,8,0,0,1.08239X$1,22.5*
%
%ADD10C,0.0000*%
D10*
X000000Y000000D02*
X000000Y008420D01*
X010392Y008420D01*
X010392Y000000D01*
X000000Y000000D01*
X007250Y001750D02*
X007252Y001820D01*
X007258Y001890D01*
X007268Y001959D01*
X007281Y002028D01*
X007299Y002096D01*
X007320Y002163D01*
X007345Y002228D01*
X007374Y002292D01*
X007406Y002355D01*
X007442Y002415D01*
X007481Y002473D01*
X007523Y002529D01*
X007568Y002583D01*
X007616Y002634D01*
X007667Y002682D01*
X007721Y002727D01*
X007777Y002769D01*
X007835Y002808D01*
X007895Y002844D01*
X007958Y002876D01*
X008022Y002905D01*
X008087Y002930D01*
X008154Y002951D01*
X008222Y002969D01*
X008291Y002982D01*
X008360Y002992D01*
X008430Y002998D01*
X008500Y003000D01*
X008570Y002998D01*
X008640Y002992D01*
X008709Y002982D01*
X008778Y002969D01*
X008846Y002951D01*
X008913Y002930D01*
X008978Y002905D01*
X009042Y002876D01*
X009105Y002844D01*
X009165Y002808D01*
X009223Y002769D01*
X009279Y002727D01*
X009333Y002682D01*
X009384Y002634D01*
X009432Y002583D01*
X009477Y002529D01*
X009519Y002473D01*
X009558Y002415D01*
X009594Y002355D01*
X009626Y002292D01*
X009655Y002228D01*
X009680Y002163D01*
X009701Y002096D01*
X009719Y002028D01*
X009732Y001959D01*
X009742Y001890D01*
X009748Y001820D01*
X009750Y001750D01*
X009748Y001680D01*
X009742Y001610D01*
X009732Y001541D01*
X009719Y001472D01*
X009701Y001404D01*
X009680Y001337D01*
X009655Y001272D01*
X009626Y001208D01*
X009594Y001145D01*
X009558Y001085D01*
X009519Y001027D01*
X009477Y000971D01*
X009432Y000917D01*
X009384Y000866D01*
X009333Y000818D01*
X009279Y000773D01*
X009223Y000731D01*
X009165Y000692D01*
X009105Y000656D01*
X009042Y000624D01*
X008978Y000595D01*
X008913Y000570D01*
X008846Y000549D01*
X008778Y000531D01*
X008709Y000518D01*
X008640Y000508D01*
X008570Y000502D01*
X008500Y000500D01*
X008430Y000502D01*
X008360Y000508D01*
X008291Y000518D01*
X008222Y000531D01*
X008154Y000549D01*
X008087Y000570D01*
X008022Y000595D01*
X007958Y000624D01*
X007895Y000656D01*
X007835Y000692D01*
X007777Y000731D01*
X007721Y000773D01*
X007667Y000818D01*
X007616Y000866D01*
X007568Y000917D01*
X007523Y000971D01*
X007481Y001027D01*
X007442Y001085D01*
X007406Y001145D01*
X007374Y001208D01*
X007345Y001272D01*
X007320Y001337D01*
X007299Y001404D01*
X007281Y001472D01*
X007268Y001541D01*
X007258Y001610D01*
X007252Y001680D01*
X007250Y001750D01*
M02*
