G75*
%MOIN*%
%OFA0B0*%
%FSLAX24Y24*%
%IPPOS*%
%LPD*%
%AMOC8*
5,1,8,0,0,1.08239X$1,22.5*
%
%ADD10C,0.0060*%
%ADD11R,0.0299X0.0110*%
%ADD12R,0.0110X0.0299*%
%ADD13R,0.0945X0.0945*%
%ADD14C,0.0318*%
%ADD15R,0.0138X0.0394*%
%ADD16R,0.0472X0.0551*%
%ADD17R,0.0433X0.0394*%
%ADD18R,0.0354X0.0276*%
%ADD19R,0.1600X0.0600*%
%ADD20R,0.0740X0.0740*%
%ADD21C,0.0740*%
%ADD22C,0.0120*%
%ADD23C,0.0160*%
%ADD24C,0.0400*%
%ADD25C,0.0310*%
%ADD26C,0.0320*%
%ADD27C,0.0396*%
%ADD28C,0.0360*%
%ADD29C,0.0100*%
%ADD30C,0.0140*%
%ADD31C,0.0200*%
D10*
X005198Y000404D02*
X005198Y000620D01*
X005306Y000620D01*
X005342Y000584D01*
X005342Y000512D01*
X005306Y000476D01*
X005198Y000476D01*
X005270Y000476D02*
X005342Y000404D01*
X005452Y000440D02*
X005487Y000404D01*
X005559Y000404D01*
X005595Y000440D01*
X005595Y000512D01*
X005559Y000548D01*
X005487Y000548D01*
X005452Y000512D01*
X005452Y000440D01*
X005705Y000404D02*
X005813Y000404D01*
X005849Y000440D01*
X005849Y000512D01*
X005813Y000548D01*
X005705Y000548D01*
X005705Y000620D02*
X005705Y000404D01*
X005959Y000440D02*
X005959Y000512D01*
X005995Y000548D01*
X006067Y000548D01*
X006103Y000512D01*
X006103Y000440D01*
X006067Y000404D01*
X005995Y000404D01*
X005959Y000440D01*
X006213Y000440D02*
X006249Y000404D01*
X006285Y000404D01*
X006321Y000440D01*
X006321Y000620D01*
X006285Y000620D02*
X006357Y000620D01*
X006503Y000548D02*
X006574Y000548D01*
X006610Y000512D01*
X006610Y000404D01*
X006503Y000404D01*
X006467Y000440D01*
X006503Y000476D01*
X006610Y000476D01*
X006720Y000512D02*
X006720Y000440D01*
X006756Y000404D01*
X006864Y000404D01*
X006974Y000404D02*
X006974Y000620D01*
X007082Y000548D02*
X006974Y000476D01*
X007082Y000404D01*
X007186Y000440D02*
X007186Y000512D01*
X007222Y000548D01*
X007293Y000548D01*
X007329Y000512D01*
X007329Y000476D01*
X007186Y000476D01*
X007186Y000440D02*
X007222Y000404D01*
X007293Y000404D01*
X007475Y000440D02*
X007511Y000404D01*
X007475Y000440D02*
X007475Y000584D01*
X007439Y000548D02*
X007511Y000548D01*
X007608Y000512D02*
X007644Y000476D01*
X007716Y000476D01*
X007752Y000440D01*
X007716Y000404D01*
X007608Y000404D01*
X007608Y000512D02*
X007644Y000548D01*
X007752Y000548D01*
X006864Y000548D02*
X006756Y000548D01*
X006720Y000512D01*
D11*
X005101Y003956D03*
X005101Y004153D03*
X005101Y004350D03*
X005101Y004547D03*
X005101Y004744D03*
X003699Y004744D03*
X003699Y004547D03*
X003699Y004350D03*
X003699Y004153D03*
X003699Y003956D03*
D12*
X004006Y003649D03*
X004203Y003649D03*
X004400Y003649D03*
X004597Y003649D03*
X004794Y003649D03*
X004794Y005051D03*
X004597Y005051D03*
X004400Y005051D03*
X004203Y005051D03*
X004006Y005051D03*
D13*
X004400Y004350D03*
D14*
X004400Y004350D03*
X004150Y004100D03*
X004650Y004100D03*
X004650Y004600D03*
X004150Y004600D03*
D15*
X006144Y004104D03*
X006400Y004104D03*
X006656Y004104D03*
X006656Y003396D03*
X006400Y003396D03*
X006144Y003396D03*
D16*
X003915Y002283D03*
X003285Y002283D03*
X003285Y001417D03*
X003915Y001417D03*
D17*
X004765Y001550D03*
X005435Y001550D03*
X006765Y005850D03*
X007435Y005850D03*
D18*
X006700Y005206D03*
X006200Y005206D03*
X006200Y004694D03*
X006700Y004694D03*
D19*
X009600Y005150D03*
X009600Y004150D03*
X009600Y006150D03*
D20*
X000750Y000750D03*
D21*
X000750Y001750D03*
X000750Y002750D03*
X000750Y003750D03*
X000750Y004750D03*
X000750Y005750D03*
X000750Y006750D03*
X000750Y007750D03*
D22*
X000750Y006750D02*
X002756Y004744D01*
X003699Y004744D01*
X003696Y004550D02*
X003699Y004547D01*
X003696Y004550D02*
X001950Y004550D01*
X000750Y005750D01*
X001350Y004350D02*
X000750Y003750D01*
X001350Y003350D02*
X000750Y002750D01*
X001350Y003350D02*
X003800Y003350D01*
X004006Y003556D01*
X004006Y003649D01*
X004203Y003649D02*
X004203Y003453D01*
X003900Y003150D01*
X002150Y003150D01*
X000750Y001750D01*
X003050Y003570D02*
X003050Y003750D01*
X002700Y003750D01*
X002700Y004130D01*
X003369Y004130D01*
X003280Y004041D01*
X003280Y003941D01*
X003222Y003917D01*
X003133Y003828D01*
X003085Y003713D01*
X003085Y003587D01*
X003092Y003570D01*
X003050Y003570D01*
X003050Y003674D02*
X003085Y003674D01*
X003118Y003792D02*
X002700Y003792D01*
X002700Y003911D02*
X003215Y003911D01*
X003280Y004029D02*
X002700Y004029D01*
X003400Y003650D02*
X003500Y003750D01*
X003500Y003950D01*
X003506Y003956D01*
X003699Y003956D01*
X003699Y004350D02*
X001350Y004350D01*
X002700Y005249D02*
X002700Y006450D01*
X003000Y006750D01*
X005100Y006750D01*
X005400Y006450D01*
X005400Y004570D01*
X005032Y004570D01*
X005032Y004889D01*
X005014Y004907D01*
X005014Y005151D01*
X005081Y005179D01*
X005171Y005269D01*
X005220Y005386D01*
X005220Y005514D01*
X005171Y005631D01*
X005081Y005721D01*
X004964Y005770D01*
X004907Y005770D01*
X004915Y005788D01*
X004915Y005913D01*
X004867Y006029D01*
X004778Y006118D01*
X004663Y006166D01*
X004537Y006166D01*
X004422Y006118D01*
X004333Y006029D01*
X004285Y005913D01*
X004285Y005788D01*
X004333Y005672D01*
X004379Y005626D01*
X004378Y005307D01*
X004325Y005360D01*
X004008Y005360D01*
X003998Y005370D01*
X003225Y005370D01*
X003178Y005417D01*
X003063Y005465D01*
X002937Y005465D01*
X002822Y005417D01*
X002733Y005328D01*
X002700Y005249D01*
X002700Y005333D02*
X002737Y005333D01*
X002700Y005451D02*
X002904Y005451D01*
X003096Y005451D02*
X004378Y005451D01*
X004300Y005450D02*
X004400Y005350D01*
X004400Y005051D01*
X004597Y005051D02*
X004600Y005851D01*
X004915Y005807D02*
X005400Y005807D01*
X005400Y005925D02*
X004910Y005925D01*
X004853Y006044D02*
X005400Y006044D01*
X005400Y006162D02*
X004672Y006162D01*
X004528Y006162D02*
X002700Y006162D01*
X002700Y006044D02*
X004347Y006044D01*
X004290Y005925D02*
X002700Y005925D01*
X002700Y005807D02*
X004285Y005807D01*
X004326Y005688D02*
X002700Y005688D01*
X002700Y005570D02*
X004379Y005570D01*
X004378Y005333D02*
X004352Y005333D01*
X004203Y005051D02*
X004203Y004653D01*
X004400Y004456D01*
X004400Y004350D01*
X004650Y004600D01*
X004794Y004744D01*
X004794Y005051D01*
X004794Y005344D01*
X004900Y005450D01*
X005220Y005451D02*
X005400Y005451D01*
X005400Y005570D02*
X005197Y005570D01*
X005115Y005688D02*
X005400Y005688D01*
X005400Y005333D02*
X005198Y005333D01*
X005117Y005214D02*
X005400Y005214D01*
X005400Y005096D02*
X005014Y005096D01*
X005014Y004977D02*
X005400Y004977D01*
X005400Y004859D02*
X005032Y004859D01*
X005032Y004740D02*
X005400Y004740D01*
X005400Y004622D02*
X005032Y004622D01*
X005101Y004744D02*
X005194Y004744D01*
X005200Y004750D01*
X005101Y004350D02*
X005500Y004350D01*
X005746Y004104D01*
X006144Y004104D01*
X006393Y003950D02*
X006407Y003950D01*
X006407Y003833D01*
X006512Y003727D01*
X006700Y003727D01*
X006700Y003550D01*
X006393Y003550D01*
X006393Y003667D01*
X006310Y003750D01*
X006393Y003833D01*
X006393Y003950D01*
X006393Y003911D02*
X006407Y003911D01*
X006448Y003792D02*
X006352Y003792D01*
X006500Y003750D02*
X006600Y003750D01*
X006700Y003674D02*
X006387Y003674D01*
X006393Y003555D02*
X006700Y003555D01*
X006144Y003396D02*
X006044Y003506D01*
X005397Y004153D01*
X005101Y004153D01*
X005101Y003956D02*
X005300Y003757D01*
X005300Y003750D01*
X005500Y003550D01*
X005500Y003250D01*
X005600Y003350D01*
X005600Y002950D01*
X005400Y002750D01*
X004900Y002750D01*
X004600Y003050D01*
X004600Y003646D01*
X004597Y003649D01*
X004400Y003649D02*
X004400Y001915D01*
X004765Y001550D01*
X004665Y001417D01*
X003285Y002283D02*
X003285Y002465D01*
X004620Y002650D02*
X004620Y003319D01*
X004685Y003254D01*
X004685Y003187D01*
X004733Y003072D01*
X004822Y002983D01*
X004937Y002935D01*
X005063Y002935D01*
X005178Y002983D01*
X005267Y003072D01*
X005315Y003187D01*
X005315Y003313D01*
X005267Y003428D01*
X005178Y003517D01*
X005063Y003565D01*
X005020Y003565D01*
X005020Y003734D01*
X005009Y003745D01*
X005009Y003788D01*
X005032Y003811D01*
X005032Y003933D01*
X005306Y003933D01*
X005885Y003354D01*
X005900Y003337D01*
X005900Y002750D01*
X005790Y002650D01*
X004620Y002650D01*
X004620Y002726D02*
X005873Y002726D01*
X005900Y002844D02*
X004620Y002844D01*
X004620Y002963D02*
X004871Y002963D01*
X004729Y003081D02*
X004620Y003081D01*
X004620Y003200D02*
X004685Y003200D01*
X004620Y003318D02*
X004621Y003318D01*
X004800Y003450D02*
X005000Y003250D01*
X004800Y003450D02*
X004800Y003643D01*
X004794Y003649D01*
X005020Y003674D02*
X005565Y003674D01*
X005684Y003555D02*
X005087Y003555D01*
X005259Y003437D02*
X005802Y003437D01*
X005900Y003318D02*
X005313Y003318D01*
X005315Y003200D02*
X005900Y003200D01*
X005900Y003081D02*
X005271Y003081D01*
X005129Y002963D02*
X005900Y002963D01*
X005447Y003792D02*
X005013Y003792D01*
X005032Y003911D02*
X005328Y003911D01*
X004650Y004100D02*
X004400Y004350D01*
X004150Y004100D01*
X004150Y004600D02*
X004203Y004653D01*
X004006Y005051D02*
X003907Y005150D01*
X003000Y005150D01*
X003300Y005750D02*
X003300Y005950D01*
X002700Y006281D02*
X005400Y006281D01*
X005400Y006399D02*
X002700Y006399D01*
X002768Y006518D02*
X005332Y006518D01*
X005214Y006636D02*
X002886Y006636D01*
X005800Y004750D02*
X005844Y004694D01*
X006200Y004694D01*
X006656Y004694D02*
X006700Y004694D01*
X006800Y005150D02*
X006100Y005150D01*
X006000Y005250D01*
X006000Y005950D01*
X006100Y006050D01*
X006800Y006050D01*
X006900Y005950D01*
X006900Y005250D01*
X006800Y005150D01*
X006864Y005214D02*
X006036Y005214D01*
X006000Y005333D02*
X006900Y005333D01*
X006900Y005451D02*
X006000Y005451D01*
X006000Y005570D02*
X006900Y005570D01*
X006900Y005688D02*
X006000Y005688D01*
X006000Y005807D02*
X006900Y005807D01*
X006900Y005925D02*
X006000Y005925D01*
X006094Y006044D02*
X006806Y006044D01*
X006700Y005206D02*
X006200Y005206D01*
D23*
X007700Y005231D02*
X007753Y005231D01*
X007700Y005283D02*
X008113Y004870D01*
X008234Y004820D01*
X008366Y004820D01*
X008570Y004820D01*
X008570Y004755D01*
X007700Y004755D01*
X007700Y004597D02*
X009100Y004597D01*
X009100Y004620D02*
X009100Y003750D01*
X007700Y003750D01*
X007700Y005283D01*
X007700Y005072D02*
X007911Y005072D01*
X008070Y004914D02*
X007700Y004914D01*
X007700Y004438D02*
X009100Y004438D01*
X009100Y004280D02*
X007700Y004280D01*
X007700Y004121D02*
X009100Y004121D01*
X009100Y003963D02*
X007700Y003963D01*
X007700Y003804D02*
X009100Y003804D01*
X009100Y004620D02*
X008705Y004620D01*
X008570Y004755D01*
X008570Y005480D02*
X008437Y005480D01*
X007881Y006036D01*
X007881Y006142D01*
X007746Y006277D01*
X007700Y006277D01*
X007700Y006550D01*
X009100Y006550D01*
X009100Y005680D01*
X008705Y005680D01*
X008570Y005545D01*
X008570Y005480D01*
X008572Y005548D02*
X008369Y005548D01*
X008211Y005706D02*
X009100Y005706D01*
X009100Y005865D02*
X008052Y005865D01*
X007894Y006023D02*
X009100Y006023D01*
X009100Y006182D02*
X007842Y006182D01*
X007700Y006340D02*
X009100Y006340D01*
X009100Y006499D02*
X007700Y006499D01*
X003600Y002850D02*
X003285Y002465D01*
X003915Y001417D02*
X004665Y001417D01*
X005435Y001550D02*
X005900Y001550D01*
D24*
X008100Y004150D03*
X008500Y004450D03*
X008500Y005850D03*
X008100Y006150D03*
D25*
X005800Y004750D03*
X006500Y003750D03*
X005500Y003250D03*
X005400Y003650D03*
X005000Y003250D03*
X003600Y002850D03*
X003400Y003650D03*
X003000Y004025D03*
X003000Y005150D03*
X003300Y005950D03*
X003500Y006350D03*
X003750Y005950D03*
X004000Y006350D03*
X004600Y005851D03*
X005900Y001550D03*
D26*
X004900Y005450D03*
D27*
X006200Y007100D03*
X003600Y007200D03*
X002700Y007200D03*
X006400Y002700D03*
X004300Y000800D03*
X002500Y001300D03*
D28*
X001900Y005100D03*
D29*
X003000Y004025D02*
X003197Y004153D01*
X003699Y004153D01*
D30*
X006656Y004104D02*
X006656Y004694D01*
D31*
X007435Y005850D02*
X007600Y005850D01*
X008300Y005150D01*
X009600Y005150D01*
M02*
