G75*
%MOIN*%
%OFA0B0*%
%FSLAX24Y24*%
%IPPOS*%
%LPD*%
%AMOC8*
5,1,8,0,0,1.08239X$1,22.5*
%
%ADD10C,0.2580*%
%ADD11R,0.0379X0.0190*%
%ADD12R,0.0190X0.0379*%
%ADD13R,0.1025X0.1025*%
%ADD14R,0.0218X0.0474*%
%ADD15R,0.0552X0.0631*%
%ADD16R,0.0513X0.0474*%
%ADD17R,0.0434X0.0356*%
%ADD18R,0.1680X0.0680*%
%ADD19R,0.0820X0.0820*%
%ADD20C,0.0820*%
D10*
X008500Y001750D03*
D11*
X005101Y003956D03*
X005101Y004153D03*
X005101Y004350D03*
X005101Y004547D03*
X005101Y004744D03*
X003699Y004744D03*
X003699Y004547D03*
X003699Y004350D03*
X003699Y004153D03*
X003699Y003956D03*
D12*
X004006Y003649D03*
X004203Y003649D03*
X004400Y003649D03*
X004597Y003649D03*
X004794Y003649D03*
X004794Y005051D03*
X004597Y005051D03*
X004400Y005051D03*
X004203Y005051D03*
X004006Y005051D03*
D13*
X004400Y004350D03*
D14*
X006144Y004104D03*
X006400Y004104D03*
X006656Y004104D03*
X006656Y003396D03*
X006400Y003396D03*
X006144Y003396D03*
D15*
X003915Y002283D03*
X003285Y002283D03*
X003285Y001417D03*
X003915Y001417D03*
D16*
X004765Y001550D03*
X005435Y001550D03*
X006765Y005850D03*
X007435Y005850D03*
D17*
X006700Y005206D03*
X006200Y005206D03*
X006200Y004694D03*
X006700Y004694D03*
D18*
X009600Y005150D03*
X009600Y004150D03*
X009600Y006150D03*
D19*
X000750Y000750D03*
D20*
X000750Y001750D03*
X000750Y002750D03*
X000750Y003750D03*
X000750Y004750D03*
X000750Y005750D03*
X000750Y006750D03*
X000750Y007750D03*
M02*
