G75*
%MOIN*%
%OFA0B0*%
%FSLAX24Y24*%
%IPPOS*%
%LPD*%
%AMOC8*
5,1,8,0,0,1.08239X$1,22.5*
%
%ADD10C,0.0070*%
%ADD11C,0.0120*%
%ADD12C,0.0030*%
%ADD13C,0.0020*%
%ADD14R,0.0050X0.1650*%
%ADD15R,0.4500X0.0050*%
%ADD16C,0.0050*%
%ADD17C,0.0067*%
%ADD18R,0.0006X0.0002*%
%ADD19R,0.0010X0.0002*%
%ADD20R,0.0010X0.0002*%
%ADD21R,0.0014X0.0002*%
%ADD22R,0.0014X0.0002*%
%ADD23R,0.0008X0.0002*%
%ADD24R,0.0006X0.0002*%
%ADD25R,0.0008X0.0002*%
%ADD26R,0.0004X0.0002*%
%ADD27R,0.0004X0.0002*%
%ADD28R,0.0002X0.0002*%
%ADD29R,0.0026X0.0002*%
%ADD30R,0.0042X0.0002*%
%ADD31R,0.0002X0.0002*%
%ADD32R,0.0002X0.0002*%
%ADD33R,0.0050X0.0002*%
%ADD34R,0.0002X0.0002*%
%ADD35R,0.0074X0.0002*%
%ADD36R,0.0086X0.0002*%
%ADD37R,0.0102X0.0002*%
%ADD38R,0.0110X0.0002*%
%ADD39R,0.0118X0.0002*%
%ADD40R,0.0114X0.0002*%
%ADD41R,0.0114X0.0002*%
%ADD42R,0.0106X0.0002*%
%ADD43R,0.0084X0.0002*%
%ADD44R,0.0076X0.0002*%
%ADD45R,0.0058X0.0002*%
%ADD46R,0.0046X0.0002*%
%ADD47R,0.0028X0.0002*%
%ADD48R,0.0016X0.0002*%
%ADD49R,0.0030X0.0002*%
%ADD50R,0.0072X0.0002*%
%ADD51R,0.0098X0.0002*%
%ADD52R,0.0112X0.0002*%
%ADD53R,0.0138X0.0002*%
%ADD54R,0.0152X0.0002*%
%ADD55R,0.0162X0.0002*%
%ADD56R,0.0166X0.0002*%
%ADD57R,0.0166X0.0002*%
%ADD58R,0.0164X0.0002*%
%ADD59R,0.0108X0.0002*%
%ADD60R,0.0078X0.0002*%
%ADD61R,0.0066X0.0002*%
%ADD62R,0.0038X0.0002*%
%ADD63R,0.0034X0.0002*%
%ADD64R,0.0036X0.0002*%
%ADD65R,0.0066X0.0002*%
%ADD66R,0.0088X0.0002*%
%ADD67R,0.0118X0.0002*%
%ADD68R,0.0142X0.0002*%
%ADD69R,0.0170X0.0002*%
%ADD70R,0.0190X0.0002*%
%ADD71R,0.0210X0.0002*%
%ADD72R,0.0212X0.0002*%
%ADD73R,0.0214X0.0002*%
%ADD74R,0.0214X0.0002*%
%ADD75R,0.0202X0.0002*%
%ADD76R,0.0158X0.0002*%
%ADD77R,0.0142X0.0002*%
%ADD78R,0.0106X0.0002*%
%ADD79R,0.0090X0.0002*%
%ADD80R,0.0056X0.0002*%
%ADD81R,0.0036X0.0002*%
%ADD82R,0.0012X0.0002*%
%ADD83R,0.0034X0.0002*%
%ADD84R,0.0072X0.0002*%
%ADD85R,0.0094X0.0002*%
%ADD86R,0.0134X0.0002*%
%ADD87R,0.0154X0.0002*%
%ADD88R,0.0194X0.0002*%
%ADD89R,0.0242X0.0002*%
%ADD90R,0.0242X0.0002*%
%ADD91R,0.0248X0.0002*%
%ADD92R,0.0246X0.0002*%
%ADD93R,0.0232X0.0002*%
%ADD94R,0.0192X0.0002*%
%ADD95R,0.0170X0.0002*%
%ADD96R,0.0004X0.0002*%
%ADD97R,0.0070X0.0002*%
%ADD98R,0.0062X0.0002*%
%ADD99R,0.0078X0.0002*%
%ADD100R,0.0086X0.0002*%
%ADD101R,0.0094X0.0002*%
%ADD102R,0.0098X0.0002*%
%ADD103R,0.0108X0.0002*%
%ADD104R,0.0048X0.0002*%
%ADD105R,0.0120X0.0002*%
%ADD106R,0.0074X0.0002*%
%ADD107R,0.0122X0.0002*%
%ADD108R,0.0116X0.0002*%
%ADD109R,0.0130X0.0002*%
%ADD110R,0.0134X0.0002*%
%ADD111R,0.0292X0.0002*%
%ADD112R,0.0292X0.0002*%
%ADD113R,0.0294X0.0002*%
%ADD114R,0.0294X0.0002*%
%ADD115R,0.0298X0.0002*%
%ADD116R,0.0264X0.0002*%
%ADD117R,0.0238X0.0002*%
%ADD118R,0.0198X0.0002*%
%ADD119R,0.0200X0.0002*%
%ADD120R,0.0202X0.0002*%
%ADD121R,0.0216X0.0002*%
%ADD122R,0.0224X0.0002*%
%ADD123R,0.0226X0.0002*%
%ADD124R,0.0232X0.0002*%
%ADD125R,0.0250X0.0002*%
%ADD126R,0.0254X0.0002*%
%ADD127R,0.0274X0.0002*%
%ADD128R,0.0276X0.0002*%
%ADD129R,0.0284X0.0002*%
%ADD130R,0.0290X0.0002*%
%ADD131R,0.0314X0.0002*%
%ADD132R,0.0312X0.0002*%
%ADD133R,0.0294X0.0002*%
%ADD134R,0.0018X0.0002*%
%ADD135R,0.0288X0.0002*%
%ADD136R,0.0020X0.0002*%
%ADD137R,0.0286X0.0002*%
%ADD138R,0.0286X0.0002*%
%ADD139R,0.0022X0.0002*%
%ADD140R,0.0020X0.0002*%
%ADD141R,0.0022X0.0002*%
%ADD142R,0.0288X0.0002*%
%ADD143R,0.0022X0.0002*%
%ADD144R,0.0022X0.0002*%
%ADD145R,0.0024X0.0002*%
%ADD146R,0.0284X0.0002*%
%ADD147R,0.0024X0.0002*%
%ADD148R,0.0282X0.0002*%
%ADD149R,0.0248X0.0002*%
%ADD150R,0.0236X0.0002*%
%ADD151R,0.0034X0.0002*%
%ADD152R,0.0234X0.0002*%
%ADD153R,0.0226X0.0002*%
%ADD154R,0.0024X0.0002*%
%ADD155R,0.0222X0.0002*%
%ADD156R,0.0024X0.0002*%
%ADD157R,0.0032X0.0002*%
%ADD158R,0.0204X0.0002*%
%ADD159R,0.0190X0.0002*%
%ADD160R,0.0026X0.0002*%
%ADD161R,0.0188X0.0002*%
%ADD162R,0.0186X0.0002*%
%ADD163R,0.0188X0.0002*%
%ADD164R,0.0016X0.0002*%
%ADD165R,0.0142X0.0002*%
%ADD166R,0.0038X0.0002*%
%ADD167R,0.0126X0.0002*%
%ADD168R,0.0122X0.0002*%
%ADD169R,0.0110X0.0002*%
%ADD170R,0.0104X0.0002*%
%ADD171R,0.0018X0.0002*%
%ADD172R,0.0094X0.0002*%
%ADD173R,0.0084X0.0002*%
%ADD174R,0.0034X0.0002*%
%ADD175R,0.0052X0.0002*%
%ADD176R,0.0044X0.0002*%
%ADD177R,0.0046X0.0002*%
%ADD178R,0.0050X0.0002*%
%ADD179R,0.0032X0.0002*%
%ADD180R,0.0054X0.0002*%
%ADD181R,0.0028X0.0002*%
%ADD182R,0.0060X0.0002*%
%ADD183R,0.0032X0.0002*%
%ADD184R,0.0062X0.0002*%
%ADD185R,0.0102X0.0002*%
%ADD186R,0.0100X0.0002*%
%ADD187R,0.0030X0.0002*%
%ADD188R,0.0100X0.0002*%
%ADD189R,0.0124X0.0002*%
%ADD190R,0.0132X0.0002*%
%ADD191R,0.0154X0.0002*%
%ADD192R,0.0156X0.0002*%
%ADD193R,0.0196X0.0002*%
%ADD194R,0.0194X0.0002*%
%ADD195R,0.0192X0.0002*%
%ADD196R,0.0186X0.0002*%
%ADD197R,0.0192X0.0002*%
%ADD198R,0.0068X0.0002*%
%ADD199R,0.0200X0.0002*%
%ADD200R,0.0068X0.0002*%
%ADD201R,0.0202X0.0002*%
%ADD202R,0.0070X0.0002*%
%ADD203R,0.0222X0.0002*%
%ADD204R,0.0250X0.0002*%
%ADD205R,0.0246X0.0002*%
%ADD206R,0.0076X0.0002*%
%ADD207R,0.0242X0.0002*%
%ADD208R,0.0080X0.0002*%
%ADD209R,0.0244X0.0002*%
%ADD210R,0.0082X0.0002*%
%ADD211R,0.0254X0.0002*%
%ADD212R,0.0258X0.0002*%
%ADD213R,0.0274X0.0002*%
%ADD214R,0.0042X0.0002*%
%ADD215R,0.0040X0.0002*%
%ADD216R,0.0262X0.0002*%
%ADD217R,0.0260X0.0002*%
%ADD218R,0.0054X0.0002*%
%ADD219R,0.0058X0.0002*%
%ADD220R,0.0040X0.0002*%
%ADD221R,0.0232X0.0002*%
%ADD222R,0.0218X0.0002*%
%ADD223R,0.0054X0.0002*%
%ADD224R,0.0212X0.0002*%
%ADD225R,0.0042X0.0002*%
%ADD226R,0.0096X0.0002*%
%ADD227R,0.0060X0.0002*%
%ADD228R,0.0138X0.0002*%
%ADD229R,0.0196X0.0002*%
%ADD230R,0.0142X0.0002*%
%ADD231R,0.0182X0.0002*%
%ADD232R,0.0114X0.0002*%
%ADD233R,0.0144X0.0002*%
%ADD234R,0.0048X0.0002*%
%ADD235R,0.0176X0.0002*%
%ADD236R,0.0120X0.0002*%
%ADD237R,0.0014X0.0002*%
%ADD238R,0.0146X0.0002*%
%ADD239R,0.0174X0.0002*%
%ADD240R,0.0126X0.0002*%
%ADD241R,0.0160X0.0002*%
%ADD242R,0.0136X0.0002*%
%ADD243R,0.0148X0.0002*%
%ADD244R,0.0140X0.0002*%
%ADD245R,0.0146X0.0002*%
%ADD246R,0.0012X0.0002*%
%ADD247R,0.0012X0.0002*%
%ADD248R,0.0044X0.0002*%
%ADD249R,0.0102X0.0002*%
%ADD250R,0.0174X0.0002*%
%ADD251R,0.0090X0.0002*%
%ADD252R,0.0182X0.0002*%
%ADD253R,0.0104X0.0002*%
%ADD254R,0.0194X0.0002*%
%ADD255R,0.0104X0.0002*%
%ADD256R,0.0206X0.0002*%
%ADD257R,0.0150X0.0002*%
%ADD258R,0.0230X0.0002*%
%ADD259R,0.0150X0.0002*%
%ADD260R,0.0204X0.0002*%
%ADD261R,0.0082X0.0002*%
%ADD262R,0.0056X0.0002*%
%ADD263R,0.0052X0.0002*%
%ADD264R,0.0162X0.0002*%
%ADD265R,0.0064X0.0002*%
%ADD266R,0.0004X0.0002*%
%ADD267R,0.0052X0.0002*%
%ADD268R,0.0124X0.0002*%
%ADD269R,0.0180X0.0002*%
%ADD270R,0.0102X0.0002*%
%ADD271R,0.0082X0.0002*%
%ADD272R,0.0088X0.0002*%
%ADD273R,0.0112X0.0002*%
%ADD274R,0.0096X0.0002*%
%ADD275R,0.0054X0.0002*%
%ADD276R,0.0132X0.0002*%
%ADD277R,0.0042X0.0002*%
%ADD278R,0.0148X0.0002*%
%ADD279R,0.0062X0.0002*%
%ADD280R,0.0154X0.0002*%
%ADD281R,0.0162X0.0002*%
%ADD282R,0.0074X0.0002*%
%ADD283R,0.0080X0.0002*%
%ADD284R,0.0092X0.0002*%
%ADD285R,0.0174X0.0002*%
%ADD286R,0.0178X0.0002*%
%ADD287R,0.0178X0.0002*%
%ADD288R,0.0116X0.0002*%
%ADD289R,0.0032X0.0002*%
%ADD290R,0.0072X0.0002*%
%ADD291R,0.0014X0.0002*%
%ADD292R,0.0122X0.0002*%
%ADD293R,0.0082X0.0002*%
%ADD294R,0.0134X0.0002*%
%ADD295R,0.0122X0.0002*%
%ADD296R,0.0092X0.0002*%
%ADD297R,0.0130X0.0002*%
%ADD298R,0.0182X0.0002*%
%ADD299R,0.0162X0.0002*%
%ADD300R,0.0128X0.0002*%
%ADD301R,0.0158X0.0002*%
%ADD302R,0.0194X0.0002*%
%ADD303R,0.0208X0.0002*%
%ADD304R,0.0218X0.0002*%
%ADD305R,0.0224X0.0002*%
%ADD306R,0.0228X0.0002*%
%ADD307R,0.0234X0.0002*%
%ADD308R,0.0238X0.0002*%
%ADD309R,0.0254X0.0002*%
%ADD310R,0.0062X0.0002*%
%ADD311R,0.0258X0.0002*%
%ADD312R,0.0262X0.0002*%
%ADD313R,0.0262X0.0002*%
%ADD314R,0.0266X0.0002*%
%ADD315R,0.0264X0.0002*%
%ADD316R,0.0268X0.0002*%
%ADD317R,0.0268X0.0002*%
%ADD318R,0.0270X0.0002*%
%ADD319R,0.0270X0.0002*%
%ADD320R,0.0272X0.0002*%
%ADD321R,0.0274X0.0002*%
%ADD322R,0.0262X0.0002*%
%ADD323R,0.0282X0.0002*%
%ADD324R,0.0306X0.0002*%
%ADD325R,0.0242X0.0002*%
%ADD326R,0.0252X0.0002*%
%ADD327R,0.0112X0.0002*%
%ADD328R,0.0294X0.0002*%
%ADD329R,0.0310X0.0002*%
%ADD330R,0.0322X0.0002*%
%ADD331R,0.0324X0.0002*%
%ADD332R,0.0326X0.0002*%
%ADD333R,0.0328X0.0002*%
%ADD334R,0.0330X0.0002*%
%ADD335R,0.0144X0.0002*%
%ADD336R,0.0326X0.0002*%
%ADD337R,0.0154X0.0002*%
%ADD338R,0.0156X0.0002*%
%ADD339R,0.0330X0.0002*%
%ADD340R,0.0368X0.0002*%
%ADD341R,0.0362X0.0002*%
%ADD342R,0.0168X0.0002*%
%ADD343R,0.0364X0.0002*%
%ADD344R,0.0358X0.0002*%
%ADD345R,0.0172X0.0002*%
%ADD346R,0.0358X0.0002*%
%ADD347R,0.0356X0.0002*%
%ADD348R,0.0322X0.0002*%
%ADD349R,0.0180X0.0002*%
%ADD350R,0.0220X0.0002*%
%ADD351R,0.0220X0.0002*%
%ADD352R,0.0282X0.0002*%
%ADD353R,0.0302X0.0002*%
%ADD354R,0.0356X0.0002*%
%ADD355R,0.0360X0.0002*%
%ADD356R,0.0360X0.0002*%
%ADD357R,0.0198X0.0002*%
%ADD358R,0.0366X0.0002*%
%ADD359R,0.0372X0.0002*%
%ADD360R,0.0044X0.0002*%
%ADD361R,0.0426X0.0002*%
%ADD362R,0.0422X0.0002*%
%ADD363R,0.0424X0.0002*%
%ADD364R,0.0204X0.0002*%
%ADD365R,0.0202X0.0002*%
%ADD366R,0.0192X0.0002*%
%ADD367R,0.0064X0.0002*%
%ADD368R,0.0052X0.0002*%
%ADD369R,0.0206X0.0002*%
%ADD370R,0.0208X0.0002*%
%ADD371R,0.0184X0.0002*%
%ADD372R,0.0176X0.0002*%
%ADD373R,0.0210X0.0002*%
%ADD374R,0.0174X0.0002*%
%ADD375R,0.0072X0.0002*%
%ADD376R,0.0074X0.0002*%
%ADD377R,0.0184X0.0002*%
%ADD378R,0.0012X0.0002*%
%ADD379C,0.0080*%
D10*
X001635Y000690D02*
X001690Y000635D01*
X001800Y000635D01*
X001855Y000690D01*
X001855Y000800D01*
X001745Y000800D01*
X001635Y000910D02*
X001635Y000690D01*
X001635Y000910D02*
X001690Y000965D01*
X001800Y000965D01*
X001855Y000910D01*
X002003Y000965D02*
X002224Y000635D01*
X002224Y000965D01*
X002372Y000965D02*
X002537Y000965D01*
X002592Y000910D01*
X002592Y000690D01*
X002537Y000635D01*
X002372Y000635D01*
X002372Y000965D01*
X002003Y000965D02*
X002003Y000635D01*
X002058Y001385D02*
X002003Y001440D01*
X002058Y001385D02*
X002168Y001385D01*
X002224Y001440D01*
X002224Y001495D01*
X002168Y001550D01*
X002058Y001550D01*
X002003Y001605D01*
X002003Y001660D01*
X002058Y001715D01*
X002168Y001715D01*
X002224Y001660D01*
X002337Y001855D02*
X001600Y001855D01*
X001690Y001715D02*
X001635Y001660D01*
X001635Y001440D01*
X001690Y001385D01*
X001800Y001385D01*
X001855Y001440D01*
X001855Y001660D02*
X001800Y001715D01*
X001690Y001715D01*
X001690Y002385D02*
X001800Y002385D01*
X001855Y002440D01*
X001855Y002550D01*
X001745Y002550D01*
X001635Y002440D02*
X001690Y002385D01*
X001635Y002440D02*
X001635Y002660D01*
X001690Y002715D01*
X001800Y002715D01*
X001855Y002660D01*
X002003Y002715D02*
X002168Y002715D01*
X002224Y002660D01*
X002224Y002440D01*
X002168Y002385D01*
X002003Y002385D01*
X002003Y002715D01*
X002372Y002660D02*
X002372Y002440D01*
X002427Y002385D01*
X002537Y002385D01*
X002592Y002440D01*
X002592Y002660D01*
X002537Y002715D01*
X002427Y002715D01*
X002372Y002660D01*
X002740Y002660D02*
X002740Y002440D01*
X002960Y002660D01*
X002960Y002440D01*
X002905Y002385D01*
X002795Y002385D01*
X002740Y002440D01*
X002740Y002660D02*
X002795Y002715D01*
X002905Y002715D01*
X002960Y002660D01*
X003040Y002650D02*
X003040Y001100D01*
X003040Y002650D02*
X004200Y002650D01*
X002960Y003365D02*
X002740Y003365D01*
X002960Y003585D01*
X002960Y003640D01*
X002905Y003695D01*
X002795Y003695D01*
X002740Y003640D01*
X002592Y003640D02*
X002537Y003695D01*
X002427Y003695D01*
X002372Y003640D01*
X002372Y003420D01*
X002427Y003365D01*
X002537Y003365D01*
X002592Y003420D01*
X002592Y003640D01*
X002224Y003640D02*
X002224Y003420D01*
X002168Y003365D01*
X002003Y003365D01*
X002003Y003695D01*
X002168Y003695D01*
X002224Y003640D01*
X001855Y003640D02*
X001800Y003695D01*
X001690Y003695D01*
X001635Y003640D01*
X001635Y003420D01*
X001690Y003365D01*
X001800Y003365D01*
X001855Y003420D01*
X001855Y003530D01*
X001745Y003530D01*
X001635Y004385D02*
X001635Y004715D01*
X001745Y004605D01*
X001855Y004715D01*
X001855Y004385D01*
X002003Y004440D02*
X002058Y004385D01*
X002168Y004385D01*
X002224Y004440D01*
X002224Y004660D01*
X002168Y004715D01*
X002058Y004715D01*
X002003Y004660D01*
X002003Y004440D01*
X002372Y004440D02*
X002427Y004385D01*
X002537Y004385D01*
X002592Y004440D01*
X002592Y004495D01*
X002537Y004550D01*
X002427Y004550D01*
X002372Y004605D01*
X002372Y004660D01*
X002427Y004715D01*
X002537Y004715D01*
X002592Y004660D01*
X002740Y004715D02*
X002850Y004715D01*
X002795Y004715D02*
X002795Y004385D01*
X002740Y004385D02*
X002850Y004385D01*
X002782Y005385D02*
X002672Y005385D01*
X002617Y005440D01*
X002617Y005660D01*
X002672Y005715D01*
X002782Y005715D01*
X002837Y005660D01*
X002837Y005440D01*
X002782Y005385D01*
X002469Y005440D02*
X002414Y005385D01*
X002304Y005385D01*
X002249Y005440D01*
X002304Y005550D02*
X002414Y005550D01*
X002469Y005495D01*
X002469Y005440D01*
X002304Y005550D02*
X002249Y005605D01*
X002249Y005660D01*
X002304Y005715D01*
X002414Y005715D01*
X002469Y005660D01*
X002113Y005715D02*
X002003Y005715D01*
X002058Y005715D02*
X002058Y005385D01*
X002003Y005385D02*
X002113Y005385D01*
X001855Y005385D02*
X001855Y005715D01*
X001745Y005605D01*
X001635Y005715D01*
X001635Y005385D01*
X001690Y006385D02*
X001635Y006440D01*
X001690Y006385D02*
X001800Y006385D01*
X001855Y006440D01*
X001855Y006495D01*
X001800Y006550D01*
X001690Y006550D01*
X001635Y006605D01*
X001635Y006660D01*
X001690Y006715D01*
X001800Y006715D01*
X001855Y006660D01*
X002003Y006660D02*
X002003Y006440D01*
X002058Y006385D01*
X002168Y006385D01*
X002224Y006440D01*
X002372Y006385D02*
X002592Y006385D01*
X002740Y006385D02*
X002740Y006715D01*
X002795Y006550D02*
X002960Y006385D01*
X002740Y006495D02*
X002960Y006715D01*
X002372Y006715D02*
X002372Y006385D01*
X002224Y006660D02*
X002168Y006715D01*
X002058Y006715D01*
X002003Y006660D01*
X002058Y007385D02*
X002168Y007385D01*
X002224Y007440D01*
X002058Y007385D02*
X002003Y007440D01*
X002003Y007660D01*
X002058Y007715D01*
X002168Y007715D01*
X002224Y007660D01*
X002372Y007660D02*
X002372Y007440D01*
X002427Y007385D01*
X002537Y007385D01*
X002592Y007440D01*
X002592Y007660D02*
X002537Y007715D01*
X002427Y007715D01*
X002372Y007660D01*
X001855Y007715D02*
X001855Y007495D01*
X001745Y007385D01*
X001635Y007495D01*
X001635Y007715D01*
D11*
X006514Y007673D02*
X006603Y007585D01*
X006780Y007585D01*
X006868Y007673D01*
X007113Y007673D02*
X007201Y007585D01*
X007378Y007585D01*
X007467Y007673D01*
X007711Y007585D02*
X008065Y007585D01*
X007888Y007585D02*
X007888Y008115D01*
X007711Y007939D01*
X007467Y008027D02*
X007378Y008115D01*
X007201Y008115D01*
X007113Y008027D01*
X007113Y007673D01*
X006868Y008027D02*
X006780Y008115D01*
X006603Y008115D01*
X006514Y008027D01*
X006514Y007673D01*
X008310Y007585D02*
X008664Y007585D01*
X008487Y007585D02*
X008487Y008115D01*
X008310Y007939D01*
X008909Y008027D02*
X008909Y007673D01*
X009262Y008027D01*
X009262Y007673D01*
X009174Y007585D01*
X008997Y007585D01*
X008909Y007673D01*
X008909Y008027D02*
X008997Y008115D01*
X009174Y008115D01*
X009262Y008027D01*
X009507Y007939D02*
X009684Y008115D01*
X009684Y007585D01*
X009507Y007585D02*
X009861Y007585D01*
D12*
X007383Y006320D02*
X007383Y006279D01*
X007342Y006238D01*
X007383Y006197D01*
X007383Y006156D01*
X007342Y006115D01*
X007260Y006115D01*
X007219Y006156D01*
X007129Y006156D02*
X007088Y006115D01*
X007006Y006115D01*
X006965Y006156D01*
X006965Y006320D01*
X007006Y006361D01*
X007088Y006361D01*
X007129Y006320D01*
X007219Y006320D02*
X007260Y006361D01*
X007342Y006361D01*
X007383Y006320D01*
X007342Y006238D02*
X007301Y006238D01*
X005935Y005092D02*
X005935Y005010D01*
X005894Y004969D01*
X005812Y004969D02*
X005771Y005051D01*
X005771Y005092D01*
X005812Y005133D01*
X005894Y005133D01*
X005935Y005092D01*
X005812Y004969D02*
X005689Y004969D01*
X005689Y005133D01*
X005730Y004879D02*
X005689Y004838D01*
X005689Y004756D01*
X005730Y004715D01*
X005894Y004715D01*
X005935Y004756D01*
X005935Y004838D01*
X005894Y004879D01*
X005935Y004033D02*
X005935Y003869D01*
X005935Y003951D02*
X005689Y003951D01*
X005771Y003869D01*
X005689Y003779D02*
X005894Y003779D01*
X005935Y003738D01*
X005935Y003656D01*
X005894Y003615D01*
X005689Y003615D01*
X004560Y002659D02*
X004314Y002495D01*
X004314Y002405D02*
X004314Y002241D01*
X004314Y002323D02*
X004560Y002323D01*
X004478Y002405D01*
X004560Y002495D02*
X004314Y002659D01*
X004916Y002031D02*
X004875Y001990D01*
X004875Y001826D01*
X004916Y001785D01*
X004998Y001785D01*
X005039Y001826D01*
X005129Y001785D02*
X005293Y001785D01*
X005211Y001785D02*
X005211Y002031D01*
X005129Y001949D01*
X005039Y001990D02*
X004998Y002031D01*
X004916Y002031D01*
X003501Y003878D02*
X003501Y003960D01*
X003501Y003919D02*
X003255Y003919D01*
X003255Y003878D02*
X003255Y003960D01*
X003296Y004047D02*
X003460Y004047D01*
X003501Y004088D01*
X003501Y004170D01*
X003460Y004211D01*
X003501Y004301D02*
X003501Y004464D01*
X003501Y004382D02*
X003255Y004382D01*
X003337Y004301D01*
X003296Y004211D02*
X003255Y004170D01*
X003255Y004088D01*
X003296Y004047D01*
X003298Y005425D02*
X003215Y005508D01*
X003215Y005592D01*
X003298Y005675D01*
X003387Y005634D02*
X003387Y005467D01*
X003429Y005425D01*
X003512Y005425D01*
X003554Y005467D01*
X003554Y005550D01*
X003470Y005550D01*
X003387Y005634D02*
X003429Y005675D01*
X003512Y005675D01*
X003554Y005634D01*
X003645Y005675D02*
X003770Y005675D01*
X003812Y005634D01*
X003812Y005467D01*
X003770Y005425D01*
X003645Y005425D01*
X003645Y005675D01*
X003903Y005634D02*
X003903Y005467D01*
X003944Y005425D01*
X004028Y005425D01*
X004069Y005467D01*
X004069Y005634D01*
X004028Y005675D01*
X003944Y005675D01*
X003903Y005634D01*
X004160Y005592D02*
X004244Y005675D01*
X004244Y005425D01*
X004327Y005425D02*
X004160Y005425D01*
X004418Y005425D02*
X004502Y005508D01*
X004502Y005592D01*
X004418Y005675D01*
X004447Y007425D02*
X004530Y007508D01*
X004530Y007592D01*
X004447Y007675D01*
X004356Y007675D02*
X004356Y007508D01*
X004273Y007425D01*
X004189Y007508D01*
X004189Y007675D01*
X004098Y007634D02*
X004098Y007592D01*
X004057Y007550D01*
X004098Y007508D01*
X004098Y007467D01*
X004057Y007425D01*
X003973Y007425D01*
X003931Y007467D01*
X003844Y007467D02*
X003844Y007425D01*
X003803Y007425D01*
X003803Y007467D01*
X003844Y007467D01*
X003712Y007467D02*
X003712Y007508D01*
X003670Y007550D01*
X003628Y007550D01*
X003670Y007550D02*
X003712Y007592D01*
X003712Y007634D01*
X003670Y007675D01*
X003586Y007675D01*
X003545Y007634D01*
X003454Y007550D02*
X003287Y007550D01*
X003370Y007467D02*
X003370Y007634D01*
X003198Y007675D02*
X003115Y007592D01*
X003115Y007508D01*
X003198Y007425D01*
X003545Y007467D02*
X003586Y007425D01*
X003670Y007425D01*
X003712Y007467D01*
X003931Y007634D02*
X003973Y007675D01*
X004057Y007675D01*
X004098Y007634D01*
X004057Y007550D02*
X004015Y007550D01*
X006965Y004984D02*
X007006Y005025D01*
X007047Y005025D01*
X007211Y004861D01*
X007211Y005025D01*
X006965Y004984D02*
X006965Y004902D01*
X007006Y004861D01*
X007211Y004771D02*
X007211Y004607D01*
X006965Y004607D01*
D13*
X007369Y006910D02*
X007369Y007090D01*
X007309Y007090D02*
X007429Y007090D01*
X007493Y007030D02*
X007493Y006910D01*
X007493Y006970D02*
X007553Y007030D01*
X007583Y007030D01*
X007676Y007030D02*
X007736Y007030D01*
X007766Y007000D01*
X007766Y006910D01*
X007676Y006910D01*
X007646Y006940D01*
X007676Y006970D01*
X007766Y006970D01*
X007830Y006910D02*
X007830Y007030D01*
X007920Y007030D01*
X007950Y007000D01*
X007950Y006910D01*
X008014Y006910D02*
X008105Y006910D01*
X008135Y006940D01*
X008105Y006970D01*
X008044Y006970D01*
X008014Y007000D01*
X008044Y007030D01*
X008135Y007030D01*
X008199Y007000D02*
X008199Y006940D01*
X008229Y006910D01*
X008319Y006910D01*
X008383Y006940D02*
X008383Y007000D01*
X008413Y007030D01*
X008473Y007030D01*
X008503Y007000D01*
X008503Y006970D01*
X008383Y006970D01*
X008383Y006940D02*
X008413Y006910D01*
X008473Y006910D01*
X008567Y006910D02*
X008627Y006910D01*
X008597Y006910D02*
X008597Y007030D01*
X008567Y007030D01*
X008597Y007090D02*
X008597Y007120D01*
X008536Y007210D02*
X008656Y007390D01*
X008720Y007360D02*
X008720Y007330D01*
X008750Y007300D01*
X008840Y007300D01*
X008840Y007240D02*
X008840Y007360D01*
X008810Y007390D01*
X008750Y007390D01*
X008720Y007360D01*
X008720Y007240D02*
X008750Y007210D01*
X008810Y007210D01*
X008840Y007240D01*
X008905Y007210D02*
X009025Y007210D01*
X008965Y007210D02*
X008965Y007390D01*
X008905Y007330D01*
X009089Y007300D02*
X009149Y007330D01*
X009179Y007330D01*
X009209Y007300D01*
X009209Y007240D01*
X009179Y007210D01*
X009119Y007210D01*
X009089Y007240D01*
X009089Y007300D02*
X009089Y007390D01*
X009209Y007390D01*
X009457Y007390D02*
X009457Y007210D01*
X009577Y007210D02*
X009577Y007390D01*
X009517Y007330D01*
X009457Y007390D01*
X009641Y007390D02*
X009641Y007210D01*
X009641Y007300D02*
X009761Y007300D01*
X009825Y007330D02*
X009945Y007330D01*
X009825Y007210D01*
X009945Y007210D01*
X009761Y007210D02*
X009761Y007390D01*
X009148Y007030D02*
X009118Y007030D01*
X009058Y006970D01*
X009058Y006910D02*
X009058Y007030D01*
X008994Y007000D02*
X008994Y006970D01*
X008874Y006970D01*
X008874Y006940D02*
X008874Y007000D01*
X008904Y007030D01*
X008964Y007030D01*
X008994Y007000D01*
X008964Y006910D02*
X008904Y006910D01*
X008874Y006940D01*
X008810Y007030D02*
X008750Y006910D01*
X008690Y007030D01*
X008472Y007240D02*
X008472Y007360D01*
X008442Y007390D01*
X008382Y007390D01*
X008352Y007360D01*
X008352Y007330D01*
X008382Y007300D01*
X008472Y007300D01*
X008472Y007240D02*
X008442Y007210D01*
X008382Y007210D01*
X008352Y007240D01*
X008288Y007240D02*
X008258Y007210D01*
X008198Y007210D01*
X008168Y007240D01*
X008168Y007300D01*
X008258Y007300D01*
X008288Y007270D01*
X008288Y007240D01*
X008228Y007360D02*
X008168Y007300D01*
X008104Y007270D02*
X008104Y007240D01*
X008074Y007210D01*
X008014Y007210D01*
X007984Y007240D01*
X007984Y007270D01*
X008014Y007300D01*
X008074Y007300D01*
X008104Y007270D01*
X008074Y007300D02*
X008104Y007330D01*
X008104Y007360D01*
X008074Y007390D01*
X008014Y007390D01*
X007984Y007360D01*
X007984Y007330D01*
X008014Y007300D01*
X007920Y007390D02*
X007800Y007210D01*
X007736Y007240D02*
X007706Y007210D01*
X007645Y007210D01*
X007615Y007240D01*
X007551Y007240D02*
X007521Y007210D01*
X007461Y007210D01*
X007431Y007240D01*
X007491Y007300D02*
X007521Y007300D01*
X007551Y007270D01*
X007551Y007240D01*
X007521Y007300D02*
X007551Y007330D01*
X007551Y007360D01*
X007521Y007390D01*
X007461Y007390D01*
X007431Y007360D01*
X007367Y007300D02*
X007247Y007300D01*
X007337Y007390D01*
X007337Y007210D01*
X007183Y007390D02*
X007063Y007210D01*
X006999Y007240D02*
X006969Y007210D01*
X006909Y007210D01*
X006879Y007240D01*
X006879Y007300D02*
X006939Y007330D01*
X006969Y007330D01*
X006999Y007300D01*
X006999Y007240D01*
X006879Y007300D02*
X006879Y007390D01*
X006999Y007390D01*
X006755Y007390D02*
X006755Y007210D01*
X006695Y007210D02*
X006815Y007210D01*
X006631Y007240D02*
X006601Y007210D01*
X006541Y007210D01*
X006511Y007240D01*
X006571Y007300D02*
X006601Y007300D01*
X006631Y007270D01*
X006631Y007240D01*
X006601Y007300D02*
X006631Y007330D01*
X006631Y007360D01*
X006601Y007390D01*
X006541Y007390D01*
X006511Y007360D01*
X006695Y007330D02*
X006755Y007390D01*
X007615Y007360D02*
X007645Y007390D01*
X007706Y007390D01*
X007736Y007360D01*
X007736Y007330D01*
X007706Y007300D01*
X007736Y007270D01*
X007736Y007240D01*
X007706Y007300D02*
X007675Y007300D01*
X008228Y007360D02*
X008288Y007390D01*
X008319Y007030D02*
X008229Y007030D01*
X008199Y007000D01*
D14*
X005875Y007575D03*
D15*
X008150Y006775D03*
D16*
X006900Y004450D02*
X006800Y004350D01*
X006800Y003150D01*
X006000Y003150D01*
X006000Y004350D01*
X006800Y004350D01*
X005187Y003622D02*
X005128Y003563D01*
X003672Y003563D01*
X003613Y003622D01*
X003613Y005078D01*
X003672Y005137D01*
X005128Y005137D01*
X005187Y005078D01*
X005187Y003622D01*
X003758Y004975D02*
X003760Y004982D01*
X003764Y004988D01*
X003771Y004992D01*
X003779Y004992D01*
X003786Y004988D01*
X003790Y004982D01*
X003792Y004975D01*
X003790Y004968D01*
X003786Y004962D01*
X003779Y004958D01*
X003771Y004958D01*
X003764Y004962D01*
X003760Y004968D01*
X003758Y004975D01*
D17*
X004191Y002598D02*
X004191Y001102D01*
X003009Y001102D01*
D18*
X006180Y001564D03*
X006190Y001558D03*
X006318Y001574D03*
X006326Y001578D03*
X006334Y001582D03*
X006336Y001584D03*
X006344Y001588D03*
X006352Y001592D03*
X006404Y001604D03*
X006482Y001654D03*
X006516Y001684D03*
X006540Y001704D03*
X006568Y001728D03*
X006572Y001732D03*
X006604Y001764D03*
X006570Y001682D03*
X006532Y001492D03*
X006560Y001472D03*
X006618Y001494D03*
X006636Y001472D03*
X006642Y001474D03*
X006650Y001478D03*
X006660Y001484D03*
X006882Y001402D03*
X006898Y001462D03*
X006900Y001472D03*
X006946Y001454D03*
X006950Y001462D03*
X006944Y001444D03*
X006948Y001564D03*
X007008Y001608D03*
X007044Y001772D03*
X006616Y001932D03*
X006608Y001944D03*
X006604Y001948D03*
X006588Y001964D03*
X006584Y001968D03*
X006580Y001972D03*
X006570Y001978D03*
X006560Y001984D03*
X006552Y001988D03*
X006544Y001992D03*
X006538Y001994D03*
X006526Y001998D03*
X006474Y002018D03*
X006474Y002022D03*
X006466Y002042D03*
X006462Y002054D03*
X006458Y002062D03*
X006454Y002074D03*
X006450Y002082D03*
X006448Y002088D03*
X006446Y002094D03*
X006442Y002102D03*
X006438Y002114D03*
X006434Y002122D03*
X006432Y002128D03*
X006430Y002134D03*
X006426Y002142D03*
X006424Y002148D03*
X006422Y002154D03*
X006418Y002162D03*
X006416Y002164D03*
X006410Y002178D03*
X006402Y002194D03*
X006398Y002202D03*
X006396Y002204D03*
X006392Y002212D03*
X006390Y002214D03*
X006390Y002218D03*
X006386Y002222D03*
X006380Y002232D03*
X006378Y002234D03*
X006374Y002242D03*
X006368Y002252D03*
X006366Y002254D03*
X006364Y002258D03*
X006362Y002262D03*
X006360Y002264D03*
X006354Y002274D03*
X006350Y002278D03*
X006346Y002282D03*
X006340Y002292D03*
X006338Y002294D03*
X006334Y002298D03*
X006324Y002312D03*
X006322Y002314D03*
X006318Y002318D03*
X006316Y002324D03*
X006254Y002282D03*
X006248Y002288D03*
X006244Y002292D03*
X006242Y002294D03*
X006238Y002298D03*
X006228Y002312D03*
X006226Y002314D03*
X006222Y002318D03*
X006218Y002322D03*
X006206Y002338D03*
X006268Y002264D03*
X006270Y002262D03*
X006274Y002258D03*
X006286Y002242D03*
X006290Y002238D03*
X006294Y002234D03*
X006302Y002222D03*
X006306Y002218D03*
X006318Y002202D03*
X006322Y002198D03*
X006334Y002182D03*
X006338Y002178D03*
X006366Y002138D03*
X006414Y002058D03*
X006422Y002042D03*
X006426Y002034D03*
X006434Y002018D03*
X006426Y002002D03*
X006404Y001992D03*
X006222Y001828D03*
X006386Y001358D03*
X006500Y001194D03*
X006500Y001192D03*
X006500Y001188D03*
X006500Y001184D03*
X006500Y001182D03*
X006500Y001178D03*
X006500Y001174D03*
X006500Y001172D03*
X006500Y001168D03*
X006500Y001164D03*
X006502Y001162D03*
X006490Y001138D03*
X006500Y001132D03*
X006500Y001128D03*
X006500Y001124D03*
X006502Y001122D03*
X006502Y001118D03*
X006502Y001114D03*
X006500Y001112D03*
X006502Y001082D03*
X006502Y001078D03*
X006502Y001074D03*
X006502Y001062D03*
X006502Y001058D03*
X006502Y001054D03*
X006502Y001024D03*
X006502Y001022D03*
X006502Y001018D03*
X006502Y001014D03*
X006502Y001002D03*
X006502Y000998D03*
X006502Y000994D03*
X006504Y000964D03*
X006502Y000962D03*
X006502Y000958D03*
X006502Y000954D03*
X006504Y000952D03*
X006504Y000948D03*
X006504Y000944D03*
X006502Y000942D03*
X006502Y000938D03*
X006504Y000912D03*
X006504Y000908D03*
X006504Y000904D03*
X006504Y000898D03*
X006504Y000894D03*
X006504Y000892D03*
X006504Y000888D03*
X006504Y000884D03*
X006504Y000882D03*
X006504Y000878D03*
X006504Y000874D03*
X006504Y000872D03*
X006504Y000868D03*
X006504Y000864D03*
X006506Y000854D03*
X006504Y000852D03*
X006516Y000868D03*
X006520Y000872D03*
X006522Y000874D03*
X006538Y000894D03*
X006542Y000898D03*
X006546Y000902D03*
X006590Y000954D03*
X006606Y000974D03*
X006610Y000978D03*
X006652Y001028D03*
X006656Y001032D03*
X006658Y001034D03*
X006698Y001082D03*
X006766Y001118D03*
D19*
X006710Y001096D03*
X006688Y001070D03*
X006662Y001040D03*
X006646Y001020D03*
X006642Y001016D03*
X006600Y000966D03*
X006594Y000960D03*
X006590Y000956D03*
X006558Y000916D03*
X006552Y000910D03*
X006526Y000880D03*
X006506Y000856D03*
X006818Y001276D03*
X006884Y001416D03*
X006886Y001420D03*
X006888Y001426D03*
X006936Y001406D03*
X006934Y001400D03*
X006934Y001396D03*
X006932Y001390D03*
X006946Y001456D03*
X006310Y001396D03*
X006300Y001506D03*
X006194Y001556D03*
X006440Y002006D03*
X006434Y002016D03*
X006434Y002020D03*
X006428Y002030D03*
X006426Y002036D03*
X006422Y002040D03*
X006420Y002046D03*
X006414Y002056D03*
X006414Y002060D03*
X006408Y002070D03*
X006404Y002076D03*
X006402Y002080D03*
X006396Y002090D03*
X006390Y002100D03*
X006384Y002110D03*
X006380Y002116D03*
X006378Y002120D03*
X006366Y002136D03*
X006360Y002146D03*
X006354Y002156D03*
X006350Y002160D03*
X006338Y002176D03*
X006328Y002190D03*
X006316Y002206D03*
X006378Y002236D03*
X006390Y002216D03*
X006362Y002260D03*
X006334Y002300D03*
X006258Y002276D03*
X006238Y002300D03*
X006454Y002076D03*
X006474Y002020D03*
X006518Y002000D03*
D20*
X006478Y002012D03*
X006476Y002014D03*
X006470Y002032D03*
X006462Y002052D03*
X006460Y002058D03*
X006458Y002064D03*
X006454Y002072D03*
X006450Y002084D03*
X006442Y002104D03*
X006434Y002124D03*
X006426Y002144D03*
X006422Y002152D03*
X006376Y002122D03*
X006374Y002124D03*
X006370Y002132D03*
X006368Y002134D03*
X006362Y002144D03*
X006358Y002148D03*
X006356Y002152D03*
X006352Y002158D03*
X006346Y002164D03*
X006342Y002172D03*
X006340Y002174D03*
X006330Y002188D03*
X006326Y002192D03*
X006318Y002204D03*
X006314Y002208D03*
X006298Y002228D03*
X006294Y002232D03*
X006278Y002252D03*
X006234Y002304D03*
X006214Y002328D03*
X006330Y002304D03*
X006354Y002272D03*
X006394Y002208D03*
X006382Y002112D03*
X006386Y002108D03*
X006392Y002098D03*
X006394Y002092D03*
X006398Y002088D03*
X006400Y002082D03*
X006406Y002072D03*
X006410Y002068D03*
X006410Y002064D03*
X006412Y002062D03*
X006416Y002054D03*
X006418Y002052D03*
X006418Y002048D03*
X006422Y002044D03*
X006424Y002038D03*
X006426Y002032D03*
X006430Y002028D03*
X006430Y002024D03*
X006432Y002022D03*
X006436Y002014D03*
X006436Y002012D03*
X006438Y002008D03*
X006434Y002004D03*
X006224Y001834D03*
X006222Y001832D03*
X006314Y001572D03*
X006302Y001568D03*
X006380Y001598D03*
X006210Y001552D03*
X006522Y001604D03*
X006528Y001614D03*
X006528Y001554D03*
X006600Y001554D03*
X006594Y001604D03*
X006540Y001702D03*
X006566Y001724D03*
X006568Y001722D03*
X006574Y001468D03*
X006622Y001468D03*
X006838Y001362D03*
X006882Y001404D03*
X006882Y001408D03*
X006882Y001412D03*
X006884Y001414D03*
X006884Y001418D03*
X006886Y001424D03*
X006898Y001464D03*
X006946Y001452D03*
X006944Y001442D03*
X006940Y001414D03*
X006938Y001412D03*
X006938Y001408D03*
X006936Y001404D03*
X006936Y001402D03*
X006934Y001392D03*
X006816Y001282D03*
X006818Y001274D03*
X006706Y001092D03*
X006690Y001072D03*
X006686Y001068D03*
X006644Y001018D03*
X006640Y001014D03*
X006638Y001012D03*
X006606Y000972D03*
X006598Y000964D03*
X006586Y000948D03*
X006554Y000912D03*
X006550Y000908D03*
X006534Y000888D03*
X006530Y000884D03*
X006528Y000882D03*
X006508Y000858D03*
X006502Y001028D03*
X006500Y001138D03*
X006950Y001572D03*
X006952Y001574D03*
X006950Y001744D03*
X007042Y001768D03*
D21*
X007038Y001766D03*
X006696Y001536D03*
X006556Y001620D03*
X006530Y001626D03*
X006550Y001686D03*
X006546Y001690D03*
X006540Y001700D03*
X006224Y001836D03*
X006940Y001416D03*
X006508Y000860D03*
D22*
X006508Y000862D03*
X006488Y000912D03*
X006488Y001028D03*
X006836Y001364D03*
X006886Y001432D03*
X006886Y001434D03*
X006954Y001578D03*
X006950Y001742D03*
X006566Y001538D03*
X006558Y001458D03*
X006518Y001642D03*
X006506Y001658D03*
X006500Y001668D03*
X006480Y001652D03*
X006500Y002004D03*
D23*
X006473Y002024D03*
X006471Y002028D03*
X006469Y002034D03*
X006467Y002038D03*
X006465Y002044D03*
X006463Y002048D03*
X006457Y002068D03*
X006453Y002078D03*
X006447Y002092D03*
X006445Y002098D03*
X006441Y002108D03*
X006439Y002112D03*
X006437Y002118D03*
X006431Y002132D03*
X006429Y002138D03*
X006419Y002158D03*
X006415Y002168D03*
X006413Y002172D03*
X006411Y002174D03*
X006407Y002182D03*
X006407Y002184D03*
X006405Y002188D03*
X006403Y002192D03*
X006399Y002198D03*
X006385Y002224D03*
X006383Y002228D03*
X006377Y002238D03*
X006373Y002244D03*
X006371Y002248D03*
X006357Y002268D03*
X006345Y002284D03*
X006343Y002288D03*
X006331Y002302D03*
X006327Y002308D03*
X006277Y002254D03*
X006281Y002248D03*
X006285Y002244D03*
X006301Y002224D03*
X006309Y002214D03*
X006311Y002212D03*
X006325Y002194D03*
X006333Y002184D03*
X006345Y002168D03*
X006349Y002162D03*
X006355Y002154D03*
X006363Y002142D03*
X006373Y002128D03*
X006379Y002118D03*
X006381Y002114D03*
X006387Y002104D03*
X006389Y002102D03*
X006393Y002094D03*
X006399Y002084D03*
X006403Y002078D03*
X006405Y002074D03*
X006265Y002268D03*
X006261Y002272D03*
X006257Y002278D03*
X006251Y002284D03*
X006235Y002302D03*
X006231Y002308D03*
X006217Y002324D03*
X006211Y002332D03*
X006209Y002334D03*
X006925Y001734D03*
X006949Y001568D03*
X006947Y001458D03*
X006945Y001448D03*
X006897Y001458D03*
X006899Y001468D03*
X006885Y001422D03*
X006935Y001398D03*
X006933Y001394D03*
X006931Y001388D03*
X006817Y001278D03*
X006711Y001098D03*
X006709Y001094D03*
X006703Y001088D03*
X006699Y001084D03*
X006695Y001078D03*
X006691Y001074D03*
X006661Y001038D03*
X006649Y001024D03*
X006647Y001022D03*
X006635Y001008D03*
X006601Y000968D03*
X006597Y000962D03*
X006593Y000958D03*
X006587Y000952D03*
X006559Y000918D03*
X006555Y000914D03*
X006547Y000904D03*
X006537Y000892D03*
X006525Y000878D03*
X006513Y000864D03*
X006503Y001004D03*
X006503Y001008D03*
X006503Y001012D03*
X006501Y001064D03*
X006501Y001068D03*
X006501Y001072D03*
X006501Y001084D03*
D24*
X006502Y001070D03*
X006502Y001066D03*
X006502Y001026D03*
X006502Y001020D03*
X006502Y001016D03*
X006502Y001010D03*
X006502Y001006D03*
X006502Y000966D03*
X006504Y000960D03*
X006504Y000956D03*
X006502Y000950D03*
X006502Y000946D03*
X006504Y000940D03*
X006504Y000900D03*
X006504Y000896D03*
X006504Y000890D03*
X006504Y000886D03*
X006504Y000880D03*
X006504Y000876D03*
X006504Y000870D03*
X006504Y000866D03*
X006514Y000866D03*
X006518Y000870D03*
X006534Y000890D03*
X006540Y000896D03*
X006586Y000950D03*
X006634Y001006D03*
X006650Y001026D03*
X006654Y001030D03*
X006702Y001086D03*
X006706Y001090D03*
X006502Y001110D03*
X006500Y001116D03*
X006500Y001120D03*
X006500Y001136D03*
X006500Y001166D03*
X006500Y001170D03*
X006500Y001176D03*
X006500Y001180D03*
X006500Y001186D03*
X006500Y001190D03*
X006556Y001460D03*
X006566Y001470D03*
X006552Y001476D03*
X006544Y001480D03*
X006586Y001466D03*
X006614Y001466D03*
X006630Y001470D03*
X006644Y001476D03*
X006652Y001480D03*
X006602Y001490D03*
X006560Y001556D03*
X006528Y001616D03*
X006528Y001620D03*
X006482Y001656D03*
X006566Y001726D03*
X006580Y001740D03*
X006596Y001756D03*
X006600Y001760D03*
X006388Y001600D03*
X006204Y001800D03*
X006412Y001996D03*
X006420Y002000D03*
X006430Y002026D03*
X006418Y002050D03*
X006410Y002066D03*
X006452Y002080D03*
X006450Y002086D03*
X006444Y002100D03*
X006442Y002106D03*
X006436Y002120D03*
X006434Y002126D03*
X006426Y002146D03*
X006422Y002150D03*
X006420Y002156D03*
X006414Y002170D03*
X006406Y002186D03*
X006394Y002210D03*
X006388Y002220D03*
X006384Y002226D03*
X006382Y002230D03*
X006376Y002240D03*
X006370Y002250D03*
X006358Y002266D03*
X006348Y002280D03*
X006344Y002286D03*
X006342Y002290D03*
X006336Y002296D03*
X006330Y002306D03*
X006326Y002310D03*
X006320Y002316D03*
X006266Y002266D03*
X006262Y002270D03*
X006250Y002286D03*
X006246Y002290D03*
X006234Y002306D03*
X006230Y002310D03*
X006224Y002316D03*
X006220Y002320D03*
X006208Y002336D03*
X006280Y002250D03*
X006288Y002240D03*
X006346Y002166D03*
X006374Y002126D03*
X006458Y002066D03*
X006468Y002036D03*
X006470Y002030D03*
X006476Y002016D03*
X006478Y002010D03*
X006490Y002006D03*
X006532Y001996D03*
X006568Y001980D03*
X006572Y001976D03*
X007042Y001770D03*
X007006Y001610D03*
X006950Y001570D03*
X006950Y001566D03*
X006948Y001460D03*
X006946Y001450D03*
X006896Y001456D03*
X006898Y001466D03*
X006674Y001530D03*
D25*
X006501Y001670D03*
X006223Y001830D03*
X006437Y002010D03*
X006471Y002026D03*
X006467Y002040D03*
X006465Y002046D03*
X006463Y002050D03*
X006461Y002056D03*
X006459Y002060D03*
X006455Y002070D03*
X006447Y002090D03*
X006445Y002096D03*
X006439Y002110D03*
X006437Y002116D03*
X006431Y002130D03*
X006429Y002136D03*
X006427Y002140D03*
X006419Y002160D03*
X006415Y002166D03*
X006411Y002176D03*
X006409Y002180D03*
X006403Y002190D03*
X006401Y002196D03*
X006399Y002200D03*
X006395Y002206D03*
X006371Y002246D03*
X006365Y002256D03*
X006355Y002270D03*
X006351Y002276D03*
X006317Y002320D03*
X006255Y002280D03*
X006241Y002296D03*
X006215Y002326D03*
X006271Y002260D03*
X006275Y002256D03*
X006283Y002246D03*
X006291Y002236D03*
X006297Y002230D03*
X006299Y002226D03*
X006305Y002220D03*
X006307Y002216D03*
X006313Y002210D03*
X006321Y002200D03*
X006323Y002196D03*
X006331Y002186D03*
X006335Y002180D03*
X006343Y002170D03*
X006357Y002150D03*
X006371Y002130D03*
X006387Y002106D03*
X006393Y002096D03*
X006399Y002086D03*
X007025Y001700D03*
X006899Y001470D03*
X006897Y001460D03*
X006945Y001446D03*
X006937Y001410D03*
X006883Y001410D03*
X006881Y001406D03*
X006839Y001360D03*
X006817Y001280D03*
X006697Y001080D03*
X006693Y001076D03*
X006685Y001066D03*
X006659Y001036D03*
X006637Y001010D03*
X006609Y000976D03*
X006603Y000970D03*
X006561Y000920D03*
X006549Y000906D03*
X006543Y000900D03*
X006531Y000886D03*
X006523Y000876D03*
X006503Y000996D03*
X006503Y001000D03*
X006501Y001056D03*
X006501Y001060D03*
X006501Y001076D03*
X006501Y001080D03*
D26*
X006501Y001134D03*
X006503Y000902D03*
X006841Y001358D03*
X006883Y001398D03*
X006899Y001474D03*
X006699Y001532D03*
X006695Y001524D03*
X006689Y001512D03*
X006685Y001508D03*
X006665Y001488D03*
X006535Y001488D03*
X006529Y001618D03*
X006501Y001672D03*
X006513Y001682D03*
X006521Y001688D03*
X006545Y001708D03*
X006575Y001734D03*
X006583Y001742D03*
X006585Y001744D03*
X006589Y001748D03*
X006599Y001758D03*
X006619Y001788D03*
X006629Y001868D03*
X006629Y001892D03*
X006625Y001912D03*
X006621Y001924D03*
X006609Y001942D03*
X006221Y001824D03*
X006213Y001812D03*
X006185Y001768D03*
X006173Y001744D03*
X006159Y001708D03*
X006155Y001692D03*
X006153Y001672D03*
X006153Y001652D03*
X006153Y001648D03*
X006155Y001624D03*
X006159Y001612D03*
X006173Y001572D03*
X006175Y001568D03*
X006183Y001562D03*
X006259Y002274D03*
D27*
X006213Y002330D03*
X006593Y001960D03*
X006611Y001940D03*
X006623Y001916D03*
X006629Y001880D03*
X006629Y001876D03*
X006615Y001780D03*
X006613Y001776D03*
X006571Y001730D03*
X006543Y001706D03*
X006519Y001686D03*
X006511Y001680D03*
X006329Y001580D03*
X006321Y001576D03*
X006169Y001580D03*
X006163Y001596D03*
X006163Y001720D03*
X006171Y001740D03*
X006181Y001760D03*
X006191Y001780D03*
X006215Y001816D03*
X006221Y001826D03*
X006529Y001496D03*
X006663Y001486D03*
X006883Y001400D03*
X006709Y001066D03*
X006501Y001126D03*
X006501Y001130D03*
X006503Y000910D03*
X006503Y000906D03*
D28*
X006498Y000912D03*
X006512Y000938D03*
X006516Y000938D03*
X006536Y000918D03*
X006558Y000944D03*
X006556Y000974D03*
X006546Y000972D03*
X006542Y000972D03*
X006528Y000994D03*
X006568Y000998D03*
X006572Y000998D03*
X006596Y000978D03*
X006608Y001002D03*
X006612Y001002D03*
X006616Y001002D03*
X006636Y000982D03*
X006632Y001038D03*
X006628Y001038D03*
X006648Y001062D03*
X006662Y001064D03*
X006666Y001064D03*
X006672Y001042D03*
X006676Y001042D03*
X006696Y001098D03*
X006668Y001118D03*
X006656Y001118D03*
X006636Y001094D03*
X006622Y001092D03*
X006618Y001092D03*
X006596Y001114D03*
X006592Y001114D03*
X006562Y001112D03*
X006558Y001112D03*
X006558Y001088D03*
X006562Y001088D03*
X006588Y001058D03*
X006592Y001058D03*
X006576Y001034D03*
X006572Y001034D03*
X006558Y001032D03*
X006536Y001054D03*
X006532Y001054D03*
X006528Y001054D03*
X006486Y001108D03*
X006482Y001108D03*
X006508Y001162D03*
X006512Y001162D03*
X006516Y001162D03*
X006538Y001164D03*
X006542Y001164D03*
X006568Y001142D03*
X006572Y001142D03*
X006606Y001144D03*
X006618Y001144D03*
X006616Y001274D03*
X006582Y001284D03*
X006566Y001288D03*
X006606Y001364D03*
X006632Y001358D03*
X006692Y001334D03*
X006742Y001404D03*
X006768Y001394D03*
X006716Y001522D03*
X006712Y001522D03*
X006708Y001522D03*
X006698Y001528D03*
X006692Y001518D03*
X006688Y001514D03*
X006682Y001504D03*
X006676Y001498D03*
X006672Y001494D03*
X006656Y001482D03*
X006628Y001462D03*
X006622Y001444D03*
X006628Y001442D03*
X006638Y001444D03*
X006606Y001448D03*
X006606Y001464D03*
X006602Y001464D03*
X006598Y001464D03*
X006582Y001468D03*
X006566Y001472D03*
X006556Y001474D03*
X006558Y001488D03*
X006542Y001492D03*
X006538Y001484D03*
X006528Y001498D03*
X006568Y001458D03*
X006602Y001488D03*
X006558Y001604D03*
X006572Y001642D03*
X006526Y001692D03*
X006528Y001694D03*
X006508Y001678D03*
X006488Y001662D03*
X006556Y001718D03*
X006596Y001754D03*
X006602Y001762D03*
X006612Y001774D03*
X006616Y001782D03*
X006618Y001784D03*
X006622Y001792D03*
X006628Y001862D03*
X006628Y001872D03*
X006628Y001874D03*
X006628Y001878D03*
X006628Y001882D03*
X006628Y001894D03*
X006628Y001898D03*
X006628Y001902D03*
X006626Y001904D03*
X006626Y001908D03*
X006618Y001928D03*
X006616Y001934D03*
X006612Y001938D03*
X006602Y001952D03*
X006596Y001958D03*
X006592Y001962D03*
X006576Y001974D03*
X006516Y002002D03*
X006512Y002002D03*
X006508Y002002D03*
X006486Y002008D03*
X006466Y001972D03*
X006462Y001972D03*
X006458Y001972D03*
X006416Y001998D03*
X006408Y001994D03*
X006368Y001998D03*
X006328Y001998D03*
X006216Y001818D03*
X006212Y001814D03*
X006206Y001804D03*
X006198Y001792D03*
X006192Y001782D03*
X006188Y001774D03*
X006182Y001764D03*
X006172Y001742D03*
X006168Y001734D03*
X006166Y001728D03*
X006166Y001724D03*
X006162Y001712D03*
X006158Y001704D03*
X006158Y001702D03*
X006156Y001698D03*
X006156Y001694D03*
X006152Y001678D03*
X006152Y001674D03*
X006152Y001668D03*
X006152Y001664D03*
X006152Y001662D03*
X006152Y001658D03*
X006152Y001654D03*
X006152Y001642D03*
X006156Y001622D03*
X006156Y001618D03*
X006162Y001608D03*
X006162Y001604D03*
X006162Y001602D03*
X006166Y001588D03*
X006166Y001584D03*
X006168Y001582D03*
X006168Y001578D03*
X006172Y001574D03*
X006196Y001554D03*
X006202Y001552D03*
X006218Y001552D03*
X006222Y001552D03*
X006226Y001552D03*
X006238Y001552D03*
X006272Y001562D03*
X006278Y001564D03*
X006332Y001522D03*
X006352Y001594D03*
X006356Y001594D03*
X006372Y001598D03*
X006396Y001602D03*
X006398Y001604D03*
X006392Y001758D03*
X006408Y001762D03*
X006426Y001768D03*
X006368Y001758D03*
X006338Y001768D03*
X006716Y001654D03*
X006732Y001658D03*
X006752Y001662D03*
X006762Y001664D03*
X006782Y001668D03*
X006786Y001668D03*
X006898Y001612D03*
X006906Y001588D03*
X006948Y001562D03*
X006938Y001628D03*
X006948Y001718D03*
X006932Y001734D03*
X006948Y001762D03*
X006952Y001762D03*
X006946Y001768D03*
X006936Y001778D03*
X006902Y001764D03*
X006898Y001764D03*
X006896Y001758D03*
X006896Y001774D03*
X006882Y001772D03*
X006878Y001772D03*
X006876Y001762D03*
X006856Y001818D03*
X006836Y001854D03*
X006836Y001858D03*
X006832Y001858D03*
X006838Y001864D03*
X006842Y001864D03*
X006892Y001858D03*
X006896Y001858D03*
X006896Y001862D03*
X006898Y001868D03*
X006902Y001868D03*
X006906Y001868D03*
X006938Y001864D03*
X006942Y001864D03*
X006948Y001862D03*
X006952Y001862D03*
X006956Y001862D03*
X006958Y001872D03*
X006962Y001872D03*
X006966Y001872D03*
X006988Y001874D03*
X006938Y001832D03*
X006922Y001824D03*
X006918Y001824D03*
X006898Y001828D03*
X006978Y001764D03*
X006982Y001764D03*
X007008Y001762D03*
X007016Y001762D03*
X007022Y001768D03*
X007046Y001774D03*
X006996Y001798D03*
X006802Y002028D03*
X006768Y002038D03*
X006726Y002048D03*
X006722Y002048D03*
X006718Y002048D03*
X006696Y002042D03*
X006316Y002322D03*
X006952Y001464D03*
X006756Y001118D03*
X006752Y001118D03*
X006748Y001118D03*
X006586Y000924D03*
X006376Y001358D03*
X006372Y001358D03*
X006366Y001388D03*
X006362Y001388D03*
X006358Y001388D03*
X006336Y001422D03*
X006312Y001394D03*
X006308Y001394D03*
X006272Y001402D03*
X006378Y001444D03*
X006382Y001444D03*
X006386Y001444D03*
X006392Y001434D03*
X006398Y001444D03*
X006402Y001444D03*
X006406Y001444D03*
X006418Y001444D03*
X006422Y001444D03*
X006432Y001418D03*
D29*
X006358Y001432D03*
X006358Y001444D03*
X006256Y001402D03*
X006288Y001562D03*
X006530Y001632D03*
X006556Y001642D03*
X006564Y001662D03*
X006566Y001532D03*
X006576Y001362D03*
X006572Y001358D03*
X006572Y001354D03*
X006570Y001348D03*
X006570Y001344D03*
X006568Y001342D03*
X006566Y001332D03*
X006562Y001324D03*
X006560Y001318D03*
X006558Y001312D03*
X006558Y001308D03*
X006556Y001304D03*
X006498Y001308D03*
X006504Y001338D03*
X006810Y001288D03*
X006820Y001258D03*
X006818Y001252D03*
X006830Y001372D03*
X006832Y001374D03*
X006886Y001448D03*
X006886Y001452D03*
X006950Y001428D03*
X006964Y001442D03*
X006976Y001454D03*
X006980Y001458D03*
X007000Y001478D03*
X007006Y001492D03*
X007008Y001502D03*
X007008Y001504D03*
X006866Y001532D03*
X006864Y001524D03*
X006864Y001522D03*
X006920Y001682D03*
X006918Y001704D03*
X006226Y001844D03*
X006494Y000968D03*
X006496Y000914D03*
D30*
X006502Y000916D03*
X006806Y001296D03*
X007012Y001570D03*
X006998Y001580D03*
X006992Y001586D03*
X006998Y001696D03*
X006998Y001700D03*
X007038Y001800D03*
X006586Y001680D03*
X006562Y001656D03*
X006556Y001590D03*
X006406Y001416D03*
X006378Y001760D03*
D31*
X006402Y001760D03*
X006336Y001770D03*
X006218Y001820D03*
X006212Y001810D03*
X006208Y001806D03*
X006202Y001796D03*
X006198Y001790D03*
X006196Y001786D03*
X006186Y001770D03*
X006178Y001756D03*
X006176Y001750D03*
X006168Y001730D03*
X006166Y001726D03*
X006162Y001716D03*
X006158Y001700D03*
X006156Y001690D03*
X006152Y001670D03*
X006152Y001666D03*
X006152Y001660D03*
X006152Y001656D03*
X006152Y001650D03*
X006152Y001646D03*
X006156Y001626D03*
X006158Y001616D03*
X006162Y001600D03*
X006166Y001586D03*
X006186Y001560D03*
X006216Y001550D03*
X006228Y001550D03*
X006232Y001550D03*
X006236Y001550D03*
X006288Y001566D03*
X006308Y001570D03*
X006312Y001570D03*
X006348Y001590D03*
X006378Y001596D03*
X006382Y001600D03*
X006376Y001526D03*
X006372Y001526D03*
X006368Y001526D03*
X006356Y001526D03*
X006352Y001526D03*
X006348Y001526D03*
X006292Y001506D03*
X006262Y001400D03*
X006258Y001400D03*
X006246Y001400D03*
X006302Y001396D03*
X006382Y001416D03*
X006398Y001436D03*
X006402Y001436D03*
X006406Y001436D03*
X006418Y001436D03*
X006422Y001436D03*
X006426Y001436D03*
X006438Y001436D03*
X006532Y001490D03*
X006536Y001486D03*
X006562Y001460D03*
X006576Y001486D03*
X006592Y001466D03*
X006596Y001466D03*
X006598Y001460D03*
X006602Y001460D03*
X006606Y001460D03*
X006608Y001466D03*
X006608Y001490D03*
X006626Y001496D03*
X006668Y001490D03*
X006678Y001500D03*
X006688Y001510D03*
X006696Y001526D03*
X006668Y001530D03*
X006602Y001556D03*
X006598Y001556D03*
X006566Y001556D03*
X006566Y001540D03*
X006562Y001540D03*
X006526Y001556D03*
X006486Y001660D03*
X006506Y001676D03*
X006548Y001710D03*
X006588Y001746D03*
X006608Y001770D03*
X006622Y001796D03*
X006628Y001866D03*
X006628Y001870D03*
X006628Y001886D03*
X006628Y001890D03*
X006628Y001896D03*
X006626Y001910D03*
X006622Y001920D03*
X006616Y001930D03*
X006556Y001986D03*
X006548Y001990D03*
X006538Y001996D03*
X006526Y002000D03*
X006476Y001970D03*
X006358Y002000D03*
X006708Y002046D03*
X006782Y002036D03*
X006818Y001856D03*
X006822Y001856D03*
X006858Y001856D03*
X006862Y001856D03*
X006866Y001856D03*
X006872Y001866D03*
X006876Y001866D03*
X006878Y001860D03*
X006882Y001860D03*
X006872Y001826D03*
X006868Y001826D03*
X006878Y001820D03*
X006912Y001830D03*
X006916Y001830D03*
X006918Y001860D03*
X006922Y001860D03*
X006932Y001870D03*
X006936Y001870D03*
X006956Y001866D03*
X006948Y001826D03*
X006926Y001776D03*
X006922Y001776D03*
X006928Y001766D03*
X006932Y001766D03*
X006926Y001760D03*
X006926Y001736D03*
X006882Y001756D03*
X006878Y001756D03*
X006976Y001770D03*
X006978Y001760D03*
X006982Y001760D03*
X006992Y001766D03*
X006996Y001766D03*
X007008Y001766D03*
X007012Y001766D03*
X007006Y001796D03*
X007008Y001846D03*
X007018Y001876D03*
X006796Y001670D03*
X006768Y001666D03*
X006726Y001656D03*
X006916Y001590D03*
X006912Y001566D03*
X006918Y001536D03*
X006922Y001536D03*
X006926Y001536D03*
X006938Y001536D03*
X006946Y001560D03*
X006958Y001556D03*
X006898Y001476D03*
X006882Y001396D03*
X006928Y001386D03*
X006842Y001356D03*
X006736Y001406D03*
X006722Y001416D03*
X006666Y001436D03*
X006632Y001446D03*
X006622Y001360D03*
X006558Y001376D03*
X006542Y001380D03*
X006572Y001286D03*
X006576Y001166D03*
X006546Y001140D03*
X006542Y001140D03*
X006538Y001140D03*
X006536Y001110D03*
X006532Y001110D03*
X006528Y001110D03*
X006516Y001086D03*
X006558Y001056D03*
X006576Y001090D03*
X006606Y001060D03*
X006606Y001036D03*
X006602Y001036D03*
X006586Y001000D03*
X006582Y001000D03*
X006582Y000976D03*
X006586Y000976D03*
X006576Y000946D03*
X006596Y000926D03*
X006608Y000950D03*
X006622Y000980D03*
X006626Y000980D03*
X006656Y001006D03*
X006696Y001066D03*
X006682Y001096D03*
X006678Y001096D03*
X006682Y001120D03*
X006686Y001120D03*
X006636Y001146D03*
X006632Y001146D03*
X006626Y001116D03*
X006622Y001116D03*
X006618Y001116D03*
X006542Y000996D03*
X006538Y000996D03*
X006516Y000970D03*
X006522Y000940D03*
X006526Y000940D03*
X006526Y000916D03*
X006316Y002326D03*
X006206Y002340D03*
D32*
X006334Y002000D03*
X006400Y001990D03*
X006444Y001970D03*
X006484Y002006D03*
X006580Y001970D03*
X006604Y001950D03*
X006614Y001936D03*
X006620Y001926D03*
X006624Y001806D03*
X006620Y001790D03*
X006620Y001786D03*
X006604Y001766D03*
X006524Y001690D03*
X006554Y001556D03*
X006570Y001540D03*
X006580Y001486D03*
X006584Y001486D03*
X006580Y001466D03*
X006594Y001460D03*
X006594Y001456D03*
X006600Y001466D03*
X006604Y001466D03*
X006610Y001460D03*
X006614Y001460D03*
X006640Y001466D03*
X006654Y001440D03*
X006680Y001426D03*
X006684Y001430D03*
X006740Y001410D03*
X006754Y001400D03*
X006750Y001516D03*
X006734Y001520D03*
X006694Y001520D03*
X006690Y001516D03*
X006684Y001506D03*
X006674Y001496D03*
X006664Y001526D03*
X006434Y001436D03*
X006430Y001436D03*
X006414Y001436D03*
X006410Y001436D03*
X006384Y001526D03*
X006380Y001526D03*
X006364Y001526D03*
X006360Y001526D03*
X006344Y001526D03*
X006340Y001526D03*
X006340Y001586D03*
X006374Y001596D03*
X006394Y001600D03*
X006404Y001606D03*
X006240Y001550D03*
X006224Y001550D03*
X006220Y001550D03*
X006170Y001576D03*
X006164Y001590D03*
X006160Y001610D03*
X006154Y001636D03*
X006154Y001640D03*
X006154Y001676D03*
X006154Y001680D03*
X006154Y001686D03*
X006160Y001706D03*
X006160Y001710D03*
X006170Y001736D03*
X006174Y001746D03*
X006184Y001766D03*
X006190Y001776D03*
X006250Y001400D03*
X006254Y001400D03*
X006540Y001186D03*
X006554Y001180D03*
X006580Y001166D03*
X006584Y001166D03*
X006550Y001140D03*
X006524Y001110D03*
X006524Y001086D03*
X006520Y001086D03*
X006550Y001056D03*
X006554Y001056D03*
X006524Y001030D03*
X006520Y001030D03*
X006480Y000990D03*
X006520Y000970D03*
X006494Y000936D03*
X006530Y000916D03*
X006610Y001036D03*
X006610Y001060D03*
X006614Y001060D03*
X006584Y001090D03*
X006580Y001090D03*
X006614Y001116D03*
X006640Y001146D03*
X006690Y001120D03*
X006694Y001120D03*
X006674Y001096D03*
X006700Y001066D03*
X006704Y001066D03*
X006654Y001040D03*
X006800Y001186D03*
X006930Y001536D03*
X006934Y001536D03*
X006910Y001616D03*
X007000Y001610D03*
X006974Y001760D03*
X006980Y001770D03*
X007000Y001766D03*
X007004Y001766D03*
X006934Y001760D03*
X006930Y001760D03*
X006924Y001766D03*
X006874Y001820D03*
X006874Y001860D03*
X006880Y001866D03*
X006914Y001860D03*
X006940Y001870D03*
X006944Y001870D03*
X006960Y001866D03*
X006964Y001866D03*
X006994Y001876D03*
X007004Y001846D03*
X006740Y002046D03*
X006690Y002040D03*
D33*
X006462Y001968D03*
X006380Y001762D03*
X006476Y001634D03*
X006516Y001542D03*
X006526Y001532D03*
X006558Y001572D03*
X006566Y001452D03*
X006402Y001448D03*
X006402Y001472D03*
X006400Y001474D03*
X006394Y001484D03*
X006236Y001874D03*
X007006Y001772D03*
X006988Y001674D03*
X007000Y001518D03*
X006508Y000918D03*
D34*
X006484Y000934D03*
X006540Y000918D03*
X006544Y000942D03*
X006560Y000974D03*
X006564Y000998D03*
X006554Y001032D03*
X006550Y001032D03*
X006584Y001058D03*
X006554Y001088D03*
X006554Y001112D03*
X006550Y001112D03*
X006564Y001142D03*
X006574Y001172D03*
X006560Y001178D03*
X006534Y001164D03*
X006530Y001164D03*
X006494Y001108D03*
X006490Y001108D03*
X006494Y001084D03*
X006494Y001052D03*
X006490Y001052D03*
X006494Y000992D03*
X006524Y000994D03*
X006600Y000978D03*
X006640Y000982D03*
X006624Y001038D03*
X006640Y001062D03*
X006644Y001062D03*
X006670Y001064D03*
X006680Y001042D03*
X006700Y001098D03*
X006704Y001098D03*
X006664Y001118D03*
X006660Y001118D03*
X006644Y001094D03*
X006640Y001094D03*
X006614Y001092D03*
X006600Y001114D03*
X006610Y001144D03*
X006614Y001144D03*
X006744Y001118D03*
X006760Y001118D03*
X006634Y001464D03*
X006630Y001468D03*
X006614Y001468D03*
X006610Y001464D03*
X006594Y001464D03*
X006590Y001464D03*
X006584Y001454D03*
X006540Y001482D03*
X006530Y001494D03*
X006550Y001604D03*
X006554Y001604D03*
X006504Y001674D03*
X006484Y001658D03*
X006560Y001722D03*
X006580Y001738D03*
X006600Y001754D03*
X006610Y001772D03*
X006624Y001798D03*
X006624Y001802D03*
X006630Y001864D03*
X006630Y001884D03*
X006630Y001888D03*
X006624Y001914D03*
X006624Y001918D03*
X006620Y001922D03*
X006600Y001954D03*
X006564Y001982D03*
X006510Y002004D03*
X006470Y001972D03*
X006454Y001972D03*
X006380Y001994D03*
X006220Y001822D03*
X006210Y001808D03*
X006204Y001798D03*
X006200Y001794D03*
X006194Y001784D03*
X006180Y001758D03*
X006174Y001748D03*
X006164Y001722D03*
X006164Y001718D03*
X006154Y001688D03*
X006154Y001684D03*
X006154Y001682D03*
X006154Y001644D03*
X006154Y001634D03*
X006154Y001632D03*
X006154Y001628D03*
X006160Y001614D03*
X006164Y001598D03*
X006164Y001594D03*
X006164Y001592D03*
X006200Y001554D03*
X006204Y001554D03*
X006230Y001552D03*
X006234Y001552D03*
X006294Y001568D03*
X006334Y001524D03*
X006390Y001444D03*
X006394Y001444D03*
X006410Y001444D03*
X006414Y001444D03*
X006380Y001358D03*
X006224Y001422D03*
X006400Y001602D03*
X006674Y001528D03*
X006700Y001534D03*
X006704Y001522D03*
X006680Y001502D03*
X006670Y001492D03*
X006740Y001518D03*
X006874Y001608D03*
X006910Y001588D03*
X006930Y001592D03*
X006940Y001594D03*
X006954Y001672D03*
X006944Y001762D03*
X006950Y001768D03*
X006940Y001778D03*
X006900Y001774D03*
X006894Y001764D03*
X006900Y001758D03*
X006904Y001758D03*
X006884Y001762D03*
X006880Y001762D03*
X006860Y001818D03*
X006854Y001824D03*
X006850Y001824D03*
X006844Y001854D03*
X006844Y001858D03*
X006840Y001858D03*
X006840Y001854D03*
X006834Y001864D03*
X006894Y001868D03*
X006900Y001862D03*
X006904Y001862D03*
X006900Y001858D03*
X006894Y001828D03*
X006900Y001822D03*
X006904Y001822D03*
X006934Y001832D03*
X006934Y001864D03*
X007004Y001762D03*
X007020Y001762D03*
X006710Y001652D03*
X006764Y002038D03*
X006750Y002044D03*
X006730Y002048D03*
X006204Y002342D03*
D35*
X006300Y001946D03*
X006294Y001940D03*
X006290Y001936D03*
X006358Y001516D03*
X006328Y001486D03*
X006360Y001370D03*
X006734Y001120D03*
X006806Y001400D03*
X007006Y001780D03*
X006518Y000920D03*
D36*
X006526Y000922D03*
X006520Y001288D03*
X006522Y001294D03*
X006576Y001444D03*
X006734Y001502D03*
X006800Y001404D03*
X006944Y001612D03*
X006958Y001642D03*
X006960Y001644D03*
X006960Y001652D03*
X007002Y001862D03*
X006888Y001864D03*
X006476Y001588D03*
X006362Y001502D03*
X006274Y001494D03*
X006364Y001384D03*
X006332Y001972D03*
X006334Y001974D03*
X006338Y001978D03*
D37*
X006458Y001954D03*
X006662Y001562D03*
X006658Y001554D03*
X006782Y001318D03*
X006986Y001734D03*
X006268Y001428D03*
X006262Y001442D03*
X006532Y000924D03*
D38*
X006538Y000926D03*
X006684Y001116D03*
X006780Y001320D03*
X006662Y001570D03*
X006658Y001590D03*
X006458Y001950D03*
D39*
X006386Y001778D03*
X006658Y001582D03*
X006660Y001584D03*
X006662Y001574D03*
X006648Y001548D03*
X006648Y001544D03*
X006580Y001504D03*
X006776Y001324D03*
X006590Y000994D03*
X006540Y000932D03*
X006540Y000928D03*
X006976Y001728D03*
X006922Y001818D03*
D40*
X006646Y001540D03*
X006736Y001490D03*
X006270Y001456D03*
X006540Y000930D03*
D41*
X006544Y000934D03*
X006580Y001502D03*
X006658Y001588D03*
X006474Y001612D03*
X006914Y001552D03*
X006934Y001608D03*
X006976Y001722D03*
X006734Y002032D03*
D42*
X006966Y001636D03*
X006658Y001596D03*
X006658Y001556D03*
X006722Y001136D03*
X006550Y000936D03*
D43*
X006561Y000938D03*
X006731Y001128D03*
X006521Y001292D03*
X006363Y001382D03*
X006275Y001498D03*
X006469Y001594D03*
X006473Y001618D03*
X006733Y001504D03*
X006961Y001654D03*
X006325Y001968D03*
X006321Y001964D03*
D44*
X006305Y001950D03*
X006359Y001510D03*
X006567Y000940D03*
X007003Y001750D03*
X007005Y001756D03*
D45*
X007002Y001708D03*
X006974Y001594D03*
X006996Y001522D03*
X006510Y001548D03*
X006506Y001552D03*
X006486Y001568D03*
X006410Y001468D03*
X006410Y001428D03*
X006410Y001424D03*
X006410Y001422D03*
X006326Y001408D03*
X006270Y001552D03*
X006242Y001884D03*
X006246Y001888D03*
X006348Y001994D03*
X006510Y000972D03*
X006576Y000942D03*
D46*
X006584Y000944D03*
X006820Y001388D03*
X006558Y001574D03*
X006556Y001588D03*
X006518Y001538D03*
X006522Y001534D03*
X006498Y001554D03*
X006494Y001558D03*
X006398Y001478D03*
X006394Y001482D03*
X006260Y001404D03*
X006236Y001868D03*
X006724Y002044D03*
X006998Y001688D03*
X006996Y001684D03*
X006996Y001682D03*
D47*
X006929Y001716D03*
X006921Y001710D03*
X006989Y001466D03*
X006967Y001446D03*
X006573Y001356D03*
X006567Y001340D03*
X006513Y001366D03*
X006515Y001370D03*
X006517Y001380D03*
X006509Y001356D03*
X006561Y001456D03*
X006593Y000946D03*
D48*
X006601Y000948D03*
X006819Y001272D03*
X006887Y001438D03*
X006953Y001582D03*
X006553Y001682D03*
X006549Y001688D03*
X006503Y001662D03*
X006521Y001638D03*
D49*
X006564Y001660D03*
X006586Y001686D03*
X006584Y001690D03*
X006580Y001696D03*
X006576Y001700D03*
X006570Y001706D03*
X006568Y001710D03*
X006560Y001560D03*
X006716Y001520D03*
X006828Y001376D03*
X006810Y001290D03*
X006984Y001460D03*
X006994Y001470D03*
X007000Y001476D03*
X007006Y001510D03*
X006878Y001570D03*
X006878Y001580D03*
X006878Y001586D03*
X006920Y001680D03*
X006918Y001706D03*
X006966Y001826D03*
X006966Y001830D03*
X007046Y001826D03*
X006516Y001376D03*
X006512Y001360D03*
X006506Y001346D03*
X006504Y001340D03*
X006504Y001336D03*
X006502Y001330D03*
X006500Y001326D03*
X006498Y001320D03*
X006496Y001316D03*
X006494Y001310D03*
X006358Y001426D03*
X006358Y001446D03*
X006498Y000970D03*
D50*
X006517Y000974D03*
X006901Y001594D03*
X006281Y001928D03*
X006277Y001924D03*
D51*
X006268Y001426D03*
X006530Y000976D03*
X006792Y001410D03*
X006906Y001556D03*
X006962Y001616D03*
X006930Y001820D03*
D52*
X006737Y001492D03*
X006537Y000978D03*
D53*
X006550Y000980D03*
X006542Y001276D03*
X006600Y001430D03*
X006654Y001656D03*
X006934Y001596D03*
X006924Y001546D03*
X006388Y001786D03*
D54*
X006573Y000992D03*
X006557Y000982D03*
D55*
X006562Y000984D03*
X006608Y001422D03*
X006586Y001528D03*
X006396Y001802D03*
X006452Y001922D03*
X006738Y002012D03*
D56*
X006398Y001806D03*
X006562Y000986D03*
D57*
X006564Y000988D03*
X006666Y001662D03*
X006450Y001918D03*
X006740Y002008D03*
D58*
X006451Y001920D03*
X006751Y001436D03*
X006565Y000990D03*
D59*
X006599Y000996D03*
X006657Y001600D03*
D60*
X006474Y001622D03*
X006360Y001508D03*
X006324Y001468D03*
X006274Y001502D03*
X006272Y001504D03*
X006362Y001378D03*
X006360Y001372D03*
X006802Y001402D03*
X006946Y001614D03*
X006976Y001624D03*
X007004Y001752D03*
X007006Y001782D03*
X006666Y001818D03*
X006318Y001962D03*
X006314Y001958D03*
X006310Y001954D03*
X006302Y001948D03*
X006614Y000998D03*
D61*
X006622Y001000D03*
X006810Y001396D03*
X006476Y001626D03*
X006330Y001480D03*
X006330Y001476D03*
X006328Y001470D03*
X006254Y001900D03*
X006260Y001906D03*
X006264Y001910D03*
X006726Y002040D03*
X007006Y001776D03*
D62*
X007038Y001842D03*
X006926Y001674D03*
X006884Y001588D03*
X007006Y001574D03*
X007004Y001512D03*
X006826Y001382D03*
X006824Y001384D03*
X006806Y001294D03*
X006660Y001328D03*
X006652Y001308D03*
X006652Y001304D03*
X006650Y001298D03*
X006648Y001292D03*
X006644Y001284D03*
X006642Y001278D03*
X006642Y001274D03*
X006580Y001488D03*
X006560Y001564D03*
X006562Y001658D03*
X006718Y001518D03*
X006406Y001414D03*
X006398Y001402D03*
X006638Y001002D03*
X006230Y001858D03*
X006464Y002008D03*
D63*
X007042Y001808D03*
X006742Y001292D03*
X006742Y001288D03*
X006732Y001262D03*
X006732Y001258D03*
X006642Y001004D03*
D64*
X006499Y001030D03*
X006733Y001260D03*
X006743Y001296D03*
X006659Y001326D03*
X006657Y001320D03*
X006653Y001306D03*
X006651Y001300D03*
X006647Y001290D03*
X006663Y001336D03*
X006957Y001440D03*
X006337Y001396D03*
X006337Y001390D03*
X006283Y001560D03*
D65*
X006330Y001478D03*
X006330Y001472D03*
X006486Y001572D03*
X006570Y001448D03*
X006514Y001032D03*
X007000Y001714D03*
X006986Y001768D03*
X006268Y001914D03*
X006258Y001904D03*
X006256Y001902D03*
D66*
X006363Y001498D03*
X006525Y001034D03*
X006961Y001648D03*
D67*
X006976Y001720D03*
X006978Y001730D03*
X006660Y001580D03*
X006646Y001606D03*
X006592Y001436D03*
X006540Y001036D03*
D68*
X006550Y001038D03*
D69*
X006566Y001040D03*
X006400Y001810D03*
X006450Y001916D03*
X006740Y002006D03*
D70*
X006728Y001864D03*
X006726Y001862D03*
X006442Y001892D03*
X006412Y001832D03*
X006618Y001414D03*
X006736Y001444D03*
X006564Y001268D03*
X006562Y001262D03*
X006562Y001258D03*
X006574Y001042D03*
D71*
X006584Y001044D03*
X006682Y001172D03*
X006570Y001252D03*
X006714Y001364D03*
X006626Y001408D03*
X006740Y001908D03*
X006742Y001912D03*
X006742Y001918D03*
X006742Y001922D03*
X006742Y001924D03*
X006742Y001928D03*
X006742Y001932D03*
X006744Y001934D03*
X006744Y001938D03*
X006744Y001942D03*
D72*
X006585Y001046D03*
D73*
X006586Y001048D03*
X006586Y001098D03*
D74*
X006586Y001050D03*
X006570Y001250D03*
X006710Y001366D03*
X006658Y001666D03*
D75*
X006716Y001678D03*
X006726Y001448D03*
X006598Y001052D03*
X006742Y001968D03*
X006742Y001972D03*
D76*
X006452Y001924D03*
X006394Y001798D03*
X006584Y001524D03*
X006754Y001434D03*
X006618Y001054D03*
D77*
X006632Y001056D03*
X006558Y001146D03*
X006456Y001936D03*
D78*
X006384Y001774D03*
X006654Y001604D03*
X006656Y001602D03*
X006658Y001598D03*
X006660Y001594D03*
X006662Y001564D03*
X006736Y001494D03*
X006786Y001412D03*
X006648Y001058D03*
X006266Y001452D03*
X006268Y001454D03*
D79*
X006364Y001496D03*
X006388Y001450D03*
X006578Y001496D03*
X006796Y001406D03*
X006986Y001536D03*
X006662Y001060D03*
X006384Y001770D03*
X006342Y001980D03*
D80*
X006265Y001524D03*
X006261Y001408D03*
X006325Y001404D03*
X006411Y001462D03*
X006411Y001464D03*
X006815Y001394D03*
X007003Y001704D03*
X006679Y001062D03*
D81*
X006691Y001064D03*
X006727Y001244D03*
X006729Y001248D03*
X006731Y001254D03*
X006645Y001282D03*
X006647Y001288D03*
X006649Y001294D03*
X006651Y001302D03*
X006655Y001312D03*
X006655Y001314D03*
X006657Y001318D03*
X006657Y001322D03*
X006659Y001324D03*
X006661Y001332D03*
X006661Y001334D03*
X006663Y001338D03*
X006357Y001424D03*
X006337Y001394D03*
X006999Y001578D03*
X007041Y001804D03*
X007041Y001838D03*
D82*
X006695Y001538D03*
X006529Y001624D03*
X006485Y001084D03*
D83*
X006496Y001086D03*
X006726Y001240D03*
X006728Y001246D03*
X006730Y001256D03*
X006736Y001270D03*
X006738Y001276D03*
X006738Y001280D03*
X006740Y001286D03*
X006746Y001300D03*
X006660Y001330D03*
X006826Y001380D03*
X006954Y001436D03*
X007044Y001810D03*
X007046Y001820D03*
X007044Y001830D03*
X006230Y001856D03*
D84*
X006475Y001624D03*
X006359Y001514D03*
X006515Y001088D03*
D85*
X006526Y001090D03*
X006366Y001490D03*
X006464Y001600D03*
X006636Y001536D03*
X007006Y001790D03*
D86*
X006934Y001598D03*
X006596Y001432D03*
X006670Y001114D03*
X006544Y001092D03*
X006388Y001784D03*
D87*
X006454Y001928D03*
X006624Y001634D03*
X006626Y001632D03*
X006584Y001522D03*
X006556Y001094D03*
D88*
X006574Y001096D03*
X006744Y001346D03*
X006734Y001356D03*
X006414Y001836D03*
X006440Y001886D03*
D89*
X006598Y001100D03*
D90*
X006600Y001102D03*
X006724Y001702D03*
X006744Y001762D03*
X006744Y001764D03*
X006744Y001768D03*
D91*
X006641Y001394D03*
X006601Y001104D03*
D92*
X006602Y001106D03*
X006640Y001396D03*
D93*
X006613Y001108D03*
D94*
X006635Y001110D03*
X006729Y001870D03*
D95*
X006448Y001914D03*
X006730Y001468D03*
X006748Y001438D03*
X006650Y001112D03*
D96*
X006767Y001116D03*
X006177Y001566D03*
X006157Y001620D03*
X006157Y001696D03*
X006577Y001736D03*
X006627Y001900D03*
X006607Y001946D03*
X006597Y001956D03*
X006587Y001966D03*
D97*
X006460Y001964D03*
X006486Y001574D03*
X006580Y001492D03*
X006328Y001484D03*
X006358Y001364D03*
X006706Y001118D03*
X006736Y001124D03*
X006992Y001528D03*
X006894Y001562D03*
X006940Y001764D03*
X007006Y001778D03*
X006858Y001862D03*
D98*
X006896Y001592D03*
X006892Y001564D03*
X006976Y001592D03*
X006728Y001512D03*
X006476Y001628D03*
X006408Y001458D03*
X006738Y001122D03*
X006248Y001892D03*
D99*
X006312Y001956D03*
X006316Y001960D03*
X006350Y001990D03*
X006382Y001766D03*
X006322Y001466D03*
X006574Y001446D03*
X006734Y001126D03*
X006962Y001666D03*
X007000Y001740D03*
X007002Y001746D03*
D100*
X007006Y001786D03*
X006990Y001870D03*
X006962Y001670D03*
X006962Y001650D03*
X006960Y001646D03*
X006524Y001296D03*
X006364Y001386D03*
X006274Y001490D03*
X006730Y001130D03*
X006460Y001960D03*
X006336Y001976D03*
D101*
X006638Y001542D03*
X006634Y001534D03*
X006388Y001452D03*
X006274Y001422D03*
X006728Y001132D03*
X006966Y001618D03*
X006990Y001738D03*
X007006Y001794D03*
D102*
X006964Y001638D03*
X006968Y001634D03*
X006736Y001498D03*
X006630Y001532D03*
X006580Y001498D03*
X006464Y001602D03*
X006264Y001434D03*
X006270Y001424D03*
X006724Y001134D03*
D103*
X006721Y001138D03*
X006785Y001414D03*
X006663Y001568D03*
X006587Y001438D03*
X006459Y001952D03*
D104*
X006235Y001870D03*
X006493Y001560D03*
X006517Y001540D03*
X006557Y001586D03*
X006397Y001480D03*
X006401Y001446D03*
X006511Y001140D03*
X006819Y001390D03*
X006885Y001566D03*
X007001Y001516D03*
X006995Y001680D03*
D105*
X006917Y001550D03*
X006661Y001576D03*
X006457Y001946D03*
X006717Y001140D03*
D106*
X006524Y001142D03*
X006358Y001368D03*
X006484Y001578D03*
X006576Y001494D03*
X006730Y001508D03*
X006978Y001628D03*
X006996Y001718D03*
X007004Y001754D03*
X006944Y001822D03*
X007006Y001864D03*
X006724Y002038D03*
X006664Y001798D03*
X006664Y001794D03*
X006350Y001992D03*
X006298Y001944D03*
X006296Y001942D03*
X006288Y001934D03*
X006286Y001932D03*
D107*
X006642Y001612D03*
X006738Y001488D03*
X006716Y001142D03*
D108*
X006545Y001144D03*
X006651Y001552D03*
X006661Y001572D03*
X006977Y001724D03*
D109*
X006932Y001602D03*
X006922Y001548D03*
X006736Y001482D03*
X006772Y001422D03*
X006638Y001644D03*
X006456Y001942D03*
X006714Y001144D03*
D110*
X006710Y001146D03*
X006770Y001330D03*
X006456Y001940D03*
D111*
X006633Y001148D03*
D112*
X006633Y001150D03*
D113*
X006632Y001152D03*
D114*
X006634Y001154D03*
X006634Y001158D03*
D115*
X006634Y001160D03*
X006634Y001156D03*
D116*
X006651Y001162D03*
X006759Y001828D03*
D117*
X006638Y001398D03*
X006670Y001182D03*
X006664Y001164D03*
D118*
X006686Y001166D03*
X006564Y001256D03*
X006422Y001850D03*
X006434Y001870D03*
X006436Y001876D03*
X006732Y001876D03*
X006742Y001980D03*
D119*
X006733Y001878D03*
X006433Y001868D03*
X006429Y001862D03*
X006427Y001858D03*
X006425Y001854D03*
X006421Y001848D03*
X006685Y001168D03*
D120*
X006684Y001170D03*
X006624Y001410D03*
X006734Y001880D03*
D121*
X006719Y001684D03*
X006679Y001174D03*
D122*
X006677Y001176D03*
D123*
X006676Y001178D03*
X006632Y001402D03*
D124*
X006673Y001180D03*
D125*
X006670Y001184D03*
X006678Y001672D03*
X006726Y001708D03*
D126*
X006670Y001186D03*
D127*
X006670Y001188D03*
X006650Y001388D03*
X006728Y001752D03*
D128*
X006669Y001190D03*
D129*
X006667Y001192D03*
X006607Y001222D03*
D130*
X006626Y001212D03*
X006638Y001204D03*
X006664Y001194D03*
X006848Y001798D03*
D131*
X006654Y001196D03*
D132*
X006653Y001198D03*
D133*
X006644Y001200D03*
D134*
X006802Y001200D03*
X006804Y001206D03*
X006820Y001266D03*
X006836Y001366D03*
X006886Y001436D03*
X006886Y001440D03*
X006876Y001470D03*
X006868Y001490D03*
X006954Y001580D03*
X006920Y001690D03*
X006950Y001740D03*
X007006Y001876D03*
X006566Y001720D03*
X006554Y001680D03*
X006512Y001650D03*
X006506Y001656D03*
X006504Y001660D03*
X006500Y001666D03*
X006480Y001650D03*
X006520Y001640D03*
X006522Y001636D03*
X006566Y001536D03*
X006362Y001596D03*
X006226Y001840D03*
X006346Y002000D03*
D135*
X006641Y001202D03*
D136*
X006803Y001202D03*
X006803Y001204D03*
X006805Y001212D03*
X006807Y001218D03*
X006809Y001222D03*
X006809Y001224D03*
X006813Y001234D03*
X006819Y001268D03*
X006879Y001462D03*
X006875Y001472D03*
X006875Y001474D03*
X006873Y001478D03*
X006871Y001482D03*
X006871Y001484D03*
X006869Y001488D03*
X006867Y001494D03*
X006865Y001498D03*
X006861Y001508D03*
X006921Y001692D03*
X007035Y001764D03*
X006555Y001648D03*
X006555Y001624D03*
D137*
X006600Y001236D03*
X006598Y001230D03*
X006602Y001226D03*
X006612Y001220D03*
X006630Y001210D03*
X006634Y001206D03*
D138*
X006632Y001208D03*
X006622Y001214D03*
X006614Y001218D03*
X006604Y001224D03*
X006598Y001228D03*
D139*
X006554Y001298D03*
X006804Y001208D03*
X006814Y001238D03*
X006814Y001242D03*
X006820Y001264D03*
X006864Y001504D03*
X006920Y001688D03*
X007034Y001762D03*
X006554Y001654D03*
X006500Y001664D03*
X006480Y001648D03*
D140*
X006555Y001650D03*
X006555Y001646D03*
X006863Y001506D03*
X006865Y001500D03*
X006867Y001496D03*
X006873Y001476D03*
X006877Y001466D03*
X006881Y001456D03*
X006943Y001420D03*
X006813Y001286D03*
X006807Y001216D03*
X006805Y001210D03*
X006955Y001586D03*
D141*
X006956Y001588D03*
X006862Y001518D03*
X006862Y001514D03*
X006868Y001492D03*
X006876Y001468D03*
X006886Y001444D03*
X006886Y001442D03*
X006946Y001424D03*
X006816Y001244D03*
X006812Y001232D03*
X006806Y001214D03*
X006566Y001534D03*
X006556Y001644D03*
X006292Y001564D03*
X006358Y001438D03*
X006226Y001842D03*
X006926Y001714D03*
D142*
X006619Y001216D03*
D143*
X006558Y001310D03*
X006808Y001220D03*
X006818Y001250D03*
X006886Y001446D03*
X006886Y001450D03*
X006872Y001480D03*
X006862Y001510D03*
X006946Y001426D03*
X006922Y001686D03*
D144*
X006920Y001696D03*
X006870Y001486D03*
X006880Y001460D03*
X006834Y001370D03*
X006810Y001230D03*
X006810Y001226D03*
X006554Y001626D03*
X006540Y001696D03*
D145*
X006553Y001652D03*
X006865Y001528D03*
X006861Y001512D03*
X007003Y001484D03*
X007003Y001482D03*
X007005Y001488D03*
X007005Y001494D03*
X006999Y001614D03*
X006821Y001262D03*
X006819Y001254D03*
X006811Y001228D03*
X006559Y001314D03*
X006561Y001322D03*
X006563Y001328D03*
X006565Y001334D03*
X006555Y001302D03*
D146*
X006599Y001234D03*
X006599Y001232D03*
D147*
X006569Y001346D03*
X006819Y001256D03*
X006815Y001240D03*
X006813Y001236D03*
X006865Y001530D03*
D148*
X006654Y001384D03*
X006600Y001238D03*
D149*
X006583Y001240D03*
D150*
X006579Y001242D03*
D151*
X006500Y001302D03*
X006338Y001388D03*
X006338Y001392D03*
X006336Y001398D03*
X006356Y001422D03*
X006564Y001454D03*
X006560Y001562D03*
X006480Y001642D03*
X006566Y001712D03*
X006570Y001708D03*
X006586Y001684D03*
X006828Y001378D03*
X006808Y001292D03*
X006746Y001304D03*
X006744Y001298D03*
X006744Y001294D03*
X006740Y001284D03*
X006740Y001282D03*
X006738Y001278D03*
X006736Y001274D03*
X006736Y001272D03*
X006734Y001268D03*
X006734Y001264D03*
X006730Y001252D03*
X006728Y001242D03*
X006956Y001438D03*
X007018Y001548D03*
X007020Y001552D03*
X007020Y001562D03*
X007040Y001802D03*
X007046Y001824D03*
X007044Y001832D03*
X007044Y001834D03*
X006348Y001998D03*
D152*
X006724Y001698D03*
X006578Y001244D03*
D153*
X006576Y001246D03*
X006710Y001456D03*
D154*
X006817Y001246D03*
X006227Y001846D03*
D155*
X006572Y001248D03*
D156*
X006567Y001338D03*
X006357Y001434D03*
X006357Y001442D03*
X006817Y001248D03*
X006867Y001534D03*
X007007Y001498D03*
D157*
X007019Y001550D03*
X007045Y001816D03*
X006735Y001266D03*
X006729Y001250D03*
D158*
X006567Y001254D03*
D159*
X006560Y001260D03*
X006410Y001830D03*
X006442Y001890D03*
X006742Y001986D03*
X006742Y001990D03*
D160*
X006724Y002046D03*
X006460Y001970D03*
X006228Y001850D03*
X006480Y001646D03*
X006554Y001600D03*
X006566Y001716D03*
X006918Y001700D03*
X006864Y001526D03*
X006862Y001520D03*
X006862Y001516D03*
X006950Y001430D03*
X006972Y001450D03*
X006978Y001456D03*
X007002Y001480D03*
X007004Y001486D03*
X007004Y001490D03*
X007006Y001496D03*
X007006Y001500D03*
X007008Y001506D03*
X006822Y001260D03*
X006572Y001350D03*
X006574Y001360D03*
X006576Y001366D03*
X006566Y001336D03*
X006564Y001330D03*
X006564Y001326D03*
X006562Y001320D03*
X006560Y001316D03*
X006556Y001306D03*
X006554Y001300D03*
X006496Y001306D03*
X006508Y001350D03*
X006356Y001430D03*
X006358Y001436D03*
X006358Y001440D03*
D161*
X006565Y001272D03*
X006563Y001264D03*
X006725Y001462D03*
X006407Y001824D03*
X006409Y001828D03*
X006443Y001894D03*
X006741Y001992D03*
D162*
X006722Y001856D03*
X006408Y001826D03*
X006406Y001820D03*
X006564Y001266D03*
D163*
X006565Y001270D03*
X006743Y001350D03*
X006443Y001896D03*
D164*
X006515Y001646D03*
X006819Y001270D03*
D165*
X006768Y001332D03*
X006766Y001334D03*
X006542Y001274D03*
X006582Y001514D03*
X006658Y001658D03*
X006778Y001818D03*
X006738Y002022D03*
X006388Y001788D03*
D166*
X006232Y001860D03*
X006480Y001640D03*
X006556Y001596D03*
X006390Y001390D03*
X006648Y001296D03*
X006646Y001286D03*
X006644Y001280D03*
X006642Y001276D03*
X006654Y001310D03*
X006656Y001316D03*
X007016Y001566D03*
X007040Y001840D03*
D167*
X006972Y001868D03*
X006736Y002028D03*
X006456Y001944D03*
X006386Y001782D03*
X006638Y001642D03*
X006650Y001654D03*
X006640Y001624D03*
X006594Y001434D03*
X006538Y001278D03*
X006932Y001604D03*
D168*
X006644Y001610D03*
X006640Y001616D03*
X006580Y001506D03*
X006534Y001280D03*
D169*
X006530Y001282D03*
X006778Y001322D03*
X006660Y001592D03*
D170*
X006527Y001284D03*
D171*
X006308Y001398D03*
X006560Y001558D03*
X006556Y001602D03*
X006556Y001622D03*
X006524Y001634D03*
X006518Y001644D03*
X006514Y001648D03*
X006510Y001652D03*
X006508Y001654D03*
X006550Y001684D03*
X006556Y001678D03*
X006546Y001692D03*
X006544Y001694D03*
X006540Y001698D03*
X006568Y001718D03*
X006576Y001654D03*
X006696Y001542D03*
X006864Y001502D03*
X006878Y001464D03*
X006880Y001458D03*
X006944Y001422D03*
X006834Y001368D03*
X006814Y001284D03*
X006954Y001584D03*
X007002Y001612D03*
X006920Y001694D03*
X006920Y001698D03*
X006380Y001758D03*
X006224Y001838D03*
D172*
X006732Y002036D03*
X006942Y001610D03*
X006522Y001286D03*
D173*
X006521Y001290D03*
X006275Y001496D03*
X006961Y001656D03*
D174*
X007042Y001806D03*
X007042Y001836D03*
X006742Y001290D03*
D175*
X006507Y001298D03*
X006363Y001524D03*
X006273Y001554D03*
X006263Y001514D03*
X006253Y001472D03*
X006251Y001462D03*
D176*
X006555Y001592D03*
X006805Y001298D03*
X006999Y001692D03*
X006999Y001694D03*
X007035Y001844D03*
D177*
X007032Y001796D03*
X006980Y001796D03*
X006998Y001690D03*
X006998Y001686D03*
X006558Y001570D03*
X006520Y001536D03*
X006496Y001556D03*
X006574Y001490D03*
X006504Y001300D03*
X006234Y001866D03*
D178*
X006478Y001636D03*
X006558Y001580D03*
X006558Y001576D03*
X006722Y001516D03*
X006888Y001590D03*
X006990Y001676D03*
X006802Y001300D03*
X006404Y001470D03*
X006398Y001476D03*
X006392Y001486D03*
X006274Y001556D03*
X006252Y001466D03*
X006260Y001406D03*
D179*
X006359Y001448D03*
X006585Y001688D03*
X006229Y001854D03*
X006745Y001302D03*
X007045Y001812D03*
X007045Y001814D03*
X007045Y001828D03*
D180*
X006952Y001824D03*
X007002Y001702D03*
X006802Y001302D03*
X006412Y001432D03*
X006362Y001522D03*
X006272Y001548D03*
X006262Y001508D03*
X006252Y001468D03*
X006252Y001464D03*
X006242Y001882D03*
D181*
X006227Y001848D03*
X006565Y001664D03*
X006581Y001694D03*
X006879Y001584D03*
X006919Y001684D03*
X006917Y001702D03*
X006931Y001718D03*
X006985Y001462D03*
X006973Y001452D03*
X006969Y001448D03*
X006885Y001454D03*
X006577Y001368D03*
X006575Y001364D03*
X006571Y001352D03*
X006517Y001378D03*
X006519Y001382D03*
X006515Y001374D03*
X006513Y001368D03*
X006511Y001362D03*
X006509Y001354D03*
X006505Y001344D03*
X006497Y001304D03*
D182*
X006799Y001304D03*
X006581Y001674D03*
D183*
X006877Y001576D03*
X006923Y001676D03*
X007021Y001560D03*
X007021Y001556D03*
X007017Y001546D03*
X006747Y001306D03*
D184*
X006798Y001306D03*
X006976Y001590D03*
X006582Y001670D03*
X006486Y001570D03*
X006408Y001460D03*
X006408Y001456D03*
D185*
X006264Y001444D03*
X006464Y001604D03*
X006384Y001772D03*
X006660Y001558D03*
X006910Y001554D03*
X006780Y001308D03*
X006734Y002034D03*
D186*
X006459Y001956D03*
X006267Y001430D03*
X006781Y001310D03*
X006783Y001316D03*
D187*
X006952Y001432D03*
X006954Y001434D03*
X006964Y001444D03*
X006988Y001464D03*
X006992Y001468D03*
X006996Y001472D03*
X006998Y001474D03*
X007008Y001508D03*
X007022Y001558D03*
X006878Y001574D03*
X006878Y001578D03*
X006878Y001582D03*
X006922Y001678D03*
X006920Y001708D03*
X006966Y001814D03*
X006966Y001828D03*
X007006Y001874D03*
X007046Y001822D03*
X007046Y001818D03*
X006590Y001682D03*
X006578Y001698D03*
X006574Y001702D03*
X006572Y001704D03*
X006566Y001714D03*
X006480Y001644D03*
X006554Y001598D03*
X006516Y001372D03*
X006512Y001364D03*
X006510Y001358D03*
X006508Y001352D03*
X006508Y001348D03*
X006506Y001342D03*
X006502Y001334D03*
X006502Y001332D03*
X006500Y001328D03*
X006500Y001324D03*
X006498Y001322D03*
X006498Y001318D03*
X006496Y001314D03*
X006496Y001312D03*
X006356Y001428D03*
X006228Y001852D03*
D188*
X006389Y001454D03*
X006265Y001432D03*
X006263Y001438D03*
X006781Y001314D03*
X006781Y001312D03*
D189*
X006773Y001326D03*
X006385Y001780D03*
D190*
X006637Y001648D03*
X006581Y001508D03*
X006737Y001484D03*
X006771Y001328D03*
D191*
X006762Y001336D03*
X006452Y001926D03*
D192*
X006739Y002014D03*
X006757Y001432D03*
X006761Y001338D03*
D193*
X006743Y001340D03*
X006713Y001676D03*
X006421Y001846D03*
X006417Y001840D03*
X006437Y001880D03*
D194*
X006416Y001838D03*
X006730Y001868D03*
X006744Y001344D03*
X006744Y001342D03*
D195*
X006745Y001348D03*
D196*
X006742Y001352D03*
X006740Y001354D03*
X006322Y001488D03*
X006724Y001854D03*
X006444Y001898D03*
D197*
X006441Y001888D03*
X006413Y001834D03*
X006741Y001988D03*
X006731Y001358D03*
D198*
X006993Y001526D03*
X006999Y001716D03*
X006357Y001360D03*
D199*
X006725Y001360D03*
X006429Y001860D03*
X006431Y001866D03*
D200*
X006381Y001764D03*
X006261Y001908D03*
X006265Y001912D03*
X006271Y001918D03*
X006275Y001922D03*
X006359Y001518D03*
X006329Y001482D03*
X006357Y001362D03*
X006809Y001398D03*
D201*
X006720Y001362D03*
X006734Y001884D03*
X006434Y001872D03*
X006430Y001864D03*
D202*
X006268Y001916D03*
X006730Y001510D03*
X006978Y001626D03*
X006918Y001866D03*
X006358Y001366D03*
D203*
X006704Y001368D03*
X006714Y001454D03*
X006720Y001688D03*
D204*
X006724Y001710D03*
X006688Y001370D03*
D205*
X006688Y001372D03*
X006678Y001378D03*
X006724Y001704D03*
D206*
X006667Y001834D03*
X006459Y001962D03*
X006359Y001512D03*
X006361Y001374D03*
X007001Y001742D03*
X007001Y001744D03*
X007003Y001748D03*
X007005Y001758D03*
D207*
X006828Y001834D03*
X006686Y001374D03*
D208*
X006733Y001506D03*
X006899Y001560D03*
X006481Y001580D03*
X006361Y001506D03*
X006361Y001376D03*
D209*
X006683Y001376D03*
X006725Y001706D03*
D210*
X006476Y001586D03*
X006472Y001590D03*
X006362Y001380D03*
X006328Y001970D03*
X006962Y001660D03*
X006976Y001630D03*
D211*
X006672Y001380D03*
D212*
X006668Y001382D03*
X006724Y001718D03*
D213*
X006652Y001386D03*
D214*
X006824Y001386D03*
X007004Y001770D03*
X006394Y001396D03*
X006354Y001456D03*
D215*
X006405Y001412D03*
X006399Y001404D03*
X006395Y001398D03*
X006393Y001394D03*
X006391Y001392D03*
X006389Y001388D03*
X006555Y001594D03*
X006995Y001582D03*
X007017Y001564D03*
D216*
X006726Y001726D03*
X006646Y001390D03*
D217*
X006645Y001392D03*
D218*
X006726Y001514D03*
X006816Y001392D03*
X006984Y001672D03*
X007006Y001774D03*
X006914Y001762D03*
X006726Y002042D03*
X006476Y001632D03*
X006488Y001564D03*
X006514Y001544D03*
X006326Y001402D03*
X006254Y001474D03*
X006254Y001478D03*
X006256Y001484D03*
X006264Y001512D03*
X006264Y001518D03*
X006266Y001522D03*
X006266Y001528D03*
X006268Y001532D03*
X006268Y001534D03*
X006270Y001542D03*
X006270Y001544D03*
D219*
X006260Y001486D03*
X006326Y001400D03*
X006410Y001420D03*
X006410Y001426D03*
X006410Y001430D03*
X006508Y001550D03*
X006476Y001630D03*
X006568Y001450D03*
X006998Y001520D03*
X007014Y001760D03*
X006460Y001966D03*
X006244Y001886D03*
D220*
X006559Y001566D03*
X006403Y001410D03*
X006401Y001406D03*
X006397Y001400D03*
X007003Y001576D03*
D221*
X006635Y001400D03*
D222*
X006630Y001404D03*
X006718Y001452D03*
X006736Y001822D03*
D223*
X006514Y001546D03*
X006326Y001406D03*
X006254Y001476D03*
X006256Y001480D03*
X006264Y001516D03*
X006264Y001520D03*
X006266Y001526D03*
X006266Y001530D03*
X006268Y001536D03*
X006268Y001540D03*
X006270Y001546D03*
X006270Y001550D03*
X006240Y001880D03*
X006348Y001996D03*
D224*
X006627Y001406D03*
D225*
X006558Y001568D03*
X006478Y001638D03*
X006588Y001678D03*
X006882Y001568D03*
X006998Y001698D03*
X007036Y001798D03*
X006402Y001408D03*
X006232Y001862D03*
D226*
X006471Y001614D03*
X006793Y001408D03*
X007007Y001792D03*
D227*
X007001Y001710D03*
X006327Y001410D03*
X006261Y001410D03*
X006247Y001890D03*
D228*
X006456Y001938D03*
X006738Y002024D03*
X006638Y001652D03*
X006582Y001512D03*
X006300Y001414D03*
X006298Y001412D03*
D229*
X006621Y001412D03*
X006731Y001872D03*
X006731Y001874D03*
X006741Y001982D03*
X006439Y001884D03*
X006439Y001882D03*
X006437Y001878D03*
X006419Y001842D03*
D230*
X006300Y001416D03*
D231*
X006616Y001416D03*
D232*
X006782Y001416D03*
X006472Y001610D03*
D233*
X006299Y001418D03*
X006735Y001478D03*
X006975Y001858D03*
X006455Y001934D03*
D234*
X006237Y001872D03*
X006491Y001562D03*
X006557Y001578D03*
X006557Y001582D03*
X006557Y001584D03*
X006405Y001418D03*
X006993Y001678D03*
D235*
X006741Y002002D03*
X006403Y001814D03*
X006401Y001812D03*
X006613Y001418D03*
D236*
X006779Y001418D03*
X006977Y001732D03*
X006457Y001948D03*
D237*
X006942Y001418D03*
D238*
X006582Y001516D03*
X006300Y001420D03*
X006738Y002020D03*
D239*
X006612Y001420D03*
D240*
X006776Y001420D03*
D241*
X006733Y001472D03*
X006607Y001424D03*
D242*
X006769Y001424D03*
D243*
X006761Y001430D03*
X006735Y001476D03*
X006603Y001426D03*
D244*
X006735Y001480D03*
X006767Y001426D03*
D245*
X006762Y001428D03*
X006602Y001428D03*
X006454Y001932D03*
D246*
X006887Y001428D03*
D247*
X006887Y001430D03*
X006297Y001566D03*
D248*
X006417Y001434D03*
D249*
X006584Y001440D03*
X006264Y001440D03*
X006264Y001436D03*
D250*
X006730Y001466D03*
X006744Y001440D03*
X006448Y001910D03*
D251*
X006460Y001958D03*
X006346Y001984D03*
X006344Y001982D03*
X006904Y001558D03*
X006970Y001632D03*
X007006Y001788D03*
X006580Y001442D03*
X006364Y001494D03*
X006328Y001462D03*
D252*
X006612Y001628D03*
X006728Y001464D03*
X006738Y001442D03*
X006406Y001822D03*
X006446Y001902D03*
D253*
X006663Y001566D03*
X006661Y001560D03*
X006265Y001450D03*
X006263Y001446D03*
D254*
X006732Y001446D03*
D255*
X006265Y001448D03*
D256*
X006722Y001450D03*
X006716Y001680D03*
X006744Y001960D03*
D257*
X006738Y002018D03*
X006392Y001792D03*
X006298Y001458D03*
X006734Y001474D03*
D258*
X006706Y001458D03*
X006664Y001668D03*
X006722Y001694D03*
D259*
X006584Y001520D03*
X006300Y001460D03*
X006454Y001930D03*
D260*
X006743Y001966D03*
X006719Y001460D03*
D261*
X006478Y001584D03*
X006362Y001504D03*
X006322Y001464D03*
X006382Y001768D03*
X006962Y001668D03*
X006962Y001664D03*
X006972Y001622D03*
X006988Y001534D03*
X007006Y001784D03*
D262*
X006411Y001466D03*
D263*
X006487Y001566D03*
X006253Y001470D03*
D264*
X006622Y001636D03*
X006622Y001640D03*
X006732Y001470D03*
D265*
X006995Y001524D03*
X006329Y001474D03*
X006253Y001898D03*
D266*
X006197Y001788D03*
X006187Y001772D03*
X006177Y001752D03*
X006167Y001732D03*
X006527Y001622D03*
X006547Y001478D03*
X006607Y001768D03*
D267*
X006239Y001878D03*
X006269Y001538D03*
X006255Y001482D03*
D268*
X006737Y001486D03*
D269*
X006321Y001492D03*
X006405Y001818D03*
X006445Y001904D03*
X006741Y001998D03*
D270*
X006988Y001736D03*
X006736Y001496D03*
D271*
X006664Y001770D03*
X006474Y001620D03*
X006274Y001500D03*
X006324Y001966D03*
D272*
X006351Y001986D03*
X006467Y001596D03*
X006363Y001500D03*
X006969Y001620D03*
D273*
X006579Y001500D03*
D274*
X006735Y001500D03*
D275*
X007002Y001706D03*
X006962Y001766D03*
X006262Y001510D03*
X006262Y001506D03*
D276*
X006581Y001510D03*
D277*
X006280Y001558D03*
X006234Y001864D03*
X006930Y001672D03*
X006990Y001588D03*
X006994Y001584D03*
X007010Y001572D03*
X007014Y001568D03*
X007004Y001514D03*
D278*
X006583Y001518D03*
D279*
X006580Y001676D03*
X006360Y001520D03*
X006884Y001536D03*
D280*
X006584Y001526D03*
X006738Y002016D03*
D281*
X006740Y002010D03*
X006394Y001800D03*
X006584Y001530D03*
D282*
X006992Y001530D03*
D283*
X006989Y001532D03*
X006961Y001662D03*
X006481Y001582D03*
X006307Y001952D03*
D284*
X006353Y001988D03*
X006467Y001598D03*
X006637Y001538D03*
D285*
X006942Y001538D03*
D286*
X006942Y001540D03*
X006704Y001670D03*
D287*
X006670Y001664D03*
X006944Y001544D03*
X006944Y001542D03*
X006446Y001908D03*
D288*
X006659Y001586D03*
X006649Y001550D03*
X006647Y001546D03*
X006977Y001726D03*
D289*
X006921Y001712D03*
X006877Y001572D03*
X007021Y001554D03*
X006967Y001832D03*
X006967Y001834D03*
X006583Y001692D03*
D290*
X006485Y001576D03*
X006279Y001926D03*
D291*
X006952Y001576D03*
D292*
X006660Y001578D03*
X006644Y001608D03*
X006640Y001614D03*
X006640Y001618D03*
X006640Y001622D03*
X006470Y001608D03*
D293*
X006470Y001592D03*
X006960Y001658D03*
D294*
X006932Y001600D03*
D295*
X006932Y001606D03*
X006642Y001620D03*
X006468Y001606D03*
X006736Y002030D03*
X006986Y001860D03*
D296*
X006961Y001640D03*
X006471Y001616D03*
D297*
X006636Y001626D03*
X006636Y001650D03*
X006736Y002026D03*
D298*
X006960Y001856D03*
X006610Y001630D03*
D299*
X006620Y001638D03*
D300*
X006637Y001646D03*
D301*
X006664Y001660D03*
X006786Y001770D03*
D302*
X006712Y001674D03*
X006742Y001984D03*
D303*
X006743Y001954D03*
X006743Y001952D03*
X006743Y001948D03*
X006743Y001944D03*
X006741Y001914D03*
X006739Y001904D03*
X006739Y001902D03*
X006717Y001682D03*
D304*
X006720Y001686D03*
D305*
X006721Y001690D03*
D306*
X006721Y001692D03*
D307*
X006722Y001696D03*
D308*
X006724Y001700D03*
X006746Y001826D03*
D309*
X006726Y001714D03*
X006724Y001712D03*
D310*
X007000Y001712D03*
X007000Y001872D03*
X006250Y001894D03*
D311*
X006726Y001716D03*
D312*
X006724Y001720D03*
D313*
X006726Y001722D03*
D314*
X006726Y001724D03*
X006726Y001728D03*
D315*
X006727Y001730D03*
D316*
X006727Y001732D03*
X006727Y001734D03*
X006727Y001738D03*
D317*
X006727Y001736D03*
D318*
X006728Y001740D03*
X006740Y001756D03*
D319*
X006728Y001748D03*
X006728Y001744D03*
X006728Y001742D03*
X006758Y001774D03*
D320*
X006727Y001746D03*
D321*
X006728Y001750D03*
D322*
X006734Y001754D03*
D323*
X006752Y001758D03*
D324*
X006770Y001760D03*
D325*
X006744Y001766D03*
X006750Y001860D03*
D326*
X006749Y001772D03*
X006829Y001794D03*
D327*
X006383Y001776D03*
D328*
X006772Y001776D03*
D329*
X006778Y001778D03*
D330*
X006786Y001780D03*
D331*
X006787Y001782D03*
D332*
X006788Y001784D03*
D333*
X006789Y001786D03*
D334*
X006790Y001788D03*
X006790Y001792D03*
D335*
X006389Y001790D03*
D336*
X006790Y001790D03*
D337*
X006392Y001794D03*
D338*
X006393Y001796D03*
D339*
X006790Y001796D03*
D340*
X006807Y001800D03*
D341*
X006808Y001802D03*
D342*
X006397Y001804D03*
D343*
X006805Y001804D03*
D344*
X006806Y001806D03*
X006808Y001836D03*
D345*
X006399Y001808D03*
D346*
X006804Y001808D03*
X006804Y001812D03*
D347*
X006803Y001810D03*
X006803Y001816D03*
D348*
X006788Y001814D03*
D349*
X006741Y002000D03*
X006403Y001816D03*
D350*
X006737Y001820D03*
D351*
X006737Y001824D03*
D352*
X006768Y001830D03*
D353*
X006780Y001832D03*
D354*
X006807Y001838D03*
D355*
X006809Y001840D03*
D356*
X006809Y001842D03*
D357*
X006730Y001858D03*
X006734Y001882D03*
X006742Y001974D03*
X006742Y001978D03*
X006434Y001874D03*
X006424Y001852D03*
X006420Y001844D03*
D358*
X006812Y001844D03*
D359*
X006815Y001846D03*
D360*
X007033Y001846D03*
D361*
X006842Y001848D03*
D362*
X006842Y001850D03*
D363*
X006841Y001852D03*
D364*
X006743Y001964D03*
X006949Y001854D03*
D365*
X006736Y001886D03*
X006736Y001890D03*
X006742Y001970D03*
X006742Y001976D03*
X006426Y001856D03*
D366*
X006727Y001866D03*
D367*
X007005Y001866D03*
X006251Y001896D03*
D368*
X006239Y001876D03*
D369*
X006736Y001888D03*
X006736Y001892D03*
X006738Y001894D03*
X006738Y001898D03*
X006742Y001958D03*
X006742Y001962D03*
D370*
X006743Y001956D03*
X006743Y001950D03*
X006743Y001946D03*
X006743Y001926D03*
X006739Y001900D03*
X006737Y001896D03*
D371*
X006741Y001996D03*
X006445Y001900D03*
D372*
X006447Y001906D03*
D373*
X006740Y001906D03*
X006740Y001910D03*
X006742Y001916D03*
X006742Y001920D03*
X006744Y001930D03*
X006742Y001936D03*
X006742Y001940D03*
D374*
X006740Y002004D03*
X006448Y001912D03*
D375*
X006283Y001930D03*
X006273Y001920D03*
D376*
X006292Y001938D03*
D377*
X006741Y001994D03*
D378*
X006365Y002140D03*
D379*
X000500Y000250D02*
X000250Y000500D01*
X000250Y001000D01*
X000500Y001250D01*
X000250Y001500D01*
X000250Y002000D01*
X000500Y002250D01*
X000250Y002500D01*
X000250Y003000D01*
X000500Y003250D01*
X000250Y003500D01*
X000250Y004000D01*
X000500Y004250D01*
X000250Y004500D01*
X000250Y005000D01*
X000500Y005250D01*
X000250Y005500D01*
X000250Y006000D01*
X000500Y006250D01*
X000250Y006500D01*
X000250Y007000D01*
X000500Y007250D01*
X000250Y007500D01*
X000250Y008000D01*
X000500Y008250D01*
X001000Y008250D01*
X001250Y008000D01*
X001250Y007500D01*
X001000Y007250D01*
X001250Y007000D01*
X001250Y006500D01*
X001000Y006250D01*
X001250Y006000D01*
X001250Y005500D01*
X001000Y005250D01*
X001250Y005000D01*
X001250Y004500D01*
X001000Y004250D01*
X001250Y004000D01*
X001250Y003500D01*
X001000Y003250D01*
X001250Y003000D01*
X001250Y002500D01*
X001000Y002250D01*
X001250Y002000D01*
X001250Y001500D01*
X001000Y001250D01*
X001250Y001000D01*
X001250Y000500D01*
X001000Y000250D01*
X000500Y000250D01*
M02*
