G04 Layer_Color=8388736*
%FSLAX25Y25*%
%MOIN*%
G70*
G01*
G75*
%ADD66C,0.03000*%
%ADD67C,0.04000*%
%ADD68C,0.03200*%
%ADD127R,0.10630X0.09449*%
%ADD128R,0.04043X0.03650*%
%ADD129R,0.03650X0.01484*%
%ADD130R,0.01484X0.03650*%
%ADD131R,0.11130X0.10736*%
%ADD132R,0.03650X0.04043*%
%ADD133R,0.03847X0.04240*%
%ADD134R,0.04043X0.06012*%
%ADD135R,0.04634X0.02665*%
%ADD136R,0.02665X0.04634*%
%ADD137R,0.04240X0.03847*%
%ADD138R,0.06012X0.04043*%
%ADD139R,0.02862X0.04634*%
%ADD140R,0.11012X0.03700*%
%ADD141R,0.04634X0.04634*%
%ADD142R,0.02272X0.04043*%
%ADD143R,0.02665X0.07193*%
%ADD144R,0.04437X0.04043*%
%ADD145R,0.04043X0.04437*%
%ADD146R,0.10106X0.04949*%
%ADD147R,0.06012X0.05028*%
%ADD148R,0.06602X0.05421*%
G04:AMPARAMS|DCode=149|XSize=22.72mil|YSize=40.43mil|CornerRadius=0mil|HoleSize=0mil|Usage=FLASHONLY|Rotation=225.000|XOffset=0mil|YOffset=0mil|HoleType=Round|Shape=Rectangle|*
%AMROTATEDRECTD149*
4,1,4,-0.00626,0.02233,0.02233,-0.00626,0.00626,-0.02233,-0.02233,0.00626,-0.00626,0.02233,0.0*
%
%ADD149ROTATEDRECTD149*%

%ADD150R,0.06406X0.06406*%
%ADD151R,0.04043X0.04043*%
G04:AMPARAMS|DCode=152|XSize=142.79mil|YSize=55mil|CornerRadius=15mil|HoleSize=0mil|Usage=FLASHONLY|Rotation=90.000|XOffset=0mil|YOffset=0mil|HoleType=Round|Shape=RoundedRectangle|*
%AMROUNDEDRECTD152*
21,1,0.14279,0.02500,0,0,90.0*
21,1,0.11280,0.05500,0,0,90.0*
1,1,0.03000,0.01250,0.05640*
1,1,0.03000,0.01250,-0.05640*
1,1,0.03000,-0.01250,-0.05640*
1,1,0.03000,-0.01250,0.05640*
%
%ADD152ROUNDEDRECTD152*%
G04:AMPARAMS|DCode=153|XSize=142.79mil|YSize=105mil|CornerRadius=27.5mil|HoleSize=0mil|Usage=FLASHONLY|Rotation=90.000|XOffset=0mil|YOffset=0mil|HoleType=Round|Shape=RoundedRectangle|*
%AMROUNDEDRECTD153*
21,1,0.14279,0.05000,0,0,90.0*
21,1,0.08780,0.10500,0,0,90.0*
1,1,0.05500,0.02500,0.04390*
1,1,0.05500,0.02500,-0.04390*
1,1,0.05500,-0.02500,-0.04390*
1,1,0.05500,-0.02500,0.04390*
%
%ADD153ROUNDEDRECTD153*%
%ADD154R,0.14004X0.06996*%
%ADD155R,0.05500X0.11996*%
%ADD156O,0.08768X0.01681*%
%ADD157O,0.01681X0.08768*%
%ADD158R,0.04437X0.08374*%
%ADD159C,0.00500*%
%ADD160C,0.06500*%
%ADD161C,0.06799*%
%ADD162C,0.06012*%
%ADD163C,0.09555*%
%ADD164C,0.24500*%
%ADD165C,0.00500*%
%ADD166C,0.23500*%
%ADD167C,0.07587*%
%ADD168C,0.03300*%
%ADD169C,0.03200*%
D66*
X146419Y134610D02*
D03*
X-39198Y-129000D02*
D03*
X188443Y63000D02*
D03*
X-97734Y105500D02*
D03*
X-13500Y61738D02*
D03*
X-42700Y121885D02*
D03*
X-63744Y64295D02*
D03*
X-63768Y76788D02*
D03*
D67*
X-83829Y140819D02*
D03*
D68*
X-77835Y92335D02*
D03*
X-82165D02*
D03*
X-77835Y96665D02*
D03*
X-82165D02*
D03*
X132592Y-127610D02*
D03*
X145460Y-24606D02*
D03*
D127*
X-52000D02*
D03*
Y25000D02*
D03*
D128*
X-68788Y64295D02*
D03*
Y59177D02*
D03*
Y76878D02*
D03*
Y71760D02*
D03*
X130372Y57051D02*
D03*
Y62169D02*
D03*
X-188628Y-74844D02*
D03*
Y-69726D02*
D03*
X36500Y-121336D02*
D03*
Y-126454D02*
D03*
D129*
X-72323Y89579D02*
D03*
Y91547D02*
D03*
Y93516D02*
D03*
Y95484D02*
D03*
Y97453D02*
D03*
Y99421D02*
D03*
X-87677D02*
D03*
Y97453D02*
D03*
Y95484D02*
D03*
Y93516D02*
D03*
Y91547D02*
D03*
Y89579D02*
D03*
D130*
X-75079Y102177D02*
D03*
X-77047D02*
D03*
X-79016D02*
D03*
X-80984D02*
D03*
X-82953D02*
D03*
X-84921D02*
D03*
Y86823D02*
D03*
X-82953D02*
D03*
X-80984D02*
D03*
X-79016D02*
D03*
X-77047D02*
D03*
X-75079D02*
D03*
D131*
X-80000Y94500D02*
D03*
D132*
X89079Y51000D02*
D03*
X94197D02*
D03*
X-25559Y-20912D02*
D03*
X-20441D02*
D03*
X-25559Y26732D02*
D03*
X-20441D02*
D03*
X144746Y-39500D02*
D03*
X149864D02*
D03*
X-51714Y34441D02*
D03*
X-46596D02*
D03*
X-165941Y64595D02*
D03*
X-171059D02*
D03*
D133*
X-25657Y-26925D02*
D03*
X-20343D02*
D03*
X-20343Y32761D02*
D03*
X-25657D02*
D03*
X73304Y55276D02*
D03*
X78619D02*
D03*
X126030Y83610D02*
D03*
X120715D02*
D03*
X-93685Y98047D02*
D03*
X-99000D02*
D03*
X-93685Y91547D02*
D03*
X-99000D02*
D03*
X-129157Y12107D02*
D03*
X-123843D02*
D03*
D134*
X-67580Y-140000D02*
D03*
X-75257D02*
D03*
X-52966Y140000D02*
D03*
X-45289D02*
D03*
X-64661Y-64500D02*
D03*
X-72339D02*
D03*
X141080Y-140000D02*
D03*
X148757D02*
D03*
X156080Y140000D02*
D03*
X163757D02*
D03*
X-24161Y-4000D02*
D03*
X-31839D02*
D03*
X-24161Y4000D02*
D03*
X-31839D02*
D03*
D135*
X28923Y-11024D02*
D03*
Y-7874D02*
D03*
Y-4724D02*
D03*
Y-1575D02*
D03*
Y1575D02*
D03*
Y4724D02*
D03*
Y7874D02*
D03*
Y11024D02*
D03*
X22230Y-11024D02*
D03*
Y-7874D02*
D03*
Y-4724D02*
D03*
Y-1575D02*
D03*
Y1575D02*
D03*
Y4724D02*
D03*
Y7874D02*
D03*
Y11024D02*
D03*
X155154Y4921D02*
D03*
Y8071D02*
D03*
Y11220D02*
D03*
Y20669D02*
D03*
Y23819D02*
D03*
Y14370D02*
D03*
Y17520D02*
D03*
Y26969D02*
D03*
X161846Y4921D02*
D03*
Y8071D02*
D03*
Y11220D02*
D03*
Y14370D02*
D03*
Y20669D02*
D03*
Y23819D02*
D03*
Y17520D02*
D03*
Y26969D02*
D03*
X26346Y17476D02*
D03*
Y20626D02*
D03*
Y23776D02*
D03*
Y26925D02*
D03*
Y30075D02*
D03*
Y33224D02*
D03*
Y36374D02*
D03*
Y39524D02*
D03*
X19654Y17476D02*
D03*
Y20626D02*
D03*
Y23776D02*
D03*
Y26925D02*
D03*
Y30075D02*
D03*
Y33224D02*
D03*
Y36374D02*
D03*
Y39524D02*
D03*
X31500Y-39524D02*
D03*
Y-36374D02*
D03*
Y-33224D02*
D03*
Y-30075D02*
D03*
Y-26925D02*
D03*
Y-23776D02*
D03*
Y-20626D02*
D03*
Y-17476D02*
D03*
X24807Y-39524D02*
D03*
Y-36374D02*
D03*
Y-33224D02*
D03*
Y-30075D02*
D03*
Y-26925D02*
D03*
Y-23776D02*
D03*
Y-20626D02*
D03*
Y-17476D02*
D03*
X161846Y-27524D02*
D03*
Y-24374D02*
D03*
Y-21224D02*
D03*
Y-18075D02*
D03*
Y-14925D02*
D03*
Y-11776D02*
D03*
Y-8626D02*
D03*
Y-5476D02*
D03*
X155154Y-27524D02*
D03*
Y-24374D02*
D03*
Y-21224D02*
D03*
Y-18075D02*
D03*
Y-14925D02*
D03*
Y-11776D02*
D03*
Y-8626D02*
D03*
Y-5476D02*
D03*
D136*
X95976Y-66813D02*
D03*
X99126D02*
D03*
X105425D02*
D03*
X102276D02*
D03*
X99126Y-60120D02*
D03*
X95976D02*
D03*
X102276D02*
D03*
X108575Y-66813D02*
D03*
X114874D02*
D03*
X111724D02*
D03*
X118024D02*
D03*
X105425Y-60120D02*
D03*
X111724D02*
D03*
X108575D02*
D03*
X114874D02*
D03*
X118024D02*
D03*
D137*
X-76500Y107843D02*
D03*
Y113157D02*
D03*
X-70000Y107843D02*
D03*
Y113157D02*
D03*
X-83000Y107843D02*
D03*
Y113157D02*
D03*
Y75842D02*
D03*
Y81157D02*
D03*
X175000Y-13996D02*
D03*
Y-8681D02*
D03*
D138*
X-208500Y-26161D02*
D03*
Y-33839D02*
D03*
Y26161D02*
D03*
Y33839D02*
D03*
X-51000Y104339D02*
D03*
Y96661D02*
D03*
D139*
X-39444Y-32428D02*
D03*
X-35704D02*
D03*
X-31964D02*
D03*
Y-21207D02*
D03*
X-39444D02*
D03*
Y15216D02*
D03*
X-35704D02*
D03*
X-31964D02*
D03*
Y26437D02*
D03*
X-39444D02*
D03*
D140*
X-97740Y-10000D02*
D03*
Y-5000D02*
D03*
Y5000D02*
D03*
Y0D02*
D03*
Y10000D02*
D03*
X-85260Y-5000D02*
D03*
Y-10000D02*
D03*
Y5000D02*
D03*
Y0D02*
D03*
Y10000D02*
D03*
D141*
X222504Y8858D02*
D03*
Y-8858D02*
D03*
X235496D02*
D03*
Y8858D02*
D03*
D142*
X258276Y56457D02*
D03*
X261425D02*
D03*
X264575D02*
D03*
X267724D02*
D03*
X258276Y63543D02*
D03*
X261425D02*
D03*
X264575D02*
D03*
X267724D02*
D03*
D143*
X152799Y62500D02*
D03*
D144*
X162150Y54429D02*
D03*
X155850Y70571D02*
D03*
D145*
X155654Y54626D02*
D03*
X162346Y70374D02*
D03*
D146*
X217071Y27500D02*
D03*
Y37500D02*
D03*
Y47500D02*
D03*
X250929Y27500D02*
D03*
Y37500D02*
D03*
Y47500D02*
D03*
D147*
X-193500Y72154D02*
D03*
Y78847D02*
D03*
D148*
X101372Y77484D02*
D03*
X121372D02*
D03*
X101372Y61736D02*
D03*
X121372D02*
D03*
D149*
X195335Y-79154D02*
D03*
X193108Y-81381D02*
D03*
X190881Y-83608D02*
D03*
X188654Y-85835D02*
D03*
X200346Y-84165D02*
D03*
X198119Y-86392D02*
D03*
X195892Y-88619D02*
D03*
X193665Y-90846D02*
D03*
D150*
X278425Y-19390D02*
D03*
Y-5610D02*
D03*
Y5610D02*
D03*
Y19390D02*
D03*
Y44390D02*
D03*
Y30610D02*
D03*
Y-30610D02*
D03*
Y-44390D02*
D03*
D151*
X276654Y-12500D02*
D03*
Y12500D02*
D03*
Y37500D02*
D03*
Y-37500D02*
D03*
D152*
X216000Y-126213D02*
D03*
X226000D02*
D03*
X206000D02*
D03*
X-173000Y-106213D02*
D03*
X-163000D02*
D03*
X-183000D02*
D03*
X-173000Y106213D02*
D03*
X-183000D02*
D03*
X-163000D02*
D03*
X216000Y126213D02*
D03*
X206000D02*
D03*
X226000D02*
D03*
D153*
X237968Y-126213D02*
D03*
X194032D02*
D03*
X-151031Y-106213D02*
D03*
X-194968D02*
D03*
Y106213D02*
D03*
X-151031D02*
D03*
X194032Y126213D02*
D03*
X237968D02*
D03*
D154*
X128954Y140000D02*
D03*
X75076D02*
D03*
X42959D02*
D03*
X-10919D02*
D03*
X-32954Y-140000D02*
D03*
X20924D02*
D03*
X52832D02*
D03*
X106710D02*
D03*
D155*
X113954Y118465D02*
D03*
X90332D02*
D03*
X102143D02*
D03*
X90332Y100236D02*
D03*
X102143D02*
D03*
X113954D02*
D03*
X27959Y118465D02*
D03*
X4337D02*
D03*
X16148D02*
D03*
X4337Y100236D02*
D03*
X16148D02*
D03*
X27959D02*
D03*
X-17954Y-118465D02*
D03*
X5668D02*
D03*
X-6143D02*
D03*
X5668Y-100236D02*
D03*
X-6143D02*
D03*
X-17954D02*
D03*
X67832Y-118465D02*
D03*
X91454D02*
D03*
X79643D02*
D03*
X91454Y-100236D02*
D03*
X79643D02*
D03*
X67832D02*
D03*
D156*
X52268Y-24606D02*
D03*
Y-26575D02*
D03*
Y-18701D02*
D03*
Y-22638D02*
D03*
Y-20669D02*
D03*
Y-34449D02*
D03*
Y-28543D02*
D03*
Y-32480D02*
D03*
Y-30512D02*
D03*
Y-16732D02*
D03*
Y-10827D02*
D03*
Y-14764D02*
D03*
Y-12795D02*
D03*
Y-4921D02*
D03*
Y-8858D02*
D03*
Y-6890D02*
D03*
Y8858D02*
D03*
Y6890D02*
D03*
Y14764D02*
D03*
Y10827D02*
D03*
Y12795D02*
D03*
Y-984D02*
D03*
Y-2953D02*
D03*
Y4921D02*
D03*
Y984D02*
D03*
Y2953D02*
D03*
Y28543D02*
D03*
Y26575D02*
D03*
Y34449D02*
D03*
Y30512D02*
D03*
Y32480D02*
D03*
Y18701D02*
D03*
Y16732D02*
D03*
Y24606D02*
D03*
Y20669D02*
D03*
Y22638D02*
D03*
X135732Y-34449D02*
D03*
Y-28543D02*
D03*
Y-32480D02*
D03*
Y-30512D02*
D03*
Y-24606D02*
D03*
Y-26575D02*
D03*
Y-18701D02*
D03*
Y-22638D02*
D03*
Y-20669D02*
D03*
Y-16732D02*
D03*
Y-10827D02*
D03*
Y-14764D02*
D03*
Y-12795D02*
D03*
Y-4921D02*
D03*
Y-8858D02*
D03*
Y-6890D02*
D03*
Y8858D02*
D03*
Y6890D02*
D03*
Y14764D02*
D03*
Y10827D02*
D03*
Y12795D02*
D03*
Y-984D02*
D03*
Y-2953D02*
D03*
Y4921D02*
D03*
Y984D02*
D03*
Y2953D02*
D03*
Y30512D02*
D03*
Y28543D02*
D03*
Y32480D02*
D03*
Y34449D02*
D03*
Y20669D02*
D03*
Y16732D02*
D03*
Y18701D02*
D03*
Y26575D02*
D03*
Y22638D02*
D03*
Y24606D02*
D03*
D157*
X59551Y-41732D02*
D03*
X61520D02*
D03*
X63488D02*
D03*
X67425D02*
D03*
X75299D02*
D03*
X77268D02*
D03*
X69394D02*
D03*
X73331D02*
D03*
X71362D02*
D03*
X65457D02*
D03*
X79236D02*
D03*
X81205D02*
D03*
X89079D02*
D03*
X91047D02*
D03*
X83173D02*
D03*
X87110D02*
D03*
X85142D02*
D03*
X59551Y41732D02*
D03*
X61520D02*
D03*
X65457D02*
D03*
X73331D02*
D03*
X75299D02*
D03*
X67425D02*
D03*
X71362D02*
D03*
X69394D02*
D03*
X79236D02*
D03*
X81205D02*
D03*
X63488D02*
D03*
X77268D02*
D03*
X89079D02*
D03*
X91047D02*
D03*
X83173D02*
D03*
X87110D02*
D03*
X85142D02*
D03*
X98921Y-41732D02*
D03*
X100890D02*
D03*
X93016D02*
D03*
X96953D02*
D03*
X94984D02*
D03*
X108764D02*
D03*
X110732D02*
D03*
X102858D02*
D03*
X106795D02*
D03*
X104827D02*
D03*
X118606D02*
D03*
X120575D02*
D03*
X112701D02*
D03*
X116638D02*
D03*
X114669D02*
D03*
X122543D02*
D03*
X124512D02*
D03*
X126480D02*
D03*
X128449D02*
D03*
X93016Y41732D02*
D03*
X96953D02*
D03*
X94984D02*
D03*
X104827D02*
D03*
X106795D02*
D03*
X98921D02*
D03*
X102858D02*
D03*
X100890D02*
D03*
X114669D02*
D03*
X116638D02*
D03*
X108764D02*
D03*
X112701D02*
D03*
X110732D02*
D03*
X124512D02*
D03*
X126480D02*
D03*
X118606D02*
D03*
X122543D02*
D03*
X120575D02*
D03*
X128449D02*
D03*
D158*
X-49441Y-24606D02*
D03*
X-54559D02*
D03*
X-49441Y25000D02*
D03*
X-54559D02*
D03*
D159*
X96256Y115905D02*
D03*
X40744D02*
D03*
X48835Y-127905D02*
D03*
X3165D02*
D03*
D160*
X-91500Y-16004D02*
D03*
Y16004D02*
D03*
X-77250Y-107843D02*
D03*
Y-88157D02*
D03*
D161*
X211500Y-76500D02*
D03*
X221500D02*
D03*
X231500D02*
D03*
Y-46500D02*
D03*
X221500D02*
D03*
X211500D02*
D03*
D162*
X252261Y-50000D02*
D03*
X252259Y-89370D02*
D03*
Y-81496D02*
D03*
X252261Y-73622D02*
D03*
X252263Y-65748D02*
D03*
X252261Y-57874D02*
D03*
D163*
X-2000Y-73500D02*
D03*
X-18000Y-60500D02*
D03*
Y-73500D02*
D03*
X-118500Y-141500D02*
D03*
Y-128500D02*
D03*
D164*
X-130000Y70500D02*
D03*
Y-70500D02*
D03*
D165*
X214000Y70500D02*
D03*
X0Y0D02*
D03*
D166*
X270000Y-125000D02*
D03*
X272500Y125000D02*
D03*
D167*
X-17500Y-45000D02*
D03*
X-27500D02*
D03*
X-37500D02*
D03*
X-47500D02*
D03*
X-87500D02*
D03*
X-77500D02*
D03*
X-67500D02*
D03*
X-57500D02*
D03*
X-127500D02*
D03*
X-117500D02*
D03*
X-107500D02*
D03*
X-97500D02*
D03*
X-167500D02*
D03*
X-157500D02*
D03*
X-147500D02*
D03*
X-137500D02*
D03*
X-207500D02*
D03*
X-197500D02*
D03*
X-187500D02*
D03*
X-177500D02*
D03*
Y45000D02*
D03*
X-187500D02*
D03*
X-197500D02*
D03*
X-207500D02*
D03*
X-137500D02*
D03*
X-147500D02*
D03*
X-157500D02*
D03*
X-167500D02*
D03*
X-97500D02*
D03*
X-107500D02*
D03*
X-117500D02*
D03*
X-127500D02*
D03*
X-57500D02*
D03*
X-67500D02*
D03*
X-77500D02*
D03*
X-87500D02*
D03*
X-47500D02*
D03*
X-27500D02*
D03*
X-37500D02*
D03*
X-17500D02*
D03*
D168*
X-67500Y-53500D02*
D03*
D169*
X-56000Y-76166D02*
D03*
M02*
