G04 Layer_Color=32896*
%FSLAX25Y25*%
%MOIN*%
G70*
G01*
G75*
%ADD50C,0.01400*%
%ADD55C,0.00600*%
%ADD89C,0.00787*%
%ADD90C,0.02362*%
%ADD91C,0.00500*%
%ADD92C,0.00394*%
%ADD190C,0.00400*%
G36*
X-145500Y-98500D02*
X-200500D01*
Y-87161D01*
X-145500D01*
Y-98500D01*
D02*
G37*
G36*
X9000Y-147500D02*
X-21000D01*
Y-136161D01*
X9000D01*
Y-147500D01*
D02*
G37*
G36*
X30872Y136161D02*
X872D01*
Y147500D01*
X30872D01*
Y136161D01*
D02*
G37*
G36*
X-145452Y87161D02*
X-200452D01*
Y98500D01*
X-145452D01*
Y87161D01*
D02*
G37*
G36*
X94500Y-147500D02*
X64500D01*
Y-136161D01*
X94500D01*
Y-147500D01*
D02*
G37*
G36*
X243500Y107161D02*
X188500D01*
Y118500D01*
X243500D01*
Y107161D01*
D02*
G37*
G36*
X246094Y-81533D02*
X236783D01*
Y-59000D01*
X246094D01*
Y-81533D01*
D02*
G37*
G36*
X117372Y136161D02*
X87372D01*
Y147500D01*
X117372D01*
Y136161D01*
D02*
G37*
G36*
X243500Y-118500D02*
X188500D01*
Y-107161D01*
X243500D01*
Y-118500D01*
D02*
G37*
%LPC*%
G36*
X-18239Y-138938D02*
X-19144D01*
Y-144724D01*
X-18037D01*
Y-140562D01*
X-18029Y-140571D01*
X-18011Y-140588D01*
X-17976Y-140615D01*
X-17932Y-140659D01*
X-17871Y-140702D01*
X-17800Y-140755D01*
X-17721Y-140817D01*
X-17625Y-140878D01*
X-17528Y-140948D01*
X-17414Y-141019D01*
X-17177Y-141150D01*
X-16905Y-141282D01*
X-16606Y-141396D01*
Y-140395D01*
X-16615D01*
X-16624Y-140386D01*
X-16650Y-140378D01*
X-16685Y-140369D01*
X-16773Y-140334D01*
X-16887Y-140272D01*
X-17028Y-140202D01*
X-17186Y-140105D01*
X-17361Y-140000D01*
X-17546Y-139860D01*
X-17555Y-139851D01*
X-17572Y-139842D01*
X-17598Y-139816D01*
X-17625Y-139789D01*
X-17713Y-139710D01*
X-17827Y-139596D01*
X-17941Y-139464D01*
X-18055Y-139306D01*
X-18160Y-139131D01*
X-18239Y-138938D01*
D02*
G37*
G36*
X85628Y-138955D02*
X84399D01*
X82081Y-144724D01*
X83346D01*
X83837Y-143415D01*
X86164D01*
X86638Y-144724D01*
X87867D01*
X85628Y-138955D01*
D02*
G37*
G36*
X81440Y-139008D02*
X80273D01*
Y-143749D01*
X77384D01*
Y-144724D01*
X81440D01*
Y-139008D01*
D02*
G37*
G36*
X-9424D02*
X-10592D01*
Y-143749D01*
X-13481D01*
Y-144724D01*
X-9424D01*
Y-139008D01*
D02*
G37*
G36*
X67884Y-138938D02*
X67665D01*
X67603Y-138946D01*
X67533Y-138955D01*
X67445Y-138964D01*
X67357Y-138973D01*
X67252Y-138999D01*
X67041Y-139052D01*
X66813Y-139131D01*
X66707Y-139183D01*
X66593Y-139245D01*
X66497Y-139324D01*
X66400Y-139403D01*
X66391Y-139412D01*
X66383Y-139421D01*
X66356Y-139447D01*
X66321Y-139482D01*
X66286Y-139526D01*
X66242Y-139587D01*
X66154Y-139719D01*
X66067Y-139886D01*
X65988Y-140079D01*
X65926Y-140299D01*
X65917Y-140421D01*
X65909Y-140544D01*
Y-140562D01*
Y-140606D01*
X65917Y-140685D01*
X65926Y-140781D01*
X65944Y-140896D01*
X65970Y-141019D01*
X66005Y-141159D01*
X66049Y-141291D01*
X66058Y-141308D01*
X66075Y-141352D01*
X66110Y-141422D01*
X66154Y-141510D01*
X66216Y-141624D01*
X66295Y-141747D01*
X66391Y-141879D01*
X66497Y-142019D01*
X66506Y-142028D01*
X66532Y-142063D01*
X66585Y-142125D01*
X66664Y-142204D01*
X66760Y-142309D01*
X66892Y-142441D01*
X67041Y-142590D01*
X67226Y-142757D01*
X67234Y-142766D01*
X67252Y-142775D01*
X67278Y-142801D01*
X67305Y-142836D01*
X67392Y-142915D01*
X67498Y-143020D01*
X67612Y-143126D01*
X67717Y-143231D01*
X67814Y-143328D01*
X67849Y-143363D01*
X67884Y-143398D01*
X67893Y-143407D01*
X67910Y-143424D01*
X67937Y-143451D01*
X67963Y-143494D01*
X68042Y-143582D01*
X68112Y-143696D01*
X65909D01*
Y-144724D01*
X69780D01*
Y-144715D01*
Y-144697D01*
X69772Y-144662D01*
X69763Y-144627D01*
X69754Y-144574D01*
X69745Y-144513D01*
X69710Y-144372D01*
X69666Y-144197D01*
X69596Y-144012D01*
X69517Y-143819D01*
X69412Y-143626D01*
Y-143617D01*
X69394Y-143600D01*
X69377Y-143573D01*
X69350Y-143530D01*
X69306Y-143477D01*
X69262Y-143415D01*
X69201Y-143336D01*
X69140Y-143257D01*
X69061Y-143161D01*
X68964Y-143055D01*
X68867Y-142941D01*
X68753Y-142818D01*
X68622Y-142687D01*
X68490Y-142546D01*
X68332Y-142397D01*
X68165Y-142239D01*
X68156Y-142230D01*
X68130Y-142213D01*
X68095Y-142169D01*
X68042Y-142125D01*
X67989Y-142072D01*
X67919Y-142002D01*
X67770Y-141861D01*
X67612Y-141703D01*
X67463Y-141545D01*
X67392Y-141475D01*
X67331Y-141414D01*
X67278Y-141352D01*
X67243Y-141299D01*
X67234Y-141282D01*
X67208Y-141238D01*
X67173Y-141177D01*
X67129Y-141089D01*
X67085Y-140983D01*
X67050Y-140869D01*
X67024Y-140746D01*
X67015Y-140623D01*
Y-140606D01*
Y-140562D01*
X67024Y-140492D01*
X67041Y-140413D01*
X67067Y-140325D01*
X67103Y-140228D01*
X67146Y-140132D01*
X67217Y-140053D01*
X67226Y-140044D01*
X67252Y-140018D01*
X67296Y-139991D01*
X67357Y-139947D01*
X67436Y-139912D01*
X67533Y-139886D01*
X67647Y-139860D01*
X67770Y-139851D01*
X67823D01*
X67893Y-139860D01*
X67963Y-139877D01*
X68051Y-139903D01*
X68147Y-139939D01*
X68235Y-139991D01*
X68323Y-140061D01*
X68332Y-140070D01*
X68358Y-140105D01*
X68384Y-140149D01*
X68428Y-140228D01*
X68463Y-140325D01*
X68507Y-140439D01*
X68534Y-140588D01*
X68551Y-140755D01*
X69649Y-140650D01*
Y-140641D01*
X69640Y-140606D01*
Y-140562D01*
X69622Y-140500D01*
X69614Y-140421D01*
X69587Y-140342D01*
X69570Y-140246D01*
X69535Y-140141D01*
X69456Y-139930D01*
X69350Y-139710D01*
X69280Y-139605D01*
X69210Y-139508D01*
X69122Y-139421D01*
X69034Y-139342D01*
X69025Y-139333D01*
X69008Y-139324D01*
X68982Y-139306D01*
X68938Y-139280D01*
X68894Y-139245D01*
X68832Y-139210D01*
X68762Y-139175D01*
X68674Y-139140D01*
X68586Y-139104D01*
X68490Y-139069D01*
X68270Y-138999D01*
X68024Y-138955D01*
X67884Y-138938D01*
D02*
G37*
G36*
X-319Y-138955D02*
X-1548D01*
X-3867Y-144724D01*
X-2602D01*
X-2111Y-143415D01*
X216D01*
X690Y-144724D01*
X1920D01*
X-319Y-138955D01*
D02*
G37*
G36*
X93091D02*
X91924D01*
Y-141229D01*
X89650D01*
Y-138955D01*
X88482D01*
Y-144724D01*
X89650D01*
Y-142204D01*
X91924D01*
Y-144724D01*
X93091D01*
Y-138955D01*
D02*
G37*
G36*
X-4507Y-139008D02*
X-5675D01*
Y-143749D01*
X-8564D01*
Y-144724D01*
X-4507D01*
Y-139008D01*
D02*
G37*
G36*
X93359Y144776D02*
X92192D01*
Y142256D01*
X89918D01*
Y144776D01*
X88750D01*
Y139008D01*
X89918D01*
Y141282D01*
X92192D01*
Y139008D01*
X93359D01*
Y144776D01*
D02*
G37*
G36*
X99760D02*
X98496D01*
X98004Y143468D01*
X95677D01*
X95203Y144776D01*
X93974D01*
X96213Y139008D01*
X97442D01*
X99760Y144776D01*
D02*
G37*
G36*
X114054Y144882D02*
X113975D01*
X113922Y144873D01*
X113852Y144864D01*
X113773Y144855D01*
X113685Y144847D01*
X113597Y144829D01*
X113387Y144776D01*
X113167Y144689D01*
X113062Y144645D01*
X112948Y144583D01*
X112842Y144513D01*
X112746Y144434D01*
X112737Y144425D01*
X112728Y144416D01*
X112702Y144390D01*
X112667Y144355D01*
X112623Y144311D01*
X112579Y144250D01*
X112535Y144188D01*
X112482Y144118D01*
X112377Y143951D01*
X112280Y143749D01*
X112201Y143521D01*
X112175Y143389D01*
X112157Y143257D01*
X113228Y143126D01*
Y143134D01*
Y143143D01*
X113237Y143196D01*
X113255Y143266D01*
X113281Y143363D01*
X113316Y143459D01*
X113360Y143565D01*
X113422Y143670D01*
X113501Y143758D01*
X113510Y143767D01*
X113545Y143793D01*
X113589Y143828D01*
X113659Y143863D01*
X113738Y143898D01*
X113826Y143933D01*
X113931Y143960D01*
X114045Y143969D01*
X114107D01*
X114168Y143951D01*
X114247Y143933D01*
X114335Y143907D01*
X114431Y143863D01*
X114528Y143802D01*
X114625Y143714D01*
X114633Y143705D01*
X114660Y143661D01*
X114704Y143609D01*
X114748Y143530D01*
X114783Y143424D01*
X114827Y143301D01*
X114853Y143161D01*
X114862Y143003D01*
Y142994D01*
Y142985D01*
Y142933D01*
X114853Y142854D01*
X114835Y142757D01*
X114809Y142652D01*
X114765Y142546D01*
X114712Y142432D01*
X114633Y142336D01*
X114625Y142327D01*
X114589Y142300D01*
X114546Y142256D01*
X114475Y142213D01*
X114396Y142169D01*
X114300Y142125D01*
X114194Y142098D01*
X114080Y142090D01*
X114001D01*
X113940Y142098D01*
X113870Y142107D01*
X113782Y142125D01*
X113685Y142151D01*
X113580Y142177D01*
X113703Y141282D01*
X113773D01*
X113861Y141273D01*
X113957Y141264D01*
X114063Y141247D01*
X114177Y141212D01*
X114291Y141159D01*
X114388Y141098D01*
X114396Y141089D01*
X114423Y141062D01*
X114467Y141010D01*
X114510Y140948D01*
X114554Y140869D01*
X114598Y140773D01*
X114625Y140667D01*
X114633Y140544D01*
Y140536D01*
Y140492D01*
X114625Y140439D01*
X114616Y140378D01*
X114589Y140307D01*
X114563Y140228D01*
X114519Y140149D01*
X114458Y140079D01*
X114449Y140070D01*
X114423Y140053D01*
X114388Y140026D01*
X114335Y139991D01*
X114265Y139956D01*
X114186Y139930D01*
X114089Y139912D01*
X113984Y139903D01*
X113940D01*
X113887Y139912D01*
X113817Y139930D01*
X113738Y139956D01*
X113659Y139991D01*
X113571Y140035D01*
X113492Y140105D01*
X113483Y140114D01*
X113457Y140141D01*
X113431Y140184D01*
X113387Y140246D01*
X113343Y140334D01*
X113308Y140430D01*
X113272Y140544D01*
X113255Y140676D01*
X112236Y140509D01*
Y140500D01*
X112245Y140483D01*
Y140457D01*
X112254Y140421D01*
X112280Y140325D01*
X112315Y140202D01*
X112359Y140070D01*
X112412Y139930D01*
X112482Y139789D01*
X112552Y139666D01*
X112561Y139649D01*
X112596Y139614D01*
X112640Y139561D01*
X112710Y139482D01*
X112798Y139403D01*
X112895Y139324D01*
X113018Y139245D01*
X113149Y139175D01*
X113158D01*
X113167Y139166D01*
X113220Y139148D01*
X113299Y139113D01*
X113404Y139078D01*
X113536Y139052D01*
X113676Y139017D01*
X113843Y138999D01*
X114019Y138990D01*
X114098D01*
X114150Y138999D01*
X114221Y139008D01*
X114300Y139017D01*
X114396Y139034D01*
X114493Y139052D01*
X114695Y139122D01*
X114809Y139157D01*
X114914Y139210D01*
X115020Y139271D01*
X115134Y139342D01*
X115230Y139421D01*
X115327Y139517D01*
X115336Y139526D01*
X115345Y139535D01*
X115362Y139561D01*
X115388Y139587D01*
X115459Y139675D01*
X115538Y139798D01*
X115608Y139939D01*
X115678Y140097D01*
X115722Y140281D01*
X115740Y140378D01*
Y140474D01*
Y140483D01*
Y140509D01*
X115731Y140544D01*
Y140597D01*
X115713Y140667D01*
X115696Y140738D01*
X115669Y140817D01*
X115634Y140904D01*
X115590Y141001D01*
X115538Y141098D01*
X115467Y141203D01*
X115388Y141299D01*
X115292Y141405D01*
X115178Y141501D01*
X115055Y141598D01*
X114906Y141686D01*
X114914D01*
X114932Y141695D01*
X114949D01*
X114985Y141703D01*
X115081Y141738D01*
X115187Y141782D01*
X115318Y141844D01*
X115450Y141932D01*
X115573Y142037D01*
X115696Y142160D01*
X115705Y142177D01*
X115740Y142221D01*
X115792Y142300D01*
X115845Y142406D01*
X115898Y142537D01*
X115950Y142695D01*
X115986Y142862D01*
X115994Y143055D01*
Y143064D01*
Y143091D01*
Y143126D01*
X115986Y143178D01*
X115977Y143249D01*
X115968Y143319D01*
X115950Y143407D01*
X115924Y143503D01*
X115854Y143705D01*
X115810Y143811D01*
X115757Y143916D01*
X115696Y144030D01*
X115617Y144135D01*
X115529Y144241D01*
X115432Y144346D01*
X115424Y144355D01*
X115406Y144372D01*
X115380Y144399D01*
X115336Y144425D01*
X115283Y144469D01*
X115213Y144513D01*
X115143Y144566D01*
X115055Y144610D01*
X114958Y144662D01*
X114853Y144715D01*
X114739Y144759D01*
X114616Y144794D01*
X114484Y144829D01*
X114352Y144855D01*
X114203Y144873D01*
X114054Y144882D01*
D02*
G37*
G36*
X104457Y144776D02*
X100401D01*
Y139061D01*
X101569D01*
Y143802D01*
X104457D01*
Y144776D01*
D02*
G37*
G36*
X109374D02*
X105318D01*
Y139061D01*
X106485D01*
Y143802D01*
X109374D01*
Y144776D01*
D02*
G37*
G36*
X28862Y144724D02*
X27791D01*
Y143565D01*
X25429D01*
Y142608D01*
X27931Y138938D01*
X28862D01*
Y142599D01*
X29573D01*
Y143565D01*
X28862D01*
Y144724D01*
D02*
G37*
G36*
X13181D02*
X11917D01*
X11425Y143415D01*
X9098D01*
X8624Y144724D01*
X7395D01*
X9634Y138955D01*
X10863D01*
X13181Y144724D01*
D02*
G37*
G36*
X76524Y-139008D02*
X75356D01*
Y-143749D01*
X72467D01*
Y-144724D01*
X76524D01*
Y-139008D01*
D02*
G37*
G36*
X6780Y144724D02*
X5613D01*
Y142204D01*
X3339D01*
Y144724D01*
X2171D01*
Y138955D01*
X3339D01*
Y141229D01*
X5613D01*
Y138955D01*
X6780D01*
Y144724D01*
D02*
G37*
G36*
X17878D02*
X13822D01*
Y139008D01*
X14990D01*
Y143749D01*
X17878D01*
Y144724D01*
D02*
G37*
G36*
X22795D02*
X18739D01*
Y139008D01*
X19906D01*
Y143749D01*
X22795D01*
Y144724D01*
D02*
G37*
G36*
X-170113Y96935D02*
X-170183D01*
X-170265Y96923D01*
X-170370D01*
X-170499Y96900D01*
X-170651Y96877D01*
X-170815Y96853D01*
X-171003Y96806D01*
X-171202Y96748D01*
X-171401Y96677D01*
X-171612Y96596D01*
X-171822Y96490D01*
X-172033Y96373D01*
X-172244Y96232D01*
X-172443Y96080D01*
X-172630Y95893D01*
X-172642Y95881D01*
X-172677Y95846D01*
X-172724Y95788D01*
X-172783Y95705D01*
X-172853Y95600D01*
X-172947Y95471D01*
X-173029Y95319D01*
X-173122Y95143D01*
X-173216Y94956D01*
X-173298Y94734D01*
X-173380Y94499D01*
X-173462Y94242D01*
X-173520Y93972D01*
X-173567Y93680D01*
X-173602Y93363D01*
X-173614Y93036D01*
Y93012D01*
Y92954D01*
X-173602Y92848D01*
Y92720D01*
X-173579Y92555D01*
X-173567Y92368D01*
X-173532Y92169D01*
X-173485Y91947D01*
X-173438Y91701D01*
X-173368Y91466D01*
X-173298Y91209D01*
X-173204Y90963D01*
X-173087Y90717D01*
X-172958Y90483D01*
X-172806Y90260D01*
X-172630Y90050D01*
X-172619Y90038D01*
X-172583Y90003D01*
X-172525Y89956D01*
X-172455Y89886D01*
X-172349Y89804D01*
X-172232Y89710D01*
X-172092Y89616D01*
X-171928Y89511D01*
X-171752Y89417D01*
X-171553Y89324D01*
X-171342Y89230D01*
X-171108Y89148D01*
X-170862Y89078D01*
X-170593Y89031D01*
X-170312Y88996D01*
X-170019Y88984D01*
X-169878D01*
X-169785Y88996D01*
X-169668Y89007D01*
X-169527Y89031D01*
X-169375Y89054D01*
X-169211Y89089D01*
X-169024Y89136D01*
X-168848Y89195D01*
X-168649Y89253D01*
X-168462Y89335D01*
X-168274Y89441D01*
X-168087Y89546D01*
X-167911Y89675D01*
X-167736Y89827D01*
X-167724D01*
X-167712Y89850D01*
X-167654Y89921D01*
X-167560Y90026D01*
X-167443Y90190D01*
X-167314Y90389D01*
X-167174Y90623D01*
X-167045Y90904D01*
X-166939Y91232D01*
X-168473Y91595D01*
Y91584D01*
X-168485Y91572D01*
X-168497Y91502D01*
X-168544Y91396D01*
X-168602Y91256D01*
X-168672Y91104D01*
X-168778Y90951D01*
X-168895Y90799D01*
X-169047Y90658D01*
X-169071Y90647D01*
X-169129Y90600D01*
X-169211Y90541D01*
X-169340Y90483D01*
X-169492Y90413D01*
X-169679Y90366D01*
X-169878Y90319D01*
X-170101Y90307D01*
X-170183D01*
X-170242Y90319D01*
X-170312Y90331D01*
X-170394Y90342D01*
X-170593Y90389D01*
X-170815Y90459D01*
X-171049Y90565D01*
X-171155Y90635D01*
X-171272Y90717D01*
X-171377Y90822D01*
X-171483Y90928D01*
Y90939D01*
X-171506Y90951D01*
X-171530Y90998D01*
X-171565Y91045D01*
X-171600Y91115D01*
X-171647Y91197D01*
X-171694Y91291D01*
X-171740Y91408D01*
X-171799Y91537D01*
X-171846Y91677D01*
X-171893Y91841D01*
X-171928Y92029D01*
X-171963Y92216D01*
X-171986Y92438D01*
X-171998Y92673D01*
X-172010Y92918D01*
Y92930D01*
Y92977D01*
Y93059D01*
X-171998Y93153D01*
Y93282D01*
X-171986Y93410D01*
X-171963Y93563D01*
X-171940Y93726D01*
X-171881Y94066D01*
X-171787Y94417D01*
X-171729Y94581D01*
X-171659Y94734D01*
X-171588Y94874D01*
X-171494Y95003D01*
X-171483Y95015D01*
X-171471Y95026D01*
X-171401Y95097D01*
X-171284Y95190D01*
X-171132Y95307D01*
X-170932Y95424D01*
X-170698Y95518D01*
X-170429Y95588D01*
X-170288Y95600D01*
X-170136Y95612D01*
X-170078D01*
X-170031Y95600D01*
X-169914Y95588D01*
X-169773Y95565D01*
X-169597Y95518D01*
X-169422Y95448D01*
X-169246Y95354D01*
X-169071Y95225D01*
X-169047Y95202D01*
X-169000Y95155D01*
X-168918Y95050D01*
X-168825Y94921D01*
X-168719Y94745D01*
X-168614Y94523D01*
X-168509Y94277D01*
X-168427Y93972D01*
X-166916Y94441D01*
Y94453D01*
X-166928Y94499D01*
X-166951Y94558D01*
X-166986Y94652D01*
X-167021Y94757D01*
X-167068Y94874D01*
X-167127Y95015D01*
X-167197Y95155D01*
X-167349Y95460D01*
X-167548Y95776D01*
X-167794Y96069D01*
X-167923Y96209D01*
X-168075Y96326D01*
X-168087Y96338D01*
X-168110Y96350D01*
X-168157Y96385D01*
X-168216Y96420D01*
X-168298Y96467D01*
X-168391Y96513D01*
X-168509Y96572D01*
X-168637Y96631D01*
X-168778Y96689D01*
X-168930Y96748D01*
X-169094Y96795D01*
X-169270Y96841D01*
X-169469Y96877D01*
X-169668Y96912D01*
X-169890Y96923D01*
X-170113Y96935D01*
D02*
G37*
G36*
X-158444Y-89113D02*
X-164136D01*
Y-90413D01*
X-160002D01*
Y-92122D01*
X-163843D01*
Y-93422D01*
X-160002D01*
Y-95506D01*
X-164288D01*
Y-96806D01*
X-158444D01*
Y-89113D01*
D02*
G37*
G36*
X-176677Y-88984D02*
X-176818D01*
X-176911Y-88996D01*
X-177028Y-89007D01*
X-177169Y-89031D01*
X-177321Y-89054D01*
X-177485Y-89089D01*
X-177672Y-89136D01*
X-177848Y-89195D01*
X-178047Y-89253D01*
X-178234Y-89335D01*
X-178422Y-89441D01*
X-178609Y-89546D01*
X-178785Y-89675D01*
X-178960Y-89827D01*
X-178972D01*
X-178984Y-89850D01*
X-179042Y-89921D01*
X-179136Y-90026D01*
X-179253Y-90190D01*
X-179382Y-90389D01*
X-179523Y-90623D01*
X-179651Y-90904D01*
X-179757Y-91232D01*
X-178223Y-91595D01*
Y-91584D01*
X-178211Y-91572D01*
X-178199Y-91502D01*
X-178152Y-91396D01*
X-178094Y-91256D01*
X-178024Y-91104D01*
X-177918Y-90951D01*
X-177801Y-90799D01*
X-177649Y-90658D01*
X-177626Y-90647D01*
X-177567Y-90600D01*
X-177485Y-90541D01*
X-177356Y-90483D01*
X-177204Y-90413D01*
X-177016Y-90366D01*
X-176818Y-90319D01*
X-176595Y-90307D01*
X-176513D01*
X-176454Y-90319D01*
X-176384Y-90331D01*
X-176302Y-90342D01*
X-176103Y-90389D01*
X-175881Y-90459D01*
X-175646Y-90565D01*
X-175541Y-90635D01*
X-175424Y-90717D01*
X-175319Y-90822D01*
X-175213Y-90928D01*
Y-90939D01*
X-175190Y-90951D01*
X-175166Y-90998D01*
X-175131Y-91045D01*
X-175096Y-91115D01*
X-175049Y-91197D01*
X-175002Y-91291D01*
X-174956Y-91408D01*
X-174897Y-91537D01*
X-174850Y-91677D01*
X-174803Y-91841D01*
X-174768Y-92029D01*
X-174733Y-92216D01*
X-174710Y-92438D01*
X-174698Y-92673D01*
X-174686Y-92918D01*
Y-92930D01*
Y-92977D01*
Y-93059D01*
X-174698Y-93153D01*
Y-93282D01*
X-174710Y-93410D01*
X-174733Y-93563D01*
X-174757Y-93726D01*
X-174815Y-94066D01*
X-174909Y-94417D01*
X-174967Y-94581D01*
X-175038Y-94734D01*
X-175108Y-94874D01*
X-175201Y-95003D01*
X-175213Y-95015D01*
X-175225Y-95026D01*
X-175295Y-95097D01*
X-175412Y-95190D01*
X-175565Y-95307D01*
X-175764Y-95424D01*
X-175998Y-95518D01*
X-176267Y-95588D01*
X-176408Y-95600D01*
X-176560Y-95612D01*
X-176618D01*
X-176665Y-95600D01*
X-176782Y-95588D01*
X-176923Y-95565D01*
X-177099Y-95518D01*
X-177274Y-95448D01*
X-177450Y-95354D01*
X-177626Y-95225D01*
X-177649Y-95202D01*
X-177696Y-95155D01*
X-177778Y-95050D01*
X-177871Y-94921D01*
X-177977Y-94745D01*
X-178082Y-94523D01*
X-178188Y-94277D01*
X-178270Y-93972D01*
X-179780Y-94441D01*
Y-94453D01*
X-179768Y-94499D01*
X-179745Y-94558D01*
X-179710Y-94652D01*
X-179675Y-94757D01*
X-179628Y-94874D01*
X-179569Y-95015D01*
X-179499Y-95155D01*
X-179347Y-95460D01*
X-179148Y-95776D01*
X-178902Y-96069D01*
X-178773Y-96209D01*
X-178621Y-96326D01*
X-178609Y-96338D01*
X-178586Y-96350D01*
X-178539Y-96385D01*
X-178480Y-96420D01*
X-178398Y-96467D01*
X-178305Y-96513D01*
X-178188Y-96572D01*
X-178059Y-96631D01*
X-177918Y-96689D01*
X-177766Y-96748D01*
X-177602Y-96794D01*
X-177426Y-96841D01*
X-177227Y-96877D01*
X-177028Y-96912D01*
X-176806Y-96923D01*
X-176583Y-96935D01*
X-176513D01*
X-176431Y-96923D01*
X-176326D01*
X-176197Y-96900D01*
X-176045Y-96877D01*
X-175881Y-96853D01*
X-175693Y-96806D01*
X-175494Y-96748D01*
X-175295Y-96677D01*
X-175084Y-96596D01*
X-174874Y-96490D01*
X-174663Y-96373D01*
X-174452Y-96232D01*
X-174253Y-96080D01*
X-174066Y-95893D01*
X-174054Y-95881D01*
X-174019Y-95846D01*
X-173972Y-95788D01*
X-173913Y-95705D01*
X-173843Y-95600D01*
X-173749Y-95471D01*
X-173668Y-95319D01*
X-173574Y-95143D01*
X-173480Y-94956D01*
X-173398Y-94734D01*
X-173316Y-94499D01*
X-173234Y-94242D01*
X-173176Y-93972D01*
X-173129Y-93680D01*
X-173094Y-93363D01*
X-173082Y-93036D01*
Y-93012D01*
Y-92954D01*
X-173094Y-92848D01*
Y-92720D01*
X-173117Y-92555D01*
X-173129Y-92368D01*
X-173164Y-92169D01*
X-173211Y-91947D01*
X-173258Y-91701D01*
X-173328Y-91466D01*
X-173398Y-91209D01*
X-173492Y-90963D01*
X-173609Y-90717D01*
X-173738Y-90483D01*
X-173890Y-90260D01*
X-174066Y-90050D01*
X-174077Y-90038D01*
X-174112Y-90003D01*
X-174171Y-89956D01*
X-174241Y-89886D01*
X-174347Y-89804D01*
X-174464Y-89710D01*
X-174604Y-89616D01*
X-174768Y-89511D01*
X-174944Y-89417D01*
X-175143Y-89324D01*
X-175354Y-89230D01*
X-175588Y-89148D01*
X-175834Y-89078D01*
X-176103Y-89031D01*
X-176384Y-88996D01*
X-176677Y-88984D01*
D02*
G37*
G36*
X-158602Y96806D02*
X-160030D01*
Y95261D01*
X-163180D01*
Y93984D01*
X-159843Y89089D01*
X-158602D01*
Y93972D01*
X-157653D01*
Y95261D01*
X-158602D01*
Y96806D01*
D02*
G37*
G36*
X-182408D02*
X-188251D01*
Y89113D01*
X-182561D01*
Y90413D01*
X-186694D01*
Y92122D01*
X-182853D01*
Y93422D01*
X-186694D01*
Y95506D01*
X-182408D01*
Y96806D01*
D02*
G37*
G36*
X-174972D02*
X-176530D01*
X-179645Y91759D01*
Y96806D01*
X-181085D01*
Y89113D01*
X-179586D01*
X-176413Y94277D01*
Y89113D01*
X-174972D01*
Y96806D01*
D02*
G37*
G36*
X212920Y-108984D02*
X212780D01*
X212686Y-108996D01*
X212569Y-109007D01*
X212428Y-109031D01*
X212276Y-109054D01*
X212112Y-109089D01*
X211925Y-109136D01*
X211749Y-109195D01*
X211550Y-109253D01*
X211363Y-109335D01*
X211175Y-109441D01*
X210988Y-109546D01*
X210812Y-109675D01*
X210637Y-109827D01*
X210625D01*
X210613Y-109851D01*
X210555Y-109921D01*
X210461Y-110026D01*
X210344Y-110190D01*
X210215Y-110389D01*
X210075Y-110623D01*
X209946Y-110904D01*
X209840Y-111232D01*
X211374Y-111595D01*
Y-111584D01*
X211386Y-111572D01*
X211398Y-111502D01*
X211445Y-111396D01*
X211503Y-111256D01*
X211574Y-111103D01*
X211679Y-110951D01*
X211796Y-110799D01*
X211948Y-110659D01*
X211972Y-110647D01*
X212030Y-110600D01*
X212112Y-110541D01*
X212241Y-110483D01*
X212393Y-110413D01*
X212581Y-110366D01*
X212780Y-110319D01*
X213002Y-110307D01*
X213084D01*
X213143Y-110319D01*
X213213Y-110331D01*
X213295Y-110342D01*
X213494Y-110389D01*
X213717Y-110459D01*
X213951Y-110565D01*
X214056Y-110635D01*
X214173Y-110717D01*
X214279Y-110822D01*
X214384Y-110928D01*
Y-110940D01*
X214407Y-110951D01*
X214431Y-110998D01*
X214466Y-111045D01*
X214501Y-111115D01*
X214548Y-111197D01*
X214595Y-111291D01*
X214642Y-111408D01*
X214700Y-111537D01*
X214747Y-111677D01*
X214794Y-111841D01*
X214829Y-112029D01*
X214864Y-112216D01*
X214888Y-112438D01*
X214899Y-112673D01*
X214911Y-112918D01*
Y-112930D01*
Y-112977D01*
Y-113059D01*
X214899Y-113153D01*
Y-113282D01*
X214888Y-113410D01*
X214864Y-113563D01*
X214841Y-113726D01*
X214782Y-114066D01*
X214688Y-114417D01*
X214630Y-114581D01*
X214560Y-114734D01*
X214489Y-114874D01*
X214396Y-115003D01*
X214384Y-115015D01*
X214372Y-115026D01*
X214302Y-115097D01*
X214185Y-115190D01*
X214033Y-115307D01*
X213834Y-115425D01*
X213599Y-115518D01*
X213330Y-115588D01*
X213190Y-115600D01*
X213037Y-115612D01*
X212979D01*
X212932Y-115600D01*
X212815Y-115588D01*
X212674Y-115565D01*
X212499Y-115518D01*
X212323Y-115448D01*
X212147Y-115354D01*
X211972Y-115225D01*
X211948Y-115202D01*
X211901Y-115155D01*
X211820Y-115050D01*
X211726Y-114921D01*
X211620Y-114745D01*
X211515Y-114523D01*
X211410Y-114277D01*
X211328Y-113972D01*
X209817Y-114441D01*
Y-114453D01*
X209829Y-114499D01*
X209852Y-114558D01*
X209887Y-114652D01*
X209923Y-114757D01*
X209969Y-114874D01*
X210028Y-115015D01*
X210098Y-115155D01*
X210250Y-115460D01*
X210450Y-115776D01*
X210695Y-116068D01*
X210824Y-116209D01*
X210976Y-116326D01*
X210988Y-116338D01*
X211012Y-116350D01*
X211058Y-116385D01*
X211117Y-116420D01*
X211199Y-116467D01*
X211293Y-116514D01*
X211410Y-116572D01*
X211539Y-116631D01*
X211679Y-116689D01*
X211831Y-116748D01*
X211995Y-116795D01*
X212171Y-116841D01*
X212370Y-116876D01*
X212569Y-116912D01*
X212791Y-116923D01*
X213014Y-116935D01*
X213084D01*
X213166Y-116923D01*
X213272D01*
X213400Y-116900D01*
X213553Y-116876D01*
X213717Y-116853D01*
X213904Y-116806D01*
X214103Y-116748D01*
X214302Y-116677D01*
X214513Y-116595D01*
X214724Y-116490D01*
X214934Y-116373D01*
X215145Y-116233D01*
X215344Y-116080D01*
X215532Y-115893D01*
X215543Y-115881D01*
X215578Y-115846D01*
X215625Y-115787D01*
X215684Y-115706D01*
X215754Y-115600D01*
X215848Y-115471D01*
X215930Y-115319D01*
X216023Y-115143D01*
X216117Y-114956D01*
X216199Y-114734D01*
X216281Y-114499D01*
X216363Y-114242D01*
X216422Y-113972D01*
X216468Y-113680D01*
X216504Y-113364D01*
X216515Y-113036D01*
Y-113012D01*
Y-112954D01*
X216504Y-112848D01*
Y-112720D01*
X216480Y-112556D01*
X216468Y-112368D01*
X216433Y-112169D01*
X216386Y-111947D01*
X216340Y-111701D01*
X216269Y-111467D01*
X216199Y-111209D01*
X216105Y-110963D01*
X215988Y-110717D01*
X215860Y-110483D01*
X215707Y-110260D01*
X215532Y-110050D01*
X215520Y-110038D01*
X215485Y-110003D01*
X215426Y-109956D01*
X215356Y-109886D01*
X215251Y-109804D01*
X215134Y-109710D01*
X214993Y-109616D01*
X214829Y-109511D01*
X214653Y-109417D01*
X214454Y-109324D01*
X214244Y-109230D01*
X214009Y-109148D01*
X213763Y-109078D01*
X213494Y-109031D01*
X213213Y-108996D01*
X212920Y-108984D01*
D02*
G37*
G36*
X223986Y-109113D02*
X222487D01*
X219314Y-114277D01*
Y-109113D01*
X217874D01*
Y-116806D01*
X219431D01*
X222546Y-111759D01*
Y-116806D01*
X223986D01*
Y-109113D01*
D02*
G37*
G36*
X203482Y-109089D02*
X203189D01*
X203107Y-109101D01*
X203014Y-109113D01*
X202896Y-109125D01*
X202779Y-109136D01*
X202639Y-109171D01*
X202358Y-109242D01*
X202053Y-109347D01*
X201913Y-109417D01*
X201761Y-109499D01*
X201632Y-109605D01*
X201503Y-109710D01*
X201491Y-109722D01*
X201480Y-109733D01*
X201445Y-109768D01*
X201398Y-109815D01*
X201351Y-109874D01*
X201292Y-109956D01*
X201175Y-110132D01*
X201058Y-110354D01*
X200953Y-110612D01*
X200871Y-110904D01*
X200859Y-111068D01*
X200847Y-111232D01*
Y-111256D01*
Y-111314D01*
X200859Y-111420D01*
X200871Y-111548D01*
X200894Y-111701D01*
X200929Y-111865D01*
X200976Y-112052D01*
X201035Y-112228D01*
X201046Y-112251D01*
X201070Y-112310D01*
X201117Y-112403D01*
X201175Y-112520D01*
X201257Y-112673D01*
X201362Y-112837D01*
X201491Y-113012D01*
X201632Y-113200D01*
X201643Y-113211D01*
X201679Y-113258D01*
X201749Y-113340D01*
X201854Y-113445D01*
X201983Y-113586D01*
X202159Y-113762D01*
X202358Y-113961D01*
X202604Y-114183D01*
X202615Y-114195D01*
X202639Y-114207D01*
X202674Y-114242D01*
X202709Y-114289D01*
X202826Y-114394D01*
X202967Y-114534D01*
X203119Y-114675D01*
X203259Y-114816D01*
X203388Y-114944D01*
X203435Y-114991D01*
X203482Y-115038D01*
X203494Y-115050D01*
X203517Y-115073D01*
X203552Y-115108D01*
X203587Y-115167D01*
X203693Y-115284D01*
X203786Y-115436D01*
X200847D01*
Y-116806D01*
X206011D01*
Y-116795D01*
Y-116771D01*
X206000Y-116724D01*
X205988Y-116677D01*
X205976Y-116607D01*
X205964Y-116525D01*
X205918Y-116338D01*
X205859Y-116104D01*
X205766Y-115858D01*
X205660Y-115600D01*
X205520Y-115342D01*
Y-115331D01*
X205496Y-115307D01*
X205473Y-115272D01*
X205438Y-115214D01*
X205379Y-115143D01*
X205321Y-115061D01*
X205239Y-114956D01*
X205156Y-114851D01*
X205051Y-114722D01*
X204922Y-114581D01*
X204794Y-114429D01*
X204641Y-114265D01*
X204466Y-114090D01*
X204290Y-113902D01*
X204079Y-113703D01*
X203857Y-113492D01*
X203845Y-113481D01*
X203810Y-113457D01*
X203763Y-113399D01*
X203693Y-113340D01*
X203623Y-113270D01*
X203529Y-113176D01*
X203330Y-112989D01*
X203119Y-112778D01*
X202920Y-112567D01*
X202826Y-112474D01*
X202744Y-112392D01*
X202674Y-112310D01*
X202627Y-112239D01*
X202615Y-112216D01*
X202580Y-112157D01*
X202534Y-112075D01*
X202475Y-111958D01*
X202416Y-111818D01*
X202370Y-111666D01*
X202334Y-111502D01*
X202323Y-111338D01*
Y-111314D01*
Y-111256D01*
X202334Y-111162D01*
X202358Y-111057D01*
X202393Y-110940D01*
X202440Y-110811D01*
X202498Y-110682D01*
X202592Y-110576D01*
X202604Y-110565D01*
X202639Y-110530D01*
X202697Y-110495D01*
X202779Y-110436D01*
X202885Y-110389D01*
X203014Y-110354D01*
X203166Y-110319D01*
X203330Y-110307D01*
X203400D01*
X203494Y-110319D01*
X203587Y-110342D01*
X203705Y-110378D01*
X203833Y-110424D01*
X203950Y-110495D01*
X204067Y-110588D01*
X204079Y-110600D01*
X204114Y-110647D01*
X204150Y-110705D01*
X204208Y-110811D01*
X204255Y-110940D01*
X204313Y-111092D01*
X204349Y-111291D01*
X204372Y-111513D01*
X205836Y-111373D01*
Y-111361D01*
X205824Y-111314D01*
Y-111256D01*
X205801Y-111174D01*
X205789Y-111068D01*
X205754Y-110963D01*
X205730Y-110834D01*
X205683Y-110694D01*
X205578Y-110413D01*
X205438Y-110120D01*
X205344Y-109979D01*
X205250Y-109851D01*
X205133Y-109733D01*
X205016Y-109628D01*
X205004Y-109616D01*
X204981Y-109605D01*
X204946Y-109581D01*
X204887Y-109546D01*
X204829Y-109499D01*
X204747Y-109452D01*
X204653Y-109406D01*
X204536Y-109359D01*
X204419Y-109312D01*
X204290Y-109265D01*
X203997Y-109171D01*
X203669Y-109113D01*
X203482Y-109089D01*
D02*
G37*
G36*
X-165611Y-89113D02*
X-167110D01*
X-170283Y-94277D01*
Y-89113D01*
X-171724D01*
Y-96806D01*
X-170166D01*
X-167051Y-91759D01*
Y-96806D01*
X-165611D01*
Y-89113D01*
D02*
G37*
G36*
X-186349Y-89089D02*
X-187556D01*
Y-96806D01*
X-186080D01*
Y-91256D01*
X-186068Y-91267D01*
X-186045Y-91291D01*
X-185998Y-91326D01*
X-185940Y-91385D01*
X-185858Y-91443D01*
X-185764Y-91513D01*
X-185659Y-91595D01*
X-185530Y-91677D01*
X-185401Y-91771D01*
X-185249Y-91865D01*
X-184932Y-92040D01*
X-184570Y-92216D01*
X-184171Y-92368D01*
Y-91033D01*
X-184183D01*
X-184195Y-91022D01*
X-184230Y-91010D01*
X-184277Y-90998D01*
X-184394Y-90951D01*
X-184546Y-90869D01*
X-184733Y-90776D01*
X-184944Y-90647D01*
X-185178Y-90506D01*
X-185424Y-90319D01*
X-185436Y-90307D01*
X-185459Y-90295D01*
X-185495Y-90260D01*
X-185530Y-90225D01*
X-185647Y-90120D01*
X-185799Y-89968D01*
X-185951Y-89792D01*
X-186103Y-89581D01*
X-186244Y-89347D01*
X-186349Y-89089D01*
D02*
G37*
G36*
X231153Y-109113D02*
X225462D01*
Y-110413D01*
X229595D01*
Y-112122D01*
X225754D01*
Y-113422D01*
X229595D01*
Y-115506D01*
X225309D01*
Y-116806D01*
X231153D01*
Y-109113D01*
D02*
G37*
G36*
X239736Y-65022D02*
X238869D01*
Y-69076D01*
X239736D01*
Y-67568D01*
X244000D01*
Y-66530D01*
X239736D01*
Y-65022D01*
D02*
G37*
G36*
X242422Y-61000D02*
X242313Y-61984D01*
X242352D01*
X242383Y-61992D01*
X242461D01*
X242555Y-62007D01*
X242665Y-62023D01*
X242766Y-62046D01*
X242860Y-62070D01*
X242938Y-62109D01*
X242946Y-62117D01*
X242977Y-62140D01*
X243024Y-62179D01*
X243071Y-62234D01*
X243125Y-62304D01*
X243164Y-62390D01*
X243196Y-62492D01*
X243211Y-62609D01*
Y-62617D01*
Y-62625D01*
Y-62664D01*
X243203Y-62726D01*
X243188Y-62796D01*
X243164Y-62882D01*
X243125Y-62960D01*
X243078Y-63031D01*
X243016Y-63093D01*
X243008Y-63101D01*
X242977Y-63117D01*
X242922Y-63140D01*
X242836Y-63171D01*
X242789Y-63179D01*
X242727Y-63195D01*
X242665Y-63210D01*
X242586Y-63218D01*
X242500Y-63226D01*
X242407Y-63234D01*
X242305Y-63241D01*
X238869D01*
Y-64280D01*
X242282D01*
X242344Y-64272D01*
X242485Y-64265D01*
X242649Y-64249D01*
X242813Y-64233D01*
X242969Y-64202D01*
X243110Y-64163D01*
X243117D01*
X243125Y-64155D01*
X243149Y-64147D01*
X243180Y-64132D01*
X243266Y-64093D01*
X243367Y-64038D01*
X243477Y-63968D01*
X243602Y-63866D01*
X243719Y-63757D01*
X243828Y-63616D01*
Y-63608D01*
X243836Y-63601D01*
X243852Y-63577D01*
X243867Y-63546D01*
X243891Y-63507D01*
X243914Y-63460D01*
X243937Y-63406D01*
X243961Y-63343D01*
X244008Y-63195D01*
X244055Y-63015D01*
X244086Y-62812D01*
X244094Y-62578D01*
Y-62570D01*
Y-62546D01*
Y-62507D01*
X244086Y-62453D01*
X244078Y-62390D01*
X244070Y-62320D01*
X244055Y-62234D01*
X244039Y-62148D01*
X243992Y-61961D01*
X243914Y-61765D01*
X243867Y-61672D01*
X243813Y-61578D01*
X243742Y-61484D01*
X243672Y-61406D01*
X243664Y-61398D01*
X243649Y-61391D01*
X243625Y-61367D01*
X243594Y-61344D01*
X243547Y-61312D01*
X243492Y-61281D01*
X243430Y-61242D01*
X243360Y-61203D01*
X243274Y-61164D01*
X243180Y-61125D01*
X243078Y-61094D01*
X242969Y-61063D01*
X242844Y-61039D01*
X242711Y-61016D01*
X242571Y-61008D01*
X242422Y-61000D01*
D02*
G37*
G36*
X206650Y116812D02*
X200806D01*
Y109119D01*
X206497D01*
Y110418D01*
X202364D01*
Y112128D01*
X206205D01*
Y113428D01*
X202364D01*
Y115512D01*
X206650D01*
Y116812D01*
D02*
G37*
G36*
X7144Y-138955D02*
X5976D01*
Y-141229D01*
X3702D01*
Y-138955D01*
X2534D01*
Y-144724D01*
X3702D01*
Y-142204D01*
X5976D01*
Y-144724D01*
X7144D01*
Y-138955D01*
D02*
G37*
G36*
X241423Y-74746D02*
X241345D01*
X241290Y-74753D01*
X241220D01*
X241134Y-74761D01*
X241048Y-74777D01*
X240946Y-74785D01*
X240728Y-74824D01*
X240486Y-74886D01*
X240243Y-74964D01*
X240001Y-75074D01*
X239994Y-75081D01*
X239970Y-75089D01*
X239939Y-75113D01*
X239900Y-75136D01*
X239845Y-75175D01*
X239783Y-75214D01*
X239650Y-75323D01*
X239494Y-75464D01*
X239330Y-75628D01*
X239181Y-75831D01*
X239041Y-76058D01*
Y-76065D01*
X239033Y-76081D01*
X239017Y-76104D01*
X239002Y-76144D01*
X238978Y-76198D01*
X238963Y-76253D01*
X238939Y-76323D01*
X238908Y-76394D01*
X238884Y-76479D01*
X238861Y-76573D01*
X238845Y-76675D01*
X238822Y-76784D01*
X238791Y-77018D01*
X238783Y-77284D01*
Y-77292D01*
Y-77323D01*
Y-77378D01*
X238791Y-77440D01*
X238798Y-77518D01*
X238806Y-77612D01*
X238814Y-77713D01*
X238830Y-77831D01*
X238884Y-78065D01*
X238955Y-78315D01*
X239002Y-78432D01*
X239056Y-78549D01*
X239119Y-78666D01*
X239189Y-78768D01*
X239197Y-78776D01*
X239205Y-78791D01*
X239228Y-78822D01*
X239259Y-78854D01*
X239306Y-78900D01*
X239353Y-78947D01*
X239408Y-79002D01*
X239478Y-79057D01*
X239548Y-79119D01*
X239634Y-79174D01*
X239720Y-79236D01*
X239822Y-79291D01*
X240033Y-79385D01*
X240158Y-79432D01*
X240282Y-79463D01*
X240478Y-78432D01*
X240470D01*
X240462Y-78424D01*
X240415Y-78408D01*
X240345Y-78385D01*
X240259Y-78338D01*
X240165Y-78284D01*
X240072Y-78213D01*
X239970Y-78127D01*
X239884Y-78026D01*
X239876Y-78010D01*
X239853Y-77971D01*
X239814Y-77909D01*
X239775Y-77823D01*
X239736Y-77713D01*
X239697Y-77588D01*
X239673Y-77440D01*
X239666Y-77284D01*
Y-77276D01*
Y-77253D01*
Y-77221D01*
X239673Y-77175D01*
X239681Y-77112D01*
X239689Y-77049D01*
X239720Y-76893D01*
X239775Y-76722D01*
X239853Y-76542D01*
X239900Y-76456D01*
X239954Y-76370D01*
X240025Y-76284D01*
X240103Y-76206D01*
X240111Y-76198D01*
X240126Y-76190D01*
X240150Y-76167D01*
X240181Y-76144D01*
X240228Y-76112D01*
X240282Y-76081D01*
X240345Y-76050D01*
X240423Y-76011D01*
X240509Y-75972D01*
X240603Y-75941D01*
X240712Y-75909D01*
X240821Y-75878D01*
X240946Y-75855D01*
X241087Y-75831D01*
X241227Y-75823D01*
X241384Y-75816D01*
X241470D01*
X241532Y-75823D01*
X241610Y-75831D01*
X241696Y-75839D01*
X241790Y-75847D01*
X241899Y-75862D01*
X242118Y-75909D01*
X242352Y-75987D01*
X242461Y-76026D01*
X242563Y-76081D01*
X242665Y-76144D01*
X242758Y-76214D01*
X242766Y-76222D01*
X242774Y-76230D01*
X242797Y-76253D01*
X242828Y-76284D01*
X242860Y-76331D01*
X242899Y-76378D01*
X242946Y-76433D01*
X242985Y-76503D01*
X243071Y-76651D01*
X243141Y-76831D01*
X243172Y-76932D01*
X243188Y-77042D01*
X243203Y-77159D01*
X243211Y-77276D01*
Y-77292D01*
Y-77331D01*
X243203Y-77393D01*
X243196Y-77479D01*
X243180Y-77573D01*
X243157Y-77682D01*
X243125Y-77799D01*
X243086Y-77924D01*
X243078Y-77940D01*
X243063Y-77979D01*
X243039Y-78041D01*
X243000Y-78119D01*
X242953Y-78205D01*
X242899Y-78299D01*
X242844Y-78393D01*
X242774Y-78487D01*
X242118D01*
Y-77307D01*
X241251D01*
Y-79533D01*
X243305D01*
X243320Y-79518D01*
X243360Y-79471D01*
X243414Y-79400D01*
X243492Y-79291D01*
X243578Y-79158D01*
X243672Y-78994D01*
X243766Y-78807D01*
X243859Y-78588D01*
Y-78580D01*
X243867Y-78557D01*
X243883Y-78526D01*
X243899Y-78479D01*
X243914Y-78424D01*
X243930Y-78362D01*
X243953Y-78284D01*
X243977Y-78198D01*
X244016Y-78010D01*
X244055Y-77799D01*
X244086Y-77573D01*
X244094Y-77338D01*
Y-77331D01*
Y-77299D01*
Y-77260D01*
X244086Y-77206D01*
Y-77135D01*
X244078Y-77049D01*
X244062Y-76964D01*
X244055Y-76862D01*
X244008Y-76643D01*
X243953Y-76409D01*
X243867Y-76167D01*
X243820Y-76050D01*
X243758Y-75933D01*
X243750Y-75925D01*
X243742Y-75909D01*
X243719Y-75878D01*
X243695Y-75839D01*
X243664Y-75784D01*
X243617Y-75730D01*
X243508Y-75597D01*
X243375Y-75456D01*
X243211Y-75308D01*
X243016Y-75167D01*
X242797Y-75042D01*
X242789D01*
X242766Y-75027D01*
X242735Y-75019D01*
X242688Y-74995D01*
X242625Y-74972D01*
X242555Y-74949D01*
X242477Y-74925D01*
X242391Y-74894D01*
X242290Y-74863D01*
X242180Y-74839D01*
X241954Y-74792D01*
X241696Y-74761D01*
X241423Y-74746D01*
D02*
G37*
G36*
X244000Y-69232D02*
X238869Y-71223D01*
Y-72317D01*
X244000Y-74379D01*
Y-73254D01*
X242836Y-72816D01*
Y-70747D01*
X244000Y-70325D01*
Y-69232D01*
D02*
G37*
G36*
X228606Y116953D02*
X228500D01*
X228430Y116941D01*
X228337Y116929D01*
X228231Y116918D01*
X228114Y116906D01*
X227997Y116882D01*
X227716Y116812D01*
X227423Y116695D01*
X227283Y116637D01*
X227130Y116554D01*
X226990Y116461D01*
X226861Y116355D01*
X226849Y116344D01*
X226838Y116332D01*
X226802Y116297D01*
X226756Y116250D01*
X226697Y116191D01*
X226639Y116110D01*
X226580Y116027D01*
X226510Y115934D01*
X226369Y115711D01*
X226240Y115442D01*
X226135Y115138D01*
X226100Y114962D01*
X226077Y114786D01*
X227505Y114611D01*
Y114622D01*
Y114634D01*
X227517Y114704D01*
X227540Y114798D01*
X227575Y114927D01*
X227622Y115056D01*
X227681Y115196D01*
X227763Y115337D01*
X227868Y115454D01*
X227880Y115465D01*
X227927Y115501D01*
X227985Y115547D01*
X228079Y115594D01*
X228184Y115641D01*
X228301Y115688D01*
X228442Y115723D01*
X228594Y115735D01*
X228676D01*
X228758Y115711D01*
X228863Y115688D01*
X228980Y115653D01*
X229109Y115594D01*
X229238Y115512D01*
X229367Y115395D01*
X229379Y115384D01*
X229414Y115325D01*
X229472Y115255D01*
X229531Y115149D01*
X229578Y115009D01*
X229636Y114845D01*
X229671Y114657D01*
X229683Y114447D01*
Y114435D01*
Y114423D01*
Y114353D01*
X229671Y114248D01*
X229648Y114119D01*
X229613Y113978D01*
X229554Y113838D01*
X229484Y113686D01*
X229379Y113557D01*
X229367Y113545D01*
X229320Y113510D01*
X229262Y113451D01*
X229168Y113393D01*
X229063Y113334D01*
X228934Y113276D01*
X228793Y113241D01*
X228641Y113229D01*
X228536D01*
X228454Y113241D01*
X228360Y113252D01*
X228243Y113276D01*
X228114Y113311D01*
X227974Y113346D01*
X228137Y112152D01*
X228231D01*
X228348Y112140D01*
X228477Y112128D01*
X228618Y112105D01*
X228770Y112058D01*
X228922Y111988D01*
X229051Y111906D01*
X229063Y111894D01*
X229098Y111859D01*
X229156Y111788D01*
X229215Y111706D01*
X229273Y111601D01*
X229332Y111472D01*
X229367Y111332D01*
X229379Y111168D01*
Y111156D01*
Y111098D01*
X229367Y111027D01*
X229355Y110945D01*
X229320Y110852D01*
X229285Y110746D01*
X229226Y110641D01*
X229145Y110547D01*
X229133Y110536D01*
X229098Y110512D01*
X229051Y110477D01*
X228980Y110430D01*
X228887Y110383D01*
X228782Y110348D01*
X228653Y110325D01*
X228512Y110313D01*
X228454D01*
X228383Y110325D01*
X228290Y110348D01*
X228184Y110383D01*
X228079Y110430D01*
X227962Y110489D01*
X227856Y110582D01*
X227845Y110594D01*
X227810Y110629D01*
X227774Y110688D01*
X227716Y110770D01*
X227657Y110887D01*
X227610Y111016D01*
X227564Y111168D01*
X227540Y111344D01*
X226182Y111121D01*
Y111109D01*
X226194Y111086D01*
Y111051D01*
X226205Y111004D01*
X226240Y110875D01*
X226287Y110711D01*
X226346Y110536D01*
X226416Y110348D01*
X226510Y110161D01*
X226603Y109997D01*
X226615Y109974D01*
X226662Y109927D01*
X226720Y109856D01*
X226814Y109751D01*
X226931Y109646D01*
X227060Y109540D01*
X227224Y109435D01*
X227400Y109341D01*
X227411D01*
X227423Y109329D01*
X227493Y109306D01*
X227599Y109259D01*
X227739Y109212D01*
X227915Y109177D01*
X228102Y109130D01*
X228325Y109107D01*
X228559Y109095D01*
X228664D01*
X228735Y109107D01*
X228828Y109119D01*
X228934Y109130D01*
X229063Y109154D01*
X229191Y109177D01*
X229461Y109271D01*
X229613Y109318D01*
X229753Y109388D01*
X229894Y109470D01*
X230046Y109564D01*
X230175Y109669D01*
X230304Y109798D01*
X230315Y109810D01*
X230327Y109821D01*
X230351Y109856D01*
X230386Y109891D01*
X230479Y110009D01*
X230585Y110172D01*
X230679Y110360D01*
X230772Y110571D01*
X230831Y110817D01*
X230854Y110945D01*
Y111074D01*
Y111086D01*
Y111121D01*
X230842Y111168D01*
Y111238D01*
X230819Y111332D01*
X230796Y111425D01*
X230761Y111531D01*
X230714Y111648D01*
X230655Y111777D01*
X230585Y111906D01*
X230491Y112046D01*
X230386Y112175D01*
X230257Y112315D01*
X230105Y112444D01*
X229941Y112573D01*
X229742Y112690D01*
X229753D01*
X229777Y112702D01*
X229800D01*
X229847Y112714D01*
X229976Y112760D01*
X230116Y112819D01*
X230292Y112901D01*
X230468Y113018D01*
X230632Y113159D01*
X230796Y113322D01*
X230807Y113346D01*
X230854Y113405D01*
X230924Y113510D01*
X230995Y113650D01*
X231065Y113826D01*
X231135Y114037D01*
X231182Y114259D01*
X231194Y114517D01*
Y114529D01*
Y114564D01*
Y114611D01*
X231182Y114681D01*
X231170Y114775D01*
X231159Y114868D01*
X231135Y114985D01*
X231100Y115114D01*
X231006Y115384D01*
X230948Y115524D01*
X230878Y115665D01*
X230796Y115817D01*
X230690Y115957D01*
X230573Y116098D01*
X230444Y116238D01*
X230433Y116250D01*
X230409Y116273D01*
X230374Y116309D01*
X230315Y116344D01*
X230245Y116402D01*
X230152Y116461D01*
X230058Y116531D01*
X229941Y116590D01*
X229812Y116660D01*
X229671Y116730D01*
X229519Y116789D01*
X229355Y116835D01*
X229180Y116882D01*
X229004Y116918D01*
X228805Y116941D01*
X228606Y116953D01*
D02*
G37*
G36*
X214085Y116812D02*
X212528D01*
X209413Y111765D01*
Y116812D01*
X207973D01*
Y109119D01*
X209472D01*
X212645Y114283D01*
Y109119D01*
X214085D01*
Y116812D01*
D02*
G37*
G36*
X218945Y116941D02*
X218875D01*
X218793Y116929D01*
X218687D01*
X218559Y116906D01*
X218406Y116882D01*
X218243Y116859D01*
X218055Y116812D01*
X217856Y116754D01*
X217657Y116683D01*
X217446Y116601D01*
X217235Y116496D01*
X217025Y116379D01*
X216814Y116238D01*
X216615Y116086D01*
X216427Y115899D01*
X216416Y115887D01*
X216381Y115852D01*
X216334Y115793D01*
X216275Y115711D01*
X216205Y115606D01*
X216111Y115477D01*
X216029Y115325D01*
X215936Y115149D01*
X215842Y114962D01*
X215760Y114739D01*
X215678Y114505D01*
X215596Y114248D01*
X215538Y113978D01*
X215491Y113686D01*
X215456Y113369D01*
X215444Y113041D01*
Y113018D01*
Y112960D01*
X215456Y112854D01*
Y112725D01*
X215479Y112561D01*
X215491Y112374D01*
X215526Y112175D01*
X215573Y111952D01*
X215619Y111706D01*
X215690Y111472D01*
X215760Y111215D01*
X215854Y110969D01*
X215971Y110723D01*
X216100Y110489D01*
X216252Y110266D01*
X216427Y110055D01*
X216439Y110044D01*
X216474Y110009D01*
X216533Y109962D01*
X216603Y109891D01*
X216708Y109810D01*
X216826Y109716D01*
X216966Y109622D01*
X217130Y109517D01*
X217306Y109423D01*
X217505Y109329D01*
X217716Y109236D01*
X217950Y109154D01*
X218196Y109083D01*
X218465Y109037D01*
X218746Y109002D01*
X219039Y108990D01*
X219179D01*
X219273Y109002D01*
X219390Y109013D01*
X219531Y109037D01*
X219683Y109060D01*
X219847Y109095D01*
X220034Y109142D01*
X220210Y109201D01*
X220409Y109259D01*
X220596Y109341D01*
X220783Y109447D01*
X220971Y109552D01*
X221146Y109681D01*
X221322Y109833D01*
X221334D01*
X221346Y109856D01*
X221404Y109927D01*
X221498Y110032D01*
X221615Y110196D01*
X221744Y110395D01*
X221884Y110629D01*
X222013Y110910D01*
X222118Y111238D01*
X220585Y111601D01*
Y111590D01*
X220573Y111578D01*
X220561Y111507D01*
X220514Y111402D01*
X220456Y111262D01*
X220385Y111109D01*
X220280Y110957D01*
X220163Y110805D01*
X220011Y110664D01*
X219987Y110653D01*
X219929Y110606D01*
X219847Y110547D01*
X219718Y110489D01*
X219566Y110418D01*
X219378Y110372D01*
X219179Y110325D01*
X218957Y110313D01*
X218875D01*
X218816Y110325D01*
X218746Y110336D01*
X218664Y110348D01*
X218465Y110395D01*
X218243Y110465D01*
X218008Y110571D01*
X217903Y110641D01*
X217786Y110723D01*
X217680Y110828D01*
X217575Y110934D01*
Y110945D01*
X217552Y110957D01*
X217528Y111004D01*
X217493Y111051D01*
X217458Y111121D01*
X217411Y111203D01*
X217364Y111297D01*
X217317Y111414D01*
X217259Y111543D01*
X217212Y111683D01*
X217165Y111847D01*
X217130Y112034D01*
X217095Y112222D01*
X217072Y112444D01*
X217060Y112679D01*
X217048Y112924D01*
Y112936D01*
Y112983D01*
Y113065D01*
X217060Y113159D01*
Y113287D01*
X217072Y113416D01*
X217095Y113568D01*
X217118Y113732D01*
X217177Y114072D01*
X217270Y114423D01*
X217329Y114587D01*
X217399Y114739D01*
X217470Y114880D01*
X217563Y115009D01*
X217575Y115021D01*
X217587Y115032D01*
X217657Y115102D01*
X217774Y115196D01*
X217926Y115313D01*
X218125Y115430D01*
X218360Y115524D01*
X218629Y115594D01*
X218769Y115606D01*
X218922Y115618D01*
X218980D01*
X219027Y115606D01*
X219144Y115594D01*
X219285Y115571D01*
X219460Y115524D01*
X219636Y115454D01*
X219812Y115360D01*
X219987Y115231D01*
X220011Y115208D01*
X220058Y115161D01*
X220140Y115056D01*
X220233Y114927D01*
X220339Y114751D01*
X220444Y114529D01*
X220549Y114283D01*
X220631Y113978D01*
X222142Y114447D01*
Y114458D01*
X222130Y114505D01*
X222107Y114564D01*
X222072Y114657D01*
X222037Y114763D01*
X221990Y114880D01*
X221931Y115021D01*
X221861Y115161D01*
X221709Y115465D01*
X221510Y115782D01*
X221264Y116074D01*
X221135Y116215D01*
X220983Y116332D01*
X220971Y116344D01*
X220948Y116355D01*
X220901Y116391D01*
X220842Y116426D01*
X220760Y116472D01*
X220666Y116519D01*
X220549Y116578D01*
X220421Y116637D01*
X220280Y116695D01*
X220128Y116754D01*
X219964Y116800D01*
X219788Y116847D01*
X219589Y116882D01*
X219390Y116918D01*
X219168Y116929D01*
X218945Y116941D01*
D02*
G37*
%LPD*%
G36*
X96819Y140351D02*
X96037Y142494D01*
X97627D01*
X96819Y140351D01*
D02*
G37*
G36*
X-144Y-142441D02*
X-1733D01*
X-925Y-140299D01*
X-144Y-142441D01*
D02*
G37*
G36*
X-160030Y91338D02*
X-161810Y93972D01*
X-160030D01*
Y91338D01*
D02*
G37*
G36*
X10240Y140299D02*
X9458Y142441D01*
X11048D01*
X10240Y140299D01*
D02*
G37*
G36*
X85804Y-142441D02*
X84215D01*
X85023Y-140299D01*
X85804Y-142441D01*
D02*
G37*
G36*
X241969Y-72481D02*
X240064Y-71762D01*
X241969Y-71067D01*
Y-72481D01*
D02*
G37*
G36*
X27791Y140623D02*
X26456Y142599D01*
X27791D01*
Y140623D01*
D02*
G37*
D50*
X-92000Y21000D02*
X-91987Y121500D01*
X-92000Y-148762D02*
Y-21000D01*
Y-11000D02*
Y11000D01*
X188000Y22180D02*
Y102246D01*
X188016Y-101500D02*
Y-22143D01*
D55*
X32101Y112001D02*
Y113000D01*
Y112501D01*
X34600D01*
X35100Y113000D01*
Y113500D01*
X34600Y114000D01*
X35100Y109002D02*
Y111001D01*
X33101Y109002D01*
X32601D01*
X32101Y109501D01*
Y110501D01*
X32601Y111001D01*
X32101Y106003D02*
Y108002D01*
X33601D01*
X33101Y107002D01*
Y106502D01*
X33601Y106003D01*
X34600D01*
X35100Y106502D01*
Y107502D01*
X34600Y108002D01*
X-179899Y5500D02*
X-176900D01*
Y3501D01*
X-179899Y502D02*
Y2501D01*
X-176900D01*
Y502D01*
X-178400Y2501D02*
Y1501D01*
X-179899Y-498D02*
X-176900D01*
Y-1998D01*
X-177400Y-2497D01*
X-179399D01*
X-179899Y-1998D01*
Y-498D01*
X-176900Y-5496D02*
Y-3497D01*
X-178899Y-5496D01*
X-179399D01*
X-179899Y-4997D01*
Y-3997D01*
X-179399Y-3497D01*
X177301Y2500D02*
X179800D01*
X180300Y2000D01*
Y1001D01*
X179800Y501D01*
X177301D01*
X180300Y-2498D02*
Y-499D01*
X178301Y-2498D01*
X177801D01*
X177301Y-1998D01*
Y-999D01*
X177801Y-499D01*
X-117799Y2500D02*
X-115300D01*
X-114800Y2000D01*
Y1001D01*
X-115300Y501D01*
X-117799D01*
X-117299Y-499D02*
X-117799Y-999D01*
Y-1998D01*
X-117299Y-2498D01*
X-116799D01*
X-116299Y-1998D01*
Y-1499D01*
Y-1998D01*
X-115800Y-2498D01*
X-115300D01*
X-114800Y-1998D01*
Y-999D01*
X-115300Y-499D01*
X-54500Y-73200D02*
X-57499D01*
Y-74699D01*
X-56999Y-75199D01*
X-55999D01*
X-55500Y-74699D01*
Y-73200D01*
Y-74200D02*
X-54500Y-75199D01*
Y-78198D02*
Y-76199D01*
X-56499Y-78198D01*
X-56999D01*
X-57499Y-77699D01*
Y-76699D01*
X-56999Y-76199D01*
Y-79198D02*
X-57499Y-79698D01*
Y-80698D01*
X-56999Y-81197D01*
X-55000D01*
X-54500Y-80698D01*
Y-79698D01*
X-55000Y-79198D01*
X-56999D01*
X265500Y33100D02*
X262501D01*
Y31600D01*
X263001Y31101D01*
X264001D01*
X264500Y31600D01*
Y33100D01*
Y32100D02*
X265500Y31101D01*
Y28102D02*
Y30101D01*
X263501Y28102D01*
X263001D01*
X262501Y28601D01*
Y29601D01*
X263001Y30101D01*
X265500Y25103D02*
Y27102D01*
X263501Y25103D01*
X263001D01*
X262501Y25602D01*
Y26602D01*
X263001Y27102D01*
X76600Y78700D02*
X73601D01*
Y77201D01*
X74101Y76701D01*
X75100D01*
X75600Y77201D01*
Y78700D01*
Y77700D02*
X76600Y76701D01*
Y73702D02*
Y75701D01*
X74601Y73702D01*
X74101D01*
X73601Y74201D01*
Y75201D01*
X74101Y75701D01*
X76600Y71202D02*
X73601D01*
X75100Y72702D01*
Y70703D01*
X26800Y-41500D02*
X23801D01*
Y-43000D01*
X24301Y-43499D01*
X25300D01*
X25800Y-43000D01*
Y-41500D01*
Y-42500D02*
X26800Y-43499D01*
Y-46498D02*
Y-44499D01*
X24801Y-46498D01*
X24301D01*
X23801Y-45999D01*
Y-44999D01*
X24301Y-44499D01*
X26800Y-47498D02*
Y-48498D01*
Y-47998D01*
X23801D01*
X24301Y-47498D01*
X-50500Y-99799D02*
X-52499D01*
X-52999Y-99300D01*
Y-98300D01*
X-52499Y-97800D01*
X-50500D01*
X-50000Y-98300D01*
Y-99300D01*
X-51000Y-98800D02*
X-50000Y-99799D01*
Y-99300D02*
X-50500Y-99799D01*
X-50000Y-100799D02*
Y-101799D01*
Y-101299D01*
X-52999D01*
X-52499Y-100799D01*
X263801Y-32899D02*
Y-31900D01*
Y-32399D01*
X266300D01*
X266800Y-31900D01*
Y-31400D01*
X266300Y-30900D01*
X266800Y-33899D02*
Y-34899D01*
Y-34399D01*
X263801D01*
X264301Y-33899D01*
Y-36398D02*
X263801Y-36898D01*
Y-37898D01*
X264301Y-38398D01*
X264801D01*
X265300Y-37898D01*
X265800Y-38398D01*
X266300D01*
X266800Y-37898D01*
Y-36898D01*
X266300Y-36398D01*
X265800D01*
X265300Y-36898D01*
X264801Y-36398D01*
X264301D01*
X265300Y-36898D02*
Y-37898D01*
X126501Y110300D02*
Y109300D01*
Y109800D01*
X129500D01*
Y110300D01*
Y109300D01*
X127001Y105801D02*
X126501Y106301D01*
Y107301D01*
X127001Y107801D01*
X129000D01*
X129500Y107301D01*
Y106301D01*
X129000Y105801D01*
X129500Y103302D02*
X126501D01*
X128000Y104802D01*
Y102802D01*
X-44999Y-75199D02*
X-45499Y-74699D01*
Y-73700D01*
X-44999Y-73200D01*
X-43000D01*
X-42500Y-73700D01*
Y-74699D01*
X-43000Y-75199D01*
X-42500Y-76199D02*
Y-77199D01*
Y-76699D01*
X-45499D01*
X-44999Y-76199D01*
Y-78698D02*
X-45499Y-79198D01*
Y-80198D01*
X-44999Y-80698D01*
X-44499D01*
X-43999Y-80198D01*
Y-79698D01*
Y-80198D01*
X-43500Y-80698D01*
X-43000D01*
X-42500Y-80198D01*
Y-79198D01*
X-43000Y-78698D01*
X-50899Y-75199D02*
X-51399Y-74699D01*
Y-73700D01*
X-50899Y-73200D01*
X-48900D01*
X-48400Y-73700D01*
Y-74699D01*
X-48900Y-75199D01*
X-48400Y-76199D02*
Y-77199D01*
Y-76699D01*
X-51399D01*
X-50899Y-76199D01*
X-48400Y-80198D02*
X-51399D01*
X-49900Y-78698D01*
Y-80698D01*
X-167999Y78401D02*
X-168499Y78900D01*
Y79900D01*
X-167999Y80400D01*
X-166000D01*
X-165500Y79900D01*
Y78900D01*
X-166000Y78401D01*
X-167999Y77401D02*
X-168499Y76901D01*
Y75901D01*
X-167999Y75402D01*
X-167499D01*
X-166999Y75901D01*
Y76401D01*
Y75901D01*
X-166500Y75402D01*
X-166000D01*
X-165500Y75901D01*
Y76901D01*
X-166000Y77401D01*
X-165500Y72403D02*
Y74402D01*
X-167499Y72403D01*
X-167999D01*
X-168499Y72902D01*
Y73902D01*
X-167999Y74402D01*
X118001Y-36199D02*
X117501Y-35699D01*
Y-34700D01*
X118001Y-34200D01*
X120000D01*
X120500Y-34700D01*
Y-35699D01*
X120000Y-36199D01*
X120500Y-37199D02*
Y-38199D01*
Y-37699D01*
X117501D01*
X118001Y-37199D01*
X117501Y-41698D02*
X118001Y-40698D01*
X119000Y-39698D01*
X120000D01*
X120500Y-40198D01*
Y-41198D01*
X120000Y-41698D01*
X119500D01*
X119000Y-41198D01*
Y-39698D01*
X132201Y-3999D02*
X131701Y-3500D01*
Y-2500D01*
X132201Y-2000D01*
X134200D01*
X134700Y-2500D01*
Y-3500D01*
X134200Y-3999D01*
X134700Y-6998D02*
Y-4999D01*
X132701Y-6998D01*
X132201D01*
X131701Y-6499D01*
Y-5499D01*
X132201Y-4999D01*
Y-7998D02*
X131701Y-8498D01*
Y-9498D01*
X132201Y-9997D01*
X132701D01*
X133201Y-9498D01*
Y-8998D01*
Y-9498D01*
X133700Y-9997D01*
X134200D01*
X134700Y-9498D01*
Y-8498D01*
X134200Y-7998D01*
X66001Y36701D02*
X65501Y37200D01*
Y38200D01*
X66001Y38700D01*
X68000D01*
X68500Y38200D01*
Y37200D01*
X68000Y36701D01*
X68500Y33702D02*
Y35701D01*
X66501Y33702D01*
X66001D01*
X65501Y34201D01*
Y35201D01*
X66001Y35701D01*
X68000Y32702D02*
X68500Y32202D01*
Y31202D01*
X68000Y30703D01*
X66001D01*
X65501Y31202D01*
Y32202D01*
X66001Y32702D01*
X66501D01*
X67001Y32202D01*
Y30703D01*
X124701Y-36199D02*
X124201Y-35699D01*
Y-34700D01*
X124701Y-34200D01*
X126700D01*
X127200Y-34700D01*
Y-35699D01*
X126700Y-36199D01*
X127200Y-37199D02*
Y-38199D01*
Y-37699D01*
X124201D01*
X124701Y-37199D01*
X124201Y-41698D02*
Y-39698D01*
X125700D01*
X125201Y-40698D01*
Y-41198D01*
X125700Y-41698D01*
X126700D01*
X127200Y-41198D01*
Y-40198D01*
X126700Y-39698D01*
X117601Y37101D02*
X117101Y37600D01*
Y38600D01*
X117601Y39100D01*
X119600D01*
X120100Y38600D01*
Y37600D01*
X119600Y37101D01*
X120100Y34102D02*
Y36101D01*
X118101Y34102D01*
X117601D01*
X117101Y34601D01*
Y35601D01*
X117601Y36101D01*
X117101Y31103D02*
X117601Y32102D01*
X118600Y33102D01*
X119600D01*
X120100Y32602D01*
Y31602D01*
X119600Y31103D01*
X119100D01*
X118600Y31602D01*
Y33102D01*
X111701Y37101D02*
X111201Y37600D01*
Y38600D01*
X111701Y39100D01*
X113700D01*
X114200Y38600D01*
Y37600D01*
X113700Y37101D01*
X114200Y34102D02*
Y36101D01*
X112201Y34102D01*
X111701D01*
X111201Y34601D01*
Y35601D01*
X111701Y36101D01*
X111201Y33102D02*
Y31103D01*
X111701D01*
X113700Y33102D01*
X114200D01*
X70001Y-36199D02*
X69501Y-35699D01*
Y-34700D01*
X70001Y-34200D01*
X72000D01*
X72500Y-34700D01*
Y-35699D01*
X72000Y-36199D01*
X72500Y-37199D02*
Y-38199D01*
Y-37699D01*
X69501D01*
X70001Y-37199D01*
X72000Y-39698D02*
X72500Y-40198D01*
Y-41198D01*
X72000Y-41698D01*
X70001D01*
X69501Y-41198D01*
Y-40198D01*
X70001Y-39698D01*
X70501D01*
X71000Y-40198D01*
Y-41698D01*
X131501Y-36199D02*
X131001Y-35699D01*
Y-34700D01*
X131501Y-34200D01*
X133500D01*
X134000Y-34700D01*
Y-35699D01*
X133500Y-36199D01*
X134000Y-39198D02*
Y-37199D01*
X132001Y-39198D01*
X131501D01*
X131001Y-38699D01*
Y-37699D01*
X131501Y-37199D01*
X134000Y-40198D02*
Y-41198D01*
Y-40698D01*
X131001D01*
X131501Y-40198D01*
X56401Y18001D02*
X55901Y18500D01*
Y19500D01*
X56401Y20000D01*
X58400D01*
X58900Y19500D01*
Y18500D01*
X58400Y18001D01*
X58900Y15002D02*
Y17001D01*
X56901Y15002D01*
X56401D01*
X55901Y15501D01*
Y16501D01*
X56401Y17001D01*
X55901Y12003D02*
Y14002D01*
X57401D01*
X56901Y13002D01*
Y12502D01*
X57401Y12003D01*
X58400D01*
X58900Y12502D01*
Y13502D01*
X58400Y14002D01*
X103801Y37101D02*
X103301Y37600D01*
Y38600D01*
X103801Y39100D01*
X105800D01*
X106300Y38600D01*
Y37600D01*
X105800Y37101D01*
X106300Y34102D02*
Y36101D01*
X104301Y34102D01*
X103801D01*
X103301Y34601D01*
Y35601D01*
X103801Y36101D01*
Y33102D02*
X103301Y32602D01*
Y31602D01*
X103801Y31103D01*
X104301D01*
X104800Y31602D01*
X105300Y31103D01*
X105800D01*
X106300Y31602D01*
Y32602D01*
X105800Y33102D01*
X105300D01*
X104800Y32602D01*
X104301Y33102D01*
X103801D01*
X104800Y32602D02*
Y31602D01*
X81001Y40701D02*
X80501Y41201D01*
Y42200D01*
X81001Y42700D01*
X83000D01*
X83500Y42200D01*
Y41201D01*
X83000Y40701D01*
X81001Y39701D02*
X80501Y39201D01*
Y38201D01*
X81001Y37702D01*
X81501D01*
X82000Y38201D01*
Y38701D01*
Y38201D01*
X82500Y37702D01*
X83000D01*
X83500Y38201D01*
Y39201D01*
X83000Y39701D01*
X83500Y36702D02*
Y35702D01*
Y36202D01*
X80501D01*
X81001Y36702D01*
X63801Y-36199D02*
X63301Y-35699D01*
Y-34700D01*
X63801Y-34200D01*
X65800D01*
X66300Y-34700D01*
Y-35699D01*
X65800Y-36199D01*
X66300Y-39198D02*
Y-37199D01*
X64301Y-39198D01*
X63801D01*
X63301Y-38699D01*
Y-37699D01*
X63801Y-37199D01*
Y-40198D02*
X63301Y-40698D01*
Y-41698D01*
X63801Y-42197D01*
X65800D01*
X66300Y-41698D01*
Y-40698D01*
X65800Y-40198D01*
X63801D01*
X111201Y-36199D02*
X110701Y-35699D01*
Y-34700D01*
X111201Y-34200D01*
X113200D01*
X113700Y-34700D01*
Y-35699D01*
X113200Y-36199D01*
X113700Y-37199D02*
Y-38199D01*
Y-37699D01*
X110701D01*
X111201Y-37199D01*
X110701Y-39698D02*
Y-41698D01*
X111201D01*
X113200Y-39698D01*
X113700D01*
X127501Y46101D02*
X127001Y46600D01*
Y47600D01*
X127501Y48100D01*
X129500D01*
X130000Y47600D01*
Y46600D01*
X129500Y46101D01*
X127501Y45101D02*
X127001Y44601D01*
Y43601D01*
X127501Y43102D01*
X128001D01*
X128500Y43601D01*
Y44101D01*
Y43601D01*
X129000Y43102D01*
X129500D01*
X130000Y43601D01*
Y44601D01*
X129500Y45101D01*
X127501Y42102D02*
X127001Y41602D01*
Y40602D01*
X127501Y40103D01*
X129500D01*
X130000Y40602D01*
Y41602D01*
X129500Y42102D01*
X127501D01*
X81901Y-36199D02*
X81401Y-35699D01*
Y-34700D01*
X81901Y-34200D01*
X83900D01*
X84400Y-34700D01*
Y-35699D01*
X83900Y-36199D01*
X84400Y-37199D02*
Y-38199D01*
Y-37699D01*
X81401D01*
X81901Y-37199D01*
Y-39698D02*
X81401Y-40198D01*
Y-41198D01*
X81901Y-41698D01*
X82401D01*
X82901Y-41198D01*
X83400Y-41698D01*
X83900D01*
X84400Y-41198D01*
Y-40198D01*
X83900Y-39698D01*
X83400D01*
X82901Y-40198D01*
X82401Y-39698D01*
X81901D01*
X82901Y-40198D02*
Y-41198D01*
X52801Y-7499D02*
X52301Y-7000D01*
Y-6000D01*
X52801Y-5500D01*
X54800D01*
X55300Y-6000D01*
Y-7000D01*
X54800Y-7499D01*
X55300Y-10498D02*
Y-8499D01*
X53301Y-10498D01*
X52801D01*
X52301Y-9999D01*
Y-8999D01*
X52801Y-8499D01*
X55300Y-13497D02*
Y-11498D01*
X53301Y-13497D01*
X52801D01*
X52301Y-12998D01*
Y-11998D01*
X52801Y-11498D01*
X131301Y14401D02*
X130801Y14900D01*
Y15900D01*
X131301Y16400D01*
X133300D01*
X133800Y15900D01*
Y14900D01*
X133300Y14401D01*
X133800Y11402D02*
Y13401D01*
X131801Y11402D01*
X131301D01*
X130801Y11901D01*
Y12901D01*
X131301Y13401D01*
X133800Y8902D02*
X130801D01*
X132300Y10402D01*
Y8403D01*
X-5599Y-120299D02*
Y-119300D01*
Y-119799D01*
X-3100D01*
X-2600Y-119300D01*
Y-118800D01*
X-3100Y-118300D01*
X-2600Y-121299D02*
Y-122299D01*
Y-121799D01*
X-5599D01*
X-5099Y-121299D01*
X-5599Y-123798D02*
Y-125798D01*
X-5099D01*
X-3100Y-123798D01*
X-2600D01*
X-54599Y141601D02*
Y142600D01*
Y142101D01*
X-52100D01*
X-51600Y142600D01*
Y143100D01*
X-52100Y143600D01*
X-51600Y138602D02*
Y140601D01*
X-53599Y138602D01*
X-54099D01*
X-54599Y139101D01*
Y140101D01*
X-54099Y140601D01*
X-54599Y137602D02*
Y135603D01*
X-54099D01*
X-52100Y137602D01*
X-51600D01*
X-180011Y68501D02*
Y69500D01*
Y69000D01*
X-177512D01*
X-177012Y69500D01*
Y70000D01*
X-177512Y70500D01*
X-177012Y65502D02*
Y67501D01*
X-179012Y65502D01*
X-179511D01*
X-180011Y66001D01*
Y67001D01*
X-179511Y67501D01*
X-177012Y64502D02*
Y63502D01*
Y64002D01*
X-180011D01*
X-179511Y64502D01*
X-181799Y-68799D02*
Y-67800D01*
Y-68300D01*
X-179300D01*
X-178800Y-67800D01*
Y-67300D01*
X-179300Y-66800D01*
X-178800Y-69799D02*
Y-70799D01*
Y-70299D01*
X-181799D01*
X-181299Y-69799D01*
X-179300Y-72298D02*
X-178800Y-72798D01*
Y-73798D01*
X-179300Y-74298D01*
X-181299D01*
X-181799Y-73798D01*
Y-72798D01*
X-181299Y-72298D01*
X-180799D01*
X-180299Y-72798D01*
Y-74298D01*
X-45200Y118300D02*
X-48199D01*
Y116800D01*
X-47699Y116301D01*
X-46700D01*
X-46200Y116800D01*
Y118300D01*
Y117300D02*
X-45200Y116301D01*
Y113302D02*
Y115301D01*
X-47199Y113302D01*
X-47699D01*
X-48199Y113801D01*
Y114801D01*
X-47699Y115301D01*
X-48199Y110303D02*
Y112302D01*
X-46700D01*
X-47199Y111302D01*
Y110802D01*
X-46700Y110303D01*
X-45700D01*
X-45200Y110802D01*
Y111802D01*
X-45700Y112302D01*
X93100Y55600D02*
X90101D01*
Y54101D01*
X90601Y53601D01*
X91601D01*
X92100Y54101D01*
Y55600D01*
Y54600D02*
X93100Y53601D01*
Y50602D02*
Y52601D01*
X91101Y50602D01*
X90601D01*
X90101Y51101D01*
Y52101D01*
X90601Y52601D01*
Y49602D02*
X90101Y49102D01*
Y48102D01*
X90601Y47603D01*
X91101D01*
X91601Y48102D01*
Y48602D01*
Y48102D01*
X92100Y47603D01*
X92600D01*
X93100Y48102D01*
Y49102D01*
X92600Y49602D01*
X-78300Y-61300D02*
X-81299D01*
Y-62800D01*
X-80799Y-63299D01*
X-79799D01*
X-79300Y-62800D01*
Y-61300D01*
Y-62300D02*
X-78300Y-63299D01*
Y-64299D02*
Y-65299D01*
Y-64799D01*
X-81299D01*
X-80799Y-64299D01*
X-78800Y-66798D02*
X-78300Y-67298D01*
Y-68298D01*
X-78800Y-68798D01*
X-80799D01*
X-81299Y-68298D01*
Y-67298D01*
X-80799Y-66798D01*
X-80299D01*
X-79799Y-67298D01*
Y-68798D01*
D89*
X-186642Y-4759D02*
G03*
X-186642Y-4759I-394J0D01*
G01*
D90*
X201284Y-3347D02*
G03*
X201284Y-3347I-1181J0D01*
G01*
X-136421Y3347D02*
G03*
X-136421Y3347I-1181J0D01*
G01*
X123669Y61768D02*
G03*
X123669Y61768I-1181J0D01*
G01*
D91*
X-189000Y80343D02*
Y84280D01*
Y56721D02*
Y60658D01*
X-203961Y84280D02*
X-189000D01*
X-211047Y60658D02*
Y80343D01*
X-203961Y56721D02*
X-189000D01*
X258882Y22256D02*
X261835D01*
X266165D02*
X269118D01*
X261835D02*
X266165D01*
X258882Y16744D02*
Y22256D01*
Y16744D02*
X269118D01*
Y18713D02*
Y20287D01*
Y16744D02*
Y18713D01*
Y20287D02*
Y22256D01*
X183961Y-7283D02*
X204039D01*
X183961Y7283D02*
X204039D01*
Y-7283D02*
Y7283D01*
X183961Y-7283D02*
Y7283D01*
X79461Y87653D02*
X82413D01*
X79421Y87614D02*
X79461Y87653D01*
X79421Y61669D02*
Y87614D01*
Y61669D02*
X82413D01*
X89106D02*
X92059D01*
Y87653D01*
X89106D02*
X92059D01*
X82413D02*
X89106D01*
X82413Y61669D02*
X89106D01*
X94287Y100256D02*
X98224D01*
X38776D02*
X42713D01*
X94287Y119744D02*
X98224D01*
X38776D02*
X42713D01*
X98224Y100256D02*
Y119744D01*
X38776Y100256D02*
Y119744D01*
X-181940Y73440D02*
Y79346D01*
X-171310D01*
X-181940Y73440D02*
X-171310D01*
Y79346D01*
X-141539Y7283D02*
X-121461D01*
X-141539Y-7283D02*
X-121461D01*
X-141539D02*
Y7283D01*
X-121461Y-7283D02*
Y7283D01*
X-203500Y-10000D02*
X-203008D01*
X-183992D02*
X-183500D01*
X-203500Y10000D02*
X-203008D01*
X-184051D02*
X-183559D01*
X-196846Y-10000D02*
X-190154D01*
X-196846Y10000D02*
X-190154D01*
X-183500Y-10000D02*
Y10000D01*
X-203500Y-10000D02*
Y10000D01*
X-189000Y-60658D02*
Y-56721D01*
Y-84280D02*
Y-80343D01*
X-203961Y-56721D02*
X-189000D01*
X-211047Y-80343D02*
Y-60658D01*
X-203961Y-84280D02*
X-189000D01*
X-52854Y-59685D02*
X-46949D01*
Y-70315D02*
Y-59685D01*
X-52854Y-70315D02*
Y-59685D01*
Y-70315D02*
X-46949D01*
X-46953D02*
X-41047D01*
X-46953D02*
Y-59685D01*
X-41047Y-70315D02*
Y-59685D01*
X-46953D02*
X-41047D01*
X-48823Y-89575D02*
X-48821Y-86425D01*
X-54256Y-94102D02*
Y-90756D01*
Y-94102D02*
X-49531D01*
X-54256Y-85244D02*
Y-81898D01*
X-49531D01*
X-58756Y-70315D02*
Y-67362D01*
Y-63032D02*
Y-60079D01*
Y-67362D02*
Y-63032D01*
Y-70315D02*
X-53244D01*
Y-60079D01*
X-56787D02*
X-55213D01*
X-53244D01*
X-58756D02*
X-56787D01*
X285134Y-50000D02*
X285921Y-49213D01*
X285134Y-89370D02*
X285922Y-90158D01*
Y-98032D02*
Y-90158D01*
X244583Y-41535D02*
X285921D01*
Y-49213D02*
Y-41535D01*
X244583Y-98032D02*
X252259D01*
X244583D02*
Y-97244D01*
Y-93701D01*
X248322D02*
Y-45669D01*
X244583D02*
X248322D01*
X244583Y-93701D02*
X248322D01*
X252259Y-98032D02*
X279031D01*
X284542Y-50000D02*
X285134D01*
X282180D02*
X284542D01*
X282180Y-89370D02*
Y-50000D01*
Y-89370D02*
X285134D01*
X279031Y-98032D02*
X285922D01*
X244583Y-45669D02*
Y-41535D01*
X-104987Y112887D02*
Y120136D01*
X-101291D01*
Y112887D02*
Y120136D01*
X-104987Y112887D02*
X-101291D01*
X118551Y99169D02*
X137449D01*
X118551Y57831D02*
X137449D01*
Y99169D01*
X118551Y57831D02*
Y99169D01*
X86520Y39694D02*
Y45206D01*
Y39694D02*
X96756D01*
X86520Y45206D02*
X89472Y45206D01*
X96756Y39694D02*
Y41663D01*
X89472Y45206D02*
X93803D01*
X96756Y41663D02*
Y43237D01*
X93803Y45206D02*
X96756D01*
Y43237D02*
Y45206D01*
X-73595Y135063D02*
X-68083D01*
X-110603Y135063D02*
X-105091Y135063D01*
X-66115Y145693D02*
Y149500D01*
X-112572D02*
X-112571Y145693D01*
X-74594Y-71299D02*
X-61405D01*
X-74594D02*
Y-58701D01*
X-61405Y-71299D02*
Y-67362D01*
X-74594Y-58701D02*
X-61405D01*
Y-67362D02*
Y-58701D01*
X-21905Y111968D02*
Y120630D01*
X-35094D02*
X-21905D01*
Y108031D02*
Y111968D01*
X-35094Y108031D02*
Y120630D01*
Y108031D02*
X-21905D01*
D92*
X118265Y-8362D02*
Y-3638D01*
X128894D01*
X118265Y-8362D02*
X128894D01*
Y-3638D01*
X122767Y6138D02*
X127491D01*
X122767D02*
Y16768D01*
X127491Y6138D02*
Y16768D01*
X122767D02*
X127491D01*
X80493Y-20730D02*
X85217D01*
Y-31360D02*
Y-20730D01*
X80493Y-31360D02*
Y-20730D01*
Y-31360D02*
X85217D01*
X109888Y-20730D02*
X114612D01*
Y-31360D02*
Y-20730D01*
X109888Y-31360D02*
Y-20730D01*
Y-31360D02*
X114612D01*
X62480D02*
X67205D01*
X62480D02*
Y-20730D01*
X67205Y-31360D02*
Y-20730D01*
X62480D02*
X67205D01*
X130138Y-20730D02*
X134862D01*
Y-31360D02*
Y-20730D01*
X130138Y-31360D02*
Y-20730D01*
Y-31360D02*
X134862D01*
X68648Y-20730D02*
X73372D01*
Y-31360D02*
Y-20730D01*
X68648Y-31360D02*
Y-20730D01*
Y-31360D02*
X73372D01*
X123388Y-20730D02*
X128112D01*
Y-31360D02*
Y-20730D01*
X123388Y-31360D02*
Y-20730D01*
Y-31360D02*
X128112D01*
X116638Y-20730D02*
X121362D01*
Y-31360D02*
Y-20730D01*
X116638Y-31360D02*
Y-20730D01*
Y-31360D02*
X121362D01*
X58638Y-4185D02*
X63362D01*
Y-14815D02*
Y-4185D01*
X58638Y-14815D02*
Y-4185D01*
Y-14815D02*
X63362D01*
X72315Y13642D02*
Y18366D01*
X61685Y13642D02*
X72315D01*
X61685Y18366D02*
X72315D01*
X61685Y13642D02*
Y18366D01*
X30508Y-48346D02*
Y-41654D01*
X56492Y-48346D02*
Y-41654D01*
Y-51299D02*
Y-48346D01*
X30508Y-51299D02*
X56492D01*
X30508D02*
Y-48346D01*
Y-41654D02*
Y-38661D01*
X56453D01*
X56492Y-38701D01*
Y-41654D02*
Y-38701D01*
X72315Y22672D02*
Y27396D01*
X61685Y22672D02*
X72315D01*
X61685Y27396D02*
X72315D01*
X61685Y22672D02*
Y27396D01*
X116244Y17685D02*
X120968D01*
X116244D02*
Y28315D01*
X120968Y17685D02*
Y28315D01*
X116244D02*
X120968D01*
X110339Y17685D02*
X115063D01*
X110339D02*
Y28315D01*
X115063Y17685D02*
Y28315D01*
X110339D02*
X115063D01*
X102465Y17685D02*
X107189D01*
X102465D02*
Y28315D01*
X107189Y17685D02*
Y28315D01*
X102465D02*
X107189D01*
X87315Y27670D02*
Y32394D01*
X76685Y27670D02*
X87315D01*
X76685Y32394D02*
X87315D01*
X76685Y27670D02*
Y32394D01*
X126159Y37315D02*
X130883D01*
Y26685D02*
Y37315D01*
X126159Y26685D02*
Y37315D01*
Y26685D02*
X130883D01*
D190*
X-107000Y118000D02*
X-108999D01*
X-107000Y116667D01*
X-108999D01*
X-107000Y116001D02*
X-108999D01*
Y115001D01*
X-108666Y114668D01*
X-108000D01*
X-107667Y115001D01*
Y116001D01*
M02*
