G04 Layer_Physical_Order=4*
G04 Layer_Color=16711680*
%FSLAX25Y25*%
%MOIN*%
G70*
G01*
G75*
%ADD10R,0.03543X0.03150*%
%ADD14R,0.03150X0.03543*%
%ADD15R,0.03347X0.03740*%
%ADD17R,0.04134X0.02165*%
%ADD18R,0.02165X0.04134*%
%ADD19R,0.03740X0.03347*%
%ADD23R,0.04134X0.04134*%
%ADD24R,0.01772X0.03543*%
G04:AMPARAMS|DCode=34|XSize=137.8mil|YSize=50mil|CornerRadius=12.5mil|HoleSize=0mil|Usage=FLASHONLY|Rotation=90.000|XOffset=0mil|YOffset=0mil|HoleType=Round|Shape=RoundedRectangle|*
%AMROUNDEDRECTD34*
21,1,0.13780,0.02500,0,0,90.0*
21,1,0.11280,0.05000,0,0,90.0*
1,1,0.02500,0.01250,0.05640*
1,1,0.02500,0.01250,-0.05640*
1,1,0.02500,-0.01250,-0.05640*
1,1,0.02500,-0.01250,0.05640*
%
%ADD34ROUNDEDRECTD34*%
G04:AMPARAMS|DCode=35|XSize=137.8mil|YSize=100mil|CornerRadius=25mil|HoleSize=0mil|Usage=FLASHONLY|Rotation=90.000|XOffset=0mil|YOffset=0mil|HoleType=Round|Shape=RoundedRectangle|*
%AMROUNDEDRECTD35*
21,1,0.13780,0.05000,0,0,90.0*
21,1,0.08780,0.10000,0,0,90.0*
1,1,0.05000,0.02500,0.04390*
1,1,0.05000,0.02500,-0.04390*
1,1,0.05000,-0.02500,-0.04390*
1,1,0.05000,-0.02500,0.04390*
%
%ADD35ROUNDEDRECTD35*%
G04:AMPARAMS|DCode=40|XSize=20mil|YSize=12mil|CornerRadius=0.3mil|HoleSize=0mil|Usage=FLASHONLY|Rotation=270.000|XOffset=0mil|YOffset=0mil|HoleType=Round|Shape=RoundedRectangle|*
%AMROUNDEDRECTD40*
21,1,0.02000,0.01140,0,0,270.0*
21,1,0.01940,0.01200,0,0,270.0*
1,1,0.00060,-0.00570,-0.00970*
1,1,0.00060,-0.00570,0.00970*
1,1,0.00060,0.00570,0.00970*
1,1,0.00060,0.00570,-0.00970*
%
%ADD40ROUNDEDRECTD40*%
G04:AMPARAMS|DCode=42|XSize=10mil|YSize=8mil|CornerRadius=0.2mil|HoleSize=0mil|Usage=FLASHONLY|Rotation=0.000|XOffset=0mil|YOffset=0mil|HoleType=Round|Shape=RoundedRectangle|*
%AMROUNDEDRECTD42*
21,1,0.01000,0.00760,0,0,0.0*
21,1,0.00960,0.00800,0,0,0.0*
1,1,0.00040,0.00480,-0.00380*
1,1,0.00040,-0.00480,-0.00380*
1,1,0.00040,-0.00480,0.00380*
1,1,0.00040,0.00480,0.00380*
%
%ADD42ROUNDEDRECTD42*%
G04:AMPARAMS|DCode=43|XSize=10mil|YSize=8mil|CornerRadius=0.2mil|HoleSize=0mil|Usage=FLASHONLY|Rotation=90.000|XOffset=0mil|YOffset=0mil|HoleType=Round|Shape=RoundedRectangle|*
%AMROUNDEDRECTD43*
21,1,0.01000,0.00760,0,0,90.0*
21,1,0.00960,0.00800,0,0,90.0*
1,1,0.00040,0.00380,0.00480*
1,1,0.00040,0.00380,-0.00480*
1,1,0.00040,-0.00380,-0.00480*
1,1,0.00040,-0.00380,0.00480*
%
%ADD43ROUNDEDRECTD43*%
%ADD46C,0.01600*%
%ADD47C,0.02000*%
%ADD48C,0.01000*%
%ADD49C,0.01200*%
%ADD50C,0.01400*%
%ADD51C,0.01100*%
%ADD52C,0.00800*%
%ADD53C,0.00900*%
%ADD54C,0.01800*%
%ADD56C,0.06000*%
%ADD57C,0.06299*%
%ADD58C,0.05512*%
%ADD59C,0.09055*%
%ADD60C,0.24000*%
%ADD61C,0.23000*%
%ADD62C,0.07087*%
%ADD63C,0.02700*%
%ADD64C,0.02500*%
%ADD65C,0.02800*%
%ADD66C,0.03000*%
%ADD67C,0.04000*%
%ADD68C,0.03200*%
%ADD69C,0.02700*%
%ADD70C,0.03800*%
%ADD71C,0.03500*%
%ADD76R,0.07087X0.04724*%
%ADD77R,0.06693X0.02362*%
%ADD78R,0.01772X0.05512*%
%ADD79R,0.03500X0.06500*%
%ADD80R,0.01181X0.07874*%
%ADD81R,0.04134X0.02953*%
%ADD82R,0.02362X0.02362*%
%ADD83R,0.06496X0.01575*%
%ADD84R,0.02362X0.07874*%
%ADD85R,0.09843X0.11024*%
%ADD86C,0.02800*%
%ADD87C,0.02600*%
G36*
X40412Y-22120D02*
X40508Y-22602D01*
X40687Y-23130D01*
X40933Y-23630D01*
X41243Y-24093D01*
X41610Y-24512D01*
X42029Y-24879D01*
X42492Y-25188D01*
X42992Y-25435D01*
X43520Y-25614D01*
X44066Y-25723D01*
X44482Y-25750D01*
X44747Y-26201D01*
X45317Y-28219D01*
X39596Y-33940D01*
X37247Y-31591D01*
X36911Y-31297D01*
X36541Y-31049D01*
X36141Y-30852D01*
X35719Y-30709D01*
X35282Y-30622D01*
X34837Y-30593D01*
X22095D01*
X21651Y-30622D01*
X21214Y-30709D01*
X20413Y-30765D01*
X19539Y-30565D01*
X18379Y-29907D01*
X18012Y-29488D01*
X17593Y-29121D01*
X17130Y-28811D01*
X16690Y-28595D01*
X16797Y-28056D01*
X16834Y-27500D01*
X16797Y-26944D01*
X16689Y-26398D01*
X16510Y-25870D01*
X16263Y-25370D01*
X15954Y-24907D01*
X15586Y-24488D01*
X15561Y-22280D01*
X15588Y-22218D01*
X15894Y-21665D01*
X16152Y-21614D01*
X16680Y-21435D01*
X17180Y-21189D01*
X17643Y-20879D01*
X18062Y-20512D01*
X18429Y-20093D01*
X18739Y-19630D01*
X18985Y-19130D01*
X19164Y-18602D01*
X19273Y-18056D01*
X19296Y-17707D01*
X36000D01*
X40412Y-22120D01*
D02*
G37*
G36*
X-1834Y-26425D02*
X-1128Y-26935D01*
X-61Y-28701D01*
X-38Y-28911D01*
X-57Y-29200D01*
Y-50067D01*
X-28Y-50511D01*
X59Y-50949D01*
X202Y-51371D01*
X399Y-51770D01*
X647Y-52141D01*
X941Y-52476D01*
X6213Y-57749D01*
Y-67741D01*
X4155Y-68584D01*
X3713Y-68594D01*
X3329Y-68171D01*
X2781Y-67674D01*
X2187Y-67234D01*
X1553Y-66853D01*
X884Y-66537D01*
X188Y-66288D01*
X-530Y-66108D01*
X-1261Y-66000D01*
X-2000Y-65963D01*
X-2739Y-66000D01*
X-3470Y-66108D01*
X-4188Y-66288D01*
X-4884Y-66537D01*
X-5553Y-66853D01*
X-6187Y-67234D01*
X-6781Y-67674D01*
X-7329Y-68171D01*
X-7826Y-68719D01*
X-8266Y-69313D01*
X-8647Y-69947D01*
X-9405Y-70159D01*
X-10595D01*
X-11353Y-69947D01*
X-11733Y-69313D01*
X-12174Y-68719D01*
X-12204Y-68686D01*
X-12671Y-67600D01*
Y-66400D01*
X-12204Y-65314D01*
X-12174Y-65281D01*
X-11733Y-64687D01*
X-11353Y-64053D01*
X-11037Y-63384D01*
X-10788Y-62688D01*
X-10608Y-61970D01*
X-10500Y-61239D01*
X-10463Y-60500D01*
X-10500Y-59761D01*
X-10608Y-59030D01*
X-10744Y-58488D01*
X-7878Y-55622D01*
X-7558Y-55257D01*
X-7289Y-54854D01*
X-7074Y-54419D01*
X-6918Y-53960D01*
X-6824Y-53484D01*
X-6792Y-53000D01*
Y-42825D01*
X-6824Y-42342D01*
X-6918Y-41866D01*
X-7074Y-41407D01*
X-7289Y-40971D01*
X-7558Y-40568D01*
X-7878Y-40204D01*
X-11254Y-36828D01*
X-11618Y-36508D01*
X-12021Y-36239D01*
X-12456Y-36024D01*
X-12916Y-35868D01*
X-13392Y-35774D01*
X-13875Y-35742D01*
X-20174D01*
X-20213Y-35726D01*
X-20859Y-35253D01*
X-21669Y-34247D01*
X-22100Y-33242D01*
X-22091Y-33101D01*
X-22128Y-32525D01*
X-22241Y-31960D01*
X-22426Y-31413D01*
X-22681Y-30896D01*
X-23002Y-30417D01*
X-23382Y-29983D01*
X-23816Y-29603D01*
X-24295Y-29282D01*
X-24813Y-29027D01*
X-25359Y-28842D01*
X-24839Y-26411D01*
X-20315D01*
X-19834Y-26925D01*
X-19797Y-27481D01*
X-19689Y-28027D01*
X-19510Y-28555D01*
X-19263Y-29055D01*
X-18954Y-29518D01*
X-18586Y-29937D01*
X-18168Y-30304D01*
X-17704Y-30614D01*
X-17205Y-30860D01*
X-16677Y-31039D01*
X-16131Y-31148D01*
X-15575Y-31184D01*
X-15019Y-31148D01*
X-14472Y-31039D01*
X-13945Y-30860D01*
X-13445Y-30614D01*
X-12982Y-30304D01*
X-12563Y-29937D01*
X-12196Y-29518D01*
X-11886Y-29055D01*
X-11640Y-28555D01*
X-11461Y-28027D01*
X-11352Y-27481D01*
X-11316Y-26925D01*
X-10834Y-26411D01*
X-1935D01*
X-1834Y-26425D01*
D02*
G37*
G36*
X-112517Y13339D02*
X-112129Y12894D01*
X-111259Y11141D01*
X-111269Y11093D01*
X-111372Y10576D01*
X-111409Y10000D01*
X-111372Y9425D01*
X-111259Y8859D01*
X-111074Y8313D01*
X-110819Y7795D01*
X-110498Y7316D01*
X-110118Y6882D01*
X-109684Y6502D01*
X-109205Y6181D01*
X-108687Y5926D01*
X-108141Y5741D01*
X-107576Y5628D01*
X-107000Y5591D01*
X-106424Y5628D01*
X-105859Y5741D01*
X-105313Y5926D01*
X-104795Y6181D01*
X-104316Y6502D01*
X-103882Y6882D01*
X-102550Y6714D01*
X-101654Y6149D01*
X-101255Y5952D01*
X-100833Y5809D01*
X-100396Y5722D01*
X-99951Y5693D01*
X-71012D01*
X-70567Y5722D01*
X-70130Y5809D01*
X-69708Y5952D01*
X-69308Y6149D01*
X-68937Y6397D01*
X-68603Y6691D01*
X-62976Y12318D01*
X-62181Y12077D01*
X-60779Y11095D01*
X-60724Y11033D01*
X-60759Y10500D01*
X-60723Y9944D01*
X-60614Y9398D01*
X-60435Y8870D01*
X-60189Y8370D01*
X-59879Y7907D01*
X-59512Y7488D01*
X-59093Y7121D01*
X-58630Y6812D01*
X-58130Y6565D01*
X-57602Y6386D01*
X-57056Y6277D01*
X-56500Y6241D01*
X-55944Y6277D01*
X-55398Y6386D01*
X-54870Y6565D01*
X-54370Y6812D01*
X-54125Y6976D01*
X-53880Y6812D01*
X-53380Y6565D01*
X-52852Y6386D01*
X-52306Y6277D01*
X-51750Y6241D01*
X-51194Y6277D01*
X-50648Y6386D01*
X-50120Y6565D01*
X-49620Y6812D01*
X-49375Y6976D01*
X-49130Y6812D01*
X-48630Y6565D01*
X-48102Y6386D01*
X-47556Y6277D01*
X-47000Y6241D01*
X-46444Y6277D01*
X-45898Y6386D01*
X-45370Y6565D01*
X-44870Y6812D01*
X-44461Y7085D01*
X-44394Y7124D01*
X-42691Y6915D01*
X-41744Y6495D01*
X-41665Y6436D01*
X-41616Y6229D01*
X-41682Y6130D01*
X-41928Y5630D01*
X-42107Y5102D01*
X-42216Y4556D01*
X-42253Y4000D01*
X-42216Y3444D01*
X-42107Y2898D01*
X-41928Y2370D01*
X-41682Y1870D01*
X-41372Y1407D01*
X-41005Y460D01*
Y-460D01*
X-41372Y-1407D01*
X-41682Y-1870D01*
X-41928Y-2370D01*
X-42107Y-2898D01*
X-42216Y-3444D01*
X-42253Y-4000D01*
X-42216Y-4556D01*
X-42107Y-5102D01*
X-41928Y-5630D01*
X-43988Y-7012D01*
X-44407Y-6645D01*
X-44870Y-6336D01*
X-45370Y-6089D01*
X-45898Y-5910D01*
X-46444Y-5802D01*
X-47000Y-5765D01*
X-47556Y-5802D01*
X-48102Y-5910D01*
X-48630Y-6089D01*
X-49130Y-6336D01*
X-49375Y-6500D01*
X-49620Y-6336D01*
X-50120Y-6089D01*
X-50648Y-5910D01*
X-51194Y-5802D01*
X-51750Y-5765D01*
X-52306Y-5802D01*
X-52852Y-5910D01*
X-53380Y-6089D01*
X-53880Y-6336D01*
X-54125Y-6500D01*
X-54370Y-6336D01*
X-54870Y-6089D01*
X-55398Y-5910D01*
X-55944Y-5802D01*
X-56500Y-5765D01*
X-57056Y-5802D01*
X-57602Y-5910D01*
X-58130Y-6089D01*
X-58630Y-6336D01*
X-59093Y-6645D01*
X-59512Y-7012D01*
X-59879Y-7431D01*
X-60189Y-7895D01*
X-60435Y-8394D01*
X-60614Y-8922D01*
X-60723Y-9468D01*
X-60759Y-10024D01*
X-60723Y-10580D01*
X-60614Y-11127D01*
X-60435Y-11654D01*
X-60189Y-12154D01*
X-59879Y-12617D01*
X-59512Y-13036D01*
X-59093Y-13403D01*
X-58630Y-13713D01*
X-58381Y-13835D01*
X-58348Y-14344D01*
X-58239Y-14890D01*
X-58060Y-15418D01*
X-58021Y-15497D01*
X-58600Y-17061D01*
X-59027Y-17682D01*
X-59395Y-17997D01*
X-85101D01*
X-85458Y-17858D01*
X-85826Y-17602D01*
X-87291Y-16004D01*
X-87327Y-15455D01*
X-87434Y-14915D01*
X-87611Y-14393D01*
X-87855Y-13899D01*
X-88161Y-13442D01*
X-88524Y-13028D01*
X-88938Y-12665D01*
X-89395Y-12359D01*
X-89889Y-12115D01*
X-90411Y-11938D01*
X-90951Y-11831D01*
X-91500Y-11795D01*
X-92049Y-11831D01*
X-92589Y-11938D01*
X-93111Y-12115D01*
X-93604Y-12359D01*
X-94062Y-12665D01*
X-94476Y-13028D01*
X-94839Y-13442D01*
X-95145Y-13899D01*
X-95389Y-14393D01*
X-95566Y-14915D01*
X-95673Y-15455D01*
X-95709Y-16004D01*
X-97174Y-17602D01*
X-97542Y-17858D01*
X-97899Y-17997D01*
X-116417D01*
X-118658Y-17370D01*
Y-5858D01*
X-119036D01*
Y-5270D01*
X-119066Y-4812D01*
X-119155Y-4362D01*
X-119303Y-3927D01*
X-119506Y-3516D01*
X-119761Y-3134D01*
X-120063Y-2789D01*
X-120885Y-1967D01*
X-120962Y-1605D01*
X-120931Y-945D01*
X-120341Y897D01*
X-120269Y952D01*
X-119859Y1226D01*
X-119425Y1606D01*
X-119045Y2040D01*
X-118725Y2520D01*
X-118470Y3037D01*
X-118284Y3583D01*
X-118172Y4149D01*
X-118134Y4724D01*
X-118172Y5300D01*
X-118284Y5866D01*
X-118470Y6412D01*
X-118658Y6793D01*
Y10903D01*
X-118566Y11173D01*
X-118474Y11636D01*
X-118443Y12107D01*
X-116766Y13326D01*
X-116157Y13593D01*
X-112898D01*
X-112517Y13339D01*
D02*
G37*
G36*
X-190007Y38947D02*
X-189402Y38731D01*
X-188778Y38575D01*
X-188142Y38480D01*
X-187500Y38449D01*
X-186858Y38480D01*
X-186222Y38575D01*
X-185804Y38679D01*
X-185797Y38658D01*
X-185594Y38246D01*
X-185339Y37865D01*
X-185037Y37520D01*
X-182121Y34604D01*
Y22613D01*
X-182091Y22156D01*
X-182001Y21706D01*
X-181854Y21271D01*
X-181651Y20860D01*
X-181396Y20478D01*
X-181094Y20133D01*
X-161802Y842D01*
X-180980Y-18336D01*
X-181283Y-18681D01*
X-181538Y-19063D01*
X-181740Y-19474D01*
X-181888Y-19909D01*
X-181977Y-20359D01*
X-182008Y-20817D01*
Y-34604D01*
X-184924Y-37520D01*
X-185226Y-37865D01*
X-185481Y-38246D01*
X-185684Y-38658D01*
X-185700Y-38705D01*
X-186222Y-38575D01*
X-186858Y-38480D01*
X-187500Y-38449D01*
X-188142Y-38480D01*
X-188778Y-38575D01*
X-189402Y-38731D01*
X-190007Y-38947D01*
X-190549Y-39204D01*
X-192381Y-37372D01*
X-192740Y-37065D01*
X-193143Y-36819D01*
X-193731Y-36386D01*
X-194187Y-35630D01*
X-194359Y-34593D01*
X-194322Y-34017D01*
X-194359Y-33442D01*
X-194472Y-32876D01*
X-194657Y-32330D01*
X-194912Y-31812D01*
X-195233Y-31333D01*
X-195463Y-31070D01*
X-195089Y-30652D01*
X-195036Y-30582D01*
X-194976Y-30518D01*
X-194893Y-30394D01*
X-194803Y-30276D01*
X-194761Y-30199D01*
X-194712Y-30126D01*
X-194440Y-29645D01*
X-194407Y-29574D01*
X-194367Y-29507D01*
X-194307Y-29361D01*
X-194241Y-29217D01*
X-194219Y-29142D01*
X-194190Y-29070D01*
X-194130Y-28880D01*
X-194080Y-28663D01*
X-194028Y-28446D01*
X-194027Y-28433D01*
X-194024Y-28420D01*
X-194008Y-28197D01*
X-193991Y-27975D01*
Y-15326D01*
X-192071Y-13925D01*
X-181937D01*
Y-3791D01*
X-183735D01*
X-184306Y-3326D01*
X-184574Y-2933D01*
X-185292Y-1291D01*
X-185241Y-1141D01*
X-185128Y-575D01*
X-185091Y0D01*
X-185128Y575D01*
X-185241Y1141D01*
X-185292Y1291D01*
X-184574Y2933D01*
X-184306Y3326D01*
X-183735Y3791D01*
X-181937D01*
Y13925D01*
X-181937Y13925D01*
X-182745Y15496D01*
X-182781Y16052D01*
X-182890Y16598D01*
X-183069Y17126D01*
X-183315Y17626D01*
X-183625Y18089D01*
X-183992Y18508D01*
X-184411Y18875D01*
X-184874Y19185D01*
X-185374Y19431D01*
X-185902Y19610D01*
X-186448Y19719D01*
X-187004Y19755D01*
X-187560Y19719D01*
X-188106Y19610D01*
X-188634Y19431D01*
X-189134Y19185D01*
X-189597Y18875D01*
X-190016Y18508D01*
X-190383Y18089D01*
X-190692Y17626D01*
X-190939Y17126D01*
X-191118Y16598D01*
X-191165Y16359D01*
X-191491Y16134D01*
X-193672Y17134D01*
X-193991Y17531D01*
Y36539D01*
X-193579Y36638D01*
X-193143Y36819D01*
X-192740Y37066D01*
X-192381Y37372D01*
X-190549Y39204D01*
X-190007Y38947D01*
D02*
G37*
G36*
X-162007Y-15648D02*
Y-34604D01*
X-164924Y-37520D01*
X-165226Y-37865D01*
X-165481Y-38246D01*
X-165684Y-38658D01*
X-165700Y-38705D01*
X-166222Y-38575D01*
X-166858Y-38480D01*
X-167500Y-38449D01*
X-168142Y-38480D01*
X-168778Y-38575D01*
X-169195Y-38679D01*
X-169203Y-38658D01*
X-169406Y-38246D01*
X-169661Y-37865D01*
X-169963Y-37520D01*
X-172993Y-34490D01*
Y-23098D01*
X-164507Y-14613D01*
X-162007Y-15648D01*
D02*
G37*
G36*
X-27641Y-28842D02*
X-28187Y-29027D01*
X-28705Y-29282D01*
X-29184Y-29603D01*
X-29618Y-29983D01*
X-29998Y-30417D01*
X-30319Y-30896D01*
X-30574Y-31413D01*
X-30759Y-31960D01*
X-30872Y-32525D01*
X-30909Y-33101D01*
X-30900Y-33242D01*
X-31331Y-34247D01*
X-32141Y-35253D01*
X-32787Y-35726D01*
X-32826Y-35742D01*
X-40608D01*
X-40628Y-35425D01*
X-40741Y-34859D01*
X-40926Y-34313D01*
X-41181Y-33795D01*
X-41502Y-33316D01*
X-41882Y-32882D01*
X-42316Y-32502D01*
X-42795Y-32181D01*
X-43313Y-31926D01*
X-43859Y-31741D01*
X-44425Y-31628D01*
X-45000Y-31591D01*
X-45575Y-31628D01*
X-46141Y-31741D01*
X-46687Y-31926D01*
X-47205Y-32181D01*
X-47684Y-32502D01*
X-47921Y-32710D01*
X-48015Y-32733D01*
X-49100Y-32746D01*
X-50100Y-32550D01*
X-50740Y-32244D01*
X-51061Y-31765D01*
X-51441Y-31331D01*
X-51875Y-30951D01*
X-52354Y-30630D01*
X-52872Y-30375D01*
X-53418Y-30190D01*
X-53983Y-30077D01*
X-54559Y-30039D01*
X-55135Y-30077D01*
X-55700Y-30190D01*
X-56247Y-30375D01*
X-56764Y-30630D01*
X-57243Y-30951D01*
X-57677Y-31331D01*
X-58057Y-31765D01*
X-58378Y-32244D01*
X-58633Y-32761D01*
X-58818Y-33308D01*
X-58931Y-33873D01*
X-58969Y-34449D01*
X-58931Y-35024D01*
X-58818Y-35590D01*
X-58669Y-36031D01*
X-58636Y-36187D01*
X-58657Y-36537D01*
X-59117Y-37891D01*
X-59526Y-38577D01*
X-59843Y-38889D01*
X-60007Y-38947D01*
X-60588Y-39222D01*
X-61140Y-39553D01*
X-61656Y-39936D01*
X-62132Y-40368D01*
X-62868D01*
X-63344Y-39936D01*
X-63860Y-39553D01*
X-64412Y-39222D01*
X-64993Y-38947D01*
X-65598Y-38731D01*
X-66222Y-38575D01*
X-66858Y-38480D01*
X-67500Y-38449D01*
X-68142Y-38480D01*
X-68778Y-38575D01*
X-69402Y-38731D01*
X-70007Y-38947D01*
X-70588Y-39222D01*
X-71140Y-39553D01*
X-71656Y-39936D01*
X-72132Y-40368D01*
X-72868D01*
X-73344Y-39936D01*
X-73860Y-39553D01*
X-74412Y-39222D01*
X-74993Y-38947D01*
X-75598Y-38731D01*
X-76222Y-38575D01*
X-76858Y-38480D01*
X-77500Y-38449D01*
X-78142Y-38480D01*
X-78778Y-38575D01*
X-79402Y-38731D01*
X-80007Y-38947D01*
X-80588Y-39222D01*
X-81140Y-39553D01*
X-81656Y-39936D01*
X-82132Y-40368D01*
X-82868D01*
X-83344Y-39936D01*
X-83860Y-39553D01*
X-84412Y-39222D01*
X-84993Y-38947D01*
X-85598Y-38731D01*
X-86222Y-38575D01*
X-86858Y-38480D01*
X-87500Y-38449D01*
X-88142Y-38480D01*
X-88778Y-38575D01*
X-89402Y-38731D01*
X-90007Y-38947D01*
X-90588Y-39222D01*
X-91140Y-39553D01*
X-91656Y-39936D01*
X-92132Y-40368D01*
X-92868D01*
X-93344Y-39936D01*
X-93860Y-39553D01*
X-94412Y-39222D01*
X-94993Y-38947D01*
X-95598Y-38731D01*
X-96222Y-38575D01*
X-96858Y-38480D01*
X-97500Y-38449D01*
X-98142Y-38480D01*
X-98778Y-38575D01*
X-99402Y-38731D01*
X-100007Y-38947D01*
X-100588Y-39222D01*
X-101140Y-39553D01*
X-101656Y-39936D01*
X-102132Y-40368D01*
X-102868D01*
X-103344Y-39936D01*
X-103860Y-39553D01*
X-104412Y-39222D01*
X-104993Y-38947D01*
X-105598Y-38731D01*
X-106222Y-38575D01*
X-106858Y-38480D01*
X-107500Y-38449D01*
X-108142Y-38480D01*
X-108778Y-38575D01*
X-109402Y-38731D01*
X-110007Y-38947D01*
X-110588Y-39222D01*
X-111140Y-39553D01*
X-111516Y-39832D01*
X-112163Y-39653D01*
X-113794Y-38742D01*
X-113892Y-38645D01*
Y-34998D01*
X-109036Y-30142D01*
X-108894Y-30114D01*
X-108366Y-29935D01*
X-107867Y-29689D01*
X-107403Y-29379D01*
X-106984Y-29012D01*
X-106617Y-28593D01*
X-106307Y-28130D01*
X-106061Y-27630D01*
X-105882Y-27102D01*
X-105773Y-26556D01*
X-105764Y-26411D01*
X-28161D01*
X-27641Y-28842D01*
D02*
G37*
G36*
X35870Y29166D02*
X36398Y28987D01*
X36944Y28878D01*
X37500Y28842D01*
X37956Y28872D01*
X38076Y28866D01*
X39890Y27785D01*
X40124Y27566D01*
X40456Y27032D01*
Y16587D01*
X39760Y16023D01*
X38784Y15646D01*
X37956Y15471D01*
X37630Y15688D01*
X37130Y15935D01*
X36602Y16114D01*
X36056Y16223D01*
X35500Y16259D01*
X34944Y16223D01*
X34398Y16114D01*
X33870Y15935D01*
X33370Y15688D01*
X32950Y15407D01*
X12073D01*
X10740Y17040D01*
X11712Y19292D01*
X16565D01*
X17049Y19324D01*
X17525Y19418D01*
X17984Y19574D01*
X18419Y19789D01*
X18823Y20058D01*
X19187Y20378D01*
X28202Y29393D01*
X35410D01*
X35870Y29166D01*
D02*
G37*
G36*
X-135676Y38258D02*
X-134804Y37752D01*
X-134155Y36952D01*
X-133909Y36452D01*
X-133599Y35989D01*
X-133232Y35570D01*
X-132813Y35203D01*
X-132350Y34893D01*
X-131850Y34647D01*
X-131323Y34468D01*
X-130776Y34359D01*
X-130220Y34322D01*
X-129665Y34359D01*
X-129118Y34468D01*
X-128591Y34647D01*
X-128091Y34893D01*
X-127628Y35203D01*
X-127617Y35212D01*
X-107555D01*
X-106785Y34404D01*
X-106043Y32874D01*
X-106085Y32712D01*
X-106214Y32331D01*
X-106323Y31784D01*
X-106359Y31228D01*
X-106323Y30672D01*
X-106214Y30126D01*
X-106214Y30126D01*
X-106104Y29390D01*
X-106384Y28549D01*
X-106987Y27992D01*
X-107450Y27683D01*
X-107869Y27316D01*
X-108236Y26897D01*
X-108546Y26434D01*
X-108792Y25934D01*
X-108971Y25406D01*
X-109080Y24860D01*
X-109116Y24304D01*
X-109538Y23854D01*
X-132447D01*
X-132892Y23825D01*
X-133329Y23738D01*
X-133751Y23595D01*
X-134151Y23398D01*
X-134521Y23150D01*
X-134856Y22856D01*
X-134968Y22745D01*
X-135255Y22553D01*
X-135590Y22259D01*
X-136457Y21392D01*
X-136830Y21274D01*
X-139149Y22235D01*
Y36104D01*
X-138883Y36732D01*
X-137500Y38449D01*
X-136884Y38479D01*
X-136857Y38480D01*
X-135676Y38258D01*
D02*
G37*
G36*
X125451Y37500D02*
Y33416D01*
X124251D01*
Y25269D01*
X124695D01*
X125022Y24870D01*
X125256Y24269D01*
X125142Y24038D01*
X124988Y23584D01*
X124894Y23115D01*
X124863Y22638D01*
X124867Y22574D01*
X124651Y22327D01*
X124182Y22234D01*
X123876Y22130D01*
X123433Y22321D01*
X122876Y22775D01*
Y29731D01*
X122735D01*
X122404Y30058D01*
X122074Y30731D01*
X122140Y30924D01*
X122233Y31394D01*
X122264Y31871D01*
X122233Y32349D01*
X122140Y32818D01*
X121986Y33271D01*
X121774Y33700D01*
X121508Y34098D01*
X121193Y34458D01*
X120833Y34773D01*
X120435Y35039D01*
X120006Y35250D01*
X119553Y35404D01*
X119084Y35498D01*
X118606Y35529D01*
X118129Y35498D01*
X117660Y35404D01*
X117207Y35250D01*
X116777Y35039D01*
X116379Y34773D01*
X116020Y34458D01*
X115704Y34098D01*
X115438Y33700D01*
X115227Y33271D01*
X115073Y32818D01*
X114980Y32349D01*
X114948Y31871D01*
X114980Y31394D01*
X115073Y30924D01*
X115139Y30731D01*
X114808Y30058D01*
X114477Y29731D01*
X114336D01*
Y23923D01*
X113629Y23216D01*
X110097D01*
X109631Y23216D01*
X109097Y23995D01*
Y29731D01*
X108956D01*
X108625Y30058D01*
X108294Y30731D01*
X108360Y30924D01*
X108453Y31394D01*
X108485Y31871D01*
X108453Y32349D01*
X108360Y32818D01*
X108206Y33271D01*
X107994Y33700D01*
X107729Y34098D01*
X107413Y34458D01*
X107053Y34773D01*
X106656Y35039D01*
X106227Y35250D01*
X105773Y35404D01*
X105304Y35498D01*
X104827Y35529D01*
X104349Y35498D01*
X103880Y35404D01*
X103427Y35250D01*
X102998Y35039D01*
X102600Y34773D01*
X102240Y34458D01*
X101925Y34098D01*
X101659Y33700D01*
X101447Y33271D01*
X101294Y32818D01*
X101200Y32349D01*
X101169Y31871D01*
X101200Y31394D01*
X101294Y30924D01*
X101359Y30731D01*
X101029Y30058D01*
X100698Y29731D01*
X100557D01*
Y23737D01*
X100438Y23546D01*
X99647Y22987D01*
X99557Y22976D01*
X99216Y23003D01*
X98808Y22971D01*
X98410Y22875D01*
X98032Y22719D01*
X97684Y22505D01*
X97372Y22239D01*
X97106Y21928D01*
X96893Y21579D01*
X96736Y21201D01*
X96640Y20803D01*
X96608Y20395D01*
X96640Y19987D01*
X96736Y19589D01*
X96893Y19211D01*
X97106Y18862D01*
X97372Y18551D01*
X97524Y18422D01*
X97594Y18058D01*
X97588Y17934D01*
X97410Y17280D01*
X97286Y17219D01*
X96888Y16953D01*
X96529Y16638D01*
X96213Y16278D01*
X95947Y15880D01*
X95736Y15451D01*
X95582Y14998D01*
X95489Y14529D01*
X95457Y14051D01*
X95479Y13714D01*
X95340Y13667D01*
X94911Y13455D01*
X94513Y13189D01*
X94154Y12874D01*
X93838Y12514D01*
X93572Y12116D01*
X93361Y11687D01*
X93207Y11234D01*
X93114Y10765D01*
X93082Y10288D01*
X93114Y9810D01*
X93207Y9341D01*
X93361Y8888D01*
X93572Y8459D01*
X93838Y8061D01*
X94154Y7701D01*
X94513Y7385D01*
X94911Y7120D01*
X95340Y6908D01*
X95793Y6754D01*
X96263Y6661D01*
X96740Y6630D01*
X97218Y6661D01*
X97687Y6754D01*
X98140Y6908D01*
X98569Y7120D01*
X98967Y7385D01*
X99115Y7515D01*
X99263Y7385D01*
X99661Y7120D01*
X100090Y6908D01*
X100543Y6754D01*
X101013Y6661D01*
X101490Y6630D01*
X101968Y6661D01*
X102437Y6754D01*
X102890Y6908D01*
X103319Y7120D01*
X103717Y7385D01*
X103865Y7515D01*
X104013Y7385D01*
X104411Y7120D01*
X104840Y6908D01*
X105293Y6754D01*
X105763Y6661D01*
X106240Y6630D01*
X106718Y6661D01*
X107187Y6754D01*
X107640Y6908D01*
X108069Y7120D01*
X108467Y7385D01*
X108827Y7701D01*
X109142Y8061D01*
X109408Y8459D01*
X109619Y8888D01*
X109773Y9341D01*
X109867Y9810D01*
X109898Y10288D01*
X109867Y10765D01*
X109773Y11234D01*
X109619Y11687D01*
X109408Y12116D01*
X109142Y12514D01*
X108827Y12874D01*
X108467Y13189D01*
X108069Y13455D01*
X107640Y13667D01*
X107499Y13714D01*
X107523Y14074D01*
X107492Y14551D01*
X107398Y15021D01*
X107245Y15474D01*
X107033Y15903D01*
X106767Y16301D01*
X106619Y16469D01*
X106810Y17148D01*
X107046Y17469D01*
X107897D01*
Y20877D01*
X108231Y21212D01*
X109413Y21123D01*
X109631Y20805D01*
Y17469D01*
X110792D01*
Y16402D01*
X110591Y16167D01*
X110377Y15818D01*
X110220Y15440D01*
X110125Y15042D01*
X110093Y14634D01*
X110125Y14226D01*
X110220Y13828D01*
X110377Y13450D01*
X110591Y13101D01*
X110857Y12790D01*
X111168Y12524D01*
X111517Y12310D01*
X111895Y12153D01*
X112293Y12058D01*
X112701Y12026D01*
X113109Y12058D01*
X113507Y12153D01*
X113885Y12310D01*
X114234Y12524D01*
X114545Y12790D01*
X114811Y13101D01*
X115025Y13450D01*
X115128Y13700D01*
X115654Y13815D01*
X116179Y13700D01*
X116282Y13450D01*
X116496Y13101D01*
X116762Y12790D01*
X117073Y12524D01*
X117422Y12310D01*
X117800Y12153D01*
X118198Y12058D01*
X118606Y12026D01*
X119014Y12058D01*
X119412Y12153D01*
X119790Y12310D01*
X119859Y12352D01*
X120648Y12029D01*
X120859Y11823D01*
Y10037D01*
X122059D01*
Y5922D01*
X128199D01*
Y6886D01*
X132557D01*
X132930Y6923D01*
X133288Y7032D01*
X133618Y7208D01*
X133907Y7445D01*
X139076Y12615D01*
X140000Y12232D01*
Y-34960D01*
X139849Y-35218D01*
X139000Y-35843D01*
X138988Y-35842D01*
X138510Y-35873D01*
X138041Y-35967D01*
X137588Y-36121D01*
X137159Y-36332D01*
X136761Y-36598D01*
X136655Y-36691D01*
X129193D01*
X128809Y-36052D01*
X128719Y-35691D01*
X128918Y-35394D01*
X129129Y-34964D01*
X129283Y-34511D01*
X129376Y-34042D01*
X129408Y-33565D01*
X130020Y-32776D01*
X130020D01*
Y-26261D01*
X135570D01*
Y-20515D01*
X132327D01*
X128462Y-16650D01*
X128173Y-16413D01*
X127843Y-16236D01*
X127600Y-16162D01*
X127594Y-16156D01*
X127283Y-15890D01*
X126934Y-15676D01*
X126556Y-15520D01*
X126331Y-15466D01*
X126341Y-14460D01*
X126349Y-14453D01*
X126827Y-14485D01*
X127304Y-14453D01*
X127773Y-14360D01*
X128227Y-14206D01*
X128656Y-13995D01*
X129053Y-13729D01*
X129413Y-13413D01*
X129729Y-13054D01*
X129995Y-12656D01*
X130206Y-12227D01*
X130360Y-11773D01*
X130453Y-11304D01*
X130485Y-10827D01*
X130453Y-10349D01*
X130360Y-9880D01*
X130310Y-9734D01*
Y-1730D01*
X127494D01*
X127191Y-1224D01*
X127084Y-730D01*
X127239Y-549D01*
X127453Y-200D01*
X127609Y178D01*
X127705Y576D01*
X127737Y984D01*
X127705Y1392D01*
X127609Y1790D01*
X127453Y2168D01*
X127239Y2517D01*
X126973Y2828D01*
X126662Y3094D01*
X126313Y3308D01*
X125935Y3465D01*
X125537Y3560D01*
X125129Y3592D01*
X124721Y3560D01*
X124323Y3465D01*
X123945Y3308D01*
X123596Y3094D01*
X123285Y2828D01*
X123019Y2517D01*
X122805Y2168D01*
X122649Y1790D01*
X122553Y1392D01*
X122521Y984D01*
X122553Y576D01*
X122649Y178D01*
X122805Y-200D01*
X123019Y-549D01*
X123174Y-730D01*
X123067Y-1224D01*
X122764Y-1730D01*
X122164D01*
Y-2930D01*
X118049D01*
Y-9070D01*
X119013D01*
Y-10946D01*
X118890Y-11090D01*
X118676Y-11439D01*
X118520Y-11817D01*
X118424Y-12215D01*
X118392Y-12623D01*
X118424Y-13031D01*
X118520Y-13429D01*
X118676Y-13807D01*
X118890Y-14156D01*
X119150Y-14460D01*
X119141Y-14561D01*
X119083Y-14924D01*
X118788Y-15468D01*
X118592Y-15484D01*
X118194Y-15579D01*
X117816Y-15736D01*
X117467Y-15949D01*
X117156Y-16215D01*
X116890Y-16526D01*
X116676Y-16875D01*
X116520Y-17254D01*
X116424Y-17651D01*
X116392Y-18059D01*
X116424Y-18467D01*
X116520Y-18865D01*
X116676Y-19243D01*
X116842Y-19515D01*
X116759Y-19841D01*
X116699Y-19956D01*
X115930Y-20515D01*
X115320D01*
X114545Y-19971D01*
X114451Y-19764D01*
X114392Y-19515D01*
X114574Y-19218D01*
X114730Y-18840D01*
X114826Y-18442D01*
X114858Y-18034D01*
X114826Y-17626D01*
X114730Y-17228D01*
X114574Y-16850D01*
X114360Y-16501D01*
X114094Y-16190D01*
X113783Y-15924D01*
X113434Y-15710D01*
X113056Y-15553D01*
X112658Y-15458D01*
X112250Y-15426D01*
X111842Y-15458D01*
X111444Y-15553D01*
X111066Y-15710D01*
X110717Y-15924D01*
X110406Y-16190D01*
X110140Y-16501D01*
X109926Y-16850D01*
X109770Y-17228D01*
X109674Y-17626D01*
X109642Y-18034D01*
X109674Y-18442D01*
X109770Y-18840D01*
X109926Y-19218D01*
X110108Y-19515D01*
X110049Y-19764D01*
X109705Y-20515D01*
X109180D01*
Y-24630D01*
X107980D01*
Y-30195D01*
X107940Y-30291D01*
X107562Y-30667D01*
X106980Y-31006D01*
X106795Y-30991D01*
X106387Y-31023D01*
X105989Y-31119D01*
X105611Y-31275D01*
X105262Y-31489D01*
X104951Y-31755D01*
X104685Y-32066D01*
X104472Y-32415D01*
X104315Y-32793D01*
X104219Y-33191D01*
X104187Y-33599D01*
X104219Y-34007D01*
X104315Y-34405D01*
X104472Y-34783D01*
X104685Y-35132D01*
X104951Y-35443D01*
X105262Y-35709D01*
X105611Y-35923D01*
X105989Y-36080D01*
X106387Y-36175D01*
X106795Y-36207D01*
X107203Y-36175D01*
X107601Y-36080D01*
X107979Y-35923D01*
X108241Y-35763D01*
X108333Y-35709D01*
X108584Y-35699D01*
X109132Y-36189D01*
X109196Y-36887D01*
X108530Y-37646D01*
X83664Y-37646D01*
X83318Y-36661D01*
X83533Y-36587D01*
X83333Y-36627D01*
X83312Y-36645D01*
Y-36645D01*
X83333Y-36626D01*
X83802Y-36533D01*
X84255Y-36379D01*
X84684Y-36168D01*
X85082Y-35902D01*
X85442Y-35587D01*
X85757Y-35227D01*
X86023Y-34829D01*
X86235Y-34400D01*
X86388Y-33947D01*
X86482Y-33477D01*
X86513Y-33000D01*
X86723Y-32776D01*
X87125D01*
Y-24630D01*
X85925D01*
Y-20515D01*
X85772D01*
X85515Y-20268D01*
X85154Y-19515D01*
X85189Y-19430D01*
X85285Y-19032D01*
X85317Y-18624D01*
X85285Y-18216D01*
X85189Y-17818D01*
X85032Y-17440D01*
X84819Y-17091D01*
X84553Y-16780D01*
X84242Y-16514D01*
X83893Y-16300D01*
X83515Y-16143D01*
X83117Y-16048D01*
X82709Y-16016D01*
X82301Y-16048D01*
X81903Y-16143D01*
X81525Y-16300D01*
X81176Y-16514D01*
X80865Y-16780D01*
X80599Y-17091D01*
X80385Y-17440D01*
X80228Y-17818D01*
X80133Y-18216D01*
X80101Y-18624D01*
X80133Y-19032D01*
X80228Y-19430D01*
X80263Y-19515D01*
X79785Y-20515D01*
X79785D01*
X79785Y-20515D01*
Y-24630D01*
X78585D01*
Y-30246D01*
X78484Y-30421D01*
X77729Y-30987D01*
X77585Y-31016D01*
X77273Y-30991D01*
X76865Y-31023D01*
X76467Y-31119D01*
X76089Y-31275D01*
X75740Y-31489D01*
X75429Y-31755D01*
X75163Y-32066D01*
X74949Y-32415D01*
X74792Y-32793D01*
X74697Y-33191D01*
X74665Y-33599D01*
X74697Y-34007D01*
X74792Y-34405D01*
X74949Y-34783D01*
X75163Y-35132D01*
X75429Y-35443D01*
X75740Y-35709D01*
X76089Y-35923D01*
X76467Y-36080D01*
X76865Y-36175D01*
X77273Y-36207D01*
X77681Y-36175D01*
X78079Y-36080D01*
X78457Y-35923D01*
X78806Y-35709D01*
X78976Y-35564D01*
X79285Y-35457D01*
X80157Y-35529D01*
X80269Y-35587D01*
X80628Y-35902D01*
X81026Y-36168D01*
X81455Y-36379D01*
X81908Y-36533D01*
X82378Y-36626D01*
X82398Y-36645D01*
Y-36645D01*
X82378Y-36627D01*
X82178Y-36587D01*
X82393Y-36661D01*
X82046Y-37646D01*
X56500Y-37646D01*
Y-32611D01*
X56516Y-32596D01*
X56516Y-32596D01*
X56665Y-32413D01*
X56777Y-32204D01*
X56846Y-31978D01*
X56869Y-31743D01*
X56869Y-31743D01*
Y-27439D01*
X57522Y-27051D01*
X57869Y-26966D01*
X58171Y-27168D01*
X58600Y-27379D01*
X59053Y-27533D01*
X59522Y-27627D01*
X60000Y-27658D01*
X60477Y-27627D01*
X60772Y-27568D01*
X61508Y-27954D01*
X61772Y-28152D01*
Y-31576D01*
X61910D01*
X62300Y-32074D01*
X62502Y-32576D01*
X62412Y-32793D01*
X62316Y-33191D01*
X62284Y-33599D01*
X62316Y-34007D01*
X62412Y-34405D01*
X62568Y-34783D01*
X62782Y-35132D01*
X63048Y-35443D01*
X63359Y-35709D01*
X63708Y-35923D01*
X64086Y-36080D01*
X64484Y-36175D01*
X64892Y-36207D01*
X65300Y-36175D01*
X65698Y-36080D01*
X66076Y-35923D01*
X66425Y-35709D01*
X66736Y-35443D01*
X67002Y-35132D01*
X67216Y-34783D01*
X67373Y-34405D01*
X67468Y-34007D01*
X67500Y-33599D01*
X67468Y-33191D01*
X67373Y-32793D01*
X67283Y-32576D01*
X67484Y-32074D01*
X67875Y-31576D01*
X67913D01*
Y-27461D01*
X69113D01*
Y-26261D01*
X74080D01*
Y-20515D01*
X73961D01*
X73704Y-20268D01*
X73343Y-19515D01*
X73378Y-19430D01*
X73474Y-19032D01*
X73506Y-18624D01*
X73474Y-18216D01*
X73378Y-17818D01*
X73221Y-17440D01*
X73008Y-17091D01*
X72742Y-16780D01*
X72431Y-16514D01*
X72082Y-16300D01*
X71704Y-16143D01*
X71306Y-16048D01*
X70898Y-16016D01*
X70490Y-16048D01*
X70437Y-16060D01*
X69737Y-15530D01*
X69587Y-15270D01*
X69608Y-15000D01*
X69576Y-14592D01*
X69480Y-14194D01*
X69324Y-13816D01*
X69110Y-13467D01*
X68844Y-13156D01*
X68533Y-12890D01*
X68184Y-12676D01*
X67806Y-12520D01*
X67408Y-12424D01*
X67000Y-12392D01*
X66592Y-12424D01*
X66270Y-12501D01*
X66157Y-12495D01*
X65358Y-11973D01*
X65270Y-11838D01*
Y-8084D01*
X64070D01*
Y-3969D01*
X64070Y-3969D01*
X63674Y-2969D01*
X63688Y-2908D01*
X63721Y-2500D01*
X63688Y-2092D01*
X63593Y-1694D01*
X63436Y-1316D01*
X63222Y-967D01*
X62957Y-656D01*
X62646Y-390D01*
X62297Y-176D01*
X61918Y-20D01*
X61521Y76D01*
X61113Y108D01*
X60705Y76D01*
X60307Y-20D01*
X59929Y-176D01*
X59580Y-390D01*
X59268Y-656D01*
X59003Y-967D01*
X58789Y-1316D01*
X58632Y-1694D01*
X58537Y-2092D01*
X58504Y-2500D01*
X58537Y-2908D01*
X58551Y-2969D01*
X58431Y-3177D01*
X57930Y-3969D01*
X57930Y-3969D01*
X57930Y-3969D01*
Y-8084D01*
X56869D01*
Y19419D01*
X56874Y19426D01*
X57847Y19956D01*
X58283Y19776D01*
X58742Y19666D01*
X59213Y19628D01*
X59821D01*
X60291Y19666D01*
X60751Y19776D01*
X61187Y19956D01*
X61590Y20203D01*
X61949Y20510D01*
X62203Y20764D01*
X68416D01*
Y21964D01*
X72531D01*
Y21996D01*
X72911Y22331D01*
X73531Y22599D01*
X73694Y22531D01*
X74092Y22436D01*
X74500Y22404D01*
X74908Y22436D01*
X75306Y22531D01*
X75684Y22688D01*
X76033Y22902D01*
X76344Y23168D01*
X76610Y23479D01*
X76824Y23828D01*
X76980Y24206D01*
X77076Y24604D01*
X77108Y25012D01*
X77938Y25762D01*
X83416D01*
Y26962D01*
X87531D01*
Y27249D01*
X87990Y27480D01*
X88531Y27673D01*
X88823Y27552D01*
X89221Y27456D01*
X89629Y27424D01*
X90037Y27456D01*
X90435Y27552D01*
X90813Y27708D01*
X91162Y27922D01*
X91473Y28188D01*
X91739Y28499D01*
X91953Y28848D01*
X92109Y29226D01*
X92205Y29624D01*
X92237Y30032D01*
X92205Y30440D01*
X92109Y30838D01*
X92039Y31008D01*
X92867Y31548D01*
X93133Y31237D01*
X93444Y30971D01*
X93793Y30757D01*
X94171Y30601D01*
X94569Y30505D01*
X94977Y30473D01*
X95385Y30505D01*
X95783Y30601D01*
X96161Y30757D01*
X96510Y30971D01*
X96821Y31237D01*
X97087Y31548D01*
X97301Y31897D01*
X97457Y32275D01*
X97553Y32673D01*
X97585Y33081D01*
X97553Y33489D01*
X97457Y33887D01*
X97301Y34265D01*
X97087Y34614D01*
X96821Y34925D01*
X96585Y35127D01*
Y36459D01*
X96581Y36500D01*
X97040Y37242D01*
X97268Y37461D01*
X97349Y37500D01*
X125451Y37500D01*
D02*
G37*
G36*
X181158Y7072D02*
Y5858D01*
X181502D01*
X181523Y5542D01*
X181612Y5092D01*
X181760Y4658D01*
X181962Y4246D01*
X182217Y3865D01*
X182520Y3520D01*
X184180Y1860D01*
X182792Y-219D01*
X182375Y-13D01*
X181934Y136D01*
X181478Y227D01*
X181014Y258D01*
X179277D01*
X178886Y519D01*
X178369Y774D01*
X177823Y959D01*
X177257Y1072D01*
X176681Y1109D01*
X176106Y1072D01*
X175540Y959D01*
X174994Y774D01*
X174477Y519D01*
X173997Y198D01*
X173563Y-182D01*
X173183Y-616D01*
X172863Y-1095D01*
X172608Y-1613D01*
X172422Y-2159D01*
X172310Y-2724D01*
X172272Y-3300D01*
X172310Y-3875D01*
X172422Y-4441D01*
X172608Y-4987D01*
X172863Y-5505D01*
X173183Y-5984D01*
X173563Y-6418D01*
X173997Y-6798D01*
X174131Y-6888D01*
X174095Y-7942D01*
X173426Y-9388D01*
X147050D01*
X146630Y-9107D01*
X146130Y-8860D01*
X145602Y-8681D01*
X145056Y-8573D01*
X144500Y-8536D01*
X143229Y-6764D01*
X143009Y-6210D01*
Y4056D01*
X143819Y4820D01*
X145363Y5562D01*
X145509Y5518D01*
X145898Y5386D01*
X146444Y5277D01*
X147000Y5241D01*
X147556Y5277D01*
X148102Y5386D01*
X148630Y5565D01*
X149130Y5812D01*
X149550Y6093D01*
X175500D01*
X175945Y6122D01*
X176382Y6209D01*
X176804Y6352D01*
X177204Y6549D01*
X177574Y6797D01*
X177909Y7091D01*
X178848Y8029D01*
X181158Y7072D01*
D02*
G37*
G36*
X-6759Y15500D02*
X-6723Y14944D01*
X-6614Y14398D01*
X-6435Y13870D01*
X-6188Y13370D01*
X-5879Y12907D01*
X-5512Y12488D01*
X-5093Y12121D01*
X-4630Y11812D01*
X-4130Y11565D01*
X-3602Y11386D01*
X-3056Y11277D01*
X-2500Y11241D01*
X-1944Y11277D01*
X-1398Y11386D01*
X-870Y11565D01*
X-370Y11812D01*
X93Y12121D01*
X512Y12488D01*
X2641Y12186D01*
X3240Y11941D01*
X5328Y9853D01*
X3833Y7813D01*
X3680Y7892D01*
X2978Y8183D01*
X2254Y8412D01*
X1512Y8576D01*
X759Y8675D01*
X0Y8708D01*
X-759Y8675D01*
X-1512Y8576D01*
X-2254Y8412D01*
X-2978Y8183D01*
X-3680Y7892D01*
X-4354Y7542D01*
X-4995Y7133D01*
X-5598Y6671D01*
X-6158Y6158D01*
X-6671Y5598D01*
X-7133Y4995D01*
X-7542Y4354D01*
X-7892Y3680D01*
X-8183Y2978D01*
X-8412Y2254D01*
X-8576Y1512D01*
X-8675Y759D01*
X-8708Y0D01*
X-8675Y-759D01*
X-8576Y-1512D01*
X-8412Y-2254D01*
X-8183Y-2978D01*
X-7892Y-3680D01*
X-7542Y-4354D01*
X-7133Y-4995D01*
X-6671Y-5598D01*
X-6158Y-6158D01*
X-5598Y-6671D01*
X-4995Y-7133D01*
X-4354Y-7542D01*
X-3680Y-7892D01*
X-2978Y-8183D01*
X-2254Y-8412D01*
X-1512Y-8576D01*
X-759Y-8675D01*
X0Y-8708D01*
X759Y-8675D01*
X1512Y-8576D01*
X2254Y-8412D01*
X2978Y-8183D01*
X3680Y-7892D01*
X4354Y-7542D01*
X4995Y-7133D01*
X5598Y-6671D01*
X6158Y-6158D01*
X6671Y-5598D01*
X7133Y-4995D01*
X7542Y-4354D01*
X7892Y-3680D01*
X8183Y-2978D01*
X8412Y-2254D01*
X8576Y-1512D01*
X8675Y-759D01*
X8708Y0D01*
X8675Y759D01*
X8576Y1512D01*
X8412Y2254D01*
X8183Y2978D01*
X7892Y3680D01*
X7813Y3833D01*
X9853Y5328D01*
X13094Y2087D01*
X12792Y1742D01*
X12482Y1278D01*
X12236Y779D01*
X12057Y251D01*
X11948Y-295D01*
X11912Y-851D01*
X11948Y-1407D01*
X12057Y-1953D01*
X12236Y-2481D01*
X12249Y-2509D01*
X12189Y-2599D01*
X11943Y-3098D01*
X11764Y-3626D01*
X11655Y-4172D01*
X11618Y-4728D01*
X11649Y-5202D01*
X11582Y-5247D01*
X11163Y-5614D01*
X10796Y-6033D01*
X10486Y-6496D01*
X10240Y-6996D01*
X10061Y-7524D01*
X9952Y-8070D01*
X9916Y-8626D01*
X9449Y-9122D01*
X9012Y-9209D01*
X8590Y-9352D01*
X8190Y-9549D01*
X7820Y-9797D01*
X7485Y-10091D01*
X-421Y-17997D01*
X-44098D01*
X-44409Y-17735D01*
X-44870Y-17087D01*
X-45468Y-15497D01*
X-45440Y-15440D01*
X-45261Y-14913D01*
X-45152Y-14367D01*
X-45118Y-13835D01*
X-44870Y-13713D01*
X-44407Y-13403D01*
X-43988Y-13036D01*
X-43621Y-12617D01*
X-43312Y-12154D01*
X-43065Y-11654D01*
X-42886Y-11127D01*
X-42777Y-10580D01*
X-42741Y-10024D01*
X-42777Y-9468D01*
X-42886Y-8922D01*
X-43065Y-8394D01*
X-41005Y-7012D01*
X-40586Y-7379D01*
X-40123Y-7688D01*
X-39623Y-7935D01*
X-39096Y-8114D01*
X-38549Y-8223D01*
X-37993Y-8259D01*
X-37437Y-8223D01*
X-36891Y-8114D01*
X-36364Y-7935D01*
X-35864Y-7688D01*
X-35401Y-7379D01*
X-34982Y-7012D01*
X-34615Y-6593D01*
X-34305Y-6130D01*
X-34059Y-5630D01*
X-33880Y-5102D01*
X-33771Y-4556D01*
X-33734Y-4000D01*
X-33771Y-3444D01*
X-33880Y-2898D01*
X-34059Y-2370D01*
X-34305Y-1870D01*
X-34615Y-1407D01*
X-34982Y-460D01*
Y460D01*
X-34615Y1407D01*
X-34305Y1870D01*
X-34059Y2370D01*
X-33880Y2898D01*
X-33771Y3444D01*
X-33734Y4000D01*
X-33771Y4556D01*
X-33880Y5102D01*
X-34059Y5630D01*
X-34203Y5922D01*
X-34109Y5968D01*
X-33630Y6288D01*
X-33196Y6668D01*
X-32816Y7102D01*
X-32495Y7582D01*
X-32240Y8099D01*
X-32055Y8645D01*
X-31942Y9211D01*
X-31905Y9786D01*
X-31942Y10362D01*
X-32055Y10928D01*
X-32240Y11474D01*
X-31792Y12115D01*
X-30998Y12885D01*
X-30318Y13290D01*
X-29265Y13049D01*
X-29118Y12882D01*
X-28684Y12502D01*
X-28205Y12181D01*
X-27687Y11926D01*
X-27141Y11741D01*
X-26575Y11628D01*
X-26000Y11591D01*
X-25424Y11628D01*
X-24859Y11741D01*
X-24313Y11926D01*
X-23795Y12181D01*
X-23316Y12502D01*
X-22882Y12882D01*
X-22502Y13316D01*
X-22181Y13795D01*
X-21926Y14313D01*
X-21741Y14859D01*
X-21628Y15424D01*
X-21591Y16000D01*
X-21504Y16093D01*
X-9226D01*
X-6759Y15500D01*
D02*
G37*
G36*
X264739Y91505D02*
X264667Y36742D01*
X264683Y36525D01*
X264698Y36308D01*
X264702Y36290D01*
X264703Y36271D01*
X264754Y36059D01*
X264801Y35848D01*
X265450Y33755D01*
X265307Y33630D01*
X264927Y33196D01*
X264606Y32717D01*
X264351Y32199D01*
X264166Y31653D01*
X264054Y31087D01*
X264016Y30512D01*
X264054Y29936D01*
X264166Y29370D01*
X264351Y28824D01*
X264606Y28307D01*
X264927Y27828D01*
X265307Y27394D01*
X265448Y27271D01*
X264791Y25205D01*
X264741Y24987D01*
X264688Y24768D01*
X264687Y24756D01*
X264684Y24745D01*
X264668Y24521D01*
X264650Y24297D01*
X264650Y24272D01*
X256866D01*
Y14728D01*
X256866Y14728D01*
X256866D01*
X256866Y14728D01*
X256181Y12512D01*
X242249Y-1420D01*
X240588Y-831D01*
X239890Y-244D01*
X239906Y0D01*
X239868Y575D01*
X239755Y1141D01*
X239570Y1687D01*
X239315Y2205D01*
X238994Y2684D01*
X238614Y3118D01*
X238180Y3498D01*
X237701Y3819D01*
X237183Y4074D01*
X236637Y4259D01*
X236072Y4372D01*
X235496Y4409D01*
X234921Y4372D01*
X234355Y4259D01*
X233809Y4074D01*
X233291Y3819D01*
X232812Y3498D01*
X232378Y3118D01*
X231998Y2684D01*
X231677Y2205D01*
X231422Y1687D01*
X231237Y1141D01*
X231124Y575D01*
X231087Y0D01*
X231124Y-575D01*
X231237Y-1141D01*
X231422Y-1687D01*
X231677Y-2205D01*
X231998Y-2684D01*
X232378Y-3118D01*
X232812Y-3498D01*
X233291Y-3819D01*
X233809Y-4074D01*
X234355Y-4259D01*
X234921Y-4372D01*
X235496Y-4409D01*
X235740Y-4393D01*
X236327Y-5092D01*
X236916Y-6753D01*
X230040Y-13629D01*
X229898Y-13657D01*
X229370Y-13836D01*
X228870Y-14083D01*
X228407Y-14392D01*
X227988Y-14760D01*
X225678Y-13717D01*
X213710Y-1750D01*
Y750D01*
X216712Y3752D01*
X218685Y2205D01*
X218636Y2105D01*
X218430Y1687D01*
X218245Y1141D01*
X218132Y575D01*
X218094Y0D01*
X218132Y-575D01*
X218245Y-1141D01*
X218430Y-1687D01*
X218685Y-2205D01*
X219006Y-2684D01*
X219386Y-3118D01*
X219820Y-3498D01*
X220299Y-3819D01*
X220816Y-4074D01*
X221363Y-4259D01*
X221928Y-4372D01*
X222504Y-4409D01*
X223079Y-4372D01*
X223645Y-4259D01*
X224191Y-4074D01*
X224709Y-3819D01*
X225188Y-3498D01*
X225622Y-3118D01*
X226002Y-2684D01*
X226323Y-2205D01*
X226578Y-1687D01*
X226763Y-1141D01*
X226876Y-575D01*
X226913Y0D01*
X226876Y575D01*
X226763Y1141D01*
X226578Y1687D01*
X226323Y2205D01*
X226002Y2684D01*
X225622Y3118D01*
X225188Y3498D01*
X224709Y3819D01*
X224191Y4074D01*
X223645Y4259D01*
X223079Y4372D01*
X222504Y4409D01*
X221928Y4372D01*
X221363Y4259D01*
X220816Y4074D01*
X220399Y3868D01*
X220299Y3819D01*
X219693Y4591D01*
X218752Y5792D01*
X238538Y25578D01*
X238840Y25922D01*
X239095Y26304D01*
X239298Y26715D01*
X239446Y27150D01*
X239535Y27600D01*
X239565Y28058D01*
Y81376D01*
X239535Y81834D01*
X239446Y82284D01*
X239298Y82718D01*
X239095Y83130D01*
X238840Y83511D01*
X238538Y83856D01*
X229904Y92491D01*
X230939Y94991D01*
X261254D01*
X264739Y91505D01*
D02*
G37*
G36*
X261818Y7503D02*
X264166Y6641D01*
X264054Y6075D01*
X264016Y5500D01*
X264054Y4924D01*
X264166Y4359D01*
X264351Y3813D01*
X264606Y3295D01*
X264927Y2816D01*
X265307Y2382D01*
X265443Y2263D01*
X264772Y250D01*
X264770Y241D01*
X264766Y232D01*
X264712Y10D01*
X264658Y-208D01*
X264657Y-218D01*
X264655Y-227D01*
X264637Y-453D01*
X264617Y-678D01*
X264618Y-688D01*
X264617Y-698D01*
X264600Y-13302D01*
X264602Y-13327D01*
X264601Y-13352D01*
X264621Y-13563D01*
X264637Y-13773D01*
X264643Y-13797D01*
X264645Y-13822D01*
X264697Y-14027D01*
X264746Y-14232D01*
X264756Y-14255D01*
X264762Y-14279D01*
X265441Y-16265D01*
X265307Y-16382D01*
X264927Y-16816D01*
X264606Y-17295D01*
X264351Y-17813D01*
X264166Y-18359D01*
X264054Y-18924D01*
X264016Y-19500D01*
X264054Y-20076D01*
X264166Y-20641D01*
X264351Y-21187D01*
X264606Y-21705D01*
X264927Y-22184D01*
X265307Y-22618D01*
X265438Y-22733D01*
X264753Y-24692D01*
X264745Y-24723D01*
X264733Y-24752D01*
X264685Y-24951D01*
X264633Y-25149D01*
X264629Y-25180D01*
X264622Y-25211D01*
X264605Y-25415D01*
X264585Y-25618D01*
X264587Y-25650D01*
X264584Y-25682D01*
X264567Y-38318D01*
X264571Y-38365D01*
X264569Y-38412D01*
X264589Y-38600D01*
X264604Y-38789D01*
X264615Y-38835D01*
X264620Y-38881D01*
X264669Y-39064D01*
X264714Y-39249D01*
X264731Y-39292D01*
X264744Y-39337D01*
X265436Y-41269D01*
X265307Y-41382D01*
X264927Y-41816D01*
X264606Y-42295D01*
X264351Y-42813D01*
X264166Y-43359D01*
X264054Y-43924D01*
X264016Y-44500D01*
X264054Y-45076D01*
X264166Y-45641D01*
X264351Y-46187D01*
X264606Y-46705D01*
X264927Y-47184D01*
X265307Y-47618D01*
X265433Y-47728D01*
X264735Y-49635D01*
X264720Y-49686D01*
X264700Y-49736D01*
X264657Y-49914D01*
X264608Y-50089D01*
X264601Y-50143D01*
X264589Y-50195D01*
X264574Y-50377D01*
X264553Y-50559D01*
X264555Y-50612D01*
X264551Y-50665D01*
X264537Y-61360D01*
X262227Y-62315D01*
X258013Y-58101D01*
X258026Y-57874D01*
X257990Y-57228D01*
X257881Y-56591D01*
X257702Y-55970D01*
X257455Y-55373D01*
X257142Y-54807D01*
X256768Y-54280D01*
X256462Y-53937D01*
X256768Y-53594D01*
X257142Y-53067D01*
X257455Y-52501D01*
X257702Y-51904D01*
X257881Y-51283D01*
X257990Y-50646D01*
X258026Y-50000D01*
X257990Y-49354D01*
X257881Y-48717D01*
X257702Y-48096D01*
X257455Y-47499D01*
X257142Y-46933D01*
X256768Y-46406D01*
X256337Y-45924D01*
X255855Y-45493D01*
X255328Y-45119D01*
X254762Y-44806D01*
X254165Y-44559D01*
X253544Y-44380D01*
X252906Y-44271D01*
X252261Y-44235D01*
X251616Y-44271D01*
X250978Y-44380D01*
X250357Y-44559D01*
X249760Y-44806D01*
X249194Y-45119D01*
X248667Y-45493D01*
X248241Y-45873D01*
X247947Y-45850D01*
X246274Y-45330D01*
X245741Y-44942D01*
Y-35234D01*
X245711Y-34776D01*
X245622Y-34326D01*
X245474Y-33891D01*
X245271Y-33480D01*
X245016Y-33098D01*
X244714Y-32753D01*
X235054Y-23093D01*
X234012Y-20783D01*
X234379Y-20364D01*
X234688Y-19901D01*
X234935Y-19401D01*
X235114Y-18873D01*
X235142Y-18731D01*
X261454Y7581D01*
X261818Y7503D01*
D02*
G37*
G36*
X30067Y-54798D02*
X41248Y-65979D01*
X41583Y-66273D01*
X41954Y-66520D01*
X42353Y-66717D01*
X42775Y-66861D01*
X43213Y-66948D01*
X43657Y-66977D01*
X46643D01*
X47679Y-69477D01*
X21937Y-95218D01*
X19628Y-94262D01*
Y-59031D01*
X20292Y-58328D01*
X20667Y-58116D01*
X22128Y-57522D01*
X22398Y-57614D01*
X22944Y-57723D01*
X23500Y-57759D01*
X24056Y-57723D01*
X24602Y-57614D01*
X25130Y-57435D01*
X25630Y-57188D01*
X26093Y-56879D01*
X26512Y-56512D01*
X26879Y-56093D01*
X27189Y-55630D01*
X27277Y-55451D01*
X27380Y-55263D01*
X27574Y-55157D01*
X28729Y-54792D01*
X29225Y-54731D01*
X30067Y-54798D01*
D02*
G37*
G36*
X205249Y-49692D02*
X206235Y-50055D01*
X206669Y-50330D01*
X206725Y-50386D01*
X207145Y-50855D01*
X207660Y-51315D01*
X208223Y-51715D01*
X208828Y-52049D01*
X209466Y-52314D01*
X210129Y-52505D01*
X210810Y-52621D01*
X211500Y-52659D01*
X212190Y-52621D01*
X212871Y-52505D01*
X213534Y-52314D01*
X214172Y-52049D01*
X214777Y-51715D01*
X215340Y-51315D01*
X215975Y-50855D01*
X217025D01*
X217660Y-51315D01*
X218223Y-51715D01*
X218828Y-52049D01*
X219466Y-52314D01*
X220129Y-52505D01*
X220810Y-52621D01*
X221500Y-52659D01*
X222190Y-52621D01*
X222871Y-52505D01*
X223534Y-52314D01*
X224172Y-52049D01*
X224777Y-51715D01*
X225340Y-51315D01*
X225975Y-50855D01*
X227025D01*
X227660Y-51315D01*
X228223Y-51715D01*
X228828Y-52049D01*
X229466Y-52314D01*
X230129Y-52505D01*
X230810Y-52621D01*
X231500Y-52659D01*
X232811Y-54654D01*
X232926Y-55031D01*
Y-67969D01*
X232811Y-68346D01*
X231500Y-70341D01*
X230810Y-70379D01*
X230129Y-70495D01*
X229466Y-70686D01*
X228828Y-70951D01*
X228223Y-71285D01*
X227660Y-71684D01*
X227025Y-72145D01*
X225975D01*
X225340Y-71684D01*
X224777Y-71285D01*
X224172Y-70951D01*
X223534Y-70686D01*
X222871Y-70495D01*
X222190Y-70379D01*
X221500Y-70341D01*
X220810Y-70379D01*
X220129Y-70495D01*
X219466Y-70686D01*
X218828Y-70951D01*
X218223Y-71285D01*
X217660Y-71684D01*
X217025Y-72145D01*
X215975D01*
X215340Y-71684D01*
X214777Y-71285D01*
X214172Y-70951D01*
X213534Y-70686D01*
X212871Y-70495D01*
X212190Y-70379D01*
X211500Y-70341D01*
X210810Y-70379D01*
X210129Y-70495D01*
X209466Y-70686D01*
X208828Y-70951D01*
X208223Y-71285D01*
X207660Y-71684D01*
X207145Y-72145D01*
X206684Y-72660D01*
X206285Y-73223D01*
X205951Y-73828D01*
X205686Y-74466D01*
X205495Y-75129D01*
X205379Y-75810D01*
X205341Y-76500D01*
X205379Y-77190D01*
X205495Y-77871D01*
X205686Y-78534D01*
X205951Y-79172D01*
X206285Y-79777D01*
X206684Y-80340D01*
X207145Y-80855D01*
X207660Y-81315D01*
X208223Y-81715D01*
X208828Y-82049D01*
X209466Y-82314D01*
X210129Y-82505D01*
X210810Y-82621D01*
X211500Y-82659D01*
X212190Y-82621D01*
X212871Y-82505D01*
X213534Y-82314D01*
X214172Y-82049D01*
X214777Y-81715D01*
X215340Y-81315D01*
X215975Y-80855D01*
X217025D01*
X217660Y-81315D01*
X218223Y-81715D01*
X218828Y-82049D01*
X219466Y-82314D01*
X220129Y-82505D01*
X220810Y-82621D01*
X221500Y-82659D01*
X222190Y-82621D01*
X222871Y-82505D01*
X223534Y-82314D01*
X224172Y-82049D01*
X224777Y-81715D01*
X225921Y-81970D01*
X226589Y-82933D01*
X226623Y-84917D01*
X215040Y-96499D01*
X215006Y-96530D01*
X214945Y-96578D01*
X214625Y-96785D01*
X212772Y-97712D01*
X212677Y-97642D01*
X212587Y-97566D01*
X212486Y-97504D01*
X212390Y-97434D01*
X212285Y-97381D01*
X212184Y-97319D01*
X212075Y-97273D01*
X211969Y-97220D01*
X211857Y-97183D01*
X211748Y-97138D01*
X211633Y-97110D01*
X211520Y-97074D01*
X211403Y-97055D01*
X211288Y-97028D01*
X211171Y-97018D01*
X211054Y-97000D01*
X210936D01*
X210818Y-96991D01*
X188000D01*
X187529Y-97028D01*
X187070Y-97138D01*
X186634Y-97319D01*
X186231Y-97566D01*
X185872Y-97872D01*
X181872Y-101872D01*
X181565Y-102231D01*
X181319Y-102634D01*
X181138Y-103070D01*
X181028Y-103529D01*
X180991Y-104000D01*
X180991Y-113337D01*
X177669Y-116991D01*
X153500D01*
X153029Y-117028D01*
X152570Y-117138D01*
X152134Y-117319D01*
X151731Y-117565D01*
X151372Y-117872D01*
X139195Y-130050D01*
X138937Y-129964D01*
X136803Y-128739D01*
X136915Y-128179D01*
X136952Y-127610D01*
X136915Y-127041D01*
X136803Y-126482D01*
X136620Y-125942D01*
X136368Y-125431D01*
X136051Y-124957D01*
X135675Y-124528D01*
X135246Y-124152D01*
X134772Y-123835D01*
X134261Y-123583D01*
X133721Y-123400D01*
X133161Y-123288D01*
X132592Y-123251D01*
X132023Y-123288D01*
X131464Y-123400D01*
X130924Y-123583D01*
X130413Y-123835D01*
X129939Y-124152D01*
X129510Y-124528D01*
X129134Y-124957D01*
X128817Y-125431D01*
X128565Y-125942D01*
X128382Y-126482D01*
X128270Y-127041D01*
X128233Y-127610D01*
X128270Y-128179D01*
X128382Y-128739D01*
X128565Y-129279D01*
X128670Y-129491D01*
X128206Y-130860D01*
X127844Y-131493D01*
X127323Y-131991D01*
X79509Y-131991D01*
X77028Y-129671D01*
X77009Y-129510D01*
Y-125442D01*
X76972Y-124971D01*
X76862Y-124512D01*
X76681Y-124076D01*
X76435Y-123673D01*
X76128Y-123314D01*
X75769Y-123008D01*
X75366Y-122761D01*
X74930Y-122580D01*
X74471Y-122470D01*
X74000Y-122433D01*
X54569Y-122433D01*
Y-115750D01*
X48291D01*
Y-108075D01*
X48291Y-108075D01*
X48291D01*
X49948Y-106261D01*
X62102Y-94107D01*
X105360D01*
X105804Y-94078D01*
X106242Y-93991D01*
X106664Y-93848D01*
X107063Y-93651D01*
X107434Y-93403D01*
X107769Y-93109D01*
X117666Y-83213D01*
X118162Y-83114D01*
X118690Y-82935D01*
X119189Y-82688D01*
X119652Y-82379D01*
X120071Y-82012D01*
X120439Y-81593D01*
X120748Y-81130D01*
X120994Y-80630D01*
X121174Y-80102D01*
X121282Y-79556D01*
X121319Y-79000D01*
X121282Y-78444D01*
X121174Y-77898D01*
X120994Y-77370D01*
X120748Y-76870D01*
X120506Y-76508D01*
X120642Y-75825D01*
X121008Y-74778D01*
X121605Y-74008D01*
X146002D01*
X146744Y-76508D01*
X146565Y-76870D01*
X146386Y-77398D01*
X146277Y-77944D01*
X146241Y-78500D01*
X146277Y-79056D01*
X146386Y-79602D01*
X146565Y-80130D01*
X146811Y-80630D01*
X146950Y-80837D01*
X144195Y-83593D01*
X144050D01*
X143630Y-83311D01*
X143130Y-83065D01*
X142602Y-82886D01*
X142056Y-82777D01*
X141500Y-82741D01*
X140944Y-82777D01*
X140398Y-82886D01*
X139870Y-83065D01*
X139370Y-83311D01*
X138907Y-83621D01*
X138488Y-83988D01*
X138121Y-84407D01*
X137812Y-84870D01*
X137565Y-85370D01*
X137386Y-85898D01*
X137277Y-86444D01*
X137241Y-87000D01*
X137277Y-87556D01*
X137386Y-88102D01*
X137565Y-88630D01*
X137812Y-89130D01*
X138121Y-89593D01*
X138488Y-90012D01*
X138907Y-90379D01*
X139370Y-90689D01*
X139870Y-90935D01*
X140398Y-91114D01*
X140944Y-91223D01*
X141500Y-91259D01*
X142056Y-91223D01*
X142602Y-91114D01*
X143130Y-90935D01*
X143630Y-90689D01*
X144050Y-90407D01*
X145606D01*
X146051Y-90378D01*
X146488Y-90291D01*
X146910Y-90148D01*
X147310Y-89951D01*
X147680Y-89703D01*
X148016Y-89409D01*
X155659Y-81766D01*
X155953Y-81431D01*
X156201Y-81060D01*
X156398Y-80660D01*
X156541Y-80238D01*
X156628Y-79801D01*
X156657Y-79356D01*
Y-73292D01*
X161703Y-68247D01*
X164020Y-67225D01*
X164439Y-67592D01*
X164902Y-67902D01*
X165402Y-68148D01*
X165930Y-68327D01*
X166426Y-68426D01*
X178594Y-80594D01*
X178693Y-81090D01*
X178872Y-81618D01*
X179118Y-82117D01*
X179428Y-82581D01*
X179795Y-82999D01*
X180214Y-83367D01*
X180677Y-83676D01*
X181177Y-83923D01*
X181704Y-84102D01*
X182251Y-84211D01*
X182807Y-84247D01*
X183362Y-84211D01*
X183909Y-84102D01*
X184437Y-83923D01*
X184936Y-83676D01*
X185399Y-83367D01*
X185818Y-82999D01*
X186186Y-82581D01*
X186495Y-82117D01*
X186741Y-81618D01*
X186921Y-81090D01*
X187029Y-80544D01*
X187066Y-79988D01*
X187817Y-79756D01*
X188363Y-79648D01*
X188891Y-79469D01*
X189390Y-79222D01*
X189854Y-78913D01*
X190272Y-78545D01*
X190640Y-78127D01*
X190949Y-77663D01*
X191196Y-77164D01*
X191375Y-76636D01*
X191483Y-76090D01*
X191520Y-75534D01*
X191483Y-74978D01*
X191375Y-74431D01*
X191196Y-73904D01*
X190949Y-73404D01*
X190937Y-73386D01*
X191013Y-73273D01*
X191259Y-72773D01*
X191438Y-72245D01*
X191547Y-71699D01*
X191583Y-71143D01*
X191547Y-70587D01*
X191438Y-70041D01*
X191259Y-69513D01*
X191013Y-69013D01*
X190703Y-68550D01*
X190336Y-68131D01*
X189917Y-67764D01*
X189454Y-67454D01*
X188954Y-67208D01*
X188427Y-67029D01*
X187930Y-66930D01*
X179737Y-58737D01*
X179582Y-58104D01*
X180980Y-55968D01*
X191254D01*
X191675Y-56249D01*
X192174Y-56495D01*
X192702Y-56675D01*
X193248Y-56783D01*
X193804Y-56820D01*
X194360Y-56783D01*
X194907Y-56675D01*
X195434Y-56495D01*
X195934Y-56249D01*
X196397Y-55940D01*
X196816Y-55572D01*
X197183Y-55153D01*
X197493Y-54690D01*
X197739Y-54190D01*
X197918Y-53663D01*
X198027Y-53117D01*
X198063Y-52561D01*
X198063Y-52558D01*
X198983Y-50930D01*
X199356Y-50512D01*
X200046Y-50058D01*
X202024D01*
X202495Y-50027D01*
X202957Y-49935D01*
X203404Y-49783D01*
X203482Y-49745D01*
X204115Y-49598D01*
X205249Y-49692D01*
D02*
G37*
G36*
X46513Y-125442D02*
X46708Y-125681D01*
X46953Y-126442D01*
X46902Y-126502D01*
X46707Y-126821D01*
X46563Y-127167D01*
X46476Y-127532D01*
X46446Y-127905D01*
X46476Y-128279D01*
X46563Y-128644D01*
X46707Y-128990D01*
X46902Y-129309D01*
X47146Y-129594D01*
X47431Y-129838D01*
X47750Y-130034D01*
X48097Y-130177D01*
X48461Y-130265D01*
X48835Y-130294D01*
X49208Y-130265D01*
X49573Y-130177D01*
X49919Y-130034D01*
X50239Y-129838D01*
X50524Y-129594D01*
X50767Y-129309D01*
X50963Y-128990D01*
X51106Y-128644D01*
X51194Y-128279D01*
X51223Y-127905D01*
X51194Y-127532D01*
X51106Y-127167D01*
X51063Y-127062D01*
X51521Y-126073D01*
X52169Y-125850D01*
D01*
X53001Y-125442D01*
X74000Y-125442D01*
Y-135793D01*
X73293Y-136500D01*
X41500Y-136500D01*
X37534Y-132534D01*
X29660Y-132534D01*
X28953Y-131827D01*
Y-126149D01*
X29660Y-125442D01*
X46513Y-125442D01*
D02*
G37*
G36*
X-122500Y-88000D02*
X-110000Y-100500D01*
Y-113500D01*
X-103500Y-120000D01*
X-36689Y-120000D01*
X-36675Y-120136D01*
X-36578Y-120456D01*
X-36420Y-120752D01*
X-36208Y-121010D01*
X-34916Y-122302D01*
X-39159Y-126546D01*
X-39198Y-126542D01*
X-39582Y-126573D01*
X-39957Y-126663D01*
X-40313Y-126810D01*
X-40642Y-127012D01*
X-40935Y-127262D01*
X-41186Y-127556D01*
X-41387Y-127884D01*
X-41535Y-128241D01*
X-41625Y-128616D01*
X-41655Y-129000D01*
X-41625Y-129384D01*
X-41535Y-129759D01*
X-41387Y-130116D01*
X-41186Y-130445D01*
X-40935Y-130738D01*
X-40642Y-130988D01*
X-40313Y-131190D01*
X-39957Y-131337D01*
X-39582Y-131427D01*
X-39198Y-131458D01*
X-38813Y-131427D01*
X-38438Y-131337D01*
X-38082Y-131190D01*
X-37753Y-130988D01*
X-37460Y-130738D01*
X-37209Y-130445D01*
X-37008Y-130116D01*
X-36860Y-129759D01*
X-36770Y-129384D01*
X-36740Y-129000D01*
X-36743Y-128961D01*
X-31292Y-123510D01*
X-31080Y-123251D01*
X-30922Y-122956D01*
X-30825Y-122636D01*
X-30792Y-122302D01*
X-29704Y-120554D01*
X-29122Y-120031D01*
X-29077Y-120000D01*
X-769Y-120000D01*
Y-126450D01*
X-769D01*
X777Y-127905D01*
X806Y-128279D01*
X894Y-128644D01*
X1037Y-128990D01*
X1233Y-129309D01*
X1476Y-129594D01*
X1761Y-129838D01*
X2081Y-130034D01*
X2427Y-130177D01*
X2792Y-130265D01*
X3165Y-130294D01*
X3539Y-130265D01*
X3903Y-130177D01*
X4250Y-130034D01*
X4569Y-129838D01*
X4854Y-129594D01*
X5098Y-129309D01*
X5294Y-128990D01*
X5437Y-128644D01*
Y-128644D01*
X5524Y-128279D01*
X5524Y-128279D01*
X5554Y-127905D01*
X5554Y-127905D01*
X5524Y-127532D01*
X5524Y-127532D01*
X5437Y-127167D01*
X5294Y-126821D01*
X5131Y-126450D01*
X5131Y-126450D01*
X5131Y-126450D01*
Y-121768D01*
X5496Y-121403D01*
X7477Y-120149D01*
X7477Y-120149D01*
X7477Y-120149D01*
X10271D01*
X17450Y-127328D01*
Y-124654D01*
X19288D01*
Y-134125D01*
X30000D01*
Y-135000D01*
X38295D01*
X40647Y-137353D01*
X40647Y-137353D01*
X40830Y-137503D01*
X41039Y-137614D01*
X41265Y-137683D01*
X41500Y-137706D01*
X41500Y-137706D01*
X73293Y-137706D01*
X73528Y-137683D01*
X73754Y-137614D01*
X73963Y-137503D01*
X74146Y-137353D01*
X74146Y-137353D01*
X74853Y-136645D01*
X75003Y-136463D01*
X75114Y-136254D01*
X75183Y-136028D01*
X75206Y-135793D01*
X77401Y-135000D01*
X138500Y-135000D01*
X153500Y-120000D01*
X179000D01*
X184000Y-114500D01*
X184000Y-104000D01*
X188000Y-100000D01*
X210818D01*
X211774Y-102310D01*
X207148Y-106936D01*
X206816Y-107074D01*
X206467Y-107288D01*
X206156Y-107554D01*
X205890Y-107865D01*
X205676Y-108214D01*
X205520Y-108592D01*
X205424Y-108990D01*
X205392Y-109398D01*
X205424Y-109806D01*
X205520Y-110204D01*
X205676Y-110582D01*
X205890Y-110931D01*
X206156Y-111242D01*
X206290Y-111356D01*
X206507Y-111675D01*
X206946Y-113534D01*
X206822Y-114360D01*
X204792Y-116390D01*
X204580Y-116649D01*
X204422Y-116944D01*
X204325Y-117264D01*
X204292Y-117598D01*
Y-118163D01*
X203991Y-118236D01*
X203634Y-118383D01*
X203306Y-118585D01*
X203012Y-118835D01*
X202762Y-119128D01*
X202560Y-119457D01*
X202413Y-119813D01*
X202406Y-119841D01*
X201253Y-120286D01*
X200315Y-120371D01*
X199906Y-120299D01*
X199743Y-119969D01*
X199473Y-119566D01*
X199153Y-119201D01*
X198789Y-118881D01*
X198386Y-118612D01*
X197950Y-118397D01*
X197491Y-118241D01*
X197016Y-118147D01*
X196531Y-118115D01*
X191532D01*
X191048Y-118147D01*
X190572Y-118241D01*
X190112Y-118397D01*
X189678Y-118612D01*
X189274Y-118881D01*
X188910Y-119201D01*
X188590Y-119566D01*
X188320Y-119969D01*
X188106Y-120404D01*
X187950Y-120863D01*
X187855Y-121339D01*
X187824Y-121823D01*
Y-130500D01*
X187812Y-130621D01*
X186719Y-132348D01*
X186541Y-132546D01*
X185952Y-132958D01*
X185855Y-133000D01*
X169500D01*
Y-142500D01*
X164500Y-147500D01*
X-111258Y-147500D01*
X-111389Y-147389D01*
X-112131Y-146265D01*
X-112521Y-145000D01*
X-112383Y-144770D01*
X-112092Y-144154D01*
X-111863Y-143513D01*
X-111697Y-142853D01*
X-111598Y-142180D01*
X-111564Y-141500D01*
X-111598Y-140820D01*
X-111697Y-140147D01*
X-111863Y-139487D01*
X-112092Y-138846D01*
X-112383Y-138230D01*
X-112733Y-137647D01*
X-113138Y-137100D01*
X-113596Y-136596D01*
X-114100Y-136138D01*
X-114647Y-135733D01*
X-115230Y-135383D01*
X-115846Y-135092D01*
X-116487Y-134863D01*
X-117147Y-134697D01*
X-117820Y-134598D01*
X-118500Y-134564D01*
X-119180Y-134598D01*
X-119853Y-134697D01*
X-120513Y-134863D01*
X-121154Y-135092D01*
X-121770Y-135383D01*
X-122353Y-135733D01*
X-122900Y-136138D01*
X-123404Y-136596D01*
X-123862Y-137100D01*
X-124000Y-137287D01*
X-125190Y-137177D01*
X-126500Y-136509D01*
Y-113000D01*
X-128483D01*
X-128980Y-112500D01*
Y-112500D01*
X-156865D01*
X-159292Y-111852D01*
Y-100573D01*
X-159323Y-100188D01*
X-159413Y-99813D01*
X-159560Y-99457D01*
X-159762Y-99128D01*
X-160012Y-98835D01*
X-160306Y-98585D01*
X-160634Y-98383D01*
X-160991Y-98235D01*
X-161063Y-98218D01*
X-161553Y-97050D01*
X-161496Y-95627D01*
X-161467Y-95610D01*
X-161156Y-95344D01*
X-160890Y-95033D01*
X-160676Y-94684D01*
X-160520Y-94306D01*
X-160424Y-93908D01*
X-160392Y-93500D01*
X-160424Y-93092D01*
X-160520Y-92694D01*
X-160676Y-92316D01*
X-160890Y-91967D01*
X-161156Y-91656D01*
X-161467Y-91390D01*
X-161816Y-91176D01*
X-162194Y-91020D01*
X-162592Y-90924D01*
X-163000Y-90892D01*
X-163408Y-90924D01*
X-163806Y-91020D01*
X-164184Y-91176D01*
X-164533Y-91390D01*
X-164844Y-91656D01*
X-165110Y-91967D01*
X-165324Y-92316D01*
X-165480Y-92694D01*
X-165576Y-93092D01*
X-165608Y-93500D01*
X-165576Y-93908D01*
X-165480Y-94306D01*
X-165324Y-94684D01*
X-165110Y-95033D01*
X-164844Y-95344D01*
X-164533Y-95610D01*
X-164504Y-95627D01*
X-164447Y-97050D01*
X-164937Y-98218D01*
X-165009Y-98235D01*
X-165366Y-98383D01*
X-165694Y-98585D01*
X-165988Y-98835D01*
X-166238Y-99128D01*
X-166440Y-99457D01*
X-166587Y-99813D01*
X-166677Y-100188D01*
X-166708Y-100573D01*
Y-108967D01*
X-168000Y-109692D01*
X-169292Y-108967D01*
Y-100573D01*
X-169323Y-100188D01*
X-169413Y-99813D01*
X-169560Y-99457D01*
X-169762Y-99128D01*
X-170012Y-98835D01*
X-170306Y-98585D01*
X-170634Y-98383D01*
X-170991Y-98235D01*
X-171292Y-98163D01*
Y-92764D01*
X-171025Y-92117D01*
X-169632Y-90433D01*
X-169558Y-90427D01*
X-169183Y-90337D01*
X-168827Y-90190D01*
X-168498Y-89988D01*
X-168205Y-89738D01*
X-167955Y-89445D01*
X-167753Y-89116D01*
X-167605Y-88759D01*
X-167515Y-88384D01*
X-167485Y-88000D01*
X-167485Y-88000D01*
X-122500Y-88000D01*
D02*
G37*
G36*
X-80646Y-60565D02*
X-81145Y-60812D01*
X-81608Y-61121D01*
X-82027Y-61488D01*
X-82395Y-61907D01*
X-82704Y-62370D01*
X-82951Y-62870D01*
X-83130Y-63398D01*
X-83238Y-63944D01*
X-83275Y-64500D01*
X-83238Y-65056D01*
X-83130Y-65602D01*
X-82951Y-66130D01*
X-82704Y-66630D01*
X-82395Y-67093D01*
X-82027Y-67512D01*
X-81608Y-67879D01*
X-81145Y-68189D01*
X-80646Y-68435D01*
X-80118Y-68614D01*
X-79572Y-68723D01*
X-79016Y-68759D01*
X-77067Y-70077D01*
X-77017Y-70125D01*
X-76610Y-70812D01*
Y-73315D01*
X-76610Y-73315D01*
X-76300Y-74193D01*
X-76053Y-75815D01*
X-76511Y-76292D01*
X-78382D01*
X-78866Y-76324D01*
X-79342Y-76418D01*
X-79801Y-76574D01*
X-80236Y-76789D01*
X-80639Y-77058D01*
X-81004Y-77378D01*
X-85622Y-81996D01*
X-85942Y-82361D01*
X-86211Y-82764D01*
X-86426Y-83199D01*
X-86582Y-83658D01*
X-86676Y-84134D01*
X-86708Y-84618D01*
Y-115223D01*
X-88476Y-116991D01*
X-102254D01*
X-106991Y-112254D01*
Y-100500D01*
X-107028Y-100029D01*
X-107138Y-99570D01*
X-107319Y-99134D01*
X-107565Y-98731D01*
X-107872Y-98372D01*
X-120372Y-85872D01*
X-120731Y-85565D01*
X-120911Y-85456D01*
X-121251Y-84643D01*
X-121317Y-84287D01*
X-121387Y-83893D01*
X-121205Y-82655D01*
X-121005Y-82516D01*
X-120171Y-81844D01*
X-119387Y-81113D01*
X-118657Y-80329D01*
X-117984Y-79495D01*
X-117373Y-78615D01*
X-116826Y-77693D01*
X-116347Y-76735D01*
X-115937Y-75745D01*
X-115598Y-74729D01*
X-115333Y-73690D01*
X-115143Y-72636D01*
X-115029Y-71571D01*
X-114990Y-70500D01*
X-115029Y-69429D01*
X-115143Y-68364D01*
X-115333Y-67309D01*
X-115598Y-66271D01*
X-115937Y-65255D01*
X-116347Y-64265D01*
X-116826Y-63307D01*
X-117373Y-62385D01*
X-117984Y-61505D01*
X-118657Y-60671D01*
X-118715Y-60608D01*
X-117765Y-58216D01*
X-117660Y-58108D01*
X-81184D01*
X-80646Y-60565D01*
D02*
G37*
G36*
X167895Y-27828D02*
X164993Y-30730D01*
X164699Y-31065D01*
X164452Y-31436D01*
X164254Y-31836D01*
X164111Y-32258D01*
X164024Y-32695D01*
X163995Y-33140D01*
Y-39913D01*
X152460Y-51448D01*
X151353Y-51426D01*
X149753Y-50881D01*
X149649Y-50723D01*
X149475Y-50370D01*
X149166Y-49907D01*
X148798Y-49488D01*
X148380Y-49121D01*
X147916Y-48812D01*
X147417Y-48565D01*
X146889Y-48386D01*
X146343Y-48277D01*
X145787Y-48241D01*
X145231Y-48277D01*
X144684Y-48386D01*
X144157Y-48565D01*
X143657Y-48812D01*
X143194Y-49121D01*
X142775Y-49488D01*
X142408Y-49907D01*
X142098Y-50370D01*
X141852Y-50870D01*
X141673Y-51398D01*
X141564Y-51944D01*
X141527Y-52500D01*
X141564Y-53056D01*
X141673Y-53602D01*
X141852Y-54130D01*
X142098Y-54630D01*
X142408Y-55093D01*
X142775Y-55512D01*
X143194Y-55879D01*
X143657Y-56188D01*
X144010Y-56362D01*
X144168Y-56467D01*
X144713Y-58067D01*
X144730Y-58963D01*
X142922Y-60793D01*
X96131D01*
X95545Y-60313D01*
X95314Y-59977D01*
X94573Y-58293D01*
X94614Y-58174D01*
X94723Y-57628D01*
X94759Y-57072D01*
X94723Y-56516D01*
X94614Y-55969D01*
X94435Y-55442D01*
X94188Y-54942D01*
X93879Y-54479D01*
X93512Y-54060D01*
X93093Y-53693D01*
X92630Y-53383D01*
X92130Y-53137D01*
X91602Y-52958D01*
X91056Y-52849D01*
X90980Y-52844D01*
X86962Y-48826D01*
X86627Y-48532D01*
X86256Y-48284D01*
X85856Y-48087D01*
X85434Y-47944D01*
X84997Y-47857D01*
X84552Y-47828D01*
X73600D01*
X73155Y-47857D01*
X72718Y-47944D01*
X72296Y-48087D01*
X71896Y-48284D01*
X71526Y-48532D01*
X71191Y-48826D01*
X71152Y-48864D01*
X58606D01*
Y-43280D01*
X58606Y-43279D01*
X58606D01*
X58728Y-40830D01*
X58906Y-40655D01*
X82046Y-40655D01*
X82245Y-40639D01*
X82445Y-40628D01*
X82481Y-40621D01*
X82517Y-40618D01*
X82711Y-40571D01*
X82855Y-40540D01*
X82999Y-40571D01*
X83193Y-40618D01*
X83230Y-40621D01*
X83265Y-40628D01*
X83465Y-40639D01*
X83664Y-40655D01*
X108530Y-40655D01*
X108627Y-40647D01*
X108724Y-40648D01*
X108862Y-40629D01*
X109001Y-40618D01*
X109095Y-40595D01*
X109192Y-40581D01*
X109325Y-40540D01*
X109460Y-40508D01*
X109550Y-40470D01*
X109643Y-40441D01*
X109767Y-40380D01*
X109896Y-40327D01*
X109979Y-40276D01*
X110066Y-40233D01*
X110180Y-40153D01*
X110287Y-40087D01*
X112109Y-41909D01*
X112444Y-42203D01*
X112814Y-42451D01*
X113214Y-42648D01*
X113636Y-42791D01*
X114073Y-42878D01*
X114518Y-42907D01*
X136437D01*
X136858Y-43189D01*
X137358Y-43435D01*
X137885Y-43614D01*
X138432Y-43723D01*
X138988Y-43759D01*
X139544Y-43723D01*
X140090Y-43614D01*
X140618Y-43435D01*
X141117Y-43189D01*
X141581Y-42879D01*
X141999Y-42512D01*
X142367Y-42093D01*
X142676Y-41630D01*
X142923Y-41130D01*
X143102Y-40602D01*
X143210Y-40056D01*
X143247Y-39500D01*
X143210Y-38944D01*
X143102Y-38398D01*
X142923Y-37870D01*
X142676Y-37370D01*
X142367Y-36907D01*
X142347Y-36885D01*
X142366Y-36853D01*
X142446Y-36739D01*
X142597Y-36481D01*
X142635Y-36402D01*
X142681Y-36326D01*
X142738Y-36189D01*
X142803Y-36056D01*
X142828Y-35972D01*
X142862Y-35890D01*
X142897Y-35746D01*
X142940Y-35604D01*
X142952Y-35517D01*
X142972Y-35431D01*
X142984Y-35283D01*
X143004Y-35136D01*
X143002Y-35048D01*
X143009Y-34960D01*
Y-31008D01*
X143428Y-30315D01*
X143490Y-30256D01*
X145460Y-28966D01*
X146029Y-28928D01*
X146588Y-28817D01*
X147128Y-28634D01*
X147640Y-28382D01*
X148114Y-28065D01*
X148172Y-28014D01*
X149894D01*
X150339Y-27984D01*
X150776Y-27898D01*
X151198Y-27754D01*
X151597Y-27557D01*
X151968Y-27310D01*
X152303Y-27016D01*
X153800Y-25519D01*
X166938D01*
X167895Y-27828D01*
D02*
G37*
G36*
X216784Y-22947D02*
X216969Y-23457D01*
X217000Y-23773D01*
X216759Y-25988D01*
X216392Y-26407D01*
X216083Y-26870D01*
X215836Y-27370D01*
X215751Y-27620D01*
X200529Y-42842D01*
X182333D01*
X181697Y-42487D01*
X181596Y-42389D01*
X180259Y-40500D01*
X180223Y-39944D01*
X180114Y-39398D01*
X179935Y-38870D01*
X179689Y-38370D01*
X179379Y-37907D01*
X179012Y-37488D01*
X178593Y-37121D01*
X178130Y-36812D01*
X177834Y-35504D01*
X178590Y-33539D01*
X178665Y-33417D01*
X179130Y-33189D01*
X179593Y-32879D01*
X180012Y-32512D01*
X180379Y-32093D01*
X180689Y-31630D01*
X180913Y-31174D01*
X181001Y-31168D01*
X181548Y-31059D01*
X182075Y-30880D01*
X182575Y-30634D01*
X183038Y-30324D01*
X183457Y-29957D01*
X183824Y-29538D01*
X184134Y-29075D01*
X184380Y-28575D01*
X184559Y-28048D01*
X184668Y-27501D01*
X184704Y-26945D01*
X186542Y-25703D01*
X187044Y-25519D01*
X193889D01*
X194333Y-25490D01*
X194771Y-25403D01*
X195193Y-25259D01*
X195592Y-25062D01*
X195963Y-24814D01*
X196298Y-24521D01*
X200248Y-20571D01*
X200542Y-20236D01*
X200789Y-19865D01*
X200987Y-19465D01*
X201130Y-19043D01*
X201217Y-18606D01*
X201246Y-18161D01*
Y-17370D01*
X206842D01*
Y-16272D01*
X209152Y-15315D01*
X216784Y-22947D01*
D02*
G37*
G36*
X-132413Y-20107D02*
X-127106Y-25413D01*
X-126771Y-25707D01*
X-126401Y-25955D01*
X-126001Y-26152D01*
X-125579Y-26295D01*
X-125142Y-26382D01*
X-124697Y-26411D01*
X-118776D01*
X-117819Y-28721D01*
X-120051Y-30953D01*
X-120362Y-31308D01*
X-120624Y-31700D01*
X-120833Y-32123D01*
X-120985Y-32570D01*
X-121077Y-33033D01*
X-121108Y-33504D01*
Y-38645D01*
X-121206Y-38742D01*
X-122837Y-39653D01*
X-123484Y-39832D01*
X-123860Y-39553D01*
X-124412Y-39222D01*
X-124993Y-38947D01*
X-125598Y-38731D01*
X-126222Y-38575D01*
X-126858Y-38480D01*
X-127500Y-38449D01*
X-128142Y-38480D01*
X-128778Y-38575D01*
X-129402Y-38731D01*
X-130007Y-38947D01*
X-130588Y-39222D01*
X-131140Y-39553D01*
X-131656Y-39936D01*
X-132132Y-40368D01*
X-132868D01*
X-133344Y-39936D01*
X-133860Y-39553D01*
X-134412Y-39222D01*
X-134993Y-38947D01*
X-135598Y-38731D01*
X-136222Y-38575D01*
X-136858Y-38480D01*
X-137500Y-38449D01*
X-138860Y-36678D01*
X-139093Y-36094D01*
Y-25747D01*
X-138812Y-25326D01*
X-138565Y-24826D01*
X-138386Y-24298D01*
X-138277Y-23752D01*
X-138241Y-23196D01*
X-138266Y-22811D01*
X-137898Y-22738D01*
X-137370Y-22559D01*
X-136870Y-22312D01*
X-136407Y-22003D01*
X-135988Y-21636D01*
X-135621Y-21217D01*
X-135311Y-20753D01*
X-135308Y-20747D01*
X-133454Y-20068D01*
X-133005Y-20016D01*
X-132413Y-20107D01*
D02*
G37*
G36*
X-165684Y-51342D02*
X-165481Y-51754D01*
X-165226Y-52135D01*
X-164924Y-52480D01*
X-162007Y-55396D01*
Y-71003D01*
X-170683Y-79678D01*
X-172993Y-78722D01*
Y-55510D01*
X-169963Y-52480D01*
X-169661Y-52135D01*
X-169406Y-51754D01*
X-169203Y-51342D01*
X-169195Y-51321D01*
X-168778Y-51425D01*
X-168142Y-51520D01*
X-167500Y-51551D01*
X-166858Y-51520D01*
X-166222Y-51425D01*
X-165700Y-51295D01*
X-165684Y-51342D01*
D02*
G37*
G36*
X-141656Y-50064D02*
X-141140Y-50447D01*
X-140588Y-50778D01*
X-140007Y-51052D01*
X-139402Y-51269D01*
X-138778Y-51425D01*
X-138142Y-51520D01*
X-137500Y-51551D01*
X-137095Y-51810D01*
X-136246Y-52720D01*
X-135720Y-53752D01*
X-135702Y-53838D01*
X-135723Y-53944D01*
X-135759Y-54500D01*
X-135723Y-55056D01*
X-135614Y-55602D01*
X-135435Y-56130D01*
X-135607Y-56586D01*
X-136235Y-56847D01*
X-137193Y-57326D01*
X-138115Y-57873D01*
X-138995Y-58484D01*
X-139829Y-59157D01*
X-140613Y-59887D01*
X-141343Y-60671D01*
X-142016Y-61505D01*
X-142627Y-62385D01*
X-143174Y-63307D01*
X-143653Y-64265D01*
X-144063Y-65255D01*
X-144402Y-66271D01*
X-144667Y-67309D01*
X-144857Y-68364D01*
X-144971Y-69429D01*
X-145010Y-70500D01*
X-144971Y-71571D01*
X-144857Y-72636D01*
X-144667Y-73690D01*
X-144402Y-74729D01*
X-144063Y-75745D01*
X-143653Y-76735D01*
X-143174Y-77693D01*
X-142627Y-78615D01*
X-142016Y-79495D01*
X-141343Y-80329D01*
X-140613Y-81113D01*
X-139829Y-81844D01*
X-139026Y-82491D01*
X-139017Y-82581D01*
X-139814Y-84991D01*
X-159881Y-84991D01*
X-160838Y-82681D01*
X-154020Y-75863D01*
X-153717Y-75518D01*
X-153462Y-75137D01*
X-153260Y-74725D01*
X-153112Y-74291D01*
X-153023Y-73841D01*
X-152992Y-73383D01*
Y-55396D01*
X-150076Y-52480D01*
X-149774Y-52135D01*
X-149519Y-51754D01*
X-149316Y-51342D01*
X-149300Y-51295D01*
X-148778Y-51425D01*
X-148142Y-51520D01*
X-147500Y-51551D01*
X-146858Y-51520D01*
X-146222Y-51425D01*
X-145598Y-51269D01*
X-144993Y-51052D01*
X-144412Y-50778D01*
X-143860Y-50447D01*
X-143344Y-50064D01*
X-142868Y-49632D01*
X-142132D01*
X-141656Y-50064D01*
D02*
G37*
G36*
X-21656D02*
X-21140Y-50447D01*
X-20588Y-50778D01*
X-20542Y-50799D01*
X-20338Y-52232D01*
X-20684Y-53465D01*
X-20884Y-53537D01*
X-21553Y-53853D01*
X-22187Y-54233D01*
X-22781Y-54674D01*
X-23329Y-55171D01*
X-23826Y-55719D01*
X-24266Y-56313D01*
X-24647Y-56947D01*
X-24963Y-57616D01*
X-25212Y-58312D01*
X-25392Y-59030D01*
X-25500Y-59761D01*
X-25537Y-60500D01*
X-25500Y-61239D01*
X-25392Y-61970D01*
X-25212Y-62688D01*
X-24963Y-63384D01*
X-24647Y-64053D01*
X-24419Y-64433D01*
X-24211Y-64854D01*
X-23942Y-65257D01*
X-23854Y-65357D01*
X-23586Y-65936D01*
X-23499Y-66693D01*
X-23468Y-67923D01*
X-23796Y-68686D01*
X-23826Y-68719D01*
X-24266Y-69313D01*
X-24647Y-69947D01*
X-24963Y-70616D01*
X-25212Y-71312D01*
X-25392Y-72030D01*
X-25500Y-72761D01*
X-25537Y-73500D01*
X-25500Y-74239D01*
X-25392Y-74970D01*
X-25212Y-75688D01*
X-24963Y-76384D01*
X-24647Y-77053D01*
X-24266Y-77687D01*
X-23826Y-78281D01*
X-23329Y-78829D01*
X-22781Y-79326D01*
X-22187Y-79766D01*
X-21553Y-80147D01*
X-20884Y-80463D01*
X-20188Y-80712D01*
X-19470Y-80892D01*
X-18739Y-81000D01*
X-18000Y-81037D01*
X-17261Y-81000D01*
X-16530Y-80892D01*
X-15812Y-80712D01*
X-15116Y-80463D01*
X-14447Y-80147D01*
X-13813Y-79766D01*
X-13219Y-79326D01*
X-12671Y-78829D01*
X-12174Y-78281D01*
X-11733Y-77687D01*
X-11353Y-77053D01*
X-10595Y-76841D01*
X-9405D01*
X-8647Y-77053D01*
X-8266Y-77687D01*
X-7826Y-78281D01*
X-7329Y-78829D01*
X-6781Y-79326D01*
X-6187Y-79766D01*
X-5553Y-80147D01*
X-4884Y-80463D01*
X-4188Y-80712D01*
X-3470Y-80892D01*
X-2739Y-81000D01*
X-2000Y-81037D01*
X-1261Y-81000D01*
X-530Y-80892D01*
X188Y-80712D01*
X884Y-80463D01*
X1553Y-80147D01*
X2187Y-79766D01*
X2781Y-79326D01*
X3329Y-78829D01*
X3713Y-78406D01*
X4155Y-78416D01*
X6213Y-79259D01*
Y-102088D01*
X6120Y-102277D01*
X5976Y-102699D01*
X4739Y-103944D01*
X3835Y-104237D01*
X3260Y-104275D01*
X2694Y-104388D01*
X2148Y-104573D01*
X1630Y-104828D01*
X1151Y-105148D01*
X717Y-105529D01*
X337Y-105963D01*
X17Y-106442D01*
X-837Y-106753D01*
X-1422Y-106821D01*
X-2778Y-106663D01*
X-3025Y-106382D01*
X-3458Y-106002D01*
X-3938Y-105681D01*
X-4455Y-105426D01*
X-5002Y-105241D01*
X-5567Y-105128D01*
X-6143Y-105091D01*
X-6718Y-105128D01*
X-7284Y-105241D01*
X-7830Y-105426D01*
X-8348Y-105681D01*
X-8827Y-106002D01*
X-9261Y-106382D01*
X-9641Y-106816D01*
X-9962Y-107295D01*
X-10217Y-107813D01*
X-10402Y-108359D01*
X-10514Y-108924D01*
X-10552Y-109500D01*
X-10514Y-110075D01*
X-10402Y-110641D01*
X-10217Y-111187D01*
X-9962Y-111705D01*
X-9641Y-112184D01*
X-9261Y-112618D01*
X-8827Y-112998D01*
X-8348Y-113319D01*
X-7830Y-113574D01*
X-7284Y-113759D01*
X-6718Y-113872D01*
X-6143Y-113909D01*
X-5567Y-113872D01*
X-5002Y-113759D01*
X-4455Y-113574D01*
X-3938Y-113319D01*
X-3458Y-112998D01*
X-3025Y-112618D01*
X-2645Y-112184D01*
X-2324Y-111705D01*
X-1471Y-111394D01*
X-885Y-111325D01*
X471Y-111483D01*
X717Y-111765D01*
X1151Y-112145D01*
X1630Y-112466D01*
X2148Y-112721D01*
X2989Y-114698D01*
X3084Y-115270D01*
X3066Y-115498D01*
X2958Y-115750D01*
X-2569D01*
Y-115750D01*
X-3810Y-116991D01*
X-29077Y-116991D01*
X-29493Y-116889D01*
X-29967Y-116650D01*
X-30496Y-116281D01*
X-30525Y-116259D01*
X-30842Y-116010D01*
X-31067Y-115796D01*
X-31212Y-115612D01*
X-31245Y-115561D01*
X-31492Y-115088D01*
Y-106901D01*
X-31312Y-106630D01*
X-31065Y-106130D01*
X-30886Y-105602D01*
X-30777Y-105056D01*
X-30741Y-104500D01*
X-30777Y-103944D01*
X-30886Y-103398D01*
X-31065Y-102870D01*
X-31312Y-102370D01*
X-31621Y-101907D01*
X-31988Y-101488D01*
X-32407Y-101121D01*
X-32870Y-100812D01*
X-33370Y-100565D01*
X-33898Y-100386D01*
X-34444Y-100277D01*
X-35000Y-100241D01*
X-35556Y-100277D01*
X-36102Y-100386D01*
X-36630Y-100565D01*
X-37130Y-100812D01*
X-37593Y-101121D01*
X-38012Y-101488D01*
X-38379Y-101907D01*
X-38688Y-102370D01*
X-38935Y-102870D01*
X-39114Y-103398D01*
X-39223Y-103944D01*
X-39259Y-104500D01*
X-39223Y-105056D01*
X-39114Y-105602D01*
X-38935Y-106130D01*
X-38688Y-106630D01*
X-38508Y-106901D01*
Y-115223D01*
X-40275Y-116991D01*
X-72841Y-116991D01*
Y-111913D01*
X-72552Y-111589D01*
X-72162Y-111040D01*
X-71836Y-110450D01*
X-71578Y-109827D01*
X-71391Y-109180D01*
X-71278Y-108515D01*
X-71241Y-107843D01*
X-71278Y-107170D01*
X-71391Y-106505D01*
X-71578Y-105858D01*
X-71836Y-105235D01*
X-72162Y-104645D01*
X-72552Y-104096D01*
X-73001Y-103593D01*
X-73503Y-103144D01*
X-74053Y-102754D01*
X-74643Y-102428D01*
X-75265Y-102170D01*
X-75913Y-101984D01*
X-76577Y-101871D01*
X-77250Y-101833D01*
X-78894Y-100331D01*
X-79229Y-99798D01*
X-79292Y-99585D01*
Y-96415D01*
X-79229Y-96202D01*
X-78894Y-95669D01*
X-77250Y-94167D01*
X-76577Y-94129D01*
X-75913Y-94016D01*
X-75265Y-93830D01*
X-74643Y-93572D01*
X-74053Y-93246D01*
X-73503Y-92856D01*
X-73001Y-92407D01*
X-72913Y-92309D01*
X-61291D01*
Y-92476D01*
X-51842D01*
Y-96216D01*
X-51842Y-96216D01*
X-51842D01*
X-51407Y-98536D01*
X-51372Y-99076D01*
X-51259Y-99641D01*
X-51074Y-100187D01*
X-50819Y-100705D01*
X-50498Y-101184D01*
X-50118Y-101618D01*
X-49684Y-101998D01*
X-49205Y-102319D01*
X-48687Y-102574D01*
X-48141Y-102759D01*
X-47576Y-102872D01*
X-47000Y-102909D01*
X-46424Y-102872D01*
X-45859Y-102759D01*
X-45313Y-102574D01*
X-44795Y-102319D01*
X-44316Y-101998D01*
X-43882Y-101618D01*
X-43502Y-101184D01*
X-43181Y-100705D01*
X-42926Y-100187D01*
X-42741Y-99641D01*
X-42628Y-99076D01*
X-42591Y-98500D01*
X-42017Y-97016D01*
X-41828Y-96841D01*
X-40797Y-96283D01*
X-39575Y-96372D01*
X-39000Y-96409D01*
X-38425Y-96372D01*
X-37859Y-96259D01*
X-37313Y-96074D01*
X-36795Y-95819D01*
X-36316Y-95498D01*
X-35882Y-95118D01*
X-35502Y-94684D01*
X-35181Y-94205D01*
X-34926Y-93687D01*
X-34741Y-93141D01*
X-34628Y-92576D01*
X-34591Y-92000D01*
X-34628Y-91425D01*
X-34741Y-90859D01*
X-34926Y-90313D01*
X-35181Y-89795D01*
X-35502Y-89316D01*
X-35882Y-88882D01*
X-36316Y-88502D01*
X-36795Y-88181D01*
X-37313Y-87926D01*
X-37859Y-87741D01*
X-38425Y-87628D01*
X-39000Y-87591D01*
X-39209Y-87604D01*
X-39475Y-87568D01*
X-39840Y-87431D01*
X-41709Y-86032D01*
Y-83366D01*
X-35020Y-76677D01*
X-34717Y-76332D01*
X-34462Y-75951D01*
X-34260Y-75539D01*
X-34112Y-75105D01*
X-34023Y-74655D01*
X-33992Y-74197D01*
Y-51303D01*
X-33522Y-50880D01*
X-31701Y-50024D01*
X-31656Y-50064D01*
X-31140Y-50447D01*
X-30588Y-50778D01*
X-30007Y-51052D01*
X-29402Y-51269D01*
X-28778Y-51425D01*
X-28142Y-51520D01*
X-27500Y-51551D01*
X-26858Y-51520D01*
X-26222Y-51425D01*
X-25598Y-51269D01*
X-24993Y-51052D01*
X-24412Y-50778D01*
X-23860Y-50447D01*
X-23344Y-50064D01*
X-22868Y-49632D01*
X-22132D01*
X-21656Y-50064D01*
D02*
G37*
G36*
X120657Y117456D02*
X120551Y117240D01*
X120372Y116713D01*
X120263Y116166D01*
X120227Y115610D01*
X120263Y115055D01*
X120372Y114508D01*
X120551Y113980D01*
X120797Y113481D01*
X121107Y113018D01*
X121474Y112599D01*
X121893Y112231D01*
X122356Y111922D01*
X122856Y111676D01*
X123383Y111496D01*
X123930Y111388D01*
X124260Y111366D01*
X124493Y111018D01*
X124860Y110599D01*
X125279Y110231D01*
X125742Y109922D01*
X126242Y109676D01*
X126770Y109496D01*
X126947Y109461D01*
X127183Y108981D01*
X127493Y108518D01*
X127860Y108099D01*
X128279Y107731D01*
X128743Y107422D01*
X129242Y107176D01*
X129770Y106996D01*
X130118Y106927D01*
X130183Y106795D01*
X130493Y106331D01*
X130860Y105912D01*
X131279Y105545D01*
X131743Y105236D01*
X131887Y105164D01*
X132255Y104148D01*
X132271Y103040D01*
X132256Y102667D01*
X132195Y102416D01*
X131860Y102122D01*
X131493Y101703D01*
X131184Y101240D01*
X130937Y100740D01*
X130758Y100213D01*
X130649Y99666D01*
X130613Y99110D01*
X128923Y98298D01*
X126241Y99137D01*
X126105Y99522D01*
X125822Y100623D01*
X126061Y100981D01*
X126307Y101480D01*
X126486Y102008D01*
X126595Y102555D01*
X126631Y103110D01*
X126595Y103666D01*
X126486Y104213D01*
X126307Y104740D01*
X126061Y105240D01*
X125751Y105703D01*
X125384Y106122D01*
X124965Y106489D01*
X124502Y106799D01*
X124002Y107045D01*
X123474Y107224D01*
X122928Y107333D01*
X122372Y107369D01*
X121816Y107333D01*
X121270Y107224D01*
X120742Y107045D01*
X120243Y106799D01*
X119822Y106518D01*
X112109D01*
X111665Y106489D01*
X111227Y106402D01*
X110805Y106258D01*
X110406Y106061D01*
X110035Y105814D01*
X109700Y105520D01*
X107393Y103213D01*
X105498Y104816D01*
X105819Y105295D01*
X106074Y105813D01*
X106259Y106359D01*
X106372Y106924D01*
X106409Y107500D01*
X106372Y108075D01*
X106259Y108641D01*
X106074Y109187D01*
X105819Y109705D01*
X105498Y110184D01*
X105118Y110618D01*
X104684Y110998D01*
X104205Y111319D01*
X103687Y111574D01*
X103141Y111759D01*
X102576Y111872D01*
X102000Y111909D01*
X101990Y111919D01*
Y116250D01*
X101990D01*
X101381Y118558D01*
Y123403D01*
X101344Y123874D01*
X101234Y124333D01*
X101813Y125843D01*
X102164Y126341D01*
X102701Y126803D01*
X111310D01*
X120657Y117456D01*
D02*
G37*
G36*
X47500Y113000D02*
X47624D01*
Y112451D01*
X69078D01*
Y112251D01*
X71000D01*
Y100000D01*
X65754D01*
Y107549D01*
X63985D01*
Y107749D01*
X61204D01*
Y107549D01*
X47624D01*
Y100000D01*
X44000D01*
Y120000D01*
X47500D01*
Y113000D01*
D02*
G37*
G36*
X199935Y133000D02*
X200402Y132851D01*
X202292Y131852D01*
Y120573D01*
X202323Y120188D01*
X202413Y119813D01*
X202560Y119457D01*
X202762Y119128D01*
X202892Y118976D01*
X203012Y118835D01*
X203050Y118773D01*
X203492Y117708D01*
X203677Y116838D01*
X203680Y116815D01*
X203694Y116348D01*
X203619Y115873D01*
X203597Y115759D01*
X203513Y115408D01*
X203481Y115000D01*
X203513Y114592D01*
X203608Y114194D01*
X203765Y113816D01*
X203979Y113467D01*
X204245Y113156D01*
X204556Y112890D01*
X204905Y112676D01*
X205283Y112520D01*
X205681Y112424D01*
X206089Y112392D01*
X206497Y112424D01*
X206895Y112520D01*
X207273Y112676D01*
X207622Y112890D01*
X207933Y113156D01*
X208199Y113467D01*
X208413Y113816D01*
X208569Y114194D01*
X208665Y114592D01*
X208697Y115000D01*
X208665Y115408D01*
X208571Y115799D01*
X208565Y115823D01*
X208453Y116309D01*
X208446Y116472D01*
X208586Y117664D01*
X208963Y118762D01*
X209008Y118846D01*
X209161Y119038D01*
X209238Y119128D01*
X209440Y119457D01*
X209587Y119813D01*
X209677Y120188D01*
X209708Y120573D01*
Y127983D01*
X212208Y129749D01*
X212292Y129719D01*
Y120573D01*
X212323Y120188D01*
X212413Y119813D01*
X212560Y119457D01*
X212762Y119128D01*
X213012Y118835D01*
X213305Y118585D01*
X213634Y118383D01*
X213991Y118236D01*
X214447Y115849D01*
X214170Y115155D01*
X213904Y114843D01*
X213690Y114495D01*
X213534Y114117D01*
X213438Y113718D01*
X213406Y113311D01*
X213438Y112902D01*
X213534Y112505D01*
X213690Y112127D01*
X213904Y111778D01*
X214170Y111466D01*
X214481Y111201D01*
X214830Y110987D01*
X215208Y110830D01*
X215606Y110735D01*
X216014Y110703D01*
X216416Y108238D01*
Y98000D01*
X179500D01*
X174500Y103000D01*
X174500Y131232D01*
X176268Y133000D01*
X199935D01*
D02*
G37*
G36*
X18787Y115851D02*
X19122Y115557D01*
X19493Y115310D01*
X19893Y115112D01*
X20315Y114969D01*
X20752Y114882D01*
X21197Y114853D01*
X35010D01*
Y103750D01*
X40991D01*
Y100488D01*
X28092D01*
X27647Y100459D01*
X27210Y100372D01*
X26788Y100228D01*
X26388Y100031D01*
X26018Y99784D01*
X25683Y99490D01*
X22215Y96022D01*
X22138Y96073D01*
X21639Y96319D01*
X21111Y96498D01*
X20565Y96607D01*
X20009Y96644D01*
X19453Y96607D01*
X18906Y96498D01*
X18379Y96319D01*
X17879Y96073D01*
X17416Y95763D01*
X16997Y95396D01*
X16630Y94977D01*
X16320Y94514D01*
X16000Y93973D01*
X15266Y93563D01*
X13961Y93723D01*
X13406Y93759D01*
X12849Y93723D01*
X12303Y93614D01*
X11776Y93435D01*
X11276Y93189D01*
X10813Y92879D01*
X10394Y92512D01*
X10026Y92093D01*
X9717Y91630D01*
X9533Y91257D01*
X9500Y91259D01*
X8944Y91223D01*
X8398Y91114D01*
X7870Y90935D01*
X7370Y90689D01*
X6907Y90379D01*
X6488Y90012D01*
X6121Y89593D01*
X5812Y89130D01*
X5565Y88630D01*
X5386Y88102D01*
X5277Y87556D01*
X5241Y87000D01*
X4920Y86658D01*
X-15830D01*
X-16330Y87158D01*
X-16621Y87593D01*
X-16988Y88012D01*
X-17407Y88379D01*
X-17870Y88688D01*
X-18370Y88935D01*
X-18898Y89114D01*
X-19444Y89223D01*
X-20000Y89259D01*
X-20556Y89223D01*
X-21102Y89114D01*
X-21630Y88935D01*
X-22130Y88688D01*
X-22593Y88379D01*
X-23012Y88012D01*
X-23379Y87593D01*
X-23688Y87130D01*
X-23925Y86649D01*
X-24102Y86614D01*
X-24630Y86435D01*
X-25130Y86189D01*
X-25593Y85879D01*
X-26012Y85512D01*
X-26080Y85509D01*
X-30240Y89670D01*
Y94419D01*
X-29944Y94439D01*
X-29398Y94547D01*
X-28870Y94727D01*
X-28370Y94973D01*
X-27907Y95282D01*
X-27488Y95650D01*
X-27121Y96069D01*
X-26812Y96532D01*
X-26565Y97031D01*
X-26386Y97559D01*
X-26305Y97967D01*
X-21331Y102941D01*
X-21033Y103281D01*
X-20781Y103657D01*
X-20581Y104063D01*
X-20436Y104491D01*
X-20348Y104935D01*
X-20318Y105386D01*
Y106015D01*
X-19890D01*
Y113102D01*
Y122503D01*
X12135D01*
X18787Y115851D01*
D02*
G37*
G36*
X-130293Y111381D02*
X-129922Y110042D01*
X-129980Y109960D01*
X-130252Y109468D01*
X-130467Y108949D01*
X-130622Y108410D01*
X-130717Y107856D01*
X-130748Y107295D01*
X-130717Y106735D01*
X-130622Y106181D01*
X-130467Y105641D01*
X-130252Y105122D01*
X-129980Y104631D01*
X-129656Y104173D01*
X-129281Y103754D01*
X-128863Y103380D01*
X-128404Y103055D01*
X-127913Y102783D01*
X-127394Y102568D01*
X-126855Y102413D01*
X-126301Y102319D01*
X-125740Y102287D01*
X-125180Y102319D01*
X-124626Y102413D01*
X-124086Y102568D01*
X-123567Y102783D01*
X-123076Y103055D01*
X-122749Y103287D01*
X-116253D01*
X-115296Y100977D01*
X-117409Y98864D01*
X-117703Y98529D01*
X-117951Y98158D01*
X-118148Y97759D01*
X-118291Y97337D01*
X-118378Y96899D01*
X-118407Y96455D01*
Y83617D01*
X-118710Y83312D01*
X-120907Y82437D01*
X-121005Y82516D01*
X-121885Y83127D01*
X-122807Y83674D01*
X-123765Y84153D01*
X-124755Y84563D01*
X-125771Y84902D01*
X-126810Y85167D01*
X-127864Y85357D01*
X-128929Y85471D01*
X-130000Y85510D01*
X-131071Y85471D01*
X-132136Y85357D01*
X-133191Y85167D01*
X-134229Y84902D01*
X-135245Y84563D01*
X-136235Y84153D01*
X-137193Y83674D01*
X-138115Y83127D01*
X-138995Y82516D01*
X-139829Y81844D01*
X-140613Y81113D01*
X-141343Y80329D01*
X-142016Y79495D01*
X-142627Y78615D01*
X-143174Y77693D01*
X-143653Y76735D01*
X-144063Y75745D01*
X-144402Y74729D01*
X-144667Y73690D01*
X-144857Y72636D01*
X-144971Y71571D01*
X-145010Y70500D01*
X-144971Y69429D01*
X-144857Y68364D01*
X-144667Y67309D01*
X-144402Y66271D01*
X-144063Y65255D01*
X-143653Y64265D01*
X-143174Y63307D01*
X-142627Y62385D01*
X-142016Y61505D01*
X-141343Y60671D01*
X-141256Y60577D01*
X-141155Y60220D01*
X-141103Y59924D01*
X-141116Y59588D01*
X-141387Y58049D01*
X-141423Y57964D01*
X-141723Y57504D01*
X-141889Y57359D01*
X-144966Y54282D01*
X-145260Y53947D01*
X-145508Y53576D01*
X-145705Y53177D01*
X-145848Y52754D01*
X-145983Y52276D01*
X-146605Y51739D01*
X-147500Y51551D01*
X-148142Y51520D01*
X-148778Y51425D01*
X-149300Y51295D01*
X-149316Y51342D01*
X-149519Y51754D01*
X-149774Y52135D01*
X-150076Y52480D01*
X-152992Y55396D01*
Y85000D01*
X-153023Y85458D01*
X-153112Y85908D01*
X-153260Y86342D01*
X-153462Y86754D01*
X-153717Y87135D01*
X-154020Y87480D01*
X-155802Y89262D01*
X-155886Y89686D01*
X-156065Y90214D01*
X-156312Y90713D01*
X-156621Y91177D01*
X-156988Y91596D01*
X-157407Y91963D01*
X-157870Y92272D01*
X-158370Y92519D01*
X-158898Y92698D01*
X-159444Y92807D01*
X-159493Y92810D01*
Y95687D01*
X-157423Y97528D01*
X-157313Y97525D01*
X-156462Y97158D01*
X-155922Y96860D01*
X-155351Y96623D01*
X-154757Y96452D01*
X-154148Y96349D01*
X-153532Y96314D01*
X-148531D01*
X-147915Y96349D01*
X-147306Y96452D01*
X-146712Y96623D01*
X-146141Y96860D01*
X-145601Y97158D01*
X-145097Y97516D01*
X-144636Y97928D01*
X-144225Y98388D01*
X-143867Y98892D01*
X-143568Y99433D01*
X-143332Y100003D01*
X-143161Y100597D01*
X-143058Y101206D01*
X-143023Y101823D01*
Y110602D01*
X-141494Y112170D01*
X-140994Y112474D01*
X-140765Y112542D01*
X-131062D01*
X-130293Y111381D01*
D02*
G37*
G36*
X-91571Y110370D02*
X-91226Y110068D01*
X-90844Y109813D01*
X-90433Y109610D01*
X-89999Y109462D01*
X-89548Y109373D01*
X-89091Y109343D01*
X-71084D01*
X-70521Y109118D01*
X-68759Y107843D01*
X-68723Y107287D01*
X-68614Y106740D01*
X-68435Y106213D01*
X-68189Y105713D01*
X-67879Y105250D01*
X-67512Y104831D01*
X-67093Y104464D01*
X-66630Y104154D01*
X-66130Y103908D01*
X-65602Y103728D01*
X-65056Y103620D01*
X-64500Y103583D01*
X-63944Y103620D01*
X-63398Y103728D01*
X-62870Y103908D01*
X-62601Y104041D01*
X-62331Y103908D01*
X-61804Y103728D01*
X-61257Y103620D01*
X-60701Y103583D01*
X-60145Y103620D01*
X-59599Y103728D01*
X-59071Y103908D01*
X-58572Y104154D01*
X-58108Y104464D01*
X-57689Y104831D01*
X-57322Y105250D01*
X-56745Y105540D01*
X-56273Y105236D01*
X-56273Y105236D01*
X-55773Y104989D01*
X-55245Y104810D01*
X-54699Y104701D01*
X-54143Y104665D01*
X-53587Y104701D01*
X-53041Y104810D01*
X-52513Y104989D01*
X-52013Y105236D01*
X-51550Y105545D01*
X-51131Y105912D01*
X-50764Y106331D01*
X-50454Y106795D01*
X-50208Y107294D01*
X-50029Y107822D01*
X-49955Y107964D01*
X-48201Y108409D01*
X-46207Y106572D01*
Y96444D01*
X-47346Y95663D01*
X-48708Y95260D01*
X-48795Y95319D01*
X-49313Y95574D01*
X-49859Y95759D01*
X-50424Y95872D01*
X-51000Y95909D01*
X-51575Y95872D01*
X-52141Y95759D01*
X-52687Y95574D01*
X-53205Y95319D01*
X-53684Y94998D01*
X-54118Y94618D01*
X-54498Y94184D01*
X-54819Y93705D01*
X-55074Y93187D01*
X-55259Y92641D01*
X-55372Y92076D01*
X-55409Y91500D01*
X-55372Y90925D01*
X-55259Y90359D01*
X-55074Y89813D01*
X-54819Y89295D01*
X-54498Y88816D01*
X-54118Y88382D01*
X-53684Y88002D01*
X-53205Y87681D01*
X-52687Y87426D01*
X-52141Y87241D01*
X-51575Y87128D01*
X-51000Y87091D01*
X-50424Y87128D01*
X-49859Y87241D01*
X-49313Y87426D01*
X-48795Y87681D01*
X-48708Y87740D01*
X-47346Y87337D01*
X-46207Y86555D01*
Y80500D01*
X-46178Y80042D01*
X-46088Y79592D01*
X-45941Y79158D01*
X-45738Y78746D01*
X-45483Y78365D01*
X-45180Y78020D01*
X-42768Y75608D01*
Y69553D01*
X-42738Y69095D01*
X-42649Y68645D01*
X-42501Y68210D01*
X-42298Y67799D01*
X-42044Y67417D01*
X-41741Y67072D01*
X-40218Y65549D01*
X-39873Y65247D01*
X-39492Y64992D01*
X-39080Y64789D01*
X-38646Y64642D01*
X-38196Y64552D01*
X-37738Y64522D01*
X-30717D01*
X-30580Y64271D01*
X-29682Y61972D01*
X-30053Y61725D01*
X-30388Y61431D01*
X-31411Y60407D01*
X-38754D01*
X-38928Y60419D01*
X-44603D01*
X-44777Y60407D01*
X-58224D01*
X-58938Y61092D01*
X-59450Y62017D01*
X-59727Y62907D01*
X-59630Y63193D01*
X-59522Y63740D01*
X-59485Y64295D01*
X-59522Y64851D01*
X-59630Y65398D01*
X-59809Y65925D01*
X-60056Y66425D01*
X-60365Y66888D01*
X-60733Y67307D01*
X-61151Y67674D01*
X-61615Y67984D01*
X-62114Y68230D01*
X-62642Y68409D01*
X-63188Y68518D01*
X-63744Y68555D01*
X-64300Y68518D01*
X-64847Y68409D01*
X-65374Y68230D01*
X-65874Y67984D01*
X-66337Y67674D01*
X-66756Y67307D01*
X-67123Y66888D01*
X-67433Y66425D01*
X-67679Y65925D01*
X-67858Y65398D01*
X-67894Y65217D01*
X-67943Y65166D01*
X-68818Y64528D01*
X-69411Y64303D01*
X-69969Y64107D01*
X-70493Y64057D01*
X-70703Y64161D01*
X-71125Y64304D01*
X-71562Y64391D01*
X-72007Y64420D01*
X-78469D01*
X-78870Y64688D01*
X-79370Y64935D01*
X-79898Y65114D01*
X-80444Y65223D01*
X-81000Y65259D01*
X-81556Y65223D01*
X-82102Y65114D01*
X-82630Y64935D01*
X-83130Y64688D01*
X-83593Y64379D01*
X-84012Y64012D01*
X-84379Y63593D01*
X-84689Y63130D01*
X-84935Y62630D01*
X-85114Y62102D01*
X-85223Y61556D01*
X-85259Y61000D01*
X-85223Y60444D01*
X-85176Y60208D01*
X-89476Y55907D01*
X-113904D01*
X-114860Y58217D01*
X-112591Y60487D01*
X-112297Y60822D01*
X-112049Y61193D01*
X-111852Y61592D01*
X-111709Y62014D01*
X-111622Y62451D01*
X-111593Y62896D01*
Y90114D01*
X-109102Y90406D01*
X-108916Y89860D01*
X-108661Y89342D01*
X-108341Y88863D01*
X-107960Y88429D01*
X-107527Y88049D01*
X-107047Y87729D01*
X-106530Y87473D01*
X-105984Y87288D01*
X-105418Y87176D01*
X-104842Y87138D01*
X-104267Y87176D01*
X-103701Y87288D01*
X-103155Y87473D01*
X-102638Y87729D01*
X-102158Y88049D01*
X-101725Y88429D01*
X-101344Y88863D01*
X-101024Y89342D01*
X-100769Y89860D01*
X-100583Y90406D01*
X-100471Y90972D01*
X-100433Y91547D01*
X-100471Y92123D01*
X-100583Y92689D01*
X-100769Y93235D01*
X-101024Y93752D01*
X-101344Y94231D01*
X-101725Y94665D01*
Y94929D01*
X-101344Y95363D01*
X-101024Y95842D01*
X-100769Y96360D01*
X-100583Y96906D01*
X-100471Y97472D01*
X-100433Y98047D01*
X-100471Y98623D01*
X-100583Y99189D01*
X-100661Y99417D01*
X-100150Y100263D01*
X-98973Y101269D01*
X-98807Y101380D01*
X-98290Y101277D01*
X-97734Y101241D01*
X-97178Y101277D01*
X-96631Y101386D01*
X-96104Y101565D01*
X-95604Y101812D01*
X-95141Y102121D01*
X-94722Y102488D01*
X-94355Y102907D01*
X-94045Y103370D01*
X-93799Y103870D01*
X-93620Y104398D01*
X-93511Y104944D01*
X-93475Y105500D01*
X-93511Y106056D01*
X-93620Y106602D01*
X-93799Y107130D01*
X-94045Y107630D01*
X-94355Y108093D01*
X-94722Y108512D01*
X-95141Y108879D01*
X-95604Y109188D01*
X-96104Y109435D01*
X-96631Y109614D01*
X-96813Y109650D01*
X-97931Y110121D01*
X-98853Y111815D01*
X-98941Y112142D01*
Y114205D01*
X-96441Y115241D01*
X-91571Y110370D01*
D02*
G37*
G36*
X-15339Y147500D02*
X-15093Y145000D01*
X-15169Y144985D01*
X-15616Y144833D01*
X-16039Y144624D01*
X-16432Y144362D01*
X-16786Y144051D01*
X-36454Y124383D01*
X-36629Y124318D01*
X-37312Y124231D01*
X-38708Y124402D01*
X-39589Y124784D01*
X-39688Y124897D01*
X-40107Y125264D01*
X-40570Y125573D01*
X-41070Y125820D01*
X-41598Y125999D01*
X-42144Y126108D01*
X-42700Y126144D01*
X-43256Y126108D01*
X-43802Y125999D01*
X-44330Y125820D01*
X-44830Y125573D01*
X-45293Y125264D01*
X-45712Y124897D01*
X-46079Y124478D01*
X-46730Y123939D01*
X-47599Y123748D01*
X-48370Y123935D01*
X-48898Y124114D01*
X-49217Y124178D01*
X-51320Y126280D01*
X-51335Y126348D01*
X-51336Y127780D01*
X-51091Y128674D01*
X-50902Y129036D01*
X-50837Y129069D01*
X-50374Y129378D01*
X-49955Y129745D01*
X-49588Y130164D01*
X-49278Y130628D01*
X-49032Y131127D01*
X-48853Y131655D01*
X-48744Y132201D01*
X-48707Y132757D01*
X-48744Y133313D01*
X-48853Y133859D01*
X-49032Y134387D01*
X-49278Y134887D01*
X-49588Y135350D01*
X-49955Y135769D01*
X-50374Y136136D01*
X-50837Y136446D01*
X-51337Y136692D01*
X-51864Y136871D01*
X-52411Y136980D01*
X-52966Y137016D01*
X-54236Y138793D01*
X-54453Y139344D01*
Y145732D01*
X-52685Y147500D01*
X-15339D01*
D02*
G37*
G36*
X-74000Y138522D02*
Y127536D01*
X-74792Y127208D01*
X-76706Y128580D01*
Y139566D01*
X-75915Y139894D01*
X-74000Y138522D01*
D02*
G37*
G36*
X259578Y133000D02*
X259719Y132909D01*
X260732Y131421D01*
X261051Y130500D01*
X260758Y129864D01*
X260412Y128928D01*
X260141Y127967D01*
X259947Y126988D01*
X259829Y125997D01*
X259790Y125000D01*
X259829Y124003D01*
X259947Y123012D01*
X260141Y122033D01*
X260412Y121072D01*
X260758Y120136D01*
X261175Y119230D01*
X261663Y118359D01*
X262218Y117529D01*
X262835Y116746D01*
X263513Y116013D01*
X264246Y115335D01*
X265029Y114718D01*
X265859Y114163D01*
X266730Y113675D01*
X267636Y113258D01*
X268572Y112912D01*
X269533Y112641D01*
X270512Y112447D01*
X271503Y112329D01*
X272500Y112290D01*
X273497Y112329D01*
X274488Y112447D01*
X275467Y112641D01*
X276428Y112912D01*
X277364Y113258D01*
X278270Y113675D01*
X279141Y114163D01*
X279971Y114718D01*
X280754Y115335D01*
X281487Y116013D01*
X281500Y116027D01*
X284000Y115048D01*
X284000Y-106363D01*
X284000Y-119062D01*
X281500Y-119611D01*
X281325Y-119230D01*
X280837Y-118359D01*
X280282Y-117529D01*
X279665Y-116746D01*
X278987Y-116013D01*
X278254Y-115335D01*
X277471Y-114718D01*
X276641Y-114163D01*
X275770Y-113675D01*
X274864Y-113258D01*
X273927Y-112912D01*
X272967Y-112641D01*
X271988Y-112447D01*
X270997Y-112329D01*
X270000Y-112290D01*
X269003Y-112329D01*
X268012Y-112447D01*
X267033Y-112641D01*
X266073Y-112912D01*
X265136Y-113258D01*
X264230Y-113675D01*
X263359Y-114163D01*
X262529Y-114718D01*
X261746Y-115335D01*
X261013Y-116013D01*
X260335Y-116746D01*
X259718Y-117529D01*
X259163Y-118359D01*
X258676Y-119230D01*
X258258Y-120136D01*
X257912Y-121072D01*
X257641Y-122033D01*
X257447Y-123012D01*
X257329Y-124003D01*
X257290Y-125000D01*
X257329Y-125997D01*
X257447Y-126988D01*
X257641Y-127967D01*
X257912Y-128928D01*
X258258Y-129864D01*
X258551Y-130500D01*
X258232Y-131421D01*
X257219Y-132909D01*
X257079Y-133000D01*
X232065D01*
X231598Y-132851D01*
X229708Y-131852D01*
Y-120573D01*
X229677Y-120188D01*
X229587Y-119813D01*
X229440Y-119457D01*
X229238Y-119128D01*
X228988Y-118835D01*
X228695Y-118585D01*
X228505Y-118234D01*
X228328Y-117685D01*
X228183Y-116920D01*
X228095Y-116216D01*
X228110Y-115866D01*
X228324Y-115517D01*
X228480Y-115139D01*
X228576Y-114741D01*
X228608Y-114333D01*
X228576Y-113925D01*
X228480Y-113527D01*
X228324Y-113149D01*
X228110Y-112800D01*
X227844Y-112489D01*
X227533Y-112223D01*
X227184Y-112009D01*
X226806Y-111853D01*
X226408Y-111757D01*
X226000Y-111725D01*
X225592Y-111757D01*
X225194Y-111853D01*
X224816Y-112009D01*
X224467Y-112223D01*
X224156Y-112489D01*
X223890Y-112800D01*
X223676Y-113149D01*
X223520Y-113527D01*
X223424Y-113925D01*
X223392Y-114333D01*
X223424Y-114741D01*
X223520Y-115139D01*
X223676Y-115517D01*
X223890Y-115866D01*
X223905Y-116216D01*
X223817Y-116920D01*
X223672Y-117685D01*
X223495Y-118234D01*
X223306Y-118585D01*
X223012Y-118835D01*
X222762Y-119128D01*
X222560Y-119457D01*
X222413Y-119813D01*
X222323Y-120188D01*
X222292Y-120573D01*
Y-127983D01*
X219792Y-129749D01*
X219708Y-129719D01*
Y-120573D01*
X219677Y-120188D01*
X219587Y-119813D01*
X219440Y-119457D01*
X219238Y-119128D01*
X218988Y-118835D01*
X218694Y-118585D01*
X218366Y-118383D01*
X218009Y-118236D01*
X217708Y-118163D01*
Y-114923D01*
X217675Y-114589D01*
X217642Y-114480D01*
X217700Y-113848D01*
X217842Y-113386D01*
X218255Y-112306D01*
X218263Y-112290D01*
X218684Y-111721D01*
X219033Y-111508D01*
X219344Y-111242D01*
X219610Y-110931D01*
X219824Y-110582D01*
X219980Y-110204D01*
X220076Y-109806D01*
X220108Y-109398D01*
X220076Y-108990D01*
X219980Y-108592D01*
X219824Y-108214D01*
X219610Y-107865D01*
X219534Y-107775D01*
X227309Y-100000D01*
X263500D01*
X267500Y-95999D01*
X267517Y-83808D01*
X267613Y-83726D01*
X267863Y-83433D01*
X268065Y-83104D01*
X268169Y-82852D01*
X268221Y-82735D01*
X268719Y-81981D01*
X269246Y-81486D01*
X269909Y-81122D01*
X270635Y-80904D01*
X271009Y-80814D01*
X271366Y-80666D01*
X271694Y-80465D01*
X271988Y-80214D01*
X272238Y-79921D01*
X272440Y-79592D01*
X272587Y-79236D01*
X272677Y-78861D01*
X272708Y-78477D01*
X272677Y-78092D01*
X272587Y-77717D01*
X272440Y-77361D01*
X272238Y-77032D01*
X271988Y-76739D01*
X271858Y-76628D01*
Y-75157D01*
X271827Y-74843D01*
X271735Y-74541D01*
X271587Y-74264D01*
X271387Y-74020D01*
X267535Y-70168D01*
X267560Y-50669D01*
X268425Y-48308D01*
X268922Y-48276D01*
X269411Y-48178D01*
X269882Y-48018D01*
X270329Y-47798D01*
X270743Y-47521D01*
X271118Y-47193D01*
X271446Y-46818D01*
X271723Y-46404D01*
X271943Y-45957D01*
X272104Y-45486D01*
X272201Y-44997D01*
X272233Y-44500D01*
X272201Y-44003D01*
X272104Y-43514D01*
X271943Y-43043D01*
X271723Y-42596D01*
X271446Y-42182D01*
X271118Y-41807D01*
X270743Y-41479D01*
X270329Y-41202D01*
X269882Y-40982D01*
X269411Y-40822D01*
X268922Y-40724D01*
X268425Y-40692D01*
X267577Y-38322D01*
X267593Y-25686D01*
X268425Y-23308D01*
X268922Y-23276D01*
X269411Y-23178D01*
X269882Y-23018D01*
X270329Y-22798D01*
X270743Y-22521D01*
X271118Y-22193D01*
X271446Y-21818D01*
X271723Y-21404D01*
X271943Y-20957D01*
X272104Y-20486D01*
X272201Y-19997D01*
X272233Y-19500D01*
X272201Y-19003D01*
X272104Y-18514D01*
X271943Y-18043D01*
X271723Y-17596D01*
X271446Y-17182D01*
X271118Y-16807D01*
X270743Y-16479D01*
X270329Y-16202D01*
X269882Y-15982D01*
X269411Y-15822D01*
X268922Y-15724D01*
X268425Y-15692D01*
X267610Y-13306D01*
X267626Y-702D01*
X268425Y1692D01*
X268922Y1724D01*
X269411Y1822D01*
X269882Y1982D01*
X270329Y2202D01*
X270743Y2479D01*
X271118Y2807D01*
X271446Y3182D01*
X271723Y3596D01*
X271943Y4043D01*
X272104Y4514D01*
X272201Y5003D01*
X272233Y5500D01*
X272201Y5997D01*
X272104Y6486D01*
X271943Y6957D01*
X271723Y7404D01*
X271446Y7818D01*
X271118Y8193D01*
X270743Y8521D01*
X270329Y8798D01*
X269882Y9018D01*
X269411Y9178D01*
X268922Y9276D01*
X268425Y9308D01*
X267643Y11710D01*
X267647Y14727D01*
X269334Y16528D01*
X271834Y17052D01*
X271953Y17042D01*
X272338Y17073D01*
X272713Y17163D01*
X273069Y17310D01*
X273398Y17512D01*
X273691Y17762D01*
X273941Y18056D01*
X274143Y18384D01*
X274290Y18741D01*
X274380Y19116D01*
X274411Y19500D01*
X274380Y19884D01*
X274290Y20259D01*
X274143Y20616D01*
X273941Y20944D01*
X273691Y21238D01*
X273398Y21488D01*
X273069Y21690D01*
X272713Y21837D01*
X272338Y21927D01*
X271953Y21958D01*
X271834Y21948D01*
X269334Y22472D01*
X267659Y24148D01*
X267659Y24293D01*
X268425Y26704D01*
X268922Y26736D01*
X269411Y26833D01*
X269882Y26994D01*
X270329Y27214D01*
X270743Y27491D01*
X271118Y27819D01*
X271446Y28194D01*
X271723Y28608D01*
X271943Y29054D01*
X272104Y29526D01*
X272201Y30015D01*
X272233Y30512D01*
X272201Y31009D01*
X272104Y31497D01*
X271943Y31969D01*
X271723Y32416D01*
X271446Y32830D01*
X271118Y33205D01*
X270743Y33533D01*
X270329Y33810D01*
X269882Y34030D01*
X269411Y34190D01*
X268922Y34287D01*
X268425Y34320D01*
X267676Y36738D01*
X267750Y92750D01*
X262500Y98000D01*
X225632D01*
Y108224D01*
X226000Y110703D01*
X226408Y110735D01*
X226806Y110830D01*
X227184Y110987D01*
X227533Y111201D01*
X227844Y111466D01*
X228110Y111778D01*
X228324Y112127D01*
X228480Y112505D01*
X228576Y112902D01*
X228608Y113311D01*
X228576Y113718D01*
X228480Y114117D01*
X228324Y114495D01*
X228110Y114843D01*
X227844Y115155D01*
X227558Y115849D01*
X228009Y118236D01*
X228366Y118383D01*
X228695Y118585D01*
X228988Y118835D01*
X229238Y119128D01*
X229440Y119457D01*
X229587Y119813D01*
X229594Y119841D01*
X230748Y120286D01*
X231685Y120371D01*
X232094Y120299D01*
X232257Y119969D01*
X232527Y119566D01*
X232847Y119201D01*
X233211Y118881D01*
X233614Y118612D01*
X234050Y118397D01*
X234509Y118241D01*
X234984Y118147D01*
X235469Y118115D01*
X240469D01*
X240952Y118147D01*
X241428Y118241D01*
X241887Y118397D01*
X242322Y118612D01*
X242726Y118881D01*
X243090Y119201D01*
X243410Y119566D01*
X243680Y119969D01*
X243894Y120404D01*
X244050Y120863D01*
X244145Y121339D01*
X244176Y121823D01*
Y130500D01*
X244188Y130621D01*
X245281Y132348D01*
X245459Y132546D01*
X246047Y132958D01*
X246145Y133000D01*
X259578D01*
D02*
G37*
G36*
X-108390Y130488D02*
X-107304Y128438D01*
Y122614D01*
X-107304D01*
Y122453D01*
X-107304D01*
Y114838D01*
X-110837Y111304D01*
X-122749D01*
X-123076Y111536D01*
X-123567Y111807D01*
X-124086Y112022D01*
X-124371Y112104D01*
X-124971Y112357D01*
X-125378Y112909D01*
X-125609Y113314D01*
X-126105Y114517D01*
X-126098Y114787D01*
X-126028Y115081D01*
X-125991Y115551D01*
X-125991Y128716D01*
X-123491Y130488D01*
X-108390D01*
D02*
G37*
G36*
X92787Y124110D02*
X97665Y124110D01*
X98372Y123403D01*
Y118558D01*
X97372Y118024D01*
X97185Y118149D01*
X96256Y118333D01*
X95327Y118149D01*
X94539Y117622D01*
X94013Y116835D01*
X93828Y115905D01*
X94013Y114976D01*
X94539Y114189D01*
X94693Y114086D01*
X94890Y113850D01*
Y106150D01*
X97665D01*
X98372Y105443D01*
Y101226D01*
X94020D01*
X93313Y101934D01*
Y107549D01*
X90079D01*
X89372Y108256D01*
Y112451D01*
X89376D01*
Y112884D01*
Y121525D01*
D01*
D01*
X87260D01*
Y124988D01*
X92787D01*
Y124110D01*
D02*
G37*
G36*
X125293Y52489D02*
X126109Y50982D01*
X126105Y50962D01*
X126069Y50406D01*
X126105Y49850D01*
X126214Y49303D01*
X126393Y48776D01*
X126639Y48276D01*
X126949Y47813D01*
X127316Y47394D01*
X127735Y47027D01*
X128198Y46717D01*
X128698Y46471D01*
X129226Y46292D01*
X129722Y46193D01*
X130035Y45879D01*
X131246Y43618D01*
X130865Y43184D01*
X130545Y42705D01*
X130290Y42187D01*
X130104Y41641D01*
X130066Y41446D01*
X129660Y41040D01*
X127579Y39628D01*
X127220Y39935D01*
X126817Y40181D01*
X126381Y40362D01*
X125922Y40472D01*
X125451Y40509D01*
X98772Y40509D01*
Y46771D01*
X98875Y46777D01*
X99421Y46886D01*
X99949Y47065D01*
X100448Y47311D01*
X100912Y47621D01*
X101330Y47988D01*
X101698Y48407D01*
X102007Y48870D01*
X102254Y49370D01*
X102433Y49898D01*
X102542Y50444D01*
X102578Y51000D01*
X102869Y51489D01*
X104875Y51944D01*
X105440Y51365D01*
X106350Y50253D01*
X106323Y49845D01*
X106361Y49269D01*
X106473Y48704D01*
X106658Y48158D01*
X106914Y47640D01*
X107234Y47161D01*
X107614Y46727D01*
X108048Y46347D01*
X108528Y46026D01*
X109045Y45771D01*
X109591Y45586D01*
X110157Y45473D01*
X110732Y45436D01*
X111308Y45473D01*
X111873Y45586D01*
X112420Y45771D01*
X112937Y46026D01*
X113417Y46347D01*
X113903Y46696D01*
X114450Y46382D01*
X114883Y46002D01*
X115363Y45681D01*
X115880Y45426D01*
X116427Y45241D01*
X116992Y45128D01*
X117568Y45091D01*
X118143Y45128D01*
X118709Y45241D01*
X119255Y45426D01*
X119773Y45681D01*
X120252Y46002D01*
X120686Y46382D01*
X121066Y46816D01*
X121387Y47295D01*
X121642Y47813D01*
X121827Y48359D01*
X121940Y48924D01*
X121977Y49500D01*
X121940Y50076D01*
X121827Y50641D01*
X123299Y52675D01*
X123768Y52809D01*
X125293Y52489D01*
D02*
G37*
G36*
X-189136Y112500D02*
X-186708Y111852D01*
Y100573D01*
X-186677Y100188D01*
X-186587Y99813D01*
X-186440Y99457D01*
X-186238Y99128D01*
X-186047Y98773D01*
X-185626Y97558D01*
X-185532Y96139D01*
X-185537Y96072D01*
X-185576Y95908D01*
X-185608Y95500D01*
X-185576Y95092D01*
X-185480Y94694D01*
X-185324Y94316D01*
X-185110Y93967D01*
X-184844Y93656D01*
X-184533Y93390D01*
X-184184Y93176D01*
X-183806Y93020D01*
X-183572Y92963D01*
X-182838Y92047D01*
X-182618Y91637D01*
X-182270Y90496D01*
X-188543Y78787D01*
X-190110Y78787D01*
X-190578Y78787D01*
X-190578Y78787D01*
X-190898Y78864D01*
X-191542Y81038D01*
X-191494Y81287D01*
X-191182Y81495D01*
X-190807Y81824D01*
X-190479Y82198D01*
X-190202Y82612D01*
X-189982Y83059D01*
X-189822Y83531D01*
X-189724Y84019D01*
X-189692Y84517D01*
X-189724Y85014D01*
X-189822Y85502D01*
X-189982Y85974D01*
X-190202Y86421D01*
X-190479Y86835D01*
X-190807Y87209D01*
X-191182Y87538D01*
X-191596Y87814D01*
X-192043Y88035D01*
X-192514Y88195D01*
X-193003Y88292D01*
X-193500Y88325D01*
X-193997Y88292D01*
X-194486Y88195D01*
X-194957Y88035D01*
X-195404Y87814D01*
X-195818Y87538D01*
X-196193Y87209D01*
X-196521Y86835D01*
X-196798Y86421D01*
X-197018Y85974D01*
X-197178Y85502D01*
X-197276Y85014D01*
X-197308Y84517D01*
X-197276Y84019D01*
X-197178Y83531D01*
X-197018Y83059D01*
X-196798Y82612D01*
X-196521Y82198D01*
X-196193Y81824D01*
X-195818Y81495D01*
X-195404Y81218D01*
X-194957Y80998D01*
X-194486Y80838D01*
X-193997Y80741D01*
X-193897Y80734D01*
X-193896Y80734D01*
X-192958Y79365D01*
X-192590Y78452D01*
X-192562Y78298D01*
X-192562Y77220D01*
Y74024D01*
Y71487D01*
X-194370Y69688D01*
X-194870Y69935D01*
X-195398Y70114D01*
X-195944Y70223D01*
X-196500Y70259D01*
X-197056Y70223D01*
X-197602Y70114D01*
X-198130Y69935D01*
X-198630Y69688D01*
X-199093Y69379D01*
X-199512Y69012D01*
X-199879Y68593D01*
X-200188Y68130D01*
X-200435Y67630D01*
X-200614Y67102D01*
X-200723Y66556D01*
X-200759Y66000D01*
X-200723Y65444D01*
X-200614Y64898D01*
X-200435Y64370D01*
X-200188Y63870D01*
X-199879Y63407D01*
X-199512Y62988D01*
X-199093Y62621D01*
X-198630Y62312D01*
X-198130Y62065D01*
X-197602Y61886D01*
X-197426Y61851D01*
X-197291Y61732D01*
X-197000Y61538D01*
X-197000Y51000D01*
X-196500Y50500D01*
X-194509D01*
X-192500Y48491D01*
Y41509D01*
X-194509Y39500D01*
X-196500D01*
X-197000Y39000D01*
Y12125D01*
X-203263D01*
Y5591D01*
X-199809D01*
Y1874D01*
X-199844Y1844D01*
X-200110Y1533D01*
X-200324Y1184D01*
X-200480Y806D01*
X-200576Y408D01*
X-200608Y0D01*
X-200576Y-408D01*
X-200480Y-806D01*
X-200324Y-1184D01*
X-200110Y-1533D01*
X-199844Y-1844D01*
X-199533Y-2110D01*
X-198963Y-4265D01*
X-199027Y-4998D01*
X-199408Y-5583D01*
X-199430Y-5591D01*
X-203263D01*
Y-12125D01*
X-197000D01*
Y-15328D01*
Y-27975D01*
X-197060Y-28164D01*
X-197331Y-28645D01*
X-198731Y-30209D01*
X-199228Y-30242D01*
X-199717Y-30339D01*
X-200188Y-30499D01*
X-200635Y-30719D01*
X-201049Y-30996D01*
X-201424Y-31324D01*
X-201752Y-31699D01*
X-202029Y-32113D01*
X-202249Y-32560D01*
X-202409Y-33031D01*
X-202506Y-33520D01*
X-202539Y-34017D01*
X-202506Y-34514D01*
X-202409Y-35003D01*
X-202249Y-35475D01*
X-202029Y-35921D01*
X-201752Y-36335D01*
X-201424Y-36710D01*
X-201049Y-37038D01*
X-200635Y-37315D01*
X-200188Y-37535D01*
X-199717Y-37696D01*
X-199228Y-37793D01*
X-198731Y-37825D01*
X-197000Y-39000D01*
X-196500Y-39500D01*
X-194509D01*
X-192500Y-41509D01*
X-192500Y-48491D01*
X-192500Y-61514D01*
X-194911Y-62271D01*
X-195289Y-62114D01*
X-195687Y-62019D01*
X-196095Y-61987D01*
X-196503Y-62019D01*
X-196901Y-62114D01*
X-197279Y-62271D01*
X-197628Y-62485D01*
X-197939Y-62750D01*
X-198205Y-63061D01*
X-198419Y-63411D01*
X-198575Y-63789D01*
X-198671Y-64187D01*
X-198703Y-64595D01*
X-198671Y-65003D01*
X-198575Y-65400D01*
X-198419Y-65778D01*
X-198342Y-66358D01*
X-198711Y-66979D01*
X-199085Y-67307D01*
X-199414Y-67682D01*
X-199690Y-68096D01*
X-199911Y-68543D01*
X-200071Y-69014D01*
X-200168Y-69503D01*
X-200201Y-70000D01*
X-200168Y-70497D01*
X-200071Y-70986D01*
X-199911Y-71457D01*
X-199690Y-71904D01*
X-199414Y-72318D01*
X-199338Y-72405D01*
X-199301Y-72458D01*
X-198611Y-73892D01*
X-198538Y-74523D01*
X-198690Y-75290D01*
X-198837Y-75646D01*
X-198927Y-76021D01*
X-198958Y-76406D01*
X-198927Y-76790D01*
X-198837Y-77165D01*
X-198690Y-77521D01*
X-198488Y-77850D01*
X-198238Y-78143D01*
X-197944Y-78394D01*
X-197616Y-78595D01*
X-197259Y-78743D01*
X-196884Y-78833D01*
X-196500Y-78863D01*
X-196116Y-78833D01*
X-195741Y-78743D01*
X-195384Y-78595D01*
X-195055Y-78394D01*
X-194522Y-78478D01*
X-192500Y-80689D01*
Y-83500D01*
X-188000Y-88000D01*
X-186724D01*
X-186102Y-88373D01*
X-184708Y-89943D01*
Y-98163D01*
X-185009Y-98235D01*
X-185366Y-98383D01*
X-185695Y-98585D01*
X-185988Y-98835D01*
X-186238Y-99128D01*
X-186440Y-99457D01*
X-186587Y-99813D01*
X-186594Y-99841D01*
X-187748Y-100286D01*
X-188685Y-100371D01*
X-189094Y-100299D01*
X-189257Y-99969D01*
X-189527Y-99566D01*
X-189847Y-99201D01*
X-190211Y-98881D01*
X-190614Y-98612D01*
X-191050Y-98397D01*
X-191509Y-98241D01*
X-191984Y-98147D01*
X-192469Y-98115D01*
X-197468D01*
X-197952Y-98147D01*
X-198428Y-98241D01*
X-198888Y-98397D01*
X-199322Y-98612D01*
X-199726Y-98881D01*
X-200090Y-99201D01*
X-200410Y-99566D01*
X-200680Y-99969D01*
X-200894Y-100404D01*
X-201050Y-100863D01*
X-201145Y-101339D01*
X-201176Y-101823D01*
Y-110602D01*
X-202656Y-112123D01*
X-205031Y-112469D01*
X-211000Y-106500D01*
Y-87054D01*
X-203548D01*
Y-79930D01*
X-209232D01*
X-211000Y-78162D01*
X-211000Y-61070D01*
X-203548D01*
Y-53946D01*
X-208467D01*
X-210051Y-51785D01*
X-209691Y-50220D01*
X-208560Y-49633D01*
X-208500Y-49641D01*
X-208032Y-49721D01*
X-207500Y-49751D01*
X-206968Y-49721D01*
X-206443Y-49632D01*
X-205931Y-49484D01*
X-205439Y-49280D01*
X-204972Y-49023D01*
X-204538Y-48714D01*
X-204141Y-48359D01*
X-203786Y-47962D01*
X-203477Y-47528D01*
X-203220Y-47061D01*
X-203016Y-46569D01*
X-202868Y-46057D01*
X-202779Y-45532D01*
X-202749Y-45000D01*
X-202779Y-44468D01*
X-202868Y-43943D01*
X-203016Y-43431D01*
X-203220Y-42939D01*
X-203477Y-42472D01*
X-203786Y-42038D01*
X-204141Y-41641D01*
X-204538Y-41286D01*
X-204972Y-40977D01*
X-205439Y-40720D01*
X-205931Y-40516D01*
X-206443Y-40368D01*
X-206968Y-40279D01*
X-207500Y-40249D01*
X-208032Y-40279D01*
X-208500Y-40359D01*
X-208560Y-40367D01*
X-210350Y-39439D01*
X-210605Y-39224D01*
X-211000Y-38658D01*
X-211000Y37311D01*
X-210469Y38028D01*
X-209227Y38911D01*
X-208500Y39141D01*
X-208167Y39085D01*
X-207500Y39047D01*
X-206834Y39085D01*
X-206175Y39197D01*
X-205534Y39381D01*
X-204917Y39637D01*
X-204333Y39960D01*
X-203789Y40346D01*
X-203291Y40791D01*
X-202846Y41289D01*
X-202460Y41833D01*
X-202137Y42417D01*
X-201881Y43034D01*
X-201697Y43675D01*
X-201585Y44333D01*
X-201547Y45000D01*
X-201585Y45667D01*
X-201697Y46325D01*
X-201881Y46966D01*
X-202137Y47583D01*
X-202460Y48167D01*
X-202846Y48711D01*
X-203291Y49209D01*
X-203789Y49654D01*
X-204333Y50040D01*
X-204917Y50363D01*
X-205534Y50619D01*
X-206175Y50803D01*
X-206834Y50915D01*
X-207265Y50940D01*
X-207653Y51129D01*
X-208898Y52560D01*
X-209099Y53418D01*
X-208999Y53731D01*
X-208820Y53946D01*
X-203548D01*
Y61070D01*
X-209232D01*
X-211000Y62838D01*
X-211000Y79930D01*
X-203548D01*
Y87054D01*
X-209232D01*
X-211000Y88822D01*
Y106506D01*
X-205006Y112500D01*
X-189136Y112500D01*
D02*
G37*
G36*
X39023Y58982D02*
X40456Y58315D01*
Y44595D01*
X39638Y43851D01*
X38069Y43124D01*
X37542Y43303D01*
X36995Y43412D01*
X36439Y43448D01*
X35883Y43412D01*
X34632Y43600D01*
X34435Y44130D01*
X34189Y44630D01*
X33879Y45093D01*
X33512Y45512D01*
X33093Y45879D01*
X32630Y46189D01*
X32130Y46435D01*
X31602Y46614D01*
X31056Y46723D01*
X30500Y46759D01*
X29944Y46723D01*
X29398Y46614D01*
X28870Y46435D01*
X28370Y46189D01*
X27907Y45879D01*
X27488Y45512D01*
X27121Y45093D01*
X26812Y44630D01*
X26565Y44130D01*
X26386Y43602D01*
X26277Y43056D01*
X26277Y43045D01*
X13664Y30432D01*
X4191D01*
X3234Y32742D01*
X5835Y35342D01*
X8164D01*
X8622Y35372D01*
X9072Y35462D01*
X9506Y35609D01*
X9918Y35812D01*
X10299Y36067D01*
X10644Y36370D01*
X24309Y50035D01*
X24630Y49876D01*
X25157Y49697D01*
X25704Y49589D01*
X26260Y49552D01*
X26816Y49589D01*
X27362Y49697D01*
X27890Y49876D01*
X28389Y50123D01*
X28853Y50432D01*
X29272Y50800D01*
X29639Y51218D01*
X29948Y51682D01*
X30195Y52181D01*
X30374Y52709D01*
X30385Y52765D01*
X30760Y52741D01*
X31316Y52777D01*
X31862Y52886D01*
X32390Y53065D01*
X32889Y53312D01*
X33353Y53621D01*
X33771Y53988D01*
X34139Y54407D01*
X34448Y54870D01*
X34695Y55370D01*
X34874Y55898D01*
X34982Y56444D01*
X35019Y57000D01*
X35001Y57274D01*
X35056Y57277D01*
X35602Y57386D01*
X36130Y57565D01*
X36630Y57811D01*
X37093Y58121D01*
X37512Y58488D01*
X37879Y58907D01*
X37956Y59022D01*
X39023Y58982D01*
D02*
G37*
G36*
X225967Y50694D02*
X226307Y50581D01*
X226309Y50579D01*
X226750Y49879D01*
Y31913D01*
X213900Y19063D01*
X213085Y18884D01*
X212497Y18917D01*
X210714Y19412D01*
X210699Y19429D01*
X210265Y19810D01*
X209786Y20130D01*
X209268Y20385D01*
X208722Y20571D01*
X208157Y20683D01*
X207581Y20721D01*
X207006Y20683D01*
X206440Y20571D01*
X205894Y20385D01*
X205376Y20130D01*
X205211Y20019D01*
X204594D01*
X204110Y19988D01*
X203635Y19893D01*
X203175Y19737D01*
X202740Y19523D01*
X202337Y19253D01*
X201973Y18933D01*
X201187Y18148D01*
X200503Y18168D01*
X199813Y18354D01*
X198589Y19011D01*
X198571Y19102D01*
X198427Y19524D01*
X198230Y19924D01*
X197983Y20295D01*
X197689Y20630D01*
X194409Y23909D01*
X194074Y24203D01*
X193704Y24451D01*
X193304Y24648D01*
X192882Y24791D01*
X192445Y24878D01*
X192000Y24907D01*
X148737D01*
X148567Y25405D01*
X148321Y25905D01*
X148011Y26368D01*
X147644Y26787D01*
X147225Y27155D01*
X146762Y27464D01*
X146262Y27711D01*
X145735Y27890D01*
X145188Y27998D01*
X144632Y28035D01*
X144077Y27998D01*
X143530Y27890D01*
X143003Y27711D01*
X142503Y27464D01*
X142040Y27155D01*
X141621Y26787D01*
X141253Y26368D01*
X140944Y25905D01*
X140698Y25405D01*
X140518Y24878D01*
X140410Y24331D01*
X140373Y23776D01*
X140410Y23220D01*
X140518Y22673D01*
X140698Y22146D01*
X140314Y21617D01*
X139910Y21348D01*
X139546Y21028D01*
X132499Y13981D01*
X129999Y15017D01*
Y18651D01*
X130151Y18703D01*
X130651Y18949D01*
X131114Y19259D01*
X131533Y19626D01*
X131900Y20045D01*
X132210Y20508D01*
X132456Y21008D01*
X132635Y21535D01*
X132744Y22082D01*
X132766Y22428D01*
X133391Y24669D01*
X133391D01*
X133391Y24669D01*
Y29984D01*
Y34284D01*
X135309Y36202D01*
X135505Y36241D01*
X136051Y36426D01*
X136568Y36681D01*
X137048Y37002D01*
X137481Y37382D01*
X137862Y37816D01*
X138182Y38295D01*
X138437Y38813D01*
X138623Y39359D01*
X138735Y39924D01*
X138773Y40500D01*
X141237Y41124D01*
X181307D01*
X192037Y30394D01*
X192136Y29898D01*
X192315Y29370D01*
X192561Y28870D01*
X192871Y28407D01*
X193238Y27988D01*
X193657Y27621D01*
X194120Y27312D01*
X194620Y27065D01*
X195148Y26886D01*
X195694Y26777D01*
X196250Y26741D01*
X196806Y26777D01*
X197352Y26886D01*
X197880Y27065D01*
X198380Y27312D01*
X198843Y27621D01*
X199262Y27988D01*
X199629Y28407D01*
X199938Y28870D01*
X200185Y29370D01*
X200364Y29898D01*
X200473Y30444D01*
X200509Y31000D01*
X200473Y31556D01*
X200364Y32102D01*
X200185Y32630D01*
X199967Y33072D01*
X200325Y33312D01*
X200744Y33679D01*
X201112Y34098D01*
X201421Y34561D01*
X201668Y35061D01*
X201847Y35588D01*
X202338Y36428D01*
X203062Y36984D01*
X204000Y37241D01*
X204556Y37277D01*
X205102Y37386D01*
X205630Y37565D01*
X206130Y37811D01*
X206593Y38121D01*
X207012Y38488D01*
X207379Y38907D01*
X207688Y39370D01*
X207935Y39870D01*
X208114Y40398D01*
X208223Y40944D01*
X208259Y41500D01*
X208223Y42056D01*
X208114Y42602D01*
X207935Y43130D01*
X207688Y43630D01*
X207379Y44093D01*
X207012Y44512D01*
X206593Y44879D01*
X206130Y45189D01*
X205630Y45435D01*
X205102Y45614D01*
X205016Y45631D01*
X203839Y47256D01*
X204967Y49593D01*
X216059D01*
X216363Y49247D01*
X216393Y48288D01*
X216288Y47920D01*
X215518Y46423D01*
X215370Y46373D01*
X214870Y46126D01*
X214407Y45817D01*
X213988Y45450D01*
X213621Y45031D01*
X213312Y44567D01*
X213065Y44068D01*
X212886Y43540D01*
X212777Y42994D01*
X212741Y42438D01*
X212777Y41882D01*
X212886Y41336D01*
X213065Y40808D01*
X213312Y40308D01*
X213621Y39845D01*
X213988Y39426D01*
X214407Y39059D01*
X214870Y38749D01*
X215370Y38503D01*
X215898Y38324D01*
X216444Y38215D01*
X217000Y38179D01*
X217556Y38215D01*
X218102Y38324D01*
X218630Y38503D01*
X219130Y38749D01*
X219593Y39059D01*
X220012Y39426D01*
X220379Y39845D01*
X220689Y40308D01*
X220935Y40808D01*
X221114Y41336D01*
X221223Y41882D01*
X221259Y42438D01*
X221223Y42994D01*
X221114Y43540D01*
X220935Y44068D01*
X220689Y44567D01*
X220379Y45031D01*
X220012Y45450D01*
X219610Y45802D01*
Y45802D01*
X219747Y45681D01*
X219607Y45818D01*
X219594Y45890D01*
X219625Y47249D01*
X219845Y47890D01*
X220470Y48752D01*
X220556Y48777D01*
X221102Y48886D01*
X221630Y49065D01*
X222130Y49312D01*
X222593Y49621D01*
X223012Y49988D01*
X223379Y50407D01*
X223689Y50870D01*
X225967Y50694D01*
D02*
G37*
G36*
X162796Y147500D02*
X168991Y141305D01*
X168991Y135552D01*
X169028Y135081D01*
X169500Y133000D01*
X169500Y133000D01*
X171330Y131382D01*
X171491Y131232D01*
X171491Y103000D01*
X171528Y102529D01*
X171638Y102070D01*
X171819Y101634D01*
X172065Y101231D01*
X172372Y100872D01*
X177372Y95872D01*
X177731Y95565D01*
X178134Y95319D01*
X178570Y95138D01*
X179029Y95028D01*
X179500Y94991D01*
X214617D01*
Y91107D01*
X214647Y90649D01*
X214736Y90200D01*
X214884Y89765D01*
X215087Y89354D01*
X215341Y88972D01*
X215644Y88627D01*
X226750Y77521D01*
Y63993D01*
X226500Y63759D01*
X225944Y63723D01*
X225398Y63614D01*
X224870Y63435D01*
X224370Y63188D01*
X223926Y62892D01*
X223722Y62878D01*
X223285Y62791D01*
X222863Y62648D01*
X222463Y62451D01*
X222092Y62203D01*
X221757Y61909D01*
X220952Y61105D01*
X220346Y61269D01*
X220154Y61567D01*
X219780Y63087D01*
X219794Y64009D01*
X220158Y64342D01*
X220671Y64902D01*
X221133Y65505D01*
X221542Y66146D01*
X221892Y66820D01*
X222183Y67522D01*
X222412Y68246D01*
X222576Y68988D01*
X222675Y69741D01*
X222708Y70500D01*
X222675Y71259D01*
X222576Y72012D01*
X222412Y72754D01*
X222183Y73478D01*
X221892Y74180D01*
X221542Y74854D01*
X221133Y75495D01*
X220671Y76098D01*
X220158Y76658D01*
X219598Y77171D01*
X218995Y77633D01*
X218354Y78042D01*
X217680Y78392D01*
X216978Y78683D01*
X216254Y78912D01*
X215512Y79076D01*
X214759Y79175D01*
X214000Y79208D01*
X213241Y79175D01*
X212488Y79076D01*
X211746Y78912D01*
X211022Y78683D01*
X210320Y78392D01*
X209646Y78042D01*
X209005Y77633D01*
X208402Y77171D01*
X207842Y76658D01*
X207329Y76098D01*
X206867Y75495D01*
X206458Y74854D01*
X206108Y74180D01*
X205817Y73478D01*
X205588Y72754D01*
X205424Y72012D01*
X205325Y71259D01*
X205292Y70500D01*
X205325Y69741D01*
X205424Y68988D01*
X205588Y68246D01*
X205817Y67522D01*
X206108Y66820D01*
X206458Y66146D01*
X206867Y65505D01*
X207329Y64902D01*
X207842Y64342D01*
X208402Y63829D01*
X209005Y63367D01*
X209646Y62958D01*
X210320Y62608D01*
X211022Y62317D01*
X211746Y62088D01*
X212488Y61924D01*
X213241Y61825D01*
X213643Y61807D01*
X213588Y59307D01*
X195511D01*
X192617Y62201D01*
X192666Y62444D01*
X192702Y63000D01*
X192666Y63556D01*
X192557Y64102D01*
X192378Y64630D01*
X192131Y65130D01*
X191822Y65593D01*
X191455Y66012D01*
X191036Y66379D01*
X190573Y66689D01*
X190073Y66935D01*
X189545Y67114D01*
X188999Y67223D01*
X188443Y67259D01*
X187887Y67223D01*
X187341Y67114D01*
X186813Y66935D01*
X186563Y67177D01*
X186367Y67627D01*
X186213Y69856D01*
X186403Y70212D01*
X186520Y70598D01*
X186560Y71000D01*
X186520Y71402D01*
X186403Y71788D01*
X186213Y72144D01*
X185957Y72457D01*
X185644Y72713D01*
X185639Y72716D01*
X185723Y73135D01*
X185759Y73691D01*
X185723Y74247D01*
X185614Y74793D01*
X185435Y75321D01*
X185188Y75820D01*
X184907Y76241D01*
Y80568D01*
X184883Y80940D01*
X184957Y81000D01*
X185213Y81312D01*
X185403Y81668D01*
X185520Y82055D01*
X185560Y82457D01*
X185520Y82859D01*
X185403Y83245D01*
X185213Y83601D01*
X184957Y83913D01*
X184644Y84169D01*
X184502Y84246D01*
X184519Y84500D01*
X184482Y85056D01*
X184373Y85602D01*
X184194Y86130D01*
X183948Y86630D01*
X183639Y87093D01*
X183271Y87512D01*
X182852Y87879D01*
X182389Y88188D01*
X181889Y88435D01*
X181362Y88614D01*
X180815Y88723D01*
X180260Y88759D01*
X179704Y88723D01*
X179157Y88614D01*
X178630Y88435D01*
X178130Y88188D01*
X177667Y87879D01*
X177248Y87512D01*
X176881Y87093D01*
X176571Y86630D01*
X176325Y86130D01*
X176146Y85602D01*
X176037Y85056D01*
X176000Y84500D01*
X176037Y83944D01*
X176146Y83398D01*
X176325Y82870D01*
X176571Y82370D01*
X176881Y81907D01*
X177248Y81488D01*
X177343Y81405D01*
Y81318D01*
X177372Y80873D01*
X177459Y80436D01*
X177602Y80014D01*
X177799Y79614D01*
X178047Y79243D01*
X178093Y79191D01*
Y76459D01*
X175909Y75477D01*
X175021Y75560D01*
X165833Y84748D01*
X165498Y85042D01*
X165128Y85289D01*
X164728Y85487D01*
X164306Y85630D01*
X163869Y85717D01*
X163424Y85746D01*
X155646D01*
X154921Y86288D01*
X153867Y88227D01*
X153868Y88246D01*
X153899Y88725D01*
Y92803D01*
X156231Y93727D01*
X159354D01*
X159437Y93480D01*
X159684Y92981D01*
X159993Y92518D01*
X160360Y92099D01*
X160779Y91731D01*
X161242Y91422D01*
X161742Y91176D01*
X162270Y90996D01*
X162816Y90888D01*
X163372Y90851D01*
X163928Y90888D01*
X164474Y90996D01*
X165002Y91176D01*
X165502Y91422D01*
X165965Y91731D01*
X166384Y92099D01*
X166751Y92518D01*
X167061Y92981D01*
X167307Y93480D01*
X167486Y94008D01*
X167595Y94555D01*
X167631Y95110D01*
X167595Y95666D01*
X167486Y96213D01*
X167307Y96740D01*
X167061Y97240D01*
X166751Y97703D01*
X166384Y98122D01*
X165965Y98489D01*
X165502Y98799D01*
X165002Y99045D01*
X164474Y99224D01*
X163978Y99323D01*
X163758Y99543D01*
X163423Y99837D01*
X163052Y100085D01*
X162653Y100282D01*
X162231Y100425D01*
X161793Y100512D01*
X161349Y100541D01*
X144530D01*
X143573Y102851D01*
X144852Y104130D01*
X145155Y104475D01*
X145410Y104857D01*
X145613Y105268D01*
X145760Y105703D01*
X145850Y106153D01*
X145880Y106610D01*
Y129111D01*
X147201Y130433D01*
X147521Y130496D01*
X148048Y130675D01*
X148548Y130922D01*
X149011Y131231D01*
X149430Y131599D01*
X149798Y132018D01*
X150107Y132481D01*
X150354Y132981D01*
X150533Y133508D01*
X150641Y134055D01*
X150678Y134610D01*
X150641Y135166D01*
X150533Y135713D01*
X150354Y136240D01*
X150107Y136740D01*
X149798Y137203D01*
X149430Y137622D01*
X149011Y137989D01*
X148548Y138299D01*
X148048Y138545D01*
X147521Y138724D01*
X146975Y138833D01*
X146419Y138870D01*
X145863Y138833D01*
X145316Y138724D01*
X144789Y138545D01*
X144289Y138299D01*
X143826Y137989D01*
X143407Y137622D01*
X143040Y137203D01*
X142730Y136740D01*
X142484Y136240D01*
X142305Y135713D01*
X142241Y135393D01*
X139892Y133044D01*
X139589Y132699D01*
X139334Y132318D01*
X139131Y131906D01*
X138984Y131472D01*
X138895Y131022D01*
X138865Y130564D01*
Y119095D01*
X137927Y118479D01*
X137033Y118218D01*
X136364Y118174D01*
X117119Y137420D01*
X116783Y137714D01*
X116413Y137961D01*
X116013Y138158D01*
X115591Y138302D01*
X115154Y138389D01*
X114709Y138418D01*
X84035D01*
X83590Y138389D01*
X83153Y138302D01*
X82731Y138158D01*
X82331Y137961D01*
X81961Y137714D01*
X81625Y137420D01*
X70028Y125822D01*
X69734Y125487D01*
X69633Y125336D01*
X69579Y125305D01*
X69308Y125171D01*
X68951Y125052D01*
X67458Y124875D01*
X66784Y125016D01*
X63169Y128631D01*
X62834Y128925D01*
X62463Y129173D01*
X62063Y129370D01*
X61641Y129513D01*
X61204Y129600D01*
X60760Y129629D01*
X57105D01*
X54053Y132681D01*
X53718Y132975D01*
X53348Y133222D01*
X52948Y133420D01*
X52526Y133563D01*
X52089Y133650D01*
X51644Y133679D01*
X39428D01*
X39007Y133960D01*
X38507Y134207D01*
X37980Y134386D01*
X37433Y134494D01*
X36878Y134531D01*
X36322Y134494D01*
X35775Y134386D01*
X35248Y134207D01*
X34748Y133960D01*
X34285Y133651D01*
X33866Y133283D01*
X33499Y132864D01*
X33189Y132401D01*
X32952Y131921D01*
X32775Y131886D01*
X32248Y131707D01*
X31748Y131460D01*
X31285Y131151D01*
X30866Y130783D01*
X30499Y130365D01*
X30189Y129901D01*
X29943Y129402D01*
X29764Y128874D01*
X29655Y128328D01*
X29618Y127772D01*
X29655Y127216D01*
X28583Y125339D01*
X28295Y125015D01*
X27933Y124768D01*
X24033D01*
X17281Y131520D01*
X16946Y131814D01*
X16576Y132061D01*
X16176Y132258D01*
X15754Y132402D01*
X15317Y132489D01*
X14872Y132518D01*
X-14849D01*
X-15806Y134827D01*
X-12741Y137892D01*
X-701D01*
X-255Y137594D01*
X274Y137334D01*
X833Y137144D01*
X1411Y137029D01*
X2000Y136990D01*
X2589Y137029D01*
X3167Y137144D01*
X3726Y137334D01*
X4255Y137594D01*
X4745Y137922D01*
X5189Y138311D01*
X5578Y138755D01*
X5906Y139245D01*
X6166Y139774D01*
X6356Y140333D01*
X6471Y140911D01*
X6510Y141500D01*
X6471Y142089D01*
X6356Y142667D01*
X6166Y143226D01*
X5906Y143755D01*
X5578Y144245D01*
X5189Y144689D01*
X4834Y145000D01*
X4829Y145304D01*
X5610Y147500D01*
X162796Y147500D01*
D02*
G37*
G36*
X63349Y75745D02*
X63271Y75630D01*
X63025Y75130D01*
X62846Y74602D01*
X62737Y74056D01*
X62701Y73500D01*
X62737Y72944D01*
X62846Y72398D01*
X63025Y71870D01*
X63271Y71370D01*
X63463Y70472D01*
X63227Y69601D01*
X62748Y69012D01*
X62381Y68593D01*
X62071Y68130D01*
X61825Y67630D01*
X61646Y67102D01*
X61537Y66556D01*
X61501Y66000D01*
X61537Y65444D01*
X61646Y64898D01*
X61825Y64370D01*
X62071Y63870D01*
X62381Y63407D01*
X62748Y62988D01*
X63167Y62621D01*
X63630Y62312D01*
X64130Y62065D01*
X64657Y61886D01*
X65204Y61777D01*
X65760Y61741D01*
X66316Y61777D01*
X66862Y61886D01*
X67390Y62065D01*
X67889Y62312D01*
X69652Y62157D01*
X70019Y61738D01*
X70438Y61371D01*
X70901Y61062D01*
X71401Y60815D01*
X71929Y60636D01*
X72475Y60527D01*
X73031Y60491D01*
X73393Y60152D01*
Y59000D01*
X73423Y58542D01*
X73512Y58092D01*
X73660Y57658D01*
X73862Y57246D01*
X74117Y56865D01*
X74420Y56520D01*
X74804Y56136D01*
X74899Y55869D01*
X74962Y55254D01*
X74739Y53691D01*
X74403Y53001D01*
X74256Y52873D01*
X73889Y52454D01*
X73579Y51990D01*
X73333Y51491D01*
X73154Y50963D01*
X73045Y50417D01*
X73009Y49861D01*
X73045Y49305D01*
X73154Y48759D01*
X73333Y48231D01*
X73579Y47731D01*
X73889Y47268D01*
X74256Y46849D01*
X74675Y46482D01*
X75138Y46172D01*
X75638Y45926D01*
X76165Y45747D01*
X76712Y45638D01*
X77268Y45602D01*
X77824Y45638D01*
X78370Y45747D01*
X78898Y45926D01*
X79397Y46172D01*
X79861Y46482D01*
X80165Y46749D01*
X80673Y46499D01*
X81220Y46314D01*
X81785Y46201D01*
X82361Y46163D01*
X84074Y44753D01*
X84317Y44444D01*
X84504Y44014D01*
Y41775D01*
X84367Y41351D01*
X83173Y39417D01*
X82617Y39380D01*
X82071Y39272D01*
X81543Y39092D01*
X81286Y38966D01*
X81123D01*
X80866Y39092D01*
X80339Y39272D01*
X79792Y39380D01*
X79236Y39417D01*
X78680Y39380D01*
X78134Y39272D01*
X77606Y39092D01*
X77349Y38966D01*
X77229D01*
X76972Y39092D01*
X76445Y39272D01*
X75898Y39380D01*
X75343Y39417D01*
X74787Y39380D01*
X74240Y39272D01*
X73713Y39092D01*
X73213Y38846D01*
X72750Y38537D01*
X71841Y38169D01*
X70927D01*
X70018Y38537D01*
X69555Y38846D01*
X69055Y39092D01*
X68528Y39272D01*
X67981Y39380D01*
X67425Y39417D01*
X66869Y39380D01*
X66323Y39272D01*
X65795Y39092D01*
X65296Y38846D01*
X64832Y38537D01*
X64413Y38169D01*
X64046Y37750D01*
X63737Y37287D01*
X63490Y36787D01*
X63332Y36321D01*
X63076Y36372D01*
X62500Y36409D01*
X61924Y36372D01*
X61359Y36259D01*
X60813Y36074D01*
X60295Y35819D01*
X59970Y35601D01*
X59110Y35789D01*
X58087Y36209D01*
X57470Y36730D01*
Y73402D01*
X61407Y77339D01*
X63349Y75745D01*
D02*
G37*
%LPC*%
G36*
X91454Y-105091D02*
X90878Y-105128D01*
X90312Y-105241D01*
X89766Y-105426D01*
X89249Y-105681D01*
X88770Y-106002D01*
X88336Y-106382D01*
X87956Y-106816D01*
X87635Y-107295D01*
X87380Y-107813D01*
X87195Y-108359D01*
X87082Y-108924D01*
X87044Y-109500D01*
X87082Y-110076D01*
X87195Y-110641D01*
X87380Y-111187D01*
X87635Y-111705D01*
X87956Y-112184D01*
X88336Y-112618D01*
X88770Y-112998D01*
X89249Y-113319D01*
X89766Y-113574D01*
X90312Y-113759D01*
X90878Y-113872D01*
X91454Y-113909D01*
X92029Y-113872D01*
X92595Y-113759D01*
X93141Y-113574D01*
X93659Y-113319D01*
X94138Y-112998D01*
X94572Y-112618D01*
X94952Y-112184D01*
X95272Y-111705D01*
X95528Y-111187D01*
X95713Y-110641D01*
X95825Y-110076D01*
X95863Y-109500D01*
X95825Y-108924D01*
X95713Y-108359D01*
X95528Y-107813D01*
X95272Y-107295D01*
X94952Y-106816D01*
X94572Y-106382D01*
X94138Y-106002D01*
X93659Y-105681D01*
X93141Y-105426D01*
X92595Y-105241D01*
X92029Y-105128D01*
X91454Y-105091D01*
D02*
G37*
G36*
X-82500Y-136342D02*
X-82977Y-136373D01*
X-83447Y-136467D01*
X-83900Y-136621D01*
X-84329Y-136832D01*
X-84727Y-137098D01*
X-85087Y-137414D01*
X-85402Y-137773D01*
X-85668Y-138171D01*
X-85879Y-138600D01*
X-86033Y-139053D01*
X-86127Y-139523D01*
X-86158Y-140000D01*
X-86127Y-140477D01*
X-86033Y-140947D01*
X-85879Y-141400D01*
X-85668Y-141829D01*
X-85402Y-142227D01*
X-85087Y-142587D01*
X-84727Y-142902D01*
X-84329Y-143168D01*
X-83900Y-143379D01*
X-83447Y-143533D01*
X-82977Y-143626D01*
X-82500Y-143658D01*
X-82023Y-143626D01*
X-81553Y-143533D01*
X-81100Y-143379D01*
X-80671Y-143168D01*
X-80273Y-142902D01*
X-79914Y-142587D01*
X-79598Y-142227D01*
X-79332Y-141829D01*
X-79121Y-141400D01*
X-78967Y-140947D01*
X-78873Y-140477D01*
X-78842Y-140000D01*
X-78873Y-139523D01*
X-78967Y-139053D01*
X-79121Y-138600D01*
X-79332Y-138171D01*
X-79598Y-137773D01*
X-79914Y-137414D01*
X-80273Y-137098D01*
X-80671Y-136832D01*
X-81100Y-136621D01*
X-81553Y-136467D01*
X-82023Y-136373D01*
X-82500Y-136342D01*
D02*
G37*
G36*
X156000D02*
X155523Y-136373D01*
X155053Y-136467D01*
X154600Y-136621D01*
X154171Y-136832D01*
X153773Y-137098D01*
X153413Y-137414D01*
X153098Y-137773D01*
X152832Y-138171D01*
X152621Y-138600D01*
X152467Y-139053D01*
X152373Y-139523D01*
X152342Y-140000D01*
X152373Y-140477D01*
X152467Y-140947D01*
X152621Y-141400D01*
X152832Y-141829D01*
X153098Y-142227D01*
X153413Y-142587D01*
X153773Y-142902D01*
X154171Y-143168D01*
X154600Y-143379D01*
X155053Y-143533D01*
X155523Y-143626D01*
X156000Y-143658D01*
X156477Y-143626D01*
X156947Y-143533D01*
X157400Y-143379D01*
X157829Y-143168D01*
X158227Y-142902D01*
X158586Y-142587D01*
X158902Y-142227D01*
X159168Y-141829D01*
X159379Y-141400D01*
X159533Y-140947D01*
X159626Y-140477D01*
X159658Y-140000D01*
X159626Y-139523D01*
X159533Y-139053D01*
X159379Y-138600D01*
X159168Y-138171D01*
X158902Y-137773D01*
X158586Y-137414D01*
X158227Y-137098D01*
X157829Y-136832D01*
X157400Y-136621D01*
X156947Y-136467D01*
X156477Y-136373D01*
X156000Y-136342D01*
D02*
G37*
G36*
X163757Y131869D02*
X163201Y131833D01*
X162655Y131724D01*
X162127Y131545D01*
X161628Y131299D01*
X161164Y130989D01*
X160746Y130622D01*
X160378Y130203D01*
X160069Y129740D01*
X159822Y129240D01*
X159643Y128713D01*
X159535Y128166D01*
X159498Y127610D01*
X159535Y127055D01*
X159643Y126508D01*
X159822Y125980D01*
X160069Y125481D01*
X160378Y125018D01*
X160746Y124599D01*
X161164Y124231D01*
X161628Y123922D01*
X162127Y123676D01*
X162655Y123496D01*
X163201Y123388D01*
X163757Y123351D01*
X164313Y123388D01*
X164859Y123496D01*
X165387Y123676D01*
X165887Y123922D01*
X166350Y124231D01*
X166769Y124599D01*
X167136Y125018D01*
X167446Y125481D01*
X167692Y125980D01*
X167871Y126508D01*
X167980Y127055D01*
X168016Y127610D01*
X167980Y128166D01*
X167871Y128713D01*
X167692Y129240D01*
X167446Y129740D01*
X167136Y130203D01*
X166769Y130622D01*
X166350Y130989D01*
X165887Y131299D01*
X165387Y131545D01*
X164859Y131724D01*
X164313Y131833D01*
X163757Y131869D01*
D02*
G37*
G36*
X79643Y-105091D02*
X79067Y-105128D01*
X78501Y-105241D01*
X77955Y-105426D01*
X77438Y-105681D01*
X76959Y-106002D01*
X76525Y-106382D01*
X76145Y-106816D01*
X75824Y-107295D01*
X75569Y-107813D01*
X75384Y-108359D01*
X75271Y-108924D01*
X75233Y-109500D01*
X75271Y-110076D01*
X75384Y-110641D01*
X75569Y-111187D01*
X75824Y-111705D01*
X76145Y-112184D01*
X76525Y-112618D01*
X76959Y-112998D01*
X77438Y-113319D01*
X77955Y-113574D01*
X78501Y-113759D01*
X79067Y-113872D01*
X79643Y-113909D01*
X80218Y-113872D01*
X80784Y-113759D01*
X81330Y-113574D01*
X81848Y-113319D01*
X82327Y-112998D01*
X82761Y-112618D01*
X83141Y-112184D01*
X83461Y-111705D01*
X83717Y-111187D01*
X83902Y-110641D01*
X84014Y-110076D01*
X84052Y-109500D01*
X84014Y-108924D01*
X83902Y-108359D01*
X83717Y-107813D01*
X83461Y-107295D01*
X83141Y-106816D01*
X82761Y-106382D01*
X82327Y-106002D01*
X81848Y-105681D01*
X81330Y-105426D01*
X80784Y-105241D01*
X80218Y-105128D01*
X79643Y-105091D01*
D02*
G37*
G36*
X-77000Y-591D02*
X-77575Y-628D01*
X-78141Y-741D01*
X-78687Y-926D01*
X-79205Y-1181D01*
X-79684Y-1502D01*
X-80118Y-1882D01*
X-80498Y-2316D01*
X-80819Y-2795D01*
X-81074Y-3313D01*
X-81259Y-3859D01*
X-81372Y-4425D01*
X-81409Y-5000D01*
X-81372Y-5576D01*
X-81259Y-6141D01*
X-81074Y-6687D01*
X-80819Y-7205D01*
X-80706Y-7373D01*
X-80823Y-7547D01*
X-81078Y-8065D01*
X-81263Y-8611D01*
X-81376Y-9176D01*
X-81413Y-9752D01*
X-81376Y-10328D01*
X-81263Y-10893D01*
X-81078Y-11439D01*
X-80823Y-11957D01*
X-80502Y-12436D01*
X-80122Y-12870D01*
X-79688Y-13250D01*
X-79209Y-13571D01*
X-78691Y-13826D01*
X-78145Y-14011D01*
X-77579Y-14124D01*
X-77004Y-14161D01*
X-76428Y-14124D01*
X-75863Y-14011D01*
X-75317Y-13826D01*
X-74799Y-13571D01*
X-74320Y-13250D01*
X-73886Y-12870D01*
X-73506Y-12436D01*
X-73185Y-11957D01*
X-72930Y-11439D01*
X-72745Y-10893D01*
X-72632Y-10328D01*
X-72594Y-9752D01*
X-72632Y-9176D01*
X-72745Y-8611D01*
X-72930Y-8065D01*
X-73185Y-7547D01*
X-73298Y-7379D01*
X-73181Y-7205D01*
X-72926Y-6687D01*
X-72741Y-6141D01*
X-72628Y-5576D01*
X-72591Y-5000D01*
X-72628Y-4425D01*
X-72741Y-3859D01*
X-72926Y-3313D01*
X-73181Y-2795D01*
X-73502Y-2316D01*
X-73882Y-1882D01*
X-74316Y-1502D01*
X-74795Y-1181D01*
X-75313Y-926D01*
X-75859Y-741D01*
X-76424Y-628D01*
X-77000Y-591D01*
D02*
G37*
G36*
X-63768Y81047D02*
X-64324Y81010D01*
X-64871Y80901D01*
X-65398Y80722D01*
X-65898Y80476D01*
X-66361Y80167D01*
X-66780Y79799D01*
X-67147Y79380D01*
X-67457Y78917D01*
X-67703Y78417D01*
X-67882Y77890D01*
X-67991Y77343D01*
X-68027Y76788D01*
X-67991Y76232D01*
X-67882Y75685D01*
X-67703Y75158D01*
X-67457Y74658D01*
X-67147Y74195D01*
X-66780Y73776D01*
X-66361Y73409D01*
X-65898Y73099D01*
X-65398Y72853D01*
X-64871Y72674D01*
X-64324Y72565D01*
X-63768Y72528D01*
X-63212Y72565D01*
X-62666Y72674D01*
X-62138Y72853D01*
X-61639Y73099D01*
X-61175Y73409D01*
X-60756Y73776D01*
X-60389Y74195D01*
X-60080Y74658D01*
X-59833Y75158D01*
X-59654Y75685D01*
X-59545Y76232D01*
X-59509Y76788D01*
X-59545Y77343D01*
X-59654Y77890D01*
X-59833Y78417D01*
X-60080Y78917D01*
X-60389Y79380D01*
X-60756Y79799D01*
X-61175Y80167D01*
X-61639Y80476D01*
X-62138Y80722D01*
X-62666Y80901D01*
X-63212Y81010D01*
X-63768Y81047D01*
D02*
G37*
G36*
X95000Y-30991D02*
X94592Y-31023D01*
X94194Y-31119D01*
X93816Y-31275D01*
X93467Y-31489D01*
X93156Y-31755D01*
X92890Y-32066D01*
X92676Y-32415D01*
X92520Y-32793D01*
X92424Y-33191D01*
X92392Y-33599D01*
X92424Y-34007D01*
X92520Y-34405D01*
X92676Y-34783D01*
X92890Y-35132D01*
X93156Y-35443D01*
X93467Y-35709D01*
X93816Y-35923D01*
X94194Y-36080D01*
X94592Y-36175D01*
X95000Y-36207D01*
X95408Y-36175D01*
X95806Y-36080D01*
X96184Y-35923D01*
X96533Y-35709D01*
X96844Y-35443D01*
X97110Y-35132D01*
X97324Y-34783D01*
X97480Y-34405D01*
X97576Y-34007D01*
X97608Y-33599D01*
X97576Y-33191D01*
X97480Y-32793D01*
X97324Y-32415D01*
X97110Y-32066D01*
X96844Y-31755D01*
X96533Y-31489D01*
X96184Y-31275D01*
X95806Y-31119D01*
X95408Y-31023D01*
X95000Y-30991D01*
D02*
G37*
G36*
X-66299Y93988D02*
X-66874Y93950D01*
X-67440Y93838D01*
X-67986Y93652D01*
X-68503Y93397D01*
X-68983Y93077D01*
X-69417Y92697D01*
X-69797Y92263D01*
X-70117Y91783D01*
X-70373Y91266D01*
X-70558Y90720D01*
X-70670Y90154D01*
X-70708Y89579D01*
X-70670Y89003D01*
X-70558Y88437D01*
X-70373Y87891D01*
X-70117Y87374D01*
X-69797Y86894D01*
X-69417Y86461D01*
X-68983Y86080D01*
X-68503Y85760D01*
X-67986Y85505D01*
X-67440Y85320D01*
X-66874Y85207D01*
X-66299Y85169D01*
X-65723Y85207D01*
X-65158Y85320D01*
X-64611Y85505D01*
X-64094Y85760D01*
X-63614Y86080D01*
X-63181Y86461D01*
X-62801Y86894D01*
X-62480Y87374D01*
X-62225Y87891D01*
X-62040Y88437D01*
X-61927Y89003D01*
X-61889Y89579D01*
X-61927Y90154D01*
X-62040Y90720D01*
X-62225Y91266D01*
X-62480Y91783D01*
X-62801Y92263D01*
X-63181Y92697D01*
X-63614Y93077D01*
X-64094Y93397D01*
X-64611Y93652D01*
X-65158Y93838D01*
X-65723Y93950D01*
X-66299Y93988D01*
D02*
G37*
G36*
X-77835Y101025D02*
X-78404Y100987D01*
X-78963Y100876D01*
X-79503Y100693D01*
X-80000Y100448D01*
X-80497Y100693D01*
X-81037Y100876D01*
X-81596Y100987D01*
X-82165Y101025D01*
X-82734Y100987D01*
X-83294Y100876D01*
X-83834Y100693D01*
X-84345Y100441D01*
X-84819Y100124D01*
X-85248Y99748D01*
X-85624Y99319D01*
X-85941Y98845D01*
X-86193Y98334D01*
X-86376Y97794D01*
X-86487Y97234D01*
X-86525Y96665D01*
X-86487Y96096D01*
X-86376Y95537D01*
X-86193Y94997D01*
X-85948Y94500D01*
X-86193Y94003D01*
X-86376Y93463D01*
X-86487Y92904D01*
X-86525Y92335D01*
X-86487Y91766D01*
X-86376Y91206D01*
X-86193Y90666D01*
X-85941Y90155D01*
X-85624Y89681D01*
X-85248Y89252D01*
X-84819Y88876D01*
X-84345Y88559D01*
X-83834Y88307D01*
X-83294Y88124D01*
X-82734Y88013D01*
X-82165Y87975D01*
X-81596Y88013D01*
X-81037Y88124D01*
X-80497Y88307D01*
X-80000Y88552D01*
X-79503Y88307D01*
X-78963Y88124D01*
X-78404Y88013D01*
X-77835Y87975D01*
X-77266Y88013D01*
X-76706Y88124D01*
X-76166Y88307D01*
X-75655Y88559D01*
X-75181Y88876D01*
X-74752Y89252D01*
X-74376Y89681D01*
X-74059Y90155D01*
X-73807Y90666D01*
X-73624Y91206D01*
X-73513Y91766D01*
X-73475Y92335D01*
X-73513Y92904D01*
X-73624Y93463D01*
X-73807Y94003D01*
X-74052Y94500D01*
X-73807Y94997D01*
X-73624Y95537D01*
X-73513Y96096D01*
X-73475Y96665D01*
X-73513Y97234D01*
X-73624Y97794D01*
X-73807Y98334D01*
X-74059Y98845D01*
X-74376Y99319D01*
X-74752Y99748D01*
X-75181Y100124D01*
X-75655Y100441D01*
X-76166Y100693D01*
X-76706Y100876D01*
X-77266Y100987D01*
X-77835Y101025D01*
D02*
G37*
G36*
X4264Y113269D02*
X3689Y113232D01*
X3123Y113119D01*
X2577Y112934D01*
X2059Y112679D01*
X1580Y112358D01*
X1146Y111978D01*
X766Y111544D01*
X445Y111065D01*
X190Y110547D01*
X5Y110001D01*
X-108Y109435D01*
X-145Y108860D01*
X-108Y108284D01*
X5Y107719D01*
X190Y107172D01*
X445Y106655D01*
X766Y106175D01*
X1146Y105742D01*
X1580Y105361D01*
X2059Y105041D01*
X2577Y104786D01*
X3123Y104601D01*
X3689Y104488D01*
X4264Y104450D01*
X4840Y104488D01*
X5405Y104601D01*
X5951Y104786D01*
X6469Y105041D01*
X6948Y105361D01*
X7382Y105742D01*
X7762Y106175D01*
X8083Y106655D01*
X8338Y107172D01*
X8523Y107719D01*
X8636Y108284D01*
X8674Y108860D01*
X8636Y109435D01*
X8523Y110001D01*
X8338Y110547D01*
X8083Y111065D01*
X7762Y111544D01*
X7382Y111978D01*
X6948Y112358D01*
X6469Y112679D01*
X5951Y112934D01*
X5405Y113119D01*
X4840Y113232D01*
X4264Y113269D01*
D02*
G37*
G36*
X72531Y19074D02*
X66784D01*
Y12934D01*
X72531D01*
Y12989D01*
X72911Y13323D01*
X73531Y13591D01*
X73694Y13524D01*
X74092Y13428D01*
X74500Y13396D01*
X74908Y13428D01*
X75306Y13524D01*
X75684Y13680D01*
X76033Y13894D01*
X76344Y14160D01*
X76610Y14471D01*
X76824Y14820D01*
X76980Y15198D01*
X77076Y15596D01*
X77108Y16004D01*
X77076Y16412D01*
X76980Y16810D01*
X76824Y17188D01*
X76610Y17537D01*
X76344Y17848D01*
X76033Y18114D01*
X75684Y18328D01*
X75306Y18484D01*
X74908Y18580D01*
X74500Y18612D01*
X74092Y18580D01*
X73694Y18484D01*
X73531Y18417D01*
X72911Y18685D01*
X72531Y19019D01*
Y19074D01*
D02*
G37*
G36*
X-93685Y91306D02*
X-94241Y91270D01*
X-94787Y91161D01*
X-95315Y90982D01*
X-95815Y90736D01*
X-96278Y90426D01*
X-96697Y90059D01*
X-97064Y89640D01*
X-97374Y89177D01*
X-97620Y88677D01*
X-97799Y88150D01*
X-97908Y87603D01*
X-97944Y87047D01*
X-97908Y86491D01*
X-97799Y85945D01*
X-97620Y85417D01*
X-97487Y85148D01*
X-97620Y84878D01*
X-97799Y84351D01*
X-97908Y83804D01*
X-97944Y83248D01*
X-97908Y82692D01*
X-97799Y82146D01*
X-97620Y81618D01*
X-97374Y81119D01*
X-97064Y80656D01*
X-96697Y80237D01*
X-96278Y79869D01*
X-95815Y79560D01*
X-95348Y79330D01*
X-95305Y79304D01*
X-94554Y78637D01*
X-93859Y77158D01*
X-93731Y76534D01*
X-93732Y76530D01*
X-93770Y75955D01*
X-93732Y75379D01*
X-93620Y74813D01*
X-93434Y74267D01*
X-93179Y73750D01*
X-92859Y73270D01*
X-92478Y72837D01*
X-92045Y72457D01*
X-91565Y72136D01*
X-91048Y71881D01*
X-90502Y71696D01*
X-89936Y71583D01*
X-89360Y71545D01*
X-88785Y71583D01*
X-88219Y71696D01*
X-87673Y71881D01*
X-87156Y72136D01*
X-86676Y72457D01*
X-86242Y72837D01*
X-85862Y73270D01*
X-85542Y73750D01*
X-85287Y74267D01*
X-85101Y74813D01*
X-84989Y75379D01*
X-84951Y75955D01*
X-84989Y76530D01*
X-85101Y77096D01*
X-85287Y77642D01*
X-85542Y78159D01*
X-85862Y78639D01*
X-86242Y79073D01*
X-86676Y79453D01*
X-87156Y79773D01*
X-87673Y80029D01*
X-87736Y80050D01*
X-88201Y80412D01*
X-89155Y81620D01*
X-89438Y82608D01*
X-89447Y82688D01*
X-89453Y82835D01*
X-89426Y83248D01*
X-89462Y83804D01*
X-89571Y84351D01*
X-89750Y84878D01*
X-89883Y85148D01*
X-89750Y85417D01*
X-89571Y85945D01*
X-89462Y86491D01*
X-89426Y87047D01*
X-89462Y87603D01*
X-89571Y88150D01*
X-89750Y88677D01*
X-89996Y89177D01*
X-90306Y89640D01*
X-90673Y90059D01*
X-91092Y90426D01*
X-91556Y90736D01*
X-92055Y90982D01*
X-92583Y91161D01*
X-93129Y91270D01*
X-93685Y91306D01*
D02*
G37*
G36*
X16334Y113088D02*
X15758Y113050D01*
X15192Y112937D01*
X14646Y112752D01*
X14129Y112497D01*
X13649Y112176D01*
X13216Y111796D01*
X12835Y111363D01*
X12515Y110883D01*
X12260Y110366D01*
X12074Y109819D01*
X11962Y109254D01*
X11924Y108678D01*
X11962Y108103D01*
X12074Y107537D01*
X12260Y106991D01*
X12515Y106473D01*
X12835Y105994D01*
X13216Y105560D01*
X13649Y105180D01*
X14129Y104859D01*
X14646Y104604D01*
X15192Y104419D01*
X15758Y104306D01*
X16334Y104269D01*
X16909Y104306D01*
X17475Y104419D01*
X18021Y104604D01*
X18538Y104859D01*
X19018Y105180D01*
X19452Y105560D01*
X19832Y105994D01*
X20152Y106473D01*
X20407Y106991D01*
X20593Y107537D01*
X20705Y108103D01*
X20743Y108678D01*
X20705Y109254D01*
X20593Y109819D01*
X20407Y110366D01*
X20152Y110883D01*
X19832Y111363D01*
X19452Y111796D01*
X19018Y112176D01*
X18538Y112497D01*
X18021Y112752D01*
X17475Y112937D01*
X16909Y113050D01*
X16334Y113088D01*
D02*
G37*
%LPD*%
D10*
X-56000Y-62638D02*
D03*
Y-67756D02*
D03*
D14*
X266559Y19500D02*
D03*
X261441D02*
D03*
X89079Y42450D02*
D03*
X94197D02*
D03*
D15*
X126237Y-6000D02*
D03*
X120922D02*
D03*
X-173968Y76393D02*
D03*
X-179283D02*
D03*
X64342Y16004D02*
D03*
X69657D02*
D03*
X64342Y25034D02*
D03*
X69657D02*
D03*
X79343Y30032D02*
D03*
X84658D02*
D03*
D17*
X89106Y85685D02*
D03*
Y82535D02*
D03*
Y79386D02*
D03*
Y76236D02*
D03*
Y73087D02*
D03*
Y69937D02*
D03*
Y66787D02*
D03*
Y63638D02*
D03*
X82413Y85685D02*
D03*
Y82535D02*
D03*
Y79386D02*
D03*
Y76236D02*
D03*
Y73087D02*
D03*
Y69937D02*
D03*
Y66787D02*
D03*
Y63638D02*
D03*
D18*
X54524Y-48346D02*
D03*
X51374D02*
D03*
X48224D02*
D03*
X45075D02*
D03*
X41925D02*
D03*
X38776D02*
D03*
X35626D02*
D03*
X32476D02*
D03*
X54524Y-41654D02*
D03*
X51374D02*
D03*
X48224D02*
D03*
X45075D02*
D03*
X41925D02*
D03*
X38776D02*
D03*
X35626D02*
D03*
X32476D02*
D03*
D19*
X125129Y14110D02*
D03*
Y8795D02*
D03*
X82855Y-28703D02*
D03*
Y-23388D02*
D03*
X112250Y-28703D02*
D03*
Y-23388D02*
D03*
X64842D02*
D03*
Y-28703D02*
D03*
X132500Y-28703D02*
D03*
Y-23388D02*
D03*
X71010Y-28703D02*
D03*
Y-23388D02*
D03*
X125750Y-28703D02*
D03*
Y-23388D02*
D03*
X119000Y-28703D02*
D03*
Y-23388D02*
D03*
X-49902Y-67658D02*
D03*
Y-62343D02*
D03*
X-44000D02*
D03*
Y-67658D02*
D03*
X61000Y-12157D02*
D03*
Y-6842D02*
D03*
X118606Y25657D02*
D03*
Y20343D02*
D03*
X112701Y25657D02*
D03*
Y20343D02*
D03*
X104827Y25657D02*
D03*
Y20343D02*
D03*
X128521Y29342D02*
D03*
Y34657D02*
D03*
D23*
X-187004Y-8858D02*
D03*
Y8858D02*
D03*
X-199996Y-8858D02*
D03*
Y8858D02*
D03*
D24*
X-63276Y-68543D02*
D03*
X-66425D02*
D03*
X-69575D02*
D03*
X-72724D02*
D03*
X-63276Y-61457D02*
D03*
X-66425D02*
D03*
X-69575D02*
D03*
X-72724D02*
D03*
X-33224Y117874D02*
D03*
X-30075D02*
D03*
X-26925D02*
D03*
X-23776D02*
D03*
X-33224Y110787D02*
D03*
X-30075D02*
D03*
X-26925D02*
D03*
X-23776D02*
D03*
D34*
X206000Y-126213D02*
D03*
X216000D02*
D03*
X226000D02*
D03*
X-183000Y-106213D02*
D03*
X-173000D02*
D03*
X-163000D02*
D03*
Y106213D02*
D03*
X-173000D02*
D03*
X-183000D02*
D03*
X226000Y126213D02*
D03*
X216000D02*
D03*
X206000D02*
D03*
D35*
X194032Y-126213D02*
D03*
X237968D02*
D03*
X-194968Y-106213D02*
D03*
X-151031D02*
D03*
Y106213D02*
D03*
X-194968D02*
D03*
X237968Y126213D02*
D03*
X194032D02*
D03*
D40*
X-37763Y107800D02*
D03*
Y106200D02*
D03*
D42*
X-183900Y72500D02*
D03*
X-183500D02*
D03*
X-183900Y68500D02*
D03*
X-183500D02*
D03*
X147912Y82339D02*
D03*
X147512D02*
D03*
D43*
X-57500Y-51275D02*
D03*
Y-50875D02*
D03*
D46*
X75343Y35157D02*
X79236D01*
X-99186Y139063D02*
Y139186D01*
Y129551D02*
Y139063D01*
X125129Y18701D02*
X125129Y18701D01*
X137896Y95134D02*
X142272D01*
X133372Y90610D02*
X137896Y95134D01*
X130872Y90610D02*
X133372D01*
X136990Y90016D02*
X142272D01*
X131872Y84898D02*
X136990Y90016D01*
X113728Y84898D02*
X131872D01*
X147760Y95134D02*
X150091Y92803D01*
X142272Y95134D02*
X147760D01*
X150091Y88725D02*
Y92803D01*
X148823Y87457D02*
X150091Y88725D01*
X142272Y87457D02*
X148823D01*
X142272Y90016D02*
Y92575D01*
X79236Y35157D02*
X83173D01*
D47*
X-195267Y-68532D02*
X-189000D01*
X-103122Y118272D02*
Y129551D01*
X-125740Y107295D02*
X-109177D01*
X-103122Y113350D02*
Y114728D01*
X-109177Y107295D02*
X-103122Y113350D01*
X-189000Y-64595D02*
X-189000Y-64595D01*
X-196095Y-64595D02*
X-189000D01*
X-179373Y76483D02*
Y83000D01*
Y76483D02*
X-179283Y76393D01*
X-189000Y76406D02*
X-188988Y76393D01*
X-179283D01*
X-43777Y-73680D02*
Y-67881D01*
X-44000Y-67658D02*
X-43777Y-67881D01*
X-49902Y-73680D02*
Y-67658D01*
X-56000Y-62364D02*
X-55979Y-62343D01*
X-49902D01*
X-163000Y-107000D02*
Y-102000D01*
X-47563Y-91740D02*
X-39260D01*
X-39000Y-92000D01*
X-47563Y-91740D02*
X-47000Y-92303D01*
Y-98500D02*
Y-92303D01*
X84658Y30032D02*
X89629D01*
X79236Y30138D02*
Y35157D01*
X-196393Y-69657D02*
X-195267Y-68532D01*
X-196393Y-70000D02*
Y-69657D01*
D48*
X-183500Y-86500D02*
X-178500Y-81500D01*
X98030Y85650D02*
X105379D01*
X93070Y90610D02*
X98030Y85650D01*
X109745Y90016D02*
X113728D01*
X105379Y85650D02*
X109745Y90016D01*
X108075Y92575D02*
X113728D01*
X103500Y88000D02*
X108075Y92575D01*
X20009Y86478D02*
Y92384D01*
X14650Y81120D02*
X20009Y86478D01*
X6527Y44850D02*
X27839Y66161D01*
X33663D01*
X-89091Y112850D02*
X-58000D01*
X-95249Y119008D02*
X-89091Y112850D01*
X-56375Y122000D02*
X-48036Y113661D01*
X-89095Y115401D02*
X-56685D01*
X-91311Y117617D02*
X-89095Y115401D01*
X-56685D02*
X-54143Y112858D01*
X230258Y30460D02*
Y78974D01*
X206098Y6300D02*
X230258Y30460D01*
X218124Y91107D02*
X230258Y78974D01*
X232258Y29632D02*
Y79802D01*
X234058Y28886D02*
Y80548D01*
X236058Y28058D02*
Y81376D01*
X206926Y4300D02*
X232258Y29632D01*
X220124Y91936D02*
X232258Y79802D01*
X-156913Y-2058D02*
X-138000D01*
X-176500Y-21645D02*
X-156913Y-2058D01*
X-176561Y23390D02*
X-156913Y3742D01*
X-160000Y88500D02*
X-156500Y85000D01*
Y53943D02*
Y85000D01*
Y-73383D02*
Y-53943D01*
X-169943Y-86826D02*
X-156500Y-73383D01*
X-138000Y-2058D02*
X-128583D01*
X-156500Y16542D02*
X-149500Y9542D01*
X-156500Y16542D02*
Y36057D01*
X-149500Y9542D02*
X-147500Y7542D01*
X-161500Y39057D02*
X-158500Y36057D01*
Y15713D02*
Y36057D01*
X-162443Y40000D02*
X-161500Y39057D01*
X-156500Y36057D02*
X-156278Y36278D01*
X-152557Y40000D01*
X-147500Y7542D02*
X-142677D01*
X-156913Y3742D02*
X-130968D01*
X-157742Y1742D02*
X-129957D01*
X-178613Y22613D02*
X-157742Y1742D01*
X-176613Y23442D02*
Y35943D01*
X-178613Y22613D02*
Y36057D01*
X-127661Y7049D02*
Y11614D01*
X-130968Y3742D02*
X-127661Y7049D01*
X-176613Y35943D02*
X-172557Y40000D01*
X-176613Y54057D02*
X-172557Y50000D01*
X-176613Y54057D02*
Y57558D01*
X-168500Y65672D01*
Y92000D01*
X-173000Y96500D02*
X-168500Y92000D01*
X-173000Y96500D02*
Y107000D01*
X-125102Y6596D02*
Y11614D01*
X-129957Y1742D02*
X-125102Y6596D01*
X-182557Y40000D02*
X-178613Y36057D01*
X-170500Y66500D02*
Y90000D01*
X-178613Y58387D02*
X-170500Y66500D01*
X-178613Y53943D02*
Y58387D01*
X-173000Y92500D02*
X-170500Y90000D01*
X-182557Y50000D02*
X-178613Y53943D01*
X-163000Y87579D02*
X-158500Y83079D01*
Y53943D02*
Y83079D01*
X-160000Y88500D02*
Y88584D01*
X-163000Y87579D02*
Y107000D01*
X-169943Y-88000D02*
Y-86826D01*
X-158500Y-72456D02*
Y-53943D01*
X-173043Y-86999D02*
X-158500Y-72456D01*
X-180735Y-87678D02*
Y-86563D01*
X-183000Y-89943D02*
X-180735Y-87678D01*
X-183000Y-107000D02*
Y-89943D01*
X-176500Y-82328D02*
Y-54057D01*
X-180735Y-86563D02*
X-176500Y-82328D01*
X-178500Y-81500D02*
Y-53943D01*
X-183500Y-86500D02*
X-183485Y-86515D01*
X-173043Y-92457D02*
Y-86999D01*
X-158500Y15713D02*
X-148328Y5542D01*
X-176500Y-35943D02*
Y-21645D01*
X-157742Y-58D02*
X-127755D01*
X-178500Y-20817D02*
X-157742Y-58D01*
X-178500Y-36057D02*
Y-20817D01*
X-148328Y-3858D02*
X-139217D01*
X-158500Y-36057D02*
Y-14030D01*
X-148328Y-3858D01*
X-147500Y-5858D02*
X-140046D01*
X-156500Y-36057D02*
Y-14858D01*
X-147500Y-5858D01*
X-162443Y50000D02*
X-158500Y53943D01*
X-156500D02*
X-152557Y50000D01*
X-156500Y-53943D02*
X-152557Y-50000D01*
X-162443D02*
X-158500Y-53943D01*
X-176500Y-54057D02*
X-172443Y-50000D01*
X-176500Y-35943D02*
X-172443Y-40000D01*
X-182443Y-50000D02*
X-178500Y-53943D01*
X-148328Y5542D02*
X-139818D01*
X-182443Y-40000D02*
X-178500Y-36057D01*
X-156500D02*
X-152557Y-40000D01*
X-162443D02*
X-158500Y-36057D01*
X-173000Y-107000D02*
Y-92500D01*
X-173043Y-92457D02*
X-173000Y-92500D01*
X-23258Y55952D02*
X-21057Y53750D01*
X134872Y99110D02*
X142372Y106610D01*
Y130564D01*
X146419Y134610D01*
X84248Y95213D02*
Y103012D01*
X76244Y87209D02*
X84248Y95213D01*
X-35000Y-119802D02*
Y-104500D01*
Y-119802D02*
X-32500Y-122302D01*
X-39198Y-129000D02*
X-32500Y-122302D01*
X72646Y79386D02*
X82413D01*
X70760Y77500D02*
X72646Y79386D01*
X69337Y66000D02*
X72907Y69570D01*
X-82334Y123800D02*
X-53800D01*
X-83437Y124904D02*
X-82334Y123800D01*
X-83437Y124904D02*
Y129551D01*
X-87374Y125134D02*
X-84240Y122000D01*
X-87374Y125134D02*
Y129551D01*
X-95249Y119008D02*
Y129551D01*
X-91311Y117617D02*
Y129551D01*
X76900Y62262D02*
X78276Y63638D01*
X82413D01*
Y85409D02*
Y85685D01*
X65760Y66000D02*
X69337D01*
X75068Y66787D02*
X82413D01*
X73031Y64750D02*
X75068Y66787D01*
X82126Y66500D02*
X82413Y66787D01*
Y69570D02*
Y69937D01*
X178469Y49050D02*
X183700D01*
X187500Y45250D01*
X-37763Y111136D02*
X-37415Y110787D01*
X-5029Y29475D02*
X-4993D01*
X-17283Y83150D02*
X5850D01*
X-19133Y85000D02*
X-17283Y83150D01*
X5850D02*
X8000Y81000D01*
X-20592Y80092D02*
X2342D01*
X-23000Y82500D02*
X-20592Y80092D01*
X-47563Y-84260D02*
X-37500Y-74197D01*
X215887Y126887D02*
X216000Y127000D01*
X-48500Y-45000D02*
X-47500D01*
X-63276Y-63732D02*
Y-61457D01*
X-64272Y-64728D02*
X-63276Y-63732D01*
X-68772Y-64728D02*
X-64272D01*
X-69575Y-63925D02*
X-68772Y-64728D01*
X-69575Y-63925D02*
Y-61457D01*
X-37500Y-74197D02*
Y-45000D01*
X124613Y1500D02*
X125129Y984D01*
X-77250Y-88157D02*
X-77092Y-88000D01*
X-20000Y85000D02*
X-19133D01*
X-4993Y29475D02*
X4382Y38850D01*
X226000Y117907D02*
Y127000D01*
X218124Y91107D02*
Y111200D01*
X216014Y113311D02*
X218124Y111200D01*
X221924Y92681D02*
X234058Y80548D01*
X223924Y93510D02*
X236058Y81376D01*
X223924Y93510D02*
Y111235D01*
X226000Y113311D01*
X220124Y91936D02*
Y113796D01*
X216000Y117921D02*
Y127000D01*
Y117921D02*
X220124Y113796D01*
X221924Y113831D02*
X226000Y117907D01*
X221924Y92681D02*
Y113831D01*
X206000Y-127000D02*
Y-117598D01*
X211500Y-112098D01*
X213300Y-112223D02*
X216000Y-114923D01*
Y-127000D02*
Y-114923D01*
X208000Y-109398D02*
Y-108500D01*
X211500Y-112098D02*
Y-107828D01*
X213300Y-112223D02*
Y-108574D01*
X217500Y-109398D02*
Y-107393D01*
X242234Y-82660D01*
X213300Y-108574D02*
X240234Y-81640D01*
X211500Y-107828D02*
X238434Y-80895D01*
X208000Y-108500D02*
X236434Y-80066D01*
X-88380Y35850D02*
X-59963D01*
X-122543Y-11614D02*
Y-5270D01*
X-125102Y-11614D02*
Y-5539D01*
X-137898Y7462D02*
Y11614D01*
X-127755Y-58D02*
X-122543Y-5270D01*
X-128583Y-2058D02*
X-125102Y-5539D01*
X-137898Y-11614D02*
Y-8006D01*
X-140046Y-5858D02*
X-137898Y-8006D01*
X-135339Y-11614D02*
Y-7737D01*
X-139217Y-3858D02*
X-135339Y-7737D01*
X-139818Y5542D02*
X-137898Y7462D01*
X-142677Y7542D02*
X-140457Y9762D01*
Y11614D01*
X-37763Y103395D02*
Y105600D01*
Y108400D02*
Y111136D01*
X185000Y6000D02*
X190500Y500D01*
X185000Y6000D02*
Y11500D01*
X185043D02*
Y11614D01*
X187602Y6226D02*
Y11614D01*
Y6226D02*
X191328Y2500D01*
X200398Y7402D02*
X201500Y6300D01*
X200398Y7402D02*
Y11614D01*
X197839Y5961D02*
Y11614D01*
Y5961D02*
X199500Y4300D01*
X200398Y-6202D02*
X201500Y-5100D01*
X200398Y-11614D02*
Y-6202D01*
X202957Y-11614D02*
Y-8143D01*
X204000Y-7100D01*
X191200Y-1300D02*
X208300D01*
X242234Y-35234D01*
Y-82660D02*
Y-35234D01*
X192028Y-3300D02*
X207472D01*
X240234Y-36062D01*
Y-81640D02*
Y-36062D01*
X201500Y-5100D02*
X206726D01*
X238434Y-36808D01*
Y-80895D02*
Y-36808D01*
X204000Y-7100D02*
X205898D01*
X236434Y-37636D01*
Y-80066D02*
Y-37636D01*
X190500Y500D02*
X208500D01*
X236058Y28058D01*
X191328Y2500D02*
X207672D01*
X234058Y28886D01*
X199500Y4300D02*
X206926D01*
X201500Y6300D02*
X206098D01*
X23768Y57000D02*
X30760D01*
X7619Y40850D02*
X23768Y57000D01*
X23125Y53811D02*
X26260D01*
X1897Y44850D02*
X6527D01*
X2725Y42850D02*
X7073D01*
X3553Y40850D02*
X7619D01*
X4382Y38850D02*
X8164D01*
X23125Y53811D01*
X-87500Y45000D02*
Y50500D01*
X12650Y83150D02*
X14000Y84500D01*
X76399Y81500D02*
X77434Y82535D01*
X82413D01*
X75260Y84250D02*
X76419Y85409D01*
X64683Y-23228D02*
X64842Y-23388D01*
X70260Y81500D02*
X76399D01*
X25723Y61500D02*
X34500D01*
X7073Y42850D02*
X25723Y61500D01*
X14650Y78246D02*
Y81120D01*
X12650Y79074D02*
Y83150D01*
X-21057Y53750D02*
X-12674D01*
X-13352Y50243D02*
X14650Y78246D01*
X-12674Y53750D02*
X12650Y79074D01*
X-53800Y123800D02*
X-50000Y120000D01*
X-84240Y122000D02*
X-56375D01*
X-54143Y108924D02*
Y112858D01*
X170530Y56989D02*
X178469Y49050D01*
X161111Y56989D02*
X161257Y56843D01*
X163743D01*
X163889Y56989D01*
X170530D01*
X76900Y59000D02*
X78911Y56989D01*
X161111D01*
X76900Y59000D02*
Y62262D01*
X187602Y-11614D02*
Y-6609D01*
X187851Y-6361D01*
Y-5089D01*
X188851Y-4089D01*
Y-3649D01*
X191200Y-1300D01*
X190161Y-11614D02*
Y-5606D01*
X190851Y-4917D01*
Y-4478D01*
X192028Y-3300D01*
X-41765Y50161D02*
X-41684Y50243D01*
X-13352D01*
X-43413Y54100D02*
X-43402Y54111D01*
X-40129D01*
X-40118Y54100D01*
X-28799D01*
X-71529D02*
X-43413D01*
X-73500Y56072D02*
X-71529Y54100D01*
X-28799D02*
X-26947Y55952D01*
X-23258D01*
X-87500Y50500D02*
X-81928Y56072D01*
X-73500D01*
X66960Y73500D02*
X68410Y74950D01*
X71816D01*
X73102Y76236D02*
X82413D01*
X71816Y74950D02*
X73102Y76236D01*
X76587Y72320D02*
X77354Y73087D01*
X73870Y72320D02*
X76587D01*
X77354Y73087D02*
X82413D01*
X-59963Y35850D02*
X-56813Y39000D01*
X-3954D01*
X1897Y44850D01*
X-6233Y33601D02*
X-4184Y35649D01*
X-1647D01*
X3553Y40850D01*
X-2876Y37249D02*
X2725Y42850D01*
X-55735Y37249D02*
X-2876D01*
X-93500Y35500D02*
X-91619Y33619D01*
X-59365D01*
X-55735Y37249D01*
X-38850Y102308D02*
X-37763Y103395D01*
X-38850Y83192D02*
X-20736Y65078D01*
X-38850Y83192D02*
Y102308D01*
X-42700Y80500D02*
X-39261Y77061D01*
Y69553D02*
Y77061D01*
Y69553D02*
X-37738Y68030D01*
X-21709Y62728D02*
X-14489D01*
X-13500Y61738D01*
X-37738Y68030D02*
X-27011D01*
X-21709Y62728D01*
X-42700Y80500D02*
Y121885D01*
X76419Y85409D02*
X82413D01*
X198000Y11614D02*
Y12000D01*
X72907Y69570D02*
X82413D01*
X200371Y11614D02*
Y12000D01*
D49*
X59821Y22638D02*
X62217Y25034D01*
X59213Y22638D02*
X59821D01*
X63911Y-24000D02*
X64683Y-23228D01*
X266559Y19500D02*
X271953D01*
X261441Y12670D02*
Y19500D01*
X231000Y-17771D02*
X261441Y12670D01*
X-14235Y141500D02*
X2000D01*
X128644Y82339D02*
X131872Y79110D01*
X113728Y82339D02*
X128644D01*
X99355Y61866D02*
X113728D01*
X99328Y66984D02*
X113728D01*
X99341Y64425D02*
X113728D01*
X191000Y18500D02*
X192720Y16780D01*
X112250Y-33443D02*
Y-28703D01*
X-189000Y68532D02*
X-189000Y68532D01*
X128521Y22638D02*
X128521Y22638D01*
X-132780Y11614D02*
Y16220D01*
X-132000Y17000D01*
X-130220Y-11614D02*
Y-6566D01*
X150500Y-78500D02*
Y-72085D01*
X176136Y-46450D02*
X202024D01*
X59821Y17730D02*
X61547Y16004D01*
X-117500Y-33504D02*
X-109996Y-26000D01*
X202024Y-46450D02*
X219474Y-29000D01*
X219771D01*
X192720Y11614D02*
Y16780D01*
X-122543Y4724D02*
Y11614D01*
X-122051Y12107D01*
X-131500Y-5286D02*
X-130220Y-6566D01*
X126237Y-10237D02*
Y-6000D01*
Y-10237D02*
X126827Y-10827D01*
X125750Y-33565D02*
Y-28703D01*
X119000Y-33500D02*
Y-28703D01*
X-199996Y8858D02*
X-198000Y6862D01*
Y0D02*
Y6862D01*
X-189500Y-6362D02*
X-187004Y-8858D01*
X-189500Y-6362D02*
Y-343D01*
X-131500Y-54500D02*
X-77000D01*
X-67500Y-45000D01*
X71010Y-33000D02*
Y-28703D01*
X82855Y-33000D02*
Y-29658D01*
X70898Y-23276D02*
X71010Y-23388D01*
X61000Y-15227D02*
Y-12157D01*
Y-15227D02*
X62500Y-16727D01*
X61547Y16004D02*
X64342D01*
X62217Y25034D02*
X64342D01*
X128521Y22638D02*
Y29342D01*
X-117500Y-45000D02*
Y-33504D01*
X150500Y-72085D02*
X176136Y-46450D01*
X195280Y-16138D02*
Y-11614D01*
X-196500Y66000D02*
X-195095Y64595D01*
X-189000D01*
X-196500Y-76406D02*
X-189000D01*
Y68532D02*
X-188969Y68500D01*
X-189000Y72469D02*
X-188969Y72500D01*
X99314Y69543D02*
X113728D01*
X99287Y74661D02*
X113728D01*
X89106Y76236D02*
X95167D01*
X89106Y73087D02*
X95771D01*
X89106Y79386D02*
X94563D01*
X89106Y82535D02*
X93959D01*
X99274Y77220D02*
X113728D01*
X62000Y-17227D02*
X62500Y-16727D01*
X62000Y-18058D02*
Y-17227D01*
X60000Y-24000D02*
X63911D01*
X-139000Y-18624D02*
Y-17004D01*
X-140457Y-15547D02*
X-139000Y-17004D01*
X-140457Y-15547D02*
Y-11614D01*
X185043Y-11614D02*
Y-7330D01*
X177640Y-19016D02*
X192401D01*
X195280Y-16138D01*
X89106Y85685D02*
X93355D01*
X99261Y79779D02*
X113728D01*
X93355Y85685D02*
X99261Y79779D01*
X93959Y82535D02*
X99274Y77220D01*
X99301Y72102D02*
X113728D01*
X94563Y79386D02*
X99287Y74661D01*
X89106Y69937D02*
X96375D01*
X95167Y76236D02*
X99301Y72102D01*
X89106Y66787D02*
X96979D01*
X95771Y73087D02*
X99314Y69543D01*
X96375Y69937D02*
X99328Y66984D01*
X89106Y63638D02*
X97583D01*
X96979Y66787D02*
X99341Y64425D01*
X97583Y63638D02*
X99355Y61866D01*
X-79500Y129551D02*
Y136490D01*
X-83829Y140819D02*
X-79500Y136490D01*
X-40798Y114937D02*
X-14235Y141500D01*
X-40798Y82019D02*
Y114937D01*
Y82019D02*
X-36661Y77881D01*
Y70630D02*
Y77881D01*
D50*
X-57500Y-51775D02*
Y-45000D01*
Y-57902D02*
Y-51775D01*
X-31875Y23000D02*
X16565D01*
X-33000Y21876D02*
X-31875Y23000D01*
X125129Y14110D02*
Y18701D01*
X125750Y-18000D02*
X127112D01*
X132500Y-23388D01*
X142168Y18406D02*
X147000D01*
X132557Y8795D02*
X142168Y18406D01*
X125129Y8795D02*
X132557D01*
X26666Y33101D02*
X37500D01*
X-10500Y-53000D02*
Y-42825D01*
X-18000Y-60500D02*
X-10500Y-53000D01*
X-21000Y-63000D02*
X-19500D01*
X-173968Y70500D02*
Y76393D01*
X-78382Y-80000D02*
X-69015D01*
X-83000Y-84618D02*
X-78382Y-80000D01*
X-83000Y-120000D02*
Y-84618D01*
X64342Y20468D02*
X64374Y20500D01*
X64342Y16004D02*
Y20468D01*
X-69015Y-80000D02*
X-63276Y-74260D01*
Y-68543D01*
X-56000Y-62364D02*
Y-59402D01*
Y-62638D02*
Y-62364D01*
X-69500Y-75606D02*
Y-68618D01*
X-69575Y-68543D02*
X-69500Y-68618D01*
X112250Y-23388D02*
Y-18034D01*
X119000Y-23388D02*
Y-18059D01*
X125750Y-23388D02*
Y-18000D01*
X120922Y-12545D02*
Y-6000D01*
Y-12545D02*
X121000Y-12623D01*
X99216Y20395D02*
X99269Y20343D01*
X128521Y34657D02*
X134364Y40500D01*
X82855Y-24342D02*
Y-23388D01*
X82709Y-23241D02*
X82855Y-23388D01*
X82709Y-23241D02*
Y-18624D01*
X70898Y-23276D02*
Y-18624D01*
X64695Y-28850D02*
X64842Y-28703D01*
X64892Y-33599D02*
Y-28752D01*
X64842Y-28703D02*
X64892Y-28752D01*
X61113Y-2500D02*
X61556D01*
X61000Y-6842D02*
Y-2613D01*
X61113Y-2500D01*
X69657Y16004D02*
X74500D01*
X69988Y25012D02*
X74500D01*
X74675D01*
X79343Y30032D02*
Y30665D01*
X79236Y30138D02*
X79343Y30032D01*
X99269Y20343D02*
X104827D01*
X105000D01*
X112701Y14634D02*
Y20343D01*
X118606Y14634D02*
Y20343D01*
Y25657D02*
Y31871D01*
X112701Y25657D02*
Y31871D01*
X104827Y25657D02*
Y31871D01*
X-66425Y-59470D02*
X-64858Y-57902D01*
X-66425Y-61457D02*
Y-59470D01*
X-47500Y-54185D02*
X-44000Y-57685D01*
Y-62343D02*
Y-57685D01*
X-69575Y-61457D02*
Y-55575D01*
X-67500Y-53500D01*
X-54559Y-34449D02*
X-49558Y-39450D01*
X-13875D01*
X-10500Y-42825D01*
X-64858Y-57902D02*
X-57500D01*
X-56000Y-59402D01*
X-47500Y-54185D02*
Y-45000D01*
X16565Y23000D02*
X26666Y33101D01*
X-87025Y24304D02*
X-84597Y21876D01*
X-104857Y24304D02*
X-87025D01*
X-84597Y21876D02*
X-33000D01*
X204594Y16311D02*
X207581D01*
X202957Y14674D02*
X204594Y16311D01*
X202957Y11614D02*
Y14674D01*
D51*
X176681Y-3300D02*
X181014D01*
X185043Y-7330D01*
X135096Y-28703D02*
X146359Y-17440D01*
X132500Y-28703D02*
X135096D01*
D52*
X-180361Y72500D02*
X-177750Y69889D01*
X-183000Y72500D02*
X-180361D01*
X-177750Y68097D02*
Y69889D01*
X58137Y81150D02*
X67296Y90310D01*
X35513Y81150D02*
X58137D01*
X57474Y82750D02*
X66633Y91909D01*
X34851Y82750D02*
X57474D01*
X56811Y84350D02*
X65971Y93510D01*
X34188Y84350D02*
X56811D01*
X33397Y85822D02*
X56020D01*
X27245Y79670D02*
X33397Y85822D01*
X56020D02*
X65308Y95109D01*
X50878Y88272D02*
X55595D01*
X62594Y95271D01*
X10450Y79278D02*
Y86050D01*
X9500Y87000D02*
X10450Y86050D01*
X-9806Y59022D02*
X10450Y79278D01*
X218530Y56975D02*
X221641D01*
X219110Y55575D02*
X223706D01*
X218035Y54500D02*
X219110Y55575D01*
X217455Y55900D02*
X218530Y56975D01*
X194100Y55900D02*
X217455D01*
X193520Y54500D02*
X218035D01*
X224166Y59500D02*
X226500D01*
X221641Y56975D02*
X224166Y59500D01*
X189850Y60150D02*
X194100Y55900D01*
X189270Y58750D02*
X193520Y54500D01*
X223706Y55575D02*
X224285Y56154D01*
X188890Y57150D02*
X193040Y53000D01*
X220000D01*
X198910Y45150D02*
X200350D01*
X188510Y55550D02*
X198910Y45150D01*
X182487Y58750D02*
X189270D01*
X181162Y55550D02*
X188510D01*
X181825Y57150D02*
X188890D01*
X183350Y60150D02*
X189850D01*
X89632Y-81100D02*
X92004Y-78728D01*
X91497Y-82700D02*
X97197Y-77000D01*
X57376Y-82700D02*
X91497D01*
X43878Y69705D02*
Y73772D01*
X43760Y69588D02*
X43878Y69705D01*
X46410Y69200D02*
Y71024D01*
X-59881Y38620D02*
X-57500Y41000D01*
X-130182Y38620D02*
X-59881D01*
X-130220Y38581D02*
X-130182Y38620D01*
X13547Y125910D02*
X21197Y118260D01*
X14209Y127510D02*
X21859Y119860D01*
X34028Y127622D02*
X39476D01*
X41107Y126990D02*
X50400D01*
X51063Y128590D02*
X55031Y124622D01*
X40445Y128590D02*
X51063D01*
X33878Y127772D02*
X34028Y127622D01*
X-32385Y24900D02*
X-31860Y25425D01*
X-32154Y17772D02*
X-30425Y19500D01*
X-32816Y19372D02*
X-31088Y21100D01*
X-63003Y19372D02*
X-32816D01*
X-62340Y17772D02*
X-32154D01*
X-84385Y24350D02*
X-80831D01*
X-89954Y29919D02*
X-84385Y24350D01*
X-80281Y24900D02*
X-32385D01*
X-80831Y24350D02*
X-80281Y24900D01*
X-132447Y20447D02*
X-109035D01*
X-127970Y17000D02*
X-107851D01*
X-130220Y14749D02*
X-127970Y17000D01*
X-133180Y19850D02*
X-133044D01*
X-135339Y17692D02*
X-133180Y19850D01*
X-135339Y11614D02*
Y17692D01*
X-133044Y19850D02*
X-132447Y20447D01*
X8021Y-102228D02*
Y-57000D01*
X7299Y-115012D02*
Y-102950D01*
X8021Y-102228D01*
X16220D02*
Y-53886D01*
Y-102228D02*
X17142Y-103150D01*
X14620Y-103228D02*
Y-54549D01*
Y-103228D02*
X15173Y-103781D01*
X9621Y-103228D02*
Y-56337D01*
X9268Y-103581D02*
X9621Y-103228D01*
X9268Y-115012D02*
Y-103581D01*
X17142Y-115012D02*
Y-103150D01*
X15000Y-52666D02*
Y-32500D01*
Y-52666D02*
X16220Y-53886D01*
X12575Y-31319D02*
Y-27500D01*
X12450Y-31444D02*
X12575Y-31319D01*
X12450Y-52379D02*
X14620Y-54549D01*
X12450Y-52379D02*
Y-31444D01*
X13021Y-105425D02*
Y-55212D01*
X9500Y-51691D02*
X13021Y-55212D01*
X9500Y-51691D02*
Y-31500D01*
X1750Y-26750D02*
X10500Y-18000D01*
X1750Y-50730D02*
X8021Y-57000D01*
X1750Y-50730D02*
Y-26750D01*
X3350Y-29200D02*
X15050Y-17500D01*
X3350Y-50067D02*
X9621Y-56337D01*
X3350Y-50067D02*
Y-29200D01*
X11321Y-105525D02*
Y-55774D01*
X6000Y-50454D02*
X11321Y-55774D01*
X6000Y-50454D02*
Y-34280D01*
X15173Y-115012D02*
Y-103781D01*
X13021Y-105425D02*
X13205Y-105610D01*
Y-115012D02*
Y-105610D01*
X11236D02*
X11321Y-105525D01*
X11236Y-115012D02*
Y-105610D01*
X-172557Y40000D02*
X-172557Y50000D01*
X-182443Y40000D02*
Y50000D01*
X-172443Y-50000D02*
Y-40000D01*
X-162443Y-50000D02*
Y-40000D01*
X-152557Y-50000D02*
Y-40000D01*
X-182443Y-50000D02*
Y-40000D01*
X-162557Y40000D02*
Y50000D01*
X-152557Y40000D02*
Y50000D01*
X-21757Y125910D02*
X13547D01*
X-22420Y127510D02*
X14209D01*
X-23082Y129110D02*
X14872D01*
X-23776Y123892D02*
X-21757Y125910D01*
X-26925Y123005D02*
X-22420Y127510D01*
X-30075Y122118D02*
X-23082Y129110D01*
X-26925Y117874D02*
Y123005D01*
X-30075Y117874D02*
Y122118D01*
X-23776Y117996D02*
Y123892D01*
X106209Y97210D02*
X112109Y103110D01*
X122372D01*
X110372Y99110D02*
X120372D01*
X106872Y95610D02*
X110372Y99110D01*
X127372Y94610D02*
X134120D01*
X136643Y97134D01*
X161349D01*
X123872Y91110D02*
X127372Y94610D01*
X161349Y97134D02*
X163372Y95110D01*
X92122Y98623D02*
Y103012D01*
Y98623D02*
X93535Y97210D01*
X90153Y98329D02*
X92872Y95610D01*
X90153Y98329D02*
Y103012D01*
X124486Y115610D02*
Y118446D01*
X112721Y130210D02*
X124486Y118446D01*
X86023Y130210D02*
X112721D01*
X127872Y113610D02*
Y117322D01*
X113384Y131810D02*
X127872Y117322D01*
X85360Y131810D02*
X113384D01*
X130872Y111110D02*
Y116585D01*
X114047Y133410D02*
X130872Y116585D01*
X84698Y133410D02*
X114047D01*
X134072Y109124D02*
Y115648D01*
X114709Y135010D02*
X134072Y115648D01*
X84035Y135010D02*
X114709D01*
X137022Y106481D02*
Y114960D01*
X115372Y136610D02*
X137022Y114960D01*
X83372Y136610D02*
X115372D01*
X78342Y122530D02*
X86023Y130210D01*
X76374Y122824D02*
X85360Y131810D01*
X74405Y123118D02*
X84698Y133410D01*
X72437Y123413D02*
X84035Y135010D01*
X70468Y123707D02*
X83372Y136610D01*
X78342Y116988D02*
Y122530D01*
X76374Y116988D02*
Y122824D01*
X74405Y116988D02*
Y123118D01*
X72437Y116988D02*
Y123413D01*
X70468Y116988D02*
Y123707D01*
X29785Y39189D02*
X36439D01*
X78372Y109610D02*
Y110063D01*
X80311Y112002D01*
Y116988D01*
X88185Y92297D02*
Y103012D01*
X82279Y95649D02*
Y103012D01*
X75340Y88709D02*
X82279Y95649D01*
X80311Y95943D02*
Y103012D01*
X74677Y90310D02*
X80311Y95943D01*
X78342Y96237D02*
Y103012D01*
X74015Y91909D02*
X78342Y96237D01*
X76374Y96531D02*
Y103012D01*
X73352Y93510D02*
X76374Y96531D01*
X133872Y108924D02*
X134072Y109124D01*
X136816Y106274D02*
X137022Y106481D01*
X74926Y-54435D02*
X79962D01*
X74263Y-52835D02*
X82252D01*
X73600Y-51235D02*
X84552D01*
X73889Y-55472D02*
X74926Y-54435D01*
X79962D02*
X82189Y-56661D01*
X73226Y-53872D02*
X74263Y-52835D01*
X82252D02*
X86417Y-57000D01*
X72563Y-52272D02*
X73600Y-51235D01*
X84552D02*
X89817Y-56500D01*
X22111Y-49500D02*
X23000D01*
X53644Y92280D02*
X58657Y97294D01*
X30080Y92280D02*
X53644D01*
X52981Y93880D02*
X56689Y97588D01*
X29417Y93880D02*
X52981D01*
X52318Y95480D02*
X54720Y97883D01*
X28755Y95480D02*
X52318D01*
X52752Y98177D02*
Y103012D01*
X51655Y97080D02*
X52752Y98177D01*
X28092Y97080D02*
X51655D01*
X22700Y91688D02*
X28092Y97080D01*
X22700Y85917D02*
Y91688D01*
X24300Y91026D02*
X28755Y95480D01*
X24300Y85254D02*
Y91026D01*
X25900Y90363D02*
X29417Y93880D01*
X25900Y84591D02*
Y90363D01*
X27500Y89700D02*
X30080Y92280D01*
X27500Y83929D02*
Y89700D01*
X36900Y79069D02*
X41204D01*
X22137Y78566D02*
X27500Y83929D01*
X20337Y79028D02*
X25900Y84591D01*
X18737Y79691D02*
X24300Y85254D01*
X17137Y80354D02*
X22700Y85917D01*
X54306Y90680D02*
X60626Y97000D01*
X41867Y123790D02*
X49075D01*
X50400Y126990D02*
X54369Y123022D01*
X59434D02*
X60626Y121830D01*
X54369Y123022D02*
X59434D01*
X60097Y124622D02*
X62594Y122124D01*
X55031Y124622D02*
X60097D01*
X60760Y126222D02*
X64563Y122418D01*
X55694Y126222D02*
X60760D01*
X60626Y116988D02*
Y121830D01*
X62594Y116988D02*
Y122124D01*
X64563Y116988D02*
Y122418D01*
X49737Y125390D02*
X52752Y122376D01*
X49075Y123790D02*
X50605Y122259D01*
X47934Y122125D02*
X48035Y122025D01*
X52752Y116988D02*
Y122376D01*
X50605Y117166D02*
Y122259D01*
Y117166D02*
X50783Y116988D01*
X48035Y122025D02*
X48637Y121422D01*
X48035Y122025D02*
X48035D01*
X48637Y117166D02*
X48815Y116988D01*
X48637Y117166D02*
Y121422D01*
X45663Y-1031D02*
Y63159D01*
X47663Y-1576D02*
Y63422D01*
X40260Y70825D02*
X47663Y63422D01*
X49263Y-29092D02*
Y64085D01*
X50863Y-29755D02*
Y64747D01*
X46410Y69200D02*
X50863Y64747D01*
X43760Y69588D02*
X49263Y64085D01*
X54063Y-31080D02*
Y74813D01*
X55663Y74151D02*
X68622Y87110D01*
X55663Y-31743D02*
Y74151D01*
X51374Y-33769D02*
X54063Y-31080D01*
X54524Y-32882D02*
X55663Y-31743D01*
X54063Y74813D02*
X67959Y88709D01*
X75340D01*
X67296Y90310D02*
X74677D01*
X66633Y91909D02*
X74015D01*
X65971Y93510D02*
X73352D01*
X74405Y97767D02*
Y103012D01*
X71748Y95109D02*
X74405Y97767D01*
X65308Y95109D02*
X71748D01*
X68622Y87110D02*
X76003D01*
X62594Y95271D02*
Y103012D01*
X60626Y97000D02*
Y103012D01*
X58657Y97294D02*
Y103012D01*
X56689Y97588D02*
Y103012D01*
X54720Y97883D02*
Y103012D01*
X170607Y72893D02*
X183350Y60150D01*
X169944Y71293D02*
X182487Y58750D01*
X169281Y69693D02*
X181825Y57150D01*
X168618Y68093D02*
X181162Y55550D01*
X180499Y53950D02*
X187568D01*
X167956Y66493D02*
X180499Y53950D01*
X179836Y52350D02*
X186905D01*
X167293Y64893D02*
X179836Y52350D01*
X179174Y50750D02*
X186243D01*
X166630Y63293D02*
X179174Y50750D01*
X136202Y44531D02*
X182719D01*
X196250Y31000D01*
X130328Y50406D02*
X136202Y44531D01*
X182763Y63000D02*
X188443D01*
X163424Y82339D02*
X182763Y63000D01*
X152991Y72893D02*
X170607D01*
X152328Y71293D02*
X169944D01*
X151665Y69693D02*
X169281D01*
X151002Y68093D02*
X168618D01*
X142762Y66493D02*
X167956D01*
X142740Y64893D02*
X167293D01*
X150091Y63293D02*
X166630D01*
X200350Y45150D02*
X204000Y41500D01*
X190500Y46474D02*
Y46493D01*
X186243Y50750D02*
X190500Y46493D01*
X192100Y47137D02*
X196250Y42987D01*
X192100Y47137D02*
Y47155D01*
X186905Y52350D02*
X192100Y47155D01*
X190500Y46474D02*
X193500Y43475D01*
X193700Y47800D02*
Y47818D01*
Y47800D02*
X199000Y42500D01*
X196250Y38173D02*
Y42987D01*
Y38173D02*
X197733Y36691D01*
X187568Y53950D02*
X193700Y47818D01*
X193500Y41000D02*
Y43475D01*
X149553Y69543D02*
X151002Y68093D01*
X142272Y69543D02*
X149553D01*
X149256Y72102D02*
X151665Y69693D01*
X142272Y72102D02*
X149256D01*
X148960Y74661D02*
X152328Y71293D01*
X142272Y74661D02*
X148960D01*
X148663Y77220D02*
X152991Y72893D01*
X142272Y77220D02*
X148663D01*
X142272Y64425D02*
X142740Y64893D01*
X148663Y61866D02*
X150091Y63293D01*
X142272Y61866D02*
X148663D01*
X142272Y66984D02*
X142762Y66493D01*
X192000Y21500D02*
X195280Y18221D01*
X142272Y82339D02*
X147012D01*
X-177750Y68097D02*
X-176154Y66500D01*
X144500Y-12795D02*
X144705D01*
X-132780Y-14921D02*
Y-11614D01*
X-86348Y31420D02*
X-81928Y27000D01*
X176540Y-43500D02*
X178300D01*
X174002Y-43775D02*
Y-42498D01*
X172402Y-43112D02*
Y-38865D01*
X48224Y-34656D02*
X52463Y-30417D01*
X48224Y-41654D02*
Y-34656D01*
X45075Y-35543D02*
X50863Y-29755D01*
X45075Y-41654D02*
Y-35543D01*
X41925Y-36430D02*
X49263Y-29092D01*
X41925Y-41654D02*
Y-36430D01*
X41362Y-5332D02*
X45663Y-1031D01*
X43863Y-285D02*
Y62488D01*
X40616Y-3532D02*
X43863Y-285D01*
X36284Y-1732D02*
X39000Y984D01*
X21732Y-1732D02*
X36284D01*
X37411Y-14300D02*
X44611Y-21500D01*
X37947Y-12500D02*
X39823Y-10624D01*
X18696Y-3532D02*
X40616D01*
X44611Y-21500D02*
X44622D01*
X21050Y-40137D02*
X23587Y-37600D01*
X21050Y-44550D02*
Y-40137D01*
Y-44550D02*
X22000Y-45500D01*
X19250Y-46639D02*
X22111Y-49500D01*
X19250Y-46639D02*
Y-39391D01*
X17450Y-47839D02*
Y-38645D01*
Y-47839D02*
X23111Y-53500D01*
X23500D01*
X30500Y42450D02*
Y42500D01*
X89817Y-56500D02*
X89889D01*
X71010Y-59597D02*
X71579Y-60166D01*
X174002Y-42498D02*
X176000Y-40500D01*
X172402Y-38865D02*
X173752Y-37515D01*
X-57500Y41000D02*
Y45000D01*
X-127661Y-17494D02*
Y-11614D01*
X19250Y-39391D02*
X22841Y-35800D01*
X17450Y-38645D02*
X22095Y-34000D01*
X31803Y-37600D02*
X32476Y-38273D01*
Y-41654D02*
Y-38273D01*
X33488Y-35800D02*
X35626Y-37938D01*
Y-41654D02*
Y-37938D01*
X34837Y-34000D02*
X38776Y-37938D01*
Y-41654D02*
Y-37938D01*
X23587Y-37600D02*
X31803D01*
X22841Y-35800D02*
X33488D01*
X22095Y-34000D02*
X34837D01*
X-187004Y8858D02*
Y15496D01*
X211500Y-46500D02*
Y-45334D01*
X48224Y-48346D02*
X48891Y-49013D01*
X45075Y-48346D02*
X45742Y-49013D01*
X41925Y-48346D02*
X42592Y-49013D01*
X183500Y75580D02*
X184250Y74830D01*
Y71250D02*
Y74830D01*
Y71250D02*
X184500Y71000D01*
X183500Y75580D02*
Y82457D01*
X181500Y73691D02*
Y80568D01*
X180750Y81318D02*
X181500Y80568D01*
X180260Y84500D02*
X180750Y84009D01*
Y81318D02*
Y84009D01*
X3250Y51750D02*
X5139D01*
X4000Y54611D02*
X6904Y57515D01*
X6950D01*
X-81000Y61000D02*
X-80987Y61013D01*
X-72007D01*
X-1983Y45250D02*
Y45517D01*
X4000Y54500D02*
Y54611D01*
X1000Y49500D02*
X3250Y51750D01*
X23047Y-128988D02*
Y-121904D01*
X-56000Y-76166D02*
Y-67756D01*
X145606Y-87000D02*
X153250Y-79356D01*
Y-71881D01*
X-105955Y105500D02*
X-97734D01*
X266000Y-70907D02*
X270250Y-75157D01*
Y-78477D02*
Y-75157D01*
X252263Y-65748D02*
X265875Y-79360D01*
Y-81988D02*
Y-79360D01*
X252261Y-57874D02*
X252967D01*
X266000Y-70907D01*
X252261Y-73622D02*
X261500Y-82861D01*
Y-85500D02*
Y-82861D01*
X175194Y-63466D02*
X187261Y-75534D01*
X174273Y-67000D02*
X182870Y-75597D01*
X167032Y-64213D02*
X182807Y-79988D01*
X141500Y-87000D02*
X145606D01*
X153250Y-71881D02*
X164631Y-60500D01*
X176681D01*
X187324Y-71143D01*
X180250Y-26750D02*
X180445Y-26945D01*
X173792Y-26750D02*
X180250D01*
X70946Y-59597D02*
X71010D01*
X65602Y-60370D02*
X67579Y-62347D01*
X70118Y-58770D02*
X70946Y-59597D01*
X48224Y-52542D02*
Y-48346D01*
X45075Y-52542D02*
Y-48346D01*
X38776Y-52389D02*
Y-48346D01*
X41925Y-52384D02*
Y-48346D01*
X35626Y-52389D02*
Y-48346D01*
X32476Y-52389D02*
Y-48346D01*
X54524Y-51295D02*
X55500Y-52272D01*
X72563D01*
X51374Y-52542D02*
X52703Y-53872D01*
X73226D01*
X48224Y-52542D02*
X51154Y-55472D01*
X73889D01*
X45075Y-52542D02*
X49604Y-57072D01*
X78072D01*
X41925Y-52384D02*
X48311Y-58770D01*
X70118D01*
X38776Y-52389D02*
X46757Y-60370D01*
X65602D01*
X61021Y-61970D02*
X63579Y-64528D01*
X35626Y-52389D02*
X45207Y-61970D01*
X61021D01*
X56440Y-63570D02*
X59579Y-66709D01*
X32476Y-52389D02*
X43657Y-63570D01*
X56440D01*
X89079Y35157D02*
Y42450D01*
X94197Y37239D02*
Y42450D01*
Y37239D02*
X94977Y36459D01*
Y33081D02*
Y36459D01*
X97197Y-77000D02*
X97500D01*
X56051Y-79500D02*
X86105D01*
X56714Y-81100D02*
X89632D01*
X105360Y-90700D02*
X117060Y-79000D01*
X103262Y-89100D02*
X112362Y-80000D01*
X100563Y-87500D02*
X107193Y-80870D01*
X96902Y-85900D02*
X106805Y-75997D01*
X58039Y-84300D02*
X94366D01*
X101724Y-76942D01*
X58702Y-85900D02*
X96902D01*
X59365Y-87500D02*
X100563D01*
X112250Y-37232D02*
Y-33443D01*
Y-37232D02*
X114518Y-39500D01*
X138988D01*
X177000Y-52561D02*
X193804D01*
X-130220Y11614D02*
Y14749D01*
X-31860Y25425D02*
X16021D01*
X29785Y39189D01*
X-6044Y27025D02*
X15075D01*
X30500Y42450D01*
X-61485Y29000D02*
X-54985Y35500D01*
X-14519D01*
X-6044Y27025D01*
X-40137Y32652D02*
X-32385Y24900D01*
X-188969Y68500D02*
X-184400D01*
X-183000D02*
X-181500D01*
X-180500Y67500D01*
X-188969Y72500D02*
X-184400D01*
X60690Y-90700D02*
X105360D01*
X60027Y-89100D02*
X103262D01*
X86105Y-79500D02*
X90724Y-74880D01*
X90902D01*
X52074Y-69900D02*
X79234D01*
X84933Y-64201D01*
X79896Y-71500D02*
X85596Y-65800D01*
X80559Y-73100D02*
X86259Y-67400D01*
X145851D01*
X81222Y-74700D02*
X86921Y-69001D01*
X81884Y-76300D02*
X87584Y-70600D01*
X82547Y-77900D02*
X88247Y-72201D01*
X52737Y-71500D02*
X79896D01*
X53400Y-73100D02*
X80559D01*
X54063Y-74700D02*
X81222D01*
X54725Y-76300D02*
X81884D01*
X55388Y-77900D02*
X82547D01*
X88247Y-72201D02*
X147839D01*
X176540Y-43500D01*
X87584Y-70600D02*
X147177D01*
X174002Y-43775D01*
X86921Y-69001D02*
X146514D01*
X172402Y-43112D01*
X85596Y-65800D02*
X145188D01*
X84933Y-64201D02*
X144526D01*
X192720Y-14666D02*
Y-11614D01*
X191386Y-16000D02*
X192720Y-14666D01*
X197839Y-18161D02*
Y-11614D01*
X144705Y-12795D02*
X179295D01*
X182500Y-16000D01*
X191386D01*
X147000Y9500D02*
X175500D01*
X190161Y11614D02*
Y14839D01*
X175500Y9500D02*
X182000Y16000D01*
X189000D01*
X190161Y14839D01*
X195280Y11614D02*
Y18221D01*
X13750Y66639D02*
X22137Y75026D01*
X34695Y76864D02*
X36900Y79069D01*
X34695Y71655D02*
Y76864D01*
Y71655D02*
X43863Y62488D01*
X37610Y76031D02*
X37998Y76419D01*
X37610Y71212D02*
Y76031D01*
Y71212D02*
X45663Y63159D01*
X40260Y70825D02*
Y73500D01*
X50511Y67361D02*
Y68846D01*
Y67361D02*
X52463Y65410D01*
Y-30417D02*
Y65410D01*
X28845Y74098D02*
Y79007D01*
X30445Y73435D02*
Y78345D01*
X32045Y72772D02*
Y77682D01*
X5139Y51750D02*
X11750Y58361D01*
X13750Y63331D02*
Y66639D01*
X20337Y75772D02*
Y79028D01*
X11950Y67385D02*
X20337Y75772D01*
X6023Y46750D02*
X32045Y72772D01*
X14333Y60166D02*
X17177D01*
X30445Y73435D01*
X16500Y64500D02*
X19248D01*
X28845Y74098D01*
X11683Y61264D02*
X13750Y63331D01*
X11683Y59001D02*
X11750Y58934D01*
Y58361D02*
Y58934D01*
X11683Y59001D02*
Y61264D01*
X10083Y61927D02*
X11950Y63794D01*
X10083Y60648D02*
Y61927D01*
X6950Y57515D02*
X10083Y60648D01*
X11950Y63794D02*
Y67385D01*
X10350Y64850D02*
Y68047D01*
X4000Y58500D02*
X10350Y64850D01*
X18737Y76434D02*
Y79691D01*
X10350Y68047D02*
X18737Y76434D01*
X6000Y65500D02*
X8750Y68250D01*
Y68710D01*
X17137Y77097D01*
Y80354D01*
X22137Y75026D02*
Y78566D01*
X19500Y68500D02*
X20985D01*
X27245Y74760D01*
Y79670D01*
X28845Y79007D02*
X34188Y84350D01*
X30445Y78345D02*
X34851Y82750D01*
X32045Y77682D02*
X35513Y81150D01*
X-1983Y45517D02*
X-750Y46750D01*
X6023D01*
X148412Y82339D02*
X163424D01*
X142272Y79779D02*
X152576D01*
X152708Y79649D01*
X51374Y-41654D02*
Y-33769D01*
X54524Y-41654D02*
Y-32882D01*
Y-51295D02*
Y-48346D01*
X51374Y-52542D02*
Y-48346D01*
X76003Y87110D02*
X76174Y87280D01*
X19110Y-115012D02*
Y-102864D01*
X21079Y-115012D02*
Y-103158D01*
X23047Y-115012D02*
Y-103453D01*
X44701Y-115012D02*
Y-106689D01*
X60690Y-90700D01*
X42732Y-115012D02*
Y-106395D01*
X60027Y-89100D01*
X40764Y-115012D02*
Y-106101D01*
X59365Y-87500D01*
X38795Y-115012D02*
Y-105807D01*
X58702Y-85900D01*
X36827Y-115012D02*
Y-105512D01*
X58039Y-84300D01*
X34858Y-115012D02*
Y-105218D01*
X57376Y-82700D01*
X32890Y-115012D02*
Y-104924D01*
X56714Y-81100D01*
X30921Y-115012D02*
Y-104630D01*
X56051Y-79500D01*
X28953Y-115012D02*
Y-104335D01*
X55388Y-77900D01*
X26984Y-115012D02*
Y-104041D01*
X54725Y-76300D01*
X25016Y-115012D02*
Y-103747D01*
X54063Y-74700D01*
X23047Y-103453D02*
X53400Y-73100D01*
X21079Y-103158D02*
X52737Y-71500D01*
X19110Y-102864D02*
X52074Y-69900D01*
X33791Y124110D02*
X38228D01*
X-124697Y-23004D02*
X1653D01*
X-127661Y-17494D02*
X-123751Y-21404D01*
X990D01*
X-132780Y-14921D02*
X-124697Y-23004D01*
X-109035Y20447D02*
X-99088Y10500D01*
X-71874D01*
X-63003Y19372D01*
X-99951Y9100D02*
X-71012D01*
X-107851Y17000D02*
X-99951Y9100D01*
X-71012D02*
X-62340Y17772D01*
X42182Y122125D02*
X47934D01*
X14872Y129110D02*
X22622Y121360D01*
X39967Y119910D02*
X42182Y122125D01*
X22622Y121360D02*
X36127D01*
X37477Y122710D01*
X38808D01*
X38057Y121310D02*
X39388D01*
X38637Y119910D02*
X39967D01*
X36987Y118260D02*
X38637Y119910D01*
X36607Y119860D02*
X38057Y121310D01*
X21859Y119860D02*
X36607D01*
X21197Y118260D02*
X36987D01*
X39388Y121310D02*
X41867Y123790D01*
X38808Y122710D02*
X41487Y125390D01*
X49737D01*
X38228Y124110D02*
X41107Y126990D01*
X39476Y127622D02*
X40445Y128590D01*
X36878Y130272D02*
X51644D01*
X55694Y126222D01*
X1653Y-23004D02*
X10357Y-14300D01*
X37411D01*
X990Y-21404D02*
X9894Y-12500D01*
X37947D01*
X14175Y-8626D02*
Y-8325D01*
X-31088Y21100D02*
X1446D01*
X-30425Y19500D02*
X500D01*
X1446Y21100D02*
X10546Y12000D01*
X35500D01*
X500Y19500D02*
X21732Y-1732D01*
X14175Y-8325D02*
X15322Y-7178D01*
X42061D01*
X47663Y-1576D01*
X16171Y-1006D02*
Y-851D01*
Y-1006D02*
X18696Y-3532D01*
X15878Y-4728D02*
X16081Y-4932D01*
X18344D01*
X18744Y-5332D01*
X41362D01*
X41204Y79069D02*
X41773Y78500D01*
X51892Y90722D02*
X51934Y90680D01*
X54306D01*
X46722Y90722D02*
X51892D01*
X45500Y89500D02*
X46722Y90722D01*
X87998Y92110D02*
X88185Y92297D01*
X93535Y97210D02*
X106209D01*
X92872Y95610D02*
X106872D01*
X-142557Y51873D02*
X-139479Y54950D01*
X-122946D01*
X-115000Y62896D01*
Y96455D01*
X-105955Y105500D01*
X-142557Y18500D02*
Y51873D01*
X-142500Y-40000D02*
Y-23196D01*
Y-40000D02*
X-137500Y-45000D01*
X152389Y-22111D02*
X193889D01*
X197839Y-18161D01*
X-25250Y53750D02*
X-24500Y53000D01*
X-67500Y45000D02*
X-59900Y52600D01*
X-28177D02*
X-27027Y53750D01*
X-59900Y52600D02*
X-42792D01*
X-42780Y52611D01*
X-40751D01*
X-40739Y52600D01*
X-28177D01*
X-69139Y55600D02*
X-44034D01*
X-44023Y55611D01*
X-39508D01*
X-39497Y55600D01*
X-29420D01*
X-44614Y57000D02*
X-44603Y57011D01*
X-38928D01*
X-38917Y57000D01*
X-30000D01*
X-27027Y53750D02*
X-25250D01*
X-72007Y61013D02*
X-67994Y57000D01*
X-44614D01*
X-30000D02*
X-27978Y59022D01*
X-9806D01*
X-29420Y55600D02*
X-27398Y57622D01*
X-20122D01*
X-19000Y56500D01*
X-82015Y58550D02*
X-72089D01*
X-138000Y52500D02*
X-88065D01*
X-82015Y58550D01*
X-72089D02*
X-69139Y55600D01*
X-102100Y31228D02*
X-100791Y29919D01*
X-89954D01*
X-98658Y34000D02*
X-96077Y31420D01*
X-86348D01*
X-23776Y117996D02*
X-23500Y117720D01*
X145851Y-67400D02*
X170802Y-42449D01*
Y-36174D01*
X173752Y-33224D01*
X145188Y-65800D02*
X169202Y-41787D01*
X173588Y-29500D02*
X177000D01*
X169202Y-41787D02*
Y-33885D01*
X173588Y-29500D01*
X167402Y-33140D02*
X173792Y-26750D01*
X144526Y-64201D02*
X167402Y-41324D01*
Y-33140D01*
X145460Y-24606D02*
X149894D01*
X152389Y-22111D01*
X144632Y23776D02*
X146908Y21500D01*
X192000D01*
X-6992Y66417D02*
X-6143D01*
X-7752Y65656D02*
X-6992Y66417D01*
X-35755Y85161D02*
X-16250Y65656D01*
X-7752D01*
X198000Y-11614D02*
Y-11000D01*
X144500Y-13000D02*
X144705Y-12795D01*
D53*
X-23776Y105386D02*
Y110511D01*
X-30500Y98661D02*
X-23776Y105386D01*
X-36500Y85906D02*
X-35755Y85161D01*
X-36500Y85906D02*
Y96161D01*
Y100589D02*
X-30075Y107014D01*
X-36500Y96161D02*
Y100589D01*
X-33698Y99502D02*
X-29500Y103700D01*
X-30075Y107014D02*
Y110787D01*
X-26925Y106275D02*
Y110787D01*
X-29500Y103700D02*
X-26925Y106275D01*
X-33698Y88238D02*
Y99502D01*
Y88238D02*
X-14016Y68556D01*
D54*
X-69575Y-68543D02*
X-66425D01*
D56*
X-91500Y-16004D02*
D03*
Y16004D02*
D03*
X-77250Y-107843D02*
D03*
Y-88157D02*
D03*
D57*
X211500Y-76500D02*
D03*
X221500D02*
D03*
X231500D02*
D03*
Y-46500D02*
D03*
X221500D02*
D03*
X211500D02*
D03*
D58*
X252261Y-50000D02*
D03*
X252259Y-89370D02*
D03*
Y-81496D02*
D03*
X252261Y-73622D02*
D03*
X252263Y-65748D02*
D03*
X252261Y-57874D02*
D03*
D59*
X-2000Y-73500D02*
D03*
X-18000Y-60500D02*
D03*
Y-73500D02*
D03*
X-118500Y-141500D02*
D03*
Y-128500D02*
D03*
D60*
X-130000Y70500D02*
D03*
Y-70500D02*
D03*
D61*
X270000Y-125000D02*
D03*
X272500Y125000D02*
D03*
D62*
X-17500Y-45000D02*
D03*
X-27500D02*
D03*
X-37500D02*
D03*
X-47500D02*
D03*
X-87500D02*
D03*
X-77500D02*
D03*
X-67500D02*
D03*
X-57500D02*
D03*
X-127500D02*
D03*
X-117500D02*
D03*
X-107500D02*
D03*
X-97500D02*
D03*
X-167500D02*
D03*
X-157500D02*
D03*
X-147500D02*
D03*
X-137500D02*
D03*
X-207500D02*
D03*
X-197500D02*
D03*
X-187500D02*
D03*
X-177500D02*
D03*
Y45000D02*
D03*
X-187500D02*
D03*
X-197500D02*
D03*
X-207500D02*
D03*
X-137500D02*
D03*
X-147500D02*
D03*
X-157500D02*
D03*
X-167500D02*
D03*
X-97500D02*
D03*
X-107500D02*
D03*
X-117500D02*
D03*
X-127500D02*
D03*
X-57500D02*
D03*
X-67500D02*
D03*
X-77500D02*
D03*
X-87500D02*
D03*
X-47500D02*
D03*
X-27500D02*
D03*
X-37500D02*
D03*
X-17500D02*
D03*
D63*
X-77835Y92335D02*
D03*
X-82165D02*
D03*
X-77835Y96665D02*
D03*
X-82165D02*
D03*
X132592Y-127610D02*
D03*
X146359Y-17440D02*
D03*
X145460Y-24606D02*
D03*
D64*
X93070Y90610D02*
D03*
X103500Y88000D02*
D03*
X271953Y19500D02*
D03*
X33663Y66161D02*
D03*
X-48036Y113661D02*
D03*
X-58000Y112850D02*
D03*
X-36500Y96161D02*
D03*
X-30500Y98661D02*
D03*
X220000Y53000D02*
D03*
X226500Y59500D02*
D03*
X224285Y56154D02*
D03*
X217000Y42438D02*
D03*
X75343Y35157D02*
D03*
X92004Y-78728D02*
D03*
X43878Y73772D02*
D03*
X46410Y71024D02*
D03*
X33791Y124110D02*
D03*
X33878Y127772D02*
D03*
X36878Y130272D02*
D03*
X20009Y92384D02*
D03*
X15000Y-32500D02*
D03*
X12575Y-27500D02*
D03*
X9500Y-31500D02*
D03*
X10500Y-18000D02*
D03*
X15050Y-17500D02*
D03*
X6000Y-34280D02*
D03*
X-173000Y92500D02*
D03*
X-138000Y52500D02*
D03*
X-160000Y88584D02*
D03*
X-183485Y-86515D02*
D03*
X-161500Y64500D02*
D03*
X-169943Y-88000D02*
D03*
X-24500Y53000D02*
D03*
X163372Y95110D02*
D03*
X134872Y99110D02*
D03*
X122372Y103110D02*
D03*
X120372Y99110D02*
D03*
X123872Y91110D02*
D03*
X36439Y39189D02*
D03*
X78372Y109610D02*
D03*
X124486Y115610D02*
D03*
X127872Y113610D02*
D03*
X130872Y111110D02*
D03*
X133872Y108924D02*
D03*
X136816Y106274D02*
D03*
X146419Y134610D02*
D03*
X163757Y127610D02*
D03*
X-52966Y132757D02*
D03*
X156000Y-140000D02*
D03*
X23000Y-49500D02*
D03*
X-35000Y-104500D02*
D03*
X-39198Y-129000D02*
D03*
X70760Y77500D02*
D03*
X73870Y72320D02*
D03*
X50511Y68846D02*
D03*
X98319Y51000D02*
D03*
X73031Y64750D02*
D03*
X65760Y66000D02*
D03*
X130372Y67134D02*
D03*
X197733Y36691D02*
D03*
X193500Y41000D02*
D03*
X204000Y41500D02*
D03*
X199000Y42500D02*
D03*
X188443Y63000D02*
D03*
X90500Y-57072D02*
D03*
X112250Y-33443D02*
D03*
X-196500Y66000D02*
D03*
X-180500Y67500D02*
D03*
X-176154Y66500D02*
D03*
X-37763Y111136D02*
D03*
X144632Y23776D02*
D03*
X128521Y22638D02*
D03*
X16500Y64500D02*
D03*
X-132000Y17000D02*
D03*
X64374Y20500D02*
D03*
X59821Y17730D02*
D03*
X79236Y35157D02*
D03*
X-102100Y31228D02*
D03*
X39947Y-10500D02*
D03*
X39000Y984D02*
D03*
X35500Y12000D02*
D03*
X67425Y35157D02*
D03*
X-5029Y29475D02*
D03*
X-104857Y24304D02*
D03*
X30500Y42500D02*
D03*
X-109996Y-26000D02*
D03*
X-93500Y35500D02*
D03*
X37500Y33101D02*
D03*
X32500Y36374D02*
D03*
X8000Y81000D02*
D03*
X141500Y-87000D02*
D03*
X63579Y-64528D02*
D03*
X59579Y-66709D02*
D03*
X67579Y-62347D02*
D03*
X71579Y-60166D02*
D03*
X178300Y-43500D02*
D03*
X176000Y-40500D02*
D03*
X173752Y-37515D02*
D03*
Y-33224D02*
D03*
X177000Y-29500D02*
D03*
X231000Y-17771D02*
D03*
X-81000Y61000D02*
D03*
X219771Y-29000D02*
D03*
X150500Y-78500D02*
D03*
X-37993Y-4000D02*
D03*
Y4000D02*
D03*
X-15757Y32761D02*
D03*
X-15575Y-26925D02*
D03*
X147000Y9500D02*
D03*
X44622Y-21500D02*
D03*
X89079Y35157D02*
D03*
X180445Y-26945D02*
D03*
X23500Y-53500D02*
D03*
X22000Y-45500D02*
D03*
X144500Y-12795D02*
D03*
X-54125Y14264D02*
D03*
X-49375Y14286D02*
D03*
X-56500Y10500D02*
D03*
X-51750D02*
D03*
X-187004Y15496D02*
D03*
X96740Y10288D02*
D03*
X106240D02*
D03*
X101490D02*
D03*
X103865Y14074D02*
D03*
X99115Y14051D02*
D03*
X-47000Y10500D02*
D03*
X-64500Y107843D02*
D03*
X-60701D02*
D03*
X-93685Y83248D02*
D03*
Y87047D02*
D03*
X96740Y-9812D02*
D03*
X101490D02*
D03*
X106240D02*
D03*
X103865Y-13598D02*
D03*
X99115Y-13575D02*
D03*
X-54125Y-13788D02*
D03*
X-49375Y-13811D02*
D03*
X-47000Y-10024D02*
D03*
X-51750D02*
D03*
X-56500D02*
D03*
X126827Y-10827D02*
D03*
X125750Y-33565D02*
D03*
X125129Y18701D02*
D03*
X82189Y-57072D02*
D03*
X86500D02*
D03*
X78072D02*
D03*
X-82500Y-140000D02*
D03*
X82855Y-33000D02*
D03*
X112701Y31871D02*
D03*
X104827D02*
D03*
X118606D02*
D03*
X119000Y-33500D02*
D03*
X-131500Y-54500D02*
D03*
X-23000Y82500D02*
D03*
X-20000Y85000D02*
D03*
X-29500Y103700D02*
D03*
X-79016Y-64500D02*
D03*
X71010Y-33000D02*
D03*
X83173Y35157D02*
D03*
X-88500Y35969D02*
D03*
X-81928Y27000D02*
D03*
X184500Y71000D02*
D03*
X180260Y84500D02*
D03*
X183500Y82457D02*
D03*
X181500Y73691D02*
D03*
X-130220Y38581D02*
D03*
X6000Y65500D02*
D03*
X4000Y58500D02*
D03*
X-14016Y68556D02*
D03*
X3000Y80000D02*
D03*
X-1983Y45250D02*
D03*
X4000Y54500D02*
D03*
X1000Y49500D02*
D03*
X-19000Y56500D02*
D03*
X23047Y-121904D02*
D03*
X-97734Y105500D02*
D03*
X261500Y-85500D02*
D03*
X265875Y-81988D02*
D03*
X270250Y-78477D02*
D03*
X182870Y-75597D02*
D03*
X187324Y-71143D02*
D03*
X187261Y-75534D02*
D03*
X182807Y-79988D02*
D03*
X174273Y-67000D02*
D03*
X175194Y-63466D02*
D03*
X167032Y-64213D02*
D03*
X-98658Y34000D02*
D03*
X97500Y-77000D02*
D03*
X101724Y-76942D02*
D03*
X106805Y-75997D02*
D03*
X107193Y-80870D02*
D03*
X112362Y-80000D02*
D03*
X117060Y-79000D02*
D03*
X138988Y-39500D02*
D03*
X145787Y-52500D02*
D03*
X177000Y-52561D02*
D03*
X193804D02*
D03*
X130328Y50406D02*
D03*
X196250Y31000D02*
D03*
X-196500Y-76406D02*
D03*
X-61485Y29000D02*
D03*
X-40137Y32652D02*
D03*
X90902Y-74880D02*
D03*
X19500Y68500D02*
D03*
X40260Y73500D02*
D03*
X37998Y76419D02*
D03*
X26260Y53811D02*
D03*
X30760Y57000D02*
D03*
X14333Y60166D02*
D03*
X152708Y79649D02*
D03*
X-73500Y56072D02*
D03*
X14000Y84500D02*
D03*
X77268Y49861D02*
D03*
X14175Y-8626D02*
D03*
X-2500Y15500D02*
D03*
X15878Y-4728D02*
D03*
X16171Y-851D02*
D03*
X75260Y84250D02*
D03*
X45500Y89500D02*
D03*
X41773Y78500D02*
D03*
X50878Y88272D02*
D03*
X70260Y81500D02*
D03*
X66960Y73500D02*
D03*
X34500Y61500D02*
D03*
X13406Y89500D02*
D03*
X9500Y87000D02*
D03*
X-6143Y66417D02*
D03*
X87998Y92110D02*
D03*
X-50000Y120000D02*
D03*
X-54143Y108924D02*
D03*
X62000Y-18058D02*
D03*
X60000Y-24000D02*
D03*
X59374Y23500D02*
D03*
X-142557Y18500D02*
D03*
X-142500Y-23196D02*
D03*
X-139000Y-18624D02*
D03*
X177640Y-19016D02*
D03*
X-41765Y50161D02*
D03*
X-6233Y33601D02*
D03*
X-20736Y65078D02*
D03*
X-13500Y61738D02*
D03*
X-42700Y121885D02*
D03*
X-63744Y64295D02*
D03*
X-63768Y76788D02*
D03*
D65*
X268425Y-44500D02*
D03*
X117568Y49500D02*
D03*
X-196095Y-64595D02*
D03*
X-188628Y-60000D02*
D03*
X-99186Y139063D02*
D03*
X53878Y110000D02*
D03*
X68223Y-129000D02*
D03*
X131872Y79110D02*
D03*
X96372Y121610D02*
D03*
X130872Y90610D02*
D03*
X131872Y84898D02*
D03*
X102000Y107500D02*
D03*
X3835Y-108647D02*
D03*
X-6143Y-109500D02*
D03*
X96372Y103110D02*
D03*
X4264Y108860D02*
D03*
X162500Y59843D02*
D03*
X191000Y18500D02*
D03*
X-198731Y-34017D02*
D03*
X106795Y-33599D02*
D03*
X-193500Y84517D02*
D03*
X-179373Y83000D02*
D03*
X-173968Y70500D02*
D03*
X-51000Y91500D02*
D03*
X-26000Y16000D02*
D03*
X16334Y108678D02*
D03*
X62500Y32000D02*
D03*
X206089Y115000D02*
D03*
X226000Y-114333D02*
D03*
X217500Y-109398D02*
D03*
X208000D02*
D03*
X-69500Y-75606D02*
D03*
X-43777Y-73680D02*
D03*
X-49902D02*
D03*
X268425Y5500D02*
D03*
Y30512D02*
D03*
Y-19500D02*
D03*
X-45000Y-36000D02*
D03*
X-26500Y-33101D02*
D03*
X-36314Y9786D02*
D03*
X147000Y18406D02*
D03*
X99216Y20395D02*
D03*
X222504Y0D02*
D03*
X95000Y-33599D02*
D03*
X94977Y33081D02*
D03*
X134364Y40500D02*
D03*
X-122543Y4724D02*
D03*
X-131500Y-5286D02*
D03*
X235496Y0D02*
D03*
X125129Y984D02*
D03*
X121000Y-12623D02*
D03*
X-77000Y-5000D02*
D03*
X91454Y-109500D02*
D03*
X79643D02*
D03*
X-183000Y95500D02*
D03*
X-70000Y119000D02*
D03*
X-76500D02*
D03*
X-83000D02*
D03*
X-104842Y91547D02*
D03*
X74500Y25012D02*
D03*
Y16004D02*
D03*
X89629Y30032D02*
D03*
X112701Y14634D02*
D03*
X118606D02*
D03*
X112250Y-18034D02*
D03*
X119000Y-18059D02*
D03*
X125750Y-18000D02*
D03*
X-163000Y-93500D02*
D03*
X-198000Y0D02*
D03*
X-189500D02*
D03*
X-47000Y-98500D02*
D03*
X-39000Y-92000D02*
D03*
X70898Y-18624D02*
D03*
X82709D02*
D03*
X64892Y-33599D02*
D03*
X77273D02*
D03*
X61113Y-2500D02*
D03*
X-67500Y-53500D02*
D03*
X-107000Y10000D02*
D03*
X-54559Y-34449D02*
D03*
X60983Y-129000D02*
D03*
X53742D02*
D03*
X64603D02*
D03*
X57362D02*
D03*
X71843D02*
D03*
X216014Y113311D02*
D03*
X226000D02*
D03*
X-89360Y75955D02*
D03*
X-104842Y98047D02*
D03*
X-75563Y139063D02*
D03*
X-66299Y89579D02*
D03*
X110732Y49845D02*
D03*
X47000Y109999D02*
D03*
X-77004Y-9752D02*
D03*
X207581Y16311D02*
D03*
X103000Y83000D02*
D03*
X67000Y-15000D02*
D03*
X-196393Y-70000D02*
D03*
X82361Y50573D02*
D03*
X176681Y-3300D02*
D03*
D66*
X2000Y141500D02*
D03*
X194233Y-107461D02*
D03*
X197966Y-112423D02*
D03*
X190500D02*
D03*
X186767Y-107461D02*
D03*
X241733Y-112423D02*
D03*
X234267D02*
D03*
X238000Y-107461D02*
D03*
X245465D02*
D03*
X245233Y108961D02*
D03*
X237767D02*
D03*
X234034Y113923D02*
D03*
X241500D02*
D03*
X186535Y108961D02*
D03*
X194000D02*
D03*
X190267Y113923D02*
D03*
X197733D02*
D03*
X-202198Y-90500D02*
D03*
X-194733D02*
D03*
X-198466Y-95461D02*
D03*
X-191000D02*
D03*
X-154698D02*
D03*
X-147233D02*
D03*
X-150965Y-90500D02*
D03*
X-143500D02*
D03*
X-36661Y70630D02*
D03*
D67*
X-125740Y107295D02*
D03*
D68*
X187500Y45250D02*
D03*
D69*
X-56000Y-76166D02*
D03*
D70*
X-191126Y92084D02*
D03*
D71*
X-83829Y140819D02*
D03*
D76*
X-208291Y83492D02*
D03*
Y57508D02*
D03*
Y-57508D02*
D03*
Y-83492D02*
D03*
D77*
X-188016Y72469D02*
D03*
Y76406D02*
D03*
Y64595D02*
D03*
Y68532D02*
D03*
Y-68532D02*
D03*
Y-64595D02*
D03*
Y-76406D02*
D03*
Y-72469D02*
D03*
D78*
X202957Y-11614D02*
D03*
X200398D02*
D03*
X197839D02*
D03*
X195280D02*
D03*
X192720D02*
D03*
X190161D02*
D03*
X187602D02*
D03*
X185043D02*
D03*
X202957Y11614D02*
D03*
X200398D02*
D03*
X197839D02*
D03*
X195280D02*
D03*
X192720D02*
D03*
X190161D02*
D03*
X187602D02*
D03*
X185043D02*
D03*
X-140457Y11614D02*
D03*
X-137898D02*
D03*
X-135339D02*
D03*
X-132780D02*
D03*
X-130220D02*
D03*
X-127661D02*
D03*
X-125102D02*
D03*
X-122543D02*
D03*
X-140457Y-11614D02*
D03*
X-137898D02*
D03*
X-135339D02*
D03*
X-132780D02*
D03*
X-130220D02*
D03*
X-127661D02*
D03*
X-125102D02*
D03*
X-122543D02*
D03*
D79*
X39760Y110000D02*
D03*
X97240D02*
D03*
X49819Y-122000D02*
D03*
X2181D02*
D03*
D80*
X92122Y103012D02*
D03*
X90153D02*
D03*
X88185D02*
D03*
X86216D02*
D03*
X84248D02*
D03*
X82279D02*
D03*
X80311D02*
D03*
X78342D02*
D03*
X76374D02*
D03*
X74405D02*
D03*
X72437D02*
D03*
X70468D02*
D03*
X68500D02*
D03*
X66531D02*
D03*
X64563D02*
D03*
X62594D02*
D03*
X60626D02*
D03*
X58657D02*
D03*
X56689D02*
D03*
X54720D02*
D03*
X52752D02*
D03*
X50783D02*
D03*
X48815D02*
D03*
X46847D02*
D03*
X44878D02*
D03*
X92122Y116988D02*
D03*
X90153D02*
D03*
X88185D02*
D03*
X86216D02*
D03*
X84248D02*
D03*
X82279D02*
D03*
X80311D02*
D03*
X78342D02*
D03*
X76374D02*
D03*
X74405D02*
D03*
X72437D02*
D03*
X70468D02*
D03*
X68500D02*
D03*
X66531D02*
D03*
X64563D02*
D03*
X62594D02*
D03*
X60626D02*
D03*
X58657D02*
D03*
X56689D02*
D03*
X54720D02*
D03*
X52752D02*
D03*
X50783D02*
D03*
X48815D02*
D03*
X46847D02*
D03*
X44878D02*
D03*
X15173Y-115012D02*
D03*
X13205D02*
D03*
X7299D02*
D03*
X9268D02*
D03*
X11236D02*
D03*
X17142D02*
D03*
X42732D02*
D03*
X44701D02*
D03*
X32890D02*
D03*
X40764D02*
D03*
X38795D02*
D03*
X30921D02*
D03*
X28953D02*
D03*
X36827D02*
D03*
X34858D02*
D03*
X21079D02*
D03*
X25016D02*
D03*
X23047D02*
D03*
X19110D02*
D03*
X26984D02*
D03*
X44701Y-128988D02*
D03*
X42732D02*
D03*
X36827D02*
D03*
X34858D02*
D03*
X40764D02*
D03*
X38795D02*
D03*
X32890D02*
D03*
X30921D02*
D03*
X28953D02*
D03*
X23047D02*
D03*
X21079D02*
D03*
X19110D02*
D03*
X17142D02*
D03*
X15173D02*
D03*
X26984D02*
D03*
X25016D02*
D03*
X9268D02*
D03*
X7299D02*
D03*
X13205D02*
D03*
X11236D02*
D03*
D81*
X-56224Y-88000D02*
D03*
X-46776Y-91740D02*
D03*
Y-84260D02*
D03*
D82*
X-103122Y118272D02*
D03*
Y114728D02*
D03*
D83*
X142272Y95134D02*
D03*
Y92575D02*
D03*
Y90016D02*
D03*
Y87457D02*
D03*
Y84898D02*
D03*
Y82339D02*
D03*
Y79779D02*
D03*
Y77220D02*
D03*
Y74661D02*
D03*
Y72102D02*
D03*
Y69543D02*
D03*
Y66984D02*
D03*
Y64425D02*
D03*
Y61866D02*
D03*
X113728Y95134D02*
D03*
Y92575D02*
D03*
Y90016D02*
D03*
Y87457D02*
D03*
Y84898D02*
D03*
Y82339D02*
D03*
Y79779D02*
D03*
Y77220D02*
D03*
Y74661D02*
D03*
Y72102D02*
D03*
Y69543D02*
D03*
Y66984D02*
D03*
Y64425D02*
D03*
Y61866D02*
D03*
D84*
X-75563Y129551D02*
D03*
X-103122D02*
D03*
X-99186D02*
D03*
X-95249D02*
D03*
X-91311D02*
D03*
X-87374Y129551D02*
D03*
X-83437Y129551D02*
D03*
X-79500D02*
D03*
D85*
X-62375Y139000D02*
D03*
X-116311D02*
D03*
D86*
X-77250Y-121541D02*
Y-107843D01*
D87*
X-77092Y-88000D02*
X-55437D01*
M02*
