G04 Layer_Color=128*
%FSLAX25Y25*%
%MOIN*%
G70*
G01*
G75*
%ADD94R,0.04143X0.03750*%
%ADD98R,0.03750X0.04143*%
%ADD99R,0.03947X0.04340*%
%ADD101R,0.04734X0.02765*%
%ADD102R,0.02765X0.04734*%
%ADD103R,0.04340X0.03947*%
%ADD107R,0.04734X0.04734*%
%ADD108R,0.02372X0.04143*%
G04:AMPARAMS|DCode=118|XSize=143.79mil|YSize=56mil|CornerRadius=15.5mil|HoleSize=0mil|Usage=FLASHONLY|Rotation=90.000|XOffset=0mil|YOffset=0mil|HoleType=Round|Shape=RoundedRectangle|*
%AMROUNDEDRECTD118*
21,1,0.14379,0.02500,0,0,90.0*
21,1,0.11280,0.05600,0,0,90.0*
1,1,0.03100,0.01250,0.05640*
1,1,0.03100,0.01250,-0.05640*
1,1,0.03100,-0.01250,-0.05640*
1,1,0.03100,-0.01250,0.05640*
%
%ADD118ROUNDEDRECTD118*%
G04:AMPARAMS|DCode=119|XSize=143.79mil|YSize=106mil|CornerRadius=28mil|HoleSize=0mil|Usage=FLASHONLY|Rotation=90.000|XOffset=0mil|YOffset=0mil|HoleType=Round|Shape=RoundedRectangle|*
%AMROUNDEDRECTD119*
21,1,0.14379,0.05000,0,0,90.0*
21,1,0.08780,0.10600,0,0,90.0*
1,1,0.05600,0.02500,0.04390*
1,1,0.05600,0.02500,-0.04390*
1,1,0.05600,-0.02500,-0.04390*
1,1,0.05600,-0.02500,0.04390*
%
%ADD119ROUNDEDRECTD119*%
G04:AMPARAMS|DCode=124|XSize=16mil|YSize=14mil|CornerRadius=3.2mil|HoleSize=0mil|Usage=FLASHONLY|Rotation=0.000|XOffset=0mil|YOffset=0mil|HoleType=Round|Shape=RoundedRectangle|*
%AMROUNDEDRECTD124*
21,1,0.01600,0.00760,0,0,0.0*
21,1,0.00960,0.01400,0,0,0.0*
1,1,0.00640,0.00480,-0.00380*
1,1,0.00640,-0.00480,-0.00380*
1,1,0.00640,-0.00480,0.00380*
1,1,0.00640,0.00480,0.00380*
%
%ADD124ROUNDEDRECTD124*%
G04:AMPARAMS|DCode=125|XSize=16mil|YSize=14mil|CornerRadius=3.2mil|HoleSize=0mil|Usage=FLASHONLY|Rotation=90.000|XOffset=0mil|YOffset=0mil|HoleType=Round|Shape=RoundedRectangle|*
%AMROUNDEDRECTD125*
21,1,0.01600,0.00760,0,0,90.0*
21,1,0.00960,0.01400,0,0,90.0*
1,1,0.00640,0.00380,0.00480*
1,1,0.00640,0.00380,-0.00480*
1,1,0.00640,-0.00380,-0.00480*
1,1,0.00640,-0.00380,0.00480*
%
%ADD125ROUNDEDRECTD125*%
%ADD180R,0.07687X0.05324*%
%ADD181R,0.07293X0.02962*%
%ADD182R,0.02372X0.06112*%
%ADD183R,0.04100X0.07100*%
%ADD184R,0.01781X0.08474*%
%ADD185R,0.04734X0.03553*%
%ADD186R,0.02962X0.02962*%
%ADD187R,0.07096X0.02175*%
%ADD188R,0.02962X0.08474*%
%ADD189R,0.10443X0.11624*%
D94*
X-56000Y-62638D02*
D03*
Y-67756D02*
D03*
D98*
X266559Y19500D02*
D03*
X261441D02*
D03*
X89079Y42450D02*
D03*
X94197D02*
D03*
D99*
X126237Y-6000D02*
D03*
X120922D02*
D03*
X-173968Y76393D02*
D03*
X-179283D02*
D03*
X64342Y16004D02*
D03*
X69657D02*
D03*
X64342Y25034D02*
D03*
X69657D02*
D03*
X79343Y30032D02*
D03*
X84658D02*
D03*
D101*
X89106Y85685D02*
D03*
Y82535D02*
D03*
Y79386D02*
D03*
Y76236D02*
D03*
Y73087D02*
D03*
Y69937D02*
D03*
Y66787D02*
D03*
Y63638D02*
D03*
X82413Y85685D02*
D03*
Y82535D02*
D03*
Y79386D02*
D03*
Y76236D02*
D03*
Y73087D02*
D03*
Y69937D02*
D03*
Y66787D02*
D03*
Y63638D02*
D03*
D102*
X54524Y-48346D02*
D03*
X51374D02*
D03*
X48224D02*
D03*
X45075D02*
D03*
X41925D02*
D03*
X38776D02*
D03*
X35626D02*
D03*
X32476D02*
D03*
X54524Y-41654D02*
D03*
X51374D02*
D03*
X48224D02*
D03*
X45075D02*
D03*
X41925D02*
D03*
X38776D02*
D03*
X35626D02*
D03*
X32476D02*
D03*
D103*
X125129Y14110D02*
D03*
Y8795D02*
D03*
X82855Y-28703D02*
D03*
Y-23388D02*
D03*
X112250Y-28703D02*
D03*
Y-23388D02*
D03*
X64842D02*
D03*
Y-28703D02*
D03*
X132500Y-28703D02*
D03*
Y-23388D02*
D03*
X71010Y-28703D02*
D03*
Y-23388D02*
D03*
X125750Y-28703D02*
D03*
Y-23388D02*
D03*
X119000Y-28703D02*
D03*
Y-23388D02*
D03*
X-49902Y-67658D02*
D03*
Y-62343D02*
D03*
X-44000D02*
D03*
Y-67658D02*
D03*
X61000Y-12157D02*
D03*
Y-6842D02*
D03*
X118606Y25657D02*
D03*
Y20343D02*
D03*
X112701Y25657D02*
D03*
Y20343D02*
D03*
X104827Y25657D02*
D03*
Y20343D02*
D03*
X128521Y29342D02*
D03*
Y34657D02*
D03*
D107*
X-187004Y-8858D02*
D03*
Y8858D02*
D03*
X-199996Y-8858D02*
D03*
Y8858D02*
D03*
D108*
X-63276Y-68543D02*
D03*
X-66425D02*
D03*
X-69575D02*
D03*
X-72724D02*
D03*
X-63276Y-61457D02*
D03*
X-66425D02*
D03*
X-69575D02*
D03*
X-72724D02*
D03*
X-33224Y117874D02*
D03*
X-30075D02*
D03*
X-26925D02*
D03*
X-23776D02*
D03*
X-33224Y110787D02*
D03*
X-30075D02*
D03*
X-26925D02*
D03*
X-23776D02*
D03*
D118*
X206000Y-126213D02*
D03*
X216000D02*
D03*
X226000D02*
D03*
X-183000Y-106213D02*
D03*
X-173000D02*
D03*
X-163000D02*
D03*
Y106213D02*
D03*
X-173000D02*
D03*
X-183000D02*
D03*
X226000Y126213D02*
D03*
X216000D02*
D03*
X206000D02*
D03*
D119*
X194032Y-126213D02*
D03*
X237968D02*
D03*
X-194968Y-106213D02*
D03*
X-151031D02*
D03*
Y106213D02*
D03*
X-194968D02*
D03*
X237968Y126213D02*
D03*
X194032D02*
D03*
D124*
X-183900Y72500D02*
D03*
X-183500D02*
D03*
X-183900Y68500D02*
D03*
X-183500D02*
D03*
X147912Y82339D02*
D03*
X147512D02*
D03*
D125*
X-57500Y-51275D02*
D03*
Y-50875D02*
D03*
D180*
X-208291Y83492D02*
D03*
Y57508D02*
D03*
Y-57508D02*
D03*
Y-83492D02*
D03*
D181*
X-188016Y72469D02*
D03*
Y76406D02*
D03*
Y64595D02*
D03*
Y68532D02*
D03*
Y-68532D02*
D03*
Y-64595D02*
D03*
Y-76406D02*
D03*
Y-72469D02*
D03*
D182*
X202957Y-11614D02*
D03*
X200398D02*
D03*
X197839D02*
D03*
X195280D02*
D03*
X192720D02*
D03*
X190161D02*
D03*
X187602D02*
D03*
X185043D02*
D03*
X202957Y11614D02*
D03*
X200398D02*
D03*
X197839D02*
D03*
X195280D02*
D03*
X192720D02*
D03*
X190161D02*
D03*
X187602D02*
D03*
X185043D02*
D03*
X-140457Y11614D02*
D03*
X-137898D02*
D03*
X-135339D02*
D03*
X-132780D02*
D03*
X-130220D02*
D03*
X-127661D02*
D03*
X-125102D02*
D03*
X-122543D02*
D03*
X-140457Y-11614D02*
D03*
X-137898D02*
D03*
X-135339D02*
D03*
X-132780D02*
D03*
X-130220D02*
D03*
X-127661D02*
D03*
X-125102D02*
D03*
X-122543D02*
D03*
D183*
X39760Y110000D02*
D03*
X97240D02*
D03*
X49819Y-122000D02*
D03*
X2181D02*
D03*
D184*
X92122Y103012D02*
D03*
X90153D02*
D03*
X88185D02*
D03*
X86216D02*
D03*
X84248D02*
D03*
X82279D02*
D03*
X80311D02*
D03*
X78342D02*
D03*
X76374D02*
D03*
X74405D02*
D03*
X72437D02*
D03*
X70468D02*
D03*
X68500D02*
D03*
X66531D02*
D03*
X64563D02*
D03*
X62594D02*
D03*
X60626D02*
D03*
X58657D02*
D03*
X56689D02*
D03*
X54720D02*
D03*
X52752D02*
D03*
X50783D02*
D03*
X48815D02*
D03*
X46847D02*
D03*
X44878D02*
D03*
X92122Y116988D02*
D03*
X90153D02*
D03*
X88185D02*
D03*
X86216D02*
D03*
X84248D02*
D03*
X82279D02*
D03*
X80311D02*
D03*
X78342D02*
D03*
X76374D02*
D03*
X74405D02*
D03*
X72437D02*
D03*
X70468D02*
D03*
X68500D02*
D03*
X66531D02*
D03*
X64563D02*
D03*
X62594D02*
D03*
X60626D02*
D03*
X58657D02*
D03*
X56689D02*
D03*
X54720D02*
D03*
X52752D02*
D03*
X50783D02*
D03*
X48815D02*
D03*
X46847D02*
D03*
X44878D02*
D03*
X15173Y-115012D02*
D03*
X13205D02*
D03*
X7299D02*
D03*
X9268D02*
D03*
X11236D02*
D03*
X17142D02*
D03*
X42732D02*
D03*
X44701D02*
D03*
X32890D02*
D03*
X40764D02*
D03*
X38795D02*
D03*
X30921D02*
D03*
X28953D02*
D03*
X36827D02*
D03*
X34858D02*
D03*
X21079D02*
D03*
X25016D02*
D03*
X23047D02*
D03*
X19110D02*
D03*
X26984D02*
D03*
X44701Y-128988D02*
D03*
X42732D02*
D03*
X36827D02*
D03*
X34858D02*
D03*
X40764D02*
D03*
X38795D02*
D03*
X32890D02*
D03*
X30921D02*
D03*
X28953D02*
D03*
X23047D02*
D03*
X21079D02*
D03*
X19110D02*
D03*
X17142D02*
D03*
X15173D02*
D03*
X26984D02*
D03*
X25016D02*
D03*
X9268D02*
D03*
X7299D02*
D03*
X13205D02*
D03*
X11236D02*
D03*
D185*
X-56224Y-88000D02*
D03*
X-46776Y-91740D02*
D03*
Y-84260D02*
D03*
D186*
X-103122Y118272D02*
D03*
Y114728D02*
D03*
D187*
X142272Y95134D02*
D03*
Y92575D02*
D03*
Y90016D02*
D03*
Y87457D02*
D03*
Y84898D02*
D03*
Y82339D02*
D03*
Y79779D02*
D03*
Y77220D02*
D03*
Y74661D02*
D03*
Y72102D02*
D03*
Y69543D02*
D03*
Y66984D02*
D03*
Y64425D02*
D03*
Y61866D02*
D03*
X113728Y95134D02*
D03*
Y92575D02*
D03*
Y90016D02*
D03*
Y87457D02*
D03*
Y84898D02*
D03*
Y82339D02*
D03*
Y79779D02*
D03*
Y77220D02*
D03*
Y74661D02*
D03*
Y72102D02*
D03*
Y69543D02*
D03*
Y66984D02*
D03*
Y64425D02*
D03*
Y61866D02*
D03*
D188*
X-75563Y129551D02*
D03*
X-103122D02*
D03*
X-99186D02*
D03*
X-95249D02*
D03*
X-91311D02*
D03*
X-87374Y129551D02*
D03*
X-83437Y129551D02*
D03*
X-79500D02*
D03*
D189*
X-62375Y139000D02*
D03*
X-116311D02*
D03*
M02*
