G04 Layer_Color=8421504*
%FSLAX25Y25*%
%MOIN*%
G70*
G01*
G75*
%ADD93R,0.08400X0.07200*%
%ADD94R,0.04143X0.03750*%
%ADD95R,0.03750X0.01584*%
%ADD96R,0.01584X0.03750*%
%ADD97R,0.11230X0.10836*%
%ADD98R,0.03750X0.04143*%
%ADD99R,0.03947X0.04340*%
%ADD100R,0.04143X0.06112*%
%ADD101R,0.04734X0.02765*%
%ADD102R,0.02765X0.04734*%
%ADD103R,0.04340X0.03947*%
%ADD104R,0.06112X0.04143*%
%ADD105R,0.02962X0.04734*%
%ADD106R,0.11112X0.03800*%
%ADD107R,0.04734X0.04734*%
%ADD108R,0.02372X0.04143*%
%ADD109R,0.02765X0.07293*%
%ADD110R,0.04537X0.04143*%
%ADD111R,0.04143X0.04537*%
%ADD112R,0.10206X0.05049*%
%ADD113R,0.06112X0.05128*%
%ADD114R,0.06702X0.05521*%
G04:AMPARAMS|DCode=115|XSize=23.72mil|YSize=41.43mil|CornerRadius=0mil|HoleSize=0mil|Usage=FLASHONLY|Rotation=225.000|XOffset=0mil|YOffset=0mil|HoleType=Round|Shape=Rectangle|*
%AMROTATEDRECTD115*
4,1,4,-0.00626,0.02303,0.02303,-0.00626,0.00626,-0.02303,-0.02303,0.00626,-0.00626,0.02303,0.0*
%
%ADD115ROTATEDRECTD115*%

%ADD116R,0.06506X0.06506*%
%ADD117R,0.04143X0.04143*%
G04:AMPARAMS|DCode=118|XSize=143.79mil|YSize=56mil|CornerRadius=15.5mil|HoleSize=0mil|Usage=FLASHONLY|Rotation=90.000|XOffset=0mil|YOffset=0mil|HoleType=Round|Shape=RoundedRectangle|*
%AMROUNDEDRECTD118*
21,1,0.14379,0.02500,0,0,90.0*
21,1,0.11280,0.05600,0,0,90.0*
1,1,0.03100,0.01250,0.05640*
1,1,0.03100,0.01250,-0.05640*
1,1,0.03100,-0.01250,-0.05640*
1,1,0.03100,-0.01250,0.05640*
%
%ADD118ROUNDEDRECTD118*%
G04:AMPARAMS|DCode=119|XSize=143.79mil|YSize=106mil|CornerRadius=28mil|HoleSize=0mil|Usage=FLASHONLY|Rotation=90.000|XOffset=0mil|YOffset=0mil|HoleType=Round|Shape=RoundedRectangle|*
%AMROUNDEDRECTD119*
21,1,0.14379,0.05000,0,0,90.0*
21,1,0.08780,0.10600,0,0,90.0*
1,1,0.05600,0.02500,0.04390*
1,1,0.05600,0.02500,-0.04390*
1,1,0.05600,-0.02500,-0.04390*
1,1,0.05600,-0.02500,0.04390*
%
%ADD119ROUNDEDRECTD119*%
%ADD120R,0.14104X0.07096*%
%ADD121R,0.05600X0.12096*%
%ADD122O,0.08868X0.01781*%
%ADD123O,0.01781X0.08868*%
G04:AMPARAMS|DCode=124|XSize=16mil|YSize=14mil|CornerRadius=3.2mil|HoleSize=0mil|Usage=FLASHONLY|Rotation=0.000|XOffset=0mil|YOffset=0mil|HoleType=Round|Shape=RoundedRectangle|*
%AMROUNDEDRECTD124*
21,1,0.01600,0.00760,0,0,0.0*
21,1,0.00960,0.01400,0,0,0.0*
1,1,0.00640,0.00480,-0.00380*
1,1,0.00640,-0.00480,-0.00380*
1,1,0.00640,-0.00480,0.00380*
1,1,0.00640,0.00480,0.00380*
%
%ADD124ROUNDEDRECTD124*%
G04:AMPARAMS|DCode=125|XSize=16mil|YSize=14mil|CornerRadius=3.2mil|HoleSize=0mil|Usage=FLASHONLY|Rotation=90.000|XOffset=0mil|YOffset=0mil|HoleType=Round|Shape=RoundedRectangle|*
%AMROUNDEDRECTD125*
21,1,0.01600,0.00760,0,0,90.0*
21,1,0.00960,0.01400,0,0,90.0*
1,1,0.00640,0.00380,0.00480*
1,1,0.00640,0.00380,-0.00480*
1,1,0.00640,-0.00380,-0.00480*
1,1,0.00640,-0.00380,0.00480*
%
%ADD125ROUNDEDRECTD125*%
G04:AMPARAMS|DCode=126|XSize=16mil|YSize=14mil|CornerRadius=3.2mil|HoleSize=0mil|Usage=FLASHONLY|Rotation=315.000|XOffset=0mil|YOffset=0mil|HoleType=Round|Shape=RoundedRectangle|*
%AMROUNDEDRECTD126*
21,1,0.01600,0.00760,0,0,315.0*
21,1,0.00960,0.01400,0,0,315.0*
1,1,0.00640,0.00071,-0.00608*
1,1,0.00640,-0.00608,0.00071*
1,1,0.00640,-0.00071,0.00608*
1,1,0.00640,0.00608,-0.00071*
%
%ADD126ROUNDEDRECTD126*%
D93*
X-52000Y-24606D02*
D03*
Y25000D02*
D03*
D94*
X-68788Y64295D02*
D03*
Y59177D02*
D03*
Y76878D02*
D03*
Y71760D02*
D03*
X130372Y57051D02*
D03*
Y62169D02*
D03*
X-188628Y-74844D02*
D03*
Y-69726D02*
D03*
X36500Y-121336D02*
D03*
Y-126454D02*
D03*
D95*
X-72323Y89579D02*
D03*
Y91547D02*
D03*
Y93516D02*
D03*
Y95484D02*
D03*
Y97453D02*
D03*
Y99421D02*
D03*
X-87677D02*
D03*
Y97453D02*
D03*
Y95484D02*
D03*
Y93516D02*
D03*
Y91547D02*
D03*
Y89579D02*
D03*
D96*
X-75079Y102177D02*
D03*
X-77047D02*
D03*
X-79016D02*
D03*
X-80984D02*
D03*
X-82953D02*
D03*
X-84921D02*
D03*
Y86823D02*
D03*
X-82953D02*
D03*
X-80984D02*
D03*
X-79016D02*
D03*
X-77047D02*
D03*
X-75079D02*
D03*
D97*
X-80000Y94500D02*
D03*
D98*
X89079Y51000D02*
D03*
X94197D02*
D03*
X-25559Y-20912D02*
D03*
X-20441D02*
D03*
X-25559Y26732D02*
D03*
X-20441D02*
D03*
X144746Y-39500D02*
D03*
X149864D02*
D03*
X-51714Y34441D02*
D03*
X-46596D02*
D03*
X-165941Y64595D02*
D03*
X-171059D02*
D03*
D99*
X-25657Y-26925D02*
D03*
X-20343D02*
D03*
X-20343Y32761D02*
D03*
X-25657D02*
D03*
X73304Y55276D02*
D03*
X78619D02*
D03*
X126030Y83610D02*
D03*
X120715D02*
D03*
X-93685Y98047D02*
D03*
X-99000D02*
D03*
X-93685Y91547D02*
D03*
X-99000D02*
D03*
X-129157Y12107D02*
D03*
X-123843D02*
D03*
D100*
X-67580Y-140000D02*
D03*
X-75257D02*
D03*
X-52966Y140000D02*
D03*
X-45289D02*
D03*
X-64661Y-64500D02*
D03*
X-72339D02*
D03*
X141080Y-140000D02*
D03*
X148757D02*
D03*
X156080Y140000D02*
D03*
X163757D02*
D03*
X-24161Y-4000D02*
D03*
X-31839D02*
D03*
X-24161Y4000D02*
D03*
X-31839D02*
D03*
D101*
X28923Y-11024D02*
D03*
Y-7874D02*
D03*
Y-4724D02*
D03*
Y-1575D02*
D03*
Y1575D02*
D03*
Y4724D02*
D03*
Y7874D02*
D03*
Y11024D02*
D03*
X22230Y-11024D02*
D03*
Y-7874D02*
D03*
Y-4724D02*
D03*
Y-1575D02*
D03*
Y1575D02*
D03*
Y4724D02*
D03*
Y7874D02*
D03*
Y11024D02*
D03*
X155154Y4921D02*
D03*
Y8071D02*
D03*
Y11220D02*
D03*
Y20669D02*
D03*
Y23819D02*
D03*
Y14370D02*
D03*
Y17520D02*
D03*
Y26969D02*
D03*
X161846Y4921D02*
D03*
Y8071D02*
D03*
Y11220D02*
D03*
Y14370D02*
D03*
Y20669D02*
D03*
Y23819D02*
D03*
Y17520D02*
D03*
Y26969D02*
D03*
X26346Y17476D02*
D03*
Y20626D02*
D03*
Y23776D02*
D03*
Y26925D02*
D03*
Y30075D02*
D03*
Y33224D02*
D03*
Y36374D02*
D03*
Y39524D02*
D03*
X19654Y17476D02*
D03*
Y20626D02*
D03*
Y23776D02*
D03*
Y26925D02*
D03*
Y30075D02*
D03*
Y33224D02*
D03*
Y36374D02*
D03*
Y39524D02*
D03*
X31500Y-39524D02*
D03*
Y-36374D02*
D03*
Y-33224D02*
D03*
Y-30075D02*
D03*
Y-26925D02*
D03*
Y-23776D02*
D03*
Y-20626D02*
D03*
Y-17476D02*
D03*
X24807Y-39524D02*
D03*
Y-36374D02*
D03*
Y-33224D02*
D03*
Y-30075D02*
D03*
Y-26925D02*
D03*
Y-23776D02*
D03*
Y-20626D02*
D03*
Y-17476D02*
D03*
X161846Y-27524D02*
D03*
Y-24374D02*
D03*
Y-21224D02*
D03*
Y-18075D02*
D03*
Y-14925D02*
D03*
Y-11776D02*
D03*
Y-8626D02*
D03*
Y-5476D02*
D03*
X155154Y-27524D02*
D03*
Y-24374D02*
D03*
Y-21224D02*
D03*
Y-18075D02*
D03*
Y-14925D02*
D03*
Y-11776D02*
D03*
Y-8626D02*
D03*
Y-5476D02*
D03*
D102*
X95976Y-66813D02*
D03*
X99126D02*
D03*
X105425D02*
D03*
X102276D02*
D03*
X99126Y-60120D02*
D03*
X95976D02*
D03*
X102276D02*
D03*
X108575Y-66813D02*
D03*
X114874D02*
D03*
X111724D02*
D03*
X118024D02*
D03*
X105425Y-60120D02*
D03*
X111724D02*
D03*
X108575D02*
D03*
X114874D02*
D03*
X118024D02*
D03*
D103*
X-76500Y107843D02*
D03*
Y113157D02*
D03*
X-70000Y107843D02*
D03*
Y113157D02*
D03*
X-83000Y107843D02*
D03*
Y113157D02*
D03*
Y75842D02*
D03*
Y81157D02*
D03*
X175000Y-13996D02*
D03*
Y-8681D02*
D03*
D104*
X-208500Y-26161D02*
D03*
Y-33839D02*
D03*
Y26161D02*
D03*
Y33839D02*
D03*
X-51000Y104339D02*
D03*
Y96661D02*
D03*
D105*
X-39444Y-32428D02*
D03*
X-35704D02*
D03*
X-31964D02*
D03*
Y-21207D02*
D03*
X-39444D02*
D03*
Y15216D02*
D03*
X-35704D02*
D03*
X-31964D02*
D03*
Y26437D02*
D03*
X-39444D02*
D03*
D106*
X-97740Y-10000D02*
D03*
Y-5000D02*
D03*
Y5000D02*
D03*
Y0D02*
D03*
Y10000D02*
D03*
X-85260Y-5000D02*
D03*
Y-10000D02*
D03*
Y5000D02*
D03*
Y0D02*
D03*
Y10000D02*
D03*
D107*
X222504Y8858D02*
D03*
Y-8858D02*
D03*
X235496D02*
D03*
Y8858D02*
D03*
D108*
X258276Y56457D02*
D03*
X261425D02*
D03*
X264575D02*
D03*
X267724D02*
D03*
X258276Y63543D02*
D03*
X261425D02*
D03*
X264575D02*
D03*
X267724D02*
D03*
D109*
X152799Y62500D02*
D03*
D110*
X162150Y54429D02*
D03*
X155850Y70571D02*
D03*
D111*
X155654Y54626D02*
D03*
X162346Y70374D02*
D03*
D112*
X217071Y27500D02*
D03*
Y37500D02*
D03*
Y47500D02*
D03*
X250929Y27500D02*
D03*
Y37500D02*
D03*
Y47500D02*
D03*
D113*
X-193500Y72154D02*
D03*
Y78847D02*
D03*
D114*
X101372Y77484D02*
D03*
X121372D02*
D03*
X101372Y61736D02*
D03*
X121372D02*
D03*
D115*
X195335Y-79154D02*
D03*
X193108Y-81381D02*
D03*
X190881Y-83608D02*
D03*
X188654Y-85835D02*
D03*
X200346Y-84165D02*
D03*
X198119Y-86392D02*
D03*
X195892Y-88619D02*
D03*
X193665Y-90846D02*
D03*
D116*
X278425Y-19390D02*
D03*
Y-5610D02*
D03*
Y5610D02*
D03*
Y19390D02*
D03*
Y44390D02*
D03*
Y30610D02*
D03*
Y-30610D02*
D03*
Y-44390D02*
D03*
D117*
X276654Y-12500D02*
D03*
Y12500D02*
D03*
Y37500D02*
D03*
Y-37500D02*
D03*
D118*
X216000Y-126213D02*
D03*
X226000D02*
D03*
X206000D02*
D03*
X-173000Y-106213D02*
D03*
X-163000D02*
D03*
X-183000D02*
D03*
X-173000Y106213D02*
D03*
X-183000D02*
D03*
X-163000D02*
D03*
X216000Y126213D02*
D03*
X206000D02*
D03*
X226000D02*
D03*
D119*
X237968Y-126213D02*
D03*
X194032D02*
D03*
X-151031Y-106213D02*
D03*
X-194968D02*
D03*
Y106213D02*
D03*
X-151031D02*
D03*
X194032Y126213D02*
D03*
X237968D02*
D03*
D120*
X128954Y140000D02*
D03*
X75076D02*
D03*
X42959D02*
D03*
X-10919D02*
D03*
X-32954Y-140000D02*
D03*
X20924D02*
D03*
X52832D02*
D03*
X106710D02*
D03*
D121*
X113954Y118465D02*
D03*
X90332D02*
D03*
X102143D02*
D03*
X90332Y100236D02*
D03*
X102143D02*
D03*
X113954D02*
D03*
X27959Y118465D02*
D03*
X4337D02*
D03*
X16148D02*
D03*
X4337Y100236D02*
D03*
X16148D02*
D03*
X27959D02*
D03*
X-17954Y-118465D02*
D03*
X5668D02*
D03*
X-6143D02*
D03*
X5668Y-100236D02*
D03*
X-6143D02*
D03*
X-17954D02*
D03*
X67832Y-118465D02*
D03*
X91454D02*
D03*
X79643D02*
D03*
X91454Y-100236D02*
D03*
X79643D02*
D03*
X67832D02*
D03*
D122*
X52268Y-24606D02*
D03*
Y-26575D02*
D03*
Y-18701D02*
D03*
Y-22638D02*
D03*
Y-20669D02*
D03*
Y-34449D02*
D03*
Y-28543D02*
D03*
Y-32480D02*
D03*
Y-30512D02*
D03*
Y-16732D02*
D03*
Y-10827D02*
D03*
Y-14764D02*
D03*
Y-12795D02*
D03*
Y-4921D02*
D03*
Y-8858D02*
D03*
Y-6890D02*
D03*
Y8858D02*
D03*
Y6890D02*
D03*
Y14764D02*
D03*
Y10827D02*
D03*
Y12795D02*
D03*
Y-984D02*
D03*
Y-2953D02*
D03*
Y4921D02*
D03*
Y984D02*
D03*
Y2953D02*
D03*
Y28543D02*
D03*
Y26575D02*
D03*
Y34449D02*
D03*
Y30512D02*
D03*
Y32480D02*
D03*
Y18701D02*
D03*
Y16732D02*
D03*
Y24606D02*
D03*
Y20669D02*
D03*
Y22638D02*
D03*
X135732Y-34449D02*
D03*
Y-28543D02*
D03*
Y-32480D02*
D03*
Y-30512D02*
D03*
Y-24606D02*
D03*
Y-26575D02*
D03*
Y-18701D02*
D03*
Y-22638D02*
D03*
Y-20669D02*
D03*
Y-16732D02*
D03*
Y-10827D02*
D03*
Y-14764D02*
D03*
Y-12795D02*
D03*
Y-4921D02*
D03*
Y-8858D02*
D03*
Y-6890D02*
D03*
Y8858D02*
D03*
Y6890D02*
D03*
Y14764D02*
D03*
Y10827D02*
D03*
Y12795D02*
D03*
Y-984D02*
D03*
Y-2953D02*
D03*
Y4921D02*
D03*
Y984D02*
D03*
Y2953D02*
D03*
Y30512D02*
D03*
Y28543D02*
D03*
Y32480D02*
D03*
Y34449D02*
D03*
Y20669D02*
D03*
Y16732D02*
D03*
Y18701D02*
D03*
Y26575D02*
D03*
Y22638D02*
D03*
Y24606D02*
D03*
D123*
X59551Y-41732D02*
D03*
X61520D02*
D03*
X63488D02*
D03*
X67425D02*
D03*
X75299D02*
D03*
X77268D02*
D03*
X69394D02*
D03*
X73331D02*
D03*
X71362D02*
D03*
X65457D02*
D03*
X79236D02*
D03*
X81205D02*
D03*
X89079D02*
D03*
X91047D02*
D03*
X83173D02*
D03*
X87110D02*
D03*
X85142D02*
D03*
X59551Y41732D02*
D03*
X61520D02*
D03*
X65457D02*
D03*
X73331D02*
D03*
X75299D02*
D03*
X67425D02*
D03*
X71362D02*
D03*
X69394D02*
D03*
X79236D02*
D03*
X81205D02*
D03*
X63488D02*
D03*
X77268D02*
D03*
X89079D02*
D03*
X91047D02*
D03*
X83173D02*
D03*
X87110D02*
D03*
X85142D02*
D03*
X98921Y-41732D02*
D03*
X100890D02*
D03*
X93016D02*
D03*
X96953D02*
D03*
X94984D02*
D03*
X108764D02*
D03*
X110732D02*
D03*
X102858D02*
D03*
X106795D02*
D03*
X104827D02*
D03*
X118606D02*
D03*
X120575D02*
D03*
X112701D02*
D03*
X116638D02*
D03*
X114669D02*
D03*
X122543D02*
D03*
X124512D02*
D03*
X126480D02*
D03*
X128449D02*
D03*
X93016Y41732D02*
D03*
X96953D02*
D03*
X94984D02*
D03*
X104827D02*
D03*
X106795D02*
D03*
X98921D02*
D03*
X102858D02*
D03*
X100890D02*
D03*
X114669D02*
D03*
X116638D02*
D03*
X108764D02*
D03*
X112701D02*
D03*
X110732D02*
D03*
X124512D02*
D03*
X126480D02*
D03*
X118606D02*
D03*
X122543D02*
D03*
X120575D02*
D03*
X128449D02*
D03*
D124*
X-60933Y-53453D02*
D03*
X-60533D02*
D03*
X-178181Y-76406D02*
D03*
X-177781D02*
D03*
X-92547Y105500D02*
D03*
X-92947D02*
D03*
D125*
X222539Y12333D02*
D03*
Y12733D02*
D03*
X258276Y69300D02*
D03*
Y69700D02*
D03*
X264575Y69300D02*
D03*
Y69700D02*
D03*
X267724D02*
D03*
Y69300D02*
D03*
D126*
X64364Y49048D02*
D03*
X64647Y48766D02*
D03*
M02*
