G04 Layer_Color=16711935*
%FSLAX25Y25*%
%MOIN*%
G70*
G01*
G75*
%ADD66C,0.03000*%
%ADD67C,0.04000*%
%ADD68C,0.03200*%
%ADD128R,0.04043X0.03650*%
%ADD132R,0.03650X0.04043*%
%ADD133R,0.03847X0.04240*%
%ADD135R,0.04634X0.02665*%
%ADD136R,0.02665X0.04634*%
%ADD137R,0.04240X0.03847*%
%ADD141R,0.04634X0.04634*%
%ADD142R,0.02272X0.04043*%
G04:AMPARAMS|DCode=152|XSize=142.79mil|YSize=55mil|CornerRadius=15mil|HoleSize=0mil|Usage=FLASHONLY|Rotation=90.000|XOffset=0mil|YOffset=0mil|HoleType=Round|Shape=RoundedRectangle|*
%AMROUNDEDRECTD152*
21,1,0.14279,0.02500,0,0,90.0*
21,1,0.11280,0.05500,0,0,90.0*
1,1,0.03000,0.01250,0.05640*
1,1,0.03000,0.01250,-0.05640*
1,1,0.03000,-0.01250,-0.05640*
1,1,0.03000,-0.01250,0.05640*
%
%ADD152ROUNDEDRECTD152*%
G04:AMPARAMS|DCode=153|XSize=142.79mil|YSize=105mil|CornerRadius=27.5mil|HoleSize=0mil|Usage=FLASHONLY|Rotation=90.000|XOffset=0mil|YOffset=0mil|HoleType=Round|Shape=RoundedRectangle|*
%AMROUNDEDRECTD153*
21,1,0.14279,0.05000,0,0,90.0*
21,1,0.08780,0.10500,0,0,90.0*
1,1,0.05500,0.02500,0.04390*
1,1,0.05500,0.02500,-0.04390*
1,1,0.05500,-0.02500,-0.04390*
1,1,0.05500,-0.02500,0.04390*
%
%ADD153ROUNDEDRECTD153*%
%ADD159C,0.00500*%
%ADD160C,0.06500*%
%ADD161C,0.06799*%
%ADD162C,0.06012*%
%ADD163C,0.09555*%
%ADD164C,0.24500*%
%ADD165C,0.00500*%
%ADD166C,0.23500*%
%ADD167C,0.07587*%
%ADD168C,0.03300*%
%ADD170R,0.07587X0.05224*%
%ADD171R,0.07193X0.02862*%
%ADD172R,0.02272X0.06012*%
%ADD173R,0.04000X0.07000*%
%ADD174R,0.01681X0.08374*%
%ADD175R,0.04634X0.03453*%
%ADD176R,0.02862X0.02862*%
%ADD177R,0.06996X0.02075*%
%ADD178R,0.02862X0.08374*%
%ADD179R,0.10343X0.11524*%
D66*
X220000Y53000D02*
D03*
X226500Y59500D02*
D03*
X224285Y56154D02*
D03*
X36439Y39189D02*
D03*
X30500Y42500D02*
D03*
X37500Y33101D02*
D03*
X107193Y-80870D02*
D03*
X112362Y-80000D02*
D03*
X117060Y-79000D02*
D03*
X77268Y49861D02*
D03*
X-13500Y61738D02*
D03*
X-42700Y121885D02*
D03*
X-63744Y64295D02*
D03*
X-63768Y76788D02*
D03*
D67*
X-83829Y140819D02*
D03*
D68*
X145460Y-24606D02*
D03*
D128*
X-56000Y-62638D02*
D03*
Y-67756D02*
D03*
D132*
X266559Y19500D02*
D03*
X261441D02*
D03*
X89079Y42450D02*
D03*
X94197D02*
D03*
D133*
X126237Y-6000D02*
D03*
X120922D02*
D03*
X-173968Y76393D02*
D03*
X-179283D02*
D03*
X64342Y16004D02*
D03*
X69657D02*
D03*
X64342Y25034D02*
D03*
X69657D02*
D03*
X79343Y30032D02*
D03*
X84658D02*
D03*
D135*
X89106Y85685D02*
D03*
Y82535D02*
D03*
Y79386D02*
D03*
Y76236D02*
D03*
Y73087D02*
D03*
Y69937D02*
D03*
Y66787D02*
D03*
Y63638D02*
D03*
X82413Y85685D02*
D03*
Y82535D02*
D03*
Y79386D02*
D03*
Y76236D02*
D03*
Y73087D02*
D03*
Y69937D02*
D03*
Y66787D02*
D03*
Y63638D02*
D03*
D136*
X54524Y-48346D02*
D03*
X51374D02*
D03*
X48224D02*
D03*
X45075D02*
D03*
X41925D02*
D03*
X38776D02*
D03*
X35626D02*
D03*
X32476D02*
D03*
X54524Y-41654D02*
D03*
X51374D02*
D03*
X48224D02*
D03*
X45075D02*
D03*
X41925D02*
D03*
X38776D02*
D03*
X35626D02*
D03*
X32476D02*
D03*
D137*
X125129Y14110D02*
D03*
Y8795D02*
D03*
X82855Y-28703D02*
D03*
Y-23388D02*
D03*
X112250Y-28703D02*
D03*
Y-23388D02*
D03*
X64842D02*
D03*
Y-28703D02*
D03*
X132500Y-28703D02*
D03*
Y-23388D02*
D03*
X71010Y-28703D02*
D03*
Y-23388D02*
D03*
X125750Y-28703D02*
D03*
Y-23388D02*
D03*
X119000Y-28703D02*
D03*
Y-23388D02*
D03*
X-49902Y-67658D02*
D03*
Y-62343D02*
D03*
X-44000D02*
D03*
Y-67658D02*
D03*
X61000Y-12157D02*
D03*
Y-6842D02*
D03*
X118606Y25657D02*
D03*
Y20343D02*
D03*
X112701Y25657D02*
D03*
Y20343D02*
D03*
X104827Y25657D02*
D03*
Y20343D02*
D03*
X128521Y29342D02*
D03*
Y34657D02*
D03*
D141*
X-187004Y-8858D02*
D03*
Y8858D02*
D03*
X-199996Y-8858D02*
D03*
Y8858D02*
D03*
D142*
X-63276Y-68543D02*
D03*
X-66425D02*
D03*
X-69575D02*
D03*
X-72724D02*
D03*
X-63276Y-61457D02*
D03*
X-66425D02*
D03*
X-69575D02*
D03*
X-72724D02*
D03*
X-33224Y117874D02*
D03*
X-30075D02*
D03*
X-26925D02*
D03*
X-23776D02*
D03*
X-33224Y110787D02*
D03*
X-30075D02*
D03*
X-26925D02*
D03*
X-23776D02*
D03*
D152*
X206000Y-126213D02*
D03*
X216000D02*
D03*
X226000D02*
D03*
X-183000Y-106213D02*
D03*
X-173000D02*
D03*
X-163000D02*
D03*
Y106213D02*
D03*
X-173000D02*
D03*
X-183000D02*
D03*
X226000Y126213D02*
D03*
X216000D02*
D03*
X206000D02*
D03*
D153*
X194032Y-126213D02*
D03*
X237968D02*
D03*
X-194968Y-106213D02*
D03*
X-151031D02*
D03*
Y106213D02*
D03*
X-194968D02*
D03*
X237968Y126213D02*
D03*
X194032D02*
D03*
D159*
X96256Y115905D02*
D03*
X40744D02*
D03*
X48835Y-127905D02*
D03*
X3165D02*
D03*
D160*
X-91500Y-16004D02*
D03*
Y16004D02*
D03*
X-77250Y-107843D02*
D03*
Y-88157D02*
D03*
D161*
X211500Y-76500D02*
D03*
X221500D02*
D03*
X231500D02*
D03*
Y-46500D02*
D03*
X221500D02*
D03*
X211500D02*
D03*
D162*
X252261Y-50000D02*
D03*
X252259Y-89370D02*
D03*
Y-81496D02*
D03*
X252261Y-73622D02*
D03*
X252263Y-65748D02*
D03*
X252261Y-57874D02*
D03*
D163*
X-2000Y-73500D02*
D03*
X-18000Y-60500D02*
D03*
Y-73500D02*
D03*
X-118500Y-141500D02*
D03*
Y-128500D02*
D03*
D164*
X-130000Y70500D02*
D03*
Y-70500D02*
D03*
D165*
X214000Y70500D02*
D03*
X0Y0D02*
D03*
D166*
X270000Y-125000D02*
D03*
X272500Y125000D02*
D03*
D167*
X-17500Y-45000D02*
D03*
X-27500D02*
D03*
X-37500D02*
D03*
X-47500D02*
D03*
X-87500D02*
D03*
X-77500D02*
D03*
X-67500D02*
D03*
X-57500D02*
D03*
X-127500D02*
D03*
X-117500D02*
D03*
X-107500D02*
D03*
X-97500D02*
D03*
X-167500D02*
D03*
X-157500D02*
D03*
X-147500D02*
D03*
X-137500D02*
D03*
X-207500D02*
D03*
X-197500D02*
D03*
X-187500D02*
D03*
X-177500D02*
D03*
Y45000D02*
D03*
X-187500D02*
D03*
X-197500D02*
D03*
X-207500D02*
D03*
X-137500D02*
D03*
X-147500D02*
D03*
X-157500D02*
D03*
X-167500D02*
D03*
X-97500D02*
D03*
X-107500D02*
D03*
X-117500D02*
D03*
X-127500D02*
D03*
X-57500D02*
D03*
X-67500D02*
D03*
X-77500D02*
D03*
X-87500D02*
D03*
X-47500D02*
D03*
X-27500D02*
D03*
X-37500D02*
D03*
X-17500D02*
D03*
D168*
X117568Y49500D02*
D03*
D170*
X-208291Y83492D02*
D03*
Y57508D02*
D03*
Y-57508D02*
D03*
Y-83492D02*
D03*
D171*
X-188016Y72469D02*
D03*
Y76406D02*
D03*
Y64595D02*
D03*
Y68532D02*
D03*
Y-68532D02*
D03*
Y-64595D02*
D03*
Y-76406D02*
D03*
Y-72469D02*
D03*
D172*
X202957Y-11614D02*
D03*
X200398D02*
D03*
X197839D02*
D03*
X195280D02*
D03*
X192720D02*
D03*
X190161D02*
D03*
X187602D02*
D03*
X185043D02*
D03*
X202957Y11614D02*
D03*
X200398D02*
D03*
X197839D02*
D03*
X195280D02*
D03*
X192720D02*
D03*
X190161D02*
D03*
X187602D02*
D03*
X185043D02*
D03*
X-140457Y11614D02*
D03*
X-137898D02*
D03*
X-135339D02*
D03*
X-132780D02*
D03*
X-130220D02*
D03*
X-127661D02*
D03*
X-125102D02*
D03*
X-122543D02*
D03*
X-140457Y-11614D02*
D03*
X-137898D02*
D03*
X-135339D02*
D03*
X-132780D02*
D03*
X-130220D02*
D03*
X-127661D02*
D03*
X-125102D02*
D03*
X-122543D02*
D03*
D173*
X39760Y110000D02*
D03*
X97240D02*
D03*
X49819Y-122000D02*
D03*
X2181D02*
D03*
D174*
X92122Y103012D02*
D03*
X90153D02*
D03*
X88185D02*
D03*
X86216D02*
D03*
X84248D02*
D03*
X82279D02*
D03*
X80311D02*
D03*
X78342D02*
D03*
X76374D02*
D03*
X74405D02*
D03*
X72437D02*
D03*
X70468D02*
D03*
X68500D02*
D03*
X66531D02*
D03*
X64563D02*
D03*
X62594D02*
D03*
X60626D02*
D03*
X58657D02*
D03*
X56689D02*
D03*
X54720D02*
D03*
X52752D02*
D03*
X50783D02*
D03*
X48815D02*
D03*
X46847D02*
D03*
X44878D02*
D03*
X92122Y116988D02*
D03*
X90153D02*
D03*
X88185D02*
D03*
X86216D02*
D03*
X84248D02*
D03*
X82279D02*
D03*
X80311D02*
D03*
X78342D02*
D03*
X76374D02*
D03*
X74405D02*
D03*
X72437D02*
D03*
X70468D02*
D03*
X68500D02*
D03*
X66531D02*
D03*
X64563D02*
D03*
X62594D02*
D03*
X60626D02*
D03*
X58657D02*
D03*
X56689D02*
D03*
X54720D02*
D03*
X52752D02*
D03*
X50783D02*
D03*
X48815D02*
D03*
X46847D02*
D03*
X44878D02*
D03*
X15173Y-115012D02*
D03*
X13205D02*
D03*
X7299D02*
D03*
X9268D02*
D03*
X11236D02*
D03*
X17142D02*
D03*
X42732D02*
D03*
X44701D02*
D03*
X32890D02*
D03*
X40764D02*
D03*
X38795D02*
D03*
X30921D02*
D03*
X28953D02*
D03*
X36827D02*
D03*
X34858D02*
D03*
X21079D02*
D03*
X25016D02*
D03*
X23047D02*
D03*
X19110D02*
D03*
X26984D02*
D03*
X44701Y-128988D02*
D03*
X42732D02*
D03*
X36827D02*
D03*
X34858D02*
D03*
X40764D02*
D03*
X38795D02*
D03*
X32890D02*
D03*
X30921D02*
D03*
X28953D02*
D03*
X23047D02*
D03*
X21079D02*
D03*
X19110D02*
D03*
X17142D02*
D03*
X15173D02*
D03*
X26984D02*
D03*
X25016D02*
D03*
X9268D02*
D03*
X7299D02*
D03*
X13205D02*
D03*
X11236D02*
D03*
D175*
X-56224Y-88000D02*
D03*
X-46776Y-91740D02*
D03*
Y-84260D02*
D03*
D176*
X-103122Y118272D02*
D03*
Y114728D02*
D03*
D177*
X142272Y95134D02*
D03*
Y92575D02*
D03*
Y90016D02*
D03*
Y87457D02*
D03*
Y84898D02*
D03*
Y82339D02*
D03*
Y79779D02*
D03*
Y77220D02*
D03*
Y74661D02*
D03*
Y72102D02*
D03*
Y69543D02*
D03*
Y66984D02*
D03*
Y64425D02*
D03*
Y61866D02*
D03*
X113728Y95134D02*
D03*
Y92575D02*
D03*
Y90016D02*
D03*
Y87457D02*
D03*
Y84898D02*
D03*
Y82339D02*
D03*
Y79779D02*
D03*
Y77220D02*
D03*
Y74661D02*
D03*
Y72102D02*
D03*
Y69543D02*
D03*
Y66984D02*
D03*
Y64425D02*
D03*
Y61866D02*
D03*
D178*
X-75563Y129551D02*
D03*
X-103122D02*
D03*
X-99186D02*
D03*
X-95249D02*
D03*
X-91311D02*
D03*
X-87374Y129551D02*
D03*
X-83437Y129551D02*
D03*
X-79500D02*
D03*
D179*
X-62375Y139000D02*
D03*
X-116311D02*
D03*
M02*
