M48
;Layer_Color=9474304
;FILE_FORMAT=2:5
INCH,LZ
;TYPE=PLATED
T1F00S00C0.01500
T2F00S00C0.01800
T3F00S00C0.02000
T4F00S00C0.02362
T5F00S00C0.02400
T6F00S00C0.03150
T7F00S00C0.03900
T8F00S00C0.03937
T9F00S00C0.05118
T10F00S00C0.15000
T11F00S00C0.15200
;TYPE=NON_PLATED
T12F00S00C0.06000
%
T01
X02615Y-00855
X0265875Y-0081988
X027025Y-0078477
X0187261Y-0075534
X018287Y-0075597
X0182807Y-0079988
X0187324Y-0071143
X01505Y-00785
X01415Y-0087
X011706Y-0079
X0112362Y-008
X0107193Y-008087
X0106805Y-0075997
X0101724Y-0076942
X00975Y-0077
X0132592Y-012761
X0156Y-014
X0092004Y-0078728
X0090902Y-007488
X0023047Y-0121904
X-0039198Y-0129
X-0035Y-01045
X-0056Y-0076166
X-00825Y-014
X-0169943Y-0088
X-0183485Y-0086515
X-01965Y-0076406
X-01315Y-00545
X-01425Y-0023196
X-0139Y-0018624
X-0109996Y-0026
X-0104857Y0024304
X-01021Y0031228
X-0098658Y0034
X-00935Y00355
X-00885Y0035969
X-0081928Y0027
X-0081Y0061
X-00735Y0056072
X-0063744Y0064295
X-0063768Y0076788
X-0093685Y0083248
Y0087047
X-0138Y00525
X-013022Y0038581
X-0132Y0017
X-0142557Y00185
X-0187004Y0015496
X-01805Y00675
X-0176154Y00665
X-01615Y00645
X-01965Y0066
X-0079016Y-00645
X-0054125Y-0013788
X-0049375Y-0013811
X-0047Y-0010024
X-005175
X-00565
Y00105
X-005175
X-0047
X-0049375Y0014286
X-0054125Y0014264
X-0061485Y0029
X-0040137Y0032652
X-0041765Y0050161
X-00245Y0053
X-0019Y00565
X-0020736Y0065078
X-0014016Y0068556
X-00135Y0061738
X-0006143Y0066417
X0006Y00655
X0004Y00585
Y00545
X0001Y00495
X-0001983Y004525
X-0006233Y0033601
X-0005029Y0029475
X-0015757Y0032761
X-00025Y00155
X0016171Y-0000851
X0015878Y-0004728
X0014175Y-0008626
X001505Y-00175
X00105Y-0018
X0012575Y-00275
X00095Y-00315
X0006Y-003428
X0015Y-00325
X0022Y-00455
X0023Y-00495
X00235Y-00535
X0059579Y-0066709
X0063579Y-0064528
X0067579Y-0062347
X0071579Y-0060166
X0078072Y-0057072
X0082189
X00865
X00905
X0082855Y-0033
X007101
X006Y-0024
X0062Y-0018058
X0044622Y-00215
X0039947Y-00105
X0039Y0000984
X00355Y0012
X00375Y0033101
X0036439Y0039189
X00325Y0036374
X00305Y00425
X003076Y0057
X002626Y0053811
X00345Y00615
X0033663Y0066161
X004026Y00735
X0043878Y0073772
X004641Y0071024
X0050511Y0068846
X006576Y0066
X0073031Y006475
X007387Y007232
X006696Y00735
X007076Y00775
X007026Y00815
X007526Y008425
X0077268Y0049861
X0075343Y0035157
X0079236
X0083173
X0089079
X0067425
X0064374Y00205
X0059821Y001773
X0059374Y00235
X0041773Y00785
X0037998Y0076419
X00195Y00685
X00165Y00645
X0014333Y0060166
X0014Y00845
X00095Y0087
X0008Y0081
X0003Y008
X-002Y0085
X-0023Y00825
X-0037993Y0004
Y-0004
X-0015575Y-0026925
X0099115Y-0013575
X0103865Y-0013598
X010149Y-0009812
X009674
X010624
Y0010288
X010149
X009674
X0099115Y0014051
X0103865Y0014074
X0104827Y0031871
X0112701
X0118606
X0128521Y0022638
X0125129Y0018701
X0144632Y0023776
X0147Y00095
X01445Y-0012795
X0146359Y-001744
X014546Y-0024606
X0138988Y-00395
X012575Y-0033565
X0119Y-00335
X011225Y-0033443
X0126827Y-0010827
X017764Y-0019016
X0180445Y-0026945
X0177Y-00295
X0173752Y-0033224
Y-0037515
X0176Y-00405
X01783Y-00435
X0177Y-0052561
X0175194Y-0063466
X0174273Y-0067
X0167032Y-0064213
X0145787Y-00525
X0193804Y-0052561
X0219771Y-0029
X0231Y-0017771
X0217Y0042438
X022Y0053
X0224285Y0056154
X02265Y00595
X0204Y00415
X0199Y00425
X01935Y0041
X0197733Y0036691
X019625Y0031
X0188443Y0063
X01845Y0071
X01815Y0073691
X01835Y0082457
X018026Y00845
X0152708Y0079649
X0130372Y0067134
X0130328Y0050406
X0098319Y0051
X01035Y0088
X0271953Y00195
X0163372Y009511
X0134872Y009911
X0136816Y0106274
X0133872Y0108924
X0130872Y011111
X0127872Y011361
X0124486Y011561
X0122372Y010311
X0120372Y009911
X0123872Y009111
X0146419Y013461
X0163757Y012761
X0078372Y010961
X0087998Y009211
X009307Y009061
X0050878Y0088272
X00455Y00895
X0020009Y0092384
X0013406Y00895
X-00305Y0098661
X-00295Y01037
X-00365Y0096161
X-0037763Y0111136
X-0048036Y0113661
X-005Y012
X-00427Y0121885
X-0052966Y0132757
X-0058Y011285
X-0060701Y0107843
X-0054143Y0108924
X0033791Y012411
X0033878Y0127772
X0036878Y0130272
X-00645Y0107843
X-0077835Y0096665
Y0092335
X-0082165
Y0096665
X-0097734Y01055
X-016Y0088584
X-0173Y00925
T02
X01905Y-0112423
X0197966
X0194233Y-0107461
X0186767
X0208Y-0109398
X02175
X0226Y-0114333
X0234267Y-0112423
X0241733
X0238Y-0107461
X0245465
X0091454Y-01095
X0079643
X0071843Y-0129
X0068223
X0064603
X0060983
X0057362
X0053742
X0003835Y-0108647
X-0006143Y-01095
X-0039Y-0092
X-0047Y-00985
X-0049902Y-007368
X-0043777
X-00695Y-0075606
X-01435Y-00905
X-0150965
X-0154698Y-0095461
X-0147233
X-0163Y-00935
X-0191Y-0095461
X-0198466
X-0202198Y-00905
X-0194733
X-0196393Y-007
X-0196095Y-0064595
X-0188628Y-006
X-0198731Y-0034017
X-0198Y0
X-01895
X-01315Y-0005286
X-0122543Y0004724
X-0107Y001
X-0077Y-0005
X-0077004Y-0009752
X-00675Y-00535
X-008936Y0075955
X-0173968Y00705
X-0179373Y0083
X-01935Y0084517
X-0036661Y007063
X-0036314Y0009786
X-0026Y0016
X-00265Y-0033101
X-0045Y-0036
X-0054559Y-0034449
X0064892Y-0033599
X0077273
X0082709Y-0018624
X0070898
X0067Y-0015
X0061113Y-00025
X00745Y0016004
Y0025012
X00625Y0032
X0089629Y0030032
X0082361Y0050573
X0110732Y0049845
X0117568Y00495
X0134364Y00405
X0147Y0018406
X0118606Y0014634
X0112701
X0099216Y0020395
X0094977Y0033081
X0103Y0083
X0131872Y0084898
Y007911
X01625Y0059843
X01875Y004525
X0191Y00185
X0207581Y0016311
X0222504Y0
X0235496
X0176681Y-00033
X0125129Y0000984
X0121Y-0012623
X0119Y-0018059
X011225Y-0018034
X012575Y-0018
X0106795Y-0033599
X0095
X0268425Y-00445
Y-00195
Y00055
Y0030512
X0245233Y0108961
X0237767
X0234034Y0113923
X02415
X0226Y0113311
X0216014
X0206089Y0115
X0197733Y0113923
X0190267
X0186535Y0108961
X0194
X0130872Y009061
X0102Y01075
X0096372Y010311
Y012161
X0053878Y011
X0047Y0109999
X0016334Y0108678
X0004264Y010886
X0002Y01415
X-0051Y00915
X-0066299Y0089579
X-007Y0119
X-00765
X-0083
X-0075563Y0139063
X-0099186Y0139063
X-0104842Y0098047
Y0091547
X-0183Y00955
T03
X-0083829Y0140819
T04
X0003165Y-0127905
X0048835
X0096256Y0115905
X0040744
T05
X-0191126Y0092084
X-012574Y0107295
T06
X0252259Y-008937
Y-0081496
X0252261Y-0073622
X-007725Y-0088157
Y-0107843
X0252263Y-0065748
X0252261Y-0057874
Y-005
T07
X02115Y-00765
X02215
X02315
Y-00465
X02215
X02115
T08
X-02075Y-0045
X-01975
X-01875
X-01775
X-01675
X-01575
X-01475
X-01375
X-01275
X-01175
X-01075
X-00975
X-00875
X-00775
X-00675
Y0045
X-00775
X-00875
X-00975
X-01075
X-01175
X-01275
X-01375
X-01475
X-01575
X-01675
X-01775
X-01875
X-01975
X-02075
X-00575
X-00475
X-00375
X-00275
X-00175
Y-0045
X-00275
X-00375
X-00475
X-00575
T09
X-0018Y-00735
X-0002
X-01185Y-01285
Y-01415
X-0018Y-00605
T10
X0Y0
X0214Y00705
T11
X027Y-0125
X-013Y-00705
Y00705
X02725Y0125
T12
X-00915Y-0016004
Y0016004
M30
