G75*
G70*
%OFA0B0*%
%FSLAX24Y24*%
%IPPOS*%
%LPD*%
%AMOC8*
5,1,8,0,0,1.08239X$1,22.5*
%
%ADD10C,0.0000*%
%ADD11C,0.0060*%
%ADD12C,0.0050*%
%ADD13C,0.0020*%
%ADD14C,0.0040*%
%ADD15R,0.0200X0.0150*%
D10*
X000100Y000100D02*
X000100Y017600D01*
X017600Y017600D01*
X017600Y000100D01*
X000100Y000100D01*
D11*
X000629Y000921D02*
X000629Y001241D01*
X000736Y001348D01*
X000950Y001348D01*
X001056Y001241D01*
X001056Y000921D01*
X001056Y001134D02*
X001270Y001348D01*
X001163Y001565D02*
X001270Y001672D01*
X001270Y001885D01*
X001163Y001992D01*
X000950Y001992D01*
X000843Y001885D01*
X000843Y001672D01*
X000950Y001565D01*
X001163Y001565D01*
X001270Y000921D02*
X000629Y000921D01*
X000629Y002210D02*
X001270Y002210D01*
X001270Y002530D01*
X001163Y002637D01*
X000950Y002637D01*
X000843Y002530D01*
X000843Y002210D01*
X000950Y002854D02*
X000843Y002961D01*
X000843Y003175D01*
X000950Y003281D01*
X001163Y003281D01*
X001270Y003175D01*
X001270Y002961D01*
X001163Y002854D01*
X000950Y002854D01*
X001484Y003499D02*
X001484Y003606D01*
X001377Y003712D01*
X000843Y003712D01*
X000629Y003712D02*
X000523Y003712D01*
X000843Y004035D02*
X000843Y004249D01*
X000950Y004356D01*
X001270Y004356D01*
X001270Y004035D01*
X001163Y003929D01*
X001056Y004035D01*
X001056Y004356D01*
X000950Y004573D02*
X001163Y004573D01*
X001270Y004680D01*
X001270Y005000D01*
X001270Y005218D02*
X000629Y005218D01*
X000843Y005000D02*
X000843Y004680D01*
X000950Y004573D01*
X001056Y005218D02*
X000843Y005538D01*
X000950Y005755D02*
X000843Y005862D01*
X000843Y006075D01*
X000950Y006182D01*
X001056Y006182D01*
X001056Y005755D01*
X000950Y005755D02*
X001163Y005755D01*
X001270Y005862D01*
X001270Y006075D01*
X001163Y006506D02*
X001270Y006613D01*
X001163Y006506D02*
X000736Y006506D01*
X000843Y006399D02*
X000843Y006613D01*
X000950Y006829D02*
X000843Y006936D01*
X000843Y007256D01*
X001056Y007149D02*
X001056Y006936D01*
X000950Y006829D01*
X001270Y006829D02*
X001270Y007149D01*
X001163Y007256D01*
X001056Y007149D01*
X001056Y008118D02*
X001056Y008438D01*
X000950Y008545D01*
X000736Y008545D01*
X000629Y008438D01*
X000629Y008118D01*
X001270Y008118D01*
X001056Y008332D02*
X001270Y008545D01*
X001163Y008763D02*
X001270Y008869D01*
X001270Y009083D01*
X001163Y009190D01*
X000950Y009190D01*
X000843Y009083D01*
X000843Y008869D01*
X000950Y008763D01*
X001163Y008763D01*
X001270Y009407D02*
X000629Y009407D01*
X000843Y009407D02*
X000843Y009728D01*
X000950Y009834D01*
X001163Y009834D01*
X001270Y009728D01*
X001270Y009407D01*
X001163Y010052D02*
X000950Y010052D01*
X000843Y010159D01*
X000843Y010372D01*
X000950Y010479D01*
X001163Y010479D01*
X001270Y010372D01*
X001270Y010159D01*
X001163Y010052D01*
X001163Y010696D02*
X000950Y010696D01*
X000843Y010803D01*
X000843Y011123D01*
X000843Y011341D02*
X001163Y011341D01*
X001270Y011448D01*
X001270Y011768D01*
X000843Y011768D01*
X000843Y011985D02*
X000843Y012306D01*
X000950Y012412D01*
X001163Y012412D01*
X001270Y012306D01*
X001270Y011985D01*
X001484Y011985D02*
X000843Y011985D01*
X001270Y011123D02*
X001270Y010803D01*
X001163Y010696D01*
X003800Y013300D02*
X004400Y013300D01*
X004400Y013400D01*
X004500Y013400D01*
X003800Y013400D02*
X003700Y013400D01*
X003800Y013400D02*
X003800Y013300D01*
X002900Y013750D02*
X002900Y014150D01*
X002900Y015100D01*
X002900Y015450D01*
X003700Y015800D02*
X003800Y015800D01*
X003800Y015900D01*
X004400Y015900D01*
X004400Y015800D01*
X004500Y015800D01*
X005300Y015450D02*
X005300Y015100D01*
X005300Y014100D01*
X005300Y013750D01*
X004000Y014600D02*
X004002Y014620D01*
X004008Y014638D01*
X004017Y014656D01*
X004029Y014671D01*
X004044Y014683D01*
X004062Y014692D01*
X004080Y014698D01*
X004100Y014700D01*
X004120Y014698D01*
X004138Y014692D01*
X004156Y014683D01*
X004171Y014671D01*
X004183Y014656D01*
X004192Y014638D01*
X004198Y014620D01*
X004200Y014600D01*
X004198Y014580D01*
X004192Y014562D01*
X004183Y014544D01*
X004171Y014529D01*
X004156Y014517D01*
X004138Y014508D01*
X004120Y014502D01*
X004100Y014500D01*
X004080Y014502D01*
X004062Y014508D01*
X004044Y014517D01*
X004029Y014529D01*
X004017Y014544D01*
X004008Y014562D01*
X004002Y014580D01*
X004000Y014600D01*
X003400Y014600D02*
X003402Y014652D01*
X003408Y014704D01*
X003418Y014756D01*
X003431Y014806D01*
X003448Y014856D01*
X003469Y014904D01*
X003494Y014950D01*
X003522Y014994D01*
X003553Y015036D01*
X003587Y015076D01*
X003624Y015113D01*
X003664Y015147D01*
X003706Y015178D01*
X003750Y015206D01*
X003796Y015231D01*
X003844Y015252D01*
X003894Y015269D01*
X003944Y015282D01*
X003996Y015292D01*
X004048Y015298D01*
X004100Y015300D01*
X004152Y015298D01*
X004204Y015292D01*
X004256Y015282D01*
X004306Y015269D01*
X004356Y015252D01*
X004404Y015231D01*
X004450Y015206D01*
X004494Y015178D01*
X004536Y015147D01*
X004576Y015113D01*
X004613Y015076D01*
X004647Y015036D01*
X004678Y014994D01*
X004706Y014950D01*
X004731Y014904D01*
X004752Y014856D01*
X004769Y014806D01*
X004782Y014756D01*
X004792Y014704D01*
X004798Y014652D01*
X004800Y014600D01*
X004798Y014548D01*
X004792Y014496D01*
X004782Y014444D01*
X004769Y014394D01*
X004752Y014344D01*
X004731Y014296D01*
X004706Y014250D01*
X004678Y014206D01*
X004647Y014164D01*
X004613Y014124D01*
X004576Y014087D01*
X004536Y014053D01*
X004494Y014022D01*
X004450Y013994D01*
X004404Y013969D01*
X004356Y013948D01*
X004306Y013931D01*
X004256Y013918D01*
X004204Y013908D01*
X004152Y013902D01*
X004100Y013900D01*
X004048Y013902D01*
X003996Y013908D01*
X003944Y013918D01*
X003894Y013931D01*
X003844Y013948D01*
X003796Y013969D01*
X003750Y013994D01*
X003706Y014022D01*
X003664Y014053D01*
X003624Y014087D01*
X003587Y014124D01*
X003553Y014164D01*
X003522Y014206D01*
X003494Y014250D01*
X003469Y014296D01*
X003448Y014344D01*
X003431Y014394D01*
X003418Y014444D01*
X003408Y014496D01*
X003402Y014548D01*
X003400Y014600D01*
X007900Y014150D02*
X007900Y013750D01*
X007900Y014150D02*
X007900Y015100D01*
X007900Y015450D01*
X008700Y015800D02*
X008800Y015800D01*
X008800Y015900D01*
X009400Y015900D01*
X009400Y015800D01*
X009500Y015800D01*
X010300Y015450D02*
X010300Y015100D01*
X010300Y014100D01*
X010300Y013750D01*
X009500Y013400D02*
X009400Y013400D01*
X009400Y013300D01*
X008800Y013300D01*
X008800Y013400D01*
X008700Y013400D01*
X009000Y014600D02*
X009002Y014620D01*
X009008Y014638D01*
X009017Y014656D01*
X009029Y014671D01*
X009044Y014683D01*
X009062Y014692D01*
X009080Y014698D01*
X009100Y014700D01*
X009120Y014698D01*
X009138Y014692D01*
X009156Y014683D01*
X009171Y014671D01*
X009183Y014656D01*
X009192Y014638D01*
X009198Y014620D01*
X009200Y014600D01*
X009198Y014580D01*
X009192Y014562D01*
X009183Y014544D01*
X009171Y014529D01*
X009156Y014517D01*
X009138Y014508D01*
X009120Y014502D01*
X009100Y014500D01*
X009080Y014502D01*
X009062Y014508D01*
X009044Y014517D01*
X009029Y014529D01*
X009017Y014544D01*
X009008Y014562D01*
X009002Y014580D01*
X009000Y014600D01*
X008400Y014600D02*
X008402Y014652D01*
X008408Y014704D01*
X008418Y014756D01*
X008431Y014806D01*
X008448Y014856D01*
X008469Y014904D01*
X008494Y014950D01*
X008522Y014994D01*
X008553Y015036D01*
X008587Y015076D01*
X008624Y015113D01*
X008664Y015147D01*
X008706Y015178D01*
X008750Y015206D01*
X008796Y015231D01*
X008844Y015252D01*
X008894Y015269D01*
X008944Y015282D01*
X008996Y015292D01*
X009048Y015298D01*
X009100Y015300D01*
X009152Y015298D01*
X009204Y015292D01*
X009256Y015282D01*
X009306Y015269D01*
X009356Y015252D01*
X009404Y015231D01*
X009450Y015206D01*
X009494Y015178D01*
X009536Y015147D01*
X009576Y015113D01*
X009613Y015076D01*
X009647Y015036D01*
X009678Y014994D01*
X009706Y014950D01*
X009731Y014904D01*
X009752Y014856D01*
X009769Y014806D01*
X009782Y014756D01*
X009792Y014704D01*
X009798Y014652D01*
X009800Y014600D01*
X009798Y014548D01*
X009792Y014496D01*
X009782Y014444D01*
X009769Y014394D01*
X009752Y014344D01*
X009731Y014296D01*
X009706Y014250D01*
X009678Y014206D01*
X009647Y014164D01*
X009613Y014124D01*
X009576Y014087D01*
X009536Y014053D01*
X009494Y014022D01*
X009450Y013994D01*
X009404Y013969D01*
X009356Y013948D01*
X009306Y013931D01*
X009256Y013918D01*
X009204Y013908D01*
X009152Y013902D01*
X009100Y013900D01*
X009048Y013902D01*
X008996Y013908D01*
X008944Y013918D01*
X008894Y013931D01*
X008844Y013948D01*
X008796Y013969D01*
X008750Y013994D01*
X008706Y014022D01*
X008664Y014053D01*
X008624Y014087D01*
X008587Y014124D01*
X008553Y014164D01*
X008522Y014206D01*
X008494Y014250D01*
X008469Y014296D01*
X008448Y014344D01*
X008431Y014394D01*
X008418Y014444D01*
X008408Y014496D01*
X008402Y014548D01*
X008400Y014600D01*
X012900Y014150D02*
X012900Y013750D01*
X012900Y014150D02*
X012900Y015100D01*
X012900Y015450D01*
X013700Y015800D02*
X013800Y015800D01*
X013800Y015900D01*
X014400Y015900D01*
X014400Y015800D01*
X014500Y015800D01*
X015300Y015450D02*
X015300Y015100D01*
X015300Y014100D01*
X015300Y013750D01*
X014500Y013400D02*
X014400Y013400D01*
X014400Y013300D01*
X013800Y013300D01*
X013800Y013400D01*
X013700Y013400D01*
X014000Y014600D02*
X014002Y014620D01*
X014008Y014638D01*
X014017Y014656D01*
X014029Y014671D01*
X014044Y014683D01*
X014062Y014692D01*
X014080Y014698D01*
X014100Y014700D01*
X014120Y014698D01*
X014138Y014692D01*
X014156Y014683D01*
X014171Y014671D01*
X014183Y014656D01*
X014192Y014638D01*
X014198Y014620D01*
X014200Y014600D01*
X014198Y014580D01*
X014192Y014562D01*
X014183Y014544D01*
X014171Y014529D01*
X014156Y014517D01*
X014138Y014508D01*
X014120Y014502D01*
X014100Y014500D01*
X014080Y014502D01*
X014062Y014508D01*
X014044Y014517D01*
X014029Y014529D01*
X014017Y014544D01*
X014008Y014562D01*
X014002Y014580D01*
X014000Y014600D01*
X013400Y014600D02*
X013402Y014652D01*
X013408Y014704D01*
X013418Y014756D01*
X013431Y014806D01*
X013448Y014856D01*
X013469Y014904D01*
X013494Y014950D01*
X013522Y014994D01*
X013553Y015036D01*
X013587Y015076D01*
X013624Y015113D01*
X013664Y015147D01*
X013706Y015178D01*
X013750Y015206D01*
X013796Y015231D01*
X013844Y015252D01*
X013894Y015269D01*
X013944Y015282D01*
X013996Y015292D01*
X014048Y015298D01*
X014100Y015300D01*
X014152Y015298D01*
X014204Y015292D01*
X014256Y015282D01*
X014306Y015269D01*
X014356Y015252D01*
X014404Y015231D01*
X014450Y015206D01*
X014494Y015178D01*
X014536Y015147D01*
X014576Y015113D01*
X014613Y015076D01*
X014647Y015036D01*
X014678Y014994D01*
X014706Y014950D01*
X014731Y014904D01*
X014752Y014856D01*
X014769Y014806D01*
X014782Y014756D01*
X014792Y014704D01*
X014798Y014652D01*
X014800Y014600D01*
X014798Y014548D01*
X014792Y014496D01*
X014782Y014444D01*
X014769Y014394D01*
X014752Y014344D01*
X014731Y014296D01*
X014706Y014250D01*
X014678Y014206D01*
X014647Y014164D01*
X014613Y014124D01*
X014576Y014087D01*
X014536Y014053D01*
X014494Y014022D01*
X014450Y013994D01*
X014404Y013969D01*
X014356Y013948D01*
X014306Y013931D01*
X014256Y013918D01*
X014204Y013908D01*
X014152Y013902D01*
X014100Y013900D01*
X014048Y013902D01*
X013996Y013908D01*
X013944Y013918D01*
X013894Y013931D01*
X013844Y013948D01*
X013796Y013969D01*
X013750Y013994D01*
X013706Y014022D01*
X013664Y014053D01*
X013624Y014087D01*
X013587Y014124D01*
X013553Y014164D01*
X013522Y014206D01*
X013494Y014250D01*
X013469Y014296D01*
X013448Y014344D01*
X013431Y014394D01*
X013418Y014444D01*
X013408Y014496D01*
X013402Y014548D01*
X013400Y014600D01*
X012870Y010781D02*
X015330Y010781D01*
X015330Y009419D01*
X012870Y009419D01*
X012870Y010781D01*
X013200Y006600D02*
X013100Y006500D01*
X013100Y005700D01*
X013200Y005600D01*
X014000Y005600D01*
X014100Y005700D01*
X014200Y005600D01*
X015000Y005600D01*
X015100Y005700D01*
X015100Y006500D01*
X015000Y006600D01*
X014200Y006600D01*
X014100Y006500D01*
X014000Y006600D01*
X013200Y006600D01*
X011600Y006350D02*
X011600Y005850D01*
X011350Y005600D01*
X010850Y005600D01*
X010600Y005850D01*
X010350Y005600D01*
X009850Y005600D01*
X009600Y005850D01*
X009350Y005600D01*
X008850Y005600D01*
X008600Y005850D01*
X008350Y005600D01*
X007850Y005600D01*
X007600Y005850D01*
X007350Y005600D01*
X006850Y005600D01*
X006600Y005850D01*
X006350Y005600D01*
X005850Y005600D01*
X005600Y005850D01*
X005350Y005600D01*
X004850Y005600D01*
X004600Y005850D01*
X004350Y005600D01*
X003850Y005600D01*
X003600Y005850D01*
X003600Y006350D01*
X003850Y006600D01*
X004350Y006600D01*
X004600Y006350D01*
X004850Y006600D01*
X005350Y006600D01*
X005600Y006350D01*
X005850Y006600D01*
X006350Y006600D01*
X006600Y006350D01*
X006850Y006600D01*
X007350Y006600D01*
X007600Y006350D01*
X007850Y006600D01*
X008350Y006600D01*
X008600Y006350D01*
X008850Y006600D01*
X009350Y006600D01*
X009600Y006350D01*
X009850Y006600D01*
X010350Y006600D01*
X010600Y006350D01*
X010850Y006600D01*
X011350Y006600D01*
X011600Y006350D01*
X012300Y004100D02*
X012900Y004100D01*
X012917Y004098D01*
X012934Y004094D01*
X012950Y004087D01*
X012964Y004077D01*
X012977Y004064D01*
X012987Y004050D01*
X012994Y004034D01*
X012998Y004017D01*
X013000Y004000D01*
X013000Y003850D01*
X012950Y003800D01*
X012950Y002400D01*
X013000Y002350D01*
X013000Y002200D01*
X012998Y002183D01*
X012994Y002166D01*
X012987Y002150D01*
X012977Y002136D01*
X012964Y002123D01*
X012950Y002113D01*
X012934Y002106D01*
X012917Y002102D01*
X012900Y002100D01*
X012300Y002100D01*
X012283Y002102D01*
X012266Y002106D01*
X012250Y002113D01*
X012236Y002123D01*
X012223Y002136D01*
X012213Y002150D01*
X012206Y002166D01*
X012202Y002183D01*
X012200Y002200D01*
X012200Y002350D01*
X012250Y002400D01*
X012250Y003800D01*
X012200Y003850D01*
X012200Y004000D01*
X012202Y004017D01*
X012206Y004034D01*
X012213Y004050D01*
X012223Y004064D01*
X012236Y004077D01*
X012250Y004087D01*
X012266Y004094D01*
X012283Y004098D01*
X012300Y004100D01*
X014200Y004000D02*
X014200Y003850D01*
X014250Y003800D01*
X014250Y002400D01*
X014200Y002350D01*
X014200Y002200D01*
X014202Y002183D01*
X014206Y002166D01*
X014213Y002150D01*
X014223Y002136D01*
X014236Y002123D01*
X014250Y002113D01*
X014266Y002106D01*
X014283Y002102D01*
X014300Y002100D01*
X014900Y002100D01*
X014917Y002102D01*
X014934Y002106D01*
X014950Y002113D01*
X014964Y002123D01*
X014977Y002136D01*
X014987Y002150D01*
X014994Y002166D01*
X014998Y002183D01*
X015000Y002200D01*
X015000Y002350D01*
X014950Y002400D01*
X014950Y003800D01*
X015000Y003850D01*
X015000Y004000D01*
X014998Y004017D01*
X014994Y004034D01*
X014987Y004050D01*
X014977Y004064D01*
X014964Y004077D01*
X014950Y004087D01*
X014934Y004094D01*
X014917Y004098D01*
X014900Y004100D01*
X014300Y004100D01*
X014283Y004098D01*
X014266Y004094D01*
X014250Y004087D01*
X014236Y004077D01*
X014223Y004064D01*
X014213Y004050D01*
X014206Y004034D01*
X014202Y004017D01*
X014200Y004000D01*
X015362Y001071D02*
X015789Y001071D01*
X015576Y001071D02*
X015576Y000430D01*
X016007Y000537D02*
X016007Y000750D01*
X016113Y000857D01*
X016327Y000857D01*
X016434Y000750D01*
X016434Y000644D01*
X016007Y000644D01*
X016007Y000537D02*
X016113Y000430D01*
X016327Y000430D01*
X016651Y000430D02*
X016972Y000430D01*
X017078Y000537D01*
X016972Y000644D01*
X016758Y000644D01*
X016651Y000750D01*
X016758Y000857D01*
X017078Y000857D01*
X017296Y000857D02*
X017509Y000857D01*
X017403Y000964D02*
X017403Y000537D01*
X017509Y000430D01*
X017725Y000537D02*
X017725Y000750D01*
X017832Y000857D01*
X018046Y000857D01*
X018153Y000750D01*
X018153Y000644D01*
X017725Y000644D01*
X017725Y000537D02*
X017832Y000430D01*
X018046Y000430D01*
X018370Y000430D02*
X018370Y000857D01*
X018370Y000644D02*
X018584Y000857D01*
X018690Y000857D01*
X014501Y000857D02*
X014394Y000857D01*
X014180Y000644D01*
X014180Y000857D02*
X014180Y000430D01*
X013963Y000644D02*
X013963Y000750D01*
X013856Y000857D01*
X013643Y000857D01*
X013536Y000750D01*
X013536Y000537D01*
X013643Y000430D01*
X013856Y000430D01*
X013963Y000644D02*
X013536Y000644D01*
X013319Y000857D02*
X012999Y000644D01*
X013319Y000430D01*
X012999Y000430D02*
X012999Y001071D01*
X012781Y000857D02*
X012461Y000857D01*
X012354Y000750D01*
X012354Y000537D01*
X012461Y000430D01*
X012781Y000430D01*
X012138Y000430D02*
X011925Y000430D01*
X012031Y000430D02*
X012031Y000857D01*
X011925Y000857D01*
X012031Y001071D02*
X012031Y001177D01*
X011707Y001071D02*
X011280Y000644D01*
X011387Y000750D02*
X011707Y000430D01*
X011280Y000430D02*
X011280Y001071D01*
X001270Y005538D02*
X001056Y005218D01*
D12*
X003625Y006850D02*
X003700Y006775D01*
X003775Y006775D01*
X003850Y006850D01*
X003850Y007225D01*
X003775Y007225D02*
X003925Y007225D01*
X004085Y007225D02*
X004085Y007000D01*
X004236Y007075D01*
X004311Y007075D01*
X004386Y007000D01*
X004386Y006850D01*
X004311Y006775D01*
X004160Y006775D01*
X004085Y006850D01*
X004085Y007225D02*
X004386Y007225D01*
X004075Y005425D02*
X004075Y004975D01*
X003925Y004975D02*
X004225Y004975D01*
X003925Y005275D02*
X004075Y005425D01*
X005313Y002049D02*
X009643Y002049D01*
X009880Y001025D02*
X009880Y000159D01*
X005155Y000159D01*
X005155Y001025D01*
X010950Y006775D02*
X010875Y006850D01*
X010875Y006925D01*
X010950Y007000D01*
X011100Y007000D01*
X011175Y006925D01*
X011175Y006850D01*
X011100Y006775D01*
X010950Y006775D01*
X010950Y007000D02*
X010875Y007075D01*
X010875Y007150D01*
X010950Y007225D01*
X011100Y007225D01*
X011175Y007150D01*
X011175Y007075D01*
X011100Y007000D01*
X013125Y006850D02*
X013200Y006775D01*
X013275Y006775D01*
X013350Y006850D01*
X013350Y007225D01*
X013275Y007225D02*
X013425Y007225D01*
X013585Y007225D02*
X013886Y007225D01*
X013886Y007150D01*
X013585Y006850D01*
X013585Y006775D01*
X013660Y011825D02*
X013585Y011900D01*
X013660Y011825D02*
X013811Y011825D01*
X013886Y011900D01*
X013886Y011975D01*
X013811Y012050D01*
X013736Y012050D01*
X013811Y012050D02*
X013886Y012125D01*
X013886Y012200D01*
X013811Y012275D01*
X013660Y012275D01*
X013585Y012200D01*
X013425Y012275D02*
X013425Y011900D01*
X013350Y011825D01*
X013200Y011825D01*
X013125Y011900D01*
X013125Y012275D01*
X010950Y014904D02*
X011025Y014979D01*
X011025Y015129D01*
X010950Y015204D01*
X010875Y015204D01*
X010800Y015129D01*
X010800Y014979D01*
X010725Y014904D01*
X010650Y014904D01*
X010575Y014979D01*
X010575Y015129D01*
X010650Y015204D01*
X010725Y015365D02*
X010575Y015515D01*
X011025Y015515D01*
X011025Y015365D02*
X011025Y015665D01*
X015575Y015590D02*
X015575Y015440D01*
X015650Y015365D01*
X015650Y015204D02*
X015575Y015129D01*
X015575Y014979D01*
X015650Y014904D01*
X015725Y014904D01*
X015800Y014979D01*
X015800Y015129D01*
X015875Y015204D01*
X015950Y015204D01*
X016025Y015129D01*
X016025Y014979D01*
X015950Y014904D01*
X016025Y015365D02*
X015725Y015665D01*
X015650Y015665D01*
X015575Y015590D01*
X016025Y015665D02*
X016025Y015365D01*
X006025Y015440D02*
X005950Y015365D01*
X006025Y015440D02*
X006025Y015590D01*
X005950Y015665D01*
X005875Y015665D01*
X005800Y015590D01*
X005800Y015515D01*
X005800Y015590D02*
X005725Y015665D01*
X005650Y015665D01*
X005575Y015590D01*
X005575Y015440D01*
X005650Y015365D01*
X005650Y015204D02*
X005575Y015129D01*
X005575Y014979D01*
X005650Y014904D01*
X005725Y014904D01*
X005800Y014979D01*
X005800Y015129D01*
X005875Y015204D01*
X005950Y015204D01*
X006025Y015129D01*
X006025Y014979D01*
X005950Y014904D01*
X004691Y010691D02*
X004691Y010297D01*
X003509Y010297D01*
X003509Y010691D01*
X003509Y010297D02*
X003509Y009509D01*
X004691Y009509D02*
X004691Y010297D01*
D13*
X005200Y014100D02*
X005300Y014100D01*
X005200Y014100D02*
X005200Y015100D01*
X005300Y015100D01*
X003000Y015100D02*
X003000Y014150D01*
X002900Y014150D01*
X002900Y015100D02*
X003000Y015100D01*
X007900Y015100D02*
X008000Y015100D01*
X008000Y014150D01*
X007900Y014150D01*
X010200Y014100D02*
X010300Y014100D01*
X010200Y014100D02*
X010200Y015100D01*
X010300Y015100D01*
X012900Y015100D02*
X013000Y015100D01*
X013000Y014150D01*
X012900Y014150D01*
X015200Y014100D02*
X015300Y014100D01*
X015200Y014100D02*
X015200Y015100D01*
X015300Y015100D01*
D14*
X008317Y010704D02*
X008317Y010397D01*
X008240Y010320D01*
X008086Y010320D01*
X008010Y010397D01*
X007856Y010397D02*
X007779Y010320D01*
X007626Y010320D01*
X007549Y010397D01*
X007549Y010704D01*
X007626Y010780D01*
X007779Y010780D01*
X007856Y010704D01*
X008010Y010704D02*
X008010Y010627D01*
X008086Y010550D01*
X008317Y010550D01*
X008317Y010704D02*
X008240Y010780D01*
X008086Y010780D01*
X008010Y010704D01*
X003179Y010201D02*
X003102Y010277D01*
X002949Y010277D01*
X002872Y010201D01*
X002719Y010277D02*
X002719Y009894D01*
X002642Y009817D01*
X002489Y009817D01*
X002412Y009894D01*
X002412Y010277D01*
X002872Y009817D02*
X003179Y010124D01*
X003179Y010201D01*
X003179Y009817D02*
X002872Y009817D01*
X003620Y001387D02*
X003696Y001234D01*
X003850Y001080D01*
X003850Y001311D01*
X003927Y001387D01*
X004003Y001387D01*
X004080Y001311D01*
X004080Y001157D01*
X004003Y001080D01*
X003850Y001080D01*
X003620Y000927D02*
X003620Y000773D01*
X003620Y000850D02*
X004003Y000850D01*
X004080Y000773D01*
X004080Y000697D01*
X004003Y000620D01*
X011720Y002120D02*
X011720Y002295D01*
X011778Y002354D01*
X011895Y002354D01*
X011953Y002295D01*
X011953Y002120D01*
X011953Y002237D02*
X012070Y002354D01*
X012070Y002479D02*
X011836Y002713D01*
X011778Y002713D01*
X011720Y002654D01*
X011720Y002537D01*
X011778Y002479D01*
X012070Y002479D02*
X012070Y002713D01*
X012070Y002120D02*
X011720Y002120D01*
X013720Y002120D02*
X013720Y002295D01*
X013778Y002354D01*
X013895Y002354D01*
X013953Y002295D01*
X013953Y002120D01*
X013953Y002237D02*
X014070Y002354D01*
X014070Y002479D02*
X014070Y002713D01*
X014070Y002596D02*
X013720Y002596D01*
X013836Y002479D01*
X013720Y002120D02*
X014070Y002120D01*
D15*
X014600Y002025D03*
X012600Y002025D03*
X012600Y004175D03*
X014600Y004175D03*
M02*
