%TF.GenerationSoftware,KiCad,Pcbnew,10.0.6-10.0.6~ubuntu24.04.1*%
%TF.CreationDate,2026-10-04T15:30:33-04:00*%
%TF.ProjectId,RadioBoard2027,52616469-6f42-46f6-9172-64323032372e,rev?*%
%TF.SameCoordinates,Original*%
%TF.FileFunction,Copper,L1,Top*%
%TF.FilePolarity,Positive*%
%FSLAX46Y46*%
G04 Gerber Fmt 4.6, Leading zero omitted, Abs format (unit mm)*
G04 Created by KiCad (PCBNEW 10.0.6-10.0.6~ubuntu24.04.1) date 2026-10-04 15:30:33*
%MOMM*%
%LPD*%
G01*
G04 APERTURE LIST*
G04 Aperture macros list*
%AMRoundRect*
0 Rectangle with rounded corners*
0 $1 Rounding radius*
0 $2 $3 $4 $5 $6 $7 $8 $9 X,Y pos of 4 corners*
0 Add a 4 corners polygon primitive as box body*
4,1,4,$2,$3,$4,$5,$6,$7,$8,$9,$2,$3,0*
0 Add four circle primitives for the rounded corners*
1,1,$1+$1,$2,$3*
1,1,$1+$1,$4,$5*
1,1,$1+$1,$6,$7*
1,1,$1+$1,$8,$9*
0 Add four rect primitives between the rounded corners*
20,1,$1+$1,$2,$3,$4,$5,0*
20,1,$1+$1,$4,$5,$6,$7,0*
20,1,$1+$1,$6,$7,$8,$9,0*
20,1,$1+$1,$8,$9,$2,$3,0*%
G04 Aperture macros list end*
%TA.AperFunction,SMDPad,CuDef*%
%ADD10RoundRect,0.135000X-0.135000X-0.185000X0.135000X-0.185000X0.135000X0.185000X-0.135000X0.185000X0*%
%TD*%
%TA.AperFunction,SMDPad,CuDef*%
%ADD11RoundRect,0.225000X0.225000X0.250000X-0.225000X0.250000X-0.225000X-0.250000X0.225000X-0.250000X0*%
%TD*%
%TA.AperFunction,SMDPad,CuDef*%
%ADD12RoundRect,0.050000X-0.285000X-0.100000X0.285000X-0.100000X0.285000X0.100000X-0.285000X0.100000X0*%
%TD*%
%TA.AperFunction,SMDPad,CuDef*%
%ADD13R,1.800000X1.100000*%
%TD*%
%TA.AperFunction,SMDPad,CuDef*%
%ADD14RoundRect,0.150000X-0.150000X-0.700000X0.150000X-0.700000X0.150000X0.700000X-0.150000X0.700000X0*%
%TD*%
%TA.AperFunction,SMDPad,CuDef*%
%ADD15RoundRect,0.250000X-0.250000X-1.150000X0.250000X-1.150000X0.250000X1.150000X-0.250000X1.150000X0*%
%TD*%
%TA.AperFunction,SMDPad,CuDef*%
%ADD16RoundRect,0.225000X0.250000X-0.225000X0.250000X0.225000X-0.250000X0.225000X-0.250000X-0.225000X0*%
%TD*%
%TA.AperFunction,SMDPad,CuDef*%
%ADD17RoundRect,0.075000X-0.200000X0.075000X-0.200000X-0.075000X0.200000X-0.075000X0.200000X0.075000X0*%
%TD*%
%TA.AperFunction,SMDPad,CuDef*%
%ADD18RoundRect,0.140000X-0.170000X0.140000X-0.170000X-0.140000X0.170000X-0.140000X0.170000X0.140000X0*%
%TD*%
%TA.AperFunction,SMDPad,CuDef*%
%ADD19RoundRect,0.140000X0.170000X-0.140000X0.170000X0.140000X-0.170000X0.140000X-0.170000X-0.140000X0*%
%TD*%
%TA.AperFunction,SMDPad,CuDef*%
%ADD20RoundRect,0.250000X0.475000X-0.250000X0.475000X0.250000X-0.475000X0.250000X-0.475000X-0.250000X0*%
%TD*%
%TA.AperFunction,SMDPad,CuDef*%
%ADD21RoundRect,0.218750X-0.218750X-0.256250X0.218750X-0.256250X0.218750X0.256250X-0.218750X0.256250X0*%
%TD*%
%TA.AperFunction,SMDPad,CuDef*%
%ADD22RoundRect,0.150000X0.150000X-0.512500X0.150000X0.512500X-0.150000X0.512500X-0.150000X-0.512500X0*%
%TD*%
%TA.AperFunction,SMDPad,CuDef*%
%ADD23RoundRect,0.093750X0.106250X-0.093750X0.106250X0.093750X-0.106250X0.093750X-0.106250X-0.093750X0*%
%TD*%
%TA.AperFunction,HeatsinkPad*%
%ADD24R,1.600000X1.000000*%
%TD*%
%TA.AperFunction,SMDPad,CuDef*%
%ADD25RoundRect,0.135000X-0.185000X0.135000X-0.185000X-0.135000X0.185000X-0.135000X0.185000X0.135000X0*%
%TD*%
%TA.AperFunction,SMDPad,CuDef*%
%ADD26RoundRect,0.250000X0.312500X1.450000X-0.312500X1.450000X-0.312500X-1.450000X0.312500X-1.450000X0*%
%TD*%
%TA.AperFunction,SMDPad,CuDef*%
%ADD27RoundRect,0.375000X-0.625000X-0.375000X0.625000X-0.375000X0.625000X0.375000X-0.625000X0.375000X0*%
%TD*%
%TA.AperFunction,SMDPad,CuDef*%
%ADD28RoundRect,0.500000X-0.500000X-1.400000X0.500000X-1.400000X0.500000X1.400000X-0.500000X1.400000X0*%
%TD*%
%TA.AperFunction,SMDPad,CuDef*%
%ADD29RoundRect,0.135000X0.135000X0.185000X-0.135000X0.185000X-0.135000X-0.185000X0.135000X-0.185000X0*%
%TD*%
%TA.AperFunction,SMDPad,CuDef*%
%ADD30RoundRect,0.135000X0.185000X-0.135000X0.185000X0.135000X-0.185000X0.135000X-0.185000X-0.135000X0*%
%TD*%
%TA.AperFunction,SMDPad,CuDef*%
%ADD31C,1.000000*%
%TD*%
%TA.AperFunction,SMDPad,CuDef*%
%ADD32RoundRect,0.093750X-0.093750X-0.106250X0.093750X-0.106250X0.093750X0.106250X-0.093750X0.106250X0*%
%TD*%
%TA.AperFunction,HeatsinkPad*%
%ADD33R,1.000000X1.600000*%
%TD*%
%TA.AperFunction,SMDPad,CuDef*%
%ADD34RoundRect,0.075000X-0.075000X-0.200000X0.075000X-0.200000X0.075000X0.200000X-0.075000X0.200000X0*%
%TD*%
%TA.AperFunction,SMDPad,CuDef*%
%ADD35RoundRect,0.140000X-0.140000X-0.170000X0.140000X-0.170000X0.140000X0.170000X-0.140000X0.170000X0*%
%TD*%
%TA.AperFunction,SMDPad,CuDef*%
%ADD36RoundRect,0.140000X0.140000X0.170000X-0.140000X0.170000X-0.140000X-0.170000X0.140000X-0.170000X0*%
%TD*%
%TA.AperFunction,SMDPad,CuDef*%
%ADD37R,1.500000X0.900000*%
%TD*%
%TA.AperFunction,SMDPad,CuDef*%
%ADD38R,1.300000X1.300000*%
%TD*%
%TA.AperFunction,SMDPad,CuDef*%
%ADD39R,0.900000X1.500000*%
%TD*%
%TA.AperFunction,SMDPad,CuDef*%
%ADD40RoundRect,0.150000X-0.425000X0.150000X-0.425000X-0.150000X0.425000X-0.150000X0.425000X0.150000X0*%
%TD*%
%TA.AperFunction,SMDPad,CuDef*%
%ADD41RoundRect,0.075000X-0.500000X0.075000X-0.500000X-0.075000X0.500000X-0.075000X0.500000X0.075000X0*%
%TD*%
%TA.AperFunction,SMDPad,CuDef*%
%ADD42RoundRect,0.250000X-0.750000X0.840000X-0.750000X-0.840000X0.750000X-0.840000X0.750000X0.840000X0*%
%TD*%
%TA.AperFunction,ViaPad*%
%ADD43C,0.600000*%
%TD*%
%TA.AperFunction,Conductor*%
%ADD44C,0.200000*%
%TD*%
%TA.AperFunction,Conductor*%
%ADD45C,0.250000*%
%TD*%
%TA.AperFunction,Conductor*%
%ADD46C,0.500000*%
%TD*%
%TA.AperFunction,Conductor*%
%ADD47C,0.300000*%
%TD*%
%TA.AperFunction,Conductor*%
%ADD48C,0.400000*%
%TD*%
%TA.AperFunction,Conductor*%
%ADD49C,0.600000*%
%TD*%
%TA.AperFunction,Conductor*%
%ADD50C,0.350000*%
%TD*%
%TA.AperFunction,Conductor*%
%ADD51C,0.360000*%
%TD*%
G04 APERTURE END LIST*
D10*
%TO.P,R7,1*%
%TO.N,Net-(U1-U0TXD{slash}GPIO11)*%
X128490000Y-107100000D03*
%TO.P,R7,2*%
%TO.N,Net-(R7-Pad2)*%
X129510000Y-107100000D03*
%TD*%
D11*
%TO.P,C6,1*%
%TO.N,Net-(U3-VIN2)*%
X121775000Y-134300000D03*
%TO.P,C6,2*%
%TO.N,GND*%
X120225000Y-134300000D03*
%TD*%
D12*
%TO.P,U3,1*%
%TO.N,GND*%
X121760000Y-137750000D03*
%TO.P,U3,2*%
%TO.N,+3V3*%
X121760000Y-138250000D03*
%TO.P,U3,3*%
%TO.N,+3V3_HOST*%
X121760000Y-138750000D03*
%TO.P,U3,4*%
%TO.N,/Power/U3_PR1*%
X121760000Y-139250000D03*
%TO.P,U3,5*%
%TO.N,+3V3_HOST*%
X123240000Y-139250000D03*
%TO.P,U3,6*%
%TO.N,Net-(U3-VIN2)*%
X123240000Y-138750000D03*
%TO.P,U3,7*%
%TO.N,+3V3*%
X123240000Y-138250000D03*
%TO.P,U3,8*%
%TO.N,/ESP32-C5/PWR_SRC_HOST*%
X123240000Y-137750000D03*
%TD*%
D13*
%TO.P,SW2,1*%
%TO.N,GND*%
X128400000Y-132650000D03*
X134600000Y-132650000D03*
%TO.P,SW2,2*%
%TO.N,Net-(U1-GPIO28)*%
X128400000Y-136350000D03*
X134600000Y-136350000D03*
%TD*%
D14*
%TO.P,J2,1*%
%TO.N,+3V3_HOST*%
X109250000Y-152150000D03*
%TO.P,J2,2*%
X110500000Y-152150000D03*
%TO.P,J2,3*%
%TO.N,GND*%
X111750000Y-152150000D03*
%TO.P,J2,4*%
%TO.N,/Controlboard Link/ESP_SPI_SCK*%
X113000000Y-152150000D03*
%TO.P,J2,5*%
%TO.N,GND*%
X114250000Y-152150000D03*
%TO.P,J2,6*%
%TO.N,/Controlboard Link/ESP_SPI_MOSI*%
X115500000Y-152150000D03*
%TO.P,J2,7*%
%TO.N,GND*%
X116750000Y-152150000D03*
%TO.P,J2,8*%
%TO.N,/Controlboard Link/ESP_SPI_MISO*%
X118000000Y-152150000D03*
%TO.P,J2,9*%
%TO.N,GND*%
X119250000Y-152150000D03*
%TO.P,J2,10*%
%TO.N,/Controlboard Link/ESP_SPI_CS*%
X120500000Y-152150000D03*
%TO.P,J2,11*%
%TO.N,GND*%
X121750000Y-152150000D03*
%TO.P,J2,12*%
%TO.N,/Controlboard Link/ESP_HANDSHAKE*%
X123000000Y-152150000D03*
%TO.P,J2,13*%
%TO.N,/Controlboard Link/ESP_DATA_READY*%
X124250000Y-152150000D03*
%TO.P,J2,14*%
%TO.N,/Controlboard Link/ESP_EN*%
X125500000Y-152150000D03*
%TO.P,J2,15*%
%TO.N,GND*%
X126750000Y-152150000D03*
D15*
%TO.P,J2,MP*%
X107400000Y-148800000D03*
X128600000Y-148800000D03*
%TD*%
D16*
%TO.P,C7,1*%
%TO.N,+3V3_HOST*%
X119600000Y-139275000D03*
%TO.P,C7,2*%
%TO.N,GND*%
X119600000Y-137725000D03*
%TD*%
D17*
%TO.P,U6,1*%
%TO.N,/Controlboard Link/ESP_HANDSHAKE*%
X127215000Y-143600000D03*
%TO.P,U6,2*%
%TO.N,/Controlboard Link/ESP_DATA_READY*%
X127215000Y-144100000D03*
%TO.P,U6,3*%
%TO.N,GND*%
X127215000Y-144600000D03*
%TO.P,U6,4*%
X127215000Y-145100000D03*
%TO.P,U6,5*%
%TO.N,/Controlboard Link/ESP_EN*%
X127215000Y-145600000D03*
%TO.P,U6,6*%
X127985000Y-145600000D03*
%TO.P,U6,7*%
%TO.N,GND*%
X127985000Y-145100000D03*
%TO.P,U6,8*%
X127985000Y-144600000D03*
%TO.P,U6,9*%
%TO.N,/Controlboard Link/ESP_DATA_READY*%
X127985000Y-144100000D03*
%TO.P,U6,10*%
%TO.N,/Controlboard Link/ESP_HANDSHAKE*%
X127985000Y-143600000D03*
%TD*%
D18*
%TO.P,C3,1*%
%TO.N,Net-(U1-EN{slash}CHIP_PU)*%
X104400000Y-105820000D03*
%TO.P,C3,2*%
%TO.N,GND*%
X104400000Y-106780000D03*
%TD*%
D10*
%TO.P,R12,1*%
%TO.N,/Power/U3_PR1*%
X120990000Y-141800000D03*
%TO.P,R12,2*%
%TO.N,GND*%
X122010000Y-141800000D03*
%TD*%
%TO.P,R14,1*%
%TO.N,/ESP32-C5/PWR_SRC_HOST*%
X124990000Y-141800000D03*
%TO.P,R14,2*%
%TO.N,/Power/U3_PR1*%
X126010000Y-141800000D03*
%TD*%
D19*
%TO.P,C9,1*%
%TO.N,+3V3*%
X127800000Y-138980000D03*
%TO.P,C9,2*%
%TO.N,GND*%
X127800000Y-138020000D03*
%TD*%
D10*
%TO.P,R15,1*%
%TO.N,+3V3*%
X131990000Y-119000000D03*
%TO.P,R15,2*%
%TO.N,Net-(D3-A)*%
X133010000Y-119000000D03*
%TD*%
D20*
%TO.P,C1,1*%
%TO.N,+3V3*%
X107000000Y-103250000D03*
%TO.P,C1,2*%
%TO.N,GND*%
X107000000Y-101350000D03*
%TD*%
D21*
%TO.P,D1,1*%
%TO.N,GND*%
X131712500Y-112000000D03*
%TO.P,D1,2*%
%TO.N,Net-(D1-A)*%
X133287500Y-112000000D03*
%TD*%
D22*
%TO.P,U2,1*%
%TO.N,/USB/USB_DN_CON*%
X109350000Y-126937500D03*
%TO.P,U2,2*%
%TO.N,GND*%
X110300000Y-126937500D03*
%TO.P,U2,3*%
%TO.N,/USB/USB_DP_CON*%
X111250000Y-126937500D03*
%TO.P,U2,4*%
%TO.N,/ESP32-C5/USB_DP*%
X111250000Y-124662500D03*
%TO.P,U2,5*%
%TO.N,+3V3*%
X110300000Y-124662500D03*
%TO.P,U2,6*%
%TO.N,/ESP32-C5/USB_DN*%
X109350000Y-124662500D03*
%TD*%
D23*
%TO.P,D2,1*%
%TO.N,GND*%
X109950000Y-135887500D03*
%TO.P,D2,2*%
X110600000Y-135887500D03*
%TO.P,D2,3*%
X111250000Y-135887500D03*
%TO.P,D2,4*%
%TO.N,Net-(D2-IN-Pad4)*%
X111250000Y-134112500D03*
%TO.P,D2,5*%
X110600000Y-134112500D03*
%TO.P,D2,6*%
X109950000Y-134112500D03*
D24*
%TO.P,D2,7*%
%TO.N,GND*%
X110600000Y-135000000D03*
%TD*%
D25*
%TO.P,R5,1*%
%TO.N,Net-(U1-GPIO13{slash}USB_D-)*%
X106600000Y-120190000D03*
%TO.P,R5,2*%
%TO.N,/ESP32-C5/USB_DN*%
X106600000Y-121210000D03*
%TD*%
D26*
%TO.P,F1,1*%
%TO.N,VBUS*%
X117137500Y-134500000D03*
%TO.P,F1,2*%
%TO.N,Net-(D2-IN-Pad4)*%
X112862500Y-134500000D03*
%TD*%
D27*
%TO.P,U4,1*%
%TO.N,VBUS*%
X118650000Y-126500000D03*
%TO.P,U4,2*%
%TO.N,GND*%
X118650000Y-128800000D03*
D28*
X124950000Y-128800000D03*
D27*
%TO.P,U4,3*%
%TO.N,Net-(U3-VIN2)*%
X118650000Y-131100000D03*
%TD*%
D29*
%TO.P,R10,1*%
%TO.N,Net-(J1-CC2)*%
X108510000Y-138400000D03*
%TO.P,R10,2*%
%TO.N,GND*%
X107490000Y-138400000D03*
%TD*%
D30*
%TO.P,R1,1*%
%TO.N,+3V3*%
X105600000Y-106850000D03*
%TO.P,R1,2*%
%TO.N,Net-(U1-EN{slash}CHIP_PU)*%
X105600000Y-105830000D03*
%TD*%
D10*
%TO.P,R3,1*%
%TO.N,+3V3*%
X129390000Y-121500000D03*
%TO.P,R3,2*%
%TO.N,Net-(U1-GPIO28)*%
X130410000Y-121500000D03*
%TD*%
D31*
%TO.P,TP1,1*%
%TO.N,Net-(R7-Pad2)*%
X131000000Y-106300000D03*
%TD*%
D10*
%TO.P,R11,1*%
%TO.N,+3V3_HOST*%
X118990000Y-141800000D03*
%TO.P,R11,2*%
%TO.N,/Power/U3_PR1*%
X120010000Y-141800000D03*
%TD*%
D32*
%TO.P,D4,1*%
%TO.N,GND*%
X109612500Y-144150000D03*
%TO.P,D4,2*%
X109612500Y-144800000D03*
%TO.P,D4,3*%
X109612500Y-145450000D03*
%TO.P,D4,4*%
%TO.N,+3V3_HOST*%
X111387500Y-145450000D03*
%TO.P,D4,5*%
X111387500Y-144800000D03*
%TO.P,D4,6*%
X111387500Y-144150000D03*
D33*
%TO.P,D4,7*%
%TO.N,GND*%
X110500000Y-144800000D03*
%TD*%
D31*
%TO.P,TP2,1*%
%TO.N,Net-(U1-U0RXD{slash}GPIO12)*%
X131000000Y-108370000D03*
%TD*%
D34*
%TO.P,U5,1*%
%TO.N,/Controlboard Link/ESP_SPI_SCK*%
X115750000Y-145985000D03*
%TO.P,U5,2*%
%TO.N,/Controlboard Link/ESP_SPI_MOSI*%
X116250000Y-145985000D03*
%TO.P,U5,3*%
%TO.N,GND*%
X116750000Y-145985000D03*
%TO.P,U5,4*%
%TO.N,/Controlboard Link/ESP_SPI_MISO*%
X117250000Y-145985000D03*
%TO.P,U5,5*%
%TO.N,/Controlboard Link/ESP_SPI_CS*%
X117750000Y-145985000D03*
%TO.P,U5,6*%
X117750000Y-145215000D03*
%TO.P,U5,7*%
%TO.N,/Controlboard Link/ESP_SPI_MISO*%
X117250000Y-145215000D03*
%TO.P,U5,8*%
%TO.N,GND*%
X116750000Y-145215000D03*
%TO.P,U5,9*%
%TO.N,/Controlboard Link/ESP_SPI_MOSI*%
X116250000Y-145215000D03*
%TO.P,U5,10*%
%TO.N,/Controlboard Link/ESP_SPI_SCK*%
X115750000Y-145215000D03*
%TD*%
D20*
%TO.P,C8,1*%
%TO.N,+3V3*%
X125800000Y-139450000D03*
%TO.P,C8,2*%
%TO.N,GND*%
X125800000Y-137550000D03*
%TD*%
D10*
%TO.P,R4,1*%
%TO.N,/Controlboard Link/ESP_SPI_MISO*%
X106690000Y-107100000D03*
%TO.P,R4,2*%
%TO.N,Net-(U1-GPIO2)*%
X107710000Y-107100000D03*
%TD*%
D21*
%TO.P,D3,1*%
%TO.N,GND*%
X131712500Y-117000000D03*
%TO.P,D3,2*%
%TO.N,Net-(D3-A)*%
X133287500Y-117000000D03*
%TD*%
D10*
%TO.P,R2,1*%
%TO.N,/Controlboard Link/ESP_EN*%
X102390000Y-106400000D03*
%TO.P,R2,2*%
%TO.N,Net-(U1-EN{slash}CHIP_PU)*%
X103410000Y-106400000D03*
%TD*%
D35*
%TO.P,C4,1*%
%TO.N,Net-(U1-GPIO28)*%
X131520000Y-121500000D03*
%TO.P,C4,2*%
%TO.N,GND*%
X132480000Y-121500000D03*
%TD*%
D36*
%TO.P,C2,1*%
%TO.N,+3V3*%
X107980000Y-104560000D03*
%TO.P,C2,2*%
%TO.N,GND*%
X107020000Y-104560000D03*
%TD*%
D10*
%TO.P,R9,1*%
%TO.N,Net-(J1-CC1)*%
X112490000Y-129000000D03*
%TO.P,R9,2*%
%TO.N,GND*%
X113510000Y-129000000D03*
%TD*%
D25*
%TO.P,R6,1*%
%TO.N,Net-(U1-GPIO14{slash}USB_D+)*%
X107800000Y-120190000D03*
%TO.P,R6,2*%
%TO.N,/ESP32-C5/USB_DP*%
X107800000Y-121210000D03*
%TD*%
D13*
%TO.P,SW1,1*%
%TO.N,GND*%
X128400000Y-125950000D03*
X134600000Y-125950000D03*
%TO.P,SW1,2*%
%TO.N,Net-(U1-EN{slash}CHIP_PU)*%
X128400000Y-129650000D03*
X134600000Y-129650000D03*
%TD*%
D37*
%TO.P,U1,1*%
%TO.N,GND*%
X109500000Y-103290000D03*
%TO.P,U1,2*%
%TO.N,+3V3*%
X109500000Y-104560000D03*
%TO.P,U1,3*%
%TO.N,Net-(U1-EN{slash}CHIP_PU)*%
X109500000Y-105830000D03*
%TO.P,U1,4*%
%TO.N,Net-(U1-GPIO2)*%
X109500000Y-107100000D03*
%TO.P,U1,5*%
%TO.N,/Controlboard Link/ESP_HANDSHAKE*%
X109500000Y-108370000D03*
%TO.P,U1,6*%
%TO.N,unconnected-(U1-GPIO0-Pad6)*%
X109500000Y-109640000D03*
%TO.P,U1,7*%
%TO.N,unconnected-(U1-GPIO1-Pad7)*%
X109500000Y-110910000D03*
%TO.P,U1,8*%
%TO.N,/Controlboard Link/ESP_SPI_SCK*%
X109500000Y-112180000D03*
%TO.P,U1,9*%
%TO.N,/Controlboard Link/ESP_SPI_MOSI*%
X109500000Y-113450000D03*
%TO.P,U1,10*%
%TO.N,unconnected-(U1-GPIO8-Pad10)*%
X109500000Y-114720000D03*
%TO.P,U1,11*%
%TO.N,/ESP32-C5/PWR_SRC_HOST*%
X109500000Y-115990000D03*
%TO.P,U1,12*%
%TO.N,/Controlboard Link/ESP_SPI_CS*%
X109500000Y-117260000D03*
%TO.P,U1,13*%
%TO.N,Net-(U1-GPIO13{slash}USB_D-)*%
X109500000Y-118530000D03*
%TO.P,U1,14*%
%TO.N,Net-(U1-GPIO14{slash}USB_D+)*%
X109500000Y-119800000D03*
%TO.P,U1,15*%
%TO.N,Net-(U1-GPIO28)*%
X127000000Y-119800000D03*
%TO.P,U1,16*%
%TO.N,unconnected-(U1-GPIO5-Pad16)*%
X127000000Y-118530000D03*
%TO.P,U1,17*%
%TO.N,/Controlboard Link/ESP_DATA_READY*%
X127000000Y-117260000D03*
%TO.P,U1,18*%
%TO.N,unconnected-(U1-GPIO27-Pad18)*%
X127000000Y-115990000D03*
%TO.P,U1,19*%
%TO.N,unconnected-(U1-GPIO15-Pad19)*%
X127000000Y-114720000D03*
%TO.P,U1,20*%
%TO.N,unconnected-(U1-NC-Pad20)*%
X127000000Y-113450000D03*
%TO.P,U1,21*%
%TO.N,unconnected-(U1-GPIO23-Pad21)*%
X127000000Y-112180000D03*
%TO.P,U1,22*%
%TO.N,unconnected-(U1-NC-Pad22)*%
X127000000Y-110910000D03*
%TO.P,U1,23*%
%TO.N,Net-(U1-GPIO24)*%
X127000000Y-109640000D03*
%TO.P,U1,24*%
%TO.N,Net-(U1-U0RXD{slash}GPIO12)*%
X127000000Y-108370000D03*
%TO.P,U1,25*%
%TO.N,Net-(U1-U0TXD{slash}GPIO11)*%
X127000000Y-107100000D03*
%TO.P,U1,26*%
%TO.N,unconnected-(U1-GPIO25-Pad26)*%
X127000000Y-105830000D03*
%TO.P,U1,27*%
%TO.N,unconnected-(U1-GPIO26-Pad27)*%
X127000000Y-104560000D03*
%TO.P,U1,28*%
%TO.N,GND*%
X127000000Y-103290000D03*
D38*
%TO.P,U1,29*%
X117379800Y-110178000D03*
X117379800Y-111878000D03*
X117379800Y-113578000D03*
X119079800Y-110178000D03*
X119079800Y-111878000D03*
X119079800Y-113578000D03*
X120779800Y-110178000D03*
X120779800Y-111878000D03*
X120779800Y-113578000D03*
D39*
%TO.P,U1,30*%
X122250000Y-101850000D03*
%TO.P,U1,31*%
%TO.N,unconnected-(U1-ANT2-Pad31)*%
X120980000Y-101850000D03*
%TO.P,U1,32*%
%TO.N,GND*%
X119710000Y-101850000D03*
%TD*%
D40*
%TO.P,J1,A1*%
%TO.N,GND*%
X107360000Y-127800000D03*
%TO.P,J1,A4*%
%TO.N,Net-(D2-IN-Pad4)*%
X107360000Y-128600000D03*
D41*
%TO.P,J1,A5*%
%TO.N,Net-(J1-CC1)*%
X107360000Y-129750000D03*
%TO.P,J1,A6*%
%TO.N,/USB/USB_DP_CON*%
X107360000Y-130750000D03*
%TO.P,J1,A7*%
%TO.N,/USB/USB_DN_CON*%
X107360000Y-131250000D03*
%TO.P,J1,A8*%
%TO.N,unconnected-(J1-SBU1-PadA8)*%
X107360000Y-132250000D03*
D40*
%TO.P,J1,A9*%
%TO.N,Net-(D2-IN-Pad4)*%
X107360000Y-133400000D03*
%TO.P,J1,A12*%
%TO.N,GND*%
X107360000Y-134200000D03*
%TO.P,J1,B1*%
X107360000Y-134200000D03*
%TO.P,J1,B4*%
%TO.N,Net-(D2-IN-Pad4)*%
X107360000Y-133400000D03*
D41*
%TO.P,J1,B5*%
%TO.N,Net-(J1-CC2)*%
X107360000Y-132750000D03*
%TO.P,J1,B6*%
%TO.N,/USB/USB_DP_CON*%
X107360000Y-131750000D03*
%TO.P,J1,B7*%
%TO.N,/USB/USB_DN_CON*%
X107360000Y-130250000D03*
%TO.P,J1,B8*%
%TO.N,unconnected-(J1-SBU2-PadB8)*%
X107360000Y-129250000D03*
D40*
%TO.P,J1,B9*%
%TO.N,Net-(D2-IN-Pad4)*%
X107360000Y-128600000D03*
%TO.P,J1,B12*%
%TO.N,GND*%
X107360000Y-127800000D03*
D42*
%TO.P,J1,SH*%
%TO.N,unconnected-(J1-SHIELD-PadSH)_1*%
X106785000Y-125890000D03*
%TO.N,unconnected-(J1-SHIELD-PadSH)*%
X102855000Y-125890000D03*
%TO.N,unconnected-(J1-SHIELD-PadSH)_2*%
X106785000Y-136110000D03*
%TO.N,unconnected-(J1-SHIELD-PadSH)_3*%
X102855000Y-136110000D03*
%TD*%
D10*
%TO.P,R8,1*%
%TO.N,Net-(U1-GPIO24)*%
X131990000Y-114000000D03*
%TO.P,R8,2*%
%TO.N,Net-(D1-A)*%
X133010000Y-114000000D03*
%TD*%
%TO.P,R13,1*%
%TO.N,+3V3*%
X122990000Y-141800000D03*
%TO.P,R13,2*%
%TO.N,/ESP32-C5/PWR_SRC_HOST*%
X124010000Y-141800000D03*
%TD*%
D20*
%TO.P,C5,1*%
%TO.N,VBUS*%
X115600000Y-127350000D03*
%TO.P,C5,2*%
%TO.N,GND*%
X115600000Y-125450000D03*
%TD*%
D43*
%TO.N,GND*%
X107400000Y-145900000D03*
X126300000Y-144850000D03*
X119080000Y-111878000D03*
X121760000Y-136600000D03*
X117380000Y-113578000D03*
X108200000Y-102400000D03*
X117380000Y-111878000D03*
X112200000Y-142600000D03*
X104400000Y-107700000D03*
X134199999Y-133419999D03*
X114250000Y-129000000D03*
X133800000Y-123300000D03*
X108400000Y-127400000D03*
X110300000Y-128000000D03*
X128900000Y-144850000D03*
X126900000Y-136900000D03*
X116750000Y-149300000D03*
X115600000Y-124500000D03*
X119250000Y-150400000D03*
X120780000Y-111878000D03*
X114250000Y-150400000D03*
X106800000Y-110600000D03*
X119080000Y-110178000D03*
X103000000Y-146200000D03*
X110600000Y-136600000D03*
X119100000Y-144400000D03*
X129800000Y-103000000D03*
X106550000Y-105200000D03*
X108700000Y-144800000D03*
X119080000Y-113578000D03*
X116750000Y-150400000D03*
X106700000Y-138400000D03*
X120780000Y-110178000D03*
X122010000Y-143100000D03*
X106600000Y-115500000D03*
X111750000Y-150400000D03*
X126600000Y-130300000D03*
X108300000Y-125000000D03*
X117380000Y-110178000D03*
X126600000Y-128800000D03*
X116400000Y-142900000D03*
X121750000Y-150400000D03*
X120780000Y-113578000D03*
X133800000Y-115300000D03*
X133800000Y-120250000D03*
X126600000Y-127300000D03*
X126750000Y-150400000D03*
%TO.N,+3V3*%
X120600000Y-138000000D03*
X105600000Y-107750000D03*
X107980000Y-103980000D03*
X131990000Y-120000000D03*
X127800000Y-139900000D03*
X125800000Y-140500000D03*
X110300000Y-123550000D03*
%TO.N,+3V3_HOST*%
X123240000Y-140350000D03*
X118990000Y-140350000D03*
%TO.N,/Power/U3_PR1*%
X120500000Y-142750000D03*
X126010000Y-142750000D03*
%TO.N,/ESP32-C5/PWR_SRC_HOST*%
X123240000Y-136900000D03*
X124500000Y-140950000D03*
X108000000Y-115990000D03*
%TO.N,/Controlboard Link/ESP_SPI_SCK*%
X113150000Y-141800000D03*
X108000000Y-112180000D03*
%TO.N,/Controlboard Link/ESP_SPI_MOSI*%
X115600000Y-142000000D03*
X108000000Y-113450000D03*
%TO.N,/Controlboard Link/ESP_SPI_MISO*%
X117250000Y-143750000D03*
X106690000Y-108900000D03*
%TO.N,/Controlboard Link/ESP_SPI_CS*%
X118400000Y-143500000D03*
X108000000Y-117260000D03*
%TO.N,/Controlboard Link/ESP_HANDSHAKE*%
X108000000Y-108370000D03*
X129300000Y-143000000D03*
%TO.N,/Controlboard Link/ESP_DATA_READY*%
X130199999Y-144100000D03*
X130199999Y-117260000D03*
%TO.N,/Controlboard Link/ESP_EN*%
X102390000Y-107300000D03*
X131100000Y-145600000D03*
%TO.N,Net-(U1-EN{slash}CHIP_PU)*%
X107300000Y-105830000D03*
X134900000Y-130600000D03*
%TO.N,Net-(D2-IN-Pad4)*%
X108400000Y-133400000D03*
X108550000Y-128600000D03*
%TO.N,Net-(J1-CC2)*%
X109200000Y-137600000D03*
X109200000Y-132600000D03*
%TO.N,Net-(J1-CC1)*%
X108550000Y-129750000D03*
X111900000Y-129750000D03*
%TD*%
%TO.N,Net-(U1-U0TXD{slash}GPIO11)*%
D44*
X127000000Y-107100000D02*
X128490000Y-107100000D01*
%TO.N,Net-(R7-Pad2)*%
X129509999Y-107100000D02*
X130310000Y-106300000D01*
X130310000Y-106300000D02*
X131000000Y-106300000D01*
%TO.N,Net-(U3-VIN2)*%
D45*
X123800000Y-138750000D02*
X124400000Y-138150000D01*
X123240000Y-138750000D02*
X123800000Y-138750000D01*
D46*
X118650000Y-131100000D02*
X119700000Y-131100000D01*
X119700000Y-131100000D02*
X121775000Y-133175000D01*
X123800000Y-134300000D02*
X124400000Y-134900000D01*
X121775000Y-134300000D02*
X123800000Y-134300000D01*
X124400000Y-138150000D02*
X124400000Y-134900000D01*
X121775000Y-133175000D02*
X121775000Y-134300000D01*
%TO.N,GND*%
D45*
X109612500Y-144800000D02*
X108700000Y-144800000D01*
D44*
X127210000Y-144600000D02*
X127210000Y-145100000D01*
X116750000Y-145985000D02*
X116750000Y-145215000D01*
X116750000Y-150400000D02*
X116750000Y-145985000D01*
D47*
X126750000Y-152150000D02*
X126750000Y-150400000D01*
D45*
X122010000Y-141800000D02*
X122010000Y-143100000D01*
X110300000Y-126937500D02*
X110300000Y-128000000D01*
D48*
X107000000Y-101350000D02*
X108050000Y-102400000D01*
D45*
X113510000Y-129000000D02*
X114250000Y-129000000D01*
X109630000Y-135890000D02*
X109950000Y-135890000D01*
D47*
X126450000Y-136900000D02*
X126900000Y-136900000D01*
D45*
X107020000Y-104560000D02*
X106550000Y-105030000D01*
D49*
X124950000Y-127300000D02*
X126600000Y-127300000D01*
D44*
X126960000Y-144850000D02*
X126300000Y-144850000D01*
D47*
X109500000Y-103290000D02*
X108610000Y-102400000D01*
D44*
X127990000Y-145100000D02*
X128240000Y-144850000D01*
D47*
X107360000Y-127800000D02*
X107760000Y-127400000D01*
D45*
X135000000Y-132620000D02*
X134199999Y-133419999D01*
X115600000Y-125450000D02*
X115600000Y-124500000D01*
D47*
X104400000Y-106780000D02*
X104400000Y-107700000D01*
D49*
X124950000Y-130300000D02*
X126600000Y-130300000D01*
D45*
X107940000Y-134199999D02*
X109630000Y-135890000D01*
D44*
X127990000Y-144600000D02*
X127990000Y-145100000D01*
D47*
X107760000Y-127400000D02*
X108400000Y-127400000D01*
D44*
X128240000Y-144850000D02*
X128900000Y-144850000D01*
D45*
X106550000Y-105030000D02*
X106550000Y-105200000D01*
D49*
X124950000Y-128800000D02*
X126600000Y-128800000D01*
D47*
X108610000Y-102400000D02*
X108200000Y-102400000D01*
D44*
X127210000Y-145100000D02*
X126960000Y-144850000D01*
D45*
X107360000Y-134199999D02*
X107940000Y-134199999D01*
D47*
X119250000Y-152150000D02*
X119250000Y-150400000D01*
D45*
X110600000Y-135000000D02*
X110600000Y-136600000D01*
D47*
X111750000Y-152150000D02*
X111750000Y-150400000D01*
X116750000Y-152150000D02*
X116750000Y-150400000D01*
D45*
X107490000Y-138400000D02*
X106700000Y-138400000D01*
D47*
X114250000Y-152150000D02*
X114250000Y-150400000D01*
D45*
X121760000Y-137750000D02*
X121760000Y-136600000D01*
D44*
X127210000Y-144600000D02*
X127990000Y-144600000D01*
D47*
X125800000Y-137550000D02*
X126450000Y-136900000D01*
X121750000Y-152150000D02*
X121750000Y-150400000D01*
%TO.N,+3V3*%
D48*
X109500000Y-104560000D02*
X107980000Y-104560000D01*
X107980000Y-104560000D02*
X107980000Y-103980000D01*
D45*
X129390000Y-121100000D02*
X129990000Y-120500000D01*
X129390000Y-121500000D02*
X129390000Y-121100000D01*
D48*
X107980000Y-103980000D02*
X107400000Y-103400000D01*
D45*
X110300000Y-124662500D02*
X110300000Y-123550000D01*
D47*
X127800000Y-138980000D02*
X127800000Y-139900000D01*
D45*
X131990000Y-119000000D02*
X131990000Y-120000000D01*
X122900000Y-141800000D02*
X122900000Y-140900000D01*
X131490000Y-120500000D02*
X131990000Y-120000000D01*
X131490000Y-120500000D02*
X129990000Y-120500000D01*
X122500000Y-140500000D02*
X122500000Y-138250000D01*
X105600000Y-106850000D02*
X105600000Y-107750000D01*
X122900000Y-140900000D02*
X122500000Y-140500000D01*
X121760000Y-138250000D02*
X120850000Y-138250000D01*
X120850000Y-138250000D02*
X120600000Y-138000000D01*
X121760000Y-138250000D02*
X123240000Y-138250000D01*
D48*
X125800000Y-139450000D02*
X125800000Y-140500000D01*
%TO.N,+3V3_HOST*%
D46*
X118300000Y-138200000D02*
X118300000Y-139660000D01*
X118300000Y-139660000D02*
X118990000Y-140350000D01*
D47*
X119600000Y-139000000D02*
X120900000Y-139000000D01*
D46*
X109250000Y-151600000D02*
X110500000Y-151600000D01*
D47*
X120900000Y-139000000D02*
X121150000Y-138750000D01*
D46*
X111390000Y-149310000D02*
X111390000Y-145900000D01*
X111990000Y-137600000D02*
X117700000Y-137600000D01*
X110500000Y-151600000D02*
X110500000Y-150200000D01*
X111390000Y-138200000D02*
X111990000Y-137600000D01*
X111390000Y-143500000D02*
X111390000Y-138200000D01*
D45*
X121150000Y-138750000D02*
X121760000Y-138750000D01*
D50*
X111390000Y-145900000D02*
X111390000Y-143500000D01*
D46*
X110500000Y-150200000D02*
X111390000Y-149310000D01*
D47*
X123240000Y-139250000D02*
X123240000Y-140350000D01*
D46*
X117700000Y-137600000D02*
X118300000Y-138200000D01*
X118990000Y-140350000D02*
X118990000Y-141800000D01*
X118990000Y-140350000D02*
X119740000Y-139600000D01*
%TO.N,/Power/U3_PR1*%
D44*
X126010000Y-142750000D02*
X126010000Y-141800000D01*
X120500000Y-141800000D02*
X120500000Y-142750000D01*
X120010000Y-141800000D02*
X120990000Y-141800000D01*
X120990000Y-141770000D02*
X120990000Y-141800000D01*
X121760000Y-139250000D02*
X121760000Y-141000000D01*
X121760000Y-141000000D02*
X120990000Y-141770000D01*
%TO.N,/ESP32-C5/PWR_SRC_HOST*%
X109500000Y-115990000D02*
X108000000Y-115990000D01*
X124500000Y-141800000D02*
X124500000Y-140950000D01*
X124010000Y-141800000D02*
X124990000Y-141800000D01*
X123240000Y-137750000D02*
X123240000Y-136900000D01*
%TO.N,Net-(U1-GPIO28)*%
X128175000Y-136375000D02*
X135000000Y-136375000D01*
X127000000Y-119800000D02*
X127600000Y-119800000D01*
X128200000Y-120400000D02*
X128199999Y-123800000D01*
X127200000Y-124800000D02*
X127200000Y-135400000D01*
X130410000Y-121500000D02*
X131520000Y-121500000D01*
X128199999Y-123800000D02*
X127200000Y-124800000D01*
X130410000Y-121500000D02*
X130410000Y-121850000D01*
X127600000Y-119800000D02*
X128200000Y-120400000D01*
X127200000Y-135400000D02*
X128175000Y-136375000D01*
X130410000Y-121850000D02*
X129960000Y-122300000D01*
X128200000Y-122300000D02*
X129960000Y-122300000D01*
%TO.N,/Controlboard Link/ESP_SPI_SCK*%
D51*
X113000000Y-149750000D02*
X115750000Y-147000000D01*
X113000000Y-152150000D02*
X113000000Y-149750000D01*
X109500000Y-112180000D02*
X108000000Y-112180000D01*
D44*
X115750000Y-145985000D02*
X115750000Y-145215000D01*
X115750000Y-144400000D02*
X115150000Y-143800000D01*
D51*
X115150000Y-143800000D02*
X113150000Y-141800000D01*
D44*
X115750000Y-147000000D02*
X115750000Y-145985000D01*
X115750000Y-145215000D02*
X115750000Y-144400000D01*
%TO.N,/Controlboard Link/ESP_SPI_MOSI*%
D51*
X115500000Y-152150000D02*
X115500000Y-148750000D01*
D44*
X116250000Y-145985000D02*
X116250000Y-145215000D01*
X116250000Y-148000000D02*
X116250000Y-145985000D01*
X116250000Y-145215000D02*
X116250000Y-144400000D01*
D51*
X115600000Y-143200000D02*
X115600000Y-142000000D01*
D44*
X116250000Y-144400000D02*
X115600000Y-143750000D01*
D51*
X115500000Y-148750000D02*
X116250000Y-148000000D01*
D44*
X115600000Y-143750000D02*
X115600000Y-143200000D01*
D51*
X109500000Y-113450000D02*
X108000000Y-113450000D01*
%TO.N,/Controlboard Link/ESP_SPI_MISO*%
D44*
X117250000Y-145985000D02*
X117250000Y-145215000D01*
D51*
X106690000Y-107100000D02*
X106690000Y-108900000D01*
X118000000Y-152150000D02*
X118000000Y-148750000D01*
D44*
X117250000Y-148000000D02*
X117250000Y-145985000D01*
D51*
X118000000Y-148750000D02*
X117250000Y-148000000D01*
D44*
X117250000Y-145215000D02*
X117250000Y-143750000D01*
%TO.N,/Controlboard Link/ESP_SPI_CS*%
X117750000Y-144750000D02*
X118400000Y-144100000D01*
X117750000Y-145985000D02*
X117750000Y-145215000D01*
D51*
X109500000Y-117260000D02*
X108000000Y-117260000D01*
D44*
X117750000Y-145215000D02*
X117750000Y-144750000D01*
X118400000Y-144100000D02*
X118400000Y-143500000D01*
D51*
X120500000Y-149750000D02*
X117750000Y-147000000D01*
X120500000Y-152150000D02*
X120500000Y-149750000D01*
D44*
X117750000Y-147000000D02*
X117750000Y-145985000D01*
%TO.N,/Controlboard Link/ESP_HANDSHAKE*%
X124000000Y-143600000D02*
X127210000Y-143600000D01*
X127210000Y-143600000D02*
X127990000Y-143600000D01*
X123000000Y-144600000D02*
X124000000Y-143600000D01*
X123000000Y-152150000D02*
X123000000Y-144600000D01*
X127990000Y-143600000D02*
X128699999Y-143600000D01*
X128699999Y-143600000D02*
X129300000Y-143000000D01*
X109500000Y-108370000D02*
X108000000Y-108370000D01*
%TO.N,/Controlboard Link/ESP_DATA_READY*%
X127210000Y-144100000D02*
X127990000Y-144100000D01*
X127000000Y-117260000D02*
X130199999Y-117260000D01*
X124250000Y-152150000D02*
X124250000Y-145100000D01*
X124250000Y-145100000D02*
X125250000Y-144100000D01*
X127990000Y-144100000D02*
X130199999Y-144100000D01*
X125250000Y-144100000D02*
X127210000Y-144100000D01*
%TO.N,/Controlboard Link/ESP_EN*%
X125500000Y-146600000D02*
X126500000Y-145600000D01*
X125500000Y-152150000D02*
X125500000Y-146600000D01*
X127210000Y-145600000D02*
X127990000Y-145600000D01*
X127990000Y-145600000D02*
X131100000Y-145600000D01*
X102390000Y-106400000D02*
X102390000Y-107300000D01*
X126500000Y-145600000D02*
X127210000Y-145600000D01*
%TO.N,Net-(U1-EN{slash}CHIP_PU)*%
X134900000Y-130600000D02*
X134900000Y-129900000D01*
X109500000Y-105830000D02*
X104200000Y-105830000D01*
X104200000Y-105830000D02*
X103630000Y-106400000D01*
X129000000Y-129675000D02*
X135000000Y-129675000D01*
X103630000Y-106400000D02*
X103410000Y-106400000D01*
%TO.N,Net-(D3-A)*%
X133009999Y-117277000D02*
X133009999Y-119000000D01*
X133287000Y-117000000D02*
X133009999Y-117277000D01*
%TO.N,Net-(D1-A)*%
X133287000Y-112000000D02*
X133009999Y-112277000D01*
X133009999Y-112277000D02*
X133009999Y-114000000D01*
%TO.N,/USB/USB_DN_CON*%
D45*
X107360000Y-131250000D02*
X108300000Y-131250000D01*
X109350000Y-130750000D02*
X109350000Y-126937500D01*
X108850000Y-131250000D02*
X109350000Y-130750000D01*
X108000000Y-130250000D02*
X108300000Y-130550000D01*
X108300000Y-130550000D02*
X108300000Y-131250000D01*
X108300000Y-131250000D02*
X108850000Y-131250000D01*
X107360000Y-130250000D02*
X108000000Y-130250000D01*
%TO.N,/USB/USB_DP_CON*%
D44*
X106750000Y-130750000D02*
X106450000Y-131050000D01*
D45*
X110750000Y-131750000D02*
X111250000Y-131250000D01*
D44*
X106450000Y-131050000D02*
X106450000Y-131449999D01*
D45*
X111250000Y-131250000D02*
X111250000Y-126937500D01*
D44*
X106450000Y-131449999D02*
X106750000Y-131750000D01*
X107360000Y-130750000D02*
X106750000Y-130750000D01*
D45*
X107360000Y-131750000D02*
X110750000Y-131750000D01*
D44*
X106750000Y-131750000D02*
X107360000Y-131750000D01*
%TO.N,/ESP32-C5/USB_DP*%
D45*
X111250000Y-122010000D02*
X110450000Y-121210000D01*
X110450000Y-121210000D02*
X107800000Y-121210000D01*
X111250000Y-124662500D02*
X111250000Y-122010000D01*
%TO.N,/ESP32-C5/USB_DN*%
X109350000Y-124662500D02*
X109350000Y-123960000D01*
X109350000Y-123960000D02*
X106600000Y-121210000D01*
%TO.N,Net-(D2-IN-Pad4)*%
D46*
X108400000Y-133400000D02*
X109110000Y-134110000D01*
X107360000Y-133400000D02*
X108400000Y-133400000D01*
D50*
X109110000Y-134110000D02*
X112860000Y-134110000D01*
D46*
X107360000Y-128600000D02*
X108550000Y-128600000D01*
%TO.N,Net-(U1-GPIO13{slash}USB_D-)*%
D45*
X106600000Y-120190000D02*
X106600000Y-119730000D01*
X107800000Y-118530000D02*
X109500000Y-118530000D01*
X106600000Y-119730000D02*
X107800000Y-118530000D01*
%TO.N,VBUS*%
D46*
X117140000Y-134500000D02*
X117140000Y-127200000D01*
X117840000Y-126500000D02*
X118650000Y-126500000D01*
X117140000Y-127350000D02*
X115600000Y-127350000D01*
X117140000Y-127200000D02*
X117840000Y-126500000D01*
%TO.N,Net-(J1-CC2)*%
D44*
X109200000Y-137600000D02*
X108510000Y-138290000D01*
X109050000Y-132750000D02*
X109200000Y-132600000D01*
X107360000Y-132750000D02*
X109050000Y-132750000D01*
%TO.N,Net-(U1-U0RXD{slash}GPIO12)*%
X127000000Y-108370000D02*
X131000000Y-108370000D01*
%TO.N,Net-(U1-GPIO2)*%
X109500000Y-107100000D02*
X107710000Y-107100000D01*
%TO.N,Net-(J1-CC1)*%
X111900000Y-129750000D02*
X112650000Y-129000000D01*
X107360000Y-129750000D02*
X108550000Y-129750000D01*
%TO.N,Net-(U1-GPIO14{slash}USB_D+)*%
D45*
X107800000Y-120190000D02*
X108190000Y-119800000D01*
X108190000Y-119800000D02*
X109500000Y-119800000D01*
%TO.N,Net-(U1-GPIO24)*%
D44*
X131300000Y-113200000D02*
X129200000Y-113200000D01*
X128600000Y-110240000D02*
X128000000Y-109640000D01*
X131990000Y-113890000D02*
X131990000Y-114000000D01*
X128600000Y-112600000D02*
X128600000Y-110240000D01*
X127000000Y-109640000D02*
X128000000Y-109640000D01*
X131300000Y-113200000D02*
X131990000Y-113890000D01*
X129200000Y-113200000D02*
X128600000Y-112600000D01*
%TD*%
%TA.AperFunction,Conductor*%
%TO.N,GND*%
G36*
X110486962Y-125527051D02*
G01*
X110540659Y-125536189D01*
X110579918Y-125573482D01*
X110581919Y-125576865D01*
X110612882Y-125607828D01*
X110640658Y-125662343D01*
X110631087Y-125722775D01*
X110587822Y-125766040D01*
X110555718Y-125772419D01*
X110550000Y-125777703D01*
X110550000Y-126050023D01*
X110536214Y-126100417D01*
X110498256Y-126164600D01*
X110452403Y-126322427D01*
X110452401Y-126322434D01*
X110449500Y-126359311D01*
X110449500Y-127515688D01*
X110452401Y-127552565D01*
X110452401Y-127552568D01*
X110452402Y-127552569D01*
X110490410Y-127683393D01*
X110498256Y-127710397D01*
X110498255Y-127710397D01*
X110498256Y-127710398D01*
X110536214Y-127774581D01*
X110550000Y-127824974D01*
X110550000Y-128097296D01*
X110565026Y-128111187D01*
X110577221Y-128114114D01*
X110616961Y-128160636D01*
X110624500Y-128198529D01*
X110624500Y-130949902D01*
X110605593Y-131008093D01*
X110595504Y-131019906D01*
X110519906Y-131095504D01*
X110465389Y-131123281D01*
X110449902Y-131124500D01*
X110020078Y-131124500D01*
X109961887Y-131105593D01*
X109925923Y-131056093D01*
X109925923Y-130994907D01*
X109928613Y-130987616D01*
X109944719Y-130948733D01*
X109951463Y-130932452D01*
X109974185Y-130818216D01*
X109974186Y-130818215D01*
X109974707Y-130815588D01*
X109975500Y-130811607D01*
X109975500Y-130688393D01*
X109975500Y-128198529D01*
X109994407Y-128140338D01*
X110036603Y-128109680D01*
X110050000Y-128097296D01*
X110050000Y-127824974D01*
X110063785Y-127774581D01*
X110101744Y-127710398D01*
X110147598Y-127552569D01*
X110150500Y-127515694D01*
X110150500Y-126359306D01*
X110147598Y-126322431D01*
X110101744Y-126164602D01*
X110082223Y-126131593D01*
X110063786Y-126100417D01*
X110050000Y-126050023D01*
X110050000Y-125777703D01*
X110043045Y-125771277D01*
X110005426Y-125762260D01*
X109965672Y-125715749D01*
X109960849Y-125654754D01*
X109987116Y-125607829D01*
X110018081Y-125576865D01*
X110020076Y-125573490D01*
X110065964Y-125533025D01*
X110113056Y-125526793D01*
X110113169Y-125525241D01*
X110116738Y-125525499D01*
X110116740Y-125525500D01*
X110116742Y-125525500D01*
X110483258Y-125525500D01*
X110483260Y-125525500D01*
X110483261Y-125525499D01*
X110486831Y-125525241D01*
X110486962Y-125527051D01*
G37*
%TD.AperFunction*%
%TA.AperFunction,Conductor*%
G36*
X105894390Y-100519407D02*
G01*
X105930354Y-100568907D01*
X105930354Y-100630093D01*
X105920460Y-100651472D01*
X105840643Y-100780875D01*
X105785493Y-100947306D01*
X105775000Y-101050012D01*
X105775000Y-101099999D01*
X105775001Y-101100000D01*
X108224998Y-101100000D01*
X108224999Y-101099999D01*
X108224999Y-101050013D01*
X108214507Y-100947312D01*
X108214504Y-100947300D01*
X108159356Y-100780875D01*
X108079540Y-100651472D01*
X108065084Y-100592019D01*
X108088334Y-100535424D01*
X108140410Y-100503303D01*
X108163801Y-100500500D01*
X118929051Y-100500500D01*
X118987242Y-100519407D01*
X119023206Y-100568907D01*
X119023206Y-100630093D01*
X118988381Y-100678753D01*
X118902812Y-100742810D01*
X118902807Y-100742815D01*
X118816647Y-100857909D01*
X118816646Y-100857911D01*
X118766403Y-100992618D01*
X118766401Y-100992629D01*
X118760000Y-101052175D01*
X118760000Y-101599999D01*
X118760001Y-101600000D01*
X119611000Y-101600000D01*
X119669191Y-101618907D01*
X119705155Y-101668407D01*
X119710000Y-101699000D01*
X119710000Y-101849999D01*
X119710001Y-101850000D01*
X119861000Y-101850000D01*
X119919191Y-101868907D01*
X119955155Y-101918407D01*
X119960000Y-101949000D01*
X119960000Y-103099999D01*
X119960001Y-103100000D01*
X120207824Y-103100000D01*
X120267370Y-103093598D01*
X120267381Y-103093596D01*
X120402088Y-103043353D01*
X120402090Y-103043352D01*
X120517184Y-102957192D01*
X120517192Y-102957184D01*
X120567359Y-102890171D01*
X120617368Y-102854918D01*
X120646612Y-102850500D01*
X121313388Y-102850500D01*
X121371579Y-102869407D01*
X121392641Y-102890171D01*
X121442807Y-102957184D01*
X121442815Y-102957192D01*
X121557909Y-103043352D01*
X121557911Y-103043353D01*
X121692618Y-103093596D01*
X121692629Y-103093598D01*
X121752176Y-103100000D01*
X121999999Y-103100000D01*
X122000000Y-103099999D01*
X122000000Y-102100001D01*
X122500000Y-102100001D01*
X122500000Y-103099999D01*
X122500001Y-103100000D01*
X122747824Y-103100000D01*
X122807370Y-103093598D01*
X122807381Y-103093596D01*
X122942088Y-103043353D01*
X122942090Y-103043352D01*
X123057184Y-102957192D01*
X123057192Y-102957184D01*
X123143352Y-102842090D01*
X123161969Y-102792175D01*
X125750000Y-102792175D01*
X125750000Y-103039999D01*
X125750001Y-103040000D01*
X126749999Y-103040000D01*
X126750000Y-103039999D01*
X126750000Y-102340001D01*
X127250000Y-102340001D01*
X127250000Y-103039999D01*
X127250001Y-103040000D01*
X128249999Y-103040000D01*
X128250000Y-103039999D01*
X128250000Y-102893709D01*
X131649500Y-102893709D01*
X131649500Y-103106290D01*
X131682752Y-103316238D01*
X131748443Y-103518412D01*
X131844948Y-103707815D01*
X131844950Y-103707819D01*
X131969891Y-103879786D01*
X131969893Y-103879788D01*
X131969896Y-103879792D01*
X132120208Y-104030104D01*
X132120211Y-104030106D01*
X132120213Y-104030108D01*
X132292180Y-104155049D01*
X132292184Y-104155051D01*
X132481588Y-104251557D01*
X132683757Y-104317246D01*
X132683758Y-104317246D01*
X132683761Y-104317247D01*
X132893710Y-104350500D01*
X132893713Y-104350500D01*
X133106290Y-104350500D01*
X133316238Y-104317247D01*
X133316239Y-104317246D01*
X133316243Y-104317246D01*
X133518412Y-104251557D01*
X133707816Y-104155051D01*
X133879792Y-104030104D01*
X134030104Y-103879792D01*
X134151370Y-103712883D01*
X134155049Y-103707819D01*
X134155051Y-103707816D01*
X134251557Y-103518412D01*
X134317246Y-103316243D01*
X134350500Y-103106287D01*
X134350500Y-102893713D01*
X134350500Y-102893709D01*
X134317247Y-102683761D01*
X134315328Y-102677855D01*
X134251557Y-102481588D01*
X134155051Y-102292184D01*
X134155049Y-102292180D01*
X134030108Y-102120213D01*
X134030106Y-102120211D01*
X134030104Y-102120208D01*
X133879792Y-101969896D01*
X133879788Y-101969893D01*
X133879786Y-101969891D01*
X133707819Y-101844950D01*
X133707815Y-101844948D01*
X133518412Y-101748443D01*
X133316238Y-101682752D01*
X133106290Y-101649500D01*
X133106287Y-101649500D01*
X132893713Y-101649500D01*
X132893710Y-101649500D01*
X132683761Y-101682752D01*
X132481587Y-101748443D01*
X132292184Y-101844948D01*
X132292180Y-101844950D01*
X132120213Y-101969891D01*
X131969891Y-102120213D01*
X131844950Y-102292180D01*
X131844948Y-102292184D01*
X131748443Y-102481587D01*
X131682752Y-102683761D01*
X131649500Y-102893709D01*
X128250000Y-102893709D01*
X128250000Y-102792175D01*
X128243598Y-102732629D01*
X128243596Y-102732618D01*
X128193353Y-102597911D01*
X128193352Y-102597909D01*
X128107192Y-102482815D01*
X128107184Y-102482807D01*
X127992090Y-102396647D01*
X127992088Y-102396646D01*
X127857381Y-102346403D01*
X127857370Y-102346401D01*
X127797824Y-102340000D01*
X127250001Y-102340000D01*
X127250000Y-102340001D01*
X126750000Y-102340001D01*
X126749999Y-102340000D01*
X126202176Y-102340000D01*
X126142629Y-102346401D01*
X126142618Y-102346403D01*
X126007911Y-102396646D01*
X126007909Y-102396647D01*
X125892815Y-102482807D01*
X125892807Y-102482815D01*
X125806647Y-102597909D01*
X125806646Y-102597911D01*
X125756403Y-102732618D01*
X125756401Y-102732629D01*
X125750000Y-102792175D01*
X123161969Y-102792175D01*
X123175853Y-102754950D01*
X123175863Y-102754925D01*
X123193597Y-102707374D01*
X123193598Y-102707370D01*
X123200000Y-102647824D01*
X123200000Y-102100001D01*
X123199999Y-102100000D01*
X122500001Y-102100000D01*
X122500000Y-102100001D01*
X122000000Y-102100001D01*
X122000000Y-101949000D01*
X122018907Y-101890809D01*
X122068407Y-101854845D01*
X122099000Y-101850000D01*
X122249999Y-101850000D01*
X122250000Y-101849999D01*
X122250000Y-101699000D01*
X122268907Y-101640809D01*
X122318407Y-101604845D01*
X122349000Y-101600000D01*
X123199999Y-101600000D01*
X123200000Y-101599999D01*
X123200000Y-101052175D01*
X123193598Y-100992629D01*
X123193596Y-100992618D01*
X123143353Y-100857911D01*
X123143352Y-100857909D01*
X123057192Y-100742815D01*
X123057187Y-100742810D01*
X122971619Y-100678753D01*
X122936367Y-100628744D01*
X122937241Y-100567565D01*
X122973909Y-100518584D01*
X123030949Y-100500500D01*
X134934107Y-100500500D01*
X134994444Y-100500500D01*
X135005512Y-100501121D01*
X135100073Y-100511775D01*
X135121669Y-100516705D01*
X135206202Y-100546283D01*
X135226168Y-100555899D01*
X135264079Y-100579720D01*
X135301987Y-100603540D01*
X135319319Y-100617361D01*
X135382638Y-100680680D01*
X135396459Y-100698012D01*
X135444098Y-100773828D01*
X135453717Y-100793801D01*
X135466487Y-100830296D01*
X135483293Y-100878326D01*
X135488225Y-100899938D01*
X135493563Y-100947312D01*
X135498669Y-100992629D01*
X135498877Y-100994470D01*
X135499500Y-101005555D01*
X135499500Y-124801000D01*
X135480593Y-124859191D01*
X135431093Y-124895155D01*
X135400500Y-124900000D01*
X134850001Y-124900000D01*
X134850000Y-124900001D01*
X134850000Y-125851000D01*
X134831093Y-125909191D01*
X134781593Y-125945155D01*
X134751000Y-125950000D01*
X134600001Y-125950000D01*
X134600000Y-125950001D01*
X134600000Y-126101000D01*
X134581093Y-126159191D01*
X134531593Y-126195155D01*
X134501000Y-126200000D01*
X133200001Y-126200000D01*
X133200000Y-126200001D01*
X133200000Y-126401000D01*
X133181093Y-126459191D01*
X133131593Y-126495155D01*
X133101000Y-126500000D01*
X132500000Y-126500000D01*
X132500000Y-129100000D01*
X133350500Y-129100000D01*
X133408691Y-129118907D01*
X133444655Y-129168407D01*
X133449500Y-129199000D01*
X133449500Y-129225500D01*
X133430593Y-129283691D01*
X133381093Y-129319655D01*
X133350500Y-129324500D01*
X129649500Y-129324500D01*
X129591309Y-129305593D01*
X129555345Y-129256093D01*
X129550500Y-129225500D01*
X129550500Y-129199000D01*
X129569407Y-129140809D01*
X129618907Y-129104845D01*
X129649500Y-129100000D01*
X130499999Y-129100000D01*
X130500000Y-129100000D01*
X130500000Y-126500000D01*
X130499999Y-126500000D01*
X129899000Y-126500000D01*
X129840809Y-126481093D01*
X129804845Y-126431593D01*
X129800000Y-126401000D01*
X129800000Y-126200001D01*
X129799999Y-126200000D01*
X128499000Y-126200000D01*
X128440809Y-126181093D01*
X128404845Y-126131593D01*
X128400000Y-126101000D01*
X128400000Y-125950001D01*
X128399999Y-125950000D01*
X128249000Y-125950000D01*
X128190809Y-125931093D01*
X128154845Y-125881593D01*
X128150000Y-125851000D01*
X128150000Y-124900001D01*
X128650000Y-124900001D01*
X128650000Y-125699999D01*
X128650001Y-125700000D01*
X129799999Y-125700000D01*
X129800000Y-125699999D01*
X129800000Y-125352175D01*
X133200000Y-125352175D01*
X133200000Y-125699999D01*
X133200001Y-125700000D01*
X134349999Y-125700000D01*
X134350000Y-125699999D01*
X134350000Y-124900001D01*
X134349999Y-124900000D01*
X133652176Y-124900000D01*
X133592629Y-124906401D01*
X133592618Y-124906403D01*
X133457911Y-124956646D01*
X133457909Y-124956647D01*
X133342815Y-125042807D01*
X133342807Y-125042815D01*
X133256647Y-125157909D01*
X133256646Y-125157911D01*
X133206403Y-125292618D01*
X133206401Y-125292629D01*
X133200000Y-125352175D01*
X129800000Y-125352175D01*
X129793598Y-125292629D01*
X129793596Y-125292618D01*
X129743353Y-125157911D01*
X129743352Y-125157909D01*
X129657192Y-125042815D01*
X129657184Y-125042807D01*
X129542090Y-124956647D01*
X129542088Y-124956646D01*
X129407381Y-124906403D01*
X129407370Y-124906401D01*
X129347824Y-124900000D01*
X128650001Y-124900000D01*
X128650000Y-124900001D01*
X128150000Y-124900001D01*
X128149999Y-124900000D01*
X127834689Y-124900000D01*
X127776498Y-124881093D01*
X127740534Y-124831593D01*
X127740534Y-124770407D01*
X127764685Y-124730996D01*
X127939773Y-124555908D01*
X128480469Y-124015212D01*
X128526613Y-123935288D01*
X128550499Y-123846143D01*
X128550499Y-123809427D01*
X128550499Y-122749500D01*
X128569406Y-122691309D01*
X128618906Y-122655345D01*
X128649499Y-122650500D01*
X130006142Y-122650500D01*
X130006144Y-122650500D01*
X130095288Y-122626614D01*
X130121530Y-122611463D01*
X130175212Y-122580470D01*
X130690470Y-122065212D01*
X130693238Y-122060416D01*
X130735497Y-122020970D01*
X130772102Y-122003076D01*
X130863076Y-121912102D01*
X130866050Y-121906017D01*
X130908594Y-121862045D01*
X130954990Y-121850500D01*
X130973034Y-121850500D01*
X131031225Y-121869407D01*
X131054604Y-121896781D01*
X131055561Y-121896087D01*
X131060139Y-121902388D01*
X131060141Y-121902391D01*
X131147609Y-121989859D01*
X131257825Y-122046017D01*
X131349265Y-122060500D01*
X131690734Y-122060499D01*
X131690735Y-122060499D01*
X131700080Y-122059018D01*
X131757168Y-122049977D01*
X131817597Y-122059548D01*
X131842656Y-122077754D01*
X131944622Y-122179719D01*
X131944624Y-122179720D01*
X132083802Y-122262030D01*
X132229999Y-122304504D01*
X132230000Y-122304504D01*
X132230000Y-121750001D01*
X132730000Y-121750001D01*
X132730000Y-122304504D01*
X132876197Y-122262030D01*
X132876198Y-122262030D01*
X133015374Y-122179721D01*
X133129721Y-122065374D01*
X133212030Y-121926198D01*
X133212030Y-121926197D01*
X133257144Y-121770912D01*
X133258791Y-121750000D01*
X132730001Y-121750000D01*
X132730000Y-121750001D01*
X132230000Y-121750001D01*
X132230000Y-121249999D01*
X132730000Y-121249999D01*
X132730001Y-121250000D01*
X133258789Y-121250000D01*
X133257144Y-121229087D01*
X133257143Y-121229079D01*
X133212030Y-121073802D01*
X133212030Y-121073801D01*
X133129721Y-120934625D01*
X133015374Y-120820278D01*
X132876198Y-120737969D01*
X132876194Y-120737968D01*
X132730000Y-120695494D01*
X132730000Y-121249999D01*
X132230000Y-121249999D01*
X132230000Y-120695494D01*
X132083805Y-120737968D01*
X132083801Y-120737969D01*
X131944624Y-120820279D01*
X131944622Y-120820280D01*
X131842657Y-120922245D01*
X131788141Y-120950022D01*
X131757167Y-120950022D01*
X131740389Y-120947364D01*
X131722830Y-120944583D01*
X131668314Y-120916804D01*
X131640538Y-120862286D01*
X131650112Y-120801854D01*
X131685130Y-120764959D01*
X131684713Y-120764416D01*
X131688146Y-120761781D01*
X131688830Y-120761060D01*
X131689862Y-120760465D01*
X131850827Y-120599500D01*
X131920832Y-120529496D01*
X131975348Y-120501719D01*
X131990835Y-120500500D01*
X132055890Y-120500500D01*
X132055892Y-120500500D01*
X132183186Y-120466392D01*
X132183188Y-120466390D01*
X132183190Y-120466390D01*
X132297309Y-120400503D01*
X132297309Y-120400502D01*
X132297314Y-120400500D01*
X132390500Y-120307314D01*
X132409346Y-120274672D01*
X132456390Y-120193190D01*
X132456390Y-120193188D01*
X132456392Y-120193186D01*
X132490500Y-120065892D01*
X132490500Y-119934108D01*
X132456392Y-119806814D01*
X132456390Y-119806811D01*
X132456390Y-119806809D01*
X132390503Y-119692690D01*
X132390499Y-119692684D01*
X132344496Y-119646681D01*
X132316719Y-119592164D01*
X132315500Y-119576678D01*
X132315500Y-119509976D01*
X132334407Y-119451785D01*
X132344496Y-119439973D01*
X132350761Y-119433708D01*
X132398280Y-119386188D01*
X132452794Y-119358412D01*
X132513226Y-119367983D01*
X132551288Y-119406044D01*
X132552157Y-119405425D01*
X132555871Y-119410627D01*
X132556491Y-119411247D01*
X132556902Y-119412072D01*
X132556922Y-119412099D01*
X132556923Y-119412100D01*
X132556924Y-119412102D01*
X132647898Y-119503076D01*
X132763482Y-119559582D01*
X132838418Y-119570500D01*
X132838421Y-119570500D01*
X133181578Y-119570500D01*
X133181582Y-119570500D01*
X133256518Y-119559582D01*
X133372102Y-119503076D01*
X133463076Y-119412102D01*
X133519582Y-119296518D01*
X133530500Y-119221582D01*
X133530500Y-118778418D01*
X133519582Y-118703482D01*
X133463076Y-118587898D01*
X133389493Y-118514315D01*
X133361718Y-118459801D01*
X133360499Y-118444314D01*
X133360499Y-117824500D01*
X133379406Y-117766309D01*
X133428906Y-117730345D01*
X133459499Y-117725500D01*
X133551126Y-117725500D01*
X133551130Y-117725500D01*
X133607022Y-117719491D01*
X133657918Y-117700508D01*
X133733448Y-117672337D01*
X133733448Y-117672336D01*
X133733450Y-117672336D01*
X133841472Y-117591472D01*
X133922336Y-117483450D01*
X133969491Y-117357022D01*
X133975500Y-117301130D01*
X133975500Y-116698870D01*
X133969491Y-116642978D01*
X133969489Y-116642972D01*
X133922337Y-116516551D01*
X133870271Y-116446999D01*
X133841472Y-116408528D01*
X133801749Y-116378792D01*
X133733448Y-116327662D01*
X133607027Y-116280510D01*
X133607022Y-116280509D01*
X133607020Y-116280508D01*
X133607016Y-116280508D01*
X133581744Y-116277791D01*
X133551130Y-116274500D01*
X133023870Y-116274500D01*
X132996943Y-116277394D01*
X132967983Y-116280508D01*
X132967972Y-116280510D01*
X132841551Y-116327662D01*
X132733531Y-116408525D01*
X132733524Y-116408532D01*
X132730458Y-116412628D01*
X132680446Y-116447877D01*
X132619267Y-116446999D01*
X132570289Y-116410327D01*
X132566948Y-116405265D01*
X132498889Y-116294924D01*
X132380077Y-116176112D01*
X132237075Y-116087907D01*
X132077580Y-116035056D01*
X131979151Y-116025000D01*
X131962501Y-116025000D01*
X131962500Y-116025001D01*
X131962500Y-117974998D01*
X131962501Y-117974999D01*
X131979150Y-117974999D01*
X132077574Y-117964944D01*
X132077586Y-117964941D01*
X132237075Y-117912092D01*
X132380077Y-117823887D01*
X132490495Y-117713470D01*
X132545012Y-117685693D01*
X132605444Y-117695264D01*
X132648709Y-117738529D01*
X132659499Y-117783474D01*
X132659499Y-118444316D01*
X132640592Y-118502507D01*
X132630508Y-118514313D01*
X132556924Y-118587898D01*
X132556922Y-118587900D01*
X132552157Y-118594575D01*
X132550983Y-118593737D01*
X132514677Y-118631262D01*
X132454411Y-118641829D01*
X132399444Y-118614956D01*
X132398336Y-118613867D01*
X132320404Y-118535935D01*
X132320402Y-118535934D01*
X132320401Y-118535933D01*
X132213175Y-118485932D01*
X132180601Y-118481644D01*
X132164316Y-118479500D01*
X131815684Y-118479500D01*
X131799398Y-118481644D01*
X131766825Y-118485932D01*
X131766824Y-118485932D01*
X131659598Y-118535933D01*
X131575933Y-118619598D01*
X131525932Y-118726824D01*
X131525932Y-118726825D01*
X131525932Y-118726827D01*
X131519500Y-118775684D01*
X131519500Y-119224316D01*
X131522110Y-119244139D01*
X131525932Y-119273174D01*
X131525932Y-119273175D01*
X131575933Y-119380401D01*
X131575934Y-119380402D01*
X131575935Y-119380404D01*
X131635505Y-119439974D01*
X131663281Y-119494489D01*
X131664500Y-119509976D01*
X131664500Y-119576678D01*
X131645593Y-119634869D01*
X131635504Y-119646681D01*
X131589500Y-119692684D01*
X131589496Y-119692690D01*
X131523609Y-119806809D01*
X131489500Y-119934109D01*
X131489500Y-119999165D01*
X131470593Y-120057356D01*
X131460504Y-120069169D01*
X131384169Y-120145504D01*
X131329652Y-120173281D01*
X131314165Y-120174500D01*
X130032853Y-120174500D01*
X129947147Y-120174500D01*
X129908755Y-120184787D01*
X129864356Y-120196683D01*
X129790142Y-120239531D01*
X129129531Y-120900142D01*
X129086683Y-120974356D01*
X129080923Y-120995853D01*
X129055301Y-121040229D01*
X128975935Y-121119595D01*
X128975933Y-121119598D01*
X128925932Y-121226824D01*
X128925932Y-121226825D01*
X128925634Y-121229087D01*
X128919500Y-121275684D01*
X128919500Y-121724316D01*
X128925932Y-121773173D01*
X128942481Y-121808662D01*
X128949937Y-121869390D01*
X128920274Y-121922904D01*
X128864821Y-121948762D01*
X128852756Y-121949500D01*
X128649500Y-121949500D01*
X128591309Y-121930593D01*
X128555345Y-121881093D01*
X128550500Y-121850500D01*
X128550500Y-120353857D01*
X128550500Y-120353856D01*
X128526614Y-120264712D01*
X128512078Y-120239535D01*
X128480470Y-120184788D01*
X128286501Y-119990819D01*
X128029496Y-119733813D01*
X128001719Y-119679297D01*
X128000500Y-119663810D01*
X128000500Y-119325327D01*
X128000498Y-119325315D01*
X127997015Y-119307808D01*
X127985966Y-119252260D01*
X127964411Y-119220000D01*
X127947803Y-119161114D01*
X127964412Y-119109998D01*
X127979455Y-119087484D01*
X127985966Y-119077740D01*
X128000500Y-119004674D01*
X128000500Y-118055326D01*
X127999972Y-118052674D01*
X127992792Y-118016575D01*
X127985966Y-117982260D01*
X127964411Y-117950000D01*
X127947803Y-117891114D01*
X127964412Y-117839998D01*
X127985966Y-117807740D01*
X128000500Y-117734674D01*
X128000500Y-117709500D01*
X128019407Y-117651309D01*
X128068907Y-117615345D01*
X128099500Y-117610500D01*
X129730967Y-117610500D01*
X129789158Y-117629407D01*
X129800970Y-117639496D01*
X129861983Y-117700508D01*
X129861988Y-117700512D01*
X129987510Y-117772982D01*
X129987511Y-117772982D01*
X129987514Y-117772984D01*
X130127524Y-117810500D01*
X130127525Y-117810500D01*
X130272473Y-117810500D01*
X130272474Y-117810500D01*
X130412484Y-117772984D01*
X130412486Y-117772982D01*
X130412488Y-117772982D01*
X130538009Y-117700512D01*
X130538009Y-117700511D01*
X130538014Y-117700509D01*
X130640508Y-117598015D01*
X130663891Y-117557513D01*
X130709359Y-117516574D01*
X130770209Y-117510177D01*
X130823197Y-117540769D01*
X130834293Y-117557528D01*
X130834880Y-117557167D01*
X130926112Y-117705077D01*
X131044922Y-117823887D01*
X131187924Y-117912092D01*
X131347419Y-117964943D01*
X131445849Y-117974999D01*
X131462499Y-117974999D01*
X131462500Y-117974998D01*
X131462500Y-116025000D01*
X131445862Y-116025000D01*
X131445855Y-116025001D01*
X131347424Y-116035055D01*
X131347413Y-116035058D01*
X131187924Y-116087907D01*
X131044922Y-116176112D01*
X130926112Y-116294922D01*
X130837907Y-116437924D01*
X130785056Y-116597419D01*
X130775000Y-116695849D01*
X130775000Y-116817470D01*
X130756093Y-116875661D01*
X130706593Y-116911625D01*
X130645407Y-116911625D01*
X130605998Y-116887475D01*
X130538014Y-116819491D01*
X130538011Y-116819489D01*
X130538009Y-116819487D01*
X130412487Y-116747017D01*
X130412488Y-116747017D01*
X130382895Y-116739087D01*
X130272474Y-116709500D01*
X130127524Y-116709500D01*
X130065789Y-116726041D01*
X129987509Y-116747017D01*
X129861988Y-116819487D01*
X129861983Y-116819491D01*
X129800970Y-116880504D01*
X129746453Y-116908281D01*
X129730967Y-116909500D01*
X128099500Y-116909500D01*
X128041309Y-116890593D01*
X128005345Y-116841093D01*
X128000500Y-116810500D01*
X128000500Y-116785327D01*
X128000498Y-116785315D01*
X127992880Y-116747017D01*
X127985966Y-116712260D01*
X127964411Y-116680000D01*
X127947803Y-116621114D01*
X127964412Y-116569998D01*
X127985966Y-116537740D01*
X128000500Y-116464674D01*
X128000500Y-115515326D01*
X127985966Y-115442260D01*
X127964411Y-115410000D01*
X127947803Y-115351114D01*
X127964412Y-115299998D01*
X127985966Y-115267740D01*
X128000500Y-115194674D01*
X128000500Y-114245326D01*
X127999972Y-114242674D01*
X127995776Y-114221578D01*
X127985966Y-114172260D01*
X127964411Y-114140000D01*
X127947803Y-114081114D01*
X127964412Y-114029998D01*
X127985966Y-113997740D01*
X128000500Y-113924674D01*
X128000500Y-112975326D01*
X127998767Y-112966616D01*
X127988638Y-112915693D01*
X127985966Y-112902260D01*
X127964411Y-112870000D01*
X127947803Y-112811114D01*
X127964412Y-112759998D01*
X127985966Y-112727740D01*
X128000500Y-112654674D01*
X128000500Y-111705326D01*
X127999216Y-111698873D01*
X127995856Y-111681980D01*
X127985966Y-111632260D01*
X127964411Y-111600000D01*
X127947803Y-111541114D01*
X127964412Y-111489998D01*
X127985966Y-111457740D01*
X128000500Y-111384674D01*
X128000500Y-110435326D01*
X128000499Y-110435320D01*
X128000499Y-110435318D01*
X127994230Y-110403805D01*
X127989891Y-110381992D01*
X127997081Y-110321233D01*
X128038613Y-110276302D01*
X128098622Y-110264364D01*
X128154188Y-110289979D01*
X128156992Y-110292674D01*
X128220504Y-110356186D01*
X128248281Y-110410703D01*
X128249500Y-110426190D01*
X128249500Y-112646144D01*
X128254122Y-112663395D01*
X128269152Y-112719489D01*
X128273385Y-112735288D01*
X128273387Y-112735291D01*
X128319528Y-112815209D01*
X128319530Y-112815212D01*
X128984788Y-113480470D01*
X129064712Y-113526614D01*
X129153856Y-113550500D01*
X131113811Y-113550500D01*
X131172002Y-113569407D01*
X131183814Y-113579496D01*
X131440503Y-113836184D01*
X131468281Y-113890701D01*
X131469500Y-113906188D01*
X131469500Y-114221582D01*
X131480418Y-114296518D01*
X131536924Y-114412102D01*
X131627898Y-114503076D01*
X131743482Y-114559582D01*
X131818418Y-114570500D01*
X131818421Y-114570500D01*
X132161578Y-114570500D01*
X132161582Y-114570500D01*
X132236518Y-114559582D01*
X132352102Y-114503076D01*
X132429998Y-114425179D01*
X132484513Y-114397404D01*
X132544945Y-114406975D01*
X132570000Y-114425178D01*
X132647898Y-114503076D01*
X132763482Y-114559582D01*
X132838418Y-114570500D01*
X132838421Y-114570500D01*
X133181578Y-114570500D01*
X133181582Y-114570500D01*
X133256518Y-114559582D01*
X133372102Y-114503076D01*
X133463076Y-114412102D01*
X133519582Y-114296518D01*
X133530500Y-114221582D01*
X133530500Y-113778418D01*
X133519582Y-113703482D01*
X133463076Y-113587898D01*
X133389493Y-113514315D01*
X133361718Y-113459801D01*
X133360499Y-113444314D01*
X133360499Y-112824500D01*
X133379406Y-112766309D01*
X133428906Y-112730345D01*
X133459499Y-112725500D01*
X133551126Y-112725500D01*
X133551130Y-112725500D01*
X133607022Y-112719491D01*
X133663229Y-112698527D01*
X133733448Y-112672337D01*
X133733448Y-112672336D01*
X133733450Y-112672336D01*
X133841472Y-112591472D01*
X133922336Y-112483450D01*
X133969491Y-112357022D01*
X133975500Y-112301130D01*
X133975500Y-111698870D01*
X133969491Y-111642978D01*
X133965495Y-111632263D01*
X133922337Y-111516551D01*
X133870271Y-111446999D01*
X133841472Y-111408528D01*
X133837113Y-111405265D01*
X133733448Y-111327662D01*
X133607027Y-111280510D01*
X133607022Y-111280509D01*
X133607020Y-111280508D01*
X133607016Y-111280508D01*
X133581744Y-111277791D01*
X133551130Y-111274500D01*
X133023870Y-111274500D01*
X132996943Y-111277394D01*
X132967983Y-111280508D01*
X132967972Y-111280510D01*
X132841551Y-111327662D01*
X132733531Y-111408525D01*
X132733524Y-111408532D01*
X132730458Y-111412628D01*
X132680446Y-111447877D01*
X132619267Y-111446999D01*
X132570289Y-111410327D01*
X132566948Y-111405265D01*
X132498889Y-111294924D01*
X132380077Y-111176112D01*
X132237075Y-111087907D01*
X132077580Y-111035056D01*
X131979151Y-111025000D01*
X131962501Y-111025000D01*
X131962500Y-111025001D01*
X131962500Y-112974998D01*
X131962501Y-112974999D01*
X131979150Y-112974999D01*
X132077574Y-112964944D01*
X132077586Y-112964941D01*
X132237075Y-112912092D01*
X132380077Y-112823887D01*
X132490495Y-112713470D01*
X132545012Y-112685693D01*
X132605444Y-112695264D01*
X132648709Y-112738529D01*
X132659499Y-112783474D01*
X132659499Y-113444316D01*
X132640592Y-113502507D01*
X132630508Y-113514313D01*
X132570001Y-113574820D01*
X132515487Y-113602596D01*
X132455055Y-113593025D01*
X132429999Y-113574821D01*
X132352102Y-113496924D01*
X132236518Y-113440418D01*
X132161582Y-113429500D01*
X132161579Y-113429500D01*
X132066189Y-113429500D01*
X132007998Y-113410593D01*
X131996185Y-113400503D01*
X131515212Y-112919529D01*
X131511994Y-112917671D01*
X131510213Y-112915693D01*
X131510067Y-112915581D01*
X131510087Y-112915553D01*
X131471056Y-112872198D01*
X131462500Y-112831938D01*
X131462500Y-112250001D01*
X131462499Y-112250000D01*
X130775002Y-112250000D01*
X130775001Y-112250001D01*
X130775001Y-112304150D01*
X130785055Y-112402574D01*
X130785058Y-112402586D01*
X130837907Y-112562075D01*
X130922072Y-112698527D01*
X130936528Y-112757980D01*
X130913278Y-112814576D01*
X130861202Y-112846697D01*
X130837811Y-112849500D01*
X129386190Y-112849500D01*
X129327999Y-112830593D01*
X129316186Y-112820504D01*
X128979496Y-112483814D01*
X128951719Y-112429297D01*
X128950500Y-112413810D01*
X128950500Y-111695848D01*
X130775000Y-111695848D01*
X130775000Y-111749999D01*
X130775001Y-111750000D01*
X131462499Y-111750000D01*
X131462500Y-111749999D01*
X131462500Y-111025000D01*
X131445862Y-111025000D01*
X131445855Y-111025001D01*
X131347424Y-111035055D01*
X131347413Y-111035058D01*
X131187924Y-111087907D01*
X131044922Y-111176112D01*
X130926112Y-111294922D01*
X130837907Y-111437924D01*
X130785056Y-111597419D01*
X130775000Y-111695848D01*
X128950500Y-111695848D01*
X128950500Y-110193857D01*
X128950500Y-110193856D01*
X128926614Y-110104712D01*
X128880470Y-110024788D01*
X128215212Y-109359530D01*
X128135288Y-109313386D01*
X128135283Y-109313384D01*
X128135280Y-109313383D01*
X128131371Y-109312336D01*
X128131369Y-109312334D01*
X128131369Y-109312336D01*
X128073877Y-109296931D01*
X128022562Y-109263607D01*
X128000636Y-109206485D01*
X128000500Y-109201304D01*
X128000500Y-109165327D01*
X128000498Y-109165315D01*
X127991583Y-109120499D01*
X127985966Y-109092260D01*
X127964411Y-109060000D01*
X127947803Y-109001114D01*
X127964412Y-108949998D01*
X127975652Y-108933176D01*
X127985966Y-108917740D01*
X128000500Y-108844674D01*
X128000500Y-108819500D01*
X128019407Y-108761309D01*
X128068907Y-108725345D01*
X128099500Y-108720500D01*
X130278662Y-108720500D01*
X130336853Y-108739407D01*
X130360976Y-108764497D01*
X130417049Y-108848416D01*
X130521584Y-108952951D01*
X130644505Y-109035084D01*
X130781087Y-109091658D01*
X130926082Y-109120500D01*
X130926083Y-109120500D01*
X131073917Y-109120500D01*
X131073918Y-109120500D01*
X131218913Y-109091658D01*
X131355495Y-109035084D01*
X131478416Y-108952951D01*
X131582951Y-108848416D01*
X131665084Y-108725495D01*
X131721658Y-108588913D01*
X131750500Y-108443918D01*
X131750500Y-108296082D01*
X131721658Y-108151087D01*
X131665084Y-108014505D01*
X131582951Y-107891584D01*
X131478416Y-107787049D01*
X131355495Y-107704916D01*
X131335619Y-107696683D01*
X131218914Y-107648342D01*
X131073918Y-107619500D01*
X130926082Y-107619500D01*
X130926081Y-107619500D01*
X130781085Y-107648342D01*
X130644506Y-107704915D01*
X130521585Y-107787048D01*
X130417048Y-107891585D01*
X130360977Y-107975502D01*
X130312927Y-108013381D01*
X130278662Y-108019500D01*
X128099500Y-108019500D01*
X128041309Y-108000593D01*
X128005345Y-107951093D01*
X128000500Y-107920500D01*
X128000500Y-107895327D01*
X128000498Y-107895315D01*
X127997015Y-107877808D01*
X127985966Y-107822260D01*
X127964411Y-107790000D01*
X127947803Y-107731114D01*
X127964412Y-107679998D01*
X127970759Y-107670500D01*
X127985966Y-107647740D01*
X127985965Y-107647740D01*
X127991384Y-107639632D01*
X127993006Y-107640715D01*
X128024714Y-107603582D01*
X128084208Y-107589292D01*
X128119266Y-107602053D01*
X128120528Y-107599473D01*
X128127897Y-107603075D01*
X128127898Y-107603076D01*
X128243482Y-107659582D01*
X128318418Y-107670500D01*
X128318421Y-107670500D01*
X128661578Y-107670500D01*
X128661582Y-107670500D01*
X128736518Y-107659582D01*
X128852102Y-107603076D01*
X128929998Y-107525179D01*
X128984513Y-107497404D01*
X129044945Y-107506975D01*
X129070000Y-107525178D01*
X129147898Y-107603076D01*
X129263482Y-107659582D01*
X129338418Y-107670500D01*
X129338421Y-107670500D01*
X129681578Y-107670500D01*
X129681582Y-107670500D01*
X129756518Y-107659582D01*
X129872102Y-107603076D01*
X129963076Y-107512102D01*
X130019582Y-107396518D01*
X130030500Y-107321582D01*
X130030500Y-107116187D01*
X130049407Y-107057996D01*
X130059490Y-107046190D01*
X130302154Y-106803525D01*
X130356669Y-106775749D01*
X130417101Y-106785320D01*
X130442156Y-106803523D01*
X130521584Y-106882951D01*
X130644505Y-106965084D01*
X130781087Y-107021658D01*
X130926082Y-107050500D01*
X130926083Y-107050500D01*
X131073917Y-107050500D01*
X131073918Y-107050500D01*
X131218913Y-107021658D01*
X131355495Y-106965084D01*
X131478416Y-106882951D01*
X131582951Y-106778416D01*
X131665084Y-106655495D01*
X131721658Y-106518913D01*
X131750500Y-106373918D01*
X131750500Y-106226082D01*
X131721658Y-106081087D01*
X131665084Y-105944505D01*
X131582951Y-105821584D01*
X131478416Y-105717049D01*
X131355495Y-105634916D01*
X131355493Y-105634915D01*
X131218914Y-105578342D01*
X131073918Y-105549500D01*
X130926082Y-105549500D01*
X130926081Y-105549500D01*
X130781085Y-105578342D01*
X130644506Y-105634915D01*
X130521585Y-105717048D01*
X130417048Y-105821585D01*
X130360977Y-105905502D01*
X130312927Y-105943381D01*
X130278662Y-105949500D01*
X130263856Y-105949500D01*
X130174712Y-105973386D01*
X130174711Y-105973386D01*
X130174709Y-105973387D01*
X130158698Y-105982631D01*
X130155312Y-105984587D01*
X130094788Y-106019530D01*
X130094785Y-106019532D01*
X129613812Y-106500504D01*
X129559296Y-106528281D01*
X129543809Y-106529500D01*
X129338418Y-106529500D01*
X129263482Y-106540418D01*
X129147899Y-106596923D01*
X129147898Y-106596923D01*
X129147898Y-106596924D01*
X129070001Y-106674820D01*
X129015487Y-106702596D01*
X128955055Y-106693025D01*
X128929999Y-106674821D01*
X128852102Y-106596924D01*
X128736518Y-106540418D01*
X128661582Y-106529500D01*
X128318418Y-106529500D01*
X128243482Y-106540418D01*
X128120528Y-106600527D01*
X128118971Y-106597342D01*
X128075495Y-106611006D01*
X128017490Y-106591538D01*
X127992552Y-106559587D01*
X127991384Y-106560368D01*
X127973710Y-106533918D01*
X127964411Y-106520000D01*
X127947803Y-106461114D01*
X127964412Y-106409998D01*
X127985966Y-106377740D01*
X128000500Y-106304674D01*
X128000500Y-105355326D01*
X127985966Y-105282260D01*
X127964411Y-105250000D01*
X127947803Y-105191114D01*
X127964412Y-105139998D01*
X127985966Y-105107740D01*
X128000500Y-105034674D01*
X128000500Y-104226611D01*
X128019407Y-104168420D01*
X128040172Y-104147357D01*
X128107185Y-104097191D01*
X128107192Y-104097184D01*
X128193352Y-103982090D01*
X128193353Y-103982088D01*
X128243596Y-103847381D01*
X128243598Y-103847370D01*
X128250000Y-103787824D01*
X128250000Y-103540001D01*
X128249999Y-103540000D01*
X125750001Y-103540000D01*
X125750000Y-103540001D01*
X125750000Y-103787824D01*
X125749999Y-103787824D01*
X125756401Y-103847370D01*
X125756403Y-103847381D01*
X125806646Y-103982088D01*
X125806647Y-103982090D01*
X125892807Y-104097184D01*
X125892814Y-104097191D01*
X125959828Y-104147357D01*
X125995082Y-104197366D01*
X125999500Y-104226611D01*
X125999500Y-105034672D01*
X125999501Y-105034684D01*
X126014033Y-105107736D01*
X126014036Y-105107745D01*
X126035588Y-105140000D01*
X126052196Y-105198888D01*
X126035588Y-105250000D01*
X126014036Y-105282254D01*
X126014033Y-105282263D01*
X125999501Y-105355315D01*
X125999500Y-105355327D01*
X125999500Y-106304672D01*
X125999501Y-106304684D01*
X126014033Y-106377736D01*
X126014036Y-106377745D01*
X126035588Y-106410000D01*
X126052196Y-106468888D01*
X126035588Y-106520000D01*
X126014036Y-106552254D01*
X126014033Y-106552263D01*
X125999501Y-106625315D01*
X125999500Y-106625327D01*
X125999500Y-107574672D01*
X125999501Y-107574684D01*
X126014033Y-107647736D01*
X126014036Y-107647745D01*
X126035588Y-107680000D01*
X126052196Y-107738888D01*
X126035588Y-107790000D01*
X126014036Y-107822254D01*
X126014033Y-107822263D01*
X125999501Y-107895315D01*
X125999500Y-107895327D01*
X125999500Y-108844672D01*
X125999501Y-108844684D01*
X126014033Y-108917736D01*
X126014036Y-108917745D01*
X126035588Y-108950000D01*
X126052196Y-109008888D01*
X126035588Y-109060000D01*
X126014036Y-109092254D01*
X126014033Y-109092263D01*
X125999501Y-109165315D01*
X125999500Y-109165327D01*
X125999500Y-110114672D01*
X125999501Y-110114684D01*
X126014033Y-110187736D01*
X126014036Y-110187745D01*
X126035588Y-110220000D01*
X126052196Y-110278888D01*
X126035588Y-110330000D01*
X126014036Y-110362254D01*
X126014033Y-110362263D01*
X125999501Y-110435315D01*
X125999500Y-110435327D01*
X125999500Y-111384672D01*
X125999501Y-111384684D01*
X126014033Y-111457736D01*
X126014036Y-111457745D01*
X126035588Y-111490000D01*
X126052196Y-111548888D01*
X126035588Y-111600000D01*
X126014036Y-111632254D01*
X126014033Y-111632263D01*
X125999501Y-111705315D01*
X125999500Y-111705327D01*
X125999500Y-112654672D01*
X125999501Y-112654684D01*
X126014033Y-112727736D01*
X126014036Y-112727745D01*
X126035588Y-112760000D01*
X126052196Y-112818888D01*
X126035588Y-112870000D01*
X126014036Y-112902254D01*
X126014033Y-112902263D01*
X125999501Y-112975315D01*
X125999500Y-112975327D01*
X125999500Y-113924672D01*
X125999501Y-113924684D01*
X126014033Y-113997736D01*
X126014036Y-113997745D01*
X126035588Y-114030000D01*
X126052196Y-114088888D01*
X126035588Y-114140000D01*
X126014036Y-114172254D01*
X126014033Y-114172263D01*
X125999501Y-114245315D01*
X125999500Y-114245327D01*
X125999500Y-115194672D01*
X125999501Y-115194684D01*
X126014033Y-115267736D01*
X126014036Y-115267745D01*
X126035588Y-115300000D01*
X126052196Y-115358888D01*
X126035588Y-115410000D01*
X126014036Y-115442254D01*
X126014033Y-115442263D01*
X125999501Y-115515315D01*
X125999500Y-115515327D01*
X125999500Y-116464672D01*
X125999501Y-116464684D01*
X126014033Y-116537736D01*
X126014036Y-116537745D01*
X126035588Y-116570000D01*
X126052196Y-116628888D01*
X126035588Y-116680000D01*
X126014036Y-116712254D01*
X126014033Y-116712263D01*
X125999501Y-116785315D01*
X125999500Y-116785327D01*
X125999500Y-117734672D01*
X125999501Y-117734684D01*
X126014033Y-117807736D01*
X126014036Y-117807745D01*
X126035588Y-117840000D01*
X126052196Y-117898888D01*
X126035588Y-117950000D01*
X126014036Y-117982254D01*
X126014033Y-117982263D01*
X125999501Y-118055315D01*
X125999500Y-118055327D01*
X125999500Y-119004672D01*
X125999501Y-119004684D01*
X126014033Y-119077736D01*
X126014036Y-119077745D01*
X126035588Y-119110000D01*
X126052196Y-119168888D01*
X126035588Y-119220000D01*
X126014036Y-119252254D01*
X126014033Y-119252263D01*
X125999501Y-119325315D01*
X125999500Y-119325327D01*
X125999500Y-120274672D01*
X125999501Y-120274684D01*
X126014033Y-120347736D01*
X126014035Y-120347742D01*
X126069397Y-120430599D01*
X126069399Y-120430601D01*
X126152260Y-120485966D01*
X126200180Y-120495498D01*
X126225315Y-120500498D01*
X126225320Y-120500498D01*
X126225326Y-120500500D01*
X126225327Y-120500500D01*
X127750499Y-120500500D01*
X127808690Y-120519407D01*
X127844654Y-120568907D01*
X127849499Y-120599500D01*
X127849499Y-123613810D01*
X127830592Y-123672001D01*
X127820503Y-123683813D01*
X126919533Y-124584784D01*
X126919527Y-124584792D01*
X126910623Y-124600215D01*
X126907166Y-124606204D01*
X126906314Y-124607680D01*
X126873387Y-124664709D01*
X126873386Y-124664711D01*
X126873386Y-124664712D01*
X126849500Y-124753856D01*
X126849500Y-135446144D01*
X126873386Y-135535288D01*
X126919530Y-135615212D01*
X127220505Y-135916187D01*
X127248281Y-135970702D01*
X127249500Y-135986189D01*
X127249500Y-136924672D01*
X127249501Y-136924684D01*
X127264033Y-136997736D01*
X127264035Y-136997742D01*
X127319397Y-137080599D01*
X127319400Y-137080602D01*
X127378734Y-137120247D01*
X127416614Y-137168296D01*
X127419016Y-137229435D01*
X127385024Y-137280309D01*
X127374128Y-137287776D01*
X127234625Y-137370278D01*
X127194003Y-137410901D01*
X127139486Y-137438678D01*
X127079054Y-137429107D01*
X127035789Y-137385842D01*
X127024999Y-137340897D01*
X127024999Y-137250013D01*
X127014507Y-137147312D01*
X127014504Y-137147300D01*
X126959356Y-136980875D01*
X126867319Y-136831659D01*
X126743340Y-136707680D01*
X126594124Y-136615643D01*
X126427693Y-136560493D01*
X126324987Y-136550000D01*
X126050001Y-136550000D01*
X126050000Y-136550001D01*
X126050000Y-138549998D01*
X126050001Y-138549999D01*
X126324986Y-138549999D01*
X126427687Y-138539507D01*
X126427699Y-138539504D01*
X126594124Y-138484356D01*
X126743341Y-138392318D01*
X126743344Y-138392316D01*
X126847896Y-138287764D01*
X126902413Y-138259986D01*
X126962845Y-138269557D01*
X127006109Y-138312822D01*
X127012969Y-138330147D01*
X127037969Y-138416197D01*
X127037969Y-138416198D01*
X127120278Y-138555374D01*
X127234624Y-138669720D01*
X127245165Y-138675954D01*
X127285628Y-138721850D01*
X127292924Y-138774090D01*
X127289500Y-138800097D01*
X127289500Y-139159895D01*
X127289501Y-139159907D01*
X127296027Y-139209486D01*
X127296027Y-139209488D01*
X127346774Y-139318313D01*
X127346775Y-139318314D01*
X127346776Y-139318316D01*
X127420505Y-139392045D01*
X127448281Y-139446560D01*
X127449500Y-139462047D01*
X127449500Y-139501678D01*
X127430593Y-139559869D01*
X127420505Y-139571680D01*
X127399501Y-139592684D01*
X127399496Y-139592690D01*
X127333609Y-139706809D01*
X127320891Y-139754274D01*
X127299500Y-139834108D01*
X127299500Y-139965892D01*
X127314448Y-140021680D01*
X127333609Y-140093190D01*
X127399496Y-140207309D01*
X127399498Y-140207311D01*
X127399500Y-140207314D01*
X127492686Y-140300500D01*
X127492688Y-140300501D01*
X127492690Y-140300503D01*
X127606810Y-140366390D01*
X127606808Y-140366390D01*
X127606812Y-140366391D01*
X127606814Y-140366392D01*
X127734108Y-140400500D01*
X127734110Y-140400500D01*
X127865890Y-140400500D01*
X127865892Y-140400500D01*
X127993186Y-140366392D01*
X127993188Y-140366390D01*
X127993190Y-140366390D01*
X128107309Y-140300503D01*
X128107309Y-140300502D01*
X128107314Y-140300500D01*
X128200500Y-140207314D01*
X128233757Y-140149711D01*
X128266390Y-140093190D01*
X128266390Y-140093188D01*
X128266392Y-140093186D01*
X128300500Y-139965892D01*
X128300500Y-139834108D01*
X128266392Y-139706814D01*
X128266390Y-139706811D01*
X128266390Y-139706809D01*
X128200503Y-139592690D01*
X128200498Y-139592684D01*
X128179495Y-139571680D01*
X128151719Y-139517163D01*
X128150500Y-139501678D01*
X128150500Y-139462047D01*
X128169407Y-139403856D01*
X128179490Y-139392049D01*
X128253224Y-139318316D01*
X128303972Y-139209487D01*
X128310500Y-139159901D01*
X128310499Y-138800100D01*
X128307075Y-138774087D01*
X128318226Y-138713928D01*
X128354836Y-138675953D01*
X128365375Y-138669720D01*
X128479721Y-138555374D01*
X128562030Y-138416198D01*
X128562030Y-138416197D01*
X128604504Y-138270000D01*
X127899000Y-138270000D01*
X127840809Y-138251093D01*
X127804845Y-138201593D01*
X127800000Y-138171000D01*
X127800000Y-137869000D01*
X127818907Y-137810809D01*
X127868407Y-137774845D01*
X127899000Y-137770000D01*
X128604504Y-137770000D01*
X128604504Y-137769999D01*
X128562030Y-137623802D01*
X128562030Y-137623801D01*
X128479721Y-137484625D01*
X128365374Y-137370278D01*
X128305237Y-137334713D01*
X128264774Y-137288817D01*
X128259016Y-137227904D01*
X128290162Y-137175239D01*
X128346316Y-137150939D01*
X128355632Y-137150500D01*
X129324673Y-137150500D01*
X129324674Y-137150500D01*
X129397740Y-137135966D01*
X129480601Y-137080601D01*
X129535966Y-136997740D01*
X129550500Y-136924674D01*
X129550500Y-136824500D01*
X129569407Y-136766309D01*
X129618907Y-136730345D01*
X129649500Y-136725500D01*
X133350500Y-136725500D01*
X133408691Y-136744407D01*
X133444655Y-136793907D01*
X133449500Y-136824500D01*
X133449500Y-136924672D01*
X133449501Y-136924684D01*
X133464033Y-136997736D01*
X133464035Y-136997742D01*
X133519397Y-137080599D01*
X133519400Y-137080602D01*
X133602257Y-137135964D01*
X133602260Y-137135966D01*
X133657808Y-137147015D01*
X133675315Y-137150498D01*
X133675320Y-137150498D01*
X133675326Y-137150500D01*
X135400500Y-137150500D01*
X135458691Y-137169407D01*
X135494655Y-137218907D01*
X135499500Y-137249500D01*
X135499500Y-152994443D01*
X135498877Y-153005528D01*
X135488225Y-153100063D01*
X135483293Y-153121673D01*
X135477161Y-153139197D01*
X135453717Y-153206194D01*
X135444099Y-153226166D01*
X135396459Y-153301985D01*
X135382637Y-153319318D01*
X135319318Y-153382637D01*
X135301985Y-153396459D01*
X135226166Y-153444099D01*
X135206194Y-153453717D01*
X135148113Y-153474041D01*
X135121674Y-153483292D01*
X135100063Y-153488225D01*
X135005528Y-153498877D01*
X134994443Y-153499500D01*
X127408746Y-153499500D01*
X127350555Y-153480593D01*
X127314591Y-153431093D01*
X127314591Y-153369907D01*
X127338742Y-153330496D01*
X127417685Y-153251552D01*
X127501280Y-153110201D01*
X127501280Y-153110200D01*
X127547100Y-152952489D01*
X127550000Y-152915636D01*
X127550000Y-152400001D01*
X127549999Y-152400000D01*
X126849000Y-152400000D01*
X126790809Y-152381093D01*
X126754845Y-152331593D01*
X126750000Y-152301000D01*
X126750000Y-152150001D01*
X126749999Y-152150000D01*
X126599000Y-152150000D01*
X126540809Y-152131093D01*
X126504845Y-152081593D01*
X126500000Y-152051000D01*
X126500000Y-151899999D01*
X127000000Y-151899999D01*
X127000001Y-151900000D01*
X127549999Y-151900000D01*
X127550000Y-151899999D01*
X127550000Y-151384363D01*
X127547100Y-151347510D01*
X127501280Y-151189799D01*
X127501280Y-151189798D01*
X127417685Y-151048447D01*
X127301552Y-150932314D01*
X127236275Y-150893709D01*
X131649500Y-150893709D01*
X131649500Y-151106290D01*
X131682752Y-151316238D01*
X131748443Y-151518412D01*
X131844948Y-151707815D01*
X131844950Y-151707819D01*
X131969891Y-151879786D01*
X131969893Y-151879788D01*
X131969896Y-151879792D01*
X132120208Y-152030104D01*
X132120211Y-152030106D01*
X132120213Y-152030108D01*
X132292180Y-152155049D01*
X132292184Y-152155051D01*
X132481588Y-152251557D01*
X132683757Y-152317246D01*
X132683758Y-152317246D01*
X132683761Y-152317247D01*
X132893710Y-152350500D01*
X132893713Y-152350500D01*
X133106290Y-152350500D01*
X133316238Y-152317247D01*
X133316239Y-152317246D01*
X133316243Y-152317246D01*
X133518412Y-152251557D01*
X133707816Y-152155051D01*
X133715457Y-152149500D01*
X133808923Y-152081593D01*
X133879792Y-152030104D01*
X134030104Y-151879792D01*
X134155051Y-151707816D01*
X134251557Y-151518412D01*
X134317246Y-151316243D01*
X134325103Y-151266635D01*
X134350500Y-151106290D01*
X134350500Y-150893709D01*
X134317247Y-150683761D01*
X134317246Y-150683757D01*
X134251557Y-150481588D01*
X134155051Y-150292184D01*
X134155049Y-150292180D01*
X134030108Y-150120213D01*
X134030106Y-150120211D01*
X134030104Y-150120208D01*
X133879792Y-149969896D01*
X133879788Y-149969893D01*
X133879786Y-149969891D01*
X133707819Y-149844950D01*
X133707815Y-149844948D01*
X133518412Y-149748443D01*
X133316238Y-149682752D01*
X133106290Y-149649500D01*
X133106287Y-149649500D01*
X132893713Y-149649500D01*
X132893710Y-149649500D01*
X132683761Y-149682752D01*
X132481587Y-149748443D01*
X132292184Y-149844948D01*
X132292180Y-149844950D01*
X132120213Y-149969891D01*
X131969891Y-150120213D01*
X131844950Y-150292180D01*
X131844948Y-150292184D01*
X131748443Y-150481587D01*
X131682752Y-150683761D01*
X131649500Y-150893709D01*
X127236275Y-150893709D01*
X127160201Y-150848719D01*
X127160202Y-150848719D01*
X127002491Y-150802900D01*
X127000000Y-150802702D01*
X127000000Y-151899999D01*
X126500000Y-151899999D01*
X126500000Y-150802703D01*
X126499999Y-150802702D01*
X126497508Y-150802900D01*
X126339798Y-150848719D01*
X126198447Y-150932314D01*
X126082315Y-151048446D01*
X126047883Y-151106667D01*
X126001986Y-151147129D01*
X125941073Y-151152886D01*
X125892668Y-151126276D01*
X125888342Y-151121950D01*
X125888339Y-151121948D01*
X125882832Y-151116441D01*
X125884515Y-151114757D01*
X125855344Y-151074601D01*
X125850500Y-151044013D01*
X125850500Y-149050001D01*
X127600001Y-149050001D01*
X127600001Y-149999986D01*
X127610492Y-150102687D01*
X127610495Y-150102699D01*
X127665643Y-150269124D01*
X127757680Y-150418340D01*
X127881659Y-150542319D01*
X128030875Y-150634356D01*
X128197306Y-150689506D01*
X128300013Y-150699999D01*
X128350000Y-150699998D01*
X128350000Y-149050001D01*
X128850000Y-149050001D01*
X128850000Y-150699998D01*
X128850001Y-150699999D01*
X128899986Y-150699999D01*
X129002687Y-150689507D01*
X129002699Y-150689504D01*
X129169124Y-150634356D01*
X129318340Y-150542319D01*
X129442319Y-150418340D01*
X129534356Y-150269124D01*
X129589506Y-150102693D01*
X129600000Y-149999987D01*
X129600000Y-149050001D01*
X129599999Y-149050000D01*
X128850001Y-149050000D01*
X128850000Y-149050001D01*
X128350000Y-149050001D01*
X128349999Y-149050000D01*
X127600002Y-149050000D01*
X127600001Y-149050001D01*
X125850500Y-149050001D01*
X125850500Y-147600012D01*
X127600000Y-147600012D01*
X127600000Y-148549999D01*
X127600001Y-148550000D01*
X128349999Y-148550000D01*
X128350000Y-148549999D01*
X128350000Y-146900001D01*
X128850000Y-146900001D01*
X128850000Y-148549999D01*
X128850001Y-148550000D01*
X129599998Y-148550000D01*
X129599999Y-148549999D01*
X129599999Y-147600013D01*
X129589507Y-147497312D01*
X129589504Y-147497300D01*
X129534356Y-147330875D01*
X129442319Y-147181659D01*
X129318340Y-147057680D01*
X129169124Y-146965643D01*
X129002693Y-146910493D01*
X128899987Y-146900000D01*
X128850001Y-146900000D01*
X128850000Y-146900001D01*
X128350000Y-146900001D01*
X128350000Y-146899999D01*
X128300015Y-146900000D01*
X128300012Y-146900001D01*
X128197312Y-146910492D01*
X128197300Y-146910495D01*
X128030875Y-146965643D01*
X127881659Y-147057680D01*
X127757680Y-147181659D01*
X127665643Y-147330875D01*
X127610493Y-147497306D01*
X127600000Y-147600012D01*
X125850500Y-147600012D01*
X125850500Y-146786190D01*
X125869407Y-146727999D01*
X125879496Y-146716186D01*
X126616186Y-145979496D01*
X126670703Y-145951719D01*
X126686190Y-145950500D01*
X126813667Y-145950500D01*
X126855506Y-145959776D01*
X126929452Y-145994258D01*
X126929453Y-145994258D01*
X126929455Y-145994259D01*
X126976861Y-146000500D01*
X127453138Y-146000499D01*
X127500545Y-145994259D01*
X127558161Y-145967391D01*
X127618889Y-145959935D01*
X127641836Y-145967390D01*
X127699455Y-145994259D01*
X127746861Y-146000500D01*
X128223138Y-146000499D01*
X128270545Y-145994259D01*
X128344494Y-145959775D01*
X128386333Y-145950500D01*
X130630968Y-145950500D01*
X130689159Y-145969407D01*
X130700971Y-145979496D01*
X130761984Y-146040508D01*
X130761989Y-146040512D01*
X130887511Y-146112982D01*
X130887512Y-146112982D01*
X130887515Y-146112984D01*
X131027525Y-146150500D01*
X131027526Y-146150500D01*
X131172474Y-146150500D01*
X131172475Y-146150500D01*
X131312485Y-146112984D01*
X131312487Y-146112982D01*
X131312489Y-146112982D01*
X131438010Y-146040512D01*
X131438010Y-146040511D01*
X131438015Y-146040509D01*
X131540509Y-145938015D01*
X131540512Y-145938010D01*
X131612982Y-145812489D01*
X131612982Y-145812487D01*
X131612984Y-145812485D01*
X131650500Y-145672475D01*
X131650500Y-145527525D01*
X131612984Y-145387515D01*
X131612982Y-145387512D01*
X131612982Y-145387510D01*
X131540512Y-145261989D01*
X131540510Y-145261987D01*
X131540509Y-145261985D01*
X131438015Y-145159491D01*
X131438012Y-145159489D01*
X131438010Y-145159487D01*
X131312488Y-145087017D01*
X131312489Y-145087017D01*
X131282896Y-145079087D01*
X131172475Y-145049500D01*
X131027525Y-145049500D01*
X131011265Y-145053857D01*
X130887510Y-145087017D01*
X130761989Y-145159487D01*
X130761984Y-145159491D01*
X130700971Y-145220504D01*
X130646454Y-145248281D01*
X130630968Y-145249500D01*
X128386333Y-145249500D01*
X128344494Y-145240224D01*
X128270547Y-145205741D01*
X128238941Y-145201580D01*
X128223139Y-145199500D01*
X128223138Y-145199500D01*
X128084000Y-145199500D01*
X128025809Y-145180593D01*
X127989845Y-145131093D01*
X127985000Y-145100500D01*
X127985000Y-145049000D01*
X128003907Y-144990809D01*
X128053407Y-144954845D01*
X128084000Y-144950000D01*
X128755088Y-144950000D01*
X128755088Y-144949999D01*
X128744353Y-144868461D01*
X128745398Y-144868323D01*
X128745398Y-144831676D01*
X128744353Y-144831539D01*
X128755088Y-144750000D01*
X128084000Y-144750000D01*
X128025809Y-144731093D01*
X127989845Y-144681593D01*
X127985000Y-144651000D01*
X127985000Y-144599499D01*
X128003907Y-144541308D01*
X128053407Y-144505344D01*
X128083998Y-144500499D01*
X128223138Y-144500499D01*
X128270545Y-144494259D01*
X128344494Y-144459775D01*
X128386333Y-144450500D01*
X129730967Y-144450500D01*
X129789158Y-144469407D01*
X129800970Y-144479496D01*
X129861983Y-144540508D01*
X129861988Y-144540512D01*
X129987510Y-144612982D01*
X129987511Y-144612982D01*
X129987514Y-144612984D01*
X130127524Y-144650500D01*
X130127525Y-144650500D01*
X130272473Y-144650500D01*
X130272474Y-144650500D01*
X130412484Y-144612984D01*
X130412486Y-144612982D01*
X130412488Y-144612982D01*
X130538009Y-144540512D01*
X130538009Y-144540511D01*
X130538014Y-144540509D01*
X130640508Y-144438015D01*
X130697483Y-144339332D01*
X130712981Y-144312489D01*
X130712981Y-144312487D01*
X130712983Y-144312485D01*
X130750499Y-144172475D01*
X130750499Y-144027525D01*
X130712983Y-143887515D01*
X130712981Y-143887512D01*
X130712981Y-143887510D01*
X130640511Y-143761989D01*
X130640509Y-143761987D01*
X130640508Y-143761985D01*
X130538014Y-143659491D01*
X130538011Y-143659489D01*
X130538009Y-143659487D01*
X130412487Y-143587017D01*
X130412488Y-143587017D01*
X130309081Y-143559309D01*
X130272474Y-143549500D01*
X130127524Y-143549500D01*
X130090917Y-143559309D01*
X129987509Y-143587017D01*
X129861988Y-143659487D01*
X129861983Y-143659491D01*
X129800970Y-143720504D01*
X129746453Y-143748281D01*
X129730967Y-143749500D01*
X129285189Y-143749500D01*
X129226998Y-143730593D01*
X129191034Y-143681093D01*
X129191034Y-143619907D01*
X129215185Y-143580496D01*
X129216185Y-143579496D01*
X129270702Y-143551719D01*
X129286189Y-143550500D01*
X129372474Y-143550500D01*
X129372475Y-143550500D01*
X129512485Y-143512984D01*
X129512487Y-143512982D01*
X129512489Y-143512982D01*
X129638010Y-143440512D01*
X129638010Y-143440511D01*
X129638015Y-143440509D01*
X129740509Y-143338015D01*
X129751181Y-143319530D01*
X129812982Y-143212489D01*
X129812982Y-143212487D01*
X129812984Y-143212485D01*
X129850500Y-143072475D01*
X129850500Y-142927525D01*
X129812984Y-142787515D01*
X129812982Y-142787512D01*
X129812982Y-142787510D01*
X129740512Y-142661989D01*
X129740510Y-142661987D01*
X129740509Y-142661985D01*
X129638015Y-142559491D01*
X129638012Y-142559489D01*
X129638010Y-142559487D01*
X129512488Y-142487017D01*
X129512489Y-142487017D01*
X129408496Y-142459152D01*
X129372475Y-142449500D01*
X129227525Y-142449500D01*
X129191504Y-142459152D01*
X129087510Y-142487017D01*
X128961989Y-142559487D01*
X128859487Y-142661989D01*
X128787017Y-142787510D01*
X128749500Y-142927525D01*
X128749500Y-143013810D01*
X128730593Y-143072001D01*
X128720504Y-143083814D01*
X128583814Y-143220504D01*
X128529297Y-143248281D01*
X128513810Y-143249500D01*
X128386333Y-143249500D01*
X128344494Y-143240224D01*
X128270547Y-143205741D01*
X128244628Y-143202329D01*
X128223139Y-143199500D01*
X128223137Y-143199500D01*
X127746865Y-143199500D01*
X127746854Y-143199501D01*
X127699457Y-143205740D01*
X127641838Y-143232608D01*
X127581108Y-143240064D01*
X127558160Y-143232607D01*
X127500547Y-143205742D01*
X127500546Y-143205741D01*
X127484743Y-143203660D01*
X127453139Y-143199500D01*
X127453137Y-143199500D01*
X126976865Y-143199500D01*
X126976854Y-143199501D01*
X126929455Y-143205740D01*
X126876160Y-143230593D01*
X126855505Y-143240224D01*
X126813667Y-143249500D01*
X126527349Y-143249500D01*
X126469158Y-143230593D01*
X126433194Y-143181093D01*
X126433194Y-143119907D01*
X126448810Y-143090228D01*
X126450504Y-143088019D01*
X126450509Y-143088015D01*
X126452935Y-143083814D01*
X126522982Y-142962489D01*
X126522982Y-142962487D01*
X126522984Y-142962485D01*
X126560500Y-142822475D01*
X126560500Y-142677525D01*
X126522984Y-142537515D01*
X126522982Y-142537512D01*
X126522982Y-142537510D01*
X126450512Y-142411989D01*
X126450507Y-142411983D01*
X126426853Y-142388328D01*
X126399077Y-142333811D01*
X126408649Y-142273379D01*
X126426852Y-142248325D01*
X126463076Y-142212102D01*
X126519582Y-142096518D01*
X126530500Y-142021582D01*
X126530500Y-141578418D01*
X126519582Y-141503482D01*
X126463076Y-141387898D01*
X126372102Y-141296924D01*
X126256518Y-141240418D01*
X126181582Y-141229500D01*
X125838418Y-141229500D01*
X125763482Y-141240418D01*
X125647899Y-141296923D01*
X125647898Y-141296923D01*
X125647898Y-141296924D01*
X125570001Y-141374820D01*
X125515487Y-141402596D01*
X125455055Y-141393025D01*
X125429999Y-141374821D01*
X125352102Y-141296924D01*
X125236518Y-141240418D01*
X125161582Y-141229500D01*
X125161579Y-141229500D01*
X125124047Y-141229500D01*
X125065856Y-141210593D01*
X125029892Y-141161093D01*
X125028420Y-141104877D01*
X125050500Y-141022474D01*
X125050500Y-140877525D01*
X125043708Y-140852179D01*
X125012984Y-140737515D01*
X125012982Y-140737512D01*
X125012982Y-140737510D01*
X124940512Y-140611989D01*
X124940510Y-140611987D01*
X124940509Y-140611985D01*
X124838015Y-140509491D01*
X124838012Y-140509489D01*
X124838010Y-140509487D01*
X124712488Y-140437017D01*
X124712489Y-140437017D01*
X124633650Y-140415892D01*
X124572475Y-140399500D01*
X124427525Y-140399500D01*
X124366357Y-140415890D01*
X124287510Y-140437017D01*
X124161989Y-140509487D01*
X124059487Y-140611989D01*
X123987017Y-140737510D01*
X123949500Y-140877525D01*
X123949500Y-141022474D01*
X123971580Y-141104877D01*
X123968378Y-141165978D01*
X123929872Y-141213528D01*
X123875953Y-141229500D01*
X123838418Y-141229500D01*
X123763482Y-141240418D01*
X123647899Y-141296923D01*
X123556922Y-141387900D01*
X123552157Y-141394575D01*
X123550983Y-141393737D01*
X123514677Y-141431262D01*
X123454411Y-141441829D01*
X123399444Y-141414956D01*
X123398336Y-141413867D01*
X123320404Y-141335935D01*
X123320402Y-141335934D01*
X123320401Y-141335933D01*
X123282660Y-141318334D01*
X123237912Y-141276605D01*
X123225500Y-141228610D01*
X123225500Y-140947904D01*
X123244407Y-140889713D01*
X123293907Y-140853749D01*
X123299694Y-140852440D01*
X123299624Y-140852179D01*
X123305890Y-140850500D01*
X123305892Y-140850500D01*
X123433186Y-140816392D01*
X123433188Y-140816390D01*
X123433190Y-140816390D01*
X123547309Y-140750503D01*
X123547309Y-140750502D01*
X123547314Y-140750500D01*
X123640500Y-140657314D01*
X123658788Y-140625639D01*
X123706390Y-140543190D01*
X123706390Y-140543188D01*
X123706392Y-140543186D01*
X123740500Y-140415892D01*
X123740500Y-140284108D01*
X123706392Y-140156814D01*
X123706390Y-140156811D01*
X123706390Y-140156809D01*
X123640503Y-140042690D01*
X123640498Y-140042684D01*
X123619495Y-140021680D01*
X123591719Y-139967163D01*
X123590500Y-139951678D01*
X123590500Y-139660425D01*
X123609407Y-139602234D01*
X123634500Y-139578109D01*
X123705597Y-139530604D01*
X123705597Y-139530603D01*
X123705601Y-139530601D01*
X123760966Y-139447740D01*
X123775500Y-139374674D01*
X123775500Y-139169512D01*
X123776118Y-139167608D01*
X123775574Y-139165682D01*
X123782923Y-139145725D01*
X124874500Y-139145725D01*
X124874500Y-139754274D01*
X124877353Y-139784694D01*
X124877355Y-139784703D01*
X124922207Y-139912883D01*
X125002845Y-140022144D01*
X125002847Y-140022146D01*
X125002850Y-140022150D01*
X125002853Y-140022152D01*
X125002855Y-140022154D01*
X125112116Y-140102792D01*
X125112117Y-140102792D01*
X125112118Y-140102793D01*
X125240301Y-140147646D01*
X125262331Y-140149711D01*
X125318501Y-140173969D01*
X125349686Y-140226610D01*
X125343974Y-140287528D01*
X125338825Y-140297777D01*
X125333609Y-140306811D01*
X125333608Y-140306813D01*
X125333608Y-140306814D01*
X125299500Y-140434108D01*
X125299500Y-140565892D01*
X125311852Y-140611989D01*
X125333609Y-140693190D01*
X125399496Y-140807309D01*
X125399498Y-140807311D01*
X125399500Y-140807314D01*
X125492686Y-140900500D01*
X125492688Y-140900501D01*
X125492690Y-140900503D01*
X125606810Y-140966390D01*
X125606808Y-140966390D01*
X125606812Y-140966391D01*
X125606814Y-140966392D01*
X125734108Y-141000500D01*
X125734110Y-141000500D01*
X125865890Y-141000500D01*
X125865892Y-141000500D01*
X125993186Y-140966392D01*
X125993188Y-140966390D01*
X125993190Y-140966390D01*
X126107309Y-140900503D01*
X126107309Y-140900502D01*
X126107314Y-140900500D01*
X126200500Y-140807314D01*
X126200503Y-140807309D01*
X126266390Y-140693190D01*
X126266390Y-140693188D01*
X126266392Y-140693186D01*
X126300500Y-140565892D01*
X126300500Y-140434108D01*
X126266392Y-140306814D01*
X126262748Y-140300503D01*
X126261177Y-140297781D01*
X126248454Y-140237933D01*
X126273339Y-140182037D01*
X126326326Y-140151443D01*
X126337655Y-140149713D01*
X126359699Y-140147646D01*
X126487882Y-140102793D01*
X126597150Y-140022150D01*
X126677793Y-139912882D01*
X126722646Y-139784699D01*
X126725499Y-139754273D01*
X126725500Y-139754273D01*
X126725500Y-139145727D01*
X126725499Y-139145725D01*
X126722646Y-139115305D01*
X126722646Y-139115301D01*
X126677793Y-138987118D01*
X126668669Y-138974756D01*
X126597154Y-138877855D01*
X126597152Y-138877853D01*
X126597150Y-138877850D01*
X126597146Y-138877847D01*
X126597144Y-138877845D01*
X126487883Y-138797207D01*
X126359703Y-138752355D01*
X126359694Y-138752353D01*
X126329274Y-138749500D01*
X126329266Y-138749500D01*
X125270734Y-138749500D01*
X125270725Y-138749500D01*
X125240305Y-138752353D01*
X125240296Y-138752355D01*
X125112116Y-138797207D01*
X125002855Y-138877845D01*
X125002845Y-138877855D01*
X124922207Y-138987116D01*
X124877355Y-139115296D01*
X124877353Y-139115305D01*
X124874500Y-139145725D01*
X123782923Y-139145725D01*
X123785517Y-139138680D01*
X123794407Y-139111321D01*
X123796026Y-139110144D01*
X123796718Y-139108266D01*
X123817132Y-139094809D01*
X123843907Y-139075357D01*
X123847573Y-139074244D01*
X123848164Y-139074076D01*
X123925639Y-139053318D01*
X123989389Y-139016512D01*
X123999857Y-139010468D01*
X123999857Y-139010467D01*
X123999862Y-139010465D01*
X124260827Y-138749500D01*
X124380832Y-138629496D01*
X124435348Y-138601719D01*
X124450835Y-138600500D01*
X124459307Y-138600500D01*
X124459309Y-138600500D01*
X124573886Y-138569799D01*
X124573888Y-138569797D01*
X124573890Y-138569797D01*
X124676608Y-138510492D01*
X124676608Y-138510491D01*
X124676613Y-138510489D01*
X124760489Y-138426613D01*
X124760490Y-138426610D01*
X124763036Y-138424065D01*
X124817552Y-138396287D01*
X124877985Y-138405858D01*
X124885013Y-138409807D01*
X125005877Y-138484357D01*
X125172306Y-138539506D01*
X125275013Y-138549999D01*
X125549998Y-138549999D01*
X125550000Y-138549998D01*
X125550000Y-136550001D01*
X125549999Y-136550000D01*
X125275013Y-136550000D01*
X125172312Y-136560492D01*
X125172300Y-136560495D01*
X125005873Y-136615643D01*
X125001470Y-136618360D01*
X124942017Y-136632815D01*
X124885422Y-136609563D01*
X124853302Y-136557486D01*
X124850500Y-136534098D01*
X124850500Y-134840692D01*
X124847909Y-134831024D01*
X124819799Y-134726114D01*
X124819799Y-134726113D01*
X124819799Y-134726112D01*
X124760492Y-134623390D01*
X124760490Y-134623388D01*
X124760489Y-134623386D01*
X124076614Y-133939511D01*
X124076611Y-133939509D01*
X124076609Y-133939507D01*
X123973890Y-133880202D01*
X123973886Y-133880200D01*
X123949673Y-133873712D01*
X123949673Y-133873713D01*
X123859309Y-133849500D01*
X123859307Y-133849500D01*
X122436058Y-133849500D01*
X122377867Y-133830593D01*
X122353890Y-133802519D01*
X122353110Y-133803086D01*
X122348531Y-133796784D01*
X122348529Y-133796782D01*
X122348528Y-133796780D01*
X122254494Y-133702746D01*
X122226719Y-133648232D01*
X122225500Y-133632745D01*
X122225500Y-133115692D01*
X122224774Y-133112984D01*
X122194799Y-133001114D01*
X122194799Y-133001113D01*
X122194799Y-133001112D01*
X122135492Y-132898390D01*
X122135490Y-132898388D01*
X122135489Y-132898386D01*
X119976614Y-130739511D01*
X119976611Y-130739509D01*
X119976609Y-130739507D01*
X119889847Y-130689415D01*
X119848906Y-130643946D01*
X119841194Y-130616599D01*
X119835687Y-130574764D01*
X119777698Y-130434767D01*
X119685451Y-130314549D01*
X119565233Y-130222302D01*
X119565231Y-130222301D01*
X119514290Y-130201200D01*
X119467764Y-130161463D01*
X119453481Y-130101968D01*
X119476896Y-130045440D01*
X119528285Y-130013662D01*
X119578520Y-130001169D01*
X119749023Y-129916608D01*
X119749026Y-129916606D01*
X119897364Y-129797368D01*
X119897368Y-129797364D01*
X120016606Y-129649026D01*
X120016608Y-129649023D01*
X120101168Y-129478522D01*
X120147102Y-129293821D01*
X120149999Y-129251115D01*
X120150000Y-129251096D01*
X120150000Y-129050001D01*
X123450000Y-129050001D01*
X123450000Y-130258000D01*
X123460609Y-130377332D01*
X123516557Y-130572861D01*
X123610720Y-130753128D01*
X123739244Y-130910750D01*
X123739249Y-130910755D01*
X123896871Y-131039279D01*
X124077138Y-131133442D01*
X124272667Y-131189390D01*
X124392000Y-131200000D01*
X124699999Y-131200000D01*
X124700000Y-131199999D01*
X124700000Y-129050001D01*
X125200000Y-129050001D01*
X125200000Y-131199999D01*
X125200001Y-131200000D01*
X125508000Y-131200000D01*
X125627332Y-131189390D01*
X125822861Y-131133442D01*
X126003128Y-131039279D01*
X126160750Y-130910755D01*
X126160755Y-130910750D01*
X126289279Y-130753128D01*
X126383442Y-130572861D01*
X126439390Y-130377332D01*
X126450000Y-130258000D01*
X126450000Y-129050001D01*
X126449999Y-129050000D01*
X125200001Y-129050000D01*
X125200000Y-129050001D01*
X124700000Y-129050001D01*
X124699999Y-129050000D01*
X123450001Y-129050000D01*
X123450000Y-129050001D01*
X120150000Y-129050001D01*
X120149999Y-129050000D01*
X118749000Y-129050000D01*
X118690809Y-129031093D01*
X118654845Y-128981593D01*
X118650000Y-128951000D01*
X118650000Y-128649000D01*
X118668907Y-128590809D01*
X118718407Y-128554845D01*
X118749000Y-128550000D01*
X120149999Y-128550000D01*
X120150000Y-128549999D01*
X120150000Y-128348903D01*
X120149999Y-128348884D01*
X120147102Y-128306178D01*
X120147103Y-128306178D01*
X120101168Y-128121477D01*
X120016608Y-127950976D01*
X120016606Y-127950973D01*
X119897368Y-127802635D01*
X119897364Y-127802631D01*
X119749026Y-127683393D01*
X119749023Y-127683391D01*
X119578522Y-127598831D01*
X119528283Y-127586337D01*
X119476376Y-127553944D01*
X119453421Y-127497228D01*
X119468188Y-127437851D01*
X119514291Y-127398799D01*
X119516075Y-127398060D01*
X119565233Y-127377698D01*
X119611757Y-127341999D01*
X123450000Y-127341999D01*
X123450000Y-128549999D01*
X123450001Y-128550000D01*
X124699999Y-128550000D01*
X124700000Y-128549999D01*
X124700000Y-126400001D01*
X125200000Y-126400001D01*
X125200000Y-128549999D01*
X125200001Y-128550000D01*
X126449999Y-128550000D01*
X126450000Y-128549999D01*
X126450000Y-127341999D01*
X126439390Y-127222667D01*
X126383442Y-127027138D01*
X126289279Y-126846871D01*
X126160755Y-126689249D01*
X126160750Y-126689244D01*
X126003128Y-126560720D01*
X125822861Y-126466557D01*
X125627332Y-126410609D01*
X125508000Y-126400000D01*
X125200001Y-126400000D01*
X125200000Y-126400001D01*
X124700000Y-126400001D01*
X124699999Y-126400000D01*
X124392000Y-126400000D01*
X124272667Y-126410609D01*
X124077138Y-126466557D01*
X123896871Y-126560720D01*
X123739249Y-126689244D01*
X123739244Y-126689249D01*
X123610720Y-126846871D01*
X123516557Y-127027138D01*
X123460609Y-127222667D01*
X123450000Y-127341999D01*
X119611757Y-127341999D01*
X119685451Y-127285451D01*
X119777698Y-127165233D01*
X119835687Y-127025236D01*
X119850500Y-126912720D01*
X119850500Y-126087280D01*
X119835687Y-125974764D01*
X119777698Y-125834767D01*
X119685451Y-125714549D01*
X119565233Y-125622302D01*
X119425236Y-125564313D01*
X119425234Y-125564312D01*
X119425232Y-125564312D01*
X119312720Y-125549500D01*
X117987280Y-125549500D01*
X117987279Y-125549500D01*
X117874767Y-125564312D01*
X117874761Y-125564314D01*
X117734768Y-125622301D01*
X117614551Y-125714547D01*
X117614547Y-125714551D01*
X117522301Y-125834768D01*
X117464314Y-125974761D01*
X117464312Y-125974767D01*
X117449500Y-126087279D01*
X117449500Y-126212389D01*
X117430593Y-126270580D01*
X117420504Y-126282393D01*
X116832393Y-126870504D01*
X116777876Y-126898281D01*
X116762389Y-126899500D01*
X116536909Y-126899500D01*
X116478718Y-126880593D01*
X116457254Y-126859288D01*
X116397153Y-126777854D01*
X116397152Y-126777853D01*
X116397150Y-126777850D01*
X116397146Y-126777847D01*
X116397144Y-126777845D01*
X116287883Y-126697207D01*
X116159703Y-126652355D01*
X116159694Y-126652353D01*
X116129274Y-126649500D01*
X116129266Y-126649500D01*
X115070734Y-126649500D01*
X115070725Y-126649500D01*
X115040305Y-126652353D01*
X115040296Y-126652355D01*
X114912116Y-126697207D01*
X114802855Y-126777845D01*
X114802845Y-126777855D01*
X114722207Y-126887116D01*
X114677355Y-127015296D01*
X114677353Y-127015305D01*
X114674500Y-127045725D01*
X114674500Y-127654274D01*
X114677353Y-127684694D01*
X114677355Y-127684703D01*
X114722207Y-127812883D01*
X114802845Y-127922144D01*
X114802846Y-127922145D01*
X114802850Y-127922150D01*
X114802853Y-127922152D01*
X114802855Y-127922154D01*
X114912116Y-128002792D01*
X114912117Y-128002792D01*
X114912118Y-128002793D01*
X115040301Y-128047646D01*
X115070725Y-128050499D01*
X115070727Y-128050500D01*
X115070734Y-128050500D01*
X116129273Y-128050500D01*
X116129273Y-128050499D01*
X116159699Y-128047646D01*
X116287882Y-128002793D01*
X116397150Y-127922150D01*
X116438997Y-127865449D01*
X116457254Y-127840712D01*
X116507021Y-127805119D01*
X116536909Y-127800500D01*
X116590500Y-127800500D01*
X116648691Y-127819407D01*
X116684655Y-127868907D01*
X116689500Y-127899500D01*
X116689500Y-132549885D01*
X116670593Y-132608076D01*
X116623200Y-132643329D01*
X116612117Y-132647207D01*
X116612114Y-132647208D01*
X116502855Y-132727845D01*
X116502845Y-132727855D01*
X116422207Y-132837116D01*
X116377355Y-132965296D01*
X116377353Y-132965305D01*
X116374500Y-132995725D01*
X116374500Y-136004274D01*
X116377353Y-136034694D01*
X116377355Y-136034703D01*
X116422207Y-136162883D01*
X116502845Y-136272144D01*
X116502847Y-136272146D01*
X116502850Y-136272150D01*
X116502853Y-136272152D01*
X116502855Y-136272154D01*
X116612116Y-136352792D01*
X116612117Y-136352792D01*
X116612118Y-136352793D01*
X116740301Y-136397646D01*
X116770725Y-136400499D01*
X116770727Y-136400500D01*
X116770734Y-136400500D01*
X117504273Y-136400500D01*
X117504273Y-136400499D01*
X117534699Y-136397646D01*
X117662882Y-136352793D01*
X117772150Y-136272150D01*
X117852793Y-136162882D01*
X117897646Y-136034699D01*
X117900499Y-136004273D01*
X117900500Y-136004273D01*
X117900500Y-134550001D01*
X119275001Y-134550001D01*
X119275001Y-134598322D01*
X119285142Y-134697597D01*
X119285145Y-134697609D01*
X119338454Y-134858487D01*
X119427425Y-135002729D01*
X119547270Y-135122574D01*
X119691512Y-135211545D01*
X119852396Y-135264856D01*
X119951676Y-135274999D01*
X119975000Y-135274998D01*
X119975000Y-134550001D01*
X119974999Y-134550000D01*
X119275002Y-134550000D01*
X119275001Y-134550001D01*
X117900500Y-134550001D01*
X117900500Y-134001676D01*
X119275000Y-134001676D01*
X119275000Y-134049999D01*
X119275001Y-134050000D01*
X119974999Y-134050000D01*
X119975000Y-134049999D01*
X119975000Y-133325000D01*
X119974999Y-133324999D01*
X119951689Y-133325000D01*
X119951684Y-133325001D01*
X119852401Y-133335142D01*
X119852390Y-133335145D01*
X119691512Y-133388454D01*
X119547270Y-133477425D01*
X119427425Y-133597270D01*
X119338454Y-133741512D01*
X119285143Y-133902396D01*
X119275000Y-134001676D01*
X117900500Y-134001676D01*
X117900500Y-132995727D01*
X117900499Y-132995725D01*
X117897646Y-132965305D01*
X117897646Y-132965301D01*
X117852793Y-132837118D01*
X117848715Y-132831593D01*
X117772154Y-132727855D01*
X117772152Y-132727853D01*
X117772150Y-132727850D01*
X117772146Y-132727847D01*
X117772144Y-132727845D01*
X117662885Y-132647208D01*
X117662879Y-132647205D01*
X117656802Y-132645079D01*
X117608122Y-132608014D01*
X117590500Y-132551635D01*
X117590500Y-132065878D01*
X117609407Y-132007687D01*
X117658907Y-131971723D01*
X117720093Y-131971723D01*
X117728640Y-131975531D01*
X117728772Y-131975215D01*
X117734767Y-131977698D01*
X117874764Y-132035687D01*
X117987280Y-132050500D01*
X117987281Y-132050500D01*
X119312719Y-132050500D01*
X119312720Y-132050500D01*
X119425236Y-132035687D01*
X119565233Y-131977698D01*
X119685451Y-131885451D01*
X119687451Y-131882843D01*
X119689392Y-131881509D01*
X119690036Y-131880866D01*
X119690155Y-131880985D01*
X119737873Y-131848185D01*
X119799038Y-131849784D01*
X119836000Y-131873103D01*
X121295504Y-133332607D01*
X121323281Y-133387124D01*
X121324500Y-133402611D01*
X121324500Y-133632745D01*
X121305593Y-133690936D01*
X121295503Y-133702749D01*
X121255469Y-133742782D01*
X121200952Y-133770559D01*
X121140520Y-133760987D01*
X121101206Y-133724751D01*
X121022573Y-133597269D01*
X120902729Y-133477425D01*
X120758487Y-133388454D01*
X120597603Y-133335143D01*
X120498323Y-133325000D01*
X120475001Y-133325000D01*
X120475000Y-133325001D01*
X120475000Y-135274998D01*
X120475001Y-135274999D01*
X120498322Y-135274999D01*
X120597597Y-135264857D01*
X120597609Y-135264854D01*
X120758487Y-135211545D01*
X120902729Y-135122574D01*
X121022571Y-135002732D01*
X121101205Y-134875248D01*
X121147847Y-134835647D01*
X121208857Y-134831024D01*
X121255467Y-134857215D01*
X121296780Y-134898528D01*
X121296782Y-134898529D01*
X121416867Y-134959716D01*
X121416869Y-134959716D01*
X121416874Y-134959719D01*
X121492541Y-134971703D01*
X121516510Y-134975500D01*
X121516512Y-134975500D01*
X122033490Y-134975500D01*
X122054885Y-134972111D01*
X122133126Y-134959719D01*
X122253220Y-134898528D01*
X122348528Y-134803220D01*
X122348531Y-134803215D01*
X122353110Y-134796914D01*
X122354487Y-134797915D01*
X122391114Y-134761290D01*
X122436058Y-134750500D01*
X123572389Y-134750500D01*
X123630580Y-134769407D01*
X123642393Y-134779496D01*
X123920504Y-135057607D01*
X123948281Y-135112124D01*
X123949500Y-135127611D01*
X123949500Y-136668943D01*
X123930593Y-136727134D01*
X123881093Y-136763098D01*
X123819907Y-136763098D01*
X123770407Y-136727134D01*
X123754874Y-136694567D01*
X123752984Y-136687515D01*
X123752982Y-136687511D01*
X123680512Y-136561989D01*
X123680510Y-136561987D01*
X123680509Y-136561985D01*
X123578015Y-136459491D01*
X123578012Y-136459489D01*
X123578010Y-136459487D01*
X123452488Y-136387017D01*
X123452489Y-136387017D01*
X123422896Y-136379087D01*
X123312475Y-136349500D01*
X123167525Y-136349500D01*
X123105790Y-136366041D01*
X123027510Y-136387017D01*
X122901989Y-136459487D01*
X122799487Y-136561989D01*
X122727017Y-136687510D01*
X122706763Y-136763098D01*
X122689500Y-136827525D01*
X122689500Y-136972475D01*
X122712277Y-137057480D01*
X122727017Y-137112489D01*
X122799487Y-137238010D01*
X122799489Y-137238012D01*
X122799491Y-137238015D01*
X122802998Y-137241522D01*
X122830774Y-137296037D01*
X122821203Y-137356469D01*
X122788947Y-137393195D01*
X122782236Y-137397792D01*
X122712916Y-137467112D01*
X122658399Y-137494889D01*
X122597967Y-137485317D01*
X122554703Y-137442052D01*
X122550815Y-137433427D01*
X122528919Y-137377904D01*
X122449265Y-137272865D01*
X122001129Y-137721003D01*
X121946612Y-137748781D01*
X121931125Y-137750000D01*
X121588876Y-137750000D01*
X121530685Y-137731093D01*
X121518873Y-137721004D01*
X121070733Y-137272865D01*
X120991078Y-137377906D01*
X120946498Y-137490953D01*
X120907562Y-137538150D01*
X120848319Y-137553447D01*
X120804904Y-137540372D01*
X120793189Y-137533609D01*
X120793191Y-137533609D01*
X120665889Y-137499499D01*
X120659458Y-137498653D01*
X120659754Y-137496403D01*
X120611095Y-137480593D01*
X120575131Y-137431093D01*
X120570799Y-137410562D01*
X120564857Y-137352401D01*
X120564854Y-137352390D01*
X120511547Y-137191518D01*
X120511541Y-137191506D01*
X120463531Y-137113670D01*
X121335803Y-137113670D01*
X121759999Y-137537866D01*
X122184195Y-137113670D01*
X122176444Y-137110614D01*
X122176445Y-137110614D01*
X122088062Y-137100000D01*
X121431937Y-137100000D01*
X121343554Y-137110614D01*
X121335803Y-137113670D01*
X120463531Y-137113670D01*
X120422574Y-137047270D01*
X120302729Y-136927425D01*
X120158487Y-136838454D01*
X119997603Y-136785143D01*
X119898323Y-136775000D01*
X119850001Y-136775000D01*
X119850000Y-136775001D01*
X119850000Y-137626000D01*
X119831093Y-137684191D01*
X119781593Y-137720155D01*
X119751000Y-137725000D01*
X119600001Y-137725000D01*
X119600000Y-137725001D01*
X119600000Y-137876000D01*
X119581093Y-137934191D01*
X119531593Y-137970155D01*
X119501000Y-137975000D01*
X118747446Y-137975000D01*
X118689255Y-137956093D01*
X118664441Y-137928533D01*
X118664440Y-137928535D01*
X118664425Y-137928516D01*
X118661708Y-137925498D01*
X118660491Y-137923390D01*
X118660489Y-137923386D01*
X118188779Y-137451676D01*
X118625000Y-137451676D01*
X118625000Y-137474999D01*
X118625001Y-137475000D01*
X119349999Y-137475000D01*
X119350000Y-137474999D01*
X119350000Y-136774999D01*
X119301679Y-136775000D01*
X119301676Y-136775001D01*
X119202402Y-136785142D01*
X119202390Y-136785145D01*
X119041512Y-136838454D01*
X118897270Y-136927425D01*
X118777425Y-137047270D01*
X118688454Y-137191512D01*
X118635143Y-137352396D01*
X118625000Y-137451676D01*
X118188779Y-137451676D01*
X117976614Y-137239511D01*
X117976611Y-137239509D01*
X117976609Y-137239507D01*
X117873890Y-137180202D01*
X117873886Y-137180200D01*
X117849673Y-137173712D01*
X117849673Y-137173713D01*
X117759309Y-137149500D01*
X111930691Y-137149500D01*
X111925321Y-137150939D01*
X111840325Y-137173713D01*
X111840324Y-137173712D01*
X111816112Y-137180201D01*
X111816109Y-137180202D01*
X111713390Y-137239507D01*
X111029507Y-137923390D01*
X110970200Y-138026112D01*
X110970200Y-138026113D01*
X110970201Y-138026114D01*
X110939500Y-138140691D01*
X110939500Y-143559309D01*
X110966343Y-143659487D01*
X110970202Y-143673888D01*
X111001236Y-143727639D01*
X111014500Y-143777140D01*
X111014500Y-143926821D01*
X111006065Y-143966807D01*
X111002356Y-143975206D01*
X111002353Y-143975216D01*
X110999500Y-143999810D01*
X110999500Y-144300180D01*
X110999500Y-144300182D01*
X110999501Y-144300184D01*
X111002354Y-144324786D01*
X111006065Y-144333190D01*
X111014500Y-144373178D01*
X111014500Y-144576821D01*
X111006065Y-144616807D01*
X111002356Y-144625206D01*
X111002353Y-144625216D01*
X110999500Y-144649810D01*
X110999500Y-144950180D01*
X110999500Y-144950182D01*
X110999501Y-144950184D01*
X111002354Y-144974786D01*
X111006065Y-144983190D01*
X111014500Y-145023178D01*
X111014500Y-145226821D01*
X111006065Y-145266807D01*
X111002356Y-145275206D01*
X111002353Y-145275216D01*
X110999500Y-145299810D01*
X110999500Y-145600180D01*
X110999501Y-145600191D01*
X111002987Y-145630255D01*
X110990907Y-145690236D01*
X110990384Y-145691153D01*
X110970202Y-145726111D01*
X110970201Y-145726112D01*
X110939500Y-145840692D01*
X110939500Y-149082389D01*
X110920593Y-149140580D01*
X110910504Y-149152393D01*
X110139507Y-149923390D01*
X110080200Y-150026112D01*
X110080200Y-150026113D01*
X110080201Y-150026114D01*
X110054989Y-150120208D01*
X110049500Y-150140692D01*
X110049500Y-151050500D01*
X110030593Y-151108691D01*
X109981093Y-151144655D01*
X109950500Y-151149500D01*
X109606268Y-151149500D01*
X109562788Y-151139441D01*
X109527009Y-151121950D01*
X109501393Y-151109427D01*
X109433260Y-151099500D01*
X109066740Y-151099500D01*
X109032673Y-151104463D01*
X108998604Y-151109427D01*
X108893518Y-151160801D01*
X108810801Y-151243518D01*
X108759427Y-151348604D01*
X108754463Y-151382673D01*
X108749500Y-151416740D01*
X108749500Y-152883260D01*
X108754217Y-152915636D01*
X108759427Y-152951395D01*
X108810801Y-153056481D01*
X108810802Y-153056483D01*
X108893517Y-153139198D01*
X108947285Y-153165483D01*
X108998604Y-153190572D01*
X108998605Y-153190572D01*
X108998607Y-153190573D01*
X109066740Y-153200500D01*
X109066743Y-153200500D01*
X109433257Y-153200500D01*
X109433260Y-153200500D01*
X109501393Y-153190573D01*
X109606483Y-153139198D01*
X109689198Y-153056483D01*
X109740573Y-152951393D01*
X109750500Y-152883260D01*
X109750500Y-152149500D01*
X109769407Y-152091309D01*
X109818907Y-152055345D01*
X109849500Y-152050500D01*
X109900500Y-152050500D01*
X109958691Y-152069407D01*
X109994655Y-152118907D01*
X109999500Y-152149500D01*
X109999500Y-152883260D01*
X110004217Y-152915636D01*
X110009427Y-152951395D01*
X110060801Y-153056481D01*
X110060802Y-153056483D01*
X110143517Y-153139198D01*
X110197285Y-153165483D01*
X110248604Y-153190572D01*
X110248605Y-153190572D01*
X110248607Y-153190573D01*
X110316740Y-153200500D01*
X110316743Y-153200500D01*
X110683257Y-153200500D01*
X110683260Y-153200500D01*
X110751393Y-153190573D01*
X110856483Y-153139198D01*
X110866388Y-153129292D01*
X110920902Y-153101514D01*
X110981334Y-153111084D01*
X111021605Y-153148899D01*
X111082315Y-153251553D01*
X111161258Y-153330496D01*
X111189035Y-153385013D01*
X111179464Y-153445445D01*
X111136199Y-153488710D01*
X111091254Y-153499500D01*
X101005556Y-153499500D01*
X100994471Y-153498877D01*
X100899938Y-153488225D01*
X100878326Y-153483293D01*
X100793803Y-153453718D01*
X100773828Y-153444098D01*
X100698012Y-153396459D01*
X100680680Y-153382638D01*
X100617361Y-153319319D01*
X100603540Y-153301987D01*
X100579720Y-153264079D01*
X100555899Y-153226168D01*
X100546283Y-153206202D01*
X100516705Y-153121669D01*
X100511775Y-153100073D01*
X100501121Y-153005512D01*
X100500500Y-152994444D01*
X100500500Y-150893709D01*
X101649500Y-150893709D01*
X101649500Y-151106290D01*
X101682752Y-151316238D01*
X101748443Y-151518412D01*
X101844948Y-151707815D01*
X101844950Y-151707819D01*
X101969891Y-151879786D01*
X101969893Y-151879788D01*
X101969896Y-151879792D01*
X102120208Y-152030104D01*
X102120211Y-152030106D01*
X102120213Y-152030108D01*
X102292180Y-152155049D01*
X102292184Y-152155051D01*
X102481588Y-152251557D01*
X102683757Y-152317246D01*
X102683758Y-152317246D01*
X102683761Y-152317247D01*
X102893710Y-152350500D01*
X102893713Y-152350500D01*
X103106290Y-152350500D01*
X103316238Y-152317247D01*
X103316239Y-152317246D01*
X103316243Y-152317246D01*
X103518412Y-152251557D01*
X103707816Y-152155051D01*
X103715457Y-152149500D01*
X103808923Y-152081593D01*
X103879792Y-152030104D01*
X104030104Y-151879792D01*
X104155051Y-151707816D01*
X104251557Y-151518412D01*
X104317246Y-151316243D01*
X104325103Y-151266635D01*
X104350500Y-151106290D01*
X104350500Y-150893709D01*
X104317247Y-150683761D01*
X104317246Y-150683757D01*
X104251557Y-150481588D01*
X104155051Y-150292184D01*
X104155049Y-150292180D01*
X104030108Y-150120213D01*
X104030106Y-150120211D01*
X104030104Y-150120208D01*
X103879792Y-149969896D01*
X103879788Y-149969893D01*
X103879786Y-149969891D01*
X103707819Y-149844950D01*
X103707815Y-149844948D01*
X103518412Y-149748443D01*
X103316238Y-149682752D01*
X103106290Y-149649500D01*
X103106287Y-149649500D01*
X102893713Y-149649500D01*
X102893710Y-149649500D01*
X102683761Y-149682752D01*
X102481587Y-149748443D01*
X102292184Y-149844948D01*
X102292180Y-149844950D01*
X102120213Y-149969891D01*
X101969891Y-150120213D01*
X101844950Y-150292180D01*
X101844948Y-150292184D01*
X101748443Y-150481587D01*
X101682752Y-150683761D01*
X101649500Y-150893709D01*
X100500500Y-150893709D01*
X100500500Y-149050001D01*
X106400001Y-149050001D01*
X106400001Y-149999986D01*
X106410492Y-150102687D01*
X106410495Y-150102699D01*
X106465643Y-150269124D01*
X106557680Y-150418340D01*
X106681659Y-150542319D01*
X106830875Y-150634356D01*
X106997306Y-150689506D01*
X107100013Y-150699999D01*
X107150000Y-150699998D01*
X107150000Y-149050001D01*
X107650000Y-149050001D01*
X107650000Y-150699998D01*
X107650001Y-150699999D01*
X107699986Y-150699999D01*
X107802687Y-150689507D01*
X107802699Y-150689504D01*
X107969124Y-150634356D01*
X108118340Y-150542319D01*
X108242319Y-150418340D01*
X108334356Y-150269124D01*
X108389506Y-150102693D01*
X108400000Y-149999987D01*
X108400000Y-149050001D01*
X108399999Y-149050000D01*
X107650001Y-149050000D01*
X107650000Y-149050001D01*
X107150000Y-149050001D01*
X107149999Y-149050000D01*
X106400002Y-149050000D01*
X106400001Y-149050001D01*
X100500500Y-149050001D01*
X100500500Y-147600012D01*
X106400000Y-147600012D01*
X106400000Y-148549999D01*
X106400001Y-148550000D01*
X107149999Y-148550000D01*
X107150000Y-148549999D01*
X107150000Y-146900001D01*
X107650000Y-146900001D01*
X107650000Y-148549999D01*
X107650001Y-148550000D01*
X108399998Y-148550000D01*
X108399999Y-148549999D01*
X108399999Y-147600013D01*
X108389507Y-147497312D01*
X108389504Y-147497300D01*
X108334356Y-147330875D01*
X108242319Y-147181659D01*
X108118340Y-147057680D01*
X107969124Y-146965643D01*
X107802693Y-146910493D01*
X107699987Y-146900000D01*
X107650001Y-146900000D01*
X107650000Y-146900001D01*
X107150000Y-146900001D01*
X107150000Y-146899999D01*
X107100015Y-146900000D01*
X107100012Y-146900001D01*
X106997312Y-146910492D01*
X106997300Y-146910495D01*
X106830875Y-146965643D01*
X106681659Y-147057680D01*
X106557680Y-147181659D01*
X106465643Y-147330875D01*
X106410493Y-147497306D01*
X106400000Y-147600012D01*
X100500500Y-147600012D01*
X100500500Y-145637500D01*
X108930574Y-145637500D01*
X108940282Y-145711247D01*
X108940284Y-145711252D01*
X109000110Y-145855685D01*
X109095282Y-145979715D01*
X109095284Y-145979717D01*
X109219314Y-146074889D01*
X109363747Y-146134715D01*
X109363752Y-146134717D01*
X109424999Y-146142780D01*
X109425000Y-146142779D01*
X109425000Y-145637501D01*
X109800000Y-145637501D01*
X109800000Y-146142780D01*
X109861247Y-146134717D01*
X109861252Y-146134715D01*
X110005685Y-146074889D01*
X110129715Y-145979717D01*
X110129717Y-145979715D01*
X110224889Y-145855685D01*
X110284715Y-145711252D01*
X110284717Y-145711247D01*
X110294426Y-145637500D01*
X109800001Y-145637500D01*
X109800000Y-145637501D01*
X109425000Y-145637501D01*
X109424999Y-145637500D01*
X108930574Y-145637500D01*
X100500500Y-145637500D01*
X100500500Y-145262499D01*
X108930573Y-145262499D01*
X108930574Y-145262500D01*
X109424999Y-145262500D01*
X109425000Y-145262499D01*
X109425000Y-144987501D01*
X109800000Y-144987501D01*
X109800000Y-145262499D01*
X109800001Y-145262500D01*
X110294426Y-145262500D01*
X110294426Y-145262499D01*
X110284716Y-145188748D01*
X110274004Y-145162888D01*
X110269202Y-145101891D01*
X110274004Y-145087112D01*
X110284716Y-145061251D01*
X110294426Y-144987500D01*
X109800001Y-144987500D01*
X109800000Y-144987501D01*
X109425000Y-144987501D01*
X109424999Y-144987500D01*
X108933584Y-144987500D01*
X108956702Y-145106051D01*
X108950997Y-145162885D01*
X108940283Y-145188751D01*
X108940282Y-145188752D01*
X108930573Y-145262499D01*
X100500500Y-145262499D01*
X100500500Y-144612499D01*
X108930573Y-144612499D01*
X108930574Y-144612500D01*
X109424999Y-144612500D01*
X109425000Y-144612499D01*
X109425000Y-144337501D01*
X109800000Y-144337501D01*
X109800000Y-144612499D01*
X109800001Y-144612500D01*
X110294426Y-144612500D01*
X110294426Y-144612499D01*
X110284716Y-144538748D01*
X110274004Y-144512888D01*
X110269202Y-144451891D01*
X110274004Y-144437112D01*
X110284716Y-144411251D01*
X110294426Y-144337500D01*
X109800001Y-144337500D01*
X109800000Y-144337501D01*
X109425000Y-144337501D01*
X109424999Y-144337500D01*
X108933584Y-144337500D01*
X108956702Y-144456051D01*
X108950997Y-144512885D01*
X108940283Y-144538751D01*
X108940282Y-144538752D01*
X108930573Y-144612499D01*
X100500500Y-144612499D01*
X100500500Y-143962499D01*
X108930573Y-143962499D01*
X108930574Y-143962500D01*
X109424999Y-143962500D01*
X109425000Y-143962499D01*
X109800000Y-143962499D01*
X109800001Y-143962500D01*
X110294426Y-143962500D01*
X110294426Y-143962499D01*
X110284717Y-143888752D01*
X110284715Y-143888747D01*
X110224889Y-143744314D01*
X110129717Y-143620284D01*
X110129715Y-143620282D01*
X110005685Y-143525110D01*
X109861247Y-143465282D01*
X109861250Y-143465282D01*
X109800000Y-143457219D01*
X109800000Y-143962499D01*
X109425000Y-143962499D01*
X109425000Y-143457219D01*
X109363750Y-143465282D01*
X109219314Y-143525110D01*
X109095284Y-143620282D01*
X109095282Y-143620284D01*
X109000110Y-143744314D01*
X108940284Y-143888747D01*
X108940282Y-143888752D01*
X108930573Y-143962499D01*
X100500500Y-143962499D01*
X100500500Y-138650000D01*
X106720069Y-138650000D01*
X106722832Y-138685121D01*
X106722834Y-138685127D01*
X106767595Y-138839195D01*
X106767595Y-138839196D01*
X106849261Y-138977285D01*
X106962714Y-139090738D01*
X107100804Y-139172404D01*
X107239999Y-139212844D01*
X107240000Y-139212844D01*
X107240000Y-138650001D01*
X107239999Y-138650000D01*
X106720069Y-138650000D01*
X100500500Y-138650000D01*
X100500500Y-135222129D01*
X101604500Y-135222129D01*
X101604500Y-136997866D01*
X101604501Y-136997870D01*
X101610908Y-137057480D01*
X101610909Y-137057485D01*
X101661202Y-137192329D01*
X101727064Y-137280309D01*
X101747454Y-137307546D01*
X101747457Y-137307548D01*
X101747458Y-137307549D01*
X101862670Y-137393797D01*
X101997511Y-137444089D01*
X101997512Y-137444089D01*
X101997517Y-137444091D01*
X102057127Y-137450500D01*
X103652872Y-137450499D01*
X103712483Y-137444091D01*
X103802486Y-137410522D01*
X103847329Y-137393797D01*
X103847329Y-137393796D01*
X103847331Y-137393796D01*
X103962546Y-137307546D01*
X104048796Y-137192331D01*
X104049102Y-137191512D01*
X104084883Y-137095577D01*
X104099091Y-137057483D01*
X104105500Y-136997873D01*
X104105499Y-135222128D01*
X104099091Y-135162517D01*
X104086072Y-135127611D01*
X104048797Y-135027670D01*
X103962549Y-134912458D01*
X103962548Y-134912457D01*
X103962546Y-134912454D01*
X103943945Y-134898529D01*
X103847329Y-134826202D01*
X103712488Y-134775910D01*
X103712483Y-134775909D01*
X103712481Y-134775908D01*
X103712477Y-134775908D01*
X103681249Y-134772550D01*
X103652873Y-134769500D01*
X103652870Y-134769500D01*
X102057133Y-134769500D01*
X102057129Y-134769500D01*
X102057128Y-134769501D01*
X102049949Y-134770272D01*
X101997519Y-134775908D01*
X101997514Y-134775909D01*
X101862670Y-134826202D01*
X101747458Y-134912450D01*
X101747450Y-134912458D01*
X101661202Y-135027670D01*
X101610910Y-135162511D01*
X101610908Y-135162522D01*
X101604500Y-135222129D01*
X100500500Y-135222129D01*
X100500500Y-125002129D01*
X101604500Y-125002129D01*
X101604500Y-126777866D01*
X101604501Y-126777870D01*
X101610908Y-126837480D01*
X101610909Y-126837485D01*
X101661202Y-126972329D01*
X101747450Y-127087541D01*
X101747454Y-127087546D01*
X101747457Y-127087548D01*
X101747458Y-127087549D01*
X101862670Y-127173797D01*
X101997511Y-127224089D01*
X101997512Y-127224089D01*
X101997517Y-127224091D01*
X102057127Y-127230500D01*
X103652872Y-127230499D01*
X103712483Y-127224091D01*
X103779907Y-127198943D01*
X103847329Y-127173797D01*
X103847329Y-127173796D01*
X103847331Y-127173796D01*
X103962546Y-127087546D01*
X104048796Y-126972331D01*
X104071030Y-126912720D01*
X104090958Y-126859288D01*
X104099091Y-126837483D01*
X104105500Y-126777873D01*
X104105499Y-125002128D01*
X104099091Y-124942517D01*
X104099089Y-124942511D01*
X104048797Y-124807670D01*
X103962549Y-124692458D01*
X103962548Y-124692457D01*
X103962546Y-124692454D01*
X103849303Y-124607680D01*
X103847329Y-124606202D01*
X103712488Y-124555910D01*
X103712483Y-124555909D01*
X103712481Y-124555908D01*
X103712477Y-124555908D01*
X103681249Y-124552550D01*
X103652873Y-124549500D01*
X103652870Y-124549500D01*
X102057133Y-124549500D01*
X102057129Y-124549500D01*
X102057128Y-124549501D01*
X102049949Y-124550272D01*
X101997519Y-124555908D01*
X101997514Y-124555909D01*
X101862670Y-124606202D01*
X101747458Y-124692450D01*
X101747450Y-124692458D01*
X101661202Y-124807670D01*
X101610910Y-124942511D01*
X101610908Y-124942522D01*
X101604500Y-125002129D01*
X100500500Y-125002129D01*
X100500500Y-107227525D01*
X101839500Y-107227525D01*
X101839500Y-107372475D01*
X101850856Y-107414855D01*
X101877017Y-107512489D01*
X101949487Y-107638010D01*
X101949489Y-107638012D01*
X101949491Y-107638015D01*
X102051985Y-107740509D01*
X102051987Y-107740510D01*
X102051989Y-107740512D01*
X102177511Y-107812982D01*
X102177512Y-107812982D01*
X102177515Y-107812984D01*
X102317525Y-107850500D01*
X102317526Y-107850500D01*
X102462474Y-107850500D01*
X102462475Y-107850500D01*
X102602485Y-107812984D01*
X102602487Y-107812982D01*
X102602489Y-107812982D01*
X102728010Y-107740512D01*
X102728010Y-107740511D01*
X102728015Y-107740509D01*
X102830509Y-107638015D01*
X102853605Y-107598012D01*
X102902982Y-107512489D01*
X102902982Y-107512487D01*
X102902984Y-107512485D01*
X102940500Y-107372475D01*
X102940500Y-107227525D01*
X102902984Y-107087515D01*
X102902982Y-107087512D01*
X102902982Y-107087510D01*
X102829069Y-106959490D01*
X102816347Y-106899642D01*
X102841233Y-106843746D01*
X102894221Y-106813153D01*
X102955072Y-106819549D01*
X102984805Y-106839983D01*
X103047898Y-106903076D01*
X103163482Y-106959582D01*
X103238418Y-106970500D01*
X103238421Y-106970500D01*
X103503877Y-106970500D01*
X103562068Y-106989407D01*
X103598032Y-107038907D01*
X103598946Y-107041880D01*
X103637969Y-107176197D01*
X103637969Y-107176198D01*
X103720278Y-107315374D01*
X103834625Y-107429721D01*
X103973802Y-107512030D01*
X104129079Y-107557143D01*
X104129087Y-107557144D01*
X104150000Y-107558789D01*
X104150000Y-106879000D01*
X104168907Y-106820809D01*
X104218407Y-106784845D01*
X104249000Y-106780000D01*
X104551000Y-106780000D01*
X104609191Y-106798907D01*
X104645155Y-106848407D01*
X104650000Y-106879000D01*
X104650000Y-107558789D01*
X104670912Y-107557144D01*
X104670920Y-107557143D01*
X104826197Y-107512030D01*
X104826198Y-107512030D01*
X104965375Y-107429720D01*
X104965377Y-107429719D01*
X105005298Y-107389798D01*
X105059814Y-107362020D01*
X105120246Y-107371591D01*
X105163511Y-107414855D01*
X105173083Y-107475287D01*
X105161039Y-107509300D01*
X105133609Y-107556810D01*
X105133608Y-107556814D01*
X105099500Y-107684108D01*
X105099500Y-107815892D01*
X105119782Y-107891585D01*
X105133609Y-107943190D01*
X105199496Y-108057309D01*
X105199498Y-108057311D01*
X105199500Y-108057314D01*
X105292686Y-108150500D01*
X105292688Y-108150501D01*
X105292690Y-108150503D01*
X105406810Y-108216390D01*
X105406808Y-108216390D01*
X105406812Y-108216391D01*
X105406814Y-108216392D01*
X105534108Y-108250500D01*
X105534110Y-108250500D01*
X105665893Y-108250500D01*
X105672326Y-108249653D01*
X105672526Y-108251175D01*
X105725966Y-108253969D01*
X105773521Y-108292468D01*
X105789500Y-108346398D01*
X105789500Y-108387610D01*
X105781964Y-108425495D01*
X105708717Y-108602329D01*
X105708717Y-108602331D01*
X105669500Y-108799486D01*
X105669500Y-109000513D01*
X105693367Y-109120499D01*
X105703375Y-109170815D01*
X105708717Y-109197668D01*
X105708717Y-109197670D01*
X105785642Y-109383385D01*
X105785642Y-109383386D01*
X105850315Y-109480175D01*
X105897326Y-109550531D01*
X106039469Y-109692674D01*
X106206612Y-109804356D01*
X106392331Y-109881283D01*
X106589489Y-109920500D01*
X106589490Y-109920500D01*
X106790510Y-109920500D01*
X106790511Y-109920500D01*
X106987669Y-109881283D01*
X107173388Y-109804356D01*
X107340531Y-109692674D01*
X107482674Y-109550531D01*
X107594356Y-109383388D01*
X107671283Y-109197669D01*
X107710500Y-109000511D01*
X107710500Y-108991367D01*
X107729407Y-108933176D01*
X107778907Y-108897212D01*
X107835124Y-108895741D01*
X107927522Y-108920499D01*
X107927524Y-108920500D01*
X107927525Y-108920500D01*
X108072474Y-108920500D01*
X108072475Y-108920500D01*
X108212485Y-108882984D01*
X108212487Y-108882982D01*
X108212489Y-108882982D01*
X108338010Y-108810512D01*
X108338010Y-108810511D01*
X108338015Y-108810509D01*
X108338018Y-108810505D01*
X108343161Y-108806560D01*
X108344420Y-108808201D01*
X108390570Y-108784677D01*
X108451003Y-108794237D01*
X108494276Y-108837493D01*
X108503172Y-108863139D01*
X108514033Y-108917737D01*
X108514036Y-108917745D01*
X108535588Y-108950000D01*
X108552196Y-109008888D01*
X108535588Y-109060000D01*
X108514036Y-109092254D01*
X108514033Y-109092263D01*
X108499501Y-109165315D01*
X108499500Y-109165327D01*
X108499500Y-110114672D01*
X108499501Y-110114684D01*
X108514033Y-110187736D01*
X108514036Y-110187745D01*
X108535588Y-110220000D01*
X108552196Y-110278888D01*
X108535588Y-110330000D01*
X108514036Y-110362254D01*
X108514033Y-110362263D01*
X108499501Y-110435315D01*
X108499500Y-110435327D01*
X108499500Y-110983344D01*
X108480593Y-111041535D01*
X108447762Y-111068598D01*
X108448339Y-111069533D01*
X108300070Y-111160985D01*
X108297323Y-111163158D01*
X108295385Y-111163875D01*
X108295171Y-111164008D01*
X108295144Y-111163965D01*
X108239948Y-111184413D01*
X108216614Y-111182593D01*
X108100515Y-111159500D01*
X108100511Y-111159500D01*
X107899489Y-111159500D01*
X107899486Y-111159500D01*
X107702331Y-111198717D01*
X107702329Y-111198717D01*
X107516614Y-111275642D01*
X107516613Y-111275642D01*
X107349469Y-111387325D01*
X107207325Y-111529469D01*
X107095642Y-111696613D01*
X107095642Y-111696614D01*
X107018717Y-111882329D01*
X107018717Y-111882331D01*
X106979500Y-112079486D01*
X106979500Y-112280513D01*
X107018717Y-112477668D01*
X107018717Y-112477670D01*
X107095641Y-112663383D01*
X107095647Y-112663395D01*
X107160196Y-112759998D01*
X107176805Y-112818887D01*
X107160196Y-112870002D01*
X107095647Y-112966604D01*
X107095641Y-112966616D01*
X107018717Y-113152329D01*
X107018717Y-113152331D01*
X106979500Y-113349486D01*
X106979500Y-113550513D01*
X107018717Y-113747668D01*
X107018717Y-113747670D01*
X107095642Y-113933385D01*
X107095642Y-113933386D01*
X107207325Y-114100530D01*
X107207326Y-114100531D01*
X107349469Y-114242674D01*
X107516612Y-114354356D01*
X107702331Y-114431283D01*
X107899489Y-114470500D01*
X107899490Y-114470500D01*
X108100510Y-114470500D01*
X108100511Y-114470500D01*
X108216615Y-114447405D01*
X108277374Y-114454596D01*
X108297336Y-114466850D01*
X108300074Y-114469015D01*
X108300078Y-114469019D01*
X108443431Y-114557440D01*
X108448339Y-114560467D01*
X108447530Y-114561777D01*
X108487081Y-114598647D01*
X108499500Y-114646655D01*
X108499500Y-115194672D01*
X108499501Y-115194684D01*
X108514033Y-115267736D01*
X108514036Y-115267745D01*
X108535588Y-115300000D01*
X108552196Y-115358888D01*
X108535588Y-115410000D01*
X108514036Y-115442254D01*
X108514033Y-115442262D01*
X108503172Y-115496860D01*
X108473275Y-115550244D01*
X108417709Y-115575858D01*
X108357699Y-115563920D01*
X108343415Y-115553107D01*
X108343161Y-115553440D01*
X108338010Y-115549487D01*
X108212488Y-115477017D01*
X108212489Y-115477017D01*
X108182896Y-115469087D01*
X108072475Y-115439500D01*
X107927525Y-115439500D01*
X107865790Y-115456041D01*
X107787510Y-115477017D01*
X107661989Y-115549487D01*
X107559487Y-115651989D01*
X107487017Y-115777510D01*
X107487016Y-115777515D01*
X107449500Y-115917525D01*
X107449500Y-116062475D01*
X107487016Y-116202485D01*
X107487017Y-116202488D01*
X107512703Y-116246978D01*
X107525424Y-116306826D01*
X107500537Y-116362722D01*
X107481968Y-116378792D01*
X107349469Y-116467325D01*
X107207325Y-116609469D01*
X107095642Y-116776613D01*
X107095642Y-116776614D01*
X107018717Y-116962329D01*
X107018717Y-116962331D01*
X106979500Y-117159486D01*
X106979500Y-117159489D01*
X106979500Y-117360511D01*
X107018686Y-117557515D01*
X107018717Y-117557668D01*
X107018717Y-117557670D01*
X107095642Y-117743385D01*
X107095642Y-117743386D01*
X107207327Y-117910533D01*
X107301097Y-118004302D01*
X107328875Y-118058818D01*
X107319304Y-118119251D01*
X107301098Y-118144310D01*
X106201270Y-119244139D01*
X106201267Y-119244142D01*
X106201266Y-119244141D01*
X106114141Y-119331267D01*
X106081310Y-119380404D01*
X106081308Y-119380406D01*
X106045690Y-119433708D01*
X106045689Y-119433711D01*
X106045688Y-119433714D01*
X106026309Y-119480500D01*
X105998536Y-119547548D01*
X105998535Y-119547553D01*
X105998139Y-119549544D01*
X105997658Y-119550442D01*
X105997123Y-119552208D01*
X105996771Y-119552101D01*
X105971049Y-119600217D01*
X105908865Y-119662402D01*
X105827131Y-119800607D01*
X105782334Y-119954797D01*
X105779500Y-119990824D01*
X105779500Y-120389175D01*
X105782009Y-120421067D01*
X105782335Y-120425204D01*
X105818581Y-120549965D01*
X105827132Y-120579395D01*
X105868653Y-120649606D01*
X105881999Y-120709318D01*
X105868653Y-120750394D01*
X105827131Y-120820605D01*
X105782334Y-120974797D01*
X105780348Y-121000041D01*
X105779554Y-121010141D01*
X105779500Y-121010824D01*
X105779500Y-121409175D01*
X105782009Y-121441067D01*
X105782335Y-121445204D01*
X105827131Y-121599393D01*
X105908865Y-121737598D01*
X106022402Y-121851135D01*
X106160607Y-121932869D01*
X106314796Y-121977665D01*
X106350819Y-121980500D01*
X106444900Y-121980499D01*
X106503091Y-121999406D01*
X106514905Y-122009495D01*
X108520504Y-124015094D01*
X108548281Y-124069611D01*
X108549500Y-124085098D01*
X108549500Y-125240688D01*
X108552401Y-125277565D01*
X108552401Y-125277568D01*
X108552402Y-125277569D01*
X108598256Y-125435398D01*
X108681919Y-125576865D01*
X108798135Y-125693081D01*
X108798137Y-125693082D01*
X108798138Y-125693083D01*
X108834837Y-125714787D01*
X108875300Y-125760682D01*
X108881058Y-125821596D01*
X108849912Y-125874261D01*
X108834837Y-125885213D01*
X108798138Y-125906916D01*
X108681918Y-126023136D01*
X108598256Y-126164602D01*
X108552403Y-126322427D01*
X108552401Y-126322434D01*
X108549500Y-126359311D01*
X108549500Y-127303905D01*
X108530593Y-127362096D01*
X108481093Y-127398060D01*
X108419907Y-127398060D01*
X108370407Y-127362096D01*
X108365287Y-127354300D01*
X108302685Y-127248447D01*
X108283895Y-127229657D01*
X107713553Y-127800000D01*
X107443049Y-128070504D01*
X107388532Y-128098281D01*
X107373045Y-128099500D01*
X106953953Y-128099500D01*
X106895762Y-128080593D01*
X106859798Y-128031093D01*
X106858327Y-128026126D01*
X106856636Y-128019813D01*
X106859836Y-127958715D01*
X106882259Y-127924186D01*
X107006446Y-127800000D01*
X107550417Y-127256028D01*
X107604934Y-127228251D01*
X107609810Y-127227603D01*
X107642483Y-127224091D01*
X107709907Y-127198943D01*
X107777329Y-127173797D01*
X107777329Y-127173796D01*
X107777331Y-127173796D01*
X107892546Y-127087546D01*
X107978796Y-126972331D01*
X108001030Y-126912720D01*
X108020958Y-126859288D01*
X108029091Y-126837483D01*
X108035500Y-126777873D01*
X108035499Y-125002128D01*
X108029091Y-124942517D01*
X108029089Y-124942511D01*
X107978797Y-124807670D01*
X107892549Y-124692458D01*
X107892548Y-124692457D01*
X107892546Y-124692454D01*
X107779303Y-124607680D01*
X107777329Y-124606202D01*
X107642488Y-124555910D01*
X107642483Y-124555909D01*
X107642481Y-124555908D01*
X107642477Y-124555908D01*
X107611249Y-124552550D01*
X107582873Y-124549500D01*
X107582870Y-124549500D01*
X105987133Y-124549500D01*
X105987129Y-124549500D01*
X105987128Y-124549501D01*
X105979949Y-124550272D01*
X105927519Y-124555908D01*
X105927514Y-124555909D01*
X105792670Y-124606202D01*
X105677458Y-124692450D01*
X105677450Y-124692458D01*
X105591202Y-124807670D01*
X105540910Y-124942511D01*
X105540908Y-124942522D01*
X105534500Y-125002129D01*
X105534500Y-126777866D01*
X105534501Y-126777870D01*
X105540908Y-126837480D01*
X105540909Y-126837485D01*
X105591202Y-126972329D01*
X105677450Y-127087541D01*
X105677454Y-127087546D01*
X105677457Y-127087548D01*
X105677458Y-127087549D01*
X105792670Y-127173797D01*
X105927511Y-127224089D01*
X105927512Y-127224089D01*
X105927517Y-127224091D01*
X105987127Y-127230500D01*
X106254365Y-127230499D01*
X106312553Y-127249406D01*
X106348517Y-127298906D01*
X106348518Y-127360091D01*
X106339579Y-127379890D01*
X106333718Y-127389799D01*
X106333718Y-127389802D01*
X106312417Y-127463120D01*
X106278026Y-127513726D01*
X106220457Y-127534451D01*
X106217348Y-127534500D01*
X106209234Y-127534500D01*
X106119652Y-127558503D01*
X106062860Y-127573720D01*
X105931639Y-127649481D01*
X105824481Y-127756639D01*
X105748720Y-127887860D01*
X105739534Y-127922144D01*
X105709500Y-128034234D01*
X105709500Y-128185766D01*
X105709872Y-128187154D01*
X105748720Y-128332139D01*
X105824481Y-128463360D01*
X105824483Y-128463362D01*
X105824485Y-128463365D01*
X105931635Y-128570515D01*
X105931637Y-128570516D01*
X105931639Y-128570518D01*
X106062861Y-128646279D01*
X106062859Y-128646279D01*
X106062863Y-128646280D01*
X106062865Y-128646281D01*
X106209234Y-128685500D01*
X106209236Y-128685500D01*
X106360764Y-128685500D01*
X106360766Y-128685500D01*
X106459878Y-128658943D01*
X106520979Y-128662146D01*
X106568528Y-128700651D01*
X106584500Y-128754570D01*
X106584500Y-128783260D01*
X106591118Y-128828682D01*
X106594427Y-128851395D01*
X106605692Y-128874438D01*
X106614261Y-128935021D01*
X106592406Y-128977055D01*
X106594221Y-128978326D01*
X106589254Y-128985419D01*
X106589253Y-128985420D01*
X106589253Y-128985421D01*
X106549161Y-129071398D01*
X106540741Y-129089455D01*
X106534500Y-129136862D01*
X106534500Y-129363133D01*
X106534501Y-129363145D01*
X106540740Y-129410541D01*
X106540741Y-129410547D01*
X106562944Y-129458162D01*
X106570400Y-129518891D01*
X106562944Y-129541838D01*
X106540743Y-129589448D01*
X106540741Y-129589456D01*
X106534500Y-129636862D01*
X106534500Y-129650541D01*
X106515593Y-129708732D01*
X106495768Y-129729082D01*
X106449552Y-129764544D01*
X106357301Y-129884768D01*
X106299314Y-130024761D01*
X106299312Y-130024767D01*
X106284500Y-130137279D01*
X106284500Y-130325256D01*
X106265593Y-130383447D01*
X106255504Y-130395260D01*
X106081286Y-130569478D01*
X106081284Y-130569480D01*
X106081283Y-130569479D01*
X105969480Y-130681282D01*
X105939938Y-130732450D01*
X105939939Y-130732451D01*
X105890423Y-130818215D01*
X105849499Y-130970943D01*
X105849499Y-130970945D01*
X105849499Y-131137031D01*
X105849500Y-131137044D01*
X105849500Y-131370942D01*
X105849499Y-131529055D01*
X105849499Y-131529057D01*
X105859813Y-131567547D01*
X105859813Y-131567548D01*
X105859814Y-131567548D01*
X105859814Y-131567549D01*
X105890423Y-131681783D01*
X105969480Y-131818715D01*
X105969482Y-131818717D01*
X106081283Y-131930519D01*
X106081284Y-131930519D01*
X106269479Y-132118714D01*
X106269480Y-132118716D01*
X106381284Y-132230520D01*
X106439158Y-132263933D01*
X106485929Y-132290937D01*
X106526870Y-132336406D01*
X106534581Y-132363752D01*
X106540740Y-132410541D01*
X106540741Y-132410547D01*
X106562944Y-132458162D01*
X106570400Y-132518891D01*
X106562944Y-132541838D01*
X106540743Y-132589448D01*
X106540741Y-132589453D01*
X106540741Y-132589455D01*
X106536473Y-132621879D01*
X106534500Y-132636862D01*
X106534500Y-132863133D01*
X106534501Y-132863145D01*
X106540740Y-132910544D01*
X106540740Y-132910546D01*
X106589251Y-133014576D01*
X106594221Y-133021674D01*
X106592320Y-133023004D01*
X106614531Y-133066596D01*
X106605693Y-133125560D01*
X106594427Y-133148605D01*
X106594427Y-133148607D01*
X106585947Y-133206814D01*
X106584500Y-133216743D01*
X106584500Y-133245430D01*
X106565593Y-133303621D01*
X106516093Y-133339585D01*
X106459879Y-133341056D01*
X106360766Y-133314500D01*
X106209234Y-133314500D01*
X106132185Y-133335145D01*
X106062860Y-133353720D01*
X105931639Y-133429481D01*
X105824481Y-133536639D01*
X105748720Y-133667860D01*
X105748719Y-133667865D01*
X105709500Y-133814234D01*
X105709500Y-133965766D01*
X105724379Y-134021294D01*
X105748720Y-134112139D01*
X105824481Y-134243360D01*
X105824483Y-134243362D01*
X105824485Y-134243365D01*
X105931635Y-134350515D01*
X105931637Y-134350516D01*
X105931639Y-134350518D01*
X106062861Y-134426279D01*
X106062859Y-134426279D01*
X106062863Y-134426280D01*
X106062865Y-134426281D01*
X106209234Y-134465500D01*
X106209236Y-134465500D01*
X106217348Y-134465500D01*
X106275539Y-134484407D01*
X106311503Y-134533907D01*
X106312417Y-134536880D01*
X106333718Y-134610197D01*
X106333717Y-134610197D01*
X106339578Y-134620107D01*
X106352923Y-134679819D01*
X106328623Y-134735972D01*
X106275957Y-134767116D01*
X106254363Y-134769500D01*
X105987133Y-134769500D01*
X105987129Y-134769500D01*
X105987128Y-134769501D01*
X105979949Y-134770272D01*
X105927519Y-134775908D01*
X105927514Y-134775909D01*
X105792670Y-134826202D01*
X105677458Y-134912450D01*
X105677450Y-134912458D01*
X105591202Y-135027670D01*
X105540910Y-135162511D01*
X105540908Y-135162522D01*
X105534500Y-135222129D01*
X105534500Y-136997866D01*
X105534501Y-136997870D01*
X105540908Y-137057480D01*
X105540909Y-137057485D01*
X105591202Y-137192329D01*
X105657064Y-137280309D01*
X105677454Y-137307546D01*
X105677457Y-137307548D01*
X105677458Y-137307549D01*
X105792670Y-137393797D01*
X105927511Y-137444089D01*
X105927512Y-137444089D01*
X105927517Y-137444091D01*
X105987127Y-137450500D01*
X107038375Y-137450499D01*
X107096565Y-137469406D01*
X107132529Y-137518906D01*
X107132529Y-137580092D01*
X107096565Y-137629592D01*
X107088770Y-137634712D01*
X106962713Y-137709262D01*
X106849261Y-137822714D01*
X106767595Y-137960803D01*
X106767595Y-137960804D01*
X106722834Y-138114872D01*
X106722832Y-138114878D01*
X106720069Y-138149999D01*
X106720070Y-138150000D01*
X107391000Y-138150000D01*
X107449191Y-138168907D01*
X107485155Y-138218407D01*
X107490000Y-138249000D01*
X107490000Y-138399999D01*
X107490001Y-138400000D01*
X107641000Y-138400000D01*
X107699191Y-138418907D01*
X107735155Y-138468407D01*
X107740000Y-138499000D01*
X107740000Y-139212844D01*
X107879195Y-139172404D01*
X107879196Y-139172404D01*
X108017285Y-139090738D01*
X108135140Y-138972884D01*
X108137038Y-138974782D01*
X108178397Y-138946649D01*
X108239553Y-138948544D01*
X108249527Y-138952760D01*
X108263482Y-138959582D01*
X108338418Y-138970500D01*
X108338421Y-138970500D01*
X108681578Y-138970500D01*
X108681582Y-138970500D01*
X108756518Y-138959582D01*
X108872102Y-138903076D01*
X108963076Y-138812102D01*
X109019582Y-138696518D01*
X109030500Y-138621582D01*
X109030500Y-138306189D01*
X109049407Y-138247998D01*
X109059496Y-138236185D01*
X109116185Y-138179496D01*
X109170702Y-138151719D01*
X109186189Y-138150500D01*
X109272474Y-138150500D01*
X109272475Y-138150500D01*
X109412485Y-138112984D01*
X109412487Y-138112982D01*
X109412489Y-138112982D01*
X109538010Y-138040512D01*
X109538010Y-138040511D01*
X109538015Y-138040509D01*
X109640509Y-137938015D01*
X109645982Y-137928535D01*
X109712982Y-137812489D01*
X109712982Y-137812487D01*
X109712984Y-137812485D01*
X109750500Y-137672475D01*
X109750500Y-137527525D01*
X109712984Y-137387515D01*
X109712982Y-137387512D01*
X109712982Y-137387510D01*
X109640512Y-137261989D01*
X109640510Y-137261987D01*
X109640509Y-137261985D01*
X109538015Y-137159491D01*
X109538012Y-137159489D01*
X109538010Y-137159487D01*
X109412488Y-137087017D01*
X109412489Y-137087017D01*
X109302286Y-137057488D01*
X109272475Y-137049500D01*
X109127525Y-137049500D01*
X109097725Y-137057485D01*
X108987510Y-137087017D01*
X108861989Y-137159487D01*
X108759487Y-137261989D01*
X108687017Y-137387510D01*
X108649500Y-137527525D01*
X108649500Y-137613810D01*
X108630593Y-137672001D01*
X108620504Y-137683814D01*
X108503814Y-137800504D01*
X108449297Y-137828281D01*
X108433810Y-137829500D01*
X108338418Y-137829500D01*
X108293456Y-137836050D01*
X108263480Y-137840418D01*
X108249539Y-137847234D01*
X108188957Y-137855804D01*
X108134907Y-137827128D01*
X108133309Y-137825285D01*
X108017285Y-137709261D01*
X107879196Y-137627595D01*
X107879197Y-137627595D01*
X107756568Y-137591968D01*
X107705963Y-137557576D01*
X107685238Y-137500008D01*
X107702308Y-137441252D01*
X107749594Y-137404140D01*
X107777331Y-137393796D01*
X107892546Y-137307546D01*
X107978796Y-137192331D01*
X107979102Y-137191512D01*
X108014883Y-137095577D01*
X108029091Y-137057483D01*
X108035500Y-136997873D01*
X108035499Y-136075000D01*
X109257220Y-136075000D01*
X109265282Y-136136247D01*
X109265284Y-136136252D01*
X109325110Y-136280685D01*
X109420282Y-136404715D01*
X109420284Y-136404717D01*
X109544314Y-136499889D01*
X109688747Y-136559715D01*
X109688752Y-136559717D01*
X109762499Y-136569426D01*
X109762500Y-136569425D01*
X109762500Y-136075001D01*
X110137500Y-136075001D01*
X110137500Y-136569424D01*
X110211249Y-136559717D01*
X110237111Y-136549004D01*
X110298108Y-136544202D01*
X110312886Y-136549004D01*
X110338747Y-136559716D01*
X110412499Y-136569426D01*
X110412500Y-136569425D01*
X110412500Y-136075001D01*
X110787500Y-136075001D01*
X110787500Y-136569424D01*
X110861249Y-136559717D01*
X110887111Y-136549004D01*
X110948108Y-136544202D01*
X110962886Y-136549004D01*
X110988747Y-136559716D01*
X111062499Y-136569426D01*
X111062500Y-136569425D01*
X111062500Y-136075001D01*
X111062499Y-136075000D01*
X110787501Y-136075000D01*
X110787500Y-136075001D01*
X110412500Y-136075001D01*
X110412499Y-136075000D01*
X110137501Y-136075000D01*
X110137500Y-136075001D01*
X109762500Y-136075001D01*
X109762499Y-136075000D01*
X109257220Y-136075000D01*
X108035499Y-136075000D01*
X108035499Y-135700000D01*
X109257219Y-135700000D01*
X109762499Y-135700000D01*
X109762500Y-135699999D01*
X109762500Y-135205574D01*
X109762499Y-135205573D01*
X110137500Y-135205573D01*
X110137500Y-135699999D01*
X110137501Y-135700000D01*
X110412499Y-135700000D01*
X110412500Y-135699999D01*
X110412500Y-135205574D01*
X110412499Y-135205573D01*
X110787500Y-135205573D01*
X110787500Y-135699999D01*
X110787501Y-135700000D01*
X111062499Y-135700000D01*
X111062500Y-135699999D01*
X111062500Y-135205574D01*
X111062499Y-135205573D01*
X110988752Y-135215282D01*
X110988751Y-135215283D01*
X110962885Y-135225997D01*
X110901888Y-135230796D01*
X110887115Y-135225997D01*
X110861247Y-135215282D01*
X110787500Y-135205573D01*
X110412499Y-135205573D01*
X110338752Y-135215282D01*
X110338751Y-135215283D01*
X110312885Y-135225997D01*
X110251888Y-135230796D01*
X110237115Y-135225997D01*
X110211247Y-135215282D01*
X110137500Y-135205573D01*
X109762499Y-135205573D01*
X109688752Y-135215282D01*
X109688747Y-135215284D01*
X109544314Y-135275110D01*
X109420284Y-135370282D01*
X109420282Y-135370284D01*
X109325110Y-135494314D01*
X109265282Y-135638750D01*
X109257219Y-135700000D01*
X108035499Y-135700000D01*
X108035499Y-135222128D01*
X108029091Y-135162517D01*
X108016072Y-135127611D01*
X107978797Y-135027670D01*
X107892549Y-134912458D01*
X107892548Y-134912457D01*
X107892546Y-134912454D01*
X107873945Y-134898529D01*
X107777329Y-134826202D01*
X107642488Y-134775910D01*
X107642478Y-134775908D01*
X107609837Y-134772399D01*
X107554001Y-134747379D01*
X107550417Y-134743970D01*
X106882258Y-134075811D01*
X106854481Y-134021294D01*
X106856638Y-133980177D01*
X106858331Y-133973860D01*
X106891662Y-133922553D01*
X106948787Y-133900635D01*
X106953953Y-133900500D01*
X107373045Y-133900500D01*
X107431236Y-133919407D01*
X107443049Y-133929496D01*
X108283895Y-134770342D01*
X108302685Y-134751552D01*
X108386280Y-134610201D01*
X108386280Y-134610200D01*
X108432100Y-134452489D01*
X108435000Y-134415636D01*
X108435000Y-134311111D01*
X108453907Y-134252920D01*
X108503407Y-134216956D01*
X108564593Y-134216956D01*
X108604001Y-134241105D01*
X108833386Y-134470490D01*
X108936114Y-134529799D01*
X109050691Y-134560499D01*
X109050693Y-134560499D01*
X109169308Y-134560499D01*
X109169310Y-134560499D01*
X109283887Y-134529799D01*
X109334637Y-134500499D01*
X109337644Y-134498763D01*
X109387143Y-134485500D01*
X109726822Y-134485500D01*
X109766806Y-134493933D01*
X109775214Y-134497646D01*
X109799815Y-134500500D01*
X110100184Y-134500499D01*
X110124786Y-134497646D01*
X110133191Y-134493934D01*
X110173178Y-134485500D01*
X110376822Y-134485500D01*
X110416806Y-134493933D01*
X110425214Y-134497646D01*
X110449815Y-134500500D01*
X110750184Y-134500499D01*
X110774786Y-134497646D01*
X110783191Y-134493934D01*
X110823178Y-134485500D01*
X111026822Y-134485500D01*
X111066806Y-134493933D01*
X111075214Y-134497646D01*
X111099815Y-134500500D01*
X111400184Y-134500499D01*
X111424786Y-134497646D01*
X111433191Y-134493934D01*
X111473178Y-134485500D01*
X112000500Y-134485500D01*
X112058691Y-134504407D01*
X112094655Y-134553907D01*
X112099500Y-134584500D01*
X112099500Y-135538864D01*
X112080593Y-135597055D01*
X112031093Y-135633019D01*
X111969907Y-135633019D01*
X111920407Y-135597055D01*
X111909036Y-135576750D01*
X111874889Y-135494314D01*
X111779717Y-135370284D01*
X111779715Y-135370282D01*
X111655685Y-135275110D01*
X111511249Y-135215282D01*
X111437500Y-135205573D01*
X111437500Y-136569424D01*
X111511244Y-136559717D01*
X111511253Y-136559715D01*
X111655684Y-136499890D01*
X111779715Y-136404717D01*
X111779717Y-136404715D01*
X111874889Y-136280685D01*
X111934715Y-136136252D01*
X111934717Y-136136245D01*
X111935989Y-136126587D01*
X111962329Y-136071361D01*
X112016099Y-136042165D01*
X112076761Y-136050150D01*
X112121144Y-136092266D01*
X112127586Y-136106809D01*
X112147207Y-136162883D01*
X112227845Y-136272144D01*
X112227847Y-136272146D01*
X112227850Y-136272150D01*
X112227853Y-136272152D01*
X112227855Y-136272154D01*
X112337116Y-136352792D01*
X112337117Y-136352792D01*
X112337118Y-136352793D01*
X112465301Y-136397646D01*
X112495725Y-136400499D01*
X112495727Y-136400500D01*
X112495734Y-136400500D01*
X113229273Y-136400500D01*
X113229273Y-136400499D01*
X113259699Y-136397646D01*
X113387882Y-136352793D01*
X113497150Y-136272150D01*
X113577793Y-136162882D01*
X113622646Y-136034699D01*
X113625499Y-136004273D01*
X113625500Y-136004273D01*
X113625500Y-132995727D01*
X113625499Y-132995725D01*
X113622646Y-132965305D01*
X113622646Y-132965301D01*
X113577793Y-132837118D01*
X113573715Y-132831593D01*
X113497154Y-132727855D01*
X113497152Y-132727853D01*
X113497150Y-132727850D01*
X113497146Y-132727847D01*
X113497144Y-132727845D01*
X113387883Y-132647207D01*
X113259703Y-132602355D01*
X113259694Y-132602353D01*
X113229274Y-132599500D01*
X113229266Y-132599500D01*
X112495734Y-132599500D01*
X112495725Y-132599500D01*
X112465305Y-132602353D01*
X112465296Y-132602355D01*
X112337116Y-132647207D01*
X112227855Y-132727845D01*
X112227845Y-132727855D01*
X112147207Y-132837116D01*
X112102355Y-132965296D01*
X112102353Y-132965305D01*
X112099500Y-132995725D01*
X112099500Y-133635500D01*
X112080593Y-133693691D01*
X112031093Y-133729655D01*
X112000500Y-133734500D01*
X111461853Y-133734500D01*
X111432256Y-133728256D01*
X111431970Y-133729309D01*
X111424783Y-133727353D01*
X111400188Y-133724500D01*
X111099819Y-133724500D01*
X111099816Y-133724501D01*
X111075210Y-133727354D01*
X111068026Y-133729309D01*
X111067739Y-133728257D01*
X111038146Y-133734500D01*
X110811853Y-133734500D01*
X110782256Y-133728256D01*
X110781970Y-133729309D01*
X110774783Y-133727353D01*
X110750188Y-133724500D01*
X110449819Y-133724500D01*
X110449816Y-133724501D01*
X110425210Y-133727354D01*
X110418026Y-133729309D01*
X110417739Y-133728257D01*
X110388146Y-133734500D01*
X110161853Y-133734500D01*
X110132256Y-133728256D01*
X110131970Y-133729309D01*
X110124783Y-133727353D01*
X110100188Y-133724500D01*
X109799819Y-133724500D01*
X109799816Y-133724501D01*
X109775210Y-133727354D01*
X109768026Y-133729309D01*
X109767739Y-133728257D01*
X109738146Y-133734500D01*
X109412612Y-133734500D01*
X109354421Y-133715593D01*
X109342608Y-133705504D01*
X108924441Y-133287337D01*
X108896664Y-133232820D01*
X108906235Y-133172388D01*
X108949500Y-133129123D01*
X109009932Y-133119552D01*
X109020070Y-133121707D01*
X109127522Y-133150499D01*
X109127524Y-133150500D01*
X109127525Y-133150500D01*
X109272474Y-133150500D01*
X109272475Y-133150500D01*
X109412485Y-133112984D01*
X109412487Y-133112982D01*
X109412489Y-133112982D01*
X109538010Y-133040512D01*
X109538010Y-133040511D01*
X109538015Y-133040509D01*
X109640509Y-132938015D01*
X109656369Y-132910545D01*
X109712982Y-132812489D01*
X109712982Y-132812487D01*
X109712984Y-132812485D01*
X109750500Y-132672475D01*
X109750500Y-132527525D01*
X109743158Y-132500124D01*
X109746359Y-132439023D01*
X109784864Y-132391472D01*
X109838784Y-132375500D01*
X110811606Y-132375500D01*
X110811607Y-132375500D01*
X110910944Y-132355741D01*
X110932452Y-132351463D01*
X110965788Y-132337653D01*
X110965791Y-132337653D01*
X110965791Y-132337652D01*
X110965792Y-132337652D01*
X111046286Y-132304312D01*
X111109631Y-132261985D01*
X111148733Y-132235858D01*
X111235858Y-132148733D01*
X111235860Y-132148729D01*
X111648729Y-131735860D01*
X111648733Y-131735858D01*
X111735858Y-131648733D01*
X111787256Y-131571809D01*
X111804312Y-131546285D01*
X111804313Y-131546281D01*
X111804315Y-131546279D01*
X111833741Y-131475237D01*
X111833741Y-131475236D01*
X111851463Y-131432452D01*
X111875500Y-131311606D01*
X111875500Y-130399500D01*
X111894407Y-130341309D01*
X111943907Y-130305345D01*
X111966105Y-130301829D01*
X111966042Y-130301347D01*
X111972472Y-130300500D01*
X111972475Y-130300500D01*
X112112485Y-130262984D01*
X112112487Y-130262982D01*
X112112489Y-130262982D01*
X112238010Y-130190512D01*
X112238010Y-130190511D01*
X112238015Y-130190509D01*
X112340509Y-130088015D01*
X112376602Y-130025500D01*
X112412982Y-129962489D01*
X112412982Y-129962487D01*
X112412984Y-129962485D01*
X112450500Y-129822475D01*
X112450500Y-129736190D01*
X112469407Y-129677999D01*
X112479496Y-129666186D01*
X112546186Y-129599496D01*
X112600703Y-129571719D01*
X112616190Y-129570500D01*
X112661578Y-129570500D01*
X112661582Y-129570500D01*
X112736518Y-129559582D01*
X112750457Y-129552767D01*
X112811035Y-129544193D01*
X112865086Y-129572865D01*
X112866686Y-129574710D01*
X112982714Y-129690738D01*
X113120804Y-129772404D01*
X113259999Y-129812844D01*
X113260000Y-129812844D01*
X113260000Y-129250001D01*
X113760000Y-129250001D01*
X113760000Y-129812844D01*
X113899195Y-129772404D01*
X113899196Y-129772404D01*
X114037285Y-129690738D01*
X114150738Y-129577285D01*
X114232404Y-129439196D01*
X114232404Y-129439195D01*
X114277165Y-129285127D01*
X114277167Y-129285121D01*
X114279930Y-129250000D01*
X113760001Y-129250000D01*
X113760000Y-129250001D01*
X113260000Y-129250001D01*
X113260000Y-128749999D01*
X113760000Y-128749999D01*
X113760001Y-128750000D01*
X114279930Y-128750000D01*
X114279930Y-128749999D01*
X114277167Y-128714878D01*
X114277165Y-128714872D01*
X114232404Y-128560804D01*
X114232404Y-128560803D01*
X114150738Y-128422714D01*
X114037285Y-128309261D01*
X113899196Y-128227595D01*
X113899194Y-128227594D01*
X113760000Y-128187154D01*
X113760000Y-128749999D01*
X113260000Y-128749999D01*
X113260000Y-128187154D01*
X113120805Y-128227594D01*
X113120803Y-128227595D01*
X112982713Y-128309262D01*
X112982711Y-128309263D01*
X112864859Y-128427115D01*
X112862972Y-128425228D01*
X112821513Y-128453375D01*
X112760359Y-128451423D01*
X112750460Y-128447234D01*
X112736518Y-128440418D01*
X112661582Y-128429500D01*
X112318418Y-128429500D01*
X112243482Y-128440418D01*
X112127899Y-128496923D01*
X112127898Y-128496923D01*
X112127898Y-128496924D01*
X112044501Y-128580320D01*
X111989987Y-128608096D01*
X111929555Y-128598525D01*
X111886290Y-128555260D01*
X111875500Y-128510315D01*
X111875500Y-127935453D01*
X111894407Y-127877262D01*
X111904490Y-127865455D01*
X111918081Y-127851865D01*
X112001744Y-127710398D01*
X112047598Y-127552569D01*
X112050500Y-127515694D01*
X112050500Y-126359306D01*
X112047598Y-126322431D01*
X112001744Y-126164602D01*
X111918081Y-126023135D01*
X111801865Y-125906919D01*
X111765162Y-125885213D01*
X111724700Y-125839319D01*
X111718941Y-125778405D01*
X111750086Y-125725740D01*
X111765162Y-125714787D01*
X111790164Y-125700001D01*
X114375001Y-125700001D01*
X114375001Y-125749986D01*
X114385492Y-125852687D01*
X114385495Y-125852699D01*
X114440643Y-126019124D01*
X114532680Y-126168340D01*
X114656659Y-126292319D01*
X114805875Y-126384356D01*
X114972306Y-126439506D01*
X115075013Y-126449999D01*
X115349998Y-126449999D01*
X115350000Y-126449998D01*
X115350000Y-125700001D01*
X115850000Y-125700001D01*
X115850000Y-126449998D01*
X115850001Y-126449999D01*
X116124986Y-126449999D01*
X116227687Y-126439507D01*
X116227699Y-126439504D01*
X116394124Y-126384356D01*
X116543340Y-126292319D01*
X116667319Y-126168340D01*
X116759356Y-126019124D01*
X116814506Y-125852693D01*
X116825000Y-125749987D01*
X116825000Y-125700001D01*
X116824999Y-125700000D01*
X115850001Y-125700000D01*
X115850000Y-125700001D01*
X115350000Y-125700001D01*
X115349999Y-125700000D01*
X114375002Y-125700000D01*
X114375001Y-125700001D01*
X111790164Y-125700001D01*
X111801865Y-125693081D01*
X111918081Y-125576865D01*
X112001744Y-125435398D01*
X112047598Y-125277569D01*
X112050500Y-125240694D01*
X112050500Y-125150012D01*
X114375000Y-125150012D01*
X114375000Y-125199999D01*
X114375001Y-125200000D01*
X115349999Y-125200000D01*
X115350000Y-125199999D01*
X115350000Y-124450001D01*
X115850000Y-124450001D01*
X115850000Y-125199999D01*
X115850001Y-125200000D01*
X116824998Y-125200000D01*
X116824999Y-125199999D01*
X116824999Y-125150013D01*
X116814507Y-125047312D01*
X116814504Y-125047300D01*
X116759356Y-124880875D01*
X116667319Y-124731659D01*
X116543340Y-124607680D01*
X116394124Y-124515643D01*
X116227693Y-124460493D01*
X116124987Y-124450000D01*
X115850001Y-124450000D01*
X115850000Y-124450001D01*
X115350000Y-124450001D01*
X115349999Y-124450000D01*
X115075013Y-124450000D01*
X114972312Y-124460492D01*
X114972300Y-124460495D01*
X114805875Y-124515643D01*
X114656659Y-124607680D01*
X114532680Y-124731659D01*
X114440643Y-124880875D01*
X114385493Y-125047306D01*
X114375000Y-125150012D01*
X112050500Y-125150012D01*
X112050500Y-124084306D01*
X112047598Y-124047431D01*
X112001744Y-123889602D01*
X111918081Y-123748135D01*
X111904494Y-123734548D01*
X111876718Y-123680030D01*
X111875500Y-123664546D01*
X111875500Y-121948396D01*
X111875499Y-121948391D01*
X111851463Y-121827548D01*
X111828940Y-121773173D01*
X111823676Y-121760464D01*
X111804313Y-121713717D01*
X111745461Y-121625640D01*
X111745460Y-121625636D01*
X111739089Y-121616103D01*
X111735858Y-121611267D01*
X111648733Y-121524142D01*
X111648729Y-121524139D01*
X110935860Y-120811270D01*
X110935860Y-120811269D01*
X110848741Y-120724149D01*
X110848736Y-120724145D01*
X110848733Y-120724142D01*
X110786265Y-120682402D01*
X110786263Y-120682400D01*
X110746285Y-120655687D01*
X110730616Y-120649197D01*
X110684090Y-120609460D01*
X110669807Y-120549965D01*
X110689253Y-120498399D01*
X110693796Y-120492331D01*
X110744091Y-120357483D01*
X110750500Y-120297873D01*
X110750499Y-119302128D01*
X110744091Y-119242517D01*
X110728081Y-119199594D01*
X110725461Y-119138468D01*
X110728076Y-119130420D01*
X110744091Y-119087483D01*
X110750500Y-119027873D01*
X110750499Y-118269447D01*
X110769406Y-118211257D01*
X110779497Y-118199443D01*
X110819015Y-118159926D01*
X110819015Y-118159925D01*
X110819019Y-118159922D01*
X110907440Y-118016569D01*
X110960419Y-117856690D01*
X110962124Y-117840000D01*
X110970500Y-117758019D01*
X110970500Y-116761980D01*
X110960420Y-116663316D01*
X110960419Y-116663314D01*
X110960419Y-116663310D01*
X110907440Y-116503431D01*
X110819019Y-116360078D01*
X110699922Y-116240981D01*
X110556569Y-116152560D01*
X110556568Y-116152559D01*
X110551661Y-116149533D01*
X110552466Y-116148226D01*
X110512910Y-116111335D01*
X110500500Y-116063344D01*
X110500500Y-115515327D01*
X110500498Y-115515315D01*
X110492880Y-115477017D01*
X110485966Y-115442260D01*
X110464411Y-115410000D01*
X110447803Y-115351114D01*
X110464412Y-115299998D01*
X110485966Y-115267740D01*
X110500500Y-115194674D01*
X110500500Y-114646655D01*
X110519407Y-114588464D01*
X110552239Y-114561404D01*
X110551661Y-114560467D01*
X110556567Y-114557440D01*
X110556569Y-114557440D01*
X110699922Y-114469019D01*
X110819019Y-114349922D01*
X110864723Y-114275824D01*
X116229799Y-114275824D01*
X116236201Y-114335370D01*
X116236203Y-114335381D01*
X116286446Y-114470088D01*
X116286447Y-114470090D01*
X116372607Y-114585184D01*
X116372615Y-114585192D01*
X116487709Y-114671352D01*
X116487711Y-114671353D01*
X116622418Y-114721596D01*
X116622429Y-114721598D01*
X116681976Y-114728000D01*
X117129799Y-114728000D01*
X117129800Y-114727999D01*
X117129800Y-113828001D01*
X117629800Y-113828001D01*
X117629800Y-114727999D01*
X117629801Y-114728000D01*
X118077624Y-114728000D01*
X118137170Y-114721598D01*
X118137174Y-114721597D01*
X118195202Y-114699954D01*
X118256331Y-114697333D01*
X118264398Y-114699954D01*
X118322425Y-114721597D01*
X118322429Y-114721598D01*
X118381976Y-114728000D01*
X118829799Y-114728000D01*
X118829800Y-114727999D01*
X118829800Y-113828001D01*
X119329800Y-113828001D01*
X119329800Y-114727999D01*
X119329801Y-114728000D01*
X119777624Y-114728000D01*
X119837170Y-114721598D01*
X119837174Y-114721597D01*
X119895202Y-114699954D01*
X119956331Y-114697333D01*
X119964398Y-114699954D01*
X120022425Y-114721597D01*
X120022429Y-114721598D01*
X120081976Y-114728000D01*
X120529799Y-114728000D01*
X120529800Y-114727999D01*
X120529800Y-113828001D01*
X121029800Y-113828001D01*
X121029800Y-114727999D01*
X121029801Y-114728000D01*
X121477624Y-114728000D01*
X121537170Y-114721598D01*
X121537181Y-114721596D01*
X121671888Y-114671353D01*
X121671890Y-114671352D01*
X121786984Y-114585192D01*
X121786992Y-114585184D01*
X121873152Y-114470090D01*
X121873153Y-114470088D01*
X121923396Y-114335381D01*
X121923398Y-114335370D01*
X121929800Y-114275824D01*
X121929800Y-113828001D01*
X121929799Y-113828000D01*
X121029801Y-113828000D01*
X121029800Y-113828001D01*
X120529800Y-113828001D01*
X120529799Y-113828000D01*
X119329801Y-113828000D01*
X119329800Y-113828001D01*
X118829800Y-113828001D01*
X118829799Y-113828000D01*
X117629801Y-113828000D01*
X117629800Y-113828001D01*
X117129800Y-113828001D01*
X117129799Y-113828000D01*
X116229801Y-113828000D01*
X116229800Y-113828001D01*
X116229800Y-114275824D01*
X116229799Y-114275824D01*
X110864723Y-114275824D01*
X110907440Y-114206569D01*
X110960419Y-114046690D01*
X110962124Y-114030000D01*
X110970500Y-113948019D01*
X110970500Y-112951980D01*
X110960420Y-112853316D01*
X110960419Y-112853313D01*
X110960419Y-112853310D01*
X110958042Y-112846139D01*
X110957687Y-112784957D01*
X110958043Y-112783859D01*
X110958171Y-112783474D01*
X110960419Y-112776690D01*
X110962124Y-112760000D01*
X110970500Y-112678019D01*
X110970500Y-112575824D01*
X116229799Y-112575824D01*
X116236201Y-112635370D01*
X116236202Y-112635377D01*
X116257845Y-112693405D01*
X116260464Y-112754534D01*
X116257845Y-112762595D01*
X116236202Y-112820622D01*
X116236201Y-112820629D01*
X116229800Y-112880175D01*
X116229800Y-113327999D01*
X116229801Y-113328000D01*
X117129799Y-113328000D01*
X117129800Y-113327999D01*
X117129800Y-112128001D01*
X117629800Y-112128001D01*
X117629800Y-113327999D01*
X117629801Y-113328000D01*
X118829799Y-113328000D01*
X118829800Y-113327999D01*
X118829800Y-112128001D01*
X119329800Y-112128001D01*
X119329800Y-113327999D01*
X119329801Y-113328000D01*
X120529799Y-113328000D01*
X120529800Y-113327999D01*
X120529800Y-112128001D01*
X121029800Y-112128001D01*
X121029800Y-113327999D01*
X121029801Y-113328000D01*
X121929799Y-113328000D01*
X121929800Y-113327999D01*
X121929800Y-112880175D01*
X121923398Y-112820629D01*
X121923397Y-112820625D01*
X121901754Y-112762598D01*
X121899133Y-112701469D01*
X121901754Y-112693402D01*
X121923397Y-112635374D01*
X121923398Y-112635370D01*
X121929800Y-112575824D01*
X121929800Y-112128001D01*
X121929799Y-112128000D01*
X121029801Y-112128000D01*
X121029800Y-112128001D01*
X120529800Y-112128001D01*
X120529799Y-112128000D01*
X119329801Y-112128000D01*
X119329800Y-112128001D01*
X118829800Y-112128001D01*
X118829799Y-112128000D01*
X117629801Y-112128000D01*
X117629800Y-112128001D01*
X117129800Y-112128001D01*
X117129799Y-112128000D01*
X116229801Y-112128000D01*
X116229800Y-112128001D01*
X116229800Y-112575824D01*
X116229799Y-112575824D01*
X110970500Y-112575824D01*
X110970500Y-111681980D01*
X110960420Y-111583316D01*
X110960419Y-111583314D01*
X110960419Y-111583310D01*
X110907440Y-111423431D01*
X110819019Y-111280078D01*
X110699922Y-111160981D01*
X110556569Y-111072560D01*
X110556568Y-111072559D01*
X110551661Y-111069533D01*
X110552466Y-111068226D01*
X110512910Y-111031335D01*
X110500500Y-110983344D01*
X110500500Y-110875824D01*
X116229799Y-110875824D01*
X116236201Y-110935370D01*
X116236202Y-110935377D01*
X116257845Y-110993405D01*
X116260464Y-111054534D01*
X116257845Y-111062595D01*
X116236202Y-111120622D01*
X116236201Y-111120629D01*
X116229800Y-111180175D01*
X116229800Y-111627999D01*
X116229801Y-111628000D01*
X117129799Y-111628000D01*
X117129800Y-111627999D01*
X117129800Y-110428001D01*
X117629800Y-110428001D01*
X117629800Y-111627999D01*
X117629801Y-111628000D01*
X118829799Y-111628000D01*
X118829800Y-111627999D01*
X118829800Y-110428001D01*
X119329800Y-110428001D01*
X119329800Y-111627999D01*
X119329801Y-111628000D01*
X120529799Y-111628000D01*
X120529800Y-111627999D01*
X120529800Y-110428001D01*
X121029800Y-110428001D01*
X121029800Y-111627999D01*
X121029801Y-111628000D01*
X121929799Y-111628000D01*
X121929800Y-111627999D01*
X121929800Y-111180175D01*
X121923398Y-111120629D01*
X121923397Y-111120625D01*
X121901754Y-111062598D01*
X121899133Y-111001469D01*
X121901754Y-110993402D01*
X121923397Y-110935374D01*
X121923398Y-110935370D01*
X121929800Y-110875824D01*
X121929800Y-110428001D01*
X121929799Y-110428000D01*
X121029801Y-110428000D01*
X121029800Y-110428001D01*
X120529800Y-110428001D01*
X120529799Y-110428000D01*
X119329801Y-110428000D01*
X119329800Y-110428001D01*
X118829800Y-110428001D01*
X118829799Y-110428000D01*
X117629801Y-110428000D01*
X117629800Y-110428001D01*
X117129800Y-110428001D01*
X117129799Y-110428000D01*
X116229801Y-110428000D01*
X116229800Y-110428001D01*
X116229800Y-110875824D01*
X116229799Y-110875824D01*
X110500500Y-110875824D01*
X110500500Y-110435327D01*
X110500499Y-110435320D01*
X110496534Y-110415388D01*
X110485966Y-110362260D01*
X110458719Y-110321481D01*
X110454893Y-110311980D01*
X110453462Y-110291180D01*
X110447803Y-110271114D01*
X110451334Y-110260244D01*
X110450695Y-110250939D01*
X110458305Y-110238790D01*
X110464412Y-110219998D01*
X110485966Y-110187740D01*
X110500500Y-110114674D01*
X110500500Y-109480175D01*
X116229800Y-109480175D01*
X116229800Y-109927999D01*
X116229801Y-109928000D01*
X117129799Y-109928000D01*
X117129800Y-109927999D01*
X117129800Y-109028001D01*
X117629800Y-109028001D01*
X117629800Y-109927999D01*
X117629801Y-109928000D01*
X118829799Y-109928000D01*
X118829800Y-109927999D01*
X118829800Y-109028001D01*
X119329800Y-109028001D01*
X119329800Y-109927999D01*
X119329801Y-109928000D01*
X120529799Y-109928000D01*
X120529800Y-109927999D01*
X120529800Y-109028001D01*
X121029800Y-109028001D01*
X121029800Y-109927999D01*
X121029801Y-109928000D01*
X121929799Y-109928000D01*
X121929800Y-109927999D01*
X121929800Y-109480175D01*
X121923398Y-109420629D01*
X121923396Y-109420618D01*
X121873153Y-109285911D01*
X121873152Y-109285909D01*
X121786992Y-109170815D01*
X121786984Y-109170807D01*
X121671890Y-109084647D01*
X121671888Y-109084646D01*
X121537181Y-109034403D01*
X121537170Y-109034401D01*
X121477624Y-109028000D01*
X121029801Y-109028000D01*
X121029800Y-109028001D01*
X120529800Y-109028001D01*
X120529799Y-109028000D01*
X120081976Y-109028000D01*
X120022429Y-109034401D01*
X120022422Y-109034402D01*
X119964395Y-109056045D01*
X119903266Y-109058664D01*
X119895205Y-109056045D01*
X119837177Y-109034402D01*
X119837170Y-109034401D01*
X119777624Y-109028000D01*
X119329801Y-109028000D01*
X119329800Y-109028001D01*
X118829800Y-109028001D01*
X118829799Y-109028000D01*
X118381976Y-109028000D01*
X118322429Y-109034401D01*
X118322422Y-109034402D01*
X118264395Y-109056045D01*
X118203266Y-109058664D01*
X118195205Y-109056045D01*
X118137177Y-109034402D01*
X118137170Y-109034401D01*
X118077624Y-109028000D01*
X117629801Y-109028000D01*
X117629800Y-109028001D01*
X117129800Y-109028001D01*
X117129799Y-109028000D01*
X116681976Y-109028000D01*
X116622429Y-109034401D01*
X116622418Y-109034403D01*
X116487711Y-109084646D01*
X116487709Y-109084647D01*
X116372615Y-109170807D01*
X116372607Y-109170815D01*
X116286447Y-109285909D01*
X116286446Y-109285911D01*
X116236203Y-109420618D01*
X116236201Y-109420629D01*
X116229800Y-109480175D01*
X110500500Y-109480175D01*
X110500500Y-109165326D01*
X110485966Y-109092260D01*
X110464411Y-109060000D01*
X110447803Y-109001114D01*
X110464412Y-108949998D01*
X110475652Y-108933176D01*
X110485966Y-108917740D01*
X110500500Y-108844674D01*
X110500500Y-108296655D01*
X110519407Y-108238464D01*
X110552239Y-108211404D01*
X110551661Y-108210467D01*
X110556567Y-108207440D01*
X110556569Y-108207440D01*
X110699922Y-108119019D01*
X110819019Y-107999922D01*
X110907440Y-107856569D01*
X110960419Y-107696690D01*
X110960420Y-107696683D01*
X110970500Y-107598019D01*
X110970500Y-106601980D01*
X110960420Y-106503316D01*
X110960419Y-106503314D01*
X110960419Y-106503310D01*
X110907440Y-106343431D01*
X110819019Y-106200078D01*
X110699922Y-106080981D01*
X110556569Y-105992560D01*
X110556568Y-105992559D01*
X110551661Y-105989533D01*
X110552466Y-105988226D01*
X110512910Y-105951335D01*
X110500500Y-105903344D01*
X110500500Y-105355327D01*
X110500498Y-105355315D01*
X110493556Y-105320418D01*
X110485966Y-105282260D01*
X110434343Y-105205000D01*
X110417736Y-105146113D01*
X110434346Y-105094997D01*
X110438865Y-105088234D01*
X110438866Y-105088232D01*
X110438867Y-105088231D01*
X110450500Y-105029748D01*
X110450500Y-104264041D01*
X110469407Y-104205850D01*
X110490171Y-104184788D01*
X110607184Y-104097192D01*
X110607192Y-104097184D01*
X110693352Y-103982090D01*
X110693353Y-103982088D01*
X110743596Y-103847381D01*
X110743598Y-103847370D01*
X110750000Y-103787824D01*
X110750000Y-103540001D01*
X110749999Y-103540000D01*
X108245426Y-103540000D01*
X108195927Y-103526737D01*
X108173187Y-103513608D01*
X108071517Y-103486366D01*
X108027136Y-103460743D01*
X107954496Y-103388103D01*
X107926719Y-103333586D01*
X107925500Y-103318099D01*
X107925500Y-102945727D01*
X107925499Y-102945725D01*
X107922646Y-102915305D01*
X107922646Y-102915301D01*
X107879563Y-102792175D01*
X108250000Y-102792175D01*
X108250000Y-103039999D01*
X108250001Y-103040000D01*
X109249999Y-103040000D01*
X109250000Y-103039999D01*
X109250000Y-102340001D01*
X109750000Y-102340001D01*
X109750000Y-103039999D01*
X109750001Y-103040000D01*
X110749999Y-103040000D01*
X110750000Y-103039999D01*
X110750000Y-102792175D01*
X110743598Y-102732629D01*
X110743596Y-102732618D01*
X110711970Y-102647824D01*
X118759999Y-102647824D01*
X118766401Y-102707370D01*
X118766403Y-102707381D01*
X118816646Y-102842088D01*
X118816647Y-102842090D01*
X118902807Y-102957184D01*
X118902815Y-102957192D01*
X119017909Y-103043352D01*
X119017911Y-103043353D01*
X119152618Y-103093596D01*
X119152629Y-103093598D01*
X119212176Y-103100000D01*
X119459999Y-103100000D01*
X119460000Y-103099999D01*
X119460000Y-102100001D01*
X119459999Y-102100000D01*
X118760001Y-102100000D01*
X118760000Y-102100001D01*
X118760000Y-102647824D01*
X118759999Y-102647824D01*
X110711970Y-102647824D01*
X110693353Y-102597911D01*
X110693352Y-102597909D01*
X110607192Y-102482815D01*
X110607184Y-102482807D01*
X110492090Y-102396647D01*
X110492088Y-102396646D01*
X110357381Y-102346403D01*
X110357370Y-102346401D01*
X110297824Y-102340000D01*
X109750001Y-102340000D01*
X109750000Y-102340001D01*
X109250000Y-102340001D01*
X109249999Y-102340000D01*
X108702176Y-102340000D01*
X108642629Y-102346401D01*
X108642618Y-102346403D01*
X108507911Y-102396646D01*
X108507909Y-102396647D01*
X108392815Y-102482807D01*
X108392807Y-102482815D01*
X108306647Y-102597909D01*
X108306646Y-102597911D01*
X108256403Y-102732618D01*
X108256401Y-102732629D01*
X108250000Y-102792175D01*
X107879563Y-102792175D01*
X107877793Y-102787118D01*
X107877792Y-102787116D01*
X107877792Y-102787115D01*
X107797154Y-102677855D01*
X107797152Y-102677853D01*
X107797150Y-102677850D01*
X107797146Y-102677847D01*
X107797144Y-102677845D01*
X107687883Y-102597207D01*
X107559703Y-102552355D01*
X107559694Y-102552353D01*
X107529274Y-102549500D01*
X107529266Y-102549500D01*
X106470734Y-102549500D01*
X106470725Y-102549500D01*
X106440305Y-102552353D01*
X106440296Y-102552355D01*
X106312116Y-102597207D01*
X106202855Y-102677845D01*
X106202845Y-102677855D01*
X106122207Y-102787116D01*
X106077355Y-102915296D01*
X106077353Y-102915305D01*
X106074500Y-102945725D01*
X106074500Y-103554274D01*
X106077353Y-103584694D01*
X106077355Y-103584703D01*
X106122207Y-103712883D01*
X106202845Y-103822144D01*
X106202847Y-103822146D01*
X106202850Y-103822150D01*
X106202853Y-103822152D01*
X106202855Y-103822154D01*
X106318087Y-103907199D01*
X106316071Y-103909929D01*
X106348627Y-103943521D01*
X106357251Y-104004095D01*
X106344938Y-104037474D01*
X106287968Y-104133805D01*
X106242855Y-104289087D01*
X106241209Y-104310000D01*
X106921000Y-104310000D01*
X106979191Y-104328907D01*
X107015155Y-104378407D01*
X107020000Y-104409000D01*
X107020000Y-104711000D01*
X107001093Y-104769191D01*
X106951593Y-104805155D01*
X106921000Y-104810000D01*
X106241210Y-104810000D01*
X106242855Y-104830912D01*
X106242856Y-104830920D01*
X106287969Y-104986197D01*
X106287969Y-104986198D01*
X106370278Y-105125374D01*
X106484625Y-105239721D01*
X106578581Y-105295287D01*
X106619044Y-105341183D01*
X106624802Y-105402096D01*
X106593656Y-105454761D01*
X106537502Y-105479061D01*
X106528186Y-105479500D01*
X106155685Y-105479500D01*
X106097494Y-105460593D01*
X106085687Y-105450509D01*
X106012102Y-105376924D01*
X105896518Y-105320418D01*
X105821582Y-105309500D01*
X105378418Y-105309500D01*
X105303482Y-105320418D01*
X105187899Y-105376923D01*
X105187898Y-105376923D01*
X105187898Y-105376924D01*
X105114316Y-105450505D01*
X105059802Y-105478281D01*
X105044315Y-105479500D01*
X104962757Y-105479500D01*
X104904566Y-105460593D01*
X104892753Y-105450504D01*
X104889860Y-105447611D01*
X104889859Y-105447609D01*
X104802391Y-105360141D01*
X104692175Y-105303983D01*
X104692176Y-105303983D01*
X104600736Y-105289500D01*
X104199262Y-105289500D01*
X104107825Y-105303983D01*
X104107821Y-105303984D01*
X103997610Y-105360140D01*
X103910140Y-105447610D01*
X103853983Y-105557823D01*
X103839500Y-105649263D01*
X103839500Y-105653809D01*
X103820593Y-105712000D01*
X103810503Y-105723813D01*
X103724267Y-105810048D01*
X103669750Y-105837825D01*
X103639991Y-105838010D01*
X103581582Y-105829500D01*
X103238418Y-105829500D01*
X103163482Y-105840418D01*
X103047899Y-105896923D01*
X103047898Y-105896923D01*
X103047898Y-105896924D01*
X102970001Y-105974820D01*
X102915487Y-106002596D01*
X102855055Y-105993025D01*
X102829999Y-105974821D01*
X102752102Y-105896924D01*
X102636518Y-105840418D01*
X102561582Y-105829500D01*
X102218418Y-105829500D01*
X102143482Y-105840418D01*
X102027899Y-105896923D01*
X101936923Y-105987899D01*
X101921460Y-106019530D01*
X101880418Y-106103482D01*
X101869500Y-106178418D01*
X101869500Y-106621582D01*
X101880418Y-106696518D01*
X101936924Y-106812102D01*
X101944371Y-106819549D01*
X101948147Y-106823325D01*
X101975923Y-106877843D01*
X101966349Y-106938275D01*
X101953069Y-106956554D01*
X101953440Y-106956839D01*
X101949487Y-106961989D01*
X101877017Y-107087510D01*
X101877016Y-107087515D01*
X101839500Y-107227525D01*
X100500500Y-107227525D01*
X100500500Y-102893709D01*
X101649500Y-102893709D01*
X101649500Y-103106290D01*
X101682752Y-103316238D01*
X101748443Y-103518412D01*
X101844948Y-103707815D01*
X101844950Y-103707819D01*
X101969891Y-103879786D01*
X101969893Y-103879788D01*
X101969896Y-103879792D01*
X102120208Y-104030104D01*
X102120211Y-104030106D01*
X102120213Y-104030108D01*
X102292180Y-104155049D01*
X102292184Y-104155051D01*
X102481588Y-104251557D01*
X102683757Y-104317246D01*
X102683758Y-104317246D01*
X102683761Y-104317247D01*
X102893710Y-104350500D01*
X102893713Y-104350500D01*
X103106290Y-104350500D01*
X103316238Y-104317247D01*
X103316239Y-104317246D01*
X103316243Y-104317246D01*
X103518412Y-104251557D01*
X103707816Y-104155051D01*
X103879792Y-104030104D01*
X104030104Y-103879792D01*
X104151370Y-103712883D01*
X104155049Y-103707819D01*
X104155051Y-103707816D01*
X104251557Y-103518412D01*
X104317246Y-103316243D01*
X104350500Y-103106287D01*
X104350500Y-102893713D01*
X104350500Y-102893709D01*
X104317247Y-102683761D01*
X104315328Y-102677855D01*
X104251557Y-102481588D01*
X104155051Y-102292184D01*
X104155049Y-102292180D01*
X104030108Y-102120213D01*
X104030106Y-102120211D01*
X104030104Y-102120208D01*
X103879792Y-101969896D01*
X103879788Y-101969893D01*
X103879786Y-101969891D01*
X103707819Y-101844950D01*
X103707815Y-101844948D01*
X103518412Y-101748443D01*
X103316238Y-101682752D01*
X103152216Y-101656774D01*
X103106290Y-101649500D01*
X103106287Y-101649500D01*
X102893713Y-101649500D01*
X102893710Y-101649500D01*
X102683761Y-101682752D01*
X102481587Y-101748443D01*
X102292184Y-101844948D01*
X102292180Y-101844950D01*
X102120213Y-101969891D01*
X101969891Y-102120213D01*
X101844950Y-102292180D01*
X101844948Y-102292184D01*
X101748443Y-102481587D01*
X101682752Y-102683761D01*
X101649500Y-102893709D01*
X100500500Y-102893709D01*
X100500500Y-101600001D01*
X105775001Y-101600001D01*
X105775001Y-101649986D01*
X105785492Y-101752687D01*
X105785495Y-101752699D01*
X105840643Y-101919124D01*
X105932680Y-102068340D01*
X106056659Y-102192319D01*
X106205875Y-102284356D01*
X106372306Y-102339506D01*
X106475013Y-102349999D01*
X106749998Y-102349999D01*
X106750000Y-102349998D01*
X106750000Y-101600001D01*
X107250000Y-101600001D01*
X107250000Y-102349998D01*
X107250001Y-102349999D01*
X107524986Y-102349999D01*
X107627687Y-102339507D01*
X107627699Y-102339504D01*
X107794124Y-102284356D01*
X107943340Y-102192319D01*
X108067320Y-102068339D01*
X108105143Y-102007020D01*
X108159356Y-101919124D01*
X108214506Y-101752693D01*
X108225000Y-101649987D01*
X108225000Y-101600001D01*
X108224999Y-101600000D01*
X107250001Y-101600000D01*
X107250000Y-101600001D01*
X106750000Y-101600001D01*
X106749999Y-101600000D01*
X105775002Y-101600000D01*
X105775001Y-101600001D01*
X100500500Y-101600001D01*
X100500500Y-101005563D01*
X100501122Y-100994480D01*
X100506437Y-100947306D01*
X100511774Y-100899928D01*
X100516705Y-100878324D01*
X100546283Y-100793798D01*
X100555899Y-100773832D01*
X100555902Y-100773828D01*
X100603542Y-100698008D01*
X100617357Y-100680684D01*
X100680684Y-100617357D01*
X100698012Y-100603540D01*
X100773834Y-100555897D01*
X100793798Y-100546283D01*
X100878324Y-100516705D01*
X100899928Y-100511774D01*
X100980091Y-100502743D01*
X100994480Y-100501122D01*
X101005563Y-100500500D01*
X101065892Y-100500500D01*
X105836199Y-100500500D01*
X105894390Y-100519407D01*
G37*
%TD.AperFunction*%
%TA.AperFunction,Conductor*%
G36*
X117530580Y-138069407D02*
G01*
X117542393Y-138079496D01*
X117820504Y-138357607D01*
X117848281Y-138412124D01*
X117849500Y-138427611D01*
X117849500Y-139719309D01*
X117873713Y-139809673D01*
X117873712Y-139809673D01*
X117880200Y-139833886D01*
X117880202Y-139833890D01*
X117939507Y-139936609D01*
X117939508Y-139936610D01*
X117939509Y-139936611D01*
X117939511Y-139936614D01*
X118229507Y-140226610D01*
X118496624Y-140493727D01*
X118522245Y-140538103D01*
X118523605Y-140543178D01*
X118523609Y-140543188D01*
X118526235Y-140547736D01*
X118539500Y-140597238D01*
X118539500Y-141475781D01*
X118530226Y-141517618D01*
X118525933Y-141526823D01*
X118525932Y-141526828D01*
X118519500Y-141575685D01*
X118519500Y-142024314D01*
X118525932Y-142073174D01*
X118525932Y-142073175D01*
X118575933Y-142180401D01*
X118575934Y-142180402D01*
X118575935Y-142180404D01*
X118659596Y-142264065D01*
X118659597Y-142264065D01*
X118659598Y-142264066D01*
X118766824Y-142314067D01*
X118766825Y-142314067D01*
X118766827Y-142314068D01*
X118815684Y-142320500D01*
X118815685Y-142320500D01*
X119164314Y-142320500D01*
X119164316Y-142320500D01*
X119213173Y-142314068D01*
X119320404Y-142264065D01*
X119398280Y-142186188D01*
X119452794Y-142158412D01*
X119513227Y-142167983D01*
X119551288Y-142206044D01*
X119552157Y-142205425D01*
X119555871Y-142210627D01*
X119556491Y-142211247D01*
X119556902Y-142212072D01*
X119556922Y-142212099D01*
X119556923Y-142212100D01*
X119556924Y-142212102D01*
X119647898Y-142303076D01*
X119763482Y-142359582D01*
X119838418Y-142370500D01*
X119911969Y-142370500D01*
X119970160Y-142389407D01*
X120006124Y-142438907D01*
X120006124Y-142500093D01*
X119997705Y-142519001D01*
X119987017Y-142537512D01*
X119987016Y-142537514D01*
X119987016Y-142537515D01*
X119949500Y-142677525D01*
X119949500Y-142822475D01*
X119977648Y-142927525D01*
X119987017Y-142962489D01*
X120059487Y-143088010D01*
X120059489Y-143088012D01*
X120059491Y-143088015D01*
X120161985Y-143190509D01*
X120161987Y-143190510D01*
X120161989Y-143190512D01*
X120287511Y-143262982D01*
X120287512Y-143262982D01*
X120287515Y-143262984D01*
X120427525Y-143300500D01*
X120427526Y-143300500D01*
X120572474Y-143300500D01*
X120572475Y-143300500D01*
X120712485Y-143262984D01*
X120712487Y-143262982D01*
X120712489Y-143262982D01*
X120838010Y-143190512D01*
X120838010Y-143190511D01*
X120838015Y-143190509D01*
X120940509Y-143088015D01*
X120940514Y-143088007D01*
X121012982Y-142962489D01*
X121012982Y-142962487D01*
X121012984Y-142962485D01*
X121050500Y-142822475D01*
X121050500Y-142677525D01*
X121012984Y-142537515D01*
X121002295Y-142519001D01*
X120989573Y-142459152D01*
X121014459Y-142403257D01*
X121067447Y-142372664D01*
X121088031Y-142370500D01*
X121161578Y-142370500D01*
X121161582Y-142370500D01*
X121236518Y-142359582D01*
X121250457Y-142352767D01*
X121311035Y-142344193D01*
X121365086Y-142372865D01*
X121366686Y-142374710D01*
X121482714Y-142490738D01*
X121620804Y-142572404D01*
X121759999Y-142612844D01*
X121760000Y-142612844D01*
X121760000Y-141899000D01*
X121778907Y-141840809D01*
X121828407Y-141804845D01*
X121859000Y-141800000D01*
X122161000Y-141800000D01*
X122219191Y-141818907D01*
X122255155Y-141868407D01*
X122260000Y-141899000D01*
X122260000Y-142612844D01*
X122399195Y-142572404D01*
X122399196Y-142572404D01*
X122537285Y-142490738D01*
X122650737Y-142377286D01*
X122660569Y-142360661D01*
X122706463Y-142320197D01*
X122759036Y-142315224D01*
X122759319Y-142313079D01*
X122766825Y-142314067D01*
X122766827Y-142314068D01*
X122815684Y-142320500D01*
X122815685Y-142320500D01*
X123164314Y-142320500D01*
X123164316Y-142320500D01*
X123213173Y-142314068D01*
X123320404Y-142264065D01*
X123398280Y-142186188D01*
X123452794Y-142158412D01*
X123513227Y-142167983D01*
X123551288Y-142206044D01*
X123552157Y-142205425D01*
X123555871Y-142210627D01*
X123556491Y-142211247D01*
X123556902Y-142212072D01*
X123556922Y-142212099D01*
X123556923Y-142212100D01*
X123556924Y-142212102D01*
X123647898Y-142303076D01*
X123763482Y-142359582D01*
X123838418Y-142370500D01*
X123838421Y-142370500D01*
X124181578Y-142370500D01*
X124181582Y-142370500D01*
X124256518Y-142359582D01*
X124372102Y-142303076D01*
X124429998Y-142245179D01*
X124484513Y-142217404D01*
X124544945Y-142226975D01*
X124570000Y-142245178D01*
X124627898Y-142303076D01*
X124743482Y-142359582D01*
X124818418Y-142370500D01*
X124818421Y-142370500D01*
X125161578Y-142370500D01*
X125161582Y-142370500D01*
X125236518Y-142359582D01*
X125352102Y-142303076D01*
X125429998Y-142225179D01*
X125484513Y-142197404D01*
X125544945Y-142206975D01*
X125570000Y-142225178D01*
X125593146Y-142248324D01*
X125620922Y-142302839D01*
X125611351Y-142363271D01*
X125593147Y-142388327D01*
X125569492Y-142411982D01*
X125569487Y-142411989D01*
X125497017Y-142537510D01*
X125491127Y-142559491D01*
X125459500Y-142677525D01*
X125459500Y-142822475D01*
X125487648Y-142927525D01*
X125497017Y-142962489D01*
X125569485Y-143088007D01*
X125571190Y-143090228D01*
X125571859Y-143092119D01*
X125572735Y-143093635D01*
X125572454Y-143093797D01*
X125591617Y-143147903D01*
X125574243Y-143206570D01*
X125525703Y-143243820D01*
X125492651Y-143249500D01*
X123953856Y-143249500D01*
X123936118Y-143254253D01*
X123864712Y-143273386D01*
X123784788Y-143319530D01*
X122719528Y-144384790D01*
X122683734Y-144446788D01*
X122683734Y-144446789D01*
X122673387Y-144464709D01*
X122673386Y-144464711D01*
X122673386Y-144464712D01*
X122653077Y-144540509D01*
X122649500Y-144553857D01*
X122649500Y-151044013D01*
X122630593Y-151102204D01*
X122616758Y-151116038D01*
X122617164Y-151116444D01*
X122607329Y-151126278D01*
X122552811Y-151154053D01*
X122492379Y-151144478D01*
X122452116Y-151106666D01*
X122417685Y-151048447D01*
X122301552Y-150932314D01*
X122160201Y-150848719D01*
X122160202Y-150848719D01*
X122002491Y-150802900D01*
X122000000Y-150802702D01*
X122000000Y-152051000D01*
X121981093Y-152109191D01*
X121931593Y-152145155D01*
X121901000Y-152150000D01*
X121619499Y-152150000D01*
X121561308Y-152131093D01*
X121525344Y-152081593D01*
X121520499Y-152051000D01*
X121520499Y-151374310D01*
X121520498Y-151374285D01*
X121517617Y-151331791D01*
X121517617Y-151331790D01*
X121502926Y-151272715D01*
X121500000Y-151248823D01*
X121500000Y-150802703D01*
X121496596Y-150799558D01*
X121447804Y-150787864D01*
X121408050Y-150741353D01*
X121400500Y-150703433D01*
X121400500Y-149661310D01*
X121400499Y-149661306D01*
X121398151Y-149649500D01*
X121365894Y-149487334D01*
X121298014Y-149323455D01*
X121298014Y-149323454D01*
X121199464Y-149175965D01*
X121074035Y-149050536D01*
X118599496Y-146575996D01*
X118571719Y-146521479D01*
X118570500Y-146505992D01*
X118570500Y-146479873D01*
X118576056Y-146447174D01*
X118605463Y-146363136D01*
X118605464Y-146363130D01*
X118620499Y-146229694D01*
X118620500Y-146229677D01*
X118620500Y-145740322D01*
X118620499Y-145740305D01*
X118605939Y-145611085D01*
X118605939Y-145588915D01*
X118620499Y-145459694D01*
X118620500Y-145459677D01*
X118620500Y-145080870D01*
X118639407Y-145022679D01*
X118649496Y-145010866D01*
X118828824Y-144831538D01*
X119037324Y-144623038D01*
X119127118Y-144488653D01*
X119188969Y-144339331D01*
X119220500Y-144180812D01*
X119220500Y-144138917D01*
X119237185Y-144083915D01*
X119274864Y-144027525D01*
X119304356Y-143983388D01*
X119381283Y-143797669D01*
X119420500Y-143600511D01*
X119420500Y-143399489D01*
X119381283Y-143202331D01*
X119304357Y-143016614D01*
X119304357Y-143016613D01*
X119192674Y-142849469D01*
X119050530Y-142707325D01*
X118883385Y-142595642D01*
X118697669Y-142518717D01*
X118500513Y-142479500D01*
X118500511Y-142479500D01*
X118299489Y-142479500D01*
X118299486Y-142479500D01*
X118102331Y-142518717D01*
X118102329Y-142518717D01*
X117916614Y-142595642D01*
X117749467Y-142707327D01*
X117693727Y-142763067D01*
X117639210Y-142790844D01*
X117585841Y-142784528D01*
X117547669Y-142768717D01*
X117547665Y-142768716D01*
X117350513Y-142729500D01*
X117350511Y-142729500D01*
X117149489Y-142729500D01*
X117149486Y-142729500D01*
X116952331Y-142768717D01*
X116952329Y-142768717D01*
X116766615Y-142845642D01*
X116654501Y-142920554D01*
X116595613Y-142937162D01*
X116538209Y-142915984D01*
X116504217Y-142865110D01*
X116500500Y-142838238D01*
X116500500Y-142512389D01*
X116508036Y-142474504D01*
X116543731Y-142388327D01*
X116581283Y-142297669D01*
X116620500Y-142100511D01*
X116620500Y-141899489D01*
X116581283Y-141702331D01*
X116504357Y-141516614D01*
X116504357Y-141516613D01*
X116392674Y-141349469D01*
X116250530Y-141207325D01*
X116083385Y-141095642D01*
X115897669Y-141018717D01*
X115700513Y-140979500D01*
X115700511Y-140979500D01*
X115499489Y-140979500D01*
X115499486Y-140979500D01*
X115302331Y-141018717D01*
X115302329Y-141018717D01*
X115116614Y-141095642D01*
X115116613Y-141095642D01*
X114949469Y-141207325D01*
X114807325Y-141349469D01*
X114695642Y-141516613D01*
X114695642Y-141516614D01*
X114618717Y-141702329D01*
X114618717Y-141702331D01*
X114606258Y-141764966D01*
X114576361Y-141818350D01*
X114520796Y-141843966D01*
X114460786Y-141832029D01*
X114439156Y-141815656D01*
X114149061Y-141525561D01*
X114127601Y-141493442D01*
X114054357Y-141316614D01*
X114054357Y-141316613D01*
X113942674Y-141149469D01*
X113800530Y-141007325D01*
X113633385Y-140895642D01*
X113447669Y-140818717D01*
X113250513Y-140779500D01*
X113250511Y-140779500D01*
X113049489Y-140779500D01*
X113049486Y-140779500D01*
X112852331Y-140818717D01*
X112852329Y-140818717D01*
X112666614Y-140895642D01*
X112666613Y-140895642D01*
X112499469Y-141007325D01*
X112357325Y-141149469D01*
X112245642Y-141316613D01*
X112245642Y-141316614D01*
X112168717Y-141502329D01*
X112168717Y-141502331D01*
X112129500Y-141699486D01*
X112129500Y-141699489D01*
X112129500Y-141900511D01*
X112167917Y-142093649D01*
X112168717Y-142097668D01*
X112168717Y-142097670D01*
X112245642Y-142283385D01*
X112245642Y-142283386D01*
X112331570Y-142411985D01*
X112357326Y-142450531D01*
X112499469Y-142592674D01*
X112666612Y-142704356D01*
X112666613Y-142704356D01*
X112666614Y-142704357D01*
X112727315Y-142729500D01*
X112821991Y-142768716D01*
X112843442Y-142777601D01*
X112875561Y-142799061D01*
X114575964Y-144499464D01*
X114723453Y-144598012D01*
X114814851Y-144635870D01*
X114846968Y-144657330D01*
X114884758Y-144695120D01*
X114912535Y-144749637D01*
X114908198Y-144797822D01*
X114894538Y-144836857D01*
X114894535Y-144836869D01*
X114879500Y-144970305D01*
X114879500Y-145459694D01*
X114894061Y-145588915D01*
X114894061Y-145611085D01*
X114879500Y-145740305D01*
X114879500Y-146229694D01*
X114894535Y-146363130D01*
X114894537Y-146363136D01*
X114902113Y-146384788D01*
X114923944Y-146447174D01*
X114929500Y-146479873D01*
X114929500Y-146505992D01*
X114910593Y-146564183D01*
X114900504Y-146575996D01*
X112300533Y-149175967D01*
X112261064Y-149235039D01*
X112261063Y-149235040D01*
X112201985Y-149323454D01*
X112201985Y-149323455D01*
X112182993Y-149369308D01*
X112182993Y-149369309D01*
X112134104Y-149487335D01*
X112108533Y-149615896D01*
X112099500Y-149661306D01*
X112099500Y-150703433D01*
X112080593Y-150761624D01*
X112031093Y-150797588D01*
X112001788Y-150801050D01*
X112000000Y-150802703D01*
X112000000Y-151248823D01*
X111997074Y-151272715D01*
X111982382Y-151331790D01*
X111979500Y-151374287D01*
X111979500Y-151374305D01*
X111979500Y-152051001D01*
X111960594Y-152109191D01*
X111911094Y-152145155D01*
X111880501Y-152150000D01*
X111599000Y-152150000D01*
X111540809Y-152131093D01*
X111504845Y-152081593D01*
X111500000Y-152051000D01*
X111500000Y-150802703D01*
X111499999Y-150802702D01*
X111497508Y-150802900D01*
X111339798Y-150848719D01*
X111198447Y-150932314D01*
X111119504Y-151011258D01*
X111064987Y-151039035D01*
X111004555Y-151029464D01*
X110961290Y-150986199D01*
X110950500Y-150941254D01*
X110950500Y-150427610D01*
X110969407Y-150369419D01*
X110979490Y-150357612D01*
X111750489Y-149586614D01*
X111809799Y-149483887D01*
X111819022Y-149449464D01*
X111840500Y-149369309D01*
X111840500Y-145840691D01*
X111809799Y-145726114D01*
X111785452Y-145683945D01*
X111772731Y-145624098D01*
X111772849Y-145623035D01*
X111775499Y-145600191D01*
X111775500Y-145600185D01*
X111775499Y-145299816D01*
X111772646Y-145275214D01*
X111772645Y-145275212D01*
X111770691Y-145268029D01*
X111771742Y-145267743D01*
X111765500Y-145238146D01*
X111765500Y-145011852D01*
X111771744Y-144982256D01*
X111770691Y-144981970D01*
X111772643Y-144974790D01*
X111772646Y-144974786D01*
X111775500Y-144950185D01*
X111775499Y-144649816D01*
X111772646Y-144625214D01*
X111772645Y-144625212D01*
X111770691Y-144618029D01*
X111771742Y-144617743D01*
X111765500Y-144588146D01*
X111765500Y-144361852D01*
X111771744Y-144332256D01*
X111770691Y-144331970D01*
X111772643Y-144324790D01*
X111772646Y-144324786D01*
X111775500Y-144300185D01*
X111775499Y-143999816D01*
X111772646Y-143975214D01*
X111772645Y-143975212D01*
X111770691Y-143968029D01*
X111771742Y-143967743D01*
X111765500Y-143938146D01*
X111765500Y-143777140D01*
X111778764Y-143727639D01*
X111809799Y-143673886D01*
X111840500Y-143559309D01*
X111840500Y-138427611D01*
X111859407Y-138369420D01*
X111869496Y-138357607D01*
X112147607Y-138079496D01*
X112202124Y-138051719D01*
X112217611Y-138050500D01*
X117472389Y-138050500D01*
X117530580Y-138069407D01*
G37*
%TD.AperFunction*%
%TA.AperFunction,Conductor*%
G36*
X114545445Y-149574797D02*
G01*
X114588710Y-149618062D01*
X114599500Y-149663007D01*
X114599500Y-150703433D01*
X114580593Y-150761624D01*
X114531093Y-150797588D01*
X114501788Y-150801050D01*
X114500000Y-150802703D01*
X114500000Y-151248823D01*
X114497074Y-151272715D01*
X114482382Y-151331790D01*
X114479500Y-151374287D01*
X114479500Y-151374305D01*
X114479500Y-152051001D01*
X114460594Y-152109191D01*
X114411094Y-152145155D01*
X114380501Y-152150000D01*
X114119499Y-152150000D01*
X114061308Y-152131093D01*
X114025344Y-152081593D01*
X114020499Y-152051000D01*
X114020499Y-151374310D01*
X114020498Y-151374285D01*
X114017617Y-151331791D01*
X114017617Y-151331790D01*
X114002926Y-151272715D01*
X114000000Y-151248823D01*
X114000000Y-150802703D01*
X113996596Y-150799558D01*
X113947804Y-150787864D01*
X113908050Y-150741353D01*
X113900500Y-150703433D01*
X113900500Y-150164007D01*
X113919407Y-150105816D01*
X113929496Y-150094003D01*
X114430496Y-149593003D01*
X114485013Y-149565226D01*
X114545445Y-149574797D01*
G37*
%TD.AperFunction*%
%TA.AperFunction,Conductor*%
G36*
X116794945Y-148825298D02*
G01*
X116820004Y-148843504D01*
X117070504Y-149094004D01*
X117098281Y-149148521D01*
X117099500Y-149164008D01*
X117099500Y-150703433D01*
X117080593Y-150761624D01*
X117031093Y-150797588D01*
X117001788Y-150801050D01*
X117000000Y-150802703D01*
X117000000Y-151248823D01*
X116997074Y-151272715D01*
X116982382Y-151331790D01*
X116979500Y-151374287D01*
X116979500Y-151374305D01*
X116979500Y-152051001D01*
X116960594Y-152109191D01*
X116911094Y-152145155D01*
X116880501Y-152150000D01*
X116619499Y-152150000D01*
X116561308Y-152131093D01*
X116525344Y-152081593D01*
X116520499Y-152051000D01*
X116520499Y-151374310D01*
X116520498Y-151374285D01*
X116517617Y-151331791D01*
X116517617Y-151331790D01*
X116502926Y-151272715D01*
X116500000Y-151248823D01*
X116500000Y-150802703D01*
X116496596Y-150799558D01*
X116447804Y-150787864D01*
X116408050Y-150741353D01*
X116400500Y-150703433D01*
X116400500Y-149164008D01*
X116419407Y-149105817D01*
X116429496Y-149094004D01*
X116679996Y-148843504D01*
X116734513Y-148815727D01*
X116794945Y-148825298D01*
G37*
%TD.AperFunction*%
%TA.AperFunction,Conductor*%
G36*
X119069504Y-149593003D02*
G01*
X119570504Y-150094003D01*
X119598281Y-150148520D01*
X119599500Y-150164007D01*
X119599500Y-150703433D01*
X119580593Y-150761624D01*
X119531093Y-150797588D01*
X119501788Y-150801050D01*
X119500000Y-150802703D01*
X119500000Y-151248823D01*
X119497074Y-151272715D01*
X119482382Y-151331790D01*
X119479500Y-151374287D01*
X119479500Y-151374305D01*
X119479500Y-152051001D01*
X119460594Y-152109191D01*
X119411094Y-152145155D01*
X119380501Y-152150000D01*
X119119499Y-152150000D01*
X119061308Y-152131093D01*
X119025344Y-152081593D01*
X119020499Y-152051000D01*
X119020499Y-151374310D01*
X119020498Y-151374285D01*
X119017617Y-151331791D01*
X119017617Y-151331790D01*
X119002926Y-151272715D01*
X119000000Y-151248823D01*
X119000000Y-150802703D01*
X118996596Y-150799558D01*
X118947804Y-150787864D01*
X118908050Y-150741353D01*
X118900500Y-150703433D01*
X118900500Y-149663007D01*
X118919407Y-149604816D01*
X118968907Y-149568852D01*
X119030093Y-149568852D01*
X119069504Y-149593003D01*
G37*
%TD.AperFunction*%
%TA.AperFunction,Conductor*%
G36*
X126855506Y-144459776D02*
G01*
X126929452Y-144494258D01*
X126929453Y-144494258D01*
X126929455Y-144494259D01*
X126976861Y-144500500D01*
X127116001Y-144500499D01*
X127174190Y-144519406D01*
X127210154Y-144568906D01*
X127215000Y-144599499D01*
X127215000Y-144651000D01*
X127196093Y-144709191D01*
X127146593Y-144745155D01*
X127116000Y-144750000D01*
X126444912Y-144750000D01*
X126455647Y-144831538D01*
X126454607Y-144831674D01*
X126454607Y-144868325D01*
X126455647Y-144868462D01*
X126444912Y-144950000D01*
X127116000Y-144950000D01*
X127174191Y-144968907D01*
X127210155Y-145018407D01*
X127215000Y-145049000D01*
X127215000Y-145100500D01*
X127196093Y-145158691D01*
X127146593Y-145194655D01*
X127116001Y-145199500D01*
X126976866Y-145199500D01*
X126976854Y-145199501D01*
X126929455Y-145205740D01*
X126872812Y-145232153D01*
X126855505Y-145240224D01*
X126813667Y-145249500D01*
X126451197Y-145249500D01*
X126443569Y-145250000D01*
X126430216Y-145250000D01*
X126413732Y-145260250D01*
X126366019Y-145273034D01*
X126366020Y-145273035D01*
X126364714Y-145273384D01*
X126364708Y-145273387D01*
X126284790Y-145319528D01*
X125219525Y-146384793D01*
X125195758Y-146425962D01*
X125195757Y-146425965D01*
X125173387Y-146464709D01*
X125173386Y-146464711D01*
X125173386Y-146464712D01*
X125158176Y-146521479D01*
X125149500Y-146553857D01*
X125149500Y-151044013D01*
X125130593Y-151102204D01*
X125116762Y-151116035D01*
X125117168Y-151116441D01*
X125111659Y-151121949D01*
X125111658Y-151121950D01*
X125043810Y-151189798D01*
X125021949Y-151211659D01*
X124963209Y-151326942D01*
X124919944Y-151370206D01*
X124859512Y-151379777D01*
X124804996Y-151351999D01*
X124786791Y-151326942D01*
X124755010Y-151264570D01*
X124728050Y-151211658D01*
X124638342Y-151121950D01*
X124638339Y-151121948D01*
X124632832Y-151116441D01*
X124634515Y-151114757D01*
X124605344Y-151074601D01*
X124600500Y-151044013D01*
X124600500Y-145286190D01*
X124619407Y-145227999D01*
X124629496Y-145216186D01*
X125366186Y-144479496D01*
X125420703Y-144451719D01*
X125436190Y-144450500D01*
X126813667Y-144450500D01*
X126855506Y-144459776D01*
G37*
%TD.AperFunction*%
%TA.AperFunction,Conductor*%
G36*
X133408691Y-130044407D02*
G01*
X133444655Y-130093907D01*
X133449500Y-130124500D01*
X133449500Y-130224672D01*
X133449501Y-130224684D01*
X133464033Y-130297736D01*
X133464035Y-130297742D01*
X133519397Y-130380599D01*
X133519399Y-130380601D01*
X133602260Y-130435966D01*
X133657808Y-130447015D01*
X133675315Y-130450498D01*
X133675320Y-130450498D01*
X133675326Y-130450500D01*
X134250500Y-130450500D01*
X134308691Y-130469407D01*
X134344655Y-130518907D01*
X134349500Y-130549500D01*
X134349500Y-130672475D01*
X134371111Y-130753128D01*
X134387017Y-130812489D01*
X134459487Y-130938010D01*
X134459489Y-130938012D01*
X134459491Y-130938015D01*
X134561985Y-131040509D01*
X134561987Y-131040510D01*
X134561989Y-131040512D01*
X134687511Y-131112982D01*
X134687512Y-131112982D01*
X134687515Y-131112984D01*
X134827525Y-131150500D01*
X134827526Y-131150500D01*
X134972474Y-131150500D01*
X134972475Y-131150500D01*
X135112485Y-131112984D01*
X135112487Y-131112982D01*
X135112489Y-131112982D01*
X135238010Y-131040512D01*
X135238010Y-131040511D01*
X135238015Y-131040509D01*
X135330498Y-130948025D01*
X135385013Y-130920250D01*
X135445445Y-130929821D01*
X135488710Y-130973086D01*
X135499500Y-131018031D01*
X135499500Y-131501000D01*
X135480593Y-131559191D01*
X135431093Y-131595155D01*
X135400500Y-131600000D01*
X134850001Y-131600000D01*
X134850000Y-131600001D01*
X134850000Y-132551000D01*
X134831093Y-132609191D01*
X134781593Y-132645155D01*
X134751000Y-132650000D01*
X134600001Y-132650000D01*
X134600000Y-132650001D01*
X134600000Y-132801000D01*
X134581093Y-132859191D01*
X134531593Y-132895155D01*
X134501000Y-132900000D01*
X133200001Y-132900000D01*
X133200000Y-132900001D01*
X133200000Y-133101000D01*
X133181093Y-133159191D01*
X133131593Y-133195155D01*
X133101000Y-133200000D01*
X132500000Y-133200000D01*
X132500000Y-135800000D01*
X133350500Y-135800000D01*
X133408691Y-135818907D01*
X133444655Y-135868407D01*
X133449500Y-135899000D01*
X133449500Y-135925500D01*
X133430593Y-135983691D01*
X133381093Y-136019655D01*
X133350500Y-136024500D01*
X129649500Y-136024500D01*
X129591309Y-136005593D01*
X129555345Y-135956093D01*
X129550500Y-135925500D01*
X129550500Y-135899000D01*
X129569407Y-135840809D01*
X129618907Y-135804845D01*
X129649500Y-135800000D01*
X130499999Y-135800000D01*
X130500000Y-135800000D01*
X130500000Y-133200000D01*
X130499999Y-133200000D01*
X129899000Y-133200000D01*
X129840809Y-133181093D01*
X129804845Y-133131593D01*
X129800000Y-133101000D01*
X129800000Y-132900001D01*
X129799999Y-132900000D01*
X128499000Y-132900000D01*
X128440809Y-132881093D01*
X128404845Y-132831593D01*
X128400000Y-132801000D01*
X128400000Y-132650001D01*
X128399999Y-132650000D01*
X128249000Y-132650000D01*
X128190809Y-132631093D01*
X128154845Y-132581593D01*
X128150000Y-132551000D01*
X128150000Y-131600001D01*
X128650000Y-131600001D01*
X128650000Y-132399999D01*
X128650001Y-132400000D01*
X129799999Y-132400000D01*
X129800000Y-132399999D01*
X129800000Y-132052175D01*
X133200000Y-132052175D01*
X133200000Y-132399999D01*
X133200001Y-132400000D01*
X134349999Y-132400000D01*
X134350000Y-132399999D01*
X134350000Y-131600001D01*
X134349999Y-131600000D01*
X133652176Y-131600000D01*
X133592629Y-131606401D01*
X133592618Y-131606403D01*
X133457911Y-131656646D01*
X133457909Y-131656647D01*
X133342815Y-131742807D01*
X133342807Y-131742815D01*
X133256647Y-131857909D01*
X133256646Y-131857911D01*
X133206403Y-131992618D01*
X133206401Y-131992629D01*
X133200000Y-132052175D01*
X129800000Y-132052175D01*
X129793598Y-131992629D01*
X129793596Y-131992618D01*
X129743353Y-131857911D01*
X129743352Y-131857909D01*
X129657192Y-131742815D01*
X129657184Y-131742807D01*
X129542090Y-131656647D01*
X129542088Y-131656646D01*
X129407381Y-131606403D01*
X129407370Y-131606401D01*
X129347824Y-131600000D01*
X128650001Y-131600000D01*
X128650000Y-131600001D01*
X128150000Y-131600001D01*
X128149999Y-131600000D01*
X127649500Y-131600000D01*
X127591309Y-131581093D01*
X127555345Y-131531593D01*
X127550500Y-131501000D01*
X127550500Y-130549500D01*
X127569407Y-130491309D01*
X127618907Y-130455345D01*
X127649500Y-130450500D01*
X129324673Y-130450500D01*
X129324674Y-130450500D01*
X129397740Y-130435966D01*
X129480601Y-130380601D01*
X129535966Y-130297740D01*
X129550500Y-130224674D01*
X129550500Y-130124500D01*
X129569407Y-130066309D01*
X129618907Y-130030345D01*
X129649500Y-130025500D01*
X133350500Y-130025500D01*
X133408691Y-130044407D01*
G37*
%TD.AperFunction*%
%TD*%
M02*
