%TF.GenerationSoftware,KiCad,Pcbnew,10.0.6-10.0.6~ubuntu24.04.1*%
%TF.CreationDate,2026-10-04T15:30:33-04:00*%
%TF.ProjectId,RadioBoard2027,52616469-6f42-46f6-9172-64323032372e,rev?*%
%TF.SameCoordinates,Original*%
%TF.FileFunction,Soldermask,Top*%
%TF.FilePolarity,Negative*%
%FSLAX46Y46*%
G04 Gerber Fmt 4.6, Leading zero omitted, Abs format (unit mm)*
G04 Created by KiCad (PCBNEW 10.0.6-10.0.6~ubuntu24.04.1) date 2026-10-04 15:30:33*
%MOMM*%
%LPD*%
G01*
G04 APERTURE LIST*
G04 Aperture macros list*
%AMRoundRect*
0 Rectangle with rounded corners*
0 $1 Rounding radius*
0 $2 $3 $4 $5 $6 $7 $8 $9 X,Y pos of 4 corners*
0 Add a 4 corners polygon primitive as box body*
4,1,4,$2,$3,$4,$5,$6,$7,$8,$9,$2,$3,0*
0 Add four circle primitives for the rounded corners*
1,1,$1+$1,$2,$3*
1,1,$1+$1,$4,$5*
1,1,$1+$1,$6,$7*
1,1,$1+$1,$8,$9*
0 Add four rect primitives between the rounded corners*
20,1,$1+$1,$2,$3,$4,$5,0*
20,1,$1+$1,$4,$5,$6,$7,0*
20,1,$1+$1,$6,$7,$8,$9,0*
20,1,$1+$1,$8,$9,$2,$3,0*%
G04 Aperture macros list end*
%ADD10RoundRect,0.185000X-0.135000X-0.185000X0.135000X-0.185000X0.135000X0.185000X-0.135000X0.185000X0*%
%ADD11RoundRect,0.275000X0.225000X0.250000X-0.225000X0.250000X-0.225000X-0.250000X0.225000X-0.250000X0*%
%ADD12RoundRect,0.100000X-0.285000X-0.100000X0.285000X-0.100000X0.285000X0.100000X-0.285000X0.100000X0*%
%ADD13RoundRect,0.050000X-0.900000X-0.550000X0.900000X-0.550000X0.900000X0.550000X-0.900000X0.550000X0*%
%ADD14RoundRect,0.200000X-0.150000X-0.700000X0.150000X-0.700000X0.150000X0.700000X-0.150000X0.700000X0*%
%ADD15RoundRect,0.300000X-0.250000X-1.150000X0.250000X-1.150000X0.250000X1.150000X-0.250000X1.150000X0*%
%ADD16RoundRect,0.275000X0.250000X-0.225000X0.250000X0.225000X-0.250000X0.225000X-0.250000X-0.225000X0*%
%ADD17RoundRect,0.125000X-0.200000X0.075000X-0.200000X-0.075000X0.200000X-0.075000X0.200000X0.075000X0*%
%ADD18RoundRect,0.190000X-0.170000X0.140000X-0.170000X-0.140000X0.170000X-0.140000X0.170000X0.140000X0*%
%ADD19C,2.300000*%
%ADD20RoundRect,0.190000X0.170000X-0.140000X0.170000X0.140000X-0.170000X0.140000X-0.170000X-0.140000X0*%
%ADD21RoundRect,0.300000X0.475000X-0.250000X0.475000X0.250000X-0.475000X0.250000X-0.475000X-0.250000X0*%
%ADD22RoundRect,0.268750X-0.218750X-0.256250X0.218750X-0.256250X0.218750X0.256250X-0.218750X0.256250X0*%
%ADD23RoundRect,0.200000X0.150000X-0.512500X0.150000X0.512500X-0.150000X0.512500X-0.150000X-0.512500X0*%
%ADD24RoundRect,0.143750X0.106250X-0.093750X0.106250X0.093750X-0.106250X0.093750X-0.106250X-0.093750X0*%
%ADD25RoundRect,0.050000X0.800000X-0.500000X0.800000X0.500000X-0.800000X0.500000X-0.800000X-0.500000X0*%
%ADD26RoundRect,0.185000X-0.185000X0.135000X-0.185000X-0.135000X0.185000X-0.135000X0.185000X0.135000X0*%
%ADD27RoundRect,0.300000X0.312500X1.450000X-0.312500X1.450000X-0.312500X-1.450000X0.312500X-1.450000X0*%
%ADD28RoundRect,0.425000X-0.625000X-0.375000X0.625000X-0.375000X0.625000X0.375000X-0.625000X0.375000X0*%
%ADD29RoundRect,0.550000X-0.500000X-1.400000X0.500000X-1.400000X0.500000X1.400000X-0.500000X1.400000X0*%
%ADD30RoundRect,0.185000X0.135000X0.185000X-0.135000X0.185000X-0.135000X-0.185000X0.135000X-0.185000X0*%
%ADD31RoundRect,0.185000X0.185000X-0.135000X0.185000X0.135000X-0.185000X0.135000X-0.185000X-0.135000X0*%
%ADD32C,1.100000*%
%ADD33RoundRect,0.143750X-0.093750X-0.106250X0.093750X-0.106250X0.093750X0.106250X-0.093750X0.106250X0*%
%ADD34RoundRect,0.050000X-0.500000X-0.800000X0.500000X-0.800000X0.500000X0.800000X-0.500000X0.800000X0*%
%ADD35RoundRect,0.125000X-0.075000X-0.200000X0.075000X-0.200000X0.075000X0.200000X-0.075000X0.200000X0*%
%ADD36RoundRect,0.190000X-0.140000X-0.170000X0.140000X-0.170000X0.140000X0.170000X-0.140000X0.170000X0*%
%ADD37RoundRect,0.190000X0.140000X0.170000X-0.140000X0.170000X-0.140000X-0.170000X0.140000X-0.170000X0*%
%ADD38RoundRect,0.050000X-0.750000X-0.450000X0.750000X-0.450000X0.750000X0.450000X-0.750000X0.450000X0*%
%ADD39RoundRect,0.050000X0.750000X0.450000X-0.750000X0.450000X-0.750000X-0.450000X0.750000X-0.450000X0*%
%ADD40RoundRect,0.050000X0.650000X0.650000X-0.650000X0.650000X-0.650000X-0.650000X0.650000X-0.650000X0*%
%ADD41RoundRect,0.050000X0.450000X-0.750000X0.450000X0.750000X-0.450000X0.750000X-0.450000X-0.750000X0*%
%ADD42C,0.750000*%
%ADD43RoundRect,0.200000X-0.425000X0.150000X-0.425000X-0.150000X0.425000X-0.150000X0.425000X0.150000X0*%
%ADD44RoundRect,0.125000X-0.500000X0.075000X-0.500000X-0.075000X0.500000X-0.075000X0.500000X0.075000X0*%
%ADD45RoundRect,0.300000X-0.750000X0.840000X-0.750000X-0.840000X0.750000X-0.840000X0.750000X0.840000X0*%
G04 APERTURE END LIST*
D10*
%TO.C,R7*%
X128490000Y-107100000D03*
X129510000Y-107100000D03*
%TD*%
D11*
%TO.C,C6*%
X121775000Y-134300000D03*
X120225000Y-134300000D03*
%TD*%
D12*
%TO.C,U3*%
X121760000Y-137750000D03*
X121760000Y-138250000D03*
X121760000Y-138750000D03*
X121760000Y-139250000D03*
X123240000Y-139250000D03*
X123240000Y-138750000D03*
X123240000Y-138250000D03*
X123240000Y-137750000D03*
%TD*%
D13*
%TO.C,SW2*%
X128400000Y-132650000D03*
X134600000Y-132650000D03*
X128400000Y-136350000D03*
X134600000Y-136350000D03*
%TD*%
D14*
%TO.C,J2*%
X109250000Y-152150000D03*
X110500000Y-152150000D03*
X111750000Y-152150000D03*
X113000000Y-152150000D03*
X114250000Y-152150000D03*
X115500000Y-152150000D03*
X116750000Y-152150000D03*
X118000000Y-152150000D03*
X119250000Y-152150000D03*
X120500000Y-152150000D03*
X121750000Y-152150000D03*
X123000000Y-152150000D03*
X124250000Y-152150000D03*
X125500000Y-152150000D03*
X126750000Y-152150000D03*
D15*
X107400000Y-148800000D03*
X128600000Y-148800000D03*
%TD*%
D16*
%TO.C,C7*%
X119600000Y-139275000D03*
X119600000Y-137725000D03*
%TD*%
D17*
%TO.C,U6*%
X127215000Y-143600000D03*
X127215000Y-144100000D03*
X127215000Y-144600000D03*
X127215000Y-145100000D03*
X127215000Y-145600000D03*
X127985000Y-145600000D03*
X127985000Y-145100000D03*
X127985000Y-144600000D03*
X127985000Y-144100000D03*
X127985000Y-143600000D03*
%TD*%
D18*
%TO.C,C3*%
X104400000Y-105820000D03*
X104400000Y-106780000D03*
%TD*%
D19*
%TO.C,H1*%
X103000000Y-103000000D03*
%TD*%
D10*
%TO.C,R12*%
X120990000Y-141800000D03*
X122010000Y-141800000D03*
%TD*%
%TO.C,R14*%
X124990000Y-141800000D03*
X126010000Y-141800000D03*
%TD*%
D20*
%TO.C,C9*%
X127800000Y-138980000D03*
X127800000Y-138020000D03*
%TD*%
D10*
%TO.C,R15*%
X131990000Y-119000000D03*
X133010000Y-119000000D03*
%TD*%
D21*
%TO.C,C1*%
X107000000Y-103250000D03*
X107000000Y-101350000D03*
%TD*%
D22*
%TO.C,D1*%
X131712500Y-112000000D03*
X133287500Y-112000000D03*
%TD*%
D23*
%TO.C,U2*%
X109350000Y-126937500D03*
X110300000Y-126937500D03*
X111250000Y-126937500D03*
X111250000Y-124662500D03*
X110300000Y-124662500D03*
X109350000Y-124662500D03*
%TD*%
D24*
%TO.C,D2*%
X109950000Y-135887500D03*
X110600000Y-135887500D03*
X111250000Y-135887500D03*
X111250000Y-134112500D03*
X110600000Y-134112500D03*
X109950000Y-134112500D03*
D25*
X110600000Y-135000000D03*
%TD*%
D26*
%TO.C,R5*%
X106600000Y-120190000D03*
X106600000Y-121210000D03*
%TD*%
D27*
%TO.C,F1*%
X117137500Y-134500000D03*
X112862500Y-134500000D03*
%TD*%
D28*
%TO.C,U4*%
X118650000Y-126500000D03*
X118650000Y-128800000D03*
D29*
X124950000Y-128800000D03*
D28*
X118650000Y-131100000D03*
%TD*%
D30*
%TO.C,R10*%
X108510000Y-138400000D03*
X107490000Y-138400000D03*
%TD*%
D31*
%TO.C,R1*%
X105600000Y-106850000D03*
X105600000Y-105830000D03*
%TD*%
D10*
%TO.C,R3*%
X129390000Y-121500000D03*
X130410000Y-121500000D03*
%TD*%
D19*
%TO.C,H3*%
X103000000Y-151000000D03*
%TD*%
D32*
%TO.C,TP1*%
X131000000Y-106300000D03*
%TD*%
D10*
%TO.C,R11*%
X118990000Y-141800000D03*
X120010000Y-141800000D03*
%TD*%
D33*
%TO.C,D4*%
X109612500Y-144150000D03*
X109612500Y-144800000D03*
X109612500Y-145450000D03*
X111387500Y-145450000D03*
X111387500Y-144800000D03*
X111387500Y-144150000D03*
D34*
X110500000Y-144800000D03*
%TD*%
D32*
%TO.C,TP2*%
X131000000Y-108370000D03*
%TD*%
D35*
%TO.C,U5*%
X115750000Y-145985000D03*
X116250000Y-145985000D03*
X116750000Y-145985000D03*
X117250000Y-145985000D03*
X117750000Y-145985000D03*
X117750000Y-145215000D03*
X117250000Y-145215000D03*
X116750000Y-145215000D03*
X116250000Y-145215000D03*
X115750000Y-145215000D03*
%TD*%
D21*
%TO.C,C8*%
X125800000Y-139450000D03*
X125800000Y-137550000D03*
%TD*%
D10*
%TO.C,R4*%
X106690000Y-107100000D03*
X107710000Y-107100000D03*
%TD*%
D19*
%TO.C,H2*%
X133000000Y-103000000D03*
%TD*%
D22*
%TO.C,D3*%
X131712500Y-117000000D03*
X133287500Y-117000000D03*
%TD*%
D19*
%TO.C,H4*%
X133000000Y-151000000D03*
%TD*%
D10*
%TO.C,R2*%
X102390000Y-106400000D03*
X103410000Y-106400000D03*
%TD*%
D36*
%TO.C,C4*%
X131520000Y-121500000D03*
X132480000Y-121500000D03*
%TD*%
D37*
%TO.C,C2*%
X107980000Y-104560000D03*
X107020000Y-104560000D03*
%TD*%
D10*
%TO.C,R9*%
X112490000Y-129000000D03*
X113510000Y-129000000D03*
%TD*%
D26*
%TO.C,R6*%
X107800000Y-120190000D03*
X107800000Y-121210000D03*
%TD*%
D13*
%TO.C,SW1*%
X128400000Y-125950000D03*
X134600000Y-125950000D03*
X128400000Y-129650000D03*
X134600000Y-129650000D03*
%TD*%
D38*
%TO.C,U1*%
X109500000Y-103290000D03*
X109500000Y-104560000D03*
X109500000Y-105830000D03*
X109500000Y-107100000D03*
X109500000Y-108370000D03*
X109500000Y-109640000D03*
X109500000Y-110910000D03*
X109500000Y-112180000D03*
X109500000Y-113450000D03*
X109500000Y-114720000D03*
X109500000Y-115990000D03*
X109500000Y-117260000D03*
X109500000Y-118530000D03*
X109500000Y-119800000D03*
D39*
X127000000Y-119800000D03*
X127000000Y-118530000D03*
X127000000Y-117260000D03*
X127000000Y-115990000D03*
X127000000Y-114720000D03*
X127000000Y-113450000D03*
X127000000Y-112180000D03*
X127000000Y-110910000D03*
X127000000Y-109640000D03*
X127000000Y-108370000D03*
X127000000Y-107100000D03*
X127000000Y-105830000D03*
X127000000Y-104560000D03*
X127000000Y-103290000D03*
D40*
X117379800Y-110178000D03*
X117379800Y-111878000D03*
X117379800Y-113578000D03*
X119079800Y-110178000D03*
X119079800Y-111878000D03*
X119079800Y-113578000D03*
X120779800Y-110178000D03*
X120779800Y-111878000D03*
X120779800Y-113578000D03*
D41*
X122250000Y-101850000D03*
X120980000Y-101850000D03*
X119710000Y-101850000D03*
%TD*%
D42*
%TO.C,J1*%
X106285000Y-128110000D03*
X106285000Y-133890000D03*
D43*
X107360000Y-127800000D03*
X107360000Y-128600000D03*
D44*
X107360000Y-129750000D03*
X107360000Y-130750000D03*
X107360000Y-131250000D03*
X107360000Y-132250000D03*
D43*
X107360000Y-133400000D03*
X107360000Y-134200000D03*
X107360000Y-134200000D03*
X107360000Y-133400000D03*
D44*
X107360000Y-132750000D03*
X107360000Y-131750000D03*
X107360000Y-130250000D03*
X107360000Y-129250000D03*
D43*
X107360000Y-128600000D03*
X107360000Y-127800000D03*
D45*
X106785000Y-125890000D03*
X102855000Y-125890000D03*
X106785000Y-136110000D03*
X102855000Y-136110000D03*
%TD*%
D10*
%TO.C,R8*%
X131990000Y-114000000D03*
X133010000Y-114000000D03*
%TD*%
%TO.C,R13*%
X122990000Y-141800000D03*
X124010000Y-141800000D03*
%TD*%
D21*
%TO.C,C5*%
X115600000Y-127350000D03*
X115600000Y-125450000D03*
%TD*%
M02*
