%TF.GenerationSoftware,KiCad,Pcbnew,10.0.6-10.0.6~ubuntu24.04.1*%
%TF.CreationDate,2026-10-04T15:30:33-04:00*%
%TF.ProjectId,RadioBoard2027,52616469-6f42-46f6-9172-64323032372e,rev?*%
%TF.SameCoordinates,Original*%
%TF.FileFunction,Legend,Bot*%
%TF.FilePolarity,Positive*%
%FSLAX46Y46*%
G04 Gerber Fmt 4.6, Leading zero omitted, Abs format (unit mm)*
G04 Created by KiCad (PCBNEW 10.0.6-10.0.6~ubuntu24.04.1) date 2026-10-04 15:30:33*
%MOMM*%
%LPD*%
G01*
G04 APERTURE LIST*
%ADD10C,0.150000*%
%ADD11C,2.300000*%
%ADD12C,0.750000*%
G04 APERTURE END LIST*
D10*
X125666667Y-147454819D02*
X126000000Y-146978628D01*
X126238095Y-147454819D02*
X126238095Y-146454819D01*
X126238095Y-146454819D02*
X125857143Y-146454819D01*
X125857143Y-146454819D02*
X125761905Y-146502438D01*
X125761905Y-146502438D02*
X125714286Y-146550057D01*
X125714286Y-146550057D02*
X125666667Y-146645295D01*
X125666667Y-146645295D02*
X125666667Y-146788152D01*
X125666667Y-146788152D02*
X125714286Y-146883390D01*
X125714286Y-146883390D02*
X125761905Y-146931009D01*
X125761905Y-146931009D02*
X125857143Y-146978628D01*
X125857143Y-146978628D02*
X126238095Y-146978628D01*
X124809524Y-147454819D02*
X124809524Y-146931009D01*
X124809524Y-146931009D02*
X124857143Y-146835771D01*
X124857143Y-146835771D02*
X124952381Y-146788152D01*
X124952381Y-146788152D02*
X125142857Y-146788152D01*
X125142857Y-146788152D02*
X125238095Y-146835771D01*
X124809524Y-147407200D02*
X124904762Y-147454819D01*
X124904762Y-147454819D02*
X125142857Y-147454819D01*
X125142857Y-147454819D02*
X125238095Y-147407200D01*
X125238095Y-147407200D02*
X125285714Y-147311961D01*
X125285714Y-147311961D02*
X125285714Y-147216723D01*
X125285714Y-147216723D02*
X125238095Y-147121485D01*
X125238095Y-147121485D02*
X125142857Y-147073866D01*
X125142857Y-147073866D02*
X124904762Y-147073866D01*
X124904762Y-147073866D02*
X124809524Y-147026247D01*
X123904762Y-147454819D02*
X123904762Y-146454819D01*
X123904762Y-147407200D02*
X124000000Y-147454819D01*
X124000000Y-147454819D02*
X124190476Y-147454819D01*
X124190476Y-147454819D02*
X124285714Y-147407200D01*
X124285714Y-147407200D02*
X124333333Y-147359580D01*
X124333333Y-147359580D02*
X124380952Y-147264342D01*
X124380952Y-147264342D02*
X124380952Y-146978628D01*
X124380952Y-146978628D02*
X124333333Y-146883390D01*
X124333333Y-146883390D02*
X124285714Y-146835771D01*
X124285714Y-146835771D02*
X124190476Y-146788152D01*
X124190476Y-146788152D02*
X124000000Y-146788152D01*
X124000000Y-146788152D02*
X123904762Y-146835771D01*
X123428571Y-147454819D02*
X123428571Y-146788152D01*
X123428571Y-146454819D02*
X123476190Y-146502438D01*
X123476190Y-146502438D02*
X123428571Y-146550057D01*
X123428571Y-146550057D02*
X123380952Y-146502438D01*
X123380952Y-146502438D02*
X123428571Y-146454819D01*
X123428571Y-146454819D02*
X123428571Y-146550057D01*
X122809524Y-147454819D02*
X122904762Y-147407200D01*
X122904762Y-147407200D02*
X122952381Y-147359580D01*
X122952381Y-147359580D02*
X123000000Y-147264342D01*
X123000000Y-147264342D02*
X123000000Y-146978628D01*
X123000000Y-146978628D02*
X122952381Y-146883390D01*
X122952381Y-146883390D02*
X122904762Y-146835771D01*
X122904762Y-146835771D02*
X122809524Y-146788152D01*
X122809524Y-146788152D02*
X122666667Y-146788152D01*
X122666667Y-146788152D02*
X122571429Y-146835771D01*
X122571429Y-146835771D02*
X122523810Y-146883390D01*
X122523810Y-146883390D02*
X122476191Y-146978628D01*
X122476191Y-146978628D02*
X122476191Y-147264342D01*
X122476191Y-147264342D02*
X122523810Y-147359580D01*
X122523810Y-147359580D02*
X122571429Y-147407200D01*
X122571429Y-147407200D02*
X122666667Y-147454819D01*
X122666667Y-147454819D02*
X122809524Y-147454819D01*
X121714286Y-146931009D02*
X121571429Y-146978628D01*
X121571429Y-146978628D02*
X121523810Y-147026247D01*
X121523810Y-147026247D02*
X121476191Y-147121485D01*
X121476191Y-147121485D02*
X121476191Y-147264342D01*
X121476191Y-147264342D02*
X121523810Y-147359580D01*
X121523810Y-147359580D02*
X121571429Y-147407200D01*
X121571429Y-147407200D02*
X121666667Y-147454819D01*
X121666667Y-147454819D02*
X122047619Y-147454819D01*
X122047619Y-147454819D02*
X122047619Y-146454819D01*
X122047619Y-146454819D02*
X121714286Y-146454819D01*
X121714286Y-146454819D02*
X121619048Y-146502438D01*
X121619048Y-146502438D02*
X121571429Y-146550057D01*
X121571429Y-146550057D02*
X121523810Y-146645295D01*
X121523810Y-146645295D02*
X121523810Y-146740533D01*
X121523810Y-146740533D02*
X121571429Y-146835771D01*
X121571429Y-146835771D02*
X121619048Y-146883390D01*
X121619048Y-146883390D02*
X121714286Y-146931009D01*
X121714286Y-146931009D02*
X122047619Y-146931009D01*
X120904762Y-147454819D02*
X121000000Y-147407200D01*
X121000000Y-147407200D02*
X121047619Y-147359580D01*
X121047619Y-147359580D02*
X121095238Y-147264342D01*
X121095238Y-147264342D02*
X121095238Y-146978628D01*
X121095238Y-146978628D02*
X121047619Y-146883390D01*
X121047619Y-146883390D02*
X121000000Y-146835771D01*
X121000000Y-146835771D02*
X120904762Y-146788152D01*
X120904762Y-146788152D02*
X120761905Y-146788152D01*
X120761905Y-146788152D02*
X120666667Y-146835771D01*
X120666667Y-146835771D02*
X120619048Y-146883390D01*
X120619048Y-146883390D02*
X120571429Y-146978628D01*
X120571429Y-146978628D02*
X120571429Y-147264342D01*
X120571429Y-147264342D02*
X120619048Y-147359580D01*
X120619048Y-147359580D02*
X120666667Y-147407200D01*
X120666667Y-147407200D02*
X120761905Y-147454819D01*
X120761905Y-147454819D02*
X120904762Y-147454819D01*
X119714286Y-147454819D02*
X119714286Y-146931009D01*
X119714286Y-146931009D02*
X119761905Y-146835771D01*
X119761905Y-146835771D02*
X119857143Y-146788152D01*
X119857143Y-146788152D02*
X120047619Y-146788152D01*
X120047619Y-146788152D02*
X120142857Y-146835771D01*
X119714286Y-147407200D02*
X119809524Y-147454819D01*
X119809524Y-147454819D02*
X120047619Y-147454819D01*
X120047619Y-147454819D02*
X120142857Y-147407200D01*
X120142857Y-147407200D02*
X120190476Y-147311961D01*
X120190476Y-147311961D02*
X120190476Y-147216723D01*
X120190476Y-147216723D02*
X120142857Y-147121485D01*
X120142857Y-147121485D02*
X120047619Y-147073866D01*
X120047619Y-147073866D02*
X119809524Y-147073866D01*
X119809524Y-147073866D02*
X119714286Y-147026247D01*
X119238095Y-147454819D02*
X119238095Y-146788152D01*
X119238095Y-146978628D02*
X119190476Y-146883390D01*
X119190476Y-146883390D02*
X119142857Y-146835771D01*
X119142857Y-146835771D02*
X119047619Y-146788152D01*
X119047619Y-146788152D02*
X118952381Y-146788152D01*
X118190476Y-147454819D02*
X118190476Y-146454819D01*
X118190476Y-147407200D02*
X118285714Y-147454819D01*
X118285714Y-147454819D02*
X118476190Y-147454819D01*
X118476190Y-147454819D02*
X118571428Y-147407200D01*
X118571428Y-147407200D02*
X118619047Y-147359580D01*
X118619047Y-147359580D02*
X118666666Y-147264342D01*
X118666666Y-147264342D02*
X118666666Y-146978628D01*
X118666666Y-146978628D02*
X118619047Y-146883390D01*
X118619047Y-146883390D02*
X118571428Y-146835771D01*
X118571428Y-146835771D02*
X118476190Y-146788152D01*
X118476190Y-146788152D02*
X118285714Y-146788152D01*
X118285714Y-146788152D02*
X118190476Y-146835771D01*
X117761904Y-146550057D02*
X117714285Y-146502438D01*
X117714285Y-146502438D02*
X117619047Y-146454819D01*
X117619047Y-146454819D02*
X117380952Y-146454819D01*
X117380952Y-146454819D02*
X117285714Y-146502438D01*
X117285714Y-146502438D02*
X117238095Y-146550057D01*
X117238095Y-146550057D02*
X117190476Y-146645295D01*
X117190476Y-146645295D02*
X117190476Y-146740533D01*
X117190476Y-146740533D02*
X117238095Y-146883390D01*
X117238095Y-146883390D02*
X117809523Y-147454819D01*
X117809523Y-147454819D02*
X117190476Y-147454819D01*
X116571428Y-146454819D02*
X116476190Y-146454819D01*
X116476190Y-146454819D02*
X116380952Y-146502438D01*
X116380952Y-146502438D02*
X116333333Y-146550057D01*
X116333333Y-146550057D02*
X116285714Y-146645295D01*
X116285714Y-146645295D02*
X116238095Y-146835771D01*
X116238095Y-146835771D02*
X116238095Y-147073866D01*
X116238095Y-147073866D02*
X116285714Y-147264342D01*
X116285714Y-147264342D02*
X116333333Y-147359580D01*
X116333333Y-147359580D02*
X116380952Y-147407200D01*
X116380952Y-147407200D02*
X116476190Y-147454819D01*
X116476190Y-147454819D02*
X116571428Y-147454819D01*
X116571428Y-147454819D02*
X116666666Y-147407200D01*
X116666666Y-147407200D02*
X116714285Y-147359580D01*
X116714285Y-147359580D02*
X116761904Y-147264342D01*
X116761904Y-147264342D02*
X116809523Y-147073866D01*
X116809523Y-147073866D02*
X116809523Y-146835771D01*
X116809523Y-146835771D02*
X116761904Y-146645295D01*
X116761904Y-146645295D02*
X116714285Y-146550057D01*
X116714285Y-146550057D02*
X116666666Y-146502438D01*
X116666666Y-146502438D02*
X116571428Y-146454819D01*
X115857142Y-146550057D02*
X115809523Y-146502438D01*
X115809523Y-146502438D02*
X115714285Y-146454819D01*
X115714285Y-146454819D02*
X115476190Y-146454819D01*
X115476190Y-146454819D02*
X115380952Y-146502438D01*
X115380952Y-146502438D02*
X115333333Y-146550057D01*
X115333333Y-146550057D02*
X115285714Y-146645295D01*
X115285714Y-146645295D02*
X115285714Y-146740533D01*
X115285714Y-146740533D02*
X115333333Y-146883390D01*
X115333333Y-146883390D02*
X115904761Y-147454819D01*
X115904761Y-147454819D02*
X115285714Y-147454819D01*
X114952380Y-146454819D02*
X114285714Y-146454819D01*
X114285714Y-146454819D02*
X114714285Y-147454819D01*
X113142856Y-147454819D02*
X113142856Y-146788152D01*
X113142856Y-146978628D02*
X113095237Y-146883390D01*
X113095237Y-146883390D02*
X113047618Y-146835771D01*
X113047618Y-146835771D02*
X112952380Y-146788152D01*
X112952380Y-146788152D02*
X112857142Y-146788152D01*
X112142856Y-147407200D02*
X112238094Y-147454819D01*
X112238094Y-147454819D02*
X112428570Y-147454819D01*
X112428570Y-147454819D02*
X112523808Y-147407200D01*
X112523808Y-147407200D02*
X112571427Y-147311961D01*
X112571427Y-147311961D02*
X112571427Y-146931009D01*
X112571427Y-146931009D02*
X112523808Y-146835771D01*
X112523808Y-146835771D02*
X112428570Y-146788152D01*
X112428570Y-146788152D02*
X112238094Y-146788152D01*
X112238094Y-146788152D02*
X112142856Y-146835771D01*
X112142856Y-146835771D02*
X112095237Y-146931009D01*
X112095237Y-146931009D02*
X112095237Y-147026247D01*
X112095237Y-147026247D02*
X112571427Y-147121485D01*
X111761903Y-146788152D02*
X111523808Y-147454819D01*
X111523808Y-147454819D02*
X111285713Y-146788152D01*
X110190474Y-147169104D02*
X109714284Y-147169104D01*
X110285712Y-147454819D02*
X109952379Y-146454819D01*
X109952379Y-146454819D02*
X109619046Y-147454819D01*
%LPC*%
D11*
%TO.C,H1*%
X103000000Y-103000000D03*
%TD*%
%TO.C,H3*%
X103000000Y-151000000D03*
%TD*%
%TO.C,H2*%
X133000000Y-103000000D03*
%TD*%
%TO.C,H4*%
X133000000Y-151000000D03*
%TD*%
D12*
%TO.C,J1*%
X106285000Y-128110000D03*
X106285000Y-133890000D03*
%TD*%
%LPD*%
M02*
