%TF.GenerationSoftware,KiCad,Pcbnew,10.0.6-10.0.6~ubuntu24.04.1*%
%TF.CreationDate,2026-10-04T15:30:33-04:00*%
%TF.ProjectId,RadioBoard2027,52616469-6f42-46f6-9172-64323032372e,rev?*%
%TF.SameCoordinates,Original*%
%TF.FileFunction,Legend,Top*%
%TF.FilePolarity,Positive*%
%FSLAX46Y46*%
G04 Gerber Fmt 4.6, Leading zero omitted, Abs format (unit mm)*
G04 Created by KiCad (PCBNEW 10.0.6-10.0.6~ubuntu24.04.1) date 2026-10-04 15:30:33*
%MOMM*%
%LPD*%
G01*
G04 APERTURE LIST*
G04 Aperture macros list*
%AMRoundRect*
0 Rectangle with rounded corners*
0 $1 Rounding radius*
0 $2 $3 $4 $5 $6 $7 $8 $9 X,Y pos of 4 corners*
0 Add a 4 corners polygon primitive as box body*
4,1,4,$2,$3,$4,$5,$6,$7,$8,$9,$2,$3,0*
0 Add four circle primitives for the rounded corners*
1,1,$1+$1,$2,$3*
1,1,$1+$1,$4,$5*
1,1,$1+$1,$6,$7*
1,1,$1+$1,$8,$9*
0 Add four rect primitives between the rounded corners*
20,1,$1+$1,$2,$3,$4,$5,0*
20,1,$1+$1,$4,$5,$6,$7,0*
20,1,$1+$1,$6,$7,$8,$9,0*
20,1,$1+$1,$8,$9,$2,$3,0*%
G04 Aperture macros list end*
%ADD10C,0.105000*%
%ADD11C,0.120000*%
%ADD12C,0.150000*%
%ADD13C,0.125000*%
%ADD14C,0.100000*%
%ADD15RoundRect,0.185000X-0.135000X-0.185000X0.135000X-0.185000X0.135000X0.185000X-0.135000X0.185000X0*%
%ADD16RoundRect,0.275000X0.225000X0.250000X-0.225000X0.250000X-0.225000X-0.250000X0.225000X-0.250000X0*%
%ADD17RoundRect,0.100000X-0.285000X-0.100000X0.285000X-0.100000X0.285000X0.100000X-0.285000X0.100000X0*%
%ADD18RoundRect,0.050000X-0.900000X-0.550000X0.900000X-0.550000X0.900000X0.550000X-0.900000X0.550000X0*%
%ADD19RoundRect,0.200000X-0.150000X-0.700000X0.150000X-0.700000X0.150000X0.700000X-0.150000X0.700000X0*%
%ADD20RoundRect,0.300000X-0.250000X-1.150000X0.250000X-1.150000X0.250000X1.150000X-0.250000X1.150000X0*%
%ADD21RoundRect,0.275000X0.250000X-0.225000X0.250000X0.225000X-0.250000X0.225000X-0.250000X-0.225000X0*%
%ADD22RoundRect,0.125000X-0.200000X0.075000X-0.200000X-0.075000X0.200000X-0.075000X0.200000X0.075000X0*%
%ADD23RoundRect,0.190000X-0.170000X0.140000X-0.170000X-0.140000X0.170000X-0.140000X0.170000X0.140000X0*%
%ADD24C,2.300000*%
%ADD25RoundRect,0.190000X0.170000X-0.140000X0.170000X0.140000X-0.170000X0.140000X-0.170000X-0.140000X0*%
%ADD26RoundRect,0.300000X0.475000X-0.250000X0.475000X0.250000X-0.475000X0.250000X-0.475000X-0.250000X0*%
%ADD27RoundRect,0.268750X-0.218750X-0.256250X0.218750X-0.256250X0.218750X0.256250X-0.218750X0.256250X0*%
%ADD28RoundRect,0.200000X0.150000X-0.512500X0.150000X0.512500X-0.150000X0.512500X-0.150000X-0.512500X0*%
%ADD29RoundRect,0.143750X0.106250X-0.093750X0.106250X0.093750X-0.106250X0.093750X-0.106250X-0.093750X0*%
%ADD30RoundRect,0.050000X0.800000X-0.500000X0.800000X0.500000X-0.800000X0.500000X-0.800000X-0.500000X0*%
%ADD31RoundRect,0.185000X-0.185000X0.135000X-0.185000X-0.135000X0.185000X-0.135000X0.185000X0.135000X0*%
%ADD32RoundRect,0.300000X0.312500X1.450000X-0.312500X1.450000X-0.312500X-1.450000X0.312500X-1.450000X0*%
%ADD33RoundRect,0.425000X-0.625000X-0.375000X0.625000X-0.375000X0.625000X0.375000X-0.625000X0.375000X0*%
%ADD34RoundRect,0.550000X-0.500000X-1.400000X0.500000X-1.400000X0.500000X1.400000X-0.500000X1.400000X0*%
%ADD35RoundRect,0.185000X0.135000X0.185000X-0.135000X0.185000X-0.135000X-0.185000X0.135000X-0.185000X0*%
%ADD36RoundRect,0.185000X0.185000X-0.135000X0.185000X0.135000X-0.185000X0.135000X-0.185000X-0.135000X0*%
%ADD37C,1.100000*%
%ADD38RoundRect,0.143750X-0.093750X-0.106250X0.093750X-0.106250X0.093750X0.106250X-0.093750X0.106250X0*%
%ADD39RoundRect,0.050000X-0.500000X-0.800000X0.500000X-0.800000X0.500000X0.800000X-0.500000X0.800000X0*%
%ADD40RoundRect,0.125000X-0.075000X-0.200000X0.075000X-0.200000X0.075000X0.200000X-0.075000X0.200000X0*%
%ADD41RoundRect,0.190000X-0.140000X-0.170000X0.140000X-0.170000X0.140000X0.170000X-0.140000X0.170000X0*%
%ADD42RoundRect,0.190000X0.140000X0.170000X-0.140000X0.170000X-0.140000X-0.170000X0.140000X-0.170000X0*%
%ADD43RoundRect,0.050000X-0.750000X-0.450000X0.750000X-0.450000X0.750000X0.450000X-0.750000X0.450000X0*%
%ADD44RoundRect,0.050000X0.750000X0.450000X-0.750000X0.450000X-0.750000X-0.450000X0.750000X-0.450000X0*%
%ADD45RoundRect,0.050000X0.650000X0.650000X-0.650000X0.650000X-0.650000X-0.650000X0.650000X-0.650000X0*%
%ADD46RoundRect,0.050000X0.450000X-0.750000X0.450000X0.750000X-0.450000X0.750000X-0.450000X-0.750000X0*%
%ADD47C,0.750000*%
%ADD48RoundRect,0.200000X-0.425000X0.150000X-0.425000X-0.150000X0.425000X-0.150000X0.425000X0.150000X0*%
%ADD49RoundRect,0.125000X-0.500000X0.075000X-0.500000X-0.075000X0.500000X-0.075000X0.500000X0.075000X0*%
%ADD50RoundRect,0.300000X-0.750000X0.840000X-0.750000X-0.840000X0.750000X-0.840000X0.750000X0.840000X0*%
G04 APERTURE END LIST*
D10*
X132690476Y-105864635D02*
X133147619Y-105864635D01*
X132919047Y-106664635D02*
X132919047Y-105864635D01*
X133338095Y-105864635D02*
X133871429Y-106664635D01*
X133871429Y-105864635D02*
X133338095Y-106664635D01*
X133166667Y-108734635D02*
X132900000Y-108353682D01*
X132709524Y-108734635D02*
X132709524Y-107934635D01*
X132709524Y-107934635D02*
X133014286Y-107934635D01*
X133014286Y-107934635D02*
X133090476Y-107972730D01*
X133090476Y-107972730D02*
X133128571Y-108010825D01*
X133128571Y-108010825D02*
X133166667Y-108087016D01*
X133166667Y-108087016D02*
X133166667Y-108201301D01*
X133166667Y-108201301D02*
X133128571Y-108277492D01*
X133128571Y-108277492D02*
X133090476Y-108315587D01*
X133090476Y-108315587D02*
X133014286Y-108353682D01*
X133014286Y-108353682D02*
X132709524Y-108353682D01*
X133433333Y-107934635D02*
X133966667Y-108734635D01*
X133966667Y-107934635D02*
X133433333Y-108734635D01*
D11*
X130838095Y-124483855D02*
X130571428Y-124102902D01*
X130380952Y-124483855D02*
X130380952Y-123683855D01*
X130380952Y-123683855D02*
X130685714Y-123683855D01*
X130685714Y-123683855D02*
X130761904Y-123721950D01*
X130761904Y-123721950D02*
X130799999Y-123760045D01*
X130799999Y-123760045D02*
X130838095Y-123836236D01*
X130838095Y-123836236D02*
X130838095Y-123950521D01*
X130838095Y-123950521D02*
X130799999Y-124026712D01*
X130799999Y-124026712D02*
X130761904Y-124064807D01*
X130761904Y-124064807D02*
X130685714Y-124102902D01*
X130685714Y-124102902D02*
X130380952Y-124102902D01*
X131180952Y-124064807D02*
X131447618Y-124064807D01*
X131561904Y-124483855D02*
X131180952Y-124483855D01*
X131180952Y-124483855D02*
X131180952Y-123683855D01*
X131180952Y-123683855D02*
X131561904Y-123683855D01*
X131866666Y-124445760D02*
X131980952Y-124483855D01*
X131980952Y-124483855D02*
X132171428Y-124483855D01*
X132171428Y-124483855D02*
X132247619Y-124445760D01*
X132247619Y-124445760D02*
X132285714Y-124407664D01*
X132285714Y-124407664D02*
X132323809Y-124331474D01*
X132323809Y-124331474D02*
X132323809Y-124255283D01*
X132323809Y-124255283D02*
X132285714Y-124179093D01*
X132285714Y-124179093D02*
X132247619Y-124140998D01*
X132247619Y-124140998D02*
X132171428Y-124102902D01*
X132171428Y-124102902D02*
X132019047Y-124064807D01*
X132019047Y-124064807D02*
X131942857Y-124026712D01*
X131942857Y-124026712D02*
X131904762Y-123988617D01*
X131904762Y-123988617D02*
X131866666Y-123912426D01*
X131866666Y-123912426D02*
X131866666Y-123836236D01*
X131866666Y-123836236D02*
X131904762Y-123760045D01*
X131904762Y-123760045D02*
X131942857Y-123721950D01*
X131942857Y-123721950D02*
X132019047Y-123683855D01*
X132019047Y-123683855D02*
X132209524Y-123683855D01*
X132209524Y-123683855D02*
X132323809Y-123721950D01*
X132666667Y-124064807D02*
X132933333Y-124064807D01*
X133047619Y-124483855D02*
X132666667Y-124483855D01*
X132666667Y-124483855D02*
X132666667Y-123683855D01*
X132666667Y-123683855D02*
X133047619Y-123683855D01*
X133276191Y-123683855D02*
X133733334Y-123683855D01*
X133504762Y-124483855D02*
X133504762Y-123683855D01*
X130914285Y-138124807D02*
X131028571Y-138162902D01*
X131028571Y-138162902D02*
X131066666Y-138200998D01*
X131066666Y-138200998D02*
X131104762Y-138277188D01*
X131104762Y-138277188D02*
X131104762Y-138391474D01*
X131104762Y-138391474D02*
X131066666Y-138467664D01*
X131066666Y-138467664D02*
X131028571Y-138505760D01*
X131028571Y-138505760D02*
X130952381Y-138543855D01*
X130952381Y-138543855D02*
X130647619Y-138543855D01*
X130647619Y-138543855D02*
X130647619Y-137743855D01*
X130647619Y-137743855D02*
X130914285Y-137743855D01*
X130914285Y-137743855D02*
X130990476Y-137781950D01*
X130990476Y-137781950D02*
X131028571Y-137820045D01*
X131028571Y-137820045D02*
X131066666Y-137896236D01*
X131066666Y-137896236D02*
X131066666Y-137972426D01*
X131066666Y-137972426D02*
X131028571Y-138048617D01*
X131028571Y-138048617D02*
X130990476Y-138086712D01*
X130990476Y-138086712D02*
X130914285Y-138124807D01*
X130914285Y-138124807D02*
X130647619Y-138124807D01*
X131600000Y-137743855D02*
X131752381Y-137743855D01*
X131752381Y-137743855D02*
X131828571Y-137781950D01*
X131828571Y-137781950D02*
X131904762Y-137858140D01*
X131904762Y-137858140D02*
X131942857Y-138010521D01*
X131942857Y-138010521D02*
X131942857Y-138277188D01*
X131942857Y-138277188D02*
X131904762Y-138429569D01*
X131904762Y-138429569D02*
X131828571Y-138505760D01*
X131828571Y-138505760D02*
X131752381Y-138543855D01*
X131752381Y-138543855D02*
X131600000Y-138543855D01*
X131600000Y-138543855D02*
X131523809Y-138505760D01*
X131523809Y-138505760D02*
X131447619Y-138429569D01*
X131447619Y-138429569D02*
X131409523Y-138277188D01*
X131409523Y-138277188D02*
X131409523Y-138010521D01*
X131409523Y-138010521D02*
X131447619Y-137858140D01*
X131447619Y-137858140D02*
X131523809Y-137781950D01*
X131523809Y-137781950D02*
X131600000Y-137743855D01*
X132438095Y-137743855D02*
X132590476Y-137743855D01*
X132590476Y-137743855D02*
X132666666Y-137781950D01*
X132666666Y-137781950D02*
X132742857Y-137858140D01*
X132742857Y-137858140D02*
X132780952Y-138010521D01*
X132780952Y-138010521D02*
X132780952Y-138277188D01*
X132780952Y-138277188D02*
X132742857Y-138429569D01*
X132742857Y-138429569D02*
X132666666Y-138505760D01*
X132666666Y-138505760D02*
X132590476Y-138543855D01*
X132590476Y-138543855D02*
X132438095Y-138543855D01*
X132438095Y-138543855D02*
X132361904Y-138505760D01*
X132361904Y-138505760D02*
X132285714Y-138429569D01*
X132285714Y-138429569D02*
X132247618Y-138277188D01*
X132247618Y-138277188D02*
X132247618Y-138010521D01*
X132247618Y-138010521D02*
X132285714Y-137858140D01*
X132285714Y-137858140D02*
X132361904Y-137781950D01*
X132361904Y-137781950D02*
X132438095Y-137743855D01*
X133009523Y-137743855D02*
X133466666Y-137743855D01*
X133238094Y-138543855D02*
X133238094Y-137743855D01*
X131569047Y-110715760D02*
X131683333Y-110753855D01*
X131683333Y-110753855D02*
X131873809Y-110753855D01*
X131873809Y-110753855D02*
X131950000Y-110715760D01*
X131950000Y-110715760D02*
X131988095Y-110677664D01*
X131988095Y-110677664D02*
X132026190Y-110601474D01*
X132026190Y-110601474D02*
X132026190Y-110525283D01*
X132026190Y-110525283D02*
X131988095Y-110449093D01*
X131988095Y-110449093D02*
X131950000Y-110410998D01*
X131950000Y-110410998D02*
X131873809Y-110372902D01*
X131873809Y-110372902D02*
X131721428Y-110334807D01*
X131721428Y-110334807D02*
X131645238Y-110296712D01*
X131645238Y-110296712D02*
X131607143Y-110258617D01*
X131607143Y-110258617D02*
X131569047Y-110182426D01*
X131569047Y-110182426D02*
X131569047Y-110106236D01*
X131569047Y-110106236D02*
X131607143Y-110030045D01*
X131607143Y-110030045D02*
X131645238Y-109991950D01*
X131645238Y-109991950D02*
X131721428Y-109953855D01*
X131721428Y-109953855D02*
X131911905Y-109953855D01*
X131911905Y-109953855D02*
X132026190Y-109991950D01*
X132254762Y-109953855D02*
X132711905Y-109953855D01*
X132483333Y-110753855D02*
X132483333Y-109953855D01*
X132940476Y-110525283D02*
X133321429Y-110525283D01*
X132864286Y-110753855D02*
X133130953Y-109953855D01*
X133130953Y-109953855D02*
X133397619Y-110753855D01*
X133550000Y-109953855D02*
X134007143Y-109953855D01*
X133778571Y-110753855D02*
X133778571Y-109953855D01*
X134963855Y-118066666D02*
X134163855Y-118066666D01*
X134163855Y-118066666D02*
X134163855Y-117761904D01*
X134163855Y-117761904D02*
X134201950Y-117685714D01*
X134201950Y-117685714D02*
X134240045Y-117647619D01*
X134240045Y-117647619D02*
X134316236Y-117609523D01*
X134316236Y-117609523D02*
X134430521Y-117609523D01*
X134430521Y-117609523D02*
X134506712Y-117647619D01*
X134506712Y-117647619D02*
X134544807Y-117685714D01*
X134544807Y-117685714D02*
X134582902Y-117761904D01*
X134582902Y-117761904D02*
X134582902Y-118066666D01*
X134163855Y-117342857D02*
X134963855Y-117152381D01*
X134963855Y-117152381D02*
X134392426Y-117000000D01*
X134392426Y-117000000D02*
X134963855Y-116847619D01*
X134963855Y-116847619D02*
X134163855Y-116657143D01*
X134963855Y-115895237D02*
X134582902Y-116161904D01*
X134963855Y-116352380D02*
X134163855Y-116352380D01*
X134163855Y-116352380D02*
X134163855Y-116047618D01*
X134163855Y-116047618D02*
X134201950Y-115971428D01*
X134201950Y-115971428D02*
X134240045Y-115933333D01*
X134240045Y-115933333D02*
X134316236Y-115895237D01*
X134316236Y-115895237D02*
X134430521Y-115895237D01*
X134430521Y-115895237D02*
X134506712Y-115933333D01*
X134506712Y-115933333D02*
X134544807Y-115971428D01*
X134544807Y-115971428D02*
X134582902Y-116047618D01*
X134582902Y-116047618D02*
X134582902Y-116352380D01*
D12*
X128866667Y-106362295D02*
X128600000Y-105981342D01*
X128409524Y-106362295D02*
X128409524Y-105562295D01*
X128409524Y-105562295D02*
X128714286Y-105562295D01*
X128714286Y-105562295D02*
X128790476Y-105600390D01*
X128790476Y-105600390D02*
X128828571Y-105638485D01*
X128828571Y-105638485D02*
X128866667Y-105714676D01*
X128866667Y-105714676D02*
X128866667Y-105828961D01*
X128866667Y-105828961D02*
X128828571Y-105905152D01*
X128828571Y-105905152D02*
X128790476Y-105943247D01*
X128790476Y-105943247D02*
X128714286Y-105981342D01*
X128714286Y-105981342D02*
X128409524Y-105981342D01*
X129133333Y-105562295D02*
X129666667Y-105562295D01*
X129666667Y-105562295D02*
X129323809Y-106362295D01*
D13*
X123288333Y-134660880D02*
X123240714Y-134708500D01*
X123240714Y-134708500D02*
X123097857Y-134756119D01*
X123097857Y-134756119D02*
X123002619Y-134756119D01*
X123002619Y-134756119D02*
X122859762Y-134708500D01*
X122859762Y-134708500D02*
X122764524Y-134613261D01*
X122764524Y-134613261D02*
X122716905Y-134518023D01*
X122716905Y-134518023D02*
X122669286Y-134327547D01*
X122669286Y-134327547D02*
X122669286Y-134184690D01*
X122669286Y-134184690D02*
X122716905Y-133994214D01*
X122716905Y-133994214D02*
X122764524Y-133898976D01*
X122764524Y-133898976D02*
X122859762Y-133803738D01*
X122859762Y-133803738D02*
X123002619Y-133756119D01*
X123002619Y-133756119D02*
X123097857Y-133756119D01*
X123097857Y-133756119D02*
X123240714Y-133803738D01*
X123240714Y-133803738D02*
X123288333Y-133851357D01*
X124145476Y-133756119D02*
X123955000Y-133756119D01*
X123955000Y-133756119D02*
X123859762Y-133803738D01*
X123859762Y-133803738D02*
X123812143Y-133851357D01*
X123812143Y-133851357D02*
X123716905Y-133994214D01*
X123716905Y-133994214D02*
X123669286Y-134184690D01*
X123669286Y-134184690D02*
X123669286Y-134565642D01*
X123669286Y-134565642D02*
X123716905Y-134660880D01*
X123716905Y-134660880D02*
X123764524Y-134708500D01*
X123764524Y-134708500D02*
X123859762Y-134756119D01*
X123859762Y-134756119D02*
X124050238Y-134756119D01*
X124050238Y-134756119D02*
X124145476Y-134708500D01*
X124145476Y-134708500D02*
X124193095Y-134660880D01*
X124193095Y-134660880D02*
X124240714Y-134565642D01*
X124240714Y-134565642D02*
X124240714Y-134327547D01*
X124240714Y-134327547D02*
X124193095Y-134232309D01*
X124193095Y-134232309D02*
X124145476Y-134184690D01*
X124145476Y-134184690D02*
X124050238Y-134137071D01*
X124050238Y-134137071D02*
X123859762Y-134137071D01*
X123859762Y-134137071D02*
X123764524Y-134184690D01*
X123764524Y-134184690D02*
X123716905Y-134232309D01*
X123716905Y-134232309D02*
X123669286Y-134327547D01*
X119488095Y-135781119D02*
X119488095Y-136590642D01*
X119488095Y-136590642D02*
X119535714Y-136685880D01*
X119535714Y-136685880D02*
X119583333Y-136733500D01*
X119583333Y-136733500D02*
X119678571Y-136781119D01*
X119678571Y-136781119D02*
X119869047Y-136781119D01*
X119869047Y-136781119D02*
X119964285Y-136733500D01*
X119964285Y-136733500D02*
X120011904Y-136685880D01*
X120011904Y-136685880D02*
X120059523Y-136590642D01*
X120059523Y-136590642D02*
X120059523Y-135781119D01*
X120440476Y-135781119D02*
X121059523Y-135781119D01*
X121059523Y-135781119D02*
X120726190Y-136162071D01*
X120726190Y-136162071D02*
X120869047Y-136162071D01*
X120869047Y-136162071D02*
X120964285Y-136209690D01*
X120964285Y-136209690D02*
X121011904Y-136257309D01*
X121011904Y-136257309D02*
X121059523Y-136352547D01*
X121059523Y-136352547D02*
X121059523Y-136590642D01*
X121059523Y-136590642D02*
X121011904Y-136685880D01*
X121011904Y-136685880D02*
X120964285Y-136733500D01*
X120964285Y-136733500D02*
X120869047Y-136781119D01*
X120869047Y-136781119D02*
X120583333Y-136781119D01*
X120583333Y-136781119D02*
X120488095Y-136733500D01*
X120488095Y-136733500D02*
X120440476Y-136685880D01*
X118666666Y-145731119D02*
X118666666Y-146445404D01*
X118666666Y-146445404D02*
X118619047Y-146588261D01*
X118619047Y-146588261D02*
X118523809Y-146683500D01*
X118523809Y-146683500D02*
X118380952Y-146731119D01*
X118380952Y-146731119D02*
X118285714Y-146731119D01*
X119095238Y-145826357D02*
X119142857Y-145778738D01*
X119142857Y-145778738D02*
X119238095Y-145731119D01*
X119238095Y-145731119D02*
X119476190Y-145731119D01*
X119476190Y-145731119D02*
X119571428Y-145778738D01*
X119571428Y-145778738D02*
X119619047Y-145826357D01*
X119619047Y-145826357D02*
X119666666Y-145921595D01*
X119666666Y-145921595D02*
X119666666Y-146016833D01*
X119666666Y-146016833D02*
X119619047Y-146159690D01*
X119619047Y-146159690D02*
X119047619Y-146731119D01*
X119047619Y-146731119D02*
X119666666Y-146731119D01*
X120183333Y-140965880D02*
X120135714Y-141013500D01*
X120135714Y-141013500D02*
X119992857Y-141061119D01*
X119992857Y-141061119D02*
X119897619Y-141061119D01*
X119897619Y-141061119D02*
X119754762Y-141013500D01*
X119754762Y-141013500D02*
X119659524Y-140918261D01*
X119659524Y-140918261D02*
X119611905Y-140823023D01*
X119611905Y-140823023D02*
X119564286Y-140632547D01*
X119564286Y-140632547D02*
X119564286Y-140489690D01*
X119564286Y-140489690D02*
X119611905Y-140299214D01*
X119611905Y-140299214D02*
X119659524Y-140203976D01*
X119659524Y-140203976D02*
X119754762Y-140108738D01*
X119754762Y-140108738D02*
X119897619Y-140061119D01*
X119897619Y-140061119D02*
X119992857Y-140061119D01*
X119992857Y-140061119D02*
X120135714Y-140108738D01*
X120135714Y-140108738D02*
X120183333Y-140156357D01*
X120516667Y-140061119D02*
X121183333Y-140061119D01*
X121183333Y-140061119D02*
X120754762Y-141061119D01*
X124953095Y-143806119D02*
X124953095Y-144615642D01*
X124953095Y-144615642D02*
X125000714Y-144710880D01*
X125000714Y-144710880D02*
X125048333Y-144758500D01*
X125048333Y-144758500D02*
X125143571Y-144806119D01*
X125143571Y-144806119D02*
X125334047Y-144806119D01*
X125334047Y-144806119D02*
X125429285Y-144758500D01*
X125429285Y-144758500D02*
X125476904Y-144710880D01*
X125476904Y-144710880D02*
X125524523Y-144615642D01*
X125524523Y-144615642D02*
X125524523Y-143806119D01*
X126429285Y-143806119D02*
X126238809Y-143806119D01*
X126238809Y-143806119D02*
X126143571Y-143853738D01*
X126143571Y-143853738D02*
X126095952Y-143901357D01*
X126095952Y-143901357D02*
X126000714Y-144044214D01*
X126000714Y-144044214D02*
X125953095Y-144234690D01*
X125953095Y-144234690D02*
X125953095Y-144615642D01*
X125953095Y-144615642D02*
X126000714Y-144710880D01*
X126000714Y-144710880D02*
X126048333Y-144758500D01*
X126048333Y-144758500D02*
X126143571Y-144806119D01*
X126143571Y-144806119D02*
X126334047Y-144806119D01*
X126334047Y-144806119D02*
X126429285Y-144758500D01*
X126429285Y-144758500D02*
X126476904Y-144710880D01*
X126476904Y-144710880D02*
X126524523Y-144615642D01*
X126524523Y-144615642D02*
X126524523Y-144377547D01*
X126524523Y-144377547D02*
X126476904Y-144282309D01*
X126476904Y-144282309D02*
X126429285Y-144234690D01*
X126429285Y-144234690D02*
X126334047Y-144187071D01*
X126334047Y-144187071D02*
X126143571Y-144187071D01*
X126143571Y-144187071D02*
X126048333Y-144234690D01*
X126048333Y-144234690D02*
X126000714Y-144282309D01*
X126000714Y-144282309D02*
X125953095Y-144377547D01*
X101848333Y-110410880D02*
X101800714Y-110458500D01*
X101800714Y-110458500D02*
X101657857Y-110506119D01*
X101657857Y-110506119D02*
X101562619Y-110506119D01*
X101562619Y-110506119D02*
X101419762Y-110458500D01*
X101419762Y-110458500D02*
X101324524Y-110363261D01*
X101324524Y-110363261D02*
X101276905Y-110268023D01*
X101276905Y-110268023D02*
X101229286Y-110077547D01*
X101229286Y-110077547D02*
X101229286Y-109934690D01*
X101229286Y-109934690D02*
X101276905Y-109744214D01*
X101276905Y-109744214D02*
X101324524Y-109648976D01*
X101324524Y-109648976D02*
X101419762Y-109553738D01*
X101419762Y-109553738D02*
X101562619Y-109506119D01*
X101562619Y-109506119D02*
X101657857Y-109506119D01*
X101657857Y-109506119D02*
X101800714Y-109553738D01*
X101800714Y-109553738D02*
X101848333Y-109601357D01*
X102181667Y-109506119D02*
X102800714Y-109506119D01*
X102800714Y-109506119D02*
X102467381Y-109887071D01*
X102467381Y-109887071D02*
X102610238Y-109887071D01*
X102610238Y-109887071D02*
X102705476Y-109934690D01*
X102705476Y-109934690D02*
X102753095Y-109982309D01*
X102753095Y-109982309D02*
X102800714Y-110077547D01*
X102800714Y-110077547D02*
X102800714Y-110315642D01*
X102800714Y-110315642D02*
X102753095Y-110410880D01*
X102753095Y-110410880D02*
X102705476Y-110458500D01*
X102705476Y-110458500D02*
X102610238Y-110506119D01*
X102610238Y-110506119D02*
X102324524Y-110506119D01*
X102324524Y-110506119D02*
X102229286Y-110458500D01*
X102229286Y-110458500D02*
X102181667Y-110410880D01*
X101456119Y-107186904D02*
X100456119Y-107186904D01*
X100932309Y-107186904D02*
X100932309Y-106615476D01*
X101456119Y-106615476D02*
X100456119Y-106615476D01*
X101456119Y-105615476D02*
X101456119Y-106186904D01*
X101456119Y-105901190D02*
X100456119Y-105901190D01*
X100456119Y-105901190D02*
X100598976Y-105996428D01*
X100598976Y-105996428D02*
X100694214Y-106091666D01*
X100694214Y-106091666D02*
X100741833Y-106186904D01*
X119956119Y-144562857D02*
X119479928Y-144896190D01*
X119956119Y-145134285D02*
X118956119Y-145134285D01*
X118956119Y-145134285D02*
X118956119Y-144753333D01*
X118956119Y-144753333D02*
X119003738Y-144658095D01*
X119003738Y-144658095D02*
X119051357Y-144610476D01*
X119051357Y-144610476D02*
X119146595Y-144562857D01*
X119146595Y-144562857D02*
X119289452Y-144562857D01*
X119289452Y-144562857D02*
X119384690Y-144610476D01*
X119384690Y-144610476D02*
X119432309Y-144658095D01*
X119432309Y-144658095D02*
X119479928Y-144753333D01*
X119479928Y-144753333D02*
X119479928Y-145134285D01*
X119956119Y-143610476D02*
X119956119Y-144181904D01*
X119956119Y-143896190D02*
X118956119Y-143896190D01*
X118956119Y-143896190D02*
X119098976Y-143991428D01*
X119098976Y-143991428D02*
X119194214Y-144086666D01*
X119194214Y-144086666D02*
X119241833Y-144181904D01*
X119051357Y-143229523D02*
X119003738Y-143181904D01*
X119003738Y-143181904D02*
X118956119Y-143086666D01*
X118956119Y-143086666D02*
X118956119Y-142848571D01*
X118956119Y-142848571D02*
X119003738Y-142753333D01*
X119003738Y-142753333D02*
X119051357Y-142705714D01*
X119051357Y-142705714D02*
X119146595Y-142658095D01*
X119146595Y-142658095D02*
X119241833Y-142658095D01*
X119241833Y-142658095D02*
X119384690Y-142705714D01*
X119384690Y-142705714D02*
X119956119Y-143277142D01*
X119956119Y-143277142D02*
X119956119Y-142658095D01*
X127187142Y-142256119D02*
X126853809Y-141779928D01*
X126615714Y-142256119D02*
X126615714Y-141256119D01*
X126615714Y-141256119D02*
X126996666Y-141256119D01*
X126996666Y-141256119D02*
X127091904Y-141303738D01*
X127091904Y-141303738D02*
X127139523Y-141351357D01*
X127139523Y-141351357D02*
X127187142Y-141446595D01*
X127187142Y-141446595D02*
X127187142Y-141589452D01*
X127187142Y-141589452D02*
X127139523Y-141684690D01*
X127139523Y-141684690D02*
X127091904Y-141732309D01*
X127091904Y-141732309D02*
X126996666Y-141779928D01*
X126996666Y-141779928D02*
X126615714Y-141779928D01*
X128139523Y-142256119D02*
X127568095Y-142256119D01*
X127853809Y-142256119D02*
X127853809Y-141256119D01*
X127853809Y-141256119D02*
X127758571Y-141398976D01*
X127758571Y-141398976D02*
X127663333Y-141494214D01*
X127663333Y-141494214D02*
X127568095Y-141541833D01*
X128996666Y-141589452D02*
X128996666Y-142256119D01*
X128758571Y-141208500D02*
X128520476Y-141922785D01*
X128520476Y-141922785D02*
X129139523Y-141922785D01*
X129068333Y-139860880D02*
X129020714Y-139908500D01*
X129020714Y-139908500D02*
X128877857Y-139956119D01*
X128877857Y-139956119D02*
X128782619Y-139956119D01*
X128782619Y-139956119D02*
X128639762Y-139908500D01*
X128639762Y-139908500D02*
X128544524Y-139813261D01*
X128544524Y-139813261D02*
X128496905Y-139718023D01*
X128496905Y-139718023D02*
X128449286Y-139527547D01*
X128449286Y-139527547D02*
X128449286Y-139384690D01*
X128449286Y-139384690D02*
X128496905Y-139194214D01*
X128496905Y-139194214D02*
X128544524Y-139098976D01*
X128544524Y-139098976D02*
X128639762Y-139003738D01*
X128639762Y-139003738D02*
X128782619Y-138956119D01*
X128782619Y-138956119D02*
X128877857Y-138956119D01*
X128877857Y-138956119D02*
X129020714Y-139003738D01*
X129020714Y-139003738D02*
X129068333Y-139051357D01*
X129544524Y-139956119D02*
X129735000Y-139956119D01*
X129735000Y-139956119D02*
X129830238Y-139908500D01*
X129830238Y-139908500D02*
X129877857Y-139860880D01*
X129877857Y-139860880D02*
X129973095Y-139718023D01*
X129973095Y-139718023D02*
X130020714Y-139527547D01*
X130020714Y-139527547D02*
X130020714Y-139146595D01*
X130020714Y-139146595D02*
X129973095Y-139051357D01*
X129973095Y-139051357D02*
X129925476Y-139003738D01*
X129925476Y-139003738D02*
X129830238Y-138956119D01*
X129830238Y-138956119D02*
X129639762Y-138956119D01*
X129639762Y-138956119D02*
X129544524Y-139003738D01*
X129544524Y-139003738D02*
X129496905Y-139051357D01*
X129496905Y-139051357D02*
X129449286Y-139146595D01*
X129449286Y-139146595D02*
X129449286Y-139384690D01*
X129449286Y-139384690D02*
X129496905Y-139479928D01*
X129496905Y-139479928D02*
X129544524Y-139527547D01*
X129544524Y-139527547D02*
X129639762Y-139575166D01*
X129639762Y-139575166D02*
X129830238Y-139575166D01*
X129830238Y-139575166D02*
X129925476Y-139527547D01*
X129925476Y-139527547D02*
X129973095Y-139479928D01*
X129973095Y-139479928D02*
X130020714Y-139384690D01*
X129527142Y-119456119D02*
X129193809Y-118979928D01*
X128955714Y-119456119D02*
X128955714Y-118456119D01*
X128955714Y-118456119D02*
X129336666Y-118456119D01*
X129336666Y-118456119D02*
X129431904Y-118503738D01*
X129431904Y-118503738D02*
X129479523Y-118551357D01*
X129479523Y-118551357D02*
X129527142Y-118646595D01*
X129527142Y-118646595D02*
X129527142Y-118789452D01*
X129527142Y-118789452D02*
X129479523Y-118884690D01*
X129479523Y-118884690D02*
X129431904Y-118932309D01*
X129431904Y-118932309D02*
X129336666Y-118979928D01*
X129336666Y-118979928D02*
X128955714Y-118979928D01*
X130479523Y-119456119D02*
X129908095Y-119456119D01*
X130193809Y-119456119D02*
X130193809Y-118456119D01*
X130193809Y-118456119D02*
X130098571Y-118598976D01*
X130098571Y-118598976D02*
X130003333Y-118694214D01*
X130003333Y-118694214D02*
X129908095Y-118741833D01*
X131384285Y-118456119D02*
X130908095Y-118456119D01*
X130908095Y-118456119D02*
X130860476Y-118932309D01*
X130860476Y-118932309D02*
X130908095Y-118884690D01*
X130908095Y-118884690D02*
X131003333Y-118837071D01*
X131003333Y-118837071D02*
X131241428Y-118837071D01*
X131241428Y-118837071D02*
X131336666Y-118884690D01*
X131336666Y-118884690D02*
X131384285Y-118932309D01*
X131384285Y-118932309D02*
X131431904Y-119027547D01*
X131431904Y-119027547D02*
X131431904Y-119265642D01*
X131431904Y-119265642D02*
X131384285Y-119360880D01*
X131384285Y-119360880D02*
X131336666Y-119408500D01*
X131336666Y-119408500D02*
X131241428Y-119456119D01*
X131241428Y-119456119D02*
X131003333Y-119456119D01*
X131003333Y-119456119D02*
X130908095Y-119408500D01*
X130908095Y-119408500D02*
X130860476Y-119360880D01*
D14*
X105783704Y-101683332D02*
X105821800Y-101721428D01*
X105821800Y-101721428D02*
X105859895Y-101835713D01*
X105859895Y-101835713D02*
X105859895Y-101911904D01*
X105859895Y-101911904D02*
X105821800Y-102026190D01*
X105821800Y-102026190D02*
X105745609Y-102102380D01*
X105745609Y-102102380D02*
X105669419Y-102140475D01*
X105669419Y-102140475D02*
X105517038Y-102178571D01*
X105517038Y-102178571D02*
X105402752Y-102178571D01*
X105402752Y-102178571D02*
X105250371Y-102140475D01*
X105250371Y-102140475D02*
X105174180Y-102102380D01*
X105174180Y-102102380D02*
X105097990Y-102026190D01*
X105097990Y-102026190D02*
X105059895Y-101911904D01*
X105059895Y-101911904D02*
X105059895Y-101835713D01*
X105059895Y-101835713D02*
X105097990Y-101721428D01*
X105097990Y-101721428D02*
X105136085Y-101683332D01*
X105859895Y-100921428D02*
X105859895Y-101378571D01*
X105859895Y-101149999D02*
X105059895Y-101149999D01*
X105059895Y-101149999D02*
X105174180Y-101226190D01*
X105174180Y-101226190D02*
X105250371Y-101302380D01*
X105250371Y-101302380D02*
X105288466Y-101378571D01*
D13*
X109756119Y-129586904D02*
X110565642Y-129586904D01*
X110565642Y-129586904D02*
X110660880Y-129539285D01*
X110660880Y-129539285D02*
X110708500Y-129491666D01*
X110708500Y-129491666D02*
X110756119Y-129396428D01*
X110756119Y-129396428D02*
X110756119Y-129205952D01*
X110756119Y-129205952D02*
X110708500Y-129110714D01*
X110708500Y-129110714D02*
X110660880Y-129063095D01*
X110660880Y-129063095D02*
X110565642Y-129015476D01*
X110565642Y-129015476D02*
X109756119Y-129015476D01*
X109851357Y-128586904D02*
X109803738Y-128539285D01*
X109803738Y-128539285D02*
X109756119Y-128444047D01*
X109756119Y-128444047D02*
X109756119Y-128205952D01*
X109756119Y-128205952D02*
X109803738Y-128110714D01*
X109803738Y-128110714D02*
X109851357Y-128063095D01*
X109851357Y-128063095D02*
X109946595Y-128015476D01*
X109946595Y-128015476D02*
X110041833Y-128015476D01*
X110041833Y-128015476D02*
X110184690Y-128063095D01*
X110184690Y-128063095D02*
X110756119Y-128634523D01*
X110756119Y-128634523D02*
X110756119Y-128015476D01*
X111056119Y-133433094D02*
X110056119Y-133433094D01*
X110056119Y-133433094D02*
X110056119Y-133194999D01*
X110056119Y-133194999D02*
X110103738Y-133052142D01*
X110103738Y-133052142D02*
X110198976Y-132956904D01*
X110198976Y-132956904D02*
X110294214Y-132909285D01*
X110294214Y-132909285D02*
X110484690Y-132861666D01*
X110484690Y-132861666D02*
X110627547Y-132861666D01*
X110627547Y-132861666D02*
X110818023Y-132909285D01*
X110818023Y-132909285D02*
X110913261Y-132956904D01*
X110913261Y-132956904D02*
X111008500Y-133052142D01*
X111008500Y-133052142D02*
X111056119Y-133194999D01*
X111056119Y-133194999D02*
X111056119Y-133433094D01*
X110151357Y-132480713D02*
X110103738Y-132433094D01*
X110103738Y-132433094D02*
X110056119Y-132337856D01*
X110056119Y-132337856D02*
X110056119Y-132099761D01*
X110056119Y-132099761D02*
X110103738Y-132004523D01*
X110103738Y-132004523D02*
X110151357Y-131956904D01*
X110151357Y-131956904D02*
X110246595Y-131909285D01*
X110246595Y-131909285D02*
X110341833Y-131909285D01*
X110341833Y-131909285D02*
X110484690Y-131956904D01*
X110484690Y-131956904D02*
X111056119Y-132528332D01*
X111056119Y-132528332D02*
X111056119Y-131909285D01*
D12*
X105862295Y-120833332D02*
X105481342Y-121099999D01*
X105862295Y-121290475D02*
X105062295Y-121290475D01*
X105062295Y-121290475D02*
X105062295Y-120985713D01*
X105062295Y-120985713D02*
X105100390Y-120909523D01*
X105100390Y-120909523D02*
X105138485Y-120871428D01*
X105138485Y-120871428D02*
X105214676Y-120833332D01*
X105214676Y-120833332D02*
X105328961Y-120833332D01*
X105328961Y-120833332D02*
X105405152Y-120871428D01*
X105405152Y-120871428D02*
X105443247Y-120909523D01*
X105443247Y-120909523D02*
X105481342Y-120985713D01*
X105481342Y-120985713D02*
X105481342Y-121290475D01*
X105062295Y-120109523D02*
X105062295Y-120490475D01*
X105062295Y-120490475D02*
X105443247Y-120528571D01*
X105443247Y-120528571D02*
X105405152Y-120490475D01*
X105405152Y-120490475D02*
X105367057Y-120414285D01*
X105367057Y-120414285D02*
X105367057Y-120223809D01*
X105367057Y-120223809D02*
X105405152Y-120147618D01*
X105405152Y-120147618D02*
X105443247Y-120109523D01*
X105443247Y-120109523D02*
X105519438Y-120071428D01*
X105519438Y-120071428D02*
X105709914Y-120071428D01*
X105709914Y-120071428D02*
X105786104Y-120109523D01*
X105786104Y-120109523D02*
X105824200Y-120147618D01*
X105824200Y-120147618D02*
X105862295Y-120223809D01*
X105862295Y-120223809D02*
X105862295Y-120414285D01*
X105862295Y-120414285D02*
X105824200Y-120490475D01*
X105824200Y-120490475D02*
X105786104Y-120528571D01*
D13*
X114932309Y-137758333D02*
X114932309Y-138091666D01*
X115456119Y-138091666D02*
X114456119Y-138091666D01*
X114456119Y-138091666D02*
X114456119Y-137615476D01*
X115456119Y-136710714D02*
X115456119Y-137282142D01*
X115456119Y-136996428D02*
X114456119Y-136996428D01*
X114456119Y-136996428D02*
X114598976Y-137091666D01*
X114598976Y-137091666D02*
X114694214Y-137186904D01*
X114694214Y-137186904D02*
X114741833Y-137282142D01*
X121038095Y-124031119D02*
X121038095Y-124840642D01*
X121038095Y-124840642D02*
X121085714Y-124935880D01*
X121085714Y-124935880D02*
X121133333Y-124983500D01*
X121133333Y-124983500D02*
X121228571Y-125031119D01*
X121228571Y-125031119D02*
X121419047Y-125031119D01*
X121419047Y-125031119D02*
X121514285Y-124983500D01*
X121514285Y-124983500D02*
X121561904Y-124935880D01*
X121561904Y-124935880D02*
X121609523Y-124840642D01*
X121609523Y-124840642D02*
X121609523Y-124031119D01*
X122514285Y-124364452D02*
X122514285Y-125031119D01*
X122276190Y-123983500D02*
X122038095Y-124697785D01*
X122038095Y-124697785D02*
X122657142Y-124697785D01*
D12*
X105085714Y-138762295D02*
X104819047Y-138381342D01*
X104628571Y-138762295D02*
X104628571Y-137962295D01*
X104628571Y-137962295D02*
X104933333Y-137962295D01*
X104933333Y-137962295D02*
X105009523Y-138000390D01*
X105009523Y-138000390D02*
X105047618Y-138038485D01*
X105047618Y-138038485D02*
X105085714Y-138114676D01*
X105085714Y-138114676D02*
X105085714Y-138228961D01*
X105085714Y-138228961D02*
X105047618Y-138305152D01*
X105047618Y-138305152D02*
X105009523Y-138343247D01*
X105009523Y-138343247D02*
X104933333Y-138381342D01*
X104933333Y-138381342D02*
X104628571Y-138381342D01*
X105847618Y-138762295D02*
X105390475Y-138762295D01*
X105619047Y-138762295D02*
X105619047Y-137962295D01*
X105619047Y-137962295D02*
X105542856Y-138076580D01*
X105542856Y-138076580D02*
X105466666Y-138152771D01*
X105466666Y-138152771D02*
X105390475Y-138190866D01*
X106342857Y-137962295D02*
X106419047Y-137962295D01*
X106419047Y-137962295D02*
X106495238Y-138000390D01*
X106495238Y-138000390D02*
X106533333Y-138038485D01*
X106533333Y-138038485D02*
X106571428Y-138114676D01*
X106571428Y-138114676D02*
X106609523Y-138267057D01*
X106609523Y-138267057D02*
X106609523Y-138457533D01*
X106609523Y-138457533D02*
X106571428Y-138609914D01*
X106571428Y-138609914D02*
X106533333Y-138686104D01*
X106533333Y-138686104D02*
X106495238Y-138724200D01*
X106495238Y-138724200D02*
X106419047Y-138762295D01*
X106419047Y-138762295D02*
X106342857Y-138762295D01*
X106342857Y-138762295D02*
X106266666Y-138724200D01*
X106266666Y-138724200D02*
X106228571Y-138686104D01*
X106228571Y-138686104D02*
X106190476Y-138609914D01*
X106190476Y-138609914D02*
X106152380Y-138457533D01*
X106152380Y-138457533D02*
X106152380Y-138267057D01*
X106152380Y-138267057D02*
X106190476Y-138114676D01*
X106190476Y-138114676D02*
X106228571Y-138038485D01*
X106228571Y-138038485D02*
X106266666Y-138000390D01*
X106266666Y-138000390D02*
X106342857Y-137962295D01*
D13*
X104556119Y-109361666D02*
X104079928Y-109694999D01*
X104556119Y-109933094D02*
X103556119Y-109933094D01*
X103556119Y-109933094D02*
X103556119Y-109552142D01*
X103556119Y-109552142D02*
X103603738Y-109456904D01*
X103603738Y-109456904D02*
X103651357Y-109409285D01*
X103651357Y-109409285D02*
X103746595Y-109361666D01*
X103746595Y-109361666D02*
X103889452Y-109361666D01*
X103889452Y-109361666D02*
X103984690Y-109409285D01*
X103984690Y-109409285D02*
X104032309Y-109456904D01*
X104032309Y-109456904D02*
X104079928Y-109552142D01*
X104079928Y-109552142D02*
X104079928Y-109933094D01*
X104556119Y-108409285D02*
X104556119Y-108980713D01*
X104556119Y-108694999D02*
X103556119Y-108694999D01*
X103556119Y-108694999D02*
X103698976Y-108790237D01*
X103698976Y-108790237D02*
X103794214Y-108885475D01*
X103794214Y-108885475D02*
X103841833Y-108980713D01*
X130106119Y-123361666D02*
X129629928Y-123694999D01*
X130106119Y-123933094D02*
X129106119Y-123933094D01*
X129106119Y-123933094D02*
X129106119Y-123552142D01*
X129106119Y-123552142D02*
X129153738Y-123456904D01*
X129153738Y-123456904D02*
X129201357Y-123409285D01*
X129201357Y-123409285D02*
X129296595Y-123361666D01*
X129296595Y-123361666D02*
X129439452Y-123361666D01*
X129439452Y-123361666D02*
X129534690Y-123409285D01*
X129534690Y-123409285D02*
X129582309Y-123456904D01*
X129582309Y-123456904D02*
X129629928Y-123552142D01*
X129629928Y-123552142D02*
X129629928Y-123933094D01*
X129106119Y-123028332D02*
X129106119Y-122409285D01*
X129106119Y-122409285D02*
X129487071Y-122742618D01*
X129487071Y-122742618D02*
X129487071Y-122599761D01*
X129487071Y-122599761D02*
X129534690Y-122504523D01*
X129534690Y-122504523D02*
X129582309Y-122456904D01*
X129582309Y-122456904D02*
X129677547Y-122409285D01*
X129677547Y-122409285D02*
X129915642Y-122409285D01*
X129915642Y-122409285D02*
X130010880Y-122456904D01*
X130010880Y-122456904D02*
X130058500Y-122504523D01*
X130058500Y-122504523D02*
X130106119Y-122599761D01*
X130106119Y-122599761D02*
X130106119Y-122885475D01*
X130106119Y-122885475D02*
X130058500Y-122980713D01*
X130058500Y-122980713D02*
X130010880Y-123028332D01*
X102238095Y-148381119D02*
X102238095Y-147381119D01*
X102238095Y-147857309D02*
X102809523Y-147857309D01*
X102809523Y-148381119D02*
X102809523Y-147381119D01*
X103190476Y-147381119D02*
X103809523Y-147381119D01*
X103809523Y-147381119D02*
X103476190Y-147762071D01*
X103476190Y-147762071D02*
X103619047Y-147762071D01*
X103619047Y-147762071D02*
X103714285Y-147809690D01*
X103714285Y-147809690D02*
X103761904Y-147857309D01*
X103761904Y-147857309D02*
X103809523Y-147952547D01*
X103809523Y-147952547D02*
X103809523Y-148190642D01*
X103809523Y-148190642D02*
X103761904Y-148285880D01*
X103761904Y-148285880D02*
X103714285Y-148333500D01*
X103714285Y-148333500D02*
X103619047Y-148381119D01*
X103619047Y-148381119D02*
X103333333Y-148381119D01*
X103333333Y-148381119D02*
X103238095Y-148333500D01*
X103238095Y-148333500D02*
X103190476Y-148285880D01*
X116527142Y-142256119D02*
X116193809Y-141779928D01*
X115955714Y-142256119D02*
X115955714Y-141256119D01*
X115955714Y-141256119D02*
X116336666Y-141256119D01*
X116336666Y-141256119D02*
X116431904Y-141303738D01*
X116431904Y-141303738D02*
X116479523Y-141351357D01*
X116479523Y-141351357D02*
X116527142Y-141446595D01*
X116527142Y-141446595D02*
X116527142Y-141589452D01*
X116527142Y-141589452D02*
X116479523Y-141684690D01*
X116479523Y-141684690D02*
X116431904Y-141732309D01*
X116431904Y-141732309D02*
X116336666Y-141779928D01*
X116336666Y-141779928D02*
X115955714Y-141779928D01*
X117479523Y-142256119D02*
X116908095Y-142256119D01*
X117193809Y-142256119D02*
X117193809Y-141256119D01*
X117193809Y-141256119D02*
X117098571Y-141398976D01*
X117098571Y-141398976D02*
X117003333Y-141494214D01*
X117003333Y-141494214D02*
X116908095Y-141541833D01*
X118431904Y-142256119D02*
X117860476Y-142256119D01*
X118146190Y-142256119D02*
X118146190Y-141256119D01*
X118146190Y-141256119D02*
X118050952Y-141398976D01*
X118050952Y-141398976D02*
X117955714Y-141494214D01*
X117955714Y-141494214D02*
X117860476Y-141541833D01*
X107456905Y-145256119D02*
X107456905Y-144256119D01*
X107456905Y-144256119D02*
X107695000Y-144256119D01*
X107695000Y-144256119D02*
X107837857Y-144303738D01*
X107837857Y-144303738D02*
X107933095Y-144398976D01*
X107933095Y-144398976D02*
X107980714Y-144494214D01*
X107980714Y-144494214D02*
X108028333Y-144684690D01*
X108028333Y-144684690D02*
X108028333Y-144827547D01*
X108028333Y-144827547D02*
X107980714Y-145018023D01*
X107980714Y-145018023D02*
X107933095Y-145113261D01*
X107933095Y-145113261D02*
X107837857Y-145208500D01*
X107837857Y-145208500D02*
X107695000Y-145256119D01*
X107695000Y-145256119D02*
X107456905Y-145256119D01*
X108885476Y-144589452D02*
X108885476Y-145256119D01*
X108647381Y-144208500D02*
X108409286Y-144922785D01*
X108409286Y-144922785D02*
X109028333Y-144922785D01*
D12*
X113962295Y-146209523D02*
X114609914Y-146209523D01*
X114609914Y-146209523D02*
X114686104Y-146171428D01*
X114686104Y-146171428D02*
X114724200Y-146133333D01*
X114724200Y-146133333D02*
X114762295Y-146057142D01*
X114762295Y-146057142D02*
X114762295Y-145904761D01*
X114762295Y-145904761D02*
X114724200Y-145828571D01*
X114724200Y-145828571D02*
X114686104Y-145790476D01*
X114686104Y-145790476D02*
X114609914Y-145752380D01*
X114609914Y-145752380D02*
X113962295Y-145752380D01*
X113962295Y-144990476D02*
X113962295Y-145371428D01*
X113962295Y-145371428D02*
X114343247Y-145409524D01*
X114343247Y-145409524D02*
X114305152Y-145371428D01*
X114305152Y-145371428D02*
X114267057Y-145295238D01*
X114267057Y-145295238D02*
X114267057Y-145104762D01*
X114267057Y-145104762D02*
X114305152Y-145028571D01*
X114305152Y-145028571D02*
X114343247Y-144990476D01*
X114343247Y-144990476D02*
X114419438Y-144952381D01*
X114419438Y-144952381D02*
X114609914Y-144952381D01*
X114609914Y-144952381D02*
X114686104Y-144990476D01*
X114686104Y-144990476D02*
X114724200Y-145028571D01*
X114724200Y-145028571D02*
X114762295Y-145104762D01*
X114762295Y-145104762D02*
X114762295Y-145295238D01*
X114762295Y-145295238D02*
X114724200Y-145371428D01*
X114724200Y-145371428D02*
X114686104Y-145409524D01*
D13*
X125383333Y-136535880D02*
X125335714Y-136583500D01*
X125335714Y-136583500D02*
X125192857Y-136631119D01*
X125192857Y-136631119D02*
X125097619Y-136631119D01*
X125097619Y-136631119D02*
X124954762Y-136583500D01*
X124954762Y-136583500D02*
X124859524Y-136488261D01*
X124859524Y-136488261D02*
X124811905Y-136393023D01*
X124811905Y-136393023D02*
X124764286Y-136202547D01*
X124764286Y-136202547D02*
X124764286Y-136059690D01*
X124764286Y-136059690D02*
X124811905Y-135869214D01*
X124811905Y-135869214D02*
X124859524Y-135773976D01*
X124859524Y-135773976D02*
X124954762Y-135678738D01*
X124954762Y-135678738D02*
X125097619Y-135631119D01*
X125097619Y-135631119D02*
X125192857Y-135631119D01*
X125192857Y-135631119D02*
X125335714Y-135678738D01*
X125335714Y-135678738D02*
X125383333Y-135726357D01*
X125954762Y-136059690D02*
X125859524Y-136012071D01*
X125859524Y-136012071D02*
X125811905Y-135964452D01*
X125811905Y-135964452D02*
X125764286Y-135869214D01*
X125764286Y-135869214D02*
X125764286Y-135821595D01*
X125764286Y-135821595D02*
X125811905Y-135726357D01*
X125811905Y-135726357D02*
X125859524Y-135678738D01*
X125859524Y-135678738D02*
X125954762Y-135631119D01*
X125954762Y-135631119D02*
X126145238Y-135631119D01*
X126145238Y-135631119D02*
X126240476Y-135678738D01*
X126240476Y-135678738D02*
X126288095Y-135726357D01*
X126288095Y-135726357D02*
X126335714Y-135821595D01*
X126335714Y-135821595D02*
X126335714Y-135869214D01*
X126335714Y-135869214D02*
X126288095Y-135964452D01*
X126288095Y-135964452D02*
X126240476Y-136012071D01*
X126240476Y-136012071D02*
X126145238Y-136059690D01*
X126145238Y-136059690D02*
X125954762Y-136059690D01*
X125954762Y-136059690D02*
X125859524Y-136107309D01*
X125859524Y-136107309D02*
X125811905Y-136154928D01*
X125811905Y-136154928D02*
X125764286Y-136250166D01*
X125764286Y-136250166D02*
X125764286Y-136440642D01*
X125764286Y-136440642D02*
X125811905Y-136535880D01*
X125811905Y-136535880D02*
X125859524Y-136583500D01*
X125859524Y-136583500D02*
X125954762Y-136631119D01*
X125954762Y-136631119D02*
X126145238Y-136631119D01*
X126145238Y-136631119D02*
X126240476Y-136583500D01*
X126240476Y-136583500D02*
X126288095Y-136535880D01*
X126288095Y-136535880D02*
X126335714Y-136440642D01*
X126335714Y-136440642D02*
X126335714Y-136250166D01*
X126335714Y-136250166D02*
X126288095Y-136154928D01*
X126288095Y-136154928D02*
X126240476Y-136107309D01*
X126240476Y-136107309D02*
X126145238Y-136059690D01*
X106156119Y-109261666D02*
X105679928Y-109594999D01*
X106156119Y-109833094D02*
X105156119Y-109833094D01*
X105156119Y-109833094D02*
X105156119Y-109452142D01*
X105156119Y-109452142D02*
X105203738Y-109356904D01*
X105203738Y-109356904D02*
X105251357Y-109309285D01*
X105251357Y-109309285D02*
X105346595Y-109261666D01*
X105346595Y-109261666D02*
X105489452Y-109261666D01*
X105489452Y-109261666D02*
X105584690Y-109309285D01*
X105584690Y-109309285D02*
X105632309Y-109356904D01*
X105632309Y-109356904D02*
X105679928Y-109452142D01*
X105679928Y-109452142D02*
X105679928Y-109833094D01*
X105489452Y-108404523D02*
X106156119Y-108404523D01*
X105108500Y-108642618D02*
X105822785Y-108880713D01*
X105822785Y-108880713D02*
X105822785Y-108261666D01*
X130381119Y-103761904D02*
X129381119Y-103761904D01*
X129857309Y-103761904D02*
X129857309Y-103190476D01*
X130381119Y-103190476D02*
X129381119Y-103190476D01*
X129476357Y-102761904D02*
X129428738Y-102714285D01*
X129428738Y-102714285D02*
X129381119Y-102619047D01*
X129381119Y-102619047D02*
X129381119Y-102380952D01*
X129381119Y-102380952D02*
X129428738Y-102285714D01*
X129428738Y-102285714D02*
X129476357Y-102238095D01*
X129476357Y-102238095D02*
X129571595Y-102190476D01*
X129571595Y-102190476D02*
X129666833Y-102190476D01*
X129666833Y-102190476D02*
X129809690Y-102238095D01*
X129809690Y-102238095D02*
X130381119Y-102809523D01*
X130381119Y-102809523D02*
X130381119Y-102190476D01*
X132238095Y-148381119D02*
X132238095Y-147381119D01*
X132238095Y-147857309D02*
X132809523Y-147857309D01*
X132809523Y-148381119D02*
X132809523Y-147381119D01*
X133714285Y-147714452D02*
X133714285Y-148381119D01*
X133476190Y-147333500D02*
X133238095Y-148047785D01*
X133238095Y-148047785D02*
X133857142Y-148047785D01*
X101233333Y-108901119D02*
X100900000Y-108424928D01*
X100661905Y-108901119D02*
X100661905Y-107901119D01*
X100661905Y-107901119D02*
X101042857Y-107901119D01*
X101042857Y-107901119D02*
X101138095Y-107948738D01*
X101138095Y-107948738D02*
X101185714Y-107996357D01*
X101185714Y-107996357D02*
X101233333Y-108091595D01*
X101233333Y-108091595D02*
X101233333Y-108234452D01*
X101233333Y-108234452D02*
X101185714Y-108329690D01*
X101185714Y-108329690D02*
X101138095Y-108377309D01*
X101138095Y-108377309D02*
X101042857Y-108424928D01*
X101042857Y-108424928D02*
X100661905Y-108424928D01*
X101614286Y-107996357D02*
X101661905Y-107948738D01*
X101661905Y-107948738D02*
X101757143Y-107901119D01*
X101757143Y-107901119D02*
X101995238Y-107901119D01*
X101995238Y-107901119D02*
X102090476Y-107948738D01*
X102090476Y-107948738D02*
X102138095Y-107996357D01*
X102138095Y-107996357D02*
X102185714Y-108091595D01*
X102185714Y-108091595D02*
X102185714Y-108186833D01*
X102185714Y-108186833D02*
X102138095Y-108329690D01*
X102138095Y-108329690D02*
X101566667Y-108901119D01*
X101566667Y-108901119D02*
X102185714Y-108901119D01*
X133718333Y-121860880D02*
X133670714Y-121908500D01*
X133670714Y-121908500D02*
X133527857Y-121956119D01*
X133527857Y-121956119D02*
X133432619Y-121956119D01*
X133432619Y-121956119D02*
X133289762Y-121908500D01*
X133289762Y-121908500D02*
X133194524Y-121813261D01*
X133194524Y-121813261D02*
X133146905Y-121718023D01*
X133146905Y-121718023D02*
X133099286Y-121527547D01*
X133099286Y-121527547D02*
X133099286Y-121384690D01*
X133099286Y-121384690D02*
X133146905Y-121194214D01*
X133146905Y-121194214D02*
X133194524Y-121098976D01*
X133194524Y-121098976D02*
X133289762Y-121003738D01*
X133289762Y-121003738D02*
X133432619Y-120956119D01*
X133432619Y-120956119D02*
X133527857Y-120956119D01*
X133527857Y-120956119D02*
X133670714Y-121003738D01*
X133670714Y-121003738D02*
X133718333Y-121051357D01*
X134575476Y-121289452D02*
X134575476Y-121956119D01*
X134337381Y-120908500D02*
X134099286Y-121622785D01*
X134099286Y-121622785D02*
X134718333Y-121622785D01*
D14*
X105803704Y-104443332D02*
X105841800Y-104481428D01*
X105841800Y-104481428D02*
X105879895Y-104595713D01*
X105879895Y-104595713D02*
X105879895Y-104671904D01*
X105879895Y-104671904D02*
X105841800Y-104786190D01*
X105841800Y-104786190D02*
X105765609Y-104862380D01*
X105765609Y-104862380D02*
X105689419Y-104900475D01*
X105689419Y-104900475D02*
X105537038Y-104938571D01*
X105537038Y-104938571D02*
X105422752Y-104938571D01*
X105422752Y-104938571D02*
X105270371Y-104900475D01*
X105270371Y-104900475D02*
X105194180Y-104862380D01*
X105194180Y-104862380D02*
X105117990Y-104786190D01*
X105117990Y-104786190D02*
X105079895Y-104671904D01*
X105079895Y-104671904D02*
X105079895Y-104595713D01*
X105079895Y-104595713D02*
X105117990Y-104481428D01*
X105117990Y-104481428D02*
X105156085Y-104443332D01*
X105156085Y-104138571D02*
X105117990Y-104100475D01*
X105117990Y-104100475D02*
X105079895Y-104024285D01*
X105079895Y-104024285D02*
X105079895Y-103833809D01*
X105079895Y-103833809D02*
X105117990Y-103757618D01*
X105117990Y-103757618D02*
X105156085Y-103719523D01*
X105156085Y-103719523D02*
X105232276Y-103681428D01*
X105232276Y-103681428D02*
X105308466Y-103681428D01*
X105308466Y-103681428D02*
X105422752Y-103719523D01*
X105422752Y-103719523D02*
X105879895Y-104176666D01*
X105879895Y-104176666D02*
X105879895Y-103681428D01*
D12*
X112866667Y-128312294D02*
X112600000Y-127931341D01*
X112409524Y-128312294D02*
X112409524Y-127512294D01*
X112409524Y-127512294D02*
X112714286Y-127512294D01*
X112714286Y-127512294D02*
X112790476Y-127550389D01*
X112790476Y-127550389D02*
X112828571Y-127588484D01*
X112828571Y-127588484D02*
X112866667Y-127664675D01*
X112866667Y-127664675D02*
X112866667Y-127778960D01*
X112866667Y-127778960D02*
X112828571Y-127855151D01*
X112828571Y-127855151D02*
X112790476Y-127893246D01*
X112790476Y-127893246D02*
X112714286Y-127931341D01*
X112714286Y-127931341D02*
X112409524Y-127931341D01*
X113247619Y-128312294D02*
X113400000Y-128312294D01*
X113400000Y-128312294D02*
X113476190Y-128274199D01*
X113476190Y-128274199D02*
X113514286Y-128236103D01*
X113514286Y-128236103D02*
X113590476Y-128121818D01*
X113590476Y-128121818D02*
X113628571Y-127969437D01*
X113628571Y-127969437D02*
X113628571Y-127664675D01*
X113628571Y-127664675D02*
X113590476Y-127588484D01*
X113590476Y-127588484D02*
X113552381Y-127550389D01*
X113552381Y-127550389D02*
X113476190Y-127512294D01*
X113476190Y-127512294D02*
X113323809Y-127512294D01*
X113323809Y-127512294D02*
X113247619Y-127550389D01*
X113247619Y-127550389D02*
X113209524Y-127588484D01*
X113209524Y-127588484D02*
X113171428Y-127664675D01*
X113171428Y-127664675D02*
X113171428Y-127855151D01*
X113171428Y-127855151D02*
X113209524Y-127931341D01*
X113209524Y-127931341D02*
X113247619Y-127969437D01*
X113247619Y-127969437D02*
X113323809Y-128007532D01*
X113323809Y-128007532D02*
X113476190Y-128007532D01*
X113476190Y-128007532D02*
X113552381Y-127969437D01*
X113552381Y-127969437D02*
X113590476Y-127931341D01*
X113590476Y-127931341D02*
X113628571Y-127855151D01*
X107666667Y-122912295D02*
X107400000Y-122531342D01*
X107209524Y-122912295D02*
X107209524Y-122112295D01*
X107209524Y-122112295D02*
X107514286Y-122112295D01*
X107514286Y-122112295D02*
X107590476Y-122150390D01*
X107590476Y-122150390D02*
X107628571Y-122188485D01*
X107628571Y-122188485D02*
X107666667Y-122264676D01*
X107666667Y-122264676D02*
X107666667Y-122378961D01*
X107666667Y-122378961D02*
X107628571Y-122455152D01*
X107628571Y-122455152D02*
X107590476Y-122493247D01*
X107590476Y-122493247D02*
X107514286Y-122531342D01*
X107514286Y-122531342D02*
X107209524Y-122531342D01*
X108352381Y-122112295D02*
X108200000Y-122112295D01*
X108200000Y-122112295D02*
X108123809Y-122150390D01*
X108123809Y-122150390D02*
X108085714Y-122188485D01*
X108085714Y-122188485D02*
X108009524Y-122302771D01*
X108009524Y-122302771D02*
X107971428Y-122455152D01*
X107971428Y-122455152D02*
X107971428Y-122759914D01*
X107971428Y-122759914D02*
X108009524Y-122836104D01*
X108009524Y-122836104D02*
X108047619Y-122874200D01*
X108047619Y-122874200D02*
X108123809Y-122912295D01*
X108123809Y-122912295D02*
X108276190Y-122912295D01*
X108276190Y-122912295D02*
X108352381Y-122874200D01*
X108352381Y-122874200D02*
X108390476Y-122836104D01*
X108390476Y-122836104D02*
X108428571Y-122759914D01*
X108428571Y-122759914D02*
X108428571Y-122569438D01*
X108428571Y-122569438D02*
X108390476Y-122493247D01*
X108390476Y-122493247D02*
X108352381Y-122455152D01*
X108352381Y-122455152D02*
X108276190Y-122417057D01*
X108276190Y-122417057D02*
X108123809Y-122417057D01*
X108123809Y-122417057D02*
X108047619Y-122455152D01*
X108047619Y-122455152D02*
X108009524Y-122493247D01*
X108009524Y-122493247D02*
X107971428Y-122569438D01*
D13*
X128263095Y-111656119D02*
X128263095Y-112465642D01*
X128263095Y-112465642D02*
X128310714Y-112560880D01*
X128310714Y-112560880D02*
X128358333Y-112608500D01*
X128358333Y-112608500D02*
X128453571Y-112656119D01*
X128453571Y-112656119D02*
X128644047Y-112656119D01*
X128644047Y-112656119D02*
X128739285Y-112608500D01*
X128739285Y-112608500D02*
X128786904Y-112560880D01*
X128786904Y-112560880D02*
X128834523Y-112465642D01*
X128834523Y-112465642D02*
X128834523Y-111656119D01*
X129834523Y-112656119D02*
X129263095Y-112656119D01*
X129548809Y-112656119D02*
X129548809Y-111656119D01*
X129548809Y-111656119D02*
X129453571Y-111798976D01*
X129453571Y-111798976D02*
X129358333Y-111894214D01*
X129358333Y-111894214D02*
X129263095Y-111941833D01*
X103636666Y-123131119D02*
X103636666Y-123845404D01*
X103636666Y-123845404D02*
X103589047Y-123988261D01*
X103589047Y-123988261D02*
X103493809Y-124083500D01*
X103493809Y-124083500D02*
X103350952Y-124131119D01*
X103350952Y-124131119D02*
X103255714Y-124131119D01*
X104636666Y-124131119D02*
X104065238Y-124131119D01*
X104350952Y-124131119D02*
X104350952Y-123131119D01*
X104350952Y-123131119D02*
X104255714Y-123273976D01*
X104255714Y-123273976D02*
X104160476Y-123369214D01*
X104160476Y-123369214D02*
X104065238Y-123416833D01*
X130428333Y-114456119D02*
X130095000Y-113979928D01*
X129856905Y-114456119D02*
X129856905Y-113456119D01*
X129856905Y-113456119D02*
X130237857Y-113456119D01*
X130237857Y-113456119D02*
X130333095Y-113503738D01*
X130333095Y-113503738D02*
X130380714Y-113551357D01*
X130380714Y-113551357D02*
X130428333Y-113646595D01*
X130428333Y-113646595D02*
X130428333Y-113789452D01*
X130428333Y-113789452D02*
X130380714Y-113884690D01*
X130380714Y-113884690D02*
X130333095Y-113932309D01*
X130333095Y-113932309D02*
X130237857Y-113979928D01*
X130237857Y-113979928D02*
X129856905Y-113979928D01*
X130999762Y-113884690D02*
X130904524Y-113837071D01*
X130904524Y-113837071D02*
X130856905Y-113789452D01*
X130856905Y-113789452D02*
X130809286Y-113694214D01*
X130809286Y-113694214D02*
X130809286Y-113646595D01*
X130809286Y-113646595D02*
X130856905Y-113551357D01*
X130856905Y-113551357D02*
X130904524Y-113503738D01*
X130904524Y-113503738D02*
X130999762Y-113456119D01*
X130999762Y-113456119D02*
X131190238Y-113456119D01*
X131190238Y-113456119D02*
X131285476Y-113503738D01*
X131285476Y-113503738D02*
X131333095Y-113551357D01*
X131333095Y-113551357D02*
X131380714Y-113646595D01*
X131380714Y-113646595D02*
X131380714Y-113694214D01*
X131380714Y-113694214D02*
X131333095Y-113789452D01*
X131333095Y-113789452D02*
X131285476Y-113837071D01*
X131285476Y-113837071D02*
X131190238Y-113884690D01*
X131190238Y-113884690D02*
X130999762Y-113884690D01*
X130999762Y-113884690D02*
X130904524Y-113932309D01*
X130904524Y-113932309D02*
X130856905Y-113979928D01*
X130856905Y-113979928D02*
X130809286Y-114075166D01*
X130809286Y-114075166D02*
X130809286Y-114265642D01*
X130809286Y-114265642D02*
X130856905Y-114360880D01*
X130856905Y-114360880D02*
X130904524Y-114408500D01*
X130904524Y-114408500D02*
X130999762Y-114456119D01*
X130999762Y-114456119D02*
X131190238Y-114456119D01*
X131190238Y-114456119D02*
X131285476Y-114408500D01*
X131285476Y-114408500D02*
X131333095Y-114360880D01*
X131333095Y-114360880D02*
X131380714Y-114265642D01*
X131380714Y-114265642D02*
X131380714Y-114075166D01*
X131380714Y-114075166D02*
X131333095Y-113979928D01*
X131333095Y-113979928D02*
X131285476Y-113932309D01*
X131285476Y-113932309D02*
X131190238Y-113884690D01*
D12*
X123862295Y-144214285D02*
X123481342Y-144480952D01*
X123862295Y-144671428D02*
X123062295Y-144671428D01*
X123062295Y-144671428D02*
X123062295Y-144366666D01*
X123062295Y-144366666D02*
X123100390Y-144290476D01*
X123100390Y-144290476D02*
X123138485Y-144252381D01*
X123138485Y-144252381D02*
X123214676Y-144214285D01*
X123214676Y-144214285D02*
X123328961Y-144214285D01*
X123328961Y-144214285D02*
X123405152Y-144252381D01*
X123405152Y-144252381D02*
X123443247Y-144290476D01*
X123443247Y-144290476D02*
X123481342Y-144366666D01*
X123481342Y-144366666D02*
X123481342Y-144671428D01*
X123862295Y-143452381D02*
X123862295Y-143909524D01*
X123862295Y-143680952D02*
X123062295Y-143680952D01*
X123062295Y-143680952D02*
X123176580Y-143757143D01*
X123176580Y-143757143D02*
X123252771Y-143833333D01*
X123252771Y-143833333D02*
X123290866Y-143909524D01*
X123062295Y-143185714D02*
X123062295Y-142690476D01*
X123062295Y-142690476D02*
X123367057Y-142957142D01*
X123367057Y-142957142D02*
X123367057Y-142842857D01*
X123367057Y-142842857D02*
X123405152Y-142766666D01*
X123405152Y-142766666D02*
X123443247Y-142728571D01*
X123443247Y-142728571D02*
X123519438Y-142690476D01*
X123519438Y-142690476D02*
X123709914Y-142690476D01*
X123709914Y-142690476D02*
X123786104Y-142728571D01*
X123786104Y-142728571D02*
X123824200Y-142766666D01*
X123824200Y-142766666D02*
X123862295Y-142842857D01*
X123862295Y-142842857D02*
X123862295Y-143071428D01*
X123862295Y-143071428D02*
X123824200Y-143147619D01*
X123824200Y-143147619D02*
X123786104Y-143185714D01*
D13*
X115960880Y-129241666D02*
X116008500Y-129289285D01*
X116008500Y-129289285D02*
X116056119Y-129432142D01*
X116056119Y-129432142D02*
X116056119Y-129527380D01*
X116056119Y-129527380D02*
X116008500Y-129670237D01*
X116008500Y-129670237D02*
X115913261Y-129765475D01*
X115913261Y-129765475D02*
X115818023Y-129813094D01*
X115818023Y-129813094D02*
X115627547Y-129860713D01*
X115627547Y-129860713D02*
X115484690Y-129860713D01*
X115484690Y-129860713D02*
X115294214Y-129813094D01*
X115294214Y-129813094D02*
X115198976Y-129765475D01*
X115198976Y-129765475D02*
X115103738Y-129670237D01*
X115103738Y-129670237D02*
X115056119Y-129527380D01*
X115056119Y-129527380D02*
X115056119Y-129432142D01*
X115056119Y-129432142D02*
X115103738Y-129289285D01*
X115103738Y-129289285D02*
X115151357Y-129241666D01*
X115056119Y-128336904D02*
X115056119Y-128813094D01*
X115056119Y-128813094D02*
X115532309Y-128860713D01*
X115532309Y-128860713D02*
X115484690Y-128813094D01*
X115484690Y-128813094D02*
X115437071Y-128717856D01*
X115437071Y-128717856D02*
X115437071Y-128479761D01*
X115437071Y-128479761D02*
X115484690Y-128384523D01*
X115484690Y-128384523D02*
X115532309Y-128336904D01*
X115532309Y-128336904D02*
X115627547Y-128289285D01*
X115627547Y-128289285D02*
X115865642Y-128289285D01*
X115865642Y-128289285D02*
X115960880Y-128336904D01*
X115960880Y-128336904D02*
X116008500Y-128384523D01*
X116008500Y-128384523D02*
X116056119Y-128479761D01*
X116056119Y-128479761D02*
X116056119Y-128717856D01*
X116056119Y-128717856D02*
X116008500Y-128813094D01*
X116008500Y-128813094D02*
X115960880Y-128860713D01*
%TO.C,R7*%
D11*
X128846359Y-106720000D02*
X129153641Y-106720000D01*
X128846359Y-107480000D02*
X129153641Y-107480000D01*
%TO.C,C6*%
X121140580Y-133790000D02*
X120859420Y-133790000D01*
X121140580Y-134810000D02*
X120859420Y-134810000D01*
%TO.C,U3*%
X123150000Y-137340000D02*
X122100000Y-137340000D01*
X123150000Y-139660000D02*
X121850000Y-139660000D01*
X121740000Y-137340000D02*
X121460000Y-137340000D01*
X121740000Y-137060000D01*
X121740000Y-137340000D01*
G36*
X121740000Y-137340000D02*
G01*
X121460000Y-137340000D01*
X121740000Y-137060000D01*
X121740000Y-137340000D01*
G37*
%TO.C,SW2*%
X128780000Y-135540000D02*
X128780000Y-133460000D01*
X130050000Y-131780000D02*
X129560000Y-132270000D01*
X130050000Y-131780000D02*
X132950000Y-131780000D01*
X130050000Y-137220000D02*
X129560000Y-136730000D01*
X130050000Y-137220000D02*
X132950000Y-137220000D01*
X132950000Y-131780000D02*
X133440000Y-132270000D01*
X132950000Y-137220000D02*
X133440000Y-136730000D01*
X134220000Y-135540000D02*
X134220000Y-133460000D01*
%TO.C,J2*%
X106890000Y-150460000D02*
X106890000Y-152060000D01*
X106890000Y-152060000D02*
X108690000Y-152060000D01*
X108160000Y-147590000D02*
X127840000Y-147590000D01*
X108690000Y-152060000D02*
X108690000Y-153000000D01*
X129110000Y-150460000D02*
X129110000Y-152060000D01*
X129110000Y-152060000D02*
X127310000Y-152060000D01*
%TO.C,C7*%
X119090000Y-138640580D02*
X119090000Y-138359420D01*
X120110000Y-138640580D02*
X120110000Y-138359420D01*
%TO.C,U6*%
X128100000Y-143190000D02*
X127310000Y-143190000D01*
X128100000Y-146010000D02*
X127100000Y-146010000D01*
X126980000Y-143190000D02*
X126700000Y-143190000D01*
X126980000Y-142910000D01*
X126980000Y-143190000D01*
G36*
X126980000Y-143190000D02*
G01*
X126700000Y-143190000D01*
X126980000Y-142910000D01*
X126980000Y-143190000D01*
G37*
%TO.C,C3*%
X104040000Y-106192164D02*
X104040000Y-106407836D01*
X104760000Y-106192164D02*
X104760000Y-106407836D01*
%TO.C,R12*%
X121346359Y-141420000D02*
X121653641Y-141420000D01*
X121346359Y-142180000D02*
X121653641Y-142180000D01*
%TO.C,R14*%
X125346359Y-141420000D02*
X125653641Y-141420000D01*
X125346359Y-142180000D02*
X125653641Y-142180000D01*
%TO.C,C9*%
X127440000Y-138607836D02*
X127440000Y-138392164D01*
X128160000Y-138607836D02*
X128160000Y-138392164D01*
%TO.C,R15*%
X132346359Y-118620000D02*
X132653641Y-118620000D01*
X132346359Y-119380000D02*
X132653641Y-119380000D01*
%TO.C,C1*%
X106265000Y-102561252D02*
X106265000Y-102038748D01*
X107735000Y-102561252D02*
X107735000Y-102038748D01*
%TO.C,D1*%
X131015000Y-111265000D02*
X131015000Y-112735000D01*
X131015000Y-112735000D02*
X133300000Y-112735000D01*
X133300000Y-111265000D02*
X131015000Y-111265000D01*
%TO.C,U2*%
X108740000Y-124890000D02*
X108790000Y-124890000D01*
X108740000Y-126710000D02*
X108740000Y-124890000D01*
X108790000Y-126710000D02*
X108740000Y-126710000D01*
X111810000Y-124890000D02*
X111860000Y-124890000D01*
X111860000Y-124890000D02*
X111860000Y-126710000D01*
X111860000Y-126710000D02*
X111810000Y-126710000D01*
X108790000Y-127250000D02*
X108460000Y-127490000D01*
X108460000Y-127010000D01*
X108790000Y-127250000D01*
G36*
X108790000Y-127250000D02*
G01*
X108460000Y-127490000D01*
X108460000Y-127010000D01*
X108790000Y-127250000D01*
G37*
%TO.C,D2*%
X109490000Y-135699252D02*
X109490000Y-133890000D01*
X111710000Y-133890000D02*
X111710000Y-136110000D01*
X109480000Y-135990000D02*
X109290000Y-136130000D01*
X109290000Y-135850000D01*
X109480000Y-135990000D01*
G36*
X109480000Y-135990000D02*
G01*
X109290000Y-136130000D01*
X109290000Y-135850000D01*
X109480000Y-135990000D01*
G37*
%TO.C,R5*%
X106220000Y-120546359D02*
X106220000Y-120853641D01*
X106980000Y-120546359D02*
X106980000Y-120853641D01*
%TO.C,F1*%
X116386252Y-132790000D02*
X113613748Y-132790000D01*
X116386252Y-136210000D02*
X113613748Y-136210000D01*
%TO.C,U4*%
X119950000Y-125390000D02*
X123710000Y-125390000D01*
X119950000Y-132210000D02*
X123710000Y-132210000D01*
X123710000Y-125390000D02*
X123710000Y-126650000D01*
X123710000Y-132210000D02*
X123710000Y-130950000D01*
X118670000Y-125490000D02*
X118430000Y-125160000D01*
X118910000Y-125160000D01*
X118670000Y-125490000D01*
G36*
X118670000Y-125490000D02*
G01*
X118430000Y-125160000D01*
X118910000Y-125160000D01*
X118670000Y-125490000D01*
G37*
%TO.C,R10*%
X108153641Y-138020000D02*
X107846359Y-138020000D01*
X108153641Y-138780000D02*
X107846359Y-138780000D01*
%TO.C,R1*%
X105220000Y-106493641D02*
X105220000Y-106186359D01*
X105980000Y-106493641D02*
X105980000Y-106186359D01*
%TO.C,R3*%
X129746359Y-121120000D02*
X130053641Y-121120000D01*
X129746359Y-121880000D02*
X130053641Y-121880000D01*
%TO.C,TP1*%
X131700000Y-106300000D02*
G75*
G02*
X130300000Y-106300000I-700000J0D01*
G01*
X130300000Y-106300000D02*
G75*
G02*
X131700000Y-106300000I700000J0D01*
G01*
%TO.C,R11*%
X119346359Y-141420000D02*
X119653641Y-141420000D01*
X119346359Y-142180000D02*
X119653641Y-142180000D01*
%TO.C,D4*%
X109800748Y-143690000D02*
X111610000Y-143690000D01*
X111610000Y-145910000D02*
X109390000Y-145910000D01*
X109510000Y-143680000D02*
X109370000Y-143490000D01*
X109650000Y-143490000D01*
X109510000Y-143680000D01*
G36*
X109510000Y-143680000D02*
G01*
X109370000Y-143490000D01*
X109650000Y-143490000D01*
X109510000Y-143680000D01*
G37*
%TO.C,TP2*%
X131700000Y-108370000D02*
G75*
G02*
X130300000Y-108370000I-700000J0D01*
G01*
X130300000Y-108370000D02*
G75*
G02*
X131700000Y-108370000I700000J0D01*
G01*
%TO.C,U5*%
X115340000Y-145100000D02*
X115340000Y-145890000D01*
X118160000Y-145100000D02*
X118160000Y-146100000D01*
X115340000Y-146220000D02*
X115340000Y-146500000D01*
X115060000Y-146220000D01*
X115340000Y-146220000D01*
G36*
X115340000Y-146500000D02*
G01*
X115060000Y-146220000D01*
X115340000Y-146220000D01*
X115340000Y-146500000D01*
G37*
%TO.C,C8*%
X125065000Y-138761252D02*
X125065000Y-138238748D01*
X126535000Y-138761252D02*
X126535000Y-138238748D01*
%TO.C,R4*%
X107046359Y-106720000D02*
X107353641Y-106720000D01*
X107046359Y-107480000D02*
X107353641Y-107480000D01*
%TO.C,D3*%
X131015000Y-116265000D02*
X131015000Y-117735000D01*
X131015000Y-117735000D02*
X133300000Y-117735000D01*
X133300000Y-116265000D02*
X131015000Y-116265000D01*
%TO.C,R2*%
X102746359Y-106020000D02*
X103053641Y-106020000D01*
X102746359Y-106780000D02*
X103053641Y-106780000D01*
%TO.C,C4*%
X131892164Y-121140000D02*
X132107836Y-121140000D01*
X131892164Y-121860000D02*
X132107836Y-121860000D01*
%TO.C,C2*%
X107607836Y-104200000D02*
X107392164Y-104200000D01*
X107607836Y-104920000D02*
X107392164Y-104920000D01*
%TO.C,R9*%
X112846359Y-128620000D02*
X113153641Y-128620000D01*
X112846359Y-129380000D02*
X113153641Y-129380000D01*
%TO.C,R6*%
X107420000Y-120546359D02*
X107420000Y-120853641D01*
X108180000Y-120546359D02*
X108180000Y-120853641D01*
%TO.C,SW1*%
X128780000Y-128840000D02*
X128780000Y-126760000D01*
X130050000Y-125080000D02*
X129560000Y-125570000D01*
X130050000Y-125080000D02*
X132950000Y-125080000D01*
X130050000Y-130520000D02*
X129560000Y-130030000D01*
X130050000Y-130520000D02*
X132950000Y-130520000D01*
X132950000Y-125080000D02*
X133440000Y-125570000D01*
X132950000Y-130520000D02*
X133440000Y-130030000D01*
X134220000Y-128840000D02*
X134220000Y-126760000D01*
%TO.C,U1*%
X109250000Y-101600000D02*
X109250000Y-102350000D01*
X109250000Y-122050000D02*
X109250000Y-122800000D01*
X109250000Y-122800000D02*
X110250000Y-122800000D01*
X110300000Y-101600000D02*
X109250000Y-101600000D01*
X127250000Y-122025000D02*
X127250000Y-122800000D01*
X127250000Y-122800000D02*
X126250000Y-122800000D01*
%TO.C,J1*%
X104115000Y-126420000D02*
X105525000Y-126420000D01*
X104115000Y-135580000D02*
X105525000Y-135580000D01*
X108195000Y-127240000D02*
X108045000Y-127240000D01*
X108195000Y-128040000D02*
X108195000Y-127240000D01*
%TO.C,R8*%
X132346359Y-113620000D02*
X132653641Y-113620000D01*
X132346359Y-114380000D02*
X132653641Y-114380000D01*
%TO.C,R13*%
X123346359Y-141420000D02*
X123653641Y-141420000D01*
X123346359Y-142180000D02*
X123653641Y-142180000D01*
%TO.C,C5*%
X114865000Y-126661252D02*
X114865000Y-126138748D01*
X116335000Y-126661252D02*
X116335000Y-126138748D01*
%TD*%
%LPC*%
D15*
%TO.C,R7*%
X128490000Y-107100000D03*
X129510000Y-107100000D03*
%TD*%
D16*
%TO.C,C6*%
X121775000Y-134300000D03*
X120225000Y-134300000D03*
%TD*%
D17*
%TO.C,U3*%
X121760000Y-137750000D03*
X121760000Y-138250000D03*
X121760000Y-138750000D03*
X121760000Y-139250000D03*
X123240000Y-139250000D03*
X123240000Y-138750000D03*
X123240000Y-138250000D03*
X123240000Y-137750000D03*
%TD*%
D18*
%TO.C,SW2*%
X128400000Y-132650000D03*
X134600000Y-132650000D03*
X128400000Y-136350000D03*
X134600000Y-136350000D03*
%TD*%
D19*
%TO.C,J2*%
X109250000Y-152150000D03*
X110500000Y-152150000D03*
X111750000Y-152150000D03*
X113000000Y-152150000D03*
X114250000Y-152150000D03*
X115500000Y-152150000D03*
X116750000Y-152150000D03*
X118000000Y-152150000D03*
X119250000Y-152150000D03*
X120500000Y-152150000D03*
X121750000Y-152150000D03*
X123000000Y-152150000D03*
X124250000Y-152150000D03*
X125500000Y-152150000D03*
X126750000Y-152150000D03*
D20*
X107400000Y-148800000D03*
X128600000Y-148800000D03*
%TD*%
D21*
%TO.C,C7*%
X119600000Y-139275000D03*
X119600000Y-137725000D03*
%TD*%
D22*
%TO.C,U6*%
X127215000Y-143600000D03*
X127215000Y-144100000D03*
X127215000Y-144600000D03*
X127215000Y-145100000D03*
X127215000Y-145600000D03*
X127985000Y-145600000D03*
X127985000Y-145100000D03*
X127985000Y-144600000D03*
X127985000Y-144100000D03*
X127985000Y-143600000D03*
%TD*%
D23*
%TO.C,C3*%
X104400000Y-105820000D03*
X104400000Y-106780000D03*
%TD*%
D24*
%TO.C,H1*%
X103000000Y-103000000D03*
%TD*%
D15*
%TO.C,R12*%
X120990000Y-141800000D03*
X122010000Y-141800000D03*
%TD*%
%TO.C,R14*%
X124990000Y-141800000D03*
X126010000Y-141800000D03*
%TD*%
D25*
%TO.C,C9*%
X127800000Y-138980000D03*
X127800000Y-138020000D03*
%TD*%
D15*
%TO.C,R15*%
X131990000Y-119000000D03*
X133010000Y-119000000D03*
%TD*%
D26*
%TO.C,C1*%
X107000000Y-103250000D03*
X107000000Y-101350000D03*
%TD*%
D27*
%TO.C,D1*%
X131712500Y-112000000D03*
X133287500Y-112000000D03*
%TD*%
D28*
%TO.C,U2*%
X109350000Y-126937500D03*
X110300000Y-126937500D03*
X111250000Y-126937500D03*
X111250000Y-124662500D03*
X110300000Y-124662500D03*
X109350000Y-124662500D03*
%TD*%
D29*
%TO.C,D2*%
X109950000Y-135887500D03*
X110600000Y-135887500D03*
X111250000Y-135887500D03*
X111250000Y-134112500D03*
X110600000Y-134112500D03*
X109950000Y-134112500D03*
D30*
X110600000Y-135000000D03*
%TD*%
D31*
%TO.C,R5*%
X106600000Y-120190000D03*
X106600000Y-121210000D03*
%TD*%
D32*
%TO.C,F1*%
X117137500Y-134500000D03*
X112862500Y-134500000D03*
%TD*%
D33*
%TO.C,U4*%
X118650000Y-126500000D03*
X118650000Y-128800000D03*
D34*
X124950000Y-128800000D03*
D33*
X118650000Y-131100000D03*
%TD*%
D35*
%TO.C,R10*%
X108510000Y-138400000D03*
X107490000Y-138400000D03*
%TD*%
D36*
%TO.C,R1*%
X105600000Y-106850000D03*
X105600000Y-105830000D03*
%TD*%
D15*
%TO.C,R3*%
X129390000Y-121500000D03*
X130410000Y-121500000D03*
%TD*%
D24*
%TO.C,H3*%
X103000000Y-151000000D03*
%TD*%
D37*
%TO.C,TP1*%
X131000000Y-106300000D03*
%TD*%
D15*
%TO.C,R11*%
X118990000Y-141800000D03*
X120010000Y-141800000D03*
%TD*%
D38*
%TO.C,D4*%
X109612500Y-144150000D03*
X109612500Y-144800000D03*
X109612500Y-145450000D03*
X111387500Y-145450000D03*
X111387500Y-144800000D03*
X111387500Y-144150000D03*
D39*
X110500000Y-144800000D03*
%TD*%
D37*
%TO.C,TP2*%
X131000000Y-108370000D03*
%TD*%
D40*
%TO.C,U5*%
X115750000Y-145985000D03*
X116250000Y-145985000D03*
X116750000Y-145985000D03*
X117250000Y-145985000D03*
X117750000Y-145985000D03*
X117750000Y-145215000D03*
X117250000Y-145215000D03*
X116750000Y-145215000D03*
X116250000Y-145215000D03*
X115750000Y-145215000D03*
%TD*%
D26*
%TO.C,C8*%
X125800000Y-139450000D03*
X125800000Y-137550000D03*
%TD*%
D15*
%TO.C,R4*%
X106690000Y-107100000D03*
X107710000Y-107100000D03*
%TD*%
D24*
%TO.C,H2*%
X133000000Y-103000000D03*
%TD*%
D27*
%TO.C,D3*%
X131712500Y-117000000D03*
X133287500Y-117000000D03*
%TD*%
D24*
%TO.C,H4*%
X133000000Y-151000000D03*
%TD*%
D15*
%TO.C,R2*%
X102390000Y-106400000D03*
X103410000Y-106400000D03*
%TD*%
D41*
%TO.C,C4*%
X131520000Y-121500000D03*
X132480000Y-121500000D03*
%TD*%
D42*
%TO.C,C2*%
X107980000Y-104560000D03*
X107020000Y-104560000D03*
%TD*%
D15*
%TO.C,R9*%
X112490000Y-129000000D03*
X113510000Y-129000000D03*
%TD*%
D31*
%TO.C,R6*%
X107800000Y-120190000D03*
X107800000Y-121210000D03*
%TD*%
D18*
%TO.C,SW1*%
X128400000Y-125950000D03*
X134600000Y-125950000D03*
X128400000Y-129650000D03*
X134600000Y-129650000D03*
%TD*%
D43*
%TO.C,U1*%
X109500000Y-103290000D03*
X109500000Y-104560000D03*
X109500000Y-105830000D03*
X109500000Y-107100000D03*
X109500000Y-108370000D03*
X109500000Y-109640000D03*
X109500000Y-110910000D03*
X109500000Y-112180000D03*
X109500000Y-113450000D03*
X109500000Y-114720000D03*
X109500000Y-115990000D03*
X109500000Y-117260000D03*
X109500000Y-118530000D03*
X109500000Y-119800000D03*
D44*
X127000000Y-119800000D03*
X127000000Y-118530000D03*
X127000000Y-117260000D03*
X127000000Y-115990000D03*
X127000000Y-114720000D03*
X127000000Y-113450000D03*
X127000000Y-112180000D03*
X127000000Y-110910000D03*
X127000000Y-109640000D03*
X127000000Y-108370000D03*
X127000000Y-107100000D03*
X127000000Y-105830000D03*
X127000000Y-104560000D03*
X127000000Y-103290000D03*
D45*
X117379800Y-110178000D03*
X117379800Y-111878000D03*
X117379800Y-113578000D03*
X119079800Y-110178000D03*
X119079800Y-111878000D03*
X119079800Y-113578000D03*
X120779800Y-110178000D03*
X120779800Y-111878000D03*
X120779800Y-113578000D03*
D46*
X122250000Y-101850000D03*
X120980000Y-101850000D03*
X119710000Y-101850000D03*
%TD*%
D47*
%TO.C,J1*%
X106285000Y-128110000D03*
X106285000Y-133890000D03*
D48*
X107360000Y-127800000D03*
X107360000Y-128600000D03*
D49*
X107360000Y-129750000D03*
X107360000Y-130750000D03*
X107360000Y-131250000D03*
X107360000Y-132250000D03*
D48*
X107360000Y-133400000D03*
X107360000Y-134200000D03*
X107360000Y-134200000D03*
X107360000Y-133400000D03*
D49*
X107360000Y-132750000D03*
X107360000Y-131750000D03*
X107360000Y-130250000D03*
X107360000Y-129250000D03*
D48*
X107360000Y-128600000D03*
X107360000Y-127800000D03*
D50*
X106785000Y-125890000D03*
X102855000Y-125890000D03*
X106785000Y-136110000D03*
X102855000Y-136110000D03*
%TD*%
D15*
%TO.C,R8*%
X131990000Y-114000000D03*
X133010000Y-114000000D03*
%TD*%
%TO.C,R13*%
X122990000Y-141800000D03*
X124010000Y-141800000D03*
%TD*%
D26*
%TO.C,C5*%
X115600000Y-127350000D03*
X115600000Y-125450000D03*
%TD*%
%LPD*%
M02*
