M48
;GenerationSoftware,Autodesk,EAGLE,9.6.0*%
;CreationDate,2020-07-24T03:53:55Z*%
FMAT,2
ICI,OFF
METRIC,TZ,000.000
T5C0.350
T4C0.914
T3C1.016
T2C1.200
T1C3.200
%
G90
M71
T1
X134660Y22820
X134660Y77820
X41660Y77820
X41660Y22820
T2
X73000Y77500
X63000Y77500
X68000Y77500
T3
X118470Y23290
X115930Y23290
X113390Y23290
X110850Y23290
X127160Y77820
X124620Y77820
X122080Y77820
X121010Y23290
X119540Y77820
X117000Y77820
X114460Y77820
X111920Y77820
X109380Y77820
X106840Y77820
X104300Y77820
X99220Y77820
X96680Y77820
X94140Y77820
X91600Y77820
X89060Y77820
X128630Y23290
X126090Y23290
X123550Y23290
X101760Y77820
T4
X135000Y62350
X135000Y57270
X135000Y54730
X135000Y52190
X135000Y49650
X135000Y59810
T5
X126000Y58500
X126000Y53000
X132000Y54000
X124860Y61140
X95500Y54000
X110500Y65000
X120500Y57500
X79000Y70000
X118000Y58000
X117250Y56250
X112000Y48000
X96500Y47900
X111000Y48000
X101500Y48000
X113000Y48000
X94005Y46000
X97917Y47117
X122500Y31500
X118500Y27500
X91500Y41500
X113000Y43500
X98000Y41500
X81500Y42500
M30