%TF.GenerationSoftware,KiCad,Pcbnew,10.0.6-10.0.6~ubuntu24.04.1*%
%TF.CreationDate,2026-10-04T15:32:24-04:00*%
%TF.ProjectId,power-board-proto,706f7765-722d-4626-9f61-72642d70726f,rev?*%
%TF.SameCoordinates,Original*%
%TF.FileFunction,Soldermask,Top*%
%TF.FilePolarity,Negative*%
%FSLAX46Y46*%
G04 Gerber Fmt 4.6, Leading zero omitted, Abs format (unit mm)*
G04 Created by KiCad (PCBNEW 10.0.6-10.0.6~ubuntu24.04.1) date 2026-10-04 15:32:24*
%MOMM*%
%LPD*%
G01*
G04 APERTURE LIST*
G04 Aperture macros list*
%AMRoundRect*
0 Rectangle with rounded corners*
0 $1 Rounding radius*
0 $2 $3 $4 $5 $6 $7 $8 $9 X,Y pos of 4 corners*
0 Add a 4 corners polygon primitive as box body*
4,1,4,$2,$3,$4,$5,$6,$7,$8,$9,$2,$3,0*
0 Add four circle primitives for the rounded corners*
1,1,$1+$1,$2,$3*
1,1,$1+$1,$4,$5*
1,1,$1+$1,$6,$7*
1,1,$1+$1,$8,$9*
0 Add four rect primitives between the rounded corners*
20,1,$1+$1,$2,$3,$4,$5,0*
20,1,$1+$1,$4,$5,$6,$7,0*
20,1,$1+$1,$6,$7,$8,$9,0*
20,1,$1+$1,$8,$9,$2,$3,0*%
%AMFreePoly0*
4,1,15,2.200000,0.087500,0.150000,0.087500,0.150000,-0.287500,0.144291,-0.316201,0.128033,-0.340533,0.103701,-0.356791,0.075000,-0.362500,-0.075000,-0.362500,-0.103701,-0.356791,-0.128033,-0.340533,-0.144291,-0.316201,-0.150000,-0.287500,-0.150000,0.362500,2.200000,0.362500,2.200000,0.087500,2.200000,0.087500,$1*%
%AMFreePoly1*
4,1,9,1.825000,0.245000,1.175000,0.245000,1.175000,-0.500000,0.500000,-0.500000,-0.500000,-0.500000,-1.000000,-0.500000,-1.000000,0.700000,1.825000,0.700000,1.825000,0.245000,1.825000,0.245000,$1*%
G04 Aperture macros list end*
%ADD10RoundRect,0.155000X0.155000X-0.212500X0.155000X0.212500X-0.155000X0.212500X-0.155000X-0.212500X0*%
%ADD11RoundRect,0.237500X0.250000X0.237500X-0.250000X0.237500X-0.250000X-0.237500X0.250000X-0.237500X0*%
%ADD12RoundRect,0.237500X-0.300000X-0.237500X0.300000X-0.237500X0.300000X0.237500X-0.300000X0.237500X0*%
%ADD13RoundRect,0.160000X0.197500X0.160000X-0.197500X0.160000X-0.197500X-0.160000X0.197500X-0.160000X0*%
%ADD14RoundRect,0.250001X-1.099999X1.099999X-1.099999X-1.099999X1.099999X-1.099999X1.099999X1.099999X0*%
%ADD15C,2.700000*%
%ADD16RoundRect,0.140000X0.170000X-0.140000X0.170000X0.140000X-0.170000X0.140000X-0.170000X-0.140000X0*%
%ADD17RoundRect,0.160000X-0.197500X-0.160000X0.197500X-0.160000X0.197500X0.160000X-0.197500X0.160000X0*%
%ADD18RoundRect,0.250000X-0.350000X-0.625000X0.350000X-0.625000X0.350000X0.625000X-0.350000X0.625000X0*%
%ADD19O,1.200000X1.750000*%
%ADD20RoundRect,0.155000X0.212500X0.155000X-0.212500X0.155000X-0.212500X-0.155000X0.212500X-0.155000X0*%
%ADD21RoundRect,0.075000X-0.075000X-0.287500X0.075000X-0.287500X0.075000X0.287500X-0.075000X0.287500X0*%
%ADD22FreePoly0,270.000000*%
%ADD23RoundRect,0.075000X-0.287500X0.075000X-0.287500X-0.075000X0.287500X-0.075000X0.287500X0.075000X0*%
%ADD24R,1.050000X1.575000*%
%ADD25C,0.450000*%
%ADD26R,1.050000X1.150000*%
%ADD27FreePoly1,270.000000*%
%ADD28RoundRect,0.095000X0.095000X-0.195000X0.095000X0.195000X-0.095000X0.195000X-0.095000X-0.195000X0*%
%ADD29RoundRect,0.155000X-0.155000X0.212500X-0.155000X-0.212500X0.155000X-0.212500X0.155000X0.212500X0*%
%ADD30C,2.000000*%
%ADD31RoundRect,0.087500X-0.425000X-0.087500X0.425000X-0.087500X0.425000X0.087500X-0.425000X0.087500X0*%
%ADD32RoundRect,0.102000X-0.810000X1.605000X-0.810000X-1.605000X0.810000X-1.605000X0.810000X1.605000X0*%
%ADD33RoundRect,0.237500X-0.237500X0.287500X-0.237500X-0.287500X0.237500X-0.287500X0.237500X0.287500X0*%
%ADD34RoundRect,0.250001X-1.099999X-1.099999X1.099999X-1.099999X1.099999X1.099999X-1.099999X1.099999X0*%
%ADD35RoundRect,0.150000X-0.512500X-0.150000X0.512500X-0.150000X0.512500X0.150000X-0.512500X0.150000X0*%
%ADD36RoundRect,0.250000X-1.000000X-0.650000X1.000000X-0.650000X1.000000X0.650000X-1.000000X0.650000X0*%
%ADD37R,1.500000X1.000000*%
%ADD38C,6.400000*%
%ADD39RoundRect,0.250000X-0.600000X-0.750000X0.600000X-0.750000X0.600000X0.750000X-0.600000X0.750000X0*%
%ADD40O,1.700000X2.000000*%
%ADD41RoundRect,0.135000X-0.135000X-0.185000X0.135000X-0.185000X0.135000X0.185000X-0.135000X0.185000X0*%
%ADD42RoundRect,0.155000X0.040659X0.259862X-0.259862X-0.040659X-0.040659X-0.259862X0.259862X0.040659X0*%
%ADD43R,0.900000X1.000000*%
%ADD44RoundRect,0.250000X-0.070711X-0.565685X0.565685X0.070711X0.070711X0.565685X-0.565685X-0.070711X0*%
%ADD45RoundRect,0.249999X-1.425001X0.450001X-1.425001X-0.450001X1.425001X-0.450001X1.425001X0.450001X0*%
%ADD46RoundRect,0.237500X-0.250000X-0.237500X0.250000X-0.237500X0.250000X0.237500X-0.250000X0.237500X0*%
%ADD47R,1.500000X1.500000*%
%ADD48RoundRect,0.250000X-0.350000X0.850000X-0.350000X-0.850000X0.350000X-0.850000X0.350000X0.850000X0*%
%ADD49RoundRect,0.249997X-2.650003X2.950003X-2.650003X-2.950003X2.650003X-2.950003X2.650003X2.950003X0*%
%ADD50RoundRect,0.225000X0.375000X-0.225000X0.375000X0.225000X-0.375000X0.225000X-0.375000X-0.225000X0*%
%ADD51RoundRect,0.102000X1.700000X-0.925000X1.700000X0.925000X-1.700000X0.925000X-1.700000X-0.925000X0*%
%ADD52RoundRect,0.250000X-1.100000X0.412500X-1.100000X-0.412500X1.100000X-0.412500X1.100000X0.412500X0*%
%ADD53RoundRect,0.225000X-0.225000X-0.375000X0.225000X-0.375000X0.225000X0.375000X-0.225000X0.375000X0*%
%ADD54RoundRect,0.250000X-0.600000X-0.725000X0.600000X-0.725000X0.600000X0.725000X-0.600000X0.725000X0*%
%ADD55O,1.700000X1.950000*%
%ADD56RoundRect,0.150000X0.150000X-0.512500X0.150000X0.512500X-0.150000X0.512500X-0.150000X-0.512500X0*%
%ADD57R,1.140000X0.600000*%
%ADD58R,1.140000X0.300000*%
%ADD59O,2.100000X1.050000*%
%ADD60O,1.800000X0.900000*%
%ADD61RoundRect,0.237500X0.287500X0.237500X-0.287500X0.237500X-0.287500X-0.237500X0.287500X-0.237500X0*%
%ADD62RoundRect,0.160000X-0.160000X0.197500X-0.160000X-0.197500X0.160000X-0.197500X0.160000X0.197500X0*%
%ADD63RoundRect,0.237500X-0.237500X0.250000X-0.237500X-0.250000X0.237500X-0.250000X0.237500X0.250000X0*%
%ADD64RoundRect,0.160000X0.160000X-0.197500X0.160000X0.197500X-0.160000X0.197500X-0.160000X-0.197500X0*%
%ADD65RoundRect,0.237500X0.237500X-0.250000X0.237500X0.250000X-0.237500X0.250000X-0.237500X-0.250000X0*%
%ADD66RoundRect,0.050000X0.050000X-0.350000X0.050000X0.350000X-0.050000X0.350000X-0.050000X-0.350000X0*%
%ADD67RoundRect,0.050000X0.350000X-0.050000X0.350000X0.050000X-0.350000X0.050000X-0.350000X-0.050000X0*%
%ADD68R,3.400000X3.400000*%
%ADD69RoundRect,0.155000X-0.212500X-0.155000X0.212500X-0.155000X0.212500X0.155000X-0.212500X0.155000X0*%
%ADD70RoundRect,0.150000X-0.150000X0.512500X-0.150000X-0.512500X0.150000X-0.512500X0.150000X0.512500X0*%
%ADD71RoundRect,0.218750X-0.256250X0.218750X-0.256250X-0.218750X0.256250X-0.218750X0.256250X0.218750X0*%
%ADD72RoundRect,0.250001X1.099999X-1.099999X1.099999X1.099999X-1.099999X1.099999X-1.099999X-1.099999X0*%
%ADD73RoundRect,0.237500X-0.237500X0.300000X-0.237500X-0.300000X0.237500X-0.300000X0.237500X0.300000X0*%
%ADD74RoundRect,0.102000X0.810000X-1.605000X0.810000X1.605000X-0.810000X1.605000X-0.810000X-1.605000X0*%
%ADD75RoundRect,0.237500X0.237500X-0.300000X0.237500X0.300000X-0.237500X0.300000X-0.237500X-0.300000X0*%
%ADD76RoundRect,0.135000X0.185000X-0.135000X0.185000X0.135000X-0.185000X0.135000X-0.185000X-0.135000X0*%
%ADD77RoundRect,0.237500X-0.287500X-0.237500X0.287500X-0.237500X0.287500X0.237500X-0.287500X0.237500X0*%
%ADD78RoundRect,0.160000X0.026517X0.252791X-0.252791X-0.026517X-0.026517X-0.252791X0.252791X0.026517X0*%
%ADD79RoundRect,0.250000X-0.850000X-0.350000X0.850000X-0.350000X0.850000X0.350000X-0.850000X0.350000X0*%
%ADD80RoundRect,0.249997X-2.950003X-2.650003X2.950003X-2.650003X2.950003X2.650003X-2.950003X2.650003X0*%
%ADD81RoundRect,0.250000X-0.725000X0.600000X-0.725000X-0.600000X0.725000X-0.600000X0.725000X0.600000X0*%
%ADD82O,1.950000X1.700000*%
%ADD83RoundRect,0.102000X-1.387500X-1.387500X1.387500X-1.387500X1.387500X1.387500X-1.387500X1.387500X0*%
%ADD84C,2.979000*%
%ADD85RoundRect,0.102000X-2.500000X1.550000X-2.500000X-1.550000X2.500000X-1.550000X2.500000X1.550000X0*%
%ADD86R,2.000000X0.900000*%
%ADD87RoundRect,1.025000X1.025000X-1.025000X1.025000X1.025000X-1.025000X1.025000X-1.025000X-1.025000X0*%
%ADD88C,4.100000*%
%ADD89R,1.700000X1.700000*%
%ADD90C,1.700000*%
%ADD91RoundRect,0.150000X0.650000X-0.350000X0.650000X0.350000X-0.650000X0.350000X-0.650000X-0.350000X0*%
%ADD92RoundRect,0.075000X-0.200000X0.075000X-0.200000X-0.075000X0.200000X-0.075000X0.200000X0.075000X0*%
%ADD93R,0.400000X1.100000*%
%ADD94RoundRect,0.155000X0.259862X-0.040659X-0.040659X0.259862X-0.259862X0.040659X0.040659X-0.259862X0*%
%ADD95RoundRect,0.135000X0.135000X0.185000X-0.135000X0.185000X-0.135000X-0.185000X0.135000X-0.185000X0*%
%ADD96C,2.604000*%
%ADD97RoundRect,0.150000X0.512500X0.150000X-0.512500X0.150000X-0.512500X-0.150000X0.512500X-0.150000X0*%
%ADD98RoundRect,0.155000X-0.040659X-0.259862X0.259862X0.040659X0.040659X0.259862X-0.259862X-0.040659X0*%
G04 APERTURE END LIST*
%TO.C,JP2*%
G36*
X91750000Y-101850000D02*
G01*
X93250000Y-101850000D01*
X93250000Y-102150000D01*
X91750000Y-102150000D01*
X91750000Y-101850000D01*
G37*
%TO.C,JP1*%
G36*
X89250000Y-101850000D02*
G01*
X90750000Y-101850000D01*
X90750000Y-102150000D01*
X89250000Y-102150000D01*
X89250000Y-101850000D01*
G37*
%TD*%
D10*
%TO.C,C12*%
X85750000Y-121567500D03*
X85750000Y-120432500D03*
%TD*%
D11*
%TO.C,R66*%
X103412500Y-61000000D03*
X101587500Y-61000000D03*
%TD*%
D12*
%TO.C,C33*%
X146137500Y-74500000D03*
X147862500Y-74500000D03*
%TD*%
D13*
%TO.C,R53*%
X125347500Y-95000000D03*
X124152500Y-95000000D03*
%TD*%
D14*
%TO.C,J3*%
X163000000Y-128000000D03*
D15*
X163000000Y-131960000D03*
%TD*%
D16*
%TO.C,C7*%
X86750000Y-121480000D03*
X86750000Y-120520000D03*
%TD*%
D17*
%TO.C,R4*%
X84602500Y-124390000D03*
X85797500Y-124390000D03*
%TD*%
D11*
%TO.C,R74*%
X154662500Y-91750000D03*
X152837500Y-91750000D03*
%TD*%
D18*
%TO.C,J8*%
X141000000Y-144450000D03*
D19*
X143000000Y-144450000D03*
X145000000Y-144450000D03*
X147000000Y-144450000D03*
X149000000Y-144450000D03*
X151000000Y-144450000D03*
X153000000Y-144450000D03*
X155000000Y-144450000D03*
%TD*%
D20*
%TO.C,C41*%
X120317500Y-89500000D03*
X119182500Y-89500000D03*
%TD*%
D21*
%TO.C,U6*%
X121325000Y-93062501D03*
X120875000Y-93062501D03*
X119975000Y-93062501D03*
X119524999Y-93062500D03*
D22*
X118562500Y-93525000D03*
D23*
X118562500Y-93975000D03*
X118562500Y-94425000D03*
X118562500Y-95125000D03*
X118562500Y-95575000D03*
X118565000Y-96025000D03*
D21*
X119075000Y-96937500D03*
X119524999Y-96937500D03*
X119975000Y-96937499D03*
X120425000Y-96937499D03*
X120875000Y-96937499D03*
X121325000Y-96937499D03*
X121775001Y-96937500D03*
D23*
X122437500Y-96475000D03*
X122437500Y-96025000D03*
X122437500Y-95575000D03*
X122437500Y-95125000D03*
X122437500Y-94425000D03*
X122437500Y-93975000D03*
X122437500Y-93525000D03*
D24*
X121250001Y-95487500D03*
D25*
X121260000Y-95490000D03*
D26*
X121250001Y-93825000D03*
D25*
X121250000Y-93845000D03*
X120200000Y-93500000D03*
X119450000Y-93500000D03*
D27*
X119725000Y-94250000D03*
D25*
X120200000Y-94650001D03*
X119450000Y-94650001D03*
X120200000Y-95799999D03*
D28*
X119510000Y-95985000D03*
%TD*%
D29*
%TO.C,C10*%
X94750000Y-130682500D03*
X94750000Y-131817500D03*
%TD*%
D30*
%TO.C,TP22*%
X93500000Y-138000000D03*
%TD*%
D31*
%TO.C,U9*%
X83662500Y-111100000D03*
X83662500Y-111750000D03*
X83662500Y-112400000D03*
X85337500Y-112400000D03*
X85337500Y-111750000D03*
X85337500Y-111100000D03*
%TD*%
D17*
%TO.C,R60*%
X83902500Y-107000000D03*
X85097500Y-107000000D03*
%TD*%
D32*
%TO.C,C58*%
X120500000Y-109850000D03*
X120500000Y-115150000D03*
%TD*%
D10*
%TO.C,C14*%
X89250000Y-116817500D03*
X89250000Y-115682500D03*
%TD*%
D33*
%TO.C,D5*%
X163500000Y-67625000D03*
X163500000Y-69375000D03*
%TD*%
%TO.C,D16*%
X149000000Y-91875000D03*
X149000000Y-93625000D03*
%TD*%
D32*
%TO.C,C59*%
X113000000Y-109850000D03*
X113000000Y-115150000D03*
%TD*%
D34*
%TO.C,J15*%
X161000000Y-120000000D03*
D15*
X164960000Y-120000000D03*
%TD*%
D20*
%TO.C,C9*%
X85817500Y-126250000D03*
X84682500Y-126250000D03*
%TD*%
D32*
%TO.C,C57*%
X128000000Y-109850000D03*
X128000000Y-115150000D03*
%TD*%
D35*
%TO.C,U5*%
X146362500Y-71050000D03*
X146362500Y-72000000D03*
X146362500Y-72950000D03*
X148637500Y-72950000D03*
X148637500Y-72000000D03*
X148637500Y-71050000D03*
%TD*%
D30*
%TO.C,TP24*%
X92000000Y-73500000D03*
%TD*%
D20*
%TO.C,C17*%
X79067500Y-110500000D03*
X77932500Y-110500000D03*
%TD*%
D30*
%TO.C,TP8*%
X128000000Y-55250000D03*
%TD*%
D36*
%TO.C,D1*%
X93000000Y-62000000D03*
X97000000Y-62000000D03*
%TD*%
D32*
%TO.C,C56*%
X130500000Y-100100000D03*
X130500000Y-105400000D03*
%TD*%
D20*
%TO.C,C39*%
X120317500Y-90500000D03*
X119182500Y-90500000D03*
%TD*%
D37*
%TO.C,JP2*%
X92500000Y-101350000D03*
X92500000Y-102650000D03*
%TD*%
D38*
%TO.C,H4*%
X75000000Y-145000000D03*
%TD*%
D30*
%TO.C,TP14*%
X102000000Y-132500000D03*
%TD*%
D39*
%TO.C,J16*%
X112000000Y-138000000D03*
D40*
X114500000Y-138000000D03*
%TD*%
D30*
%TO.C,TP6*%
X145500000Y-55250000D03*
%TD*%
%TO.C,TP21*%
X97500000Y-138000000D03*
%TD*%
D41*
%TO.C,R12*%
X84990000Y-147500000D03*
X86010000Y-147500000D03*
%TD*%
D42*
%TO.C,C1*%
X105651283Y-125598717D03*
X104848717Y-126401283D03*
%TD*%
D41*
%TO.C,R63*%
X93990000Y-141000000D03*
X95010000Y-141000000D03*
%TD*%
D43*
%TO.C,SW2*%
X72950000Y-131700000D03*
X77050000Y-131700000D03*
X72950000Y-133300000D03*
X77050000Y-133300000D03*
%TD*%
D44*
%TO.C,Y1*%
X103823223Y-125378858D03*
X105378858Y-123823223D03*
X104176777Y-122621142D03*
X102621142Y-124176777D03*
%TD*%
D45*
%TO.C,R14*%
X138000000Y-107450000D03*
X138000000Y-113550000D03*
%TD*%
D46*
%TO.C,R24*%
X84587500Y-99000000D03*
X86412500Y-99000000D03*
%TD*%
D30*
%TO.C,TP25*%
X89500000Y-138000000D03*
%TD*%
D10*
%TO.C,C8*%
X97000000Y-116567500D03*
X97000000Y-115432500D03*
%TD*%
D47*
%TO.C,TP17*%
X90000000Y-94500000D03*
%TD*%
D48*
%TO.C,Q5*%
X140280000Y-96460000D03*
D49*
X138000000Y-102760000D03*
D48*
X135720000Y-96460000D03*
%TD*%
D50*
%TO.C,D6*%
X155000000Y-77650000D03*
X155000000Y-74350000D03*
%TD*%
D51*
%TO.C,L3*%
X141500000Y-73775000D03*
X141500000Y-68225000D03*
%TD*%
D30*
%TO.C,TP23*%
X136500000Y-55250000D03*
%TD*%
D10*
%TO.C,C5*%
X85750000Y-118817500D03*
X85750000Y-117682500D03*
%TD*%
D33*
%TO.C,D7*%
X141250000Y-91875000D03*
X141250000Y-93625000D03*
%TD*%
D52*
%TO.C,C52*%
X130500000Y-84687500D03*
X130500000Y-87812500D03*
%TD*%
D53*
%TO.C,D15*%
X97850000Y-67500000D03*
X101150000Y-67500000D03*
%TD*%
D32*
%TO.C,C43*%
X100000000Y-83350000D03*
X100000000Y-88650000D03*
%TD*%
D46*
%TO.C,R18*%
X84587500Y-85000000D03*
X86412500Y-85000000D03*
%TD*%
D52*
%TO.C,C53*%
X134000000Y-84687500D03*
X134000000Y-87812500D03*
%TD*%
D54*
%TO.C,J12*%
X112000000Y-131000000D03*
D55*
X114500000Y-131000000D03*
X117000000Y-131000000D03*
X119500000Y-131000000D03*
X122000000Y-131000000D03*
X124500000Y-131000000D03*
X127000000Y-131000000D03*
X129500000Y-131000000D03*
%TD*%
D56*
%TO.C,U2*%
X79050000Y-114637500D03*
X80000000Y-114637500D03*
X80950000Y-114637500D03*
X80950000Y-112362500D03*
X79050000Y-112362500D03*
%TD*%
D13*
%TO.C,R56*%
X122847500Y-100500000D03*
X121652500Y-100500000D03*
%TD*%
D38*
%TO.C,H3*%
X165000000Y-145000000D03*
%TD*%
D57*
%TO.C,J19*%
X77750000Y-120800000D03*
X77750000Y-121600000D03*
D58*
X77750000Y-122750000D03*
X77750000Y-123750000D03*
X77750000Y-124250000D03*
X77750000Y-125250000D03*
D57*
X77750000Y-127200000D03*
X77750000Y-126400000D03*
D58*
X77750000Y-125750000D03*
X77750000Y-124750000D03*
X77750000Y-123250000D03*
X77750000Y-122250000D03*
D59*
X77180000Y-119680000D03*
X77180000Y-128320000D03*
D60*
X73000000Y-119680000D03*
X73000000Y-128320000D03*
%TD*%
D61*
%TO.C,D4*%
X83375000Y-147500000D03*
X81625000Y-147500000D03*
%TD*%
D41*
%TO.C,R6*%
X84990000Y-142500000D03*
X86010000Y-142500000D03*
%TD*%
D62*
%TO.C,R48*%
X133000000Y-71902500D03*
X133000000Y-73097500D03*
%TD*%
%TO.C,R5*%
X86750000Y-117652500D03*
X86750000Y-118847500D03*
%TD*%
%TO.C,R1*%
X105000000Y-59652500D03*
X105000000Y-60847500D03*
%TD*%
D17*
%TO.C,R3*%
X84602500Y-123400000D03*
X85797500Y-123400000D03*
%TD*%
D10*
%TO.C,C25*%
X88000000Y-95067500D03*
X88000000Y-93932500D03*
%TD*%
D14*
%TO.C,J11*%
X130550000Y-121742500D03*
D15*
X130550000Y-125702500D03*
%TD*%
D48*
%TO.C,Q9*%
X156030000Y-96460000D03*
D49*
X153750000Y-102760000D03*
D48*
X151470000Y-96460000D03*
%TD*%
D51*
%TO.C,L2*%
X124000000Y-73775000D03*
X124000000Y-68225000D03*
%TD*%
D33*
%TO.C,D18*%
X157000000Y-91875000D03*
X157000000Y-93625000D03*
%TD*%
D48*
%TO.C,Q11*%
X101780000Y-70460000D03*
D49*
X99500000Y-76760000D03*
D48*
X97220000Y-70460000D03*
%TD*%
D43*
%TO.C,SW3*%
X72950000Y-136700000D03*
X77050000Y-136700000D03*
X72950000Y-138300000D03*
X77050000Y-138300000D03*
%TD*%
D63*
%TO.C,R70*%
X149000000Y-88337500D03*
X149000000Y-90162500D03*
%TD*%
D64*
%TO.C,R8*%
X78500000Y-133097500D03*
X78500000Y-131902500D03*
%TD*%
D65*
%TO.C,R30*%
X162000000Y-69412500D03*
X162000000Y-67587500D03*
%TD*%
D66*
%TO.C,U1*%
X89200000Y-128950000D03*
X89600000Y-128950000D03*
X90000000Y-128950000D03*
X90400000Y-128950000D03*
X90800000Y-128950000D03*
X91200000Y-128950000D03*
X91600000Y-128950000D03*
X92000000Y-128950000D03*
X92400000Y-128950000D03*
X92800000Y-128950000D03*
X93200000Y-128950000D03*
X93600000Y-128950000D03*
X94000000Y-128950000D03*
X94400000Y-128950000D03*
X94800000Y-128950000D03*
X95200000Y-128950000D03*
X95600000Y-128950000D03*
X96000000Y-128950000D03*
X96400000Y-128950000D03*
X96800000Y-128950000D03*
D67*
X97950000Y-127800000D03*
X97950000Y-127400000D03*
X97950000Y-127000000D03*
X97950000Y-126600000D03*
X97950000Y-126200000D03*
X97950000Y-125800000D03*
X97950000Y-125400000D03*
X97950000Y-125000000D03*
X97950000Y-124600000D03*
X97950000Y-124200000D03*
X97950000Y-123800000D03*
X97950000Y-123400000D03*
X97950000Y-123000000D03*
X97950000Y-122600000D03*
X97950000Y-122200000D03*
X97950000Y-121800000D03*
X97950000Y-121400000D03*
X97950000Y-121000000D03*
X97950000Y-120600000D03*
X97950000Y-120200000D03*
D66*
X96800000Y-119050000D03*
X96400000Y-119050000D03*
X96000000Y-119050000D03*
X95600000Y-119050000D03*
X95200000Y-119050000D03*
X94800000Y-119050000D03*
X94400000Y-119050000D03*
X94000000Y-119050000D03*
X93600000Y-119050000D03*
X93200000Y-119050000D03*
X92800000Y-119050000D03*
X92400000Y-119050000D03*
X92000000Y-119050000D03*
X91600000Y-119050000D03*
X91200000Y-119050000D03*
X90800000Y-119050000D03*
X90400000Y-119050000D03*
X90000000Y-119050000D03*
X89600000Y-119050000D03*
X89200000Y-119050000D03*
D67*
X88050000Y-120200000D03*
X88050000Y-120600000D03*
X88050000Y-121000000D03*
X88050000Y-121400000D03*
X88050000Y-121800000D03*
X88050000Y-122200000D03*
X88050000Y-122600000D03*
X88050000Y-123000000D03*
X88050000Y-123400000D03*
X88050000Y-123800000D03*
X88050000Y-124200000D03*
X88050000Y-124600000D03*
X88050000Y-125000000D03*
X88050000Y-125400000D03*
X88050000Y-125800000D03*
X88050000Y-126200000D03*
X88050000Y-126600000D03*
X88050000Y-127000000D03*
X88050000Y-127400000D03*
X88050000Y-127800000D03*
D68*
X93000000Y-124000000D03*
%TD*%
D20*
%TO.C,C34*%
X148567500Y-69500000D03*
X147432500Y-69500000D03*
%TD*%
D17*
%TO.C,R38*%
X106402500Y-142000000D03*
X107597500Y-142000000D03*
%TD*%
D38*
%TO.C,H2*%
X165000000Y-55000000D03*
%TD*%
D63*
%TO.C,R75*%
X157000000Y-88337500D03*
X157000000Y-90162500D03*
%TD*%
D11*
%TO.C,R19*%
X86412500Y-83500000D03*
X84587500Y-83500000D03*
%TD*%
%TO.C,R33*%
X138912500Y-91750000D03*
X137087500Y-91750000D03*
%TD*%
D18*
%TO.C,J7*%
X141000000Y-138450000D03*
D19*
X143000000Y-138450000D03*
X145000000Y-138450000D03*
X147000000Y-138450000D03*
X149000000Y-138450000D03*
X151000000Y-138450000D03*
X153000000Y-138450000D03*
X155000000Y-138450000D03*
%TD*%
D63*
%TO.C,R34*%
X141250000Y-88337500D03*
X141250000Y-90162500D03*
%TD*%
D69*
%TO.C,C48*%
X124182500Y-94000000D03*
X125317500Y-94000000D03*
%TD*%
D30*
%TO.C,TP26*%
X105000000Y-115000000D03*
%TD*%
D20*
%TO.C,C37*%
X120317500Y-91500000D03*
X119182500Y-91500000D03*
%TD*%
D12*
%TO.C,C29*%
X128637500Y-74500000D03*
X130362500Y-74500000D03*
%TD*%
D13*
%TO.C,R52*%
X125347500Y-96000000D03*
X124152500Y-96000000D03*
%TD*%
D70*
%TO.C,Q16*%
X104200000Y-63862500D03*
X102300000Y-63862500D03*
X103250000Y-66137500D03*
%TD*%
D46*
%TO.C,R20*%
X84587500Y-95500000D03*
X86412500Y-95500000D03*
%TD*%
D71*
%TO.C,D13*%
X92000000Y-144212500D03*
X92000000Y-145787500D03*
%TD*%
D13*
%TO.C,R55*%
X125347500Y-93000000D03*
X124152500Y-93000000D03*
%TD*%
D72*
%TO.C,J4*%
X152000000Y-132000000D03*
D15*
X152000000Y-128040000D03*
%TD*%
D73*
%TO.C,C61*%
X87400000Y-110937500D03*
X87400000Y-112662500D03*
%TD*%
D69*
%TO.C,C11*%
X99652500Y-126500000D03*
X100787500Y-126500000D03*
%TD*%
D46*
%TO.C,R17*%
X102587500Y-140500000D03*
X104412500Y-140500000D03*
%TD*%
D11*
%TO.C,R69*%
X146662500Y-91750000D03*
X144837500Y-91750000D03*
%TD*%
D10*
%TO.C,C26*%
X88000000Y-88067500D03*
X88000000Y-86932500D03*
%TD*%
D47*
%TO.C,TP18*%
X90000000Y-87500000D03*
%TD*%
D11*
%TO.C,R27*%
X86412500Y-90500000D03*
X84587500Y-90500000D03*
%TD*%
D46*
%TO.C,R26*%
X84587500Y-92000000D03*
X86412500Y-92000000D03*
%TD*%
D17*
%TO.C,R54*%
X119652500Y-98500000D03*
X120847500Y-98500000D03*
%TD*%
D53*
%TO.C,D19*%
X152100000Y-93750000D03*
X155400000Y-93750000D03*
%TD*%
D47*
%TO.C,TP16*%
X90000000Y-84000000D03*
%TD*%
D74*
%TO.C,C31*%
X123850000Y-64650000D03*
X123850000Y-59350000D03*
%TD*%
D30*
%TO.C,TP15*%
X102000000Y-136500000D03*
%TD*%
D11*
%TO.C,R23*%
X86412500Y-87000000D03*
X84587500Y-87000000D03*
%TD*%
D62*
%TO.C,R10*%
X79500000Y-131902500D03*
X79500000Y-133097500D03*
%TD*%
D74*
%TO.C,C40*%
X107500000Y-79150000D03*
X107500000Y-73850000D03*
%TD*%
D52*
%TO.C,C55*%
X127000000Y-84687500D03*
X127000000Y-87812500D03*
%TD*%
D29*
%TO.C,C15*%
X90750000Y-130682500D03*
X90750000Y-131817500D03*
%TD*%
D11*
%TO.C,R25*%
X86412500Y-97500000D03*
X84587500Y-97500000D03*
%TD*%
D17*
%TO.C,R51*%
X151652500Y-73000000D03*
X152847500Y-73000000D03*
%TD*%
D75*
%TO.C,C60*%
X87400000Y-108262500D03*
X87400000Y-106537500D03*
%TD*%
D62*
%TO.C,R11*%
X79500000Y-136902500D03*
X79500000Y-138097500D03*
%TD*%
D47*
%TO.C,TP20*%
X90000000Y-91000000D03*
%TD*%
D76*
%TO.C,R61*%
X92000000Y-148010000D03*
X92000000Y-146990000D03*
%TD*%
D77*
%TO.C,D14*%
X101625000Y-59500000D03*
X103375000Y-59500000D03*
%TD*%
D69*
%TO.C,C16*%
X79432500Y-116400000D03*
X80567500Y-116400000D03*
%TD*%
D74*
%TO.C,C36*%
X141500000Y-64650000D03*
X141500000Y-59350000D03*
%TD*%
D65*
%TO.C,R68*%
X104000000Y-70412500D03*
X104000000Y-68587500D03*
%TD*%
D48*
%TO.C,Q8*%
X148080000Y-96460000D03*
D49*
X145800000Y-102760000D03*
D48*
X143520000Y-96460000D03*
%TD*%
D45*
%TO.C,R13*%
X163000000Y-107450000D03*
X163000000Y-113550000D03*
%TD*%
D62*
%TO.C,R49*%
X134000000Y-73152500D03*
X134000000Y-74347500D03*
%TD*%
D78*
%TO.C,R39*%
X102622496Y-122077504D03*
X101777504Y-122922496D03*
%TD*%
D79*
%TO.C,Q3*%
X157960000Y-72720000D03*
D80*
X164260000Y-75000000D03*
D79*
X157960000Y-77280000D03*
%TD*%
D32*
%TO.C,C45*%
X115000000Y-83350000D03*
X115000000Y-88650000D03*
%TD*%
D30*
%TO.C,TP4*%
X120000000Y-105000000D03*
%TD*%
D11*
%TO.C,R64*%
X100412500Y-65500000D03*
X98587500Y-65500000D03*
%TD*%
D64*
%TO.C,R9*%
X78500000Y-138097500D03*
X78500000Y-136902500D03*
%TD*%
D81*
%TO.C,J1*%
X80445000Y-83750000D03*
D82*
X80445000Y-86250000D03*
X80445000Y-88750000D03*
X80445000Y-91250000D03*
X80445000Y-93750000D03*
X80445000Y-96250000D03*
%TD*%
D18*
%TO.C,J14*%
X112000000Y-124450000D03*
D19*
X114000000Y-124450000D03*
X116000000Y-124450000D03*
X118000000Y-124450000D03*
X120000000Y-124450000D03*
X122000000Y-124450000D03*
%TD*%
D83*
%TO.C,SW1*%
X107800000Y-70000000D03*
D84*
X112500000Y-70000000D03*
X117200000Y-70000000D03*
X109960000Y-57300000D03*
X115040000Y-57300000D03*
%TD*%
D41*
%TO.C,R7*%
X84990000Y-145000000D03*
X86010000Y-145000000D03*
%TD*%
D85*
%TO.C,L4*%
X111000000Y-94450000D03*
X111000000Y-105550000D03*
%TD*%
D53*
%TO.C,D8*%
X136350000Y-93750000D03*
X139650000Y-93750000D03*
%TD*%
D46*
%TO.C,R22*%
X84587500Y-88500000D03*
X86412500Y-88500000D03*
%TD*%
D47*
%TO.C,TP19*%
X90000000Y-98000000D03*
%TD*%
D35*
%TO.C,U4*%
X128862500Y-71050000D03*
X128862500Y-72000000D03*
X128862500Y-72950000D03*
X131137500Y-72950000D03*
X131137500Y-72000000D03*
X131137500Y-71050000D03*
%TD*%
D20*
%TO.C,C30*%
X131067500Y-69500000D03*
X129932500Y-69500000D03*
%TD*%
D37*
%TO.C,JP1*%
X90000000Y-101350000D03*
X90000000Y-102650000D03*
%TD*%
D53*
%TO.C,D17*%
X144100000Y-93750000D03*
X147400000Y-93750000D03*
%TD*%
D86*
%TO.C,J2*%
X81150000Y-76750000D03*
X81150000Y-63250000D03*
D87*
X87150000Y-73600000D03*
D88*
X87150000Y-66400000D03*
%TD*%
D74*
%TO.C,C32*%
X131500000Y-64650000D03*
X131500000Y-59350000D03*
%TD*%
%TO.C,C54*%
X130500000Y-96150000D03*
X130500000Y-90850000D03*
%TD*%
D11*
%TO.C,R21*%
X86412500Y-94000000D03*
X84587500Y-94000000D03*
%TD*%
D30*
%TO.C,TP1*%
X80000000Y-106000000D03*
%TD*%
D89*
%TO.C,J17*%
X73000000Y-107000000D03*
D90*
X73000000Y-109540000D03*
X73000000Y-112080000D03*
X73000000Y-114620000D03*
%TD*%
D45*
%TO.C,R15*%
X154000000Y-107450000D03*
X154000000Y-113550000D03*
%TD*%
D74*
%TO.C,C35*%
X149000000Y-64650000D03*
X149000000Y-59350000D03*
%TD*%
D91*
%TO.C,L1*%
X84000000Y-122000000D03*
X84000000Y-120000000D03*
%TD*%
D30*
%TO.C,TP2*%
X92000000Y-78500000D03*
%TD*%
D92*
%TO.C,U7*%
X80865000Y-124250000D03*
X80865000Y-124750000D03*
X80865000Y-125250000D03*
X80865000Y-125750000D03*
X80865000Y-126250000D03*
X81635000Y-126250000D03*
X81635000Y-125750000D03*
X81635000Y-125250000D03*
X81635000Y-124750000D03*
X81635000Y-124250000D03*
%TD*%
D10*
%TO.C,C6*%
X92500000Y-116567500D03*
X92500000Y-115432500D03*
%TD*%
D32*
%TO.C,C44*%
X107500000Y-83350000D03*
X107500000Y-88650000D03*
%TD*%
D10*
%TO.C,C24*%
X88000000Y-84567500D03*
X88000000Y-83432500D03*
%TD*%
D93*
%TO.C,U10*%
X95975000Y-142850000D03*
X95325000Y-142850000D03*
X94675000Y-142850000D03*
X94025000Y-142850000D03*
X94025000Y-147150000D03*
X94675000Y-147150000D03*
X95325000Y-147150000D03*
X95975000Y-147150000D03*
%TD*%
D29*
%TO.C,C46*%
X118500000Y-98432500D03*
X118500000Y-99567500D03*
%TD*%
D62*
%TO.C,R50*%
X150500000Y-71902500D03*
X150500000Y-73097500D03*
%TD*%
D38*
%TO.C,H1*%
X75000000Y-55000000D03*
%TD*%
D63*
%TO.C,R28*%
X153000000Y-74587500D03*
X153000000Y-76412500D03*
%TD*%
D31*
%TO.C,U8*%
X83662500Y-108350000D03*
X83662500Y-109000000D03*
X83662500Y-109650000D03*
X85337500Y-109650000D03*
X85337500Y-109000000D03*
X85337500Y-108350000D03*
%TD*%
D29*
%TO.C,C47*%
X118500000Y-100682500D03*
X118500000Y-101817500D03*
%TD*%
D13*
%TO.C,R57*%
X121847500Y-99500000D03*
X120652500Y-99500000D03*
%TD*%
D61*
%TO.C,D2*%
X83375000Y-142500000D03*
X81625000Y-142500000D03*
%TD*%
D10*
%TO.C,C27*%
X88000000Y-98567500D03*
X88000000Y-97432500D03*
%TD*%
D74*
%TO.C,C42*%
X115000000Y-79150000D03*
X115000000Y-73850000D03*
%TD*%
D94*
%TO.C,C2*%
X106151283Y-122401283D03*
X105348717Y-121598717D03*
%TD*%
D52*
%TO.C,C50*%
X123500000Y-84687500D03*
X123500000Y-87812500D03*
%TD*%
D95*
%TO.C,R62*%
X97010000Y-141000000D03*
X95990000Y-141000000D03*
%TD*%
D52*
%TO.C,C51*%
X137500000Y-84687500D03*
X137500000Y-87812500D03*
%TD*%
D96*
%TO.C,F1*%
X83265000Y-54300000D03*
X83265000Y-57700000D03*
X96735000Y-54300000D03*
X96735000Y-57700000D03*
%TD*%
D45*
%TO.C,R16*%
X146000000Y-107450000D03*
X146000000Y-113550000D03*
%TD*%
D61*
%TO.C,D3*%
X83375000Y-145000000D03*
X81625000Y-145000000D03*
%TD*%
D97*
%TO.C,Q2*%
X159137500Y-70450000D03*
X159137500Y-68550000D03*
X156862500Y-69500000D03*
%TD*%
D10*
%TO.C,C28*%
X88000000Y-91567500D03*
X88000000Y-90432500D03*
%TD*%
D29*
%TO.C,C4*%
X92750000Y-130682500D03*
X92750000Y-131817500D03*
%TD*%
D56*
%TO.C,Q1*%
X106050000Y-140137500D03*
X107950000Y-140137500D03*
X107000000Y-137862500D03*
%TD*%
D10*
%TO.C,C13*%
X93500000Y-116567500D03*
X93500000Y-115432500D03*
%TD*%
D65*
%TO.C,R32*%
X155000000Y-72912500D03*
X155000000Y-71087500D03*
%TD*%
D98*
%TO.C,C3*%
X101098717Y-122101283D03*
X101901283Y-121298717D03*
%TD*%
M02*
