%TF.GenerationSoftware,KiCad,Pcbnew,10.0.6-10.0.6~ubuntu24.04.1*%
%TF.CreationDate,2026-10-04T15:32:24-04:00*%
%TF.ProjectId,power-board-proto,706f7765-722d-4626-9f61-72642d70726f,rev?*%
%TF.SameCoordinates,Original*%
%TF.FileFunction,Soldermask,Bot*%
%TF.FilePolarity,Negative*%
%FSLAX46Y46*%
G04 Gerber Fmt 4.6, Leading zero omitted, Abs format (unit mm)*
G04 Created by KiCad (PCBNEW 10.0.6-10.0.6~ubuntu24.04.1) date 2026-10-04 15:32:24*
%MOMM*%
%LPD*%
G01*
G04 APERTURE LIST*
G04 Aperture macros list*
%AMRoundRect*
0 Rectangle with rounded corners*
0 $1 Rounding radius*
0 $2 $3 $4 $5 $6 $7 $8 $9 X,Y pos of 4 corners*
0 Add a 4 corners polygon primitive as box body*
4,1,4,$2,$3,$4,$5,$6,$7,$8,$9,$2,$3,0*
0 Add four circle primitives for the rounded corners*
1,1,$1+$1,$2,$3*
1,1,$1+$1,$4,$5*
1,1,$1+$1,$6,$7*
1,1,$1+$1,$8,$9*
0 Add four rect primitives between the rounded corners*
20,1,$1+$1,$2,$3,$4,$5,0*
20,1,$1+$1,$4,$5,$6,$7,0*
20,1,$1+$1,$6,$7,$8,$9,0*
20,1,$1+$1,$8,$9,$2,$3,0*%
G04 Aperture macros list end*
%ADD10RoundRect,0.250001X-1.099999X1.099999X-1.099999X-1.099999X1.099999X-1.099999X1.099999X1.099999X0*%
%ADD11C,2.700000*%
%ADD12RoundRect,0.250000X-0.350000X-0.625000X0.350000X-0.625000X0.350000X0.625000X-0.350000X0.625000X0*%
%ADD13O,1.200000X1.750000*%
%ADD14C,2.000000*%
%ADD15RoundRect,0.250001X-1.099999X-1.099999X1.099999X-1.099999X1.099999X1.099999X-1.099999X1.099999X0*%
%ADD16C,6.400000*%
%ADD17RoundRect,0.250000X-0.600000X-0.750000X0.600000X-0.750000X0.600000X0.750000X-0.600000X0.750000X0*%
%ADD18O,1.700000X2.000000*%
%ADD19RoundRect,0.250000X-0.600000X-0.725000X0.600000X-0.725000X0.600000X0.725000X-0.600000X0.725000X0*%
%ADD20O,1.700000X1.950000*%
%ADD21C,0.650000*%
%ADD22O,2.100000X1.050000*%
%ADD23O,1.800000X0.900000*%
%ADD24RoundRect,0.250001X1.099999X-1.099999X1.099999X1.099999X-1.099999X1.099999X-1.099999X-1.099999X0*%
%ADD25RoundRect,0.250000X-0.725000X0.600000X-0.725000X-0.600000X0.725000X-0.600000X0.725000X0.600000X0*%
%ADD26O,1.950000X1.700000*%
%ADD27RoundRect,0.102000X-1.387500X-1.387500X1.387500X-1.387500X1.387500X1.387500X-1.387500X1.387500X0*%
%ADD28C,2.979000*%
%ADD29R,2.000000X0.900000*%
%ADD30RoundRect,1.025000X1.025000X-1.025000X1.025000X1.025000X-1.025000X1.025000X-1.025000X-1.025000X0*%
%ADD31C,4.100000*%
%ADD32R,1.700000X1.700000*%
%ADD33C,1.700000*%
%ADD34C,2.604000*%
%ADD35RoundRect,0.155000X0.212500X0.155000X-0.212500X0.155000X-0.212500X-0.155000X0.212500X-0.155000X0*%
%ADD36R,1.500000X1.500000*%
%ADD37RoundRect,0.237500X0.237500X-0.250000X0.237500X0.250000X-0.237500X0.250000X-0.237500X-0.250000X0*%
%ADD38RoundRect,0.160000X0.197500X0.160000X-0.197500X0.160000X-0.197500X-0.160000X0.197500X-0.160000X0*%
%ADD39RoundRect,0.237500X0.250000X0.237500X-0.250000X0.237500X-0.250000X-0.237500X0.250000X-0.237500X0*%
%ADD40RoundRect,0.150000X-0.512500X-0.150000X0.512500X-0.150000X0.512500X0.150000X-0.512500X0.150000X0*%
%ADD41RoundRect,0.100000X-0.637500X-0.100000X0.637500X-0.100000X0.637500X0.100000X-0.637500X0.100000X0*%
%ADD42RoundRect,0.155000X0.155000X-0.212500X0.155000X0.212500X-0.155000X0.212500X-0.155000X-0.212500X0*%
%ADD43RoundRect,0.237500X-0.250000X-0.237500X0.250000X-0.237500X0.250000X0.237500X-0.250000X0.237500X0*%
%ADD44RoundRect,0.160000X0.160000X-0.197500X0.160000X0.197500X-0.160000X0.197500X-0.160000X-0.197500X0*%
%ADD45RoundRect,0.250000X-0.300000X-0.300000X0.300000X-0.300000X0.300000X0.300000X-0.300000X0.300000X0*%
%ADD46RoundRect,0.237500X-0.237500X0.250000X-0.237500X-0.250000X0.237500X-0.250000X0.237500X0.250000X0*%
G04 APERTURE END LIST*
D10*
%TO.C,J3*%
X163000000Y-128000000D03*
D11*
X163000000Y-131960000D03*
%TD*%
D12*
%TO.C,J8*%
X141000000Y-144450000D03*
D13*
X143000000Y-144450000D03*
X145000000Y-144450000D03*
X147000000Y-144450000D03*
X149000000Y-144450000D03*
X151000000Y-144450000D03*
X153000000Y-144450000D03*
X155000000Y-144450000D03*
%TD*%
D14*
%TO.C,TP22*%
X93500000Y-138000000D03*
%TD*%
D15*
%TO.C,J15*%
X161000000Y-120000000D03*
D11*
X164960000Y-120000000D03*
%TD*%
D14*
%TO.C,TP24*%
X92000000Y-73500000D03*
%TD*%
%TO.C,TP8*%
X128000000Y-55250000D03*
%TD*%
D16*
%TO.C,H4*%
X75000000Y-145000000D03*
%TD*%
D14*
%TO.C,TP14*%
X102000000Y-132500000D03*
%TD*%
D17*
%TO.C,J16*%
X112000000Y-138000000D03*
D18*
X114500000Y-138000000D03*
%TD*%
D14*
%TO.C,TP6*%
X145500000Y-55250000D03*
%TD*%
%TO.C,TP21*%
X97500000Y-138000000D03*
%TD*%
%TO.C,TP25*%
X89500000Y-138000000D03*
%TD*%
%TO.C,TP23*%
X136500000Y-55250000D03*
%TD*%
D19*
%TO.C,J12*%
X112000000Y-131000000D03*
D20*
X114500000Y-131000000D03*
X117000000Y-131000000D03*
X119500000Y-131000000D03*
X122000000Y-131000000D03*
X124500000Y-131000000D03*
X127000000Y-131000000D03*
X129500000Y-131000000D03*
%TD*%
D16*
%TO.C,H3*%
X165000000Y-145000000D03*
%TD*%
D21*
%TO.C,J19*%
X76680000Y-121110000D03*
X76680000Y-126890000D03*
D22*
X77180000Y-119680000D03*
X77180000Y-128320000D03*
D23*
X73000000Y-119680000D03*
X73000000Y-128320000D03*
%TD*%
D10*
%TO.C,J11*%
X130550000Y-121742500D03*
D11*
X130550000Y-125702500D03*
%TD*%
D16*
%TO.C,H2*%
X165000000Y-55000000D03*
%TD*%
D12*
%TO.C,J7*%
X141000000Y-138450000D03*
D13*
X143000000Y-138450000D03*
X145000000Y-138450000D03*
X147000000Y-138450000D03*
X149000000Y-138450000D03*
X151000000Y-138450000D03*
X153000000Y-138450000D03*
X155000000Y-138450000D03*
%TD*%
D14*
%TO.C,TP26*%
X105000000Y-115000000D03*
%TD*%
D24*
%TO.C,J4*%
X152000000Y-132000000D03*
D11*
X152000000Y-128040000D03*
%TD*%
D14*
%TO.C,TP15*%
X102000000Y-136500000D03*
%TD*%
%TO.C,TP4*%
X120000000Y-105000000D03*
%TD*%
D25*
%TO.C,J1*%
X80445000Y-83750000D03*
D26*
X80445000Y-86250000D03*
X80445000Y-88750000D03*
X80445000Y-91250000D03*
X80445000Y-93750000D03*
X80445000Y-96250000D03*
%TD*%
D12*
%TO.C,J14*%
X112000000Y-124450000D03*
D13*
X114000000Y-124450000D03*
X116000000Y-124450000D03*
X118000000Y-124450000D03*
X120000000Y-124450000D03*
X122000000Y-124450000D03*
%TD*%
D27*
%TO.C,SW1*%
X107800000Y-70000000D03*
D28*
X112500000Y-70000000D03*
X117200000Y-70000000D03*
X109960000Y-57300000D03*
X115040000Y-57300000D03*
%TD*%
D29*
%TO.C,J2*%
X81150000Y-76750000D03*
X81150000Y-63250000D03*
D30*
X87150000Y-73600000D03*
D31*
X87150000Y-66400000D03*
%TD*%
D14*
%TO.C,TP1*%
X80000000Y-106000000D03*
%TD*%
D32*
%TO.C,J17*%
X73000000Y-107000000D03*
D33*
X73000000Y-109540000D03*
X73000000Y-112080000D03*
X73000000Y-114620000D03*
%TD*%
D14*
%TO.C,TP2*%
X92000000Y-78500000D03*
%TD*%
D16*
%TO.C,H1*%
X75000000Y-55000000D03*
%TD*%
D34*
%TO.C,F1*%
X83265000Y-54300000D03*
X83265000Y-57700000D03*
X96735000Y-54300000D03*
X96735000Y-57700000D03*
%TD*%
D35*
%TO.C,C18*%
X149767500Y-99200000D03*
X148632500Y-99200000D03*
%TD*%
D36*
%TO.C,TP13*%
X147400000Y-108000000D03*
%TD*%
D37*
%TO.C,R78*%
X157000000Y-93912500D03*
X157000000Y-92087500D03*
%TD*%
D36*
%TO.C,TP10*%
X153400000Y-99200000D03*
%TD*%
D38*
%TO.C,R59*%
X75847500Y-122750000D03*
X74652500Y-122750000D03*
%TD*%
D37*
%TO.C,R37*%
X141500000Y-93912500D03*
X141500000Y-92087500D03*
%TD*%
D36*
%TO.C,TP11*%
X146400000Y-99200000D03*
%TD*%
D39*
%TO.C,R35*%
X139662500Y-93250000D03*
X137837500Y-93250000D03*
%TD*%
D40*
%TO.C,Q17*%
X145862500Y-91450000D03*
X145862500Y-89550000D03*
X148137500Y-90500000D03*
%TD*%
%TO.C,Q13*%
X138362500Y-91450000D03*
X138362500Y-89550000D03*
X140637500Y-90500000D03*
%TD*%
D41*
%TO.C,U3*%
X147137500Y-105450000D03*
X147137500Y-104800000D03*
X147137500Y-104150000D03*
X147137500Y-103500000D03*
X147137500Y-102850000D03*
X147137500Y-102200000D03*
X147137500Y-101550000D03*
X152862500Y-101550000D03*
X152862500Y-102200000D03*
X152862500Y-102850000D03*
X152862500Y-103500000D03*
X152862500Y-104150000D03*
X152862500Y-104800000D03*
X152862500Y-105450000D03*
%TD*%
D42*
%TO.C,C22*%
X154000000Y-111067500D03*
X154000000Y-109932500D03*
%TD*%
D39*
%TO.C,R71*%
X147412500Y-93250000D03*
X145587500Y-93250000D03*
%TD*%
D35*
%TO.C,C38*%
X120817500Y-98500000D03*
X119682500Y-98500000D03*
%TD*%
D40*
%TO.C,Q18*%
X153862500Y-91450000D03*
X153862500Y-89550000D03*
X156137500Y-90500000D03*
%TD*%
D43*
%TO.C,R72*%
X145587500Y-94750000D03*
X147412500Y-94750000D03*
%TD*%
D42*
%TO.C,C23*%
X146000000Y-111067500D03*
X146000000Y-109932500D03*
%TD*%
D35*
%TO.C,C19*%
X149767500Y-100200000D03*
X148632500Y-100200000D03*
%TD*%
D44*
%TO.C,R2*%
X105000000Y-60847500D03*
X105000000Y-59652500D03*
%TD*%
D42*
%TO.C,C21*%
X138000000Y-111067500D03*
X138000000Y-109932500D03*
%TD*%
D45*
%TO.C,D9*%
X111900000Y-141100000D03*
X114700000Y-141100000D03*
%TD*%
D43*
%TO.C,R36*%
X137837500Y-94750000D03*
X139662500Y-94750000D03*
%TD*%
D37*
%TO.C,R29*%
X163500000Y-69412500D03*
X163500000Y-67587500D03*
%TD*%
D43*
%TO.C,R77*%
X153587500Y-94750000D03*
X155412500Y-94750000D03*
%TD*%
D42*
%TO.C,C20*%
X163000000Y-111067500D03*
X163000000Y-109932500D03*
%TD*%
D36*
%TO.C,TP12*%
X152600000Y-108000000D03*
%TD*%
D37*
%TO.C,R73*%
X149000000Y-93912500D03*
X149000000Y-92087500D03*
%TD*%
D38*
%TO.C,R58*%
X75847500Y-125750000D03*
X74652500Y-125750000D03*
%TD*%
D39*
%TO.C,R65*%
X103412500Y-59500000D03*
X101587500Y-59500000D03*
%TD*%
D46*
%TO.C,R31*%
X162000000Y-67587500D03*
X162000000Y-69412500D03*
%TD*%
D39*
%TO.C,R76*%
X155412500Y-93250000D03*
X153587500Y-93250000D03*
%TD*%
D43*
%TO.C,R67*%
X101587500Y-61000000D03*
X103412500Y-61000000D03*
%TD*%
M02*
