  0
SECTION
  2
HEADER
  9
$ACADVER
  1
AC1009
  9
$FILLMODE
 70
0
  9
$EXTMIN
 10
-1.0256
 20
0.0000
 30
0.0000
  9
$EXTMAX
 10
268.9860
 20
138.1760
 30
0.0000
  0
ENDSEC
  0
SECTION
  2
TABLES
  0
TABLE
  2
LTYPE
 70
1
  0
LTYPE
  2
CONTINUOUS
 70
64
  3
Solid line
 72
65
 73
0
 40
0
  0
ENDTAB
  0
TABLE
  2
LAYER
 70
255
  0
LAYER
  2
20
 70
64
 62
7
  6
CONTINUOUS
  0
ENDTAB
  0
ENDSEC
  0
SECTION
  2
BLOCKS
  0
BLOCK
  8
0
  2
RECT
 70
64
 10
0.0000
 20
0.0000
 30
0.0000
  3
RECT
  0
SOLID
  8
0
 10
-0.5000
 20
-0.5000
 30
0.0000
 11
0.5000
 21
-0.5000
 31
0.0000
 12
-0.5000
 22
0.5000
 32
0.0000
 13
0.5000
 23
0.5000
 33
0.0000
  0
ENDBLK
  8
0
  0
BLOCK
  8
0
  2
PIE
 70
64
 10
0.0000
 20
0.0000
 30
0.0000
  3
PIE
  0
CIRCLE
  8
0
 10
0.0000
 20
0.0000
 30
0.0000
 40
0.5000
  0
ENDBLK
  8
0
  0
BLOCK
  8
0
  2
OCTAGONP
 70
64
 10
0.0000
 20
0.0000
 30
0.0000
  3
OCTAGONP
  0
POLYLINE
  8
0
 66
1
 10
0.0000
 20
0.0000
 30
0.0000
 40
0.0000
 41
0.0000
 70
1
  0
VERTEX
  8
0
 10
-0.5000
 20
-0.2071
 30
0.0000
  0
VERTEX
  8
0
 10
-0.5000
 20
0.2071
 30
0.0000
  0
VERTEX
  8
0
 10
-0.2071
 20
0.5000
 30
0.0000
  0
VERTEX
  8
0
 10
0.2071
 20
0.5000
 30
0.0000
  0
VERTEX
  8
0
 10
0.5000
 20
0.2071
 30
0.0000
  0
VERTEX
  8
0
 10
0.5000
 20
-0.2071
 30
0.0000
  0
VERTEX
  8
0
 10
0.2071
 20
-0.5000
 30
0.0000
  0
VERTEX
  8
0
 10
-0.2071
 20
-0.5000
 30
0.0000
  0
SEQEND
  8
0
  0
ENDBLK
  8
0
  0
BLOCK
  8
0
  2
SQUAREP
 70
64
 10
0.0000
 20
0.0000
 30
0.0000
  3
SQUAREP
  0
SOLID
  8
0
 10
-0.5000
 20
-0.5000
 30
0.0000
 11
0.5000
 21
-0.5000
 31
0.0000
 12
-0.5000
 22
0.5000
 32
0.0000
 13
0.5000
 23
0.5000
 33
0.0000
  0
ENDBLK
  8
0
  0
BLOCK
  8
0
  2
ROUNDP
 70
64
 10
0.0000
 20
0.0000
 30
0.0000
  3
ROUNDP
  0
CIRCLE
  8
0
 10
0.0000
 20
0.0000
 30
0.0000
 40
0.5000
  0
ENDBLK
  8
0
  0
BLOCK
  8
0
  2
ANNULUSP
 70
64
 10
0.0000
 20
0.0000
 30
0.0000
  3
ANNULUSP
  0
CIRCLE
  8
0
 10
0.0000
 20
0.0000
 30
0.0000
 40
0.5000
  0
ENDBLK
  8
0
  0
BLOCK
  8
0
  2
THERMALP
 70
64
 10
0.0000
 20
0.0000
 30
0.0000
  3
THERMALP
  0
POLYLINE
  8
0
 66
1
 10
0.0000
 20
0.0000
 30
0.0000
 40
0.0000
 41
0.0000
 70
1
  0
VERTEX
  8
0
 10
-0.2379
 20
0.4000
 30
0.0000
  0
VERTEX
  8
0
 10
0.2379
 20
0.4000
 30
0.0000
 42
1.0000
  0
VERTEX
  8
0
 10
0.2379
 20
0.5000
 30
0.0000
  0
VERTEX
  8
0
 10
-0.2379
 20
0.5000
 30
0.0000
 42
1.0000
  0
SEQEND
  8
0
  0
POLYLINE
  8
0
 66
1
 10
0.0000
 20
0.0000
 30
0.0000
 40
0.0000
 41
0.0000
 70
1
  0
VERTEX
  8
0
 10
0.4000
 20
0.2379
 30
0.0000
  0
VERTEX
  8
0
 10
0.4000
 20
-0.2379
 30
0.0000
 42
1.0000
  0
VERTEX
  8
0
 10
0.5000
 20
-0.2379
 30
0.0000
  0
VERTEX
  8
0
 10
0.5000
 20
0.2379
 30
0.0000
 42
1.0000
  0
SEQEND
  8
0
  0
POLYLINE
  8
0
 66
1
 10
0.0000
 20
0.0000
 30
0.0000
 40
0.0000
 41
0.0000
 70
1
  0
VERTEX
  8
0
 10
0.2379
 20
-0.4000
 30
0.0000
  0
VERTEX
  8
0
 10
-0.2379
 20
-0.4000
 30
0.0000
 42
1.0000
  0
VERTEX
  8
0
 10
-0.2379
 20
-0.5000
 30
0.0000
  0
VERTEX
  8
0
 10
0.2379
 20
-0.5000
 30
0.0000
 42
1.0000
  0
SEQEND
  8
0
  0
POLYLINE
  8
0
 66
1
 10
0.0000
 20
0.0000
 30
0.0000
 40
0.0000
 41
0.0000
 70
1
  0
VERTEX
  8
0
 10
-0.4000
 20
-0.2379
 30
0.0000
  0
VERTEX
  8
0
 10
-0.4000
 20
0.2379
 30
0.0000
 42
1.0000
  0
VERTEX
  8
0
 10
-0.5000
 20
0.2379
 30
0.0000
  0
VERTEX
  8
0
 10
-0.5000
 20
-0.2379
 30
0.0000
 42
1.0000
  0
SEQEND
  8
0
  0
ENDBLK
  8
0
  0
BLOCK
  8
0
  2
OCTAGONV
 70
64
 10
0.0000
 20
0.0000
 30
0.0000
  3
OCTAGONV
  0
POLYLINE
  8
0
 66
1
 10
0.0000
 20
0.0000
 30
0.0000
 40
0.0000
 41
0.0000
 70
1
  0
VERTEX
  8
0
 10
-0.5000
 20
-0.2071
 30
0.0000
  0
VERTEX
  8
0
 10
-0.5000
 20
0.2071
 30
0.0000
  0
VERTEX
  8
0
 10
-0.2071
 20
0.5000
 30
0.0000
  0
VERTEX
  8
0
 10
0.2071
 20
0.5000
 30
0.0000
  0
VERTEX
  8
0
 10
0.5000
 20
0.2071
 30
0.0000
  0
VERTEX
  8
0
 10
0.5000
 20
-0.2071
 30
0.0000
  0
VERTEX
  8
0
 10
0.2071
 20
-0.5000
 30
0.0000
  0
VERTEX
  8
0
 10
-0.2071
 20
-0.5000
 30
0.0000
  0
SEQEND
  8
0
  0
ENDBLK
  8
0
  0
BLOCK
  8
0
  2
SQUAREV
 70
64
 10
0.0000
 20
0.0000
 30
0.0000
  3
SQUAREV
  0
SOLID
  8
0
 10
-0.5000
 20
-0.5000
 30
0.0000
 11
0.5000
 21
-0.5000
 31
0.0000
 12
-0.5000
 22
0.5000
 32
0.0000
 13
0.5000
 23
0.5000
 33
0.0000
  0
ENDBLK
  8
0
  0
BLOCK
  8
0
  2
ROUNDV
 70
64
 10
0.0000
 20
0.0000
 30
0.0000
  3
ROUNDV
  0
CIRCLE
  8
0
 10
0.0000
 20
0.0000
 30
0.0000
 40
0.5000
  0
ENDBLK
  8
0
  0
BLOCK
  8
0
  2
ANNULUSV
 70
64
 10
0.0000
 20
0.0000
 30
0.0000
  3
ANNULUSV
  0
CIRCLE
  8
0
 10
0.0000
 20
0.0000
 30
0.0000
 40
0.5000
  0
ENDBLK
  8
0
  0
BLOCK
  8
0
  2
THERMALV
 70
64
 10
0.0000
 20
0.0000
 30
0.0000
  3
THERMALV
  0
POLYLINE
  8
0
 66
1
 10
0.0000
 20
0.0000
 30
0.0000
 40
0.0000
 41
0.0000
 70
1
  0
VERTEX
  8
0
 10
-0.2379
 20
0.4000
 30
0.0000
  0
VERTEX
  8
0
 10
0.2379
 20
0.4000
 30
0.0000
 42
1.0000
  0
VERTEX
  8
0
 10
0.2379
 20
0.5000
 30
0.0000
  0
VERTEX
  8
0
 10
-0.2379
 20
0.5000
 30
0.0000
 42
1.0000
  0
SEQEND
  8
0
  0
POLYLINE
  8
0
 66
1
 10
0.0000
 20
0.0000
 30
0.0000
 40
0.0000
 41
0.0000
 70
1
  0
VERTEX
  8
0
 10
0.4000
 20
0.2379
 30
0.0000
  0
VERTEX
  8
0
 10
0.4000
 20
-0.2379
 30
0.0000
 42
1.0000
  0
VERTEX
  8
0
 10
0.5000
 20
-0.2379
 30
0.0000
  0
VERTEX
  8
0
 10
0.5000
 20
0.2379
 30
0.0000
 42
1.0000
  0
SEQEND
  8
0
  0
POLYLINE
  8
0
 66
1
 10
0.0000
 20
0.0000
 30
0.0000
 40
0.0000
 41
0.0000
 70
1
  0
VERTEX
  8
0
 10
0.2379
 20
-0.4000
 30
0.0000
  0
VERTEX
  8
0
 10
-0.2379
 20
-0.4000
 30
0.0000
 42
1.0000
  0
VERTEX
  8
0
 10
-0.2379
 20
-0.5000
 30
0.0000
  0
VERTEX
  8
0
 10
0.2379
 20
-0.5000
 30
0.0000
 42
1.0000
  0
SEQEND
  8
0
  0
POLYLINE
  8
0
 66
1
 10
0.0000
 20
0.0000
 30
0.0000
 40
0.0000
 41
0.0000
 70
1
  0
VERTEX
  8
0
 10
-0.4000
 20
-0.2379
 30
0.0000
  0
VERTEX
  8
0
 10
-0.4000
 20
0.2379
 30
0.0000
 42
1.0000
  0
VERTEX
  8
0
 10
-0.5000
 20
0.2379
 30
0.0000
  0
VERTEX
  8
0
 10
-0.5000
 20
-0.2379
 30
0.0000
 42
1.0000
  0
SEQEND
  8
0
  0
ENDBLK
  8
0
  0
BLOCK
  8
0
  2
LONGP100
 70
64
 10
0.0000
 20
0.0000
 30
0.0000
  3
LONGP100
  0
POLYLINE
  8
0
 66
1
 10
0.0000
 20
0.0000
 30
0.0000
 40
0.0000
 41
0.0000
 70
1
  0
VERTEX
  8
0
 10
-0.5000
 20
-0.5000
 30
0.0000
  0
VERTEX
  8
0
 10
0.5000
 20
-0.5000
 30
0.0000
 42
1.0000
  0
VERTEX
  8
0
 10
0.5000
 20
0.5000
 30
0.0000
  0
VERTEX
  8
0
 10
-0.5000
 20
0.5000
 30
0.0000
 42
1.0000
  0
SEQEND
  8
0
  0
ENDBLK
  8
0
  0
ENDSEC
  0
SECTION
  2
ENTITIES
  0
LINE
  8
20
 10
48.2600
 20
0.0000
 30
0.0000
 11
54.6100
 21
6.3500
 31
0.0000
  0
LINE
  8
20
 10
54.6100
 20
6.3500
 30
0.0000
 11
54.6100
 21
57.8485
 31
0.0000
  0
LINE
  8
20
 10
54.6100
 20
57.8485
 30
0.0000
 11
65.4050
 21
57.8485
 31
0.0000
  0
LINE
  8
20
 10
65.4050
 20
57.8485
 30
0.0000
 11
65.4050
 21
110.4900
 31
0.0000
  0
LINE
  8
20
 10
65.4050
 20
110.4900
 30
0.0000
 11
0.0000
 21
110.4900
 31
0.0000
  0
LINE
  8
20
 10
0.0000
 20
110.4900
 30
0.0000
 11
0.0000
 21
21.5900
 31
0.0000
  0
LINE
  8
20
 10
0.0000
 20
21.5900
 30
0.0000
 11
13.9700
 21
21.5900
 31
0.0000
  0
LINE
  8
20
 10
13.9700
 20
21.5900
 30
0.0000
 11
13.9700
 21
0.0000
 31
0.0000
  0
LINE
  8
20
 10
13.9700
 20
0.0000
 30
0.0000
 11
48.2600
 21
0.0000
 31
0.0000
  0
LINE
  8
20
 10
56.3880
 20
110.7440
 30
0.0000
 11
56.3880
 21
121.9200
 31
0.0000
  0
LINE
  8
20
 10
56.3880
 20
121.9200
 30
0.0000
 11
33.5280
 21
121.9200
 31
0.0000
  0
LINE
  8
20
 10
10.6680
 20
127.0000
 30
0.0000
 11
0.0000
 21
127.0000
 31
0.0000
  0
LINE
  8
20
 10
0.0000
 20
127.0000
 30
0.0000
 11
0.0000
 21
110.7440
 31
0.0000
  0
LINE
  8
20
 10
0.0000
 20
110.7440
 30
0.0000
 11
56.3880
 21
110.7440
 31
0.0000
  0
LINE
  8
20
 10
10.6680
 20
138.1760
 30
0.0000
 11
10.6680
 21
127.0000
 31
0.0000
  0
LINE
  8
20
 10
10.6680
 20
127.0000
 30
0.0000
 11
33.5280
 21
127.0000
 31
0.0000
  0
LINE
  8
20
 10
33.5280
 20
127.0000
 30
0.0000
 11
33.5280
 21
121.9200
 31
0.0000
  0
LINE
  8
20
 10
56.3880
 20
121.9200
 30
0.0000
 11
67.0560
 21
121.9200
 31
0.0000
  0
LINE
  8
20
 10
67.0560
 20
121.9200
 30
0.0000
 11
67.0560
 21
138.1760
 31
0.0000
  0
LINE
  8
20
 10
67.0560
 20
138.1760
 30
0.0000
 11
10.6680
 21
138.1760
 31
0.0000
  0
LINE
  8
20
 10
115.5700
 20
0.0000
 30
0.0000
 11
121.9200
 21
6.3500
 31
0.0000
  0
LINE
  8
20
 10
121.9200
 20
6.3500
 30
0.0000
 11
121.9200
 21
57.8485
 31
0.0000
  0
LINE
  8
20
 10
121.9200
 20
57.8485
 30
0.0000
 11
132.7150
 21
57.8485
 31
0.0000
  0
LINE
  8
20
 10
132.7150
 20
57.8485
 30
0.0000
 11
132.7150
 21
110.4900
 31
0.0000
  0
LINE
  8
20
 10
132.7150
 20
110.4900
 30
0.0000
 11
67.3100
 21
110.4900
 31
0.0000
  0
LINE
  8
20
 10
67.3100
 20
110.4900
 30
0.0000
 11
67.3100
 21
21.5900
 31
0.0000
  0
LINE
  8
20
 10
67.3100
 20
21.5900
 30
0.0000
 11
81.2800
 21
21.5900
 31
0.0000
  0
LINE
  8
20
 10
81.2800
 20
21.5900
 30
0.0000
 11
81.2800
 21
0.0000
 31
0.0000
  0
LINE
  8
20
 10
81.2800
 20
0.0000
 30
0.0000
 11
115.5700
 21
0.0000
 31
0.0000
  0
LINE
  8
20
 10
123.6980
 20
110.7440
 30
0.0000
 11
123.6980
 21
121.9200
 31
0.0000
  0
LINE
  8
20
 10
123.6980
 20
121.9200
 30
0.0000
 11
100.8380
 21
121.9200
 31
0.0000
  0
LINE
  8
20
 10
77.9780
 20
127.0000
 30
0.0000
 11
67.3100
 21
127.0000
 31
0.0000
  0
LINE
  8
20
 10
67.3100
 20
127.0000
 30
0.0000
 11
67.3100
 21
110.7440
 31
0.0000
  0
LINE
  8
20
 10
67.3100
 20
110.7440
 30
0.0000
 11
123.6980
 21
110.7440
 31
0.0000
  0
LINE
  8
20
 10
77.9780
 20
138.1760
 30
0.0000
 11
77.9780
 21
127.0000
 31
0.0000
  0
LINE
  8
20
 10
77.9780
 20
127.0000
 30
0.0000
 11
100.8380
 21
127.0000
 31
0.0000
  0
LINE
  8
20
 10
100.8380
 20
127.0000
 30
0.0000
 11
100.8380
 21
121.9200
 31
0.0000
  0
LINE
  8
20
 10
123.6980
 20
121.9200
 30
0.0000
 11
134.3660
 21
121.9200
 31
0.0000
  0
LINE
  8
20
 10
134.3660
 20
121.9200
 30
0.0000
 11
134.3660
 21
138.1760
 31
0.0000
  0
LINE
  8
20
 10
134.3660
 20
138.1760
 30
0.0000
 11
77.9780
 21
138.1760
 31
0.0000
  0
LINE
  8
20
 10
182.8800
 20
0.0000
 30
0.0000
 11
189.2300
 21
6.3500
 31
0.0000
  0
LINE
  8
20
 10
189.2300
 20
6.3500
 30
0.0000
 11
189.2300
 21
57.8485
 31
0.0000
  0
LINE
  8
20
 10
189.2300
 20
57.8485
 30
0.0000
 11
200.0250
 21
57.8485
 31
0.0000
  0
LINE
  8
20
 10
200.0250
 20
57.8485
 30
0.0000
 11
200.0250
 21
110.4900
 31
0.0000
  0
LINE
  8
20
 10
200.0250
 20
110.4900
 30
0.0000
 11
134.6200
 21
110.4900
 31
0.0000
  0
LINE
  8
20
 10
134.6200
 20
110.4900
 30
0.0000
 11
134.6200
 21
21.5900
 31
0.0000
  0
LINE
  8
20
 10
134.6200
 20
21.5900
 30
0.0000
 11
148.5900
 21
21.5900
 31
0.0000
  0
LINE
  8
20
 10
148.5900
 20
21.5900
 30
0.0000
 11
148.5900
 21
0.0000
 31
0.0000
  0
LINE
  8
20
 10
148.5900
 20
0.0000
 30
0.0000
 11
182.8800
 21
0.0000
 31
0.0000
  0
LINE
  8
20
 10
191.0080
 20
110.7440
 30
0.0000
 11
191.0080
 21
121.9200
 31
0.0000
  0
LINE
  8
20
 10
191.0080
 20
121.9200
 30
0.0000
 11
168.1480
 21
121.9200
 31
0.0000
  0
LINE
  8
20
 10
145.2880
 20
127.0000
 30
0.0000
 11
134.6200
 21
127.0000
 31
0.0000
  0
LINE
  8
20
 10
134.6200
 20
127.0000
 30
0.0000
 11
134.6200
 21
110.7440
 31
0.0000
  0
LINE
  8
20
 10
134.6200
 20
110.7440
 30
0.0000
 11
191.0080
 21
110.7440
 31
0.0000
  0
LINE
  8
20
 10
145.2880
 20
138.1760
 30
0.0000
 11
145.2880
 21
127.0000
 31
0.0000
  0
LINE
  8
20
 10
145.2880
 20
127.0000
 30
0.0000
 11
168.1480
 21
127.0000
 31
0.0000
  0
LINE
  8
20
 10
168.1480
 20
127.0000
 30
0.0000
 11
168.1480
 21
121.9200
 31
0.0000
  0
LINE
  8
20
 10
191.0080
 20
121.9200
 30
0.0000
 11
201.6760
 21
121.9200
 31
0.0000
  0
LINE
  8
20
 10
201.6760
 20
121.9200
 30
0.0000
 11
201.6760
 21
138.1760
 31
0.0000
  0
LINE
  8
20
 10
201.6760
 20
138.1760
 30
0.0000
 11
145.2880
 21
138.1760
 31
0.0000
  0
LINE
  8
20
 10
250.1900
 20
0.0000
 30
0.0000
 11
256.5400
 21
6.3500
 31
0.0000
  0
LINE
  8
20
 10
256.5400
 20
6.3500
 30
0.0000
 11
256.5400
 21
57.8485
 31
0.0000
  0
LINE
  8
20
 10
256.5400
 20
57.8485
 30
0.0000
 11
267.3350
 21
57.8485
 31
0.0000
  0
LINE
  8
20
 10
267.3350
 20
57.8485
 30
0.0000
 11
267.3350
 21
110.4900
 31
0.0000
  0
LINE
  8
20
 10
267.3350
 20
110.4900
 30
0.0000
 11
201.9300
 21
110.4900
 31
0.0000
  0
LINE
  8
20
 10
201.9300
 20
110.4900
 30
0.0000
 11
201.9300
 21
21.5900
 31
0.0000
  0
LINE
  8
20
 10
201.9300
 20
21.5900
 30
0.0000
 11
215.9000
 21
21.5900
 31
0.0000
  0
LINE
  8
20
 10
215.9000
 20
21.5900
 30
0.0000
 11
215.9000
 21
0.0000
 31
0.0000
  0
LINE
  8
20
 10
215.9000
 20
0.0000
 30
0.0000
 11
250.1900
 21
0.0000
 31
0.0000
  0
LINE
  8
20
 10
258.3180
 20
110.7440
 30
0.0000
 11
258.3180
 21
121.9200
 31
0.0000
  0
LINE
  8
20
 10
258.3180
 20
121.9200
 30
0.0000
 11
235.4580
 21
121.9200
 31
0.0000
  0
LINE
  8
20
 10
212.5980
 20
127.0000
 30
0.0000
 11
201.9300
 21
127.0000
 31
0.0000
  0
LINE
  8
20
 10
201.9300
 20
127.0000
 30
0.0000
 11
201.9300
 21
110.7440
 31
0.0000
  0
LINE
  8
20
 10
201.9300
 20
110.7440
 30
0.0000
 11
258.3180
 21
110.7440
 31
0.0000
  0
LINE
  8
20
 10
212.5980
 20
138.1760
 30
0.0000
 11
212.5980
 21
127.0000
 31
0.0000
  0
LINE
  8
20
 10
212.5980
 20
127.0000
 30
0.0000
 11
235.4580
 21
127.0000
 31
0.0000
  0
LINE
  8
20
 10
235.4580
 20
127.0000
 30
0.0000
 11
235.4580
 21
121.9200
 31
0.0000
  0
LINE
  8
20
 10
258.3180
 20
121.9200
 30
0.0000
 11
268.9860
 21
121.9200
 31
0.0000
  0
LINE
  8
20
 10
268.9860
 20
121.9200
 30
0.0000
 11
268.9860
 21
138.1760
 31
0.0000
  0
LINE
  8
20
 10
268.9860
 20
138.1760
 30
0.0000
 11
212.5980
 21
138.1760
 31
0.0000
  0
LINE
  8
20
 10
58.1660
 20
0.5080
 30
0.0000
 11
79.7560
 21
0.5080
 31
0.0000
  0
LINE
  8
20
 10
79.7560
 20
0.5080
 30
0.0000
 11
79.7560
 21
20.8280
 31
0.0000
  0
LINE
  8
20
 10
79.7560
 20
20.8280
 30
0.0000
 11
58.1660
 21
20.8280
 31
0.0000
  0
LINE
  8
20
 10
58.1660
 20
20.8280
 30
0.0000
 11
58.1660
 21
0.5080
 31
0.0000
  0
LINE
  8
20
 10
125.7300
 20
0.5080
 30
0.0000
 11
147.3200
 21
0.5080
 31
0.0000
  0
LINE
  8
20
 10
147.3200
 20
0.5080
 30
0.0000
 11
147.3200
 21
20.8280
 31
0.0000
  0
LINE
  8
20
 10
147.3200
 20
20.8280
 30
0.0000
 11
125.7300
 21
20.8280
 31
0.0000
  0
LINE
  8
20
 10
125.7300
 20
20.8280
 30
0.0000
 11
125.7300
 21
0.5080
 31
0.0000
  0
LINE
  8
20
 10
192.7860
 20
0.5080
 30
0.0000
 11
214.3760
 21
0.5080
 31
0.0000
  0
LINE
  8
20
 10
214.3760
 20
0.5080
 30
0.0000
 11
214.3760
 21
20.8280
 31
0.0000
  0
LINE
  8
20
 10
214.3760
 20
20.8280
 30
0.0000
 11
192.7860
 21
20.8280
 31
0.0000
  0
LINE
  8
20
 10
192.7860
 20
20.8280
 30
0.0000
 11
192.7860
 21
0.5080
 31
0.0000
  0
LINE
  8
20
 10
122.9360
 20
21.8440
 30
0.0000
 11
122.9360
 21
31.3690
 31
0.0000
  0
LINE
  8
20
 10
122.9360
 20
31.3690
 30
0.0000
 11
133.7310
 21
31.3690
 31
0.0000
  0
LINE
  8
20
 10
133.7310
 20
31.3690
 30
0.0000
 11
133.7310
 21
21.8440
 31
0.0000
  0
LINE
  8
20
 10
133.7310
 20
21.8440
 30
0.0000
 11
122.9360
 21
21.8440
 31
0.0000
  0
LINE
  8
20
 10
122.9360
 20
32.0040
 30
0.0000
 11
122.9360
 21
41.5290
 31
0.0000
  0
LINE
  8
20
 10
122.9360
 20
41.5290
 30
0.0000
 11
133.7310
 21
41.5290
 31
0.0000
  0
LINE
  8
20
 10
133.7310
 20
41.5290
 30
0.0000
 11
133.7310
 21
32.0040
 31
0.0000
  0
LINE
  8
20
 10
133.7310
 20
32.0040
 30
0.0000
 11
122.9360
 21
32.0040
 31
0.0000
  0
LINE
  8
20
 10
122.9360
 20
42.6720
 30
0.0000
 11
122.9360
 21
52.1970
 31
0.0000
  0
LINE
  8
20
 10
122.9360
 20
52.1970
 30
0.0000
 11
133.7310
 21
52.1970
 31
0.0000
  0
LINE
  8
20
 10
133.7310
 20
52.1970
 30
0.0000
 11
133.7310
 21
42.6720
 31
0.0000
  0
LINE
  8
20
 10
133.7310
 20
42.6720
 30
0.0000
 11
122.9360
 21
42.6720
 31
0.0000
  0
LINE
  8
20
 10
190.5000
 20
21.8440
 30
0.0000
 11
190.5000
 21
31.3690
 31
0.0000
  0
LINE
  8
20
 10
190.5000
 20
31.3690
 30
0.0000
 11
201.2950
 21
31.3690
 31
0.0000
  0
LINE
  8
20
 10
201.2950
 20
31.3690
 30
0.0000
 11
201.2950
 21
21.8440
 31
0.0000
  0
LINE
  8
20
 10
201.2950
 20
21.8440
 30
0.0000
 11
190.5000
 21
21.8440
 31
0.0000
  0
LINE
  8
20
 10
190.5000
 20
32.0040
 30
0.0000
 11
190.5000
 21
41.5290
 31
0.0000
  0
LINE
  8
20
 10
190.5000
 20
41.5290
 30
0.0000
 11
201.2950
 21
41.5290
 31
0.0000
  0
LINE
  8
20
 10
201.2950
 20
41.5290
 30
0.0000
 11
201.2950
 21
32.0040
 31
0.0000
  0
LINE
  8
20
 10
201.2950
 20
32.0040
 30
0.0000
 11
190.5000
 21
32.0040
 31
0.0000
  0
LINE
  8
20
 10
190.5000
 20
42.6720
 30
0.0000
 11
190.5000
 21
52.1970
 31
0.0000
  0
LINE
  8
20
 10
190.5000
 20
52.1970
 30
0.0000
 11
201.2950
 21
52.1970
 31
0.0000
  0
LINE
  8
20
 10
201.2950
 20
52.1970
 30
0.0000
 11
201.2950
 21
42.6720
 31
0.0000
  0
LINE
  8
20
 10
201.2950
 20
42.6720
 30
0.0000
 11
190.5000
 21
42.6720
 31
0.0000
  0
POLYLINE
  8
20
 66
1
 10
0.0000
 20
0.0000
 30
0.0000
 40
0.0000
 41
0.0000
 70
1
  0
VERTEX
  8
20
 10
55.3847
 20
21.8440
 30
0.0000
  0
VERTEX
  8
20
 10
55.3847
 20
31.3690
 30
0.0000
 42
1.0000
  0
VERTEX
  8
20
 10
55.3593
 20
31.3690
 30
0.0000
  0
VERTEX
  8
20
 10
55.3593
 20
21.8440
 30
0.0000
 42
1.0000
  0
SEQEND
  8
0
  0
POLYLINE
  8
20
 66
1
 10
0.0000
 20
0.0000
 30
0.0000
 40
0.0000
 41
0.0000
 70
1
  0
VERTEX
  8
20
 10
55.3720
 20
31.3563
 30
0.0000
  0
VERTEX
  8
20
 10
66.1670
 20
31.3563
 30
0.0000
 42
1.0000
  0
VERTEX
  8
20
 10
66.1670
 20
31.3817
 30
0.0000
  0
VERTEX
  8
20
 10
55.3720
 20
31.3817
 30
0.0000
 42
1.0000
  0
SEQEND
  8
0
  0
POLYLINE
  8
20
 66
1
 10
0.0000
 20
0.0000
 30
0.0000
 40
0.0000
 41
0.0000
 70
1
  0
VERTEX
  8
20
 10
66.1543
 20
31.3690
 30
0.0000
  0
VERTEX
  8
20
 10
66.1543
 20
21.8440
 30
0.0000
 42
1.0000
  0
VERTEX
  8
20
 10
66.1797
 20
21.8440
 30
0.0000
  0
VERTEX
  8
20
 10
66.1797
 20
31.3690
 30
0.0000
 42
1.0000
  0
SEQEND
  8
0
  0
POLYLINE
  8
20
 66
1
 10
0.0000
 20
0.0000
 30
0.0000
 40
0.0000
 41
0.0000
 70
1
  0
VERTEX
  8
20
 10
66.1670
 20
21.8567
 30
0.0000
  0
VERTEX
  8
20
 10
55.3720
 20
21.8567
 30
0.0000
 42
1.0000
  0
VERTEX
  8
20
 10
55.3720
 20
21.8313
 30
0.0000
  0
VERTEX
  8
20
 10
66.1670
 20
21.8313
 30
0.0000
 42
1.0000
  0
SEQEND
  8
0
  0
POLYLINE
  8
20
 66
1
 10
0.0000
 20
0.0000
 30
0.0000
 40
0.0000
 41
0.0000
 70
1
  0
VERTEX
  8
20
 10
55.3847
 20
32.0040
 30
0.0000
  0
VERTEX
  8
20
 10
55.3847
 20
41.5290
 30
0.0000
 42
1.0000
  0
VERTEX
  8
20
 10
55.3593
 20
41.5290
 30
0.0000
  0
VERTEX
  8
20
 10
55.3593
 20
32.0040
 30
0.0000
 42
1.0000
  0
SEQEND
  8
0
  0
POLYLINE
  8
20
 66
1
 10
0.0000
 20
0.0000
 30
0.0000
 40
0.0000
 41
0.0000
 70
1
  0
VERTEX
  8
20
 10
55.3720
 20
41.5163
 30
0.0000
  0
VERTEX
  8
20
 10
66.1670
 20
41.5163
 30
0.0000
 42
1.0000
  0
VERTEX
  8
20
 10
66.1670
 20
41.5417
 30
0.0000
  0
VERTEX
  8
20
 10
55.3720
 20
41.5417
 30
0.0000
 42
1.0000
  0
SEQEND
  8
0
  0
POLYLINE
  8
20
 66
1
 10
0.0000
 20
0.0000
 30
0.0000
 40
0.0000
 41
0.0000
 70
1
  0
VERTEX
  8
20
 10
66.1543
 20
41.5290
 30
0.0000
  0
VERTEX
  8
20
 10
66.1543
 20
32.0040
 30
0.0000
 42
1.0000
  0
VERTEX
  8
20
 10
66.1797
 20
32.0040
 30
0.0000
  0
VERTEX
  8
20
 10
66.1797
 20
41.5290
 30
0.0000
 42
1.0000
  0
SEQEND
  8
0
  0
POLYLINE
  8
20
 66
1
 10
0.0000
 20
0.0000
 30
0.0000
 40
0.0000
 41
0.0000
 70
1
  0
VERTEX
  8
20
 10
66.1670
 20
32.0167
 30
0.0000
  0
VERTEX
  8
20
 10
55.3720
 20
32.0167
 30
0.0000
 42
1.0000
  0
VERTEX
  8
20
 10
55.3720
 20
31.9913
 30
0.0000
  0
VERTEX
  8
20
 10
66.1670
 20
31.9913
 30
0.0000
 42
1.0000
  0
SEQEND
  8
0
  0
POLYLINE
  8
20
 66
1
 10
0.0000
 20
0.0000
 30
0.0000
 40
0.0000
 41
0.0000
 70
1
  0
VERTEX
  8
20
 10
55.3847
 20
42.6720
 30
0.0000
  0
VERTEX
  8
20
 10
55.3847
 20
52.1970
 30
0.0000
 42
1.0000
  0
VERTEX
  8
20
 10
55.3593
 20
52.1970
 30
0.0000
  0
VERTEX
  8
20
 10
55.3593
 20
42.6720
 30
0.0000
 42
1.0000
  0
SEQEND
  8
0
  0
POLYLINE
  8
20
 66
1
 10
0.0000
 20
0.0000
 30
0.0000
 40
0.0000
 41
0.0000
 70
1
  0
VERTEX
  8
20
 10
55.3720
 20
52.1843
 30
0.0000
  0
VERTEX
  8
20
 10
66.1670
 20
52.1843
 30
0.0000
 42
1.0000
  0
VERTEX
  8
20
 10
66.1670
 20
52.2097
 30
0.0000
  0
VERTEX
  8
20
 10
55.3720
 20
52.2097
 30
0.0000
 42
1.0000
  0
SEQEND
  8
0
  0
POLYLINE
  8
20
 66
1
 10
0.0000
 20
0.0000
 30
0.0000
 40
0.0000
 41
0.0000
 70
1
  0
VERTEX
  8
20
 10
66.1543
 20
52.1970
 30
0.0000
  0
VERTEX
  8
20
 10
66.1543
 20
42.6720
 30
0.0000
 42
1.0000
  0
VERTEX
  8
20
 10
66.1797
 20
42.6720
 30
0.0000
  0
VERTEX
  8
20
 10
66.1797
 20
52.1970
 30
0.0000
 42
1.0000
  0
SEQEND
  8
0
  0
POLYLINE
  8
20
 66
1
 10
0.0000
 20
0.0000
 30
0.0000
 40
0.0000
 41
0.0000
 70
1
  0
VERTEX
  8
20
 10
66.1670
 20
42.6847
 30
0.0000
  0
VERTEX
  8
20
 10
55.3720
 20
42.6847
 30
0.0000
 42
1.0000
  0
VERTEX
  8
20
 10
55.3720
 20
42.6593
 30
0.0000
  0
VERTEX
  8
20
 10
66.1670
 20
42.6593
 30
0.0000
 42
1.0000
  0
SEQEND
  8
0
  0
CIRCLE
  8
20
 10
45.2120
 20
102.2350
 30
0.0000
 40
1.9050
  0
CIRCLE
  8
20
 10
9.3980
 20
102.2350
 30
0.0000
 40
1.9050
  0
CIRCLE
  8
20
 10
45.2120
 20
12.0650
 30
0.0000
 40
1.9050
  0
CIRCLE
  8
20
 10
112.5220
 20
102.2350
 30
0.0000
 40
1.9050
  0
CIRCLE
  8
20
 10
76.7080
 20
102.2350
 30
0.0000
 40
1.9050
  0
CIRCLE
  8
20
 10
112.5220
 20
12.0650
 30
0.0000
 40
1.9050
  0
CIRCLE
  8
20
 10
179.8320
 20
102.2350
 30
0.0000
 40
1.9050
  0
CIRCLE
  8
20
 10
144.0180
 20
102.2350
 30
0.0000
 40
1.9050
  0
CIRCLE
  8
20
 10
179.8320
 20
12.0650
 30
0.0000
 40
1.9050
  0
CIRCLE
  8
20
 10
247.1420
 20
102.2350
 30
0.0000
 40
1.9050
  0
CIRCLE
  8
20
 10
211.3280
 20
102.2350
 30
0.0000
 40
1.9050
  0
CIRCLE
  8
20
 10
247.1420
 20
12.0650
 30
0.0000
 40
1.9050
  0
ENDSEC
  0
EOF
