G04 EAGLE Gerber RS-274X export*
G75*
%MOMM*%
%FSLAX34Y34*%
%LPD*%
%INBottom Copper*%
%IPPOS*%
%AMOC8*
5,1,8,0,0,1.08239X$1,22.5*%
G01*
%ADD10C,1.524000*%
%ADD11R,1.524000X1.524000*%
%ADD12C,1.524000*%
%ADD13C,1.371600*%
%ADD14C,2.184400*%
%ADD15C,0.600000*%
%ADD16C,0.300000*%
%ADD17C,1.000000*%

G36*
X1376323Y196815D02*
X1376323Y196815D01*
X1376359Y196812D01*
X1376494Y196835D01*
X1376630Y196851D01*
X1376664Y196863D01*
X1376700Y196869D01*
X1376827Y196922D01*
X1376955Y196968D01*
X1376986Y196988D01*
X1377019Y197002D01*
X1377130Y197082D01*
X1377245Y197157D01*
X1377270Y197183D01*
X1377299Y197204D01*
X1377389Y197308D01*
X1377484Y197407D01*
X1377502Y197438D01*
X1377526Y197465D01*
X1377589Y197587D01*
X1377659Y197705D01*
X1377669Y197740D01*
X1377686Y197772D01*
X1377720Y197904D01*
X1377761Y198036D01*
X1377763Y198072D01*
X1377772Y198106D01*
X1377786Y198311D01*
X1377302Y806187D01*
X1377298Y806223D01*
X1377301Y806258D01*
X1377278Y806394D01*
X1377262Y806531D01*
X1377250Y806564D01*
X1377244Y806599D01*
X1377191Y806726D01*
X1377145Y806856D01*
X1377125Y806885D01*
X1377111Y806918D01*
X1377031Y807030D01*
X1376956Y807145D01*
X1376930Y807170D01*
X1376909Y807199D01*
X1376805Y807289D01*
X1376705Y807384D01*
X1376674Y807402D01*
X1376648Y807425D01*
X1376526Y807489D01*
X1376407Y807558D01*
X1376373Y807569D01*
X1376341Y807585D01*
X1376208Y807620D01*
X1376076Y807660D01*
X1376041Y807663D01*
X1376006Y807671D01*
X1375802Y807685D01*
X383728Y806683D01*
X383694Y806679D01*
X383659Y806682D01*
X383523Y806659D01*
X383385Y806643D01*
X383352Y806631D01*
X383318Y806626D01*
X383190Y806573D01*
X383060Y806525D01*
X383031Y806506D01*
X382999Y806493D01*
X382887Y806412D01*
X382771Y806336D01*
X382747Y806311D01*
X382719Y806291D01*
X382628Y806186D01*
X382532Y806086D01*
X382515Y806056D01*
X382492Y806030D01*
X382427Y805907D01*
X382357Y805787D01*
X382347Y805754D01*
X382331Y805724D01*
X382296Y805589D01*
X382256Y805457D01*
X382253Y805422D01*
X382245Y805389D01*
X382231Y805184D01*
X382231Y198310D01*
X382235Y198275D01*
X382232Y198239D01*
X382255Y198103D01*
X382271Y197967D01*
X382283Y197933D01*
X382288Y197898D01*
X382341Y197771D01*
X382388Y197641D01*
X382407Y197612D01*
X382421Y197579D01*
X382502Y197467D01*
X382577Y197352D01*
X382603Y197327D01*
X382623Y197299D01*
X382727Y197208D01*
X382827Y197113D01*
X382858Y197095D01*
X382884Y197072D01*
X383007Y197008D01*
X383125Y196938D01*
X383159Y196928D01*
X383191Y196911D01*
X383324Y196877D01*
X383456Y196836D01*
X383491Y196834D01*
X383525Y196825D01*
X383730Y196811D01*
X1376287Y196811D01*
X1376323Y196815D01*
G37*
%LPC*%
G36*
X938186Y455499D02*
X938186Y455499D01*
X935549Y458136D01*
X935549Y461864D01*
X938186Y464501D01*
X941914Y464501D01*
X942975Y463440D01*
X943084Y463353D01*
X943190Y463262D01*
X943220Y463246D01*
X943246Y463225D01*
X943372Y463166D01*
X943496Y463101D01*
X943529Y463093D01*
X943559Y463078D01*
X943695Y463050D01*
X943831Y463015D01*
X943876Y463012D01*
X943898Y463007D01*
X943931Y463008D01*
X944035Y463001D01*
X974670Y463001D01*
X974705Y463005D01*
X974741Y463002D01*
X974877Y463025D01*
X975013Y463041D01*
X975047Y463053D01*
X975082Y463058D01*
X975209Y463111D01*
X975339Y463158D01*
X975368Y463177D01*
X975401Y463191D01*
X975513Y463272D01*
X975628Y463347D01*
X975653Y463373D01*
X975681Y463393D01*
X975772Y463497D01*
X975867Y463597D01*
X975885Y463628D01*
X975908Y463654D01*
X975972Y463777D01*
X976042Y463895D01*
X976052Y463929D01*
X976069Y463961D01*
X976103Y464094D01*
X976144Y464226D01*
X976146Y464261D01*
X976155Y464295D01*
X976169Y464500D01*
X976169Y467185D01*
X976153Y467323D01*
X976143Y467462D01*
X976133Y467495D01*
X976129Y467528D01*
X976082Y467659D01*
X976041Y467792D01*
X976023Y467822D01*
X976012Y467853D01*
X975936Y467970D01*
X975865Y468090D01*
X975835Y468124D01*
X975823Y468143D01*
X975799Y468166D01*
X975730Y468245D01*
X974669Y469306D01*
X974669Y473034D01*
X975075Y473440D01*
X975140Y473522D01*
X975212Y473597D01*
X975247Y473657D01*
X975290Y473711D01*
X975334Y473806D01*
X975387Y473895D01*
X975407Y473961D01*
X975436Y474024D01*
X975458Y474126D01*
X975489Y474226D01*
X975493Y474295D01*
X975508Y474362D01*
X975505Y474466D01*
X975512Y474571D01*
X975501Y474639D01*
X975500Y474708D01*
X975473Y474809D01*
X975456Y474912D01*
X975430Y474975D01*
X975412Y475042D01*
X975364Y475135D01*
X975324Y475231D01*
X975283Y475287D01*
X975251Y475348D01*
X975183Y475427D01*
X975121Y475511D01*
X975069Y475557D01*
X975024Y475609D01*
X974939Y475670D01*
X974860Y475738D01*
X974799Y475770D01*
X974743Y475811D01*
X974647Y475850D01*
X974554Y475899D01*
X974487Y475916D01*
X974423Y475942D01*
X974321Y475959D01*
X974219Y475985D01*
X974116Y475992D01*
X974082Y475998D01*
X974060Y475996D01*
X974015Y475999D01*
X968985Y475999D01*
X968847Y475983D01*
X968708Y475973D01*
X968675Y475963D01*
X968642Y475959D01*
X968511Y475912D01*
X968378Y475871D01*
X968348Y475853D01*
X968317Y475842D01*
X968200Y475766D01*
X968080Y475695D01*
X968046Y475665D01*
X968027Y475653D01*
X968004Y475629D01*
X967925Y475560D01*
X966864Y474499D01*
X963136Y474499D01*
X960499Y477136D01*
X960499Y480864D01*
X963136Y483501D01*
X966864Y483501D01*
X967925Y482440D01*
X968034Y482353D01*
X968140Y482262D01*
X968170Y482246D01*
X968196Y482225D01*
X968322Y482166D01*
X968446Y482101D01*
X968479Y482093D01*
X968509Y482078D01*
X968645Y482050D01*
X968781Y482015D01*
X968826Y482012D01*
X968848Y482007D01*
X968881Y482008D01*
X968985Y482001D01*
X982743Y482001D01*
X987804Y476940D01*
X987913Y476853D01*
X988018Y476762D01*
X988048Y476746D01*
X988075Y476725D01*
X988201Y476666D01*
X988324Y476601D01*
X988357Y476593D01*
X988388Y476578D01*
X988524Y476550D01*
X988659Y476515D01*
X988704Y476512D01*
X988726Y476507D01*
X988760Y476508D01*
X988864Y476501D01*
X1009000Y476501D01*
X1009035Y476505D01*
X1009071Y476502D01*
X1009207Y476525D01*
X1009343Y476541D01*
X1009377Y476553D01*
X1009412Y476558D01*
X1009539Y476611D01*
X1009669Y476658D01*
X1009698Y476677D01*
X1009731Y476691D01*
X1009843Y476772D01*
X1009958Y476847D01*
X1009983Y476873D01*
X1010011Y476893D01*
X1010102Y476997D01*
X1010197Y477097D01*
X1010215Y477128D01*
X1010238Y477154D01*
X1010302Y477277D01*
X1010372Y477395D01*
X1010382Y477429D01*
X1010399Y477461D01*
X1010433Y477594D01*
X1010474Y477726D01*
X1010476Y477761D01*
X1010485Y477795D01*
X1010499Y478000D01*
X1010499Y481864D01*
X1013136Y484501D01*
X1016864Y484501D01*
X1017925Y483440D01*
X1018034Y483353D01*
X1018140Y483262D01*
X1018170Y483246D01*
X1018196Y483225D01*
X1018322Y483166D01*
X1018446Y483101D01*
X1018479Y483093D01*
X1018509Y483078D01*
X1018645Y483050D01*
X1018781Y483015D01*
X1018826Y483012D01*
X1018848Y483007D01*
X1018881Y483008D01*
X1018985Y483001D01*
X1106015Y483001D01*
X1106153Y483017D01*
X1106292Y483027D01*
X1106325Y483037D01*
X1106358Y483041D01*
X1106489Y483088D01*
X1106622Y483129D01*
X1106652Y483147D01*
X1106683Y483158D01*
X1106800Y483234D01*
X1106920Y483305D01*
X1106954Y483335D01*
X1106973Y483347D01*
X1106996Y483371D01*
X1107075Y483440D01*
X1108136Y484501D01*
X1111864Y484501D01*
X1113940Y482425D01*
X1113968Y482403D01*
X1113991Y482376D01*
X1114103Y482296D01*
X1114211Y482210D01*
X1114243Y482195D01*
X1114272Y482175D01*
X1114399Y482122D01*
X1114524Y482064D01*
X1114559Y482056D01*
X1114591Y482043D01*
X1114728Y482021D01*
X1114862Y481992D01*
X1114898Y481993D01*
X1114933Y481988D01*
X1115070Y481997D01*
X1115208Y482000D01*
X1115242Y482009D01*
X1115278Y482012D01*
X1115409Y482053D01*
X1115542Y482088D01*
X1115574Y482104D01*
X1115608Y482115D01*
X1115727Y482185D01*
X1115848Y482249D01*
X1115875Y482272D01*
X1115905Y482290D01*
X1116060Y482425D01*
X1118136Y484501D01*
X1121864Y484501D01*
X1123940Y482425D01*
X1123968Y482403D01*
X1123991Y482376D01*
X1124103Y482296D01*
X1124211Y482210D01*
X1124243Y482195D01*
X1124272Y482175D01*
X1124399Y482122D01*
X1124524Y482064D01*
X1124559Y482056D01*
X1124591Y482043D01*
X1124728Y482021D01*
X1124862Y481992D01*
X1124898Y481993D01*
X1124933Y481988D01*
X1125070Y481997D01*
X1125208Y482000D01*
X1125242Y482009D01*
X1125278Y482012D01*
X1125409Y482053D01*
X1125542Y482088D01*
X1125574Y482104D01*
X1125608Y482115D01*
X1125726Y482185D01*
X1125848Y482249D01*
X1125875Y482272D01*
X1125905Y482290D01*
X1126060Y482425D01*
X1128136Y484501D01*
X1131864Y484501D01*
X1134501Y481864D01*
X1134501Y478136D01*
X1131864Y475499D01*
X1128849Y475499D01*
X1128711Y475483D01*
X1128572Y475473D01*
X1128539Y475463D01*
X1128506Y475459D01*
X1128375Y475412D01*
X1128242Y475371D01*
X1128212Y475353D01*
X1128181Y475342D01*
X1128064Y475266D01*
X1127944Y475195D01*
X1127910Y475165D01*
X1127891Y475153D01*
X1127868Y475129D01*
X1127789Y475060D01*
X1118728Y465999D01*
X1041864Y465999D01*
X1041726Y465983D01*
X1041586Y465973D01*
X1041554Y465963D01*
X1041521Y465959D01*
X1041390Y465912D01*
X1041256Y465871D01*
X1041227Y465853D01*
X1041195Y465842D01*
X1041079Y465766D01*
X1040958Y465695D01*
X1040924Y465665D01*
X1040906Y465653D01*
X1040882Y465629D01*
X1040804Y465560D01*
X1032243Y456999D01*
X944035Y456999D01*
X943897Y456983D01*
X943758Y456973D01*
X943725Y456963D01*
X943692Y456959D01*
X943561Y456912D01*
X943428Y456871D01*
X943398Y456853D01*
X943367Y456842D01*
X943250Y456766D01*
X943130Y456695D01*
X943096Y456665D01*
X943077Y456653D01*
X943054Y456629D01*
X942975Y456560D01*
X941914Y455499D01*
X938186Y455499D01*
G37*
%LPD*%
%LPC*%
G36*
X1170636Y557999D02*
X1170636Y557999D01*
X1167999Y560636D01*
X1167999Y564364D01*
X1169060Y565425D01*
X1169147Y565534D01*
X1169238Y565640D01*
X1169254Y565670D01*
X1169275Y565696D01*
X1169334Y565822D01*
X1169399Y565946D01*
X1169407Y565979D01*
X1169422Y566009D01*
X1169450Y566145D01*
X1169485Y566281D01*
X1169488Y566326D01*
X1169493Y566348D01*
X1169492Y566381D01*
X1169499Y566485D01*
X1169499Y735636D01*
X1169483Y735774D01*
X1169473Y735914D01*
X1169463Y735946D01*
X1169459Y735979D01*
X1169412Y736110D01*
X1169371Y736244D01*
X1169353Y736273D01*
X1169342Y736305D01*
X1169266Y736421D01*
X1169195Y736542D01*
X1169165Y736576D01*
X1169153Y736594D01*
X1169129Y736618D01*
X1169060Y736696D01*
X1141599Y764157D01*
X1141599Y768569D01*
X1141589Y768656D01*
X1141589Y768743D01*
X1141569Y768827D01*
X1141559Y768912D01*
X1141530Y768995D01*
X1141510Y769080D01*
X1141471Y769157D01*
X1141442Y769238D01*
X1141394Y769311D01*
X1141355Y769389D01*
X1141300Y769455D01*
X1141253Y769527D01*
X1141190Y769588D01*
X1141134Y769655D01*
X1141065Y769707D01*
X1141003Y769766D01*
X1140928Y769810D01*
X1140857Y769863D01*
X1140728Y769927D01*
X1140705Y769941D01*
X1140693Y769944D01*
X1140674Y769954D01*
X1139433Y770468D01*
X1136868Y773033D01*
X1135479Y776386D01*
X1135479Y780014D01*
X1136868Y783367D01*
X1139433Y785932D01*
X1142786Y787321D01*
X1146414Y787321D01*
X1149767Y785932D01*
X1152332Y783367D01*
X1153721Y780014D01*
X1153721Y776386D01*
X1152332Y773033D01*
X1149767Y770468D01*
X1148526Y769954D01*
X1148450Y769911D01*
X1148369Y769878D01*
X1148299Y769828D01*
X1148224Y769786D01*
X1148160Y769727D01*
X1148089Y769676D01*
X1148032Y769611D01*
X1147969Y769553D01*
X1147919Y769481D01*
X1147862Y769415D01*
X1147822Y769338D01*
X1147773Y769268D01*
X1147742Y769186D01*
X1147701Y769108D01*
X1147680Y769025D01*
X1147649Y768945D01*
X1147637Y768858D01*
X1147615Y768774D01*
X1147605Y768630D01*
X1147601Y768603D01*
X1147602Y768591D01*
X1147601Y768569D01*
X1147601Y767264D01*
X1147617Y767126D01*
X1147627Y766986D01*
X1147637Y766954D01*
X1147641Y766921D01*
X1147688Y766790D01*
X1147729Y766656D01*
X1147747Y766627D01*
X1147758Y766595D01*
X1147834Y766478D01*
X1147905Y766358D01*
X1147935Y766324D01*
X1147947Y766306D01*
X1147971Y766282D01*
X1148040Y766204D01*
X1174440Y739804D01*
X1174522Y739739D01*
X1174597Y739667D01*
X1174657Y739632D01*
X1174711Y739589D01*
X1174805Y739545D01*
X1174895Y739492D01*
X1174961Y739472D01*
X1175024Y739442D01*
X1175126Y739421D01*
X1175226Y739390D01*
X1175295Y739385D01*
X1175362Y739371D01*
X1175466Y739373D01*
X1175571Y739366D01*
X1175639Y739377D01*
X1175708Y739379D01*
X1175809Y739405D01*
X1175912Y739422D01*
X1175976Y739449D01*
X1176042Y739466D01*
X1176135Y739515D01*
X1176231Y739555D01*
X1176287Y739595D01*
X1176348Y739628D01*
X1176427Y739696D01*
X1176511Y739757D01*
X1176557Y739809D01*
X1176609Y739855D01*
X1176670Y739940D01*
X1176738Y740018D01*
X1176770Y740080D01*
X1176811Y740136D01*
X1176850Y740232D01*
X1176899Y740324D01*
X1176916Y740391D01*
X1176943Y740455D01*
X1176959Y740558D01*
X1176985Y740659D01*
X1176992Y740763D01*
X1176998Y740797D01*
X1176996Y740819D01*
X1176999Y740864D01*
X1176999Y764043D01*
X1179196Y766240D01*
X1186468Y773512D01*
X1186522Y773580D01*
X1186584Y773642D01*
X1186629Y773715D01*
X1186683Y773783D01*
X1186720Y773862D01*
X1186766Y773936D01*
X1186793Y774018D01*
X1186830Y774096D01*
X1186848Y774181D01*
X1186875Y774264D01*
X1186883Y774350D01*
X1186901Y774434D01*
X1186899Y774522D01*
X1186907Y774609D01*
X1186895Y774694D01*
X1186893Y774780D01*
X1186871Y774865D01*
X1186858Y774951D01*
X1186813Y775088D01*
X1186806Y775114D01*
X1186800Y775125D01*
X1186793Y775146D01*
X1186279Y776386D01*
X1186279Y780014D01*
X1187668Y783367D01*
X1190233Y785932D01*
X1193586Y787321D01*
X1197214Y787321D01*
X1200567Y785932D01*
X1203132Y783367D01*
X1204521Y780014D01*
X1204521Y776386D01*
X1203132Y773033D01*
X1200567Y770468D01*
X1197214Y769079D01*
X1193586Y769079D01*
X1192346Y769593D01*
X1192261Y769617D01*
X1192180Y769650D01*
X1192096Y769664D01*
X1192013Y769688D01*
X1191926Y769692D01*
X1191839Y769706D01*
X1191753Y769700D01*
X1191668Y769704D01*
X1191582Y769687D01*
X1191494Y769681D01*
X1191412Y769656D01*
X1191328Y769640D01*
X1191248Y769605D01*
X1191164Y769578D01*
X1191090Y769535D01*
X1191012Y769500D01*
X1190942Y769447D01*
X1190866Y769403D01*
X1190758Y769308D01*
X1190736Y769292D01*
X1190728Y769282D01*
X1190712Y769268D01*
X1183440Y761996D01*
X1183353Y761887D01*
X1183262Y761782D01*
X1183246Y761752D01*
X1183225Y761725D01*
X1183166Y761599D01*
X1183101Y761476D01*
X1183093Y761443D01*
X1183078Y761412D01*
X1183050Y761276D01*
X1183015Y761141D01*
X1183012Y761096D01*
X1183007Y761074D01*
X1183008Y761040D01*
X1183001Y760936D01*
X1183001Y583985D01*
X1183017Y583847D01*
X1183027Y583708D01*
X1183037Y583675D01*
X1183041Y583642D01*
X1183088Y583511D01*
X1183129Y583378D01*
X1183147Y583348D01*
X1183158Y583317D01*
X1183234Y583200D01*
X1183305Y583080D01*
X1183335Y583046D01*
X1183347Y583027D01*
X1183371Y583004D01*
X1183440Y582925D01*
X1184501Y581864D01*
X1184501Y578136D01*
X1181864Y575499D01*
X1178136Y575499D01*
X1178060Y575575D01*
X1177978Y575640D01*
X1177903Y575712D01*
X1177843Y575747D01*
X1177789Y575790D01*
X1177695Y575834D01*
X1177605Y575887D01*
X1177539Y575907D01*
X1177476Y575936D01*
X1177374Y575958D01*
X1177274Y575989D01*
X1177205Y575993D01*
X1177138Y576008D01*
X1177034Y576005D01*
X1176929Y576012D01*
X1176861Y576001D01*
X1176792Y576000D01*
X1176691Y575973D01*
X1176588Y575956D01*
X1176525Y575930D01*
X1176458Y575912D01*
X1176365Y575864D01*
X1176269Y575824D01*
X1176213Y575783D01*
X1176152Y575751D01*
X1176073Y575683D01*
X1175989Y575621D01*
X1175943Y575569D01*
X1175891Y575524D01*
X1175830Y575439D01*
X1175762Y575360D01*
X1175730Y575299D01*
X1175689Y575243D01*
X1175650Y575147D01*
X1175601Y575054D01*
X1175584Y574987D01*
X1175558Y574923D01*
X1175541Y574821D01*
X1175515Y574719D01*
X1175508Y574616D01*
X1175502Y574582D01*
X1175504Y574560D01*
X1175501Y574515D01*
X1175501Y566485D01*
X1175517Y566347D01*
X1175527Y566208D01*
X1175537Y566175D01*
X1175541Y566142D01*
X1175588Y566011D01*
X1175629Y565878D01*
X1175647Y565848D01*
X1175658Y565817D01*
X1175734Y565700D01*
X1175805Y565580D01*
X1175835Y565546D01*
X1175847Y565527D01*
X1175871Y565504D01*
X1175940Y565425D01*
X1177001Y564364D01*
X1177001Y560636D01*
X1174364Y557999D01*
X1170636Y557999D01*
G37*
%LPD*%
%LPC*%
G36*
X913707Y408499D02*
X913707Y408499D01*
X911318Y409489D01*
X909278Y411528D01*
X909278Y411529D01*
X902746Y418060D01*
X902637Y418147D01*
X902532Y418238D01*
X902502Y418254D01*
X902475Y418275D01*
X902349Y418334D01*
X902226Y418399D01*
X902193Y418407D01*
X902162Y418422D01*
X902026Y418450D01*
X901891Y418485D01*
X901846Y418488D01*
X901824Y418493D01*
X901790Y418492D01*
X901686Y418499D01*
X813707Y418499D01*
X811318Y419489D01*
X809489Y421318D01*
X808499Y423707D01*
X808499Y426293D01*
X809489Y428682D01*
X811318Y430511D01*
X813707Y431501D01*
X906293Y431501D01*
X908682Y430511D01*
X917254Y421940D01*
X917363Y421853D01*
X917468Y421762D01*
X917498Y421746D01*
X917525Y421725D01*
X917651Y421666D01*
X917774Y421601D01*
X917807Y421593D01*
X917838Y421578D01*
X917974Y421550D01*
X918109Y421515D01*
X918154Y421512D01*
X918176Y421507D01*
X918210Y421508D01*
X918314Y421501D01*
X981293Y421501D01*
X983682Y420511D01*
X985511Y418682D01*
X986501Y416293D01*
X986501Y413707D01*
X985511Y411318D01*
X983682Y409489D01*
X981293Y408499D01*
X913707Y408499D01*
G37*
%LPD*%
%LPC*%
G36*
X1342920Y759699D02*
X1342920Y759699D01*
X1336120Y762516D01*
X1330916Y767720D01*
X1328099Y774520D01*
X1328099Y781880D01*
X1330916Y788680D01*
X1336120Y793884D01*
X1342920Y796701D01*
X1350280Y796701D01*
X1357080Y793884D01*
X1362284Y788680D01*
X1365101Y781880D01*
X1365101Y774520D01*
X1362284Y767720D01*
X1357080Y762516D01*
X1350280Y759699D01*
X1342920Y759699D01*
G37*
%LPD*%
%LPC*%
G36*
X412920Y759699D02*
X412920Y759699D01*
X406120Y762516D01*
X400916Y767720D01*
X398099Y774520D01*
X398099Y781880D01*
X400916Y788680D01*
X406120Y793884D01*
X412920Y796701D01*
X420280Y796701D01*
X427080Y793884D01*
X432284Y788680D01*
X435101Y781880D01*
X435101Y774520D01*
X432284Y767720D01*
X427080Y762516D01*
X420280Y759699D01*
X412920Y759699D01*
G37*
%LPD*%
%LPC*%
G36*
X412920Y209699D02*
X412920Y209699D01*
X406120Y212516D01*
X400916Y217720D01*
X398099Y224520D01*
X398099Y231880D01*
X400916Y238680D01*
X406120Y243884D01*
X412920Y246701D01*
X420280Y246701D01*
X427080Y243884D01*
X432284Y238680D01*
X435101Y231880D01*
X435101Y224520D01*
X432284Y217720D01*
X427080Y212516D01*
X420280Y209699D01*
X412920Y209699D01*
G37*
%LPD*%
%LPC*%
G36*
X1342920Y209699D02*
X1342920Y209699D01*
X1336120Y212516D01*
X1330916Y217720D01*
X1328099Y224520D01*
X1328099Y231880D01*
X1330916Y238680D01*
X1336120Y243884D01*
X1342920Y246701D01*
X1350280Y246701D01*
X1357080Y243884D01*
X1362284Y238680D01*
X1365101Y231880D01*
X1365101Y224520D01*
X1362284Y217720D01*
X1357080Y212516D01*
X1350280Y209699D01*
X1342920Y209699D01*
G37*
%LPD*%
%LPC*%
G36*
X1318136Y535499D02*
X1318136Y535499D01*
X1315499Y538136D01*
X1315499Y539636D01*
X1315483Y539774D01*
X1315473Y539914D01*
X1315463Y539946D01*
X1315459Y539979D01*
X1315412Y540110D01*
X1315371Y540244D01*
X1315353Y540273D01*
X1315342Y540305D01*
X1315266Y540421D01*
X1315195Y540542D01*
X1315165Y540576D01*
X1315153Y540594D01*
X1315129Y540618D01*
X1315060Y540696D01*
X1249296Y606460D01*
X1249187Y606547D01*
X1249082Y606638D01*
X1249052Y606654D01*
X1249025Y606675D01*
X1248899Y606734D01*
X1248776Y606799D01*
X1248743Y606807D01*
X1248712Y606822D01*
X1248576Y606850D01*
X1248441Y606885D01*
X1248396Y606888D01*
X1248374Y606893D01*
X1248340Y606892D01*
X1248236Y606899D01*
X1246736Y606899D01*
X1244099Y609536D01*
X1244099Y613264D01*
X1246736Y615901D01*
X1250464Y615901D01*
X1253101Y613264D01*
X1253101Y611764D01*
X1253117Y611626D01*
X1253127Y611486D01*
X1253137Y611454D01*
X1253141Y611421D01*
X1253188Y611290D01*
X1253229Y611156D01*
X1253247Y611127D01*
X1253258Y611095D01*
X1253334Y610979D01*
X1253405Y610858D01*
X1253435Y610824D01*
X1253447Y610806D01*
X1253471Y610782D01*
X1253540Y610704D01*
X1319304Y544940D01*
X1319413Y544853D01*
X1319518Y544762D01*
X1319548Y544746D01*
X1319575Y544725D01*
X1319701Y544666D01*
X1319824Y544601D01*
X1319857Y544593D01*
X1319888Y544578D01*
X1320024Y544550D01*
X1320159Y544515D01*
X1320204Y544512D01*
X1320226Y544507D01*
X1320260Y544508D01*
X1320364Y544501D01*
X1321864Y544501D01*
X1324501Y541864D01*
X1324501Y538136D01*
X1321864Y535499D01*
X1318136Y535499D01*
G37*
%LPD*%
%LPC*%
G36*
X1284486Y216159D02*
X1284486Y216159D01*
X1281133Y217548D01*
X1278568Y220113D01*
X1277179Y223466D01*
X1277179Y242334D01*
X1278568Y245687D01*
X1281133Y248252D01*
X1284486Y249641D01*
X1288114Y249641D01*
X1291467Y248252D01*
X1294032Y245687D01*
X1295421Y242334D01*
X1295421Y223466D01*
X1294032Y220113D01*
X1291467Y217548D01*
X1288114Y216159D01*
X1284486Y216159D01*
G37*
%LPD*%
%LPC*%
G36*
X1233686Y216159D02*
X1233686Y216159D01*
X1230333Y217548D01*
X1227768Y220113D01*
X1226379Y223466D01*
X1226379Y242334D01*
X1227768Y245687D01*
X1230333Y248252D01*
X1233686Y249641D01*
X1237314Y249641D01*
X1240667Y248252D01*
X1243232Y245687D01*
X1244621Y242334D01*
X1244621Y223466D01*
X1243232Y220113D01*
X1240667Y217548D01*
X1237314Y216159D01*
X1233686Y216159D01*
G37*
%LPD*%
%LPC*%
G36*
X1208286Y216159D02*
X1208286Y216159D01*
X1204933Y217548D01*
X1202368Y220113D01*
X1200979Y223466D01*
X1200979Y242334D01*
X1202368Y245687D01*
X1204933Y248252D01*
X1208286Y249641D01*
X1211914Y249641D01*
X1215267Y248252D01*
X1217832Y245687D01*
X1219221Y242334D01*
X1219221Y223466D01*
X1217832Y220113D01*
X1215267Y217548D01*
X1211914Y216159D01*
X1208286Y216159D01*
G37*
%LPD*%
%LPC*%
G36*
X1182886Y216159D02*
X1182886Y216159D01*
X1179533Y217548D01*
X1176968Y220113D01*
X1175579Y223466D01*
X1175579Y242334D01*
X1176968Y245687D01*
X1179533Y248252D01*
X1182886Y249641D01*
X1186514Y249641D01*
X1189867Y248252D01*
X1192432Y245687D01*
X1193821Y242334D01*
X1193821Y223466D01*
X1192432Y220113D01*
X1189867Y217548D01*
X1186514Y216159D01*
X1182886Y216159D01*
G37*
%LPD*%
%LPC*%
G36*
X1157486Y216159D02*
X1157486Y216159D01*
X1154133Y217548D01*
X1151568Y220113D01*
X1150179Y223466D01*
X1150179Y242334D01*
X1151568Y245687D01*
X1154133Y248252D01*
X1157486Y249641D01*
X1161114Y249641D01*
X1164467Y248252D01*
X1167032Y245687D01*
X1168421Y242334D01*
X1168421Y223466D01*
X1167032Y220113D01*
X1164467Y217548D01*
X1161114Y216159D01*
X1157486Y216159D01*
G37*
%LPD*%
%LPC*%
G36*
X1132086Y216159D02*
X1132086Y216159D01*
X1128733Y217548D01*
X1126168Y220113D01*
X1124779Y223466D01*
X1124779Y242334D01*
X1126168Y245687D01*
X1128733Y248252D01*
X1132086Y249641D01*
X1135714Y249641D01*
X1139067Y248252D01*
X1141632Y245687D01*
X1143021Y242334D01*
X1143021Y223466D01*
X1141632Y220113D01*
X1139067Y217548D01*
X1135714Y216159D01*
X1132086Y216159D01*
G37*
%LPD*%
%LPC*%
G36*
X1106686Y216159D02*
X1106686Y216159D01*
X1103333Y217548D01*
X1100768Y220113D01*
X1099379Y223466D01*
X1099379Y242334D01*
X1100768Y245687D01*
X1103333Y248252D01*
X1106686Y249641D01*
X1110314Y249641D01*
X1113667Y248252D01*
X1116232Y245687D01*
X1117621Y242334D01*
X1117621Y223466D01*
X1116232Y220113D01*
X1113667Y217548D01*
X1110314Y216159D01*
X1106686Y216159D01*
G37*
%LPD*%
%LPC*%
G36*
X727529Y762577D02*
X727529Y762577D01*
X722963Y764469D01*
X719469Y767963D01*
X717577Y772529D01*
X717577Y777471D01*
X719469Y782037D01*
X722963Y785531D01*
X727529Y787423D01*
X732471Y787423D01*
X737037Y785531D01*
X740531Y782037D01*
X742423Y777471D01*
X742423Y772529D01*
X740531Y767963D01*
X737037Y764469D01*
X732471Y762577D01*
X727529Y762577D01*
G37*
%LPD*%
%LPC*%
G36*
X677529Y762577D02*
X677529Y762577D01*
X672963Y764469D01*
X669469Y767963D01*
X667577Y772529D01*
X667577Y777471D01*
X669469Y782037D01*
X672963Y785531D01*
X677529Y787423D01*
X682471Y787423D01*
X687037Y785531D01*
X690531Y782037D01*
X692423Y777471D01*
X692423Y772529D01*
X690531Y767963D01*
X687037Y764469D01*
X682471Y762577D01*
X677529Y762577D01*
G37*
%LPD*%
%LPC*%
G36*
X1341479Y564341D02*
X1341479Y564341D01*
X1338407Y565614D01*
X1336056Y567965D01*
X1334783Y571037D01*
X1334783Y574363D01*
X1336056Y577435D01*
X1338407Y579786D01*
X1341479Y581059D01*
X1358521Y581059D01*
X1361593Y579786D01*
X1363944Y577435D01*
X1365217Y574363D01*
X1365217Y571037D01*
X1363944Y567965D01*
X1361593Y565614D01*
X1358521Y564341D01*
X1341479Y564341D01*
G37*
%LPD*%
%LPC*%
G36*
X1341479Y538941D02*
X1341479Y538941D01*
X1338407Y540214D01*
X1336056Y542565D01*
X1334783Y545637D01*
X1334783Y548963D01*
X1336056Y552035D01*
X1338407Y554386D01*
X1341479Y555659D01*
X1358521Y555659D01*
X1361593Y554386D01*
X1363944Y552035D01*
X1365217Y548963D01*
X1365217Y545637D01*
X1363944Y542565D01*
X1361593Y540214D01*
X1358521Y538941D01*
X1341479Y538941D01*
G37*
%LPD*%
%LPC*%
G36*
X1341479Y513541D02*
X1341479Y513541D01*
X1338407Y514814D01*
X1336056Y517165D01*
X1334783Y520237D01*
X1334783Y523563D01*
X1336056Y526635D01*
X1338407Y528986D01*
X1341479Y530259D01*
X1358521Y530259D01*
X1361593Y528986D01*
X1363944Y526635D01*
X1365217Y523563D01*
X1365217Y520237D01*
X1363944Y517165D01*
X1361593Y514814D01*
X1358521Y513541D01*
X1341479Y513541D01*
G37*
%LPD*%
%LPC*%
G36*
X1341479Y488141D02*
X1341479Y488141D01*
X1338407Y489414D01*
X1336056Y491765D01*
X1334783Y494837D01*
X1334783Y498163D01*
X1336056Y501235D01*
X1338407Y503586D01*
X1341479Y504859D01*
X1358521Y504859D01*
X1361593Y503586D01*
X1363944Y501235D01*
X1365217Y498163D01*
X1365217Y494837D01*
X1363944Y491765D01*
X1361593Y489414D01*
X1358521Y488141D01*
X1341479Y488141D01*
G37*
%LPD*%
%LPC*%
G36*
X1341479Y615141D02*
X1341479Y615141D01*
X1338407Y616414D01*
X1336056Y618765D01*
X1334783Y621837D01*
X1334783Y625163D01*
X1336056Y628235D01*
X1338407Y630586D01*
X1341479Y631859D01*
X1358521Y631859D01*
X1361593Y630586D01*
X1363944Y628235D01*
X1365217Y625163D01*
X1365217Y621837D01*
X1363944Y618765D01*
X1361593Y616414D01*
X1358521Y615141D01*
X1341479Y615141D01*
G37*
%LPD*%
%LPC*%
G36*
X1183136Y270499D02*
X1183136Y270499D01*
X1180499Y273136D01*
X1180499Y276864D01*
X1183136Y279501D01*
X1184636Y279501D01*
X1184774Y279517D01*
X1184914Y279527D01*
X1184946Y279537D01*
X1184979Y279541D01*
X1185110Y279588D01*
X1185244Y279629D01*
X1185273Y279647D01*
X1185305Y279658D01*
X1185421Y279734D01*
X1185542Y279805D01*
X1185576Y279835D01*
X1185594Y279847D01*
X1185618Y279871D01*
X1185696Y279940D01*
X1220060Y314304D01*
X1220147Y314413D01*
X1220238Y314518D01*
X1220254Y314548D01*
X1220275Y314575D01*
X1220334Y314701D01*
X1220399Y314824D01*
X1220407Y314857D01*
X1220422Y314888D01*
X1220450Y315024D01*
X1220485Y315159D01*
X1220488Y315204D01*
X1220493Y315226D01*
X1220492Y315260D01*
X1220499Y315364D01*
X1220499Y316864D01*
X1223136Y319501D01*
X1226864Y319501D01*
X1229501Y316864D01*
X1229501Y313136D01*
X1226864Y310499D01*
X1225364Y310499D01*
X1225226Y310483D01*
X1225086Y310473D01*
X1225054Y310463D01*
X1225021Y310459D01*
X1224890Y310412D01*
X1224756Y310371D01*
X1224727Y310353D01*
X1224695Y310342D01*
X1224579Y310266D01*
X1224458Y310195D01*
X1224424Y310165D01*
X1224406Y310153D01*
X1224382Y310129D01*
X1224304Y310060D01*
X1189940Y275696D01*
X1189853Y275587D01*
X1189762Y275482D01*
X1189746Y275452D01*
X1189725Y275425D01*
X1189666Y275299D01*
X1189601Y275176D01*
X1189593Y275143D01*
X1189578Y275112D01*
X1189550Y274976D01*
X1189515Y274841D01*
X1189512Y274796D01*
X1189507Y274774D01*
X1189508Y274740D01*
X1189501Y274636D01*
X1189501Y273136D01*
X1186864Y270499D01*
X1183136Y270499D01*
G37*
%LPD*%
%LPC*%
G36*
X1258136Y525499D02*
X1258136Y525499D01*
X1255499Y528136D01*
X1255499Y531864D01*
X1256560Y532925D01*
X1256647Y533034D01*
X1256738Y533140D01*
X1256754Y533170D01*
X1256775Y533196D01*
X1256834Y533322D01*
X1256899Y533446D01*
X1256907Y533479D01*
X1256922Y533509D01*
X1256950Y533645D01*
X1256985Y533781D01*
X1256988Y533826D01*
X1256993Y533847D01*
X1256992Y533881D01*
X1256999Y533985D01*
X1256999Y581015D01*
X1256983Y581152D01*
X1256973Y581292D01*
X1256963Y581325D01*
X1256959Y581358D01*
X1256912Y581489D01*
X1256871Y581622D01*
X1256853Y581652D01*
X1256842Y581683D01*
X1256766Y581800D01*
X1256695Y581920D01*
X1256665Y581954D01*
X1256653Y581973D01*
X1256629Y581996D01*
X1256560Y582075D01*
X1255499Y583136D01*
X1255499Y586864D01*
X1258136Y589501D01*
X1261864Y589501D01*
X1264501Y586864D01*
X1264501Y583136D01*
X1263440Y582075D01*
X1263353Y581966D01*
X1263262Y581860D01*
X1263246Y581830D01*
X1263225Y581804D01*
X1263166Y581678D01*
X1263101Y581554D01*
X1263093Y581521D01*
X1263078Y581491D01*
X1263050Y581355D01*
X1263015Y581219D01*
X1263012Y581174D01*
X1263007Y581152D01*
X1263008Y581119D01*
X1263001Y581015D01*
X1263001Y533985D01*
X1263017Y533847D01*
X1263027Y533708D01*
X1263037Y533675D01*
X1263041Y533642D01*
X1263088Y533511D01*
X1263129Y533378D01*
X1263147Y533349D01*
X1263158Y533317D01*
X1263234Y533200D01*
X1263305Y533080D01*
X1263335Y533046D01*
X1263347Y533027D01*
X1263371Y533004D01*
X1263440Y532925D01*
X1264501Y531864D01*
X1264501Y528136D01*
X1261864Y525499D01*
X1258136Y525499D01*
G37*
%LPD*%
%LPC*%
G36*
X1244386Y769079D02*
X1244386Y769079D01*
X1241033Y770468D01*
X1238468Y773033D01*
X1237079Y776386D01*
X1237079Y780014D01*
X1238468Y783367D01*
X1241033Y785932D01*
X1244386Y787321D01*
X1248014Y787321D01*
X1251367Y785932D01*
X1253932Y783367D01*
X1255321Y780014D01*
X1255321Y776386D01*
X1253932Y773033D01*
X1251367Y770468D01*
X1248014Y769079D01*
X1244386Y769079D01*
G37*
%LPD*%
%LPC*%
G36*
X1218986Y769079D02*
X1218986Y769079D01*
X1215633Y770468D01*
X1213068Y773033D01*
X1211679Y776386D01*
X1211679Y780014D01*
X1213068Y783367D01*
X1215633Y785932D01*
X1218986Y787321D01*
X1222614Y787321D01*
X1225967Y785932D01*
X1228532Y783367D01*
X1229921Y780014D01*
X1229921Y776386D01*
X1228532Y773033D01*
X1225967Y770468D01*
X1222614Y769079D01*
X1218986Y769079D01*
G37*
%LPD*%
%LPC*%
G36*
X1117386Y769079D02*
X1117386Y769079D01*
X1114033Y770468D01*
X1111468Y773033D01*
X1110079Y776386D01*
X1110079Y780014D01*
X1111468Y783367D01*
X1114033Y785932D01*
X1117386Y787321D01*
X1121014Y787321D01*
X1124367Y785932D01*
X1126932Y783367D01*
X1128321Y780014D01*
X1128321Y776386D01*
X1126932Y773033D01*
X1124367Y770468D01*
X1121014Y769079D01*
X1117386Y769079D01*
G37*
%LPD*%
%LPC*%
G36*
X1091986Y769079D02*
X1091986Y769079D01*
X1088633Y770468D01*
X1086068Y773033D01*
X1084679Y776386D01*
X1084679Y780014D01*
X1086068Y783367D01*
X1088633Y785932D01*
X1091986Y787321D01*
X1095614Y787321D01*
X1098967Y785932D01*
X1101532Y783367D01*
X1102921Y780014D01*
X1102921Y776386D01*
X1101532Y773033D01*
X1098967Y770468D01*
X1095614Y769079D01*
X1091986Y769079D01*
G37*
%LPD*%
%LPC*%
G36*
X1066586Y769079D02*
X1066586Y769079D01*
X1063233Y770468D01*
X1060668Y773033D01*
X1059279Y776386D01*
X1059279Y780014D01*
X1060668Y783367D01*
X1063233Y785932D01*
X1066586Y787321D01*
X1070214Y787321D01*
X1073567Y785932D01*
X1076132Y783367D01*
X1077521Y780014D01*
X1077521Y776386D01*
X1076132Y773033D01*
X1073567Y770468D01*
X1070214Y769079D01*
X1066586Y769079D01*
G37*
%LPD*%
%LPC*%
G36*
X1041186Y769079D02*
X1041186Y769079D01*
X1037833Y770468D01*
X1035268Y773033D01*
X1033879Y776386D01*
X1033879Y780014D01*
X1035268Y783367D01*
X1037833Y785932D01*
X1041186Y787321D01*
X1044814Y787321D01*
X1048167Y785932D01*
X1050732Y783367D01*
X1052121Y780014D01*
X1052121Y776386D01*
X1050732Y773033D01*
X1048167Y770468D01*
X1044814Y769079D01*
X1041186Y769079D01*
G37*
%LPD*%
%LPC*%
G36*
X1015786Y769079D02*
X1015786Y769079D01*
X1012433Y770468D01*
X1009868Y773033D01*
X1008479Y776386D01*
X1008479Y780014D01*
X1009868Y783367D01*
X1012433Y785932D01*
X1015786Y787321D01*
X1019414Y787321D01*
X1022767Y785932D01*
X1025332Y783367D01*
X1026721Y780014D01*
X1026721Y776386D01*
X1025332Y773033D01*
X1022767Y770468D01*
X1019414Y769079D01*
X1015786Y769079D01*
G37*
%LPD*%
%LPC*%
G36*
X990386Y769079D02*
X990386Y769079D01*
X987033Y770468D01*
X984468Y773033D01*
X983079Y776386D01*
X983079Y780014D01*
X984468Y783367D01*
X987033Y785932D01*
X990386Y787321D01*
X994014Y787321D01*
X997367Y785932D01*
X999932Y783367D01*
X1001321Y780014D01*
X1001321Y776386D01*
X999932Y773033D01*
X997367Y770468D01*
X994014Y769079D01*
X990386Y769079D01*
G37*
%LPD*%
%LPC*%
G36*
X964986Y769079D02*
X964986Y769079D01*
X961633Y770468D01*
X959068Y773033D01*
X957679Y776386D01*
X957679Y780014D01*
X959068Y783367D01*
X961633Y785932D01*
X964986Y787321D01*
X968614Y787321D01*
X971967Y785932D01*
X974532Y783367D01*
X975921Y780014D01*
X975921Y776386D01*
X974532Y773033D01*
X971967Y770468D01*
X968614Y769079D01*
X964986Y769079D01*
G37*
%LPD*%
%LPC*%
G36*
X939586Y769079D02*
X939586Y769079D01*
X936233Y770468D01*
X933668Y773033D01*
X932279Y776386D01*
X932279Y780014D01*
X933668Y783367D01*
X936233Y785932D01*
X939586Y787321D01*
X943214Y787321D01*
X946567Y785932D01*
X949132Y783367D01*
X950521Y780014D01*
X950521Y776386D01*
X949132Y773033D01*
X946567Y770468D01*
X943214Y769079D01*
X939586Y769079D01*
G37*
%LPD*%
%LPC*%
G36*
X914186Y769079D02*
X914186Y769079D01*
X910833Y770468D01*
X908268Y773033D01*
X906879Y776386D01*
X906879Y780014D01*
X908268Y783367D01*
X910833Y785932D01*
X914186Y787321D01*
X917814Y787321D01*
X921167Y785932D01*
X923732Y783367D01*
X925121Y780014D01*
X925121Y776386D01*
X923732Y773033D01*
X921167Y770468D01*
X917814Y769079D01*
X914186Y769079D01*
G37*
%LPD*%
D10*
X1286300Y240520D02*
X1286300Y225280D01*
X1260900Y225280D02*
X1260900Y240520D01*
X1235500Y240520D02*
X1235500Y225280D01*
X1210100Y225280D02*
X1210100Y240520D01*
X1184700Y240520D02*
X1184700Y225280D01*
X1159300Y225280D02*
X1159300Y240520D01*
X1133900Y240520D02*
X1133900Y225280D01*
X1108500Y225280D02*
X1108500Y240520D01*
D11*
X1271600Y778200D03*
D12*
X1246200Y778200D03*
X1220800Y778200D03*
X1195400Y778200D03*
X1170000Y778200D03*
X1144600Y778200D03*
X1119200Y778200D03*
X1093800Y778200D03*
X1068400Y778200D03*
X1043000Y778200D03*
X1017600Y778200D03*
X992200Y778200D03*
X966800Y778200D03*
X941400Y778200D03*
X916000Y778200D03*
X890600Y778200D03*
D13*
X1343142Y623500D02*
X1356858Y623500D01*
X1356858Y598100D02*
X1343142Y598100D01*
X1343142Y572700D02*
X1356858Y572700D01*
X1356858Y547300D02*
X1343142Y547300D01*
X1343142Y521900D02*
X1356858Y521900D01*
X1356858Y496500D02*
X1343142Y496500D01*
D14*
X730000Y775000D03*
X680000Y775000D03*
X630000Y775000D03*
D15*
X1260000Y585000D03*
D16*
X1260000Y530000D01*
D15*
X1260000Y530000D03*
X1320000Y540000D03*
X1248600Y611400D03*
D16*
X1320000Y540000D01*
D15*
X955000Y540000D03*
X1105000Y650000D03*
X1205000Y575000D03*
X1130000Y435000D03*
X790000Y700000D03*
X1180000Y580000D03*
D16*
X1180000Y762800D02*
X1195400Y778200D01*
X1180000Y762800D02*
X1180000Y580000D01*
D15*
X1172500Y562500D03*
D16*
X1172500Y737500D01*
X1144600Y765400D02*
X1144600Y778200D01*
X1144600Y765400D02*
X1172500Y737500D01*
D15*
X1120000Y480000D03*
D16*
X1113500Y473500D01*
D15*
X965000Y479000D03*
D16*
X981500Y479000D01*
X987000Y473500D02*
X1113500Y473500D01*
X987000Y473500D02*
X981500Y479000D01*
D15*
X1110000Y480000D03*
D16*
X1015000Y480000D01*
D15*
X1015000Y480000D03*
X1130000Y480000D03*
D16*
X1128485Y480000D01*
X1117485Y469000D01*
X1040000Y469000D01*
X1031000Y460000D01*
X979170Y460000D01*
D15*
X940050Y460000D03*
D16*
X979170Y460000D01*
D15*
X979170Y471170D03*
D16*
X979170Y460000D01*
D15*
X1225000Y315000D03*
D16*
X1185000Y275000D01*
D15*
X1185000Y275000D03*
X815000Y425000D03*
X980000Y415000D03*
X915000Y415000D03*
D17*
X905000Y425000D02*
X815000Y425000D01*
X905000Y425000D02*
X915000Y415000D01*
X980000Y415000D01*
M02*
