G04 EAGLE Gerber RS-274X export*
G75*
%MOMM*%
%FSLAX34Y34*%
%LPD*%
%IN*%
%IPPOS*%
%AMOC8*
5,1,8,0,0,1.08239X$1,22.5*%
G01*
%ADD10C,0.254000*%


D10*
X379730Y194310D02*
X1380290Y194310D01*
X1379800Y810190D01*
X379730Y809180D01*
X379730Y194310D01*
X1330600Y227676D02*
X1330669Y226631D01*
X1330805Y225592D01*
X1331010Y224565D01*
X1331281Y223553D01*
X1331617Y222561D01*
X1332018Y221593D01*
X1332482Y220654D01*
X1333006Y219746D01*
X1333588Y218875D01*
X1334225Y218044D01*
X1334916Y217257D01*
X1335657Y216516D01*
X1336444Y215825D01*
X1337275Y215188D01*
X1338146Y214606D01*
X1339054Y214082D01*
X1339993Y213618D01*
X1340961Y213217D01*
X1341953Y212881D01*
X1342965Y212610D01*
X1343992Y212405D01*
X1345031Y212269D01*
X1346076Y212200D01*
X1347124Y212200D01*
X1348169Y212269D01*
X1349208Y212405D01*
X1350235Y212610D01*
X1351247Y212881D01*
X1352239Y213217D01*
X1353207Y213618D01*
X1354146Y214082D01*
X1355054Y214606D01*
X1355925Y215188D01*
X1356756Y215825D01*
X1357543Y216516D01*
X1358284Y217257D01*
X1358975Y218044D01*
X1359613Y218875D01*
X1360195Y219746D01*
X1360718Y220654D01*
X1361182Y221593D01*
X1361583Y222561D01*
X1361919Y223553D01*
X1362190Y224565D01*
X1362395Y225592D01*
X1362532Y226631D01*
X1362600Y227676D01*
X1362600Y228724D01*
X1362532Y229769D01*
X1362395Y230808D01*
X1362190Y231835D01*
X1361919Y232847D01*
X1361583Y233839D01*
X1361182Y234807D01*
X1360718Y235746D01*
X1360195Y236654D01*
X1359613Y237525D01*
X1358975Y238356D01*
X1358284Y239143D01*
X1357543Y239884D01*
X1356756Y240575D01*
X1355925Y241213D01*
X1355054Y241795D01*
X1354146Y242318D01*
X1353207Y242782D01*
X1352239Y243183D01*
X1351247Y243519D01*
X1350235Y243790D01*
X1349208Y243995D01*
X1348169Y244132D01*
X1347124Y244200D01*
X1346076Y244200D01*
X1345031Y244132D01*
X1343992Y243995D01*
X1342965Y243790D01*
X1341953Y243519D01*
X1340961Y243183D01*
X1339993Y242782D01*
X1339054Y242318D01*
X1338146Y241795D01*
X1337275Y241213D01*
X1336444Y240575D01*
X1335657Y239884D01*
X1334916Y239143D01*
X1334225Y238356D01*
X1333588Y237525D01*
X1333006Y236654D01*
X1332482Y235746D01*
X1332018Y234807D01*
X1331617Y233839D01*
X1331281Y232847D01*
X1331010Y231835D01*
X1330805Y230808D01*
X1330669Y229769D01*
X1330600Y228724D01*
X1330600Y227676D01*
X1330600Y777676D02*
X1330669Y776631D01*
X1330805Y775592D01*
X1331010Y774565D01*
X1331281Y773553D01*
X1331617Y772561D01*
X1332018Y771593D01*
X1332482Y770654D01*
X1333006Y769746D01*
X1333588Y768875D01*
X1334225Y768044D01*
X1334916Y767257D01*
X1335657Y766516D01*
X1336444Y765825D01*
X1337275Y765188D01*
X1338146Y764606D01*
X1339054Y764082D01*
X1339993Y763618D01*
X1340961Y763217D01*
X1341953Y762881D01*
X1342965Y762610D01*
X1343992Y762405D01*
X1345031Y762269D01*
X1346076Y762200D01*
X1347124Y762200D01*
X1348169Y762269D01*
X1349208Y762405D01*
X1350235Y762610D01*
X1351247Y762881D01*
X1352239Y763217D01*
X1353207Y763618D01*
X1354146Y764082D01*
X1355054Y764606D01*
X1355925Y765188D01*
X1356756Y765825D01*
X1357543Y766516D01*
X1358284Y767257D01*
X1358975Y768044D01*
X1359613Y768875D01*
X1360195Y769746D01*
X1360718Y770654D01*
X1361182Y771593D01*
X1361583Y772561D01*
X1361919Y773553D01*
X1362190Y774565D01*
X1362395Y775592D01*
X1362532Y776631D01*
X1362600Y777676D01*
X1362600Y778724D01*
X1362532Y779769D01*
X1362395Y780808D01*
X1362190Y781835D01*
X1361919Y782847D01*
X1361583Y783839D01*
X1361182Y784807D01*
X1360718Y785746D01*
X1360195Y786654D01*
X1359613Y787525D01*
X1358975Y788356D01*
X1358284Y789143D01*
X1357543Y789884D01*
X1356756Y790575D01*
X1355925Y791213D01*
X1355054Y791795D01*
X1354146Y792318D01*
X1353207Y792782D01*
X1352239Y793183D01*
X1351247Y793519D01*
X1350235Y793790D01*
X1349208Y793995D01*
X1348169Y794132D01*
X1347124Y794200D01*
X1346076Y794200D01*
X1345031Y794132D01*
X1343992Y793995D01*
X1342965Y793790D01*
X1341953Y793519D01*
X1340961Y793183D01*
X1339993Y792782D01*
X1339054Y792318D01*
X1338146Y791795D01*
X1337275Y791213D01*
X1336444Y790575D01*
X1335657Y789884D01*
X1334916Y789143D01*
X1334225Y788356D01*
X1333588Y787525D01*
X1333006Y786654D01*
X1332482Y785746D01*
X1332018Y784807D01*
X1331617Y783839D01*
X1331281Y782847D01*
X1331010Y781835D01*
X1330805Y780808D01*
X1330669Y779769D01*
X1330600Y778724D01*
X1330600Y777676D01*
X400600Y777676D02*
X400669Y776631D01*
X400805Y775592D01*
X401010Y774565D01*
X401281Y773553D01*
X401617Y772561D01*
X402018Y771593D01*
X402482Y770654D01*
X403006Y769746D01*
X403588Y768875D01*
X404225Y768044D01*
X404916Y767257D01*
X405657Y766516D01*
X406444Y765825D01*
X407275Y765188D01*
X408146Y764606D01*
X409054Y764082D01*
X409993Y763618D01*
X410961Y763217D01*
X411953Y762881D01*
X412965Y762610D01*
X413992Y762405D01*
X415031Y762269D01*
X416076Y762200D01*
X417124Y762200D01*
X418169Y762269D01*
X419208Y762405D01*
X420235Y762610D01*
X421247Y762881D01*
X422239Y763217D01*
X423207Y763618D01*
X424146Y764082D01*
X425054Y764606D01*
X425925Y765188D01*
X426756Y765825D01*
X427543Y766516D01*
X428284Y767257D01*
X428975Y768044D01*
X429613Y768875D01*
X430195Y769746D01*
X430718Y770654D01*
X431182Y771593D01*
X431583Y772561D01*
X431919Y773553D01*
X432190Y774565D01*
X432395Y775592D01*
X432532Y776631D01*
X432600Y777676D01*
X432600Y778724D01*
X432532Y779769D01*
X432395Y780808D01*
X432190Y781835D01*
X431919Y782847D01*
X431583Y783839D01*
X431182Y784807D01*
X430718Y785746D01*
X430195Y786654D01*
X429613Y787525D01*
X428975Y788356D01*
X428284Y789143D01*
X427543Y789884D01*
X426756Y790575D01*
X425925Y791213D01*
X425054Y791795D01*
X424146Y792318D01*
X423207Y792782D01*
X422239Y793183D01*
X421247Y793519D01*
X420235Y793790D01*
X419208Y793995D01*
X418169Y794132D01*
X417124Y794200D01*
X416076Y794200D01*
X415031Y794132D01*
X413992Y793995D01*
X412965Y793790D01*
X411953Y793519D01*
X410961Y793183D01*
X409993Y792782D01*
X409054Y792318D01*
X408146Y791795D01*
X407275Y791213D01*
X406444Y790575D01*
X405657Y789884D01*
X404916Y789143D01*
X404225Y788356D01*
X403588Y787525D01*
X403006Y786654D01*
X402482Y785746D01*
X402018Y784807D01*
X401617Y783839D01*
X401281Y782847D01*
X401010Y781835D01*
X400805Y780808D01*
X400669Y779769D01*
X400600Y778724D01*
X400600Y777676D01*
X400600Y227676D02*
X400669Y226631D01*
X400805Y225592D01*
X401010Y224565D01*
X401281Y223553D01*
X401617Y222561D01*
X402018Y221593D01*
X402482Y220654D01*
X403006Y219746D01*
X403588Y218875D01*
X404225Y218044D01*
X404916Y217257D01*
X405657Y216516D01*
X406444Y215825D01*
X407275Y215188D01*
X408146Y214606D01*
X409054Y214082D01*
X409993Y213618D01*
X410961Y213217D01*
X411953Y212881D01*
X412965Y212610D01*
X413992Y212405D01*
X415031Y212269D01*
X416076Y212200D01*
X417124Y212200D01*
X418169Y212269D01*
X419208Y212405D01*
X420235Y212610D01*
X421247Y212881D01*
X422239Y213217D01*
X423207Y213618D01*
X424146Y214082D01*
X425054Y214606D01*
X425925Y215188D01*
X426756Y215825D01*
X427543Y216516D01*
X428284Y217257D01*
X428975Y218044D01*
X429613Y218875D01*
X430195Y219746D01*
X430718Y220654D01*
X431182Y221593D01*
X431583Y222561D01*
X431919Y223553D01*
X432190Y224565D01*
X432395Y225592D01*
X432532Y226631D01*
X432600Y227676D01*
X432600Y228724D01*
X432532Y229769D01*
X432395Y230808D01*
X432190Y231835D01*
X431919Y232847D01*
X431583Y233839D01*
X431182Y234807D01*
X430718Y235746D01*
X430195Y236654D01*
X429613Y237525D01*
X428975Y238356D01*
X428284Y239143D01*
X427543Y239884D01*
X426756Y240575D01*
X425925Y241213D01*
X425054Y241795D01*
X424146Y242318D01*
X423207Y242782D01*
X422239Y243183D01*
X421247Y243519D01*
X420235Y243790D01*
X419208Y243995D01*
X418169Y244132D01*
X417124Y244200D01*
X416076Y244200D01*
X415031Y244132D01*
X413992Y243995D01*
X412965Y243790D01*
X411953Y243519D01*
X410961Y243183D01*
X409993Y242782D01*
X409054Y242318D01*
X408146Y241795D01*
X407275Y241213D01*
X406444Y240575D01*
X405657Y239884D01*
X404916Y239143D01*
X404225Y238356D01*
X403588Y237525D01*
X403006Y236654D01*
X402482Y235746D01*
X402018Y234807D01*
X401617Y233839D01*
X401281Y232847D01*
X401010Y231835D01*
X400805Y230808D01*
X400669Y229769D01*
X400600Y228724D01*
X400600Y227676D01*
M02*
