G04 EAGLE Gerber RS-274X export*
G75*
%MOMM*%
%FSLAX34Y34*%
%LPD*%
%INSoldermask Top*%
%IPPOS*%
%AMOC8*
5,1,8,0,0,1.08239X$1,22.5*%
G01*
%ADD10R,1.000000X1.100000*%
%ADD11R,1.100000X1.000000*%
%ADD12R,0.500000X1.500000*%
%ADD13R,1.500000X0.500000*%
%ADD14R,1.803000X1.600000*%
%ADD15C,1.524000*%
%ADD16R,1.524000X1.524000*%
%ADD17C,1.524000*%
%ADD18C,3.200000*%
%ADD19R,0.700000X0.250000*%
%ADD20R,0.700000X0.450000*%
%ADD21C,1.371600*%
%ADD22C,2.184400*%
%ADD23R,0.800000X0.800000*%


D10*
X1000980Y558750D03*
X1000980Y541750D03*
D11*
X1093200Y455250D03*
X1110200Y455250D03*
D12*
X1140780Y611400D03*
X1132780Y611400D03*
X1124780Y611400D03*
X1116780Y611400D03*
X1108780Y611400D03*
X1100780Y611400D03*
X1092780Y611400D03*
X1084780Y611400D03*
X1076780Y611400D03*
X1068780Y611400D03*
X1060780Y611400D03*
D13*
X1042780Y593400D03*
X1042780Y585400D03*
X1042780Y577400D03*
X1042780Y569400D03*
X1042780Y561400D03*
X1042780Y553400D03*
X1042780Y545400D03*
X1042780Y537400D03*
X1042780Y529400D03*
X1042780Y521400D03*
X1042780Y513400D03*
D12*
X1060780Y495400D03*
X1068780Y495400D03*
X1076780Y495400D03*
X1084780Y495400D03*
X1092780Y495400D03*
X1100780Y495400D03*
X1108780Y495400D03*
X1116780Y495400D03*
X1124780Y495400D03*
X1132780Y495400D03*
X1140780Y495400D03*
D13*
X1158780Y513400D03*
X1158780Y521400D03*
X1158780Y529400D03*
X1158780Y537400D03*
X1158780Y545400D03*
X1158780Y553400D03*
X1158780Y561400D03*
X1158780Y569400D03*
X1158780Y577400D03*
X1158780Y585400D03*
X1158780Y593400D03*
D14*
X792560Y392740D03*
X792560Y421180D03*
X792560Y334240D03*
X792560Y362680D03*
X996160Y397740D03*
X996160Y426180D03*
X996160Y340510D03*
X996160Y368950D03*
X896860Y397740D03*
X896860Y426180D03*
X896860Y344240D03*
X896860Y372680D03*
D11*
X1288970Y530140D03*
X1288970Y547140D03*
D15*
X1286300Y240520D02*
X1286300Y225280D01*
X1260900Y225280D02*
X1260900Y240520D01*
X1235500Y240520D02*
X1235500Y225280D01*
X1210100Y225280D02*
X1210100Y240520D01*
X1184700Y240520D02*
X1184700Y225280D01*
X1159300Y225280D02*
X1159300Y240520D01*
X1133900Y240520D02*
X1133900Y225280D01*
X1108500Y225280D02*
X1108500Y240520D01*
D16*
X1271600Y778200D03*
D17*
X1246200Y778200D03*
X1220800Y778200D03*
X1195400Y778200D03*
X1170000Y778200D03*
X1144600Y778200D03*
X1119200Y778200D03*
X1093800Y778200D03*
X1068400Y778200D03*
X1043000Y778200D03*
X1017600Y778200D03*
X992200Y778200D03*
X966800Y778200D03*
X941400Y778200D03*
X916000Y778200D03*
X890600Y778200D03*
D18*
X1346600Y228200D03*
X1346600Y778200D03*
X416600Y778200D03*
X416600Y228200D03*
D19*
X990000Y469250D03*
D20*
X990000Y461750D03*
D19*
X965000Y469250D03*
D20*
X965000Y461750D03*
D19*
X1015000Y469250D03*
D20*
X1015000Y461750D03*
D21*
X1343142Y623500D02*
X1356858Y623500D01*
X1356858Y598100D02*
X1343142Y598100D01*
X1343142Y572700D02*
X1356858Y572700D01*
X1356858Y547300D02*
X1343142Y547300D01*
X1343142Y521900D02*
X1356858Y521900D01*
X1356858Y496500D02*
X1343142Y496500D01*
D22*
X730000Y775000D03*
X680000Y775000D03*
X630000Y775000D03*
D10*
X1190000Y546500D03*
X1190000Y563500D03*
D11*
X1118500Y640000D03*
X1101500Y640000D03*
D10*
X786500Y745000D03*
X803500Y745000D03*
D23*
X785000Y712500D03*
X785000Y727500D03*
D19*
X860000Y359250D03*
D20*
X860000Y351750D03*
D19*
X750000Y359250D03*
D20*
X750000Y351750D03*
D19*
X965000Y369250D03*
D20*
X965000Y361750D03*
M02*
