G04 EAGLE Gerber RS-274X export*
G75*
%MOMM*%
%FSLAX34Y34*%
%LPD*%
%INSoldermask Bottom*%
%IPPOS*%
%AMOC8*
5,1,8,0,0,1.08239X$1,22.5*%
G01*
%ADD10C,1.524000*%
%ADD11R,1.524000X1.524000*%
%ADD12C,1.524000*%
%ADD13C,3.200000*%
%ADD14C,1.371600*%
%ADD15C,2.184400*%


D10*
X1286300Y240520D02*
X1286300Y225280D01*
X1260900Y225280D02*
X1260900Y240520D01*
X1235500Y240520D02*
X1235500Y225280D01*
X1210100Y225280D02*
X1210100Y240520D01*
X1184700Y240520D02*
X1184700Y225280D01*
X1159300Y225280D02*
X1159300Y240520D01*
X1133900Y240520D02*
X1133900Y225280D01*
X1108500Y225280D02*
X1108500Y240520D01*
D11*
X1271600Y778200D03*
D12*
X1246200Y778200D03*
X1220800Y778200D03*
X1195400Y778200D03*
X1170000Y778200D03*
X1144600Y778200D03*
X1119200Y778200D03*
X1093800Y778200D03*
X1068400Y778200D03*
X1043000Y778200D03*
X1017600Y778200D03*
X992200Y778200D03*
X966800Y778200D03*
X941400Y778200D03*
X916000Y778200D03*
X890600Y778200D03*
D13*
X1346600Y228200D03*
X1346600Y778200D03*
X416600Y778200D03*
X416600Y228200D03*
D14*
X1343142Y623500D02*
X1356858Y623500D01*
X1356858Y598100D02*
X1343142Y598100D01*
X1343142Y572700D02*
X1356858Y572700D01*
X1356858Y547300D02*
X1343142Y547300D01*
X1343142Y521900D02*
X1356858Y521900D01*
X1356858Y496500D02*
X1343142Y496500D01*
D15*
X730000Y775000D03*
X680000Y775000D03*
X630000Y775000D03*
M02*
