G75*
G70*
%OFA0B0*%
%FSLAX24Y24*%
%IPPOS*%
%LPD*%
%AMOC8*
5,1,8,0,0,1.08239X$1,22.5*
%
%ADD10R,0.0236X0.0866*%
%ADD11R,0.0394X0.0433*%
%ADD12R,0.0433X0.0394*%
%ADD13R,0.0551X0.0551*%
%ADD14R,0.0591X0.0512*%
%ADD15R,0.1102X0.0866*%
%ADD16C,0.0456*%
%ADD17C,0.0515*%
%ADD18R,0.0515X0.0515*%
%ADD19OC8,0.0600*%
%ADD20C,0.0885*%
%ADD21C,0.0945*%
%ADD22R,0.0710X0.0630*%
%ADD23C,0.0974*%
%ADD24R,0.0974X0.0974*%
%ADD25R,0.0197X0.0354*%
%ADD26R,0.0354X0.0197*%
%ADD27C,0.0554*%
%ADD28R,0.0701X0.0850*%
%ADD29C,0.1095*%
%ADD30C,0.0100*%
%ADD31C,0.0160*%
%ADD32C,0.0240*%
%ADD33C,0.0500*%
%ADD34C,0.0310*%
D10*
X005755Y003126D03*
X006255Y003126D03*
X006755Y003126D03*
X007255Y003126D03*
X007255Y005174D03*
X006755Y005174D03*
X006255Y005174D03*
X005755Y005174D03*
X005755Y006226D03*
X006255Y006226D03*
X006755Y006226D03*
X007255Y006226D03*
X007255Y008274D03*
X006755Y008274D03*
X006255Y008274D03*
X005755Y008274D03*
X005755Y009626D03*
X006255Y009626D03*
X006755Y009626D03*
X007255Y009626D03*
X007255Y011674D03*
X006755Y011674D03*
X006255Y011674D03*
X005755Y011674D03*
X012705Y011674D03*
X013205Y011674D03*
X013705Y011674D03*
X014205Y011674D03*
X014205Y009626D03*
X013705Y009626D03*
X013205Y009626D03*
X012705Y009626D03*
X012705Y008274D03*
X013205Y008274D03*
X013705Y008274D03*
X014205Y008274D03*
X014205Y006226D03*
X013705Y006226D03*
X013205Y006226D03*
X012705Y006226D03*
X012705Y005174D03*
X013205Y005174D03*
X013705Y005174D03*
X014205Y005174D03*
X014205Y003126D03*
X013705Y003126D03*
X013205Y003126D03*
X012705Y003126D03*
X016455Y003126D03*
X016955Y003126D03*
X017455Y003126D03*
X017955Y003126D03*
X017955Y005174D03*
X017455Y005174D03*
X016955Y005174D03*
X016455Y005174D03*
X016455Y006226D03*
X016955Y006226D03*
X017455Y006226D03*
X017955Y006226D03*
X017955Y008274D03*
X017455Y008274D03*
X016955Y008274D03*
X016455Y008274D03*
X016455Y009626D03*
X016955Y009626D03*
X017455Y009626D03*
X017955Y009626D03*
X017955Y011674D03*
X017455Y011674D03*
X016955Y011674D03*
X016455Y011674D03*
X026765Y023296D03*
X027265Y023296D03*
X027765Y023296D03*
X028265Y023296D03*
X028265Y025344D03*
X027765Y025344D03*
X027265Y025344D03*
X026765Y025344D03*
X026375Y030376D03*
X025875Y030376D03*
X025375Y030376D03*
X024875Y030376D03*
X024875Y032424D03*
X025375Y032424D03*
X025875Y032424D03*
X026375Y032424D03*
X026375Y033876D03*
X025875Y033876D03*
X025375Y033876D03*
X024875Y033876D03*
X024875Y035924D03*
X025375Y035924D03*
X025875Y035924D03*
X026375Y035924D03*
X026375Y037026D03*
X025875Y037026D03*
X025375Y037026D03*
X024875Y037026D03*
X024875Y039074D03*
X025375Y039074D03*
X025875Y039074D03*
X026375Y039074D03*
X028625Y039024D03*
X029125Y039024D03*
X029625Y039024D03*
X030125Y039024D03*
X030125Y036976D03*
X029625Y036976D03*
X029125Y036976D03*
X028625Y036976D03*
X028625Y035924D03*
X029125Y035924D03*
X029625Y035924D03*
X030125Y035924D03*
X032375Y035924D03*
X032875Y035924D03*
X033375Y035924D03*
X033875Y035924D03*
X033875Y036926D03*
X033375Y036926D03*
X032875Y036926D03*
X032375Y036926D03*
X032375Y038974D03*
X032875Y038974D03*
X033375Y038974D03*
X033875Y038974D03*
X036225Y039024D03*
X036725Y039024D03*
X037225Y039024D03*
X037725Y039024D03*
X037725Y036976D03*
X037225Y036976D03*
X036725Y036976D03*
X036225Y036976D03*
X036225Y035924D03*
X036725Y035924D03*
X037225Y035924D03*
X037725Y035924D03*
X039975Y035924D03*
X040475Y035924D03*
X040975Y035924D03*
X041475Y035924D03*
X041475Y036976D03*
X040975Y036976D03*
X040475Y036976D03*
X039975Y036976D03*
X039975Y039024D03*
X040475Y039024D03*
X040975Y039024D03*
X041475Y039024D03*
X043725Y039024D03*
X044225Y039024D03*
X044725Y039024D03*
X045225Y039024D03*
X045225Y036976D03*
X044725Y036976D03*
X044225Y036976D03*
X043725Y036976D03*
X043725Y035924D03*
X044225Y035924D03*
X044725Y035924D03*
X045225Y035924D03*
X045225Y033876D03*
X044725Y033876D03*
X044225Y033876D03*
X043725Y033876D03*
X043725Y032424D03*
X044225Y032424D03*
X044725Y032424D03*
X045225Y032424D03*
X045225Y030376D03*
X044725Y030376D03*
X044225Y030376D03*
X043725Y030376D03*
X041475Y030376D03*
X040975Y030376D03*
X040475Y030376D03*
X039975Y030376D03*
X037725Y030376D03*
X037225Y030376D03*
X036725Y030376D03*
X036225Y030376D03*
X033875Y030376D03*
X033375Y030376D03*
X032875Y030376D03*
X032375Y030376D03*
X030125Y030376D03*
X029625Y030376D03*
X029125Y030376D03*
X028625Y030376D03*
X028625Y032424D03*
X029125Y032424D03*
X029625Y032424D03*
X030125Y032424D03*
X030125Y033876D03*
X029625Y033876D03*
X029125Y033876D03*
X028625Y033876D03*
X032375Y033876D03*
X032875Y033876D03*
X033375Y033876D03*
X033875Y033876D03*
X033875Y032424D03*
X033375Y032424D03*
X032875Y032424D03*
X032375Y032424D03*
X036225Y032424D03*
X036725Y032424D03*
X037225Y032424D03*
X037725Y032424D03*
X037725Y033876D03*
X037225Y033876D03*
X036725Y033876D03*
X036225Y033876D03*
X039975Y033876D03*
X040475Y033876D03*
X040975Y033876D03*
X041475Y033876D03*
X041475Y032424D03*
X040975Y032424D03*
X040475Y032424D03*
X039975Y032424D03*
X039975Y011674D03*
X040475Y011674D03*
X040975Y011674D03*
X041475Y011674D03*
X041475Y009626D03*
X040975Y009626D03*
X040475Y009626D03*
X039975Y009626D03*
X039975Y008274D03*
X040475Y008274D03*
X040975Y008274D03*
X041475Y008274D03*
X041475Y006226D03*
X040975Y006226D03*
X040475Y006226D03*
X039975Y006226D03*
X039975Y005174D03*
X040475Y005174D03*
X040975Y005174D03*
X041475Y005174D03*
X041475Y003126D03*
X040975Y003126D03*
X040475Y003126D03*
X039975Y003126D03*
X037725Y003126D03*
X037225Y003126D03*
X036725Y003126D03*
X036225Y003126D03*
X036225Y005174D03*
X036725Y005174D03*
X037225Y005174D03*
X037725Y005174D03*
X037725Y006226D03*
X037225Y006226D03*
X036725Y006226D03*
X036225Y006226D03*
X036225Y008274D03*
X036725Y008274D03*
X037225Y008274D03*
X037725Y008274D03*
X037725Y009626D03*
X037225Y009626D03*
X036725Y009626D03*
X036225Y009626D03*
X036225Y011674D03*
X036725Y011674D03*
X037225Y011674D03*
X037725Y011674D03*
X043825Y011674D03*
X044325Y011674D03*
X044825Y011674D03*
X045325Y011674D03*
X045325Y009626D03*
X044825Y009626D03*
X044325Y009626D03*
X043825Y009626D03*
X043825Y008284D03*
X044325Y008284D03*
X044825Y008284D03*
X045325Y008284D03*
X045325Y006236D03*
X044825Y006236D03*
X044325Y006236D03*
X043825Y006236D03*
X043825Y005184D03*
X044325Y005184D03*
X044825Y005184D03*
X045325Y005184D03*
X045325Y003136D03*
X044825Y003136D03*
X044325Y003136D03*
X043825Y003136D03*
X015725Y030376D03*
X015225Y030376D03*
X014725Y030376D03*
X014225Y030376D03*
X011975Y030376D03*
X011475Y030376D03*
X010975Y030376D03*
X010475Y030376D03*
X008225Y030376D03*
X007725Y030376D03*
X007225Y030376D03*
X006725Y030376D03*
X006725Y032424D03*
X007225Y032424D03*
X007725Y032424D03*
X008225Y032424D03*
X008225Y033876D03*
X007725Y033876D03*
X007225Y033876D03*
X006725Y033876D03*
X006725Y035924D03*
X007225Y035924D03*
X007725Y035924D03*
X008225Y035924D03*
X008225Y037026D03*
X007725Y037026D03*
X007225Y037026D03*
X006725Y037026D03*
X006725Y039074D03*
X007225Y039074D03*
X007725Y039074D03*
X008225Y039074D03*
X010475Y039074D03*
X010975Y039074D03*
X011475Y039074D03*
X011975Y039074D03*
X014225Y039074D03*
X014725Y039074D03*
X015225Y039074D03*
X015725Y039074D03*
X015725Y037026D03*
X015225Y037026D03*
X014725Y037026D03*
X014225Y037026D03*
X014225Y035924D03*
X014725Y035924D03*
X015225Y035924D03*
X015725Y035924D03*
X015725Y033876D03*
X015225Y033876D03*
X014725Y033876D03*
X014225Y033876D03*
X014225Y032424D03*
X014725Y032424D03*
X015225Y032424D03*
X015725Y032424D03*
X011975Y032424D03*
X011475Y032424D03*
X010975Y032424D03*
X010475Y032424D03*
X010475Y033876D03*
X010975Y033876D03*
X011475Y033876D03*
X011975Y033876D03*
X011975Y035924D03*
X011475Y035924D03*
X010975Y035924D03*
X010475Y035924D03*
X010475Y037026D03*
X010975Y037026D03*
X011475Y037026D03*
X011975Y037026D03*
D11*
X012675Y038415D03*
X012675Y039085D03*
X016485Y039065D03*
X016485Y038395D03*
X013525Y033535D03*
X013525Y032865D03*
X013475Y031735D03*
X013475Y031065D03*
X009725Y031065D03*
X009725Y031735D03*
X009775Y032825D03*
X009775Y033495D03*
X006045Y033485D03*
X006045Y032815D03*
X005975Y031735D03*
X005975Y031065D03*
X008945Y038415D03*
X008945Y039085D03*
X024205Y033525D03*
X024205Y032855D03*
X024175Y031735D03*
X024175Y031065D03*
X027925Y031065D03*
X027925Y031735D03*
X027955Y032855D03*
X027955Y033525D03*
X031665Y033535D03*
X031665Y032865D03*
X031675Y031735D03*
X031675Y031065D03*
X035475Y031065D03*
X035475Y031735D03*
X035465Y032855D03*
X035465Y033525D03*
X039225Y033535D03*
X039225Y032865D03*
X039225Y031735D03*
X039225Y031065D03*
X043025Y031065D03*
X043025Y031735D03*
X042995Y032845D03*
X042995Y033515D03*
X042165Y038335D03*
X042165Y039005D03*
X045915Y038995D03*
X045915Y038325D03*
X038395Y038345D03*
X038395Y039015D03*
X034725Y038955D03*
X034725Y038285D03*
X032475Y040915D03*
X032475Y041585D03*
X030995Y038995D03*
X030995Y038325D03*
X027205Y038385D03*
X027205Y039055D03*
X028965Y024645D03*
X028965Y023975D03*
X029815Y023975D03*
X029815Y024645D03*
X028975Y022785D03*
X028975Y022115D03*
X023295Y021975D03*
X023295Y021305D03*
X023295Y018685D03*
X023295Y018015D03*
X018065Y018085D03*
X018065Y018755D03*
X017875Y020265D03*
X017875Y020935D03*
X018725Y010985D03*
X018725Y010315D03*
X018675Y009375D03*
X018675Y008705D03*
X014895Y008685D03*
X014895Y009355D03*
X014925Y010315D03*
X014925Y010985D03*
X008025Y010985D03*
X008025Y010315D03*
X007955Y009395D03*
X007955Y008725D03*
X004975Y003795D03*
X004975Y003125D03*
X011985Y003155D03*
X011985Y003825D03*
X015745Y003825D03*
X015745Y003155D03*
X026975Y006615D03*
X026975Y007285D03*
X028125Y007285D03*
X028125Y006615D03*
X027925Y009715D03*
X027055Y009705D03*
X027055Y010375D03*
X027925Y010385D03*
X028805Y010375D03*
X028805Y009705D03*
X035465Y003825D03*
X035465Y003155D03*
X039215Y003175D03*
X039215Y003845D03*
X043025Y003885D03*
X043025Y003215D03*
X042185Y008635D03*
X042185Y009305D03*
X042175Y010365D03*
X042175Y011035D03*
X046025Y011035D03*
X046025Y010365D03*
X046075Y009305D03*
X046075Y008635D03*
X038445Y008595D03*
X038445Y009265D03*
X038425Y010315D03*
X038425Y010985D03*
X044675Y021815D03*
X044675Y022485D03*
X046075Y023065D03*
X046075Y023735D03*
X042475Y023285D03*
X042475Y022615D03*
D12*
X042609Y024000D03*
X041940Y024000D03*
X041609Y025750D03*
X040940Y025750D03*
X040990Y029390D03*
X041659Y029390D03*
X043040Y029400D03*
X043709Y029400D03*
X044740Y029390D03*
X045409Y029390D03*
X045659Y025750D03*
X044990Y025750D03*
X046290Y024600D03*
X046959Y024600D03*
X039909Y029370D03*
X039240Y029370D03*
X037909Y029370D03*
X037240Y029370D03*
X036159Y029350D03*
X035490Y029350D03*
X034049Y029270D03*
X033380Y029270D03*
X032339Y029290D03*
X031670Y029290D03*
X030299Y029280D03*
X029630Y029280D03*
X028629Y029270D03*
X027960Y029270D03*
X026529Y029280D03*
X025860Y029280D03*
X024889Y029280D03*
X024220Y029280D03*
X021929Y023350D03*
X021260Y023350D03*
X022630Y022690D03*
X023299Y022690D03*
X023379Y019500D03*
X022710Y019500D03*
X022929Y017360D03*
X022260Y017360D03*
X021189Y017350D03*
X020520Y017350D03*
X019289Y017370D03*
X018620Y017370D03*
X018520Y021950D03*
X019189Y021950D03*
X019169Y022770D03*
X018500Y022770D03*
X015909Y029300D03*
X015240Y029300D03*
X014209Y029300D03*
X013540Y029300D03*
X012119Y029320D03*
X011450Y029320D03*
X010439Y029320D03*
X009770Y029320D03*
X008389Y029330D03*
X007720Y029330D03*
X006629Y029360D03*
X005960Y029360D03*
X007790Y022700D03*
X008459Y022700D03*
X007919Y012700D03*
X007250Y012700D03*
X006199Y012710D03*
X005530Y012710D03*
X012550Y012700D03*
X013219Y012700D03*
X014230Y012710D03*
X014899Y012710D03*
X016260Y012700D03*
X016929Y012700D03*
X017970Y012690D03*
X018639Y012690D03*
X020490Y012800D03*
X021159Y012800D03*
X036050Y012710D03*
X036719Y012710D03*
X037730Y012700D03*
X038399Y012700D03*
X039790Y012700D03*
X040459Y012700D03*
X041500Y012700D03*
X042169Y012700D03*
X043630Y012710D03*
X044299Y012710D03*
X045340Y012710D03*
X046009Y012710D03*
X038009Y017950D03*
X037340Y017950D03*
X037540Y021500D03*
X038209Y021500D03*
X037959Y022300D03*
X037290Y022300D03*
X021009Y036300D03*
X020340Y036300D03*
X030590Y040550D03*
X031259Y040550D03*
D13*
X020185Y009538D03*
X020185Y008042D03*
D14*
X029475Y040776D03*
X029475Y041524D03*
D15*
X023103Y015900D03*
X023103Y013900D03*
X020347Y013900D03*
X020347Y015900D03*
D16*
X013375Y026166D03*
X013375Y028134D03*
D17*
X003275Y028088D03*
X003275Y028875D03*
X003275Y029663D03*
X012150Y041600D03*
X012937Y041600D03*
X016338Y041600D03*
X017125Y041600D03*
X017912Y041600D03*
X018700Y041600D03*
X019487Y041600D03*
X022563Y041600D03*
X023350Y041600D03*
X024138Y041600D03*
X024925Y041600D03*
X025712Y041600D03*
X026500Y041600D03*
X027287Y041600D03*
X030637Y041600D03*
X035275Y041350D03*
X036275Y041350D03*
X037275Y041350D03*
X036275Y042350D03*
X035275Y042350D03*
X048775Y030462D03*
X048775Y029675D03*
X048775Y028887D03*
X049375Y026100D03*
X049875Y025600D03*
X050375Y026100D03*
X050375Y025100D03*
X049375Y025100D03*
X048775Y016862D03*
X048775Y016075D03*
X048775Y015287D03*
X018725Y006213D03*
X018725Y005425D03*
X018725Y004638D03*
X018725Y003850D03*
X010125Y014088D03*
X010125Y014875D03*
X010125Y015663D03*
X003275Y015325D03*
X003275Y016113D03*
X003275Y014538D03*
D18*
X003275Y016900D03*
X010125Y016450D03*
X018725Y007000D03*
X003275Y030450D03*
X013725Y041600D03*
X020275Y041600D03*
X028075Y041600D03*
X031425Y041600D03*
X037275Y042350D03*
X048775Y028100D03*
X048775Y014500D03*
D19*
X006765Y041890D03*
X004985Y041890D03*
D20*
X004495Y040910D03*
X007255Y040910D03*
D21*
X022275Y012600D03*
X023675Y012600D03*
X025475Y012600D03*
X026875Y012600D03*
D22*
X020225Y011760D03*
X020225Y010640D03*
D23*
X011254Y007800D03*
X033304Y004650D03*
D24*
X031745Y004650D03*
X009695Y007800D03*
D25*
X029202Y007385D03*
X029517Y007385D03*
X029832Y007385D03*
X030147Y007385D03*
X030147Y006715D03*
X029832Y006715D03*
X029517Y006715D03*
X029202Y006715D03*
X048952Y009915D03*
X049267Y009915D03*
X049582Y009915D03*
X049897Y009915D03*
X049897Y010585D03*
X049582Y010585D03*
X049267Y010585D03*
X048952Y010585D03*
X023647Y039565D03*
X023332Y039565D03*
X023017Y039565D03*
X022702Y039565D03*
X022702Y040235D03*
X023017Y040235D03*
X023332Y040235D03*
X023647Y040235D03*
X018947Y040235D03*
X018632Y040235D03*
X018317Y040235D03*
X018002Y040235D03*
X018002Y039565D03*
X018317Y039565D03*
X018632Y039565D03*
X018947Y039565D03*
X004382Y027585D03*
X004067Y027585D03*
X004067Y026915D03*
X004382Y026915D03*
X011967Y026785D03*
X012282Y026785D03*
X012282Y026115D03*
X011967Y026115D03*
X003347Y034015D03*
X003032Y034015D03*
X002717Y034015D03*
X002402Y034015D03*
X002402Y034685D03*
X002717Y034685D03*
X003032Y034685D03*
X003347Y034685D03*
D26*
X006090Y022322D03*
X006090Y022007D03*
X006090Y021693D03*
X006090Y021378D03*
X006759Y021378D03*
X006759Y021693D03*
X006759Y022007D03*
X006759Y022322D03*
X006759Y020157D03*
X006759Y019843D03*
X006090Y019843D03*
X006090Y020157D03*
X005059Y016107D03*
X005059Y015793D03*
X004390Y015793D03*
X004390Y016107D03*
X024690Y028343D03*
X024690Y028657D03*
X025359Y028657D03*
X025359Y028343D03*
X027790Y028293D03*
X027790Y028607D03*
X028459Y028607D03*
X028459Y028293D03*
X031590Y028343D03*
X031590Y028657D03*
X032259Y028657D03*
X032259Y028343D03*
X035540Y028393D03*
X035540Y028707D03*
X036209Y028707D03*
X036209Y028393D03*
X039290Y028393D03*
X039290Y028707D03*
X039959Y028707D03*
X039959Y028393D03*
X043040Y028443D03*
X043040Y028757D03*
X043709Y028757D03*
X043709Y028443D03*
X047040Y015207D03*
X047040Y014893D03*
X047709Y014893D03*
X047709Y015207D03*
X044309Y013657D03*
X044309Y013343D03*
X043640Y013343D03*
X043640Y013657D03*
D27*
X029725Y005300D03*
X029725Y004300D03*
X029725Y003300D03*
X028725Y003300D03*
X027975Y003300D03*
X027975Y004300D03*
X028725Y004300D03*
X028725Y005300D03*
X027975Y005300D03*
X026975Y005300D03*
X026975Y004300D03*
X026975Y003300D03*
D28*
X011278Y009400D03*
X009675Y009400D03*
D29*
X021475Y009550D03*
X021475Y008050D03*
X023325Y008050D03*
X025175Y008050D03*
X025175Y009550D03*
X023325Y009550D03*
X024325Y003050D03*
X022325Y003050D03*
D30*
X026175Y004100D02*
X026175Y006200D01*
X026590Y006615D01*
X026975Y006615D01*
X027575Y006500D02*
X026975Y005900D01*
X026975Y005300D01*
X027475Y004800D02*
X027475Y006000D01*
X028125Y006650D01*
X028125Y006615D01*
X027575Y006500D02*
X027575Y007550D01*
X027775Y007750D01*
X028025Y007750D01*
X030375Y010100D01*
X030375Y010350D01*
X029625Y010150D02*
X029180Y009705D01*
X028805Y009705D01*
X028780Y009705D01*
X028775Y009700D01*
X028759Y009715D01*
X027925Y009715D01*
X027075Y009700D02*
X027060Y009700D01*
X026675Y009700D01*
X026375Y010000D01*
X026375Y012100D01*
X026875Y012600D01*
X028775Y012550D02*
X028775Y010400D01*
X028779Y010400D01*
X028805Y010375D01*
X028805Y010380D01*
X028809Y010385D01*
X028825Y010400D01*
X028809Y010385D02*
X027925Y010385D01*
X027959Y010385D01*
X027949Y010375D01*
X027055Y010375D01*
X027055Y009705D02*
X027060Y009700D01*
X027055Y009705D02*
X027055Y007380D01*
X026975Y007300D01*
X026975Y007285D01*
X028125Y007285D02*
X028125Y007300D01*
X031475Y010650D01*
X031475Y012750D01*
X031925Y012750D02*
X031925Y010700D01*
X029202Y007978D01*
X029202Y007385D01*
X029517Y007385D02*
X029517Y007893D01*
X032325Y010700D01*
X032325Y012750D01*
X032725Y012750D02*
X032725Y010700D01*
X029832Y007807D01*
X029832Y007385D01*
X030147Y007385D02*
X030147Y007722D01*
X033125Y010700D01*
X033125Y012750D01*
X034725Y013100D02*
X034925Y012900D01*
X034725Y013100D02*
X029325Y013100D01*
X028775Y012550D01*
X027975Y010400D02*
X027959Y010385D01*
X025425Y013850D02*
X042125Y013850D01*
X042317Y013657D01*
X043640Y013657D01*
X043640Y013343D02*
X042082Y013343D01*
X041825Y013600D01*
X025025Y013600D01*
X023925Y014700D01*
X024525Y014750D02*
X025425Y013850D01*
X025675Y014100D02*
X045725Y014100D01*
X046525Y013300D01*
X046525Y011650D01*
X046875Y011300D01*
X048725Y011300D01*
X048952Y011072D01*
X048952Y010585D01*
X049267Y010585D02*
X049267Y011157D01*
X048925Y011500D01*
X047025Y011500D01*
X046725Y011800D01*
X046725Y013450D01*
X045825Y014350D01*
X025975Y014350D01*
X025525Y014800D01*
X025025Y014750D02*
X025675Y014100D01*
X026275Y014600D02*
X045975Y014600D01*
X046975Y013600D01*
X046975Y012150D01*
X047375Y011750D01*
X049125Y011750D01*
X049582Y011293D01*
X049582Y010585D01*
X049582Y009915D02*
X049582Y009243D01*
X049725Y009100D01*
X049725Y008250D01*
X049325Y008550D02*
X049267Y008607D01*
X049267Y009915D01*
X048952Y009915D02*
X048952Y009078D01*
X048675Y008800D01*
X047525Y008800D01*
X045425Y007600D02*
X045425Y007200D01*
X043725Y007200D01*
X043725Y008700D01*
X044975Y008700D01*
X044975Y007600D01*
X045425Y007600D01*
X045425Y007542D02*
X043725Y007542D01*
X043725Y007640D02*
X044975Y007640D01*
X044975Y007739D02*
X043725Y007739D01*
X043725Y007837D02*
X044975Y007837D01*
X044975Y007936D02*
X043725Y007936D01*
X043725Y008034D02*
X044975Y008034D01*
X044975Y008133D02*
X043725Y008133D01*
X043725Y008231D02*
X044975Y008231D01*
X044975Y008330D02*
X043725Y008330D01*
X043725Y008428D02*
X044975Y008428D01*
X044975Y008527D02*
X043725Y008527D01*
X043725Y008625D02*
X044975Y008625D01*
X045425Y007443D02*
X043725Y007443D01*
X043725Y007345D02*
X045425Y007345D01*
X045425Y007246D02*
X043725Y007246D01*
X043725Y006600D02*
X046475Y006600D01*
X046475Y004750D01*
X043725Y004750D01*
X043725Y006600D01*
X043725Y006557D02*
X046475Y006557D01*
X046475Y006458D02*
X043725Y006458D01*
X043725Y006360D02*
X046475Y006360D01*
X046475Y006261D02*
X043725Y006261D01*
X043725Y006163D02*
X046475Y006163D01*
X046475Y006064D02*
X043725Y006064D01*
X043725Y005966D02*
X046475Y005966D01*
X046475Y005867D02*
X043725Y005867D01*
X043725Y005769D02*
X046475Y005769D01*
X046475Y005670D02*
X043725Y005670D01*
X043725Y005572D02*
X046475Y005572D01*
X046475Y005473D02*
X043725Y005473D01*
X043725Y005375D02*
X046475Y005375D01*
X046475Y005276D02*
X043725Y005276D01*
X043725Y005178D02*
X046475Y005178D01*
X046475Y005079D02*
X043725Y005079D01*
X043725Y004981D02*
X046475Y004981D01*
X046475Y004882D02*
X043725Y004882D01*
X043725Y004784D02*
X046475Y004784D01*
X045475Y004200D02*
X045475Y002750D01*
X044275Y002750D01*
X044275Y003750D01*
X043675Y003750D01*
X043675Y004200D01*
X045475Y004200D01*
X045475Y004193D02*
X043675Y004193D01*
X043675Y004094D02*
X045475Y004094D01*
X045475Y003996D02*
X043675Y003996D01*
X043675Y003897D02*
X045475Y003897D01*
X045475Y003799D02*
X043675Y003799D01*
X044275Y003700D02*
X045475Y003700D01*
X045475Y003601D02*
X044275Y003601D01*
X044275Y003503D02*
X045475Y003503D01*
X045475Y003404D02*
X044275Y003404D01*
X044275Y003306D02*
X045475Y003306D01*
X045475Y003207D02*
X044275Y003207D01*
X044275Y003109D02*
X045475Y003109D01*
X045475Y003010D02*
X044275Y003010D01*
X044275Y002912D02*
X045475Y002912D01*
X045475Y002813D02*
X044275Y002813D01*
X043825Y003040D02*
X043825Y003136D01*
X043825Y003110D01*
X043845Y003090D01*
X045268Y003136D02*
X045305Y003100D01*
X045325Y003120D01*
X045325Y003136D01*
X042575Y004750D02*
X039875Y004750D01*
X039875Y006600D01*
X042575Y006600D01*
X042575Y004750D01*
X042575Y004784D02*
X039875Y004784D01*
X039875Y004882D02*
X042575Y004882D01*
X042575Y004981D02*
X039875Y004981D01*
X039875Y005079D02*
X042575Y005079D01*
X042575Y005178D02*
X039875Y005178D01*
X039875Y005276D02*
X042575Y005276D01*
X042575Y005375D02*
X039875Y005375D01*
X039875Y005473D02*
X042575Y005473D01*
X042575Y005572D02*
X039875Y005572D01*
X039875Y005670D02*
X042575Y005670D01*
X042575Y005769D02*
X039875Y005769D01*
X039875Y005867D02*
X042575Y005867D01*
X042575Y005966D02*
X039875Y005966D01*
X039875Y006064D02*
X042575Y006064D01*
X042575Y006163D02*
X039875Y006163D01*
X039875Y006261D02*
X042575Y006261D01*
X042575Y006360D02*
X039875Y006360D01*
X039875Y006458D02*
X042575Y006458D01*
X042575Y006557D02*
X039875Y006557D01*
X039875Y007200D02*
X041575Y007200D01*
X041575Y007600D01*
X041125Y007600D01*
X041125Y008700D01*
X039875Y008700D01*
X039875Y007200D01*
X039875Y007246D02*
X041575Y007246D01*
X041575Y007345D02*
X039875Y007345D01*
X039875Y007443D02*
X041575Y007443D01*
X041575Y007542D02*
X039875Y007542D01*
X039875Y007640D02*
X041125Y007640D01*
X041125Y007739D02*
X039875Y007739D01*
X039875Y007837D02*
X041125Y007837D01*
X041125Y007936D02*
X039875Y007936D01*
X039875Y008034D02*
X041125Y008034D01*
X041125Y008133D02*
X039875Y008133D01*
X039875Y008231D02*
X041125Y008231D01*
X041125Y008330D02*
X039875Y008330D01*
X039875Y008428D02*
X041125Y008428D01*
X041125Y008527D02*
X039875Y008527D01*
X039875Y008625D02*
X041125Y008625D01*
X038875Y006600D02*
X038875Y004750D01*
X036125Y004750D01*
X036125Y006600D01*
X038875Y006600D01*
X038875Y006557D02*
X036125Y006557D01*
X036125Y006458D02*
X038875Y006458D01*
X038875Y006360D02*
X036125Y006360D01*
X036125Y006261D02*
X038875Y006261D01*
X038875Y006163D02*
X036125Y006163D01*
X036125Y006064D02*
X038875Y006064D01*
X038875Y005966D02*
X036125Y005966D01*
X036125Y005867D02*
X038875Y005867D01*
X038875Y005769D02*
X036125Y005769D01*
X036125Y005670D02*
X038875Y005670D01*
X038875Y005572D02*
X036125Y005572D01*
X036125Y005473D02*
X038875Y005473D01*
X038875Y005375D02*
X036125Y005375D01*
X036125Y005276D02*
X038875Y005276D01*
X038875Y005178D02*
X036125Y005178D01*
X036125Y005079D02*
X038875Y005079D01*
X038875Y004981D02*
X036125Y004981D01*
X036125Y004882D02*
X038875Y004882D01*
X038875Y004784D02*
X036125Y004784D01*
X036025Y004200D02*
X037825Y004200D01*
X037825Y002750D01*
X036675Y002750D01*
X036675Y003700D01*
X036025Y003700D01*
X037825Y003700D01*
X037825Y003799D02*
X036025Y003799D01*
X036025Y003897D02*
X037825Y003897D01*
X037825Y003996D02*
X036025Y003996D01*
X036025Y004094D02*
X037825Y004094D01*
X037825Y004193D02*
X036025Y004193D01*
X036025Y004200D02*
X036025Y003700D01*
X036675Y003601D02*
X037825Y003601D01*
X037825Y003503D02*
X036675Y003503D01*
X036675Y003404D02*
X037825Y003404D01*
X037825Y003306D02*
X036675Y003306D01*
X036675Y003207D02*
X037825Y003207D01*
X037825Y003109D02*
X036675Y003109D01*
X036675Y003010D02*
X037825Y003010D01*
X037825Y002912D02*
X036675Y002912D01*
X036675Y002813D02*
X037825Y002813D01*
X039825Y003700D02*
X041625Y003700D01*
X041625Y003799D02*
X039825Y003799D01*
X039825Y003897D02*
X041625Y003897D01*
X041625Y003996D02*
X039825Y003996D01*
X039825Y004094D02*
X041625Y004094D01*
X041625Y004150D02*
X041625Y002750D01*
X040425Y002750D01*
X040425Y003700D01*
X039825Y003700D01*
X039825Y004150D01*
X041625Y004150D01*
X041625Y003601D02*
X040425Y003601D01*
X040425Y003503D02*
X041625Y003503D01*
X041625Y003404D02*
X040425Y003404D01*
X040425Y003306D02*
X041625Y003306D01*
X041625Y003207D02*
X040425Y003207D01*
X040425Y003109D02*
X041625Y003109D01*
X041625Y003010D02*
X040425Y003010D01*
X040425Y002912D02*
X041625Y002912D01*
X041625Y002813D02*
X040425Y002813D01*
X037825Y007200D02*
X036125Y007200D01*
X036125Y008700D01*
X037375Y008700D01*
X037375Y007600D01*
X037825Y007600D01*
X037825Y007200D01*
X037825Y007246D02*
X036125Y007246D01*
X036125Y007345D02*
X037825Y007345D01*
X037825Y007443D02*
X036125Y007443D01*
X036125Y007542D02*
X037825Y007542D01*
X037375Y007640D02*
X036125Y007640D01*
X036125Y007739D02*
X037375Y007739D01*
X037375Y007837D02*
X036125Y007837D01*
X036125Y007936D02*
X037375Y007936D01*
X037375Y008034D02*
X036125Y008034D01*
X036125Y008133D02*
X037375Y008133D01*
X037375Y008231D02*
X036125Y008231D01*
X036125Y008330D02*
X037375Y008330D01*
X037375Y008428D02*
X036125Y008428D01*
X036125Y008527D02*
X037375Y008527D01*
X037375Y008625D02*
X036125Y008625D01*
X036719Y012710D02*
X036719Y013195D01*
X036725Y013200D01*
X036725Y013250D01*
X037725Y013250D02*
X037730Y013245D01*
X037730Y012700D01*
X040459Y012700D02*
X040459Y013215D01*
X040425Y013250D01*
X041475Y013250D02*
X041500Y013225D01*
X041500Y012700D01*
X044299Y012710D02*
X044299Y012725D01*
X044325Y012750D01*
X044309Y012765D01*
X044309Y013343D01*
X044309Y013657D02*
X045067Y013657D01*
X045325Y013400D01*
X045325Y012750D01*
X045340Y012735D01*
X045340Y012710D01*
X047040Y014893D02*
X026882Y014893D01*
X026475Y015300D01*
X026875Y015750D02*
X027417Y015207D01*
X047040Y015207D01*
X047709Y015207D02*
X047709Y015785D01*
X048775Y016850D01*
X048775Y016862D01*
X048775Y015300D02*
X048367Y014893D01*
X047709Y014893D01*
X048775Y015287D02*
X048775Y015300D01*
X046725Y018200D02*
X045775Y018200D01*
X043675Y016100D01*
X041725Y016100D01*
X041275Y016550D01*
X036075Y016550D01*
X036325Y016250D02*
X036125Y016050D01*
X032325Y016050D01*
X031375Y017150D02*
X031325Y017200D01*
X031375Y017150D02*
X036525Y017150D01*
X035925Y017500D02*
X030975Y017500D01*
X030375Y018100D01*
X029375Y019000D02*
X025775Y019000D01*
X025625Y018150D02*
X028525Y018150D01*
X028825Y018450D01*
X033275Y018450D01*
X033575Y018150D01*
X032975Y020600D02*
X031625Y020600D01*
X031325Y020300D01*
X029675Y020300D01*
X030575Y021050D02*
X031425Y021900D01*
X031425Y024100D01*
X031725Y024400D01*
X035475Y024400D01*
X035175Y023700D02*
X031725Y023700D01*
X032225Y024050D02*
X037125Y024050D01*
X037675Y024600D01*
X037675Y025400D01*
X037775Y026000D02*
X038275Y025500D01*
X038375Y025100D02*
X039475Y026200D01*
X044275Y026200D01*
X047275Y029200D01*
X047275Y034000D01*
X047475Y034200D01*
X047775Y034200D01*
X048175Y034600D01*
X048175Y035200D01*
X047875Y035500D01*
X047875Y039400D01*
X044475Y042800D01*
X035725Y042800D01*
X035275Y042350D01*
X035775Y041850D02*
X035275Y041350D01*
X035775Y041850D02*
X044625Y041850D01*
X047475Y039000D01*
X047475Y035400D01*
X046675Y034600D01*
X046675Y029400D01*
X044775Y027500D01*
X038675Y027500D01*
X037575Y026400D01*
X037775Y026000D02*
X029825Y026000D01*
X029815Y025990D01*
X029815Y024645D01*
X029375Y024500D02*
X029375Y024100D01*
X029499Y023975D01*
X029815Y023975D01*
X029815Y023960D01*
X029825Y023950D01*
X029825Y023200D01*
X029409Y022785D01*
X028975Y022785D01*
X028975Y022115D02*
X028290Y022115D01*
X028275Y022100D01*
X028265Y022110D01*
X028265Y023296D01*
X027765Y023296D02*
X027765Y021760D01*
X027775Y021750D01*
X030675Y021750D01*
X031025Y022100D01*
X031025Y024650D01*
X031225Y024850D01*
X036425Y024850D01*
X036775Y025200D01*
X036775Y025450D01*
X036575Y025650D01*
X036325Y025300D02*
X030575Y025300D01*
X030275Y025000D01*
X030275Y022450D01*
X029940Y022115D01*
X028975Y022115D01*
X028775Y021400D02*
X027475Y021400D01*
X025375Y023500D01*
X025375Y025050D01*
X025668Y025344D01*
X026765Y025344D01*
X027265Y025344D02*
X027265Y024740D01*
X027025Y024500D01*
X026175Y024500D01*
X025775Y024100D01*
X026765Y024090D02*
X026765Y023296D01*
X027265Y023296D02*
X027265Y022390D01*
X027225Y022350D01*
X027725Y021750D02*
X027775Y021750D01*
X027775Y021050D02*
X030575Y021050D01*
X028975Y023400D02*
X028965Y023410D01*
X028965Y023975D01*
X029375Y024500D02*
X029225Y024650D01*
X028970Y024650D01*
X028965Y024645D01*
X028965Y025160D01*
X028781Y025344D01*
X028265Y025344D01*
X028325Y025350D01*
X027765Y025344D01*
X027765Y025260D01*
X027775Y025250D01*
X027775Y024550D01*
X027275Y024050D01*
X027265Y024040D01*
X027265Y023296D01*
X026765Y024090D02*
X026775Y024100D01*
X027275Y025300D02*
X027275Y025850D01*
X027425Y026000D01*
X029825Y026000D01*
X030825Y027250D02*
X031325Y027750D01*
X030875Y027750D02*
X030625Y027500D01*
X023625Y027500D01*
X021875Y025750D01*
X018175Y025750D01*
X018175Y028550D01*
X019425Y029800D01*
X019425Y032450D01*
X018947Y032928D01*
X018947Y039565D01*
X018632Y039565D02*
X018632Y029357D01*
X017525Y028250D01*
X017525Y027300D01*
X016175Y025950D01*
X016775Y025350D01*
X021925Y025350D01*
X023825Y027250D01*
X030825Y027250D01*
X031125Y027050D02*
X031825Y027750D01*
X032175Y028050D02*
X032475Y027750D01*
X032475Y026900D01*
X032875Y026500D01*
X034225Y026500D01*
X032175Y028050D02*
X030525Y028050D01*
X030225Y027750D01*
X019925Y027750D01*
X018775Y026600D01*
X018425Y026250D02*
X018575Y026100D01*
X018425Y026250D02*
X018425Y028400D01*
X020825Y030800D01*
X020825Y030850D01*
X023017Y033043D01*
X023017Y039565D01*
X023332Y039565D02*
X023332Y032907D01*
X018925Y028500D01*
X018925Y027450D01*
X019275Y027850D02*
X019275Y028450D01*
X023647Y032822D01*
X023647Y039565D01*
X023647Y040235D02*
X023647Y041072D01*
X024175Y041600D01*
X024138Y041600D01*
X023375Y041600D02*
X023332Y041557D01*
X023332Y040235D01*
X023017Y040235D02*
X023017Y041107D01*
X022525Y041600D01*
X022563Y041600D01*
X023350Y041600D02*
X023375Y041600D01*
X024775Y039450D02*
X025925Y039450D01*
X025925Y038450D01*
X026575Y038450D01*
X026575Y038050D01*
X024775Y038050D01*
X024775Y039450D01*
X024775Y039357D02*
X025925Y039357D01*
X025925Y039259D02*
X024775Y039259D01*
X024775Y039160D02*
X025925Y039160D01*
X025925Y039062D02*
X024775Y039062D01*
X024775Y038963D02*
X025925Y038963D01*
X025925Y038865D02*
X024775Y038865D01*
X024775Y038766D02*
X025925Y038766D01*
X025925Y038668D02*
X024775Y038668D01*
X024775Y038569D02*
X025925Y038569D01*
X025925Y038471D02*
X024775Y038471D01*
X024775Y038372D02*
X026575Y038372D01*
X026575Y038274D02*
X024775Y038274D01*
X024775Y038175D02*
X026575Y038175D01*
X026575Y038077D02*
X024775Y038077D01*
X024725Y037400D02*
X027475Y037400D01*
X027475Y035550D01*
X024725Y035550D01*
X024725Y037400D01*
X024725Y037387D02*
X027475Y037387D01*
X027475Y037289D02*
X024725Y037289D01*
X024725Y037190D02*
X027475Y037190D01*
X027475Y037092D02*
X024725Y037092D01*
X024725Y036993D02*
X027475Y036993D01*
X027475Y036895D02*
X024725Y036895D01*
X024725Y036796D02*
X027475Y036796D01*
X027475Y036698D02*
X024725Y036698D01*
X024725Y036599D02*
X027475Y036599D01*
X027475Y036501D02*
X024725Y036501D01*
X024725Y036402D02*
X027475Y036402D01*
X027475Y036304D02*
X024725Y036304D01*
X024725Y036205D02*
X027475Y036205D01*
X027475Y036107D02*
X024725Y036107D01*
X024725Y036008D02*
X027475Y036008D01*
X027475Y035910D02*
X024725Y035910D01*
X024725Y035811D02*
X027475Y035811D01*
X027475Y035713D02*
X024725Y035713D01*
X024725Y035614D02*
X027475Y035614D01*
X028475Y035614D02*
X031225Y035614D01*
X031225Y035550D02*
X028475Y035550D01*
X028475Y037400D01*
X031225Y037400D01*
X031225Y035550D01*
X031225Y035713D02*
X028475Y035713D01*
X028475Y035811D02*
X031225Y035811D01*
X031225Y035910D02*
X028475Y035910D01*
X028475Y036008D02*
X031225Y036008D01*
X031225Y036107D02*
X028475Y036107D01*
X028475Y036205D02*
X031225Y036205D01*
X031225Y036304D02*
X028475Y036304D01*
X028475Y036402D02*
X031225Y036402D01*
X031225Y036501D02*
X028475Y036501D01*
X028475Y036599D02*
X031225Y036599D01*
X031225Y036698D02*
X028475Y036698D01*
X028475Y036796D02*
X031225Y036796D01*
X031225Y036895D02*
X028475Y036895D01*
X028475Y036993D02*
X031225Y036993D01*
X031225Y037092D02*
X028475Y037092D01*
X028475Y037190D02*
X031225Y037190D01*
X031225Y037289D02*
X028475Y037289D01*
X028475Y037387D02*
X031225Y037387D01*
X032225Y037387D02*
X034975Y037387D01*
X034975Y037400D02*
X032225Y037400D01*
X032225Y035550D01*
X034975Y035550D01*
X034975Y037400D01*
X034975Y037289D02*
X032225Y037289D01*
X032225Y037190D02*
X034975Y037190D01*
X034975Y037092D02*
X032225Y037092D01*
X032225Y036993D02*
X034975Y036993D01*
X034975Y036895D02*
X032225Y036895D01*
X032225Y036796D02*
X034975Y036796D01*
X034975Y036698D02*
X032225Y036698D01*
X032225Y036599D02*
X034975Y036599D01*
X034975Y036501D02*
X032225Y036501D01*
X032225Y036402D02*
X034975Y036402D01*
X034975Y036304D02*
X032225Y036304D01*
X032225Y036205D02*
X034975Y036205D01*
X034975Y036107D02*
X032225Y036107D01*
X032225Y036008D02*
X034975Y036008D01*
X034975Y035910D02*
X032225Y035910D01*
X032225Y035811D02*
X034975Y035811D01*
X034975Y035713D02*
X032225Y035713D01*
X032225Y035614D02*
X034975Y035614D01*
X036075Y035614D02*
X038775Y035614D01*
X038775Y035550D02*
X036075Y035550D01*
X036075Y037400D01*
X038775Y037400D01*
X038775Y035550D01*
X038775Y035713D02*
X036075Y035713D01*
X036075Y035811D02*
X038775Y035811D01*
X038775Y035910D02*
X036075Y035910D01*
X036075Y036008D02*
X038775Y036008D01*
X038775Y036107D02*
X036075Y036107D01*
X036075Y036205D02*
X038775Y036205D01*
X038775Y036304D02*
X036075Y036304D01*
X036075Y036402D02*
X038775Y036402D01*
X038775Y036501D02*
X036075Y036501D01*
X036075Y036599D02*
X038775Y036599D01*
X038775Y036698D02*
X036075Y036698D01*
X036075Y036796D02*
X038775Y036796D01*
X038775Y036895D02*
X036075Y036895D01*
X036075Y036993D02*
X038775Y036993D01*
X038775Y037092D02*
X036075Y037092D01*
X036075Y037190D02*
X038775Y037190D01*
X038775Y037289D02*
X036075Y037289D01*
X036075Y037387D02*
X038775Y037387D01*
X037925Y038000D02*
X037925Y038400D01*
X037275Y038400D01*
X037275Y039400D01*
X036125Y039400D01*
X036125Y038000D01*
X037925Y038000D01*
X037925Y038077D02*
X036125Y038077D01*
X036125Y038175D02*
X037925Y038175D01*
X037925Y038274D02*
X036125Y038274D01*
X036125Y038372D02*
X037925Y038372D01*
X037275Y038471D02*
X036125Y038471D01*
X036125Y038569D02*
X037275Y038569D01*
X037275Y038668D02*
X036125Y038668D01*
X036125Y038766D02*
X037275Y038766D01*
X037275Y038865D02*
X036125Y038865D01*
X036125Y038963D02*
X037275Y038963D01*
X037275Y039062D02*
X036125Y039062D01*
X036125Y039160D02*
X037275Y039160D01*
X037275Y039259D02*
X036125Y039259D01*
X036125Y039357D02*
X037275Y039357D01*
X037275Y041350D02*
X044725Y041350D01*
X047275Y038800D01*
X047275Y035500D01*
X046375Y034600D01*
X046375Y029500D01*
X044675Y027800D01*
X038375Y027800D01*
X036975Y026400D01*
X038075Y026400D02*
X044075Y026400D01*
X046975Y029300D01*
X046975Y034300D01*
X047175Y034500D01*
X047675Y034500D01*
X047875Y034700D01*
X047875Y035100D01*
X047675Y035300D01*
X047675Y039200D01*
X044525Y042350D01*
X037275Y042350D01*
X039875Y039400D02*
X041025Y039400D01*
X041025Y038400D01*
X041725Y038400D01*
X041725Y038000D01*
X039875Y038000D01*
X039875Y039400D01*
X039875Y039357D02*
X041025Y039357D01*
X041025Y039259D02*
X039875Y039259D01*
X039875Y039160D02*
X041025Y039160D01*
X041025Y039062D02*
X039875Y039062D01*
X039875Y038963D02*
X041025Y038963D01*
X041025Y038865D02*
X039875Y038865D01*
X039875Y038766D02*
X041025Y038766D01*
X041025Y038668D02*
X039875Y038668D01*
X039875Y038569D02*
X041025Y038569D01*
X041025Y038471D02*
X039875Y038471D01*
X039875Y038372D02*
X041725Y038372D01*
X041725Y038274D02*
X039875Y038274D01*
X039875Y038175D02*
X041725Y038175D01*
X041725Y038077D02*
X039875Y038077D01*
X039875Y037400D02*
X042575Y037400D01*
X042575Y035550D01*
X039875Y035550D01*
X039875Y037400D01*
X039875Y037387D02*
X042575Y037387D01*
X042575Y037289D02*
X039875Y037289D01*
X039875Y037190D02*
X042575Y037190D01*
X042575Y037092D02*
X039875Y037092D01*
X039875Y036993D02*
X042575Y036993D01*
X042575Y036895D02*
X039875Y036895D01*
X039875Y036796D02*
X042575Y036796D01*
X042575Y036698D02*
X039875Y036698D01*
X039875Y036599D02*
X042575Y036599D01*
X042575Y036501D02*
X039875Y036501D01*
X039875Y036402D02*
X042575Y036402D01*
X042575Y036304D02*
X039875Y036304D01*
X039875Y036205D02*
X042575Y036205D01*
X042575Y036107D02*
X039875Y036107D01*
X039875Y036008D02*
X042575Y036008D01*
X042575Y035910D02*
X039875Y035910D01*
X039875Y035811D02*
X042575Y035811D01*
X042575Y035713D02*
X039875Y035713D01*
X039875Y035614D02*
X042575Y035614D01*
X043625Y035614D02*
X046375Y035614D01*
X046375Y035550D02*
X043625Y035550D01*
X043625Y037400D01*
X045775Y037400D01*
X045775Y037800D01*
X046375Y037800D01*
X046375Y035550D01*
X046375Y035713D02*
X043625Y035713D01*
X043625Y035811D02*
X046375Y035811D01*
X046375Y035910D02*
X043625Y035910D01*
X043625Y036008D02*
X046375Y036008D01*
X046375Y036107D02*
X043625Y036107D01*
X043625Y036205D02*
X046375Y036205D01*
X046375Y036304D02*
X043625Y036304D01*
X043625Y036402D02*
X046375Y036402D01*
X046375Y036501D02*
X043625Y036501D01*
X043625Y036599D02*
X046375Y036599D01*
X046375Y036698D02*
X043625Y036698D01*
X043625Y036796D02*
X046375Y036796D01*
X046375Y036895D02*
X043625Y036895D01*
X043625Y036993D02*
X046375Y036993D01*
X046375Y037092D02*
X043625Y037092D01*
X043625Y037190D02*
X046375Y037190D01*
X046375Y037289D02*
X043625Y037289D01*
X043625Y037387D02*
X046375Y037387D01*
X046375Y037486D02*
X045775Y037486D01*
X045775Y037584D02*
X046375Y037584D01*
X046375Y037683D02*
X045775Y037683D01*
X045775Y037781D02*
X046375Y037781D01*
X045425Y038000D02*
X043625Y038000D01*
X043625Y039400D01*
X044775Y039400D01*
X044775Y038400D01*
X045425Y038400D01*
X045425Y038000D01*
X045425Y038077D02*
X043625Y038077D01*
X043625Y038175D02*
X045425Y038175D01*
X045425Y038274D02*
X043625Y038274D01*
X043625Y038372D02*
X045425Y038372D01*
X044775Y038471D02*
X043625Y038471D01*
X043625Y038569D02*
X044775Y038569D01*
X044775Y038668D02*
X043625Y038668D01*
X043625Y038766D02*
X044775Y038766D01*
X044775Y038865D02*
X043625Y038865D01*
X043625Y038963D02*
X044775Y038963D01*
X044775Y039062D02*
X043625Y039062D01*
X043625Y039160D02*
X044775Y039160D01*
X044775Y039259D02*
X043625Y039259D01*
X043625Y039357D02*
X044775Y039357D01*
X045325Y034950D02*
X043625Y034950D01*
X043625Y034550D01*
X044075Y034550D01*
X044075Y033450D01*
X045325Y033450D01*
X045325Y034950D01*
X045325Y034925D02*
X043625Y034925D01*
X043625Y034826D02*
X045325Y034826D01*
X045325Y034728D02*
X043625Y034728D01*
X043625Y034629D02*
X045325Y034629D01*
X045325Y034531D02*
X044075Y034531D01*
X044075Y034432D02*
X045325Y034432D01*
X045325Y034334D02*
X044075Y034334D01*
X044075Y034235D02*
X045325Y034235D01*
X045325Y034137D02*
X044075Y034137D01*
X044075Y034038D02*
X045325Y034038D01*
X045325Y033940D02*
X044075Y033940D01*
X044075Y033841D02*
X045325Y033841D01*
X045325Y033743D02*
X044075Y033743D01*
X044075Y033644D02*
X045325Y033644D01*
X045325Y033546D02*
X044075Y033546D01*
X044678Y033876D02*
X044725Y033876D01*
X041625Y033841D02*
X040375Y033841D01*
X040375Y033743D02*
X041625Y033743D01*
X041625Y033644D02*
X040375Y033644D01*
X040375Y033546D02*
X041625Y033546D01*
X041625Y033450D02*
X040375Y033450D01*
X040375Y034550D01*
X039875Y034550D01*
X039875Y034950D01*
X041625Y034950D01*
X041625Y033450D01*
X041625Y033940D02*
X040375Y033940D01*
X040375Y034038D02*
X041625Y034038D01*
X041625Y034137D02*
X040375Y034137D01*
X040375Y034235D02*
X041625Y034235D01*
X041625Y034334D02*
X040375Y034334D01*
X040375Y034432D02*
X041625Y034432D01*
X041625Y034531D02*
X040375Y034531D01*
X039875Y034629D02*
X041625Y034629D01*
X041625Y034728D02*
X039875Y034728D01*
X039875Y034826D02*
X041625Y034826D01*
X041625Y034925D02*
X039875Y034925D01*
X039975Y033876D02*
X039975Y033570D01*
X040921Y033876D02*
X040925Y033880D01*
X040928Y033876D01*
X037825Y033841D02*
X036575Y033841D01*
X036575Y033743D02*
X037825Y033743D01*
X037825Y033644D02*
X036575Y033644D01*
X036575Y033546D02*
X037825Y033546D01*
X037825Y033450D02*
X036575Y033450D01*
X036575Y034550D01*
X036075Y034550D01*
X036075Y034950D01*
X037825Y034950D01*
X037825Y033450D01*
X037825Y033940D02*
X036575Y033940D01*
X036575Y034038D02*
X037825Y034038D01*
X037825Y034137D02*
X036575Y034137D01*
X036575Y034235D02*
X037825Y034235D01*
X037825Y034334D02*
X036575Y034334D01*
X036575Y034432D02*
X037825Y034432D01*
X037825Y034531D02*
X036575Y034531D01*
X036075Y034629D02*
X037825Y034629D01*
X037825Y034728D02*
X036075Y034728D01*
X036075Y034826D02*
X037825Y034826D01*
X037825Y034925D02*
X036075Y034925D01*
X033975Y034925D02*
X032225Y034925D01*
X032225Y034950D02*
X033975Y034950D01*
X033975Y033450D01*
X032775Y033450D01*
X032775Y034550D01*
X032225Y034550D01*
X032225Y034950D01*
X032225Y034826D02*
X033975Y034826D01*
X033975Y034728D02*
X032225Y034728D01*
X032225Y034629D02*
X033975Y034629D01*
X033975Y034531D02*
X032775Y034531D01*
X032775Y034432D02*
X033975Y034432D01*
X033975Y034334D02*
X032775Y034334D01*
X032775Y034235D02*
X033975Y034235D01*
X033975Y034137D02*
X032775Y034137D01*
X032775Y034038D02*
X033975Y034038D01*
X033975Y033940D02*
X032775Y033940D01*
X032775Y033841D02*
X033975Y033841D01*
X033975Y033743D02*
X032775Y033743D01*
X032775Y033644D02*
X033975Y033644D01*
X033975Y033546D02*
X032775Y033546D01*
X030225Y033546D02*
X029025Y033546D01*
X029025Y033450D02*
X029025Y034550D01*
X028475Y034550D01*
X028475Y034950D01*
X030225Y034950D01*
X030225Y033450D01*
X029025Y033450D01*
X029025Y033644D02*
X030225Y033644D01*
X030225Y033743D02*
X029025Y033743D01*
X029025Y033841D02*
X030225Y033841D01*
X030225Y033940D02*
X029025Y033940D01*
X029025Y034038D02*
X030225Y034038D01*
X030225Y034137D02*
X029025Y034137D01*
X029025Y034235D02*
X030225Y034235D01*
X030225Y034334D02*
X029025Y034334D01*
X029025Y034432D02*
X030225Y034432D01*
X030225Y034531D02*
X029025Y034531D01*
X028475Y034629D02*
X030225Y034629D01*
X030225Y034728D02*
X028475Y034728D01*
X028475Y034826D02*
X030225Y034826D01*
X030225Y034925D02*
X028475Y034925D01*
X026475Y034925D02*
X024725Y034925D01*
X024725Y034950D02*
X026475Y034950D01*
X026475Y033450D01*
X025275Y033450D01*
X025275Y034550D01*
X024725Y034550D01*
X024725Y034950D01*
X024725Y034826D02*
X026475Y034826D01*
X026475Y034728D02*
X024725Y034728D01*
X024725Y034629D02*
X026475Y034629D01*
X026475Y034531D02*
X025275Y034531D01*
X025275Y034432D02*
X026475Y034432D01*
X026475Y034334D02*
X025275Y034334D01*
X025275Y034235D02*
X026475Y034235D01*
X026475Y034137D02*
X025275Y034137D01*
X025275Y034038D02*
X026475Y034038D01*
X026475Y033940D02*
X025275Y033940D01*
X025275Y033841D02*
X026475Y033841D01*
X026475Y033743D02*
X025275Y033743D01*
X025275Y033644D02*
X026475Y033644D01*
X026475Y033546D02*
X025275Y033546D01*
X029125Y030380D02*
X029125Y030376D01*
X029225Y029250D02*
X029575Y029250D01*
X029625Y029300D01*
X029225Y029250D02*
X029025Y029050D01*
X029025Y028500D01*
X028817Y028293D01*
X028459Y028293D01*
X028459Y028607D02*
X028625Y028773D01*
X028625Y029275D01*
X028629Y029270D01*
X028625Y029275D02*
X028625Y029300D01*
X029375Y028650D02*
X030032Y028657D01*
X031590Y028657D01*
X031590Y028343D02*
X030167Y028343D01*
X030025Y028200D01*
X031125Y027050D02*
X024075Y027050D01*
X022075Y025050D01*
X016775Y025050D01*
X016075Y025750D01*
X015375Y025750D01*
X015175Y025550D01*
X015175Y024250D01*
X015725Y023700D01*
X015225Y023500D02*
X014975Y023750D01*
X014975Y025650D01*
X015275Y025950D01*
X016175Y025950D01*
X016025Y026150D02*
X015075Y026150D01*
X014775Y025850D01*
X014775Y017300D01*
X015575Y016500D01*
X016225Y015900D02*
X020347Y015900D01*
X020350Y016550D02*
X019449Y016550D01*
X019490Y016647D01*
X019490Y016753D01*
X019465Y016813D01*
X019465Y017063D01*
X019551Y017063D01*
X019616Y017128D01*
X019616Y017612D01*
X019551Y017677D01*
X019027Y017677D01*
X018963Y017612D01*
X018963Y017128D01*
X019027Y017063D01*
X019085Y017063D01*
X019085Y016929D01*
X019074Y016925D01*
X019000Y016850D01*
X018960Y016753D01*
X018960Y016647D01*
X019000Y016550D01*
X017075Y016550D01*
X017075Y017875D01*
X017172Y017835D01*
X017277Y017835D01*
X017338Y017860D01*
X017758Y017860D01*
X017758Y017823D01*
X017822Y017759D01*
X018307Y017759D01*
X018371Y017823D01*
X018371Y018347D01*
X018307Y018412D01*
X017822Y018412D01*
X017758Y018347D01*
X017758Y018240D01*
X017453Y018240D01*
X017449Y018250D01*
X017375Y018325D01*
X017277Y018365D01*
X017172Y018365D01*
X017075Y018325D01*
X017075Y018525D01*
X017172Y018485D01*
X017277Y018485D01*
X017375Y018525D01*
X017409Y018560D01*
X017758Y018560D01*
X017758Y018493D01*
X017822Y018428D01*
X018307Y018428D01*
X018371Y018493D01*
X018371Y019017D01*
X018307Y019081D01*
X017822Y019081D01*
X017758Y019017D01*
X017758Y018940D01*
X017409Y018940D01*
X017375Y018975D01*
X017277Y019015D01*
X017172Y019015D01*
X017075Y018975D01*
X017075Y019725D01*
X017172Y019685D01*
X017277Y019685D01*
X017375Y019725D01*
X017409Y019760D01*
X017653Y019760D01*
X017832Y019939D01*
X018117Y019939D01*
X018181Y020003D01*
X018181Y020527D01*
X018117Y020592D01*
X017632Y020592D01*
X017568Y020527D01*
X017568Y020212D01*
X017496Y020140D01*
X017409Y020140D01*
X017375Y020175D01*
X017277Y020215D01*
X017172Y020215D01*
X017075Y020175D01*
X017075Y020925D01*
X017172Y020885D01*
X017277Y020885D01*
X017375Y020925D01*
X017409Y020960D01*
X017568Y020960D01*
X017568Y020673D01*
X017632Y020608D01*
X018117Y020608D01*
X018181Y020673D01*
X018181Y021197D01*
X018117Y021261D01*
X017832Y021261D01*
X017753Y021340D01*
X017409Y021340D01*
X017375Y021375D01*
X017277Y021415D01*
X017172Y021415D01*
X017075Y021375D01*
X017075Y021525D01*
X017172Y021485D01*
X017277Y021485D01*
X017375Y021525D01*
X017449Y021600D01*
X017490Y021697D01*
X017490Y021803D01*
X017449Y021900D01*
X017375Y021975D01*
X017277Y022015D01*
X017172Y022015D01*
X017075Y021975D01*
X017075Y023600D01*
X018150Y023600D01*
X018110Y023503D01*
X018110Y023397D01*
X018150Y023300D01*
X018185Y023265D01*
X018185Y023024D01*
X018173Y023012D01*
X018173Y022528D01*
X018238Y022463D01*
X018762Y022463D01*
X018826Y022528D01*
X018826Y023012D01*
X018762Y023077D01*
X018565Y023077D01*
X018565Y023265D01*
X018599Y023300D01*
X018640Y023397D01*
X018640Y023503D01*
X018599Y023600D01*
X019000Y023600D01*
X018960Y023503D01*
X018960Y023397D01*
X019000Y023300D01*
X019035Y023265D01*
X019035Y023077D01*
X018907Y023077D01*
X018843Y023012D01*
X018843Y022528D01*
X018907Y022463D01*
X019431Y022463D01*
X019496Y022528D01*
X019496Y023012D01*
X019431Y023077D01*
X019415Y023077D01*
X019415Y023265D01*
X019449Y023300D01*
X019490Y023397D01*
X019490Y023503D01*
X019449Y023600D01*
X020500Y023600D01*
X020460Y023503D01*
X020460Y023397D01*
X020500Y023300D01*
X020574Y023225D01*
X020672Y023185D01*
X020721Y023185D01*
X020746Y023160D01*
X020933Y023160D01*
X020933Y023108D01*
X020998Y023043D01*
X021522Y023043D01*
X021586Y023108D01*
X021586Y023592D01*
X021579Y023600D01*
X023800Y023600D01*
X023760Y023503D01*
X023760Y023397D01*
X023800Y023300D01*
X023874Y023225D01*
X023972Y023185D01*
X024077Y023185D01*
X024175Y023225D01*
X024175Y022930D01*
X024162Y022930D01*
X024077Y022965D01*
X023972Y022965D01*
X023874Y022925D01*
X023830Y022880D01*
X023626Y022880D01*
X023626Y022932D01*
X023561Y022997D01*
X023037Y022997D01*
X022973Y022932D01*
X022973Y022448D01*
X023037Y022383D01*
X023561Y022383D01*
X023626Y022448D01*
X023626Y022500D01*
X023850Y022500D01*
X023874Y022475D01*
X023972Y022435D01*
X024077Y022435D01*
X024162Y022470D01*
X024175Y022470D01*
X024175Y022325D01*
X024077Y022365D01*
X023972Y022365D01*
X023874Y022325D01*
X023840Y022290D01*
X023548Y022290D01*
X023537Y022301D01*
X023052Y022301D01*
X022988Y022237D01*
X022988Y021713D01*
X023052Y021648D01*
X023537Y021648D01*
X023601Y021713D01*
X023601Y021910D01*
X023840Y021910D01*
X023874Y021875D01*
X023972Y021835D01*
X024077Y021835D01*
X024175Y021875D01*
X024175Y021375D01*
X024077Y021415D01*
X023972Y021415D01*
X023874Y021375D01*
X023840Y021340D01*
X023601Y021340D01*
X023601Y021567D01*
X023537Y021632D01*
X023052Y021632D01*
X022988Y021567D01*
X022988Y021043D01*
X023052Y020979D01*
X023352Y020979D01*
X023371Y020960D01*
X023840Y020960D01*
X023874Y020925D01*
X023972Y020885D01*
X024077Y020885D01*
X024175Y020925D01*
X024175Y020375D01*
X024077Y020415D01*
X023972Y020415D01*
X023874Y020375D01*
X023800Y020300D01*
X023760Y020203D01*
X023760Y020097D01*
X023800Y020000D01*
X023874Y019925D01*
X023972Y019885D01*
X024077Y019885D01*
X024175Y019925D01*
X024175Y019675D01*
X024077Y019715D01*
X023972Y019715D01*
X023912Y019690D01*
X023706Y019690D01*
X023706Y019742D01*
X023641Y019807D01*
X023117Y019807D01*
X023053Y019742D01*
X023053Y019258D01*
X023117Y019193D01*
X023641Y019193D01*
X023706Y019258D01*
X023706Y019310D01*
X023796Y019310D01*
X023800Y019300D01*
X023874Y019225D01*
X023972Y019185D01*
X024077Y019185D01*
X024175Y019225D01*
X024175Y018675D01*
X024077Y018715D01*
X024028Y018715D01*
X023869Y018875D01*
X023601Y018875D01*
X023601Y018947D01*
X023537Y019011D01*
X023052Y019011D01*
X022988Y018947D01*
X022988Y018423D01*
X023052Y018358D01*
X023537Y018358D01*
X023601Y018423D01*
X023601Y018495D01*
X023711Y018495D01*
X023760Y018446D01*
X023760Y018397D01*
X023800Y018300D01*
X023874Y018225D01*
X023972Y018185D01*
X024077Y018185D01*
X024175Y018225D01*
X024175Y016925D01*
X024077Y016965D01*
X023972Y016965D01*
X023874Y016925D01*
X023800Y016850D01*
X023760Y016753D01*
X023760Y016647D01*
X023800Y016550D01*
X023149Y016550D01*
X023190Y016647D01*
X023190Y016753D01*
X023149Y016850D01*
X023119Y016880D01*
X023119Y017053D01*
X023191Y017053D01*
X023256Y017118D01*
X023256Y017602D01*
X023191Y017667D01*
X022667Y017667D01*
X022603Y017602D01*
X022603Y017118D01*
X022667Y017053D01*
X022739Y017053D01*
X022739Y016889D01*
X022700Y016850D01*
X022660Y016753D01*
X022660Y016647D01*
X022700Y016550D01*
X022399Y016550D01*
X022439Y016646D01*
X022450Y016657D01*
X022450Y016698D01*
X022466Y016735D01*
X022450Y016773D01*
X022450Y017053D01*
X022522Y017053D01*
X022586Y017118D01*
X022586Y017602D01*
X022522Y017667D01*
X021998Y017667D01*
X021933Y017602D01*
X021933Y017118D01*
X021998Y017053D01*
X022070Y017053D01*
X022070Y016943D01*
X022024Y016925D01*
X021950Y016850D01*
X021910Y016753D01*
X021910Y016647D01*
X021950Y016550D01*
X021349Y016550D01*
X021399Y016600D01*
X021440Y016697D01*
X021440Y016803D01*
X021399Y016900D01*
X021379Y016920D01*
X021379Y017043D01*
X021451Y017043D01*
X021516Y017108D01*
X021516Y017592D01*
X021451Y017657D01*
X020927Y017657D01*
X020863Y017592D01*
X020863Y017108D01*
X020927Y017043D01*
X020999Y017043D01*
X020999Y016949D01*
X020950Y016900D01*
X020910Y016803D01*
X020910Y016697D01*
X020950Y016600D01*
X021000Y016550D01*
X020699Y016550D01*
X020749Y016600D01*
X020790Y016697D01*
X020790Y016803D01*
X020749Y016900D01*
X020675Y016975D01*
X020577Y017015D01*
X020472Y017015D01*
X020374Y016975D01*
X020300Y016900D01*
X020260Y016803D01*
X020260Y016697D01*
X020300Y016600D01*
X020350Y016550D01*
X020298Y016604D02*
X019471Y016604D01*
X019490Y016702D02*
X020260Y016702D01*
X020260Y016801D02*
X019470Y016801D01*
X019465Y016899D02*
X020300Y016899D01*
X020258Y017043D02*
X020782Y017043D01*
X020846Y017108D01*
X020846Y017592D01*
X020782Y017657D01*
X020258Y017657D01*
X020193Y017592D01*
X020193Y017540D01*
X020109Y017540D01*
X020075Y017575D01*
X019977Y017615D01*
X019872Y017615D01*
X019774Y017575D01*
X019700Y017500D01*
X019660Y017403D01*
X019660Y017297D01*
X019700Y017200D01*
X019774Y017125D01*
X019872Y017085D01*
X019977Y017085D01*
X020075Y017125D01*
X020109Y017160D01*
X020193Y017160D01*
X020193Y017108D01*
X020258Y017043D01*
X020205Y017096D02*
X020004Y017096D01*
X019845Y017096D02*
X019584Y017096D01*
X019616Y017195D02*
X019705Y017195D01*
X019661Y017293D02*
X019616Y017293D01*
X019616Y017392D02*
X019660Y017392D01*
X019696Y017490D02*
X019616Y017490D01*
X019616Y017589D02*
X019808Y017589D01*
X020041Y017589D02*
X020193Y017589D01*
X020846Y017589D02*
X020863Y017589D01*
X020863Y017490D02*
X020846Y017490D01*
X020846Y017392D02*
X020863Y017392D01*
X020863Y017293D02*
X020846Y017293D01*
X020846Y017195D02*
X020863Y017195D01*
X020874Y017096D02*
X020835Y017096D01*
X020999Y016998D02*
X020619Y016998D01*
X020750Y016899D02*
X020950Y016899D01*
X020910Y016801D02*
X020790Y016801D01*
X020790Y016702D02*
X020910Y016702D01*
X020948Y016604D02*
X020751Y016604D01*
X021175Y016750D02*
X021175Y016300D01*
X021575Y015900D01*
X023103Y015900D01*
X023171Y016604D02*
X023778Y016604D01*
X023760Y016702D02*
X023190Y016702D01*
X023170Y016801D02*
X023779Y016801D01*
X023849Y016899D02*
X023119Y016899D01*
X023119Y016998D02*
X024175Y016998D01*
X024175Y017096D02*
X023234Y017096D01*
X023256Y017195D02*
X024175Y017195D01*
X024175Y017293D02*
X023256Y017293D01*
X023256Y017392D02*
X024175Y017392D01*
X024175Y017490D02*
X023256Y017490D01*
X023256Y017589D02*
X024175Y017589D01*
X024175Y017687D02*
X017075Y017687D01*
X017075Y017589D02*
X018963Y017589D01*
X018963Y017490D02*
X017075Y017490D01*
X017075Y017392D02*
X018963Y017392D01*
X018963Y017293D02*
X017075Y017293D01*
X017075Y017195D02*
X018963Y017195D01*
X018994Y017096D02*
X017075Y017096D01*
X017075Y016998D02*
X019085Y016998D01*
X019049Y016899D02*
X017075Y016899D01*
X017075Y016801D02*
X018979Y016801D01*
X018960Y016702D02*
X017075Y016702D01*
X017075Y016604D02*
X018978Y016604D01*
X019465Y016998D02*
X020430Y016998D01*
X021175Y016800D02*
X021175Y016750D01*
X021440Y016702D02*
X021910Y016702D01*
X021928Y016604D02*
X021401Y016604D01*
X021440Y016801D02*
X021929Y016801D01*
X021999Y016899D02*
X021400Y016899D01*
X021379Y016998D02*
X022070Y016998D01*
X021955Y017096D02*
X021504Y017096D01*
X021516Y017195D02*
X021933Y017195D01*
X021933Y017293D02*
X021516Y017293D01*
X021516Y017392D02*
X021933Y017392D01*
X021933Y017490D02*
X021516Y017490D01*
X021516Y017589D02*
X021933Y017589D01*
X022586Y017589D02*
X022603Y017589D01*
X022603Y017490D02*
X022586Y017490D01*
X022586Y017392D02*
X022603Y017392D01*
X022603Y017293D02*
X022586Y017293D01*
X022586Y017195D02*
X022603Y017195D01*
X022624Y017096D02*
X022565Y017096D01*
X022450Y016998D02*
X022739Y016998D01*
X022739Y016899D02*
X022450Y016899D01*
X022450Y016801D02*
X022679Y016801D01*
X022660Y016702D02*
X022452Y016702D01*
X022421Y016604D02*
X022678Y016604D01*
X024175Y017786D02*
X018334Y017786D01*
X018371Y017884D02*
X024175Y017884D01*
X024175Y017983D02*
X018371Y017983D01*
X018371Y018081D02*
X024175Y018081D01*
X024175Y018180D02*
X018371Y018180D01*
X018371Y018278D02*
X023822Y018278D01*
X023768Y018377D02*
X023555Y018377D01*
X023601Y018475D02*
X023731Y018475D01*
X023973Y018771D02*
X024175Y018771D01*
X024175Y018869D02*
X023874Y018869D01*
X023581Y018968D02*
X024175Y018968D01*
X024175Y019066D02*
X018322Y019066D01*
X018371Y018968D02*
X023009Y018968D01*
X022988Y018869D02*
X018371Y018869D01*
X018371Y018771D02*
X022988Y018771D01*
X022988Y018672D02*
X018371Y018672D01*
X018371Y018574D02*
X022988Y018574D01*
X022988Y018475D02*
X018354Y018475D01*
X018342Y018377D02*
X023034Y018377D01*
X022972Y019193D02*
X022448Y019193D01*
X022383Y019258D01*
X022383Y019742D01*
X022448Y019807D01*
X022520Y019807D01*
X022520Y019980D01*
X022500Y020000D01*
X022460Y020097D01*
X022460Y020203D01*
X022500Y020300D01*
X022574Y020375D01*
X022672Y020415D01*
X022777Y020415D01*
X022875Y020375D01*
X022949Y020300D01*
X022990Y020203D01*
X022990Y020097D01*
X022949Y020000D01*
X022900Y019951D01*
X022900Y019807D01*
X022972Y019807D01*
X023036Y019742D01*
X023036Y019258D01*
X022972Y019193D01*
X023036Y019263D02*
X023053Y019263D01*
X023053Y019362D02*
X023036Y019362D01*
X023036Y019460D02*
X023053Y019460D01*
X023053Y019559D02*
X023036Y019559D01*
X023036Y019657D02*
X023053Y019657D01*
X023066Y019756D02*
X023023Y019756D01*
X022900Y019854D02*
X024175Y019854D01*
X024175Y019756D02*
X023693Y019756D01*
X023847Y019953D02*
X022902Y019953D01*
X022970Y020051D02*
X023779Y020051D01*
X023760Y020150D02*
X022990Y020150D01*
X022971Y020248D02*
X023778Y020248D01*
X023846Y020347D02*
X022903Y020347D01*
X022546Y020347D02*
X018181Y020347D01*
X018181Y020445D02*
X024175Y020445D01*
X024175Y020544D02*
X018165Y020544D01*
X018151Y020642D02*
X024175Y020642D01*
X024175Y020741D02*
X018181Y020741D01*
X018181Y020839D02*
X024175Y020839D01*
X023862Y020938D02*
X018181Y020938D01*
X018181Y021036D02*
X022995Y021036D01*
X022988Y021135D02*
X018181Y021135D01*
X018145Y021233D02*
X022988Y021233D01*
X022988Y021332D02*
X017762Y021332D01*
X017461Y021627D02*
X023047Y021627D01*
X022988Y021529D02*
X017378Y021529D01*
X017490Y021726D02*
X018863Y021726D01*
X018863Y021708D02*
X018927Y021643D01*
X019451Y021643D01*
X019516Y021708D01*
X019516Y021760D01*
X019590Y021760D01*
X019624Y021725D01*
X019722Y021685D01*
X019827Y021685D01*
X019925Y021725D01*
X019999Y021800D01*
X020040Y021897D01*
X020040Y022003D01*
X019999Y022100D01*
X019925Y022175D01*
X019827Y022215D01*
X019722Y022215D01*
X019624Y022175D01*
X019590Y022140D01*
X019516Y022140D01*
X019516Y022192D01*
X019451Y022257D01*
X018927Y022257D01*
X018863Y022192D01*
X018863Y021708D01*
X018863Y021824D02*
X017481Y021824D01*
X017427Y021923D02*
X018863Y021923D01*
X018863Y022021D02*
X017075Y022021D01*
X017075Y022120D02*
X018863Y022120D01*
X018888Y022218D02*
X017075Y022218D01*
X017075Y022317D02*
X023866Y022317D01*
X023593Y022415D02*
X024175Y022415D01*
X024175Y021824D02*
X023601Y021824D01*
X023601Y021726D02*
X024175Y021726D01*
X024175Y021627D02*
X023542Y021627D01*
X023601Y021529D02*
X024175Y021529D01*
X024175Y021430D02*
X023601Y021430D01*
X022988Y021430D02*
X017075Y021430D01*
X017387Y020938D02*
X017568Y020938D01*
X017568Y020839D02*
X017075Y020839D01*
X017075Y020741D02*
X017568Y020741D01*
X017598Y020642D02*
X017075Y020642D01*
X017075Y020544D02*
X017584Y020544D01*
X017568Y020445D02*
X017075Y020445D01*
X017075Y020347D02*
X017568Y020347D01*
X017568Y020248D02*
X017075Y020248D01*
X017400Y020150D02*
X017505Y020150D01*
X017747Y019854D02*
X022520Y019854D01*
X022520Y019953D02*
X018131Y019953D01*
X018181Y020051D02*
X022479Y020051D01*
X022460Y020150D02*
X018181Y020150D01*
X018181Y020248D02*
X022478Y020248D01*
X022397Y019756D02*
X017405Y019756D01*
X017075Y019657D02*
X022383Y019657D01*
X022383Y019559D02*
X017075Y019559D01*
X017075Y019460D02*
X022383Y019460D01*
X022383Y019362D02*
X017075Y019362D01*
X017075Y019263D02*
X022383Y019263D01*
X023706Y019263D02*
X023837Y019263D01*
X024175Y019165D02*
X017075Y019165D01*
X017075Y019066D02*
X017807Y019066D01*
X017758Y018968D02*
X017382Y018968D01*
X017075Y018475D02*
X017775Y018475D01*
X017787Y018377D02*
X017075Y018377D01*
X017421Y018278D02*
X017758Y018278D01*
X017795Y017786D02*
X017075Y017786D01*
X013375Y014650D02*
X012575Y014650D01*
X011525Y013600D01*
X009125Y013600D01*
X008775Y013950D01*
X006425Y013950D01*
X006175Y013700D01*
X006175Y012750D01*
X006225Y012700D01*
X006215Y012710D01*
X006199Y012710D01*
X006225Y012700D02*
X006255Y012670D01*
X007250Y012700D02*
X007275Y012700D01*
X007275Y013500D01*
X009225Y014500D02*
X011775Y014500D01*
X012225Y014950D01*
X012225Y016850D01*
X012575Y017100D02*
X013025Y017550D01*
X012575Y017100D02*
X012575Y015550D01*
X011675Y015650D02*
X011275Y015250D01*
X009175Y015250D01*
X008317Y016107D01*
X005059Y016107D01*
X005059Y015793D02*
X007932Y015793D01*
X009225Y014500D01*
X011675Y015650D02*
X011675Y017000D01*
X011475Y019750D02*
X011382Y019843D01*
X006759Y019843D01*
X006759Y020157D02*
X011032Y020157D01*
X011175Y020300D01*
X010925Y020600D02*
X011475Y020600D01*
X011525Y020550D01*
X011725Y020900D02*
X010932Y021693D01*
X006759Y021693D01*
X006759Y022007D02*
X011117Y022007D01*
X011775Y021350D01*
X010925Y020600D02*
X010147Y021378D01*
X006759Y021378D01*
X006090Y021378D02*
X004397Y021378D01*
X003275Y022500D01*
X002325Y022500D01*
X002325Y022100D02*
X003175Y022100D01*
X005117Y020157D01*
X006090Y020157D01*
X006075Y019857D02*
X003017Y019857D01*
X002325Y020550D01*
X002325Y021650D01*
X002325Y022950D02*
X003425Y022950D01*
X004682Y021693D01*
X006090Y021693D01*
X006090Y022007D02*
X004767Y022007D01*
X003425Y023350D01*
X002325Y023350D01*
X002325Y023750D02*
X003575Y023750D01*
X005002Y022322D01*
X006090Y022322D01*
X006759Y022322D02*
X010897Y022322D01*
X011175Y022600D01*
X011225Y023050D02*
X011225Y023550D01*
X010375Y024400D01*
X010375Y026000D01*
X009375Y027000D01*
X008525Y027000D01*
X007725Y026200D01*
X004275Y026200D01*
X004067Y026407D01*
X004067Y026915D01*
X004382Y026915D02*
X004382Y026643D01*
X004525Y026500D01*
X007625Y026500D01*
X008325Y027200D01*
X009525Y027200D01*
X010625Y026100D01*
X010625Y024450D01*
X011775Y023300D01*
X011775Y023150D01*
X011225Y023050D02*
X011675Y022600D01*
X010975Y023100D02*
X010975Y023500D01*
X010175Y024300D01*
X010175Y025250D01*
X009725Y025700D01*
X010875Y026150D02*
X010875Y024700D01*
X011825Y023750D01*
X012375Y023800D02*
X011175Y025000D01*
X011175Y026200D01*
X009725Y027650D01*
X006075Y027650D01*
X005075Y028650D01*
X005075Y031050D01*
X002717Y033407D01*
X002717Y034015D01*
X002402Y034015D02*
X002402Y033372D01*
X004875Y030900D01*
X004875Y028500D01*
X005975Y027400D01*
X009625Y027400D01*
X010875Y026150D01*
X011475Y026250D02*
X009875Y027850D01*
X006175Y027850D01*
X005275Y028750D01*
X005275Y031200D01*
X003032Y033443D01*
X003032Y034015D01*
X003032Y034685D02*
X003032Y035643D01*
X002775Y035900D01*
X002475Y036300D02*
X002475Y035450D01*
X002717Y035207D01*
X002717Y034685D01*
X002402Y034685D02*
X002402Y035072D01*
X002125Y035350D01*
X002125Y036650D01*
X005625Y036698D02*
X008275Y036698D01*
X008275Y036796D02*
X005625Y036796D01*
X005625Y036895D02*
X008275Y036895D01*
X008275Y036993D02*
X005625Y036993D01*
X005625Y037092D02*
X008275Y037092D01*
X008275Y037190D02*
X005625Y037190D01*
X005625Y037289D02*
X008275Y037289D01*
X008275Y037387D02*
X005625Y037387D01*
X005625Y037400D02*
X008275Y037400D01*
X008275Y035550D01*
X005625Y035550D01*
X005625Y037400D01*
X005625Y036599D02*
X008275Y036599D01*
X008275Y036501D02*
X005625Y036501D01*
X005625Y036402D02*
X008275Y036402D01*
X008275Y036304D02*
X005625Y036304D01*
X005625Y036205D02*
X008275Y036205D01*
X008275Y036107D02*
X005625Y036107D01*
X005625Y036008D02*
X008275Y036008D01*
X008275Y035910D02*
X005625Y035910D01*
X005625Y035811D02*
X008275Y035811D01*
X008275Y035713D02*
X005625Y035713D01*
X005625Y035614D02*
X008275Y035614D01*
X008325Y034950D02*
X006575Y034950D01*
X006575Y034550D01*
X007075Y034550D01*
X007075Y033450D01*
X008325Y033450D01*
X008325Y034950D01*
X008325Y034925D02*
X006575Y034925D01*
X006575Y034826D02*
X008325Y034826D01*
X008325Y034728D02*
X006575Y034728D01*
X006575Y034629D02*
X008325Y034629D01*
X008325Y034531D02*
X007075Y034531D01*
X007075Y034432D02*
X008325Y034432D01*
X008325Y034334D02*
X007075Y034334D01*
X007075Y034235D02*
X008325Y034235D01*
X008325Y034137D02*
X007075Y034137D01*
X007075Y034038D02*
X008325Y034038D01*
X008325Y033940D02*
X007075Y033940D01*
X007075Y033841D02*
X008325Y033841D01*
X008325Y033743D02*
X007075Y033743D01*
X007075Y033644D02*
X008325Y033644D01*
X008325Y033546D02*
X007075Y033546D01*
X009375Y035500D02*
X009375Y037450D01*
X012075Y037450D01*
X012075Y035500D01*
X009375Y035500D01*
X009375Y035516D02*
X012075Y035516D01*
X012075Y035614D02*
X009375Y035614D01*
X009375Y035713D02*
X012075Y035713D01*
X012075Y035811D02*
X009375Y035811D01*
X009375Y035910D02*
X012075Y035910D01*
X012075Y036008D02*
X009375Y036008D01*
X009375Y036107D02*
X012075Y036107D01*
X012075Y036205D02*
X009375Y036205D01*
X009375Y036304D02*
X012075Y036304D01*
X012075Y036402D02*
X009375Y036402D01*
X009375Y036501D02*
X012075Y036501D01*
X012075Y036599D02*
X009375Y036599D01*
X009375Y036698D02*
X012075Y036698D01*
X012075Y036796D02*
X009375Y036796D01*
X009375Y036895D02*
X012075Y036895D01*
X012075Y036993D02*
X009375Y036993D01*
X009375Y037092D02*
X012075Y037092D01*
X012075Y037190D02*
X009375Y037190D01*
X009375Y037289D02*
X012075Y037289D01*
X012075Y037387D02*
X009375Y037387D01*
X008425Y038050D02*
X008425Y038450D01*
X007775Y038450D01*
X007775Y039450D01*
X006625Y039450D01*
X006625Y038050D01*
X008425Y038050D01*
X008425Y038077D02*
X006625Y038077D01*
X006625Y038175D02*
X008425Y038175D01*
X008425Y038274D02*
X006625Y038274D01*
X006625Y038372D02*
X008425Y038372D01*
X007775Y038471D02*
X006625Y038471D01*
X006625Y038569D02*
X007775Y038569D01*
X007775Y038668D02*
X006625Y038668D01*
X006625Y038766D02*
X007775Y038766D01*
X007775Y038865D02*
X006625Y038865D01*
X006625Y038963D02*
X007775Y038963D01*
X007775Y039062D02*
X006625Y039062D01*
X006625Y039160D02*
X007775Y039160D01*
X007775Y039259D02*
X006625Y039259D01*
X006625Y039357D02*
X007775Y039357D01*
X010375Y039357D02*
X011525Y039357D01*
X011525Y039450D02*
X010375Y039450D01*
X010375Y038050D01*
X012175Y038050D01*
X012175Y038450D01*
X011525Y038450D01*
X011525Y039450D01*
X011525Y039259D02*
X010375Y039259D01*
X010375Y039160D02*
X011525Y039160D01*
X011525Y039062D02*
X010375Y039062D01*
X010375Y038963D02*
X011525Y038963D01*
X011525Y038865D02*
X010375Y038865D01*
X010375Y038766D02*
X011525Y038766D01*
X011525Y038668D02*
X010375Y038668D01*
X010375Y038569D02*
X011525Y038569D01*
X011525Y038471D02*
X010375Y038471D01*
X010375Y038372D02*
X012175Y038372D01*
X012175Y038274D02*
X010375Y038274D01*
X010375Y038175D02*
X012175Y038175D01*
X012175Y038077D02*
X010375Y038077D01*
X010975Y039074D02*
X010995Y039424D01*
X010995Y039420D01*
X013125Y037450D02*
X015825Y037450D01*
X015825Y035500D01*
X013125Y035500D01*
X013125Y037450D01*
X013125Y037387D02*
X015825Y037387D01*
X015825Y037289D02*
X013125Y037289D01*
X013125Y037190D02*
X015825Y037190D01*
X015825Y037092D02*
X013125Y037092D01*
X013125Y036993D02*
X015825Y036993D01*
X015825Y036895D02*
X013125Y036895D01*
X013125Y036796D02*
X015825Y036796D01*
X015825Y036698D02*
X013125Y036698D01*
X013125Y036599D02*
X015825Y036599D01*
X015825Y036501D02*
X013125Y036501D01*
X013125Y036402D02*
X015825Y036402D01*
X015825Y036304D02*
X013125Y036304D01*
X013125Y036205D02*
X015825Y036205D01*
X015825Y036107D02*
X013125Y036107D01*
X013125Y036008D02*
X015825Y036008D01*
X015825Y035910D02*
X013125Y035910D01*
X013125Y035811D02*
X015825Y035811D01*
X015825Y035713D02*
X013125Y035713D01*
X013125Y035614D02*
X015825Y035614D01*
X015825Y035516D02*
X013125Y035516D01*
X014075Y034950D02*
X015825Y034950D01*
X015825Y033450D01*
X014625Y033450D01*
X014625Y034550D01*
X014075Y034550D01*
X014075Y034950D01*
X014075Y034925D02*
X015825Y034925D01*
X015825Y034826D02*
X014075Y034826D01*
X014075Y034728D02*
X015825Y034728D01*
X015825Y034629D02*
X014075Y034629D01*
X014625Y034531D02*
X015825Y034531D01*
X015825Y034432D02*
X014625Y034432D01*
X014625Y034334D02*
X015825Y034334D01*
X015825Y034235D02*
X014625Y034235D01*
X014625Y034137D02*
X015825Y034137D01*
X015825Y034038D02*
X014625Y034038D01*
X014625Y033940D02*
X015825Y033940D01*
X015825Y033841D02*
X014625Y033841D01*
X014625Y033743D02*
X015825Y033743D01*
X015825Y033644D02*
X014625Y033644D01*
X014625Y033546D02*
X015825Y033546D01*
X019225Y034950D02*
X019875Y034300D01*
X019875Y030450D01*
X020632Y028657D02*
X020375Y028400D01*
X020632Y028657D02*
X024690Y028657D01*
X024690Y028343D02*
X024217Y028343D01*
X024175Y028300D01*
X024889Y029280D02*
X024955Y029280D01*
X024975Y029300D01*
X025225Y029300D01*
X025359Y029165D01*
X025359Y028657D01*
X025359Y028343D02*
X025667Y028343D01*
X025875Y028550D01*
X025875Y029300D01*
X025860Y029285D01*
X025860Y029280D01*
X026725Y028600D02*
X026732Y028607D01*
X027790Y028607D01*
X027790Y028293D02*
X027167Y028293D01*
X027075Y028200D01*
X027265Y025344D02*
X027265Y025310D01*
X027275Y025300D01*
X024175Y023203D02*
X024121Y023203D01*
X024175Y023105D02*
X021583Y023105D01*
X021586Y023203D02*
X023928Y023203D01*
X023799Y023302D02*
X021586Y023302D01*
X021586Y023400D02*
X023760Y023400D01*
X023760Y023499D02*
X021586Y023499D01*
X021582Y023597D02*
X023799Y023597D01*
X023857Y022908D02*
X023626Y022908D01*
X024175Y023006D02*
X019496Y023006D01*
X019496Y022908D02*
X021807Y022908D01*
X021824Y022925D02*
X021750Y022850D01*
X021710Y022753D01*
X021710Y022647D01*
X021750Y022550D01*
X021824Y022475D01*
X021922Y022435D01*
X022027Y022435D01*
X022125Y022475D01*
X022149Y022500D01*
X022303Y022500D01*
X022303Y022448D01*
X022368Y022383D01*
X022892Y022383D01*
X022956Y022448D01*
X022956Y022932D01*
X022892Y022997D01*
X022368Y022997D01*
X022303Y022932D01*
X022303Y022880D01*
X022169Y022880D01*
X022125Y022925D01*
X022027Y022965D01*
X021922Y022965D01*
X021824Y022925D01*
X021733Y022809D02*
X019496Y022809D01*
X019496Y022711D02*
X021710Y022711D01*
X021724Y022612D02*
X019496Y022612D01*
X019482Y022514D02*
X021786Y022514D01*
X022142Y022908D02*
X022303Y022908D01*
X022956Y022908D02*
X022973Y022908D01*
X022973Y022809D02*
X022956Y022809D01*
X022956Y022711D02*
X022973Y022711D01*
X022973Y022612D02*
X022956Y022612D01*
X022956Y022514D02*
X022973Y022514D01*
X023005Y022415D02*
X022924Y022415D01*
X022988Y022218D02*
X019490Y022218D01*
X019516Y021726D02*
X019624Y021726D01*
X019925Y021726D02*
X022988Y021726D01*
X022988Y021824D02*
X020009Y021824D01*
X020040Y021923D02*
X022988Y021923D01*
X022988Y022021D02*
X020032Y022021D01*
X019980Y022120D02*
X022988Y022120D01*
X022336Y022415D02*
X017075Y022415D01*
X017075Y022514D02*
X018187Y022514D01*
X018173Y022612D02*
X017075Y022612D01*
X017075Y022711D02*
X018173Y022711D01*
X018173Y022809D02*
X017075Y022809D01*
X017075Y022908D02*
X018173Y022908D01*
X018173Y023006D02*
X017075Y023006D01*
X017075Y023105D02*
X018185Y023105D01*
X018185Y023203D02*
X017075Y023203D01*
X017075Y023302D02*
X018149Y023302D01*
X018110Y023400D02*
X017075Y023400D01*
X017075Y023499D02*
X018110Y023499D01*
X018149Y023597D02*
X017075Y023597D01*
X018601Y023597D02*
X018999Y023597D01*
X018960Y023499D02*
X018640Y023499D01*
X018640Y023400D02*
X018960Y023400D01*
X018999Y023302D02*
X018600Y023302D01*
X018565Y023203D02*
X019035Y023203D01*
X019035Y023105D02*
X018565Y023105D01*
X018826Y023006D02*
X018843Y023006D01*
X018843Y022908D02*
X018826Y022908D01*
X018826Y022809D02*
X018843Y022809D01*
X018843Y022711D02*
X018826Y022711D01*
X018826Y022612D02*
X018843Y022612D01*
X018857Y022514D02*
X018812Y022514D01*
X019415Y023105D02*
X020936Y023105D01*
X020628Y023203D02*
X019415Y023203D01*
X019450Y023302D02*
X020499Y023302D01*
X020460Y023400D02*
X019490Y023400D01*
X019490Y023499D02*
X020460Y023499D01*
X020499Y023597D02*
X019451Y023597D01*
X018175Y025750D02*
X016975Y025750D01*
X017075Y026300D02*
X017875Y027100D01*
X017875Y028150D01*
X017125Y027250D02*
X017125Y029150D01*
X017125Y036750D01*
X018002Y037628D01*
X018002Y039565D01*
X018317Y039565D02*
X018317Y037543D01*
X017675Y036900D01*
X017675Y029200D01*
X017125Y029200D02*
X017125Y029150D01*
X016325Y028550D02*
X015575Y028550D01*
X015225Y028900D01*
X015225Y029300D01*
X014225Y029250D02*
X014225Y028650D01*
X014225Y029250D02*
X014175Y029300D01*
X014209Y029300D01*
X012375Y028500D02*
X011975Y028900D01*
X011575Y028900D01*
X011425Y029050D01*
X011425Y029300D01*
X011430Y029300D01*
X011450Y029320D01*
X011675Y028600D02*
X010775Y028600D01*
X010475Y028900D01*
X010475Y029350D01*
X009475Y028750D02*
X009925Y028300D01*
X011475Y028300D01*
X012282Y027493D01*
X012282Y026785D01*
X011967Y026785D02*
X011967Y027257D01*
X011175Y028050D01*
X007075Y028050D01*
X006629Y028495D01*
X006629Y029360D01*
X007720Y029330D02*
X007720Y029305D01*
X007725Y029300D01*
X007725Y028950D01*
X007925Y028750D01*
X009475Y028750D01*
X011675Y028600D02*
X013325Y026950D01*
X014725Y026950D01*
X014775Y026900D01*
X014725Y026900D01*
X016025Y026150D02*
X017125Y027250D01*
X014025Y023900D02*
X012282Y025643D01*
X012282Y026115D01*
X011967Y026115D02*
X011967Y025257D01*
X013325Y023900D01*
X013475Y023900D01*
X012925Y023850D02*
X012775Y023850D01*
X011475Y025150D01*
X011475Y026250D01*
X010975Y023100D02*
X010575Y022700D01*
X008459Y022700D01*
X007790Y022700D02*
X005175Y022700D01*
X003725Y024150D01*
X003725Y024600D01*
X002325Y022950D02*
X002275Y022950D01*
X006075Y019857D02*
X006075Y019843D01*
X006090Y019843D01*
X004390Y016107D02*
X003317Y016107D01*
X003275Y016150D01*
X004390Y015793D02*
X004390Y014965D01*
X003975Y014550D01*
X003275Y014550D01*
X003275Y014538D01*
X006775Y010350D02*
X006755Y010330D01*
X006755Y009626D01*
X006809Y010315D02*
X006775Y010350D01*
X006809Y010315D02*
X008025Y010315D01*
X006925Y008700D02*
X006925Y007600D01*
X007375Y007600D01*
X007375Y007200D01*
X005675Y007200D01*
X005675Y008700D01*
X006925Y008700D01*
X006925Y008625D02*
X005675Y008625D01*
X005675Y008527D02*
X006925Y008527D01*
X006925Y008428D02*
X005675Y008428D01*
X005675Y008330D02*
X006925Y008330D01*
X006925Y008231D02*
X005675Y008231D01*
X005675Y008133D02*
X006925Y008133D01*
X006925Y008034D02*
X005675Y008034D01*
X005675Y007936D02*
X006925Y007936D01*
X006925Y007837D02*
X005675Y007837D01*
X005675Y007739D02*
X006925Y007739D01*
X006925Y007640D02*
X005675Y007640D01*
X005675Y007542D02*
X007375Y007542D01*
X007375Y007443D02*
X005675Y007443D01*
X005675Y007345D02*
X007375Y007345D01*
X007375Y007246D02*
X005675Y007246D01*
X004625Y006600D02*
X007375Y006600D01*
X007375Y004750D01*
X005575Y004750D01*
X005575Y005550D01*
X004625Y005550D01*
X004625Y006600D01*
X004625Y006557D02*
X007375Y006557D01*
X007375Y006458D02*
X004625Y006458D01*
X004625Y006360D02*
X007375Y006360D01*
X007375Y006261D02*
X004625Y006261D01*
X004625Y006163D02*
X007375Y006163D01*
X007375Y006064D02*
X004625Y006064D01*
X004625Y005966D02*
X007375Y005966D01*
X007375Y005867D02*
X004625Y005867D01*
X004625Y005769D02*
X007375Y005769D01*
X007375Y005670D02*
X004625Y005670D01*
X004625Y005572D02*
X007375Y005572D01*
X007375Y005473D02*
X005575Y005473D01*
X005575Y005375D02*
X007375Y005375D01*
X007375Y005276D02*
X005575Y005276D01*
X005575Y005178D02*
X007375Y005178D01*
X007375Y005079D02*
X005575Y005079D01*
X005575Y004981D02*
X007375Y004981D01*
X007375Y004882D02*
X005575Y004882D01*
X005575Y004784D02*
X007375Y004784D01*
X007425Y004200D02*
X007425Y002750D01*
X006175Y002750D01*
X006175Y003750D01*
X005625Y003750D01*
X005625Y004200D01*
X007425Y004200D01*
X007425Y004193D02*
X005625Y004193D01*
X005625Y004094D02*
X007425Y004094D01*
X007425Y003996D02*
X005625Y003996D01*
X005625Y003897D02*
X007425Y003897D01*
X007425Y003799D02*
X005625Y003799D01*
X006175Y003700D02*
X007425Y003700D01*
X007425Y003601D02*
X006175Y003601D01*
X006175Y003503D02*
X007425Y003503D01*
X007425Y003404D02*
X006175Y003404D01*
X006175Y003306D02*
X007425Y003306D01*
X007425Y003207D02*
X006175Y003207D01*
X006175Y003109D02*
X007425Y003109D01*
X007425Y003010D02*
X006175Y003010D01*
X006175Y002912D02*
X007425Y002912D01*
X007425Y002813D02*
X006175Y002813D01*
X006735Y003140D02*
X006748Y003126D01*
X006755Y003126D01*
X011575Y004750D02*
X014325Y004750D01*
X014325Y006600D01*
X011575Y006600D01*
X011575Y004750D01*
X011575Y004784D02*
X014325Y004784D01*
X014325Y004882D02*
X011575Y004882D01*
X011575Y004981D02*
X014325Y004981D01*
X014325Y005079D02*
X011575Y005079D01*
X011575Y005178D02*
X014325Y005178D01*
X014325Y005276D02*
X011575Y005276D01*
X011575Y005375D02*
X014325Y005375D01*
X014325Y005473D02*
X011575Y005473D01*
X011575Y005572D02*
X014325Y005572D01*
X014325Y005670D02*
X011575Y005670D01*
X011575Y005769D02*
X014325Y005769D01*
X014325Y005867D02*
X011575Y005867D01*
X011575Y005966D02*
X014325Y005966D01*
X014325Y006064D02*
X011575Y006064D01*
X011575Y006163D02*
X014325Y006163D01*
X014325Y006261D02*
X011575Y006261D01*
X011575Y006360D02*
X014325Y006360D01*
X014325Y006458D02*
X011575Y006458D01*
X011575Y006557D02*
X014325Y006557D01*
X014325Y007200D02*
X012625Y007200D01*
X012625Y008700D01*
X013875Y008700D01*
X013875Y007600D01*
X014325Y007600D01*
X014325Y007200D01*
X014325Y007246D02*
X012625Y007246D01*
X012625Y007345D02*
X014325Y007345D01*
X014325Y007443D02*
X012625Y007443D01*
X012625Y007542D02*
X014325Y007542D01*
X013875Y007640D02*
X012625Y007640D01*
X012625Y007739D02*
X013875Y007739D01*
X013875Y007837D02*
X012625Y007837D01*
X012625Y007936D02*
X013875Y007936D01*
X013875Y008034D02*
X012625Y008034D01*
X012625Y008133D02*
X013875Y008133D01*
X013875Y008231D02*
X012625Y008231D01*
X012625Y008330D02*
X013875Y008330D01*
X013875Y008428D02*
X012625Y008428D01*
X012625Y008527D02*
X013875Y008527D01*
X013875Y008625D02*
X012625Y008625D01*
X015325Y006600D02*
X018075Y006600D01*
X018075Y004750D01*
X015325Y004750D01*
X015325Y006600D01*
X015325Y006557D02*
X018075Y006557D01*
X018075Y006458D02*
X015325Y006458D01*
X015325Y006360D02*
X018075Y006360D01*
X018075Y006261D02*
X015325Y006261D01*
X015325Y006163D02*
X018075Y006163D01*
X018075Y006064D02*
X015325Y006064D01*
X015325Y005966D02*
X018075Y005966D01*
X018075Y005867D02*
X015325Y005867D01*
X015325Y005769D02*
X018075Y005769D01*
X018075Y005670D02*
X015325Y005670D01*
X015325Y005572D02*
X018075Y005572D01*
X018075Y005473D02*
X015325Y005473D01*
X015325Y005375D02*
X018075Y005375D01*
X018075Y005276D02*
X015325Y005276D01*
X015325Y005178D02*
X018075Y005178D01*
X018075Y005079D02*
X015325Y005079D01*
X015325Y004981D02*
X018075Y004981D01*
X018075Y004882D02*
X015325Y004882D01*
X015325Y004784D02*
X018075Y004784D01*
X018125Y004200D02*
X016275Y004200D01*
X016275Y003750D01*
X016875Y003750D01*
X016875Y002750D01*
X018125Y002750D01*
X018125Y004200D01*
X018125Y004193D02*
X016275Y004193D01*
X016275Y004094D02*
X018125Y004094D01*
X018125Y003996D02*
X016275Y003996D01*
X016275Y003897D02*
X018125Y003897D01*
X018125Y003799D02*
X016275Y003799D01*
X016875Y003700D02*
X018125Y003700D01*
X018125Y003601D02*
X016875Y003601D01*
X016875Y003503D02*
X018125Y003503D01*
X018125Y003404D02*
X016875Y003404D01*
X016875Y003306D02*
X018125Y003306D01*
X018125Y003207D02*
X016875Y003207D01*
X016875Y003109D02*
X018125Y003109D01*
X018125Y003010D02*
X016875Y003010D01*
X016875Y002912D02*
X018125Y002912D01*
X018125Y002813D02*
X016875Y002813D01*
X017448Y003126D02*
X017445Y003130D01*
X017448Y003126D02*
X017455Y003126D01*
X014375Y003109D02*
X013125Y003109D01*
X013125Y003207D02*
X014375Y003207D01*
X014375Y003306D02*
X013125Y003306D01*
X013125Y003404D02*
X014375Y003404D01*
X014375Y003503D02*
X013125Y003503D01*
X013125Y003601D02*
X014375Y003601D01*
X014375Y003700D02*
X013125Y003700D01*
X013125Y003750D02*
X012575Y003750D01*
X012575Y004200D01*
X014375Y004200D01*
X014375Y002750D01*
X013125Y002750D01*
X013125Y003750D01*
X012575Y003799D02*
X014375Y003799D01*
X014375Y003897D02*
X012575Y003897D01*
X012575Y003996D02*
X014375Y003996D01*
X014375Y004094D02*
X012575Y004094D01*
X012575Y004193D02*
X014375Y004193D01*
X014375Y003010D02*
X013125Y003010D01*
X013125Y002912D02*
X014375Y002912D01*
X014375Y002813D02*
X013125Y002813D01*
X016375Y007200D02*
X018075Y007200D01*
X018075Y007600D01*
X017625Y007600D01*
X017625Y008700D01*
X016375Y008700D01*
X016375Y007200D01*
X016375Y007246D02*
X018075Y007246D01*
X018075Y007345D02*
X016375Y007345D01*
X016375Y007443D02*
X018075Y007443D01*
X018075Y007542D02*
X016375Y007542D01*
X016375Y007640D02*
X017625Y007640D01*
X017625Y007739D02*
X016375Y007739D01*
X016375Y007837D02*
X017625Y007837D01*
X017625Y007936D02*
X016375Y007936D01*
X016375Y008034D02*
X017625Y008034D01*
X017625Y008133D02*
X016375Y008133D01*
X016375Y008231D02*
X017625Y008231D01*
X017625Y008330D02*
X016375Y008330D01*
X016375Y008428D02*
X017625Y008428D01*
X017625Y008527D02*
X016375Y008527D01*
X016375Y008625D02*
X017625Y008625D01*
X017970Y012690D02*
X017970Y013095D01*
X017975Y013150D01*
X016925Y013250D02*
X016925Y012700D01*
X016929Y012700D02*
X016929Y012745D01*
X016925Y012750D01*
X014230Y012710D02*
X014230Y012745D01*
X014230Y012710D02*
X014230Y013205D01*
X014275Y013250D01*
X013225Y013250D02*
X013219Y013245D01*
X013219Y012700D01*
X025725Y016900D02*
X028275Y016900D01*
X029375Y016850D02*
X037825Y016850D01*
X038009Y017950D02*
X038425Y017950D01*
X039475Y019000D01*
X039875Y018600D01*
X040325Y018600D01*
X040325Y017300D01*
X040725Y016900D01*
X040925Y016250D02*
X036325Y016250D01*
X036975Y017950D02*
X036675Y018250D01*
X036975Y017950D02*
X037340Y017950D01*
X037672Y019585D02*
X037777Y019585D01*
X037875Y019625D01*
X037949Y019700D01*
X037990Y019797D01*
X037990Y019903D01*
X037949Y020000D01*
X037875Y020075D01*
X037777Y020115D01*
X037672Y020115D01*
X037574Y020075D01*
X037500Y020000D01*
X037460Y019903D01*
X037460Y019797D01*
X037500Y019700D01*
X037574Y019625D01*
X037672Y019585D01*
X037543Y019657D02*
X036125Y019657D01*
X036125Y019559D02*
X038875Y019559D01*
X038875Y019657D02*
X037906Y019657D01*
X037972Y019756D02*
X038875Y019756D01*
X038875Y019854D02*
X038673Y019854D01*
X038627Y019835D02*
X038725Y019875D01*
X038799Y019950D01*
X038840Y020047D01*
X038840Y020153D01*
X038799Y020250D01*
X038725Y020325D01*
X038627Y020365D01*
X038522Y020365D01*
X038424Y020325D01*
X038350Y020250D01*
X038310Y020153D01*
X038310Y020047D01*
X038350Y019950D01*
X038424Y019875D01*
X038522Y019835D01*
X038627Y019835D01*
X038476Y019854D02*
X037990Y019854D01*
X037969Y019953D02*
X038349Y019953D01*
X038310Y020051D02*
X037898Y020051D01*
X037551Y020051D02*
X036125Y020051D01*
X036125Y019953D02*
X037480Y019953D01*
X037460Y019854D02*
X036125Y019854D01*
X036125Y019756D02*
X037477Y019756D01*
X038310Y020150D02*
X036125Y020150D01*
X036125Y020248D02*
X038349Y020248D01*
X038477Y020347D02*
X036125Y020347D01*
X036125Y020445D02*
X038875Y020445D01*
X038875Y020347D02*
X038672Y020347D01*
X038800Y020248D02*
X038875Y020248D01*
X038875Y020150D02*
X038840Y020150D01*
X038840Y020051D02*
X038875Y020051D01*
X038875Y019953D02*
X038800Y019953D01*
X038775Y019550D02*
X038775Y019150D01*
X038875Y019450D02*
X036125Y019450D01*
X036125Y023100D01*
X038350Y023100D01*
X038310Y023003D01*
X038310Y022897D01*
X038350Y022800D01*
X038424Y022725D01*
X038522Y022685D01*
X038627Y022685D01*
X038725Y022725D01*
X038799Y022800D01*
X038840Y022897D01*
X038840Y023003D01*
X038799Y023100D01*
X038875Y023100D01*
X038875Y019450D01*
X038875Y019460D02*
X036125Y019460D01*
X036125Y020544D02*
X038875Y020544D01*
X038875Y020642D02*
X036125Y020642D01*
X036125Y020741D02*
X038875Y020741D01*
X038875Y020839D02*
X036125Y020839D01*
X036125Y020938D02*
X038875Y020938D01*
X038875Y021036D02*
X036125Y021036D01*
X036125Y021135D02*
X038875Y021135D01*
X038875Y021233D02*
X037842Y021233D01*
X037866Y021258D02*
X037866Y021742D01*
X037802Y021807D01*
X037278Y021807D01*
X037219Y021748D01*
X037177Y021765D01*
X037072Y021765D01*
X036974Y021725D01*
X036900Y021650D01*
X036860Y021553D01*
X036860Y021447D01*
X036900Y021350D01*
X036974Y021275D01*
X037072Y021235D01*
X037177Y021235D01*
X037219Y021252D01*
X037278Y021193D01*
X037802Y021193D01*
X037866Y021258D01*
X037866Y021332D02*
X038875Y021332D01*
X038875Y021430D02*
X037866Y021430D01*
X037866Y021529D02*
X038875Y021529D01*
X038875Y021627D02*
X037866Y021627D01*
X037866Y021726D02*
X038875Y021726D01*
X038875Y021824D02*
X036125Y021824D01*
X036125Y021726D02*
X036277Y021726D01*
X036274Y021725D02*
X036200Y021650D01*
X036160Y021553D01*
X036160Y021447D01*
X036200Y021350D01*
X036274Y021275D01*
X036372Y021235D01*
X036477Y021235D01*
X036575Y021275D01*
X036649Y021350D01*
X036690Y021447D01*
X036690Y021553D01*
X036649Y021650D01*
X036575Y021725D01*
X036477Y021765D01*
X036372Y021765D01*
X036274Y021725D01*
X036190Y021627D02*
X036125Y021627D01*
X036125Y021529D02*
X036160Y021529D01*
X036167Y021430D02*
X036125Y021430D01*
X036125Y021332D02*
X036218Y021332D01*
X036125Y021233D02*
X037238Y021233D01*
X036918Y021332D02*
X036631Y021332D01*
X036682Y021430D02*
X036867Y021430D01*
X036860Y021529D02*
X036690Y021529D01*
X036659Y021627D02*
X036890Y021627D01*
X036977Y021726D02*
X036573Y021726D01*
X036724Y022075D02*
X036822Y022035D01*
X036927Y022035D01*
X036969Y022052D01*
X037028Y021993D01*
X037552Y021993D01*
X037616Y022058D01*
X037616Y022542D01*
X037552Y022607D01*
X037028Y022607D01*
X036969Y022548D01*
X036927Y022565D01*
X036822Y022565D01*
X036724Y022525D01*
X036650Y022450D01*
X036610Y022353D01*
X036610Y022247D01*
X036650Y022150D01*
X036724Y022075D01*
X036680Y022120D02*
X036125Y022120D01*
X036125Y022218D02*
X036622Y022218D01*
X036610Y022317D02*
X036125Y022317D01*
X036125Y022415D02*
X036635Y022415D01*
X036713Y022514D02*
X036125Y022514D01*
X036125Y022612D02*
X037729Y022612D01*
X037729Y022607D02*
X037697Y022607D01*
X037633Y022542D01*
X037633Y022058D01*
X037697Y021993D01*
X038221Y021993D01*
X038286Y022058D01*
X038286Y022542D01*
X038221Y022607D01*
X038202Y022607D01*
X038240Y022697D01*
X038240Y022803D01*
X038199Y022900D01*
X038125Y022975D01*
X038027Y023015D01*
X037922Y023015D01*
X037824Y022975D01*
X037750Y022900D01*
X037710Y022803D01*
X037710Y022697D01*
X037729Y022650D01*
X037729Y022607D01*
X037710Y022711D02*
X036125Y022711D01*
X036125Y022809D02*
X037712Y022809D01*
X037757Y022908D02*
X036125Y022908D01*
X036125Y023006D02*
X037900Y023006D01*
X038049Y023006D02*
X038311Y023006D01*
X038310Y022908D02*
X038192Y022908D01*
X038237Y022809D02*
X038346Y022809D01*
X038240Y022711D02*
X038460Y022711D01*
X038689Y022711D02*
X038875Y022711D01*
X038875Y022809D02*
X038803Y022809D01*
X038840Y022908D02*
X038875Y022908D01*
X038875Y023006D02*
X038838Y023006D01*
X038875Y022612D02*
X038204Y022612D01*
X038286Y022514D02*
X038875Y022514D01*
X038875Y022415D02*
X038286Y022415D01*
X038286Y022317D02*
X038875Y022317D01*
X038875Y022218D02*
X038286Y022218D01*
X038286Y022120D02*
X038875Y022120D01*
X038875Y022021D02*
X038249Y022021D01*
X037669Y022021D02*
X037580Y022021D01*
X037616Y022120D02*
X037633Y022120D01*
X037633Y022218D02*
X037616Y022218D01*
X037616Y022317D02*
X037633Y022317D01*
X037633Y022415D02*
X037616Y022415D01*
X037616Y022514D02*
X037633Y022514D01*
X037000Y022021D02*
X036125Y022021D01*
X036125Y021923D02*
X038875Y021923D01*
X043209Y023635D02*
X043225Y023650D01*
X038925Y028150D02*
X039167Y028393D01*
X039290Y028393D01*
X039290Y028707D02*
X038432Y028707D01*
X038425Y028700D01*
X037225Y028800D02*
X037225Y029350D01*
X037240Y029365D01*
X037240Y029370D01*
X037225Y028800D02*
X036817Y028393D01*
X036209Y028393D01*
X036209Y028707D02*
X036209Y029365D01*
X036175Y029400D01*
X036159Y029385D01*
X036159Y029350D01*
X035525Y029300D02*
X035495Y029270D01*
X034049Y029270D01*
X033375Y029300D02*
X033375Y028700D01*
X033017Y028343D01*
X032259Y028343D01*
X032259Y028657D02*
X032325Y028723D01*
X032325Y029300D01*
X032329Y029300D01*
X032339Y029290D01*
X034425Y028700D02*
X034432Y028707D01*
X035540Y028707D01*
X035540Y028393D02*
X034717Y028393D01*
X034625Y028300D01*
X035525Y029300D02*
X035490Y029335D01*
X035490Y029350D01*
X039909Y029370D02*
X039929Y029350D01*
X039975Y029350D01*
X039975Y028723D01*
X039959Y028707D01*
X039959Y028393D02*
X040517Y028393D01*
X040975Y028850D01*
X040975Y029400D01*
X040985Y029390D01*
X040990Y029390D01*
X041725Y028750D02*
X041732Y028757D01*
X043040Y028757D01*
X043040Y028443D02*
X042017Y028443D01*
X041975Y028400D01*
X043709Y028443D02*
X044367Y028443D01*
X044725Y028800D01*
X044725Y029450D01*
X044740Y029435D01*
X044740Y029390D01*
X043725Y029350D02*
X043709Y029335D01*
X043709Y028757D01*
X043725Y029350D02*
X043709Y029365D01*
X043709Y029400D01*
X034075Y037950D02*
X032275Y037950D01*
X032275Y039350D01*
X033425Y039350D01*
X033425Y038350D01*
X034075Y038350D01*
X034075Y037950D01*
X034075Y037978D02*
X032275Y037978D01*
X032275Y038077D02*
X034075Y038077D01*
X034075Y038175D02*
X032275Y038175D01*
X032275Y038274D02*
X034075Y038274D01*
X033425Y038372D02*
X032275Y038372D01*
X032275Y038471D02*
X033425Y038471D01*
X033425Y038569D02*
X032275Y038569D01*
X032275Y038668D02*
X033425Y038668D01*
X033425Y038766D02*
X032275Y038766D01*
X032275Y038865D02*
X033425Y038865D01*
X033425Y038963D02*
X032275Y038963D01*
X032275Y039062D02*
X033425Y039062D01*
X033425Y039160D02*
X032275Y039160D01*
X032275Y039259D02*
X033425Y039259D01*
X030325Y038400D02*
X030325Y038000D01*
X028525Y038000D01*
X028525Y039400D01*
X029675Y039400D01*
X029675Y038400D01*
X030325Y038400D01*
X030325Y038372D02*
X028525Y038372D01*
X028525Y038274D02*
X030325Y038274D01*
X030325Y038175D02*
X028525Y038175D01*
X028525Y038077D02*
X030325Y038077D01*
X029675Y038471D02*
X028525Y038471D01*
X028525Y038569D02*
X029675Y038569D01*
X029675Y038668D02*
X028525Y038668D01*
X028525Y038766D02*
X029675Y038766D01*
X029675Y038865D02*
X028525Y038865D01*
X028525Y038963D02*
X029675Y038963D01*
X029675Y039062D02*
X028525Y039062D01*
X028525Y039160D02*
X029675Y039160D01*
X029675Y039259D02*
X028525Y039259D01*
X028525Y039357D02*
X029675Y039357D01*
X019487Y041600D02*
X019475Y041600D01*
X018947Y041072D01*
X018947Y040235D01*
X018632Y040235D02*
X018632Y041507D01*
X018725Y041600D01*
X018700Y041600D01*
X018317Y041207D02*
X017925Y041600D01*
X017912Y041600D01*
X018317Y041207D02*
X018317Y040235D01*
X018002Y040235D02*
X018002Y040722D01*
X017125Y041600D01*
X017125Y041600D01*
X015275Y039450D02*
X014125Y039450D01*
X014125Y038050D01*
X015925Y038050D01*
X015925Y038450D01*
X015275Y038450D01*
X015275Y039450D01*
X015275Y039357D02*
X014125Y039357D01*
X014125Y039259D02*
X015275Y039259D01*
X015275Y039160D02*
X014125Y039160D01*
X014125Y039062D02*
X015275Y039062D01*
X015275Y038963D02*
X014125Y038963D01*
X014125Y038865D02*
X015275Y038865D01*
X015275Y038766D02*
X014125Y038766D01*
X014125Y038668D02*
X015275Y038668D01*
X015275Y038569D02*
X014125Y038569D01*
X014125Y038471D02*
X015275Y038471D01*
X015925Y038372D02*
X014125Y038372D01*
X014125Y038274D02*
X015925Y038274D01*
X015925Y038175D02*
X014125Y038175D01*
X014125Y038077D02*
X015925Y038077D01*
X012075Y034950D02*
X010325Y034950D01*
X010325Y034550D01*
X010875Y034550D01*
X010875Y033450D01*
X012075Y033450D01*
X012075Y034950D01*
X012075Y034925D02*
X010325Y034925D01*
X010325Y034826D02*
X012075Y034826D01*
X012075Y034728D02*
X010325Y034728D01*
X010325Y034629D02*
X012075Y034629D01*
X012075Y034531D02*
X010875Y034531D01*
X010875Y034432D02*
X012075Y034432D01*
X012075Y034334D02*
X010875Y034334D01*
X010875Y034235D02*
X012075Y034235D01*
X012075Y034137D02*
X010875Y034137D01*
X010875Y034038D02*
X012075Y034038D01*
X012075Y033940D02*
X010875Y033940D01*
X010875Y033841D02*
X012075Y033841D01*
X012075Y033743D02*
X010875Y033743D01*
X010875Y033644D02*
X012075Y033644D01*
X012075Y033546D02*
X010875Y033546D01*
X004382Y029243D02*
X003975Y029650D01*
X003275Y029650D01*
X003275Y029663D01*
X004382Y029243D02*
X004382Y027585D01*
X004067Y027585D02*
X004067Y027907D01*
X003875Y028100D01*
X003275Y028100D01*
X003275Y028088D01*
X007717Y026193D02*
X007725Y026200D01*
X026075Y014800D02*
X026275Y014600D01*
X027375Y016100D02*
X027975Y015500D01*
X040075Y015500D01*
X040375Y015800D01*
X040925Y016250D02*
X041125Y016050D01*
X030147Y006715D02*
X030147Y005728D01*
X030275Y005600D01*
X030275Y003850D01*
X029725Y003300D01*
X029725Y004300D02*
X029225Y004800D01*
X029225Y005900D01*
X029517Y006193D01*
X029517Y006715D01*
X029202Y006715D02*
X029202Y006328D01*
X028925Y006050D01*
X028225Y006050D01*
X028025Y005850D01*
X028025Y005300D01*
X027975Y005300D01*
X027475Y004800D02*
X027975Y004300D01*
X026975Y003300D02*
X026175Y004100D01*
X029725Y005300D02*
X029832Y005407D01*
X029832Y006715D01*
D31*
X004948Y003126D02*
X004925Y003150D01*
X004948Y003126D02*
X005755Y003126D01*
X004975Y003125D02*
X004949Y003125D01*
X004948Y003126D01*
X004975Y003795D02*
X004975Y004750D01*
X004275Y005450D01*
X004275Y007050D01*
X004975Y007750D01*
X004975Y010100D01*
X005325Y010450D01*
X006175Y010450D01*
X006255Y010370D01*
X006255Y009626D01*
X007255Y009626D02*
X007698Y009626D01*
X007930Y009395D01*
X007955Y009395D01*
X007875Y008750D02*
X007398Y008274D01*
X007255Y008274D01*
X007875Y008750D02*
X007899Y008725D01*
X007955Y008725D01*
X008025Y010300D02*
X008025Y010315D01*
X008025Y010985D02*
X008025Y011000D01*
X006825Y011000D01*
X006775Y011050D01*
X006755Y011070D01*
X006755Y011674D01*
X007255Y011674D02*
X007255Y012670D01*
X007225Y012700D01*
X007250Y012700D01*
X007919Y012700D02*
X008025Y012700D01*
X008025Y011000D01*
X006775Y011050D02*
X006725Y011000D01*
X005275Y011000D01*
X004975Y011300D01*
X004975Y012600D01*
X005085Y012710D01*
X005530Y012710D01*
X006199Y012710D02*
X006199Y012725D01*
X006255Y012670D02*
X006255Y011674D01*
X008025Y012700D02*
X012550Y012700D01*
X012575Y012700D01*
X013205Y012630D02*
X013205Y011674D01*
X013705Y011674D02*
X013705Y011020D01*
X013725Y011000D01*
X014925Y011000D01*
X014900Y011025D01*
X014899Y011025D01*
X014875Y011000D01*
X014899Y011025D02*
X014899Y012710D01*
X014885Y012710D01*
X014875Y012700D01*
X016260Y012700D01*
X016925Y012700D02*
X016955Y012670D01*
X016955Y011674D01*
X017455Y011674D02*
X017455Y011020D01*
X017475Y011000D01*
X018625Y011000D01*
X018675Y011050D01*
X018725Y011000D01*
X018725Y010985D01*
X018690Y010985D01*
X018639Y011035D01*
X018639Y012690D01*
X017975Y012750D02*
X017970Y012745D01*
X017955Y012730D01*
X017955Y011674D01*
X017970Y012690D02*
X017970Y012745D01*
X016929Y012700D02*
X016925Y012700D01*
X014925Y011000D02*
X014925Y010985D01*
X015725Y010450D02*
X015725Y007800D01*
X014875Y006950D01*
X014875Y004700D01*
X015745Y003830D01*
X015745Y003825D01*
X015745Y003155D02*
X015819Y003155D01*
X015848Y003126D01*
X016455Y003126D01*
X012705Y003126D02*
X011998Y003126D01*
X011975Y003150D01*
X011980Y003155D01*
X011985Y003155D01*
X011975Y003800D02*
X011985Y003810D01*
X012025Y003850D01*
X011225Y004700D01*
X011225Y006650D01*
X012025Y007600D01*
X012025Y010450D01*
X012225Y010650D01*
X012975Y010650D01*
X013205Y010420D01*
X013205Y009626D01*
X013705Y009626D02*
X013705Y010230D01*
X013775Y010300D01*
X013725Y010300D01*
X013775Y010300D02*
X014925Y010300D01*
X014925Y010315D01*
X014648Y009626D02*
X014920Y009355D01*
X014895Y009355D01*
X014920Y009355D02*
X014925Y009350D01*
X014648Y009626D02*
X014205Y009626D01*
X014875Y008700D02*
X014448Y008274D01*
X014205Y008274D01*
X014875Y008700D02*
X014889Y008685D01*
X014895Y008685D01*
X015725Y010450D02*
X015925Y010650D01*
X016725Y010650D01*
X016955Y010420D01*
X016955Y009626D01*
X017455Y009626D02*
X017455Y010230D01*
X017525Y010300D01*
X017475Y010300D01*
X017525Y010300D02*
X018625Y010300D01*
X018675Y010350D01*
X018709Y010315D01*
X018725Y010315D01*
X018448Y009626D02*
X017955Y009626D01*
X018448Y009626D02*
X018675Y009400D01*
X018675Y009375D01*
X018675Y008705D02*
X018675Y008650D01*
X018298Y008274D01*
X017955Y008274D01*
X014205Y011674D02*
X014205Y012680D01*
X014230Y012705D01*
X014230Y012710D01*
X013275Y012700D02*
X013205Y012630D01*
X013219Y012700D02*
X013275Y012700D01*
X019225Y016700D02*
X019275Y016750D01*
X019275Y017355D01*
X019289Y017370D01*
X019925Y017350D02*
X020520Y017350D01*
X021189Y017350D02*
X021189Y016765D01*
X021175Y016750D01*
X022175Y016700D02*
X022260Y016735D01*
X022260Y017360D01*
X022929Y017360D02*
X022929Y016655D01*
X022925Y016650D01*
X022925Y016700D01*
X023295Y018685D02*
X023790Y018685D01*
X024025Y018450D01*
X024025Y019450D02*
X023975Y019500D01*
X023379Y019500D01*
X022710Y019500D02*
X022710Y020135D01*
X022725Y020150D01*
X023450Y021150D02*
X024025Y021150D01*
X023450Y021150D02*
X023295Y021305D01*
X023295Y021975D02*
X023420Y022100D01*
X024025Y022100D01*
X024015Y022690D02*
X023299Y022690D01*
X024015Y022690D02*
X024025Y022700D01*
X022630Y022690D02*
X021985Y022690D01*
X021975Y022700D01*
X021260Y023350D02*
X020825Y023350D01*
X020725Y023450D01*
X019225Y023450D02*
X019225Y022800D01*
X019175Y022750D01*
X019225Y022700D01*
X019175Y022750D02*
X019169Y022755D01*
X019169Y022770D01*
X018500Y022775D02*
X018500Y022770D01*
X018500Y022775D02*
X018375Y022900D01*
X018375Y023450D01*
X019189Y021950D02*
X019775Y021950D01*
X017875Y020950D02*
X017675Y021150D01*
X017225Y021150D01*
X017875Y020950D02*
X017875Y020935D01*
X017875Y020265D02*
X017875Y020250D01*
X017575Y019950D01*
X017225Y019950D01*
X017225Y018750D02*
X018060Y018750D01*
X018065Y018755D01*
X018065Y018085D02*
X018075Y018075D01*
X018075Y018050D01*
X017275Y018050D01*
X017225Y018100D01*
X020490Y012800D02*
X020525Y012800D01*
X011985Y003825D02*
X011985Y003810D01*
X003275Y016113D02*
X003275Y016150D01*
X005960Y029360D02*
X005975Y029375D01*
X005975Y031065D01*
X006009Y031100D01*
X007225Y031100D01*
X007225Y030376D01*
X007725Y030376D02*
X007725Y029350D01*
X007720Y029345D01*
X007720Y029330D01*
X008389Y029330D02*
X009755Y029330D01*
X009770Y029345D01*
X009770Y029320D01*
X009770Y031045D01*
X009765Y031050D01*
X009725Y031050D01*
X009725Y031065D01*
X009770Y031045D02*
X009825Y031100D01*
X010975Y031100D01*
X010975Y030376D01*
X011475Y030376D02*
X011475Y029350D01*
X011450Y029325D01*
X011450Y029320D01*
X012119Y029320D02*
X013555Y029320D01*
X013575Y029300D01*
X013540Y029300D01*
X013540Y031085D01*
X013555Y031100D01*
X013575Y031100D01*
X013509Y031100D01*
X013475Y031065D01*
X013475Y031050D01*
X013525Y031050D01*
X013575Y031100D01*
X014725Y031100D01*
X014725Y030376D01*
X015225Y030376D02*
X015225Y029300D01*
X015240Y029300D01*
X014275Y029350D02*
X014225Y029400D01*
X014225Y030376D01*
X014725Y031100D02*
X016275Y031100D01*
X016425Y030950D01*
X016425Y029450D01*
X016275Y029300D01*
X015909Y029300D01*
X014275Y029350D02*
X014225Y029300D01*
X014209Y029300D01*
X013540Y031085D02*
X013525Y031100D01*
X013475Y031735D02*
X013490Y031750D01*
X014725Y031750D01*
X014725Y032424D01*
X015225Y032424D02*
X015225Y031750D01*
X015425Y031550D01*
X016175Y031550D01*
X016485Y031860D01*
X016485Y038395D01*
X016485Y039065D02*
X015760Y039065D01*
X015725Y039100D01*
X015725Y039074D01*
X012675Y039085D02*
X011990Y039085D01*
X011975Y039100D01*
X011975Y039074D01*
X012625Y038400D02*
X012675Y038450D01*
X012675Y038415D01*
X012625Y038400D02*
X012625Y031850D01*
X012375Y031600D01*
X011625Y031600D01*
X011475Y031750D01*
X011475Y032424D01*
X010975Y032424D02*
X010975Y031750D01*
X009740Y031750D01*
X009725Y031735D01*
X009951Y032424D02*
X009825Y032550D01*
X009825Y032850D01*
X009800Y032825D01*
X009775Y032825D01*
X009951Y032424D02*
X010475Y032424D01*
X009775Y033495D02*
X009775Y033750D01*
X009901Y033876D01*
X010475Y033876D01*
X008945Y032070D02*
X008525Y031650D01*
X007825Y031650D01*
X007725Y031750D01*
X007725Y032300D01*
X007775Y032350D01*
X007725Y032400D01*
X007725Y032424D01*
X007225Y032424D02*
X007225Y031750D01*
X005959Y031750D01*
X005975Y031735D01*
X006175Y032400D02*
X006775Y032400D01*
X006751Y032424D01*
X006725Y032424D01*
X006175Y032400D02*
X006045Y032530D01*
X006045Y032815D01*
X006045Y033485D02*
X006045Y033870D01*
X006175Y034000D01*
X006675Y034000D01*
X006725Y033950D01*
X006725Y033876D01*
X008945Y032070D02*
X008945Y038415D01*
X008945Y039085D02*
X008290Y039085D01*
X008275Y039100D01*
X008248Y039074D01*
X008225Y039074D01*
X013525Y033800D02*
X013525Y033535D01*
X013525Y033800D02*
X013601Y033876D01*
X014225Y033876D01*
X013525Y032865D02*
X013525Y032850D01*
X013575Y032800D01*
X013575Y032550D01*
X013701Y032424D01*
X014225Y032424D01*
X010475Y030376D02*
X010475Y029350D01*
X010445Y029320D01*
X010439Y029320D01*
X009775Y029350D02*
X009770Y029345D01*
X006725Y029400D02*
X006675Y029350D01*
X006665Y029360D01*
X006629Y029360D01*
X006725Y029400D02*
X006725Y030376D01*
X024175Y031050D02*
X024244Y031050D01*
X024259Y031065D01*
X024275Y031050D01*
X024325Y031100D01*
X025375Y031100D01*
X025375Y031081D01*
X025359Y031065D01*
X025375Y031050D01*
X025375Y030376D01*
X025375Y030300D01*
X025875Y030376D02*
X025875Y029350D01*
X025825Y029300D01*
X025845Y029280D01*
X025860Y029280D01*
X026529Y029280D02*
X027955Y029280D01*
X027960Y029285D01*
X027960Y029270D01*
X027960Y031065D01*
X027959Y031065D01*
X027944Y031050D01*
X027925Y031050D01*
X027925Y031065D01*
X027959Y031065D02*
X027925Y031100D01*
X027959Y031065D02*
X027994Y031100D01*
X029125Y031100D01*
X029125Y030376D01*
X029125Y030300D01*
X029625Y030376D02*
X029625Y029300D01*
X029630Y029295D01*
X029630Y029280D01*
X030299Y029280D02*
X031755Y029280D01*
X031765Y029290D01*
X031670Y029290D01*
X031670Y030995D01*
X031725Y031050D01*
X031775Y031100D01*
X032875Y031100D01*
X032875Y030376D01*
X033375Y030376D02*
X033375Y029300D01*
X033380Y029295D01*
X033380Y029270D01*
X032375Y029350D02*
X032375Y030376D01*
X032840Y031065D02*
X032875Y031100D01*
X032875Y031700D02*
X031709Y031700D01*
X031675Y031735D01*
X031675Y031065D02*
X031675Y031050D01*
X031694Y031050D01*
X031709Y031065D01*
X031725Y031050D01*
X030925Y031800D02*
X030925Y034050D01*
X031775Y034900D01*
X031775Y038100D01*
X031575Y038300D01*
X031025Y038300D01*
X030999Y038325D01*
X030995Y038325D01*
X030995Y038330D01*
X030975Y038350D01*
X030925Y038300D01*
X030980Y038995D02*
X030951Y039024D01*
X030125Y039024D01*
X030980Y038995D02*
X030995Y038995D01*
X027975Y038050D02*
X027675Y038350D01*
X027225Y038350D01*
X027189Y038385D01*
X027205Y038385D01*
X027189Y038385D02*
X027175Y038400D01*
X027225Y039050D02*
X027220Y039055D01*
X027201Y039074D01*
X026375Y039074D01*
X027205Y039055D02*
X027220Y039055D01*
X027975Y038050D02*
X027975Y035100D01*
X027205Y034330D01*
X027205Y031930D01*
X026775Y031500D01*
X026075Y031500D01*
X025875Y031700D01*
X025875Y032424D01*
X025875Y032450D01*
X025875Y032424D02*
X025901Y032424D01*
X025375Y032424D02*
X025375Y031700D01*
X024209Y031700D01*
X024175Y031735D01*
X024175Y031065D02*
X024175Y031050D01*
X024220Y030995D02*
X024275Y031050D01*
X024220Y030995D02*
X024220Y029280D01*
X024875Y029300D02*
X024875Y030376D01*
X024875Y029300D02*
X024889Y029285D01*
X024889Y029280D01*
X025375Y031700D02*
X025340Y031735D01*
X024875Y032424D02*
X024401Y032424D01*
X024225Y032600D01*
X024225Y032800D01*
X024205Y032820D01*
X024205Y032855D01*
X024205Y033525D02*
X024205Y033680D01*
X024345Y033820D01*
X024875Y033820D01*
X024875Y033876D01*
X027925Y031735D02*
X027959Y031700D01*
X029125Y031700D01*
X029125Y032424D01*
X029625Y032424D02*
X029625Y031700D01*
X029775Y031550D01*
X030675Y031550D01*
X030925Y031800D01*
X031675Y032550D02*
X031675Y032800D01*
X031665Y032810D01*
X031665Y032865D01*
X031675Y032550D02*
X031801Y032424D01*
X032375Y032424D01*
X032875Y032424D02*
X032875Y031700D01*
X032840Y031735D01*
X033375Y031750D02*
X033375Y032424D01*
X033375Y031750D02*
X033625Y031500D01*
X034325Y031500D01*
X034725Y031900D01*
X034725Y034150D01*
X035525Y034950D01*
X035525Y037950D01*
X035225Y038250D01*
X034825Y038250D01*
X034775Y038300D01*
X034760Y038285D01*
X034725Y038285D01*
X034725Y038950D02*
X034701Y038974D01*
X033875Y038974D01*
X034725Y038950D02*
X034725Y038955D01*
X037725Y039000D02*
X037739Y039015D01*
X038395Y039015D01*
X038395Y038345D02*
X038729Y038345D01*
X039275Y037800D01*
X039275Y035250D01*
X038375Y034350D01*
X038375Y031650D01*
X038225Y031500D01*
X037375Y031500D01*
X037225Y031650D01*
X037225Y032424D01*
X036775Y032350D02*
X036725Y032300D01*
X036725Y031700D01*
X035509Y031700D01*
X035475Y031735D01*
X035475Y031100D02*
X035475Y031065D01*
X035490Y031085D02*
X035505Y031100D01*
X036725Y031100D01*
X036725Y030376D01*
X036725Y030350D01*
X037225Y030376D02*
X037225Y029400D01*
X037240Y029385D01*
X037240Y029370D01*
X037909Y029370D02*
X039240Y029370D01*
X039240Y031050D01*
X039225Y031050D01*
X039225Y031065D01*
X039240Y031050D02*
X039240Y031085D01*
X039255Y031100D01*
X040475Y031100D01*
X040475Y030376D01*
X040475Y030350D01*
X040975Y030376D02*
X040975Y029450D01*
X040990Y029435D01*
X040990Y029390D01*
X041659Y029390D02*
X043165Y029390D01*
X043175Y029400D01*
X043040Y029400D01*
X043040Y030985D01*
X043155Y031100D01*
X044225Y031100D01*
X045825Y031100D01*
X046025Y030900D01*
X046025Y029650D01*
X045765Y029390D01*
X045409Y029390D01*
X044740Y029390D02*
X044735Y029390D01*
X044725Y029400D01*
X044725Y029450D01*
X044725Y030376D01*
X044225Y030376D02*
X044225Y031100D01*
X044190Y031065D01*
X044225Y031700D02*
X043059Y031700D01*
X043025Y031735D01*
X043025Y031065D02*
X043009Y031050D01*
X042975Y031050D01*
X043040Y030985D01*
X043725Y030376D02*
X043725Y029500D01*
X043675Y029450D01*
X043709Y029415D01*
X043709Y029400D01*
X044225Y030350D02*
X044225Y030376D01*
X044925Y031450D02*
X044725Y031650D01*
X044725Y032424D01*
X044225Y032424D02*
X044225Y031700D01*
X044190Y031735D01*
X044925Y031450D02*
X045675Y031450D01*
X045925Y031700D01*
X045925Y034650D01*
X046875Y035600D01*
X046875Y038050D01*
X046599Y038325D01*
X045915Y038325D01*
X045915Y038340D01*
X045925Y038350D01*
X045919Y038995D02*
X045915Y038995D01*
X045919Y038995D02*
X045925Y039000D01*
X045901Y039024D01*
X045225Y039024D01*
X043075Y037950D02*
X043075Y034950D01*
X042175Y034050D01*
X042175Y031950D01*
X041825Y031600D01*
X041125Y031600D01*
X040975Y031750D01*
X040975Y032424D01*
X040475Y032424D02*
X040475Y031700D01*
X039259Y031700D01*
X039225Y031735D01*
X039225Y031100D02*
X039240Y031085D01*
X039975Y030376D02*
X039975Y029450D01*
X039909Y029385D01*
X039909Y029370D01*
X039275Y029400D02*
X039245Y029370D01*
X039240Y029370D01*
X040440Y031065D02*
X040475Y031100D01*
X040475Y031700D02*
X040440Y031735D01*
X039975Y032424D02*
X039975Y032450D01*
X039425Y032450D01*
X039225Y032650D01*
X039225Y032865D01*
X039225Y033535D02*
X039225Y033750D01*
X039375Y033900D01*
X039975Y033900D01*
X039975Y033876D01*
X042995Y033770D02*
X042995Y033515D01*
X042995Y033770D02*
X043125Y033900D01*
X043725Y033900D01*
X043748Y033876D01*
X043725Y033876D01*
X043748Y033876D02*
X043775Y033850D01*
X042995Y032845D02*
X042995Y032580D01*
X043125Y032450D01*
X043725Y032450D01*
X043725Y032424D01*
X043075Y037950D02*
X042689Y038335D01*
X042165Y038335D01*
X042175Y039000D02*
X042170Y039005D01*
X042151Y039024D01*
X041475Y039024D01*
X042165Y039005D02*
X042170Y039005D01*
X037725Y039024D02*
X037725Y039000D01*
X036225Y033876D02*
X035601Y033876D01*
X035475Y033750D01*
X035475Y033550D01*
X035465Y033540D01*
X035465Y033525D01*
X035465Y032855D02*
X035469Y032855D01*
X035475Y032850D01*
X035475Y032550D01*
X035601Y032424D01*
X036225Y032424D01*
X036725Y032400D02*
X036725Y032424D01*
X036725Y032400D02*
X036775Y032350D01*
X036690Y031735D02*
X036725Y031700D01*
X036725Y031100D02*
X036690Y031065D01*
X036225Y030376D02*
X036225Y029400D01*
X036175Y029350D01*
X036159Y029350D01*
X035490Y029350D02*
X035490Y031085D01*
X035475Y031100D01*
X032375Y029350D02*
X032325Y029300D01*
X032335Y029290D01*
X032339Y029290D01*
X031775Y029300D02*
X031765Y029290D01*
X029125Y031100D02*
X029090Y031065D01*
X029125Y031700D02*
X029090Y031735D01*
X028625Y032424D02*
X028101Y032424D01*
X027975Y032550D01*
X027975Y032850D01*
X027969Y032855D01*
X027955Y032855D01*
X027955Y033525D02*
X027955Y033580D01*
X027975Y033600D01*
X027975Y033750D01*
X028101Y033876D01*
X028625Y033876D01*
X031675Y033800D02*
X031675Y033600D01*
X031665Y033590D01*
X031665Y033535D01*
X031675Y033800D02*
X031751Y033876D01*
X032375Y033876D01*
X028625Y030376D02*
X028625Y029350D01*
X028675Y029300D01*
X028645Y029270D01*
X028629Y029270D01*
X027975Y029300D02*
X027960Y029285D01*
X035525Y012700D02*
X036025Y012700D01*
X036035Y012710D01*
X036050Y012710D01*
X036675Y012750D02*
X036715Y012710D01*
X036725Y012700D01*
X036725Y011674D01*
X037225Y011674D02*
X037225Y010950D01*
X038375Y010950D01*
X038399Y010975D01*
X038425Y011000D01*
X038425Y010985D01*
X038399Y010975D02*
X038399Y012700D01*
X039790Y012700D01*
X040425Y012700D02*
X040475Y012650D01*
X040475Y011674D01*
X040975Y011674D02*
X040975Y010950D01*
X041030Y011005D01*
X042169Y011005D01*
X042169Y011045D01*
X042175Y011050D01*
X042175Y011035D01*
X042169Y011005D02*
X042190Y010985D01*
X042169Y011005D02*
X042169Y012700D01*
X042175Y012700D01*
X042185Y012710D01*
X043630Y012710D01*
X044275Y012750D02*
X044299Y012725D01*
X044325Y012700D01*
X044325Y011674D01*
X044825Y011674D02*
X044825Y010950D01*
X045894Y010950D01*
X046009Y011065D01*
X046025Y011050D01*
X046025Y011035D01*
X046025Y011050D02*
X046075Y011000D01*
X046009Y011065D02*
X046009Y012710D01*
X045340Y012710D02*
X045335Y012710D01*
X045325Y012700D01*
X045325Y011674D01*
X044825Y011674D02*
X044825Y011700D01*
X044859Y010985D02*
X044825Y010950D01*
X044825Y010350D02*
X046009Y010350D01*
X046025Y010365D01*
X045798Y009626D02*
X046075Y009350D01*
X046075Y009305D01*
X045798Y009626D02*
X045325Y009626D01*
X044825Y009626D02*
X044825Y010350D01*
X044325Y010350D02*
X044325Y009626D01*
X044325Y009600D01*
X044825Y009626D02*
X044825Y009600D01*
X044325Y010350D02*
X044225Y010450D01*
X043325Y010450D01*
X043025Y010150D01*
X043025Y003885D01*
X043025Y003215D02*
X043025Y003200D01*
X043088Y003136D01*
X043825Y003136D01*
X039975Y003126D02*
X039948Y003126D01*
X039899Y003175D01*
X039215Y003175D01*
X039225Y003800D02*
X039225Y010250D01*
X039375Y010400D01*
X040375Y010400D01*
X040475Y010300D01*
X040475Y009626D01*
X040975Y009626D02*
X040975Y010350D01*
X040990Y010365D01*
X042175Y010365D01*
X041898Y009626D02*
X041475Y009626D01*
X041898Y009626D02*
X042185Y009340D01*
X042185Y009305D01*
X042185Y008635D02*
X042185Y008610D01*
X041848Y008274D01*
X041475Y008274D01*
X038475Y008600D02*
X038470Y008595D01*
X038148Y008274D01*
X037725Y008274D01*
X038445Y008595D02*
X038470Y008595D01*
X038445Y009265D02*
X038445Y009280D01*
X038098Y009626D01*
X037725Y009626D01*
X037225Y009626D02*
X037225Y010350D01*
X037259Y010315D01*
X038425Y010315D01*
X037275Y010950D02*
X037225Y010950D01*
X037259Y010985D01*
X036575Y010400D02*
X035825Y010400D01*
X035465Y010040D01*
X035465Y003825D01*
X035465Y003155D02*
X035469Y003155D01*
X035498Y003126D01*
X036225Y003126D01*
X039215Y003810D02*
X039215Y003845D01*
X039215Y003810D02*
X039225Y003800D01*
X045325Y008284D02*
X045758Y008284D01*
X046075Y008600D01*
X046075Y008635D01*
X044299Y012710D02*
X044299Y012725D01*
X041500Y012700D02*
X041475Y012700D01*
X041475Y011674D01*
X040975Y011674D02*
X040975Y011700D01*
X041009Y010985D02*
X040975Y010950D01*
X040459Y012700D02*
X040425Y012700D01*
X038399Y012700D02*
X038375Y012700D01*
X037730Y012700D02*
X037730Y012655D01*
X037725Y012650D01*
X037725Y011674D01*
X036719Y012710D02*
X036715Y012710D01*
X036575Y010400D02*
X036725Y010250D01*
X036725Y009626D01*
X036725Y009600D01*
X037225Y009626D02*
X037225Y009600D01*
D32*
X031025Y020650D02*
X027525Y020650D01*
X025475Y022700D01*
X024025Y022700D01*
X017475Y023200D02*
X017475Y023250D01*
X017425Y023250D01*
X016775Y023900D01*
X016775Y024300D01*
X016275Y024800D01*
X015975Y024800D01*
X015525Y024800D01*
X015225Y026550D02*
X015225Y027750D01*
X016475Y027750D01*
X016825Y028100D01*
X016825Y037550D01*
X017375Y038100D01*
X017375Y039250D01*
X019675Y036300D02*
X020340Y036300D01*
X021009Y036300D02*
X021275Y036300D01*
X021475Y036100D01*
X021475Y035700D01*
X024275Y039250D02*
X024275Y039950D01*
X025125Y040800D01*
X029425Y040800D01*
X029449Y040776D01*
X029675Y040550D01*
X030590Y040550D01*
X031259Y040550D02*
X032425Y040550D01*
X032425Y040400D01*
X032425Y040550D02*
X032475Y040600D01*
X032475Y040915D01*
X032475Y041550D02*
X032425Y041600D01*
X031425Y041600D01*
X030637Y041600D02*
X029475Y041600D01*
X029425Y041550D01*
X029451Y041524D01*
X029475Y041524D01*
X029449Y040776D02*
X029475Y040776D01*
X032475Y041550D02*
X032475Y041585D01*
X025725Y041600D02*
X025725Y042100D01*
X025425Y042400D01*
X011025Y042400D01*
X008725Y040100D01*
X005925Y040100D01*
X003725Y037900D01*
X003719Y037894D01*
X003725Y037900D02*
X002175Y037900D01*
X001475Y037200D01*
X001475Y030450D01*
X001475Y025750D01*
X009125Y025750D01*
X009775Y025100D01*
X009775Y024250D01*
X010325Y023700D01*
X010525Y023500D01*
X010525Y023200D01*
X013775Y027750D02*
X013390Y028134D01*
X013375Y028134D01*
X013775Y027750D02*
X015225Y027750D01*
X003275Y030450D02*
X001475Y030450D01*
X001475Y025750D02*
X001475Y017350D01*
X001925Y016900D01*
X003275Y016900D01*
X019875Y012800D02*
X020490Y012800D01*
X020490Y013685D01*
X020275Y013900D01*
X020347Y013900D01*
X021175Y013200D02*
X021175Y012900D01*
X021159Y012885D01*
X021159Y012800D01*
X021175Y013200D02*
X021875Y013900D01*
X023103Y013900D01*
X023075Y013900D01*
X023103Y013928D01*
X023103Y015900D01*
X031025Y020650D02*
X032225Y021850D01*
X035575Y021850D01*
X035575Y023250D01*
X036025Y023700D01*
X037525Y023700D01*
X039575Y025750D01*
X040940Y025750D01*
X041609Y025750D02*
X044175Y025750D01*
X044475Y025450D01*
X044775Y025750D01*
X044990Y025750D01*
X044475Y025450D02*
X045225Y024700D01*
X045625Y024700D01*
X046125Y024700D01*
X046225Y024600D01*
X046290Y024600D01*
X046625Y025050D02*
X046959Y024715D01*
X046959Y024600D01*
X046075Y023800D02*
X046075Y023735D01*
X046075Y023800D02*
X045575Y023800D01*
X045575Y024650D01*
X045625Y024700D01*
X045675Y025350D02*
X045659Y025365D01*
X045659Y025750D01*
X045575Y023800D02*
X044875Y023100D01*
X044675Y023100D01*
X044475Y023100D01*
X043575Y024000D01*
X043075Y024000D01*
X042609Y024000D01*
X041940Y024000D02*
X041525Y024000D01*
X041425Y024100D01*
X042475Y023285D02*
X042859Y023285D01*
X043225Y023650D01*
X042909Y022615D02*
X042475Y022615D01*
X042909Y022615D02*
X042975Y022550D01*
X044659Y022485D02*
X044675Y022500D01*
X044675Y022485D01*
X044675Y022500D02*
X044675Y023100D01*
X044675Y021815D02*
X044675Y021350D01*
X046075Y023065D02*
X046340Y023065D01*
X046625Y023350D01*
X037975Y022750D02*
X037959Y022735D01*
X037959Y022300D01*
X037290Y022300D02*
X036875Y022300D01*
X037125Y021500D02*
X037540Y021500D01*
X025725Y041600D02*
X025712Y041600D01*
D33*
X022275Y012600D02*
X021425Y011750D01*
X020225Y011750D01*
X020225Y011760D01*
X019325Y011850D02*
X019325Y008300D01*
X019583Y008042D01*
X020185Y008042D01*
X020185Y009538D02*
X020175Y009548D01*
X020175Y010590D01*
X020225Y010640D01*
X011278Y009400D02*
X011278Y007853D01*
X011254Y007830D01*
X011254Y007800D01*
X009695Y007800D02*
X009695Y007830D01*
X009675Y007850D01*
X009675Y007851D01*
X009675Y009400D01*
D34*
X007175Y007400D03*
X006525Y007400D03*
X005875Y007400D03*
X004875Y006350D03*
X004875Y005850D03*
X005825Y003950D03*
X006475Y003950D03*
X007175Y003950D03*
X011825Y005850D03*
X011825Y006350D03*
X012825Y007400D03*
X013475Y007400D03*
X014125Y007400D03*
X015575Y006350D03*
X015575Y005850D03*
X016575Y007400D03*
X017225Y007400D03*
X017875Y007400D03*
X017475Y010300D03*
X017475Y011000D03*
X019325Y011350D03*
X019325Y011850D03*
X019875Y012800D03*
X017975Y013150D03*
X016925Y013250D03*
X014275Y013250D03*
X013225Y013250D03*
X013375Y014650D03*
X012575Y015550D03*
X012225Y016850D03*
X011675Y017000D03*
X013025Y017550D03*
X014925Y016400D03*
X015575Y016500D03*
X016225Y015900D03*
X017225Y018100D03*
X017225Y018750D03*
X017225Y019950D03*
X017225Y021150D03*
X017225Y021750D03*
X017225Y022400D03*
X018375Y023450D03*
X019225Y023450D03*
X020725Y023450D03*
X021975Y022700D03*
X022525Y023400D03*
X024025Y023450D03*
X024025Y022700D03*
X024025Y022100D03*
X024025Y021150D03*
X024025Y020150D03*
X024025Y019450D03*
X024025Y018450D03*
X024025Y017950D03*
X024025Y016700D03*
X022925Y016700D03*
X022175Y016700D03*
X021175Y016750D03*
X020525Y016750D03*
X019925Y017350D03*
X019225Y016700D03*
X018675Y016700D03*
X022725Y020150D03*
X025775Y019000D03*
X025625Y018150D03*
X025725Y016900D03*
X026875Y015750D03*
X026475Y015300D03*
X027375Y016100D03*
X028275Y016900D03*
X029375Y016850D03*
X030375Y018100D03*
X031325Y017200D03*
X032325Y016050D03*
X034125Y017900D03*
X033575Y018150D03*
X033125Y019550D03*
X032725Y020050D03*
X032975Y020600D03*
X032325Y020900D03*
X034175Y020500D03*
X035375Y020150D03*
X036525Y019750D03*
X037725Y019850D03*
X038575Y020100D03*
X038775Y019150D03*
X039475Y019000D03*
X039625Y019500D03*
X040075Y019500D03*
X040725Y017650D03*
X040725Y016900D03*
X041125Y016050D03*
X040375Y015800D03*
X037925Y015800D03*
X037825Y016850D03*
X036525Y017150D03*
X035925Y017500D03*
X036075Y016550D03*
X036575Y015800D03*
X036675Y018250D03*
X035425Y018350D03*
X036425Y021500D03*
X037125Y021500D03*
X036875Y022300D03*
X037125Y022950D03*
X037975Y022750D03*
X038575Y022950D03*
X038575Y022050D03*
X038575Y021250D03*
X040375Y021850D03*
X041125Y022600D03*
X041425Y024100D03*
X040725Y024450D03*
X042375Y024850D03*
X043075Y024000D03*
X043225Y023650D03*
X044225Y024050D03*
X044725Y024050D03*
X044725Y024550D03*
X044225Y024550D03*
X044475Y025450D03*
X045675Y025350D03*
X045625Y024700D03*
X045575Y023800D03*
X044675Y023100D03*
X042975Y022550D03*
X044675Y021350D03*
X045925Y021400D03*
X046725Y022500D03*
X046625Y023350D03*
X047225Y023850D03*
X048075Y023550D03*
X046625Y025050D03*
X042375Y026750D03*
X041975Y028400D03*
X041725Y028750D03*
X040475Y031100D03*
X040475Y031700D03*
X040725Y034750D03*
X041375Y034750D03*
X040075Y034750D03*
X038525Y035800D03*
X038525Y036250D03*
X037575Y034750D03*
X036975Y034750D03*
X036275Y034750D03*
X034725Y036650D03*
X034725Y037150D03*
X033875Y038150D03*
X033125Y038150D03*
X032425Y038150D03*
X031025Y037150D03*
X031025Y036650D03*
X030125Y038200D03*
X029375Y038200D03*
X028675Y038200D03*
X027225Y037150D03*
X027225Y036650D03*
X026375Y038250D03*
X025625Y038250D03*
X024925Y038250D03*
X024275Y039250D03*
X020225Y037800D03*
X019575Y038000D03*
X019675Y036300D03*
X019225Y035500D03*
X019225Y034950D03*
X019325Y033350D03*
X019025Y032200D03*
X019875Y030450D03*
X020875Y029000D03*
X021475Y029400D03*
X022275Y029750D03*
X023225Y030350D03*
X024175Y028300D03*
X026725Y028600D03*
X027075Y028200D03*
X029375Y028650D03*
X030025Y028200D03*
X030875Y027750D03*
X031325Y027750D03*
X031825Y027750D03*
X034225Y026500D03*
X034625Y028300D03*
X034425Y028700D03*
X034375Y029900D03*
X032875Y031100D03*
X032875Y031700D03*
X033125Y034750D03*
X032425Y034750D03*
X033775Y034750D03*
X036725Y031700D03*
X036725Y031100D03*
X038425Y028700D03*
X038925Y028150D03*
X038075Y026400D03*
X037575Y026400D03*
X036975Y026400D03*
X036575Y025650D03*
X036325Y025300D03*
X036025Y025650D03*
X035475Y024400D03*
X035175Y023700D03*
X034125Y023000D03*
X033125Y022650D03*
X031725Y023700D03*
X032225Y024050D03*
X030625Y023700D03*
X029525Y022450D03*
X028975Y023400D03*
X028275Y022100D03*
X027775Y021750D03*
X027225Y022350D03*
X027775Y021050D03*
X027625Y020200D03*
X028775Y021400D03*
X029475Y021350D03*
X029675Y020300D03*
X030175Y019950D03*
X030625Y019400D03*
X029375Y019000D03*
X028825Y018450D03*
X026075Y014800D03*
X025525Y014800D03*
X025025Y014750D03*
X024525Y014750D03*
X023925Y014700D03*
X029625Y010150D03*
X030375Y010350D03*
X031475Y012750D03*
X031925Y012750D03*
X032325Y012750D03*
X032725Y012750D03*
X033125Y012750D03*
X034125Y012750D03*
X034925Y012900D03*
X035525Y012700D03*
X036725Y013250D03*
X037725Y013250D03*
X037225Y010950D03*
X037225Y010350D03*
X040425Y013250D03*
X041475Y013250D03*
X042625Y013050D03*
X040975Y010950D03*
X040975Y010350D03*
X040725Y007400D03*
X041375Y007400D03*
X040075Y007400D03*
X038625Y006350D03*
X038625Y005850D03*
X037625Y007400D03*
X036975Y007400D03*
X036325Y007400D03*
X036325Y003950D03*
X036975Y003950D03*
X037625Y003950D03*
X040075Y003950D03*
X040725Y003950D03*
X041375Y003950D03*
X042325Y005850D03*
X042325Y006350D03*
X043925Y007400D03*
X044575Y007400D03*
X045225Y007400D03*
X046225Y006350D03*
X046225Y005850D03*
X045225Y003950D03*
X044575Y003950D03*
X043925Y003950D03*
X047525Y008800D03*
X047625Y009250D03*
X049325Y008550D03*
X049725Y008250D03*
X044825Y010350D03*
X044825Y010950D03*
X045375Y015600D03*
X046575Y017300D03*
X046725Y018200D03*
X038375Y025100D03*
X038275Y025500D03*
X037675Y025400D03*
X035575Y021850D03*
X030625Y024800D03*
X027275Y024050D03*
X026775Y024100D03*
X025775Y024100D03*
X024075Y024950D03*
X020375Y028400D03*
X019275Y027850D03*
X018925Y027450D03*
X018775Y026600D03*
X018575Y026100D03*
X017075Y026300D03*
X016975Y025750D03*
X015975Y025300D03*
X015525Y025300D03*
X015525Y024800D03*
X015975Y024800D03*
X015725Y023700D03*
X015225Y023500D03*
X014025Y023900D03*
X013475Y023900D03*
X012925Y023850D03*
X012375Y023800D03*
X011825Y023750D03*
X011775Y023150D03*
X011675Y022600D03*
X011175Y022600D03*
X010525Y023200D03*
X010325Y023700D03*
X009725Y025700D03*
X009225Y026550D03*
X009225Y028400D03*
X012375Y028500D03*
X014225Y028650D03*
X014725Y026900D03*
X015225Y026550D03*
X016325Y028550D03*
X017675Y029200D03*
X017875Y028150D03*
X014725Y031100D03*
X014725Y031750D03*
X014975Y034750D03*
X015575Y034750D03*
X014275Y034750D03*
X013375Y035750D03*
X013375Y036250D03*
X011875Y034750D03*
X011225Y034750D03*
X010525Y034750D03*
X009625Y035800D03*
X009625Y036300D03*
X008075Y034750D03*
X007475Y034750D03*
X006775Y034750D03*
X005875Y035800D03*
X005875Y036300D03*
X004475Y035800D03*
X002775Y035900D03*
X002475Y036300D03*
X002125Y036650D03*
X003725Y037900D03*
X006775Y038250D03*
X007475Y038250D03*
X008225Y038250D03*
X010525Y038250D03*
X011225Y038250D03*
X011975Y038250D03*
X014275Y038250D03*
X014975Y038250D03*
X015725Y038250D03*
X017375Y039250D03*
X021475Y035700D03*
X024925Y034750D03*
X025625Y034750D03*
X026275Y034750D03*
X028675Y034750D03*
X029375Y034750D03*
X030025Y034750D03*
X029125Y031700D03*
X029125Y031100D03*
X025375Y031100D03*
X025375Y031700D03*
X032425Y040400D03*
X036275Y038200D03*
X036975Y038200D03*
X037725Y038200D03*
X040025Y038200D03*
X040725Y038200D03*
X041475Y038200D03*
X042325Y036250D03*
X042325Y035800D03*
X043825Y034750D03*
X044475Y034750D03*
X045125Y034750D03*
X047475Y034900D03*
X048225Y032450D03*
X044225Y031700D03*
X044225Y031100D03*
X046075Y037150D03*
X046075Y037600D03*
X045225Y038200D03*
X044475Y038200D03*
X043775Y038200D03*
X019775Y021950D03*
X011775Y021350D03*
X011725Y020900D03*
X011525Y020550D03*
X011175Y020300D03*
X011225Y020900D03*
X011475Y019750D03*
X009025Y018250D03*
X008375Y017500D03*
X008275Y014850D03*
X007675Y014850D03*
X007275Y013500D03*
X005725Y014750D03*
X006775Y011050D03*
X006775Y010350D03*
X002825Y010100D03*
X012775Y003950D03*
X013425Y003950D03*
X014125Y003950D03*
X016525Y003950D03*
X017225Y003950D03*
X017875Y003950D03*
X013725Y010300D03*
X013725Y011000D03*
X005825Y020650D03*
X003725Y020700D03*
X002325Y021650D03*
X002325Y022100D03*
X002325Y022500D03*
X002325Y022950D03*
X002325Y023350D03*
X002325Y023750D03*
X003725Y024600D03*
X005175Y024450D03*
X005175Y023950D03*
X005175Y023450D03*
X005675Y023050D03*
X006125Y023050D03*
X006525Y023450D03*
X006525Y024350D03*
X006125Y024800D03*
X005675Y024800D03*
X005625Y027100D03*
X005625Y028950D03*
X007225Y031100D03*
X007225Y031750D03*
X010975Y031750D03*
X010975Y031100D03*
X033525Y010850D03*
M02*
