G75*
G70*
%OFA0B0*%
%FSLAX24Y24*%
%IPPOS*%
%LPD*%
%AMOC8*
5,1,8,0,0,1.08239X$1,22.5*
%
%ADD10C,0.0080*%
%ADD11R,0.0193X0.0433*%
%ADD12C,0.0040*%
%ADD13C,0.0060*%
%ADD14R,0.0340X0.0160*%
%ADD15R,0.0197X0.0374*%
%ADD16R,0.0374X0.0197*%
%ADD17R,0.0160X0.0340*%
%ADD18C,0.0100*%
%ADD19R,0.0335X0.0295*%
%ADD20R,0.0531X0.0354*%
%ADD21R,0.0551X0.0256*%
%ADD22C,0.0050*%
%ADD23R,0.0690X0.0290*%
%ADD24C,0.0060*%
%ADD25R,0.0217X0.0866*%
%ADD26R,0.0441X0.1512*%
D10*
X005560Y003402D02*
X007449Y003402D01*
X007449Y003599D01*
X005560Y003599D01*
X005560Y003402D01*
X005560Y003599D02*
X005560Y004898D01*
X007449Y004898D01*
X007449Y003599D01*
X007449Y006502D02*
X005560Y006502D01*
X005560Y007801D01*
X007449Y007801D01*
X007449Y007998D01*
X005560Y007998D01*
X005560Y007801D01*
X007449Y007801D02*
X007449Y006502D01*
X007449Y009902D02*
X005560Y009902D01*
X005560Y011201D01*
X007449Y011201D01*
X007449Y011398D01*
X005560Y011398D01*
X005560Y011201D01*
X007449Y011201D02*
X007449Y009902D01*
X012510Y009902D02*
X014399Y009902D01*
X014399Y011201D01*
X012510Y011201D01*
X012510Y009902D01*
X012510Y011201D02*
X012510Y011398D01*
X014399Y011398D01*
X014399Y011201D01*
X016260Y011201D02*
X016260Y009902D01*
X018149Y009902D01*
X018149Y011201D01*
X016260Y011201D01*
X016260Y011398D01*
X018149Y011398D01*
X018149Y011201D01*
X018149Y007998D02*
X016260Y007998D01*
X016260Y007801D01*
X018149Y007801D01*
X018149Y007998D01*
X018149Y007801D02*
X018149Y006502D01*
X016260Y006502D01*
X016260Y007801D01*
X014399Y007801D02*
X014399Y006502D01*
X012510Y006502D01*
X012510Y007801D01*
X014399Y007801D01*
X014399Y007998D01*
X012510Y007998D01*
X012510Y007801D01*
X012510Y004898D02*
X014399Y004898D01*
X014399Y003599D01*
X012510Y003599D01*
X012510Y003402D01*
X014399Y003402D01*
X014399Y003599D01*
X016260Y003599D02*
X016260Y003402D01*
X018149Y003402D01*
X018149Y003599D01*
X016260Y003599D01*
X016260Y004898D01*
X018149Y004898D01*
X018149Y003599D01*
X012510Y003599D02*
X012510Y004898D01*
X026570Y023572D02*
X028459Y023572D01*
X028459Y023769D01*
X026570Y023769D01*
X026570Y023572D01*
X026570Y023769D02*
X026570Y025068D01*
X028459Y025068D01*
X028459Y023769D01*
X028430Y030652D02*
X030319Y030652D01*
X030319Y030849D01*
X028430Y030849D01*
X028430Y030652D01*
X028430Y030849D02*
X028430Y032148D01*
X030319Y032148D01*
X030319Y030849D01*
X032180Y030849D02*
X034069Y030849D01*
X034069Y032148D01*
X032180Y032148D01*
X032180Y030849D01*
X032180Y030652D01*
X034069Y030652D01*
X034069Y030849D01*
X036030Y030849D02*
X037919Y030849D01*
X037919Y032148D01*
X036030Y032148D01*
X036030Y030849D01*
X036030Y030652D01*
X037919Y030652D01*
X037919Y030849D01*
X039780Y030849D02*
X041669Y030849D01*
X041669Y032148D01*
X039780Y032148D01*
X039780Y030849D01*
X039780Y030652D01*
X041669Y030652D01*
X041669Y030849D01*
X043530Y030849D02*
X043530Y032148D01*
X045419Y032148D01*
X045419Y030849D01*
X043530Y030849D01*
X043530Y030652D01*
X045419Y030652D01*
X045419Y030849D01*
X045419Y034152D02*
X043530Y034152D01*
X043530Y034349D01*
X045419Y034349D01*
X045419Y035648D01*
X043530Y035648D01*
X043530Y034349D01*
X041669Y034349D02*
X041669Y035648D01*
X039780Y035648D01*
X039780Y034349D01*
X041669Y034349D01*
X041669Y034152D01*
X039780Y034152D01*
X039780Y034349D01*
X037919Y034349D02*
X036030Y034349D01*
X036030Y034152D01*
X037919Y034152D01*
X037919Y034349D01*
X037919Y035648D01*
X036030Y035648D01*
X036030Y034349D01*
X034069Y034349D02*
X032180Y034349D01*
X032180Y034152D01*
X034069Y034152D01*
X034069Y034349D01*
X034069Y035648D01*
X032180Y035648D01*
X032180Y034349D01*
X030319Y034349D02*
X028430Y034349D01*
X028430Y034152D01*
X030319Y034152D01*
X030319Y034349D01*
X030319Y035648D01*
X028430Y035648D01*
X028430Y034349D01*
X026569Y034349D02*
X026569Y035648D01*
X024680Y035648D01*
X024680Y034349D01*
X026569Y034349D01*
X026569Y034152D01*
X024680Y034152D01*
X024680Y034349D01*
X024680Y032148D02*
X026569Y032148D01*
X026569Y030849D01*
X024680Y030849D01*
X024680Y030652D01*
X026569Y030652D01*
X026569Y030849D01*
X024680Y030849D02*
X024680Y032148D01*
X024680Y037302D02*
X026569Y037302D01*
X026569Y038601D01*
X024680Y038601D01*
X024680Y037302D01*
X024680Y038601D02*
X024680Y038798D01*
X026569Y038798D01*
X026569Y038601D01*
X028430Y038551D02*
X028430Y037252D01*
X030319Y037252D01*
X030319Y038551D01*
X028430Y038551D01*
X028430Y038748D01*
X030319Y038748D01*
X030319Y038551D01*
X032180Y038501D02*
X032180Y037202D01*
X034069Y037202D01*
X034069Y038501D01*
X032180Y038501D01*
X032180Y038698D01*
X034069Y038698D01*
X034069Y038501D01*
X036030Y038551D02*
X036030Y037252D01*
X037919Y037252D01*
X037919Y038551D01*
X036030Y038551D01*
X036030Y038748D01*
X037919Y038748D01*
X037919Y038551D01*
X039780Y038551D02*
X039780Y037252D01*
X041669Y037252D01*
X041669Y038551D01*
X039780Y038551D01*
X039780Y038748D01*
X041669Y038748D01*
X041669Y038551D01*
X043530Y038551D02*
X043530Y037252D01*
X045419Y037252D01*
X045419Y038551D01*
X043530Y038551D01*
X043530Y038748D01*
X045419Y038748D01*
X045419Y038551D01*
X045419Y034349D02*
X045419Y034152D01*
X045519Y011398D02*
X043630Y011398D01*
X043630Y011201D01*
X045519Y011201D01*
X045519Y011398D01*
X045519Y011201D02*
X045519Y009902D01*
X043630Y009902D01*
X043630Y011201D01*
X041669Y011201D02*
X041669Y009902D01*
X039780Y009902D01*
X039780Y011201D01*
X041669Y011201D01*
X041669Y011398D01*
X039780Y011398D01*
X039780Y011201D01*
X037919Y011201D02*
X037919Y009902D01*
X036030Y009902D01*
X036030Y011201D01*
X037919Y011201D01*
X037919Y011398D01*
X036030Y011398D01*
X036030Y011201D01*
X036030Y007998D02*
X036030Y007801D01*
X037919Y007801D01*
X037919Y007998D01*
X036030Y007998D01*
X036030Y007801D02*
X036030Y006502D01*
X037919Y006502D01*
X037919Y007801D01*
X039780Y007801D02*
X039780Y006502D01*
X041669Y006502D01*
X041669Y007801D01*
X039780Y007801D01*
X039780Y007998D01*
X041669Y007998D01*
X041669Y007801D01*
X043630Y007811D02*
X043630Y006512D01*
X045519Y006512D01*
X045519Y007811D01*
X043630Y007811D01*
X043630Y008008D01*
X045519Y008008D01*
X045519Y007811D01*
X045519Y004908D02*
X043630Y004908D01*
X043630Y003609D01*
X045519Y003609D01*
X045519Y004908D01*
X045519Y003609D02*
X045519Y003412D01*
X043630Y003412D01*
X043630Y003609D01*
X041669Y003599D02*
X041669Y003402D01*
X039780Y003402D01*
X039780Y003599D01*
X041669Y003599D01*
X041669Y004898D01*
X039780Y004898D01*
X039780Y003599D01*
X037919Y003599D02*
X037919Y003402D01*
X036030Y003402D01*
X036030Y003599D01*
X037919Y003599D01*
X037919Y004898D01*
X036030Y004898D01*
X036030Y003599D01*
X012963Y026150D02*
X012965Y026190D01*
X012971Y026230D01*
X012981Y026270D01*
X012994Y026308D01*
X013012Y026344D01*
X013032Y026379D01*
X013057Y026411D01*
X013084Y026441D01*
X013114Y026468D01*
X013146Y026493D01*
X013181Y026513D01*
X013217Y026531D01*
X013255Y026544D01*
X013295Y026554D01*
X013335Y026560D01*
X013375Y026562D01*
X013415Y026560D01*
X013455Y026554D01*
X013495Y026544D01*
X013533Y026531D01*
X013569Y026513D01*
X013604Y026493D01*
X013636Y026468D01*
X013666Y026441D01*
X013693Y026411D01*
X013718Y026379D01*
X013738Y026344D01*
X013756Y026308D01*
X013769Y026270D01*
X013779Y026230D01*
X013785Y026190D01*
X013787Y026150D01*
X013785Y026110D01*
X013779Y026070D01*
X013769Y026030D01*
X013756Y025992D01*
X013738Y025956D01*
X013718Y025921D01*
X013693Y025889D01*
X013666Y025859D01*
X013636Y025832D01*
X013604Y025807D01*
X013569Y025787D01*
X013533Y025769D01*
X013495Y025756D01*
X013455Y025746D01*
X013415Y025740D01*
X013375Y025738D01*
X013335Y025740D01*
X013295Y025746D01*
X013255Y025756D01*
X013217Y025769D01*
X013181Y025787D01*
X013146Y025807D01*
X013114Y025832D01*
X013084Y025859D01*
X013057Y025889D01*
X013032Y025921D01*
X013012Y025956D01*
X012994Y025992D01*
X012981Y026030D01*
X012971Y026070D01*
X012965Y026110D01*
X012963Y026150D01*
X012963Y028150D02*
X012965Y028190D01*
X012971Y028230D01*
X012981Y028270D01*
X012994Y028308D01*
X013012Y028344D01*
X013032Y028379D01*
X013057Y028411D01*
X013084Y028441D01*
X013114Y028468D01*
X013146Y028493D01*
X013181Y028513D01*
X013217Y028531D01*
X013255Y028544D01*
X013295Y028554D01*
X013335Y028560D01*
X013375Y028562D01*
X013415Y028560D01*
X013455Y028554D01*
X013495Y028544D01*
X013533Y028531D01*
X013569Y028513D01*
X013604Y028493D01*
X013636Y028468D01*
X013666Y028441D01*
X013693Y028411D01*
X013718Y028379D01*
X013738Y028344D01*
X013756Y028308D01*
X013769Y028270D01*
X013779Y028230D01*
X013785Y028190D01*
X013787Y028150D01*
X013785Y028110D01*
X013779Y028070D01*
X013769Y028030D01*
X013756Y027992D01*
X013738Y027956D01*
X013718Y027921D01*
X013693Y027889D01*
X013666Y027859D01*
X013636Y027832D01*
X013604Y027807D01*
X013569Y027787D01*
X013533Y027769D01*
X013495Y027756D01*
X013455Y027746D01*
X013415Y027740D01*
X013375Y027738D01*
X013335Y027740D01*
X013295Y027746D01*
X013255Y027756D01*
X013217Y027769D01*
X013181Y027787D01*
X013146Y027807D01*
X013114Y027832D01*
X013084Y027859D01*
X013057Y027889D01*
X013032Y027921D01*
X013012Y027956D01*
X012994Y027992D01*
X012981Y028030D01*
X012971Y028070D01*
X012965Y028110D01*
X012963Y028150D01*
X012169Y030652D02*
X010280Y030652D01*
X010280Y030849D01*
X012169Y030849D01*
X012169Y032148D01*
X010280Y032148D01*
X010280Y030849D01*
X008419Y030849D02*
X006530Y030849D01*
X006530Y030652D01*
X008419Y030652D01*
X008419Y030849D01*
X008419Y032148D01*
X006530Y032148D01*
X006530Y030849D01*
X006530Y034152D02*
X008419Y034152D01*
X008419Y034349D01*
X006530Y034349D01*
X006530Y034152D01*
X006530Y034349D02*
X006530Y035648D01*
X008419Y035648D01*
X008419Y034349D01*
X010280Y034349D02*
X012169Y034349D01*
X012169Y035648D01*
X010280Y035648D01*
X010280Y034349D01*
X010280Y034152D01*
X012169Y034152D01*
X012169Y034349D01*
X014030Y034349D02*
X014030Y035648D01*
X015919Y035648D01*
X015919Y034349D01*
X014030Y034349D01*
X014030Y034152D01*
X015919Y034152D01*
X015919Y034349D01*
X015919Y032148D02*
X014030Y032148D01*
X014030Y030849D01*
X015919Y030849D01*
X015919Y032148D01*
X015919Y030849D02*
X015919Y030652D01*
X014030Y030652D01*
X014030Y030849D01*
X012169Y030849D02*
X012169Y030652D01*
X012169Y037302D02*
X010280Y037302D01*
X010280Y038601D01*
X012169Y038601D01*
X012169Y038798D01*
X010280Y038798D01*
X010280Y038601D01*
X008419Y038601D02*
X008419Y037302D01*
X006530Y037302D01*
X006530Y038601D01*
X008419Y038601D01*
X008419Y038798D01*
X006530Y038798D01*
X006530Y038601D01*
X012169Y038601D02*
X012169Y037302D01*
X014030Y037302D02*
X014030Y038601D01*
X015919Y038601D01*
X015919Y038798D01*
X014030Y038798D01*
X014030Y038601D01*
X014030Y037302D02*
X015919Y037302D01*
X015919Y038601D01*
D11*
X015725Y039054D03*
X015225Y039054D03*
X014725Y039054D03*
X014225Y039054D03*
X011975Y039054D03*
X011475Y039054D03*
X010975Y039054D03*
X010475Y039054D03*
X008225Y039054D03*
X007725Y039054D03*
X007225Y039054D03*
X006725Y039054D03*
X006725Y037046D03*
X007225Y037046D03*
X007725Y037046D03*
X008225Y037046D03*
X008225Y035904D03*
X007725Y035904D03*
X007225Y035904D03*
X006725Y035904D03*
X006725Y033896D03*
X007225Y033896D03*
X007725Y033896D03*
X008225Y033896D03*
X008225Y032404D03*
X007725Y032404D03*
X007225Y032404D03*
X006725Y032404D03*
X006725Y030396D03*
X007225Y030396D03*
X007725Y030396D03*
X008225Y030396D03*
X010475Y030396D03*
X010975Y030396D03*
X011475Y030396D03*
X011975Y030396D03*
X014225Y030396D03*
X014725Y030396D03*
X015225Y030396D03*
X015725Y030396D03*
X015725Y032404D03*
X015225Y032404D03*
X014725Y032404D03*
X014225Y032404D03*
X014225Y033896D03*
X014725Y033896D03*
X015225Y033896D03*
X015725Y033896D03*
X015725Y035904D03*
X015225Y035904D03*
X014725Y035904D03*
X014225Y035904D03*
X014225Y037046D03*
X014725Y037046D03*
X015225Y037046D03*
X015725Y037046D03*
X011975Y037046D03*
X011475Y037046D03*
X010975Y037046D03*
X010475Y037046D03*
X010475Y035904D03*
X010975Y035904D03*
X011475Y035904D03*
X011975Y035904D03*
X011975Y033896D03*
X011475Y033896D03*
X010975Y033896D03*
X010475Y033896D03*
X010475Y032404D03*
X010975Y032404D03*
X011475Y032404D03*
X011975Y032404D03*
X024875Y032404D03*
X025375Y032404D03*
X025875Y032404D03*
X026375Y032404D03*
X026375Y033896D03*
X025875Y033896D03*
X025375Y033896D03*
X024875Y033896D03*
X024875Y035904D03*
X025375Y035904D03*
X025875Y035904D03*
X026375Y035904D03*
X026375Y037046D03*
X025875Y037046D03*
X025375Y037046D03*
X024875Y037046D03*
X024875Y039054D03*
X025375Y039054D03*
X025875Y039054D03*
X026375Y039054D03*
X028625Y039004D03*
X029125Y039004D03*
X029625Y039004D03*
X030125Y039004D03*
X030125Y036996D03*
X029625Y036996D03*
X029125Y036996D03*
X028625Y036996D03*
X028625Y035904D03*
X029125Y035904D03*
X029625Y035904D03*
X030125Y035904D03*
X032375Y035904D03*
X032875Y035904D03*
X033375Y035904D03*
X033875Y035904D03*
X033875Y036946D03*
X033375Y036946D03*
X032875Y036946D03*
X032375Y036946D03*
X032375Y038954D03*
X032875Y038954D03*
X033375Y038954D03*
X033875Y038954D03*
X036225Y039004D03*
X036725Y039004D03*
X037225Y039004D03*
X037725Y039004D03*
X037725Y036996D03*
X037225Y036996D03*
X036725Y036996D03*
X036225Y036996D03*
X036225Y035904D03*
X036725Y035904D03*
X037225Y035904D03*
X037725Y035904D03*
X039975Y035904D03*
X040475Y035904D03*
X040975Y035904D03*
X041475Y035904D03*
X041475Y036996D03*
X040975Y036996D03*
X040475Y036996D03*
X039975Y036996D03*
X039975Y039004D03*
X040475Y039004D03*
X040975Y039004D03*
X041475Y039004D03*
X043725Y039004D03*
X044225Y039004D03*
X044725Y039004D03*
X045225Y039004D03*
X045225Y036996D03*
X044725Y036996D03*
X044225Y036996D03*
X043725Y036996D03*
X043725Y035904D03*
X044225Y035904D03*
X044725Y035904D03*
X045225Y035904D03*
X045225Y033896D03*
X044725Y033896D03*
X044225Y033896D03*
X043725Y033896D03*
X043725Y032404D03*
X044225Y032404D03*
X044725Y032404D03*
X045225Y032404D03*
X045225Y030396D03*
X044725Y030396D03*
X044225Y030396D03*
X043725Y030396D03*
X041475Y030396D03*
X040975Y030396D03*
X040475Y030396D03*
X039975Y030396D03*
X037725Y030396D03*
X037225Y030396D03*
X036725Y030396D03*
X036225Y030396D03*
X033875Y030396D03*
X033375Y030396D03*
X032875Y030396D03*
X032375Y030396D03*
X030125Y030396D03*
X029625Y030396D03*
X029125Y030396D03*
X028625Y030396D03*
X026375Y030396D03*
X025875Y030396D03*
X025375Y030396D03*
X024875Y030396D03*
X028625Y032404D03*
X029125Y032404D03*
X029625Y032404D03*
X030125Y032404D03*
X030125Y033896D03*
X029625Y033896D03*
X029125Y033896D03*
X028625Y033896D03*
X032375Y033896D03*
X032875Y033896D03*
X033375Y033896D03*
X033875Y033896D03*
X033875Y032404D03*
X033375Y032404D03*
X032875Y032404D03*
X032375Y032404D03*
X036225Y032404D03*
X036725Y032404D03*
X037225Y032404D03*
X037725Y032404D03*
X037725Y033896D03*
X037225Y033896D03*
X036725Y033896D03*
X036225Y033896D03*
X039975Y033896D03*
X040475Y033896D03*
X040975Y033896D03*
X041475Y033896D03*
X041475Y032404D03*
X040975Y032404D03*
X040475Y032404D03*
X039975Y032404D03*
X028265Y025324D03*
X027765Y025324D03*
X027265Y025324D03*
X026765Y025324D03*
X026765Y023316D03*
X027265Y023316D03*
X027765Y023316D03*
X028265Y023316D03*
X036225Y011654D03*
X036725Y011654D03*
X037225Y011654D03*
X037725Y011654D03*
X037725Y009646D03*
X037225Y009646D03*
X036725Y009646D03*
X036225Y009646D03*
X036225Y008254D03*
X036725Y008254D03*
X037225Y008254D03*
X037725Y008254D03*
X039975Y008254D03*
X040475Y008254D03*
X040975Y008254D03*
X041475Y008254D03*
X041475Y009646D03*
X040975Y009646D03*
X040475Y009646D03*
X039975Y009646D03*
X039975Y011654D03*
X040475Y011654D03*
X040975Y011654D03*
X041475Y011654D03*
X043825Y011654D03*
X044325Y011654D03*
X044825Y011654D03*
X045325Y011654D03*
X045325Y009646D03*
X044825Y009646D03*
X044325Y009646D03*
X043825Y009646D03*
X043825Y008264D03*
X044325Y008264D03*
X044825Y008264D03*
X045325Y008264D03*
X045325Y006256D03*
X044825Y006256D03*
X044325Y006256D03*
X043825Y006256D03*
X043825Y005164D03*
X044325Y005164D03*
X044825Y005164D03*
X045325Y005164D03*
X045325Y003156D03*
X044825Y003156D03*
X044325Y003156D03*
X043825Y003156D03*
X041475Y003146D03*
X040975Y003146D03*
X040475Y003146D03*
X039975Y003146D03*
X039975Y005154D03*
X040475Y005154D03*
X040975Y005154D03*
X041475Y005154D03*
X041475Y006246D03*
X040975Y006246D03*
X040475Y006246D03*
X039975Y006246D03*
X037725Y006246D03*
X037225Y006246D03*
X036725Y006246D03*
X036225Y006246D03*
X036225Y005154D03*
X036725Y005154D03*
X037225Y005154D03*
X037725Y005154D03*
X037725Y003146D03*
X037225Y003146D03*
X036725Y003146D03*
X036225Y003146D03*
X017955Y003146D03*
X017455Y003146D03*
X016955Y003146D03*
X016455Y003146D03*
X016455Y005154D03*
X016955Y005154D03*
X017455Y005154D03*
X017955Y005154D03*
X017955Y006246D03*
X017455Y006246D03*
X016955Y006246D03*
X016455Y006246D03*
X016455Y008254D03*
X016955Y008254D03*
X017455Y008254D03*
X017955Y008254D03*
X017955Y009646D03*
X017455Y009646D03*
X016955Y009646D03*
X016455Y009646D03*
X016455Y011654D03*
X016955Y011654D03*
X017455Y011654D03*
X017955Y011654D03*
X014205Y011654D03*
X013705Y011654D03*
X013205Y011654D03*
X012705Y011654D03*
X012705Y009646D03*
X013205Y009646D03*
X013705Y009646D03*
X014205Y009646D03*
X014205Y008254D03*
X013705Y008254D03*
X013205Y008254D03*
X012705Y008254D03*
X012705Y006246D03*
X013205Y006246D03*
X013705Y006246D03*
X014205Y006246D03*
X014205Y005154D03*
X013705Y005154D03*
X013205Y005154D03*
X012705Y005154D03*
X012705Y003146D03*
X013205Y003146D03*
X013705Y003146D03*
X014205Y003146D03*
X007255Y003146D03*
X006755Y003146D03*
X006255Y003146D03*
X005755Y003146D03*
X005755Y005154D03*
X006255Y005154D03*
X006755Y005154D03*
X007255Y005154D03*
X007255Y006246D03*
X006755Y006246D03*
X006255Y006246D03*
X005755Y006246D03*
X005755Y008254D03*
X006255Y008254D03*
X006755Y008254D03*
X007255Y008254D03*
X007255Y009646D03*
X006755Y009646D03*
X006255Y009646D03*
X005755Y009646D03*
X005755Y011654D03*
X006255Y011654D03*
X006755Y011654D03*
X007255Y011654D03*
D12*
X004505Y002879D02*
X004045Y002879D01*
X004198Y002879D02*
X004198Y003109D01*
X004275Y003186D01*
X004428Y003186D01*
X004505Y003109D01*
X004505Y002879D01*
X004198Y003032D02*
X004045Y003186D01*
X004045Y003339D02*
X004352Y003646D01*
X004428Y003646D01*
X004505Y003569D01*
X004505Y003416D01*
X004428Y003339D01*
X004045Y003339D02*
X004045Y003646D01*
X004045Y003800D02*
X004352Y004107D01*
X004428Y004107D01*
X004505Y004030D01*
X004505Y003876D01*
X004428Y003800D01*
X004045Y003800D02*
X004045Y004107D01*
X007568Y004540D02*
X007875Y004540D01*
X007722Y004540D02*
X007722Y005000D01*
X007875Y004847D01*
X008182Y005000D02*
X008182Y004540D01*
X008335Y004540D02*
X008028Y004540D01*
X008335Y004847D02*
X008182Y005000D01*
X008489Y004924D02*
X008489Y004617D01*
X008566Y004540D01*
X008719Y004540D01*
X008796Y004617D01*
X008796Y004924D01*
X008719Y005000D01*
X008566Y005000D01*
X008489Y004924D01*
X008642Y004693D02*
X008489Y004540D01*
X011035Y004100D02*
X011035Y003946D01*
X011111Y003870D01*
X011188Y003870D01*
X011265Y003946D01*
X011265Y004100D01*
X011188Y004177D01*
X011111Y004177D01*
X011035Y004100D01*
X011265Y004100D02*
X011342Y004177D01*
X011418Y004177D01*
X011495Y004100D01*
X011495Y003946D01*
X011418Y003870D01*
X011342Y003870D01*
X011265Y003946D01*
X011035Y003716D02*
X011035Y003409D01*
X011035Y003256D02*
X011188Y003102D01*
X011188Y003179D02*
X011188Y002949D01*
X011035Y002949D02*
X011495Y002949D01*
X011495Y003179D01*
X011418Y003256D01*
X011265Y003256D01*
X011188Y003179D01*
X011342Y003409D02*
X011495Y003563D01*
X011035Y003563D01*
X014588Y004420D02*
X014895Y004420D01*
X014742Y004420D02*
X014742Y004880D01*
X014895Y004727D01*
X015048Y004804D02*
X015048Y004497D01*
X015125Y004420D01*
X015279Y004420D01*
X015355Y004497D01*
X015355Y004804D01*
X015279Y004880D01*
X015125Y004880D01*
X015048Y004804D01*
X015202Y004573D02*
X015048Y004420D01*
X015185Y003727D02*
X015108Y003573D01*
X014955Y003420D01*
X014955Y003650D01*
X014878Y003727D01*
X014801Y003727D01*
X014725Y003650D01*
X014725Y003496D01*
X014801Y003420D01*
X014955Y003420D01*
X015032Y003266D02*
X015108Y003266D01*
X015185Y003189D01*
X015185Y003036D01*
X015108Y002959D01*
X015108Y002806D02*
X014955Y002806D01*
X014878Y002729D01*
X014878Y002499D01*
X014878Y002652D02*
X014725Y002806D01*
X014725Y002959D02*
X015032Y003266D01*
X014725Y003266D02*
X014725Y002959D01*
X015108Y002806D02*
X015185Y002729D01*
X015185Y002499D01*
X014725Y002499D01*
X018378Y002930D02*
X018685Y002930D01*
X018532Y002930D02*
X018532Y003390D01*
X018685Y003237D01*
X018838Y003237D02*
X018838Y003314D01*
X018915Y003390D01*
X019069Y003390D01*
X019145Y003314D01*
X019299Y003314D02*
X019299Y003007D01*
X019376Y002930D01*
X019529Y002930D01*
X019606Y003007D01*
X019606Y003314D01*
X019529Y003390D01*
X019376Y003390D01*
X019299Y003314D01*
X019452Y003083D02*
X019299Y002930D01*
X019145Y002930D02*
X018838Y003237D01*
X018838Y002930D02*
X019145Y002930D01*
X019815Y007166D02*
X020122Y007166D01*
X019815Y007473D01*
X019815Y007550D01*
X019892Y007627D01*
X020045Y007627D01*
X020122Y007550D01*
X020275Y007550D02*
X020352Y007627D01*
X020582Y007627D01*
X020582Y007166D01*
X020352Y007166D01*
X020275Y007243D01*
X020275Y007550D01*
X019566Y007637D02*
X019489Y007560D01*
X019336Y007560D01*
X019259Y007637D01*
X019259Y007944D01*
X019336Y008020D01*
X019489Y008020D01*
X019566Y007944D01*
X019566Y007637D01*
X019412Y007713D02*
X019259Y007560D01*
X019105Y007560D02*
X018798Y007867D01*
X018798Y007944D01*
X018875Y008020D01*
X019029Y008020D01*
X019105Y007944D01*
X019145Y008260D02*
X019605Y008260D01*
X019605Y008490D01*
X019528Y008567D01*
X019375Y008567D01*
X019298Y008490D01*
X019298Y008260D01*
X019298Y008413D02*
X019145Y008567D01*
X019145Y008720D02*
X019452Y009027D01*
X019528Y009027D01*
X019605Y008951D01*
X019605Y008797D01*
X019528Y008720D01*
X019145Y008720D02*
X019145Y009027D01*
X019145Y009181D02*
X019221Y009181D01*
X019528Y009488D01*
X019605Y009488D01*
X019605Y009181D01*
X019528Y009820D02*
X019221Y009820D01*
X019145Y009897D01*
X019145Y010050D01*
X019221Y010127D01*
X019221Y010280D02*
X019145Y010357D01*
X019145Y010511D01*
X019221Y010587D01*
X019298Y010587D01*
X019375Y010511D01*
X019375Y010434D01*
X019375Y010511D02*
X019452Y010587D01*
X019528Y010587D01*
X019605Y010511D01*
X019605Y010357D01*
X019528Y010280D01*
X019528Y010127D02*
X019605Y010050D01*
X019605Y009897D01*
X019528Y009820D01*
X019528Y010741D02*
X019452Y010741D01*
X019375Y010818D01*
X019375Y010971D01*
X019298Y011048D01*
X019221Y011048D01*
X019145Y010971D01*
X019145Y010818D01*
X019221Y010741D01*
X019298Y010741D01*
X019375Y010818D01*
X019375Y010971D02*
X019452Y011048D01*
X019528Y011048D01*
X019605Y010971D01*
X019605Y010818D01*
X019528Y010741D01*
X018895Y010790D02*
X018895Y010510D01*
X018560Y010510D02*
X018560Y010790D01*
X020845Y010620D02*
X021305Y010620D01*
X021305Y010927D01*
X021228Y011080D02*
X021305Y011157D01*
X021305Y011311D01*
X021228Y011387D01*
X021152Y011387D01*
X020845Y011080D01*
X020845Y011387D01*
X020935Y011820D02*
X021088Y011820D01*
X021165Y011897D01*
X021318Y011897D02*
X021395Y011820D01*
X021549Y011820D01*
X021625Y011897D01*
X021625Y012050D02*
X021472Y012127D01*
X021395Y012127D01*
X021318Y012050D01*
X021318Y011897D01*
X021012Y012050D02*
X020935Y012050D01*
X020858Y011973D01*
X020858Y011897D01*
X020935Y011820D01*
X020935Y012050D02*
X020858Y012127D01*
X020858Y012204D01*
X020935Y012280D01*
X021088Y012280D01*
X021165Y012204D01*
X021318Y012280D02*
X021625Y012280D01*
X021625Y012050D01*
X021779Y011897D02*
X021856Y011820D01*
X022009Y011820D01*
X022086Y011897D01*
X022086Y012204D01*
X022009Y012280D01*
X021856Y012280D01*
X021779Y012204D01*
X020965Y012635D02*
X020684Y012635D01*
X020684Y012970D02*
X020965Y012970D01*
X019115Y013120D02*
X019115Y013350D01*
X019038Y013427D01*
X018885Y013427D01*
X018808Y013350D01*
X018808Y013120D01*
X018655Y013120D02*
X019115Y013120D01*
X018808Y013273D02*
X018655Y013427D01*
X018655Y013580D02*
X018962Y013887D01*
X019038Y013887D01*
X019115Y013811D01*
X019115Y013657D01*
X019038Y013580D01*
X018655Y013580D02*
X018655Y013887D01*
X018731Y014041D02*
X018655Y014118D01*
X018655Y014271D01*
X018731Y014348D01*
X019038Y014348D01*
X019115Y014271D01*
X019115Y014118D01*
X019038Y014041D01*
X018962Y014041D01*
X018885Y014118D01*
X018885Y014348D01*
X017865Y014398D02*
X017788Y014321D01*
X017865Y014398D02*
X017865Y014551D01*
X017788Y014628D01*
X017712Y014628D01*
X017405Y014321D01*
X017405Y014628D01*
X017405Y014167D02*
X017405Y013860D01*
X017405Y014014D02*
X017865Y014014D01*
X017712Y013860D01*
X017865Y013707D02*
X017481Y013707D01*
X017405Y013630D01*
X017405Y013477D01*
X017481Y013400D01*
X017865Y013400D01*
X016585Y013380D02*
X016508Y013457D01*
X016355Y013457D01*
X016278Y013380D01*
X016278Y013150D01*
X016125Y013150D02*
X016585Y013150D01*
X016585Y013380D01*
X016508Y013610D02*
X016585Y013687D01*
X016585Y013841D01*
X016508Y013917D01*
X016432Y013917D01*
X016125Y013610D01*
X016125Y013917D01*
X016201Y014071D02*
X016278Y014071D01*
X016355Y014148D01*
X016355Y014301D01*
X016278Y014378D01*
X016201Y014378D01*
X016125Y014301D01*
X016125Y014148D01*
X016201Y014071D01*
X016355Y014148D02*
X016432Y014071D01*
X016508Y014071D01*
X016585Y014148D01*
X016585Y014301D01*
X016508Y014378D01*
X016432Y014378D01*
X016355Y014301D01*
X016125Y013457D02*
X016278Y013303D01*
X015165Y013190D02*
X015165Y013420D01*
X015088Y013497D01*
X014935Y013497D01*
X014858Y013420D01*
X014858Y013190D01*
X014705Y013190D02*
X015165Y013190D01*
X014858Y013343D02*
X014705Y013497D01*
X014705Y013650D02*
X015012Y013957D01*
X015088Y013957D01*
X015165Y013881D01*
X015165Y013727D01*
X015088Y013650D01*
X014705Y013650D02*
X014705Y013957D01*
X014705Y014111D02*
X014705Y014418D01*
X014705Y014264D02*
X015165Y014264D01*
X015012Y014111D01*
X015118Y011990D02*
X015118Y011607D01*
X015195Y011530D01*
X015349Y011530D01*
X015425Y011607D01*
X015425Y011990D01*
X014965Y011760D02*
X014965Y011607D01*
X014888Y011530D01*
X014735Y011530D01*
X014658Y011607D01*
X014658Y011683D01*
X014735Y011760D01*
X014965Y011760D01*
X014812Y011914D01*
X014658Y011990D01*
X014760Y010790D02*
X014760Y010510D01*
X015095Y010510D02*
X015095Y010790D01*
X015345Y010887D02*
X015345Y010580D01*
X015652Y010887D01*
X015728Y010887D01*
X015805Y010811D01*
X015805Y010657D01*
X015728Y010580D01*
X015728Y010427D02*
X015805Y010350D01*
X015805Y010197D01*
X015728Y010120D01*
X015421Y010120D01*
X015345Y010197D01*
X015345Y010350D01*
X015421Y010427D01*
X015481Y009738D02*
X015788Y009738D01*
X015865Y009661D01*
X015865Y009508D01*
X015788Y009431D01*
X015712Y009431D01*
X015635Y009508D01*
X015635Y009738D01*
X015481Y009738D02*
X015405Y009661D01*
X015405Y009508D01*
X015481Y009431D01*
X015405Y009277D02*
X015405Y008970D01*
X015405Y008817D02*
X015558Y008663D01*
X015558Y008740D02*
X015558Y008510D01*
X015405Y008510D02*
X015865Y008510D01*
X015865Y008740D01*
X015788Y008817D01*
X015635Y008817D01*
X015558Y008740D01*
X015712Y008970D02*
X015865Y009124D01*
X015405Y009124D01*
X015309Y008020D02*
X015155Y008020D01*
X015078Y007944D01*
X015078Y007637D01*
X015155Y007560D01*
X015309Y007560D01*
X015385Y007637D01*
X015385Y007944D01*
X015309Y008020D01*
X015232Y007713D02*
X015078Y007560D01*
X014925Y007560D02*
X014618Y007867D01*
X014618Y007944D01*
X014695Y008020D01*
X014848Y008020D01*
X014925Y007944D01*
X014925Y007560D02*
X014618Y007560D01*
X011356Y008644D02*
X011356Y010156D01*
X009593Y010156D01*
X009593Y008644D01*
X011356Y008644D01*
X010855Y010320D02*
X010624Y010320D01*
X010548Y010397D01*
X010548Y010704D01*
X010624Y010780D01*
X010855Y010780D01*
X010855Y010320D01*
X010394Y010397D02*
X010317Y010320D01*
X010164Y010320D01*
X010087Y010397D01*
X010087Y010473D01*
X010164Y010550D01*
X010394Y010550D01*
X010394Y010397D01*
X010394Y010550D02*
X010241Y010704D01*
X010087Y010780D01*
X008905Y010761D02*
X008828Y010837D01*
X008752Y010837D01*
X008675Y010761D01*
X008598Y010837D01*
X008521Y010837D01*
X008445Y010761D01*
X008445Y010607D01*
X008521Y010530D01*
X008521Y010377D02*
X008445Y010300D01*
X008445Y010147D01*
X008521Y010070D01*
X008828Y010070D01*
X008905Y010147D01*
X008905Y010300D01*
X008828Y010377D01*
X008828Y010530D02*
X008905Y010607D01*
X008905Y010761D01*
X008675Y010761D02*
X008675Y010684D01*
X008752Y010991D02*
X008675Y011068D01*
X008675Y011298D01*
X008828Y011298D02*
X008905Y011221D01*
X008905Y011068D01*
X008828Y010991D01*
X008752Y010991D01*
X008521Y010991D02*
X008445Y011068D01*
X008445Y011221D01*
X008521Y011298D01*
X008828Y011298D01*
X008455Y011637D02*
X008379Y011560D01*
X008225Y011560D01*
X008148Y011637D01*
X008148Y012020D01*
X007995Y011944D02*
X007995Y011867D01*
X007918Y011790D01*
X007688Y011790D01*
X007688Y011637D02*
X007688Y011944D01*
X007765Y012020D01*
X007918Y012020D01*
X007995Y011944D01*
X007995Y011637D02*
X007918Y011560D01*
X007765Y011560D01*
X007688Y011637D01*
X007860Y010790D02*
X007860Y010510D01*
X008195Y010510D02*
X008195Y010790D01*
X008455Y011637D02*
X008455Y012020D01*
X008255Y013160D02*
X007795Y013160D01*
X007948Y013160D02*
X007948Y013390D01*
X008025Y013467D01*
X008178Y013467D01*
X008255Y013390D01*
X008255Y013160D01*
X007948Y013313D02*
X007795Y013467D01*
X007795Y013620D02*
X008102Y013927D01*
X008178Y013927D01*
X008255Y013851D01*
X008255Y013697D01*
X008178Y013620D01*
X007795Y013620D02*
X007795Y013927D01*
X007871Y014081D02*
X007795Y014158D01*
X007795Y014311D01*
X007871Y014388D01*
X008025Y014388D01*
X008102Y014311D01*
X008102Y014234D01*
X008025Y014081D01*
X008255Y014081D01*
X008255Y014388D01*
X005785Y014361D02*
X005555Y014131D01*
X005555Y014438D01*
X005325Y014361D02*
X005785Y014361D01*
X005708Y013977D02*
X005785Y013901D01*
X005785Y013747D01*
X005708Y013670D01*
X005708Y013517D02*
X005555Y013517D01*
X005478Y013440D01*
X005478Y013210D01*
X005325Y013210D02*
X005785Y013210D01*
X005785Y013440D01*
X005708Y013517D01*
X005478Y013363D02*
X005325Y013517D01*
X005325Y013670D02*
X005632Y013977D01*
X005708Y013977D01*
X005325Y013977D02*
X005325Y013670D01*
X005290Y016420D02*
X005290Y016880D01*
X005059Y016880D01*
X004983Y016804D01*
X004983Y016650D01*
X005059Y016573D01*
X005290Y016573D01*
X005136Y016573D02*
X004983Y016420D01*
X004829Y016497D02*
X004829Y016573D01*
X004753Y016650D01*
X004599Y016650D01*
X004522Y016573D01*
X004522Y016497D01*
X004599Y016420D01*
X004753Y016420D01*
X004829Y016497D01*
X004753Y016650D02*
X004829Y016727D01*
X004829Y016804D01*
X004753Y016880D01*
X004599Y016880D01*
X004522Y016804D01*
X004522Y016727D01*
X004599Y016650D01*
X004369Y016727D02*
X004292Y016650D01*
X004062Y016650D01*
X004062Y016497D02*
X004062Y016804D01*
X004139Y016880D01*
X004292Y016880D01*
X004369Y016804D01*
X004369Y016727D01*
X004369Y016497D02*
X004292Y016420D01*
X004139Y016420D01*
X004062Y016497D01*
X007250Y019770D02*
X007403Y019770D01*
X007480Y019847D01*
X007633Y019847D02*
X007710Y019770D01*
X007864Y019770D01*
X007940Y019847D01*
X007633Y020154D01*
X007633Y019847D01*
X007633Y020154D02*
X007710Y020230D01*
X007864Y020230D01*
X007940Y020154D01*
X007940Y019847D01*
X008094Y019770D02*
X008401Y019770D01*
X008554Y019770D02*
X008708Y019923D01*
X008631Y019923D02*
X008861Y019923D01*
X008861Y019770D02*
X008861Y020230D01*
X008631Y020230D01*
X008554Y020154D01*
X008554Y020000D01*
X008631Y019923D01*
X008401Y020077D02*
X008247Y020230D01*
X008247Y019770D01*
X007480Y020154D02*
X007403Y020230D01*
X007250Y020230D01*
X007173Y020154D01*
X007173Y020077D01*
X007250Y020000D01*
X007173Y019923D01*
X007173Y019847D01*
X007250Y019770D01*
X007250Y020000D02*
X007326Y020000D01*
X007235Y021620D02*
X007235Y022080D01*
X007465Y021850D01*
X007158Y021850D01*
X007618Y021850D02*
X007618Y022004D01*
X007695Y022080D01*
X007925Y022080D01*
X007925Y021620D01*
X007925Y021773D02*
X007695Y021773D01*
X007618Y021850D01*
X007772Y021773D02*
X007618Y021620D01*
X007573Y023070D02*
X007267Y023070D01*
X007573Y023070D02*
X007267Y023377D01*
X007267Y023454D01*
X007343Y023530D01*
X007497Y023530D01*
X007573Y023454D01*
X007727Y023454D02*
X008034Y023147D01*
X007957Y023070D01*
X007804Y023070D01*
X007727Y023147D01*
X007727Y023454D01*
X007804Y023530D01*
X007957Y023530D01*
X008034Y023454D01*
X008034Y023147D01*
X008187Y023070D02*
X008494Y023070D01*
X008341Y023070D02*
X008341Y023530D01*
X008494Y023377D01*
X008648Y023454D02*
X008648Y023300D01*
X008724Y023223D01*
X008955Y023223D01*
X008955Y023070D02*
X008955Y023530D01*
X008724Y023530D01*
X008648Y023454D01*
X008801Y023223D02*
X008648Y023070D01*
X011152Y025270D02*
X011458Y025270D01*
X011152Y025577D01*
X011152Y025654D01*
X011228Y025730D01*
X011382Y025730D01*
X011458Y025654D01*
X011612Y025654D02*
X011612Y025577D01*
X011919Y025270D01*
X011612Y025270D01*
X011612Y025654D02*
X011689Y025730D01*
X011842Y025730D01*
X011919Y025654D01*
X012226Y025730D02*
X012226Y025270D01*
X012379Y025270D02*
X012072Y025270D01*
X012379Y025577D02*
X012226Y025730D01*
X012533Y025654D02*
X012533Y025500D01*
X012609Y025423D01*
X012840Y025423D01*
X012840Y025270D02*
X012840Y025730D01*
X012609Y025730D01*
X012533Y025654D01*
X012686Y025423D02*
X012533Y025270D01*
X011985Y027599D02*
X011525Y027599D01*
X011678Y027599D02*
X011678Y027829D01*
X011755Y027906D01*
X011908Y027906D01*
X011985Y027829D01*
X011985Y027599D01*
X011678Y027752D02*
X011525Y027906D01*
X011601Y028059D02*
X011525Y028136D01*
X011525Y028289D01*
X011601Y028366D01*
X011678Y028366D01*
X011755Y028289D01*
X011755Y028213D01*
X011755Y028289D02*
X011832Y028366D01*
X011908Y028366D01*
X011985Y028289D01*
X011985Y028136D01*
X011908Y028059D01*
X011755Y028520D02*
X011755Y028750D01*
X011678Y028827D01*
X011601Y028827D01*
X011525Y028750D01*
X011525Y028596D01*
X011601Y028520D01*
X011755Y028520D01*
X011908Y028673D01*
X011985Y028827D01*
X012704Y030020D02*
X012857Y030020D01*
X012934Y030097D01*
X012934Y030250D02*
X012780Y030327D01*
X012704Y030327D01*
X012627Y030250D01*
X012627Y030097D01*
X012704Y030020D01*
X012934Y030250D02*
X012934Y030480D01*
X012627Y030480D01*
X012621Y030839D02*
X012545Y030916D01*
X012545Y031069D01*
X012621Y031146D01*
X012545Y031299D02*
X012852Y031606D01*
X012928Y031606D01*
X013005Y031529D01*
X013005Y031376D01*
X012928Y031299D01*
X012928Y031146D02*
X013005Y031069D01*
X013005Y030916D01*
X012928Y030839D01*
X012621Y030839D01*
X012545Y031299D02*
X012545Y031606D01*
X012545Y031760D02*
X012545Y032067D01*
X012545Y031913D02*
X013005Y031913D01*
X012852Y031760D01*
X013305Y031540D02*
X013305Y031260D01*
X013640Y031260D02*
X013640Y031540D01*
X013105Y032639D02*
X012645Y032639D01*
X012798Y032639D02*
X012798Y032869D01*
X012875Y032946D01*
X013028Y032946D01*
X013105Y032869D01*
X013105Y032639D01*
X012798Y032792D02*
X012645Y032946D01*
X012721Y033099D02*
X012645Y033176D01*
X012645Y033329D01*
X012721Y033406D01*
X012798Y033406D01*
X012875Y033329D01*
X012875Y033253D01*
X012875Y033329D02*
X012952Y033406D01*
X013028Y033406D01*
X013105Y033329D01*
X013105Y033176D01*
X013028Y033099D01*
X012952Y033560D02*
X013105Y033713D01*
X012645Y033713D01*
X012645Y033560D02*
X012645Y033867D01*
X012728Y034360D02*
X012421Y034360D01*
X012345Y034437D01*
X012345Y034590D01*
X012421Y034667D01*
X012728Y034667D01*
X012805Y034590D01*
X012805Y034437D01*
X012728Y034360D01*
X012498Y034513D02*
X012345Y034667D01*
X012345Y034820D02*
X012345Y035127D01*
X012345Y034974D02*
X012805Y034974D01*
X012652Y034820D01*
X012575Y035281D02*
X012575Y035588D01*
X012345Y035511D02*
X012805Y035511D01*
X012575Y035281D01*
X009035Y035061D02*
X009035Y034907D01*
X008958Y034830D01*
X008958Y034677D02*
X008651Y034677D01*
X008575Y034600D01*
X008575Y034447D01*
X008651Y034370D01*
X008958Y034370D01*
X009035Y034447D01*
X009035Y034600D01*
X008958Y034677D01*
X008728Y034523D02*
X008575Y034677D01*
X008575Y034830D02*
X008882Y035137D01*
X008958Y035137D01*
X009035Y035061D01*
X008805Y035291D02*
X008805Y035598D01*
X008575Y035521D02*
X009035Y035521D01*
X008805Y035291D01*
X008575Y035137D02*
X008575Y034830D01*
X008921Y033827D02*
X008845Y033750D01*
X008845Y033596D01*
X008921Y033520D01*
X009075Y033520D02*
X009152Y033673D01*
X009152Y033750D01*
X009075Y033827D01*
X008921Y033827D01*
X009075Y033520D02*
X009305Y033520D01*
X009305Y033827D01*
X009228Y033366D02*
X009152Y033366D01*
X009075Y033289D01*
X008998Y033366D01*
X008921Y033366D01*
X008845Y033289D01*
X008845Y033136D01*
X008921Y033059D01*
X008845Y032906D02*
X008998Y032752D01*
X008998Y032829D02*
X008998Y032599D01*
X008845Y032599D02*
X009305Y032599D01*
X009305Y032829D01*
X009228Y032906D01*
X009075Y032906D01*
X008998Y032829D01*
X009228Y033059D02*
X009305Y033136D01*
X009305Y033289D01*
X009228Y033366D01*
X009075Y033289D02*
X009075Y033213D01*
X008948Y031967D02*
X009025Y031890D01*
X009025Y031660D01*
X008871Y031660D01*
X008795Y031736D01*
X008795Y031890D01*
X008871Y031967D01*
X008948Y031967D01*
X009178Y031813D02*
X009025Y031660D01*
X009102Y031506D02*
X009025Y031429D01*
X008948Y031506D01*
X008871Y031506D01*
X008795Y031429D01*
X008795Y031276D01*
X008871Y031199D01*
X008871Y031046D02*
X008795Y030969D01*
X008795Y030816D01*
X008871Y030739D01*
X009178Y030739D01*
X009255Y030816D01*
X009255Y030969D01*
X009178Y031046D01*
X009178Y031199D02*
X009255Y031276D01*
X009255Y031429D01*
X009178Y031506D01*
X009102Y031506D01*
X009025Y031429D02*
X009025Y031353D01*
X009178Y031813D02*
X009255Y031967D01*
X009555Y031540D02*
X009555Y031260D01*
X009890Y031260D02*
X009890Y031540D01*
X009818Y030480D02*
X009818Y030097D01*
X009894Y030020D01*
X010048Y030020D01*
X010125Y030097D01*
X010125Y030480D01*
X009664Y030327D02*
X009511Y030480D01*
X009511Y030020D01*
X009664Y030020D02*
X009357Y030020D01*
X009204Y030097D02*
X009127Y030020D01*
X008974Y030020D01*
X008897Y030097D01*
X008897Y030173D01*
X008974Y030250D01*
X009127Y030250D01*
X009204Y030327D01*
X009204Y030404D01*
X009127Y030480D01*
X008974Y030480D01*
X008897Y030404D01*
X008897Y030327D01*
X008974Y030250D01*
X009127Y030250D02*
X009204Y030173D01*
X009204Y030097D01*
X010118Y028847D02*
X009811Y028540D01*
X009735Y028540D01*
X009811Y028386D02*
X009735Y028309D01*
X009735Y028156D01*
X009811Y028079D01*
X009735Y027926D02*
X009888Y027772D01*
X009888Y027849D02*
X009888Y027619D01*
X009735Y027619D02*
X010195Y027619D01*
X010195Y027849D01*
X010118Y027926D01*
X009965Y027926D01*
X009888Y027849D01*
X010118Y028079D02*
X010195Y028156D01*
X010195Y028309D01*
X010118Y028386D01*
X010042Y028386D01*
X009965Y028309D01*
X009888Y028386D01*
X009811Y028386D01*
X009965Y028309D02*
X009965Y028233D01*
X010195Y028540D02*
X010195Y028847D01*
X010118Y028847D01*
X008235Y028810D02*
X008235Y028656D01*
X008158Y028580D01*
X007851Y028580D01*
X008158Y028887D01*
X007851Y028887D01*
X007775Y028810D01*
X007775Y028656D01*
X007851Y028580D01*
X008005Y028426D02*
X008005Y028119D01*
X008235Y028349D01*
X007775Y028349D01*
X007775Y027966D02*
X007928Y027812D01*
X007928Y027889D02*
X007928Y027659D01*
X007775Y027659D02*
X008235Y027659D01*
X008235Y027889D01*
X008158Y027966D01*
X008005Y027966D01*
X007928Y027889D01*
X008235Y028810D02*
X008158Y028887D01*
X006555Y028813D02*
X006402Y028660D01*
X006325Y028506D02*
X006325Y028199D01*
X006555Y028429D01*
X006095Y028429D01*
X006095Y028660D02*
X006095Y028967D01*
X006095Y028813D02*
X006555Y028813D01*
X006478Y028046D02*
X006325Y028046D01*
X006248Y027969D01*
X006248Y027739D01*
X006248Y027892D02*
X006095Y028046D01*
X006095Y027739D02*
X006555Y027739D01*
X006555Y027969D01*
X006478Y028046D01*
X006248Y030040D02*
X006094Y030040D01*
X006018Y030117D01*
X006018Y030500D01*
X005864Y030424D02*
X005787Y030500D01*
X005634Y030500D01*
X005557Y030424D01*
X005557Y030347D01*
X005864Y030040D01*
X005557Y030040D01*
X005404Y030040D02*
X005097Y030040D01*
X005250Y030040D02*
X005250Y030500D01*
X005404Y030347D01*
X005378Y030789D02*
X005071Y030789D01*
X004995Y030866D01*
X004995Y031019D01*
X005071Y031096D01*
X005071Y031249D02*
X004995Y031326D01*
X004995Y031479D01*
X005071Y031556D01*
X005148Y031556D01*
X005225Y031479D01*
X005225Y031403D01*
X005225Y031479D02*
X005302Y031556D01*
X005378Y031556D01*
X005455Y031479D01*
X005455Y031326D01*
X005378Y031249D01*
X005378Y031096D02*
X005455Y031019D01*
X005455Y030866D01*
X005378Y030789D01*
X005805Y031260D02*
X005805Y031540D01*
X006140Y031540D02*
X006140Y031260D01*
X005455Y031710D02*
X005455Y032017D01*
X005378Y032017D01*
X005071Y031710D01*
X004995Y031710D01*
X005125Y032579D02*
X005585Y032579D01*
X005585Y032809D01*
X005508Y032886D01*
X005355Y032886D01*
X005278Y032809D01*
X005278Y032579D01*
X005278Y032732D02*
X005125Y032886D01*
X005201Y033039D02*
X005125Y033116D01*
X005125Y033269D01*
X005201Y033346D01*
X005278Y033346D01*
X005355Y033269D01*
X005355Y033193D01*
X005355Y033269D02*
X005432Y033346D01*
X005508Y033346D01*
X005585Y033269D01*
X005585Y033116D01*
X005508Y033039D01*
X005508Y033500D02*
X005432Y033500D01*
X005355Y033576D01*
X005355Y033807D01*
X005508Y033807D02*
X005585Y033730D01*
X005585Y033576D01*
X005508Y033500D01*
X005508Y033807D02*
X005201Y033807D01*
X005125Y033730D01*
X005125Y033576D01*
X005201Y033500D01*
X003636Y033373D02*
X003406Y033373D01*
X003329Y033450D01*
X003329Y033604D01*
X003406Y033680D01*
X003636Y033680D01*
X003636Y033220D01*
X003482Y033373D02*
X003329Y033220D01*
X003175Y033297D02*
X003175Y033373D01*
X003099Y033450D01*
X002945Y033450D01*
X002868Y033373D01*
X002868Y033297D01*
X002945Y033220D01*
X003099Y033220D01*
X003175Y033297D01*
X003099Y033450D02*
X003175Y033527D01*
X003175Y033604D01*
X003099Y033680D01*
X002945Y033680D01*
X002868Y033604D01*
X002868Y033527D01*
X002945Y033450D01*
X002715Y033450D02*
X002562Y033527D01*
X002485Y033527D01*
X002408Y033450D01*
X002408Y033297D01*
X002485Y033220D01*
X002638Y033220D01*
X002715Y033297D01*
X002715Y033450D02*
X002715Y033680D01*
X002408Y033680D01*
X006325Y030500D02*
X006325Y030117D01*
X006248Y030040D01*
X003640Y027380D02*
X003409Y027380D01*
X003333Y027304D01*
X003333Y027150D01*
X003409Y027073D01*
X003640Y027073D01*
X003640Y026920D02*
X003640Y027380D01*
X003486Y027073D02*
X003333Y026920D01*
X003179Y026997D02*
X003103Y026920D01*
X002949Y026920D01*
X002872Y026997D01*
X002872Y027304D01*
X002949Y027380D01*
X003103Y027380D01*
X003179Y027304D01*
X003179Y027227D01*
X003103Y027150D01*
X002872Y027150D01*
X002719Y026997D02*
X002412Y027304D01*
X002412Y026997D01*
X002489Y026920D01*
X002642Y026920D01*
X002719Y026997D01*
X002719Y027304D01*
X002642Y027380D01*
X002489Y027380D01*
X002412Y027304D01*
X013087Y030020D02*
X013394Y030020D01*
X013241Y030020D02*
X013241Y030480D01*
X013394Y030327D01*
X013548Y030480D02*
X013548Y030097D01*
X013624Y030020D01*
X013778Y030020D01*
X013855Y030097D01*
X013855Y030480D01*
X014541Y028877D02*
X014465Y028800D01*
X014465Y028646D01*
X014541Y028570D01*
X014541Y028416D02*
X014465Y028339D01*
X014465Y028186D01*
X014541Y028109D01*
X014465Y027956D02*
X014618Y027802D01*
X014618Y027879D02*
X014618Y027649D01*
X014465Y027649D02*
X014925Y027649D01*
X014925Y027879D01*
X014848Y027956D01*
X014695Y027956D01*
X014618Y027879D01*
X014848Y028109D02*
X014925Y028186D01*
X014925Y028339D01*
X014848Y028416D01*
X014772Y028416D01*
X014695Y028339D01*
X014618Y028416D01*
X014541Y028416D01*
X014695Y028339D02*
X014695Y028263D01*
X014848Y028570D02*
X014925Y028646D01*
X014925Y028800D01*
X014848Y028877D01*
X014772Y028877D01*
X014695Y028800D01*
X014618Y028877D01*
X014541Y028877D01*
X014695Y028800D02*
X014695Y028723D01*
X015645Y028817D02*
X015645Y028510D01*
X015952Y028817D01*
X016028Y028817D01*
X016105Y028740D01*
X016105Y028586D01*
X016028Y028510D01*
X016028Y028356D02*
X015952Y028356D01*
X015875Y028279D01*
X015798Y028356D01*
X015721Y028356D01*
X015645Y028279D01*
X015645Y028126D01*
X015721Y028049D01*
X015645Y027896D02*
X015798Y027742D01*
X015798Y027819D02*
X015798Y027589D01*
X015645Y027589D02*
X016105Y027589D01*
X016105Y027819D01*
X016028Y027896D01*
X015875Y027896D01*
X015798Y027819D01*
X016028Y028049D02*
X016105Y028126D01*
X016105Y028279D01*
X016028Y028356D01*
X015875Y028279D02*
X015875Y028203D01*
X020897Y024104D02*
X021204Y023797D01*
X021127Y023720D01*
X020974Y023720D01*
X020897Y023797D01*
X020897Y024104D01*
X020974Y024180D01*
X021127Y024180D01*
X021204Y024104D01*
X021204Y023797D01*
X021357Y023797D02*
X021434Y023720D01*
X021587Y023720D01*
X021664Y023797D01*
X021664Y023950D02*
X021511Y024027D01*
X021434Y024027D01*
X021357Y023950D01*
X021357Y023797D01*
X021454Y023520D02*
X021735Y023520D01*
X021894Y023720D02*
X021818Y023797D01*
X021894Y023720D02*
X022048Y023720D01*
X022125Y023797D01*
X022125Y024104D01*
X022048Y024180D01*
X021894Y024180D01*
X021818Y024104D01*
X021664Y024180D02*
X021664Y023950D01*
X021664Y024180D02*
X021357Y024180D01*
X021454Y023185D02*
X021735Y023185D01*
X020796Y022974D02*
X020796Y022667D01*
X020719Y022590D01*
X020566Y022590D01*
X020489Y022667D01*
X020335Y022667D02*
X020259Y022590D01*
X020105Y022590D01*
X020028Y022667D01*
X020028Y022743D01*
X020105Y022820D01*
X020335Y022820D01*
X020335Y022667D01*
X020335Y022820D02*
X020182Y022974D01*
X020028Y023050D01*
X019875Y023050D02*
X019568Y023050D01*
X019568Y022974D01*
X019875Y022667D01*
X019875Y022590D01*
X020489Y022974D02*
X020566Y023050D01*
X020719Y023050D01*
X020796Y022974D01*
X020469Y021590D02*
X020546Y021514D01*
X020546Y021207D01*
X020469Y021130D01*
X020316Y021130D01*
X020239Y021207D01*
X020085Y021207D02*
X020085Y021130D01*
X020085Y021207D02*
X019778Y021514D01*
X019778Y021590D01*
X020085Y021590D01*
X020239Y021514D02*
X020316Y021590D01*
X020469Y021590D01*
X019625Y021437D02*
X019472Y021590D01*
X019472Y021130D01*
X019625Y021130D02*
X019318Y021130D01*
X018755Y021021D02*
X018678Y021098D01*
X018602Y021098D01*
X018525Y021021D01*
X018525Y020868D01*
X018602Y020791D01*
X018678Y020791D01*
X018755Y020868D01*
X018755Y021021D01*
X018525Y021021D02*
X018448Y021098D01*
X018371Y021098D01*
X018295Y021021D01*
X018295Y020868D01*
X018371Y020791D01*
X018448Y020791D01*
X018525Y020868D01*
X018525Y020637D02*
X018525Y020330D01*
X018755Y020561D01*
X018295Y020561D01*
X018040Y020460D02*
X018040Y020740D01*
X017705Y020740D02*
X017705Y020460D01*
X018295Y020100D02*
X018371Y020177D01*
X018295Y020100D02*
X018295Y019947D01*
X018371Y019870D01*
X018678Y019870D01*
X018755Y019947D01*
X018755Y020100D01*
X018678Y020177D01*
X018615Y019068D02*
X018615Y018838D01*
X018692Y018761D01*
X018768Y018761D01*
X018845Y018838D01*
X018845Y018991D01*
X018768Y019068D01*
X018461Y019068D01*
X018385Y018991D01*
X018385Y018838D01*
X018461Y018761D01*
X018615Y018607D02*
X018615Y018300D01*
X018845Y018531D01*
X018385Y018531D01*
X018235Y018560D02*
X018235Y018280D01*
X018385Y018070D02*
X018461Y018147D01*
X018385Y018070D02*
X018385Y017917D01*
X018461Y017840D01*
X018768Y017840D01*
X018845Y017917D01*
X018845Y018070D01*
X018768Y018147D01*
X019375Y018237D02*
X019451Y018160D01*
X019375Y018237D02*
X019375Y018391D01*
X019451Y018467D01*
X019605Y018467D01*
X019682Y018391D01*
X019682Y018314D01*
X019605Y018160D01*
X019835Y018160D01*
X019835Y018467D01*
X019682Y018621D02*
X019835Y018774D01*
X019375Y018774D01*
X019375Y018621D02*
X019375Y018928D01*
X019451Y018007D02*
X019375Y017930D01*
X019375Y017777D01*
X019451Y017700D01*
X019758Y017700D01*
X019835Y017777D01*
X019835Y017930D01*
X019758Y018007D01*
X019095Y017535D02*
X018814Y017535D01*
X018814Y017200D02*
X019095Y017200D01*
X017900Y018280D02*
X017900Y018560D01*
X020645Y018688D02*
X020721Y018611D01*
X021028Y018918D01*
X020721Y018918D01*
X020645Y018841D01*
X020645Y018688D01*
X020721Y018611D02*
X021028Y018611D01*
X021105Y018688D01*
X021105Y018841D01*
X021028Y018918D01*
X021105Y018457D02*
X021028Y018304D01*
X020875Y018150D01*
X020875Y018381D01*
X020798Y018457D01*
X020721Y018457D01*
X020645Y018381D01*
X020645Y018227D01*
X020721Y018150D01*
X020875Y018150D01*
X021028Y017997D02*
X021105Y017920D01*
X021105Y017767D01*
X021028Y017690D01*
X020721Y017690D01*
X020645Y017767D01*
X020645Y017920D01*
X020721Y017997D01*
X020714Y017520D02*
X020995Y017520D01*
X020995Y017185D02*
X020714Y017185D01*
X021855Y017777D02*
X021855Y017930D01*
X021931Y018007D01*
X021855Y018160D02*
X022162Y018467D01*
X022238Y018467D01*
X022315Y018391D01*
X022315Y018237D01*
X022238Y018160D01*
X022238Y018007D02*
X022315Y017930D01*
X022315Y017777D01*
X022238Y017700D01*
X021931Y017700D01*
X021855Y017777D01*
X021855Y018160D02*
X021855Y018467D01*
X021931Y018621D02*
X021855Y018698D01*
X021855Y018851D01*
X021931Y018928D01*
X022008Y018928D01*
X022085Y018851D01*
X022085Y018774D01*
X022085Y018851D02*
X022162Y018928D01*
X022238Y018928D01*
X022315Y018851D01*
X022315Y018698D01*
X022238Y018621D01*
X022298Y019270D02*
X022144Y019270D01*
X022068Y019347D01*
X021914Y019500D02*
X021607Y019500D01*
X021454Y019347D02*
X021454Y019270D01*
X021454Y019347D02*
X021147Y019654D01*
X021147Y019730D01*
X021454Y019730D01*
X021684Y019730D02*
X021684Y019270D01*
X021914Y019500D02*
X021684Y019730D01*
X022068Y019654D02*
X022144Y019730D01*
X022298Y019730D01*
X022375Y019654D01*
X022375Y019347D01*
X022298Y019270D01*
X022904Y019335D02*
X023185Y019335D01*
X023185Y019670D02*
X022904Y019670D01*
X023130Y018490D02*
X023130Y018210D01*
X023465Y018210D02*
X023465Y018490D01*
X024365Y018487D02*
X024365Y018180D01*
X024672Y018487D01*
X024748Y018487D01*
X024825Y018411D01*
X024825Y018257D01*
X024748Y018180D01*
X024748Y018027D02*
X024825Y017950D01*
X024825Y017797D01*
X024748Y017720D01*
X024441Y017720D01*
X024365Y017797D01*
X024365Y017950D01*
X024441Y018027D01*
X024595Y018641D02*
X024595Y018948D01*
X024365Y018871D02*
X024825Y018871D01*
X024595Y018641D01*
X022735Y017530D02*
X022454Y017530D01*
X022454Y017195D02*
X022735Y017195D01*
X024280Y015977D02*
X024280Y015517D01*
X024127Y015517D02*
X024434Y015517D01*
X024587Y015517D02*
X024894Y015977D01*
X024587Y015977D02*
X024894Y015517D01*
X024434Y015824D02*
X024280Y015977D01*
X026865Y011978D02*
X026865Y011671D01*
X026865Y011824D02*
X027325Y011824D01*
X027172Y011671D01*
X027172Y011517D02*
X027095Y011441D01*
X027095Y011287D01*
X027172Y011210D01*
X027248Y011210D01*
X027325Y011287D01*
X027325Y011441D01*
X027248Y011517D01*
X027172Y011517D01*
X027095Y011441D02*
X027018Y011517D01*
X026941Y011517D01*
X026865Y011441D01*
X026865Y011287D01*
X026941Y011210D01*
X027018Y011210D01*
X027095Y011287D01*
X027095Y011057D02*
X027018Y010980D01*
X027018Y010750D01*
X026865Y010750D02*
X027325Y010750D01*
X027325Y010980D01*
X027248Y011057D01*
X027095Y011057D01*
X027018Y010903D02*
X026865Y011057D01*
X027695Y010950D02*
X027771Y011027D01*
X027695Y010950D02*
X027695Y010797D01*
X027771Y010720D01*
X028078Y010720D01*
X028155Y010797D01*
X028155Y010950D01*
X028078Y011027D01*
X028078Y011180D02*
X028155Y011257D01*
X028155Y011411D01*
X028078Y011487D01*
X028002Y011487D01*
X027695Y011180D01*
X027695Y011487D01*
X027771Y011641D02*
X027695Y011718D01*
X027695Y011871D01*
X027771Y011948D01*
X027925Y011948D01*
X028002Y011871D01*
X028002Y011794D01*
X027925Y011641D01*
X028155Y011641D01*
X028155Y011948D01*
X028595Y011968D02*
X028595Y011661D01*
X028902Y011968D01*
X028978Y011968D01*
X029055Y011891D01*
X029055Y011738D01*
X028978Y011661D01*
X028978Y011507D02*
X028902Y011507D01*
X028825Y011431D01*
X028825Y011277D01*
X028902Y011200D01*
X028978Y011200D01*
X029055Y011277D01*
X029055Y011431D01*
X028978Y011507D01*
X028825Y011431D02*
X028748Y011507D01*
X028671Y011507D01*
X028595Y011431D01*
X028595Y011277D01*
X028671Y011200D01*
X028748Y011200D01*
X028825Y011277D01*
X028825Y011047D02*
X028748Y010970D01*
X028748Y010740D01*
X028595Y010740D02*
X029055Y010740D01*
X029055Y010970D01*
X028978Y011047D01*
X028825Y011047D01*
X028748Y010893D02*
X028595Y011047D01*
X028090Y010190D02*
X028090Y009910D01*
X027755Y009910D02*
X027755Y010190D01*
X029391Y008180D02*
X029391Y007720D01*
X029544Y007720D02*
X029237Y007720D01*
X029544Y008027D02*
X029391Y008180D01*
X029698Y008104D02*
X029698Y007950D01*
X029774Y007873D01*
X030005Y007873D01*
X030005Y007720D02*
X030005Y008180D01*
X029774Y008180D01*
X029698Y008104D01*
X029851Y007873D02*
X029698Y007720D01*
X027855Y007471D02*
X027855Y007318D01*
X027778Y007241D01*
X027702Y007241D01*
X027625Y007318D01*
X027625Y007548D01*
X027778Y007548D02*
X027855Y007471D01*
X027778Y007548D02*
X027471Y007548D01*
X027395Y007471D01*
X027395Y007318D01*
X027471Y007241D01*
X027778Y007087D02*
X027471Y006780D01*
X027395Y006780D01*
X027395Y006627D02*
X027548Y006473D01*
X027548Y006550D02*
X027548Y006320D01*
X027395Y006320D02*
X027855Y006320D01*
X027855Y006550D01*
X027778Y006627D01*
X027625Y006627D01*
X027548Y006550D01*
X027855Y006780D02*
X027855Y007087D01*
X027778Y007087D01*
X026655Y006934D02*
X026195Y006934D01*
X026195Y007087D02*
X026195Y006780D01*
X026195Y006627D02*
X026348Y006473D01*
X026348Y006550D02*
X026348Y006320D01*
X026195Y006320D02*
X026655Y006320D01*
X026655Y006550D01*
X026578Y006627D01*
X026425Y006627D01*
X026348Y006550D01*
X026502Y006780D02*
X026655Y006934D01*
X026655Y007241D02*
X026655Y007548D01*
X026578Y007548D01*
X026271Y007241D01*
X026195Y007241D01*
X021075Y010620D02*
X021075Y010773D01*
X018568Y008020D02*
X018415Y008020D01*
X018338Y007944D01*
X018338Y007867D01*
X018645Y007560D01*
X018338Y007560D01*
X018798Y007560D02*
X019105Y007560D01*
X018645Y007944D02*
X018568Y008020D01*
X012495Y013170D02*
X012495Y013400D01*
X012418Y013477D01*
X012265Y013477D01*
X012188Y013400D01*
X012188Y013170D01*
X012035Y013170D02*
X012495Y013170D01*
X012188Y013323D02*
X012035Y013477D01*
X012035Y013630D02*
X012342Y013937D01*
X012418Y013937D01*
X012495Y013861D01*
X012495Y013707D01*
X012418Y013630D01*
X012035Y013630D02*
X012035Y013937D01*
X012111Y014091D02*
X012418Y014398D01*
X012111Y014398D01*
X012035Y014321D01*
X012035Y014168D01*
X012111Y014091D01*
X012418Y014091D01*
X012495Y014168D01*
X012495Y014321D01*
X012418Y014398D01*
X008778Y009778D02*
X008702Y009778D01*
X008625Y009701D01*
X008548Y009778D01*
X008471Y009778D01*
X008395Y009701D01*
X008395Y009548D01*
X008471Y009471D01*
X008395Y009317D02*
X008395Y009010D01*
X008702Y009317D01*
X008778Y009317D01*
X008855Y009241D01*
X008855Y009087D01*
X008778Y009010D01*
X008778Y008857D02*
X008625Y008857D01*
X008548Y008780D01*
X008548Y008550D01*
X008395Y008550D02*
X008855Y008550D01*
X008855Y008780D01*
X008778Y008857D01*
X008548Y008703D02*
X008395Y008857D01*
X008242Y008110D02*
X008242Y007650D01*
X008395Y007650D02*
X008088Y007650D01*
X007935Y007650D02*
X007628Y007957D01*
X007628Y008034D01*
X007705Y008110D01*
X007858Y008110D01*
X007935Y008034D01*
X008242Y008110D02*
X008395Y007957D01*
X008549Y008034D02*
X008626Y008110D01*
X008779Y008110D01*
X008856Y008034D01*
X008856Y007727D01*
X008779Y007650D01*
X008626Y007650D01*
X008549Y007727D01*
X008549Y008034D01*
X008702Y007803D02*
X008549Y007650D01*
X007935Y007650D02*
X007628Y007650D01*
X008778Y009471D02*
X008855Y009548D01*
X008855Y009701D01*
X008778Y009778D01*
X008625Y009701D02*
X008625Y009624D01*
X021667Y021427D02*
X021744Y021350D01*
X021897Y021350D01*
X021974Y021427D01*
X021974Y021503D01*
X021897Y021580D01*
X021744Y021580D01*
X021667Y021503D01*
X021667Y021427D01*
X021744Y021580D02*
X021667Y021657D01*
X021667Y021734D01*
X021744Y021810D01*
X021897Y021810D01*
X021974Y021734D01*
X021974Y021657D01*
X021897Y021580D01*
X022127Y021503D02*
X022204Y021580D01*
X022434Y021580D01*
X022434Y021427D01*
X022357Y021350D01*
X022204Y021350D01*
X022127Y021427D01*
X022127Y021503D01*
X022281Y021734D02*
X022127Y021810D01*
X022281Y021734D02*
X022434Y021580D01*
X022588Y021427D02*
X022664Y021350D01*
X022818Y021350D01*
X022895Y021427D01*
X022895Y021734D01*
X022818Y021810D01*
X022664Y021810D01*
X022588Y021734D01*
X023125Y021780D02*
X023125Y021500D01*
X023460Y021500D02*
X023460Y021780D01*
X023105Y022525D02*
X022824Y022525D01*
X022824Y022860D02*
X023105Y022860D01*
X023161Y023080D02*
X023085Y023157D01*
X023085Y023310D01*
X023161Y023387D01*
X023315Y023540D02*
X023315Y023847D01*
X023315Y024001D02*
X023315Y024231D01*
X023238Y024308D01*
X023161Y024308D01*
X023085Y024231D01*
X023085Y024078D01*
X023161Y024001D01*
X023315Y024001D01*
X023468Y024154D01*
X023545Y024308D01*
X023545Y023771D02*
X023085Y023771D01*
X023315Y023540D02*
X023545Y023771D01*
X023468Y023387D02*
X023545Y023310D01*
X023545Y023157D01*
X023468Y023080D01*
X023161Y023080D01*
X025427Y024640D02*
X025734Y024640D01*
X025427Y024947D01*
X025427Y025024D01*
X025504Y025100D01*
X025657Y025100D01*
X025734Y025024D01*
X025888Y025100D02*
X025888Y024717D01*
X025964Y024640D01*
X026118Y024640D01*
X026195Y024717D01*
X026195Y025100D01*
X027050Y027320D02*
X027203Y027320D01*
X027280Y027397D01*
X026973Y027704D01*
X026973Y027397D01*
X027050Y027320D01*
X027280Y027397D02*
X027280Y027704D01*
X027203Y027780D01*
X027050Y027780D01*
X026973Y027704D01*
X027433Y027704D02*
X027433Y027627D01*
X027510Y027550D01*
X027433Y027473D01*
X027433Y027397D01*
X027510Y027320D01*
X027664Y027320D01*
X027740Y027397D01*
X027894Y027320D02*
X028201Y027320D01*
X028354Y027320D02*
X028508Y027473D01*
X028431Y027473D02*
X028661Y027473D01*
X028661Y027320D02*
X028661Y027780D01*
X028431Y027780D01*
X028354Y027704D01*
X028354Y027550D01*
X028431Y027473D01*
X028201Y027627D02*
X028047Y027780D01*
X028047Y027320D01*
X027740Y027704D02*
X027664Y027780D01*
X027510Y027780D01*
X027433Y027704D01*
X027510Y027550D02*
X027587Y027550D01*
X027525Y028519D02*
X027065Y028519D01*
X027218Y028519D02*
X027218Y028749D01*
X027295Y028826D01*
X027448Y028826D01*
X027525Y028749D01*
X027525Y028519D01*
X027218Y028672D02*
X027065Y028826D01*
X027065Y028979D02*
X027141Y028979D01*
X027448Y029286D01*
X027525Y029286D01*
X027525Y028979D01*
X027448Y029440D02*
X027525Y029516D01*
X027525Y029670D01*
X027448Y029747D01*
X027372Y029747D01*
X027295Y029670D01*
X027218Y029747D01*
X027141Y029747D01*
X027065Y029670D01*
X027065Y029516D01*
X027141Y029440D01*
X027295Y029593D02*
X027295Y029670D01*
X027317Y029960D02*
X027394Y030037D01*
X027317Y029960D02*
X027164Y029960D01*
X027087Y030037D01*
X027087Y030190D01*
X027164Y030267D01*
X027240Y030267D01*
X027394Y030190D01*
X027394Y030420D01*
X027087Y030420D01*
X027071Y030789D02*
X026995Y030866D01*
X026995Y031019D01*
X027071Y031096D01*
X026995Y031249D02*
X027302Y031556D01*
X027378Y031556D01*
X027455Y031479D01*
X027455Y031326D01*
X027378Y031249D01*
X027378Y031096D02*
X027455Y031019D01*
X027455Y030866D01*
X027378Y030789D01*
X027071Y030789D01*
X026995Y031249D02*
X026995Y031556D01*
X027071Y031710D02*
X027148Y031710D01*
X027225Y031786D01*
X027225Y031940D01*
X027148Y032017D01*
X027071Y032017D01*
X026995Y031940D01*
X026995Y031786D01*
X027071Y031710D01*
X027225Y031786D02*
X027302Y031710D01*
X027378Y031710D01*
X027455Y031786D01*
X027455Y031940D01*
X027378Y032017D01*
X027302Y032017D01*
X027225Y031940D01*
X027178Y032579D02*
X027178Y032809D01*
X027255Y032886D01*
X027408Y032886D01*
X027485Y032809D01*
X027485Y032579D01*
X027025Y032579D01*
X027178Y032732D02*
X027025Y032886D01*
X027025Y033039D02*
X027101Y033039D01*
X027408Y033346D01*
X027485Y033346D01*
X027485Y033039D01*
X027332Y033500D02*
X027485Y033653D01*
X027025Y033653D01*
X027025Y033500D02*
X027025Y033807D01*
X027078Y034350D02*
X026771Y034350D01*
X026695Y034427D01*
X026695Y034580D01*
X026771Y034657D01*
X027078Y034657D01*
X027155Y034580D01*
X027155Y034427D01*
X027078Y034350D01*
X026848Y034503D02*
X026695Y034657D01*
X026771Y034810D02*
X026695Y034887D01*
X026695Y035041D01*
X026771Y035117D01*
X026848Y035117D01*
X026925Y035041D01*
X026925Y034964D01*
X026925Y035041D02*
X027002Y035117D01*
X027078Y035117D01*
X027155Y035041D01*
X027155Y034887D01*
X027078Y034810D01*
X027078Y035271D02*
X026771Y035271D01*
X027078Y035578D01*
X026771Y035578D01*
X026695Y035501D01*
X026695Y035348D01*
X026771Y035271D01*
X027078Y035271D02*
X027155Y035348D01*
X027155Y035501D01*
X027078Y035578D01*
X030495Y035501D02*
X030495Y035348D01*
X030571Y035271D01*
X030878Y035578D01*
X030571Y035578D01*
X030495Y035501D01*
X030571Y035271D02*
X030878Y035271D01*
X030955Y035348D01*
X030955Y035501D01*
X030878Y035578D01*
X030878Y035117D02*
X030955Y035041D01*
X030955Y034887D01*
X030878Y034810D01*
X030878Y034657D02*
X030571Y034657D01*
X030495Y034580D01*
X030495Y034427D01*
X030571Y034350D01*
X030878Y034350D01*
X030955Y034427D01*
X030955Y034580D01*
X030878Y034657D01*
X030648Y034503D02*
X030495Y034657D01*
X030495Y034810D02*
X030802Y035117D01*
X030878Y035117D01*
X030495Y035117D02*
X030495Y034810D01*
X031118Y033817D02*
X030811Y033510D01*
X030735Y033510D01*
X030811Y033356D02*
X030888Y033356D01*
X030965Y033279D01*
X030965Y033049D01*
X030811Y033049D01*
X030735Y033126D01*
X030735Y033279D01*
X030811Y033356D01*
X031118Y033203D02*
X030965Y033049D01*
X030965Y032896D02*
X030888Y032819D01*
X030888Y032589D01*
X030888Y032742D02*
X030735Y032896D01*
X030965Y032896D02*
X031118Y032896D01*
X031195Y032819D01*
X031195Y032589D01*
X030735Y032589D01*
X031078Y032017D02*
X030771Y031710D01*
X030695Y031710D01*
X030695Y031556D02*
X030695Y031249D01*
X031002Y031556D01*
X031078Y031556D01*
X031155Y031479D01*
X031155Y031326D01*
X031078Y031249D01*
X031078Y031096D02*
X031155Y031019D01*
X031155Y030866D01*
X031078Y030789D01*
X030771Y030789D01*
X030695Y030866D01*
X030695Y031019D01*
X030771Y031096D01*
X031155Y031710D02*
X031155Y032017D01*
X031078Y032017D01*
X031505Y031540D02*
X031505Y031260D01*
X031840Y031260D02*
X031840Y031540D01*
X031758Y030400D02*
X031758Y030017D01*
X031834Y029940D01*
X031988Y029940D01*
X032065Y030017D01*
X032065Y030400D01*
X031604Y030170D02*
X031297Y030170D01*
X031144Y030324D02*
X031067Y030400D01*
X030914Y030400D01*
X030837Y030324D01*
X030837Y030247D01*
X031144Y029940D01*
X030837Y029940D01*
X031374Y029940D02*
X031374Y030400D01*
X031604Y030170D01*
X031268Y029337D02*
X030961Y029337D01*
X030885Y029260D01*
X030885Y029106D01*
X030961Y029030D01*
X030961Y028876D02*
X031038Y028876D01*
X031115Y028799D01*
X031115Y028569D01*
X030961Y028569D01*
X030885Y028646D01*
X030885Y028799D01*
X030961Y028876D01*
X031115Y029106D02*
X031115Y029337D01*
X031268Y029337D02*
X031345Y029260D01*
X031345Y029106D01*
X031268Y029030D01*
X031192Y029030D01*
X031115Y029106D01*
X031345Y028876D02*
X031268Y028723D01*
X031115Y028569D01*
X031115Y028416D02*
X031038Y028339D01*
X031038Y028109D01*
X031038Y028262D02*
X030885Y028416D01*
X031115Y028416D02*
X031268Y028416D01*
X031345Y028339D01*
X031345Y028109D01*
X030885Y028109D01*
X030546Y027800D02*
X030316Y027800D01*
X030239Y027724D01*
X030239Y027570D01*
X030316Y027493D01*
X030546Y027493D01*
X030546Y027340D02*
X030546Y027800D01*
X030392Y027493D02*
X030239Y027340D01*
X030085Y027340D02*
X030085Y027417D01*
X029778Y027724D01*
X029778Y027800D01*
X030085Y027800D01*
X029625Y027724D02*
X029548Y027800D01*
X029395Y027800D01*
X029318Y027724D01*
X029318Y027647D01*
X029625Y027340D01*
X029318Y027340D01*
X028985Y026238D02*
X028985Y025931D01*
X029215Y026161D01*
X028755Y026161D01*
X028831Y025777D02*
X028755Y025701D01*
X028755Y025547D01*
X028831Y025470D01*
X028831Y025317D02*
X028755Y025240D01*
X028755Y025087D01*
X028831Y025010D01*
X029138Y025010D01*
X029215Y025087D01*
X029215Y025240D01*
X029138Y025317D01*
X029215Y025470D02*
X028985Y025470D01*
X029062Y025624D01*
X029062Y025701D01*
X028985Y025777D01*
X028831Y025777D01*
X029215Y025777D02*
X029215Y025470D01*
X029635Y025450D02*
X029942Y025757D01*
X030018Y025757D01*
X030095Y025681D01*
X030095Y025527D01*
X030018Y025450D01*
X030018Y025297D02*
X029865Y025297D01*
X029788Y025220D01*
X029788Y024990D01*
X029635Y024990D02*
X030095Y024990D01*
X030095Y025220D01*
X030018Y025297D01*
X029788Y025143D02*
X029635Y025297D01*
X029635Y025450D02*
X029635Y025757D01*
X029130Y024450D02*
X029130Y024170D01*
X028795Y024170D02*
X028795Y024450D01*
X029835Y022080D02*
X029988Y022080D01*
X030065Y022004D01*
X029835Y022080D02*
X029758Y022004D01*
X029758Y021927D01*
X030065Y021620D01*
X029758Y021620D01*
X030218Y021620D02*
X030525Y021620D01*
X030372Y021620D02*
X030372Y022080D01*
X030525Y021927D01*
X030679Y021620D02*
X030986Y021620D01*
X031139Y021620D02*
X031293Y021773D01*
X031216Y021773D02*
X031446Y021773D01*
X031446Y021620D02*
X031446Y022080D01*
X031216Y022080D01*
X031139Y022004D01*
X031139Y021850D01*
X031216Y021773D01*
X030986Y021927D02*
X030832Y022080D01*
X030832Y021620D01*
X035795Y026263D02*
X036255Y026263D01*
X036255Y026494D01*
X036178Y026570D01*
X036025Y026570D01*
X035948Y026494D01*
X035948Y026263D01*
X035948Y026417D02*
X035795Y026570D01*
X035795Y026724D02*
X035795Y027031D01*
X035795Y027184D02*
X036102Y027491D01*
X036178Y027491D01*
X036255Y027414D01*
X036255Y027261D01*
X036178Y027184D01*
X036255Y026877D02*
X035795Y026877D01*
X035795Y027184D02*
X035795Y027491D01*
X035871Y027645D02*
X035795Y027721D01*
X035795Y027875D01*
X035871Y027952D01*
X036025Y027952D01*
X036102Y027875D01*
X036102Y027798D01*
X036025Y027645D01*
X036255Y027645D01*
X036255Y027952D01*
X037325Y027846D02*
X037478Y027692D01*
X037478Y027769D02*
X037478Y027539D01*
X037325Y027539D02*
X037785Y027539D01*
X037785Y027769D01*
X037708Y027846D01*
X037555Y027846D01*
X037478Y027769D01*
X037401Y027999D02*
X037325Y028076D01*
X037325Y028229D01*
X037401Y028306D01*
X037555Y028306D01*
X037632Y028229D01*
X037632Y028153D01*
X037555Y027999D01*
X037785Y027999D01*
X037785Y028306D01*
X037708Y028460D02*
X037785Y028536D01*
X037785Y028690D01*
X037708Y028767D01*
X037632Y028767D01*
X037325Y028460D01*
X037325Y028767D01*
X038478Y027930D02*
X038708Y027700D01*
X038402Y027700D01*
X038478Y027470D02*
X038478Y027930D01*
X038862Y027854D02*
X038939Y027930D01*
X039092Y027930D01*
X039169Y027854D01*
X038862Y027854D02*
X038862Y027777D01*
X039169Y027470D01*
X038862Y027470D01*
X039322Y027470D02*
X039629Y027470D01*
X039476Y027470D02*
X039476Y027930D01*
X039629Y027777D01*
X039783Y027854D02*
X039783Y027700D01*
X039859Y027623D01*
X040090Y027623D01*
X040090Y027470D02*
X040090Y027930D01*
X039859Y027930D01*
X039783Y027854D01*
X039936Y027623D02*
X039783Y027470D01*
X040215Y028239D02*
X040675Y028239D01*
X040675Y028469D01*
X040598Y028546D01*
X040445Y028546D01*
X040368Y028469D01*
X040368Y028239D01*
X040368Y028392D02*
X040215Y028546D01*
X040445Y028699D02*
X040445Y029006D01*
X040522Y029160D02*
X040445Y029236D01*
X040445Y029467D01*
X040598Y029467D02*
X040291Y029467D01*
X040215Y029390D01*
X040215Y029236D01*
X040291Y029160D01*
X040522Y029160D02*
X040598Y029160D01*
X040675Y029236D01*
X040675Y029390D01*
X040598Y029467D01*
X040675Y028929D02*
X040215Y028929D01*
X040445Y028699D02*
X040675Y028929D01*
X040955Y028840D02*
X040955Y028686D01*
X041031Y028610D01*
X041108Y028610D01*
X041185Y028686D01*
X041185Y028840D01*
X041108Y028917D01*
X041031Y028917D01*
X040955Y028840D01*
X041185Y028840D02*
X041262Y028917D01*
X041338Y028917D01*
X041415Y028840D01*
X041415Y028686D01*
X041338Y028610D01*
X041262Y028610D01*
X041185Y028686D01*
X041185Y028456D02*
X041185Y028149D01*
X041415Y028379D01*
X040955Y028379D01*
X040955Y027996D02*
X041108Y027842D01*
X041108Y027919D02*
X041108Y027689D01*
X040955Y027689D02*
X041415Y027689D01*
X041415Y027919D01*
X041338Y027996D01*
X041185Y027996D01*
X041108Y027919D01*
X042002Y027927D02*
X042078Y027850D01*
X042002Y027773D01*
X042002Y027697D01*
X042078Y027620D01*
X042232Y027620D01*
X042308Y027697D01*
X042462Y027620D02*
X042769Y027620D01*
X042462Y027927D01*
X042462Y028004D01*
X042539Y028080D01*
X042692Y028080D01*
X042769Y028004D01*
X043076Y028080D02*
X043076Y027620D01*
X043229Y027620D02*
X042922Y027620D01*
X043229Y027927D02*
X043076Y028080D01*
X043383Y028004D02*
X043383Y027850D01*
X043459Y027773D01*
X043690Y027773D01*
X043690Y027620D02*
X043690Y028080D01*
X043459Y028080D01*
X043383Y028004D01*
X043536Y027773D02*
X043383Y027620D01*
X043945Y027889D02*
X044405Y027889D01*
X044405Y028119D01*
X044328Y028196D01*
X044175Y028196D01*
X044098Y028119D01*
X044098Y027889D01*
X044098Y028042D02*
X043945Y028196D01*
X044175Y028349D02*
X044175Y028656D01*
X044175Y028810D02*
X044252Y028963D01*
X044252Y029040D01*
X044175Y029117D01*
X044021Y029117D01*
X043945Y029040D01*
X043945Y028886D01*
X044021Y028810D01*
X044175Y028810D02*
X044405Y028810D01*
X044405Y029117D01*
X044405Y028579D02*
X044175Y028349D01*
X043945Y028579D02*
X044405Y028579D01*
X045155Y028790D02*
X045615Y028790D01*
X045385Y028560D01*
X045385Y028867D01*
X045385Y028406D02*
X045385Y028099D01*
X045615Y028329D01*
X045155Y028329D01*
X045155Y027946D02*
X045308Y027792D01*
X045308Y027869D02*
X045308Y027639D01*
X045155Y027639D02*
X045615Y027639D01*
X045615Y027869D01*
X045538Y027946D01*
X045385Y027946D01*
X045308Y027869D01*
X045257Y026680D02*
X045334Y026604D01*
X045257Y026680D02*
X045104Y026680D01*
X045027Y026604D01*
X045027Y026527D01*
X045334Y026220D01*
X045027Y026220D01*
X045184Y025915D02*
X045465Y025915D01*
X045487Y026220D02*
X045794Y026220D01*
X045641Y026220D02*
X045641Y026680D01*
X045794Y026527D01*
X045948Y026604D02*
X046024Y026680D01*
X046178Y026680D01*
X046255Y026604D01*
X046255Y026297D01*
X046178Y026220D01*
X046024Y026220D01*
X045948Y026297D01*
X045465Y025580D02*
X045184Y025580D01*
X046484Y024765D02*
X046765Y024765D01*
X046765Y024430D02*
X046484Y024430D01*
X046240Y023540D02*
X046240Y023260D01*
X045905Y023260D02*
X045905Y023540D01*
X046045Y022730D02*
X046199Y022730D01*
X046275Y022654D01*
X046275Y022347D01*
X046199Y022270D01*
X046045Y022270D01*
X045968Y022347D01*
X045815Y022347D02*
X045738Y022270D01*
X045585Y022270D01*
X045508Y022347D01*
X045508Y022654D01*
X045585Y022730D01*
X045738Y022730D01*
X045815Y022654D01*
X045815Y022577D01*
X045738Y022500D01*
X045508Y022500D01*
X045968Y022654D02*
X046045Y022730D01*
X044840Y022290D02*
X044840Y022010D01*
X044505Y022010D02*
X044505Y022290D01*
X044362Y021030D02*
X044362Y020570D01*
X044515Y020570D02*
X044208Y020570D01*
X044515Y020877D02*
X044362Y021030D01*
X044822Y021030D02*
X044822Y020570D01*
X044975Y020570D02*
X044668Y020570D01*
X044975Y020877D02*
X044822Y021030D01*
X045129Y020954D02*
X045206Y021030D01*
X045359Y021030D01*
X045436Y020954D01*
X045436Y020647D01*
X045359Y020570D01*
X045206Y020570D01*
X045129Y020647D01*
X042155Y022016D02*
X042078Y021939D01*
X041771Y021939D01*
X041695Y022016D01*
X041695Y022169D01*
X041771Y022246D01*
X041695Y022399D02*
X041695Y022706D01*
X041695Y022553D02*
X042155Y022553D01*
X042002Y022399D01*
X042078Y022246D02*
X042155Y022169D01*
X042155Y022016D01*
X042305Y022810D02*
X042305Y023090D01*
X042155Y023167D02*
X042078Y023167D01*
X041771Y022860D01*
X041695Y022860D01*
X042155Y022860D02*
X042155Y023167D01*
X042640Y023090D02*
X042640Y022810D01*
X042415Y023835D02*
X042134Y023835D01*
X042134Y024170D02*
X042415Y024170D01*
X042737Y024497D02*
X042814Y024420D01*
X042967Y024420D01*
X043044Y024497D01*
X043044Y024573D01*
X042967Y024650D01*
X042814Y024650D01*
X042737Y024573D01*
X042737Y024497D01*
X042814Y024650D02*
X042737Y024727D01*
X042737Y024804D01*
X042814Y024880D01*
X042967Y024880D01*
X043044Y024804D01*
X043044Y024727D01*
X042967Y024650D01*
X043198Y024497D02*
X043274Y024420D01*
X043428Y024420D01*
X043505Y024497D01*
X043505Y024804D01*
X043428Y024880D01*
X043274Y024880D01*
X043198Y024804D01*
X041415Y025580D02*
X041134Y025580D01*
X041134Y025915D02*
X041415Y025915D01*
X041555Y026120D02*
X041248Y026120D01*
X041094Y026197D02*
X041017Y026120D01*
X040864Y026120D01*
X040787Y026197D01*
X040787Y026350D01*
X040864Y026427D01*
X040941Y026427D01*
X041094Y026350D01*
X041094Y026580D01*
X040787Y026580D01*
X041555Y026580D02*
X041555Y026120D01*
X042078Y027850D02*
X042155Y027850D01*
X042002Y027927D02*
X042002Y028004D01*
X042078Y028080D01*
X042232Y028080D01*
X042308Y028004D01*
X042204Y030020D02*
X042204Y030480D01*
X042434Y030250D01*
X042127Y030250D01*
X042587Y030327D02*
X042587Y030404D01*
X042664Y030480D01*
X042817Y030480D01*
X042894Y030404D01*
X043048Y030480D02*
X043048Y030097D01*
X043124Y030020D01*
X043278Y030020D01*
X043355Y030097D01*
X043355Y030480D01*
X042894Y030020D02*
X042587Y030327D01*
X042587Y030020D02*
X042894Y030020D01*
X042478Y030789D02*
X042171Y030789D01*
X042095Y030866D01*
X042095Y031019D01*
X042171Y031096D01*
X042095Y031249D02*
X042095Y031556D01*
X042095Y031710D02*
X042402Y032017D01*
X042478Y032017D01*
X042555Y031940D01*
X042555Y031786D01*
X042478Y031710D01*
X042478Y031556D02*
X042555Y031479D01*
X042555Y031326D01*
X042478Y031249D01*
X042478Y031096D02*
X042555Y031019D01*
X042555Y030866D01*
X042478Y030789D01*
X042095Y031249D02*
X042402Y031556D01*
X042478Y031556D01*
X042855Y031540D02*
X042855Y031260D01*
X043190Y031260D02*
X043190Y031540D01*
X042095Y031710D02*
X042095Y032017D01*
X042165Y032569D02*
X042625Y032569D01*
X042625Y032799D01*
X042548Y032876D01*
X042395Y032876D01*
X042318Y032799D01*
X042318Y032569D01*
X042318Y032722D02*
X042165Y032876D01*
X042395Y033029D02*
X042395Y033336D01*
X042548Y033490D02*
X042625Y033566D01*
X042625Y033720D01*
X042548Y033797D01*
X042472Y033797D01*
X042395Y033720D01*
X042318Y033797D01*
X042241Y033797D01*
X042165Y033720D01*
X042165Y033566D01*
X042241Y033490D01*
X042395Y033643D02*
X042395Y033720D01*
X042625Y033259D02*
X042395Y033029D01*
X042165Y033259D02*
X042625Y033259D01*
X042288Y034240D02*
X041981Y034240D01*
X041905Y034317D01*
X041905Y034470D01*
X041981Y034547D01*
X042288Y034547D01*
X042365Y034470D01*
X042365Y034317D01*
X042288Y034240D01*
X042058Y034393D02*
X041905Y034547D01*
X041905Y034700D02*
X041905Y035007D01*
X041905Y034854D02*
X042365Y034854D01*
X042212Y034700D01*
X042135Y035161D02*
X042135Y035391D01*
X042058Y035468D01*
X041981Y035468D01*
X041905Y035391D01*
X041905Y035238D01*
X041981Y035161D01*
X042135Y035161D01*
X042288Y035314D01*
X042365Y035468D01*
X045665Y034921D02*
X045741Y034997D01*
X045818Y034997D01*
X045895Y034921D01*
X045895Y034690D01*
X045741Y034690D01*
X045665Y034767D01*
X045665Y034921D01*
X045895Y034690D02*
X046048Y034844D01*
X046125Y034997D01*
X046048Y034537D02*
X045741Y034537D01*
X045665Y034460D01*
X045665Y034307D01*
X045741Y034230D01*
X046048Y034230D01*
X046125Y034307D01*
X046125Y034460D01*
X046048Y034537D01*
X045818Y034383D02*
X045665Y034537D01*
X045755Y039460D02*
X046215Y039460D01*
X046215Y039690D01*
X046138Y039767D01*
X045985Y039767D01*
X045908Y039690D01*
X045908Y039460D01*
X045908Y039613D02*
X045755Y039767D01*
X045985Y039920D02*
X045985Y040227D01*
X046138Y040381D02*
X046215Y040458D01*
X046215Y040611D01*
X046138Y040688D01*
X046062Y040688D01*
X045755Y040381D01*
X045755Y040688D01*
X045755Y040151D02*
X046215Y040151D01*
X045985Y039920D01*
X044835Y039924D02*
X044758Y040000D01*
X044604Y040000D01*
X044528Y039924D01*
X044528Y039617D01*
X044604Y039540D01*
X044758Y039540D01*
X044835Y039617D01*
X044835Y039924D01*
X044681Y039693D02*
X044528Y039540D01*
X044374Y039617D02*
X044297Y039540D01*
X044144Y039540D01*
X044067Y039617D01*
X044067Y039770D01*
X044144Y039847D01*
X044221Y039847D01*
X044374Y039770D01*
X044374Y040000D01*
X044067Y040000D01*
X042465Y040091D02*
X042235Y039860D01*
X042235Y040167D01*
X042235Y040321D02*
X042235Y040551D01*
X042158Y040628D01*
X042081Y040628D01*
X042005Y040551D01*
X042005Y040398D01*
X042081Y040321D01*
X042235Y040321D01*
X042388Y040474D01*
X042465Y040628D01*
X042465Y040091D02*
X042005Y040091D01*
X042005Y039707D02*
X042158Y039553D01*
X042158Y039630D02*
X042158Y039400D01*
X042005Y039400D02*
X042465Y039400D01*
X042465Y039630D01*
X042388Y039707D01*
X042235Y039707D01*
X042158Y039630D01*
X041475Y039667D02*
X041398Y039590D01*
X041244Y039590D01*
X041168Y039667D01*
X041168Y039974D01*
X041244Y040050D01*
X041398Y040050D01*
X041475Y039974D01*
X041475Y039667D01*
X041321Y039743D02*
X041168Y039590D01*
X041014Y039590D02*
X040707Y039590D01*
X040861Y039590D02*
X040861Y040050D01*
X041014Y039897D01*
X040554Y039820D02*
X040554Y040050D01*
X040247Y040050D01*
X040324Y039897D02*
X040247Y039820D01*
X040247Y039667D01*
X040324Y039590D01*
X040477Y039590D01*
X040554Y039667D01*
X040554Y039820D02*
X040400Y039897D01*
X040324Y039897D01*
X038685Y039850D02*
X038455Y039850D01*
X038532Y040004D01*
X038532Y040081D01*
X038455Y040157D01*
X038301Y040157D01*
X038225Y040081D01*
X038225Y039927D01*
X038301Y039850D01*
X038225Y039697D02*
X038378Y039543D01*
X038378Y039620D02*
X038378Y039390D01*
X038225Y039390D02*
X038685Y039390D01*
X038685Y039620D01*
X038608Y039697D01*
X038455Y039697D01*
X038378Y039620D01*
X038685Y039850D02*
X038685Y040157D01*
X038608Y040311D02*
X038685Y040388D01*
X038685Y040541D01*
X038608Y040618D01*
X038301Y040311D01*
X038225Y040388D01*
X038225Y040541D01*
X038301Y040618D01*
X038608Y040618D01*
X038608Y040311D02*
X038301Y040311D01*
X037435Y040004D02*
X037435Y039697D01*
X037358Y039620D01*
X037204Y039620D01*
X037128Y039697D01*
X037128Y040004D01*
X037204Y040080D01*
X037358Y040080D01*
X037435Y040004D01*
X037281Y039773D02*
X037128Y039620D01*
X036974Y039620D02*
X036667Y039927D01*
X036667Y040004D01*
X036744Y040080D01*
X036897Y040080D01*
X036974Y040004D01*
X036974Y039620D02*
X036667Y039620D01*
X036514Y039697D02*
X036437Y039620D01*
X036284Y039620D01*
X036207Y039697D01*
X036207Y039850D01*
X036284Y039927D01*
X036360Y039927D01*
X036514Y039850D01*
X036514Y040080D01*
X036207Y040080D01*
X035005Y040067D02*
X034928Y039914D01*
X034775Y039760D01*
X034775Y039991D01*
X034698Y040067D01*
X034621Y040067D01*
X034545Y039991D01*
X034545Y039837D01*
X034621Y039760D01*
X034775Y039760D01*
X034775Y039607D02*
X034698Y039530D01*
X034698Y039300D01*
X034545Y039300D02*
X035005Y039300D01*
X035005Y039530D01*
X034928Y039607D01*
X034775Y039607D01*
X034698Y039453D02*
X034545Y039607D01*
X034621Y040221D02*
X034545Y040298D01*
X034545Y040451D01*
X034621Y040528D01*
X034698Y040528D01*
X034775Y040451D01*
X034775Y040221D01*
X034621Y040221D01*
X034775Y040221D02*
X034928Y040374D01*
X035005Y040528D01*
X033195Y039974D02*
X033195Y039667D01*
X033118Y039590D01*
X032964Y039590D01*
X032888Y039667D01*
X032888Y039974D01*
X032964Y040050D01*
X033118Y040050D01*
X033195Y039974D01*
X033041Y039743D02*
X032888Y039590D01*
X032734Y039667D02*
X032657Y039590D01*
X032504Y039590D01*
X032427Y039667D01*
X032427Y039974D01*
X032504Y040050D01*
X032657Y040050D01*
X032734Y039974D01*
X032734Y039897D01*
X032657Y039820D01*
X032427Y039820D01*
X031885Y039761D02*
X031808Y039838D01*
X031501Y039531D01*
X031425Y039608D01*
X031425Y039761D01*
X031501Y039838D01*
X031808Y039838D01*
X031885Y039761D02*
X031885Y039608D01*
X031808Y039531D01*
X031501Y039531D01*
X031808Y039377D02*
X031501Y039070D01*
X031425Y039070D01*
X031425Y038917D02*
X031578Y038763D01*
X031578Y038840D02*
X031578Y038610D01*
X031425Y038610D02*
X031885Y038610D01*
X031885Y038840D01*
X031808Y038917D01*
X031655Y038917D01*
X031578Y038840D01*
X031885Y039070D02*
X031885Y039377D01*
X031808Y039377D01*
X031105Y039797D02*
X031028Y039720D01*
X030874Y039720D01*
X030798Y039797D01*
X030644Y039797D02*
X030567Y039720D01*
X030414Y039720D01*
X030337Y039797D01*
X030337Y039873D01*
X030414Y039950D01*
X030491Y039950D01*
X030414Y039950D02*
X030337Y040027D01*
X030337Y040104D01*
X030414Y040180D01*
X030567Y040180D01*
X030644Y040104D01*
X030798Y040104D02*
X030874Y040180D01*
X031028Y040180D01*
X031105Y040104D01*
X031105Y039797D01*
X031065Y040380D02*
X030784Y040380D01*
X030784Y040715D02*
X031065Y040715D01*
X029785Y039984D02*
X029785Y039677D01*
X029708Y039600D01*
X029554Y039600D01*
X029478Y039677D01*
X029478Y039984D01*
X029554Y040060D01*
X029708Y040060D01*
X029785Y039984D01*
X029631Y039753D02*
X029478Y039600D01*
X029324Y039600D02*
X029017Y039600D01*
X029171Y039600D02*
X029171Y040060D01*
X029324Y039907D01*
X028864Y039907D02*
X028864Y039984D01*
X028787Y040060D01*
X028634Y040060D01*
X028557Y039984D01*
X028557Y039677D01*
X028634Y039600D01*
X028787Y039600D01*
X028864Y039677D01*
X028787Y039830D02*
X028557Y039830D01*
X028787Y039830D02*
X028864Y039907D01*
X027525Y039860D02*
X027525Y040167D01*
X027448Y040167D01*
X027141Y039860D01*
X027065Y039860D01*
X027065Y039707D02*
X027218Y039553D01*
X027218Y039630D02*
X027218Y039400D01*
X027065Y039400D02*
X027525Y039400D01*
X027525Y039630D01*
X027448Y039707D01*
X027295Y039707D01*
X027218Y039630D01*
X027295Y040321D02*
X027295Y040628D01*
X027065Y040551D02*
X027525Y040551D01*
X027295Y040321D01*
X025965Y040044D02*
X025965Y039737D01*
X025888Y039660D01*
X025734Y039660D01*
X025658Y039737D01*
X025658Y040044D01*
X025734Y040120D01*
X025888Y040120D01*
X025965Y040044D01*
X025811Y039813D02*
X025658Y039660D01*
X025504Y039660D02*
X025197Y039967D01*
X025197Y040044D01*
X025274Y040120D01*
X025427Y040120D01*
X025504Y040044D01*
X025504Y039660D02*
X025197Y039660D01*
X025044Y039737D02*
X024967Y039660D01*
X024814Y039660D01*
X024737Y039737D01*
X024737Y040044D01*
X024814Y040120D01*
X024967Y040120D01*
X025044Y040044D01*
X025044Y039967D01*
X024967Y039890D01*
X024737Y039890D01*
X023786Y039230D02*
X023556Y039230D01*
X023479Y039154D01*
X023479Y039000D01*
X023556Y038923D01*
X023786Y038923D01*
X023786Y038770D02*
X023786Y039230D01*
X023632Y038923D02*
X023479Y038770D01*
X023325Y038847D02*
X023325Y038923D01*
X023249Y039000D01*
X023095Y039000D01*
X023018Y038923D01*
X023018Y038847D01*
X023095Y038770D01*
X023249Y038770D01*
X023325Y038847D01*
X023249Y039000D02*
X023325Y039077D01*
X023325Y039154D01*
X023249Y039230D01*
X023095Y039230D01*
X023018Y039154D01*
X023018Y039077D01*
X023095Y039000D01*
X022865Y038923D02*
X022788Y039000D01*
X022635Y039000D01*
X022558Y038923D01*
X022558Y038847D01*
X022635Y038770D01*
X022788Y038770D01*
X022865Y038847D01*
X022865Y038923D01*
X022788Y039000D02*
X022865Y039077D01*
X022865Y039154D01*
X022788Y039230D01*
X022635Y039230D01*
X022558Y039154D01*
X022558Y039077D01*
X022635Y039000D01*
X020815Y036465D02*
X020534Y036465D01*
X020534Y036130D02*
X020815Y036130D01*
X020775Y035780D02*
X020468Y035780D01*
X020315Y035704D02*
X020238Y035780D01*
X020085Y035780D01*
X020008Y035704D01*
X020008Y035627D01*
X020315Y035320D01*
X020008Y035320D01*
X020468Y035397D02*
X020468Y035550D01*
X020545Y035627D01*
X020622Y035627D01*
X020775Y035550D01*
X020775Y035780D01*
X020929Y035704D02*
X021006Y035780D01*
X021159Y035780D01*
X021236Y035704D01*
X021236Y035397D01*
X021159Y035320D01*
X021006Y035320D01*
X020929Y035397D01*
X020775Y035397D02*
X020699Y035320D01*
X020545Y035320D01*
X020468Y035397D01*
X023275Y033730D02*
X023275Y033576D01*
X023351Y033500D01*
X023505Y033500D02*
X023582Y033653D01*
X023582Y033730D01*
X023505Y033807D01*
X023351Y033807D01*
X023275Y033730D01*
X023505Y033500D02*
X023735Y033500D01*
X023735Y033807D01*
X023735Y033346D02*
X023658Y033346D01*
X023351Y033039D01*
X023275Y033039D01*
X023275Y032886D02*
X023428Y032732D01*
X023428Y032809D02*
X023428Y032579D01*
X023275Y032579D02*
X023735Y032579D01*
X023735Y032809D01*
X023658Y032886D01*
X023505Y032886D01*
X023428Y032809D01*
X023735Y033039D02*
X023735Y033346D01*
X023578Y032280D02*
X023655Y032204D01*
X023655Y031897D01*
X023578Y031820D01*
X023424Y031820D01*
X023348Y031897D01*
X023194Y031897D02*
X023117Y031820D01*
X022964Y031820D01*
X022887Y031897D01*
X022887Y031973D01*
X022964Y032050D01*
X023041Y032050D01*
X022964Y032050D02*
X022887Y032127D01*
X022887Y032204D01*
X022964Y032280D01*
X023117Y032280D01*
X023194Y032204D01*
X023348Y032204D02*
X023424Y032280D01*
X023578Y032280D01*
X022734Y032204D02*
X022657Y032280D01*
X022504Y032280D01*
X022427Y032204D01*
X022734Y031897D01*
X022657Y031820D01*
X022504Y031820D01*
X022427Y031897D01*
X022427Y032204D01*
X022734Y032204D02*
X022734Y031897D01*
X022687Y031200D02*
X022534Y031200D01*
X022457Y031124D01*
X022457Y031047D01*
X022534Y030970D01*
X022687Y030970D01*
X022764Y031047D01*
X022764Y031124D01*
X022687Y031200D01*
X022687Y030970D02*
X022764Y030893D01*
X022764Y030817D01*
X022687Y030740D01*
X022534Y030740D01*
X022457Y030817D01*
X022457Y030893D01*
X022534Y030970D01*
X022917Y030970D02*
X023224Y030970D01*
X022994Y031200D01*
X022994Y030740D01*
X023378Y030817D02*
X023378Y031200D01*
X023685Y031200D02*
X023685Y030817D01*
X023608Y030740D01*
X023454Y030740D01*
X023378Y030817D01*
X024005Y031260D02*
X024005Y031540D01*
X024340Y031540D02*
X024340Y031260D01*
X023825Y029550D02*
X023594Y029550D01*
X023518Y029474D01*
X023518Y029320D01*
X023594Y029243D01*
X023825Y029243D01*
X023825Y029090D02*
X023825Y029550D01*
X023671Y029243D02*
X023518Y029090D01*
X023364Y029090D02*
X023364Y029167D01*
X023057Y029474D01*
X023057Y029550D01*
X023364Y029550D01*
X022904Y029550D02*
X022597Y029550D01*
X022597Y029474D01*
X022904Y029167D01*
X022904Y029090D01*
X024026Y027980D02*
X024026Y027520D01*
X023873Y027520D02*
X024180Y027520D01*
X024333Y027597D02*
X024410Y027520D01*
X024564Y027520D01*
X024640Y027597D01*
X024794Y027520D02*
X025101Y027520D01*
X025254Y027520D02*
X025408Y027673D01*
X025331Y027673D02*
X025561Y027673D01*
X025561Y027520D02*
X025561Y027980D01*
X025331Y027980D01*
X025254Y027904D01*
X025254Y027750D01*
X025331Y027673D01*
X025101Y027827D02*
X024947Y027980D01*
X024947Y027520D01*
X024640Y027904D02*
X024564Y027980D01*
X024410Y027980D01*
X024333Y027904D01*
X024333Y027827D01*
X024410Y027750D01*
X024333Y027673D01*
X024333Y027597D01*
X024410Y027750D02*
X024487Y027750D01*
X024180Y027827D02*
X024026Y027980D01*
X025915Y027969D02*
X025991Y027969D01*
X026298Y028276D01*
X026375Y028276D01*
X026375Y027969D01*
X026298Y027816D02*
X026145Y027816D01*
X026068Y027739D01*
X026068Y027509D01*
X026068Y027662D02*
X025915Y027816D01*
X025915Y027509D02*
X026375Y027509D01*
X026375Y027739D01*
X026298Y027816D01*
X026145Y028430D02*
X026145Y028660D01*
X026068Y028737D01*
X025991Y028737D01*
X025915Y028660D01*
X025915Y028506D01*
X025991Y028430D01*
X026145Y028430D01*
X026298Y028583D01*
X026375Y028737D01*
X027624Y029960D02*
X027624Y030420D01*
X027854Y030190D01*
X027547Y030190D01*
X028008Y030037D02*
X028008Y030420D01*
X028315Y030420D02*
X028315Y030037D01*
X028238Y029960D01*
X028084Y029960D01*
X028008Y030037D01*
X028090Y031260D02*
X028090Y031540D01*
X027755Y031540D02*
X027755Y031260D01*
X031118Y033203D02*
X031195Y033356D01*
X031195Y033510D02*
X031195Y033817D01*
X031118Y033817D01*
X034235Y034417D02*
X034311Y034340D01*
X034618Y034340D01*
X034695Y034417D01*
X034695Y034570D01*
X034618Y034647D01*
X034311Y034647D01*
X034235Y034570D01*
X034235Y034417D01*
X034388Y034493D02*
X034235Y034647D01*
X034235Y034800D02*
X034235Y035107D01*
X034235Y034954D02*
X034695Y034954D01*
X034542Y034800D01*
X034618Y035261D02*
X034695Y035338D01*
X034695Y035491D01*
X034618Y035568D01*
X034311Y035261D01*
X034235Y035338D01*
X034235Y035491D01*
X034311Y035568D01*
X034618Y035568D01*
X034618Y035261D02*
X034311Y035261D01*
X034585Y033807D02*
X034585Y033500D01*
X034585Y033653D02*
X035045Y033653D01*
X034892Y033500D01*
X034815Y033346D02*
X034661Y033346D01*
X034585Y033269D01*
X034585Y033116D01*
X034661Y033039D01*
X034815Y033039D02*
X034892Y033193D01*
X034892Y033269D01*
X034815Y033346D01*
X035045Y033346D02*
X035045Y033039D01*
X034815Y033039D01*
X034815Y032886D02*
X034738Y032809D01*
X034738Y032579D01*
X034738Y032732D02*
X034585Y032886D01*
X034815Y032886D02*
X034968Y032886D01*
X035045Y032809D01*
X035045Y032579D01*
X034585Y032579D01*
X034621Y032017D02*
X034545Y031940D01*
X034545Y031786D01*
X034621Y031710D01*
X034621Y031556D02*
X034545Y031479D01*
X034545Y031326D01*
X034621Y031249D01*
X034621Y031096D02*
X034545Y031019D01*
X034545Y030866D01*
X034621Y030789D01*
X034928Y030789D01*
X035005Y030866D01*
X035005Y031019D01*
X034928Y031096D01*
X034928Y031249D02*
X035005Y031326D01*
X035005Y031479D01*
X034928Y031556D01*
X034852Y031556D01*
X034775Y031479D01*
X034698Y031556D01*
X034621Y031556D01*
X034775Y031479D02*
X034775Y031403D01*
X034928Y031710D02*
X035005Y031786D01*
X035005Y031940D01*
X034928Y032017D01*
X034852Y032017D01*
X034775Y031940D01*
X034698Y032017D01*
X034621Y032017D01*
X034775Y031940D02*
X034775Y031863D01*
X035305Y031540D02*
X035305Y031260D01*
X035640Y031260D02*
X035640Y031540D01*
X035578Y030460D02*
X035578Y030077D01*
X035654Y030000D01*
X035808Y030000D01*
X035885Y030077D01*
X035885Y030460D01*
X035424Y030384D02*
X035347Y030460D01*
X035194Y030460D01*
X035117Y030384D01*
X035117Y030307D01*
X035194Y030230D01*
X035117Y030153D01*
X035117Y030077D01*
X035194Y030000D01*
X035347Y030000D01*
X035424Y030077D01*
X035271Y030230D02*
X035194Y030230D01*
X034964Y030077D02*
X034657Y030384D01*
X034657Y030077D01*
X034734Y030000D01*
X034887Y030000D01*
X034964Y030077D01*
X034964Y030384D01*
X034887Y030460D01*
X034734Y030460D01*
X034657Y030384D01*
X034771Y029817D02*
X034695Y029740D01*
X034695Y029586D01*
X034771Y029510D01*
X034771Y029356D02*
X034695Y029279D01*
X034695Y029126D01*
X034771Y029049D01*
X034925Y029049D02*
X035002Y029203D01*
X035002Y029279D01*
X034925Y029356D01*
X034771Y029356D01*
X034925Y029049D02*
X035155Y029049D01*
X035155Y029356D01*
X035078Y029510D02*
X035155Y029586D01*
X035155Y029740D01*
X035078Y029817D01*
X035002Y029817D01*
X034925Y029740D01*
X034848Y029817D01*
X034771Y029817D01*
X034925Y029740D02*
X034925Y029663D01*
X034925Y028896D02*
X034848Y028819D01*
X034848Y028589D01*
X034848Y028742D02*
X034695Y028896D01*
X034925Y028896D02*
X035078Y028896D01*
X035155Y028819D01*
X035155Y028589D01*
X034695Y028589D01*
X034185Y028526D02*
X034185Y028680D01*
X034108Y028757D01*
X034032Y028757D01*
X033955Y028680D01*
X033955Y028526D01*
X034032Y028450D01*
X034108Y028450D01*
X034185Y028526D01*
X034185Y028296D02*
X034108Y028143D01*
X033955Y027989D01*
X033955Y028219D01*
X033878Y028296D01*
X033801Y028296D01*
X033725Y028219D01*
X033725Y028066D01*
X033801Y027989D01*
X033955Y027989D01*
X033955Y027836D02*
X033878Y027759D01*
X033878Y027529D01*
X033878Y027682D02*
X033725Y027836D01*
X033955Y027836D02*
X034108Y027836D01*
X034185Y027759D01*
X034185Y027529D01*
X033725Y027529D01*
X033801Y028450D02*
X033878Y028450D01*
X033955Y028526D01*
X033955Y028680D02*
X033878Y028757D01*
X033801Y028757D01*
X033725Y028680D01*
X033725Y028526D01*
X033801Y028450D01*
X032811Y027380D02*
X032581Y027380D01*
X032504Y027304D01*
X032504Y027150D01*
X032581Y027073D01*
X032811Y027073D01*
X032811Y026920D02*
X032811Y027380D01*
X032658Y027073D02*
X032504Y026920D01*
X032351Y026920D02*
X032044Y026920D01*
X032197Y026920D02*
X032197Y027380D01*
X032351Y027227D01*
X031890Y027304D02*
X031814Y027380D01*
X031660Y027380D01*
X031583Y027304D01*
X031583Y027227D01*
X031890Y026920D01*
X031583Y026920D01*
X031430Y026997D02*
X031353Y026920D01*
X031200Y026920D01*
X031123Y026997D01*
X031123Y027304D01*
X031200Y027380D01*
X031353Y027380D01*
X031430Y027304D01*
X031430Y027227D01*
X031353Y027150D01*
X031123Y027150D01*
X036102Y026724D02*
X036255Y026877D01*
X037127Y023830D02*
X037127Y023754D01*
X037434Y023447D01*
X037434Y023370D01*
X037587Y023754D02*
X037894Y023447D01*
X037894Y023370D01*
X038048Y023447D02*
X038124Y023370D01*
X038278Y023370D01*
X038355Y023447D01*
X038355Y023754D01*
X038278Y023830D01*
X038124Y023830D01*
X038048Y023754D01*
X037894Y023830D02*
X037587Y023830D01*
X037587Y023754D01*
X037434Y023830D02*
X037127Y023830D01*
X037484Y022470D02*
X037765Y022470D01*
X037765Y022135D02*
X037484Y022135D01*
X037734Y021670D02*
X038015Y021670D01*
X038015Y021335D02*
X037734Y021335D01*
X037875Y021130D02*
X037568Y021130D01*
X037568Y021054D01*
X037875Y020747D01*
X037875Y020670D01*
X038029Y020747D02*
X038106Y020670D01*
X038259Y020670D01*
X038336Y020747D01*
X038336Y021054D01*
X038259Y021130D01*
X038106Y021130D01*
X038029Y021054D01*
X037415Y021054D02*
X037415Y020977D01*
X037338Y020900D01*
X037108Y020900D01*
X037108Y020747D02*
X037108Y021054D01*
X037185Y021130D01*
X037338Y021130D01*
X037415Y021054D01*
X037415Y020747D02*
X037338Y020670D01*
X037185Y020670D01*
X037108Y020747D01*
X037458Y017580D02*
X037765Y017580D01*
X037765Y017350D01*
X037612Y017427D01*
X037535Y017427D01*
X037458Y017350D01*
X037458Y017197D01*
X037535Y017120D01*
X037688Y017120D01*
X037765Y017197D01*
X037918Y017197D02*
X037995Y017120D01*
X038149Y017120D01*
X038225Y017197D01*
X037918Y017504D01*
X037918Y017197D01*
X037918Y017504D02*
X037995Y017580D01*
X038149Y017580D01*
X038225Y017504D01*
X038225Y017197D01*
X038379Y017120D02*
X038686Y017120D01*
X038839Y017120D02*
X038993Y017273D01*
X038916Y017273D02*
X039146Y017273D01*
X039146Y017120D02*
X039146Y017580D01*
X038916Y017580D01*
X038839Y017504D01*
X038839Y017350D01*
X038916Y017273D01*
X038686Y017427D02*
X038532Y017580D01*
X038532Y017120D01*
X036115Y014858D02*
X036115Y014551D01*
X036345Y014781D01*
X035885Y014781D01*
X035961Y014397D02*
X036038Y014397D01*
X036115Y014321D01*
X036115Y014090D01*
X035961Y014090D01*
X035885Y014167D01*
X035885Y014321D01*
X035961Y014397D01*
X036268Y014244D02*
X036115Y014090D01*
X036115Y013937D02*
X036038Y013860D01*
X036038Y013630D01*
X035885Y013630D02*
X036345Y013630D01*
X036345Y013860D01*
X036268Y013937D01*
X036115Y013937D01*
X036038Y013783D02*
X035885Y013937D01*
X036268Y014244D02*
X036345Y014397D01*
X038215Y014351D02*
X038215Y014198D01*
X038291Y014121D01*
X038291Y013967D02*
X038368Y013967D01*
X038445Y013891D01*
X038445Y013660D01*
X038291Y013660D01*
X038215Y013737D01*
X038215Y013891D01*
X038291Y013967D01*
X038445Y014121D02*
X038522Y014274D01*
X038522Y014351D01*
X038445Y014428D01*
X038291Y014428D01*
X038215Y014351D01*
X038445Y014121D02*
X038675Y014121D01*
X038675Y014428D01*
X038675Y013967D02*
X038598Y013814D01*
X038445Y013660D01*
X038445Y013507D02*
X038368Y013430D01*
X038368Y013200D01*
X038215Y013200D02*
X038675Y013200D01*
X038675Y013430D01*
X038598Y013507D01*
X038445Y013507D01*
X038368Y013353D02*
X038215Y013507D01*
X039605Y013517D02*
X039758Y013363D01*
X039758Y013440D02*
X039758Y013210D01*
X039605Y013210D02*
X040065Y013210D01*
X040065Y013440D01*
X039988Y013517D01*
X039835Y013517D01*
X039758Y013440D01*
X039681Y013670D02*
X039605Y013747D01*
X039605Y013901D01*
X039681Y013977D01*
X039758Y013977D01*
X039835Y013901D01*
X039835Y013670D01*
X039681Y013670D01*
X039835Y013670D02*
X039988Y013824D01*
X040065Y013977D01*
X039988Y014131D02*
X040065Y014208D01*
X040065Y014361D01*
X039988Y014438D01*
X039681Y014131D01*
X039605Y014208D01*
X039605Y014361D01*
X039681Y014438D01*
X039988Y014438D01*
X039988Y014131D02*
X039681Y014131D01*
X041965Y014121D02*
X041965Y014428D01*
X041965Y014274D02*
X042425Y014274D01*
X042272Y014121D01*
X042425Y013967D02*
X042348Y013814D01*
X042195Y013660D01*
X042195Y013891D01*
X042118Y013967D01*
X042041Y013967D01*
X041965Y013891D01*
X041965Y013737D01*
X042041Y013660D01*
X042195Y013660D01*
X042195Y013507D02*
X042118Y013430D01*
X042118Y013200D01*
X041965Y013200D02*
X042425Y013200D01*
X042425Y013430D01*
X042348Y013507D01*
X042195Y013507D01*
X042118Y013353D02*
X041965Y013507D01*
X042835Y013528D02*
X042911Y013451D01*
X043065Y013451D01*
X043065Y013681D01*
X042988Y013758D01*
X042911Y013758D01*
X042835Y013681D01*
X042835Y013528D01*
X043065Y013451D02*
X043218Y013604D01*
X043295Y013758D01*
X043278Y013920D02*
X043202Y013997D01*
X043202Y014073D01*
X043278Y014150D01*
X043432Y014150D01*
X043508Y014227D01*
X043508Y014304D01*
X043432Y014380D01*
X043278Y014380D01*
X043202Y014304D01*
X043202Y014227D01*
X043278Y014150D01*
X043432Y014150D02*
X043508Y014073D01*
X043508Y013997D01*
X043432Y013920D01*
X043278Y013920D01*
X043662Y013920D02*
X043969Y013920D01*
X043662Y014227D01*
X043662Y014304D01*
X043739Y014380D01*
X043892Y014380D01*
X043969Y014304D01*
X044276Y014380D02*
X044276Y013920D01*
X044429Y013920D02*
X044122Y013920D01*
X044429Y014227D02*
X044276Y014380D01*
X044583Y014304D02*
X044659Y014380D01*
X044890Y014380D01*
X044890Y013920D01*
X044890Y014073D02*
X044659Y014073D01*
X044583Y014150D01*
X044583Y014304D01*
X044736Y014073D02*
X044583Y013920D01*
X045715Y013971D02*
X045715Y013817D01*
X045791Y013740D01*
X045945Y013740D02*
X046022Y013894D01*
X046022Y013971D01*
X045945Y014047D01*
X045791Y014047D01*
X045715Y013971D01*
X045715Y014201D02*
X045791Y014201D01*
X046098Y014508D01*
X046175Y014508D01*
X046175Y014201D01*
X046175Y014047D02*
X046175Y013740D01*
X045945Y013740D01*
X045945Y013587D02*
X045868Y013510D01*
X045868Y013280D01*
X045715Y013280D02*
X046175Y013280D01*
X046175Y013510D01*
X046098Y013587D01*
X045945Y013587D01*
X045868Y013433D02*
X045715Y013587D01*
X046673Y014170D02*
X046980Y014170D01*
X046673Y014477D01*
X046673Y014554D01*
X046750Y014630D01*
X046903Y014630D01*
X046980Y014554D01*
X047133Y014554D02*
X047210Y014630D01*
X047364Y014630D01*
X047440Y014554D01*
X047440Y014477D01*
X047364Y014400D01*
X047133Y014400D01*
X047133Y014247D02*
X047133Y014554D01*
X047133Y014247D02*
X047210Y014170D01*
X047364Y014170D01*
X047440Y014247D01*
X047594Y014170D02*
X047747Y014323D01*
X047671Y014323D02*
X047901Y014323D01*
X047901Y014170D02*
X047901Y014630D01*
X047671Y014630D01*
X047594Y014554D01*
X047594Y014400D01*
X047671Y014323D01*
X046956Y012050D02*
X046956Y011667D01*
X046879Y011590D01*
X046726Y011590D01*
X046649Y011667D01*
X046649Y012050D01*
X046495Y011974D02*
X046419Y012050D01*
X046265Y012050D01*
X046188Y011974D01*
X046188Y011897D01*
X046265Y011820D01*
X046188Y011743D01*
X046188Y011667D01*
X046265Y011590D01*
X046419Y011590D01*
X046495Y011667D01*
X046342Y011820D02*
X046265Y011820D01*
X046035Y011667D02*
X045958Y011590D01*
X045805Y011590D01*
X045728Y011667D01*
X045728Y011743D01*
X045805Y011820D01*
X045882Y011820D01*
X045805Y011820D02*
X045728Y011897D01*
X045728Y011974D01*
X045805Y012050D01*
X045958Y012050D01*
X046035Y011974D01*
X046621Y011348D02*
X046698Y011348D01*
X046775Y011271D01*
X046775Y011041D01*
X046621Y011041D01*
X046545Y011118D01*
X046545Y011271D01*
X046621Y011348D01*
X046928Y011194D02*
X046775Y011041D01*
X046852Y010887D02*
X046928Y010887D01*
X047005Y010811D01*
X047005Y010657D01*
X046928Y010580D01*
X046928Y010427D02*
X047005Y010350D01*
X047005Y010197D01*
X046928Y010120D01*
X046621Y010120D01*
X046545Y010197D01*
X046545Y010350D01*
X046621Y010427D01*
X046545Y010580D02*
X046852Y010887D01*
X046545Y010887D02*
X046545Y010580D01*
X046195Y010560D02*
X046195Y010840D01*
X045860Y010840D02*
X045860Y010560D01*
X046928Y011194D02*
X047005Y011348D01*
X048677Y011404D02*
X048984Y011097D01*
X048984Y011020D01*
X049137Y011097D02*
X049214Y011020D01*
X049367Y011020D01*
X049444Y011097D01*
X049444Y011173D01*
X049367Y011250D01*
X049214Y011250D01*
X049137Y011173D01*
X049137Y011097D01*
X049214Y011250D02*
X049137Y011327D01*
X049137Y011404D01*
X049214Y011480D01*
X049367Y011480D01*
X049444Y011404D01*
X049444Y011327D01*
X049367Y011250D01*
X049598Y011250D02*
X049674Y011173D01*
X049905Y011173D01*
X049905Y011020D02*
X049905Y011480D01*
X049674Y011480D01*
X049598Y011404D01*
X049598Y011250D01*
X049751Y011173D02*
X049598Y011020D01*
X048984Y011480D02*
X048677Y011480D01*
X048677Y011404D01*
X047055Y009618D02*
X047055Y009311D01*
X046825Y009311D01*
X046902Y009464D01*
X046902Y009541D01*
X046825Y009618D01*
X046671Y009618D01*
X046595Y009541D01*
X046595Y009388D01*
X046671Y009311D01*
X046671Y009157D02*
X046595Y009081D01*
X046595Y008927D01*
X046671Y008850D01*
X046825Y008850D02*
X046902Y009004D01*
X046902Y009081D01*
X046825Y009157D01*
X046671Y009157D01*
X046825Y008850D02*
X047055Y008850D01*
X047055Y009157D01*
X046978Y008697D02*
X046825Y008697D01*
X046748Y008620D01*
X046748Y008390D01*
X046595Y008390D02*
X047055Y008390D01*
X047055Y008620D01*
X046978Y008697D01*
X046748Y008543D02*
X046595Y008697D01*
X046369Y008030D02*
X046215Y008030D01*
X046138Y007954D01*
X046138Y007647D01*
X046215Y007570D01*
X046369Y007570D01*
X046445Y007647D01*
X046445Y007954D01*
X046369Y008030D01*
X046292Y007723D02*
X046138Y007570D01*
X045985Y007647D02*
X045908Y007570D01*
X045755Y007570D01*
X045678Y007647D01*
X045678Y007723D01*
X045755Y007800D01*
X045908Y007800D01*
X045985Y007877D01*
X045985Y007954D01*
X045908Y008030D01*
X045755Y008030D01*
X045678Y007954D01*
X045678Y007877D01*
X045755Y007800D01*
X045908Y007800D02*
X045985Y007723D01*
X045985Y007647D01*
X043076Y007627D02*
X042999Y007550D01*
X042846Y007550D01*
X042769Y007627D01*
X042769Y007934D01*
X042846Y008010D01*
X042999Y008010D01*
X043076Y007934D01*
X043076Y007627D01*
X042922Y007703D02*
X042769Y007550D01*
X042615Y007550D02*
X042308Y007550D01*
X042462Y007550D02*
X042462Y008010D01*
X042615Y007857D01*
X042155Y007857D02*
X042155Y007934D01*
X042078Y008010D01*
X041925Y008010D01*
X041848Y007934D01*
X041848Y007857D01*
X041925Y007780D01*
X042078Y007780D01*
X042155Y007857D01*
X042078Y007780D02*
X042155Y007703D01*
X042155Y007627D01*
X042078Y007550D01*
X041925Y007550D01*
X041848Y007627D01*
X041848Y007703D01*
X041925Y007780D01*
X042685Y008420D02*
X043145Y008420D01*
X043145Y008650D01*
X043068Y008727D01*
X042915Y008727D01*
X042838Y008650D01*
X042838Y008420D01*
X042838Y008573D02*
X042685Y008727D01*
X042761Y008880D02*
X042685Y008957D01*
X042685Y009111D01*
X042761Y009187D01*
X042915Y009187D01*
X042992Y009111D01*
X042992Y009034D01*
X042915Y008880D01*
X043145Y008880D01*
X043145Y009187D01*
X043068Y009341D02*
X042992Y009341D01*
X042915Y009418D01*
X042915Y009648D01*
X043068Y009648D02*
X043145Y009571D01*
X043145Y009418D01*
X043068Y009341D01*
X042761Y009341D02*
X042685Y009418D01*
X042685Y009571D01*
X042761Y009648D01*
X043068Y009648D01*
X043028Y010070D02*
X042721Y010070D01*
X042645Y010147D01*
X042645Y010300D01*
X042721Y010377D01*
X042645Y010530D02*
X042645Y010837D01*
X042721Y010991D02*
X042645Y011068D01*
X042645Y011221D01*
X042721Y011298D01*
X043028Y011298D01*
X043105Y011221D01*
X043105Y011068D01*
X043028Y010991D01*
X042952Y010991D01*
X042875Y011068D01*
X042875Y011298D01*
X042886Y011580D02*
X042809Y011657D01*
X042809Y012040D01*
X042655Y011964D02*
X042579Y012040D01*
X042425Y012040D01*
X042348Y011964D01*
X042348Y011887D01*
X042425Y011810D01*
X042348Y011733D01*
X042348Y011657D01*
X042425Y011580D01*
X042579Y011580D01*
X042655Y011657D01*
X042502Y011810D02*
X042425Y011810D01*
X042195Y011810D02*
X041965Y011810D01*
X041888Y011733D01*
X041888Y011657D01*
X041965Y011580D01*
X042118Y011580D01*
X042195Y011657D01*
X042195Y011810D01*
X042042Y011964D01*
X041888Y012040D01*
X042835Y012530D02*
X043295Y012530D01*
X043295Y012760D01*
X043218Y012837D01*
X043065Y012837D01*
X042988Y012760D01*
X042988Y012530D01*
X042988Y012683D02*
X042835Y012837D01*
X042911Y012990D02*
X042835Y013067D01*
X042835Y013221D01*
X042911Y013297D01*
X043065Y013297D01*
X043142Y013221D01*
X043142Y013144D01*
X043065Y012990D01*
X043295Y012990D01*
X043295Y013297D01*
X043116Y012040D02*
X043116Y011657D01*
X043039Y011580D01*
X042886Y011580D01*
X042952Y010837D02*
X043028Y010837D01*
X043105Y010761D01*
X043105Y010607D01*
X043028Y010530D01*
X043028Y010377D02*
X043105Y010300D01*
X043105Y010147D01*
X043028Y010070D01*
X042645Y010530D02*
X042952Y010837D01*
X042345Y010840D02*
X042345Y010560D01*
X042010Y010560D02*
X042010Y010840D01*
X039355Y010711D02*
X039278Y010787D01*
X039202Y010787D01*
X039125Y010711D01*
X039048Y010787D01*
X038971Y010787D01*
X038895Y010711D01*
X038895Y010557D01*
X038971Y010480D01*
X038971Y010327D02*
X038895Y010250D01*
X038895Y010097D01*
X038971Y010020D01*
X039278Y010020D01*
X039355Y010097D01*
X039355Y010250D01*
X039278Y010327D01*
X039278Y010480D02*
X039355Y010557D01*
X039355Y010711D01*
X039125Y010711D02*
X039125Y010634D01*
X039278Y010941D02*
X039355Y011018D01*
X039355Y011171D01*
X039278Y011248D01*
X039202Y011248D01*
X038895Y010941D01*
X038895Y011248D01*
X038809Y011570D02*
X038885Y011647D01*
X038809Y011570D02*
X038655Y011570D01*
X038578Y011647D01*
X038578Y011723D01*
X038655Y011800D01*
X038732Y011800D01*
X038655Y011800D02*
X038578Y011877D01*
X038578Y011954D01*
X038655Y012030D01*
X038809Y012030D01*
X038885Y011954D01*
X039039Y012030D02*
X039039Y011647D01*
X039116Y011570D01*
X039269Y011570D01*
X039346Y011647D01*
X039346Y012030D01*
X038425Y011954D02*
X038425Y011877D01*
X038348Y011800D01*
X038118Y011800D01*
X038118Y011647D02*
X038118Y011954D01*
X038195Y012030D01*
X038348Y012030D01*
X038425Y011954D01*
X038425Y011647D02*
X038348Y011570D01*
X038195Y011570D01*
X038118Y011647D01*
X038260Y010790D02*
X038260Y010510D01*
X038595Y010510D02*
X038595Y010790D01*
X039031Y009608D02*
X038955Y009531D01*
X038955Y009378D01*
X039031Y009301D01*
X039031Y009147D02*
X039108Y009147D01*
X039185Y009071D01*
X039185Y008840D01*
X039031Y008840D01*
X038955Y008917D01*
X038955Y009071D01*
X039031Y009147D01*
X039338Y008994D02*
X039185Y008840D01*
X039185Y008687D02*
X039108Y008610D01*
X039108Y008380D01*
X038955Y008380D02*
X039415Y008380D01*
X039415Y008610D01*
X039338Y008687D01*
X039185Y008687D01*
X039108Y008533D02*
X038955Y008687D01*
X039338Y008994D02*
X039415Y009147D01*
X039338Y009301D02*
X039415Y009378D01*
X039415Y009531D01*
X039338Y009608D01*
X039262Y009608D01*
X039185Y009531D01*
X039108Y009608D01*
X039031Y009608D01*
X039185Y009531D02*
X039185Y009454D01*
X039259Y008010D02*
X039106Y008010D01*
X039029Y007934D01*
X039029Y007627D01*
X039106Y007550D01*
X039259Y007550D01*
X039336Y007627D01*
X039336Y007934D01*
X039259Y008010D01*
X039182Y007703D02*
X039029Y007550D01*
X038875Y007550D02*
X038568Y007857D01*
X038568Y007934D01*
X038645Y008010D01*
X038799Y008010D01*
X038875Y007934D01*
X038875Y007550D02*
X038568Y007550D01*
X038415Y007627D02*
X038415Y007703D01*
X038338Y007780D01*
X038185Y007780D01*
X038108Y007703D01*
X038108Y007627D01*
X038185Y007550D01*
X038338Y007550D01*
X038415Y007627D01*
X038338Y007780D02*
X038415Y007857D01*
X038415Y007934D01*
X038338Y008010D01*
X038185Y008010D01*
X038108Y007934D01*
X038108Y007857D01*
X038185Y007780D01*
X035785Y005361D02*
X035708Y005438D01*
X035632Y005438D01*
X035325Y005131D01*
X035325Y005438D01*
X035785Y005361D02*
X035785Y005208D01*
X035708Y005131D01*
X035785Y004977D02*
X035708Y004824D01*
X035555Y004670D01*
X035555Y004901D01*
X035478Y004977D01*
X035401Y004977D01*
X035325Y004901D01*
X035325Y004747D01*
X035401Y004670D01*
X035555Y004670D01*
X035555Y004517D02*
X035478Y004440D01*
X035478Y004210D01*
X035325Y004210D02*
X035785Y004210D01*
X035785Y004440D01*
X035708Y004517D01*
X035555Y004517D01*
X035478Y004363D02*
X035325Y004517D01*
X038078Y004854D02*
X038385Y004547D01*
X038385Y004470D01*
X038538Y004470D02*
X038845Y004470D01*
X038538Y004777D01*
X038538Y004854D01*
X038615Y004930D01*
X038769Y004930D01*
X038845Y004854D01*
X038999Y004854D02*
X038999Y004547D01*
X039076Y004470D01*
X039229Y004470D01*
X039306Y004547D01*
X039306Y004854D01*
X039229Y004930D01*
X039076Y004930D01*
X038999Y004854D01*
X039152Y004623D02*
X038999Y004470D01*
X038638Y003807D02*
X038562Y003807D01*
X038485Y003730D01*
X038485Y003576D01*
X038562Y003500D01*
X038638Y003500D01*
X038715Y003576D01*
X038715Y003730D01*
X038638Y003807D01*
X038485Y003730D02*
X038408Y003807D01*
X038331Y003807D01*
X038255Y003730D01*
X038255Y003576D01*
X038331Y003500D01*
X038408Y003500D01*
X038485Y003576D01*
X038485Y003346D02*
X038331Y003346D01*
X038255Y003269D01*
X038255Y003116D01*
X038331Y003039D01*
X038485Y003039D02*
X038562Y003193D01*
X038562Y003269D01*
X038485Y003346D01*
X038715Y003346D02*
X038715Y003039D01*
X038485Y003039D01*
X038485Y002886D02*
X038408Y002809D01*
X038408Y002579D01*
X038408Y002732D02*
X038255Y002886D01*
X038485Y002886D02*
X038638Y002886D01*
X038715Y002809D01*
X038715Y002579D01*
X038255Y002579D01*
X038078Y004854D02*
X038078Y004930D01*
X038385Y004930D01*
X041868Y004880D02*
X041868Y004804D01*
X042175Y004497D01*
X042175Y004420D01*
X042328Y004420D02*
X042635Y004420D01*
X042482Y004420D02*
X042482Y004880D01*
X042635Y004727D01*
X042789Y004804D02*
X042789Y004497D01*
X042866Y004420D01*
X043019Y004420D01*
X043096Y004497D01*
X043096Y004804D01*
X043019Y004880D01*
X042866Y004880D01*
X042789Y004804D01*
X042942Y004573D02*
X042789Y004420D01*
X042555Y003790D02*
X042325Y003560D01*
X042325Y003867D01*
X042095Y003790D02*
X042555Y003790D01*
X042555Y003406D02*
X042555Y003099D01*
X042325Y003099D01*
X042402Y003253D01*
X042402Y003329D01*
X042325Y003406D01*
X042171Y003406D01*
X042095Y003329D01*
X042095Y003176D01*
X042171Y003099D01*
X042095Y002946D02*
X042248Y002792D01*
X042248Y002869D02*
X042248Y002639D01*
X042095Y002639D02*
X042555Y002639D01*
X042555Y002869D01*
X042478Y002946D01*
X042325Y002946D01*
X042248Y002869D01*
X042175Y004880D02*
X041868Y004880D01*
X045698Y004900D02*
X045698Y004824D01*
X046005Y004517D01*
X046005Y004440D01*
X046158Y004440D02*
X046312Y004593D01*
X046235Y004440D02*
X046389Y004440D01*
X046465Y004517D01*
X046465Y004824D01*
X046389Y004900D01*
X046235Y004900D01*
X046158Y004824D01*
X046158Y004517D01*
X046235Y004440D01*
X046005Y004900D02*
X045698Y004900D01*
X047585Y024420D02*
X047508Y024497D01*
X047508Y024573D01*
X047585Y024650D01*
X047815Y024650D01*
X047815Y024497D01*
X047738Y024420D01*
X047585Y024420D01*
X047815Y024650D02*
X047662Y024804D01*
X047508Y024880D01*
X047968Y024804D02*
X048045Y024880D01*
X048199Y024880D01*
X048275Y024804D01*
X048275Y024497D01*
X048199Y024420D01*
X048045Y024420D01*
X047968Y024497D01*
X039715Y030077D02*
X039638Y030000D01*
X039484Y030000D01*
X039408Y030077D01*
X039408Y030460D01*
X039254Y030384D02*
X039177Y030460D01*
X039024Y030460D01*
X038947Y030384D01*
X038947Y030307D01*
X039254Y030000D01*
X038947Y030000D01*
X038794Y030000D02*
X038794Y030077D01*
X038487Y030384D01*
X038487Y030460D01*
X038794Y030460D01*
X038678Y030739D02*
X038371Y030739D01*
X038295Y030816D01*
X038295Y030969D01*
X038371Y031046D01*
X038371Y031199D02*
X038295Y031276D01*
X038295Y031429D01*
X038371Y031506D01*
X038448Y031506D01*
X038525Y031429D01*
X038525Y031353D01*
X038525Y031429D02*
X038602Y031506D01*
X038678Y031506D01*
X038755Y031429D01*
X038755Y031276D01*
X038678Y031199D01*
X038678Y031046D02*
X038755Y030969D01*
X038755Y030816D01*
X038678Y030739D01*
X039055Y031260D02*
X039055Y031540D01*
X038755Y031660D02*
X038755Y031967D01*
X038602Y031890D02*
X038525Y031967D01*
X038371Y031967D01*
X038295Y031890D01*
X038295Y031736D01*
X038371Y031660D01*
X038525Y031660D02*
X038602Y031813D01*
X038602Y031890D01*
X038525Y031660D02*
X038755Y031660D01*
X039390Y031540D02*
X039390Y031260D01*
X039715Y030460D02*
X039715Y030077D01*
X038805Y032589D02*
X038345Y032589D01*
X038498Y032589D02*
X038498Y032819D01*
X038575Y032896D01*
X038728Y032896D01*
X038805Y032819D01*
X038805Y032589D01*
X038498Y032742D02*
X038345Y032896D01*
X038575Y033049D02*
X038575Y033356D01*
X038421Y033510D02*
X038728Y033817D01*
X038805Y033817D01*
X038805Y033510D01*
X038805Y033279D02*
X038575Y033049D01*
X038345Y033279D02*
X038805Y033279D01*
X038421Y033510D02*
X038345Y033510D01*
X038211Y034230D02*
X038135Y034307D01*
X038135Y034460D01*
X038211Y034537D01*
X038518Y034537D01*
X038595Y034460D01*
X038595Y034307D01*
X038518Y034230D01*
X038211Y034230D01*
X038288Y034383D02*
X038135Y034537D01*
X038135Y034690D02*
X038442Y034997D01*
X038518Y034997D01*
X038595Y034921D01*
X038595Y034767D01*
X038518Y034690D01*
X038135Y034690D02*
X038135Y034997D01*
X038211Y035151D02*
X038135Y035228D01*
X038135Y035381D01*
X038211Y035458D01*
X038288Y035458D01*
X038365Y035381D01*
X038365Y035151D01*
X038211Y035151D01*
X038365Y035151D02*
X038518Y035304D01*
X038595Y035458D01*
X033055Y042020D02*
X033055Y042480D01*
X032824Y042480D01*
X032748Y042404D01*
X032748Y042250D01*
X032824Y042173D01*
X033055Y042173D01*
X032901Y042173D02*
X032748Y042020D01*
X032594Y042020D02*
X032287Y042020D01*
X032441Y042020D02*
X032441Y042480D01*
X032594Y042327D01*
X032134Y042250D02*
X032134Y042097D01*
X032057Y042020D01*
X031904Y042020D01*
X031827Y042097D01*
X031827Y042173D01*
X031904Y042250D01*
X032134Y042250D01*
X031980Y042404D01*
X031827Y042480D01*
X029805Y042530D02*
X029805Y042070D01*
X029805Y042223D02*
X029574Y042223D01*
X029498Y042300D01*
X029498Y042454D01*
X029574Y042530D01*
X029805Y042530D01*
X029651Y042223D02*
X029498Y042070D01*
X029344Y042147D02*
X029267Y042070D01*
X029114Y042070D01*
X029037Y042147D01*
X029037Y042454D01*
X029114Y042530D01*
X029267Y042530D01*
X029344Y042454D01*
X029344Y042377D01*
X029267Y042300D01*
X029037Y042300D01*
X018875Y039230D02*
X018875Y038770D01*
X018875Y038923D02*
X018645Y038923D01*
X018568Y039000D01*
X018568Y039154D01*
X018645Y039230D01*
X018875Y039230D01*
X018722Y038923D02*
X018568Y038770D01*
X018415Y038847D02*
X018338Y038770D01*
X018185Y038770D01*
X018108Y038847D01*
X018108Y038923D01*
X018185Y039000D01*
X018262Y039000D01*
X018185Y039000D02*
X018108Y039077D01*
X018108Y039154D01*
X018185Y039230D01*
X018338Y039230D01*
X018415Y039154D01*
X016755Y039430D02*
X016755Y039660D01*
X016678Y039737D01*
X016525Y039737D01*
X016448Y039660D01*
X016448Y039430D01*
X016295Y039430D02*
X016755Y039430D01*
X016448Y039583D02*
X016295Y039737D01*
X016371Y039890D02*
X016295Y039967D01*
X016295Y040121D01*
X016371Y040197D01*
X016448Y040197D01*
X016525Y040121D01*
X016525Y040044D01*
X016525Y040121D02*
X016602Y040197D01*
X016678Y040197D01*
X016755Y040121D01*
X016755Y039967D01*
X016678Y039890D01*
X016678Y040351D02*
X016755Y040428D01*
X016755Y040581D01*
X016678Y040658D01*
X016371Y040351D01*
X016295Y040428D01*
X016295Y040581D01*
X016371Y040658D01*
X016678Y040658D01*
X016678Y040351D02*
X016371Y040351D01*
X015005Y040034D02*
X015005Y039727D01*
X014928Y039650D01*
X014774Y039650D01*
X014698Y039727D01*
X014698Y040034D01*
X014774Y040110D01*
X014928Y040110D01*
X015005Y040034D01*
X014851Y039803D02*
X014698Y039650D01*
X014544Y039727D02*
X014467Y039650D01*
X014314Y039650D01*
X014237Y039727D01*
X014237Y039803D01*
X014314Y039880D01*
X014391Y039880D01*
X014314Y039880D02*
X014237Y039957D01*
X014237Y040034D01*
X014314Y040110D01*
X014467Y040110D01*
X014544Y040034D01*
X013305Y040057D02*
X013305Y040211D01*
X013228Y040287D01*
X013152Y040287D01*
X013075Y040211D01*
X012998Y040287D01*
X012921Y040287D01*
X012845Y040211D01*
X012845Y040057D01*
X012921Y039980D01*
X012845Y039827D02*
X012998Y039673D01*
X012998Y039750D02*
X012998Y039520D01*
X012845Y039520D02*
X013305Y039520D01*
X013305Y039750D01*
X013228Y039827D01*
X013075Y039827D01*
X012998Y039750D01*
X013228Y039980D02*
X013305Y040057D01*
X013075Y040134D02*
X013075Y040211D01*
X013075Y040441D02*
X013075Y040748D01*
X013305Y040671D02*
X013075Y040441D01*
X012845Y040671D02*
X013305Y040671D01*
X011625Y040034D02*
X011625Y039727D01*
X011548Y039650D01*
X011394Y039650D01*
X011318Y039727D01*
X011318Y040034D01*
X011394Y040110D01*
X011548Y040110D01*
X011625Y040034D01*
X011471Y039803D02*
X011318Y039650D01*
X011164Y039650D02*
X010857Y039650D01*
X011011Y039650D02*
X011011Y040110D01*
X011164Y039957D01*
X010704Y040034D02*
X010627Y040110D01*
X010474Y040110D01*
X010397Y040034D01*
X010397Y039957D01*
X010474Y039880D01*
X010397Y039803D01*
X010397Y039727D01*
X010474Y039650D01*
X010627Y039650D01*
X010704Y039727D01*
X010550Y039880D02*
X010474Y039880D01*
X009275Y039967D02*
X009198Y039890D01*
X009275Y039967D02*
X009275Y040121D01*
X009198Y040197D01*
X009122Y040197D01*
X009045Y040121D01*
X008968Y040197D01*
X008891Y040197D01*
X008815Y040121D01*
X008815Y039967D01*
X008891Y039890D01*
X008815Y039737D02*
X008968Y039583D01*
X008968Y039660D02*
X008968Y039430D01*
X008815Y039430D02*
X009275Y039430D01*
X009275Y039660D01*
X009198Y039737D01*
X009045Y039737D01*
X008968Y039660D01*
X009045Y040044D02*
X009045Y040121D01*
X009122Y040351D02*
X009198Y040351D01*
X009275Y040428D01*
X009275Y040581D01*
X009198Y040658D01*
X009122Y040658D01*
X009045Y040581D01*
X009045Y040428D01*
X009122Y040351D01*
X009045Y040428D02*
X008968Y040351D01*
X008891Y040351D01*
X008815Y040428D01*
X008815Y040581D01*
X008891Y040658D01*
X008968Y040658D01*
X009045Y040581D01*
X007805Y040034D02*
X007805Y039727D01*
X007728Y039650D01*
X007574Y039650D01*
X007498Y039727D01*
X007498Y040034D01*
X007574Y040110D01*
X007728Y040110D01*
X007805Y040034D01*
X007651Y039803D02*
X007498Y039650D01*
X007344Y039650D02*
X007037Y039957D01*
X007037Y040034D01*
X007114Y040110D01*
X007267Y040110D01*
X007344Y040034D01*
X007344Y039650D02*
X007037Y039650D01*
X006884Y039727D02*
X006807Y039650D01*
X006654Y039650D01*
X006577Y039727D01*
X006577Y039803D01*
X006654Y039880D01*
X006730Y039880D01*
X006654Y039880D02*
X006577Y039957D01*
X006577Y040034D01*
X006654Y040110D01*
X006807Y040110D01*
X006884Y040034D01*
X016025Y035311D02*
X016485Y035311D01*
X016255Y035080D01*
X016255Y035387D01*
X016408Y034927D02*
X016101Y034927D01*
X016025Y034850D01*
X016025Y034697D01*
X016101Y034620D01*
X016408Y034620D01*
X016485Y034697D01*
X016485Y034850D01*
X016408Y034927D01*
X016178Y034773D02*
X016025Y034927D01*
X018694Y022935D02*
X018975Y022935D01*
X018975Y022600D02*
X018694Y022600D01*
X018714Y022115D02*
X018995Y022115D01*
X018995Y021780D02*
X018714Y021780D01*
D13*
X015745Y029160D02*
X015405Y029160D01*
X015405Y029440D02*
X015745Y029440D01*
X014045Y029440D02*
X013705Y029440D01*
X013705Y029160D02*
X014045Y029160D01*
X011955Y029180D02*
X011615Y029180D01*
X011615Y029460D02*
X011955Y029460D01*
X010275Y029460D02*
X009935Y029460D01*
X009935Y029180D02*
X010275Y029180D01*
X008225Y029190D02*
X007885Y029190D01*
X007885Y029470D02*
X008225Y029470D01*
X006465Y029500D02*
X006125Y029500D01*
X006125Y029220D02*
X006465Y029220D01*
X006185Y032980D02*
X006185Y033320D01*
X005904Y033320D02*
X005904Y032980D01*
X009634Y032990D02*
X009634Y033330D01*
X009915Y033330D02*
X009915Y032990D01*
X013384Y033030D02*
X013384Y033370D01*
X013665Y033370D02*
X013665Y033030D01*
X012815Y038580D02*
X012815Y038920D01*
X012534Y038920D02*
X012534Y038580D01*
X009085Y038580D02*
X009085Y038920D01*
X008804Y038920D02*
X008804Y038580D01*
X016344Y038560D02*
X016344Y038900D01*
X016625Y038900D02*
X016625Y038560D01*
X024064Y033360D02*
X024064Y033020D01*
X024345Y033020D02*
X024345Y033360D01*
X027814Y033360D02*
X027814Y033020D01*
X028095Y033020D02*
X028095Y033360D01*
X031524Y033370D02*
X031524Y033030D01*
X031805Y033030D02*
X031805Y033370D01*
X035324Y033360D02*
X035324Y033020D01*
X035605Y033020D02*
X035605Y033360D01*
X039084Y033370D02*
X039084Y033030D01*
X039365Y033030D02*
X039365Y033370D01*
X042854Y033350D02*
X042854Y033010D01*
X043135Y033010D02*
X043135Y033350D01*
X043205Y029540D02*
X043545Y029540D01*
X043545Y029260D02*
X043205Y029260D01*
X041495Y029250D02*
X041155Y029250D01*
X041155Y029530D02*
X041495Y029530D01*
X039745Y029510D02*
X039405Y029510D01*
X039405Y029230D02*
X039745Y029230D01*
X037745Y029230D02*
X037405Y029230D01*
X037405Y029510D02*
X037745Y029510D01*
X035995Y029490D02*
X035655Y029490D01*
X035655Y029210D02*
X035995Y029210D01*
X033885Y029130D02*
X033545Y029130D01*
X033545Y029410D02*
X033885Y029410D01*
X032175Y029430D02*
X031835Y029430D01*
X031835Y029150D02*
X032175Y029150D01*
X030135Y029140D02*
X029795Y029140D01*
X029795Y029420D02*
X030135Y029420D01*
X028465Y029410D02*
X028125Y029410D01*
X028125Y029130D02*
X028465Y029130D01*
X026365Y029140D02*
X026025Y029140D01*
X026025Y029420D02*
X026365Y029420D01*
X024725Y029420D02*
X024385Y029420D01*
X024385Y029140D02*
X024725Y029140D01*
X029674Y024480D02*
X029674Y024140D01*
X029955Y024140D02*
X029955Y024480D01*
X029115Y022620D02*
X029115Y022280D01*
X028834Y022280D02*
X028834Y022620D01*
X037505Y018090D02*
X037845Y018090D01*
X037845Y017810D02*
X037505Y017810D01*
X037895Y012840D02*
X038235Y012840D01*
X038235Y012560D02*
X037895Y012560D01*
X036555Y012570D02*
X036215Y012570D01*
X036215Y012850D02*
X036555Y012850D01*
X039955Y012840D02*
X040295Y012840D01*
X040295Y012560D02*
X039955Y012560D01*
X041665Y012560D02*
X042005Y012560D01*
X042005Y012840D02*
X041665Y012840D01*
X043795Y012850D02*
X044135Y012850D01*
X044135Y012570D02*
X043795Y012570D01*
X045505Y012570D02*
X045845Y012570D01*
X045845Y012850D02*
X045505Y012850D01*
X045934Y009140D02*
X045934Y008800D01*
X046215Y008800D02*
X046215Y009140D01*
X042325Y009140D02*
X042325Y008800D01*
X042044Y008800D02*
X042044Y009140D01*
X038585Y009100D02*
X038585Y008760D01*
X038304Y008760D02*
X038304Y009100D01*
X039074Y003680D02*
X039074Y003340D01*
X039355Y003340D02*
X039355Y003680D01*
X042884Y003720D02*
X042884Y003380D01*
X043165Y003380D02*
X043165Y003720D01*
X035605Y003660D02*
X035605Y003320D01*
X035324Y003320D02*
X035324Y003660D01*
X028945Y009870D02*
X028945Y010210D01*
X028664Y010210D02*
X028664Y009870D01*
X027195Y009870D02*
X027195Y010210D01*
X026914Y010210D02*
X026914Y009870D01*
X026834Y007120D02*
X026834Y006780D01*
X027115Y006780D02*
X027115Y007120D01*
X027984Y007120D02*
X027984Y006780D01*
X028265Y006780D02*
X028265Y007120D01*
X020545Y010825D02*
X020545Y011580D01*
X019905Y011580D02*
X019905Y010825D01*
X018475Y012550D02*
X018135Y012550D01*
X018135Y012830D02*
X018475Y012830D01*
X016765Y012840D02*
X016425Y012840D01*
X016425Y012560D02*
X016765Y012560D01*
X014735Y012570D02*
X014395Y012570D01*
X014395Y012850D02*
X014735Y012850D01*
X013055Y012840D02*
X012715Y012840D01*
X012715Y012560D02*
X013055Y012560D01*
X014754Y009190D02*
X014754Y008850D01*
X015035Y008850D02*
X015035Y009190D01*
X018534Y009210D02*
X018534Y008870D01*
X018815Y008870D02*
X018815Y009210D01*
X015885Y003660D02*
X015885Y003320D01*
X015604Y003320D02*
X015604Y003660D01*
X012125Y003660D02*
X012125Y003320D01*
X011844Y003320D02*
X011844Y003660D01*
X008095Y008890D02*
X008095Y009230D01*
X007814Y009230D02*
X007814Y008890D01*
X007755Y012560D02*
X007415Y012560D01*
X007415Y012840D02*
X007755Y012840D01*
X006035Y012850D02*
X005695Y012850D01*
X005695Y012570D02*
X006035Y012570D01*
X005115Y003630D02*
X005115Y003290D01*
X004834Y003290D02*
X004834Y003630D01*
X007955Y022560D02*
X008295Y022560D01*
X008295Y022840D02*
X007955Y022840D01*
X027064Y038550D02*
X027064Y038890D01*
X027345Y038890D02*
X027345Y038550D01*
X029225Y040989D02*
X029225Y041311D01*
X029725Y041311D02*
X029725Y040989D01*
X030854Y038830D02*
X030854Y038490D01*
X031135Y038490D02*
X031135Y038830D01*
X032334Y041080D02*
X032334Y041420D01*
X032615Y041420D02*
X032615Y041080D01*
X034584Y038790D02*
X034584Y038450D01*
X034865Y038450D02*
X034865Y038790D01*
X038254Y038850D02*
X038254Y038510D01*
X038535Y038510D02*
X038535Y038850D01*
X042024Y038840D02*
X042024Y038500D01*
X042305Y038500D02*
X042305Y038840D01*
X045774Y038830D02*
X045774Y038490D01*
X046055Y038490D02*
X046055Y038830D01*
X045245Y029530D02*
X044905Y029530D01*
X044905Y029250D02*
X045245Y029250D01*
D14*
X042995Y032930D03*
X042995Y033430D03*
X039225Y033450D03*
X039225Y032950D03*
X035465Y032940D03*
X035465Y033440D03*
X031665Y033450D03*
X031665Y032950D03*
X027955Y032940D03*
X027955Y033440D03*
X024205Y033440D03*
X024205Y032940D03*
X027205Y038470D03*
X027205Y038970D03*
X030995Y038910D03*
X030995Y038410D03*
X032475Y041000D03*
X032475Y041500D03*
X034725Y038870D03*
X034725Y038370D03*
X038395Y038430D03*
X038395Y038930D03*
X042165Y038920D03*
X042165Y038420D03*
X045915Y038410D03*
X045915Y038910D03*
X029815Y024560D03*
X029815Y024060D03*
X028975Y022700D03*
X028975Y022200D03*
X028805Y010290D03*
X028805Y009790D03*
X027055Y009790D03*
X027055Y010290D03*
X026975Y007200D03*
X026975Y006700D03*
X028125Y006700D03*
X028125Y007200D03*
X035465Y003740D03*
X035465Y003240D03*
X039215Y003260D03*
X039215Y003760D03*
X043025Y003800D03*
X043025Y003300D03*
X042185Y008720D03*
X042185Y009220D03*
X046075Y009220D03*
X046075Y008720D03*
X038445Y008680D03*
X038445Y009180D03*
X018675Y009290D03*
X018675Y008790D03*
X014895Y008770D03*
X014895Y009270D03*
X015745Y003740D03*
X015745Y003240D03*
X011985Y003240D03*
X011985Y003740D03*
X007955Y008810D03*
X007955Y009310D03*
X004975Y003710D03*
X004975Y003210D03*
X006045Y032900D03*
X006045Y033400D03*
X009775Y033410D03*
X009775Y032910D03*
X013525Y032950D03*
X013525Y033450D03*
X012675Y038500D03*
X012675Y039000D03*
X016485Y038980D03*
X016485Y038480D03*
X008945Y038500D03*
X008945Y039000D03*
D15*
X020443Y036298D03*
X020903Y036298D03*
X030693Y040548D03*
X031153Y040548D03*
X041043Y025748D03*
X041503Y025748D03*
X042046Y024002D03*
X042506Y024002D03*
X045093Y025748D03*
X045553Y025748D03*
X046393Y024598D03*
X046853Y024598D03*
X038106Y021502D03*
X037646Y021502D03*
X037856Y022302D03*
X037396Y022302D03*
X023196Y022692D03*
X022736Y022692D03*
X021826Y023352D03*
X021366Y023352D03*
X019063Y022768D03*
X018603Y022768D03*
X018623Y021948D03*
X019083Y021948D03*
X022816Y019502D03*
X023276Y019502D03*
X022826Y017362D03*
X022366Y017362D03*
X021086Y017352D03*
X020626Y017352D03*
X019183Y017368D03*
X018723Y017368D03*
X020596Y012802D03*
X021056Y012802D03*
D16*
X018727Y010878D03*
X018727Y010418D03*
X014927Y010418D03*
X014927Y010878D03*
X008027Y010878D03*
X008027Y010418D03*
X018067Y018188D03*
X018067Y018648D03*
X017873Y020372D03*
X017873Y020832D03*
X023293Y021412D03*
X023293Y021872D03*
X023297Y018578D03*
X023297Y018118D03*
X028963Y024082D03*
X028963Y024542D03*
X027923Y031172D03*
X027923Y031632D03*
X024173Y031632D03*
X024173Y031172D03*
X031673Y031172D03*
X031673Y031632D03*
X035473Y031632D03*
X035473Y031172D03*
X039223Y031172D03*
X039223Y031632D03*
X043023Y031632D03*
X043023Y031172D03*
X046073Y023632D03*
X046073Y023172D03*
X044673Y022382D03*
X044673Y021922D03*
X042473Y022722D03*
X042473Y023182D03*
X042177Y010928D03*
X042177Y010468D03*
X046027Y010468D03*
X046027Y010928D03*
X038427Y010878D03*
X038427Y010418D03*
X027923Y010282D03*
X027923Y009822D03*
X013473Y031172D03*
X013473Y031632D03*
X009723Y031632D03*
X009723Y031172D03*
X005973Y031172D03*
X005973Y031632D03*
D17*
X006045Y029360D03*
X006545Y029360D03*
X007805Y029330D03*
X008305Y029330D03*
X009855Y029320D03*
X010355Y029320D03*
X011535Y029320D03*
X012035Y029320D03*
X013625Y029300D03*
X014125Y029300D03*
X015325Y029300D03*
X015825Y029300D03*
X008375Y022700D03*
X007875Y022700D03*
X007835Y012700D03*
X007335Y012700D03*
X006115Y012710D03*
X005615Y012710D03*
X012635Y012700D03*
X013135Y012700D03*
X014315Y012710D03*
X014815Y012710D03*
X016345Y012700D03*
X016845Y012700D03*
X018055Y012690D03*
X018555Y012690D03*
X036135Y012710D03*
X036635Y012710D03*
X037815Y012700D03*
X038315Y012700D03*
X039875Y012700D03*
X040375Y012700D03*
X041585Y012700D03*
X042085Y012700D03*
X043715Y012710D03*
X044215Y012710D03*
X045425Y012710D03*
X045925Y012710D03*
X037925Y017950D03*
X037425Y017950D03*
X037325Y029370D03*
X037825Y029370D03*
X039325Y029370D03*
X039825Y029370D03*
X041075Y029390D03*
X041575Y029390D03*
X043125Y029400D03*
X043625Y029400D03*
X044825Y029390D03*
X045325Y029390D03*
X036075Y029350D03*
X035575Y029350D03*
X033965Y029270D03*
X033465Y029270D03*
X032255Y029290D03*
X031755Y029290D03*
X030215Y029280D03*
X029715Y029280D03*
X028545Y029270D03*
X028045Y029270D03*
X026445Y029280D03*
X025945Y029280D03*
X024805Y029280D03*
X024305Y029280D03*
D18*
X020460Y009223D02*
X019909Y009223D01*
X019909Y008357D01*
X020460Y008357D01*
X020460Y009223D01*
D19*
X020175Y009410D03*
X020175Y008170D03*
D20*
X020194Y008554D03*
D21*
X029475Y040858D03*
X029475Y041438D03*
D22*
X023103Y015900D02*
X020347Y015900D01*
X020347Y013900D01*
X023103Y013900D01*
X023103Y014506D01*
X022315Y014506D01*
X022315Y013916D01*
X023103Y014506D02*
X023103Y015900D01*
D23*
X020225Y011720D03*
X020225Y010680D03*
D24*
X029045Y007483D02*
X029045Y006617D01*
X030305Y006617D01*
X030305Y007483D01*
X029045Y007483D01*
X043542Y013185D02*
X044408Y013185D01*
X044408Y013815D01*
X043542Y013815D01*
X043542Y013185D01*
X046942Y014735D02*
X047808Y014735D01*
X047808Y015365D01*
X046942Y015365D01*
X046942Y014735D01*
X048795Y010683D02*
X048795Y009817D01*
X050055Y009817D01*
X050055Y010683D01*
X048795Y010683D01*
X040058Y028235D02*
X039192Y028235D01*
X039192Y028865D01*
X040058Y028865D01*
X040058Y028235D01*
X042942Y028285D02*
X043808Y028285D01*
X043808Y028915D01*
X042942Y028915D01*
X042942Y028285D01*
X036308Y028235D02*
X035442Y028235D01*
X035442Y028865D01*
X036308Y028865D01*
X036308Y028235D01*
X032358Y028185D02*
X031492Y028185D01*
X031492Y028815D01*
X032358Y028815D01*
X032358Y028185D01*
X028558Y028135D02*
X027692Y028135D01*
X027692Y028765D01*
X028558Y028765D01*
X028558Y028135D01*
X025458Y028185D02*
X024592Y028185D01*
X024592Y028815D01*
X025458Y028815D01*
X025458Y028185D01*
X023805Y039467D02*
X022545Y039467D01*
X022545Y040333D01*
X023805Y040333D01*
X023805Y039467D01*
X019105Y039467D02*
X019105Y040333D01*
X017845Y040333D01*
X017845Y039467D01*
X019105Y039467D01*
X012440Y026883D02*
X011810Y026883D01*
X011810Y026017D01*
X012440Y026017D01*
X012440Y026883D01*
X006858Y022480D02*
X005992Y022480D01*
X005992Y021220D01*
X006858Y021220D01*
X006858Y022480D01*
X006858Y020315D02*
X005992Y020315D01*
X005992Y019685D01*
X006858Y019685D01*
X006858Y020315D01*
X005158Y016265D02*
X004292Y016265D01*
X004292Y015635D01*
X005158Y015635D01*
X005158Y016265D01*
X004540Y026817D02*
X003910Y026817D01*
X003910Y027683D01*
X004540Y027683D01*
X004540Y026817D01*
X003505Y033917D02*
X002245Y033917D01*
X002245Y034783D01*
X003505Y034783D01*
X003505Y033917D01*
D25*
X009481Y009400D03*
X011469Y009400D03*
D26*
X009813Y009400D03*
M02*
