G75*
G70*
%OFA0B0*%
%FSLAX24Y24*%
%IPPOS*%
%LPD*%
%AMOC8*
5,1,8,0,0,1.08239X$1,22.5*
%
%ADD10C,0.1580*%
%ADD11R,0.0316X0.0946*%
%ADD12R,0.0474X0.0513*%
%ADD13R,0.0513X0.0474*%
%ADD14R,0.0631X0.0631*%
%ADD15R,0.0671X0.0592*%
%ADD16R,0.1182X0.0946*%
%ADD17C,0.0536*%
%ADD18C,0.0595*%
%ADD19R,0.0595X0.0595*%
%ADD20OC8,0.0680*%
%ADD21C,0.0965*%
%ADD22C,0.1025*%
%ADD23R,0.0790X0.0710*%
%ADD24C,0.1054*%
%ADD25R,0.1054X0.1054*%
%ADD26R,0.0277X0.0434*%
%ADD27R,0.0434X0.0277*%
%ADD28C,0.0634*%
%ADD29R,0.0781X0.0930*%
%ADD30C,0.1175*%
%ADD31C,0.0390*%
D10*
X002475Y003700D03*
X002475Y041700D03*
X049475Y041700D03*
X049475Y003700D03*
D11*
X045325Y003136D03*
X044825Y003136D03*
X044325Y003136D03*
X043825Y003136D03*
X043825Y005184D03*
X044325Y005184D03*
X044825Y005184D03*
X045325Y005184D03*
X045325Y006236D03*
X044825Y006236D03*
X044325Y006236D03*
X043825Y006236D03*
X043825Y008284D03*
X044325Y008284D03*
X044825Y008284D03*
X045325Y008284D03*
X045325Y009626D03*
X044825Y009626D03*
X044325Y009626D03*
X043825Y009626D03*
X043825Y011674D03*
X044325Y011674D03*
X044825Y011674D03*
X045325Y011674D03*
X041475Y011674D03*
X040975Y011674D03*
X040475Y011674D03*
X039975Y011674D03*
X037725Y011674D03*
X037225Y011674D03*
X036725Y011674D03*
X036225Y011674D03*
X036225Y009626D03*
X036725Y009626D03*
X037225Y009626D03*
X037725Y009626D03*
X037725Y008274D03*
X037225Y008274D03*
X036725Y008274D03*
X036225Y008274D03*
X036225Y006226D03*
X036725Y006226D03*
X037225Y006226D03*
X037725Y006226D03*
X037725Y005174D03*
X037225Y005174D03*
X036725Y005174D03*
X036225Y005174D03*
X036225Y003126D03*
X036725Y003126D03*
X037225Y003126D03*
X037725Y003126D03*
X039975Y003126D03*
X040475Y003126D03*
X040975Y003126D03*
X041475Y003126D03*
X041475Y005174D03*
X040975Y005174D03*
X040475Y005174D03*
X039975Y005174D03*
X039975Y006226D03*
X040475Y006226D03*
X040975Y006226D03*
X041475Y006226D03*
X041475Y008274D03*
X040975Y008274D03*
X040475Y008274D03*
X039975Y008274D03*
X039975Y009626D03*
X040475Y009626D03*
X040975Y009626D03*
X041475Y009626D03*
X028265Y023296D03*
X027765Y023296D03*
X027265Y023296D03*
X026765Y023296D03*
X026765Y025344D03*
X027265Y025344D03*
X027765Y025344D03*
X028265Y025344D03*
X028625Y030376D03*
X029125Y030376D03*
X029625Y030376D03*
X030125Y030376D03*
X032375Y030376D03*
X032875Y030376D03*
X033375Y030376D03*
X033875Y030376D03*
X036225Y030376D03*
X036725Y030376D03*
X037225Y030376D03*
X037725Y030376D03*
X039975Y030376D03*
X040475Y030376D03*
X040975Y030376D03*
X041475Y030376D03*
X043725Y030376D03*
X044225Y030376D03*
X044725Y030376D03*
X045225Y030376D03*
X045225Y032424D03*
X044725Y032424D03*
X044225Y032424D03*
X043725Y032424D03*
X043725Y033876D03*
X044225Y033876D03*
X044725Y033876D03*
X045225Y033876D03*
X045225Y035924D03*
X044725Y035924D03*
X044225Y035924D03*
X043725Y035924D03*
X043725Y036976D03*
X044225Y036976D03*
X044725Y036976D03*
X045225Y036976D03*
X045225Y039024D03*
X044725Y039024D03*
X044225Y039024D03*
X043725Y039024D03*
X041475Y039024D03*
X040975Y039024D03*
X040475Y039024D03*
X039975Y039024D03*
X039975Y036976D03*
X040475Y036976D03*
X040975Y036976D03*
X041475Y036976D03*
X041475Y035924D03*
X040975Y035924D03*
X040475Y035924D03*
X039975Y035924D03*
X037725Y035924D03*
X037225Y035924D03*
X036725Y035924D03*
X036225Y035924D03*
X036225Y036976D03*
X036725Y036976D03*
X037225Y036976D03*
X037725Y036976D03*
X037725Y039024D03*
X037225Y039024D03*
X036725Y039024D03*
X036225Y039024D03*
X033875Y038974D03*
X033375Y038974D03*
X032875Y038974D03*
X032375Y038974D03*
X032375Y036926D03*
X032875Y036926D03*
X033375Y036926D03*
X033875Y036926D03*
X033875Y035924D03*
X033375Y035924D03*
X032875Y035924D03*
X032375Y035924D03*
X030125Y035924D03*
X029625Y035924D03*
X029125Y035924D03*
X028625Y035924D03*
X028625Y036976D03*
X029125Y036976D03*
X029625Y036976D03*
X030125Y036976D03*
X030125Y039024D03*
X029625Y039024D03*
X029125Y039024D03*
X028625Y039024D03*
X026375Y039074D03*
X025875Y039074D03*
X025375Y039074D03*
X024875Y039074D03*
X024875Y037026D03*
X025375Y037026D03*
X025875Y037026D03*
X026375Y037026D03*
X026375Y035924D03*
X025875Y035924D03*
X025375Y035924D03*
X024875Y035924D03*
X024875Y033876D03*
X025375Y033876D03*
X025875Y033876D03*
X026375Y033876D03*
X026375Y032424D03*
X025875Y032424D03*
X025375Y032424D03*
X024875Y032424D03*
X024875Y030376D03*
X025375Y030376D03*
X025875Y030376D03*
X026375Y030376D03*
X028625Y032424D03*
X029125Y032424D03*
X029625Y032424D03*
X030125Y032424D03*
X030125Y033876D03*
X029625Y033876D03*
X029125Y033876D03*
X028625Y033876D03*
X032375Y033876D03*
X032875Y033876D03*
X033375Y033876D03*
X033875Y033876D03*
X033875Y032424D03*
X033375Y032424D03*
X032875Y032424D03*
X032375Y032424D03*
X036225Y032424D03*
X036725Y032424D03*
X037225Y032424D03*
X037725Y032424D03*
X037725Y033876D03*
X037225Y033876D03*
X036725Y033876D03*
X036225Y033876D03*
X039975Y033876D03*
X040475Y033876D03*
X040975Y033876D03*
X041475Y033876D03*
X041475Y032424D03*
X040975Y032424D03*
X040475Y032424D03*
X039975Y032424D03*
X015725Y032424D03*
X015225Y032424D03*
X014725Y032424D03*
X014225Y032424D03*
X014225Y033876D03*
X014725Y033876D03*
X015225Y033876D03*
X015725Y033876D03*
X015725Y035924D03*
X015225Y035924D03*
X014725Y035924D03*
X014225Y035924D03*
X014225Y037026D03*
X014725Y037026D03*
X015225Y037026D03*
X015725Y037026D03*
X015725Y039074D03*
X015225Y039074D03*
X014725Y039074D03*
X014225Y039074D03*
X011975Y039074D03*
X011475Y039074D03*
X010975Y039074D03*
X010475Y039074D03*
X008225Y039074D03*
X007725Y039074D03*
X007225Y039074D03*
X006725Y039074D03*
X006725Y037026D03*
X007225Y037026D03*
X007725Y037026D03*
X008225Y037026D03*
X008225Y035924D03*
X007725Y035924D03*
X007225Y035924D03*
X006725Y035924D03*
X006725Y033876D03*
X007225Y033876D03*
X007725Y033876D03*
X008225Y033876D03*
X008225Y032424D03*
X007725Y032424D03*
X007225Y032424D03*
X006725Y032424D03*
X006725Y030376D03*
X007225Y030376D03*
X007725Y030376D03*
X008225Y030376D03*
X010475Y030376D03*
X010975Y030376D03*
X011475Y030376D03*
X011975Y030376D03*
X014225Y030376D03*
X014725Y030376D03*
X015225Y030376D03*
X015725Y030376D03*
X011975Y032424D03*
X011475Y032424D03*
X010975Y032424D03*
X010475Y032424D03*
X010475Y033876D03*
X010975Y033876D03*
X011475Y033876D03*
X011975Y033876D03*
X011975Y035924D03*
X011475Y035924D03*
X010975Y035924D03*
X010475Y035924D03*
X010475Y037026D03*
X010975Y037026D03*
X011475Y037026D03*
X011975Y037026D03*
X012705Y011674D03*
X013205Y011674D03*
X013705Y011674D03*
X014205Y011674D03*
X014205Y009626D03*
X013705Y009626D03*
X013205Y009626D03*
X012705Y009626D03*
X012705Y008274D03*
X013205Y008274D03*
X013705Y008274D03*
X014205Y008274D03*
X014205Y006226D03*
X013705Y006226D03*
X013205Y006226D03*
X012705Y006226D03*
X012705Y005174D03*
X013205Y005174D03*
X013705Y005174D03*
X014205Y005174D03*
X014205Y003126D03*
X013705Y003126D03*
X013205Y003126D03*
X012705Y003126D03*
X016455Y003126D03*
X016955Y003126D03*
X017455Y003126D03*
X017955Y003126D03*
X017955Y005174D03*
X017455Y005174D03*
X016955Y005174D03*
X016455Y005174D03*
X016455Y006226D03*
X016955Y006226D03*
X017455Y006226D03*
X017955Y006226D03*
X017955Y008274D03*
X017455Y008274D03*
X016955Y008274D03*
X016455Y008274D03*
X016455Y009626D03*
X016955Y009626D03*
X017455Y009626D03*
X017955Y009626D03*
X017955Y011674D03*
X017455Y011674D03*
X016955Y011674D03*
X016455Y011674D03*
X007255Y011674D03*
X006755Y011674D03*
X006255Y011674D03*
X005755Y011674D03*
X005755Y009626D03*
X006255Y009626D03*
X006755Y009626D03*
X007255Y009626D03*
X007255Y008274D03*
X006755Y008274D03*
X006255Y008274D03*
X005755Y008274D03*
X005755Y006226D03*
X006255Y006226D03*
X006755Y006226D03*
X007255Y006226D03*
X007255Y005174D03*
X006755Y005174D03*
X006255Y005174D03*
X005755Y005174D03*
X005755Y003126D03*
X006255Y003126D03*
X006755Y003126D03*
X007255Y003126D03*
D12*
X004975Y003125D03*
X004975Y003795D03*
X007955Y008725D03*
X007955Y009395D03*
X008025Y010315D03*
X008025Y010985D03*
X014925Y010985D03*
X014925Y010315D03*
X014895Y009355D03*
X014895Y008685D03*
X018675Y008705D03*
X018675Y009375D03*
X018725Y010315D03*
X018725Y010985D03*
X018065Y018085D03*
X018065Y018755D03*
X017875Y020265D03*
X017875Y020935D03*
X023295Y021305D03*
X023295Y021975D03*
X023295Y018685D03*
X023295Y018015D03*
X028975Y022115D03*
X028975Y022785D03*
X028965Y023975D03*
X028965Y024645D03*
X029815Y024645D03*
X029815Y023975D03*
X031675Y031065D03*
X031675Y031735D03*
X031665Y032865D03*
X031665Y033535D03*
X027955Y033525D03*
X027955Y032855D03*
X027925Y031735D03*
X027925Y031065D03*
X024175Y031065D03*
X024175Y031735D03*
X024205Y032855D03*
X024205Y033525D03*
X027205Y038385D03*
X027205Y039055D03*
X030995Y038995D03*
X030995Y038325D03*
X032475Y040915D03*
X032475Y041585D03*
X034725Y038955D03*
X034725Y038285D03*
X038395Y038345D03*
X038395Y039015D03*
X042165Y039005D03*
X042165Y038335D03*
X045915Y038325D03*
X045915Y038995D03*
X042995Y033515D03*
X042995Y032845D03*
X043025Y031735D03*
X043025Y031065D03*
X039225Y031065D03*
X039225Y031735D03*
X039225Y032865D03*
X039225Y033535D03*
X035465Y033525D03*
X035465Y032855D03*
X035475Y031735D03*
X035475Y031065D03*
X042475Y023285D03*
X042475Y022615D03*
X044675Y022485D03*
X044675Y021815D03*
X046075Y023065D03*
X046075Y023735D03*
X046025Y011035D03*
X046025Y010365D03*
X046075Y009305D03*
X046075Y008635D03*
X042185Y008635D03*
X042185Y009305D03*
X042175Y010365D03*
X042175Y011035D03*
X038425Y010985D03*
X038425Y010315D03*
X038445Y009265D03*
X038445Y008595D03*
X039215Y003845D03*
X039215Y003175D03*
X035465Y003155D03*
X035465Y003825D03*
X028805Y009705D03*
X028805Y010375D03*
X027925Y010385D03*
X027055Y010375D03*
X027055Y009705D03*
X027925Y009715D03*
X028125Y007285D03*
X028125Y006615D03*
X026975Y006615D03*
X026975Y007285D03*
X015745Y003825D03*
X015745Y003155D03*
X011985Y003155D03*
X011985Y003825D03*
X043025Y003885D03*
X043025Y003215D03*
X013475Y031065D03*
X013475Y031735D03*
X013525Y032865D03*
X013525Y033535D03*
X009775Y033495D03*
X009775Y032825D03*
X009725Y031735D03*
X009725Y031065D03*
X005975Y031065D03*
X005975Y031735D03*
X006045Y032815D03*
X006045Y033485D03*
X008945Y038415D03*
X008945Y039085D03*
X012675Y039085D03*
X012675Y038415D03*
X016485Y038395D03*
X016485Y039065D03*
D13*
X020340Y036300D03*
X021009Y036300D03*
X024220Y029280D03*
X024889Y029280D03*
X025860Y029280D03*
X026529Y029280D03*
X027960Y029270D03*
X028629Y029270D03*
X029630Y029280D03*
X030299Y029280D03*
X031670Y029290D03*
X032339Y029290D03*
X033380Y029270D03*
X034049Y029270D03*
X035490Y029350D03*
X036159Y029350D03*
X037240Y029370D03*
X037909Y029370D03*
X039240Y029370D03*
X039909Y029370D03*
X040990Y029390D03*
X041659Y029390D03*
X043040Y029400D03*
X043709Y029400D03*
X044740Y029390D03*
X045409Y029390D03*
X045659Y025750D03*
X044990Y025750D03*
X046290Y024600D03*
X046959Y024600D03*
X042609Y024000D03*
X041940Y024000D03*
X041609Y025750D03*
X040940Y025750D03*
X037959Y022300D03*
X037290Y022300D03*
X037540Y021500D03*
X038209Y021500D03*
X038009Y017950D03*
X037340Y017950D03*
X037730Y012700D03*
X038399Y012700D03*
X039790Y012700D03*
X040459Y012700D03*
X041500Y012700D03*
X042169Y012700D03*
X043630Y012710D03*
X044299Y012710D03*
X045340Y012710D03*
X046009Y012710D03*
X036719Y012710D03*
X036050Y012710D03*
X023379Y019500D03*
X022710Y019500D03*
X022929Y017360D03*
X022260Y017360D03*
X021189Y017350D03*
X020520Y017350D03*
X019289Y017370D03*
X018620Y017370D03*
X018520Y021950D03*
X019189Y021950D03*
X019169Y022770D03*
X018500Y022770D03*
X021260Y023350D03*
X021929Y023350D03*
X022630Y022690D03*
X023299Y022690D03*
X015909Y029300D03*
X015240Y029300D03*
X014209Y029300D03*
X013540Y029300D03*
X012119Y029320D03*
X011450Y029320D03*
X010439Y029320D03*
X009770Y029320D03*
X008389Y029330D03*
X007720Y029330D03*
X006629Y029360D03*
X005960Y029360D03*
X007790Y022700D03*
X008459Y022700D03*
X007919Y012700D03*
X007250Y012700D03*
X006199Y012710D03*
X005530Y012710D03*
X012550Y012700D03*
X013219Y012700D03*
X014230Y012710D03*
X014899Y012710D03*
X016260Y012700D03*
X016929Y012700D03*
X017970Y012690D03*
X018639Y012690D03*
X020490Y012800D03*
X021159Y012800D03*
X030590Y040550D03*
X031259Y040550D03*
D14*
X020185Y009538D03*
X020185Y008042D03*
D15*
X029475Y040776D03*
X029475Y041524D03*
D16*
X023103Y015900D03*
X023103Y013900D03*
X020347Y013900D03*
X020347Y015900D03*
D17*
X013375Y026166D03*
X013375Y028134D03*
D18*
X003275Y028088D03*
X003275Y028875D03*
X003275Y029663D03*
X012150Y041600D03*
X012937Y041600D03*
X016338Y041600D03*
X017125Y041600D03*
X017912Y041600D03*
X018700Y041600D03*
X019487Y041600D03*
X022563Y041600D03*
X023350Y041600D03*
X024138Y041600D03*
X024925Y041600D03*
X025712Y041600D03*
X026500Y041600D03*
X027287Y041600D03*
X030637Y041600D03*
X035275Y041350D03*
X036275Y041350D03*
X037275Y041350D03*
X036275Y042350D03*
X035275Y042350D03*
X048775Y030462D03*
X048775Y029675D03*
X048775Y028887D03*
X049375Y026100D03*
X049875Y025600D03*
X050375Y026100D03*
X050375Y025100D03*
X049375Y025100D03*
X048775Y016862D03*
X048775Y016075D03*
X048775Y015287D03*
X018725Y006213D03*
X018725Y005425D03*
X018725Y004638D03*
X018725Y003850D03*
X010125Y014088D03*
X010125Y014875D03*
X010125Y015663D03*
X003275Y015325D03*
X003275Y016113D03*
X003275Y014538D03*
D19*
X003275Y016900D03*
X010125Y016450D03*
X018725Y007000D03*
X003275Y030450D03*
X013725Y041600D03*
X020275Y041600D03*
X028075Y041600D03*
X031425Y041600D03*
X037275Y042350D03*
X048775Y028100D03*
X048775Y014500D03*
D20*
X006765Y041890D03*
X004985Y041890D03*
D21*
X004495Y040910D03*
X007255Y040910D03*
D22*
X022275Y012600D03*
X023675Y012600D03*
X025475Y012600D03*
X026875Y012600D03*
D23*
X020225Y011760D03*
X020225Y010640D03*
D24*
X011254Y007800D03*
X033304Y004650D03*
D25*
X031745Y004650D03*
X009695Y007800D03*
D26*
X029202Y007385D03*
X029517Y007385D03*
X029832Y007385D03*
X030147Y007385D03*
X030147Y006715D03*
X029832Y006715D03*
X029517Y006715D03*
X029202Y006715D03*
X048952Y009915D03*
X049267Y009915D03*
X049582Y009915D03*
X049897Y009915D03*
X049897Y010585D03*
X049582Y010585D03*
X049267Y010585D03*
X048952Y010585D03*
X023647Y039565D03*
X023332Y039565D03*
X023017Y039565D03*
X022702Y039565D03*
X022702Y040235D03*
X023017Y040235D03*
X023332Y040235D03*
X023647Y040235D03*
X018947Y040235D03*
X018632Y040235D03*
X018317Y040235D03*
X018002Y040235D03*
X018002Y039565D03*
X018317Y039565D03*
X018632Y039565D03*
X018947Y039565D03*
X004382Y027585D03*
X004067Y027585D03*
X004067Y026915D03*
X004382Y026915D03*
X011967Y026785D03*
X012282Y026785D03*
X012282Y026115D03*
X011967Y026115D03*
X003347Y034015D03*
X003032Y034015D03*
X002717Y034015D03*
X002402Y034015D03*
X002402Y034685D03*
X002717Y034685D03*
X003032Y034685D03*
X003347Y034685D03*
D27*
X006090Y022322D03*
X006090Y022007D03*
X006090Y021693D03*
X006090Y021378D03*
X006759Y021378D03*
X006759Y021693D03*
X006759Y022007D03*
X006759Y022322D03*
X006759Y020157D03*
X006759Y019843D03*
X006090Y019843D03*
X006090Y020157D03*
X005059Y016107D03*
X005059Y015793D03*
X004390Y015793D03*
X004390Y016107D03*
X024690Y028343D03*
X024690Y028657D03*
X025359Y028657D03*
X025359Y028343D03*
X027790Y028293D03*
X027790Y028607D03*
X028459Y028607D03*
X028459Y028293D03*
X031590Y028343D03*
X031590Y028657D03*
X032259Y028657D03*
X032259Y028343D03*
X035540Y028393D03*
X035540Y028707D03*
X036209Y028707D03*
X036209Y028393D03*
X039290Y028393D03*
X039290Y028707D03*
X039959Y028707D03*
X039959Y028393D03*
X043040Y028443D03*
X043040Y028757D03*
X043709Y028757D03*
X043709Y028443D03*
X047040Y015207D03*
X047040Y014893D03*
X047709Y014893D03*
X047709Y015207D03*
X044309Y013657D03*
X044309Y013343D03*
X043640Y013343D03*
X043640Y013657D03*
D28*
X029725Y005300D03*
X029725Y004300D03*
X029725Y003300D03*
X028725Y003300D03*
X027975Y003300D03*
X027975Y004300D03*
X028725Y004300D03*
X028725Y005300D03*
X027975Y005300D03*
X026975Y005300D03*
X026975Y004300D03*
X026975Y003300D03*
D29*
X011278Y009400D03*
X009675Y009400D03*
D30*
X021475Y009550D03*
X021475Y008050D03*
X023325Y008050D03*
X025175Y008050D03*
X025175Y009550D03*
X023325Y009550D03*
X024325Y003050D03*
X022325Y003050D03*
D31*
X017875Y003950D03*
X017225Y003950D03*
X016525Y003950D03*
X015575Y005850D03*
X015575Y006350D03*
X016575Y007400D03*
X017225Y007400D03*
X017875Y007400D03*
X017475Y010300D03*
X017475Y011000D03*
X019325Y011350D03*
X019325Y011850D03*
X019875Y012800D03*
X017975Y013150D03*
X016925Y013250D03*
X014275Y013250D03*
X013225Y013250D03*
X013375Y014650D03*
X012575Y015550D03*
X012225Y016850D03*
X011675Y017000D03*
X013025Y017550D03*
X014925Y016400D03*
X015575Y016500D03*
X016225Y015900D03*
X017225Y018100D03*
X017225Y018750D03*
X017225Y019950D03*
X017225Y021150D03*
X017225Y021750D03*
X017225Y022400D03*
X018375Y023450D03*
X019225Y023450D03*
X020725Y023450D03*
X021975Y022700D03*
X022525Y023400D03*
X024025Y023450D03*
X024025Y022700D03*
X024025Y022100D03*
X024025Y021150D03*
X024025Y020150D03*
X024025Y019450D03*
X024025Y018450D03*
X024025Y017950D03*
X024025Y016700D03*
X022925Y016700D03*
X022175Y016700D03*
X021175Y016750D03*
X020525Y016750D03*
X019925Y017350D03*
X019225Y016700D03*
X018675Y016700D03*
X022725Y020150D03*
X025775Y019000D03*
X025625Y018150D03*
X025725Y016900D03*
X026875Y015750D03*
X026475Y015300D03*
X027375Y016100D03*
X028275Y016900D03*
X029375Y016850D03*
X030375Y018100D03*
X031325Y017200D03*
X032325Y016050D03*
X034125Y017900D03*
X033575Y018150D03*
X033125Y019550D03*
X032725Y020050D03*
X032975Y020600D03*
X032325Y020900D03*
X034175Y020500D03*
X035375Y020150D03*
X036525Y019750D03*
X037725Y019850D03*
X038575Y020100D03*
X038775Y019150D03*
X039475Y019000D03*
X039625Y019500D03*
X040075Y019500D03*
X040725Y017650D03*
X040725Y016900D03*
X041125Y016050D03*
X040375Y015800D03*
X037925Y015800D03*
X037825Y016850D03*
X036525Y017150D03*
X035925Y017500D03*
X036075Y016550D03*
X036575Y015800D03*
X036675Y018250D03*
X035425Y018350D03*
X036425Y021500D03*
X037125Y021500D03*
X036875Y022300D03*
X037125Y022950D03*
X037975Y022750D03*
X038575Y022950D03*
X038575Y022050D03*
X038575Y021250D03*
X040375Y021850D03*
X041125Y022600D03*
X041425Y024100D03*
X040725Y024450D03*
X042375Y024850D03*
X043075Y024000D03*
X043225Y023650D03*
X044225Y024050D03*
X044725Y024050D03*
X044725Y024550D03*
X044225Y024550D03*
X044475Y025450D03*
X045675Y025350D03*
X045625Y024700D03*
X045575Y023800D03*
X044675Y023100D03*
X042975Y022550D03*
X044675Y021350D03*
X045925Y021400D03*
X046725Y022500D03*
X046625Y023350D03*
X047225Y023850D03*
X048075Y023550D03*
X046625Y025050D03*
X042375Y026750D03*
X041975Y028400D03*
X041725Y028750D03*
X040475Y031100D03*
X040475Y031700D03*
X040725Y034750D03*
X041375Y034750D03*
X040075Y034750D03*
X038525Y035800D03*
X038525Y036250D03*
X037575Y034750D03*
X036975Y034750D03*
X036275Y034750D03*
X034725Y036650D03*
X034725Y037150D03*
X033875Y038150D03*
X033125Y038150D03*
X032425Y038150D03*
X031025Y037150D03*
X031025Y036650D03*
X030125Y038200D03*
X029375Y038200D03*
X028675Y038200D03*
X027225Y037150D03*
X027225Y036650D03*
X026375Y038250D03*
X025625Y038250D03*
X024925Y038250D03*
X024275Y039250D03*
X020225Y037800D03*
X019575Y038000D03*
X019675Y036300D03*
X019225Y035500D03*
X019225Y034950D03*
X019325Y033350D03*
X019025Y032200D03*
X019875Y030450D03*
X020875Y029000D03*
X021475Y029400D03*
X022275Y029750D03*
X023225Y030350D03*
X024175Y028300D03*
X026725Y028600D03*
X027075Y028200D03*
X029375Y028650D03*
X030025Y028200D03*
X030875Y027750D03*
X031325Y027750D03*
X031825Y027750D03*
X034225Y026500D03*
X034625Y028300D03*
X034425Y028700D03*
X034375Y029900D03*
X032875Y031100D03*
X032875Y031700D03*
X033125Y034750D03*
X032425Y034750D03*
X033775Y034750D03*
X036725Y031700D03*
X036725Y031100D03*
X038425Y028700D03*
X038925Y028150D03*
X038075Y026400D03*
X037575Y026400D03*
X036975Y026400D03*
X036575Y025650D03*
X036325Y025300D03*
X036025Y025650D03*
X035475Y024400D03*
X035175Y023700D03*
X034125Y023000D03*
X033125Y022650D03*
X031725Y023700D03*
X032225Y024050D03*
X030625Y023700D03*
X029525Y022450D03*
X028975Y023400D03*
X028275Y022100D03*
X027775Y021750D03*
X027225Y022350D03*
X027775Y021050D03*
X027625Y020200D03*
X028775Y021400D03*
X029475Y021350D03*
X029675Y020300D03*
X030175Y019950D03*
X030625Y019400D03*
X029375Y019000D03*
X028825Y018450D03*
X026075Y014800D03*
X025525Y014800D03*
X025025Y014750D03*
X024525Y014750D03*
X023925Y014700D03*
X029625Y010150D03*
X030375Y010350D03*
X031475Y012750D03*
X031925Y012750D03*
X032325Y012750D03*
X032725Y012750D03*
X033125Y012750D03*
X034125Y012750D03*
X034925Y012900D03*
X035525Y012700D03*
X036725Y013250D03*
X037725Y013250D03*
X037225Y010950D03*
X037225Y010350D03*
X040425Y013250D03*
X041475Y013250D03*
X042625Y013050D03*
X040975Y010950D03*
X040975Y010350D03*
X040725Y007400D03*
X041375Y007400D03*
X040075Y007400D03*
X038625Y006350D03*
X038625Y005850D03*
X037625Y007400D03*
X036975Y007400D03*
X036325Y007400D03*
X036325Y003950D03*
X036975Y003950D03*
X037625Y003950D03*
X040075Y003950D03*
X040725Y003950D03*
X041375Y003950D03*
X042325Y005850D03*
X042325Y006350D03*
X043925Y007400D03*
X044575Y007400D03*
X045225Y007400D03*
X046225Y006350D03*
X046225Y005850D03*
X045225Y003950D03*
X044575Y003950D03*
X043925Y003950D03*
X047525Y008800D03*
X047625Y009250D03*
X049325Y008550D03*
X049725Y008250D03*
X044825Y010350D03*
X044825Y010950D03*
X045375Y015600D03*
X046575Y017300D03*
X046725Y018200D03*
X038375Y025100D03*
X038275Y025500D03*
X037675Y025400D03*
X035575Y021850D03*
X030625Y024800D03*
X027275Y024050D03*
X026775Y024100D03*
X025775Y024100D03*
X024075Y024950D03*
X020375Y028400D03*
X019275Y027850D03*
X018925Y027450D03*
X018775Y026600D03*
X018575Y026100D03*
X017075Y026300D03*
X016975Y025750D03*
X015975Y025300D03*
X015525Y025300D03*
X015525Y024800D03*
X015975Y024800D03*
X015725Y023700D03*
X015225Y023500D03*
X014025Y023900D03*
X013475Y023900D03*
X012925Y023850D03*
X012375Y023800D03*
X011825Y023750D03*
X011775Y023150D03*
X011675Y022600D03*
X011175Y022600D03*
X010525Y023200D03*
X010325Y023700D03*
X009725Y025700D03*
X009225Y026550D03*
X009225Y028400D03*
X012375Y028500D03*
X014225Y028650D03*
X014725Y026900D03*
X015225Y026550D03*
X016325Y028550D03*
X017675Y029200D03*
X017875Y028150D03*
X014725Y031100D03*
X014725Y031750D03*
X014975Y034750D03*
X015575Y034750D03*
X014275Y034750D03*
X013375Y035750D03*
X013375Y036250D03*
X011875Y034750D03*
X011225Y034750D03*
X010525Y034750D03*
X009625Y035800D03*
X009625Y036300D03*
X008075Y034750D03*
X007475Y034750D03*
X006775Y034750D03*
X005875Y035800D03*
X005875Y036300D03*
X004475Y035800D03*
X002775Y035900D03*
X002475Y036300D03*
X002125Y036650D03*
X003725Y037900D03*
X006775Y038250D03*
X007475Y038250D03*
X008225Y038250D03*
X010525Y038250D03*
X011225Y038250D03*
X011975Y038250D03*
X014275Y038250D03*
X014975Y038250D03*
X015725Y038250D03*
X017375Y039250D03*
X021475Y035700D03*
X024925Y034750D03*
X025625Y034750D03*
X026275Y034750D03*
X028675Y034750D03*
X029375Y034750D03*
X030025Y034750D03*
X029125Y031700D03*
X029125Y031100D03*
X025375Y031100D03*
X025375Y031700D03*
X032425Y040400D03*
X036275Y038200D03*
X036975Y038200D03*
X037725Y038200D03*
X040025Y038200D03*
X040725Y038200D03*
X041475Y038200D03*
X042325Y036250D03*
X042325Y035800D03*
X043825Y034750D03*
X044475Y034750D03*
X045125Y034750D03*
X047475Y034900D03*
X048225Y032450D03*
X044225Y031700D03*
X044225Y031100D03*
X046075Y037150D03*
X046075Y037600D03*
X045225Y038200D03*
X044475Y038200D03*
X043775Y038200D03*
X019775Y021950D03*
X011775Y021350D03*
X011725Y020900D03*
X011525Y020550D03*
X011175Y020300D03*
X011225Y020900D03*
X011475Y019750D03*
X009025Y018250D03*
X008375Y017500D03*
X008275Y014850D03*
X007675Y014850D03*
X007275Y013500D03*
X005725Y014750D03*
X006775Y011050D03*
X006775Y010350D03*
X006525Y007400D03*
X007175Y007400D03*
X005875Y007400D03*
X004875Y006350D03*
X004875Y005850D03*
X005825Y003950D03*
X006475Y003950D03*
X007175Y003950D03*
X011825Y005850D03*
X011825Y006350D03*
X012825Y007400D03*
X013475Y007400D03*
X014125Y007400D03*
X013725Y010300D03*
X013725Y011000D03*
X013425Y003950D03*
X012775Y003950D03*
X014125Y003950D03*
X002825Y010100D03*
X003725Y020700D03*
X002325Y021650D03*
X002325Y022100D03*
X002325Y022500D03*
X002325Y022950D03*
X002325Y023350D03*
X002325Y023750D03*
X003725Y024600D03*
X005175Y024450D03*
X005175Y023950D03*
X005175Y023450D03*
X005675Y023050D03*
X006125Y023050D03*
X006525Y023450D03*
X006525Y024350D03*
X006125Y024800D03*
X005675Y024800D03*
X005625Y027100D03*
X005625Y028950D03*
X007225Y031100D03*
X007225Y031750D03*
X010975Y031750D03*
X010975Y031100D03*
X005825Y020650D03*
X033525Y010850D03*
M02*
