%
M48
M72
T01C0.0150
T02C0.0256
T03C0.0315
T04C0.0354
T05C0.0400
T06C0.0590
T07C0.0630
T08C0.0650
T09C0.0730
T10C0.1500
%
T01
X5825Y3950
X6475Y3950
X7175Y3950
X4875Y5850
X4875Y6350
X5875Y7400
X6525Y7400
X7175Y7400
X6775Y10350
X6775Y11050
X7275Y13500
X7675Y14850
X8275Y14850
X5725Y14750
X8375Y17500
X9025Y18250
X11475Y19750
X11175Y20300
X11525Y20550
X11725Y20900
X11775Y21350
X11225Y20900
X11175Y22600
X11675Y22600
X11775Y23150
X11825Y23750
X12375Y23800
X12925Y23850
X13475Y23900
X14025Y23900
X15225Y23500
X15725Y23700
X15525Y24800
X15975Y24800
X15975Y25300
X15525Y25300
X15225Y26550
X14725Y26900
X14225Y28650
X12375Y28500
X10975Y31100
X10975Y31750
X11225Y34750
X11875Y34750
X10525Y34750
X9625Y35800
X9625Y36300
X8075Y34750
X7475Y34750
X6775Y34750
X5875Y35800
X5875Y36300
X4475Y35800
X2775Y35900
X2475Y36300
X2125Y36650
X3725Y37900
X6775Y38250
X7475Y38250
X8225Y38250
X10525Y38250
X11225Y38250
X11975Y38250
X14275Y38250
X14975Y38250
X15725Y38250
X17375Y39250
X19575Y38000
X20225Y37800
X19675Y36300
X19225Y35500
X19225Y34950
X19325Y33350
X19025Y32200
X19875Y30450
X20875Y29000
X21475Y29400
X22275Y29750
X23225Y30350
X24175Y28300
X26725Y28600
X27075Y28200
X29375Y28650
X30025Y28200
X30875Y27750
X31325Y27750
X31825Y27750
X34225Y26500
X34625Y28300
X34425Y28700
X34375Y29900
X32875Y31100
X32875Y31700
X33125Y34750
X32425Y34750
X33775Y34750
X34725Y36650
X34725Y37150
X33875Y38150
X33125Y38150
X32425Y38150
X31025Y37150
X31025Y36650
X30125Y38200
X29375Y38200
X28675Y38200
X27225Y37150
X27225Y36650
X26375Y38250
X25625Y38250
X24925Y38250
X24275Y39250
X21475Y35700
X24925Y34750
X25625Y34750
X26275Y34750
X28675Y34750
X29375Y34750
X30025Y34750
X29125Y31700
X29125Y31100
X25375Y31100
X25375Y31700
X20375Y28400
X19275Y27850
X18925Y27450
X18775Y26600
X18575Y26100
X17075Y26300
X16975Y25750
X17875Y28150
X17675Y29200
X16325Y28550
X14725Y31100
X14725Y31750
X14975Y34750
X15575Y34750
X14275Y34750
X13375Y35750
X13375Y36250
X7225Y31750
X7225Y31100
X5625Y28950
X5625Y27100
X5675Y24800
X6125Y24800
X6525Y24350
X6525Y23450
X6125Y23050
X5675Y23050
X5175Y23450
X5175Y23950
X5175Y24450
X3725Y24600
X2325Y23750
X2325Y23350
X2325Y22950
X2325Y22500
X2325Y22100
X2325Y21650
X3725Y20700
X5825Y20650
X10525Y23200
X10325Y23700
X9725Y25700
X9225Y26550
X9225Y28400
X17225Y22400
X17225Y21750
X17225Y21150
X17225Y19950
X17225Y18750
X17225Y18100
X18675Y16700
X19225Y16700
X19925Y17350
X20525Y16750
X21175Y16750
X22175Y16700
X22925Y16700
X24025Y16700
X24025Y17950
X24025Y18450
X24025Y19450
X24025Y20150
X22725Y20150
X24025Y21150
X24025Y22100
X24025Y22700
X24025Y23450
X24075Y24950
X25775Y24100
X26775Y24100
X27275Y24050
X28975Y23400
X29525Y22450
X30625Y23700
X31725Y23700
X32225Y24050
X33125Y22650
X34125Y23000
X35175Y23700
X35475Y24400
X36325Y25300
X36575Y25650
X36025Y25650
X36975Y26400
X37575Y26400
X38075Y26400
X38275Y25500
X38375Y25100
X37675Y25400
X37125Y22950
X36875Y22300
X37125Y21500
X36425Y21500
X35575Y21850
X34175Y20500
X32975Y20600
X32725Y20050
X33125Y19550
X33575Y18150
X34125Y17900
X35425Y18350
X35925Y17500
X36525Y17150
X36075Y16550
X36575Y15800
X37925Y15800
X37825Y16850
X36675Y18250
X36525Y19750
X37725Y19850
X38575Y20100
X38775Y19150
X39475Y19000
X39625Y19500
X40075Y19500
X40725Y17650
X40725Y16900
X41125Y16050
X40375Y15800
X40425Y13250
X41475Y13250
X42625Y13050
X40975Y10950
X40975Y10350
X37725Y13250
X36725Y13250
X35525Y12700
X34925Y12900
X34125Y12750
X33125Y12750
X32725Y12750
X32325Y12750
X31925Y12750
X31475Y12750
X33525Y10850
X30375Y10350
X29625Y10150
X26075Y14800
X25525Y14800
X25025Y14750
X24525Y14750
X23925Y14700
X26475Y15300
X26875Y15750
X27375Y16100
X28275Y16900
X29375Y16850
X30375Y18100
X31325Y17200
X32325Y16050
X29375Y19000
X28825Y18450
X30175Y19950
X29675Y20300
X29475Y21350
X28775Y21400
X28275Y22100
X27775Y21750
X27225Y22350
X27775Y21050
X27625Y20200
X25775Y19000
X25625Y18150
X25725Y16900
X30625Y19400
X32325Y20900
X35375Y20150
X38575Y21250
X38575Y22050
X37975Y22750
X38575Y22950
X40375Y21850
X41125Y22600
X41425Y24100
X40725Y24450
X42375Y24850
X43075Y24000
X43225Y23650
X44225Y24050
X44725Y24050
X44725Y24550
X44225Y24550
X44475Y25450
X45675Y25350
X45625Y24700
X45575Y23800
X44675Y23100
X42975Y22550
X44675Y21350
X45925Y21400
X46725Y22500
X46625Y23350
X47225Y23850
X48075Y23550
X46625Y25050
X42375Y26750
X41975Y28400
X41725Y28750
X40475Y31100
X40475Y31700
X40725Y34750
X41375Y34750
X40075Y34750
X38525Y35800
X38525Y36250
X37575Y34750
X36975Y34750
X36275Y34750
X36725Y31700
X36725Y31100
X38425Y28700
X38925Y28150
X44225Y31100
X44225Y31700
X44475Y34750
X45125Y34750
X43825Y34750
X42325Y35800
X42325Y36250
X41475Y38200
X40725Y38200
X40025Y38200
X37725Y38200
X36975Y38200
X36275Y38200
X32425Y40400
X43775Y38200
X44475Y38200
X45225Y38200
X46075Y37600
X46075Y37150
X47475Y34900
X48225Y32450
X46725Y18200
X46575Y17300
X45375Y15600
X44825Y10950
X44825Y10350
X47625Y9250
X47525Y8800
X49325Y8550
X49725Y8250
X46225Y6350
X46225Y5850
X45225Y7400
X44575Y7400
X43925Y7400
X42325Y6350
X42325Y5850
X41375Y7400
X40725Y7400
X40075Y7400
X38625Y6350
X38625Y5850
X37625Y7400
X36975Y7400
X36325Y7400
X37225Y10350
X37225Y10950
X36975Y3950
X37625Y3950
X36325Y3950
X40075Y3950
X40725Y3950
X41375Y3950
X43925Y3950
X44575Y3950
X45225Y3950
X21975Y22700
X22525Y23400
X20725Y23450
X19225Y23450
X18375Y23450
X19775Y21950
X15575Y16500
X14925Y16400
X16225Y15900
X13375Y14650
X12575Y15550
X12225Y16850
X11675Y17000
X13025Y17550
X13225Y13250
X14275Y13250
X13725Y11000
X13725Y10300
X13475Y7400
X14125Y7400
X12825Y7400
X11825Y6350
X11825Y5850
X12775Y3950
X13425Y3950
X14125Y3950
X15575Y5850
X15575Y6350
X16575Y7400
X17225Y7400
X17875Y7400
X17475Y10300
X17475Y11000
X19325Y11350
X19325Y11850
X19875Y12800
X17975Y13150
X16925Y13250
X17225Y3950
X17875Y3950
X16525Y3950
X2825Y10100
X30625Y24800
T02
X13375Y26166
X13375Y28134
T03
X3275Y28088
X3275Y28875
X3275Y29663
X3275Y30450
X12150Y41600
X12937Y41600
X13725Y41600
X16338Y41600
X17125Y41600
X17912Y41600
X18700Y41600
X19487Y41600
X20275Y41600
X22563Y41600
X23350Y41600
X24138Y41600
X24925Y41600
X25712Y41600
X26500Y41600
X27287Y41600
X28075Y41600
X30637Y41600
X31425Y41600
X35275Y41350
X36275Y41350
X37275Y41350
X37275Y42350
X36275Y42350
X35275Y42350
X48775Y30462
X48775Y29675
X48775Y28887
X48775Y28100
X49375Y26100
X49875Y25600
X50375Y26100
X50375Y25100
X49375Y25100
X48775Y16862
X48775Y16075
X48775Y15287
X48775Y14500
X18725Y7000
X18725Y6213
X18725Y5425
X18725Y4638
X18725Y3850
X10125Y14088
X10125Y14875
X10125Y15663
X10125Y16450
X3275Y16113
X3275Y15325
X3275Y14538
X3275Y16900
T04
X26975Y5300
X27975Y5300
X28725Y5300
X29725Y5300
X29725Y4300
X29725Y3300
X28725Y3300
X27975Y3300
X27975Y4300
X28725Y4300
X26975Y4300
X26975Y3300
T05
X6765Y41890
X4985Y41890
T06
X4495Y40910
X7255Y40910
T07
X22275Y12600
X23675Y12600
X25475Y12600
X26875Y12600
T08
X31745Y4650
X33304Y4650
X11254Y7800
X9695Y7800
T09
X21475Y8050
X21475Y9550
X23325Y9550
X25175Y9550
X25175Y8050
X23325Y8050
X24325Y3050
X22325Y3050
T10
X2475Y3700
X2475Y41700
X49475Y41700
X49475Y3700
M30
