G75*
G70*
%OFA0B0*%
%FSLAX24Y24*%
%IPPOS*%
%LPD*%
%AMOC8*
5,1,8,0,0,1.08239X$1,22.5*
%
%ADD10C,0.0456*%
%ADD11C,0.0515*%
%ADD12C,0.0600*%
%ADD13C,0.0885*%
%ADD14C,0.0945*%
%ADD15C,0.0974*%
%ADD16C,0.0554*%
%ADD17C,0.1095*%
%ADD18C,0.0310*%
%ADD19C,0.0100*%
%ADD20C,0.0240*%
%ADD21C,0.0160*%
%ADD22C,0.0500*%
%ADD23C,0.0320*%
D10*
X013375Y026166D03*
X013375Y028134D03*
D11*
X003275Y028088D03*
X003275Y028875D03*
X003275Y029663D03*
X003275Y030450D03*
X012150Y041600D03*
X012937Y041600D03*
X013725Y041600D03*
X016338Y041600D03*
X017125Y041600D03*
X017912Y041600D03*
X018700Y041600D03*
X019487Y041600D03*
X020275Y041600D03*
X022563Y041600D03*
X023350Y041600D03*
X024138Y041600D03*
X024925Y041600D03*
X025712Y041600D03*
X026500Y041600D03*
X027287Y041600D03*
X028075Y041600D03*
X030637Y041600D03*
X031425Y041600D03*
X035275Y041350D03*
X036275Y041350D03*
X037275Y041350D03*
X037275Y042350D03*
X036275Y042350D03*
X035275Y042350D03*
X048775Y030462D03*
X048775Y029675D03*
X048775Y028887D03*
X048775Y028100D03*
X049375Y026100D03*
X049875Y025600D03*
X050375Y026100D03*
X050375Y025100D03*
X049375Y025100D03*
X048775Y016862D03*
X048775Y016075D03*
X048775Y015287D03*
X048775Y014500D03*
X018725Y007000D03*
X018725Y006213D03*
X018725Y005425D03*
X018725Y004638D03*
X018725Y003850D03*
X010125Y014088D03*
X010125Y014875D03*
X010125Y015663D03*
X010125Y016450D03*
X003275Y016113D03*
X003275Y015325D03*
X003275Y014538D03*
X003275Y016900D03*
D12*
X004985Y041890D03*
X006765Y041890D03*
D13*
X007255Y040910D03*
X004495Y040910D03*
D14*
X022275Y012600D03*
X023675Y012600D03*
X025475Y012600D03*
X026875Y012600D03*
D15*
X031745Y004650D03*
X033304Y004650D03*
X011254Y007800D03*
X009695Y007800D03*
D16*
X026975Y005300D03*
X027975Y005300D03*
X028725Y005300D03*
X029725Y005300D03*
X029725Y004300D03*
X029725Y003300D03*
X028725Y003300D03*
X027975Y003300D03*
X027975Y004300D03*
X028725Y004300D03*
X026975Y004300D03*
X026975Y003300D03*
D17*
X024325Y003050D03*
X022325Y003050D03*
X021475Y008050D03*
X021475Y009550D03*
X023325Y009550D03*
X025175Y009550D03*
X025175Y008050D03*
X023325Y008050D03*
D18*
X019325Y011350D03*
X019325Y011850D03*
X019875Y012800D03*
X017975Y013150D03*
X016925Y013250D03*
X017475Y011000D03*
X017475Y010300D03*
X017225Y007400D03*
X017875Y007400D03*
X016575Y007400D03*
X015575Y006350D03*
X015575Y005850D03*
X014125Y007400D03*
X013475Y007400D03*
X012825Y007400D03*
X011825Y006350D03*
X011825Y005850D03*
X012775Y003950D03*
X013425Y003950D03*
X014125Y003950D03*
X016525Y003950D03*
X017225Y003950D03*
X017875Y003950D03*
X013725Y010300D03*
X013725Y011000D03*
X013225Y013250D03*
X014275Y013250D03*
X013375Y014650D03*
X012575Y015550D03*
X012225Y016850D03*
X011675Y017000D03*
X013025Y017550D03*
X014925Y016400D03*
X015575Y016500D03*
X016225Y015900D03*
X017225Y018100D03*
X017225Y018750D03*
X017225Y019950D03*
X017225Y021150D03*
X017225Y021750D03*
X017225Y022400D03*
X018375Y023450D03*
X019225Y023450D03*
X020725Y023450D03*
X021975Y022700D03*
X022525Y023400D03*
X024025Y023450D03*
X024025Y022700D03*
X024025Y022100D03*
X024025Y021150D03*
X024025Y020150D03*
X024025Y019450D03*
X024025Y018450D03*
X024025Y017950D03*
X024025Y016700D03*
X022925Y016700D03*
X022175Y016700D03*
X021175Y016750D03*
X020525Y016750D03*
X019925Y017350D03*
X019225Y016700D03*
X018675Y016700D03*
X022725Y020150D03*
X025775Y019000D03*
X025625Y018150D03*
X025725Y016900D03*
X026875Y015750D03*
X026475Y015300D03*
X027375Y016100D03*
X028275Y016900D03*
X029375Y016850D03*
X030375Y018100D03*
X031325Y017200D03*
X032325Y016050D03*
X034125Y017900D03*
X033575Y018150D03*
X033125Y019550D03*
X032725Y020050D03*
X032975Y020600D03*
X032325Y020900D03*
X034175Y020500D03*
X035375Y020150D03*
X036525Y019750D03*
X037725Y019850D03*
X038575Y020100D03*
X038775Y019150D03*
X039475Y019000D03*
X039625Y019500D03*
X040075Y019500D03*
X040725Y017650D03*
X040725Y016900D03*
X041125Y016050D03*
X040375Y015800D03*
X037925Y015800D03*
X037825Y016850D03*
X036525Y017150D03*
X035925Y017500D03*
X036075Y016550D03*
X036575Y015800D03*
X036675Y018250D03*
X035425Y018350D03*
X036425Y021500D03*
X037125Y021500D03*
X036875Y022300D03*
X037125Y022950D03*
X037975Y022750D03*
X038575Y022950D03*
X038575Y022050D03*
X038575Y021250D03*
X040375Y021850D03*
X041125Y022600D03*
X041425Y024100D03*
X040725Y024450D03*
X042375Y024850D03*
X043075Y024000D03*
X043225Y023650D03*
X044225Y024050D03*
X044725Y024050D03*
X044725Y024550D03*
X044225Y024550D03*
X044475Y025450D03*
X045675Y025350D03*
X045625Y024700D03*
X045575Y023800D03*
X044675Y023100D03*
X042975Y022550D03*
X044675Y021350D03*
X045925Y021400D03*
X046725Y022500D03*
X046625Y023350D03*
X047225Y023850D03*
X048075Y023550D03*
X046625Y025050D03*
X042375Y026750D03*
X041975Y028400D03*
X041725Y028750D03*
X040475Y031100D03*
X040475Y031700D03*
X040725Y034750D03*
X041375Y034750D03*
X040075Y034750D03*
X038525Y035800D03*
X038525Y036250D03*
X037575Y034750D03*
X036975Y034750D03*
X036275Y034750D03*
X034725Y036650D03*
X034725Y037150D03*
X033875Y038150D03*
X033125Y038150D03*
X032425Y038150D03*
X031025Y037150D03*
X031025Y036650D03*
X030125Y038200D03*
X029375Y038200D03*
X028675Y038200D03*
X027225Y037150D03*
X027225Y036650D03*
X026375Y038250D03*
X025625Y038250D03*
X024925Y038250D03*
X024275Y039250D03*
X020225Y037800D03*
X019575Y038000D03*
X019675Y036300D03*
X019225Y035500D03*
X019225Y034950D03*
X019325Y033350D03*
X019025Y032200D03*
X019875Y030450D03*
X020875Y029000D03*
X021475Y029400D03*
X022275Y029750D03*
X023225Y030350D03*
X024175Y028300D03*
X026725Y028600D03*
X027075Y028200D03*
X029375Y028650D03*
X030025Y028200D03*
X030875Y027750D03*
X031325Y027750D03*
X031825Y027750D03*
X034225Y026500D03*
X034625Y028300D03*
X034425Y028700D03*
X034375Y029900D03*
X032875Y031100D03*
X032875Y031700D03*
X033125Y034750D03*
X032425Y034750D03*
X033775Y034750D03*
X036725Y031700D03*
X036725Y031100D03*
X038425Y028700D03*
X038925Y028150D03*
X038075Y026400D03*
X037575Y026400D03*
X036975Y026400D03*
X036575Y025650D03*
X036325Y025300D03*
X036025Y025650D03*
X035475Y024400D03*
X035175Y023700D03*
X034125Y023000D03*
X033125Y022650D03*
X031725Y023700D03*
X032225Y024050D03*
X030625Y023700D03*
X029525Y022450D03*
X028975Y023400D03*
X028275Y022100D03*
X027775Y021750D03*
X027225Y022350D03*
X027775Y021050D03*
X027625Y020200D03*
X028775Y021400D03*
X029475Y021350D03*
X029675Y020300D03*
X030175Y019950D03*
X030625Y019400D03*
X029375Y019000D03*
X028825Y018450D03*
X026075Y014800D03*
X025525Y014800D03*
X025025Y014750D03*
X024525Y014750D03*
X023925Y014700D03*
X029625Y010150D03*
X030375Y010350D03*
X031475Y012750D03*
X031925Y012750D03*
X032325Y012750D03*
X032725Y012750D03*
X033125Y012750D03*
X034125Y012750D03*
X034925Y012900D03*
X035525Y012700D03*
X036725Y013250D03*
X037725Y013250D03*
X037225Y010950D03*
X037225Y010350D03*
X040425Y013250D03*
X041475Y013250D03*
X042625Y013050D03*
X040975Y010950D03*
X040975Y010350D03*
X040725Y007400D03*
X041375Y007400D03*
X040075Y007400D03*
X038625Y006350D03*
X038625Y005850D03*
X037625Y007400D03*
X036975Y007400D03*
X036325Y007400D03*
X036325Y003950D03*
X036975Y003950D03*
X037625Y003950D03*
X040075Y003950D03*
X040725Y003950D03*
X041375Y003950D03*
X042325Y005850D03*
X042325Y006350D03*
X043925Y007400D03*
X044575Y007400D03*
X045225Y007400D03*
X046225Y006350D03*
X046225Y005850D03*
X045225Y003950D03*
X044575Y003950D03*
X043925Y003950D03*
X047525Y008800D03*
X047625Y009250D03*
X049325Y008550D03*
X049725Y008250D03*
X044825Y010350D03*
X044825Y010950D03*
X045375Y015600D03*
X046575Y017300D03*
X046725Y018200D03*
X038375Y025100D03*
X038275Y025500D03*
X037675Y025400D03*
X035575Y021850D03*
X030625Y024800D03*
X027275Y024050D03*
X026775Y024100D03*
X025775Y024100D03*
X024075Y024950D03*
X020375Y028400D03*
X019275Y027850D03*
X018925Y027450D03*
X018775Y026600D03*
X018575Y026100D03*
X017075Y026300D03*
X016975Y025750D03*
X015975Y025300D03*
X015525Y025300D03*
X015525Y024800D03*
X015975Y024800D03*
X015725Y023700D03*
X015225Y023500D03*
X014025Y023900D03*
X013475Y023900D03*
X012925Y023850D03*
X012375Y023800D03*
X011825Y023750D03*
X011775Y023150D03*
X011675Y022600D03*
X011175Y022600D03*
X010525Y023200D03*
X010325Y023700D03*
X009725Y025700D03*
X009225Y026550D03*
X009225Y028400D03*
X012375Y028500D03*
X014225Y028650D03*
X014725Y026900D03*
X015225Y026550D03*
X016325Y028550D03*
X017675Y029200D03*
X017875Y028150D03*
X014725Y031100D03*
X014725Y031750D03*
X014975Y034750D03*
X015575Y034750D03*
X014275Y034750D03*
X013375Y035750D03*
X013375Y036250D03*
X011875Y034750D03*
X011225Y034750D03*
X010525Y034750D03*
X009625Y035800D03*
X009625Y036300D03*
X008075Y034750D03*
X007475Y034750D03*
X006775Y034750D03*
X005875Y035800D03*
X005875Y036300D03*
X004475Y035800D03*
X002775Y035900D03*
X002475Y036300D03*
X002125Y036650D03*
X003725Y037900D03*
X006775Y038250D03*
X007475Y038250D03*
X008225Y038250D03*
X010525Y038250D03*
X011225Y038250D03*
X011975Y038250D03*
X014275Y038250D03*
X014975Y038250D03*
X015725Y038250D03*
X017375Y039250D03*
X021475Y035700D03*
X024925Y034750D03*
X025625Y034750D03*
X026275Y034750D03*
X028675Y034750D03*
X029375Y034750D03*
X030025Y034750D03*
X029125Y031700D03*
X029125Y031100D03*
X025375Y031100D03*
X025375Y031700D03*
X032425Y040400D03*
X036275Y038200D03*
X036975Y038200D03*
X037725Y038200D03*
X040025Y038200D03*
X040725Y038200D03*
X041475Y038200D03*
X042325Y036250D03*
X042325Y035800D03*
X043825Y034750D03*
X044475Y034750D03*
X045125Y034750D03*
X047475Y034900D03*
X048225Y032450D03*
X044225Y031700D03*
X044225Y031100D03*
X046075Y037150D03*
X046075Y037600D03*
X045225Y038200D03*
X044475Y038200D03*
X043775Y038200D03*
X019775Y021950D03*
X011775Y021350D03*
X011725Y020900D03*
X011525Y020550D03*
X011175Y020300D03*
X011225Y020900D03*
X011475Y019750D03*
X009025Y018250D03*
X008375Y017500D03*
X008275Y014850D03*
X007675Y014850D03*
X007275Y013500D03*
X005725Y014750D03*
X006775Y011050D03*
X006775Y010350D03*
X006525Y007400D03*
X007175Y007400D03*
X005875Y007400D03*
X004875Y006350D03*
X004875Y005850D03*
X005825Y003950D03*
X006475Y003950D03*
X007175Y003950D03*
X002825Y010100D03*
X003725Y020700D03*
X002325Y021650D03*
X002325Y022100D03*
X002325Y022500D03*
X002325Y022950D03*
X002325Y023350D03*
X002325Y023750D03*
X003725Y024600D03*
X005175Y024450D03*
X005175Y023950D03*
X005175Y023450D03*
X005675Y023050D03*
X006125Y023050D03*
X006525Y023450D03*
X006525Y024350D03*
X006125Y024800D03*
X005675Y024800D03*
X005625Y027100D03*
X005625Y028950D03*
X007225Y031100D03*
X007225Y031750D03*
X010975Y031750D03*
X010975Y031100D03*
X005825Y020650D03*
X033525Y010850D03*
D19*
X004425Y003250D02*
X004425Y035495D01*
X004535Y035495D01*
X004647Y035541D01*
X004733Y035627D01*
X004780Y035739D01*
X004780Y035861D01*
X004733Y035973D01*
X004647Y036059D01*
X004535Y036105D01*
X004425Y036105D01*
X004425Y039350D01*
X017086Y039350D01*
X017070Y039311D01*
X017070Y039189D01*
X017116Y039077D01*
X017202Y038991D01*
X017314Y038945D01*
X017435Y038945D01*
X017547Y038991D01*
X017633Y039077D01*
X017680Y039189D01*
X017680Y039311D01*
X017663Y039350D01*
X023986Y039350D01*
X023970Y039311D01*
X023970Y039189D01*
X024016Y039077D01*
X024102Y038991D01*
X024214Y038945D01*
X024335Y038945D01*
X024447Y038991D01*
X024533Y039077D01*
X024580Y039189D01*
X024580Y039311D01*
X024563Y039350D01*
X045625Y039350D01*
X045625Y030650D01*
X023297Y030650D01*
X023285Y030655D01*
X023164Y030655D01*
X023152Y030650D01*
X020106Y030650D01*
X020047Y030709D01*
X019935Y030755D01*
X019814Y030755D01*
X019702Y030709D01*
X019643Y030650D01*
X010125Y030650D01*
X010125Y023938D01*
X010062Y023876D01*
X010015Y023762D01*
X010015Y023638D01*
X010062Y023524D01*
X010125Y023462D01*
X010125Y016857D01*
X010044Y016857D01*
X009894Y016795D01*
X009779Y016681D01*
X009717Y016531D01*
X009717Y016369D01*
X009779Y016219D01*
X009894Y016105D01*
X010010Y016056D01*
X009894Y016008D01*
X009779Y015893D01*
X009717Y015744D01*
X009717Y015582D01*
X009779Y015432D01*
X009894Y015317D01*
X010010Y015269D01*
X009894Y015221D01*
X009779Y015106D01*
X009717Y014956D01*
X009717Y014794D01*
X009779Y014644D01*
X009894Y014530D01*
X010010Y014481D01*
X009894Y014433D01*
X009779Y014319D01*
X009717Y014169D01*
X009717Y014007D01*
X009779Y013857D01*
X009894Y013742D01*
X010044Y013680D01*
X010125Y013680D01*
X010125Y013266D01*
X008659Y014732D01*
X009743Y014732D01*
X009717Y014831D02*
X008675Y014831D01*
X008675Y014770D02*
X008675Y014930D01*
X008614Y015077D01*
X008501Y015189D01*
X008354Y015250D01*
X007895Y015250D01*
X007748Y015189D01*
X007714Y015155D01*
X007614Y015155D01*
X007502Y015109D01*
X007416Y015023D01*
X007370Y014911D01*
X007370Y014789D01*
X007416Y014677D01*
X007502Y014591D01*
X007614Y014545D01*
X007714Y014545D01*
X009836Y012423D01*
X009948Y012311D01*
X010095Y012250D01*
X010125Y012250D01*
X010125Y010550D01*
X030143Y010550D01*
X030116Y010523D01*
X030070Y010411D01*
X030070Y010289D01*
X030116Y010177D01*
X030202Y010091D01*
X030314Y010045D01*
X030435Y010045D01*
X030547Y010091D01*
X030633Y010177D01*
X030680Y010289D01*
X030680Y010411D01*
X030633Y010523D01*
X030606Y010550D01*
X033452Y010550D01*
X033464Y010545D01*
X033585Y010545D01*
X033597Y010550D01*
X045725Y010550D01*
X045725Y003250D01*
X030152Y003250D01*
X030152Y003385D01*
X030087Y003542D01*
X029967Y003662D01*
X029810Y003727D01*
X029640Y003727D01*
X029483Y003662D01*
X029362Y003542D01*
X029297Y003385D01*
X029297Y003250D01*
X029152Y003250D01*
X029152Y003385D01*
X029087Y003542D01*
X028967Y003662D01*
X028810Y003727D01*
X028640Y003727D01*
X028483Y003662D01*
X028362Y003542D01*
X028350Y003511D01*
X028337Y003542D01*
X028217Y003662D01*
X028060Y003727D01*
X027890Y003727D01*
X027733Y003662D01*
X027612Y003542D01*
X027547Y003385D01*
X027547Y003250D01*
X027402Y003250D01*
X027402Y003385D01*
X027337Y003542D01*
X027217Y003662D01*
X027060Y003727D01*
X026890Y003727D01*
X026733Y003662D01*
X026612Y003542D01*
X026547Y003385D01*
X026547Y003250D01*
X024997Y003250D01*
X024916Y003445D01*
X024720Y003641D01*
X024463Y003747D01*
X024186Y003747D01*
X023930Y003641D01*
X023733Y003445D01*
X023652Y003250D01*
X022997Y003250D01*
X022916Y003445D01*
X022720Y003641D01*
X022463Y003747D01*
X022186Y003747D01*
X021930Y003641D01*
X021733Y003445D01*
X021652Y003250D01*
X004425Y003250D01*
X004425Y003306D02*
X021676Y003306D01*
X021716Y003404D02*
X004425Y003404D01*
X004425Y003503D02*
X018498Y003503D01*
X018494Y003505D02*
X018644Y003443D01*
X018806Y003443D01*
X018955Y003505D01*
X019070Y003620D01*
X019132Y003769D01*
X019132Y003931D01*
X019070Y004081D01*
X018955Y004196D01*
X018839Y004244D01*
X018955Y004292D01*
X019070Y004407D01*
X019132Y004557D01*
X019132Y004719D01*
X019070Y004869D01*
X018955Y004983D01*
X018839Y005031D01*
X018955Y005080D01*
X019070Y005194D01*
X019132Y005344D01*
X019132Y005506D01*
X019070Y005656D01*
X018955Y005771D01*
X018839Y005819D01*
X018955Y005867D01*
X038320Y005867D01*
X038320Y005911D02*
X038320Y005789D01*
X038366Y005677D01*
X038452Y005591D01*
X038564Y005545D01*
X038685Y005545D01*
X038797Y005591D01*
X038883Y005677D01*
X038930Y005789D01*
X038930Y005911D01*
X038883Y006023D01*
X038806Y006100D01*
X038883Y006177D01*
X038930Y006289D01*
X038930Y006411D01*
X038883Y006523D01*
X038797Y006609D01*
X038685Y006655D01*
X038564Y006655D01*
X038452Y006609D01*
X038366Y006523D01*
X038320Y006411D01*
X038320Y006289D01*
X038366Y006177D01*
X038443Y006100D01*
X038366Y006023D01*
X038320Y005911D01*
X038342Y005966D02*
X019054Y005966D01*
X019070Y005982D02*
X019132Y006132D01*
X019132Y006294D01*
X019070Y006443D01*
X018955Y006558D01*
X018839Y006606D01*
X018955Y006655D01*
X019070Y006769D01*
X019132Y006919D01*
X019132Y007081D01*
X019070Y007231D01*
X018955Y007345D01*
X018806Y007407D01*
X018644Y007407D01*
X018494Y007345D01*
X018379Y007231D01*
X018317Y007081D01*
X018317Y006919D01*
X018379Y006769D01*
X018494Y006655D01*
X018610Y006606D01*
X018494Y006558D01*
X018379Y006443D01*
X018317Y006294D01*
X018317Y006132D01*
X018379Y005982D01*
X018494Y005867D01*
X015880Y005867D01*
X015880Y005911D02*
X015833Y006023D01*
X015756Y006100D01*
X015833Y006177D01*
X015880Y006289D01*
X015880Y006411D01*
X015833Y006523D01*
X015747Y006609D01*
X015635Y006655D01*
X015514Y006655D01*
X015402Y006609D01*
X015316Y006523D01*
X015270Y006411D01*
X015270Y006289D01*
X015316Y006177D01*
X015393Y006100D01*
X015316Y006023D01*
X015270Y005911D01*
X015270Y005789D01*
X015316Y005677D01*
X015402Y005591D01*
X015514Y005545D01*
X015635Y005545D01*
X015747Y005591D01*
X015833Y005677D01*
X015880Y005789D01*
X015880Y005911D01*
X015857Y005966D02*
X018395Y005966D01*
X018345Y006064D02*
X015792Y006064D01*
X015818Y006163D02*
X018317Y006163D01*
X018317Y006261D02*
X015868Y006261D01*
X015880Y006360D02*
X018344Y006360D01*
X018394Y006458D02*
X015860Y006458D01*
X015799Y006557D02*
X018492Y006557D01*
X018493Y006655D02*
X004425Y006655D01*
X004425Y006557D02*
X004650Y006557D01*
X004616Y006523D02*
X004570Y006411D01*
X004570Y006289D01*
X004616Y006177D01*
X004693Y006100D01*
X004616Y006023D01*
X004570Y005911D01*
X004570Y005789D01*
X004616Y005677D01*
X004702Y005591D01*
X004814Y005545D01*
X004935Y005545D01*
X005047Y005591D01*
X005133Y005677D01*
X005180Y005789D01*
X005180Y005911D01*
X005133Y006023D01*
X005056Y006100D01*
X005133Y006177D01*
X005180Y006289D01*
X005180Y006411D01*
X005133Y006523D01*
X005047Y006609D01*
X004935Y006655D01*
X004814Y006655D01*
X004702Y006609D01*
X004616Y006523D01*
X004589Y006458D02*
X004425Y006458D01*
X004425Y006360D02*
X004570Y006360D01*
X004581Y006261D02*
X004425Y006261D01*
X004425Y006163D02*
X004631Y006163D01*
X004657Y006064D02*
X004425Y006064D01*
X004425Y005966D02*
X004592Y005966D01*
X004570Y005867D02*
X004425Y005867D01*
X004425Y005769D02*
X004578Y005769D01*
X004623Y005670D02*
X004425Y005670D01*
X004425Y005572D02*
X004750Y005572D01*
X004999Y005572D02*
X011700Y005572D01*
X011652Y005591D02*
X011764Y005545D01*
X011885Y005545D01*
X011997Y005591D01*
X012083Y005677D01*
X012130Y005789D01*
X012130Y005911D01*
X012083Y006023D01*
X012006Y006100D01*
X012083Y006177D01*
X012130Y006289D01*
X012130Y006411D01*
X012083Y006523D01*
X011997Y006609D01*
X011885Y006655D01*
X011764Y006655D01*
X011652Y006609D01*
X011566Y006523D01*
X011520Y006411D01*
X011520Y006289D01*
X011566Y006177D01*
X011643Y006100D01*
X011566Y006023D01*
X011520Y005911D01*
X011520Y005789D01*
X011566Y005677D01*
X011652Y005591D01*
X011573Y005670D02*
X005126Y005670D01*
X005171Y005769D02*
X011528Y005769D01*
X011520Y005867D02*
X005180Y005867D01*
X005157Y005966D02*
X011542Y005966D01*
X011607Y006064D02*
X005092Y006064D01*
X005118Y006163D02*
X011581Y006163D01*
X011531Y006261D02*
X005168Y006261D01*
X005180Y006360D02*
X011520Y006360D01*
X011539Y006458D02*
X005160Y006458D01*
X005099Y006557D02*
X011600Y006557D01*
X012049Y006557D02*
X015350Y006557D01*
X015289Y006458D02*
X012110Y006458D01*
X012130Y006360D02*
X015270Y006360D01*
X015281Y006261D02*
X012118Y006261D01*
X012068Y006163D02*
X015331Y006163D01*
X015357Y006064D02*
X012042Y006064D01*
X012107Y005966D02*
X015292Y005966D01*
X015270Y005867D02*
X012130Y005867D01*
X012121Y005769D02*
X015278Y005769D01*
X015323Y005670D02*
X012076Y005670D01*
X011949Y005572D02*
X015450Y005572D01*
X015699Y005572D02*
X018344Y005572D01*
X018317Y005506D02*
X018317Y005344D01*
X018379Y005194D01*
X018494Y005080D01*
X018610Y005031D01*
X018494Y004983D01*
X018379Y004869D01*
X018317Y004719D01*
X018317Y004557D01*
X018379Y004407D01*
X018494Y004292D01*
X018610Y004244D01*
X018494Y004196D01*
X018379Y004081D01*
X018317Y003931D01*
X018317Y003769D01*
X018379Y003620D01*
X018494Y003505D01*
X018397Y003601D02*
X004425Y003601D01*
X004425Y003700D02*
X018346Y003700D01*
X018317Y003799D02*
X004425Y003799D01*
X004425Y003897D02*
X018317Y003897D01*
X018344Y003996D02*
X004425Y003996D01*
X004425Y004094D02*
X018392Y004094D01*
X018490Y004193D02*
X004425Y004193D01*
X004425Y004291D02*
X018497Y004291D01*
X018397Y004390D02*
X004425Y004390D01*
X004425Y004488D02*
X018346Y004488D01*
X018317Y004587D02*
X004425Y004587D01*
X004425Y004685D02*
X018317Y004685D01*
X018344Y004784D02*
X004425Y004784D01*
X004425Y004882D02*
X018393Y004882D01*
X018491Y004981D02*
X004425Y004981D01*
X004425Y005079D02*
X018496Y005079D01*
X018396Y005178D02*
X004425Y005178D01*
X004425Y005276D02*
X018345Y005276D01*
X018317Y005375D02*
X004425Y005375D01*
X004425Y005473D02*
X018317Y005473D01*
X018317Y005506D02*
X018379Y005656D01*
X018494Y005771D01*
X018610Y005819D01*
X018494Y005867D01*
X018492Y005769D02*
X015871Y005769D01*
X015826Y005670D02*
X018393Y005670D01*
X018958Y005769D02*
X038328Y005769D01*
X038373Y005670D02*
X029948Y005670D01*
X029967Y005662D02*
X029810Y005727D01*
X029640Y005727D01*
X029483Y005662D01*
X029362Y005542D01*
X029297Y005385D01*
X029297Y005215D01*
X029362Y005058D01*
X029483Y004938D01*
X029640Y004873D01*
X029810Y004873D01*
X029967Y004938D01*
X030087Y005058D01*
X030152Y005215D01*
X030152Y005385D01*
X030087Y005542D01*
X029967Y005662D01*
X030057Y005572D02*
X038500Y005572D01*
X038749Y005572D02*
X042200Y005572D01*
X042152Y005591D02*
X042264Y005545D01*
X042385Y005545D01*
X042497Y005591D01*
X042583Y005677D01*
X042630Y005789D01*
X042630Y005911D01*
X042583Y006023D01*
X042506Y006100D01*
X042583Y006177D01*
X042630Y006289D01*
X042630Y006411D01*
X042583Y006523D01*
X042497Y006609D01*
X042385Y006655D01*
X042264Y006655D01*
X042152Y006609D01*
X042066Y006523D01*
X042020Y006411D01*
X042020Y006289D01*
X042066Y006177D01*
X042143Y006100D01*
X042066Y006023D01*
X042020Y005911D01*
X042020Y005789D01*
X042066Y005677D01*
X042152Y005591D01*
X042073Y005670D02*
X038876Y005670D01*
X038921Y005769D02*
X042028Y005769D01*
X042020Y005867D02*
X038930Y005867D01*
X038907Y005966D02*
X042042Y005966D01*
X042107Y006064D02*
X038842Y006064D01*
X038868Y006163D02*
X042081Y006163D01*
X042031Y006261D02*
X038918Y006261D01*
X038930Y006360D02*
X042020Y006360D01*
X042039Y006458D02*
X038910Y006458D01*
X038849Y006557D02*
X042100Y006557D01*
X042549Y006557D02*
X045725Y006557D01*
X045725Y006655D02*
X018956Y006655D01*
X018957Y006557D02*
X038400Y006557D01*
X038339Y006458D02*
X019055Y006458D01*
X019105Y006360D02*
X038320Y006360D01*
X038331Y006261D02*
X019132Y006261D01*
X019132Y006163D02*
X038381Y006163D01*
X038407Y006064D02*
X019104Y006064D01*
X019070Y005982D02*
X018955Y005867D01*
X019056Y005670D02*
X026752Y005670D01*
X026733Y005662D02*
X026612Y005542D01*
X026547Y005385D01*
X026547Y005215D01*
X026612Y005058D01*
X026733Y004938D01*
X026890Y004873D01*
X027060Y004873D01*
X027217Y004938D01*
X027337Y005058D01*
X027402Y005215D01*
X027402Y005385D01*
X027337Y005542D01*
X027217Y005662D01*
X027060Y005727D01*
X026890Y005727D01*
X026733Y005662D01*
X026642Y005572D02*
X019105Y005572D01*
X019132Y005473D02*
X026584Y005473D01*
X026547Y005375D02*
X019132Y005375D01*
X019104Y005276D02*
X026547Y005276D01*
X026563Y005178D02*
X019053Y005178D01*
X018954Y005079D02*
X026604Y005079D01*
X026690Y004981D02*
X018958Y004981D01*
X019057Y004882D02*
X026868Y004882D01*
X026890Y004727D02*
X026733Y004662D01*
X026612Y004542D01*
X026547Y004385D01*
X026547Y004215D01*
X026612Y004058D01*
X026733Y003938D01*
X026890Y003873D01*
X027060Y003873D01*
X027217Y003938D01*
X027337Y004058D01*
X027402Y004215D01*
X027402Y004385D01*
X027337Y004542D01*
X027217Y004662D01*
X027060Y004727D01*
X026890Y004727D01*
X026788Y004685D02*
X019132Y004685D01*
X019132Y004587D02*
X026657Y004587D01*
X026590Y004488D02*
X019104Y004488D01*
X019053Y004390D02*
X026549Y004390D01*
X026547Y004291D02*
X018952Y004291D01*
X018959Y004193D02*
X026557Y004193D01*
X026598Y004094D02*
X019057Y004094D01*
X019106Y003996D02*
X026675Y003996D01*
X026831Y003897D02*
X019132Y003897D01*
X019132Y003799D02*
X045725Y003799D01*
X045725Y003897D02*
X029868Y003897D01*
X029810Y003873D02*
X029967Y003938D01*
X030087Y004058D01*
X030152Y004215D01*
X030152Y004385D01*
X030087Y004542D01*
X029967Y004662D01*
X029810Y004727D01*
X029640Y004727D01*
X029483Y004662D01*
X029362Y004542D01*
X029297Y004385D01*
X029297Y004215D01*
X029362Y004058D01*
X029483Y003938D01*
X029640Y003873D01*
X029810Y003873D01*
X029875Y003700D02*
X045725Y003700D01*
X045725Y003601D02*
X030027Y003601D01*
X030103Y003503D02*
X045725Y003503D01*
X045725Y003404D02*
X030144Y003404D01*
X030152Y003306D02*
X045725Y003306D01*
X045725Y003996D02*
X030024Y003996D01*
X030102Y004094D02*
X031422Y004094D01*
X031384Y004110D02*
X031618Y004013D01*
X031872Y004013D01*
X032106Y004110D01*
X032285Y004289D01*
X032382Y004523D01*
X032382Y004777D01*
X032285Y005011D01*
X032106Y005190D01*
X031872Y005287D01*
X031618Y005287D01*
X031384Y005190D01*
X031205Y005011D01*
X031108Y004777D01*
X031108Y004523D01*
X031205Y004289D01*
X031384Y004110D01*
X031301Y004193D02*
X030142Y004193D01*
X030152Y004291D02*
X031204Y004291D01*
X031163Y004390D02*
X030150Y004390D01*
X030109Y004488D02*
X031122Y004488D01*
X031108Y004587D02*
X030042Y004587D01*
X029911Y004685D02*
X031108Y004685D01*
X031111Y004784D02*
X019105Y004784D01*
X019103Y003700D02*
X022071Y003700D01*
X021890Y003601D02*
X019052Y003601D01*
X018951Y003503D02*
X021791Y003503D01*
X022578Y003700D02*
X024071Y003700D01*
X023890Y003601D02*
X022760Y003601D01*
X022858Y003503D02*
X023791Y003503D01*
X023716Y003404D02*
X022933Y003404D01*
X022974Y003306D02*
X023676Y003306D01*
X024578Y003700D02*
X026824Y003700D01*
X026672Y003601D02*
X024760Y003601D01*
X024858Y003503D02*
X026596Y003503D01*
X026556Y003404D02*
X024933Y003404D01*
X024974Y003306D02*
X026547Y003306D01*
X027125Y003700D02*
X027824Y003700D01*
X027672Y003601D02*
X027277Y003601D01*
X027353Y003503D02*
X027596Y003503D01*
X027556Y003404D02*
X027394Y003404D01*
X027402Y003306D02*
X027547Y003306D01*
X027831Y003897D02*
X027118Y003897D01*
X027274Y003996D02*
X027675Y003996D01*
X027733Y003938D02*
X027890Y003873D01*
X028060Y003873D01*
X028217Y003938D01*
X028337Y004058D01*
X028350Y004089D01*
X028362Y004058D01*
X028483Y003938D01*
X028640Y003873D01*
X028810Y003873D01*
X028967Y003938D01*
X029087Y004058D01*
X029152Y004215D01*
X029152Y004385D01*
X029087Y004542D01*
X028967Y004662D01*
X028810Y004727D01*
X028640Y004727D01*
X028483Y004662D01*
X028362Y004542D01*
X028350Y004511D01*
X028337Y004542D01*
X028217Y004662D01*
X028060Y004727D01*
X027890Y004727D01*
X027733Y004662D01*
X027612Y004542D01*
X027547Y004385D01*
X027547Y004215D01*
X027612Y004058D01*
X027733Y003938D01*
X027598Y004094D02*
X027352Y004094D01*
X027392Y004193D02*
X027557Y004193D01*
X027547Y004291D02*
X027402Y004291D01*
X027400Y004390D02*
X027549Y004390D01*
X027590Y004488D02*
X027359Y004488D01*
X027292Y004587D02*
X027657Y004587D01*
X027788Y004685D02*
X027161Y004685D01*
X027082Y004882D02*
X027868Y004882D01*
X027890Y004873D02*
X028060Y004873D01*
X028217Y004938D01*
X028337Y005058D01*
X028350Y005089D01*
X028362Y005058D01*
X028483Y004938D01*
X028640Y004873D01*
X028810Y004873D01*
X028967Y004938D01*
X029087Y005058D01*
X029152Y005215D01*
X029152Y005385D01*
X029087Y005542D01*
X028967Y005662D01*
X028810Y005727D01*
X028640Y005727D01*
X028483Y005662D01*
X028362Y005542D01*
X028350Y005511D01*
X028337Y005542D01*
X028217Y005662D01*
X028060Y005727D01*
X027890Y005727D01*
X027733Y005662D01*
X027612Y005542D01*
X027547Y005385D01*
X027547Y005215D01*
X027612Y005058D01*
X027733Y004938D01*
X027890Y004873D01*
X028082Y004882D02*
X028618Y004882D01*
X028440Y004981D02*
X028259Y004981D01*
X028345Y005079D02*
X028354Y005079D01*
X028538Y004685D02*
X028161Y004685D01*
X028292Y004587D02*
X028407Y004587D01*
X028911Y004685D02*
X029538Y004685D01*
X029407Y004587D02*
X029042Y004587D01*
X029109Y004488D02*
X029340Y004488D01*
X029299Y004390D02*
X029150Y004390D01*
X029152Y004291D02*
X029297Y004291D01*
X029307Y004193D02*
X029142Y004193D01*
X029102Y004094D02*
X029348Y004094D01*
X029425Y003996D02*
X029024Y003996D01*
X028868Y003897D02*
X029581Y003897D01*
X029574Y003700D02*
X028875Y003700D01*
X029027Y003601D02*
X029422Y003601D01*
X029346Y003503D02*
X029103Y003503D01*
X029144Y003404D02*
X029306Y003404D01*
X029297Y003306D02*
X029152Y003306D01*
X028574Y003700D02*
X028125Y003700D01*
X028277Y003601D02*
X028422Y003601D01*
X028581Y003897D02*
X028118Y003897D01*
X028274Y003996D02*
X028425Y003996D01*
X028832Y004882D02*
X029618Y004882D01*
X029440Y004981D02*
X029009Y004981D01*
X029095Y005079D02*
X029354Y005079D01*
X029313Y005178D02*
X029136Y005178D01*
X029152Y005276D02*
X029297Y005276D01*
X029297Y005375D02*
X029152Y005375D01*
X029115Y005473D02*
X029334Y005473D01*
X029392Y005572D02*
X029057Y005572D01*
X028948Y005670D02*
X029502Y005670D01*
X030009Y004981D02*
X031192Y004981D01*
X031151Y004882D02*
X029832Y004882D01*
X030095Y005079D02*
X031273Y005079D01*
X031371Y005178D02*
X030136Y005178D01*
X030152Y005276D02*
X031591Y005276D01*
X031899Y005276D02*
X033150Y005276D01*
X033177Y005287D02*
X032943Y005190D01*
X032764Y005011D01*
X032667Y004777D01*
X032667Y004523D01*
X032764Y004289D01*
X032943Y004110D01*
X033177Y004013D01*
X033431Y004013D01*
X033665Y004110D01*
X033844Y004289D01*
X033941Y004523D01*
X033941Y004777D01*
X033844Y005011D01*
X033665Y005190D01*
X033431Y005287D01*
X033177Y005287D01*
X032930Y005178D02*
X032119Y005178D01*
X032217Y005079D02*
X032832Y005079D01*
X032751Y004981D02*
X032298Y004981D01*
X032339Y004882D02*
X032711Y004882D01*
X032670Y004784D02*
X032379Y004784D01*
X032382Y004685D02*
X032667Y004685D01*
X032667Y004587D02*
X032382Y004587D01*
X032368Y004488D02*
X032682Y004488D01*
X032722Y004390D02*
X032327Y004390D01*
X032286Y004291D02*
X032763Y004291D01*
X032860Y004193D02*
X032189Y004193D01*
X032068Y004094D02*
X032981Y004094D01*
X033627Y004094D02*
X045725Y004094D01*
X045725Y004193D02*
X033748Y004193D01*
X033845Y004291D02*
X045725Y004291D01*
X045725Y004390D02*
X033886Y004390D01*
X033927Y004488D02*
X045725Y004488D01*
X045725Y004587D02*
X033941Y004587D01*
X033941Y004685D02*
X045725Y004685D01*
X045725Y004784D02*
X033939Y004784D01*
X033898Y004882D02*
X045725Y004882D01*
X045725Y004981D02*
X033857Y004981D01*
X033776Y005079D02*
X045725Y005079D01*
X045725Y005178D02*
X033678Y005178D01*
X033458Y005276D02*
X045725Y005276D01*
X045725Y005375D02*
X030152Y005375D01*
X030115Y005473D02*
X045725Y005473D01*
X045725Y005572D02*
X042449Y005572D01*
X042576Y005670D02*
X045725Y005670D01*
X045725Y005769D02*
X042621Y005769D01*
X042630Y005867D02*
X045725Y005867D01*
X045725Y005966D02*
X042607Y005966D01*
X042542Y006064D02*
X045725Y006064D01*
X045725Y006163D02*
X042568Y006163D01*
X042618Y006261D02*
X045725Y006261D01*
X045725Y006360D02*
X042630Y006360D01*
X042610Y006458D02*
X045725Y006458D01*
X045725Y006754D02*
X019054Y006754D01*
X019104Y006852D02*
X045725Y006852D01*
X045725Y006951D02*
X019132Y006951D01*
X019132Y007049D02*
X045725Y007049D01*
X045725Y007148D02*
X045403Y007148D01*
X045397Y007141D02*
X045483Y007227D01*
X045530Y007339D01*
X045530Y007461D01*
X045483Y007573D01*
X045397Y007659D01*
X045285Y007705D01*
X045164Y007705D01*
X045052Y007659D01*
X044966Y007573D01*
X044920Y007461D01*
X044920Y007339D01*
X044966Y007227D01*
X045052Y007141D01*
X045164Y007095D01*
X045285Y007095D01*
X045397Y007141D01*
X045491Y007246D02*
X045725Y007246D01*
X045725Y007345D02*
X045530Y007345D01*
X045530Y007443D02*
X045725Y007443D01*
X045725Y007542D02*
X045496Y007542D01*
X045416Y007640D02*
X045725Y007640D01*
X045725Y007739D02*
X025801Y007739D01*
X025766Y007655D02*
X025872Y007911D01*
X025872Y008189D01*
X025766Y008445D01*
X025570Y008641D01*
X025313Y008747D01*
X025036Y008747D01*
X024780Y008641D01*
X024583Y008445D01*
X024477Y008189D01*
X024477Y007911D01*
X024583Y007655D01*
X024780Y007459D01*
X025036Y007353D01*
X025313Y007353D01*
X025570Y007459D01*
X025766Y007655D01*
X025751Y007640D02*
X036133Y007640D01*
X036152Y007659D02*
X036066Y007573D01*
X036020Y007461D01*
X036020Y007339D01*
X036066Y007227D01*
X036152Y007141D01*
X036264Y007095D01*
X036385Y007095D01*
X036497Y007141D01*
X036583Y007227D01*
X036630Y007339D01*
X036630Y007461D01*
X036583Y007573D01*
X036497Y007659D01*
X036385Y007705D01*
X036264Y007705D01*
X036152Y007659D01*
X036053Y007542D02*
X025653Y007542D01*
X025532Y007443D02*
X036020Y007443D01*
X036020Y007345D02*
X018956Y007345D01*
X019055Y007246D02*
X036058Y007246D01*
X036146Y007148D02*
X019105Y007148D01*
X018493Y007345D02*
X018180Y007345D01*
X018180Y007339D02*
X018133Y007227D01*
X018047Y007141D01*
X017935Y007095D01*
X017814Y007095D01*
X017702Y007141D01*
X017616Y007227D01*
X017570Y007339D01*
X017570Y007461D01*
X017616Y007573D01*
X017702Y007659D01*
X017814Y007705D01*
X017935Y007705D01*
X018047Y007659D01*
X018133Y007573D01*
X018180Y007461D01*
X018180Y007339D01*
X018141Y007246D02*
X018394Y007246D01*
X018345Y007148D02*
X018053Y007148D01*
X018317Y007049D02*
X004425Y007049D01*
X004425Y006951D02*
X018317Y006951D01*
X018345Y006852D02*
X004425Y006852D01*
X004425Y006754D02*
X018395Y006754D01*
X018180Y007443D02*
X021117Y007443D01*
X021080Y007459D02*
X021336Y007353D01*
X021613Y007353D01*
X021870Y007459D01*
X022066Y007655D01*
X022172Y007911D01*
X022172Y008189D01*
X022066Y008445D01*
X021870Y008641D01*
X021613Y008747D01*
X021336Y008747D01*
X021080Y008641D01*
X020883Y008445D01*
X020777Y008189D01*
X020777Y007911D01*
X020883Y007655D01*
X021080Y007459D01*
X020997Y007542D02*
X018146Y007542D01*
X018066Y007640D02*
X020898Y007640D01*
X020849Y007739D02*
X011891Y007739D01*
X011891Y007673D02*
X011794Y007439D01*
X011615Y007260D01*
X011381Y007163D01*
X011127Y007163D01*
X010893Y007260D01*
X010714Y007439D01*
X010617Y007673D01*
X010617Y007927D01*
X010714Y008161D01*
X010893Y008340D01*
X011127Y008437D01*
X011381Y008437D01*
X011615Y008340D01*
X011794Y008161D01*
X011891Y007927D01*
X011891Y007673D01*
X011878Y007640D02*
X012633Y007640D01*
X012652Y007659D02*
X012566Y007573D01*
X012520Y007461D01*
X012520Y007339D01*
X012566Y007227D01*
X012652Y007141D01*
X012764Y007095D01*
X012885Y007095D01*
X012997Y007141D01*
X013083Y007227D01*
X013130Y007339D01*
X013130Y007461D01*
X013083Y007573D01*
X012997Y007659D01*
X012885Y007705D01*
X012764Y007705D01*
X012652Y007659D01*
X012553Y007542D02*
X011837Y007542D01*
X011796Y007443D02*
X012520Y007443D01*
X012520Y007345D02*
X011700Y007345D01*
X011582Y007246D02*
X012558Y007246D01*
X012646Y007148D02*
X007353Y007148D01*
X007347Y007141D02*
X007433Y007227D01*
X007480Y007339D01*
X007480Y007461D01*
X007433Y007573D01*
X007347Y007659D01*
X007235Y007705D01*
X007114Y007705D01*
X007002Y007659D01*
X006916Y007573D01*
X006870Y007461D01*
X006870Y007339D01*
X006916Y007227D01*
X007002Y007141D01*
X007114Y007095D01*
X007235Y007095D01*
X007347Y007141D01*
X007441Y007246D02*
X010926Y007246D01*
X010808Y007345D02*
X007480Y007345D01*
X007480Y007443D02*
X010712Y007443D01*
X010671Y007542D02*
X007446Y007542D01*
X007366Y007640D02*
X010631Y007640D01*
X010617Y007739D02*
X004425Y007739D01*
X004425Y007837D02*
X010617Y007837D01*
X010621Y007936D02*
X004425Y007936D01*
X004425Y008034D02*
X010661Y008034D01*
X010702Y008133D02*
X004425Y008133D01*
X004425Y008231D02*
X010784Y008231D01*
X010883Y008330D02*
X004425Y008330D01*
X004425Y008428D02*
X011105Y008428D01*
X011403Y008428D02*
X020876Y008428D01*
X020835Y008330D02*
X011626Y008330D01*
X011724Y008231D02*
X020795Y008231D01*
X020777Y008133D02*
X011806Y008133D01*
X011847Y008034D02*
X020777Y008034D01*
X020777Y007936D02*
X011888Y007936D01*
X011891Y007837D02*
X020808Y007837D01*
X020965Y008527D02*
X004425Y008527D01*
X004425Y008625D02*
X021063Y008625D01*
X021278Y008724D02*
X004425Y008724D01*
X004425Y008822D02*
X045725Y008822D01*
X045725Y008724D02*
X025371Y008724D01*
X025313Y008853D02*
X025570Y008959D01*
X025766Y009155D01*
X025872Y009411D01*
X025872Y009689D01*
X025766Y009945D01*
X025570Y010141D01*
X025313Y010247D01*
X025036Y010247D01*
X024780Y010141D01*
X024583Y009945D01*
X024477Y009689D01*
X024477Y009411D01*
X024583Y009155D01*
X024780Y008959D01*
X025036Y008853D01*
X025313Y008853D01*
X025478Y008921D02*
X045725Y008921D01*
X045725Y009019D02*
X025630Y009019D01*
X025729Y009118D02*
X045725Y009118D01*
X045725Y009216D02*
X025791Y009216D01*
X025832Y009315D02*
X045725Y009315D01*
X045725Y009413D02*
X025872Y009413D01*
X025872Y009512D02*
X045725Y009512D01*
X045725Y009610D02*
X025872Y009610D01*
X025864Y009709D02*
X045725Y009709D01*
X045725Y009807D02*
X025823Y009807D01*
X025782Y009906D02*
X029438Y009906D01*
X029452Y009891D02*
X029564Y009845D01*
X029685Y009845D01*
X029797Y009891D01*
X029883Y009977D01*
X029930Y010089D01*
X029930Y010211D01*
X029883Y010323D01*
X029797Y010409D01*
X029685Y010455D01*
X029564Y010455D01*
X029452Y010409D01*
X029366Y010323D01*
X029320Y010211D01*
X029320Y010089D01*
X029366Y009977D01*
X029452Y009891D01*
X029355Y010004D02*
X025707Y010004D01*
X025609Y010103D02*
X029320Y010103D01*
X029320Y010201D02*
X025426Y010201D01*
X024924Y010201D02*
X023576Y010201D01*
X023463Y010247D02*
X023186Y010247D01*
X022930Y010141D01*
X022733Y009945D01*
X022627Y009689D01*
X022627Y009411D01*
X022733Y009155D01*
X022930Y008959D01*
X023186Y008853D01*
X023463Y008853D01*
X023720Y008959D01*
X023916Y009155D01*
X024022Y009411D01*
X024022Y009689D01*
X023916Y009945D01*
X023720Y010141D01*
X023463Y010247D01*
X023759Y010103D02*
X024741Y010103D01*
X024642Y010004D02*
X023857Y010004D01*
X023932Y009906D02*
X024567Y009906D01*
X024526Y009807D02*
X023973Y009807D01*
X024014Y009709D02*
X024485Y009709D01*
X024477Y009610D02*
X024022Y009610D01*
X024022Y009512D02*
X024477Y009512D01*
X024477Y009413D02*
X024022Y009413D01*
X023982Y009315D02*
X024517Y009315D01*
X024558Y009216D02*
X023941Y009216D01*
X023879Y009118D02*
X024621Y009118D01*
X024719Y009019D02*
X023780Y009019D01*
X023628Y008921D02*
X024872Y008921D01*
X024978Y008724D02*
X023521Y008724D01*
X023463Y008747D02*
X023186Y008747D01*
X022930Y008641D01*
X022733Y008445D01*
X022627Y008189D01*
X022627Y007911D01*
X022733Y007655D01*
X022930Y007459D01*
X023186Y007353D01*
X023463Y007353D01*
X023720Y007459D01*
X023916Y007655D01*
X024022Y007911D01*
X024022Y008189D01*
X023916Y008445D01*
X023720Y008641D01*
X023463Y008747D01*
X023736Y008625D02*
X024763Y008625D01*
X024665Y008527D02*
X023835Y008527D01*
X023923Y008428D02*
X024576Y008428D01*
X024535Y008330D02*
X023964Y008330D01*
X024005Y008231D02*
X024495Y008231D01*
X024477Y008133D02*
X024022Y008133D01*
X024022Y008034D02*
X024477Y008034D01*
X024477Y007936D02*
X024022Y007936D01*
X023991Y007837D02*
X024508Y007837D01*
X024549Y007739D02*
X023951Y007739D01*
X023901Y007640D02*
X024598Y007640D01*
X024697Y007542D02*
X023803Y007542D01*
X023682Y007443D02*
X024817Y007443D01*
X025841Y007837D02*
X045725Y007837D01*
X045725Y007936D02*
X025872Y007936D01*
X025872Y008034D02*
X045725Y008034D01*
X045725Y008133D02*
X025872Y008133D01*
X025855Y008231D02*
X045725Y008231D01*
X045725Y008330D02*
X025814Y008330D01*
X025773Y008428D02*
X045725Y008428D01*
X045725Y008527D02*
X025685Y008527D01*
X025586Y008625D02*
X045725Y008625D01*
X045033Y007640D02*
X044766Y007640D01*
X044747Y007659D02*
X044635Y007705D01*
X044514Y007705D01*
X044402Y007659D01*
X044316Y007573D01*
X044270Y007461D01*
X044270Y007339D01*
X044316Y007227D01*
X044402Y007141D01*
X044514Y007095D01*
X044635Y007095D01*
X044747Y007141D01*
X044833Y007227D01*
X044880Y007339D01*
X044880Y007461D01*
X044833Y007573D01*
X044747Y007659D01*
X044846Y007542D02*
X044953Y007542D01*
X044920Y007443D02*
X044880Y007443D01*
X044880Y007345D02*
X044920Y007345D01*
X044958Y007246D02*
X044841Y007246D01*
X044753Y007148D02*
X045046Y007148D01*
X044396Y007148D02*
X044103Y007148D01*
X044097Y007141D02*
X044183Y007227D01*
X044230Y007339D01*
X044230Y007461D01*
X044183Y007573D01*
X044097Y007659D01*
X043985Y007705D01*
X043864Y007705D01*
X043752Y007659D01*
X043666Y007573D01*
X043620Y007461D01*
X043620Y007339D01*
X043666Y007227D01*
X043752Y007141D01*
X043864Y007095D01*
X043985Y007095D01*
X044097Y007141D01*
X044191Y007246D02*
X044308Y007246D01*
X044270Y007345D02*
X044230Y007345D01*
X044230Y007443D02*
X044270Y007443D01*
X044303Y007542D02*
X044196Y007542D01*
X044116Y007640D02*
X044383Y007640D01*
X043733Y007640D02*
X041566Y007640D01*
X041547Y007659D02*
X041435Y007705D01*
X041314Y007705D01*
X041202Y007659D01*
X041116Y007573D01*
X041070Y007461D01*
X041070Y007339D01*
X041116Y007227D01*
X041202Y007141D01*
X041314Y007095D01*
X041435Y007095D01*
X041547Y007141D01*
X041633Y007227D01*
X041680Y007339D01*
X041680Y007461D01*
X041633Y007573D01*
X041547Y007659D01*
X041646Y007542D02*
X043653Y007542D01*
X043620Y007443D02*
X041680Y007443D01*
X041680Y007345D02*
X043620Y007345D01*
X043658Y007246D02*
X041641Y007246D01*
X041553Y007148D02*
X043746Y007148D01*
X041196Y007148D02*
X040903Y007148D01*
X040897Y007141D02*
X040983Y007227D01*
X041030Y007339D01*
X041030Y007461D01*
X040983Y007573D01*
X040897Y007659D01*
X040785Y007705D01*
X040664Y007705D01*
X040552Y007659D01*
X040466Y007573D01*
X040420Y007461D01*
X040420Y007339D01*
X040466Y007227D01*
X040552Y007141D01*
X040664Y007095D01*
X040785Y007095D01*
X040897Y007141D01*
X040991Y007246D02*
X041108Y007246D01*
X041070Y007345D02*
X041030Y007345D01*
X041030Y007443D02*
X041070Y007443D01*
X041103Y007542D02*
X040996Y007542D01*
X040916Y007640D02*
X041183Y007640D01*
X040533Y007640D02*
X040266Y007640D01*
X040247Y007659D02*
X040135Y007705D01*
X040014Y007705D01*
X039902Y007659D01*
X039816Y007573D01*
X039770Y007461D01*
X039770Y007339D01*
X039816Y007227D01*
X039902Y007141D01*
X040014Y007095D01*
X040135Y007095D01*
X040247Y007141D01*
X040333Y007227D01*
X040380Y007339D01*
X040380Y007461D01*
X040333Y007573D01*
X040247Y007659D01*
X040346Y007542D02*
X040453Y007542D01*
X040420Y007443D02*
X040380Y007443D01*
X040380Y007345D02*
X040420Y007345D01*
X040458Y007246D02*
X040341Y007246D01*
X040253Y007148D02*
X040546Y007148D01*
X039896Y007148D02*
X037803Y007148D01*
X037797Y007141D02*
X037883Y007227D01*
X037930Y007339D01*
X037930Y007461D01*
X037883Y007573D01*
X037797Y007659D01*
X037685Y007705D01*
X037564Y007705D01*
X037452Y007659D01*
X037366Y007573D01*
X037320Y007461D01*
X037320Y007339D01*
X037366Y007227D01*
X037452Y007141D01*
X037564Y007095D01*
X037685Y007095D01*
X037797Y007141D01*
X037891Y007246D02*
X039808Y007246D01*
X039770Y007345D02*
X037930Y007345D01*
X037930Y007443D02*
X039770Y007443D01*
X039803Y007542D02*
X037896Y007542D01*
X037816Y007640D02*
X039883Y007640D01*
X037433Y007640D02*
X037166Y007640D01*
X037147Y007659D02*
X037035Y007705D01*
X036914Y007705D01*
X036802Y007659D01*
X036716Y007573D01*
X036670Y007461D01*
X036670Y007339D01*
X036716Y007227D01*
X036802Y007141D01*
X036914Y007095D01*
X037035Y007095D01*
X037147Y007141D01*
X037233Y007227D01*
X037280Y007339D01*
X037280Y007461D01*
X037233Y007573D01*
X037147Y007659D01*
X037246Y007542D02*
X037353Y007542D01*
X037320Y007443D02*
X037280Y007443D01*
X037280Y007345D02*
X037320Y007345D01*
X037358Y007246D02*
X037241Y007246D01*
X037153Y007148D02*
X037446Y007148D01*
X036796Y007148D02*
X036503Y007148D01*
X036591Y007246D02*
X036708Y007246D01*
X036670Y007345D02*
X036630Y007345D01*
X036630Y007443D02*
X036670Y007443D01*
X036703Y007542D02*
X036596Y007542D01*
X036516Y007640D02*
X036783Y007640D01*
X034925Y012900D02*
X034925Y013750D01*
X035275Y014100D01*
X038675Y014100D01*
X038975Y014400D01*
X038975Y017650D01*
X040075Y018750D01*
X040075Y019500D01*
X039625Y019500D02*
X039625Y025850D01*
X035125Y030350D01*
X023225Y030350D01*
X022275Y029750D02*
X027325Y029750D01*
X029875Y027200D01*
X029875Y020500D01*
X029675Y020300D01*
X030175Y019950D02*
X030175Y024350D01*
X030625Y024800D01*
X031825Y025300D02*
X032375Y024750D01*
X033425Y024750D01*
X034125Y024050D01*
X034125Y023000D01*
X033575Y023450D02*
X033575Y018150D01*
X034125Y017900D02*
X034125Y012750D01*
X033125Y012750D02*
X033125Y019550D01*
X032725Y020050D02*
X032725Y012750D01*
X032325Y012750D02*
X032325Y016050D01*
X031925Y016300D02*
X032325Y016700D01*
X032325Y020400D01*
X033125Y021200D01*
X033125Y022650D01*
X033575Y023450D02*
X032975Y024050D01*
X032225Y024050D01*
X031825Y025300D02*
X031825Y027750D01*
X031325Y027750D02*
X031325Y017200D01*
X031925Y016950D02*
X031925Y020500D01*
X032325Y020900D01*
X034175Y020500D02*
X034475Y020800D01*
X034475Y025500D01*
X033775Y026200D01*
X033775Y029300D01*
X034375Y029900D01*
X033133Y030927D02*
X033180Y031039D01*
X033180Y031161D01*
X033133Y031273D01*
X033047Y031359D01*
X032935Y031405D01*
X032814Y031405D01*
X032702Y031359D01*
X032616Y031273D01*
X032570Y031161D01*
X032570Y031039D01*
X032616Y030927D01*
X032702Y030841D01*
X032814Y030795D01*
X032935Y030795D01*
X033047Y030841D01*
X033133Y030927D01*
X033092Y030886D02*
X036507Y030886D01*
X036466Y030927D02*
X036552Y030841D01*
X036664Y030795D01*
X036785Y030795D01*
X036897Y030841D01*
X036983Y030927D01*
X037030Y031039D01*
X037030Y031161D01*
X036983Y031273D01*
X036897Y031359D01*
X036785Y031405D01*
X036664Y031405D01*
X036552Y031359D01*
X036466Y031273D01*
X036420Y031161D01*
X036420Y031039D01*
X036466Y030927D01*
X036442Y030985D02*
X033157Y030985D01*
X033180Y031083D02*
X036420Y031083D01*
X036428Y031182D02*
X033171Y031182D01*
X033126Y031280D02*
X036473Y031280D01*
X036600Y031379D02*
X032999Y031379D01*
X032750Y031379D02*
X029249Y031379D01*
X029297Y031359D02*
X029185Y031405D01*
X029064Y031405D01*
X028952Y031359D01*
X028866Y031273D01*
X028820Y031161D01*
X028820Y031039D01*
X028866Y030927D01*
X028952Y030841D01*
X029064Y030795D01*
X029185Y030795D01*
X029297Y030841D01*
X029383Y030927D01*
X029430Y031039D01*
X029430Y031161D01*
X029383Y031273D01*
X029297Y031359D01*
X029376Y031280D02*
X032623Y031280D01*
X032578Y031182D02*
X029421Y031182D01*
X029430Y031083D02*
X032570Y031083D01*
X032592Y030985D02*
X029407Y030985D01*
X029342Y030886D02*
X032657Y030886D01*
X029000Y031379D02*
X025499Y031379D01*
X025547Y031359D02*
X025435Y031405D01*
X025314Y031405D01*
X025202Y031359D01*
X025116Y031273D01*
X025070Y031161D01*
X025070Y031039D01*
X025116Y030927D01*
X025202Y030841D01*
X025314Y030795D01*
X025435Y030795D01*
X025547Y030841D01*
X025633Y030927D01*
X025680Y031039D01*
X025680Y031161D01*
X025633Y031273D01*
X025547Y031359D01*
X025626Y031280D02*
X028873Y031280D01*
X028828Y031182D02*
X025671Y031182D01*
X025680Y031083D02*
X028820Y031083D01*
X028842Y030985D02*
X025657Y030985D01*
X025592Y030886D02*
X028907Y030886D01*
X027425Y029000D02*
X029525Y026900D01*
X029525Y022450D01*
X028625Y022200D02*
X029475Y021350D01*
X028825Y021350D02*
X028825Y018450D01*
X029375Y019000D02*
X029375Y016850D01*
X028275Y016900D02*
X028275Y022100D01*
X028625Y022200D02*
X028625Y025400D01*
X025425Y028600D01*
X020675Y028600D01*
X020375Y028900D01*
X020375Y029100D01*
X020675Y029400D01*
X021475Y029400D01*
X020875Y029000D02*
X027425Y029000D01*
X025157Y030886D02*
X014942Y030886D01*
X014983Y030927D02*
X015030Y031039D01*
X015030Y031161D01*
X014983Y031273D01*
X014897Y031359D01*
X014785Y031405D01*
X014664Y031405D01*
X014552Y031359D01*
X014466Y031273D01*
X014420Y031161D01*
X014420Y031039D01*
X014466Y030927D01*
X014552Y030841D01*
X014664Y030795D01*
X014785Y030795D01*
X014897Y030841D01*
X014983Y030927D01*
X015007Y030985D02*
X025092Y030985D01*
X025070Y031083D02*
X015030Y031083D01*
X015021Y031182D02*
X025078Y031182D01*
X025123Y031280D02*
X014976Y031280D01*
X014849Y031379D02*
X025250Y031379D01*
X024985Y034445D02*
X025097Y034491D01*
X025183Y034577D01*
X025230Y034689D01*
X025230Y034811D01*
X025183Y034923D01*
X025097Y035009D01*
X024985Y035055D01*
X024864Y035055D01*
X024752Y035009D01*
X024666Y034923D01*
X024620Y034811D01*
X024620Y034689D01*
X024666Y034577D01*
X024752Y034491D01*
X024864Y034445D01*
X024985Y034445D01*
X025137Y034531D02*
X025413Y034531D01*
X025452Y034491D02*
X025564Y034445D01*
X025685Y034445D01*
X025797Y034491D01*
X025883Y034577D01*
X025930Y034689D01*
X025930Y034811D01*
X025883Y034923D01*
X025797Y035009D01*
X025685Y035055D01*
X025564Y035055D01*
X025452Y035009D01*
X025366Y034923D01*
X025320Y034811D01*
X025320Y034689D01*
X025366Y034577D01*
X025452Y034491D01*
X025345Y034629D02*
X025205Y034629D01*
X025230Y034728D02*
X025320Y034728D01*
X025326Y034826D02*
X025223Y034826D01*
X025181Y034925D02*
X025368Y034925D01*
X025487Y035023D02*
X025062Y035023D01*
X024787Y035023D02*
X019524Y035023D01*
X019530Y035011D02*
X019483Y035123D01*
X019397Y035209D01*
X019358Y035225D01*
X019397Y035241D01*
X019483Y035327D01*
X019530Y035439D01*
X019530Y035561D01*
X019483Y035673D01*
X019397Y035759D01*
X019285Y035805D01*
X019164Y035805D01*
X019052Y035759D01*
X018966Y035673D01*
X018920Y035561D01*
X018920Y035439D01*
X018966Y035327D01*
X019052Y035241D01*
X019092Y035225D01*
X019052Y035209D01*
X018966Y035123D01*
X018920Y035011D01*
X018920Y034889D01*
X018966Y034777D01*
X019052Y034691D01*
X019164Y034645D01*
X019285Y034645D01*
X019397Y034691D01*
X019483Y034777D01*
X019530Y034889D01*
X019530Y035011D01*
X019530Y034925D02*
X024668Y034925D01*
X024626Y034826D02*
X019503Y034826D01*
X019434Y034728D02*
X024620Y034728D01*
X024645Y034629D02*
X015855Y034629D01*
X015833Y034577D02*
X015880Y034689D01*
X015880Y034811D01*
X015833Y034923D01*
X015747Y035009D01*
X015635Y035055D01*
X015514Y035055D01*
X015402Y035009D01*
X015316Y034923D01*
X015275Y034823D01*
X015233Y034923D01*
X015147Y035009D01*
X015035Y035055D01*
X014914Y035055D01*
X014802Y035009D01*
X014716Y034923D01*
X014670Y034811D01*
X014670Y034689D01*
X014716Y034577D01*
X014802Y034491D01*
X014914Y034445D01*
X015035Y034445D01*
X015147Y034491D01*
X015233Y034577D01*
X015275Y034677D01*
X015316Y034577D01*
X015402Y034491D01*
X015514Y034445D01*
X015635Y034445D01*
X015747Y034491D01*
X015833Y034577D01*
X015787Y034531D02*
X024713Y034531D01*
X025762Y035023D02*
X026137Y035023D01*
X026102Y035009D02*
X026016Y034923D01*
X025970Y034811D01*
X025970Y034689D01*
X026016Y034577D01*
X026102Y034491D01*
X026214Y034445D01*
X026335Y034445D01*
X026447Y034491D01*
X026533Y034577D01*
X026580Y034689D01*
X026580Y034811D01*
X026533Y034923D01*
X026447Y035009D01*
X026335Y035055D01*
X026214Y035055D01*
X026102Y035009D01*
X026018Y034925D02*
X025881Y034925D01*
X025923Y034826D02*
X025976Y034826D01*
X025970Y034728D02*
X025930Y034728D01*
X025905Y034629D02*
X025995Y034629D01*
X026063Y034531D02*
X025837Y034531D01*
X026487Y034531D02*
X028463Y034531D01*
X028502Y034491D02*
X028614Y034445D01*
X028735Y034445D01*
X028847Y034491D01*
X028933Y034577D01*
X028980Y034689D01*
X028980Y034811D01*
X028933Y034923D01*
X028847Y035009D01*
X028735Y035055D01*
X028614Y035055D01*
X028502Y035009D01*
X028416Y034923D01*
X028370Y034811D01*
X028370Y034689D01*
X028416Y034577D01*
X028502Y034491D01*
X028395Y034629D02*
X026555Y034629D01*
X026580Y034728D02*
X028370Y034728D01*
X028376Y034826D02*
X026573Y034826D01*
X026531Y034925D02*
X028418Y034925D01*
X028537Y035023D02*
X026412Y035023D01*
X027052Y036391D02*
X027164Y036345D01*
X027285Y036345D01*
X027397Y036391D01*
X027483Y036477D01*
X027530Y036589D01*
X027530Y036711D01*
X027483Y036823D01*
X027406Y036900D01*
X027483Y036977D01*
X027530Y037089D01*
X027530Y037211D01*
X027483Y037323D01*
X027397Y037409D01*
X027285Y037455D01*
X027164Y037455D01*
X027052Y037409D01*
X026966Y037323D01*
X026920Y037211D01*
X026920Y037089D01*
X026966Y036977D01*
X027043Y036900D01*
X026966Y036823D01*
X026920Y036711D01*
X026920Y036589D01*
X026966Y036477D01*
X027052Y036391D01*
X027041Y036402D02*
X019962Y036402D01*
X019980Y036361D02*
X019933Y036473D01*
X019847Y036559D01*
X019735Y036605D01*
X019614Y036605D01*
X019502Y036559D01*
X019416Y036473D01*
X019370Y036361D01*
X019370Y036239D01*
X019416Y036127D01*
X019502Y036041D01*
X019614Y035995D01*
X019735Y035995D01*
X019847Y036041D01*
X019933Y036127D01*
X019980Y036239D01*
X019980Y036361D01*
X019980Y036304D02*
X038220Y036304D01*
X038220Y036311D02*
X038220Y036189D01*
X038266Y036077D01*
X038318Y036025D01*
X038266Y035973D01*
X038220Y035861D01*
X038220Y035739D01*
X038266Y035627D01*
X038352Y035541D01*
X038464Y035495D01*
X038585Y035495D01*
X038697Y035541D01*
X038783Y035627D01*
X038830Y035739D01*
X038830Y035861D01*
X038783Y035973D01*
X038731Y036025D01*
X038783Y036077D01*
X038830Y036189D01*
X038830Y036311D01*
X038783Y036423D01*
X038697Y036509D01*
X038585Y036555D01*
X038464Y036555D01*
X038352Y036509D01*
X038266Y036423D01*
X038220Y036311D01*
X038257Y036402D02*
X034908Y036402D01*
X034897Y036391D02*
X034983Y036477D01*
X035030Y036589D01*
X035030Y036711D01*
X034983Y036823D01*
X034906Y036900D01*
X034983Y036977D01*
X035030Y037089D01*
X035030Y037211D01*
X034983Y037323D01*
X034897Y037409D01*
X034785Y037455D01*
X034664Y037455D01*
X034552Y037409D01*
X034466Y037323D01*
X034420Y037211D01*
X034420Y037089D01*
X034466Y036977D01*
X034543Y036900D01*
X034466Y036823D01*
X034420Y036711D01*
X034420Y036589D01*
X034466Y036477D01*
X034552Y036391D01*
X034664Y036345D01*
X034785Y036345D01*
X034897Y036391D01*
X034993Y036501D02*
X038344Y036501D01*
X038220Y036205D02*
X019965Y036205D01*
X019913Y036107D02*
X038254Y036107D01*
X038301Y036008D02*
X019767Y036008D01*
X019582Y036008D02*
X013564Y036008D01*
X013556Y036000D02*
X013633Y036077D01*
X013680Y036189D01*
X013680Y036311D01*
X013633Y036423D01*
X013547Y036509D01*
X013435Y036555D01*
X013314Y036555D01*
X013202Y036509D01*
X013116Y036423D01*
X013070Y036311D01*
X013070Y036189D01*
X013116Y036077D01*
X013193Y036000D01*
X013116Y035923D01*
X013070Y035811D01*
X009930Y035811D01*
X009930Y035861D02*
X009883Y035973D01*
X009806Y036050D01*
X009883Y036127D01*
X009930Y036239D01*
X009930Y036361D01*
X009883Y036473D01*
X009797Y036559D01*
X009685Y036605D01*
X009564Y036605D01*
X009452Y036559D01*
X009366Y036473D01*
X009320Y036361D01*
X009320Y036239D01*
X009366Y036127D01*
X009443Y036050D01*
X009366Y035973D01*
X009320Y035861D01*
X009320Y035739D01*
X009366Y035627D01*
X009452Y035541D01*
X009564Y035495D01*
X009685Y035495D01*
X009797Y035541D01*
X009883Y035627D01*
X009930Y035739D01*
X009930Y035861D01*
X009909Y035910D02*
X013111Y035910D01*
X013070Y035811D02*
X013070Y035689D01*
X013116Y035577D01*
X013202Y035491D01*
X013314Y035445D01*
X013435Y035445D01*
X013547Y035491D01*
X013633Y035577D01*
X013680Y035689D01*
X013680Y035811D01*
X013633Y035923D01*
X013556Y036000D01*
X013639Y035910D02*
X021253Y035910D01*
X021216Y035873D02*
X021302Y035959D01*
X021414Y036005D01*
X021535Y036005D01*
X021647Y035959D01*
X021733Y035873D01*
X021780Y035761D01*
X021780Y035639D01*
X021733Y035527D01*
X021647Y035441D01*
X021535Y035395D01*
X021414Y035395D01*
X021302Y035441D01*
X021216Y035527D01*
X021170Y035639D01*
X021170Y035761D01*
X021216Y035873D01*
X021190Y035811D02*
X013679Y035811D01*
X013680Y035713D02*
X019006Y035713D01*
X018942Y035614D02*
X013648Y035614D01*
X013572Y035516D02*
X018920Y035516D01*
X018929Y035417D02*
X004425Y035417D01*
X004425Y035319D02*
X018975Y035319D01*
X019080Y035220D02*
X004425Y035220D01*
X004425Y035122D02*
X018966Y035122D01*
X018925Y035023D02*
X015712Y035023D01*
X015831Y034925D02*
X018920Y034925D01*
X018946Y034826D02*
X015873Y034826D01*
X015880Y034728D02*
X019016Y034728D01*
X019370Y035220D02*
X045625Y035220D01*
X045625Y035122D02*
X019484Y035122D01*
X019475Y035319D02*
X045625Y035319D01*
X045625Y035417D02*
X021589Y035417D01*
X021722Y035516D02*
X038414Y035516D01*
X038279Y035614D02*
X021769Y035614D01*
X021780Y035713D02*
X038231Y035713D01*
X038220Y035811D02*
X021759Y035811D01*
X021696Y035910D02*
X038240Y035910D01*
X038748Y036008D02*
X042101Y036008D01*
X042118Y036025D02*
X042066Y035973D01*
X042020Y035861D01*
X042020Y035739D01*
X042066Y035627D01*
X042152Y035541D01*
X042264Y035495D01*
X042385Y035495D01*
X042497Y035541D01*
X042583Y035627D01*
X042630Y035739D01*
X042630Y035861D01*
X042583Y035973D01*
X042531Y036025D01*
X042583Y036077D01*
X042630Y036189D01*
X042630Y036311D01*
X042583Y036423D01*
X042497Y036509D01*
X042385Y036555D01*
X042264Y036555D01*
X042152Y036509D01*
X042066Y036423D01*
X042020Y036311D01*
X042020Y036189D01*
X042066Y036077D01*
X042118Y036025D01*
X042054Y036107D02*
X038795Y036107D01*
X038830Y036205D02*
X042020Y036205D01*
X042020Y036304D02*
X038830Y036304D01*
X038792Y036402D02*
X042057Y036402D01*
X042144Y036501D02*
X038705Y036501D01*
X038809Y035910D02*
X042040Y035910D01*
X042020Y035811D02*
X038830Y035811D01*
X038819Y035713D02*
X042031Y035713D01*
X042079Y035614D02*
X038770Y035614D01*
X038635Y035516D02*
X042214Y035516D01*
X042435Y035516D02*
X045625Y035516D01*
X045625Y035614D02*
X042570Y035614D01*
X042619Y035713D02*
X045625Y035713D01*
X045625Y035811D02*
X042630Y035811D01*
X042609Y035910D02*
X045625Y035910D01*
X045625Y036008D02*
X042548Y036008D01*
X042595Y036107D02*
X045625Y036107D01*
X045625Y036205D02*
X042630Y036205D01*
X042630Y036304D02*
X045625Y036304D01*
X045625Y036402D02*
X042592Y036402D01*
X042505Y036501D02*
X045625Y036501D01*
X045625Y036599D02*
X035030Y036599D01*
X035030Y036698D02*
X045625Y036698D01*
X045625Y036796D02*
X034994Y036796D01*
X034911Y036895D02*
X045625Y036895D01*
X045625Y036993D02*
X034990Y036993D01*
X035030Y037092D02*
X045625Y037092D01*
X045625Y037190D02*
X035030Y037190D01*
X034997Y037289D02*
X045625Y037289D01*
X045625Y037387D02*
X034919Y037387D01*
X034530Y037387D02*
X031219Y037387D01*
X031197Y037409D02*
X031085Y037455D01*
X030964Y037455D01*
X030852Y037409D01*
X030766Y037323D01*
X030720Y037211D01*
X030720Y037089D01*
X030766Y036977D01*
X030843Y036900D01*
X030766Y036823D01*
X030720Y036711D01*
X030720Y036589D01*
X030766Y036477D01*
X030852Y036391D01*
X030964Y036345D01*
X031085Y036345D01*
X031197Y036391D01*
X031283Y036477D01*
X031330Y036589D01*
X031330Y036711D01*
X031283Y036823D01*
X031206Y036900D01*
X031283Y036977D01*
X031330Y037089D01*
X031330Y037211D01*
X031283Y037323D01*
X031197Y037409D01*
X031297Y037289D02*
X034452Y037289D01*
X034420Y037190D02*
X031330Y037190D01*
X031330Y037092D02*
X034420Y037092D01*
X034459Y036993D02*
X031290Y036993D01*
X031211Y036895D02*
X034538Y036895D01*
X034455Y036796D02*
X031294Y036796D01*
X031330Y036698D02*
X034420Y036698D01*
X034420Y036599D02*
X031330Y036599D01*
X031293Y036501D02*
X034456Y036501D01*
X034541Y036402D02*
X031208Y036402D01*
X030841Y036402D02*
X027408Y036402D01*
X027493Y036501D02*
X030756Y036501D01*
X030720Y036599D02*
X027530Y036599D01*
X027530Y036698D02*
X030720Y036698D01*
X030755Y036796D02*
X027494Y036796D01*
X027411Y036895D02*
X030838Y036895D01*
X030759Y036993D02*
X027490Y036993D01*
X027530Y037092D02*
X030720Y037092D01*
X030720Y037190D02*
X027530Y037190D01*
X027497Y037289D02*
X030752Y037289D01*
X030830Y037387D02*
X027419Y037387D01*
X027030Y037387D02*
X004425Y037387D01*
X004425Y037289D02*
X026952Y037289D01*
X026920Y037190D02*
X004425Y037190D01*
X004425Y037092D02*
X026920Y037092D01*
X026959Y036993D02*
X004425Y036993D01*
X004425Y036895D02*
X027038Y036895D01*
X026955Y036796D02*
X004425Y036796D01*
X004425Y036698D02*
X026920Y036698D01*
X026920Y036599D02*
X019750Y036599D01*
X019600Y036599D02*
X009700Y036599D01*
X009550Y036599D02*
X005950Y036599D01*
X005935Y036605D02*
X005814Y036605D01*
X005702Y036559D01*
X005616Y036473D01*
X005570Y036361D01*
X005570Y036239D01*
X005616Y036127D01*
X005693Y036050D01*
X005616Y035973D01*
X005570Y035861D01*
X005570Y035739D01*
X005616Y035627D01*
X005702Y035541D01*
X005814Y035495D01*
X005935Y035495D01*
X006047Y035541D01*
X006133Y035627D01*
X006180Y035739D01*
X006180Y035861D01*
X006133Y035973D01*
X006056Y036050D01*
X006133Y036127D01*
X006180Y036239D01*
X006180Y036361D01*
X006133Y036473D01*
X006047Y036559D01*
X005935Y036605D01*
X005800Y036599D02*
X004425Y036599D01*
X004425Y036501D02*
X005644Y036501D01*
X005587Y036402D02*
X004425Y036402D01*
X004425Y036304D02*
X005570Y036304D01*
X005584Y036205D02*
X004425Y036205D01*
X004425Y036107D02*
X005637Y036107D01*
X005651Y036008D02*
X004698Y036008D01*
X004759Y035910D02*
X005590Y035910D01*
X005570Y035811D02*
X004780Y035811D01*
X004769Y035713D02*
X005581Y035713D01*
X005629Y035614D02*
X004720Y035614D01*
X004585Y035516D02*
X005764Y035516D01*
X005985Y035516D02*
X009514Y035516D01*
X009379Y035614D02*
X006120Y035614D01*
X006169Y035713D02*
X009331Y035713D01*
X009320Y035811D02*
X006180Y035811D01*
X006159Y035910D02*
X009340Y035910D01*
X009401Y036008D02*
X006098Y036008D01*
X006113Y036107D02*
X009387Y036107D01*
X009334Y036205D02*
X006165Y036205D01*
X006180Y036304D02*
X009320Y036304D01*
X009337Y036402D02*
X006162Y036402D01*
X006105Y036501D02*
X009394Y036501D01*
X009855Y036501D02*
X013194Y036501D01*
X013107Y036402D02*
X009912Y036402D01*
X009930Y036304D02*
X013070Y036304D01*
X013070Y036205D02*
X009915Y036205D01*
X009863Y036107D02*
X013104Y036107D01*
X013185Y036008D02*
X009848Y036008D01*
X009919Y035713D02*
X013070Y035713D01*
X013101Y035614D02*
X009870Y035614D01*
X009735Y035516D02*
X013178Y035516D01*
X013645Y036107D02*
X019437Y036107D01*
X019384Y036205D02*
X013680Y036205D01*
X013680Y036304D02*
X019370Y036304D01*
X019387Y036402D02*
X013642Y036402D01*
X013555Y036501D02*
X019444Y036501D01*
X019905Y036501D02*
X026956Y036501D01*
X028812Y035023D02*
X029237Y035023D01*
X029202Y035009D02*
X029116Y034923D01*
X029070Y034811D01*
X029070Y034689D01*
X029116Y034577D01*
X029202Y034491D01*
X029314Y034445D01*
X029435Y034445D01*
X029547Y034491D01*
X029633Y034577D01*
X029680Y034689D01*
X029680Y034811D01*
X029633Y034923D01*
X029547Y035009D01*
X029435Y035055D01*
X029314Y035055D01*
X029202Y035009D01*
X029118Y034925D02*
X028931Y034925D01*
X028973Y034826D02*
X029076Y034826D01*
X029070Y034728D02*
X028980Y034728D01*
X028955Y034629D02*
X029095Y034629D01*
X029163Y034531D02*
X028887Y034531D01*
X029587Y034531D02*
X029813Y034531D01*
X029852Y034491D02*
X029964Y034445D01*
X030085Y034445D01*
X030197Y034491D01*
X030283Y034577D01*
X030330Y034689D01*
X030330Y034811D01*
X030283Y034923D01*
X030197Y035009D01*
X030085Y035055D01*
X029964Y035055D01*
X029852Y035009D01*
X029766Y034923D01*
X029720Y034811D01*
X029720Y034689D01*
X029766Y034577D01*
X029852Y034491D01*
X029745Y034629D02*
X029655Y034629D01*
X029680Y034728D02*
X029720Y034728D01*
X029726Y034826D02*
X029673Y034826D01*
X029631Y034925D02*
X029768Y034925D01*
X029887Y035023D02*
X029512Y035023D01*
X030162Y035023D02*
X032287Y035023D01*
X032252Y035009D02*
X032166Y034923D01*
X032120Y034811D01*
X032120Y034689D01*
X032166Y034577D01*
X032252Y034491D01*
X032364Y034445D01*
X032485Y034445D01*
X032597Y034491D01*
X032683Y034577D01*
X032730Y034689D01*
X032730Y034811D01*
X032683Y034923D01*
X032597Y035009D01*
X032485Y035055D01*
X032364Y035055D01*
X032252Y035009D01*
X032168Y034925D02*
X030281Y034925D01*
X030323Y034826D02*
X032126Y034826D01*
X032120Y034728D02*
X030330Y034728D01*
X030305Y034629D02*
X032145Y034629D01*
X032213Y034531D02*
X030237Y034531D01*
X032562Y035023D02*
X032987Y035023D01*
X032952Y035009D02*
X032866Y034923D01*
X032820Y034811D01*
X032820Y034689D01*
X032866Y034577D01*
X032952Y034491D01*
X033064Y034445D01*
X033185Y034445D01*
X033297Y034491D01*
X033383Y034577D01*
X033430Y034689D01*
X033430Y034811D01*
X033383Y034923D01*
X033297Y035009D01*
X033185Y035055D01*
X033064Y035055D01*
X032952Y035009D01*
X032868Y034925D02*
X032681Y034925D01*
X032723Y034826D02*
X032826Y034826D01*
X032820Y034728D02*
X032730Y034728D01*
X032705Y034629D02*
X032845Y034629D01*
X032913Y034531D02*
X032637Y034531D01*
X033337Y034531D02*
X033563Y034531D01*
X033602Y034491D02*
X033714Y034445D01*
X033835Y034445D01*
X033947Y034491D01*
X034033Y034577D01*
X034080Y034689D01*
X034080Y034811D01*
X034033Y034923D01*
X033947Y035009D01*
X033835Y035055D01*
X033714Y035055D01*
X033602Y035009D01*
X033516Y034923D01*
X033470Y034811D01*
X033470Y034689D01*
X033516Y034577D01*
X033602Y034491D01*
X033495Y034629D02*
X033405Y034629D01*
X033430Y034728D02*
X033470Y034728D01*
X033476Y034826D02*
X033423Y034826D01*
X033381Y034925D02*
X033518Y034925D01*
X033637Y035023D02*
X033262Y035023D01*
X033912Y035023D02*
X036137Y035023D01*
X036102Y035009D02*
X036016Y034923D01*
X035970Y034811D01*
X035970Y034689D01*
X036016Y034577D01*
X036102Y034491D01*
X036214Y034445D01*
X036335Y034445D01*
X036447Y034491D01*
X036533Y034577D01*
X036580Y034689D01*
X036580Y034811D01*
X036533Y034923D01*
X036447Y035009D01*
X036335Y035055D01*
X036214Y035055D01*
X036102Y035009D01*
X036018Y034925D02*
X034031Y034925D01*
X034073Y034826D02*
X035976Y034826D01*
X035970Y034728D02*
X034080Y034728D01*
X034055Y034629D02*
X035995Y034629D01*
X036063Y034531D02*
X033987Y034531D01*
X036412Y035023D02*
X036837Y035023D01*
X036802Y035009D02*
X036716Y034923D01*
X036670Y034811D01*
X036670Y034689D01*
X036716Y034577D01*
X036802Y034491D01*
X036914Y034445D01*
X037035Y034445D01*
X037147Y034491D01*
X037233Y034577D01*
X037275Y034677D01*
X037316Y034577D01*
X037402Y034491D01*
X037514Y034445D01*
X037635Y034445D01*
X037747Y034491D01*
X037833Y034577D01*
X037880Y034689D01*
X037880Y034811D01*
X037833Y034923D01*
X037747Y035009D01*
X037635Y035055D01*
X037514Y035055D01*
X037402Y035009D01*
X037316Y034923D01*
X037275Y034823D01*
X037233Y034923D01*
X037147Y035009D01*
X037035Y035055D01*
X036914Y035055D01*
X036802Y035009D01*
X036718Y034925D02*
X036531Y034925D01*
X036573Y034826D02*
X036676Y034826D01*
X036670Y034728D02*
X036580Y034728D01*
X036555Y034629D02*
X036695Y034629D01*
X036763Y034531D02*
X036487Y034531D01*
X037187Y034531D02*
X037363Y034531D01*
X037295Y034629D02*
X037255Y034629D01*
X037273Y034826D02*
X037276Y034826D01*
X037318Y034925D02*
X037231Y034925D01*
X037112Y035023D02*
X037437Y035023D01*
X037712Y035023D02*
X039937Y035023D01*
X039902Y035009D02*
X039816Y034923D01*
X039770Y034811D01*
X039770Y034689D01*
X039816Y034577D01*
X039902Y034491D01*
X040014Y034445D01*
X040135Y034445D01*
X040247Y034491D01*
X040333Y034577D01*
X040380Y034689D01*
X040380Y034811D01*
X040333Y034923D01*
X040247Y035009D01*
X040135Y035055D01*
X040014Y035055D01*
X039902Y035009D01*
X039818Y034925D02*
X037831Y034925D01*
X037873Y034826D02*
X039776Y034826D01*
X039770Y034728D02*
X037880Y034728D01*
X037855Y034629D02*
X039795Y034629D01*
X039863Y034531D02*
X037787Y034531D01*
X040212Y035023D02*
X040587Y035023D01*
X040552Y035009D02*
X040664Y035055D01*
X040785Y035055D01*
X040897Y035009D01*
X040983Y034923D01*
X041030Y034811D01*
X041030Y034689D01*
X040983Y034577D01*
X040897Y034491D01*
X040785Y034445D01*
X040664Y034445D01*
X040552Y034491D01*
X040466Y034577D01*
X040420Y034689D01*
X040420Y034811D01*
X040466Y034923D01*
X040552Y035009D01*
X040468Y034925D02*
X040331Y034925D01*
X040373Y034826D02*
X040426Y034826D01*
X040420Y034728D02*
X040380Y034728D01*
X040355Y034629D02*
X040445Y034629D01*
X040513Y034531D02*
X040287Y034531D01*
X040937Y034531D02*
X041163Y034531D01*
X041202Y034491D02*
X041314Y034445D01*
X041435Y034445D01*
X041547Y034491D01*
X041633Y034577D01*
X041680Y034689D01*
X041680Y034811D01*
X041633Y034923D01*
X041547Y035009D01*
X041435Y035055D01*
X041314Y035055D01*
X041202Y035009D01*
X041116Y034923D01*
X041070Y034811D01*
X041070Y034689D01*
X041116Y034577D01*
X041202Y034491D01*
X041095Y034629D02*
X041005Y034629D01*
X041030Y034728D02*
X041070Y034728D01*
X041076Y034826D02*
X041023Y034826D01*
X040981Y034925D02*
X041118Y034925D01*
X041237Y035023D02*
X040862Y035023D01*
X041512Y035023D02*
X043687Y035023D01*
X043652Y035009D02*
X043566Y034923D01*
X043520Y034811D01*
X043520Y034689D01*
X043566Y034577D01*
X043652Y034491D01*
X043764Y034445D01*
X043885Y034445D01*
X043997Y034491D01*
X044083Y034577D01*
X044130Y034689D01*
X044130Y034811D01*
X044083Y034923D01*
X043997Y035009D01*
X043885Y035055D01*
X043764Y035055D01*
X043652Y035009D01*
X043568Y034925D02*
X041631Y034925D01*
X041673Y034826D02*
X043526Y034826D01*
X043520Y034728D02*
X041680Y034728D01*
X041655Y034629D02*
X043545Y034629D01*
X043613Y034531D02*
X041587Y034531D01*
X043962Y035023D02*
X044337Y035023D01*
X044302Y035009D02*
X044216Y034923D01*
X044170Y034811D01*
X044170Y034689D01*
X044216Y034577D01*
X044302Y034491D01*
X044414Y034445D01*
X044535Y034445D01*
X044647Y034491D01*
X044733Y034577D01*
X044780Y034689D01*
X044780Y034811D01*
X044733Y034923D01*
X044647Y035009D01*
X044535Y035055D01*
X044414Y035055D01*
X044302Y035009D01*
X044218Y034925D02*
X044081Y034925D01*
X044123Y034826D02*
X044176Y034826D01*
X044170Y034728D02*
X044130Y034728D01*
X044105Y034629D02*
X044195Y034629D01*
X044263Y034531D02*
X044037Y034531D01*
X044687Y034531D02*
X044913Y034531D01*
X044952Y034491D02*
X045064Y034445D01*
X045185Y034445D01*
X045297Y034491D01*
X045383Y034577D01*
X045430Y034689D01*
X045430Y034811D01*
X045383Y034923D01*
X045297Y035009D01*
X045185Y035055D01*
X045064Y035055D01*
X044952Y035009D01*
X044866Y034923D01*
X044820Y034811D01*
X044820Y034689D01*
X044866Y034577D01*
X044952Y034491D01*
X044845Y034629D02*
X044755Y034629D01*
X044780Y034728D02*
X044820Y034728D01*
X044826Y034826D02*
X044773Y034826D01*
X044731Y034925D02*
X044868Y034925D01*
X044987Y035023D02*
X044612Y035023D01*
X045262Y035023D02*
X045625Y035023D01*
X045625Y034925D02*
X045381Y034925D01*
X045423Y034826D02*
X045625Y034826D01*
X045625Y034728D02*
X045430Y034728D01*
X045405Y034629D02*
X045625Y034629D01*
X045625Y034531D02*
X045337Y034531D01*
X045625Y034432D02*
X004425Y034432D01*
X004425Y034334D02*
X045625Y034334D01*
X045625Y034235D02*
X004425Y034235D01*
X004425Y034137D02*
X045625Y034137D01*
X045625Y034038D02*
X004425Y034038D01*
X004425Y033940D02*
X045625Y033940D01*
X045625Y033841D02*
X004425Y033841D01*
X004425Y033743D02*
X045625Y033743D01*
X045625Y033644D02*
X019412Y033644D01*
X019385Y033655D02*
X019264Y033655D01*
X019152Y033609D01*
X019066Y033523D01*
X019020Y033411D01*
X019020Y033289D01*
X019066Y033177D01*
X019152Y033091D01*
X019264Y033045D01*
X019385Y033045D01*
X019497Y033091D01*
X019583Y033177D01*
X019630Y033289D01*
X019630Y033411D01*
X019583Y033523D01*
X019497Y033609D01*
X019385Y033655D01*
X019238Y033644D02*
X004425Y033644D01*
X004425Y033546D02*
X019089Y033546D01*
X019035Y033447D02*
X004425Y033447D01*
X004425Y033349D02*
X019020Y033349D01*
X019036Y033250D02*
X004425Y033250D01*
X004425Y033152D02*
X019092Y033152D01*
X019244Y033053D02*
X004425Y033053D01*
X004425Y032955D02*
X045625Y032955D01*
X045625Y033053D02*
X019405Y033053D01*
X019558Y033152D02*
X045625Y033152D01*
X045625Y033250D02*
X019613Y033250D01*
X019630Y033349D02*
X045625Y033349D01*
X045625Y033447D02*
X019615Y033447D01*
X019560Y033546D02*
X045625Y033546D01*
X045625Y032856D02*
X004425Y032856D01*
X004425Y032758D02*
X045625Y032758D01*
X045625Y032659D02*
X004425Y032659D01*
X004425Y032561D02*
X045625Y032561D01*
X045625Y032462D02*
X019189Y032462D01*
X019197Y032459D02*
X019085Y032505D01*
X018964Y032505D01*
X018852Y032459D01*
X018766Y032373D01*
X018720Y032261D01*
X018720Y032139D01*
X018766Y032027D01*
X018852Y031941D01*
X018964Y031895D01*
X019085Y031895D01*
X019197Y031941D01*
X019283Y032027D01*
X019330Y032139D01*
X019330Y032261D01*
X019283Y032373D01*
X019197Y032459D01*
X019287Y032364D02*
X045625Y032364D01*
X045625Y032265D02*
X019328Y032265D01*
X019330Y032167D02*
X045625Y032167D01*
X045625Y032068D02*
X019300Y032068D01*
X019226Y031970D02*
X045625Y031970D01*
X045625Y031871D02*
X004425Y031871D01*
X004425Y031773D02*
X045625Y031773D01*
X045625Y031674D02*
X004425Y031674D01*
X004425Y031576D02*
X045625Y031576D01*
X045625Y031477D02*
X004425Y031477D01*
X004425Y031379D02*
X007100Y031379D01*
X007052Y031359D02*
X006966Y031273D01*
X006920Y031161D01*
X006920Y031039D01*
X006966Y030927D01*
X007052Y030841D01*
X007164Y030795D01*
X007285Y030795D01*
X007397Y030841D01*
X007483Y030927D01*
X007530Y031039D01*
X007530Y031161D01*
X007483Y031273D01*
X007397Y031359D01*
X007285Y031405D01*
X007164Y031405D01*
X007052Y031359D01*
X006973Y031280D02*
X004425Y031280D01*
X004425Y031182D02*
X006928Y031182D01*
X006920Y031083D02*
X004425Y031083D01*
X004425Y030985D02*
X006942Y030985D01*
X007007Y030886D02*
X004425Y030886D01*
X004425Y030788D02*
X045625Y030788D01*
X045625Y030886D02*
X044442Y030886D01*
X044483Y030927D02*
X044530Y031039D01*
X044530Y031161D01*
X044483Y031273D01*
X044397Y031359D01*
X044285Y031405D01*
X044164Y031405D01*
X044052Y031359D01*
X043966Y031273D01*
X043920Y031161D01*
X043920Y031039D01*
X043966Y030927D01*
X044052Y030841D01*
X044164Y030795D01*
X044285Y030795D01*
X044397Y030841D01*
X044483Y030927D01*
X044507Y030985D02*
X045625Y030985D01*
X045625Y031083D02*
X044530Y031083D01*
X044521Y031182D02*
X045625Y031182D01*
X045625Y031280D02*
X044476Y031280D01*
X044349Y031379D02*
X045625Y031379D01*
X045625Y030689D02*
X020067Y030689D01*
X019682Y030689D02*
X004425Y030689D01*
X004425Y030591D02*
X010125Y030591D01*
X010125Y030492D02*
X004425Y030492D01*
X004425Y030394D02*
X010125Y030394D01*
X010125Y030295D02*
X004425Y030295D01*
X004425Y030197D02*
X010125Y030197D01*
X010125Y030098D02*
X004425Y030098D01*
X004425Y030000D02*
X010125Y030000D01*
X010125Y029901D02*
X004425Y029901D01*
X004425Y029803D02*
X010125Y029803D01*
X010125Y029704D02*
X004425Y029704D01*
X004425Y029606D02*
X010125Y029606D01*
X010125Y029507D02*
X004425Y029507D01*
X004425Y029409D02*
X010125Y029409D01*
X010125Y029310D02*
X004425Y029310D01*
X004425Y029212D02*
X005459Y029212D01*
X005452Y029209D02*
X005366Y029123D01*
X005320Y029011D01*
X005320Y028889D01*
X005366Y028777D01*
X005452Y028691D01*
X005564Y028645D01*
X005685Y028645D01*
X005797Y028691D01*
X005883Y028777D01*
X005930Y028889D01*
X005930Y029011D01*
X005883Y029123D01*
X005797Y029209D01*
X005685Y029255D01*
X005564Y029255D01*
X005452Y029209D01*
X005362Y029113D02*
X004425Y029113D01*
X004425Y029015D02*
X005321Y029015D01*
X005320Y028916D02*
X004425Y028916D01*
X004425Y028818D02*
X005349Y028818D01*
X005424Y028719D02*
X004425Y028719D01*
X004425Y028621D02*
X009014Y028621D01*
X009052Y028659D02*
X008966Y028573D01*
X008920Y028461D01*
X008920Y028339D01*
X008966Y028227D01*
X009052Y028141D01*
X009164Y028095D01*
X009285Y028095D01*
X009397Y028141D01*
X009483Y028227D01*
X009530Y028339D01*
X009530Y028461D01*
X009483Y028573D01*
X009397Y028659D01*
X009285Y028705D01*
X009164Y028705D01*
X009052Y028659D01*
X008945Y028522D02*
X004425Y028522D01*
X004425Y028424D02*
X008920Y028424D01*
X008926Y028325D02*
X004425Y028325D01*
X004425Y028227D02*
X008967Y028227D01*
X009084Y028128D02*
X004425Y028128D01*
X004425Y028030D02*
X010125Y028030D01*
X010125Y028128D02*
X009365Y028128D01*
X009483Y028227D02*
X010125Y028227D01*
X010125Y028325D02*
X009524Y028325D01*
X009530Y028424D02*
X010125Y028424D01*
X010125Y028522D02*
X009504Y028522D01*
X009435Y028621D02*
X010125Y028621D01*
X010125Y028719D02*
X005825Y028719D01*
X005900Y028818D02*
X010125Y028818D01*
X010125Y028916D02*
X005930Y028916D01*
X005928Y029015D02*
X010125Y029015D01*
X010125Y029113D02*
X005887Y029113D01*
X005790Y029212D02*
X010125Y029212D01*
X010125Y027931D02*
X004425Y027931D01*
X004425Y027833D02*
X010125Y027833D01*
X010125Y027734D02*
X004425Y027734D01*
X004425Y027636D02*
X010125Y027636D01*
X010125Y027537D02*
X004425Y027537D01*
X004425Y027439D02*
X010125Y027439D01*
X010125Y027340D02*
X005816Y027340D01*
X005797Y027359D02*
X005685Y027405D01*
X005564Y027405D01*
X005452Y027359D01*
X005366Y027273D01*
X005320Y027161D01*
X005320Y027039D01*
X005366Y026927D01*
X005452Y026841D01*
X005564Y026795D01*
X005685Y026795D01*
X005797Y026841D01*
X005883Y026927D01*
X005930Y027039D01*
X005930Y027161D01*
X005883Y027273D01*
X005797Y027359D01*
X005896Y027242D02*
X010125Y027242D01*
X010125Y027143D02*
X005930Y027143D01*
X005930Y027045D02*
X010125Y027045D01*
X010125Y026946D02*
X005891Y026946D01*
X005803Y026848D02*
X009146Y026848D01*
X009164Y026855D02*
X009052Y026809D01*
X008966Y026723D01*
X008920Y026611D01*
X008920Y026489D01*
X008966Y026377D01*
X009052Y026291D01*
X009164Y026245D01*
X009285Y026245D01*
X009397Y026291D01*
X009483Y026377D01*
X009530Y026489D01*
X009530Y026611D01*
X009483Y026723D01*
X009397Y026809D01*
X009285Y026855D01*
X009164Y026855D01*
X009303Y026848D02*
X010125Y026848D01*
X010125Y026749D02*
X009457Y026749D01*
X009513Y026651D02*
X010125Y026651D01*
X010125Y026552D02*
X009530Y026552D01*
X009515Y026454D02*
X010125Y026454D01*
X010125Y026355D02*
X009461Y026355D01*
X009313Y026257D02*
X010125Y026257D01*
X010125Y026158D02*
X004425Y026158D01*
X004425Y026060D02*
X010125Y026060D01*
X010125Y025961D02*
X009891Y025961D01*
X009897Y025959D02*
X009785Y026005D01*
X009664Y026005D01*
X009552Y025959D01*
X009466Y025873D01*
X009420Y025761D01*
X009420Y025639D01*
X009466Y025527D01*
X009552Y025441D01*
X009664Y025395D01*
X009785Y025395D01*
X009897Y025441D01*
X009983Y025527D01*
X010030Y025639D01*
X010030Y025761D01*
X009983Y025873D01*
X009897Y025959D01*
X009987Y025863D02*
X010125Y025863D01*
X010125Y025764D02*
X010028Y025764D01*
X010030Y025666D02*
X010125Y025666D01*
X010125Y025567D02*
X010000Y025567D01*
X009924Y025469D02*
X010125Y025469D01*
X010125Y025370D02*
X004425Y025370D01*
X004425Y025272D02*
X010125Y025272D01*
X010125Y025173D02*
X004425Y025173D01*
X004425Y025075D02*
X005540Y025075D01*
X005502Y025059D02*
X005416Y024973D01*
X005370Y024861D01*
X005370Y024739D01*
X005407Y024649D01*
X005347Y024709D01*
X005235Y024755D01*
X005114Y024755D01*
X005002Y024709D01*
X004916Y024623D01*
X004870Y024511D01*
X004870Y024389D01*
X004916Y024277D01*
X004993Y024200D01*
X004916Y024123D01*
X004870Y024011D01*
X004870Y023889D01*
X004916Y023777D01*
X004993Y023700D01*
X004916Y023623D01*
X004870Y023511D01*
X004870Y023389D01*
X004916Y023277D01*
X005002Y023191D01*
X005114Y023145D01*
X005235Y023145D01*
X005347Y023191D01*
X005433Y023277D01*
X005480Y023389D01*
X005480Y023511D01*
X005433Y023623D01*
X005356Y023700D01*
X005433Y023777D01*
X005480Y023889D01*
X005480Y024011D01*
X005433Y024123D01*
X005356Y024200D01*
X005433Y024277D01*
X005480Y024389D01*
X005480Y024511D01*
X005442Y024601D01*
X005502Y024541D01*
X005614Y024495D01*
X005735Y024495D01*
X005847Y024541D01*
X005900Y024594D01*
X005952Y024541D01*
X006064Y024495D01*
X006185Y024495D01*
X006276Y024532D01*
X006266Y024523D01*
X006220Y024411D01*
X006220Y024289D01*
X006266Y024177D01*
X006352Y024091D01*
X006464Y024045D01*
X006585Y024045D01*
X006697Y024091D01*
X006783Y024177D01*
X006830Y024289D01*
X006830Y024411D01*
X006783Y024523D01*
X006697Y024609D01*
X006585Y024655D01*
X006464Y024655D01*
X006373Y024618D01*
X006383Y024627D01*
X006430Y024739D01*
X006430Y024861D01*
X006383Y024973D01*
X006297Y025059D01*
X006185Y025105D01*
X006064Y025105D01*
X005952Y025059D01*
X005900Y025006D01*
X005847Y025059D01*
X005735Y025105D01*
X005614Y025105D01*
X005502Y025059D01*
X005419Y024976D02*
X004425Y024976D01*
X004425Y024878D02*
X005377Y024878D01*
X005370Y024779D02*
X004425Y024779D01*
X004425Y024681D02*
X004974Y024681D01*
X004899Y024582D02*
X004425Y024582D01*
X004425Y024484D02*
X004870Y024484D01*
X004871Y024385D02*
X004425Y024385D01*
X004425Y024287D02*
X004912Y024287D01*
X004981Y024188D02*
X004425Y024188D01*
X004425Y024090D02*
X004902Y024090D01*
X004870Y023991D02*
X004425Y023991D01*
X004425Y023893D02*
X004870Y023893D01*
X004909Y023794D02*
X004425Y023794D01*
X004425Y023696D02*
X004989Y023696D01*
X004905Y023597D02*
X004425Y023597D01*
X004425Y023499D02*
X004870Y023499D01*
X004870Y023400D02*
X004425Y023400D01*
X004425Y023302D02*
X004906Y023302D01*
X004990Y023203D02*
X004425Y023203D01*
X004425Y023105D02*
X005370Y023105D01*
X005370Y023111D02*
X005370Y022989D01*
X005416Y022877D01*
X005502Y022791D01*
X005614Y022745D01*
X005735Y022745D01*
X005847Y022791D01*
X005900Y022844D01*
X005952Y022791D01*
X006064Y022745D01*
X006185Y022745D01*
X006297Y022791D01*
X006383Y022877D01*
X006430Y022989D01*
X006430Y023111D01*
X006405Y023169D01*
X006464Y023145D01*
X006585Y023145D01*
X006697Y023191D01*
X006783Y023277D01*
X006830Y023389D01*
X006830Y023511D01*
X006783Y023623D01*
X006697Y023709D01*
X006585Y023755D01*
X006464Y023755D01*
X006352Y023709D01*
X006266Y023623D01*
X006220Y023511D01*
X006220Y023389D01*
X006244Y023331D01*
X006185Y023355D01*
X006064Y023355D01*
X005952Y023309D01*
X005900Y023256D01*
X005847Y023309D01*
X005735Y023355D01*
X005614Y023355D01*
X005502Y023309D01*
X005416Y023223D01*
X005370Y023111D01*
X005359Y023203D02*
X005408Y023203D01*
X005443Y023302D02*
X005495Y023302D01*
X005480Y023400D02*
X006220Y023400D01*
X006220Y023499D02*
X005480Y023499D01*
X005444Y023597D02*
X006255Y023597D01*
X006339Y023696D02*
X005360Y023696D01*
X005440Y023794D02*
X010028Y023794D01*
X010015Y023696D02*
X006710Y023696D01*
X006794Y023597D02*
X010032Y023597D01*
X010088Y023499D02*
X006830Y023499D01*
X006830Y023400D02*
X010125Y023400D01*
X010125Y023302D02*
X006793Y023302D01*
X006709Y023203D02*
X010125Y023203D01*
X010125Y023105D02*
X006430Y023105D01*
X006430Y023006D02*
X010125Y023006D01*
X010125Y022908D02*
X006396Y022908D01*
X006315Y022809D02*
X010125Y022809D01*
X010125Y022711D02*
X004425Y022711D01*
X004425Y022809D02*
X005484Y022809D01*
X005403Y022908D02*
X004425Y022908D01*
X004425Y023006D02*
X005370Y023006D01*
X005865Y022809D02*
X005934Y022809D01*
X005945Y023302D02*
X005854Y023302D01*
X005480Y023893D02*
X010079Y023893D01*
X010125Y023991D02*
X005480Y023991D01*
X005447Y024090D02*
X006356Y024090D01*
X006262Y024188D02*
X005368Y024188D01*
X005437Y024287D02*
X006221Y024287D01*
X006220Y024385D02*
X005478Y024385D01*
X005480Y024484D02*
X006250Y024484D01*
X006405Y024681D02*
X010125Y024681D01*
X010125Y024779D02*
X006430Y024779D01*
X006423Y024878D02*
X010125Y024878D01*
X010125Y024976D02*
X006380Y024976D01*
X006259Y025075D02*
X010125Y025075D01*
X010125Y024582D02*
X006724Y024582D01*
X006799Y024484D02*
X010125Y024484D01*
X010125Y024385D02*
X006830Y024385D01*
X006828Y024287D02*
X010125Y024287D01*
X010125Y024188D02*
X006788Y024188D01*
X006693Y024090D02*
X010125Y024090D01*
X010125Y022612D02*
X004425Y022612D01*
X004425Y022514D02*
X010125Y022514D01*
X010125Y022415D02*
X004425Y022415D01*
X004425Y022317D02*
X010125Y022317D01*
X010125Y022218D02*
X004425Y022218D01*
X004425Y022120D02*
X010125Y022120D01*
X010125Y022021D02*
X004425Y022021D01*
X004425Y021923D02*
X010125Y021923D01*
X010125Y021824D02*
X004425Y021824D01*
X004425Y021726D02*
X010125Y021726D01*
X010125Y021627D02*
X004425Y021627D01*
X004425Y021529D02*
X010125Y021529D01*
X010125Y021430D02*
X004425Y021430D01*
X004425Y021332D02*
X010125Y021332D01*
X010125Y021233D02*
X004425Y021233D01*
X004425Y021135D02*
X010125Y021135D01*
X010125Y021036D02*
X004425Y021036D01*
X004425Y020938D02*
X005722Y020938D01*
X005764Y020955D02*
X005652Y020909D01*
X005566Y020823D01*
X005520Y020711D01*
X005520Y020589D01*
X005566Y020477D01*
X005652Y020391D01*
X005764Y020345D01*
X005885Y020345D01*
X005997Y020391D01*
X006083Y020477D01*
X006130Y020589D01*
X006130Y020711D01*
X006083Y020823D01*
X005997Y020909D01*
X005885Y020955D01*
X005764Y020955D01*
X005927Y020938D02*
X010125Y020938D01*
X010125Y020839D02*
X006067Y020839D01*
X006117Y020741D02*
X010125Y020741D01*
X010125Y020642D02*
X006130Y020642D01*
X006111Y020544D02*
X010125Y020544D01*
X010125Y020445D02*
X006051Y020445D01*
X005889Y020347D02*
X010125Y020347D01*
X010125Y020248D02*
X004425Y020248D01*
X004425Y020150D02*
X010125Y020150D01*
X010125Y020051D02*
X004425Y020051D01*
X004425Y019953D02*
X010125Y019953D01*
X010125Y019854D02*
X004425Y019854D01*
X004425Y019756D02*
X010125Y019756D01*
X010125Y019657D02*
X004425Y019657D01*
X004425Y019559D02*
X010125Y019559D01*
X010125Y019460D02*
X004425Y019460D01*
X004425Y019362D02*
X010125Y019362D01*
X010125Y019263D02*
X004425Y019263D01*
X004425Y019165D02*
X010125Y019165D01*
X010125Y019066D02*
X004425Y019066D01*
X004425Y018968D02*
X010125Y018968D01*
X010125Y018869D02*
X004425Y018869D01*
X004425Y018771D02*
X010125Y018771D01*
X010125Y018672D02*
X004425Y018672D01*
X004425Y018574D02*
X010125Y018574D01*
X010125Y018475D02*
X009231Y018475D01*
X009197Y018509D02*
X009085Y018555D01*
X008964Y018555D01*
X008852Y018509D01*
X008766Y018423D01*
X008720Y018311D01*
X008720Y018189D01*
X008766Y018077D01*
X008852Y017991D01*
X008964Y017945D01*
X009085Y017945D01*
X009197Y017991D01*
X009283Y018077D01*
X009330Y018189D01*
X009330Y018311D01*
X009283Y018423D01*
X009197Y018509D01*
X009302Y018377D02*
X010125Y018377D01*
X010125Y018278D02*
X009330Y018278D01*
X009326Y018180D02*
X010125Y018180D01*
X010125Y018081D02*
X009285Y018081D01*
X009176Y017983D02*
X010125Y017983D01*
X010125Y017884D02*
X004425Y017884D01*
X004425Y017786D02*
X008267Y017786D01*
X008314Y017805D02*
X008202Y017759D01*
X008116Y017673D01*
X008070Y017561D01*
X008070Y017439D01*
X008116Y017327D01*
X008202Y017241D01*
X008314Y017195D01*
X008435Y017195D01*
X008547Y017241D01*
X008633Y017327D01*
X008680Y017439D01*
X008680Y017561D01*
X008633Y017673D01*
X008547Y017759D01*
X008435Y017805D01*
X008314Y017805D01*
X008482Y017786D02*
X010125Y017786D01*
X010125Y017687D02*
X008619Y017687D01*
X008668Y017589D02*
X010125Y017589D01*
X010125Y017490D02*
X008680Y017490D01*
X008660Y017392D02*
X010125Y017392D01*
X010125Y017293D02*
X008599Y017293D01*
X008150Y017293D02*
X004425Y017293D01*
X004425Y017195D02*
X010125Y017195D01*
X010125Y017096D02*
X004425Y017096D01*
X004425Y016998D02*
X010125Y016998D01*
X010125Y016899D02*
X004425Y016899D01*
X004425Y016801D02*
X009906Y016801D01*
X009800Y016702D02*
X004425Y016702D01*
X004425Y016604D02*
X009747Y016604D01*
X009717Y016505D02*
X004425Y016505D01*
X004425Y016407D02*
X009717Y016407D01*
X009742Y016308D02*
X004425Y016308D01*
X004425Y016210D02*
X009789Y016210D01*
X009887Y016111D02*
X004425Y016111D01*
X004425Y016013D02*
X009905Y016013D01*
X009800Y015914D02*
X004425Y015914D01*
X004425Y015816D02*
X009747Y015816D01*
X009717Y015717D02*
X004425Y015717D01*
X004425Y015619D02*
X009717Y015619D01*
X009743Y015520D02*
X004425Y015520D01*
X004425Y015422D02*
X009789Y015422D01*
X009888Y015323D02*
X004425Y015323D01*
X004425Y015225D02*
X007834Y015225D01*
X007544Y015126D02*
X004425Y015126D01*
X004425Y015028D02*
X005598Y015028D01*
X005552Y015009D02*
X005466Y014923D01*
X005420Y014811D01*
X005420Y014689D01*
X005466Y014577D01*
X005552Y014491D01*
X005664Y014445D01*
X005785Y014445D01*
X005897Y014491D01*
X005983Y014577D01*
X006030Y014689D01*
X006030Y014811D01*
X005983Y014923D01*
X005897Y015009D01*
X005785Y015055D01*
X005664Y015055D01*
X005552Y015009D01*
X005472Y014929D02*
X004425Y014929D01*
X004425Y014831D02*
X005428Y014831D01*
X005420Y014732D02*
X004425Y014732D01*
X004425Y014634D02*
X005443Y014634D01*
X005508Y014535D02*
X004425Y014535D01*
X004425Y014437D02*
X007822Y014437D01*
X007724Y014535D02*
X005941Y014535D01*
X006006Y014634D02*
X007460Y014634D01*
X007393Y014732D02*
X006030Y014732D01*
X006021Y014831D02*
X007370Y014831D01*
X007377Y014929D02*
X005977Y014929D01*
X005852Y015028D02*
X007421Y015028D01*
X008416Y015225D02*
X009903Y015225D01*
X009799Y015126D02*
X008564Y015126D01*
X008634Y015028D02*
X009747Y015028D01*
X009717Y014929D02*
X008675Y014929D01*
X008675Y014770D02*
X008659Y014732D01*
X008757Y014634D02*
X009790Y014634D01*
X009889Y014535D02*
X008855Y014535D01*
X008954Y014437D02*
X009902Y014437D01*
X009799Y014338D02*
X009052Y014338D01*
X009151Y014240D02*
X009746Y014240D01*
X009717Y014141D02*
X009249Y014141D01*
X009348Y014043D02*
X009717Y014043D01*
X009743Y013944D02*
X009446Y013944D01*
X009545Y013846D02*
X009791Y013846D01*
X009889Y013747D02*
X009643Y013747D01*
X009742Y013649D02*
X010125Y013649D01*
X010125Y013550D02*
X009840Y013550D01*
X009939Y013452D02*
X010125Y013452D01*
X010125Y013353D02*
X010037Y013353D01*
X009497Y012762D02*
X004425Y012762D01*
X004425Y012664D02*
X009595Y012664D01*
X009694Y012565D02*
X004425Y012565D01*
X004425Y012467D02*
X009792Y012467D01*
X009891Y012368D02*
X004425Y012368D01*
X004425Y012270D02*
X010048Y012270D01*
X010125Y012171D02*
X004425Y012171D01*
X004425Y012073D02*
X010125Y012073D01*
X010125Y011974D02*
X004425Y011974D01*
X004425Y011876D02*
X010125Y011876D01*
X010125Y011777D02*
X004425Y011777D01*
X004425Y011679D02*
X010125Y011679D01*
X010125Y011580D02*
X004425Y011580D01*
X004425Y011482D02*
X010125Y011482D01*
X010125Y011383D02*
X004425Y011383D01*
X004425Y011285D02*
X006578Y011285D01*
X006602Y011309D02*
X006516Y011223D01*
X006470Y011111D01*
X006470Y010989D01*
X004425Y010989D01*
X004425Y010891D02*
X006511Y010891D01*
X006516Y010877D02*
X006602Y010791D01*
X006714Y010745D01*
X006835Y010745D01*
X006947Y010791D01*
X007033Y010877D01*
X007080Y010989D01*
X007080Y011111D01*
X007033Y011223D01*
X006947Y011309D01*
X006835Y011355D01*
X006714Y011355D01*
X006602Y011309D01*
X006501Y011186D02*
X004425Y011186D01*
X004425Y011088D02*
X006470Y011088D01*
X006470Y010989D02*
X006516Y010877D01*
X006601Y010792D02*
X004425Y010792D01*
X004425Y010694D02*
X010125Y010694D01*
X010125Y010792D02*
X006948Y010792D01*
X007039Y010891D02*
X010125Y010891D01*
X010125Y010989D02*
X007079Y010989D01*
X007080Y011088D02*
X010125Y011088D01*
X010125Y011186D02*
X007048Y011186D01*
X006971Y011285D02*
X010125Y011285D01*
X010125Y010595D02*
X004425Y010595D01*
X004425Y010497D02*
X030105Y010497D01*
X030070Y010398D02*
X029808Y010398D01*
X029893Y010300D02*
X030070Y010300D01*
X030106Y010201D02*
X029930Y010201D01*
X029930Y010103D02*
X030191Y010103D01*
X029894Y010004D02*
X045725Y010004D01*
X045725Y009906D02*
X029811Y009906D01*
X029356Y010300D02*
X004425Y010300D01*
X004425Y010398D02*
X029441Y010398D01*
X030558Y010103D02*
X045725Y010103D01*
X045725Y010201D02*
X030643Y010201D01*
X030680Y010300D02*
X045725Y010300D01*
X045725Y010398D02*
X030680Y010398D01*
X030644Y010497D02*
X045725Y010497D01*
X041125Y016050D02*
X041125Y022600D01*
X040375Y021850D02*
X040375Y015800D01*
X040725Y017650D02*
X040725Y024450D01*
X042375Y024850D02*
X042375Y026750D01*
X040647Y030841D02*
X040535Y030795D01*
X040414Y030795D01*
X040302Y030841D01*
X040216Y030927D01*
X040170Y031039D01*
X040170Y031161D01*
X040216Y031273D01*
X040302Y031359D01*
X040414Y031405D01*
X040535Y031405D01*
X040647Y031359D01*
X040733Y031273D01*
X040780Y031161D01*
X040780Y031039D01*
X040733Y030927D01*
X040647Y030841D01*
X040692Y030886D02*
X044007Y030886D01*
X043942Y030985D02*
X040757Y030985D01*
X040780Y031083D02*
X043920Y031083D01*
X043928Y031182D02*
X040771Y031182D01*
X040726Y031280D02*
X043973Y031280D01*
X044100Y031379D02*
X040599Y031379D01*
X040350Y031379D02*
X036849Y031379D01*
X036976Y031280D02*
X040223Y031280D01*
X040178Y031182D02*
X037021Y031182D01*
X037030Y031083D02*
X040170Y031083D01*
X040192Y030985D02*
X037007Y030985D01*
X036942Y030886D02*
X040257Y030886D01*
X036025Y025650D02*
X035325Y025650D01*
X035175Y025500D01*
X035175Y023700D01*
X034875Y025950D02*
X034325Y026500D01*
X034225Y026500D01*
X034875Y025950D02*
X034875Y018800D01*
X035325Y018350D01*
X035425Y018350D01*
X037025Y020000D02*
X037025Y016250D01*
X036575Y015800D01*
X037025Y020000D02*
X036425Y020600D01*
X036425Y021500D01*
X031925Y016950D02*
X031475Y016500D01*
X031475Y012750D01*
X031925Y012750D02*
X031925Y016300D01*
X030675Y018100D02*
X030375Y018100D01*
X030675Y018100D02*
X031025Y018450D01*
X031025Y027600D01*
X030875Y027750D01*
X030625Y023700D02*
X030625Y019400D01*
X028825Y021350D02*
X028775Y021400D01*
X027775Y021050D02*
X024675Y024150D01*
X024675Y024900D01*
X024275Y025300D01*
X016925Y025300D01*
X016059Y026166D01*
X013375Y026166D01*
X009558Y025961D02*
X004425Y025961D01*
X004425Y025863D02*
X009462Y025863D01*
X009421Y025764D02*
X004425Y025764D01*
X004425Y025666D02*
X009420Y025666D01*
X009450Y025567D02*
X004425Y025567D01*
X004425Y025469D02*
X009525Y025469D01*
X009136Y026257D02*
X004425Y026257D01*
X004425Y026355D02*
X008988Y026355D01*
X008934Y026454D02*
X004425Y026454D01*
X004425Y026552D02*
X008920Y026552D01*
X008936Y026651D02*
X004425Y026651D01*
X004425Y026749D02*
X008992Y026749D01*
X005990Y025075D02*
X005809Y025075D01*
X005888Y024582D02*
X005911Y024582D01*
X005461Y024582D02*
X005450Y024582D01*
X005394Y024681D02*
X005375Y024681D01*
X005446Y026848D02*
X004425Y026848D01*
X004425Y026946D02*
X005358Y026946D01*
X005320Y027045D02*
X004425Y027045D01*
X004425Y027143D02*
X005320Y027143D01*
X005353Y027242D02*
X004425Y027242D01*
X004425Y027340D02*
X005433Y027340D01*
X007442Y030886D02*
X010757Y030886D01*
X010716Y030927D02*
X010802Y030841D01*
X010914Y030795D01*
X011035Y030795D01*
X011147Y030841D01*
X011233Y030927D01*
X011280Y031039D01*
X011280Y031161D01*
X011233Y031273D01*
X011147Y031359D01*
X011035Y031405D01*
X010914Y031405D01*
X010802Y031359D01*
X010716Y031273D01*
X010670Y031161D01*
X010670Y031039D01*
X010716Y030927D01*
X010692Y030985D02*
X007507Y030985D01*
X007530Y031083D02*
X010670Y031083D01*
X010678Y031182D02*
X007521Y031182D01*
X007476Y031280D02*
X010723Y031280D01*
X010850Y031379D02*
X007349Y031379D01*
X004425Y031970D02*
X018824Y031970D01*
X018749Y032068D02*
X004425Y032068D01*
X004425Y032167D02*
X018720Y032167D01*
X018721Y032265D02*
X004425Y032265D01*
X004425Y032364D02*
X018762Y032364D01*
X018860Y032462D02*
X004425Y032462D01*
X004425Y034531D02*
X006563Y034531D01*
X006602Y034491D02*
X006714Y034445D01*
X006835Y034445D01*
X006947Y034491D01*
X007033Y034577D01*
X007080Y034689D01*
X007080Y034811D01*
X007033Y034923D01*
X006947Y035009D01*
X006835Y035055D01*
X006714Y035055D01*
X006602Y035009D01*
X006516Y034923D01*
X006470Y034811D01*
X006470Y034689D01*
X006516Y034577D01*
X006602Y034491D01*
X006495Y034629D02*
X004425Y034629D01*
X004425Y034728D02*
X006470Y034728D01*
X006476Y034826D02*
X004425Y034826D01*
X004425Y034925D02*
X006518Y034925D01*
X006637Y035023D02*
X004425Y035023D01*
X004425Y037486D02*
X045625Y037486D01*
X045625Y037584D02*
X020440Y037584D01*
X020397Y037541D02*
X020483Y037627D01*
X020530Y037739D01*
X020530Y037861D01*
X020483Y037973D01*
X020397Y038059D01*
X020285Y038105D01*
X020164Y038105D01*
X020052Y038059D01*
X019966Y037973D01*
X019920Y037861D01*
X019920Y037739D01*
X019966Y037627D01*
X020052Y037541D01*
X020164Y037495D01*
X020285Y037495D01*
X020397Y037541D01*
X020506Y037683D02*
X045625Y037683D01*
X045625Y037781D02*
X020530Y037781D01*
X020522Y037880D02*
X045625Y037880D01*
X045625Y037978D02*
X020478Y037978D01*
X020354Y038077D02*
X045625Y038077D01*
X045625Y038175D02*
X019831Y038175D01*
X019833Y038173D02*
X019747Y038259D01*
X019635Y038305D01*
X019514Y038305D01*
X019402Y038259D01*
X019316Y038173D01*
X019270Y038061D01*
X019270Y037939D01*
X019316Y037827D01*
X019402Y037741D01*
X019514Y037695D01*
X019635Y037695D01*
X019747Y037741D01*
X019833Y037827D01*
X019880Y037939D01*
X019880Y038061D01*
X019833Y038173D01*
X019873Y038077D02*
X020095Y038077D01*
X019971Y037978D02*
X019880Y037978D01*
X019855Y037880D02*
X019927Y037880D01*
X019920Y037781D02*
X019787Y037781D01*
X019943Y037683D02*
X004425Y037683D01*
X004425Y037781D02*
X019362Y037781D01*
X019294Y037880D02*
X004425Y037880D01*
X004425Y037978D02*
X019270Y037978D01*
X019276Y038077D02*
X004425Y038077D01*
X004425Y038175D02*
X019318Y038175D01*
X019438Y038274D02*
X004425Y038274D01*
X004425Y038372D02*
X045625Y038372D01*
X045625Y038274D02*
X019711Y038274D01*
X020009Y037584D02*
X004425Y037584D01*
X004425Y038471D02*
X045625Y038471D01*
X045625Y038569D02*
X004425Y038569D01*
X004425Y038668D02*
X045625Y038668D01*
X045625Y038766D02*
X004425Y038766D01*
X004425Y038865D02*
X045625Y038865D01*
X045625Y038963D02*
X024379Y038963D01*
X024518Y039062D02*
X045625Y039062D01*
X045625Y039160D02*
X024567Y039160D01*
X024580Y039259D02*
X045625Y039259D01*
X024170Y038963D02*
X017479Y038963D01*
X017618Y039062D02*
X024032Y039062D01*
X023982Y039160D02*
X017667Y039160D01*
X017680Y039259D02*
X023970Y039259D01*
X021170Y035713D02*
X019443Y035713D01*
X019507Y035614D02*
X021180Y035614D01*
X021228Y035516D02*
X019530Y035516D01*
X019520Y035417D02*
X021361Y035417D01*
X017270Y038963D02*
X004425Y038963D01*
X004425Y039062D02*
X017132Y039062D01*
X017082Y039160D02*
X004425Y039160D01*
X004425Y039259D02*
X017070Y039259D01*
X015437Y035023D02*
X015112Y035023D01*
X015231Y034925D02*
X015318Y034925D01*
X015276Y034826D02*
X015273Y034826D01*
X015255Y034629D02*
X015295Y034629D01*
X015363Y034531D02*
X015187Y034531D01*
X014763Y034531D02*
X014487Y034531D01*
X014447Y034491D02*
X014533Y034577D01*
X014580Y034689D01*
X014580Y034811D01*
X014533Y034923D01*
X014447Y035009D01*
X014335Y035055D01*
X014214Y035055D01*
X014102Y035009D01*
X014016Y034923D01*
X013970Y034811D01*
X013970Y034689D01*
X014016Y034577D01*
X014102Y034491D01*
X014214Y034445D01*
X014335Y034445D01*
X014447Y034491D01*
X014555Y034629D02*
X014695Y034629D01*
X014670Y034728D02*
X014580Y034728D01*
X014573Y034826D02*
X014676Y034826D01*
X014718Y034925D02*
X014531Y034925D01*
X014412Y035023D02*
X014837Y035023D01*
X014137Y035023D02*
X012012Y035023D01*
X012047Y035009D02*
X011935Y035055D01*
X011814Y035055D01*
X011702Y035009D01*
X011616Y034923D01*
X011570Y034811D01*
X011570Y034689D01*
X011616Y034577D01*
X011702Y034491D01*
X011814Y034445D01*
X011935Y034445D01*
X012047Y034491D01*
X012133Y034577D01*
X012180Y034689D01*
X012180Y034811D01*
X012133Y034923D01*
X012047Y035009D01*
X012131Y034925D02*
X014018Y034925D01*
X013976Y034826D02*
X012173Y034826D01*
X012180Y034728D02*
X013970Y034728D01*
X013995Y034629D02*
X012155Y034629D01*
X012087Y034531D02*
X014063Y034531D01*
X011737Y035023D02*
X011362Y035023D01*
X011397Y035009D02*
X011285Y035055D01*
X011164Y035055D01*
X011052Y035009D01*
X010966Y034923D01*
X010920Y034811D01*
X010920Y034689D01*
X010966Y034577D01*
X011052Y034491D01*
X011164Y034445D01*
X011285Y034445D01*
X011397Y034491D01*
X011483Y034577D01*
X011530Y034689D01*
X011530Y034811D01*
X011483Y034923D01*
X011397Y035009D01*
X011481Y034925D02*
X011618Y034925D01*
X011576Y034826D02*
X011523Y034826D01*
X011530Y034728D02*
X011570Y034728D01*
X011595Y034629D02*
X011505Y034629D01*
X011437Y034531D02*
X011663Y034531D01*
X011013Y034531D02*
X010737Y034531D01*
X010697Y034491D02*
X010783Y034577D01*
X010830Y034689D01*
X010830Y034811D01*
X010783Y034923D01*
X010697Y035009D01*
X010585Y035055D01*
X010464Y035055D01*
X010352Y035009D01*
X010266Y034923D01*
X010220Y034811D01*
X010220Y034689D01*
X010266Y034577D01*
X010352Y034491D01*
X010464Y034445D01*
X010585Y034445D01*
X010697Y034491D01*
X010805Y034629D02*
X010945Y034629D01*
X010920Y034728D02*
X010830Y034728D01*
X010823Y034826D02*
X010926Y034826D01*
X010968Y034925D02*
X010781Y034925D01*
X010662Y035023D02*
X011087Y035023D01*
X010387Y035023D02*
X008212Y035023D01*
X008247Y035009D02*
X008135Y035055D01*
X008014Y035055D01*
X007902Y035009D01*
X007816Y034923D01*
X007775Y034823D01*
X007733Y034923D01*
X007647Y035009D01*
X007535Y035055D01*
X007414Y035055D01*
X007302Y035009D01*
X007216Y034923D01*
X007170Y034811D01*
X007170Y034689D01*
X007216Y034577D01*
X007302Y034491D01*
X007414Y034445D01*
X007535Y034445D01*
X007647Y034491D01*
X007733Y034577D01*
X007775Y034677D01*
X007816Y034577D01*
X007902Y034491D01*
X008014Y034445D01*
X008135Y034445D01*
X008247Y034491D01*
X008333Y034577D01*
X008380Y034689D01*
X008380Y034811D01*
X008333Y034923D01*
X008247Y035009D01*
X008331Y034925D02*
X010268Y034925D01*
X010226Y034826D02*
X008373Y034826D01*
X008380Y034728D02*
X010220Y034728D01*
X010245Y034629D02*
X008355Y034629D01*
X008287Y034531D02*
X010313Y034531D01*
X007937Y035023D02*
X007612Y035023D01*
X007731Y034925D02*
X007818Y034925D01*
X007776Y034826D02*
X007773Y034826D01*
X007755Y034629D02*
X007795Y034629D01*
X007863Y034531D02*
X007687Y034531D01*
X007263Y034531D02*
X006987Y034531D01*
X007055Y034629D02*
X007195Y034629D01*
X007170Y034728D02*
X007080Y034728D01*
X007073Y034826D02*
X007176Y034826D01*
X007218Y034925D02*
X007031Y034925D01*
X006912Y035023D02*
X007337Y035023D01*
X011099Y031379D02*
X014600Y031379D01*
X014473Y031280D02*
X011226Y031280D01*
X011271Y031182D02*
X014428Y031182D01*
X014420Y031083D02*
X011280Y031083D01*
X011257Y030985D02*
X014442Y030985D01*
X014507Y030886D02*
X011192Y030886D01*
X017075Y023600D02*
X019000Y023600D01*
X018960Y023503D01*
X018960Y023397D01*
X019000Y023300D01*
X019074Y023225D01*
X019172Y023185D01*
X019277Y023185D01*
X019375Y023225D01*
X019449Y023300D01*
X019490Y023397D01*
X019490Y023503D01*
X019449Y023600D01*
X020500Y023600D01*
X020460Y023503D01*
X020460Y023397D01*
X020500Y023300D01*
X020574Y023225D01*
X020672Y023185D01*
X020777Y023185D01*
X020875Y023225D01*
X020949Y023300D01*
X020990Y023397D01*
X020990Y023503D01*
X020949Y023600D01*
X022350Y023600D01*
X022300Y023550D01*
X022260Y023453D01*
X022260Y023347D01*
X022300Y023250D01*
X022374Y023175D01*
X022472Y023135D01*
X022577Y023135D01*
X022675Y023175D01*
X022749Y023250D01*
X022790Y023347D01*
X022790Y023453D01*
X022749Y023550D01*
X022699Y023600D01*
X023800Y023600D01*
X023760Y023503D01*
X023760Y023397D01*
X023800Y023300D01*
X023874Y023225D01*
X023972Y023185D01*
X024077Y023185D01*
X024175Y023225D01*
X024175Y022925D01*
X024077Y022965D01*
X023972Y022965D01*
X023874Y022925D01*
X023800Y022850D01*
X023760Y022753D01*
X023760Y022647D01*
X023800Y022550D01*
X023874Y022475D01*
X023972Y022435D01*
X024077Y022435D01*
X024175Y022475D01*
X024175Y021375D01*
X024077Y021415D01*
X023972Y021415D01*
X023874Y021375D01*
X023800Y021300D01*
X023760Y021203D01*
X023760Y021097D01*
X023800Y021000D01*
X023874Y020925D01*
X023972Y020885D01*
X024077Y020885D01*
X024175Y020925D01*
X024175Y020375D01*
X024077Y020415D01*
X023972Y020415D01*
X023874Y020375D01*
X023800Y020300D01*
X023760Y020203D01*
X023760Y020097D01*
X023800Y020000D01*
X023874Y019925D01*
X023972Y019885D01*
X024077Y019885D01*
X024175Y019925D01*
X024175Y019675D01*
X024077Y019715D01*
X023972Y019715D01*
X023874Y019675D01*
X023800Y019600D01*
X023760Y019503D01*
X023760Y019397D01*
X023800Y019300D01*
X023874Y019225D01*
X023972Y019185D01*
X024077Y019185D01*
X024175Y019225D01*
X024175Y018675D01*
X024077Y018715D01*
X023972Y018715D01*
X023874Y018675D01*
X023800Y018600D01*
X023760Y018503D01*
X023760Y018397D01*
X023800Y018300D01*
X023874Y018225D01*
X023936Y018200D01*
X023874Y018175D01*
X023800Y018100D01*
X023760Y018003D01*
X023760Y017897D01*
X023800Y017800D01*
X023874Y017725D01*
X023972Y017685D01*
X024077Y017685D01*
X024175Y017725D01*
X024175Y016925D01*
X024077Y016965D01*
X023972Y016965D01*
X023874Y016925D01*
X023800Y016850D01*
X023760Y016753D01*
X023760Y016647D01*
X023800Y016550D01*
X022399Y016550D01*
X022440Y016647D01*
X022440Y016753D01*
X022399Y016850D01*
X022325Y016925D01*
X022227Y016965D01*
X022122Y016965D01*
X022024Y016925D01*
X021950Y016850D01*
X021910Y016753D01*
X021910Y016647D01*
X021950Y016550D01*
X021349Y016550D01*
X021399Y016600D01*
X021440Y016697D01*
X021440Y016803D01*
X021399Y016900D01*
X021325Y016975D01*
X021227Y017015D01*
X021122Y017015D01*
X021024Y016975D01*
X020950Y016900D01*
X020910Y016803D01*
X020910Y016697D01*
X020950Y016600D01*
X021000Y016550D01*
X020699Y016550D01*
X020749Y016600D01*
X020790Y016697D01*
X020790Y016803D01*
X020749Y016900D01*
X020675Y016975D01*
X020577Y017015D01*
X020472Y017015D01*
X020374Y016975D01*
X020300Y016900D01*
X020260Y016803D01*
X020260Y016697D01*
X020300Y016600D01*
X020350Y016550D01*
X019449Y016550D01*
X019490Y016647D01*
X019490Y016753D01*
X019449Y016850D01*
X019375Y016925D01*
X019277Y016965D01*
X019172Y016965D01*
X019074Y016925D01*
X019000Y016850D01*
X018960Y016753D01*
X018960Y016647D01*
X019000Y016550D01*
X018899Y016550D01*
X018940Y016647D01*
X018940Y016753D01*
X018899Y016850D01*
X018825Y016925D01*
X018727Y016965D01*
X018622Y016965D01*
X018524Y016925D01*
X018450Y016850D01*
X018410Y016753D01*
X018410Y016647D01*
X018450Y016550D01*
X017075Y016550D01*
X017075Y018525D01*
X017172Y018485D01*
X017277Y018485D01*
X017375Y018525D01*
X017449Y018600D01*
X017490Y018697D01*
X017490Y018803D01*
X017449Y018900D01*
X017375Y018975D01*
X017277Y019015D01*
X017172Y019015D01*
X017075Y018975D01*
X017075Y019725D01*
X017172Y019685D01*
X017277Y019685D01*
X017375Y019725D01*
X017449Y019800D01*
X017490Y019897D01*
X017490Y020003D01*
X017449Y020100D01*
X017375Y020175D01*
X017277Y020215D01*
X017172Y020215D01*
X017075Y020175D01*
X017075Y020925D01*
X017172Y020885D01*
X017277Y020885D01*
X017375Y020925D01*
X017449Y021000D01*
X017490Y021097D01*
X017490Y021203D01*
X017449Y021300D01*
X017375Y021375D01*
X017277Y021415D01*
X017172Y021415D01*
X017075Y021375D01*
X017075Y021525D01*
X017172Y021485D01*
X017277Y021485D01*
X017375Y021525D01*
X017449Y021600D01*
X017490Y021697D01*
X017490Y021803D01*
X017449Y021900D01*
X017375Y021975D01*
X017277Y022015D01*
X017172Y022015D01*
X017075Y021975D01*
X017075Y022175D01*
X017172Y022135D01*
X017277Y022135D01*
X017375Y022175D01*
X017449Y022250D01*
X017490Y022347D01*
X017490Y022453D01*
X017449Y022550D01*
X017375Y022625D01*
X017277Y022665D01*
X017172Y022665D01*
X017075Y022625D01*
X017075Y023600D01*
X017075Y023597D02*
X018999Y023597D01*
X018960Y023499D02*
X017075Y023499D01*
X017075Y023400D02*
X018960Y023400D01*
X018999Y023302D02*
X017075Y023302D01*
X017075Y023203D02*
X019128Y023203D01*
X019321Y023203D02*
X020628Y023203D01*
X020499Y023302D02*
X019450Y023302D01*
X019490Y023400D02*
X020460Y023400D01*
X020460Y023499D02*
X019490Y023499D01*
X019451Y023597D02*
X020499Y023597D01*
X020951Y023597D02*
X022347Y023597D01*
X022279Y023499D02*
X020990Y023499D01*
X020990Y023400D02*
X022260Y023400D01*
X022279Y023302D02*
X020950Y023302D01*
X020821Y023203D02*
X022347Y023203D01*
X022702Y023203D02*
X023928Y023203D01*
X023799Y023302D02*
X022771Y023302D01*
X022790Y023400D02*
X023760Y023400D01*
X023760Y023499D02*
X022771Y023499D01*
X022702Y023597D02*
X023799Y023597D01*
X024121Y023203D02*
X024175Y023203D01*
X024175Y023105D02*
X017075Y023105D01*
X017075Y023006D02*
X024175Y023006D01*
X023857Y022908D02*
X022142Y022908D01*
X022125Y022925D02*
X022199Y022850D01*
X022240Y022753D01*
X022240Y022647D01*
X022199Y022550D01*
X022125Y022475D01*
X022027Y022435D01*
X021922Y022435D01*
X021824Y022475D01*
X021750Y022550D01*
X021710Y022647D01*
X021710Y022753D01*
X021750Y022850D01*
X021824Y022925D01*
X021922Y022965D01*
X022027Y022965D01*
X022125Y022925D01*
X022216Y022809D02*
X023783Y022809D01*
X023760Y022711D02*
X022240Y022711D01*
X022225Y022612D02*
X023774Y022612D01*
X023836Y022514D02*
X022163Y022514D01*
X021786Y022514D02*
X017464Y022514D01*
X017490Y022415D02*
X024175Y022415D01*
X024175Y022317D02*
X017477Y022317D01*
X017417Y022218D02*
X024175Y022218D01*
X024175Y022120D02*
X019980Y022120D01*
X019999Y022100D02*
X019925Y022175D01*
X019827Y022215D01*
X019722Y022215D01*
X019624Y022175D01*
X019550Y022100D01*
X019510Y022003D01*
X019510Y021897D01*
X019550Y021800D01*
X019624Y021725D01*
X019722Y021685D01*
X019827Y021685D01*
X019925Y021725D01*
X019999Y021800D01*
X020040Y021897D01*
X020040Y022003D01*
X019999Y022100D01*
X020032Y022021D02*
X024175Y022021D01*
X024175Y021923D02*
X020040Y021923D01*
X020009Y021824D02*
X024175Y021824D01*
X024175Y021726D02*
X019925Y021726D01*
X019624Y021726D02*
X017490Y021726D01*
X017481Y021824D02*
X019540Y021824D01*
X019510Y021923D02*
X017427Y021923D01*
X017461Y021627D02*
X024175Y021627D01*
X024175Y021529D02*
X017378Y021529D01*
X017418Y021332D02*
X023831Y021332D01*
X023772Y021233D02*
X017477Y021233D01*
X017490Y021135D02*
X023760Y021135D01*
X023785Y021036D02*
X017464Y021036D01*
X017387Y020938D02*
X023862Y020938D01*
X024175Y020839D02*
X017075Y020839D01*
X017075Y020741D02*
X024175Y020741D01*
X024175Y020642D02*
X017075Y020642D01*
X017075Y020544D02*
X024175Y020544D01*
X024175Y020445D02*
X017075Y020445D01*
X017075Y020347D02*
X022546Y020347D01*
X022574Y020375D02*
X022500Y020300D01*
X022460Y020203D01*
X022460Y020097D01*
X022500Y020000D01*
X022574Y019925D01*
X022672Y019885D01*
X022777Y019885D01*
X022875Y019925D01*
X022949Y020000D01*
X022990Y020097D01*
X022990Y020203D01*
X022949Y020300D01*
X022875Y020375D01*
X022777Y020415D01*
X022672Y020415D01*
X022574Y020375D01*
X022478Y020248D02*
X017075Y020248D01*
X017400Y020150D02*
X022460Y020150D01*
X022479Y020051D02*
X017470Y020051D01*
X017490Y019953D02*
X022547Y019953D01*
X022902Y019953D02*
X023847Y019953D01*
X023779Y020051D02*
X022970Y020051D01*
X022990Y020150D02*
X023760Y020150D01*
X023778Y020248D02*
X022971Y020248D01*
X022903Y020347D02*
X023846Y020347D01*
X024175Y019854D02*
X017472Y019854D01*
X017405Y019756D02*
X024175Y019756D01*
X023857Y019657D02*
X017075Y019657D01*
X017075Y019559D02*
X023783Y019559D01*
X023760Y019460D02*
X017075Y019460D01*
X017075Y019362D02*
X023774Y019362D01*
X023837Y019263D02*
X017075Y019263D01*
X017075Y019165D02*
X024175Y019165D01*
X024175Y019066D02*
X017075Y019066D01*
X017382Y018968D02*
X024175Y018968D01*
X024175Y018869D02*
X017462Y018869D01*
X017490Y018771D02*
X024175Y018771D01*
X023872Y018672D02*
X017479Y018672D01*
X017423Y018574D02*
X023789Y018574D01*
X023760Y018475D02*
X017075Y018475D01*
X017075Y018377D02*
X023768Y018377D01*
X023822Y018278D02*
X017075Y018278D01*
X017075Y018180D02*
X023886Y018180D01*
X023792Y018081D02*
X017075Y018081D01*
X017075Y017983D02*
X023760Y017983D01*
X023765Y017884D02*
X017075Y017884D01*
X017075Y017786D02*
X023814Y017786D01*
X023967Y017687D02*
X017075Y017687D01*
X017075Y017589D02*
X019808Y017589D01*
X019774Y017575D02*
X019700Y017500D01*
X019660Y017403D01*
X019660Y017297D01*
X019700Y017200D01*
X019774Y017125D01*
X019872Y017085D01*
X019977Y017085D01*
X020075Y017125D01*
X020149Y017200D01*
X020190Y017297D01*
X020190Y017403D01*
X020149Y017500D01*
X020075Y017575D01*
X019977Y017615D01*
X019872Y017615D01*
X019774Y017575D01*
X019696Y017490D02*
X017075Y017490D01*
X017075Y017392D02*
X019660Y017392D01*
X019661Y017293D02*
X017075Y017293D01*
X017075Y017195D02*
X019705Y017195D01*
X019845Y017096D02*
X017075Y017096D01*
X017075Y016998D02*
X020430Y016998D01*
X020300Y016899D02*
X019400Y016899D01*
X019470Y016801D02*
X020260Y016801D01*
X020260Y016702D02*
X019490Y016702D01*
X019471Y016604D02*
X020298Y016604D01*
X020751Y016604D02*
X020948Y016604D01*
X020910Y016702D02*
X020790Y016702D01*
X020790Y016801D02*
X020910Y016801D01*
X020950Y016899D02*
X020750Y016899D01*
X020619Y016998D02*
X021080Y016998D01*
X021269Y016998D02*
X024175Y016998D01*
X024175Y017096D02*
X020004Y017096D01*
X020144Y017195D02*
X024175Y017195D01*
X024175Y017293D02*
X020188Y017293D01*
X020190Y017392D02*
X024175Y017392D01*
X024175Y017490D02*
X020153Y017490D01*
X020041Y017589D02*
X024175Y017589D01*
X024175Y017687D02*
X024082Y017687D01*
X023849Y016899D02*
X022350Y016899D01*
X022420Y016801D02*
X023779Y016801D01*
X023760Y016702D02*
X022440Y016702D01*
X022421Y016604D02*
X023778Y016604D01*
X024725Y015900D02*
X025175Y016350D01*
X025175Y018600D01*
X025575Y019000D01*
X025775Y019000D01*
X024175Y021430D02*
X017075Y021430D01*
X017075Y022021D02*
X019517Y022021D01*
X019569Y022120D02*
X017075Y022120D01*
X017387Y022612D02*
X021724Y022612D01*
X021710Y022711D02*
X017075Y022711D01*
X017075Y022809D02*
X021733Y022809D01*
X021807Y022908D02*
X017075Y022908D01*
X017075Y016899D02*
X018499Y016899D01*
X018429Y016801D02*
X017075Y016801D01*
X017075Y016702D02*
X018410Y016702D01*
X018428Y016604D02*
X017075Y016604D01*
X016225Y015900D02*
X024725Y015900D01*
X025375Y015150D02*
X026325Y016100D01*
X027375Y016100D01*
X025375Y015150D02*
X015375Y015150D01*
X014925Y015600D01*
X014925Y016400D01*
X018850Y016899D02*
X019049Y016899D01*
X018979Y016801D02*
X018920Y016801D01*
X018940Y016702D02*
X018960Y016702D01*
X018978Y016604D02*
X018921Y016604D01*
X021401Y016604D02*
X021928Y016604D01*
X021910Y016702D02*
X021440Y016702D01*
X021440Y016801D02*
X021929Y016801D01*
X021999Y016899D02*
X021400Y016899D01*
X024675Y013200D02*
X024675Y010500D01*
X027675Y010500D01*
X027675Y013200D01*
X024675Y013200D01*
X024675Y013156D02*
X027675Y013156D01*
X027675Y013058D02*
X024675Y013058D01*
X024675Y012959D02*
X027675Y012959D01*
X027675Y012861D02*
X024675Y012861D01*
X024675Y012762D02*
X027675Y012762D01*
X027675Y012664D02*
X024675Y012664D01*
X024675Y012565D02*
X027675Y012565D01*
X027675Y012467D02*
X024675Y012467D01*
X024675Y012368D02*
X027675Y012368D01*
X027675Y012270D02*
X024675Y012270D01*
X024675Y012171D02*
X027675Y012171D01*
X027675Y012073D02*
X024675Y012073D01*
X024675Y011974D02*
X027675Y011974D01*
X027675Y011876D02*
X024675Y011876D01*
X024675Y011777D02*
X027675Y011777D01*
X027675Y011679D02*
X024675Y011679D01*
X024675Y011580D02*
X027675Y011580D01*
X027675Y011482D02*
X024675Y011482D01*
X024675Y011383D02*
X027675Y011383D01*
X027675Y011285D02*
X024675Y011285D01*
X024675Y011186D02*
X027675Y011186D01*
X027675Y011088D02*
X024675Y011088D01*
X024675Y010989D02*
X027675Y010989D01*
X027675Y010891D02*
X024675Y010891D01*
X024675Y010792D02*
X027675Y010792D01*
X027675Y010694D02*
X024675Y010694D01*
X024675Y010595D02*
X027675Y010595D01*
X023074Y010201D02*
X021726Y010201D01*
X021613Y010247D02*
X021336Y010247D01*
X021080Y010141D01*
X020883Y009945D01*
X020777Y009689D01*
X020777Y009411D01*
X020883Y009155D01*
X021080Y008959D01*
X021336Y008853D01*
X021613Y008853D01*
X021870Y008959D01*
X022066Y009155D01*
X022172Y009411D01*
X022172Y009689D01*
X022066Y009945D01*
X021870Y010141D01*
X021613Y010247D01*
X021909Y010103D02*
X022891Y010103D01*
X022792Y010004D02*
X022007Y010004D01*
X022082Y009906D02*
X022717Y009906D01*
X022676Y009807D02*
X022123Y009807D01*
X022164Y009709D02*
X022635Y009709D01*
X022627Y009610D02*
X022172Y009610D01*
X022172Y009512D02*
X022627Y009512D01*
X022627Y009413D02*
X022172Y009413D01*
X022132Y009315D02*
X022667Y009315D01*
X022708Y009216D02*
X022091Y009216D01*
X022029Y009118D02*
X022771Y009118D01*
X022869Y009019D02*
X021930Y009019D01*
X021778Y008921D02*
X023022Y008921D01*
X023128Y008724D02*
X021671Y008724D01*
X021886Y008625D02*
X022913Y008625D01*
X022815Y008527D02*
X021985Y008527D01*
X022073Y008428D02*
X022726Y008428D01*
X022685Y008330D02*
X022114Y008330D01*
X022155Y008231D02*
X022645Y008231D01*
X022627Y008133D02*
X022172Y008133D01*
X022172Y008034D02*
X022627Y008034D01*
X022627Y007936D02*
X022172Y007936D01*
X022141Y007837D02*
X022658Y007837D01*
X022699Y007739D02*
X022101Y007739D01*
X022051Y007640D02*
X022748Y007640D01*
X022847Y007542D02*
X021953Y007542D01*
X021832Y007443D02*
X022967Y007443D01*
X021172Y008921D02*
X004425Y008921D01*
X004425Y009019D02*
X021019Y009019D01*
X020921Y009118D02*
X004425Y009118D01*
X004425Y009216D02*
X020858Y009216D01*
X020817Y009315D02*
X004425Y009315D01*
X004425Y009413D02*
X020777Y009413D01*
X020777Y009512D02*
X004425Y009512D01*
X004425Y009610D02*
X020777Y009610D01*
X020785Y009709D02*
X004425Y009709D01*
X004425Y009807D02*
X020826Y009807D01*
X020867Y009906D02*
X004425Y009906D01*
X004425Y010004D02*
X020942Y010004D01*
X021041Y010103D02*
X004425Y010103D01*
X004425Y010201D02*
X021224Y010201D01*
X017683Y007640D02*
X017416Y007640D01*
X017397Y007659D02*
X017285Y007705D01*
X017164Y007705D01*
X017052Y007659D01*
X016966Y007573D01*
X016920Y007461D01*
X016920Y007339D01*
X016966Y007227D01*
X017052Y007141D01*
X017164Y007095D01*
X017285Y007095D01*
X017397Y007141D01*
X017483Y007227D01*
X017530Y007339D01*
X017530Y007461D01*
X017483Y007573D01*
X017397Y007659D01*
X017496Y007542D02*
X017603Y007542D01*
X017570Y007443D02*
X017530Y007443D01*
X017530Y007345D02*
X017570Y007345D01*
X017608Y007246D02*
X017491Y007246D01*
X017403Y007148D02*
X017696Y007148D01*
X017046Y007148D02*
X016753Y007148D01*
X016747Y007141D02*
X016833Y007227D01*
X016880Y007339D01*
X016880Y007461D01*
X016833Y007573D01*
X016747Y007659D01*
X016635Y007705D01*
X016514Y007705D01*
X016402Y007659D01*
X016316Y007573D01*
X016270Y007461D01*
X016270Y007339D01*
X016316Y007227D01*
X016402Y007141D01*
X016514Y007095D01*
X016635Y007095D01*
X016747Y007141D01*
X016841Y007246D02*
X016958Y007246D01*
X016920Y007345D02*
X016880Y007345D01*
X016880Y007443D02*
X016920Y007443D01*
X016953Y007542D02*
X016846Y007542D01*
X016766Y007640D02*
X017033Y007640D01*
X016383Y007640D02*
X014316Y007640D01*
X014297Y007659D02*
X014185Y007705D01*
X014064Y007705D01*
X013952Y007659D01*
X013866Y007573D01*
X013820Y007461D01*
X013820Y007339D01*
X013866Y007227D01*
X013952Y007141D01*
X014064Y007095D01*
X014185Y007095D01*
X014297Y007141D01*
X014383Y007227D01*
X014430Y007339D01*
X014430Y007461D01*
X014383Y007573D01*
X014297Y007659D01*
X014396Y007542D02*
X016303Y007542D01*
X016270Y007443D02*
X014430Y007443D01*
X014430Y007345D02*
X016270Y007345D01*
X016308Y007246D02*
X014391Y007246D01*
X014303Y007148D02*
X016396Y007148D01*
X013946Y007148D02*
X013653Y007148D01*
X013647Y007141D02*
X013733Y007227D01*
X013780Y007339D01*
X013780Y007461D01*
X013733Y007573D01*
X013647Y007659D01*
X013535Y007705D01*
X013414Y007705D01*
X013302Y007659D01*
X013216Y007573D01*
X013170Y007461D01*
X013170Y007339D01*
X013216Y007227D01*
X013302Y007141D01*
X013414Y007095D01*
X013535Y007095D01*
X013647Y007141D01*
X013741Y007246D02*
X013858Y007246D01*
X013820Y007345D02*
X013780Y007345D01*
X013780Y007443D02*
X013820Y007443D01*
X013853Y007542D02*
X013746Y007542D01*
X013666Y007640D02*
X013933Y007640D01*
X013283Y007640D02*
X013016Y007640D01*
X013096Y007542D02*
X013203Y007542D01*
X013170Y007443D02*
X013130Y007443D01*
X013130Y007345D02*
X013170Y007345D01*
X013208Y007246D02*
X013091Y007246D01*
X013003Y007148D02*
X013296Y007148D01*
X006996Y007148D02*
X006703Y007148D01*
X006697Y007141D02*
X006783Y007227D01*
X006830Y007339D01*
X006830Y007461D01*
X006783Y007573D01*
X006697Y007659D01*
X006585Y007705D01*
X006464Y007705D01*
X006352Y007659D01*
X006266Y007573D01*
X006220Y007461D01*
X006220Y007339D01*
X006266Y007227D01*
X006352Y007141D01*
X006464Y007095D01*
X006585Y007095D01*
X006697Y007141D01*
X006791Y007246D02*
X006908Y007246D01*
X006870Y007345D02*
X006830Y007345D01*
X006830Y007443D02*
X006870Y007443D01*
X006903Y007542D02*
X006796Y007542D01*
X006716Y007640D02*
X006983Y007640D01*
X006333Y007640D02*
X006066Y007640D01*
X006047Y007659D02*
X005935Y007705D01*
X005814Y007705D01*
X005702Y007659D01*
X005616Y007573D01*
X005570Y007461D01*
X005570Y007339D01*
X005616Y007227D01*
X005702Y007141D01*
X005814Y007095D01*
X005935Y007095D01*
X006047Y007141D01*
X006133Y007227D01*
X006180Y007339D01*
X006180Y007461D01*
X006133Y007573D01*
X006047Y007659D01*
X006146Y007542D02*
X006253Y007542D01*
X006220Y007443D02*
X006180Y007443D01*
X006180Y007345D02*
X006220Y007345D01*
X006258Y007246D02*
X006141Y007246D01*
X006053Y007148D02*
X006346Y007148D01*
X005696Y007148D02*
X004425Y007148D01*
X004425Y007246D02*
X005608Y007246D01*
X005570Y007345D02*
X004425Y007345D01*
X004425Y007443D02*
X005570Y007443D01*
X005603Y007542D02*
X004425Y007542D01*
X004425Y007640D02*
X005683Y007640D01*
X004425Y012861D02*
X009398Y012861D01*
X009300Y012959D02*
X004425Y012959D01*
X004425Y013058D02*
X009201Y013058D01*
X009103Y013156D02*
X004425Y013156D01*
X004425Y013255D02*
X007089Y013255D01*
X007102Y013241D02*
X007214Y013195D01*
X007335Y013195D01*
X007447Y013241D01*
X007533Y013327D01*
X007580Y013439D01*
X007580Y013561D01*
X007533Y013673D01*
X007447Y013759D01*
X007335Y013805D01*
X007214Y013805D01*
X007102Y013759D01*
X007016Y013673D01*
X006970Y013561D01*
X006970Y013439D01*
X007016Y013327D01*
X007102Y013241D01*
X007005Y013353D02*
X004425Y013353D01*
X004425Y013452D02*
X006970Y013452D01*
X006970Y013550D02*
X004425Y013550D01*
X004425Y013649D02*
X007006Y013649D01*
X007090Y013747D02*
X004425Y013747D01*
X004425Y013846D02*
X008413Y013846D01*
X008315Y013944D02*
X004425Y013944D01*
X004425Y014043D02*
X008216Y014043D01*
X008118Y014141D02*
X004425Y014141D01*
X004425Y014240D02*
X008019Y014240D01*
X007921Y014338D02*
X004425Y014338D01*
X007459Y013747D02*
X008512Y013747D01*
X008610Y013649D02*
X007543Y013649D01*
X007580Y013550D02*
X008709Y013550D01*
X008807Y013452D02*
X007580Y013452D01*
X007544Y013353D02*
X008906Y013353D01*
X009004Y013255D02*
X007460Y013255D01*
X008089Y017392D02*
X004425Y017392D01*
X004425Y017490D02*
X008070Y017490D01*
X008081Y017589D02*
X004425Y017589D01*
X004425Y017687D02*
X008130Y017687D01*
X008764Y018081D02*
X004425Y018081D01*
X004425Y017983D02*
X008873Y017983D01*
X008724Y018180D02*
X004425Y018180D01*
X004425Y018278D02*
X008720Y018278D01*
X008747Y018377D02*
X004425Y018377D01*
X004425Y018475D02*
X008818Y018475D01*
X005760Y020347D02*
X004425Y020347D01*
X004425Y020445D02*
X005598Y020445D01*
X005539Y020544D02*
X004425Y020544D01*
X004425Y020642D02*
X005520Y020642D01*
X005532Y020741D02*
X004425Y020741D01*
X004425Y020839D02*
X005582Y020839D01*
X027198Y005670D02*
X027752Y005670D01*
X027642Y005572D02*
X027307Y005572D01*
X027365Y005473D02*
X027584Y005473D01*
X027547Y005375D02*
X027402Y005375D01*
X027402Y005276D02*
X027547Y005276D01*
X027563Y005178D02*
X027386Y005178D01*
X027345Y005079D02*
X027604Y005079D01*
X027690Y004981D02*
X027259Y004981D01*
X028198Y005670D02*
X028502Y005670D01*
X028392Y005572D02*
X028307Y005572D01*
D20*
X017325Y023350D02*
X016775Y023900D01*
X016775Y024800D01*
X016275Y025300D01*
X015525Y025300D01*
D21*
X023525Y024700D02*
X023525Y023400D01*
X023525Y024700D02*
X023775Y024950D01*
X024075Y024950D01*
X040725Y016900D02*
X040725Y015950D01*
X041075Y015600D01*
X045375Y015600D01*
D22*
X019325Y011850D02*
X019325Y011350D01*
X019325Y011850D02*
X018525Y012650D01*
X010175Y012650D01*
X007975Y014850D01*
X008275Y014850D01*
D23*
X010125Y015663D02*
X010912Y015663D01*
X010925Y015650D01*
X010925Y014450D01*
X011725Y013650D01*
X028975Y013650D01*
X030875Y011750D01*
X046025Y011750D01*
X048775Y014500D01*
X050375Y014500D01*
X050375Y017400D01*
X048775Y019000D01*
X048775Y028100D01*
X048175Y028100D01*
X047675Y028600D01*
X047675Y031900D01*
X048225Y032450D01*
X010675Y023050D02*
X010675Y017650D01*
X010925Y017400D01*
X010925Y015650D01*
X010675Y023050D02*
X010525Y023200D01*
X010525Y023150D02*
X010525Y023500D01*
X010325Y023700D01*
M02*
