G75*
G70*
%OFA0B0*%
%FSLAX24Y24*%
%IPPOS*%
%LPD*%
%AMOC8*
5,1,8,0,0,1.08239X$1,22.5*
%
%ADD10R,0.0118X0.0630*%
%ADD11R,0.0630X0.0118*%
%ADD12R,0.0315X0.0315*%
%ADD13R,0.0433X0.0394*%
%ADD14R,0.0748X0.0236*%
%ADD15R,0.1102X0.0827*%
%ADD16R,0.0630X0.1535*%
%ADD17R,0.0512X0.0591*%
%ADD18R,0.1496X0.0551*%
%ADD19R,0.0551X0.0551*%
%ADD20R,0.0394X0.0433*%
%ADD21R,0.0591X0.0472*%
%ADD22R,0.0630X0.0709*%
%ADD23R,0.0350X0.0310*%
%ADD24C,0.0456*%
%ADD25R,0.0430X0.0790*%
%ADD26R,0.0217X0.0472*%
%ADD27R,0.0472X0.0236*%
%ADD28R,0.0880X0.0480*%
%ADD29R,0.0866X0.1417*%
%ADD30R,0.0591X0.0512*%
%ADD31C,0.0515*%
%ADD32R,0.0515X0.0515*%
%ADD33OC8,0.0600*%
%ADD34C,0.0885*%
%ADD35C,0.0945*%
%ADD36C,0.0974*%
%ADD37R,0.0974X0.0974*%
%ADD38R,0.0354X0.0197*%
%ADD39C,0.0554*%
%ADD40R,0.0197X0.0354*%
%ADD41R,0.1770X0.0710*%
%ADD42R,0.0866X0.0984*%
%ADD43R,0.0787X0.0197*%
%ADD44R,0.0315X0.0130*%
%ADD45R,0.0130X0.0315*%
%ADD46R,0.0354X0.0394*%
%ADD47R,0.0189X0.0165*%
%ADD48R,0.0165X0.0189*%
%ADD49C,0.1095*%
%ADD50R,0.0945X0.0945*%
%ADD51R,0.0299X0.0110*%
%ADD52R,0.0110X0.0299*%
%ADD53R,0.0551X0.0472*%
%ADD54R,0.0276X0.0354*%
%ADD55R,0.0354X0.0276*%
%ADD56R,0.0138X0.0394*%
%ADD57C,0.0160*%
%ADD58C,0.0320*%
%ADD59C,0.0100*%
%ADD60C,0.0400*%
%ADD61C,0.0240*%
%ADD62C,0.0310*%
%ADD63C,0.0500*%
D10*
X017200Y015887D03*
X017397Y015887D03*
X017593Y015887D03*
X017790Y015887D03*
X017987Y015887D03*
X018184Y015887D03*
X018381Y015887D03*
X018578Y015887D03*
X018775Y015887D03*
X018971Y015887D03*
X019168Y015887D03*
X019365Y015887D03*
X019562Y015887D03*
X019759Y015887D03*
X019956Y015887D03*
X020152Y015887D03*
X020349Y015887D03*
X020546Y015887D03*
X020743Y015887D03*
X020940Y015887D03*
X021137Y015887D03*
X021334Y015887D03*
X021530Y015887D03*
X021727Y015887D03*
X021924Y015887D03*
X022121Y015887D03*
X022318Y015887D03*
X022515Y015887D03*
X022712Y015887D03*
X022908Y015887D03*
X023105Y015887D03*
X023302Y015887D03*
X023499Y015887D03*
X023696Y015887D03*
X023893Y015887D03*
X024089Y015887D03*
X024089Y024233D03*
X023893Y024233D03*
X023696Y024233D03*
X023499Y024233D03*
X023302Y024233D03*
X023105Y024233D03*
X022908Y024233D03*
X022712Y024233D03*
X022515Y024233D03*
X022318Y024233D03*
X022121Y024233D03*
X021924Y024233D03*
X021727Y024233D03*
X021530Y024233D03*
X021334Y024233D03*
X021137Y024233D03*
X020940Y024233D03*
X020743Y024233D03*
X020546Y024233D03*
X020349Y024233D03*
X020152Y024233D03*
X019956Y024233D03*
X019759Y024233D03*
X019562Y024233D03*
X019365Y024233D03*
X019168Y024233D03*
X018971Y024233D03*
X018775Y024233D03*
X018578Y024233D03*
X018381Y024233D03*
X018184Y024233D03*
X017987Y024233D03*
X017790Y024233D03*
X017593Y024233D03*
X017397Y024233D03*
X017200Y024233D03*
X035548Y023555D03*
X035745Y023555D03*
X035942Y023555D03*
X036139Y023555D03*
X036336Y023555D03*
X036532Y023555D03*
X036729Y023555D03*
X036926Y023555D03*
X037123Y023555D03*
X037320Y023555D03*
X037517Y023555D03*
X037714Y023555D03*
X037910Y023555D03*
X038107Y023555D03*
X038304Y023555D03*
X038501Y023555D03*
X038501Y019145D03*
X038304Y019145D03*
X038107Y019145D03*
X037910Y019145D03*
X037714Y019145D03*
X037517Y019145D03*
X037320Y019145D03*
X037123Y019145D03*
X036926Y019145D03*
X036729Y019145D03*
X036532Y019145D03*
X036336Y019145D03*
X036139Y019145D03*
X035942Y019145D03*
X035745Y019145D03*
X035548Y019145D03*
D11*
X034820Y019874D03*
X034820Y020070D03*
X034820Y020267D03*
X034820Y020464D03*
X034820Y020661D03*
X034820Y020858D03*
X034820Y021055D03*
X034820Y021252D03*
X034820Y021448D03*
X034820Y021645D03*
X034820Y021842D03*
X034820Y022039D03*
X034820Y022236D03*
X034820Y022433D03*
X034820Y022630D03*
X034820Y022826D03*
X039229Y022826D03*
X039229Y022630D03*
X039229Y022433D03*
X039229Y022236D03*
X039229Y022039D03*
X039229Y021842D03*
X039229Y021645D03*
X039229Y021448D03*
X039229Y021252D03*
X039229Y021055D03*
X039229Y020858D03*
X039229Y020661D03*
X039229Y020464D03*
X039229Y020267D03*
X039229Y020070D03*
X039229Y019874D03*
X024818Y019962D03*
X024818Y020158D03*
X024818Y020355D03*
X024818Y020552D03*
X024818Y020749D03*
X024818Y020946D03*
X024818Y021143D03*
X024818Y021340D03*
X024818Y021536D03*
X024818Y021733D03*
X024818Y021930D03*
X024818Y022127D03*
X024818Y022324D03*
X024818Y022521D03*
X024818Y022717D03*
X024818Y022914D03*
X024818Y023111D03*
X024818Y023308D03*
X024818Y023505D03*
X024818Y019765D03*
X024818Y019568D03*
X024818Y019371D03*
X024818Y019174D03*
X024818Y018977D03*
X024818Y018780D03*
X024818Y018584D03*
X024818Y018387D03*
X024818Y018190D03*
X024818Y017993D03*
X024818Y017796D03*
X024818Y017599D03*
X024818Y017403D03*
X024818Y017206D03*
X024818Y017009D03*
X024818Y016812D03*
X024818Y016615D03*
X016471Y016615D03*
X016471Y016812D03*
X016471Y017009D03*
X016471Y017206D03*
X016471Y017403D03*
X016471Y017599D03*
X016471Y017796D03*
X016471Y017993D03*
X016471Y018190D03*
X016471Y018387D03*
X016471Y018584D03*
X016471Y018780D03*
X016471Y018977D03*
X016471Y019174D03*
X016471Y019371D03*
X016471Y019568D03*
X016471Y019765D03*
X016471Y019962D03*
X016471Y020158D03*
X016471Y020355D03*
X016471Y020552D03*
X016471Y020749D03*
X016471Y020946D03*
X016471Y021143D03*
X016471Y021340D03*
X016471Y021536D03*
X016471Y021733D03*
X016471Y021930D03*
X016471Y022127D03*
X016471Y022324D03*
X016471Y022521D03*
X016471Y022717D03*
X016471Y022914D03*
X016471Y023111D03*
X016471Y023308D03*
X016471Y023505D03*
D12*
X025929Y024950D03*
X026520Y024950D03*
D13*
X025389Y024930D03*
X024720Y024930D03*
X025990Y022300D03*
X026659Y022300D03*
X026340Y021000D03*
X026340Y020200D03*
X027009Y020200D03*
X027009Y021000D03*
X034790Y017900D03*
X035459Y017900D03*
X043340Y016250D03*
X044009Y016250D03*
X045340Y017300D03*
X046009Y017300D03*
X045399Y014390D03*
X044730Y014390D03*
X044990Y025750D03*
X045659Y025750D03*
X021959Y032150D03*
X021290Y032150D03*
X020809Y031350D03*
X020140Y031350D03*
X020159Y032200D03*
X019490Y032200D03*
X019690Y035500D03*
X020359Y035500D03*
X014759Y040000D03*
X014090Y040000D03*
X008559Y029350D03*
X007890Y029350D03*
X007900Y028420D03*
X008569Y028420D03*
X008559Y027500D03*
X007890Y027500D03*
X007910Y026570D03*
X008579Y026570D03*
X008540Y025700D03*
X009209Y025700D03*
X009290Y023000D03*
X009959Y023000D03*
X006639Y021360D03*
X005970Y021360D03*
X005239Y018300D03*
X004570Y018300D03*
X013580Y016370D03*
X014249Y016370D03*
X014990Y015900D03*
X015659Y015900D03*
D14*
X003719Y011669D03*
X003719Y011275D03*
X003719Y010881D03*
X003719Y010487D03*
X003719Y010094D03*
X003719Y009700D03*
X003719Y009306D03*
X003719Y008913D03*
X003719Y008519D03*
X003719Y008125D03*
X003719Y007731D03*
X003725Y021244D03*
X003725Y021638D03*
X003725Y022031D03*
X003725Y022425D03*
X003725Y022819D03*
X003725Y023213D03*
X003725Y023606D03*
X003725Y024000D03*
X003719Y033331D03*
X003719Y033725D03*
X003719Y034119D03*
X003719Y034513D03*
X003719Y034906D03*
X003719Y035300D03*
X003719Y035694D03*
X003719Y036087D03*
X003719Y036481D03*
X003719Y036875D03*
X003719Y037269D03*
X048231Y037269D03*
X048231Y036875D03*
X048231Y036481D03*
X048231Y036087D03*
X048231Y035694D03*
X048231Y035300D03*
X048231Y034906D03*
X048231Y034513D03*
X048231Y034119D03*
X048231Y033725D03*
X048231Y033331D03*
X048231Y011669D03*
X048231Y011275D03*
X048231Y010881D03*
X048231Y010487D03*
X048231Y010094D03*
X048231Y009700D03*
X048231Y009306D03*
X048231Y008913D03*
X048231Y008519D03*
X048231Y008125D03*
X048231Y007731D03*
D15*
X049156Y006472D03*
X049156Y012928D03*
X049156Y032072D03*
X049156Y038528D03*
X002794Y038528D03*
X002794Y032072D03*
X002799Y025240D03*
X002799Y020004D03*
X002794Y012928D03*
X002794Y006472D03*
D16*
X006505Y007373D03*
X006505Y004027D03*
X036975Y004027D03*
X036975Y007373D03*
X044475Y034777D03*
X044475Y038123D03*
X029425Y038123D03*
X029425Y034777D03*
X011175Y034777D03*
X011175Y038123D03*
D17*
X007859Y017490D03*
X007111Y017490D03*
D18*
X008056Y015400D03*
X005694Y015400D03*
D19*
X006947Y018250D03*
X008443Y018250D03*
D20*
X006955Y019255D03*
X006955Y019925D03*
X005175Y020815D03*
X005175Y021485D03*
X010475Y019685D03*
X010475Y019015D03*
X018925Y033565D03*
X018925Y034235D03*
X018625Y034815D03*
X018625Y035485D03*
X018725Y036915D03*
X018725Y037585D03*
X019575Y037585D03*
X019575Y036915D03*
X040875Y022035D03*
X040875Y021365D03*
X043425Y021865D03*
X043425Y022535D03*
X045925Y022535D03*
X045925Y021865D03*
X046725Y021985D03*
X046725Y021315D03*
X045875Y020885D03*
X045875Y020215D03*
X047275Y019735D03*
X047275Y019065D03*
X047275Y018235D03*
X047275Y017565D03*
X039975Y016885D03*
X039975Y016215D03*
X039125Y016215D03*
X039125Y016885D03*
X038325Y016885D03*
X038325Y016215D03*
X048425Y025015D03*
X048425Y025685D03*
D21*
X008805Y021610D03*
X007664Y021610D03*
D22*
X009793Y021540D03*
X010896Y021540D03*
D23*
X041275Y017640D03*
X042075Y017260D03*
X041275Y016880D03*
D24*
X013375Y026166D03*
X013375Y028134D03*
D25*
X028925Y014870D03*
X029925Y014870D03*
X030925Y014870D03*
X031925Y014870D03*
X031925Y011330D03*
X030925Y011330D03*
X029925Y011330D03*
X028925Y011330D03*
D26*
X006149Y019088D03*
X005775Y019088D03*
X005401Y019088D03*
X005401Y020112D03*
X005775Y020112D03*
X006149Y020112D03*
D27*
X006110Y026726D03*
X006110Y027100D03*
X006110Y027474D03*
X007139Y027474D03*
X007139Y026726D03*
X007139Y028576D03*
X007139Y029324D03*
X006110Y029324D03*
X006110Y028950D03*
X006110Y028576D03*
D28*
X008295Y024810D03*
X008295Y023900D03*
X008295Y022990D03*
D29*
X005855Y023900D03*
D30*
X009275Y023976D03*
X009275Y024724D03*
D31*
X003275Y028088D03*
X003275Y028875D03*
X003275Y029663D03*
X012150Y041600D03*
X012937Y041600D03*
X016338Y041600D03*
X017125Y041600D03*
X017912Y041600D03*
X018700Y041600D03*
X019487Y041600D03*
X022563Y041600D03*
X023350Y041600D03*
X024138Y041600D03*
X024925Y041600D03*
X025712Y041600D03*
X026500Y041600D03*
X027287Y041600D03*
X030637Y041600D03*
X035275Y041350D03*
X036275Y041350D03*
X037275Y041350D03*
X036275Y042350D03*
X035275Y042350D03*
X048775Y030462D03*
X048775Y029675D03*
X048775Y028887D03*
X049375Y026100D03*
X049875Y025600D03*
X050375Y026100D03*
X050375Y025100D03*
X049375Y025100D03*
X048775Y016862D03*
X048775Y016075D03*
X048775Y015287D03*
X018725Y006213D03*
X018725Y005425D03*
X018725Y004638D03*
X018725Y003850D03*
X010125Y014088D03*
X010125Y014875D03*
X010125Y015663D03*
X003275Y015325D03*
X003275Y016113D03*
X003275Y014538D03*
D32*
X003275Y016900D03*
X010125Y016450D03*
X018725Y007000D03*
X003275Y030450D03*
X013725Y041600D03*
X020275Y041600D03*
X028075Y041600D03*
X031425Y041600D03*
X037275Y042350D03*
X048775Y028100D03*
X048775Y014500D03*
D33*
X006765Y041890D03*
X004985Y041890D03*
D34*
X004495Y040910D03*
X007255Y040910D03*
D35*
X022275Y012600D03*
X023675Y012600D03*
X025475Y012600D03*
X026875Y012600D03*
D36*
X033304Y004650D03*
X011254Y007800D03*
D37*
X009695Y007800D03*
X031745Y004650D03*
D38*
X034690Y013528D03*
X034690Y013843D03*
X034690Y014157D03*
X034690Y014472D03*
X035359Y014472D03*
X035359Y014157D03*
X035359Y013843D03*
X035359Y013528D03*
X019209Y013307D03*
X019209Y012993D03*
X018540Y012993D03*
X018540Y013307D03*
X015059Y013678D03*
X015059Y013993D03*
X015059Y014307D03*
X015059Y014622D03*
X014390Y014622D03*
X014390Y014307D03*
X014390Y013993D03*
X014390Y013678D03*
X005209Y011522D03*
X005209Y011207D03*
X005209Y010893D03*
X005209Y010578D03*
X004540Y010578D03*
X004540Y010893D03*
X004540Y011207D03*
X004540Y011522D03*
X016340Y026928D03*
X016340Y027243D03*
X016340Y027557D03*
X016340Y027872D03*
X017009Y027872D03*
X017009Y027557D03*
X017009Y027243D03*
X017009Y026928D03*
X045040Y029478D03*
X045040Y029793D03*
X045040Y030107D03*
X045040Y030422D03*
X045709Y030422D03*
X045709Y030107D03*
X045709Y029793D03*
X045709Y029478D03*
X046840Y028107D03*
X046840Y027793D03*
X047509Y027793D03*
X047509Y028107D03*
D39*
X029725Y005300D03*
X029725Y004300D03*
X029725Y003300D03*
X028725Y003300D03*
X027975Y003300D03*
X027975Y004300D03*
X028725Y004300D03*
X028725Y005300D03*
X027975Y005300D03*
X026975Y005300D03*
X026975Y004300D03*
X026975Y003300D03*
D40*
X021647Y013965D03*
X021332Y013965D03*
X021017Y013965D03*
X020702Y013965D03*
X020702Y014635D03*
X021017Y014635D03*
X021332Y014635D03*
X021647Y014635D03*
X044617Y015965D03*
X044932Y015965D03*
X044932Y016635D03*
X044617Y016635D03*
D41*
X008675Y019250D03*
X008675Y020550D03*
D42*
X048237Y019046D03*
X050324Y019046D03*
X050324Y022354D03*
X048237Y022354D03*
D43*
X048139Y021330D03*
X048139Y021015D03*
X048139Y020700D03*
X048139Y020385D03*
X048139Y020070D03*
D44*
X021312Y033358D03*
X021312Y033555D03*
X021312Y033752D03*
X021312Y033948D03*
X021312Y034145D03*
X021312Y034342D03*
X019737Y034342D03*
X019737Y034145D03*
X019737Y033948D03*
X019737Y033752D03*
X019737Y033555D03*
X019737Y033358D03*
D45*
X020032Y033063D03*
X020229Y033063D03*
X020426Y033063D03*
X020623Y033063D03*
X020820Y033063D03*
X021017Y033063D03*
X021017Y034637D03*
X020820Y034637D03*
X020623Y034637D03*
X020426Y034637D03*
X020229Y034637D03*
X020032Y034637D03*
D46*
X042368Y014365D03*
X042368Y013735D03*
X043982Y013735D03*
X043982Y014365D03*
D47*
X021077Y036850D03*
X020172Y036850D03*
D48*
X020241Y036378D03*
X020497Y036378D03*
X020753Y036378D03*
X021008Y036378D03*
X021008Y037322D03*
X020753Y037322D03*
X020497Y037322D03*
X020241Y037322D03*
D49*
X021475Y009550D03*
X021475Y008050D03*
X023325Y008050D03*
X025175Y008050D03*
X025175Y009550D03*
X023325Y009550D03*
X024325Y003050D03*
X022325Y003050D03*
D50*
X044475Y024300D03*
D51*
X045175Y024300D03*
X045175Y024497D03*
X045175Y024694D03*
X045175Y024103D03*
X045175Y023906D03*
X043774Y023906D03*
X043774Y024103D03*
X043774Y024300D03*
X043774Y024497D03*
X043774Y024694D03*
D52*
X044081Y025001D03*
X044278Y025001D03*
X044475Y025001D03*
X044671Y025001D03*
X044868Y025001D03*
X044868Y023599D03*
X044671Y023599D03*
X044475Y023599D03*
X044278Y023599D03*
X044081Y023599D03*
D53*
X044242Y022515D03*
X044242Y021885D03*
X045108Y021885D03*
X045108Y022515D03*
D54*
X048425Y023544D03*
X048425Y024056D03*
D55*
X047881Y024550D03*
X047369Y024550D03*
D56*
X046881Y024554D03*
X046625Y024554D03*
X046369Y024554D03*
X046369Y023846D03*
X046625Y023846D03*
X046881Y023846D03*
D57*
X047875Y024550D02*
X047881Y024550D01*
X048425Y024550D01*
X048425Y025015D01*
X048425Y024950D01*
X048425Y024550D02*
X048425Y024056D01*
X048225Y032450D02*
X048231Y032456D01*
X045375Y015600D02*
X045399Y015575D01*
X045399Y014390D01*
X044730Y014390D02*
X044715Y014390D01*
X044675Y014350D01*
X044025Y014350D01*
X047681Y009306D02*
X047625Y009250D01*
X047681Y009306D02*
X048231Y009306D01*
X010125Y014875D02*
X008700Y014875D01*
X008675Y014850D01*
X007115Y017490D02*
X007111Y017490D01*
X007115Y017490D02*
X007125Y017500D01*
X006025Y017500D01*
X005775Y017750D01*
X005775Y018300D01*
X005239Y018300D01*
X005775Y018300D02*
X005775Y019088D01*
X006149Y019088D02*
X006963Y019088D01*
X006975Y019100D01*
X006955Y019120D01*
X006955Y019255D01*
X006969Y019255D01*
X006975Y019250D01*
X006975Y019100D01*
X006955Y019925D02*
X006955Y020030D01*
X006975Y020050D01*
X006913Y020112D01*
X006149Y020112D01*
X005775Y020112D02*
X005775Y020600D01*
X005825Y020650D01*
X006225Y020650D01*
X006639Y021065D01*
X006639Y021360D01*
X005970Y021360D02*
X005935Y021360D01*
X005375Y020800D01*
X005401Y020800D01*
X005401Y020112D01*
X005375Y020800D02*
X005175Y020800D01*
X005175Y020815D01*
X005175Y021485D02*
X005175Y021850D01*
X005475Y022150D01*
X008575Y022150D01*
X008600Y022175D01*
X008785Y021610D02*
X008805Y021610D01*
X008785Y021610D02*
X008775Y021600D01*
X007664Y021610D02*
X007635Y021610D01*
X007625Y021600D01*
X007625Y021350D01*
X006955Y020680D01*
X006955Y019925D01*
X005401Y019088D02*
X004863Y019088D01*
X004575Y018800D01*
X004575Y018250D01*
X004570Y018255D01*
X004570Y018300D01*
X008284Y022990D02*
X008295Y022990D01*
X008284Y022990D02*
X008275Y023000D01*
X009290Y023000D01*
X009275Y023900D02*
X008295Y023900D01*
X008295Y024810D02*
X008525Y024810D01*
X009265Y024810D01*
X009375Y024700D01*
X009275Y024724D01*
X008559Y024835D02*
X008525Y024869D01*
X008525Y025700D01*
X008540Y025700D01*
X008525Y025700D02*
X008525Y026000D01*
X008375Y026150D01*
X006325Y026150D01*
X006125Y026350D01*
X006125Y026750D01*
X006110Y026736D01*
X006110Y026726D01*
X005299Y026726D01*
X005025Y027000D01*
X005025Y027500D01*
X005051Y027474D01*
X006110Y027474D01*
X006110Y027100D02*
X005625Y027100D01*
X005025Y027500D02*
X005025Y028550D01*
X005051Y028576D01*
X006110Y028576D01*
X006110Y028950D02*
X005625Y028950D01*
X005299Y029324D02*
X005025Y029050D01*
X005025Y028550D01*
X005299Y029324D02*
X006110Y029324D01*
X007139Y029324D02*
X007849Y029324D01*
X007875Y029350D01*
X007890Y029350D01*
X007925Y029350D01*
X007900Y029325D01*
X007900Y028420D01*
X007890Y027500D02*
X007925Y027500D01*
X007899Y027474D01*
X007139Y027474D01*
X007875Y027500D02*
X007890Y027485D01*
X007890Y026565D01*
X007875Y026550D01*
X007890Y026565D02*
X007895Y026570D01*
X007910Y026570D01*
X007875Y027500D02*
X007890Y027500D01*
X009275Y023976D02*
X009375Y024000D01*
X009275Y023900D01*
X003719Y010094D02*
X002831Y010094D01*
X002825Y010100D01*
D58*
X005725Y014750D02*
X005694Y014781D01*
X005694Y015400D01*
X007125Y016900D02*
X007125Y017450D01*
X007111Y017464D01*
X007111Y017490D01*
X007125Y016900D02*
X008056Y015969D01*
X008056Y015400D01*
X008443Y018250D02*
X009025Y018250D01*
X006975Y018300D02*
X006925Y018250D01*
X006947Y018250D01*
X006975Y018300D02*
X006975Y019100D01*
X008785Y021610D02*
X008785Y021990D01*
X008600Y022175D01*
X008275Y022500D01*
X008275Y022950D01*
X008295Y022970D01*
X008295Y022990D01*
D59*
X005625Y004800D02*
X005625Y003250D01*
X007425Y003250D01*
X007425Y004800D01*
X005625Y004800D01*
X005625Y004784D02*
X007425Y004784D01*
X007425Y004685D02*
X005625Y004685D01*
X005625Y004587D02*
X007425Y004587D01*
X007425Y004488D02*
X005625Y004488D01*
X005625Y004390D02*
X007425Y004390D01*
X007425Y004291D02*
X005625Y004291D01*
X005625Y004193D02*
X007425Y004193D01*
X007425Y004094D02*
X005625Y004094D01*
X005625Y003996D02*
X007425Y003996D01*
X007425Y003897D02*
X005625Y003897D01*
X005625Y003799D02*
X007425Y003799D01*
X007425Y003700D02*
X005625Y003700D01*
X005625Y003601D02*
X007425Y003601D01*
X007425Y003503D02*
X005625Y003503D01*
X005625Y003404D02*
X007425Y003404D01*
X007425Y003306D02*
X005625Y003306D01*
X005125Y005600D02*
X004625Y005600D01*
X004625Y007700D01*
X003525Y007700D01*
X003525Y008150D01*
X005125Y008150D01*
X005125Y005600D01*
X005125Y005670D02*
X004625Y005670D01*
X004625Y005769D02*
X005125Y005769D01*
X005125Y005867D02*
X004625Y005867D01*
X004625Y005966D02*
X005125Y005966D01*
X005125Y006064D02*
X004625Y006064D01*
X004625Y006163D02*
X005125Y006163D01*
X005125Y006261D02*
X004625Y006261D01*
X004625Y006360D02*
X005125Y006360D01*
X005125Y006458D02*
X004625Y006458D01*
X004625Y006557D02*
X005125Y006557D01*
X005125Y006655D02*
X004625Y006655D01*
X004625Y006754D02*
X005125Y006754D01*
X005125Y006852D02*
X004625Y006852D01*
X004625Y006951D02*
X005125Y006951D01*
X005125Y007049D02*
X004625Y007049D01*
X004625Y007148D02*
X005125Y007148D01*
X005125Y007246D02*
X004625Y007246D01*
X004625Y007345D02*
X005125Y007345D01*
X005125Y007443D02*
X004625Y007443D01*
X004625Y007542D02*
X005125Y007542D01*
X005125Y007640D02*
X004625Y007640D01*
X005125Y007739D02*
X003525Y007739D01*
X003525Y007837D02*
X005125Y007837D01*
X005125Y007936D02*
X003525Y007936D01*
X003525Y008034D02*
X005125Y008034D01*
X005125Y008133D02*
X003525Y008133D01*
X003525Y008500D02*
X003525Y008950D01*
X012575Y008950D01*
X012575Y007489D01*
X012560Y007453D01*
X012560Y007347D01*
X012575Y007311D01*
X012575Y005600D01*
X011575Y005600D01*
X011575Y007000D01*
X012025Y007000D01*
X012025Y008500D01*
X003525Y008500D01*
X003525Y008527D02*
X012575Y008527D01*
X012575Y008625D02*
X003525Y008625D01*
X003525Y008724D02*
X012575Y008724D01*
X012575Y008822D02*
X003525Y008822D01*
X003525Y008921D02*
X012575Y008921D01*
X012575Y008428D02*
X012025Y008428D01*
X012025Y008330D02*
X012575Y008330D01*
X012575Y008231D02*
X012025Y008231D01*
X012025Y008133D02*
X012575Y008133D01*
X012575Y008034D02*
X012025Y008034D01*
X012025Y007936D02*
X012575Y007936D01*
X012575Y007837D02*
X012025Y007837D01*
X012025Y007739D02*
X012575Y007739D01*
X012575Y007640D02*
X012025Y007640D01*
X012025Y007542D02*
X012575Y007542D01*
X012560Y007443D02*
X012025Y007443D01*
X012025Y007345D02*
X012561Y007345D01*
X012575Y007246D02*
X012025Y007246D01*
X012025Y007148D02*
X012575Y007148D01*
X012575Y007049D02*
X012025Y007049D01*
X011575Y006951D02*
X012575Y006951D01*
X012575Y006852D02*
X011575Y006852D01*
X011575Y006754D02*
X012575Y006754D01*
X012575Y006655D02*
X011575Y006655D01*
X011575Y006557D02*
X012575Y006557D01*
X012575Y006458D02*
X011575Y006458D01*
X011575Y006360D02*
X012575Y006360D01*
X012575Y006261D02*
X011575Y006261D01*
X011575Y006163D02*
X012575Y006163D01*
X012575Y006064D02*
X011575Y006064D01*
X011575Y005966D02*
X012575Y005966D01*
X012575Y005867D02*
X011575Y005867D01*
X011575Y005769D02*
X012575Y005769D01*
X012575Y005670D02*
X011575Y005670D01*
X015325Y005670D02*
X015825Y005670D01*
X015825Y005600D02*
X015325Y005600D01*
X015325Y009250D01*
X003525Y009250D01*
X003525Y009750D01*
X015825Y009750D01*
X015825Y005600D01*
X015825Y005769D02*
X015325Y005769D01*
X015325Y005867D02*
X015825Y005867D01*
X015825Y005966D02*
X015325Y005966D01*
X015325Y006064D02*
X015825Y006064D01*
X015825Y006163D02*
X015325Y006163D01*
X015325Y006261D02*
X015825Y006261D01*
X015825Y006360D02*
X015325Y006360D01*
X015325Y006458D02*
X015825Y006458D01*
X015825Y006557D02*
X015325Y006557D01*
X015325Y006655D02*
X015825Y006655D01*
X015825Y006754D02*
X015325Y006754D01*
X015325Y006852D02*
X015825Y006852D01*
X015825Y006951D02*
X015325Y006951D01*
X015325Y007049D02*
X015825Y007049D01*
X015825Y007148D02*
X015325Y007148D01*
X015325Y007246D02*
X015825Y007246D01*
X015825Y007345D02*
X015325Y007345D01*
X015325Y007443D02*
X015825Y007443D01*
X015825Y007542D02*
X015325Y007542D01*
X015325Y007640D02*
X015825Y007640D01*
X015825Y007739D02*
X015325Y007739D01*
X015325Y007837D02*
X015825Y007837D01*
X015825Y007936D02*
X015325Y007936D01*
X015325Y008034D02*
X015825Y008034D01*
X015825Y008133D02*
X015325Y008133D01*
X015325Y008231D02*
X015825Y008231D01*
X015825Y008330D02*
X015325Y008330D01*
X015325Y008428D02*
X015825Y008428D01*
X015825Y008527D02*
X015325Y008527D01*
X015325Y008625D02*
X015825Y008625D01*
X015825Y008724D02*
X015325Y008724D01*
X015325Y008822D02*
X015825Y008822D01*
X015825Y008921D02*
X015325Y008921D01*
X015325Y009019D02*
X015825Y009019D01*
X015825Y009118D02*
X015325Y009118D01*
X015325Y009216D02*
X015825Y009216D01*
X015825Y009315D02*
X003525Y009315D01*
X003525Y009413D02*
X015825Y009413D01*
X015825Y009512D02*
X003525Y009512D01*
X003525Y009610D02*
X015825Y009610D01*
X015825Y009709D02*
X003525Y009709D01*
X003719Y010487D02*
X004112Y010487D01*
X004202Y010578D01*
X004540Y010578D01*
X004540Y010893D02*
X004182Y010893D01*
X004175Y010900D01*
X004156Y010881D01*
X003719Y010881D01*
X003719Y011275D02*
X004150Y011275D01*
X004217Y011207D01*
X004540Y011207D01*
X005209Y011207D02*
X006182Y011207D01*
X006875Y011900D01*
X014125Y011900D01*
X016375Y014150D01*
X018225Y014150D01*
X018578Y014503D01*
X018578Y015887D01*
X018775Y015887D02*
X018775Y016600D01*
X018675Y016700D01*
X018940Y016702D02*
X018960Y016702D01*
X018960Y016753D02*
X018960Y016647D01*
X019000Y016550D01*
X018935Y016550D01*
X018935Y016635D01*
X018940Y016647D01*
X018940Y016753D01*
X018899Y016850D01*
X018825Y016925D01*
X018727Y016965D01*
X018622Y016965D01*
X018524Y016925D01*
X018450Y016850D01*
X018410Y016753D01*
X018410Y016647D01*
X018450Y016550D01*
X017075Y016550D01*
X017075Y017833D01*
X017184Y017833D01*
X017186Y017835D01*
X017277Y017835D01*
X017375Y017875D01*
X017449Y017950D01*
X017490Y018047D01*
X017490Y018153D01*
X017449Y018250D01*
X017375Y018325D01*
X017277Y018365D01*
X017172Y018365D01*
X017075Y018325D01*
X017075Y018525D01*
X017172Y018485D01*
X017277Y018485D01*
X017375Y018525D01*
X017449Y018600D01*
X017490Y018697D01*
X017490Y018803D01*
X017449Y018900D01*
X017375Y018975D01*
X017277Y019015D01*
X017172Y019015D01*
X017075Y018975D01*
X017075Y019725D01*
X017172Y019685D01*
X017277Y019685D01*
X017375Y019725D01*
X017449Y019800D01*
X017490Y019897D01*
X017490Y020003D01*
X017449Y020100D01*
X017375Y020175D01*
X017277Y020215D01*
X017172Y020215D01*
X017075Y020175D01*
X017075Y021525D01*
X017172Y021485D01*
X017277Y021485D01*
X017375Y021525D01*
X017449Y021600D01*
X017490Y021697D01*
X017490Y021803D01*
X017449Y021900D01*
X017375Y021975D01*
X017277Y022015D01*
X017172Y022015D01*
X017075Y021975D01*
X017075Y022164D01*
X017102Y022164D01*
X017172Y022135D01*
X017277Y022135D01*
X017375Y022175D01*
X017449Y022250D01*
X017490Y022347D01*
X017490Y022453D01*
X017449Y022550D01*
X017375Y022625D01*
X017277Y022665D01*
X017172Y022665D01*
X017075Y022625D01*
X017075Y023600D01*
X018150Y023600D01*
X018110Y023503D01*
X018110Y023397D01*
X018150Y023300D01*
X018224Y023225D01*
X018322Y023185D01*
X018427Y023185D01*
X018525Y023225D01*
X018599Y023300D01*
X018640Y023397D01*
X018640Y023503D01*
X018599Y023600D01*
X018848Y023600D01*
X018960Y023489D01*
X018960Y023397D01*
X019000Y023300D01*
X019074Y023225D01*
X019172Y023185D01*
X019277Y023185D01*
X019375Y023225D01*
X019449Y023300D01*
X019490Y023397D01*
X019490Y023503D01*
X019449Y023600D01*
X020500Y023600D01*
X020460Y023503D01*
X020460Y023397D01*
X020500Y023300D01*
X020574Y023225D01*
X020672Y023185D01*
X020777Y023185D01*
X020875Y023225D01*
X020949Y023300D01*
X020990Y023397D01*
X020990Y023503D01*
X020949Y023600D01*
X022350Y023600D01*
X022300Y023550D01*
X022260Y023453D01*
X022260Y023347D01*
X022300Y023250D01*
X022374Y023175D01*
X022472Y023135D01*
X022577Y023135D01*
X022675Y023175D01*
X022749Y023250D01*
X022790Y023347D01*
X022790Y023439D01*
X022872Y023521D01*
X022872Y023600D01*
X023800Y023600D01*
X023760Y023503D01*
X023760Y023397D01*
X023800Y023300D01*
X023874Y023225D01*
X023972Y023185D01*
X024077Y023185D01*
X024175Y023225D01*
X024175Y022325D01*
X024077Y022365D01*
X023972Y022365D01*
X023874Y022325D01*
X023800Y022250D01*
X023760Y022153D01*
X023760Y022047D01*
X023800Y021950D01*
X023874Y021875D01*
X023972Y021835D01*
X024077Y021835D01*
X024175Y021875D01*
X024175Y021500D01*
X024148Y021500D01*
X024063Y021415D01*
X023972Y021415D01*
X023874Y021375D01*
X023800Y021300D01*
X023760Y021203D01*
X023760Y021097D01*
X023800Y021000D01*
X023874Y020925D01*
X023972Y020885D01*
X024077Y020885D01*
X024175Y020925D01*
X024175Y020375D01*
X024077Y020415D01*
X023972Y020415D01*
X023874Y020375D01*
X023800Y020300D01*
X023760Y020203D01*
X023760Y020097D01*
X023800Y020000D01*
X023874Y019925D01*
X023972Y019885D01*
X024077Y019885D01*
X024175Y019925D01*
X024175Y018675D01*
X024077Y018715D01*
X023972Y018715D01*
X023874Y018675D01*
X023800Y018600D01*
X023760Y018503D01*
X023760Y018397D01*
X023800Y018300D01*
X023874Y018225D01*
X023936Y018200D01*
X023874Y018175D01*
X023800Y018100D01*
X023760Y018003D01*
X023760Y017897D01*
X023800Y017800D01*
X023874Y017725D01*
X023972Y017685D01*
X024077Y017685D01*
X024175Y017725D01*
X024175Y016925D01*
X024077Y016965D01*
X023972Y016965D01*
X023874Y016925D01*
X023800Y016850D01*
X023760Y016753D01*
X023760Y016647D01*
X023800Y016550D01*
X023149Y016550D01*
X023190Y016647D01*
X023190Y016753D01*
X023149Y016850D01*
X023075Y016925D01*
X022977Y016965D01*
X022872Y016965D01*
X022774Y016925D01*
X022700Y016850D01*
X022660Y016753D01*
X022660Y016647D01*
X022700Y016550D01*
X022478Y016550D01*
X022478Y016559D01*
X022488Y016575D01*
X022478Y016624D01*
X022478Y016673D01*
X022465Y016686D01*
X022461Y016705D01*
X022440Y016718D01*
X022440Y016753D01*
X022399Y016850D01*
X022325Y016925D01*
X022227Y016965D01*
X022122Y016965D01*
X022024Y016925D01*
X021950Y016850D01*
X021910Y016753D01*
X021910Y016647D01*
X021950Y016550D01*
X020903Y016550D01*
X020903Y016598D01*
X020790Y016711D01*
X020790Y016803D01*
X020749Y016900D01*
X020675Y016975D01*
X020577Y017015D01*
X020472Y017015D01*
X020374Y016975D01*
X020300Y016900D01*
X020260Y016803D01*
X020260Y016697D01*
X020300Y016600D01*
X020350Y016550D01*
X019449Y016550D01*
X019490Y016647D01*
X019490Y016753D01*
X019449Y016850D01*
X019375Y016925D01*
X019277Y016965D01*
X019172Y016965D01*
X019074Y016925D01*
X019000Y016850D01*
X018960Y016753D01*
X018979Y016801D02*
X018920Y016801D01*
X018850Y016899D02*
X019049Y016899D01*
X019168Y016694D02*
X019225Y016700D01*
X019168Y016694D02*
X019168Y015887D01*
X018971Y015887D02*
X018971Y014347D01*
X018525Y013900D01*
X016525Y013900D01*
X014275Y011650D01*
X006975Y011650D01*
X006217Y010893D01*
X005209Y010893D01*
X005209Y010578D02*
X006452Y010578D01*
X006575Y010700D01*
X007025Y010700D01*
X007725Y011400D01*
X014375Y011400D01*
X016625Y013650D01*
X018875Y013650D01*
X019365Y014140D01*
X019365Y015887D01*
X019562Y015887D02*
X019562Y016587D01*
X019575Y016600D01*
X019471Y016604D02*
X020298Y016604D01*
X020260Y016702D02*
X019490Y016702D01*
X019470Y016801D02*
X020260Y016801D01*
X020300Y016899D02*
X019400Y016899D01*
X019700Y017200D02*
X019774Y017125D01*
X019872Y017085D01*
X019977Y017085D01*
X020075Y017125D01*
X020149Y017200D01*
X020190Y017297D01*
X020190Y017403D01*
X020149Y017500D01*
X020075Y017575D01*
X019977Y017615D01*
X019872Y017615D01*
X019774Y017575D01*
X019700Y017500D01*
X019660Y017403D01*
X019660Y017297D01*
X019700Y017200D01*
X019705Y017195D02*
X017075Y017195D01*
X017075Y017293D02*
X019661Y017293D01*
X019660Y017392D02*
X017075Y017392D01*
X017075Y017490D02*
X019696Y017490D01*
X019808Y017589D02*
X017075Y017589D01*
X017075Y017687D02*
X023967Y017687D01*
X024082Y017687D02*
X024175Y017687D01*
X024175Y017589D02*
X020041Y017589D01*
X020153Y017490D02*
X024175Y017490D01*
X024175Y017392D02*
X020190Y017392D01*
X020188Y017293D02*
X024175Y017293D01*
X024175Y017195D02*
X020144Y017195D01*
X020004Y017096D02*
X024175Y017096D01*
X024175Y016998D02*
X020619Y016998D01*
X020750Y016899D02*
X021999Y016899D01*
X021929Y016801D02*
X020790Y016801D01*
X020799Y016702D02*
X021910Y016702D01*
X021928Y016604D02*
X020897Y016604D01*
X020743Y016532D02*
X020525Y016750D01*
X020430Y016998D02*
X017075Y016998D01*
X017075Y017096D02*
X019845Y017096D01*
X018978Y016604D02*
X018935Y016604D01*
X018428Y016604D02*
X017075Y016604D01*
X017075Y016702D02*
X018410Y016702D01*
X018429Y016801D02*
X017075Y016801D01*
X017113Y016812D02*
X017125Y016800D01*
X017113Y016812D02*
X016471Y016812D01*
X012737Y016812D01*
X012375Y016450D01*
X010125Y016450D01*
X008775Y015600D02*
X008775Y014500D01*
X007375Y014500D01*
X007375Y015600D01*
X008775Y015600D01*
X008775Y015520D02*
X007375Y015520D01*
X007375Y015422D02*
X008775Y015422D01*
X008775Y015323D02*
X007375Y015323D01*
X007375Y015225D02*
X008775Y015225D01*
X008775Y015126D02*
X007375Y015126D01*
X007375Y015028D02*
X008775Y015028D01*
X008775Y014929D02*
X007375Y014929D01*
X007375Y014831D02*
X008775Y014831D01*
X008775Y014732D02*
X007375Y014732D01*
X007375Y014634D02*
X008775Y014634D01*
X008775Y014535D02*
X007375Y014535D01*
X007425Y013650D02*
X007275Y013500D01*
X007425Y013650D02*
X010475Y013650D01*
X011132Y014307D01*
X014390Y014307D01*
X014390Y013993D02*
X013967Y013993D01*
X013225Y013250D01*
X014275Y013250D02*
X014390Y013365D01*
X014390Y013678D01*
X015059Y013678D02*
X015452Y013678D01*
X016125Y014350D01*
X017975Y014350D01*
X018381Y014756D01*
X018381Y015887D01*
X017987Y015887D02*
X017987Y014813D01*
X017725Y014550D01*
X015975Y014550D01*
X015417Y013993D01*
X015059Y013993D01*
X015059Y014307D02*
X015432Y014307D01*
X015875Y014750D01*
X017575Y014750D01*
X017790Y014966D01*
X017790Y015887D01*
X017593Y015887D02*
X017593Y015169D01*
X017375Y014950D01*
X015725Y014950D01*
X015397Y014622D01*
X015059Y014622D01*
X014390Y014622D02*
X013402Y014622D01*
X013375Y014650D01*
X012775Y015550D02*
X012575Y015550D01*
X012775Y015550D02*
X013580Y016355D01*
X013580Y016370D01*
X014249Y016370D02*
X014895Y016370D01*
X014925Y016400D01*
X014990Y016335D01*
X014990Y015900D01*
X015659Y015900D02*
X015675Y015900D01*
X015675Y015450D01*
X015775Y015350D01*
X017125Y015350D01*
X017200Y015425D01*
X017200Y015887D01*
X017075Y016899D02*
X018499Y016899D01*
X019759Y015887D02*
X019759Y013484D01*
X019582Y013307D01*
X019209Y013307D01*
X019209Y012993D02*
X019667Y012993D01*
X019956Y013281D01*
X019956Y015887D01*
X020743Y015887D02*
X020743Y016532D01*
X020940Y015887D02*
X020940Y015415D01*
X020702Y015178D01*
X020702Y014635D01*
X021017Y014635D02*
X021017Y015193D01*
X021137Y015312D01*
X021137Y015887D01*
X021334Y015887D02*
X021334Y014659D01*
X021325Y014650D01*
X021332Y014643D01*
X021332Y014635D01*
X021647Y014635D02*
X021647Y015178D01*
X021530Y015294D01*
X021530Y015887D01*
X021924Y015887D02*
X021924Y014950D01*
X023275Y013600D01*
X032975Y013600D01*
X033047Y013528D01*
X034690Y013528D01*
X034690Y013843D02*
X033182Y013843D01*
X033125Y013900D01*
X023375Y013900D01*
X022121Y015154D01*
X022121Y015887D01*
X022318Y015887D02*
X022318Y016607D01*
X022175Y016700D01*
X022420Y016801D02*
X022679Y016801D01*
X022660Y016702D02*
X022461Y016702D01*
X022482Y016604D02*
X022678Y016604D01*
X022575Y016650D02*
X022515Y016590D01*
X022515Y015887D01*
X022908Y015887D02*
X022908Y016684D01*
X022925Y016700D01*
X023190Y016702D02*
X023760Y016702D01*
X023778Y016604D02*
X023171Y016604D01*
X023170Y016801D02*
X023779Y016801D01*
X023849Y016899D02*
X023100Y016899D01*
X022749Y016899D02*
X022350Y016899D01*
X023302Y015887D02*
X023302Y014523D01*
X023725Y014100D01*
X033075Y014100D01*
X033132Y014157D01*
X034690Y014157D01*
X034690Y014472D02*
X033047Y014472D01*
X032875Y014300D01*
X023825Y014300D01*
X023499Y014626D01*
X023499Y015887D01*
X023696Y015887D02*
X023696Y014929D01*
X023925Y014700D01*
X024525Y014750D02*
X023893Y015382D01*
X023893Y015887D01*
X024089Y015887D02*
X024638Y015887D01*
X025025Y015500D01*
X025025Y014750D01*
X025525Y014800D02*
X025525Y016600D01*
X025313Y016812D01*
X024818Y016812D01*
X024818Y017009D02*
X025616Y017009D01*
X025725Y016900D01*
X026075Y017250D02*
X026075Y014800D01*
X026475Y015300D02*
X026475Y017650D01*
X026325Y017800D01*
X026321Y017796D01*
X024818Y017796D01*
X024818Y017599D02*
X024125Y017599D01*
X024125Y017600D01*
X023814Y017786D02*
X017075Y017786D01*
X017078Y017796D02*
X017125Y017750D01*
X017078Y017796D02*
X016471Y017796D01*
X016471Y017993D02*
X016018Y017993D01*
X015575Y017550D01*
X013025Y017550D01*
X012383Y017009D02*
X012225Y016850D01*
X012383Y017009D02*
X016471Y017009D01*
X016471Y017206D02*
X011880Y017206D01*
X011675Y017000D01*
X011475Y019750D02*
X011489Y019765D01*
X016471Y019765D01*
X016471Y019962D02*
X017213Y019962D01*
X017225Y019950D01*
X017490Y019953D02*
X022547Y019953D01*
X022574Y019925D02*
X022672Y019885D01*
X022777Y019885D01*
X022875Y019925D01*
X022949Y020000D01*
X022990Y020097D01*
X022990Y020203D01*
X022949Y020300D01*
X022875Y020375D01*
X022777Y020415D01*
X022672Y020415D01*
X022574Y020375D01*
X022500Y020300D01*
X022460Y020203D01*
X022460Y020097D01*
X022500Y020000D01*
X022574Y019925D01*
X022479Y020051D02*
X017470Y020051D01*
X017400Y020150D02*
X022460Y020150D01*
X022478Y020248D02*
X017075Y020248D01*
X017075Y020347D02*
X022546Y020347D01*
X022903Y020347D02*
X023846Y020347D01*
X023778Y020248D02*
X022971Y020248D01*
X022990Y020150D02*
X023760Y020150D01*
X023779Y020051D02*
X022970Y020051D01*
X022902Y019953D02*
X023847Y019953D01*
X024025Y020150D02*
X024033Y020158D01*
X024818Y020158D01*
X024818Y020552D02*
X026322Y020552D01*
X026325Y020550D01*
X026340Y020550D01*
X026340Y021000D01*
X026340Y020550D02*
X026340Y020215D01*
X026325Y020200D01*
X026340Y020200D01*
X027009Y020200D02*
X027625Y020200D01*
X027025Y021000D02*
X027025Y021400D01*
X026888Y021536D01*
X024818Y021536D01*
X024138Y021536D01*
X024125Y021550D01*
X024125Y021700D01*
X024355Y021930D01*
X024818Y021930D01*
X026555Y021930D01*
X026675Y022050D01*
X026675Y022300D01*
X026659Y022300D01*
X026975Y022750D02*
X027575Y022750D01*
X027875Y023050D01*
X027875Y024500D01*
X028525Y025150D01*
X032025Y025150D01*
X035525Y025150D01*
X035942Y024733D01*
X035942Y023555D01*
X036139Y023555D02*
X036139Y025036D01*
X035875Y025300D01*
X035875Y025500D01*
X036025Y025650D01*
X036325Y025300D02*
X036336Y025289D01*
X036336Y023555D01*
X036532Y023555D02*
X036532Y025058D01*
X036675Y025200D01*
X036675Y025550D01*
X036575Y025650D01*
X036575Y026500D01*
X036825Y026750D01*
X042375Y026750D01*
X042167Y027793D02*
X041325Y026950D01*
X036625Y026950D01*
X035025Y025350D01*
X023425Y025350D01*
X023302Y025227D01*
X023302Y024233D01*
X023105Y024233D02*
X023105Y025431D01*
X023225Y025550D01*
X034875Y025550D01*
X036525Y027200D01*
X041175Y027200D01*
X042082Y028107D01*
X046840Y028107D01*
X046840Y027793D02*
X042167Y027793D01*
X041975Y028400D02*
X040975Y027400D01*
X036375Y027400D01*
X034725Y025750D01*
X022725Y025750D01*
X022515Y025540D01*
X022515Y024233D01*
X022712Y024233D02*
X022712Y023587D01*
X022525Y023400D01*
X022790Y023400D02*
X023760Y023400D01*
X023760Y023499D02*
X022849Y023499D01*
X022872Y023597D02*
X023799Y023597D01*
X024025Y023450D02*
X024089Y023465D01*
X024089Y024233D01*
X024095Y024930D02*
X024075Y024950D01*
X024095Y024930D02*
X024720Y024930D01*
X025389Y024930D02*
X025905Y024930D01*
X025925Y024950D01*
X025929Y024950D01*
X025425Y024900D02*
X025425Y023700D01*
X025229Y023505D01*
X024818Y023505D01*
X024818Y023308D02*
X025433Y023308D01*
X025775Y023650D01*
X025775Y024100D01*
X026520Y024355D02*
X026520Y024950D01*
X026520Y024355D02*
X026775Y024100D01*
X027275Y024050D02*
X027275Y023200D01*
X027186Y023111D01*
X024818Y023111D01*
X024436Y023111D01*
X024025Y022700D01*
X024204Y022521D01*
X024818Y022521D01*
X024818Y022717D02*
X024042Y022717D01*
X024025Y022700D01*
X024175Y022711D02*
X022240Y022711D01*
X022240Y022753D02*
X022199Y022850D01*
X022125Y022925D01*
X022027Y022965D01*
X021922Y022965D01*
X021824Y022925D01*
X021750Y022850D01*
X021710Y022753D01*
X021710Y022647D01*
X021750Y022550D01*
X021824Y022475D01*
X021922Y022435D01*
X022027Y022435D01*
X022125Y022475D01*
X022199Y022550D01*
X022240Y022647D01*
X022240Y022753D01*
X022216Y022809D02*
X024175Y022809D01*
X024175Y022908D02*
X022142Y022908D01*
X022225Y022612D02*
X024175Y022612D01*
X024175Y022514D02*
X022163Y022514D01*
X021786Y022514D02*
X017464Y022514D01*
X017490Y022415D02*
X024175Y022415D01*
X024052Y022127D02*
X024025Y022100D01*
X024052Y022127D02*
X024818Y022127D01*
X024818Y021733D02*
X027758Y021733D01*
X027775Y021750D01*
X027025Y021000D02*
X027009Y021000D01*
X025990Y022300D02*
X025990Y022885D01*
X025975Y022900D01*
X025975Y022914D01*
X026810Y022914D01*
X026975Y022750D01*
X025975Y022914D02*
X024818Y022914D01*
X024175Y023006D02*
X017075Y023006D01*
X017075Y022908D02*
X021807Y022908D01*
X021733Y022809D02*
X017075Y022809D01*
X017075Y022711D02*
X021710Y022711D01*
X021724Y022612D02*
X017387Y022612D01*
X017225Y022400D02*
X017148Y022324D01*
X016471Y022324D01*
X016471Y022521D02*
X014254Y022521D01*
X012925Y023850D01*
X013475Y023900D02*
X014657Y022717D01*
X016471Y022717D01*
X016471Y022914D02*
X015010Y022914D01*
X014025Y023900D01*
X015225Y023500D02*
X015417Y023308D01*
X016471Y023308D01*
X016471Y023505D02*
X015920Y023505D01*
X015725Y023700D01*
X017075Y023597D02*
X018149Y023597D01*
X018110Y023499D02*
X017075Y023499D01*
X017075Y023400D02*
X018110Y023400D01*
X018149Y023302D02*
X017075Y023302D01*
X017075Y023203D02*
X018278Y023203D01*
X018471Y023203D02*
X019128Y023203D01*
X018999Y023302D02*
X018600Y023302D01*
X018640Y023400D02*
X018960Y023400D01*
X018950Y023499D02*
X018640Y023499D01*
X018601Y023597D02*
X018851Y023597D01*
X018775Y023600D02*
X018775Y024233D01*
X018971Y024233D02*
X018971Y023703D01*
X019225Y023450D01*
X019321Y023203D02*
X020628Y023203D01*
X020499Y023302D02*
X019450Y023302D01*
X019490Y023400D02*
X020460Y023400D01*
X020460Y023499D02*
X019490Y023499D01*
X019451Y023597D02*
X020499Y023597D01*
X020725Y023450D02*
X020743Y023468D01*
X020743Y024233D01*
X020546Y024233D02*
X020546Y026322D01*
X021775Y027550D01*
X028275Y027550D01*
X029375Y028650D01*
X030025Y028200D02*
X028975Y027150D01*
X021925Y027150D01*
X021137Y026362D01*
X021137Y024233D01*
X021334Y024233D02*
X021334Y026309D01*
X021975Y026950D01*
X032675Y026950D01*
X034425Y028700D01*
X034475Y028300D02*
X034625Y028300D01*
X034475Y028300D02*
X032925Y026750D01*
X022025Y026750D01*
X021530Y026256D01*
X021530Y024233D01*
X021727Y024233D02*
X021727Y026203D01*
X022075Y026550D01*
X033325Y026550D01*
X035475Y028700D01*
X038425Y028700D01*
X038625Y028300D02*
X040117Y029793D01*
X045040Y029793D01*
X045040Y030107D02*
X035982Y030107D01*
X035175Y029300D01*
X030575Y029300D01*
X028625Y027350D01*
X021875Y027350D01*
X020940Y026415D01*
X020940Y024233D01*
X020349Y024233D02*
X020349Y026425D01*
X021675Y027750D01*
X026625Y027750D01*
X027075Y028200D01*
X026725Y028600D02*
X026075Y027950D01*
X021575Y027950D01*
X020152Y026528D01*
X020152Y024233D01*
X019956Y024233D02*
X019956Y026631D01*
X021475Y028150D01*
X024025Y028150D01*
X024175Y028300D01*
X023575Y028700D02*
X023575Y029350D01*
X023825Y029600D01*
X035075Y029600D01*
X035897Y030422D01*
X045040Y030422D01*
X045709Y030422D02*
X046697Y030422D01*
X047325Y031050D01*
X047325Y034400D01*
X047437Y034513D01*
X048231Y034513D01*
X048231Y034906D02*
X047481Y034906D01*
X047475Y034900D01*
X047025Y034925D02*
X046575Y034925D01*
X046575Y035023D02*
X047025Y035023D01*
X047025Y035122D02*
X046575Y035122D01*
X046575Y035220D02*
X047025Y035220D01*
X047025Y035250D02*
X047025Y032250D01*
X038275Y032250D01*
X038275Y036500D01*
X038775Y036500D01*
X038775Y032900D01*
X046575Y032900D01*
X046575Y035750D01*
X048425Y035750D01*
X048425Y035250D01*
X047025Y035250D01*
X047025Y034826D02*
X046575Y034826D01*
X046575Y034728D02*
X047025Y034728D01*
X047025Y034629D02*
X046575Y034629D01*
X046575Y034531D02*
X047025Y034531D01*
X047025Y034432D02*
X046575Y034432D01*
X046575Y034334D02*
X047025Y034334D01*
X047025Y034235D02*
X046575Y034235D01*
X046575Y034137D02*
X047025Y034137D01*
X047025Y034038D02*
X046575Y034038D01*
X046575Y033940D02*
X047025Y033940D01*
X047025Y033841D02*
X046575Y033841D01*
X046575Y033743D02*
X047025Y033743D01*
X047025Y033644D02*
X046575Y033644D01*
X046575Y033546D02*
X047025Y033546D01*
X047025Y033447D02*
X046575Y033447D01*
X046575Y033349D02*
X047025Y033349D01*
X047025Y033250D02*
X046575Y033250D01*
X046575Y033152D02*
X047025Y033152D01*
X047025Y033053D02*
X046575Y033053D01*
X046575Y032955D02*
X047025Y032955D01*
X047025Y032856D02*
X038275Y032856D01*
X038275Y032758D02*
X047025Y032758D01*
X047025Y032659D02*
X038275Y032659D01*
X038275Y032561D02*
X047025Y032561D01*
X047025Y032462D02*
X038275Y032462D01*
X038275Y032364D02*
X047025Y032364D01*
X047025Y032265D02*
X038275Y032265D01*
X038275Y032955D02*
X038775Y032955D01*
X038775Y033053D02*
X038275Y033053D01*
X038275Y033152D02*
X038775Y033152D01*
X038775Y033250D02*
X038275Y033250D01*
X038275Y033349D02*
X038775Y033349D01*
X038775Y033447D02*
X038275Y033447D01*
X038275Y033546D02*
X038775Y033546D01*
X038775Y033644D02*
X038275Y033644D01*
X038275Y033743D02*
X038775Y033743D01*
X038775Y033841D02*
X038275Y033841D01*
X038275Y033940D02*
X038775Y033940D01*
X038775Y034038D02*
X038275Y034038D01*
X038275Y034137D02*
X038775Y034137D01*
X038775Y034235D02*
X038275Y034235D01*
X038275Y034334D02*
X038775Y034334D01*
X038775Y034432D02*
X038275Y034432D01*
X038275Y034531D02*
X038775Y034531D01*
X038775Y034629D02*
X038275Y034629D01*
X038275Y034728D02*
X038775Y034728D01*
X038775Y034826D02*
X038275Y034826D01*
X038275Y034925D02*
X038775Y034925D01*
X038775Y035023D02*
X038275Y035023D01*
X038275Y035122D02*
X038775Y035122D01*
X038775Y035220D02*
X038275Y035220D01*
X038275Y035319D02*
X038775Y035319D01*
X038775Y035417D02*
X038275Y035417D01*
X038275Y035516D02*
X038775Y035516D01*
X038775Y035614D02*
X038275Y035614D01*
X038275Y035713D02*
X038775Y035713D01*
X038775Y035811D02*
X038275Y035811D01*
X038275Y035910D02*
X038775Y035910D01*
X038775Y036008D02*
X038275Y036008D01*
X038275Y036107D02*
X038775Y036107D01*
X038775Y036205D02*
X038275Y036205D01*
X038275Y036304D02*
X038775Y036304D01*
X038775Y036402D02*
X038275Y036402D01*
X042075Y036402D02*
X042575Y036402D01*
X042575Y036500D02*
X042575Y033800D01*
X045775Y033800D01*
X045775Y036500D01*
X048425Y036500D01*
X048425Y036050D01*
X046325Y036050D01*
X046325Y033200D01*
X042075Y033200D01*
X042075Y036500D01*
X042575Y036500D01*
X042575Y036304D02*
X042075Y036304D01*
X042075Y036205D02*
X042575Y036205D01*
X042575Y036107D02*
X042075Y036107D01*
X042075Y036008D02*
X042575Y036008D01*
X042575Y035910D02*
X042075Y035910D01*
X042075Y035811D02*
X042575Y035811D01*
X042575Y035713D02*
X042075Y035713D01*
X042075Y035614D02*
X042575Y035614D01*
X042575Y035516D02*
X042075Y035516D01*
X042075Y035417D02*
X042575Y035417D01*
X042575Y035319D02*
X042075Y035319D01*
X042075Y035220D02*
X042575Y035220D01*
X042575Y035122D02*
X042075Y035122D01*
X042075Y035023D02*
X042575Y035023D01*
X042575Y034925D02*
X042075Y034925D01*
X042075Y034826D02*
X042575Y034826D01*
X042575Y034728D02*
X042075Y034728D01*
X042075Y034629D02*
X042575Y034629D01*
X042575Y034531D02*
X042075Y034531D01*
X042075Y034432D02*
X042575Y034432D01*
X042575Y034334D02*
X042075Y034334D01*
X042075Y034235D02*
X042575Y034235D01*
X042575Y034137D02*
X042075Y034137D01*
X042075Y034038D02*
X042575Y034038D01*
X042575Y033940D02*
X042075Y033940D01*
X042075Y033841D02*
X042575Y033841D01*
X042075Y033743D02*
X046325Y033743D01*
X046325Y033841D02*
X045775Y033841D01*
X045775Y033940D02*
X046325Y033940D01*
X046325Y034038D02*
X045775Y034038D01*
X045775Y034137D02*
X046325Y034137D01*
X046325Y034235D02*
X045775Y034235D01*
X045775Y034334D02*
X046325Y034334D01*
X046325Y034432D02*
X045775Y034432D01*
X045775Y034531D02*
X046325Y034531D01*
X046325Y034629D02*
X045775Y034629D01*
X045775Y034728D02*
X046325Y034728D01*
X046325Y034826D02*
X045775Y034826D01*
X045775Y034925D02*
X046325Y034925D01*
X046325Y035023D02*
X045775Y035023D01*
X045775Y035122D02*
X046325Y035122D01*
X046325Y035220D02*
X045775Y035220D01*
X045775Y035319D02*
X046325Y035319D01*
X046325Y035417D02*
X045775Y035417D01*
X045775Y035516D02*
X046325Y035516D01*
X046325Y035614D02*
X045775Y035614D01*
X045775Y035713D02*
X046325Y035713D01*
X046325Y035811D02*
X045775Y035811D01*
X045775Y035910D02*
X046325Y035910D01*
X046325Y036008D02*
X045775Y036008D01*
X045775Y036107D02*
X048425Y036107D01*
X048425Y036205D02*
X045775Y036205D01*
X045775Y036304D02*
X048425Y036304D01*
X048425Y036402D02*
X045775Y036402D01*
X045775Y036800D02*
X048425Y036800D01*
X048425Y037350D01*
X046375Y037350D01*
X046375Y037800D01*
X045775Y037800D01*
X045775Y036800D01*
X045775Y036895D02*
X048425Y036895D01*
X048425Y036993D02*
X045775Y036993D01*
X045775Y037092D02*
X048425Y037092D01*
X048425Y037190D02*
X045775Y037190D01*
X045775Y037289D02*
X048425Y037289D01*
X046375Y037387D02*
X045775Y037387D01*
X045775Y037486D02*
X046375Y037486D01*
X046375Y037584D02*
X045775Y037584D01*
X045775Y037683D02*
X046375Y037683D01*
X046375Y037781D02*
X045775Y037781D01*
X045425Y037781D02*
X043625Y037781D01*
X043625Y037683D02*
X045425Y037683D01*
X045425Y037584D02*
X043625Y037584D01*
X043625Y037486D02*
X045425Y037486D01*
X045425Y037387D02*
X043625Y037387D01*
X043625Y037350D02*
X043625Y038850D01*
X045425Y038850D01*
X045425Y037350D01*
X043625Y037350D01*
X043625Y037880D02*
X045425Y037880D01*
X045425Y037978D02*
X043625Y037978D01*
X043625Y038077D02*
X045425Y038077D01*
X045425Y038175D02*
X043625Y038175D01*
X043625Y038274D02*
X045425Y038274D01*
X045425Y038372D02*
X043625Y038372D01*
X043625Y038471D02*
X045425Y038471D01*
X045425Y038569D02*
X043625Y038569D01*
X043625Y038668D02*
X045425Y038668D01*
X045425Y038766D02*
X043625Y038766D01*
X043625Y036000D02*
X045325Y036000D01*
X045325Y034550D01*
X043625Y034550D01*
X043625Y036000D01*
X043625Y035910D02*
X045325Y035910D01*
X045325Y035811D02*
X043625Y035811D01*
X043625Y035713D02*
X045325Y035713D01*
X045325Y035614D02*
X043625Y035614D01*
X043625Y035516D02*
X045325Y035516D01*
X045325Y035417D02*
X043625Y035417D01*
X043625Y035319D02*
X045325Y035319D01*
X045325Y035220D02*
X043625Y035220D01*
X043625Y035122D02*
X045325Y035122D01*
X045325Y035023D02*
X043625Y035023D01*
X043625Y034925D02*
X045325Y034925D01*
X045325Y034826D02*
X043625Y034826D01*
X043625Y034728D02*
X045325Y034728D01*
X045325Y034629D02*
X043625Y034629D01*
X042075Y033644D02*
X046325Y033644D01*
X046325Y033546D02*
X042075Y033546D01*
X042075Y033447D02*
X046325Y033447D01*
X046325Y033349D02*
X042075Y033349D01*
X042075Y033250D02*
X046325Y033250D01*
X047625Y034000D02*
X047625Y030800D01*
X046932Y030107D01*
X045709Y030107D01*
X045709Y029793D02*
X047167Y029793D01*
X048475Y031100D01*
X049975Y031100D01*
X050275Y031400D01*
X050275Y033400D01*
X049949Y033725D01*
X048231Y033725D01*
X048231Y033331D02*
X048231Y032456D01*
X047625Y034000D02*
X047744Y034119D01*
X048231Y034119D01*
X048425Y035319D02*
X046575Y035319D01*
X046575Y035417D02*
X048425Y035417D01*
X048425Y035516D02*
X046575Y035516D01*
X046575Y035614D02*
X048425Y035614D01*
X048425Y035713D02*
X046575Y035713D01*
X048775Y030462D02*
X048775Y030450D01*
X047509Y029185D01*
X047509Y028107D01*
X047509Y027793D02*
X047867Y027793D01*
X048125Y028050D01*
X048125Y028700D01*
X048325Y028900D01*
X048775Y028900D01*
X048775Y028887D01*
X045659Y025750D02*
X045659Y025365D01*
X045675Y025350D01*
X045625Y024700D02*
X045618Y024694D01*
X045175Y024694D01*
X045175Y024497D02*
X045421Y024497D01*
X045625Y024700D01*
X045925Y024550D02*
X045675Y024300D01*
X045175Y024300D01*
X045175Y024103D02*
X045671Y024103D01*
X045925Y023850D01*
X046375Y023850D01*
X046370Y023846D01*
X046369Y023846D01*
X046625Y023846D02*
X046625Y023350D01*
X046881Y023846D02*
X047220Y023846D01*
X047225Y023850D01*
X047325Y024550D02*
X047320Y024554D01*
X046881Y024554D01*
X046625Y024554D02*
X046625Y025050D01*
X046370Y024554D02*
X046369Y024554D01*
X046370Y024554D02*
X046375Y024550D01*
X045925Y024550D01*
X045468Y023906D02*
X045575Y023800D01*
X045468Y023906D02*
X045175Y023906D01*
X044868Y023599D02*
X044868Y023356D01*
X045075Y023150D01*
X045075Y022500D01*
X045090Y022515D01*
X045108Y022515D01*
X045890Y022515D01*
X045925Y022550D01*
X045925Y022535D01*
X046725Y022500D02*
X046725Y021985D01*
X047190Y021985D01*
X047475Y021700D01*
X047475Y021350D01*
X047495Y021330D01*
X048139Y021330D01*
X048139Y020700D02*
X046925Y020700D01*
X046725Y020900D01*
X046725Y021315D01*
X046725Y020900D02*
X045875Y020900D01*
X045825Y020850D01*
X045175Y020850D01*
X044617Y020293D01*
X044617Y016635D01*
X044617Y016643D01*
X044625Y016650D01*
X044175Y016650D01*
X044009Y016485D01*
X044009Y016250D01*
X043340Y016250D02*
X043325Y016250D01*
X042315Y017260D01*
X042075Y017260D01*
X041275Y016880D02*
X040745Y016880D01*
X040725Y016900D01*
X040735Y017640D02*
X040725Y017650D01*
X040735Y017640D02*
X041275Y017640D01*
X039975Y016900D02*
X039675Y016900D01*
X039575Y016800D01*
X039575Y016350D01*
X039440Y016215D01*
X039125Y016215D01*
X039125Y016885D02*
X039125Y016900D01*
X039109Y016885D01*
X038325Y016885D01*
X038325Y016900D01*
X038304Y016920D01*
X038304Y019145D01*
X038107Y019145D02*
X038107Y017633D01*
X037825Y017350D01*
X037825Y016850D01*
X038025Y016200D02*
X038325Y016200D01*
X038325Y016215D01*
X038325Y016200D02*
X038325Y015900D01*
X038475Y015750D01*
X039875Y015750D01*
X039975Y015850D01*
X039975Y016215D01*
X039975Y016885D02*
X039975Y016900D01*
X038025Y016200D02*
X037925Y016100D01*
X037925Y015800D01*
X037575Y015450D02*
X037225Y015800D01*
X037225Y018550D01*
X037123Y018652D01*
X037123Y019145D01*
X036926Y019145D02*
X036926Y018498D01*
X036975Y018450D01*
X036975Y015600D01*
X037425Y015150D01*
X044675Y015150D01*
X044932Y015407D01*
X044932Y015965D01*
X044617Y015965D02*
X044617Y015643D01*
X044425Y015450D01*
X037575Y015450D01*
X037075Y014800D02*
X041925Y014800D01*
X042368Y014357D01*
X042368Y014365D01*
X043982Y014365D01*
X044010Y014365D01*
X044025Y014350D01*
X043975Y013750D02*
X043960Y013735D01*
X042368Y013735D01*
X042368Y013307D01*
X042625Y013050D01*
X041475Y013250D02*
X040252Y014472D01*
X035359Y014472D01*
X035359Y014157D02*
X039517Y014157D01*
X040425Y013250D01*
X042368Y014357D02*
X042375Y014350D01*
X043975Y013750D02*
X043982Y013743D01*
X043982Y013735D01*
X045525Y010900D02*
X048425Y010900D01*
X048425Y010450D01*
X046075Y010450D01*
X046075Y009100D01*
X042575Y009100D01*
X042575Y005600D01*
X042075Y005600D01*
X042075Y009700D01*
X045525Y009700D01*
X045525Y010900D01*
X045525Y010891D02*
X048425Y010891D01*
X048425Y010792D02*
X045525Y010792D01*
X045525Y010694D02*
X048425Y010694D01*
X048425Y010595D02*
X045525Y010595D01*
X045525Y010497D02*
X048425Y010497D01*
X048425Y010150D02*
X048425Y009650D01*
X047075Y009650D01*
X047075Y005650D01*
X045975Y005650D01*
X045975Y006600D01*
X046475Y006600D01*
X046475Y010150D01*
X048425Y010150D01*
X048425Y010103D02*
X046475Y010103D01*
X046475Y010004D02*
X048425Y010004D01*
X048425Y009906D02*
X046475Y009906D01*
X046475Y009807D02*
X048425Y009807D01*
X048425Y009709D02*
X046475Y009709D01*
X046475Y009610D02*
X047075Y009610D01*
X047075Y009512D02*
X046475Y009512D01*
X046475Y009413D02*
X047075Y009413D01*
X047075Y009315D02*
X046475Y009315D01*
X046475Y009216D02*
X047075Y009216D01*
X047075Y009118D02*
X046475Y009118D01*
X046475Y009019D02*
X047075Y009019D01*
X047075Y008921D02*
X046475Y008921D01*
X046475Y008822D02*
X047075Y008822D01*
X047075Y008724D02*
X046475Y008724D01*
X046475Y008625D02*
X047075Y008625D01*
X047075Y008527D02*
X046475Y008527D01*
X046475Y008428D02*
X047075Y008428D01*
X047075Y008330D02*
X046475Y008330D01*
X046475Y008231D02*
X047075Y008231D01*
X047075Y008133D02*
X046475Y008133D01*
X046475Y008034D02*
X047075Y008034D01*
X047075Y007936D02*
X046475Y007936D01*
X046475Y007837D02*
X047075Y007837D01*
X047075Y007739D02*
X046475Y007739D01*
X046475Y007640D02*
X047075Y007640D01*
X047075Y007542D02*
X046475Y007542D01*
X046475Y007443D02*
X047075Y007443D01*
X047075Y007345D02*
X046475Y007345D01*
X046475Y007246D02*
X047075Y007246D01*
X047075Y007148D02*
X046475Y007148D01*
X046475Y007049D02*
X047075Y007049D01*
X047075Y006951D02*
X046475Y006951D01*
X046475Y006852D02*
X047075Y006852D01*
X047075Y006754D02*
X046475Y006754D01*
X046475Y006655D02*
X047075Y006655D01*
X047075Y006557D02*
X045975Y006557D01*
X045975Y006458D02*
X047075Y006458D01*
X047075Y006360D02*
X045975Y006360D01*
X045975Y006261D02*
X047075Y006261D01*
X047075Y006163D02*
X045975Y006163D01*
X045975Y006064D02*
X047075Y006064D01*
X047075Y005966D02*
X045975Y005966D01*
X045975Y005867D02*
X047075Y005867D01*
X047075Y005769D02*
X045975Y005769D01*
X045975Y005670D02*
X047075Y005670D01*
X048231Y007731D02*
X050006Y007731D01*
X050375Y008100D01*
X050375Y014100D01*
X049975Y014500D01*
X048775Y014500D01*
X048425Y011700D02*
X048425Y011250D01*
X038875Y011250D01*
X038875Y005600D01*
X038375Y005600D01*
X038375Y011700D01*
X048425Y011700D01*
X048425Y011679D02*
X038375Y011679D01*
X038375Y011580D02*
X048425Y011580D01*
X048425Y011482D02*
X038375Y011482D01*
X038375Y011383D02*
X048425Y011383D01*
X048425Y011285D02*
X038375Y011285D01*
X038375Y011186D02*
X038875Y011186D01*
X038875Y011088D02*
X038375Y011088D01*
X038375Y010989D02*
X038875Y010989D01*
X038875Y010891D02*
X038375Y010891D01*
X038375Y010792D02*
X038875Y010792D01*
X038875Y010694D02*
X038375Y010694D01*
X038375Y010595D02*
X038875Y010595D01*
X038875Y010497D02*
X038375Y010497D01*
X038375Y010398D02*
X038875Y010398D01*
X038875Y010300D02*
X038375Y010300D01*
X038375Y010201D02*
X038875Y010201D01*
X038875Y010103D02*
X038375Y010103D01*
X038375Y010004D02*
X038875Y010004D01*
X038875Y009906D02*
X038375Y009906D01*
X038375Y009807D02*
X038875Y009807D01*
X038875Y009709D02*
X038375Y009709D01*
X038375Y009610D02*
X038875Y009610D01*
X038875Y009512D02*
X038375Y009512D01*
X038375Y009413D02*
X038875Y009413D01*
X038875Y009315D02*
X038375Y009315D01*
X038375Y009216D02*
X038875Y009216D01*
X038875Y009118D02*
X038375Y009118D01*
X038375Y009019D02*
X038875Y009019D01*
X038875Y008921D02*
X038375Y008921D01*
X038375Y008822D02*
X038875Y008822D01*
X038875Y008724D02*
X038375Y008724D01*
X038375Y008625D02*
X038875Y008625D01*
X038875Y008527D02*
X038375Y008527D01*
X038375Y008428D02*
X038875Y008428D01*
X038875Y008330D02*
X038375Y008330D01*
X038375Y008231D02*
X038875Y008231D01*
X038875Y008133D02*
X038375Y008133D01*
X038375Y008034D02*
X038875Y008034D01*
X038875Y007936D02*
X038375Y007936D01*
X038375Y007837D02*
X038875Y007837D01*
X038875Y007739D02*
X038375Y007739D01*
X038375Y007640D02*
X038875Y007640D01*
X038875Y007542D02*
X038375Y007542D01*
X038375Y007443D02*
X038875Y007443D01*
X038875Y007345D02*
X038375Y007345D01*
X038375Y007246D02*
X038875Y007246D01*
X038875Y007148D02*
X038375Y007148D01*
X038375Y007049D02*
X038875Y007049D01*
X038875Y006951D02*
X038375Y006951D01*
X038375Y006852D02*
X038875Y006852D01*
X038875Y006754D02*
X038375Y006754D01*
X038375Y006655D02*
X038875Y006655D01*
X038875Y006557D02*
X038375Y006557D01*
X038375Y006458D02*
X038875Y006458D01*
X038875Y006360D02*
X038375Y006360D01*
X038375Y006261D02*
X038875Y006261D01*
X038875Y006163D02*
X038375Y006163D01*
X038375Y006064D02*
X038875Y006064D01*
X038875Y005966D02*
X038375Y005966D01*
X038375Y005867D02*
X038875Y005867D01*
X038875Y005769D02*
X038375Y005769D01*
X038375Y005670D02*
X038875Y005670D01*
X037825Y006150D02*
X036125Y006150D01*
X036125Y007600D01*
X037825Y007600D01*
X037825Y006150D01*
X037825Y006163D02*
X036125Y006163D01*
X036125Y006261D02*
X037825Y006261D01*
X037825Y006360D02*
X036125Y006360D01*
X036125Y006458D02*
X037825Y006458D01*
X037825Y006557D02*
X036125Y006557D01*
X036125Y006655D02*
X037825Y006655D01*
X037825Y006754D02*
X036125Y006754D01*
X036125Y006852D02*
X037825Y006852D01*
X037825Y006951D02*
X036125Y006951D01*
X036125Y007049D02*
X037825Y007049D01*
X037825Y007148D02*
X036125Y007148D01*
X036125Y007246D02*
X037825Y007246D01*
X037825Y007345D02*
X036125Y007345D01*
X036125Y007443D02*
X037825Y007443D01*
X037825Y007542D02*
X036125Y007542D01*
X036075Y004800D02*
X037875Y004800D01*
X037875Y003300D01*
X036075Y003300D01*
X036075Y004800D01*
X036075Y004784D02*
X037875Y004784D01*
X037875Y004685D02*
X036075Y004685D01*
X036075Y004587D02*
X037875Y004587D01*
X037875Y004488D02*
X036075Y004488D01*
X036075Y004390D02*
X037875Y004390D01*
X037875Y004291D02*
X036075Y004291D01*
X036075Y004193D02*
X037875Y004193D01*
X037875Y004094D02*
X036075Y004094D01*
X036075Y003996D02*
X037875Y003996D01*
X037875Y003897D02*
X036075Y003897D01*
X036075Y003799D02*
X037875Y003799D01*
X037875Y003700D02*
X036075Y003700D01*
X036075Y003601D02*
X037875Y003601D01*
X037875Y003503D02*
X036075Y003503D01*
X036075Y003404D02*
X037875Y003404D01*
X037875Y003306D02*
X036075Y003306D01*
X032525Y004150D02*
X030825Y004150D01*
X030825Y006100D01*
X028405Y006100D01*
X028367Y006138D01*
X028242Y006190D01*
X027457Y006190D01*
X027332Y006138D01*
X027294Y006100D01*
X024475Y006100D01*
X024475Y010250D01*
X027725Y010250D01*
X027725Y007650D01*
X032525Y007650D01*
X032525Y004150D01*
X032525Y004193D02*
X030825Y004193D01*
X030825Y004291D02*
X032525Y004291D01*
X032525Y004390D02*
X030825Y004390D01*
X030825Y004488D02*
X032525Y004488D01*
X032525Y004587D02*
X030825Y004587D01*
X030825Y004685D02*
X032525Y004685D01*
X032525Y004784D02*
X030825Y004784D01*
X030825Y004882D02*
X032525Y004882D01*
X032525Y004981D02*
X030825Y004981D01*
X030825Y005079D02*
X032525Y005079D01*
X032525Y005178D02*
X030825Y005178D01*
X030825Y005276D02*
X032525Y005276D01*
X032525Y005375D02*
X030825Y005375D01*
X030825Y005473D02*
X032525Y005473D01*
X032525Y005572D02*
X030825Y005572D01*
X030825Y005670D02*
X032525Y005670D01*
X032525Y005769D02*
X030825Y005769D01*
X030825Y005867D02*
X032525Y005867D01*
X032525Y005966D02*
X030825Y005966D01*
X030825Y006064D02*
X032525Y006064D01*
X032525Y006163D02*
X028309Y006163D01*
X028175Y005850D02*
X028725Y005300D01*
X028725Y004300D01*
X028725Y003300D01*
X027975Y003300D01*
X026975Y004300D02*
X026975Y005300D01*
X027525Y005850D01*
X028175Y005850D01*
X027391Y006163D02*
X024475Y006163D01*
X024475Y006261D02*
X032525Y006261D01*
X032525Y006360D02*
X024475Y006360D01*
X024475Y006458D02*
X032525Y006458D01*
X032525Y006557D02*
X024475Y006557D01*
X024475Y006655D02*
X032525Y006655D01*
X032525Y006754D02*
X024475Y006754D01*
X024475Y006852D02*
X032525Y006852D01*
X032525Y006951D02*
X024475Y006951D01*
X024475Y007049D02*
X032525Y007049D01*
X032525Y007148D02*
X024475Y007148D01*
X024475Y007246D02*
X032525Y007246D01*
X032525Y007345D02*
X024475Y007345D01*
X024475Y007443D02*
X032525Y007443D01*
X032525Y007542D02*
X024475Y007542D01*
X024475Y007640D02*
X032525Y007640D01*
X029925Y010450D02*
X029625Y010150D01*
X029925Y010450D02*
X029925Y011330D01*
X029895Y011300D01*
X028895Y011300D01*
X028925Y011330D01*
X028895Y011300D02*
X028875Y011300D01*
X027725Y010201D02*
X024475Y010201D01*
X024475Y010103D02*
X027725Y010103D01*
X027725Y010004D02*
X024475Y010004D01*
X024475Y009906D02*
X027725Y009906D01*
X027725Y009807D02*
X024475Y009807D01*
X024475Y009709D02*
X027725Y009709D01*
X027725Y009610D02*
X024475Y009610D01*
X024475Y009512D02*
X027725Y009512D01*
X027725Y009413D02*
X024475Y009413D01*
X024475Y009315D02*
X027725Y009315D01*
X027725Y009216D02*
X024475Y009216D01*
X024475Y009118D02*
X027725Y009118D01*
X027725Y009019D02*
X024475Y009019D01*
X024475Y008921D02*
X027725Y008921D01*
X027725Y008822D02*
X024475Y008822D01*
X024475Y008724D02*
X027725Y008724D01*
X027725Y008625D02*
X024475Y008625D01*
X024475Y008527D02*
X027725Y008527D01*
X027725Y008428D02*
X024475Y008428D01*
X024475Y008330D02*
X027725Y008330D01*
X027725Y008231D02*
X024475Y008231D01*
X024475Y008133D02*
X027725Y008133D01*
X027725Y008034D02*
X024475Y008034D01*
X024475Y007936D02*
X027725Y007936D01*
X027725Y007837D02*
X024475Y007837D01*
X024475Y007739D02*
X027725Y007739D01*
X026975Y005350D02*
X026975Y005300D01*
X024125Y007350D02*
X024125Y010700D01*
X024325Y010700D01*
X024325Y013300D01*
X021675Y013300D01*
X021675Y010350D01*
X022575Y010350D01*
X022575Y007350D01*
X024125Y007350D01*
X024125Y007443D02*
X022575Y007443D01*
X022575Y007542D02*
X024125Y007542D01*
X024125Y007640D02*
X022575Y007640D01*
X022575Y007739D02*
X024125Y007739D01*
X024125Y007837D02*
X022575Y007837D01*
X022575Y007936D02*
X024125Y007936D01*
X024125Y008034D02*
X022575Y008034D01*
X022575Y008133D02*
X024125Y008133D01*
X024125Y008231D02*
X022575Y008231D01*
X022575Y008330D02*
X024125Y008330D01*
X024125Y008428D02*
X022575Y008428D01*
X022575Y008527D02*
X024125Y008527D01*
X024125Y008625D02*
X022575Y008625D01*
X022575Y008724D02*
X024125Y008724D01*
X024125Y008822D02*
X022575Y008822D01*
X022575Y008921D02*
X024125Y008921D01*
X024125Y009019D02*
X022575Y009019D01*
X022575Y009118D02*
X024125Y009118D01*
X024125Y009216D02*
X022575Y009216D01*
X022575Y009315D02*
X024125Y009315D01*
X024125Y009413D02*
X022575Y009413D01*
X022575Y009512D02*
X024125Y009512D01*
X024125Y009610D02*
X022575Y009610D01*
X022575Y009709D02*
X024125Y009709D01*
X024125Y009807D02*
X022575Y009807D01*
X022575Y009906D02*
X024125Y009906D01*
X024125Y010004D02*
X022575Y010004D01*
X022575Y010103D02*
X024125Y010103D01*
X024125Y010201D02*
X022575Y010201D01*
X022575Y010300D02*
X024125Y010300D01*
X024125Y010398D02*
X021675Y010398D01*
X021675Y010497D02*
X024125Y010497D01*
X024125Y010595D02*
X021675Y010595D01*
X021675Y010694D02*
X024125Y010694D01*
X024325Y010792D02*
X021675Y010792D01*
X021675Y010891D02*
X024325Y010891D01*
X024325Y010989D02*
X021675Y010989D01*
X021675Y011088D02*
X024325Y011088D01*
X024325Y011186D02*
X021675Y011186D01*
X021675Y011285D02*
X024325Y011285D01*
X024325Y011383D02*
X021675Y011383D01*
X021675Y011482D02*
X024325Y011482D01*
X024325Y011580D02*
X021675Y011580D01*
X021675Y011679D02*
X024325Y011679D01*
X024325Y011777D02*
X021675Y011777D01*
X021675Y011876D02*
X024325Y011876D01*
X024325Y011974D02*
X021675Y011974D01*
X021675Y012073D02*
X024325Y012073D01*
X024325Y012171D02*
X021675Y012171D01*
X021675Y012270D02*
X024325Y012270D01*
X024325Y012368D02*
X021675Y012368D01*
X021675Y012467D02*
X024325Y012467D01*
X024325Y012565D02*
X021675Y012565D01*
X021675Y012664D02*
X024325Y012664D01*
X024325Y012762D02*
X021675Y012762D01*
X021675Y012861D02*
X024325Y012861D01*
X024325Y012959D02*
X021675Y012959D01*
X021675Y013058D02*
X024325Y013058D01*
X024325Y013156D02*
X021675Y013156D01*
X021675Y013255D02*
X024325Y013255D01*
X021647Y013622D02*
X021225Y013200D01*
X021225Y010500D01*
X020575Y009850D01*
X020575Y006488D01*
X018725Y004638D01*
X018725Y005425D02*
X020275Y006975D01*
X020275Y009900D01*
X021025Y010650D01*
X021025Y013350D01*
X021332Y013657D01*
X021332Y013965D01*
X021017Y013965D02*
X021017Y013643D01*
X020825Y013450D01*
X020825Y010800D01*
X020025Y010000D01*
X020025Y007350D01*
X018925Y006250D01*
X018725Y006250D01*
X018725Y006213D01*
X018725Y007000D02*
X019775Y008050D01*
X019775Y010050D01*
X020625Y010900D01*
X020625Y013600D01*
X020702Y013678D01*
X020702Y013965D01*
X021647Y013965D02*
X021647Y013622D01*
X018540Y013307D02*
X018267Y013307D01*
X018125Y013450D01*
X017125Y013450D01*
X016925Y013250D01*
X017975Y013150D02*
X018132Y012993D01*
X018540Y012993D01*
X015688Y015887D02*
X015675Y015900D01*
X015575Y016500D02*
X015690Y016615D01*
X016471Y016615D01*
X017383Y017884D02*
X023765Y017884D01*
X023760Y017983D02*
X017463Y017983D01*
X017490Y018081D02*
X023792Y018081D01*
X023886Y018180D02*
X017478Y018180D01*
X017421Y018278D02*
X023822Y018278D01*
X023768Y018377D02*
X017075Y018377D01*
X017075Y018475D02*
X023760Y018475D01*
X023789Y018574D02*
X017423Y018574D01*
X017479Y018672D02*
X023872Y018672D01*
X024025Y018450D02*
X024061Y018387D01*
X024818Y018387D01*
X024818Y018584D02*
X026041Y018584D01*
X026875Y017750D01*
X026875Y015750D01*
X026075Y017250D02*
X025922Y017403D01*
X024818Y017403D01*
X024818Y016615D02*
X024109Y016615D01*
X024025Y016700D01*
X024025Y017950D02*
X024265Y018190D01*
X024818Y018190D01*
X024818Y017993D02*
X025468Y017993D01*
X025625Y018150D01*
X025775Y019000D02*
X025600Y019174D01*
X024818Y019174D01*
X024818Y018977D02*
X024152Y018977D01*
X024125Y018950D01*
X024175Y018968D02*
X017382Y018968D01*
X017462Y018869D02*
X024175Y018869D01*
X024175Y018771D02*
X017490Y018771D01*
X017225Y018780D02*
X017225Y018750D01*
X017225Y018780D02*
X016471Y018780D01*
X017075Y019066D02*
X024175Y019066D01*
X024175Y019165D02*
X017075Y019165D01*
X017075Y019263D02*
X024175Y019263D01*
X024175Y019362D02*
X017075Y019362D01*
X017075Y019460D02*
X024175Y019460D01*
X024175Y019559D02*
X017075Y019559D01*
X017075Y019657D02*
X024175Y019657D01*
X024175Y019756D02*
X017405Y019756D01*
X017472Y019854D02*
X024175Y019854D01*
X024175Y020445D02*
X017075Y020445D01*
X017075Y020544D02*
X024175Y020544D01*
X024175Y020642D02*
X017075Y020642D01*
X017075Y020741D02*
X024175Y020741D01*
X024175Y020839D02*
X017075Y020839D01*
X017075Y020938D02*
X023862Y020938D01*
X023785Y021036D02*
X017075Y021036D01*
X017075Y021135D02*
X023760Y021135D01*
X023772Y021233D02*
X017075Y021233D01*
X017075Y021332D02*
X023831Y021332D01*
X024025Y021150D02*
X024214Y021340D01*
X024818Y021340D01*
X024818Y021143D02*
X024032Y021143D01*
X024025Y021150D01*
X024078Y021430D02*
X017075Y021430D01*
X017225Y021150D02*
X017217Y021143D01*
X016471Y021143D01*
X016471Y021340D02*
X012935Y021340D01*
X011675Y022600D01*
X011175Y022600D02*
X012829Y020946D01*
X016471Y020946D01*
X016471Y020749D02*
X012376Y020749D01*
X011775Y021350D01*
X011725Y020900D02*
X012072Y020552D01*
X016471Y020552D01*
X016471Y020355D02*
X011719Y020355D01*
X011525Y020550D01*
X011175Y020300D02*
X011316Y020158D01*
X016471Y020158D01*
X016471Y021536D02*
X013388Y021536D01*
X011775Y023150D01*
X011825Y023750D02*
X013645Y021930D01*
X016471Y021930D01*
X016471Y021733D02*
X017208Y021733D01*
X017225Y021750D01*
X017427Y021923D02*
X019510Y021923D01*
X019510Y021897D02*
X019550Y021800D01*
X019624Y021725D01*
X019722Y021685D01*
X019827Y021685D01*
X019925Y021725D01*
X019999Y021800D01*
X020040Y021897D01*
X020040Y022003D01*
X019999Y022100D01*
X019925Y022175D01*
X019827Y022215D01*
X019722Y022215D01*
X019624Y022175D01*
X019550Y022100D01*
X019510Y022003D01*
X019510Y021897D01*
X019540Y021824D02*
X017481Y021824D01*
X017490Y021726D02*
X019624Y021726D01*
X019925Y021726D02*
X024175Y021726D01*
X024175Y021824D02*
X020009Y021824D01*
X020040Y021923D02*
X023827Y021923D01*
X023770Y022021D02*
X020032Y022021D01*
X019980Y022120D02*
X023760Y022120D01*
X023787Y022218D02*
X017417Y022218D01*
X017477Y022317D02*
X023866Y022317D01*
X024175Y021627D02*
X017461Y021627D01*
X017378Y021529D02*
X024175Y021529D01*
X024175Y023105D02*
X017075Y023105D01*
X017075Y022120D02*
X019569Y022120D01*
X019517Y022021D02*
X017075Y022021D01*
X016471Y022127D02*
X014048Y022127D01*
X012375Y023800D01*
X010775Y023794D02*
X009825Y023794D01*
X009825Y023696D02*
X010775Y023696D01*
X010775Y023597D02*
X009825Y023597D01*
X009825Y023499D02*
X010775Y023499D01*
X010775Y023400D02*
X009825Y023400D01*
X009825Y023302D02*
X010775Y023302D01*
X010775Y023203D02*
X009825Y023203D01*
X009825Y023105D02*
X010775Y023105D01*
X010775Y023006D02*
X009825Y023006D01*
X009825Y022908D02*
X010775Y022908D01*
X010775Y022850D02*
X010775Y023950D01*
X009825Y023950D01*
X009825Y022850D01*
X010775Y022850D01*
X009975Y021700D02*
X009975Y020250D01*
X008575Y020250D01*
X008575Y021700D01*
X009975Y021700D01*
X009975Y021627D02*
X008575Y021627D01*
X008575Y021529D02*
X009975Y021529D01*
X009975Y021430D02*
X008575Y021430D01*
X008575Y021332D02*
X009975Y021332D01*
X009975Y021233D02*
X008575Y021233D01*
X008575Y021135D02*
X009975Y021135D01*
X009975Y021036D02*
X008575Y021036D01*
X008575Y020938D02*
X009975Y020938D01*
X009975Y020839D02*
X008575Y020839D01*
X008575Y020741D02*
X009975Y020741D01*
X009975Y020642D02*
X008575Y020642D01*
X008575Y020544D02*
X009975Y020544D01*
X009975Y020445D02*
X008575Y020445D01*
X008575Y020347D02*
X009975Y020347D01*
X007575Y022550D02*
X004675Y022550D01*
X004675Y025250D01*
X007575Y025250D01*
X007575Y022550D01*
X007575Y022612D02*
X004675Y022612D01*
X004675Y022711D02*
X007575Y022711D01*
X007575Y022809D02*
X004675Y022809D01*
X004675Y022908D02*
X007575Y022908D01*
X007575Y023006D02*
X004675Y023006D01*
X004675Y023105D02*
X007575Y023105D01*
X007575Y023203D02*
X004675Y023203D01*
X004675Y023302D02*
X007575Y023302D01*
X007575Y023400D02*
X004675Y023400D01*
X004675Y023499D02*
X007575Y023499D01*
X007575Y023597D02*
X004675Y023597D01*
X004675Y023696D02*
X007575Y023696D01*
X007575Y023794D02*
X004675Y023794D01*
X004675Y023893D02*
X007575Y023893D01*
X007575Y023991D02*
X004675Y023991D01*
X004675Y024090D02*
X007575Y024090D01*
X007575Y024188D02*
X004675Y024188D01*
X004675Y024287D02*
X007575Y024287D01*
X007575Y024385D02*
X004675Y024385D01*
X004675Y024484D02*
X007575Y024484D01*
X007575Y024582D02*
X004675Y024582D01*
X004675Y024681D02*
X007575Y024681D01*
X007575Y024779D02*
X004675Y024779D01*
X004675Y024878D02*
X007575Y024878D01*
X007575Y024976D02*
X004675Y024976D01*
X004675Y025075D02*
X007575Y025075D01*
X007575Y025173D02*
X004675Y025173D01*
X003725Y024600D02*
X003725Y024000D01*
X003725Y023606D02*
X002468Y023606D01*
X002325Y023750D01*
X002325Y023350D02*
X002462Y023213D01*
X003725Y023213D01*
X003725Y022819D02*
X002456Y022819D01*
X002325Y022950D01*
X002325Y022500D02*
X002399Y022425D01*
X003725Y022425D01*
X003725Y022031D02*
X002393Y022031D01*
X002325Y022100D01*
X002325Y021650D02*
X002337Y021638D01*
X003725Y021638D01*
X003725Y021244D02*
X003725Y020700D01*
X009825Y023893D02*
X010775Y023893D01*
X009225Y026550D02*
X009205Y026570D01*
X008579Y026570D01*
X008569Y028420D02*
X009205Y028420D01*
X009225Y028400D01*
X012375Y028500D02*
X012375Y027900D01*
X013032Y027243D01*
X016340Y027243D01*
X016340Y027557D02*
X015317Y027557D01*
X014225Y028650D01*
X014752Y026928D02*
X014725Y026900D01*
X014752Y026928D02*
X016340Y026928D01*
X017009Y026928D02*
X017347Y026928D01*
X017593Y026681D01*
X017593Y024233D01*
X017397Y024233D02*
X017397Y025978D01*
X017075Y026300D01*
X016975Y025750D02*
X017200Y025525D01*
X017200Y024233D01*
X017790Y024233D02*
X017790Y026884D01*
X017432Y027243D01*
X017009Y027243D01*
X017009Y027557D02*
X017567Y027557D01*
X017987Y027137D01*
X017987Y024233D01*
X018184Y024233D02*
X018184Y027291D01*
X017602Y027872D01*
X017009Y027872D01*
X016340Y027872D02*
X016340Y028535D01*
X016325Y028550D01*
X016525Y029500D02*
X016525Y038200D01*
X016025Y038700D01*
X013175Y038700D01*
X012125Y039750D01*
X010275Y039750D01*
X008125Y041900D01*
X006775Y041900D01*
X006765Y041890D01*
X010125Y038900D02*
X012175Y038900D01*
X012175Y037400D01*
X010125Y037400D01*
X010125Y038900D01*
X010125Y038865D02*
X012175Y038865D01*
X012175Y038766D02*
X010125Y038766D01*
X010125Y038668D02*
X012175Y038668D01*
X012175Y038569D02*
X010125Y038569D01*
X010125Y038471D02*
X012175Y038471D01*
X012175Y038372D02*
X010125Y038372D01*
X010125Y038274D02*
X012175Y038274D01*
X012175Y038175D02*
X010125Y038175D01*
X010125Y038077D02*
X012175Y038077D01*
X012175Y037978D02*
X010125Y037978D01*
X010125Y037880D02*
X012175Y037880D01*
X012175Y037781D02*
X010125Y037781D01*
X010125Y037683D02*
X012175Y037683D01*
X012175Y037584D02*
X010125Y037584D01*
X010125Y037486D02*
X012175Y037486D01*
X013125Y036500D02*
X013625Y036500D01*
X013625Y033300D01*
X003475Y033300D01*
X003475Y033750D01*
X013125Y033750D01*
X013125Y036500D01*
X013125Y036402D02*
X013625Y036402D01*
X013625Y036304D02*
X013125Y036304D01*
X013125Y036205D02*
X013625Y036205D01*
X013625Y036107D02*
X013125Y036107D01*
X013125Y036008D02*
X013625Y036008D01*
X013625Y035910D02*
X013125Y035910D01*
X013125Y035811D02*
X013625Y035811D01*
X013625Y035713D02*
X013125Y035713D01*
X013125Y035614D02*
X013625Y035614D01*
X013625Y035516D02*
X013125Y035516D01*
X013125Y035417D02*
X013625Y035417D01*
X013625Y035319D02*
X013125Y035319D01*
X013125Y035220D02*
X013625Y035220D01*
X013625Y035122D02*
X013125Y035122D01*
X013125Y035023D02*
X013625Y035023D01*
X013625Y034925D02*
X013125Y034925D01*
X013125Y034826D02*
X013625Y034826D01*
X013625Y034728D02*
X013125Y034728D01*
X013125Y034629D02*
X013625Y034629D01*
X013625Y034531D02*
X013125Y034531D01*
X013125Y034432D02*
X013625Y034432D01*
X013625Y034334D02*
X013125Y034334D01*
X013125Y034235D02*
X013625Y034235D01*
X013625Y034137D02*
X013125Y034137D01*
X013125Y034038D02*
X013625Y034038D01*
X013625Y033940D02*
X013125Y033940D01*
X013125Y033841D02*
X013625Y033841D01*
X013625Y033743D02*
X003475Y033743D01*
X003475Y033644D02*
X013625Y033644D01*
X013625Y033546D02*
X003475Y033546D01*
X003475Y033447D02*
X013625Y033447D01*
X013625Y033349D02*
X003475Y033349D01*
X003475Y034100D02*
X003475Y034550D01*
X006600Y034550D01*
X006624Y034525D01*
X006722Y034485D01*
X006827Y034485D01*
X006925Y034525D01*
X006949Y034550D01*
X007300Y034550D01*
X007324Y034525D01*
X007422Y034485D01*
X007527Y034485D01*
X007625Y034525D01*
X007649Y034550D01*
X007900Y034550D01*
X007924Y034525D01*
X008022Y034485D01*
X008127Y034485D01*
X008225Y034525D01*
X008249Y034550D01*
X009375Y034550D01*
X009375Y036550D01*
X009875Y036550D01*
X009875Y034100D01*
X003475Y034100D01*
X003475Y034137D02*
X009875Y034137D01*
X009875Y034235D02*
X003475Y034235D01*
X003475Y034334D02*
X009875Y034334D01*
X009875Y034432D02*
X003475Y034432D01*
X003475Y034531D02*
X006619Y034531D01*
X006930Y034531D02*
X007319Y034531D01*
X007630Y034531D02*
X007919Y034531D01*
X008230Y034531D02*
X009875Y034531D01*
X009875Y034629D02*
X009375Y034629D01*
X009375Y034728D02*
X009875Y034728D01*
X009875Y034826D02*
X009375Y034826D01*
X009375Y034925D02*
X009875Y034925D01*
X009875Y035023D02*
X009375Y035023D01*
X009375Y035122D02*
X009875Y035122D01*
X009875Y035220D02*
X009375Y035220D01*
X009375Y035319D02*
X009875Y035319D01*
X009875Y035417D02*
X009375Y035417D01*
X009375Y035516D02*
X009875Y035516D01*
X009875Y035614D02*
X009375Y035614D01*
X009375Y035713D02*
X009875Y035713D01*
X009875Y035811D02*
X009375Y035811D01*
X009375Y035910D02*
X009875Y035910D01*
X009875Y036008D02*
X009375Y036008D01*
X009375Y036107D02*
X009875Y036107D01*
X009875Y036205D02*
X009375Y036205D01*
X009375Y036304D02*
X009875Y036304D01*
X009875Y036402D02*
X009375Y036402D01*
X009375Y036501D02*
X009875Y036501D01*
X010275Y036200D02*
X012025Y036200D01*
X012025Y034550D01*
X010275Y034550D01*
X010275Y036200D01*
X010275Y036107D02*
X012025Y036107D01*
X012025Y036008D02*
X010275Y036008D01*
X010275Y035910D02*
X012025Y035910D01*
X012025Y035811D02*
X010275Y035811D01*
X010275Y035713D02*
X012025Y035713D01*
X012025Y035614D02*
X010275Y035614D01*
X010275Y035516D02*
X012025Y035516D01*
X012025Y035417D02*
X010275Y035417D01*
X010275Y035319D02*
X012025Y035319D01*
X012025Y035220D02*
X010275Y035220D01*
X010275Y035122D02*
X012025Y035122D01*
X012025Y035023D02*
X010275Y035023D01*
X010275Y034925D02*
X012025Y034925D01*
X012025Y034826D02*
X010275Y034826D01*
X010275Y034728D02*
X012025Y034728D01*
X012025Y034629D02*
X010275Y034629D01*
X006075Y034850D02*
X003475Y034850D01*
X003475Y035350D01*
X005625Y035350D01*
X005625Y036550D01*
X006075Y036550D01*
X006075Y034850D01*
X006075Y034925D02*
X003475Y034925D01*
X003475Y035023D02*
X006075Y035023D01*
X006075Y035122D02*
X003475Y035122D01*
X003475Y035220D02*
X006075Y035220D01*
X006075Y035319D02*
X003475Y035319D01*
X003719Y035694D02*
X004368Y035694D01*
X004475Y035800D01*
X003719Y036087D02*
X002962Y036087D01*
X002775Y035900D01*
X002475Y036300D02*
X002656Y036481D01*
X003719Y036481D01*
X003719Y036875D02*
X002349Y036875D01*
X002125Y036650D01*
X003719Y037269D02*
X003719Y037894D01*
X003725Y037900D01*
X005625Y036501D02*
X006075Y036501D01*
X006075Y036402D02*
X005625Y036402D01*
X005625Y036304D02*
X006075Y036304D01*
X006075Y036205D02*
X005625Y036205D01*
X005625Y036107D02*
X006075Y036107D01*
X006075Y036008D02*
X005625Y036008D01*
X005625Y035910D02*
X006075Y035910D01*
X006075Y035811D02*
X005625Y035811D01*
X005625Y035713D02*
X006075Y035713D01*
X006075Y035614D02*
X005625Y035614D01*
X005625Y035516D02*
X006075Y035516D01*
X006075Y035417D02*
X005625Y035417D01*
X014075Y039450D02*
X014075Y040000D01*
X014075Y039450D02*
X014375Y039150D01*
X016875Y039150D01*
X017175Y038850D01*
X017175Y031100D01*
X019575Y028700D01*
X022325Y028700D01*
X023225Y029600D01*
X023225Y030350D01*
X022275Y029750D02*
X021290Y030735D01*
X021290Y032150D01*
X021275Y032150D01*
X021017Y032408D01*
X021017Y033063D01*
X020820Y033063D02*
X020820Y031395D01*
X020775Y031350D01*
X020809Y031350D01*
X020809Y030065D01*
X021475Y029400D01*
X020875Y029000D02*
X019875Y030000D01*
X019875Y030450D01*
X020125Y032200D02*
X020229Y032305D01*
X020229Y033063D01*
X019737Y033358D02*
X019332Y033358D01*
X019325Y033350D01*
X019140Y033350D01*
X018925Y033565D01*
X018925Y034200D02*
X018875Y034250D01*
X018925Y034250D02*
X019017Y034342D01*
X019737Y034342D01*
X019537Y034637D02*
X019225Y034950D01*
X019537Y034637D02*
X020032Y034637D01*
X020229Y034637D02*
X020229Y034945D01*
X020125Y035050D01*
X019775Y035050D01*
X019675Y035150D01*
X019675Y035500D01*
X019725Y035550D01*
X019690Y035500D01*
X019575Y035900D02*
X019575Y036200D01*
X019675Y036300D01*
X019575Y035900D02*
X020675Y035900D01*
X020820Y035755D01*
X020820Y034637D01*
X020820Y034645D01*
X020812Y034637D01*
X020623Y034637D01*
X020426Y034637D02*
X020426Y035448D01*
X020325Y035550D01*
X020359Y035500D01*
X019575Y035900D02*
X018125Y035900D01*
X018740Y036800D02*
X019590Y036800D01*
X019575Y036915D01*
X019590Y036815D01*
X019625Y036850D01*
X020172Y036850D01*
X020241Y037322D02*
X020241Y037784D01*
X020225Y037800D01*
X021008Y037322D02*
X021008Y038384D01*
X021025Y038400D01*
X021077Y036850D02*
X021675Y036850D01*
X021875Y036650D01*
X021875Y034550D01*
X021675Y034350D01*
X021325Y034350D01*
X021317Y034342D01*
X021312Y034342D01*
X021017Y034637D02*
X021025Y034645D01*
X021025Y036394D01*
X021008Y036378D01*
X021025Y036394D02*
X021025Y036400D01*
X019625Y036800D02*
X019590Y036800D01*
X019575Y036850D02*
X019625Y036850D01*
X019575Y036850D02*
X019575Y036915D01*
X018740Y036800D02*
X018725Y036915D01*
X018725Y037450D02*
X018725Y037585D01*
X020825Y034650D02*
X020820Y034645D01*
X018925Y034250D02*
X018925Y034235D01*
X018925Y034200D01*
X020125Y032200D02*
X020159Y032200D01*
X017675Y029200D02*
X018475Y028400D01*
X018475Y026900D01*
X018775Y026600D01*
X018575Y026100D02*
X018578Y026097D01*
X018578Y024233D01*
X018381Y024233D02*
X018381Y023456D01*
X018375Y023450D01*
X019168Y024233D02*
X019168Y027206D01*
X018925Y027450D01*
X019275Y027850D02*
X019365Y027760D01*
X019365Y024233D01*
X019562Y024233D02*
X019562Y027587D01*
X020375Y028400D01*
X021325Y028400D02*
X023275Y028400D01*
X023575Y028700D01*
X021325Y028400D02*
X019759Y026834D01*
X019759Y024233D01*
X020951Y023597D02*
X022347Y023597D01*
X022279Y023499D02*
X020990Y023499D01*
X020990Y023400D02*
X022260Y023400D01*
X022279Y023302D02*
X020950Y023302D01*
X020821Y023203D02*
X022347Y023203D01*
X022702Y023203D02*
X023928Y023203D01*
X023799Y023302D02*
X022771Y023302D01*
X022908Y023616D02*
X023125Y023400D01*
X022908Y023616D02*
X022908Y024233D01*
X022318Y024233D02*
X022318Y025793D01*
X022475Y025950D01*
X034575Y025950D01*
X036275Y027650D01*
X040625Y027650D01*
X041725Y028750D01*
X038925Y028150D02*
X038725Y027950D01*
X036225Y027950D01*
X034425Y026150D01*
X022325Y026150D01*
X022121Y025946D01*
X022121Y024233D01*
X021924Y024233D02*
X021924Y026150D01*
X022125Y026350D01*
X033525Y026350D01*
X035475Y028300D01*
X038625Y028300D01*
X038075Y026400D02*
X037320Y025645D01*
X037320Y023555D01*
X037517Y023555D02*
X037517Y025242D01*
X037675Y025400D01*
X038575Y026300D01*
X043425Y026300D01*
X044081Y025644D01*
X044081Y025001D01*
X044278Y025001D02*
X044278Y024653D01*
X044275Y024650D01*
X044275Y024500D01*
X044225Y024550D01*
X044275Y024500D02*
X044475Y024300D01*
X044868Y024694D01*
X044868Y024706D01*
X044875Y024700D01*
X044868Y024706D02*
X044868Y025001D01*
X044671Y025001D02*
X044671Y025197D01*
X044975Y025500D01*
X044975Y025750D01*
X044990Y025750D01*
X044475Y025450D02*
X044475Y025001D01*
X043774Y024694D02*
X043181Y024694D01*
X042375Y025500D01*
X038275Y025500D01*
X037714Y024939D01*
X037714Y023555D01*
X037910Y023555D02*
X037910Y024636D01*
X038375Y025100D01*
X038225Y024450D02*
X040725Y024450D01*
X042075Y024300D02*
X043774Y024300D01*
X043774Y024497D02*
X042728Y024497D01*
X042375Y024850D01*
X042075Y024300D02*
X040601Y022826D01*
X039229Y022826D01*
X039229Y022630D02*
X041095Y022630D01*
X041125Y022600D01*
X040875Y022050D02*
X040492Y022433D01*
X039229Y022433D01*
X039229Y022039D02*
X038586Y022039D01*
X038575Y022050D01*
X038778Y021879D02*
X038804Y021879D01*
X038804Y021412D01*
X038788Y021412D01*
X038725Y021475D01*
X038627Y021515D01*
X038522Y021515D01*
X038424Y021475D01*
X038350Y021400D01*
X038310Y021303D01*
X038310Y021197D01*
X038350Y021100D01*
X038424Y021025D01*
X038522Y020985D01*
X038627Y020985D01*
X038725Y021025D01*
X038791Y021092D01*
X038860Y021092D01*
X038869Y021083D01*
X038875Y021083D01*
X038875Y021027D01*
X038869Y021027D01*
X038804Y020962D01*
X038804Y020238D01*
X038799Y020250D01*
X038725Y020325D01*
X038627Y020365D01*
X038522Y020365D01*
X038424Y020325D01*
X038350Y020250D01*
X038310Y020153D01*
X038310Y020047D01*
X038350Y019950D01*
X038424Y019875D01*
X038522Y019835D01*
X038627Y019835D01*
X038725Y019875D01*
X038760Y019910D01*
X038860Y019910D01*
X038869Y019901D01*
X038875Y019901D01*
X038875Y019450D01*
X038670Y019450D01*
X038670Y019506D01*
X038606Y019570D01*
X037874Y019570D01*
X037874Y019625D01*
X037875Y019625D01*
X037949Y019700D01*
X037990Y019797D01*
X037990Y019903D01*
X037949Y020000D01*
X037875Y020075D01*
X037777Y020115D01*
X037672Y020115D01*
X037574Y020075D01*
X037500Y020000D01*
X037460Y019903D01*
X037460Y019797D01*
X037500Y019700D01*
X037554Y019646D01*
X037554Y019515D01*
X037545Y019506D01*
X037545Y019450D01*
X037292Y019450D01*
X037292Y019506D01*
X037228Y019570D01*
X036720Y019570D01*
X036749Y019600D01*
X036790Y019697D01*
X036790Y019803D01*
X036749Y019900D01*
X036675Y019975D01*
X036577Y020015D01*
X036472Y020015D01*
X036374Y019975D01*
X036300Y019900D01*
X036260Y019803D01*
X036260Y019697D01*
X036300Y019600D01*
X036330Y019570D01*
X035444Y019570D01*
X035379Y019506D01*
X035379Y019450D01*
X035175Y019450D01*
X035175Y019705D01*
X035180Y019705D01*
X035245Y019769D01*
X035245Y019917D01*
X035322Y019885D01*
X035427Y019885D01*
X035525Y019925D01*
X035599Y020000D01*
X035640Y020097D01*
X035640Y020203D01*
X035599Y020300D01*
X035525Y020375D01*
X035427Y020415D01*
X035386Y020415D01*
X035374Y020427D01*
X035189Y020427D01*
X035180Y020436D01*
X035175Y020436D01*
X035175Y020492D01*
X035180Y020492D01*
X035245Y020556D01*
X035245Y021453D01*
X035265Y021434D01*
X035358Y021340D01*
X036210Y021340D01*
X036274Y021275D01*
X036372Y021235D01*
X036477Y021235D01*
X036575Y021275D01*
X036649Y021350D01*
X036690Y021447D01*
X036690Y021553D01*
X036649Y021650D01*
X036575Y021725D01*
X036477Y021765D01*
X036372Y021765D01*
X036274Y021725D01*
X036210Y021660D01*
X035491Y021660D01*
X035346Y021805D01*
X035245Y021805D01*
X035245Y022931D01*
X035180Y022995D01*
X035175Y022995D01*
X035175Y023100D01*
X036900Y023100D01*
X036860Y023003D01*
X036860Y022897D01*
X036900Y022800D01*
X036974Y022725D01*
X037072Y022685D01*
X037177Y022685D01*
X037275Y022725D01*
X037349Y022800D01*
X037390Y022897D01*
X037390Y023003D01*
X037349Y023100D01*
X038341Y023100D01*
X038341Y023078D01*
X038310Y023003D01*
X038310Y022897D01*
X038350Y022800D01*
X038424Y022725D01*
X038522Y022685D01*
X038627Y022685D01*
X038725Y022725D01*
X038799Y022800D01*
X038804Y022812D01*
X038804Y022722D01*
X038804Y022199D01*
X038800Y022199D01*
X038799Y022200D01*
X038725Y022275D01*
X038627Y022315D01*
X038522Y022315D01*
X038424Y022275D01*
X038350Y022200D01*
X038310Y022103D01*
X038310Y021997D01*
X038350Y021900D01*
X038424Y021825D01*
X038522Y021785D01*
X038627Y021785D01*
X038725Y021825D01*
X038778Y021879D01*
X038804Y021824D02*
X038722Y021824D01*
X038804Y021726D02*
X037273Y021726D01*
X037275Y021725D02*
X037177Y021765D01*
X037072Y021765D01*
X036974Y021725D01*
X036900Y021650D01*
X036860Y021553D01*
X036860Y021447D01*
X036900Y021350D01*
X036974Y021275D01*
X037072Y021235D01*
X037177Y021235D01*
X037275Y021275D01*
X037349Y021350D01*
X037390Y021447D01*
X037390Y021553D01*
X037349Y021650D01*
X037275Y021725D01*
X037359Y021627D02*
X038804Y021627D01*
X038804Y021529D02*
X037390Y021529D01*
X037382Y021430D02*
X038380Y021430D01*
X038322Y021332D02*
X037331Y021332D01*
X036918Y021332D02*
X036631Y021332D01*
X036682Y021430D02*
X036867Y021430D01*
X036860Y021529D02*
X036690Y021529D01*
X036659Y021627D02*
X036890Y021627D01*
X036977Y021726D02*
X036573Y021726D01*
X036425Y021500D02*
X035425Y021500D01*
X035279Y021645D01*
X034820Y021645D01*
X034820Y021448D02*
X031873Y021448D01*
X031625Y021200D01*
X031625Y016200D01*
X030925Y015500D01*
X030925Y014870D01*
X031925Y014870D02*
X031925Y021000D01*
X032176Y021252D01*
X034820Y021252D01*
X034820Y021055D02*
X032479Y021055D01*
X032325Y020900D01*
X032975Y020600D02*
X033232Y020858D01*
X034820Y020858D01*
X034820Y020661D02*
X034336Y020661D01*
X034175Y020500D01*
X034820Y019874D02*
X033448Y019874D01*
X033125Y019550D01*
X032725Y020050D02*
X032745Y020070D01*
X034820Y020070D01*
X034820Y020267D02*
X035307Y020267D01*
X035375Y020200D01*
X035375Y020150D01*
X035640Y020150D02*
X038310Y020150D01*
X038310Y020051D02*
X037898Y020051D01*
X037969Y019953D02*
X038349Y019953D01*
X038476Y019854D02*
X037990Y019854D01*
X037972Y019756D02*
X038875Y019756D01*
X038875Y019854D02*
X038673Y019854D01*
X038775Y019800D02*
X038848Y019874D01*
X039229Y019874D01*
X039148Y019874D01*
X039125Y019850D01*
X039125Y019350D01*
X039475Y019000D01*
X039625Y019500D02*
X039825Y019700D01*
X039825Y020100D01*
X039657Y020267D01*
X039229Y020267D01*
X039229Y020070D02*
X038595Y020070D01*
X038575Y020100D01*
X038672Y020347D02*
X038804Y020347D01*
X038804Y020445D02*
X035175Y020445D01*
X035239Y020464D02*
X035275Y020500D01*
X035239Y020464D02*
X034820Y020464D01*
X035232Y020544D02*
X038804Y020544D01*
X038804Y020642D02*
X035245Y020642D01*
X035245Y020741D02*
X038804Y020741D01*
X038804Y020839D02*
X035245Y020839D01*
X035245Y020938D02*
X038804Y020938D01*
X038725Y020950D02*
X038829Y021055D01*
X039229Y021055D01*
X040579Y021055D01*
X040875Y021350D01*
X040875Y021365D01*
X040375Y021850D02*
X040367Y021842D01*
X039229Y021842D01*
X038804Y022218D02*
X038781Y022218D01*
X038804Y022317D02*
X037140Y022317D01*
X037140Y022353D02*
X037099Y022450D01*
X037025Y022525D01*
X036927Y022565D01*
X036822Y022565D01*
X036724Y022525D01*
X036650Y022450D01*
X036610Y022353D01*
X036610Y022247D01*
X036650Y022150D01*
X036724Y022075D01*
X036822Y022035D01*
X036927Y022035D01*
X037025Y022075D01*
X037099Y022150D01*
X037140Y022247D01*
X037140Y022353D01*
X037114Y022415D02*
X038804Y022415D01*
X038804Y022514D02*
X037036Y022514D01*
X037010Y022711D02*
X035245Y022711D01*
X035245Y022809D02*
X036896Y022809D01*
X036860Y022908D02*
X035245Y022908D01*
X035175Y023006D02*
X036861Y023006D01*
X037123Y022952D02*
X037123Y023555D01*
X036926Y023555D02*
X036926Y024852D01*
X037075Y025000D01*
X037075Y025900D01*
X037575Y026400D01*
X036975Y026400D02*
X036875Y026300D01*
X036875Y025100D01*
X036729Y024955D01*
X036729Y023555D01*
X037123Y022952D02*
X037125Y022950D01*
X037239Y022711D02*
X038460Y022711D01*
X038346Y022809D02*
X037353Y022809D01*
X037390Y022908D02*
X038310Y022908D01*
X038311Y023006D02*
X037388Y023006D01*
X036713Y022514D02*
X035245Y022514D01*
X035245Y022612D02*
X038804Y022612D01*
X038804Y022711D02*
X038689Y022711D01*
X038803Y022809D02*
X038804Y022809D01*
X038575Y022950D02*
X038501Y023024D01*
X038501Y023555D01*
X038304Y023555D02*
X038304Y023080D01*
X038275Y023050D01*
X038107Y023555D02*
X038107Y024333D01*
X038225Y024450D01*
X038368Y022218D02*
X037127Y022218D01*
X037069Y022120D02*
X038317Y022120D01*
X038310Y022021D02*
X035245Y022021D01*
X035245Y021923D02*
X038341Y021923D01*
X038428Y021824D02*
X035245Y021824D01*
X035425Y021726D02*
X036277Y021726D01*
X036218Y021332D02*
X035245Y021332D01*
X035245Y021430D02*
X035268Y021430D01*
X035245Y021233D02*
X038310Y021233D01*
X038336Y021135D02*
X035245Y021135D01*
X035245Y021036D02*
X038414Y021036D01*
X038575Y021250D02*
X038576Y021252D01*
X039229Y021252D01*
X038875Y021036D02*
X038735Y021036D01*
X038769Y021430D02*
X038804Y021430D01*
X039229Y020464D02*
X039910Y020464D01*
X040075Y020300D01*
X040075Y019500D01*
X038875Y019460D02*
X038670Y019460D01*
X038617Y019559D02*
X038875Y019559D01*
X038875Y019657D02*
X037906Y019657D01*
X037714Y019839D02*
X037714Y019145D01*
X037545Y019460D02*
X037292Y019460D01*
X037239Y019559D02*
X037554Y019559D01*
X037543Y019657D02*
X036773Y019657D01*
X036790Y019756D02*
X037477Y019756D01*
X037460Y019854D02*
X036768Y019854D01*
X036697Y019953D02*
X037480Y019953D01*
X037551Y020051D02*
X035620Y020051D01*
X035552Y019953D02*
X036352Y019953D01*
X036281Y019854D02*
X035245Y019854D01*
X035231Y019756D02*
X036260Y019756D01*
X036276Y019657D02*
X035175Y019657D01*
X035175Y019559D02*
X035432Y019559D01*
X035379Y019460D02*
X035175Y019460D01*
X035275Y019600D02*
X034790Y019115D01*
X034790Y017900D01*
X034125Y017900D01*
X035459Y017900D02*
X035525Y017900D01*
X035745Y018120D01*
X035745Y019145D01*
X035548Y019145D02*
X035548Y018474D01*
X035425Y018350D01*
X036139Y017786D02*
X036275Y017650D01*
X036275Y017350D01*
X036075Y017150D01*
X036075Y016550D01*
X036575Y015800D02*
X036575Y015300D01*
X037075Y014800D01*
X037132Y013843D02*
X037725Y013250D01*
X037132Y013843D02*
X035359Y013843D01*
X035359Y013528D02*
X036447Y013528D01*
X036725Y013250D01*
X034125Y012750D02*
X034125Y010900D01*
X033575Y010350D01*
X030375Y010350D01*
X030675Y010350D01*
X030925Y010600D01*
X030925Y011330D01*
X031925Y011330D02*
X033045Y011330D01*
X033525Y010850D01*
X029925Y014870D02*
X029925Y015600D01*
X030975Y016650D01*
X030975Y017550D01*
X031325Y017900D01*
X031325Y021300D01*
X031867Y021842D01*
X034820Y021842D01*
X034820Y022039D02*
X031464Y022039D01*
X031025Y021600D01*
X031025Y018600D01*
X030725Y018300D01*
X030725Y017300D01*
X028925Y015500D01*
X028925Y014870D01*
X029792Y019568D02*
X024818Y019568D01*
X024818Y019371D02*
X030596Y019371D01*
X030625Y019400D01*
X030175Y019950D02*
X029792Y019568D01*
X029475Y021350D02*
X030360Y022236D01*
X034820Y022236D01*
X034820Y022433D02*
X033342Y022433D01*
X033125Y022650D01*
X033375Y023050D02*
X030125Y023050D01*
X029525Y022450D01*
X030625Y023700D02*
X031725Y023700D01*
X030625Y024800D02*
X035525Y024800D01*
X035745Y024580D01*
X035745Y023555D01*
X035548Y023555D02*
X035548Y024326D01*
X035475Y024400D01*
X034125Y023000D02*
X034298Y022826D01*
X034820Y022826D01*
X034820Y022630D02*
X033795Y022630D01*
X033375Y023050D01*
X035245Y022415D02*
X036635Y022415D01*
X036610Y022317D02*
X035245Y022317D01*
X035245Y022218D02*
X036622Y022218D01*
X036680Y022120D02*
X035245Y022120D01*
X035553Y020347D02*
X038477Y020347D01*
X038349Y020248D02*
X035621Y020248D01*
X036525Y019750D02*
X036532Y019742D01*
X036532Y019145D01*
X036336Y019145D02*
X036336Y018089D01*
X036525Y017900D01*
X036525Y017150D01*
X035942Y017517D02*
X035925Y017500D01*
X035942Y017517D02*
X035942Y019145D01*
X036139Y019145D02*
X036139Y017786D01*
X036675Y018250D02*
X036729Y018305D01*
X036729Y019145D01*
X037714Y019839D02*
X037725Y019850D01*
X038501Y019145D02*
X038770Y019145D01*
X038775Y019150D01*
X038800Y020248D02*
X038804Y020248D01*
X040875Y022035D02*
X041859Y022035D01*
X043025Y023200D01*
X044125Y023200D01*
X044278Y023353D01*
X044278Y023599D01*
X044475Y023599D02*
X044475Y023300D01*
X044175Y023000D01*
X043925Y023000D01*
X043775Y022850D01*
X043775Y021885D01*
X044242Y021885D01*
X043775Y021885D02*
X043440Y021885D01*
X043425Y021900D01*
X043425Y021865D01*
X043425Y022535D02*
X042990Y022535D01*
X042975Y022550D01*
X043225Y023650D02*
X043481Y023906D01*
X043774Y023906D01*
X043774Y024103D02*
X043178Y024103D01*
X043075Y024000D01*
X044671Y023599D02*
X044671Y023103D01*
X044675Y023100D01*
X045925Y021865D02*
X045925Y021400D01*
X045875Y020900D02*
X045875Y020885D01*
X045875Y020215D02*
X045875Y020200D01*
X045425Y020200D01*
X044932Y019707D01*
X044932Y017300D01*
X045340Y017300D01*
X044932Y017300D02*
X044932Y016635D01*
X044932Y017300D02*
X044925Y017300D01*
X046725Y018200D02*
X047275Y018200D01*
X047275Y018235D01*
X047275Y019065D01*
X047275Y019735D02*
X047275Y019750D01*
X047595Y020070D01*
X048139Y020070D01*
X048139Y020385D02*
X047010Y020385D01*
X046825Y020200D01*
X045875Y020200D01*
X048081Y023544D02*
X048075Y023550D01*
X048081Y023544D02*
X048425Y023544D01*
X047369Y024550D02*
X047325Y024550D01*
X040875Y022050D02*
X040875Y022035D01*
X032025Y025150D02*
X031975Y025150D01*
X034375Y029900D02*
X034375Y035300D01*
X030275Y035319D02*
X028525Y035319D01*
X028525Y035417D02*
X030275Y035417D01*
X030275Y035516D02*
X028525Y035516D01*
X028525Y035614D02*
X030275Y035614D01*
X030275Y035713D02*
X028525Y035713D01*
X028525Y035811D02*
X030275Y035811D01*
X030275Y035910D02*
X028525Y035910D01*
X028525Y036008D02*
X030275Y036008D01*
X030275Y036107D02*
X028525Y036107D01*
X028525Y036200D02*
X030275Y036200D01*
X030275Y034550D01*
X028525Y034550D01*
X028525Y036200D01*
X028525Y036800D02*
X028525Y038400D01*
X030375Y038400D01*
X030375Y036800D01*
X028525Y036800D01*
X028525Y036895D02*
X030375Y036895D01*
X030375Y036993D02*
X028525Y036993D01*
X028525Y037092D02*
X030375Y037092D01*
X030375Y037190D02*
X028525Y037190D01*
X028525Y037289D02*
X030375Y037289D01*
X030375Y037387D02*
X028525Y037387D01*
X028525Y037486D02*
X030375Y037486D01*
X030375Y037584D02*
X028525Y037584D01*
X028525Y037683D02*
X030375Y037683D01*
X030375Y037781D02*
X028525Y037781D01*
X028525Y037880D02*
X030375Y037880D01*
X030375Y037978D02*
X028525Y037978D01*
X028525Y038077D02*
X030375Y038077D01*
X030375Y038175D02*
X028525Y038175D01*
X028525Y038274D02*
X030375Y038274D01*
X030375Y038372D02*
X028525Y038372D01*
X028525Y035220D02*
X030275Y035220D01*
X030275Y035122D02*
X028525Y035122D01*
X028525Y035023D02*
X030275Y035023D01*
X030275Y034925D02*
X028525Y034925D01*
X028525Y034826D02*
X030275Y034826D01*
X030275Y034728D02*
X028525Y034728D01*
X028525Y034629D02*
X030275Y034629D01*
X025395Y024930D02*
X025389Y024930D01*
X025395Y024930D02*
X025425Y024900D01*
X024175Y023203D02*
X024121Y023203D01*
X017875Y028150D02*
X016525Y029500D01*
X017225Y018100D02*
X017118Y017993D01*
X016471Y017993D01*
X007375Y007600D02*
X005675Y007600D01*
X005675Y006150D01*
X007375Y006150D01*
X007375Y007600D01*
X007375Y007542D02*
X005675Y007542D01*
X005675Y007443D02*
X007375Y007443D01*
X007375Y007345D02*
X005675Y007345D01*
X005675Y007246D02*
X007375Y007246D01*
X007375Y007148D02*
X005675Y007148D01*
X005675Y007049D02*
X007375Y007049D01*
X007375Y006951D02*
X005675Y006951D01*
X005675Y006852D02*
X007375Y006852D01*
X007375Y006754D02*
X005675Y006754D01*
X005675Y006655D02*
X007375Y006655D01*
X007375Y006557D02*
X005675Y006557D01*
X005675Y006458D02*
X007375Y006458D01*
X007375Y006360D02*
X005675Y006360D01*
X005675Y006261D02*
X007375Y006261D01*
X007375Y006163D02*
X005675Y006163D01*
X003719Y011669D02*
X003719Y011694D01*
X003725Y011700D01*
X003725Y011724D01*
X042075Y009610D02*
X046075Y009610D01*
X046075Y009512D02*
X042075Y009512D01*
X042075Y009413D02*
X046075Y009413D01*
X046075Y009315D02*
X042075Y009315D01*
X042075Y009216D02*
X046075Y009216D01*
X046075Y009118D02*
X042075Y009118D01*
X042075Y009019D02*
X042575Y009019D01*
X042575Y008921D02*
X042075Y008921D01*
X042075Y008822D02*
X042575Y008822D01*
X042575Y008724D02*
X042075Y008724D01*
X042075Y008625D02*
X042575Y008625D01*
X042575Y008527D02*
X042075Y008527D01*
X042075Y008428D02*
X042575Y008428D01*
X042575Y008330D02*
X042075Y008330D01*
X042075Y008231D02*
X042575Y008231D01*
X042575Y008133D02*
X042075Y008133D01*
X042075Y008034D02*
X042575Y008034D01*
X042575Y007936D02*
X042075Y007936D01*
X042075Y007837D02*
X042575Y007837D01*
X042575Y007739D02*
X042075Y007739D01*
X042075Y007640D02*
X042575Y007640D01*
X042575Y007542D02*
X042075Y007542D01*
X042075Y007443D02*
X042575Y007443D01*
X042575Y007345D02*
X042075Y007345D01*
X042075Y007246D02*
X042575Y007246D01*
X042575Y007148D02*
X042075Y007148D01*
X042075Y007049D02*
X042575Y007049D01*
X042575Y006951D02*
X042075Y006951D01*
X042075Y006852D02*
X042575Y006852D01*
X042575Y006754D02*
X042075Y006754D01*
X042075Y006655D02*
X042575Y006655D01*
X042575Y006557D02*
X042075Y006557D01*
X042075Y006458D02*
X042575Y006458D01*
X042575Y006360D02*
X042075Y006360D01*
X042075Y006261D02*
X042575Y006261D01*
X042575Y006163D02*
X042075Y006163D01*
X042075Y006064D02*
X042575Y006064D01*
X042575Y005966D02*
X042075Y005966D01*
X042075Y005867D02*
X042575Y005867D01*
X042575Y005769D02*
X042075Y005769D01*
X042075Y005670D02*
X042575Y005670D01*
X045525Y009709D02*
X046075Y009709D01*
X046075Y009807D02*
X045525Y009807D01*
X045525Y009906D02*
X046075Y009906D01*
X046075Y010004D02*
X045525Y010004D01*
X045525Y010103D02*
X046075Y010103D01*
X046075Y010201D02*
X045525Y010201D01*
X045525Y010300D02*
X046075Y010300D01*
X046075Y010398D02*
X045525Y010398D01*
X047525Y008800D02*
X047637Y008913D01*
X048231Y008913D01*
X048231Y008519D02*
X049294Y008519D01*
X049325Y008550D01*
X049725Y008250D02*
X049600Y008125D01*
X048231Y008125D01*
D60*
X008675Y019250D02*
X006975Y019250D01*
X005855Y023900D02*
X008295Y023900D01*
D61*
X008525Y024800D02*
X008559Y024835D01*
X008525Y024810D02*
X008525Y024800D01*
X009209Y025700D02*
X009725Y025700D01*
X010025Y025700D01*
X011425Y024300D01*
X016375Y024300D01*
X016375Y025950D01*
X015775Y026550D01*
X015225Y026550D01*
X015525Y025300D02*
X013075Y025300D01*
X009025Y029350D01*
X008559Y029350D01*
X008559Y027500D02*
X009175Y027500D01*
X011875Y024800D01*
X015525Y024800D01*
X015975Y024800D01*
X015975Y025300D02*
X015525Y025300D01*
X016375Y024300D02*
X017275Y023400D01*
X011225Y020900D02*
X010896Y021229D01*
X010896Y021540D01*
X010275Y020600D02*
X009825Y020600D01*
X010275Y020600D02*
X010475Y020400D01*
X010475Y019685D01*
X010475Y019015D02*
X010475Y018450D01*
X010275Y018250D01*
X009025Y018250D01*
X008375Y017500D02*
X008365Y017490D01*
X007859Y017490D01*
X003275Y016900D02*
X002825Y016900D01*
X002475Y016550D01*
X002475Y014050D01*
X002725Y013800D01*
X003475Y013800D01*
X003725Y013550D01*
X003725Y011724D01*
X019025Y031350D02*
X018125Y032250D01*
X018125Y035500D01*
X018140Y035485D01*
X018625Y035485D01*
X018125Y035500D02*
X018125Y035900D01*
X018125Y037400D01*
X018325Y037600D01*
X018675Y037600D01*
X018690Y037585D01*
X018725Y037585D01*
X018725Y038150D01*
X018975Y038400D01*
X020275Y038400D01*
X020275Y039250D01*
X020275Y041600D01*
X020225Y039250D02*
X020275Y039250D01*
X020225Y039250D02*
X024275Y039250D01*
X022225Y037550D02*
X021375Y038400D01*
X021025Y038400D01*
X020275Y038400D01*
X019575Y038000D02*
X019575Y037585D01*
X018725Y037585D02*
X018725Y037500D01*
X019225Y035500D02*
X019690Y035500D01*
X018625Y034815D02*
X018625Y034600D01*
X018925Y034300D01*
X018925Y034235D01*
X019025Y032200D02*
X019490Y032200D01*
X019025Y031350D02*
X020140Y031350D01*
X021959Y032150D02*
X021959Y034135D01*
X022225Y034400D01*
X022225Y037550D01*
X020225Y039250D02*
X017375Y039250D01*
X016625Y040000D01*
X014759Y040000D01*
X014090Y040000D02*
X014075Y040000D01*
X013725Y040000D01*
X012937Y040787D01*
X012937Y041600D01*
X031425Y041600D02*
X034175Y041600D01*
X035575Y040200D01*
X035575Y036500D01*
X034375Y035300D01*
X048425Y025685D02*
X048459Y025685D01*
X048475Y025700D01*
X048575Y025600D01*
X049875Y025600D01*
X047275Y017565D02*
X046840Y017565D01*
X046575Y017300D01*
X046009Y017300D01*
D62*
X046575Y017300D03*
X046725Y018200D03*
X045375Y015600D03*
X042625Y013050D03*
X041475Y013250D03*
X040425Y013250D03*
X040975Y010950D03*
X040975Y010350D03*
X037725Y013250D03*
X036725Y013250D03*
X035525Y012700D03*
X034925Y012900D03*
X034125Y012750D03*
X033125Y012750D03*
X032725Y012750D03*
X032325Y012750D03*
X031925Y012750D03*
X031475Y012750D03*
X033525Y010850D03*
X030375Y010350D03*
X029625Y010150D03*
X026075Y014800D03*
X025525Y014800D03*
X025025Y014750D03*
X024525Y014750D03*
X023925Y014700D03*
X024025Y016700D03*
X022925Y016700D03*
X022175Y016700D03*
X021175Y016750D03*
X020525Y016750D03*
X019925Y017350D03*
X019225Y016700D03*
X018675Y016700D03*
X017225Y018100D03*
X017225Y018750D03*
X017225Y019950D03*
X017225Y021150D03*
X017225Y021750D03*
X017225Y022400D03*
X018375Y023450D03*
X019225Y023450D03*
X020725Y023450D03*
X021975Y022700D03*
X022525Y023400D03*
X024025Y023450D03*
X024025Y022700D03*
X024025Y022100D03*
X024025Y021150D03*
X024025Y020150D03*
X024025Y019450D03*
X024025Y018450D03*
X024025Y017950D03*
X025625Y018150D03*
X025775Y019000D03*
X027625Y020200D03*
X027775Y021050D03*
X027775Y021750D03*
X028275Y022100D03*
X028775Y021400D03*
X029475Y021350D03*
X029675Y020300D03*
X030175Y019950D03*
X030625Y019400D03*
X029375Y019000D03*
X028825Y018450D03*
X030375Y018100D03*
X031325Y017200D03*
X032325Y016050D03*
X034125Y017900D03*
X033575Y018150D03*
X033125Y019550D03*
X032725Y020050D03*
X032975Y020600D03*
X032325Y020900D03*
X034175Y020500D03*
X035375Y020150D03*
X036525Y019750D03*
X037725Y019850D03*
X038575Y020100D03*
X038775Y019150D03*
X039475Y019000D03*
X039625Y019500D03*
X040075Y019500D03*
X040725Y017650D03*
X040725Y016900D03*
X041125Y016050D03*
X040375Y015800D03*
X037925Y015800D03*
X037825Y016850D03*
X036525Y017150D03*
X035925Y017500D03*
X036075Y016550D03*
X036575Y015800D03*
X036675Y018250D03*
X035425Y018350D03*
X036425Y021500D03*
X037125Y021500D03*
X036875Y022300D03*
X037125Y022950D03*
X037975Y022750D03*
X038575Y022950D03*
X038575Y022050D03*
X038575Y021250D03*
X040375Y021850D03*
X041125Y022600D03*
X041425Y024100D03*
X040725Y024450D03*
X042375Y024850D03*
X043075Y024000D03*
X043225Y023650D03*
X044225Y024050D03*
X044725Y024050D03*
X044725Y024550D03*
X044225Y024550D03*
X044475Y025450D03*
X045675Y025350D03*
X045625Y024700D03*
X045575Y023800D03*
X044675Y023100D03*
X042975Y022550D03*
X044675Y021350D03*
X045925Y021400D03*
X046725Y022500D03*
X046625Y023350D03*
X047225Y023850D03*
X048075Y023550D03*
X046625Y025050D03*
X042375Y026750D03*
X041975Y028400D03*
X041725Y028750D03*
X040475Y031100D03*
X040475Y031700D03*
X040725Y034750D03*
X041375Y034750D03*
X040075Y034750D03*
X038525Y035800D03*
X038525Y036250D03*
X037575Y034750D03*
X036975Y034750D03*
X036275Y034750D03*
X034725Y036650D03*
X034725Y037150D03*
X033875Y038150D03*
X033125Y038150D03*
X032425Y038150D03*
X031025Y037150D03*
X031025Y036650D03*
X030125Y038200D03*
X029375Y038200D03*
X028675Y038200D03*
X027225Y037150D03*
X027225Y036650D03*
X026375Y038250D03*
X025625Y038250D03*
X024925Y038250D03*
X024275Y039250D03*
X020225Y037800D03*
X019575Y038000D03*
X019675Y036300D03*
X019225Y035500D03*
X019225Y034950D03*
X019325Y033350D03*
X019025Y032200D03*
X019875Y030450D03*
X020875Y029000D03*
X021475Y029400D03*
X022275Y029750D03*
X023225Y030350D03*
X024175Y028300D03*
X026725Y028600D03*
X027075Y028200D03*
X029375Y028650D03*
X030025Y028200D03*
X030875Y027750D03*
X031325Y027750D03*
X031825Y027750D03*
X034225Y026500D03*
X034625Y028300D03*
X034425Y028700D03*
X034375Y029900D03*
X032875Y031100D03*
X032875Y031700D03*
X033125Y034750D03*
X032425Y034750D03*
X033775Y034750D03*
X036725Y031700D03*
X036725Y031100D03*
X038425Y028700D03*
X038925Y028150D03*
X038075Y026400D03*
X037575Y026400D03*
X036975Y026400D03*
X036575Y025650D03*
X036325Y025300D03*
X036025Y025650D03*
X035475Y024400D03*
X035175Y023700D03*
X034125Y023000D03*
X033125Y022650D03*
X031725Y023700D03*
X032225Y024050D03*
X030625Y023700D03*
X029525Y022450D03*
X028975Y023400D03*
X027275Y024050D03*
X026775Y024100D03*
X025775Y024100D03*
X024075Y024950D03*
X027225Y022350D03*
X030625Y024800D03*
X035575Y021850D03*
X038375Y025100D03*
X038275Y025500D03*
X037675Y025400D03*
X044225Y031100D03*
X044225Y031700D03*
X044475Y034750D03*
X045125Y034750D03*
X043825Y034750D03*
X042325Y035800D03*
X042325Y036250D03*
X041475Y038200D03*
X040725Y038200D03*
X040025Y038200D03*
X037725Y038200D03*
X036975Y038200D03*
X036275Y038200D03*
X032425Y040400D03*
X030025Y034750D03*
X029375Y034750D03*
X028675Y034750D03*
X026275Y034750D03*
X025625Y034750D03*
X024925Y034750D03*
X025375Y031700D03*
X025375Y031100D03*
X029125Y031100D03*
X029125Y031700D03*
X021475Y035700D03*
X017375Y039250D03*
X015725Y038250D03*
X014975Y038250D03*
X014275Y038250D03*
X013375Y036250D03*
X013375Y035750D03*
X014275Y034750D03*
X014975Y034750D03*
X015575Y034750D03*
X014725Y031750D03*
X014725Y031100D03*
X014225Y028650D03*
X012375Y028500D03*
X014725Y026900D03*
X015225Y026550D03*
X015525Y025300D03*
X015975Y025300D03*
X015975Y024800D03*
X015525Y024800D03*
X015725Y023700D03*
X015225Y023500D03*
X014025Y023900D03*
X013475Y023900D03*
X012925Y023850D03*
X012375Y023800D03*
X011825Y023750D03*
X011775Y023150D03*
X011675Y022600D03*
X011175Y022600D03*
X010525Y023200D03*
X010325Y023700D03*
X009725Y025700D03*
X009225Y026550D03*
X009225Y028400D03*
X010975Y031100D03*
X010975Y031750D03*
X011225Y034750D03*
X011875Y034750D03*
X010525Y034750D03*
X009625Y035800D03*
X009625Y036300D03*
X008075Y034750D03*
X007475Y034750D03*
X006775Y034750D03*
X005875Y035800D03*
X005875Y036300D03*
X004475Y035800D03*
X002775Y035900D03*
X002475Y036300D03*
X002125Y036650D03*
X003725Y037900D03*
X006775Y038250D03*
X007475Y038250D03*
X008225Y038250D03*
X010525Y038250D03*
X011225Y038250D03*
X011975Y038250D03*
X007225Y031750D03*
X007225Y031100D03*
X005625Y028950D03*
X005625Y027100D03*
X005675Y024800D03*
X006125Y024800D03*
X006525Y024350D03*
X006525Y023450D03*
X006125Y023050D03*
X005675Y023050D03*
X005175Y023450D03*
X005175Y023950D03*
X005175Y024450D03*
X003725Y024600D03*
X002325Y023750D03*
X002325Y023350D03*
X002325Y022950D03*
X002325Y022500D03*
X002325Y022100D03*
X002325Y021650D03*
X003725Y020700D03*
X005825Y020650D03*
X009025Y018250D03*
X008375Y017500D03*
X008275Y014850D03*
X007675Y014850D03*
X007275Y013500D03*
X005725Y014750D03*
X006775Y011050D03*
X006775Y010350D03*
X006525Y007400D03*
X007175Y007400D03*
X005875Y007400D03*
X004875Y006350D03*
X004875Y005850D03*
X005825Y003950D03*
X006475Y003950D03*
X007175Y003950D03*
X011825Y005850D03*
X011825Y006350D03*
X012825Y007400D03*
X013475Y007400D03*
X014125Y007400D03*
X015575Y006350D03*
X015575Y005850D03*
X016575Y007400D03*
X017225Y007400D03*
X017875Y007400D03*
X017475Y010300D03*
X017475Y011000D03*
X019325Y011350D03*
X019325Y011850D03*
X019875Y012800D03*
X017975Y013150D03*
X016925Y013250D03*
X014275Y013250D03*
X013225Y013250D03*
X013375Y014650D03*
X012575Y015550D03*
X012225Y016850D03*
X011675Y017000D03*
X013025Y017550D03*
X014925Y016400D03*
X015575Y016500D03*
X016225Y015900D03*
X011475Y019750D03*
X011175Y020300D03*
X011525Y020550D03*
X011725Y020900D03*
X011775Y021350D03*
X011225Y020900D03*
X016975Y025750D03*
X017075Y026300D03*
X018575Y026100D03*
X018775Y026600D03*
X018925Y027450D03*
X019275Y027850D03*
X020375Y028400D03*
X017875Y028150D03*
X017675Y029200D03*
X016325Y028550D03*
X019775Y021950D03*
X022725Y020150D03*
X025725Y016900D03*
X026875Y015750D03*
X026475Y015300D03*
X027375Y016100D03*
X028275Y016900D03*
X029375Y016850D03*
X037225Y010950D03*
X037225Y010350D03*
X036975Y007400D03*
X037625Y007400D03*
X038625Y006350D03*
X038625Y005850D03*
X040075Y007400D03*
X040725Y007400D03*
X041375Y007400D03*
X042325Y006350D03*
X042325Y005850D03*
X043925Y007400D03*
X044575Y007400D03*
X045225Y007400D03*
X046225Y006350D03*
X046225Y005850D03*
X045225Y003950D03*
X044575Y003950D03*
X043925Y003950D03*
X041375Y003950D03*
X040725Y003950D03*
X040075Y003950D03*
X037625Y003950D03*
X036975Y003950D03*
X036325Y003950D03*
X036325Y007400D03*
X044825Y010350D03*
X044825Y010950D03*
X047625Y009250D03*
X047525Y008800D03*
X049325Y008550D03*
X049725Y008250D03*
X048225Y032450D03*
X047475Y034900D03*
X046075Y037150D03*
X046075Y037600D03*
X045225Y038200D03*
X044475Y038200D03*
X043775Y038200D03*
X013725Y011000D03*
X013725Y010300D03*
X013425Y003950D03*
X012775Y003950D03*
X014125Y003950D03*
X016525Y003950D03*
X017225Y003950D03*
X017875Y003950D03*
X002825Y010100D03*
D63*
X027225Y036650D02*
X027225Y038350D01*
X026475Y039100D01*
X026475Y041600D01*
X026500Y041600D01*
X027287Y041600D02*
X027287Y040587D01*
X028325Y039550D01*
X030425Y039550D01*
X031025Y038950D01*
X031025Y036650D01*
X031925Y039600D02*
X033925Y039600D01*
X034725Y038800D01*
X034725Y036650D01*
X031925Y039600D02*
X031075Y040450D01*
X029225Y040450D01*
X028075Y041600D01*
M02*
