G75*
G70*
%OFA0B0*%
%FSLAX24Y24*%
%IPPOS*%
%LPD*%
%AMOC8*
5,1,8,0,0,1.08239X$1,22.5*
%
%ADD10C,0.1580*%
%ADD11R,0.0198X0.0710*%
%ADD12R,0.0710X0.0198*%
%ADD13R,0.0395X0.0395*%
%ADD14R,0.0513X0.0474*%
%ADD15R,0.0828X0.0316*%
%ADD16R,0.1182X0.0907*%
%ADD17R,0.0710X0.1615*%
%ADD18R,0.0592X0.0671*%
%ADD19R,0.1576X0.0631*%
%ADD20R,0.0631X0.0631*%
%ADD21R,0.0474X0.0513*%
%ADD22R,0.0671X0.0552*%
%ADD23R,0.0710X0.0789*%
%ADD24R,0.0430X0.0390*%
%ADD25C,0.0536*%
%ADD26R,0.0510X0.0870*%
%ADD27R,0.0297X0.0552*%
%ADD28R,0.0552X0.0316*%
%ADD29R,0.0960X0.0560*%
%ADD30R,0.0946X0.1497*%
%ADD31R,0.0671X0.0592*%
%ADD32C,0.0595*%
%ADD33R,0.0595X0.0595*%
%ADD34OC8,0.0680*%
%ADD35C,0.0965*%
%ADD36C,0.1025*%
%ADD37C,0.1054*%
%ADD38R,0.1054X0.1054*%
%ADD39R,0.0434X0.0277*%
%ADD40C,0.0634*%
%ADD41R,0.0277X0.0434*%
%ADD42R,0.1850X0.0790*%
%ADD43R,0.0946X0.1064*%
%ADD44R,0.0867X0.0277*%
%ADD45R,0.0395X0.0210*%
%ADD46R,0.0210X0.0395*%
%ADD47R,0.0434X0.0474*%
%ADD48R,0.0269X0.0245*%
%ADD49R,0.0245X0.0269*%
%ADD50C,0.1175*%
%ADD51R,0.1025X0.1025*%
%ADD52R,0.0379X0.0190*%
%ADD53R,0.0190X0.0379*%
%ADD54R,0.0631X0.0552*%
%ADD55R,0.0356X0.0434*%
%ADD56R,0.0434X0.0356*%
%ADD57R,0.0218X0.0474*%
%ADD58C,0.0390*%
D10*
X002475Y003700D03*
X002475Y041700D03*
X049475Y041700D03*
X049475Y003700D03*
D11*
X038501Y019145D03*
X038304Y019145D03*
X038107Y019145D03*
X037910Y019145D03*
X037714Y019145D03*
X037517Y019145D03*
X037320Y019145D03*
X037123Y019145D03*
X036926Y019145D03*
X036729Y019145D03*
X036532Y019145D03*
X036336Y019145D03*
X036139Y019145D03*
X035942Y019145D03*
X035745Y019145D03*
X035548Y019145D03*
X035548Y023555D03*
X035745Y023555D03*
X035942Y023555D03*
X036139Y023555D03*
X036336Y023555D03*
X036532Y023555D03*
X036729Y023555D03*
X036926Y023555D03*
X037123Y023555D03*
X037320Y023555D03*
X037517Y023555D03*
X037714Y023555D03*
X037910Y023555D03*
X038107Y023555D03*
X038304Y023555D03*
X038501Y023555D03*
X024089Y024233D03*
X023893Y024233D03*
X023696Y024233D03*
X023499Y024233D03*
X023302Y024233D03*
X023105Y024233D03*
X022908Y024233D03*
X022712Y024233D03*
X022515Y024233D03*
X022318Y024233D03*
X022121Y024233D03*
X021924Y024233D03*
X021727Y024233D03*
X021530Y024233D03*
X021334Y024233D03*
X021137Y024233D03*
X020940Y024233D03*
X020743Y024233D03*
X020546Y024233D03*
X020349Y024233D03*
X020152Y024233D03*
X019956Y024233D03*
X019759Y024233D03*
X019562Y024233D03*
X019365Y024233D03*
X019168Y024233D03*
X018971Y024233D03*
X018775Y024233D03*
X018578Y024233D03*
X018381Y024233D03*
X018184Y024233D03*
X017987Y024233D03*
X017790Y024233D03*
X017593Y024233D03*
X017397Y024233D03*
X017200Y024233D03*
X017200Y015887D03*
X017397Y015887D03*
X017593Y015887D03*
X017790Y015887D03*
X017987Y015887D03*
X018184Y015887D03*
X018381Y015887D03*
X018578Y015887D03*
X018775Y015887D03*
X018971Y015887D03*
X019168Y015887D03*
X019365Y015887D03*
X019562Y015887D03*
X019759Y015887D03*
X019956Y015887D03*
X020152Y015887D03*
X020349Y015887D03*
X020546Y015887D03*
X020743Y015887D03*
X020940Y015887D03*
X021137Y015887D03*
X021334Y015887D03*
X021530Y015887D03*
X021727Y015887D03*
X021924Y015887D03*
X022121Y015887D03*
X022318Y015887D03*
X022515Y015887D03*
X022712Y015887D03*
X022908Y015887D03*
X023105Y015887D03*
X023302Y015887D03*
X023499Y015887D03*
X023696Y015887D03*
X023893Y015887D03*
X024089Y015887D03*
D12*
X024818Y016615D03*
X024818Y016812D03*
X024818Y017009D03*
X024818Y017206D03*
X024818Y017403D03*
X024818Y017599D03*
X024818Y017796D03*
X024818Y017993D03*
X024818Y018190D03*
X024818Y018387D03*
X024818Y018584D03*
X024818Y018780D03*
X024818Y018977D03*
X024818Y019174D03*
X024818Y019371D03*
X024818Y019568D03*
X024818Y019765D03*
X024818Y019962D03*
X024818Y020158D03*
X024818Y020355D03*
X024818Y020552D03*
X024818Y020749D03*
X024818Y020946D03*
X024818Y021143D03*
X024818Y021340D03*
X024818Y021536D03*
X024818Y021733D03*
X024818Y021930D03*
X024818Y022127D03*
X024818Y022324D03*
X024818Y022521D03*
X024818Y022717D03*
X024818Y022914D03*
X024818Y023111D03*
X024818Y023308D03*
X024818Y023505D03*
X016471Y023505D03*
X016471Y023308D03*
X016471Y023111D03*
X016471Y022914D03*
X016471Y022717D03*
X016471Y022521D03*
X016471Y022324D03*
X016471Y022127D03*
X016471Y021930D03*
X016471Y021733D03*
X016471Y021536D03*
X016471Y021340D03*
X016471Y021143D03*
X016471Y020946D03*
X016471Y020749D03*
X016471Y020552D03*
X016471Y020355D03*
X016471Y020158D03*
X016471Y019962D03*
X016471Y019765D03*
X016471Y019568D03*
X016471Y019371D03*
X016471Y019174D03*
X016471Y018977D03*
X016471Y018780D03*
X016471Y018584D03*
X016471Y018387D03*
X016471Y018190D03*
X016471Y017993D03*
X016471Y017796D03*
X016471Y017599D03*
X016471Y017403D03*
X016471Y017206D03*
X016471Y017009D03*
X016471Y016812D03*
X016471Y016615D03*
X034820Y019874D03*
X034820Y020070D03*
X034820Y020267D03*
X034820Y020464D03*
X034820Y020661D03*
X034820Y020858D03*
X034820Y021055D03*
X034820Y021252D03*
X034820Y021448D03*
X034820Y021645D03*
X034820Y021842D03*
X034820Y022039D03*
X034820Y022236D03*
X034820Y022433D03*
X034820Y022630D03*
X034820Y022826D03*
X039229Y022826D03*
X039229Y022630D03*
X039229Y022433D03*
X039229Y022236D03*
X039229Y022039D03*
X039229Y021842D03*
X039229Y021645D03*
X039229Y021448D03*
X039229Y021252D03*
X039229Y021055D03*
X039229Y020858D03*
X039229Y020661D03*
X039229Y020464D03*
X039229Y020267D03*
X039229Y020070D03*
X039229Y019874D03*
D13*
X026520Y024950D03*
X025929Y024950D03*
D14*
X025389Y024930D03*
X024720Y024930D03*
X025990Y022300D03*
X026659Y022300D03*
X026340Y021000D03*
X026340Y020200D03*
X027009Y020200D03*
X027009Y021000D03*
X034790Y017900D03*
X035459Y017900D03*
X043340Y016250D03*
X044009Y016250D03*
X045340Y017300D03*
X046009Y017300D03*
X045399Y014390D03*
X044730Y014390D03*
X044990Y025750D03*
X045659Y025750D03*
X021959Y032150D03*
X021290Y032150D03*
X020809Y031350D03*
X020140Y031350D03*
X020159Y032200D03*
X019490Y032200D03*
X019690Y035500D03*
X020359Y035500D03*
X014759Y040000D03*
X014090Y040000D03*
X008559Y029350D03*
X007890Y029350D03*
X007900Y028420D03*
X008569Y028420D03*
X008559Y027500D03*
X007890Y027500D03*
X007910Y026570D03*
X008579Y026570D03*
X008540Y025700D03*
X009209Y025700D03*
X009290Y023000D03*
X009959Y023000D03*
X006639Y021360D03*
X005970Y021360D03*
X005239Y018300D03*
X004570Y018300D03*
X013580Y016370D03*
X014249Y016370D03*
X014990Y015900D03*
X015659Y015900D03*
D15*
X003719Y011669D03*
X003719Y011275D03*
X003719Y010881D03*
X003719Y010487D03*
X003719Y010094D03*
X003719Y009700D03*
X003719Y009306D03*
X003719Y008913D03*
X003719Y008519D03*
X003719Y008125D03*
X003719Y007731D03*
X003725Y021244D03*
X003725Y021638D03*
X003725Y022031D03*
X003725Y022425D03*
X003725Y022819D03*
X003725Y023213D03*
X003725Y023606D03*
X003725Y024000D03*
X003719Y033331D03*
X003719Y033725D03*
X003719Y034119D03*
X003719Y034513D03*
X003719Y034906D03*
X003719Y035300D03*
X003719Y035694D03*
X003719Y036087D03*
X003719Y036481D03*
X003719Y036875D03*
X003719Y037269D03*
X048231Y037269D03*
X048231Y036875D03*
X048231Y036481D03*
X048231Y036087D03*
X048231Y035694D03*
X048231Y035300D03*
X048231Y034906D03*
X048231Y034513D03*
X048231Y034119D03*
X048231Y033725D03*
X048231Y033331D03*
X048231Y011669D03*
X048231Y011275D03*
X048231Y010881D03*
X048231Y010487D03*
X048231Y010094D03*
X048231Y009700D03*
X048231Y009306D03*
X048231Y008913D03*
X048231Y008519D03*
X048231Y008125D03*
X048231Y007731D03*
D16*
X049156Y006472D03*
X049156Y012928D03*
X049156Y032072D03*
X049156Y038528D03*
X002794Y038528D03*
X002794Y032072D03*
X002799Y025240D03*
X002799Y020004D03*
X002794Y012928D03*
X002794Y006472D03*
D17*
X006505Y007373D03*
X006505Y004027D03*
X036975Y004027D03*
X036975Y007373D03*
X044475Y034777D03*
X044475Y038123D03*
X029425Y038123D03*
X029425Y034777D03*
X011175Y034777D03*
X011175Y038123D03*
D18*
X007859Y017490D03*
X007111Y017490D03*
D19*
X008056Y015400D03*
X005694Y015400D03*
D20*
X006947Y018250D03*
X008443Y018250D03*
D21*
X006955Y019255D03*
X006955Y019925D03*
X005175Y020815D03*
X005175Y021485D03*
X010475Y019685D03*
X010475Y019015D03*
X018925Y033565D03*
X018925Y034235D03*
X018625Y034815D03*
X018625Y035485D03*
X018725Y036915D03*
X018725Y037585D03*
X019575Y037585D03*
X019575Y036915D03*
X040875Y022035D03*
X040875Y021365D03*
X043425Y021865D03*
X043425Y022535D03*
X045925Y022535D03*
X045925Y021865D03*
X046725Y021985D03*
X046725Y021315D03*
X045875Y020885D03*
X045875Y020215D03*
X047275Y019735D03*
X047275Y019065D03*
X047275Y018235D03*
X047275Y017565D03*
X039975Y016885D03*
X039975Y016215D03*
X039125Y016215D03*
X039125Y016885D03*
X038325Y016885D03*
X038325Y016215D03*
X048425Y025015D03*
X048425Y025685D03*
D22*
X008805Y021610D03*
X007664Y021610D03*
D23*
X009793Y021540D03*
X010896Y021540D03*
D24*
X041275Y017640D03*
X042075Y017260D03*
X041275Y016880D03*
D25*
X013375Y026166D03*
X013375Y028134D03*
D26*
X028925Y014870D03*
X029925Y014870D03*
X030925Y014870D03*
X031925Y014870D03*
X031925Y011330D03*
X030925Y011330D03*
X029925Y011330D03*
X028925Y011330D03*
D27*
X006149Y019088D03*
X005775Y019088D03*
X005401Y019088D03*
X005401Y020112D03*
X005775Y020112D03*
X006149Y020112D03*
D28*
X006110Y026726D03*
X006110Y027100D03*
X006110Y027474D03*
X007139Y027474D03*
X007139Y026726D03*
X007139Y028576D03*
X007139Y029324D03*
X006110Y029324D03*
X006110Y028950D03*
X006110Y028576D03*
D29*
X008295Y024810D03*
X008295Y023900D03*
X008295Y022990D03*
D30*
X005855Y023900D03*
D31*
X009275Y023976D03*
X009275Y024724D03*
D32*
X003275Y028088D03*
X003275Y028875D03*
X003275Y029663D03*
X012150Y041600D03*
X012937Y041600D03*
X016338Y041600D03*
X017125Y041600D03*
X017912Y041600D03*
X018700Y041600D03*
X019487Y041600D03*
X022563Y041600D03*
X023350Y041600D03*
X024138Y041600D03*
X024925Y041600D03*
X025712Y041600D03*
X026500Y041600D03*
X027287Y041600D03*
X030637Y041600D03*
X035275Y041350D03*
X036275Y041350D03*
X037275Y041350D03*
X036275Y042350D03*
X035275Y042350D03*
X048775Y030462D03*
X048775Y029675D03*
X048775Y028887D03*
X049375Y026100D03*
X049875Y025600D03*
X050375Y026100D03*
X050375Y025100D03*
X049375Y025100D03*
X048775Y016862D03*
X048775Y016075D03*
X048775Y015287D03*
X018725Y006213D03*
X018725Y005425D03*
X018725Y004638D03*
X018725Y003850D03*
X010125Y014088D03*
X010125Y014875D03*
X010125Y015663D03*
X003275Y015325D03*
X003275Y016113D03*
X003275Y014538D03*
D33*
X003275Y016900D03*
X010125Y016450D03*
X018725Y007000D03*
X003275Y030450D03*
X013725Y041600D03*
X020275Y041600D03*
X028075Y041600D03*
X031425Y041600D03*
X037275Y042350D03*
X048775Y028100D03*
X048775Y014500D03*
D34*
X006765Y041890D03*
X004985Y041890D03*
D35*
X004495Y040910D03*
X007255Y040910D03*
D36*
X022275Y012600D03*
X023675Y012600D03*
X025475Y012600D03*
X026875Y012600D03*
D37*
X033304Y004650D03*
X011254Y007800D03*
D38*
X009695Y007800D03*
X031745Y004650D03*
D39*
X034690Y013528D03*
X034690Y013843D03*
X034690Y014157D03*
X034690Y014472D03*
X035359Y014472D03*
X035359Y014157D03*
X035359Y013843D03*
X035359Y013528D03*
X019209Y013307D03*
X019209Y012993D03*
X018540Y012993D03*
X018540Y013307D03*
X015059Y013678D03*
X015059Y013993D03*
X015059Y014307D03*
X015059Y014622D03*
X014390Y014622D03*
X014390Y014307D03*
X014390Y013993D03*
X014390Y013678D03*
X005209Y011522D03*
X005209Y011207D03*
X005209Y010893D03*
X005209Y010578D03*
X004540Y010578D03*
X004540Y010893D03*
X004540Y011207D03*
X004540Y011522D03*
X016340Y026928D03*
X016340Y027243D03*
X016340Y027557D03*
X016340Y027872D03*
X017009Y027872D03*
X017009Y027557D03*
X017009Y027243D03*
X017009Y026928D03*
X045040Y029478D03*
X045040Y029793D03*
X045040Y030107D03*
X045040Y030422D03*
X045709Y030422D03*
X045709Y030107D03*
X045709Y029793D03*
X045709Y029478D03*
X046840Y028107D03*
X046840Y027793D03*
X047509Y027793D03*
X047509Y028107D03*
D40*
X029725Y005300D03*
X029725Y004300D03*
X029725Y003300D03*
X028725Y003300D03*
X027975Y003300D03*
X027975Y004300D03*
X028725Y004300D03*
X028725Y005300D03*
X027975Y005300D03*
X026975Y005300D03*
X026975Y004300D03*
X026975Y003300D03*
D41*
X021647Y013965D03*
X021332Y013965D03*
X021017Y013965D03*
X020702Y013965D03*
X020702Y014635D03*
X021017Y014635D03*
X021332Y014635D03*
X021647Y014635D03*
X044617Y015965D03*
X044932Y015965D03*
X044932Y016635D03*
X044617Y016635D03*
D42*
X008675Y019250D03*
X008675Y020550D03*
D43*
X048237Y019046D03*
X050324Y019046D03*
X050324Y022354D03*
X048237Y022354D03*
D44*
X048139Y021330D03*
X048139Y021015D03*
X048139Y020700D03*
X048139Y020385D03*
X048139Y020070D03*
D45*
X021312Y033358D03*
X021312Y033555D03*
X021312Y033752D03*
X021312Y033948D03*
X021312Y034145D03*
X021312Y034342D03*
X019737Y034342D03*
X019737Y034145D03*
X019737Y033948D03*
X019737Y033752D03*
X019737Y033555D03*
X019737Y033358D03*
D46*
X020032Y033063D03*
X020229Y033063D03*
X020426Y033063D03*
X020623Y033063D03*
X020820Y033063D03*
X021017Y033063D03*
X021017Y034637D03*
X020820Y034637D03*
X020623Y034637D03*
X020426Y034637D03*
X020229Y034637D03*
X020032Y034637D03*
D47*
X042368Y014365D03*
X042368Y013735D03*
X043982Y013735D03*
X043982Y014365D03*
D48*
X021077Y036850D03*
X020172Y036850D03*
D49*
X020241Y036378D03*
X020497Y036378D03*
X020753Y036378D03*
X021008Y036378D03*
X021008Y037322D03*
X020753Y037322D03*
X020497Y037322D03*
X020241Y037322D03*
D50*
X021475Y009550D03*
X021475Y008050D03*
X023325Y008050D03*
X025175Y008050D03*
X025175Y009550D03*
X023325Y009550D03*
X024325Y003050D03*
X022325Y003050D03*
D51*
X044475Y024300D03*
D52*
X045175Y024300D03*
X045175Y024497D03*
X045175Y024694D03*
X045175Y024103D03*
X045175Y023906D03*
X043774Y023906D03*
X043774Y024103D03*
X043774Y024300D03*
X043774Y024497D03*
X043774Y024694D03*
D53*
X044081Y025001D03*
X044278Y025001D03*
X044475Y025001D03*
X044671Y025001D03*
X044868Y025001D03*
X044868Y023599D03*
X044671Y023599D03*
X044475Y023599D03*
X044278Y023599D03*
X044081Y023599D03*
D54*
X044242Y022515D03*
X044242Y021885D03*
X045108Y021885D03*
X045108Y022515D03*
D55*
X048425Y023544D03*
X048425Y024056D03*
D56*
X047881Y024550D03*
X047369Y024550D03*
D57*
X046881Y024554D03*
X046625Y024554D03*
X046369Y024554D03*
X046369Y023846D03*
X046625Y023846D03*
X046881Y023846D03*
D58*
X047225Y023850D03*
X046625Y023350D03*
X046725Y022500D03*
X045925Y021400D03*
X044675Y021350D03*
X042975Y022550D03*
X043225Y023650D03*
X043075Y024000D03*
X042375Y024850D03*
X041425Y024100D03*
X040725Y024450D03*
X041125Y022600D03*
X040375Y021850D03*
X038575Y022050D03*
X037975Y022750D03*
X038575Y022950D03*
X037125Y022950D03*
X036875Y022300D03*
X037125Y021500D03*
X036425Y021500D03*
X035575Y021850D03*
X034125Y023000D03*
X033125Y022650D03*
X031725Y023700D03*
X032225Y024050D03*
X030625Y023700D03*
X029525Y022450D03*
X028975Y023400D03*
X028275Y022100D03*
X027775Y021750D03*
X027225Y022350D03*
X027775Y021050D03*
X027625Y020200D03*
X028775Y021400D03*
X029475Y021350D03*
X029675Y020300D03*
X030175Y019950D03*
X030625Y019400D03*
X029375Y019000D03*
X028825Y018450D03*
X030375Y018100D03*
X031325Y017200D03*
X032325Y016050D03*
X034125Y017900D03*
X033575Y018150D03*
X033125Y019550D03*
X032725Y020050D03*
X032975Y020600D03*
X032325Y020900D03*
X034175Y020500D03*
X035375Y020150D03*
X036525Y019750D03*
X037725Y019850D03*
X038575Y020100D03*
X038775Y019150D03*
X039475Y019000D03*
X039625Y019500D03*
X040075Y019500D03*
X040725Y017650D03*
X040725Y016900D03*
X041125Y016050D03*
X040375Y015800D03*
X037925Y015800D03*
X037825Y016850D03*
X036525Y017150D03*
X035925Y017500D03*
X036075Y016550D03*
X036575Y015800D03*
X036675Y018250D03*
X035425Y018350D03*
X038575Y021250D03*
X035175Y023700D03*
X035475Y024400D03*
X036325Y025300D03*
X036575Y025650D03*
X036025Y025650D03*
X036975Y026400D03*
X037575Y026400D03*
X038075Y026400D03*
X038275Y025500D03*
X038375Y025100D03*
X037675Y025400D03*
X038925Y028150D03*
X038425Y028700D03*
X036725Y031100D03*
X036725Y031700D03*
X034375Y029900D03*
X034425Y028700D03*
X034625Y028300D03*
X034225Y026500D03*
X031825Y027750D03*
X031325Y027750D03*
X030875Y027750D03*
X030025Y028200D03*
X029375Y028650D03*
X027075Y028200D03*
X026725Y028600D03*
X024175Y028300D03*
X022275Y029750D03*
X021475Y029400D03*
X020875Y029000D03*
X020375Y028400D03*
X019275Y027850D03*
X018925Y027450D03*
X018775Y026600D03*
X018575Y026100D03*
X017075Y026300D03*
X016975Y025750D03*
X015975Y025300D03*
X015525Y025300D03*
X015525Y024800D03*
X015975Y024800D03*
X015725Y023700D03*
X015225Y023500D03*
X014025Y023900D03*
X013475Y023900D03*
X012925Y023850D03*
X012375Y023800D03*
X011825Y023750D03*
X011775Y023150D03*
X011675Y022600D03*
X011175Y022600D03*
X010525Y023200D03*
X010325Y023700D03*
X009725Y025700D03*
X009225Y026550D03*
X009225Y028400D03*
X012375Y028500D03*
X014225Y028650D03*
X014725Y026900D03*
X015225Y026550D03*
X016325Y028550D03*
X017675Y029200D03*
X017875Y028150D03*
X019875Y030450D03*
X019025Y032200D03*
X019325Y033350D03*
X019225Y034950D03*
X019225Y035500D03*
X019675Y036300D03*
X021475Y035700D03*
X020225Y037800D03*
X019575Y038000D03*
X017375Y039250D03*
X015725Y038250D03*
X014975Y038250D03*
X014275Y038250D03*
X013375Y036250D03*
X013375Y035750D03*
X014275Y034750D03*
X014975Y034750D03*
X015575Y034750D03*
X014725Y031750D03*
X014725Y031100D03*
X010975Y031100D03*
X010975Y031750D03*
X011225Y034750D03*
X011875Y034750D03*
X010525Y034750D03*
X009625Y035800D03*
X009625Y036300D03*
X008075Y034750D03*
X007475Y034750D03*
X006775Y034750D03*
X005875Y035800D03*
X005875Y036300D03*
X004475Y035800D03*
X002775Y035900D03*
X002475Y036300D03*
X002125Y036650D03*
X003725Y037900D03*
X006775Y038250D03*
X007475Y038250D03*
X008225Y038250D03*
X010525Y038250D03*
X011225Y038250D03*
X011975Y038250D03*
X007225Y031750D03*
X007225Y031100D03*
X005625Y028950D03*
X005625Y027100D03*
X005675Y024800D03*
X006125Y024800D03*
X006525Y024350D03*
X006525Y023450D03*
X006125Y023050D03*
X005675Y023050D03*
X005175Y023450D03*
X005175Y023950D03*
X005175Y024450D03*
X003725Y024600D03*
X002325Y023750D03*
X002325Y023350D03*
X002325Y022950D03*
X002325Y022500D03*
X002325Y022100D03*
X002325Y021650D03*
X003725Y020700D03*
X005825Y020650D03*
X009025Y018250D03*
X008375Y017500D03*
X008275Y014850D03*
X007675Y014850D03*
X007275Y013500D03*
X005725Y014750D03*
X006775Y011050D03*
X006775Y010350D03*
X006525Y007400D03*
X007175Y007400D03*
X005875Y007400D03*
X004875Y006350D03*
X004875Y005850D03*
X005825Y003950D03*
X006475Y003950D03*
X007175Y003950D03*
X011825Y005850D03*
X011825Y006350D03*
X012825Y007400D03*
X013475Y007400D03*
X014125Y007400D03*
X015575Y006350D03*
X015575Y005850D03*
X016575Y007400D03*
X017225Y007400D03*
X017875Y007400D03*
X017475Y010300D03*
X017475Y011000D03*
X019325Y011350D03*
X019325Y011850D03*
X019875Y012800D03*
X017975Y013150D03*
X016925Y013250D03*
X014275Y013250D03*
X013225Y013250D03*
X013375Y014650D03*
X012575Y015550D03*
X012225Y016850D03*
X011675Y017000D03*
X013025Y017550D03*
X014925Y016400D03*
X015575Y016500D03*
X016225Y015900D03*
X017225Y018100D03*
X017225Y018750D03*
X017225Y019950D03*
X017225Y021150D03*
X017225Y021750D03*
X017225Y022400D03*
X018375Y023450D03*
X019225Y023450D03*
X020725Y023450D03*
X021975Y022700D03*
X022525Y023400D03*
X024025Y023450D03*
X024025Y022700D03*
X024025Y022100D03*
X024025Y021150D03*
X024025Y020150D03*
X024025Y019450D03*
X024025Y018450D03*
X024025Y017950D03*
X024025Y016700D03*
X022925Y016700D03*
X022175Y016700D03*
X021175Y016750D03*
X020525Y016750D03*
X019925Y017350D03*
X019225Y016700D03*
X018675Y016700D03*
X022725Y020150D03*
X025775Y019000D03*
X025625Y018150D03*
X025725Y016900D03*
X026875Y015750D03*
X026475Y015300D03*
X027375Y016100D03*
X028275Y016900D03*
X029375Y016850D03*
X026075Y014800D03*
X025525Y014800D03*
X025025Y014750D03*
X024525Y014750D03*
X023925Y014700D03*
X029625Y010150D03*
X030375Y010350D03*
X031475Y012750D03*
X031925Y012750D03*
X032325Y012750D03*
X032725Y012750D03*
X033125Y012750D03*
X034125Y012750D03*
X034925Y012900D03*
X035525Y012700D03*
X036725Y013250D03*
X037725Y013250D03*
X037225Y010950D03*
X037225Y010350D03*
X040425Y013250D03*
X041475Y013250D03*
X042625Y013050D03*
X040975Y010950D03*
X040975Y010350D03*
X040725Y007400D03*
X041375Y007400D03*
X040075Y007400D03*
X038625Y006350D03*
X038625Y005850D03*
X037625Y007400D03*
X036975Y007400D03*
X036325Y007400D03*
X036325Y003950D03*
X036975Y003950D03*
X037625Y003950D03*
X040075Y003950D03*
X040725Y003950D03*
X041375Y003950D03*
X042325Y005850D03*
X042325Y006350D03*
X043925Y007400D03*
X044575Y007400D03*
X045225Y007400D03*
X046225Y006350D03*
X046225Y005850D03*
X045225Y003950D03*
X044575Y003950D03*
X043925Y003950D03*
X047525Y008800D03*
X047625Y009250D03*
X049325Y008550D03*
X049725Y008250D03*
X044825Y010350D03*
X044825Y010950D03*
X045375Y015600D03*
X046575Y017300D03*
X046725Y018200D03*
X044675Y023100D03*
X044725Y024050D03*
X044725Y024550D03*
X044225Y024550D03*
X044225Y024050D03*
X045575Y023800D03*
X045625Y024700D03*
X045675Y025350D03*
X046625Y025050D03*
X048075Y023550D03*
X044475Y025450D03*
X042375Y026750D03*
X041975Y028400D03*
X041725Y028750D03*
X040475Y031100D03*
X040475Y031700D03*
X040725Y034750D03*
X041375Y034750D03*
X040075Y034750D03*
X038525Y035800D03*
X038525Y036250D03*
X037575Y034750D03*
X036975Y034750D03*
X036275Y034750D03*
X034725Y036650D03*
X034725Y037150D03*
X033875Y038150D03*
X033125Y038150D03*
X032425Y038150D03*
X031025Y037150D03*
X031025Y036650D03*
X030125Y038200D03*
X029375Y038200D03*
X028675Y038200D03*
X027225Y037150D03*
X027225Y036650D03*
X026375Y038250D03*
X025625Y038250D03*
X024925Y038250D03*
X024275Y039250D03*
X024925Y034750D03*
X025625Y034750D03*
X026275Y034750D03*
X028675Y034750D03*
X029375Y034750D03*
X030025Y034750D03*
X032425Y034750D03*
X033125Y034750D03*
X033775Y034750D03*
X032875Y031700D03*
X032875Y031100D03*
X029125Y031100D03*
X029125Y031700D03*
X025375Y031700D03*
X025375Y031100D03*
X023225Y030350D03*
X024075Y024950D03*
X025775Y024100D03*
X026775Y024100D03*
X027275Y024050D03*
X030625Y024800D03*
X019775Y021950D03*
X011775Y021350D03*
X011725Y020900D03*
X011525Y020550D03*
X011175Y020300D03*
X011225Y020900D03*
X011475Y019750D03*
X013725Y011000D03*
X013725Y010300D03*
X013425Y003950D03*
X012775Y003950D03*
X014125Y003950D03*
X016525Y003950D03*
X017225Y003950D03*
X017875Y003950D03*
X002825Y010100D03*
X033525Y010850D03*
X044225Y031100D03*
X044225Y031700D03*
X044475Y034750D03*
X045125Y034750D03*
X043825Y034750D03*
X042325Y035800D03*
X042325Y036250D03*
X041475Y038200D03*
X040725Y038200D03*
X040025Y038200D03*
X037725Y038200D03*
X036975Y038200D03*
X036275Y038200D03*
X032425Y040400D03*
X043775Y038200D03*
X044475Y038200D03*
X045225Y038200D03*
X046075Y037600D03*
X046075Y037150D03*
X047475Y034900D03*
X048225Y032450D03*
M02*
