%TF.GenerationSoftware,KiCad,Pcbnew,10.0.5*%
%TF.CreationDate,2026-09-03T18:20:01-04:00*%
%TF.ProjectId,integration-test,696e7465-6772-4617-9469-6f6e2d746573,v1.0*%
%TF.SameCoordinates,Original*%
%TF.FileFunction,Paste,Top*%
%TF.FilePolarity,Positive*%
%FSLAX46Y46*%
G04 Gerber Fmt 4.6, Leading zero omitted, Abs format (unit mm)*
G04 Created by KiCad (PCBNEW 10.0.5) date 2026-09-03 18:20:01*
%MOMM*%
%LPD*%
G01*
G04 APERTURE LIST*
G04 Aperture macros list*
%AMRoundRect*
0 Rectangle with rounded corners*
0 $1 Rounding radius*
0 $2 $3 $4 $5 $6 $7 $8 $9 X,Y pos of 4 corners*
0 Add a 4 corners polygon primitive as box body*
4,1,4,$2,$3,$4,$5,$6,$7,$8,$9,$2,$3,0*
0 Add four circle primitives for the rounded corners*
1,1,$1+$1,$2,$3*
1,1,$1+$1,$4,$5*
1,1,$1+$1,$6,$7*
1,1,$1+$1,$8,$9*
0 Add four rect primitives between the rounded corners*
20,1,$1+$1,$2,$3,$4,$5,0*
20,1,$1+$1,$4,$5,$6,$7,0*
20,1,$1+$1,$6,$7,$8,$9,0*
20,1,$1+$1,$8,$9,$2,$3,0*%
G04 Aperture macros list end*
%ADD10RoundRect,0.135000X-0.135000X-0.185000X0.135000X-0.185000X0.135000X0.185000X-0.135000X0.185000X0*%
%ADD11R,0.900000X0.600000*%
%ADD12R,0.600000X0.900000*%
%ADD13RoundRect,0.125000X0.175000X0.400000X-0.175000X0.400000X-0.175000X-0.400000X0.175000X-0.400000X0*%
%ADD14RoundRect,0.250000X-0.275000X-0.275000X0.275000X-0.275000X0.275000X0.275000X-0.275000X0.275000X0*%
%ADD15RoundRect,0.062500X-0.375000X-0.062500X0.375000X-0.062500X0.375000X0.062500X-0.375000X0.062500X0*%
%ADD16RoundRect,0.062500X-0.062500X-0.375000X0.062500X-0.375000X0.062500X0.375000X-0.062500X0.375000X0*%
%ADD17RoundRect,0.135000X0.185000X-0.135000X0.185000X0.135000X-0.185000X0.135000X-0.185000X-0.135000X0*%
%ADD18RoundRect,0.050000X-0.250000X0.100000X-0.250000X-0.100000X0.250000X-0.100000X0.250000X0.100000X0*%
%ADD19RoundRect,0.250000X-0.550000X1.412500X-0.550000X-1.412500X0.550000X-1.412500X0.550000X1.412500X0*%
%ADD20RoundRect,0.250000X1.000000X0.650000X-1.000000X0.650000X-1.000000X-0.650000X1.000000X-0.650000X0*%
%ADD21RoundRect,0.135000X0.135000X0.185000X-0.135000X0.185000X-0.135000X-0.185000X0.135000X-0.185000X0*%
%ADD22RoundRect,0.225000X0.225000X0.250000X-0.225000X0.250000X-0.225000X-0.250000X0.225000X-0.250000X0*%
%ADD23RoundRect,0.182500X-0.182500X-0.337500X0.182500X-0.337500X0.182500X0.337500X-0.182500X0.337500X0*%
%ADD24RoundRect,0.062500X-0.312500X-0.062500X0.312500X-0.062500X0.312500X0.062500X-0.312500X0.062500X0*%
%ADD25RoundRect,0.225000X-0.225000X-0.250000X0.225000X-0.250000X0.225000X0.250000X-0.225000X0.250000X0*%
%ADD26RoundRect,0.218750X-0.256250X0.218750X-0.256250X-0.218750X0.256250X-0.218750X0.256250X0.218750X0*%
%ADD27RoundRect,0.150000X-0.700000X0.150000X-0.700000X-0.150000X0.700000X-0.150000X0.700000X0.150000X0*%
%ADD28RoundRect,0.250000X-1.100000X0.250000X-1.100000X-0.250000X1.100000X-0.250000X1.100000X0.250000X0*%
%ADD29RoundRect,0.150000X0.150000X0.275000X-0.150000X0.275000X-0.150000X-0.275000X0.150000X-0.275000X0*%
%ADD30RoundRect,0.187500X0.187500X0.362500X-0.187500X0.362500X-0.187500X-0.362500X0.187500X-0.362500X0*%
%ADD31R,3.400000X1.200000*%
%ADD32R,3.400000X0.600000*%
%ADD33RoundRect,0.175000X0.175000X0.225000X-0.175000X0.225000X-0.175000X-0.225000X0.175000X-0.225000X0*%
%ADD34RoundRect,0.100000X-0.637500X-0.100000X0.637500X-0.100000X0.637500X0.100000X-0.637500X0.100000X0*%
%ADD35R,0.400000X1.100000*%
%ADD36RoundRect,0.135000X-0.185000X0.135000X-0.185000X-0.135000X0.185000X-0.135000X0.185000X0.135000X0*%
%ADD37RoundRect,0.050000X0.250000X-0.100000X0.250000X0.100000X-0.250000X0.100000X-0.250000X-0.100000X0*%
%ADD38RoundRect,0.140000X-0.140000X-0.170000X0.140000X-0.170000X0.140000X0.170000X-0.140000X0.170000X0*%
%ADD39R,1.000000X0.900000*%
%ADD40RoundRect,0.140000X0.170000X-0.140000X0.170000X0.140000X-0.170000X0.140000X-0.170000X-0.140000X0*%
%ADD41RoundRect,0.250000X1.075000X-0.375000X1.075000X0.375000X-1.075000X0.375000X-1.075000X-0.375000X0*%
%ADD42RoundRect,0.062500X0.250000X0.062500X-0.250000X0.062500X-0.250000X-0.062500X0.250000X-0.062500X0*%
%ADD43RoundRect,0.112500X0.237500X0.112500X-0.237500X0.112500X-0.237500X-0.112500X0.237500X-0.112500X0*%
%ADD44RoundRect,0.112500X0.175000X0.112500X-0.175000X0.112500X-0.175000X-0.112500X0.175000X-0.112500X0*%
%ADD45RoundRect,0.062500X0.062500X-0.250000X0.062500X0.250000X-0.062500X0.250000X-0.062500X-0.250000X0*%
%ADD46RoundRect,0.112500X0.112500X-0.237500X0.112500X0.237500X-0.112500X0.237500X-0.112500X-0.237500X0*%
%ADD47RoundRect,0.112500X0.112500X-0.175000X0.112500X0.175000X-0.112500X0.175000X-0.112500X-0.175000X0*%
%ADD48R,2.800000X2.150000*%
%ADD49RoundRect,0.062500X-0.250000X-0.062500X0.250000X-0.062500X0.250000X0.062500X-0.250000X0.062500X0*%
%ADD50RoundRect,0.112500X-0.237500X-0.112500X0.237500X-0.112500X0.237500X0.112500X-0.237500X0.112500X0*%
%ADD51RoundRect,0.112500X-0.175000X-0.112500X0.175000X-0.112500X0.175000X0.112500X-0.175000X0.112500X0*%
%ADD52RoundRect,0.218750X0.218750X0.256250X-0.218750X0.256250X-0.218750X-0.256250X0.218750X-0.256250X0*%
%ADD53RoundRect,0.225000X-0.250000X0.225000X-0.250000X-0.225000X0.250000X-0.225000X0.250000X0.225000X0*%
%ADD54RoundRect,0.225000X0.250000X-0.225000X0.250000X0.225000X-0.250000X0.225000X-0.250000X-0.225000X0*%
G04 APERTURE END LIST*
D10*
%TO.C,R8*%
X136490000Y-116000000D03*
X137510000Y-116000000D03*
%TD*%
%TO.C,R19*%
X136490000Y-120250000D03*
X137510000Y-120250000D03*
%TD*%
D11*
%TO.C,Q3*%
X147850000Y-119050000D03*
X149000000Y-119050000D03*
X150150000Y-119050000D03*
X147850000Y-118200000D03*
X149000000Y-118200000D03*
X150150000Y-118200000D03*
X147850000Y-117350000D03*
X149000000Y-117350000D03*
X150150000Y-117350000D03*
X147850000Y-116500000D03*
X149000000Y-116500000D03*
X150150000Y-116500000D03*
D12*
X147095000Y-115500000D03*
X148365000Y-115500000D03*
X149635000Y-115500000D03*
X150905000Y-115500000D03*
D13*
X147095000Y-121225000D03*
X148365000Y-121225000D03*
X149635000Y-121225000D03*
X150905000Y-121225000D03*
%TD*%
D10*
%TO.C,R22*%
X136490000Y-125500000D03*
X137510000Y-125500000D03*
%TD*%
D14*
%TO.C,U1*%
X122350000Y-123350000D03*
X122350000Y-124650000D03*
X123650000Y-123350000D03*
X123650000Y-124650000D03*
D15*
X119562500Y-121250000D03*
X119562500Y-121750000D03*
X119562500Y-122250000D03*
X119562500Y-122750000D03*
X119562500Y-123250000D03*
X119562500Y-123750000D03*
X119562500Y-124250000D03*
X119562500Y-124750000D03*
X119562500Y-125250000D03*
X119562500Y-125750000D03*
X119562500Y-126250000D03*
X119562500Y-126750000D03*
D16*
X120250000Y-127437500D03*
X120750000Y-127437500D03*
X121250000Y-127437500D03*
X121750000Y-127437500D03*
X122250000Y-127437500D03*
X122750000Y-127437500D03*
X123250000Y-127437500D03*
X123750000Y-127437500D03*
X124250000Y-127437500D03*
X124750000Y-127437500D03*
X125250000Y-127437500D03*
X125750000Y-127437500D03*
D15*
X126437500Y-126750000D03*
X126437500Y-126250000D03*
X126437500Y-125750000D03*
X126437500Y-125250000D03*
X126437500Y-124750000D03*
X126437500Y-124250000D03*
X126437500Y-123750000D03*
X126437500Y-123250000D03*
X126437500Y-122750000D03*
X126437500Y-122250000D03*
X126437500Y-121750000D03*
X126437500Y-121250000D03*
D16*
X125750000Y-120562500D03*
X125250000Y-120562500D03*
X124750000Y-120562500D03*
X124250000Y-120562500D03*
X123750000Y-120562500D03*
X123250000Y-120562500D03*
X122750000Y-120562500D03*
X122250000Y-120562500D03*
X121750000Y-120562500D03*
X121250000Y-120562500D03*
X120750000Y-120562500D03*
X120250000Y-120562500D03*
%TD*%
D17*
%TO.C,R47*%
X117500000Y-131510000D03*
X117500000Y-130490000D03*
%TD*%
%TO.C,R14*%
X136500000Y-128510000D03*
X136500000Y-127490000D03*
%TD*%
D18*
%TO.C,D5*%
X135000000Y-119400000D03*
X135000000Y-120100000D03*
%TD*%
D19*
%TO.C,C3*%
X170000000Y-118462500D03*
X170000000Y-123537500D03*
%TD*%
D20*
%TO.C,D8*%
X170000000Y-113000000D03*
X166000000Y-113000000D03*
%TD*%
D21*
%TO.C,R44*%
X110010000Y-64500000D03*
X108990000Y-64500000D03*
%TD*%
D22*
%TO.C,C22*%
X178775000Y-116000000D03*
X177225000Y-116000000D03*
%TD*%
D18*
%TO.C,D7*%
X135000000Y-123650000D03*
X135000000Y-124350000D03*
%TD*%
D23*
%TO.C,U2*%
X177500000Y-117900000D03*
X177500000Y-119100000D03*
D24*
X176500000Y-117500000D03*
X176500000Y-118000000D03*
X176500000Y-118500000D03*
X176500000Y-119000000D03*
X176500000Y-119500000D03*
X178500000Y-119500000D03*
X178500000Y-119000000D03*
X178500000Y-118500000D03*
X178500000Y-118000000D03*
X178500000Y-117500000D03*
%TD*%
D11*
%TO.C,Q2*%
X141850000Y-126550000D03*
X143000000Y-126550000D03*
X144150000Y-126550000D03*
X141850000Y-125700000D03*
X143000000Y-125700000D03*
X144150000Y-125700000D03*
X141850000Y-124850000D03*
X143000000Y-124850000D03*
X144150000Y-124850000D03*
X141850000Y-124000000D03*
X143000000Y-124000000D03*
X144150000Y-124000000D03*
D12*
X141095000Y-123000000D03*
X142365000Y-123000000D03*
X143635000Y-123000000D03*
X144905000Y-123000000D03*
D13*
X141095000Y-128725000D03*
X142365000Y-128725000D03*
X143635000Y-128725000D03*
X144905000Y-128725000D03*
%TD*%
D10*
%TO.C,R43*%
X106740000Y-64500000D03*
X107760000Y-64500000D03*
%TD*%
D25*
%TO.C,C13*%
X129475000Y-125250000D03*
X131025000Y-125250000D03*
%TD*%
D22*
%TO.C,C15*%
X154775000Y-114000000D03*
X153225000Y-114000000D03*
%TD*%
D25*
%TO.C,C12*%
X129475000Y-123250000D03*
X131025000Y-123250000D03*
%TD*%
D19*
%TO.C,C4*%
X162000000Y-118462500D03*
X162000000Y-123537500D03*
%TD*%
D26*
%TO.C,D3*%
X105000000Y-102712500D03*
X105000000Y-104287500D03*
%TD*%
D21*
%TO.C,R49*%
X100260000Y-129000000D03*
X99240000Y-129000000D03*
%TD*%
D27*
%TO.C,J2*%
X96850000Y-122500000D03*
X96850000Y-123750000D03*
X96850000Y-125000000D03*
X96850000Y-126250000D03*
X96850000Y-127500000D03*
D28*
X93650000Y-120650000D03*
X93650000Y-129350000D03*
%TD*%
D29*
%TO.C,J6*%
X114900000Y-136875000D03*
X113700000Y-136875000D03*
X112500000Y-136875000D03*
X111300000Y-136875000D03*
X110100000Y-136875000D03*
D30*
X116075000Y-133250000D03*
X108925000Y-133250000D03*
%TD*%
D31*
%TO.C,R50*%
X135750000Y-132900000D03*
X135750000Y-130100000D03*
D32*
X135750000Y-131500000D03*
X130750000Y-131500000D03*
D31*
X130750000Y-132900000D03*
X130750000Y-130100000D03*
%TD*%
D26*
%TO.C,D12*%
X112000000Y-60712500D03*
X112000000Y-62287500D03*
%TD*%
D29*
%TO.C,J5*%
X150200000Y-136875000D03*
X149000000Y-136875000D03*
X147800000Y-136875000D03*
D33*
X151350000Y-133100000D03*
X146650000Y-133100000D03*
%TD*%
D10*
%TO.C,R18*%
X136490000Y-121250000D03*
X137510000Y-121250000D03*
%TD*%
D17*
%TO.C,R53*%
X103500000Y-89010000D03*
X103500000Y-87990000D03*
%TD*%
D21*
%TO.C,R3*%
X132760000Y-128500000D03*
X131740000Y-128500000D03*
%TD*%
D34*
%TO.C,U6*%
X137137500Y-88050000D03*
X137137500Y-88700000D03*
X137137500Y-89350000D03*
X137137500Y-90000000D03*
X137137500Y-90650000D03*
X137137500Y-91300000D03*
X137137500Y-91950000D03*
X142862500Y-91950000D03*
X142862500Y-91300000D03*
X142862500Y-90650000D03*
X142862500Y-90000000D03*
X142862500Y-89350000D03*
X142862500Y-88700000D03*
X142862500Y-88050000D03*
%TD*%
D35*
%TO.C,U5*%
X107875000Y-62150000D03*
X108525000Y-62150000D03*
X109175000Y-62150000D03*
X109825000Y-62150000D03*
X109825000Y-57850000D03*
X109175000Y-57850000D03*
X108525000Y-57850000D03*
X107875000Y-57850000D03*
%TD*%
D36*
%TO.C,R39*%
X180000000Y-118990000D03*
X180000000Y-120010000D03*
%TD*%
D10*
%TO.C,R20*%
X136490000Y-126500000D03*
X137510000Y-126500000D03*
%TD*%
D21*
%TO.C,R6*%
X125010000Y-130000000D03*
X123990000Y-130000000D03*
%TD*%
D10*
%TO.C,R23*%
X136490000Y-124500000D03*
X137510000Y-124500000D03*
%TD*%
D25*
%TO.C,C10*%
X129475000Y-121250000D03*
X131025000Y-121250000D03*
%TD*%
D36*
%TO.C,R15*%
X134500000Y-127490000D03*
X134500000Y-128510000D03*
%TD*%
D17*
%TO.C,R9*%
X129250000Y-128020000D03*
X129250000Y-127000000D03*
%TD*%
D10*
%TO.C,R21*%
X136490000Y-123500000D03*
X137510000Y-123500000D03*
%TD*%
D37*
%TO.C,D6*%
X135000000Y-126350000D03*
X135000000Y-125650000D03*
%TD*%
D22*
%TO.C,C14*%
X148775000Y-114000000D03*
X147225000Y-114000000D03*
%TD*%
D36*
%TO.C,R52*%
X102500000Y-91990000D03*
X102500000Y-93010000D03*
%TD*%
D10*
%TO.C,R2*%
X136490000Y-117000000D03*
X137510000Y-117000000D03*
%TD*%
D37*
%TO.C,D4*%
X135000000Y-122100000D03*
X135000000Y-121400000D03*
%TD*%
D21*
%TO.C,R1*%
X126010000Y-129000000D03*
X124990000Y-129000000D03*
%TD*%
D10*
%TO.C,R10*%
X136490000Y-115000000D03*
X137510000Y-115000000D03*
%TD*%
%TO.C,R17*%
X136490000Y-119250000D03*
X137510000Y-119250000D03*
%TD*%
D11*
%TO.C,Q1*%
X141850000Y-119050000D03*
X143000000Y-119050000D03*
X144150000Y-119050000D03*
X141850000Y-118200000D03*
X143000000Y-118200000D03*
X144150000Y-118200000D03*
X141850000Y-117350000D03*
X143000000Y-117350000D03*
X144150000Y-117350000D03*
X141850000Y-116500000D03*
X143000000Y-116500000D03*
X144150000Y-116500000D03*
D12*
X141095000Y-115500000D03*
X142365000Y-115500000D03*
X143635000Y-115500000D03*
X144905000Y-115500000D03*
D13*
X141095000Y-121225000D03*
X142365000Y-121225000D03*
X143635000Y-121225000D03*
X144905000Y-121225000D03*
%TD*%
D11*
%TO.C,Q5*%
X153850000Y-119050000D03*
X155000000Y-119050000D03*
X156150000Y-119050000D03*
X153850000Y-118200000D03*
X155000000Y-118200000D03*
X156150000Y-118200000D03*
X153850000Y-117350000D03*
X155000000Y-117350000D03*
X156150000Y-117350000D03*
X153850000Y-116500000D03*
X155000000Y-116500000D03*
X156150000Y-116500000D03*
D12*
X153095000Y-115500000D03*
X154365000Y-115500000D03*
X155635000Y-115500000D03*
X156905000Y-115500000D03*
D13*
X153095000Y-121225000D03*
X154365000Y-121225000D03*
X155635000Y-121225000D03*
X156905000Y-121225000D03*
%TD*%
D17*
%TO.C,R42*%
X112000000Y-64510000D03*
X112000000Y-63490000D03*
%TD*%
D38*
%TO.C,C2*%
X124020000Y-131000000D03*
X124980000Y-131000000D03*
%TD*%
D17*
%TO.C,R46*%
X116500000Y-131510000D03*
X116500000Y-130490000D03*
%TD*%
D39*
%TO.C,SW1*%
X94200000Y-103050000D03*
X94200000Y-98950000D03*
X95800000Y-103050000D03*
X95800000Y-98950000D03*
%TD*%
D11*
%TO.C,Q4*%
X147850000Y-126550000D03*
X149000000Y-126550000D03*
X150150000Y-126550000D03*
X147850000Y-125700000D03*
X149000000Y-125700000D03*
X150150000Y-125700000D03*
X147850000Y-124850000D03*
X149000000Y-124850000D03*
X150150000Y-124850000D03*
X147850000Y-124000000D03*
X149000000Y-124000000D03*
X150150000Y-124000000D03*
D12*
X147095000Y-123000000D03*
X148365000Y-123000000D03*
X149635000Y-123000000D03*
X150905000Y-123000000D03*
D13*
X147095000Y-128725000D03*
X148365000Y-128725000D03*
X149635000Y-128725000D03*
X150905000Y-128725000D03*
%TD*%
D40*
%TO.C,C6*%
X116500000Y-122840000D03*
X116500000Y-121880000D03*
%TD*%
D41*
%TO.C,L1*%
X181500000Y-117400000D03*
X181500000Y-114600000D03*
%TD*%
D42*
%TO.C,D14*%
X100887500Y-91000000D03*
X100887500Y-90500000D03*
D43*
X100850000Y-90000000D03*
D42*
X100887500Y-89500000D03*
X100887500Y-89000000D03*
X100112500Y-89000000D03*
X100112500Y-89500000D03*
D44*
X100087500Y-90000000D03*
D42*
X100112500Y-90500000D03*
X100112500Y-91000000D03*
%TD*%
D22*
%TO.C,C19*%
X178775000Y-114500000D03*
X177225000Y-114500000D03*
%TD*%
D45*
%TO.C,D13*%
X112250000Y-131387500D03*
X112750000Y-131387500D03*
D46*
X113250000Y-131350000D03*
D45*
X113750000Y-131387500D03*
X114250000Y-131387500D03*
X114250000Y-130612500D03*
X113750000Y-130612500D03*
D47*
X113250000Y-130587500D03*
D45*
X112750000Y-130612500D03*
X112250000Y-130612500D03*
%TD*%
D36*
%TO.C,R48*%
X97500000Y-101990000D03*
X97500000Y-103010000D03*
%TD*%
D40*
%TO.C,C11*%
X135500000Y-128480000D03*
X135500000Y-127520000D03*
%TD*%
%TO.C,C9*%
X115500000Y-123480000D03*
X115500000Y-122520000D03*
%TD*%
D18*
%TO.C,D2*%
X135000000Y-115150000D03*
X135000000Y-115850000D03*
%TD*%
D22*
%TO.C,C5*%
X117275000Y-124750000D03*
X115725000Y-124750000D03*
%TD*%
D37*
%TO.C,D1*%
X135000000Y-117850000D03*
X135000000Y-117150000D03*
%TD*%
D10*
%TO.C,R4*%
X136490000Y-118000000D03*
X137510000Y-118000000D03*
%TD*%
D48*
%TO.C,F1*%
X170225000Y-104525000D03*
X170225000Y-109435000D03*
%TD*%
D49*
%TO.C,D11*%
X97612500Y-111500000D03*
X97612500Y-112000000D03*
D50*
X97650000Y-112500000D03*
D49*
X97612500Y-113000000D03*
X97612500Y-113500000D03*
X98387500Y-113500000D03*
X98387500Y-113000000D03*
D51*
X98412500Y-112500000D03*
D49*
X98387500Y-112000000D03*
X98387500Y-111500000D03*
%TD*%
D40*
%TO.C,C7*%
X117500000Y-122840000D03*
X117500000Y-121880000D03*
%TD*%
D21*
%TO.C,R7*%
X133510000Y-127500000D03*
X132490000Y-127500000D03*
%TD*%
D52*
%TO.C,D9*%
X179037500Y-123250000D03*
X177462500Y-123250000D03*
%TD*%
D10*
%TO.C,R11*%
X136490000Y-122250000D03*
X137510000Y-122250000D03*
%TD*%
D53*
%TO.C,C18*%
X175000000Y-118225000D03*
X175000000Y-119775000D03*
%TD*%
D40*
%TO.C,C21*%
X144800000Y-89480000D03*
X144800000Y-88520000D03*
%TD*%
D36*
%TO.C,R51*%
X102500000Y-86990000D03*
X102500000Y-88010000D03*
%TD*%
D11*
%TO.C,Q6*%
X153850000Y-126550000D03*
X155000000Y-126550000D03*
X156150000Y-126550000D03*
X153850000Y-125700000D03*
X155000000Y-125700000D03*
X156150000Y-125700000D03*
X153850000Y-124850000D03*
X155000000Y-124850000D03*
X156150000Y-124850000D03*
X153850000Y-124000000D03*
X155000000Y-124000000D03*
X156150000Y-124000000D03*
D12*
X153095000Y-123000000D03*
X154365000Y-123000000D03*
X155635000Y-123000000D03*
X156905000Y-123000000D03*
D13*
X153095000Y-128725000D03*
X154365000Y-128725000D03*
X155635000Y-128725000D03*
X156905000Y-128725000D03*
%TD*%
D10*
%TO.C,R40*%
X174740000Y-123250000D03*
X175760000Y-123250000D03*
%TD*%
D17*
%TO.C,R45*%
X115500000Y-131510000D03*
X115500000Y-130490000D03*
%TD*%
D36*
%TO.C,R5*%
X130250000Y-126990000D03*
X130250000Y-128010000D03*
%TD*%
D54*
%TO.C,C8*%
X114250000Y-123525000D03*
X114250000Y-121975000D03*
%TD*%
D22*
%TO.C,C1*%
X142775000Y-114000000D03*
X141225000Y-114000000D03*
%TD*%
D27*
%TO.C,J4*%
X96850000Y-86875000D03*
X96850000Y-88125000D03*
X96850000Y-89375000D03*
X96850000Y-90625000D03*
X96850000Y-91875000D03*
X96850000Y-93125000D03*
D28*
X93650000Y-85025000D03*
X93650000Y-94975000D03*
%TD*%
D17*
%TO.C,R12*%
X105000000Y-106760000D03*
X105000000Y-105740000D03*
%TD*%
M02*
