%TF.GenerationSoftware,KiCad,Pcbnew,10.0.6-10.0.6~ubuntu24.04.1*%
%TF.CreationDate,2026-10-04T15:24:39-04:00*%
%TF.ProjectId,integration-test,696e7465-6772-4617-9469-6f6e2d746573,v1.0*%
%TF.SameCoordinates,Original*%
%TF.FileFunction,Paste,Top*%
%TF.FilePolarity,Positive*%
%FSLAX46Y46*%
G04 Gerber Fmt 4.6, Leading zero omitted, Abs format (unit mm)*
G04 Created by KiCad (PCBNEW 10.0.6-10.0.6~ubuntu24.04.1) date 2026-10-04 15:24:39*
%MOMM*%
%LPD*%
G01*
G04 APERTURE LIST*
G04 Aperture macros list*
%AMRoundRect*
0 Rectangle with rounded corners*
0 $1 Rounding radius*
0 $2 $3 $4 $5 $6 $7 $8 $9 X,Y pos of 4 corners*
0 Add a 4 corners polygon primitive as box body*
4,1,4,$2,$3,$4,$5,$6,$7,$8,$9,$2,$3,0*
0 Add four circle primitives for the rounded corners*
1,1,$1+$1,$2,$3*
1,1,$1+$1,$4,$5*
1,1,$1+$1,$6,$7*
1,1,$1+$1,$8,$9*
0 Add four rect primitives between the rounded corners*
20,1,$1+$1,$2,$3,$4,$5,0*
20,1,$1+$1,$4,$5,$6,$7,0*
20,1,$1+$1,$6,$7,$8,$9,0*
20,1,$1+$1,$8,$9,$2,$3,0*%
G04 Aperture macros list end*
%ADD10RoundRect,0.250000X0.275000X-0.275000X0.275000X0.275000X-0.275000X0.275000X-0.275000X-0.275000X0*%
%ADD11RoundRect,0.062500X0.062500X-0.375000X0.062500X0.375000X-0.062500X0.375000X-0.062500X-0.375000X0*%
%ADD12RoundRect,0.062500X0.375000X-0.062500X0.375000X0.062500X-0.375000X0.062500X-0.375000X-0.062500X0*%
%ADD13RoundRect,0.135000X0.185000X-0.135000X0.185000X0.135000X-0.185000X0.135000X-0.185000X-0.135000X0*%
%ADD14R,0.600000X0.900000*%
%ADD15R,0.900000X0.600000*%
%ADD16RoundRect,0.125000X-0.400000X0.175000X-0.400000X-0.175000X0.400000X-0.175000X0.400000X0.175000X0*%
%ADD17RoundRect,0.135000X-0.185000X0.135000X-0.185000X-0.135000X0.185000X-0.135000X0.185000X0.135000X0*%
%ADD18RoundRect,0.250000X-0.250000X-1.500000X0.250000X-1.500000X0.250000X1.500000X-0.250000X1.500000X0*%
%ADD19RoundRect,0.250001X-0.499999X-1.449999X0.499999X-1.449999X0.499999X1.449999X-0.499999X1.449999X0*%
%ADD20RoundRect,0.250000X-0.625000X0.375000X-0.625000X-0.375000X0.625000X-0.375000X0.625000X0.375000X0*%
%ADD21RoundRect,0.135000X0.135000X0.185000X-0.135000X0.185000X-0.135000X-0.185000X0.135000X-0.185000X0*%
%ADD22RoundRect,0.225000X-0.225000X-0.250000X0.225000X-0.250000X0.225000X0.250000X-0.225000X0.250000X0*%
%ADD23RoundRect,0.225000X0.225000X0.250000X-0.225000X0.250000X-0.225000X-0.250000X0.225000X-0.250000X0*%
%ADD24RoundRect,0.135000X-0.135000X-0.185000X0.135000X-0.185000X0.135000X0.185000X-0.135000X0.185000X0*%
%ADD25RoundRect,0.225000X-0.250000X0.225000X-0.250000X-0.225000X0.250000X-0.225000X0.250000X0.225000X0*%
%ADD26R,1.100000X0.400000*%
%ADD27RoundRect,0.250000X1.412500X0.550000X-1.412500X0.550000X-1.412500X-0.550000X1.412500X-0.550000X0*%
%ADD28RoundRect,0.062500X-0.062500X0.250000X-0.062500X-0.250000X0.062500X-0.250000X0.062500X0.250000X0*%
%ADD29RoundRect,0.112500X-0.112500X0.237500X-0.112500X-0.237500X0.112500X-0.237500X0.112500X0.237500X0*%
%ADD30RoundRect,0.112500X-0.112500X0.175000X-0.112500X-0.175000X0.112500X-0.175000X0.112500X0.175000X0*%
%ADD31RoundRect,0.225000X0.250000X-0.225000X0.250000X0.225000X-0.250000X0.225000X-0.250000X-0.225000X0*%
%ADD32RoundRect,0.140000X0.170000X-0.140000X0.170000X0.140000X-0.170000X0.140000X-0.170000X-0.140000X0*%
%ADD33R,1.200000X3.400000*%
%ADD34R,0.600000X3.400000*%
%ADD35RoundRect,0.150000X-0.700000X0.150000X-0.700000X-0.150000X0.700000X-0.150000X0.700000X0.150000X0*%
%ADD36RoundRect,0.250000X-1.100000X0.250000X-1.100000X-0.250000X1.100000X-0.250000X1.100000X0.250000X0*%
%ADD37R,1.000000X0.900000*%
%ADD38RoundRect,0.218750X-0.256250X0.218750X-0.256250X-0.218750X0.256250X-0.218750X0.256250X0.218750X0*%
%ADD39RoundRect,0.250000X1.000000X0.650000X-1.000000X0.650000X-1.000000X-0.650000X1.000000X-0.650000X0*%
%ADD40RoundRect,0.140000X-0.170000X0.140000X-0.170000X-0.140000X0.170000X-0.140000X0.170000X0.140000X0*%
%ADD41RoundRect,0.050000X-0.100000X-0.250000X0.100000X-0.250000X0.100000X0.250000X-0.100000X0.250000X0*%
%ADD42RoundRect,0.218750X-0.218750X-0.256250X0.218750X-0.256250X0.218750X0.256250X-0.218750X0.256250X0*%
%ADD43RoundRect,0.140000X-0.140000X-0.170000X0.140000X-0.170000X0.140000X0.170000X-0.140000X0.170000X0*%
%ADD44RoundRect,0.150000X-0.512500X-0.150000X0.512500X-0.150000X0.512500X0.150000X-0.512500X0.150000X0*%
%ADD45RoundRect,0.250000X0.550000X-1.412500X0.550000X1.412500X-0.550000X1.412500X-0.550000X-1.412500X0*%
%ADD46RoundRect,0.250000X-1.075000X0.375000X-1.075000X-0.375000X1.075000X-0.375000X1.075000X0.375000X0*%
%ADD47RoundRect,0.150000X-0.150000X-0.700000X0.150000X-0.700000X0.150000X0.700000X-0.150000X0.700000X0*%
%ADD48RoundRect,0.250000X-0.250000X-1.100000X0.250000X-1.100000X0.250000X1.100000X-0.250000X1.100000X0*%
%ADD49RoundRect,0.218750X0.256250X-0.218750X0.256250X0.218750X-0.256250X0.218750X-0.256250X-0.218750X0*%
%ADD50RoundRect,0.079500X-0.100500X0.079500X-0.100500X-0.079500X0.100500X-0.079500X0.100500X0.079500X0*%
%ADD51RoundRect,0.062500X0.062500X-0.250000X0.062500X0.250000X-0.062500X0.250000X-0.062500X-0.250000X0*%
%ADD52RoundRect,0.112500X0.112500X-0.237500X0.112500X0.237500X-0.112500X0.237500X-0.112500X-0.237500X0*%
%ADD53RoundRect,0.112500X0.112500X-0.175000X0.112500X0.175000X-0.112500X0.175000X-0.112500X-0.175000X0*%
%ADD54RoundRect,0.182500X0.182500X0.337500X-0.182500X0.337500X-0.182500X-0.337500X0.182500X-0.337500X0*%
%ADD55RoundRect,0.062500X0.312500X0.062500X-0.312500X0.062500X-0.312500X-0.062500X0.312500X-0.062500X0*%
G04 APERTURE END LIST*
D10*
%TO.C,U4*%
X169700000Y-118962500D03*
X171000000Y-118962500D03*
X169700000Y-117662500D03*
X171000000Y-117662500D03*
D11*
X167600000Y-121750000D03*
X168100000Y-121750000D03*
X168600000Y-121750000D03*
X169100000Y-121750000D03*
X169600000Y-121750000D03*
X170100000Y-121750000D03*
X170600000Y-121750000D03*
X171100000Y-121750000D03*
X171600000Y-121750000D03*
X172100000Y-121750000D03*
X172600000Y-121750000D03*
X173100000Y-121750000D03*
D12*
X173787500Y-121062500D03*
X173787500Y-120562500D03*
X173787500Y-120062500D03*
X173787500Y-119562500D03*
X173787500Y-119062500D03*
X173787500Y-118562500D03*
X173787500Y-118062500D03*
X173787500Y-117562500D03*
X173787500Y-117062500D03*
X173787500Y-116562500D03*
X173787500Y-116062500D03*
X173787500Y-115562500D03*
D11*
X173100000Y-114875000D03*
X172600000Y-114875000D03*
X172100000Y-114875000D03*
X171600000Y-114875000D03*
X171100000Y-114875000D03*
X170600000Y-114875000D03*
X170100000Y-114875000D03*
X169600000Y-114875000D03*
X169100000Y-114875000D03*
X168600000Y-114875000D03*
X168100000Y-114875000D03*
X167600000Y-114875000D03*
D12*
X166912500Y-115562500D03*
X166912500Y-116062500D03*
X166912500Y-116562500D03*
X166912500Y-117062500D03*
X166912500Y-117562500D03*
X166912500Y-118062500D03*
X166912500Y-118562500D03*
X166912500Y-119062500D03*
X166912500Y-119562500D03*
X166912500Y-120062500D03*
X166912500Y-120562500D03*
X166912500Y-121062500D03*
%TD*%
D13*
%TO.C,R15*%
X173450000Y-107700000D03*
X173450000Y-106680000D03*
%TD*%
D14*
%TO.C,Q4*%
X174950000Y-95685000D03*
X174950000Y-94535000D03*
X174950000Y-93385000D03*
X174100000Y-95685000D03*
X174100000Y-94535000D03*
X174100000Y-93385000D03*
X173250000Y-95685000D03*
X173250000Y-94535000D03*
X173250000Y-93385000D03*
X172400000Y-95685000D03*
X172400000Y-94535000D03*
X172400000Y-93385000D03*
D15*
X171400000Y-96440000D03*
X171400000Y-95170000D03*
X171400000Y-93900000D03*
X171400000Y-92630000D03*
D16*
X177125000Y-96440000D03*
X177125000Y-95170000D03*
X177125000Y-93900000D03*
X177125000Y-92630000D03*
%TD*%
D17*
%TO.C,R22*%
X168100000Y-80480000D03*
X168100000Y-81500000D03*
%TD*%
D18*
%TO.C,J3*%
X121100000Y-131850000D03*
X123100000Y-131850000D03*
X125100000Y-131850000D03*
X127100000Y-131850000D03*
D19*
X118750000Y-137600000D03*
X129450000Y-137600000D03*
%TD*%
D20*
%TO.C,F1*%
X161700000Y-58200000D03*
X161700000Y-61000000D03*
%TD*%
D14*
%TO.C,Q1*%
X167100000Y-101685000D03*
X167100000Y-100535000D03*
X167100000Y-99385000D03*
X166250000Y-101685000D03*
X166250000Y-100535000D03*
X166250000Y-99385000D03*
X165400000Y-101685000D03*
X165400000Y-100535000D03*
X165400000Y-99385000D03*
X164550000Y-101685000D03*
X164550000Y-100535000D03*
X164550000Y-99385000D03*
D15*
X163550000Y-102440000D03*
X163550000Y-101170000D03*
X163550000Y-99900000D03*
X163550000Y-98630000D03*
D16*
X169275000Y-102440000D03*
X169275000Y-101170000D03*
X169275000Y-99900000D03*
X169275000Y-98630000D03*
%TD*%
D21*
%TO.C,R31*%
X176660000Y-111200000D03*
X175640000Y-111200000D03*
%TD*%
D22*
%TO.C,C11*%
X167475000Y-105400000D03*
X169025000Y-105400000D03*
%TD*%
D17*
%TO.C,R30*%
X179150000Y-117790000D03*
X179150000Y-118810000D03*
%TD*%
%TO.C,R27*%
X180550000Y-115590000D03*
X180550000Y-116610000D03*
%TD*%
D13*
%TO.C,R10*%
X169950000Y-107700000D03*
X169950000Y-106680000D03*
%TD*%
%TO.C,R13*%
X166450000Y-107720000D03*
X166450000Y-106700000D03*
%TD*%
D23*
%TO.C,C1*%
X161575000Y-102500000D03*
X160025000Y-102500000D03*
%TD*%
D24*
%TO.C,R18*%
X151280000Y-71450000D03*
X152300000Y-71450000D03*
%TD*%
D25*
%TO.C,C4*%
X173400000Y-123325000D03*
X173400000Y-124875000D03*
%TD*%
D26*
%TO.C,U3*%
X170050000Y-81725000D03*
X170050000Y-82375000D03*
X170050000Y-83025000D03*
X170050000Y-83675000D03*
X174350000Y-83675000D03*
X174350000Y-83025000D03*
X174350000Y-82375000D03*
X174350000Y-81725000D03*
%TD*%
D25*
%TO.C,C16*%
X153300000Y-75925000D03*
X153300000Y-77475000D03*
%TD*%
D27*
%TO.C,C2*%
X160837500Y-98100000D03*
X155762500Y-98100000D03*
%TD*%
D24*
%TO.C,R21*%
X176300000Y-80300000D03*
X177320000Y-80300000D03*
%TD*%
D28*
%TO.C,D10*%
X125100000Y-125612500D03*
X124600000Y-125612500D03*
D29*
X124100000Y-125650000D03*
D28*
X123600000Y-125612500D03*
X123100000Y-125612500D03*
X123100000Y-126387500D03*
X123600000Y-126387500D03*
D30*
X124100000Y-126412500D03*
D28*
X124600000Y-126387500D03*
X125100000Y-126387500D03*
%TD*%
D25*
%TO.C,C17*%
X155000000Y-75950000D03*
X155000000Y-77500000D03*
%TD*%
D31*
%TO.C,C15*%
X157600000Y-72950000D03*
X157600000Y-71400000D03*
%TD*%
D27*
%TO.C,C3*%
X160900000Y-89100000D03*
X155825000Y-89100000D03*
%TD*%
D32*
%TO.C,C6*%
X162900000Y-114600000D03*
X162900000Y-113640000D03*
%TD*%
D17*
%TO.C,R5*%
X154500000Y-131100000D03*
X154500000Y-132120000D03*
%TD*%
D13*
%TO.C,R16*%
X171950000Y-107710000D03*
X171950000Y-106690000D03*
%TD*%
D33*
%TO.C,R7*%
X181350000Y-107600000D03*
X178550000Y-107600000D03*
D34*
X179950000Y-107600000D03*
X179950000Y-112600000D03*
D33*
X181350000Y-112600000D03*
X178550000Y-112600000D03*
%TD*%
D35*
%TO.C,J7*%
X95100000Y-115300000D03*
X95100000Y-116550000D03*
X95100000Y-117800000D03*
D36*
X91900000Y-113450000D03*
X91900000Y-119650000D03*
%TD*%
D37*
%TO.C,SW1*%
X153300000Y-138650000D03*
X153300000Y-134550000D03*
X154900000Y-138650000D03*
X154900000Y-134550000D03*
%TD*%
D17*
%TO.C,R28*%
X179050000Y-115590000D03*
X179050000Y-116610000D03*
%TD*%
D22*
%TO.C,C12*%
X171950000Y-105400000D03*
X173500000Y-105400000D03*
%TD*%
D23*
%TO.C,C13*%
X162000000Y-84700000D03*
X160450000Y-84700000D03*
%TD*%
D14*
%TO.C,Q3*%
X167100000Y-95650000D03*
X167100000Y-94500000D03*
X167100000Y-93350000D03*
X166250000Y-95650000D03*
X166250000Y-94500000D03*
X166250000Y-93350000D03*
X165400000Y-95650000D03*
X165400000Y-94500000D03*
X165400000Y-93350000D03*
X164550000Y-95650000D03*
X164550000Y-94500000D03*
X164550000Y-93350000D03*
D15*
X163550000Y-96405000D03*
X163550000Y-95135000D03*
X163550000Y-93865000D03*
X163550000Y-92595000D03*
D16*
X169275000Y-96405000D03*
X169275000Y-95135000D03*
X169275000Y-93865000D03*
X169275000Y-92595000D03*
%TD*%
D38*
%TO.C,D3*%
X159200000Y-123912500D03*
X159200000Y-125487500D03*
%TD*%
D39*
%TO.C,D8*%
X161600000Y-64400000D03*
X157600000Y-64400000D03*
%TD*%
D40*
%TO.C,C8*%
X165600000Y-123500000D03*
X165600000Y-124460000D03*
%TD*%
D13*
%TO.C,R4*%
X161950000Y-107720000D03*
X161950000Y-106700000D03*
%TD*%
D41*
%TO.C,D1*%
X164500000Y-108800000D03*
X165200000Y-108800000D03*
%TD*%
D31*
%TO.C,C5*%
X161600000Y-114500000D03*
X161600000Y-112950000D03*
%TD*%
D24*
%TO.C,R24*%
X184580000Y-105500000D03*
X185600000Y-105500000D03*
%TD*%
D13*
%TO.C,R14*%
X174450000Y-107710000D03*
X174450000Y-106690000D03*
%TD*%
D24*
%TO.C,R8*%
X175640000Y-106400000D03*
X176660000Y-106400000D03*
%TD*%
D42*
%TO.C,D9*%
X165200000Y-58600000D03*
X166775000Y-58600000D03*
%TD*%
D23*
%TO.C,C14*%
X161975000Y-93800000D03*
X160425000Y-93800000D03*
%TD*%
D24*
%TO.C,R25*%
X185480000Y-107300000D03*
X186500000Y-107300000D03*
%TD*%
%TO.C,R26*%
X186480000Y-109100000D03*
X187500000Y-109100000D03*
%TD*%
D13*
%TO.C,R3*%
X162950000Y-107720000D03*
X162950000Y-106700000D03*
%TD*%
D43*
%TO.C,C10*%
X175670000Y-107600000D03*
X176630000Y-107600000D03*
%TD*%
D21*
%TO.C,R20*%
X176620000Y-133700000D03*
X175600000Y-133700000D03*
%TD*%
D14*
%TO.C,Q2*%
X174950000Y-101720000D03*
X174950000Y-100570000D03*
X174950000Y-99420000D03*
X174100000Y-101720000D03*
X174100000Y-100570000D03*
X174100000Y-99420000D03*
X173250000Y-101720000D03*
X173250000Y-100570000D03*
X173250000Y-99420000D03*
X172400000Y-101720000D03*
X172400000Y-100570000D03*
X172400000Y-99420000D03*
D15*
X171400000Y-102475000D03*
X171400000Y-101205000D03*
X171400000Y-99935000D03*
X171400000Y-98665000D03*
D16*
X177125000Y-102475000D03*
X177125000Y-101205000D03*
X177125000Y-99935000D03*
X177125000Y-98665000D03*
%TD*%
D32*
%TO.C,C18*%
X180650000Y-118780000D03*
X180650000Y-117820000D03*
%TD*%
D41*
%TO.C,D4*%
X169100000Y-108790000D03*
X169800000Y-108790000D03*
%TD*%
D13*
%TO.C,R23*%
X168100000Y-83610000D03*
X168100000Y-82590000D03*
%TD*%
D44*
%TO.C,U5*%
X171100000Y-76850000D03*
X171100000Y-77800000D03*
X171100000Y-78750000D03*
X173375000Y-78750000D03*
X173375000Y-76850000D03*
%TD*%
D45*
%TO.C,C22*%
X173300000Y-74000000D03*
X173300000Y-68925000D03*
%TD*%
D46*
%TO.C,L1*%
X150500000Y-73150000D03*
X150500000Y-75950000D03*
%TD*%
D47*
%TO.C,J2*%
X161275000Y-135100000D03*
X162525000Y-135100000D03*
X163775000Y-135100000D03*
X165025000Y-135100000D03*
X166275000Y-135100000D03*
X167525000Y-135100000D03*
D48*
X159425000Y-138300000D03*
X169375000Y-138300000D03*
%TD*%
D24*
%TO.C,R32*%
X175640000Y-112400000D03*
X176660000Y-112400000D03*
%TD*%
D13*
%TO.C,R1*%
X165450000Y-107700000D03*
X165450000Y-106680000D03*
%TD*%
%TO.C,R17*%
X170950000Y-107710000D03*
X170950000Y-106690000D03*
%TD*%
D49*
%TO.C,D11*%
X177287500Y-83387500D03*
X177287500Y-81812500D03*
%TD*%
D24*
%TO.C,R29*%
X175640000Y-110000000D03*
X176660000Y-110000000D03*
%TD*%
D25*
%TO.C,C7*%
X167000000Y-123500000D03*
X167000000Y-125050000D03*
%TD*%
D22*
%TO.C,C9*%
X162900000Y-105400000D03*
X164450000Y-105400000D03*
%TD*%
D50*
%TO.C,R33*%
X150600000Y-114410000D03*
X150600000Y-115100000D03*
%TD*%
D14*
%TO.C,Q6*%
X175000000Y-89585000D03*
X175000000Y-88435000D03*
X175000000Y-87285000D03*
X174150000Y-89585000D03*
X174150000Y-88435000D03*
X174150000Y-87285000D03*
X173300000Y-89585000D03*
X173300000Y-88435000D03*
X173300000Y-87285000D03*
X172450000Y-89585000D03*
X172450000Y-88435000D03*
X172450000Y-87285000D03*
D15*
X171450000Y-90340000D03*
X171450000Y-89070000D03*
X171450000Y-87800000D03*
X171450000Y-86530000D03*
D16*
X177175000Y-90340000D03*
X177175000Y-89070000D03*
X177175000Y-87800000D03*
X177175000Y-86530000D03*
%TD*%
D25*
%TO.C,C21*%
X169000000Y-75300000D03*
X169000000Y-76850000D03*
%TD*%
D21*
%TO.C,R9*%
X176660000Y-108800000D03*
X175640000Y-108800000D03*
%TD*%
D41*
%TO.C,D6*%
X173600000Y-108800000D03*
X174300000Y-108800000D03*
%TD*%
%TO.C,D7*%
X171100000Y-108800000D03*
X171800000Y-108800000D03*
%TD*%
D51*
%TO.C,D12*%
X185800000Y-100375000D03*
X186300000Y-100375000D03*
D52*
X186800000Y-100337500D03*
D51*
X187300000Y-100375000D03*
X187800000Y-100375000D03*
X187800000Y-99600000D03*
X187300000Y-99600000D03*
D53*
X186800000Y-99575000D03*
D51*
X186300000Y-99600000D03*
X185800000Y-99600000D03*
%TD*%
D41*
%TO.C,D5*%
X166600000Y-108800000D03*
X167300000Y-108800000D03*
%TD*%
D13*
%TO.C,R12*%
X167450000Y-107720000D03*
X167450000Y-106700000D03*
%TD*%
D14*
%TO.C,Q5*%
X167150000Y-89550000D03*
X167150000Y-88400000D03*
X167150000Y-87250000D03*
X166300000Y-89550000D03*
X166300000Y-88400000D03*
X166300000Y-87250000D03*
X165450000Y-89550000D03*
X165450000Y-88400000D03*
X165450000Y-87250000D03*
X164600000Y-89550000D03*
X164600000Y-88400000D03*
X164600000Y-87250000D03*
D15*
X163600000Y-90305000D03*
X163600000Y-89035000D03*
X163600000Y-87765000D03*
X163600000Y-86495000D03*
D16*
X169325000Y-90305000D03*
X169325000Y-89035000D03*
X169325000Y-87765000D03*
X169325000Y-86495000D03*
%TD*%
D41*
%TO.C,D2*%
X162100000Y-108810000D03*
X162800000Y-108810000D03*
%TD*%
D54*
%TO.C,U2*%
X154800000Y-73250000D03*
X154800000Y-72050000D03*
D55*
X155800000Y-73650000D03*
X155800000Y-73150000D03*
X155800000Y-72650000D03*
X155800000Y-72150000D03*
X155800000Y-71650000D03*
X153800000Y-71650000D03*
X153800000Y-72150000D03*
X153800000Y-72650000D03*
X153800000Y-73150000D03*
X153800000Y-73650000D03*
%TD*%
D13*
%TO.C,R11*%
X168950000Y-107700000D03*
X168950000Y-106680000D03*
%TD*%
D24*
%TO.C,R19*%
X165300000Y-62100000D03*
X166320000Y-62100000D03*
%TD*%
D13*
%TO.C,R2*%
X164450000Y-107700000D03*
X164450000Y-106680000D03*
%TD*%
%TO.C,R6*%
X160900000Y-125220000D03*
X160900000Y-124200000D03*
%TD*%
M02*
