%TF.GenerationSoftware,KiCad,Pcbnew,10.0.5*%
%TF.CreationDate,2026-09-03T18:20:01-04:00*%
%TF.ProjectId,integration-test,696e7465-6772-4617-9469-6f6e2d746573,v1.0*%
%TF.SameCoordinates,Original*%
%TF.FileFunction,Copper,L4,Inr*%
%TF.FilePolarity,Positive*%
%FSLAX46Y46*%
G04 Gerber Fmt 4.6, Leading zero omitted, Abs format (unit mm)*
G04 Created by KiCad (PCBNEW 10.0.5) date 2026-09-03 18:20:01*
%MOMM*%
%LPD*%
G01*
G04 APERTURE LIST*
G04 Aperture macros list*
%AMRoundRect*
0 Rectangle with rounded corners*
0 $1 Rounding radius*
0 $2 $3 $4 $5 $6 $7 $8 $9 X,Y pos of 4 corners*
0 Add a 4 corners polygon primitive as box body*
4,1,4,$2,$3,$4,$5,$6,$7,$8,$9,$2,$3,0*
0 Add four circle primitives for the rounded corners*
1,1,$1+$1,$2,$3*
1,1,$1+$1,$4,$5*
1,1,$1+$1,$6,$7*
1,1,$1+$1,$8,$9*
0 Add four rect primitives between the rounded corners*
20,1,$1+$1,$2,$3,$4,$5,0*
20,1,$1+$1,$4,$5,$6,$7,0*
20,1,$1+$1,$6,$7,$8,$9,0*
20,1,$1+$1,$8,$9,$2,$3,0*%
G04 Aperture macros list end*
%TA.AperFunction,ComponentPad*%
%ADD10R,1.700000X1.700000*%
%TD*%
%TA.AperFunction,ComponentPad*%
%ADD11C,1.700000*%
%TD*%
%TA.AperFunction,ComponentPad*%
%ADD12C,2.000000*%
%TD*%
%TA.AperFunction,ComponentPad*%
%ADD13RoundRect,0.250001X1.099999X-1.099999X1.099999X1.099999X-1.099999X1.099999X-1.099999X-1.099999X0*%
%TD*%
%TA.AperFunction,ComponentPad*%
%ADD14C,2.700000*%
%TD*%
%TA.AperFunction,HeatsinkPad*%
%ADD15C,0.500000*%
%TD*%
%TA.AperFunction,ComponentPad*%
%ADD16C,6.400000*%
%TD*%
%TA.AperFunction,ViaPad*%
%ADD17C,0.500000*%
%TD*%
%TA.AperFunction,ViaPad*%
%ADD18C,0.600000*%
%TD*%
%TA.AperFunction,Conductor*%
%ADD19C,0.250000*%
%TD*%
G04 APERTURE END LIST*
D10*
%TO.N,GND*%
%TO.C,J3*%
X95000000Y-116310000D03*
D11*
%TO.N,/Motor Controller/SWD.IO*%
X95000000Y-113770000D03*
%TO.N,/Motor Controller/SWD.CLK*%
X95000000Y-111230000D03*
%TO.N,+3.3V*%
X95000000Y-108690000D03*
%TD*%
D12*
%TO.N,Net-(U1Over-Current-OCCOMP)*%
%TO.C,TP7*%
X127000000Y-136000000D03*
%TD*%
%TO.N,/Magnetic Encoder/ENC.B*%
%TO.C,TP34*%
X142000000Y-61000000D03*
%TD*%
D13*
%TO.N,GND*%
%TO.C,J1*%
X174225000Y-108980000D03*
D14*
%TO.N,Net-(J1-Pin_2)*%
X174225000Y-105020000D03*
%TD*%
D15*
%TO.N,GND*%
%TO.C,U2*%
X177500000Y-117550000D03*
X177500000Y-118500000D03*
X177500000Y-119450000D03*
%TD*%
D12*
%TO.N,GND*%
%TO.C,TP24*%
X103000000Y-131000000D03*
%TD*%
%TO.N,VBUS*%
%TO.C,TP21*%
X166000000Y-108000000D03*
%TD*%
%TO.N,/Motor Controller/I2C.SCL*%
%TO.C,TP32*%
X111000000Y-69000000D03*
%TD*%
D16*
%TO.N,GND*%
%TO.C,H2*%
X185000000Y-45000000D03*
%TD*%
D12*
%TO.N,Net-(U1Power-REG12)*%
%TO.C,TP6*%
X111000000Y-124000000D03*
%TD*%
%TO.N,GND*%
%TO.C,TP22*%
X121000000Y-136000000D03*
%TD*%
%TO.N,/Motor Controller/I2C.SDA*%
%TO.C,TP31*%
X106000000Y-69000000D03*
%TD*%
D16*
%TO.N,N/C*%
%TO.C,H5*%
X120000000Y-70000000D03*
%TD*%
%TO.N,GND*%
%TO.C,H4*%
X185000000Y-135000000D03*
%TD*%
D12*
%TO.N,GND*%
%TO.C,TP23*%
X119000000Y-61000000D03*
%TD*%
D16*
%TO.N,N/C*%
%TO.C,H6*%
X160000000Y-70000000D03*
%TD*%
%TO.N,GND*%
%TO.C,H3*%
X95000000Y-135000000D03*
%TD*%
D12*
%TO.N,+3.3V*%
%TO.C,TP20*%
X185000000Y-113720000D03*
%TD*%
D16*
%TO.N,N/C*%
%TO.C,H8*%
X120000000Y-110000000D03*
%TD*%
%TO.N,GND*%
%TO.C,H1*%
X95000000Y-45000000D03*
%TD*%
D12*
%TO.N,/Motor Controller/I_{SENSE}*%
%TO.C,TP1*%
X124000000Y-133500000D03*
%TD*%
%TO.N,GND*%
%TO.C,TP25*%
X185000000Y-121000000D03*
%TD*%
D16*
%TO.N,N/C*%
%TO.C,H7*%
X160000000Y-110000000D03*
%TD*%
D12*
%TO.N,/Magnetic Encoder/ENC.A*%
%TO.C,TP33*%
X137750000Y-61000000D03*
%TD*%
D17*
%TO.N,Net-(Q2-G)*%
X137510000Y-116000000D03*
X144905000Y-128675000D03*
%TO.N,/External Connections/SPI.MISO*%
X120750000Y-129250000D03*
X96850000Y-125000000D03*
%TO.N,Net-(Q4-G)*%
X137510000Y-120250000D03*
X150905000Y-128725000D03*
%TO.N,/Motor Connections/MOTORV*%
X148500000Y-126000000D03*
X149000000Y-133500000D03*
X150000000Y-126500000D03*
X149000000Y-136000000D03*
X149000000Y-135000000D03*
X148500000Y-135500000D03*
X150000000Y-125500000D03*
X149000000Y-126500000D03*
X148000000Y-125500000D03*
X149500000Y-135500000D03*
X149500000Y-126000000D03*
X148000000Y-126500000D03*
X149000000Y-125500000D03*
X125750000Y-123750000D03*
%TO.N,Net-(Q3-G)*%
X139750000Y-121250000D03*
X150905000Y-121225000D03*
%TO.N,VBUS*%
X117275000Y-124750000D03*
X174740000Y-123250000D03*
X141250000Y-115500000D03*
X173750000Y-118250000D03*
%TO.N,Net-(Q5-G)*%
X156905000Y-121225000D03*
X139750000Y-125500000D03*
%TO.N,GND*%
X180000000Y-125000000D03*
X109825000Y-62150000D03*
X185000000Y-70000000D03*
X102500000Y-93010000D03*
X160000000Y-115000000D03*
X175000000Y-60000000D03*
X130000000Y-45000000D03*
X150000000Y-45000000D03*
X170000000Y-55000000D03*
X180000000Y-135000000D03*
X120000000Y-65000000D03*
X155000000Y-70000000D03*
X170000000Y-45000000D03*
X105000000Y-100000000D03*
X180000000Y-95000000D03*
X123000000Y-118000000D03*
X119000000Y-121750000D03*
X160000000Y-65000000D03*
X165000000Y-120000000D03*
X185000000Y-110000000D03*
X128500000Y-130000000D03*
X142862500Y-88700000D03*
X140000000Y-95000000D03*
X135250000Y-91500000D03*
X180000000Y-65000000D03*
X122250000Y-121250000D03*
X95000000Y-80000000D03*
X170000000Y-85000000D03*
X110000000Y-75000000D03*
X165000000Y-50000000D03*
X115000000Y-70000000D03*
X145543594Y-122048900D03*
X105000000Y-50000000D03*
X103500000Y-87250000D03*
X96850000Y-122500000D03*
X175000000Y-130000000D03*
X125000000Y-60000000D03*
X139000000Y-91750000D03*
X101750000Y-111750000D03*
X157750000Y-128750000D03*
X153225000Y-114000000D03*
X115000000Y-50000000D03*
X135000000Y-50000000D03*
X160000000Y-45000000D03*
X94200000Y-103050000D03*
X134000000Y-120000000D03*
X110350000Y-57850000D03*
X145750000Y-128750000D03*
X145000000Y-50000000D03*
X128000000Y-119500000D03*
X123500000Y-124500000D03*
X145000000Y-70000000D03*
X144800000Y-88520000D03*
X180000000Y-45000000D03*
X166500000Y-113500000D03*
X181250000Y-116250000D03*
X139750000Y-124500000D03*
X100000000Y-75000000D03*
X177225000Y-114500000D03*
X100000000Y-85000000D03*
X170000000Y-65000000D03*
X140000000Y-75000000D03*
X160000000Y-135000000D03*
X169500000Y-124500000D03*
X120000000Y-95000000D03*
X175000000Y-90000000D03*
X138250000Y-115750000D03*
X100000000Y-95000000D03*
X160000000Y-125000000D03*
X100000000Y-55000000D03*
X115500000Y-122520000D03*
X185000000Y-80000000D03*
X162000000Y-123500000D03*
X175000000Y-119775000D03*
X178250000Y-119750000D03*
X139750000Y-122250000D03*
X139750000Y-118000000D03*
X152000000Y-121250000D03*
X185000000Y-50000000D03*
X175000000Y-80000000D03*
X137250000Y-129000000D03*
X130000000Y-135000000D03*
X161500000Y-122500000D03*
X180000000Y-105000000D03*
X105000000Y-120000000D03*
X145000000Y-100000000D03*
X125000000Y-100000000D03*
X122500000Y-123500000D03*
X170500000Y-124500000D03*
X105000000Y-60000000D03*
X185000000Y-60000000D03*
X125000000Y-50000000D03*
X121750000Y-129250000D03*
X170000000Y-95000000D03*
X110000000Y-135000000D03*
X150000000Y-95000000D03*
X101500000Y-90000000D03*
X105000000Y-80000000D03*
X180750000Y-119000000D03*
X128500000Y-131500000D03*
X95500000Y-125000000D03*
X116500000Y-121880000D03*
X135000000Y-60000000D03*
X165000000Y-70000000D03*
X179037500Y-123250000D03*
X110000000Y-55000000D03*
X110000000Y-95000000D03*
X155000000Y-110000000D03*
X157586149Y-120457535D03*
X165500000Y-112500000D03*
X141225000Y-114000000D03*
X185000000Y-100000000D03*
X135000000Y-100000000D03*
X175000000Y-100000000D03*
X165000000Y-90000000D03*
X121750000Y-121750000D03*
X161500000Y-124500000D03*
X120000000Y-105000000D03*
X145000000Y-60000000D03*
X114250000Y-122000000D03*
X105000000Y-110000000D03*
X96850000Y-86875000D03*
X94200000Y-98950000D03*
X135000000Y-110000000D03*
X127750000Y-127000000D03*
X129250000Y-127000000D03*
X124980000Y-131000000D03*
X138250000Y-120000000D03*
X115000000Y-100000000D03*
X95500000Y-127500000D03*
X160000000Y-55000000D03*
X135000000Y-70000000D03*
X125000000Y-80000000D03*
X155000000Y-80000000D03*
X115000000Y-60000000D03*
X114900000Y-136875000D03*
X180000000Y-75000000D03*
X162500000Y-124500000D03*
X155000000Y-50000000D03*
X115000000Y-80000000D03*
X123000000Y-115000000D03*
X140000000Y-55000000D03*
X130000000Y-75000000D03*
X115000000Y-110000000D03*
X100000000Y-65000000D03*
X165000000Y-60000000D03*
X110000000Y-105000000D03*
X169500000Y-122500000D03*
X99250000Y-112500000D03*
X155000000Y-90000000D03*
X150000000Y-65000000D03*
X134000000Y-115750000D03*
X166500000Y-112500000D03*
X176500000Y-119250000D03*
X140000000Y-45000000D03*
X108400000Y-67000000D03*
X170000000Y-135000000D03*
X110000000Y-45000000D03*
X185000000Y-130000000D03*
X180000000Y-55000000D03*
X160000000Y-95000000D03*
X100000000Y-135000000D03*
X135750000Y-90650003D03*
X145000000Y-110000000D03*
X98750000Y-114250000D03*
X100000000Y-105000000D03*
X170500000Y-122500000D03*
X130000000Y-105000000D03*
X117500000Y-121880000D03*
X123250000Y-128250000D03*
X130000000Y-55000000D03*
X128500000Y-130750000D03*
X125000000Y-70000000D03*
X147225000Y-114000000D03*
X123500000Y-123500000D03*
D18*
X115725000Y-124750000D03*
D17*
X120000000Y-75000000D03*
X128250000Y-122500000D03*
X162500000Y-122500000D03*
X95000000Y-60000000D03*
X130000000Y-65000000D03*
X95500000Y-126250000D03*
X134000000Y-124250000D03*
X180000000Y-85000000D03*
X121250000Y-121250000D03*
X110000000Y-85000000D03*
X150000000Y-105000000D03*
X165000000Y-100000000D03*
X140000000Y-85000000D03*
X175000000Y-50000000D03*
X150000000Y-75000000D03*
X170000000Y-75000000D03*
X120000000Y-55000000D03*
X95000000Y-50000000D03*
X120000000Y-85000000D03*
X160000000Y-85000000D03*
X140000000Y-105000000D03*
X120000000Y-45000000D03*
X165000000Y-130000000D03*
X128500000Y-133000000D03*
X150000000Y-55000000D03*
X123000000Y-124000000D03*
X105000000Y-130000000D03*
X113250000Y-132250000D03*
X160000000Y-75000000D03*
X130000000Y-95000000D03*
X170000000Y-123500000D03*
X160000000Y-105000000D03*
X155000000Y-100000000D03*
X128500000Y-132250000D03*
X185000000Y-90000000D03*
X130000000Y-85000000D03*
X165500000Y-113500000D03*
X95500000Y-123750000D03*
X100000000Y-45000000D03*
X177225000Y-116000000D03*
X151750000Y-128750000D03*
X135000000Y-80000000D03*
X128250000Y-124500000D03*
X165000000Y-80000000D03*
X150000000Y-85000000D03*
X135500000Y-127520000D03*
X122500000Y-124500000D03*
X145000000Y-80000000D03*
X95000000Y-70000000D03*
X155000000Y-60000000D03*
X175000000Y-70000000D03*
%TO.N,/Motor Controller/SWD.IO*%
X99500000Y-113500000D03*
X123500000Y-117250000D03*
%TO.N,/Motor Controller/SWD.CLK*%
X123500000Y-115750000D03*
X101000000Y-111500000D03*
%TO.N,+3.3V*%
X178250000Y-113500000D03*
X178250000Y-112500000D03*
X110010000Y-64500000D03*
X178750000Y-113000000D03*
X116500000Y-131510000D03*
X180000000Y-118990000D03*
X130250000Y-126990000D03*
X136500000Y-127490000D03*
X100260000Y-129000000D03*
X117500000Y-131510000D03*
X118750000Y-125250000D03*
X106740000Y-64500000D03*
X112000000Y-64510000D03*
X107875000Y-57850000D03*
X144800000Y-89480000D03*
X102500000Y-86990000D03*
X96850000Y-93125000D03*
X180000000Y-116000000D03*
X115500000Y-131510000D03*
X179250000Y-113500000D03*
X179250000Y-112500000D03*
X97500000Y-101990000D03*
X125750000Y-119500000D03*
X116500000Y-122840000D03*
X105000000Y-106760000D03*
X110100000Y-136875000D03*
X179750000Y-113000000D03*
%TO.N,/Motor Controller/~{RST}*%
X97500000Y-103010000D03*
X120750000Y-126250000D03*
%TO.N,/Motor Connections/HALL.A*%
X112297963Y-129047963D03*
X115500000Y-130500000D03*
%TO.N,/Motor Connections/HALL.B*%
X116500000Y-130500000D03*
X114000000Y-129000000D03*
%TO.N,/External Connections/SPI.CSN*%
X96850000Y-127500000D03*
X121750000Y-126500000D03*
%TO.N,/External Connections/SPI.SCK*%
X122750000Y-129250000D03*
X96850000Y-126250000D03*
%TO.N,/Magnetic Encoder/ENC.A*%
X136000000Y-92000000D03*
X122750000Y-126500000D03*
%TO.N,/Magnetic Encoder/ENC.B*%
X138250000Y-91250000D03*
X124250000Y-126500000D03*
%TO.N,Net-(U1Over-Current-OCCOMP)*%
X136500000Y-128510000D03*
X127000000Y-127250000D03*
%TO.N,/Motor Connections/MOTORW*%
X152500000Y-134250000D03*
X154000000Y-125500000D03*
X151500000Y-135500000D03*
X150500000Y-135500000D03*
X155000000Y-125500000D03*
X151000000Y-136000000D03*
X125750000Y-125750000D03*
X154000000Y-126500000D03*
X155500000Y-126000000D03*
X155000000Y-126500000D03*
X156000000Y-125500000D03*
X151000000Y-135000000D03*
X153750000Y-133000000D03*
X156000000Y-126500000D03*
X154500000Y-126000000D03*
%TO.N,/Motor Controller/Motor Phase W/LSx*%
X127531587Y-124531587D03*
X133000000Y-124000000D03*
%TO.N,/Motor Controller/Motor Phase V/LSx*%
X127531587Y-122531587D03*
X133000000Y-119750000D03*
%TO.N,/Motor Connections/MOTORU*%
X142000000Y-126500000D03*
X143000000Y-126500000D03*
X146500000Y-135500000D03*
X143500000Y-126000000D03*
X144000000Y-132750000D03*
X147500000Y-135500000D03*
X144000000Y-126500000D03*
X147000000Y-136000000D03*
X125750000Y-121750000D03*
X144000000Y-125500000D03*
X142500000Y-126000000D03*
X142000000Y-125500000D03*
X147000000Y-135000000D03*
X143000000Y-125500000D03*
%TO.N,/External Connections/SPI.MOSI*%
X96850000Y-123750000D03*
X122125000Y-122299998D03*
%TO.N,/Magnetic Encoder/PROGSPI.CLK*%
X102194451Y-89616647D03*
X135750000Y-88699994D03*
%TO.N,/Magnetic Encoder/PROGSPI.CSN*%
X102400000Y-89000000D03*
X135750000Y-88000000D03*
%TO.N,/Magnetic Encoder/PROGSPI.MISO*%
X102200000Y-90400000D03*
X135750000Y-89349997D03*
%TO.N,/Magnetic Encoder/PROGSPI.MOSI*%
X102405549Y-91016647D03*
X135750000Y-90000000D03*
%TO.N,Net-(Q6-G)*%
X156905000Y-128725000D03*
X137510000Y-124500000D03*
%TO.N,Net-(Q1-G)*%
X139750000Y-117000000D03*
X144905000Y-121225000D03*
%TD*%
%TO.N,Net-(Q3-G)*%
D19*
X149380000Y-122750000D02*
X150905000Y-121225000D01*
X141250000Y-122750000D02*
X149380000Y-122750000D01*
X139750000Y-121250000D02*
X141250000Y-122750000D01*
%TO.N,Net-(Q5-G)*%
X152250000Y-124500000D02*
X140750000Y-124500000D01*
X139750000Y-125500000D02*
X140750000Y-124500000D01*
X156905000Y-121225000D02*
X155525000Y-121225000D01*
X155525000Y-121225000D02*
X152250000Y-124500000D01*
%TO.N,GND*%
X143798900Y-122048900D02*
X145543594Y-122048900D01*
X101750000Y-114500000D02*
X102250000Y-115000000D01*
X150000000Y-123250000D02*
X152000000Y-121250000D01*
X139750000Y-124500000D02*
X140500000Y-123750000D01*
X102250000Y-115000000D02*
X123000000Y-115000000D01*
X101500000Y-118000000D02*
X123000000Y-118000000D01*
X139750000Y-122250000D02*
X140750000Y-123250000D01*
X98750000Y-115250000D02*
X98750000Y-114250000D01*
X140750000Y-123250000D02*
X150000000Y-123250000D01*
X101500000Y-118000000D02*
X98750000Y-115250000D01*
X155292465Y-120457535D02*
X157586149Y-120457535D01*
X152000000Y-123750000D02*
X155292465Y-120457535D01*
X139750000Y-118000000D02*
X143798900Y-122048900D01*
X101750000Y-111750000D02*
X101750000Y-114500000D01*
X140500000Y-123750000D02*
X152000000Y-123750000D01*
%TO.N,/Motor Controller/SWD.IO*%
X99500000Y-115000000D02*
X99500000Y-113500000D01*
X123500000Y-117250000D02*
X101750000Y-117250000D01*
X101750000Y-117250000D02*
X99500000Y-115000000D01*
%TO.N,/Motor Controller/SWD.CLK*%
X101000000Y-111500000D02*
X101000000Y-114750000D01*
X101000000Y-114750000D02*
X102000000Y-115750000D01*
X102000000Y-115750000D02*
X123500000Y-115750000D01*
%TO.N,Net-(Q1-G)*%
X143975000Y-121225000D02*
X144905000Y-121225000D01*
X139750000Y-117000000D02*
X143975000Y-121225000D01*
%TD*%
%TA.AperFunction,Conductor*%
%TO.N,GND*%
G36*
X187003471Y-40250695D02*
G01*
X187044188Y-40252981D01*
X187300900Y-40267397D01*
X187314703Y-40268953D01*
X187604953Y-40318269D01*
X187618510Y-40321363D01*
X187901413Y-40402866D01*
X187914537Y-40407459D01*
X188186527Y-40520120D01*
X188199049Y-40526149D01*
X188456732Y-40668566D01*
X188468493Y-40675956D01*
X188708616Y-40846333D01*
X188719466Y-40854985D01*
X188827564Y-40951587D01*
X188938997Y-41051169D01*
X188948830Y-41061002D01*
X189145010Y-41280528D01*
X189153668Y-41291385D01*
X189324040Y-41531502D01*
X189331433Y-41543267D01*
X189473846Y-41800943D01*
X189479879Y-41813472D01*
X189592540Y-42085462D01*
X189597133Y-42098586D01*
X189678636Y-42381489D01*
X189681730Y-42395046D01*
X189731045Y-42685288D01*
X189732602Y-42699106D01*
X189749305Y-42996527D01*
X189749500Y-43003480D01*
X189749500Y-136996519D01*
X189749305Y-137003472D01*
X189732602Y-137300893D01*
X189731045Y-137314711D01*
X189681730Y-137604953D01*
X189678636Y-137618510D01*
X189597133Y-137901413D01*
X189592540Y-137914537D01*
X189479879Y-138186527D01*
X189473846Y-138199056D01*
X189331433Y-138456732D01*
X189324035Y-138468505D01*
X189153674Y-138708605D01*
X189145010Y-138719471D01*
X188948830Y-138938997D01*
X188938997Y-138948830D01*
X188719471Y-139145010D01*
X188708605Y-139153674D01*
X188500118Y-139301605D01*
X188468506Y-139324035D01*
X188456732Y-139331433D01*
X188199056Y-139473846D01*
X188186527Y-139479879D01*
X187914537Y-139592540D01*
X187901413Y-139597133D01*
X187618510Y-139678636D01*
X187604953Y-139681730D01*
X187314711Y-139731045D01*
X187300893Y-139732602D01*
X187003472Y-139749305D01*
X186996519Y-139749500D01*
X93003481Y-139749500D01*
X92996528Y-139749305D01*
X92699106Y-139732602D01*
X92685288Y-139731045D01*
X92395046Y-139681730D01*
X92381489Y-139678636D01*
X92098586Y-139597133D01*
X92085462Y-139592540D01*
X91813472Y-139479879D01*
X91800943Y-139473846D01*
X91543267Y-139331433D01*
X91531502Y-139324040D01*
X91291385Y-139153668D01*
X91280528Y-139145010D01*
X91061002Y-138948830D01*
X91051169Y-138938997D01*
X90854989Y-138719471D01*
X90846333Y-138708616D01*
X90675956Y-138468493D01*
X90668566Y-138456732D01*
X90526153Y-138199056D01*
X90520120Y-138186527D01*
X90407459Y-137914537D01*
X90402866Y-137901413D01*
X90321363Y-137618510D01*
X90318269Y-137604953D01*
X90301998Y-137509188D01*
X90268953Y-137314703D01*
X90267397Y-137300900D01*
X90250695Y-137003471D01*
X90250500Y-136996519D01*
X90250500Y-136809108D01*
X109599500Y-136809108D01*
X109599500Y-136940892D01*
X109602966Y-136953828D01*
X109633608Y-137068187D01*
X109634380Y-137069524D01*
X109699500Y-137182314D01*
X109792686Y-137275500D01*
X109906814Y-137341392D01*
X110034108Y-137375500D01*
X110034110Y-137375500D01*
X110165890Y-137375500D01*
X110165892Y-137375500D01*
X110246434Y-137353919D01*
X120353184Y-137353919D01*
X120424197Y-137390102D01*
X120648752Y-137463065D01*
X120648751Y-137463065D01*
X120881948Y-137500000D01*
X121118052Y-137500000D01*
X121351247Y-137463065D01*
X121575797Y-137390104D01*
X121646814Y-137353919D01*
X121000001Y-136707106D01*
X121000000Y-136707106D01*
X120353184Y-137353919D01*
X110246434Y-137353919D01*
X110293186Y-137341392D01*
X110407314Y-137275500D01*
X110500500Y-137182314D01*
X110566392Y-137068186D01*
X110600500Y-136940892D01*
X110600500Y-136809108D01*
X110566392Y-136681814D01*
X110500500Y-136567686D01*
X110407314Y-136474500D01*
X110350250Y-136441554D01*
X110293187Y-136408608D01*
X110229539Y-136391554D01*
X110165892Y-136374500D01*
X110034108Y-136374500D01*
X109906812Y-136408608D01*
X109792686Y-136474500D01*
X109792683Y-136474502D01*
X109699502Y-136567683D01*
X109699500Y-136567686D01*
X109633608Y-136681812D01*
X109626831Y-136707106D01*
X109599500Y-136809108D01*
X90250500Y-136809108D01*
X90250500Y-135881947D01*
X119500000Y-135881947D01*
X119500000Y-136118052D01*
X119536934Y-136351247D01*
X119609898Y-136575805D01*
X119646078Y-136646813D01*
X119646079Y-136646814D01*
X120292894Y-136000000D01*
X120227068Y-135934174D01*
X120500000Y-135934174D01*
X120500000Y-136065826D01*
X120534075Y-136192993D01*
X120599901Y-136307007D01*
X120692993Y-136400099D01*
X120807007Y-136465925D01*
X120934174Y-136500000D01*
X121065826Y-136500000D01*
X121192993Y-136465925D01*
X121307007Y-136400099D01*
X121400099Y-136307007D01*
X121465925Y-136192993D01*
X121500000Y-136065826D01*
X121500000Y-135999999D01*
X121707106Y-135999999D01*
X121707106Y-136000000D01*
X122353919Y-136646814D01*
X122390104Y-136575797D01*
X122463065Y-136351247D01*
X122500000Y-136118052D01*
X122500000Y-135901577D01*
X125749500Y-135901577D01*
X125749500Y-136098422D01*
X125780290Y-136292826D01*
X125841117Y-136480029D01*
X125889918Y-136575805D01*
X125930476Y-136655405D01*
X126046172Y-136814646D01*
X126185354Y-136953828D01*
X126344595Y-137069524D01*
X126427455Y-137111743D01*
X126519970Y-137158882D01*
X126519972Y-137158882D01*
X126519975Y-137158884D01*
X126555270Y-137170352D01*
X126707173Y-137219709D01*
X126901578Y-137250500D01*
X126901583Y-137250500D01*
X127098422Y-137250500D01*
X127292826Y-137219709D01*
X127480025Y-137158884D01*
X127655405Y-137069524D01*
X127814646Y-136953828D01*
X127953828Y-136814646D01*
X128069524Y-136655405D01*
X128158884Y-136480025D01*
X128219709Y-136292826D01*
X128235490Y-136193187D01*
X128250500Y-136098422D01*
X128250500Y-135901577D01*
X128219709Y-135707173D01*
X128158881Y-135519967D01*
X128139677Y-135482277D01*
X128139676Y-135482276D01*
X128115133Y-135434108D01*
X145999500Y-135434108D01*
X145999500Y-135565891D01*
X146033608Y-135693187D01*
X146041683Y-135707173D01*
X146099500Y-135807314D01*
X146192686Y-135900500D01*
X146306814Y-135966392D01*
X146416529Y-135995789D01*
X146476189Y-136032154D01*
X146504209Y-136083469D01*
X146533608Y-136193186D01*
X146599500Y-136307314D01*
X146692686Y-136400500D01*
X146806814Y-136466392D01*
X146934108Y-136500500D01*
X146934110Y-136500500D01*
X147065890Y-136500500D01*
X147065892Y-136500500D01*
X147193186Y-136466392D01*
X147307314Y-136400500D01*
X147400500Y-136307314D01*
X147466392Y-136193186D01*
X147495790Y-136083468D01*
X147532154Y-136023811D01*
X147583468Y-135995790D01*
X147693186Y-135966392D01*
X147807314Y-135900500D01*
X147900500Y-135807314D01*
X147900504Y-135807306D01*
X147901625Y-135805847D01*
X147902892Y-135804921D01*
X147906247Y-135801567D01*
X147906770Y-135802090D01*
X147958053Y-135764645D01*
X148027799Y-135760491D01*
X148088719Y-135794704D01*
X148098375Y-135805847D01*
X148099498Y-135807311D01*
X148099500Y-135807314D01*
X148192686Y-135900500D01*
X148306814Y-135966392D01*
X148416529Y-135995789D01*
X148476189Y-136032154D01*
X148504209Y-136083469D01*
X148533608Y-136193186D01*
X148599500Y-136307314D01*
X148692686Y-136400500D01*
X148806814Y-136466392D01*
X148934108Y-136500500D01*
X148934110Y-136500500D01*
X149065890Y-136500500D01*
X149065892Y-136500500D01*
X149193186Y-136466392D01*
X149307314Y-136400500D01*
X149400500Y-136307314D01*
X149466392Y-136193186D01*
X149495790Y-136083468D01*
X149532154Y-136023811D01*
X149583468Y-135995790D01*
X149693186Y-135966392D01*
X149807314Y-135900500D01*
X149900500Y-135807314D01*
X149900504Y-135807306D01*
X149901625Y-135805847D01*
X149902892Y-135804921D01*
X149906247Y-135801567D01*
X149906770Y-135802090D01*
X149958053Y-135764645D01*
X150027799Y-135760491D01*
X150088719Y-135794704D01*
X150098375Y-135805847D01*
X150099498Y-135807311D01*
X150099500Y-135807314D01*
X150192686Y-135900500D01*
X150306814Y-135966392D01*
X150416529Y-135995789D01*
X150476189Y-136032154D01*
X150504209Y-136083469D01*
X150533608Y-136193186D01*
X150599500Y-136307314D01*
X150692686Y-136400500D01*
X150806814Y-136466392D01*
X150934108Y-136500500D01*
X150934110Y-136500500D01*
X151065890Y-136500500D01*
X151065892Y-136500500D01*
X151193186Y-136466392D01*
X151307314Y-136400500D01*
X151400500Y-136307314D01*
X151466392Y-136193186D01*
X151495790Y-136083468D01*
X151532154Y-136023811D01*
X151583468Y-135995790D01*
X151693186Y-135966392D01*
X151807314Y-135900500D01*
X151900500Y-135807314D01*
X151966392Y-135693186D01*
X152000500Y-135565892D01*
X152000500Y-135434108D01*
X151966392Y-135306814D01*
X151900500Y-135192686D01*
X151807314Y-135099500D01*
X151693186Y-135033608D01*
X151583469Y-135004209D01*
X151523810Y-134967845D01*
X151495789Y-134916528D01*
X151466391Y-134806812D01*
X151433878Y-134750499D01*
X151400500Y-134692686D01*
X151307314Y-134599500D01*
X151250250Y-134566554D01*
X151193187Y-134533608D01*
X151129539Y-134516554D01*
X151065892Y-134499500D01*
X150934108Y-134499500D01*
X150806812Y-134533608D01*
X150692686Y-134599500D01*
X150692683Y-134599502D01*
X150599502Y-134692683D01*
X150599500Y-134692686D01*
X150533609Y-134806812D01*
X150504210Y-134916529D01*
X150467844Y-134976189D01*
X150416529Y-135004210D01*
X150379748Y-135014065D01*
X150306814Y-135033608D01*
X150306812Y-135033608D01*
X150306812Y-135033609D01*
X150192686Y-135099500D01*
X150192683Y-135099502D01*
X150099498Y-135192687D01*
X150098370Y-135194158D01*
X150097102Y-135195083D01*
X150093753Y-135198433D01*
X150093230Y-135197910D01*
X150041940Y-135235356D01*
X149972193Y-135239506D01*
X149911275Y-135205289D01*
X149901630Y-135194158D01*
X149900501Y-135192687D01*
X149807316Y-135099502D01*
X149807314Y-135099500D01*
X149693186Y-135033608D01*
X149583469Y-135004209D01*
X149523810Y-134967845D01*
X149495789Y-134916528D01*
X149466391Y-134806812D01*
X149433878Y-134750499D01*
X149400500Y-134692686D01*
X149307314Y-134599500D01*
X149250250Y-134566554D01*
X149193187Y-134533608D01*
X149129539Y-134516554D01*
X149065892Y-134499500D01*
X148934108Y-134499500D01*
X148806812Y-134533608D01*
X148692686Y-134599500D01*
X148692683Y-134599502D01*
X148599502Y-134692683D01*
X148599500Y-134692686D01*
X148533609Y-134806812D01*
X148504210Y-134916529D01*
X148467844Y-134976189D01*
X148416529Y-135004210D01*
X148379748Y-135014065D01*
X148306814Y-135033608D01*
X148306812Y-135033608D01*
X148306812Y-135033609D01*
X148192686Y-135099500D01*
X148192683Y-135099502D01*
X148099498Y-135192687D01*
X148098370Y-135194158D01*
X148097102Y-135195083D01*
X148093753Y-135198433D01*
X148093230Y-135197910D01*
X148041940Y-135235356D01*
X147972193Y-135239506D01*
X147911275Y-135205289D01*
X147901630Y-135194158D01*
X147900501Y-135192687D01*
X147807316Y-135099502D01*
X147807314Y-135099500D01*
X147693186Y-135033608D01*
X147583469Y-135004209D01*
X147523810Y-134967845D01*
X147495789Y-134916528D01*
X147466391Y-134806812D01*
X147433878Y-134750499D01*
X147400500Y-134692686D01*
X147307314Y-134599500D01*
X147250250Y-134566554D01*
X147193187Y-134533608D01*
X147129539Y-134516554D01*
X147065892Y-134499500D01*
X146934108Y-134499500D01*
X146806812Y-134533608D01*
X146692686Y-134599500D01*
X146692683Y-134599502D01*
X146599502Y-134692683D01*
X146599500Y-134692686D01*
X146533609Y-134806812D01*
X146504210Y-134916529D01*
X146467844Y-134976189D01*
X146416529Y-135004210D01*
X146379748Y-135014065D01*
X146306814Y-135033608D01*
X146306812Y-135033608D01*
X146306812Y-135033609D01*
X146192686Y-135099500D01*
X146192683Y-135099502D01*
X146099502Y-135192683D01*
X146099500Y-135192686D01*
X146033608Y-135306812D01*
X145999500Y-135434108D01*
X128115133Y-135434108D01*
X128069523Y-135344594D01*
X128042074Y-135306814D01*
X127953828Y-135185354D01*
X127814646Y-135046172D01*
X127655405Y-134930476D01*
X127480029Y-134841117D01*
X127292826Y-134780290D01*
X127098422Y-134749500D01*
X127098417Y-134749500D01*
X126901583Y-134749500D01*
X126901578Y-134749500D01*
X126707173Y-134780290D01*
X126519970Y-134841117D01*
X126344594Y-134930476D01*
X126253741Y-134996485D01*
X126185354Y-135046172D01*
X126185352Y-135046174D01*
X126185351Y-135046174D01*
X126046174Y-135185351D01*
X126046174Y-135185352D01*
X126046172Y-135185354D01*
X126009843Y-135235356D01*
X125930476Y-135344594D01*
X125841117Y-135519970D01*
X125780290Y-135707173D01*
X125749500Y-135901577D01*
X122500000Y-135901577D01*
X122500000Y-135881947D01*
X122463065Y-135648752D01*
X122390102Y-135424197D01*
X122353919Y-135353184D01*
X121707106Y-135999999D01*
X121500000Y-135999999D01*
X121500000Y-135934174D01*
X121465925Y-135807007D01*
X121400099Y-135692993D01*
X121307007Y-135599901D01*
X121192993Y-135534075D01*
X121065826Y-135500000D01*
X120934174Y-135500000D01*
X120807007Y-135534075D01*
X120692993Y-135599901D01*
X120599901Y-135692993D01*
X120534075Y-135807007D01*
X120500000Y-135934174D01*
X120227068Y-135934174D01*
X119646078Y-135353184D01*
X119609894Y-135424202D01*
X119609894Y-135424203D01*
X119536934Y-135648751D01*
X119500000Y-135881947D01*
X90250500Y-135881947D01*
X90250500Y-134646078D01*
X120353184Y-134646078D01*
X121000000Y-135292894D01*
X121000001Y-135292894D01*
X121646814Y-134646079D01*
X121646813Y-134646078D01*
X121575805Y-134609898D01*
X121351247Y-134536934D01*
X121351248Y-134536934D01*
X121118052Y-134500000D01*
X120881948Y-134500000D01*
X120648751Y-134536934D01*
X120424203Y-134609894D01*
X120424202Y-134609894D01*
X120353184Y-134646078D01*
X90250500Y-134646078D01*
X90250500Y-133401577D01*
X122749500Y-133401577D01*
X122749500Y-133598422D01*
X122780290Y-133792826D01*
X122841117Y-133980029D01*
X122912275Y-134119684D01*
X122930476Y-134155405D01*
X123046172Y-134314646D01*
X123185354Y-134453828D01*
X123344595Y-134569524D01*
X123403427Y-134599500D01*
X123519970Y-134658882D01*
X123519972Y-134658882D01*
X123519975Y-134658884D01*
X123620317Y-134691487D01*
X123707173Y-134719709D01*
X123901578Y-134750500D01*
X123901583Y-134750500D01*
X124098422Y-134750500D01*
X124292826Y-134719709D01*
X124480025Y-134658884D01*
X124655405Y-134569524D01*
X124814646Y-134453828D01*
X124953828Y-134314646D01*
X125048670Y-134184108D01*
X151999500Y-134184108D01*
X151999500Y-134315891D01*
X152033608Y-134443187D01*
X152039750Y-134453825D01*
X152099500Y-134557314D01*
X152192686Y-134650500D01*
X152306814Y-134716392D01*
X152434108Y-134750500D01*
X152434110Y-134750500D01*
X152565890Y-134750500D01*
X152565892Y-134750500D01*
X152693186Y-134716392D01*
X152807314Y-134650500D01*
X152900500Y-134557314D01*
X152966392Y-134443186D01*
X153000500Y-134315892D01*
X153000500Y-134184108D01*
X152966392Y-134056814D01*
X152900500Y-133942686D01*
X152807314Y-133849500D01*
X152750250Y-133816554D01*
X152693187Y-133783608D01*
X152629539Y-133766554D01*
X152565892Y-133749500D01*
X152434108Y-133749500D01*
X152306812Y-133783608D01*
X152192686Y-133849500D01*
X152192683Y-133849502D01*
X152099502Y-133942683D01*
X152099500Y-133942686D01*
X152033608Y-134056812D01*
X151999500Y-134184108D01*
X125048670Y-134184108D01*
X125069524Y-134155405D01*
X125076414Y-134141881D01*
X125087725Y-134119685D01*
X125087725Y-134119684D01*
X125158881Y-133980032D01*
X125158881Y-133980028D01*
X125158884Y-133980025D01*
X125219709Y-133792826D01*
X125235490Y-133693187D01*
X125250500Y-133598422D01*
X125250500Y-133434108D01*
X148499500Y-133434108D01*
X148499500Y-133565891D01*
X148533608Y-133693187D01*
X148566121Y-133749500D01*
X148599500Y-133807314D01*
X148692686Y-133900500D01*
X148806814Y-133966392D01*
X148934108Y-134000500D01*
X148934110Y-134000500D01*
X149065890Y-134000500D01*
X149065892Y-134000500D01*
X149193186Y-133966392D01*
X149307314Y-133900500D01*
X149400500Y-133807314D01*
X149466392Y-133693186D01*
X149500500Y-133565892D01*
X149500500Y-133434108D01*
X149466392Y-133306814D01*
X149400500Y-133192686D01*
X149307314Y-133099500D01*
X149193186Y-133033608D01*
X149065892Y-132999500D01*
X148934108Y-132999500D01*
X148806812Y-133033608D01*
X148692686Y-133099500D01*
X148692683Y-133099502D01*
X148599502Y-133192683D01*
X148599500Y-133192686D01*
X148533608Y-133306812D01*
X148499500Y-133434108D01*
X125250500Y-133434108D01*
X125250500Y-133401577D01*
X125219709Y-133207173D01*
X125163314Y-133033609D01*
X125158884Y-133019975D01*
X125158882Y-133019972D01*
X125158882Y-133019970D01*
X125069523Y-132844594D01*
X124999973Y-132748867D01*
X124959155Y-132692686D01*
X124953828Y-132685354D01*
X124952582Y-132684108D01*
X143499500Y-132684108D01*
X143499500Y-132815891D01*
X143533608Y-132943187D01*
X143566121Y-132999500D01*
X143599500Y-133057314D01*
X143692686Y-133150500D01*
X143806814Y-133216392D01*
X143934108Y-133250500D01*
X143934110Y-133250500D01*
X144065890Y-133250500D01*
X144065892Y-133250500D01*
X144193186Y-133216392D01*
X144307314Y-133150500D01*
X144400500Y-133057314D01*
X144466392Y-132943186D01*
X144468824Y-132934108D01*
X153249500Y-132934108D01*
X153249500Y-133065891D01*
X153283608Y-133193187D01*
X153291683Y-133207173D01*
X153349500Y-133307314D01*
X153442686Y-133400500D01*
X153556814Y-133466392D01*
X153684108Y-133500500D01*
X153684110Y-133500500D01*
X153815890Y-133500500D01*
X153815892Y-133500500D01*
X153943186Y-133466392D01*
X154057314Y-133400500D01*
X154150500Y-133307314D01*
X154216392Y-133193186D01*
X154250500Y-133065892D01*
X154250500Y-132934108D01*
X154216392Y-132806814D01*
X154150500Y-132692686D01*
X154057314Y-132599500D01*
X153983380Y-132556814D01*
X153943187Y-132533608D01*
X153879539Y-132516554D01*
X153815892Y-132499500D01*
X153684108Y-132499500D01*
X153556812Y-132533608D01*
X153442686Y-132599500D01*
X153442683Y-132599502D01*
X153349502Y-132692683D01*
X153349500Y-132692686D01*
X153283608Y-132806812D01*
X153249500Y-132934108D01*
X144468824Y-132934108D01*
X144500500Y-132815892D01*
X144500500Y-132684108D01*
X144466392Y-132556814D01*
X144400500Y-132442686D01*
X144307314Y-132349500D01*
X144250250Y-132316554D01*
X144193187Y-132283608D01*
X144129539Y-132266554D01*
X144065892Y-132249500D01*
X143934108Y-132249500D01*
X143806812Y-132283608D01*
X143692686Y-132349500D01*
X143692683Y-132349502D01*
X143599502Y-132442683D01*
X143599500Y-132442686D01*
X143533608Y-132556812D01*
X143499500Y-132684108D01*
X124952582Y-132684108D01*
X124814646Y-132546172D01*
X124655405Y-132430476D01*
X124480029Y-132341117D01*
X124292826Y-132280290D01*
X124098422Y-132249500D01*
X124098417Y-132249500D01*
X123901583Y-132249500D01*
X123901578Y-132249500D01*
X123707173Y-132280290D01*
X123519970Y-132341117D01*
X123344594Y-132430476D01*
X123327789Y-132442686D01*
X123185354Y-132546172D01*
X123185352Y-132546174D01*
X123185351Y-132546174D01*
X123046174Y-132685351D01*
X123046174Y-132685352D01*
X123046172Y-132685354D01*
X123040845Y-132692686D01*
X122930476Y-132844594D01*
X122841117Y-133019970D01*
X122780290Y-133207173D01*
X122749500Y-133401577D01*
X90250500Y-133401577D01*
X90250500Y-132353919D01*
X102353184Y-132353919D01*
X102424197Y-132390102D01*
X102648752Y-132463065D01*
X102648751Y-132463065D01*
X102881948Y-132500000D01*
X103118052Y-132500000D01*
X103351247Y-132463065D01*
X103575797Y-132390104D01*
X103646814Y-132353919D01*
X103000001Y-131707106D01*
X103000000Y-131707106D01*
X102353184Y-132353919D01*
X90250500Y-132353919D01*
X90250500Y-130881947D01*
X101500000Y-130881947D01*
X101500000Y-131118052D01*
X101536934Y-131351247D01*
X101609898Y-131575805D01*
X101646078Y-131646813D01*
X101646079Y-131646814D01*
X102292894Y-131000000D01*
X102227068Y-130934174D01*
X102500000Y-130934174D01*
X102500000Y-131065826D01*
X102534075Y-131192993D01*
X102599901Y-131307007D01*
X102692993Y-131400099D01*
X102807007Y-131465925D01*
X102934174Y-131500000D01*
X103065826Y-131500000D01*
X103192993Y-131465925D01*
X103307007Y-131400099D01*
X103400099Y-131307007D01*
X103465925Y-131192993D01*
X103500000Y-131065826D01*
X103500000Y-130999999D01*
X103707106Y-130999999D01*
X103707106Y-131000001D01*
X104353919Y-131646814D01*
X104390104Y-131575797D01*
X104463065Y-131351247D01*
X104500000Y-131118052D01*
X104500000Y-130881947D01*
X104463065Y-130648751D01*
X104403133Y-130464299D01*
X104393323Y-130434108D01*
X114999500Y-130434108D01*
X114999500Y-130565891D01*
X115033608Y-130693187D01*
X115066554Y-130750250D01*
X115099500Y-130807314D01*
X115192686Y-130900500D01*
X115192689Y-130900502D01*
X115199135Y-130905448D01*
X115197362Y-130907758D01*
X115235908Y-130948195D01*
X115249122Y-131016803D01*
X115223145Y-131081665D01*
X115198175Y-131103301D01*
X115199135Y-131104552D01*
X115192683Y-131109502D01*
X115099502Y-131202683D01*
X115099500Y-131202686D01*
X115033608Y-131316812D01*
X114999500Y-131444108D01*
X114999500Y-131575891D01*
X115033608Y-131703187D01*
X115035871Y-131707106D01*
X115099500Y-131817314D01*
X115192686Y-131910500D01*
X115306814Y-131976392D01*
X115434108Y-132010500D01*
X115434110Y-132010500D01*
X115565890Y-132010500D01*
X115565892Y-132010500D01*
X115693186Y-131976392D01*
X115807314Y-131910500D01*
X115900500Y-131817314D01*
X115900504Y-131817306D01*
X115901625Y-131815847D01*
X115902892Y-131814921D01*
X115906247Y-131811567D01*
X115906770Y-131812090D01*
X115958053Y-131774645D01*
X116027799Y-131770491D01*
X116088719Y-131804704D01*
X116098375Y-131815847D01*
X116099498Y-131817311D01*
X116099500Y-131817314D01*
X116192686Y-131910500D01*
X116306814Y-131976392D01*
X116434108Y-132010500D01*
X116434110Y-132010500D01*
X116565890Y-132010500D01*
X116565892Y-132010500D01*
X116693186Y-131976392D01*
X116807314Y-131910500D01*
X116900500Y-131817314D01*
X116900504Y-131817306D01*
X116901625Y-131815847D01*
X116902892Y-131814921D01*
X116906247Y-131811567D01*
X116906770Y-131812090D01*
X116958053Y-131774645D01*
X117027799Y-131770491D01*
X117088719Y-131804704D01*
X117098375Y-131815847D01*
X117099498Y-131817311D01*
X117099500Y-131817314D01*
X117192686Y-131910500D01*
X117306814Y-131976392D01*
X117434108Y-132010500D01*
X117434110Y-132010500D01*
X117565890Y-132010500D01*
X117565892Y-132010500D01*
X117693186Y-131976392D01*
X117807314Y-131910500D01*
X117900500Y-131817314D01*
X117966392Y-131703186D01*
X118000500Y-131575892D01*
X118000500Y-131444108D01*
X117966392Y-131316814D01*
X117900500Y-131202686D01*
X117807314Y-131109500D01*
X117724746Y-131061829D01*
X117693187Y-131043608D01*
X117593147Y-131016803D01*
X117565892Y-131009500D01*
X117434108Y-131009500D01*
X117306812Y-131043608D01*
X117192686Y-131109500D01*
X117192683Y-131109502D01*
X117099498Y-131202687D01*
X117098370Y-131204158D01*
X117097102Y-131205083D01*
X117093753Y-131208433D01*
X117093230Y-131207910D01*
X117041940Y-131245356D01*
X116972193Y-131249506D01*
X116911275Y-131215289D01*
X116901630Y-131204158D01*
X116900501Y-131202687D01*
X116807316Y-131109502D01*
X116807314Y-131109500D01*
X116807311Y-131109498D01*
X116800865Y-131104552D01*
X116802640Y-131102238D01*
X116764103Y-131061829D01*
X116750875Y-130993223D01*
X116776837Y-130928356D01*
X116801827Y-130906702D01*
X116800865Y-130905448D01*
X116807306Y-130900504D01*
X116807314Y-130900500D01*
X116900500Y-130807314D01*
X116966392Y-130693186D01*
X117000500Y-130565892D01*
X117000500Y-130434108D01*
X116966392Y-130306814D01*
X116900500Y-130192686D01*
X116807314Y-130099500D01*
X116750250Y-130066554D01*
X116693187Y-130033608D01*
X116629539Y-130016554D01*
X116565892Y-129999500D01*
X116434108Y-129999500D01*
X116306812Y-130033608D01*
X116192686Y-130099500D01*
X116192683Y-130099502D01*
X116099498Y-130192687D01*
X116098370Y-130194158D01*
X116097102Y-130195083D01*
X116093753Y-130198433D01*
X116093230Y-130197910D01*
X116041940Y-130235356D01*
X115972193Y-130239506D01*
X115911275Y-130205289D01*
X115901630Y-130194158D01*
X115900501Y-130192687D01*
X115807316Y-130099502D01*
X115807314Y-130099500D01*
X115750250Y-130066554D01*
X115693187Y-130033608D01*
X115629539Y-130016554D01*
X115565892Y-129999500D01*
X115434108Y-129999500D01*
X115306812Y-130033608D01*
X115192686Y-130099500D01*
X115192683Y-130099502D01*
X115099502Y-130192683D01*
X115099500Y-130192686D01*
X115033608Y-130306812D01*
X114999500Y-130434108D01*
X104393323Y-130434108D01*
X104390102Y-130424195D01*
X104353919Y-130353184D01*
X103707106Y-130999999D01*
X103500000Y-130999999D01*
X103500000Y-130934174D01*
X103465925Y-130807007D01*
X103400099Y-130692993D01*
X103307007Y-130599901D01*
X103192993Y-130534075D01*
X103065826Y-130500000D01*
X102934174Y-130500000D01*
X102807007Y-130534075D01*
X102692993Y-130599901D01*
X102599901Y-130692993D01*
X102534075Y-130807007D01*
X102500000Y-130934174D01*
X102227068Y-130934174D01*
X101646078Y-130353184D01*
X101609894Y-130424202D01*
X101609894Y-130424203D01*
X101536934Y-130648751D01*
X101500000Y-130881947D01*
X90250500Y-130881947D01*
X90250500Y-129646078D01*
X102353184Y-129646078D01*
X103000000Y-130292894D01*
X103000001Y-130292894D01*
X103646814Y-129646079D01*
X103646813Y-129646078D01*
X103575805Y-129609898D01*
X103351247Y-129536934D01*
X103351248Y-129536934D01*
X103118052Y-129500000D01*
X102881948Y-129500000D01*
X102648751Y-129536934D01*
X102424203Y-129609894D01*
X102424202Y-129609894D01*
X102353184Y-129646078D01*
X90250500Y-129646078D01*
X90250500Y-128934108D01*
X99759500Y-128934108D01*
X99759500Y-129065892D01*
X99775472Y-129125500D01*
X99793608Y-129193187D01*
X99821300Y-129241150D01*
X99859500Y-129307314D01*
X99952686Y-129400500D01*
X100066814Y-129466392D01*
X100194108Y-129500500D01*
X100194110Y-129500500D01*
X100325890Y-129500500D01*
X100325892Y-129500500D01*
X100453186Y-129466392D01*
X100567314Y-129400500D01*
X100660500Y-129307314D01*
X100726392Y-129193186D01*
X100760500Y-129065892D01*
X100760500Y-128982071D01*
X111797463Y-128982071D01*
X111797463Y-129113855D01*
X111805510Y-129143886D01*
X111831571Y-129241150D01*
X111864517Y-129298213D01*
X111897463Y-129355277D01*
X111990649Y-129448463D01*
X112104777Y-129514355D01*
X112232071Y-129548463D01*
X112232073Y-129548463D01*
X112363853Y-129548463D01*
X112363855Y-129548463D01*
X112491149Y-129514355D01*
X112605277Y-129448463D01*
X112698463Y-129355277D01*
X112764355Y-129241149D01*
X112798463Y-129113855D01*
X112798463Y-128982071D01*
X112785611Y-128934108D01*
X113499500Y-128934108D01*
X113499500Y-129065892D01*
X113515472Y-129125500D01*
X113533608Y-129193187D01*
X113561300Y-129241150D01*
X113599500Y-129307314D01*
X113692686Y-129400500D01*
X113806814Y-129466392D01*
X113934108Y-129500500D01*
X113934110Y-129500500D01*
X114065890Y-129500500D01*
X114065892Y-129500500D01*
X114193186Y-129466392D01*
X114307314Y-129400500D01*
X114400500Y-129307314D01*
X114466392Y-129193186D01*
X114468824Y-129184108D01*
X120249500Y-129184108D01*
X120249500Y-129315891D01*
X120283608Y-129443187D01*
X120297005Y-129466391D01*
X120349500Y-129557314D01*
X120442686Y-129650500D01*
X120556814Y-129716392D01*
X120684108Y-129750500D01*
X120684110Y-129750500D01*
X120815890Y-129750500D01*
X120815892Y-129750500D01*
X120943186Y-129716392D01*
X121057314Y-129650500D01*
X121150500Y-129557314D01*
X121216392Y-129443186D01*
X121250500Y-129315892D01*
X121250500Y-129184108D01*
X122249500Y-129184108D01*
X122249500Y-129315891D01*
X122283608Y-129443187D01*
X122297005Y-129466391D01*
X122349500Y-129557314D01*
X122442686Y-129650500D01*
X122556814Y-129716392D01*
X122684108Y-129750500D01*
X122684110Y-129750500D01*
X122815890Y-129750500D01*
X122815892Y-129750500D01*
X122943186Y-129716392D01*
X123057314Y-129650500D01*
X123150500Y-129557314D01*
X123216392Y-129443186D01*
X123250500Y-129315892D01*
X123250500Y-129184108D01*
X123216392Y-129056814D01*
X123150500Y-128942686D01*
X123057314Y-128849500D01*
X122983380Y-128806814D01*
X122943187Y-128783608D01*
X122879539Y-128766554D01*
X122815892Y-128749500D01*
X122684108Y-128749500D01*
X122556812Y-128783608D01*
X122442686Y-128849500D01*
X122442683Y-128849502D01*
X122349502Y-128942683D01*
X122349500Y-128942686D01*
X122283608Y-129056812D01*
X122249500Y-129184108D01*
X121250500Y-129184108D01*
X121216392Y-129056814D01*
X121150500Y-128942686D01*
X121057314Y-128849500D01*
X120983380Y-128806814D01*
X120943187Y-128783608D01*
X120879539Y-128766554D01*
X120815892Y-128749500D01*
X120684108Y-128749500D01*
X120556812Y-128783608D01*
X120442686Y-128849500D01*
X120442683Y-128849502D01*
X120349502Y-128942683D01*
X120349500Y-128942686D01*
X120283608Y-129056812D01*
X120249500Y-129184108D01*
X114468824Y-129184108D01*
X114500500Y-129065892D01*
X114500500Y-128934108D01*
X114466392Y-128806814D01*
X114400500Y-128692686D01*
X114307314Y-128599500D01*
X114217184Y-128547463D01*
X114193187Y-128533608D01*
X114129539Y-128516554D01*
X114065892Y-128499500D01*
X113934108Y-128499500D01*
X113806812Y-128533608D01*
X113692686Y-128599500D01*
X113692683Y-128599502D01*
X113599502Y-128692683D01*
X113599500Y-128692686D01*
X113533608Y-128806812D01*
X113517163Y-128868187D01*
X113499500Y-128934108D01*
X112785611Y-128934108D01*
X112764355Y-128854777D01*
X112698463Y-128740649D01*
X112605277Y-128647463D01*
X112538848Y-128609110D01*
X112491150Y-128581571D01*
X112427502Y-128564517D01*
X112363855Y-128547463D01*
X112232071Y-128547463D01*
X112104775Y-128581571D01*
X111990649Y-128647463D01*
X111990646Y-128647465D01*
X111897465Y-128740646D01*
X111897463Y-128740649D01*
X111831571Y-128854775D01*
X111810314Y-128934110D01*
X111797463Y-128982071D01*
X100760500Y-128982071D01*
X100760500Y-128934108D01*
X100726392Y-128806814D01*
X100660500Y-128692686D01*
X100567314Y-128599500D01*
X100477184Y-128547463D01*
X100453187Y-128533608D01*
X100389539Y-128516554D01*
X100325892Y-128499500D01*
X100194108Y-128499500D01*
X100066812Y-128533608D01*
X99952686Y-128599500D01*
X99952683Y-128599502D01*
X99859502Y-128692683D01*
X99859500Y-128692686D01*
X99793608Y-128806812D01*
X99777163Y-128868187D01*
X99759500Y-128934108D01*
X90250500Y-128934108D01*
X90250500Y-127434108D01*
X96349500Y-127434108D01*
X96349500Y-127565891D01*
X96383608Y-127693187D01*
X96397005Y-127716391D01*
X96449500Y-127807314D01*
X96542686Y-127900500D01*
X96656814Y-127966392D01*
X96784108Y-128000500D01*
X96784110Y-128000500D01*
X96915890Y-128000500D01*
X96915892Y-128000500D01*
X97043186Y-127966392D01*
X97157314Y-127900500D01*
X97250500Y-127807314D01*
X97316392Y-127693186D01*
X97350500Y-127565892D01*
X97350500Y-127434108D01*
X97316392Y-127306814D01*
X97250500Y-127192686D01*
X97241922Y-127184108D01*
X126499500Y-127184108D01*
X126499500Y-127315891D01*
X126533608Y-127443187D01*
X126560924Y-127490499D01*
X126599500Y-127557314D01*
X126692686Y-127650500D01*
X126806814Y-127716392D01*
X126934108Y-127750500D01*
X126934110Y-127750500D01*
X127065890Y-127750500D01*
X127065892Y-127750500D01*
X127193186Y-127716392D01*
X127307314Y-127650500D01*
X127400500Y-127557314D01*
X127466392Y-127443186D01*
X127500500Y-127315892D01*
X127500500Y-127184108D01*
X127466392Y-127056814D01*
X127447220Y-127023608D01*
X127420879Y-126977983D01*
X127420878Y-126977982D01*
X127400500Y-126942686D01*
X127381922Y-126924108D01*
X129749500Y-126924108D01*
X129749500Y-127055892D01*
X129749747Y-127056812D01*
X129783608Y-127183187D01*
X129815243Y-127237980D01*
X129849500Y-127297314D01*
X129942686Y-127390500D01*
X130056814Y-127456392D01*
X130184108Y-127490500D01*
X130184110Y-127490500D01*
X130315890Y-127490500D01*
X130315892Y-127490500D01*
X130443186Y-127456392D01*
X130499103Y-127424108D01*
X135999500Y-127424108D01*
X135999500Y-127555892D01*
X136016554Y-127619539D01*
X136033608Y-127683187D01*
X136066554Y-127740250D01*
X136099500Y-127797314D01*
X136192686Y-127890500D01*
X136195690Y-127892234D01*
X136196349Y-127892615D01*
X136198818Y-127895205D01*
X136199135Y-127895448D01*
X136199097Y-127895497D01*
X136244563Y-127943184D01*
X136257783Y-128011791D01*
X136231813Y-128076655D01*
X136196349Y-128107385D01*
X136192689Y-128109498D01*
X136192683Y-128109502D01*
X136099502Y-128202683D01*
X136099500Y-128202686D01*
X136033608Y-128316812D01*
X135999500Y-128444108D01*
X135999500Y-128575891D01*
X136033608Y-128703187D01*
X136060347Y-128749500D01*
X136099500Y-128817314D01*
X136192686Y-128910500D01*
X136306814Y-128976392D01*
X136434108Y-129010500D01*
X136434110Y-129010500D01*
X136565890Y-129010500D01*
X136565892Y-129010500D01*
X136693186Y-128976392D01*
X136807314Y-128910500D01*
X136900500Y-128817314D01*
X136966392Y-128703186D01*
X136991600Y-128609108D01*
X144404500Y-128609108D01*
X144404500Y-128740892D01*
X144415946Y-128783608D01*
X144438608Y-128868187D01*
X144463036Y-128910497D01*
X144504500Y-128982314D01*
X144597686Y-129075500D01*
X144711814Y-129141392D01*
X144839108Y-129175500D01*
X144839110Y-129175500D01*
X144970890Y-129175500D01*
X144970892Y-129175500D01*
X145098186Y-129141392D01*
X145212314Y-129075500D01*
X145305500Y-128982314D01*
X145371392Y-128868186D01*
X145405500Y-128740892D01*
X145405500Y-128659108D01*
X150404500Y-128659108D01*
X150404500Y-128790892D01*
X150411580Y-128817314D01*
X150438608Y-128918187D01*
X150452751Y-128942683D01*
X150504500Y-129032314D01*
X150597686Y-129125500D01*
X150711814Y-129191392D01*
X150839108Y-129225500D01*
X150839110Y-129225500D01*
X150970890Y-129225500D01*
X150970892Y-129225500D01*
X151098186Y-129191392D01*
X151212314Y-129125500D01*
X151305500Y-129032314D01*
X151371392Y-128918186D01*
X151405500Y-128790892D01*
X151405500Y-128659108D01*
X156404500Y-128659108D01*
X156404500Y-128790892D01*
X156411580Y-128817314D01*
X156438608Y-128918187D01*
X156452751Y-128942683D01*
X156504500Y-129032314D01*
X156597686Y-129125500D01*
X156711814Y-129191392D01*
X156839108Y-129225500D01*
X156839110Y-129225500D01*
X156970890Y-129225500D01*
X156970892Y-129225500D01*
X157098186Y-129191392D01*
X157212314Y-129125500D01*
X157305500Y-129032314D01*
X157371392Y-128918186D01*
X157405500Y-128790892D01*
X157405500Y-128659108D01*
X157371392Y-128531814D01*
X157305500Y-128417686D01*
X157212314Y-128324500D01*
X157155250Y-128291554D01*
X157098187Y-128258608D01*
X157034539Y-128241554D01*
X156970892Y-128224500D01*
X156839108Y-128224500D01*
X156711812Y-128258608D01*
X156597686Y-128324500D01*
X156597683Y-128324502D01*
X156504502Y-128417683D01*
X156504500Y-128417686D01*
X156438608Y-128531812D01*
X156420472Y-128599500D01*
X156404500Y-128659108D01*
X151405500Y-128659108D01*
X151371392Y-128531814D01*
X151305500Y-128417686D01*
X151212314Y-128324500D01*
X151155250Y-128291554D01*
X151098187Y-128258608D01*
X151034539Y-128241554D01*
X150970892Y-128224500D01*
X150839108Y-128224500D01*
X150711812Y-128258608D01*
X150597686Y-128324500D01*
X150597683Y-128324502D01*
X150504502Y-128417683D01*
X150504500Y-128417686D01*
X150438608Y-128531812D01*
X150420472Y-128599500D01*
X150404500Y-128659108D01*
X145405500Y-128659108D01*
X145405500Y-128609108D01*
X145371392Y-128481814D01*
X145305500Y-128367686D01*
X145212314Y-128274500D01*
X145125712Y-128224500D01*
X145098187Y-128208608D01*
X145034539Y-128191554D01*
X144970892Y-128174500D01*
X144839108Y-128174500D01*
X144711812Y-128208608D01*
X144597686Y-128274500D01*
X144597683Y-128274502D01*
X144504502Y-128367683D01*
X144504500Y-128367686D01*
X144438608Y-128481812D01*
X144413401Y-128575889D01*
X144404500Y-128609108D01*
X136991600Y-128609108D01*
X137000500Y-128575892D01*
X137000500Y-128444108D01*
X136966392Y-128316814D01*
X136900500Y-128202686D01*
X136807314Y-128109500D01*
X136807010Y-128109325D01*
X136803655Y-128107387D01*
X136801188Y-128104800D01*
X136800865Y-128104552D01*
X136800903Y-128104501D01*
X136755439Y-128056821D01*
X136742215Y-127988214D01*
X136768183Y-127923349D01*
X136803655Y-127892613D01*
X136804790Y-127891956D01*
X136807314Y-127890500D01*
X136900500Y-127797314D01*
X136966392Y-127683186D01*
X137000500Y-127555892D01*
X137000500Y-127424108D01*
X136966392Y-127296814D01*
X136900500Y-127182686D01*
X136807314Y-127089500D01*
X136749100Y-127055890D01*
X136693187Y-127023608D01*
X136606941Y-127000499D01*
X136565892Y-126989500D01*
X136434108Y-126989500D01*
X136306812Y-127023608D01*
X136192686Y-127089500D01*
X136192683Y-127089502D01*
X136099502Y-127182683D01*
X136099500Y-127182686D01*
X136033608Y-127296812D01*
X136028496Y-127315891D01*
X135999500Y-127424108D01*
X130499103Y-127424108D01*
X130557314Y-127390500D01*
X130650500Y-127297314D01*
X130716392Y-127183186D01*
X130750500Y-127055892D01*
X130750500Y-126924108D01*
X130716392Y-126796814D01*
X130708767Y-126783608D01*
X130695421Y-126760491D01*
X130650500Y-126682686D01*
X130557314Y-126589500D01*
X130500250Y-126556554D01*
X130443187Y-126523608D01*
X130379539Y-126506554D01*
X130315892Y-126489500D01*
X130184108Y-126489500D01*
X130056812Y-126523608D01*
X129942686Y-126589500D01*
X129942683Y-126589502D01*
X129849502Y-126682683D01*
X129849500Y-126682686D01*
X129783608Y-126796812D01*
X129780794Y-126807316D01*
X129749500Y-126924108D01*
X127381922Y-126924108D01*
X127307314Y-126849500D01*
X127250250Y-126816554D01*
X127193187Y-126783608D01*
X127106911Y-126760491D01*
X127065892Y-126749500D01*
X126934108Y-126749500D01*
X126806812Y-126783608D01*
X126692686Y-126849500D01*
X126692683Y-126849502D01*
X126599502Y-126942683D01*
X126599500Y-126942686D01*
X126533608Y-127056812D01*
X126499500Y-127184108D01*
X97241922Y-127184108D01*
X97157314Y-127099500D01*
X97083380Y-127056814D01*
X97043187Y-127033608D01*
X96979539Y-127016554D01*
X96915892Y-126999500D01*
X96784108Y-126999500D01*
X96656812Y-127033608D01*
X96542686Y-127099500D01*
X96542683Y-127099502D01*
X96449502Y-127192683D01*
X96449500Y-127192686D01*
X96383608Y-127306812D01*
X96349500Y-127434108D01*
X90250500Y-127434108D01*
X90250500Y-126184108D01*
X96349500Y-126184108D01*
X96349500Y-126315891D01*
X96383608Y-126443187D01*
X96410347Y-126489500D01*
X96449500Y-126557314D01*
X96542686Y-126650500D01*
X96656814Y-126716392D01*
X96784108Y-126750500D01*
X96784110Y-126750500D01*
X96915890Y-126750500D01*
X96915892Y-126750500D01*
X97043186Y-126716392D01*
X97157314Y-126650500D01*
X97250500Y-126557314D01*
X97316392Y-126443186D01*
X97350500Y-126315892D01*
X97350500Y-126184108D01*
X120249500Y-126184108D01*
X120249500Y-126315891D01*
X120283608Y-126443187D01*
X120310347Y-126489500D01*
X120349500Y-126557314D01*
X120442686Y-126650500D01*
X120556814Y-126716392D01*
X120684108Y-126750500D01*
X120684110Y-126750500D01*
X120815890Y-126750500D01*
X120815892Y-126750500D01*
X120943186Y-126716392D01*
X121057314Y-126650500D01*
X121074897Y-126632916D01*
X121136217Y-126599431D01*
X121205909Y-126604414D01*
X121261844Y-126646284D01*
X121282351Y-126688496D01*
X121283607Y-126693185D01*
X121297005Y-126716391D01*
X121349500Y-126807314D01*
X121442686Y-126900500D01*
X121556814Y-126966392D01*
X121684108Y-127000500D01*
X121684110Y-127000500D01*
X121815890Y-127000500D01*
X121815892Y-127000500D01*
X121943186Y-126966392D01*
X122057314Y-126900500D01*
X122150500Y-126807314D01*
X122150504Y-126807306D01*
X122151625Y-126805847D01*
X122152892Y-126804921D01*
X122156247Y-126801567D01*
X122156770Y-126802090D01*
X122208053Y-126764645D01*
X122277799Y-126760491D01*
X122338719Y-126794704D01*
X122348375Y-126805847D01*
X122349498Y-126807311D01*
X122349500Y-126807314D01*
X122442686Y-126900500D01*
X122556814Y-126966392D01*
X122684108Y-127000500D01*
X122684110Y-127000500D01*
X122815890Y-127000500D01*
X122815892Y-127000500D01*
X122943186Y-126966392D01*
X123057314Y-126900500D01*
X123150500Y-126807314D01*
X123216392Y-126693186D01*
X123250500Y-126565892D01*
X123250500Y-126434108D01*
X123749500Y-126434108D01*
X123749500Y-126565891D01*
X123783608Y-126693187D01*
X123797005Y-126716391D01*
X123849500Y-126807314D01*
X123942686Y-126900500D01*
X124056814Y-126966392D01*
X124184108Y-127000500D01*
X124184110Y-127000500D01*
X124315890Y-127000500D01*
X124315892Y-127000500D01*
X124443186Y-126966392D01*
X124557314Y-126900500D01*
X124650500Y-126807314D01*
X124716392Y-126693186D01*
X124750500Y-126565892D01*
X124750500Y-126434108D01*
X124716392Y-126306814D01*
X124650500Y-126192686D01*
X124557314Y-126099500D01*
X124491489Y-126061496D01*
X124443187Y-126033608D01*
X124379539Y-126016554D01*
X124315892Y-125999500D01*
X124184108Y-125999500D01*
X124056812Y-126033608D01*
X123942686Y-126099500D01*
X123942683Y-126099502D01*
X123849502Y-126192683D01*
X123849500Y-126192686D01*
X123783608Y-126306812D01*
X123749500Y-126434108D01*
X123250500Y-126434108D01*
X123216392Y-126306814D01*
X123150500Y-126192686D01*
X123057314Y-126099500D01*
X122991489Y-126061496D01*
X122943187Y-126033608D01*
X122879539Y-126016554D01*
X122815892Y-125999500D01*
X122684108Y-125999500D01*
X122556812Y-126033608D01*
X122442686Y-126099500D01*
X122442683Y-126099502D01*
X122349498Y-126192687D01*
X122348370Y-126194158D01*
X122347102Y-126195083D01*
X122343753Y-126198433D01*
X122343230Y-126197910D01*
X122291940Y-126235356D01*
X122222193Y-126239506D01*
X122161275Y-126205289D01*
X122151630Y-126194158D01*
X122150501Y-126192687D01*
X122057316Y-126099502D01*
X122057314Y-126099500D01*
X121991489Y-126061496D01*
X121943187Y-126033608D01*
X121879539Y-126016554D01*
X121815892Y-125999500D01*
X121684108Y-125999500D01*
X121556812Y-126033608D01*
X121442686Y-126099500D01*
X121442682Y-126099503D01*
X121425100Y-126117085D01*
X121363776Y-126150569D01*
X121294085Y-126145583D01*
X121238152Y-126103710D01*
X121217647Y-126061498D01*
X121216392Y-126056814D01*
X121150500Y-125942686D01*
X121057314Y-125849500D01*
X120943186Y-125783608D01*
X120815892Y-125749500D01*
X120684108Y-125749500D01*
X120556812Y-125783608D01*
X120442686Y-125849500D01*
X120442683Y-125849502D01*
X120349502Y-125942683D01*
X120349500Y-125942686D01*
X120283608Y-126056812D01*
X120249500Y-126184108D01*
X97350500Y-126184108D01*
X97316392Y-126056814D01*
X97250500Y-125942686D01*
X97157314Y-125849500D01*
X97099100Y-125815890D01*
X97043187Y-125783608D01*
X96979539Y-125766554D01*
X96915892Y-125749500D01*
X96784108Y-125749500D01*
X96656812Y-125783608D01*
X96542686Y-125849500D01*
X96542683Y-125849502D01*
X96449502Y-125942683D01*
X96449500Y-125942686D01*
X96383608Y-126056812D01*
X96349500Y-126184108D01*
X90250500Y-126184108D01*
X90250500Y-124934108D01*
X96349500Y-124934108D01*
X96349500Y-125065892D01*
X96358070Y-125097877D01*
X96383608Y-125193187D01*
X96397005Y-125216391D01*
X96449500Y-125307314D01*
X96542686Y-125400500D01*
X96656814Y-125466392D01*
X96784108Y-125500500D01*
X96784110Y-125500500D01*
X96915890Y-125500500D01*
X96915892Y-125500500D01*
X97043186Y-125466392D01*
X97157314Y-125400500D01*
X97250500Y-125307314D01*
X97316392Y-125193186D01*
X97350500Y-125065892D01*
X97350500Y-124934108D01*
X97316392Y-124806814D01*
X97250500Y-124692686D01*
X97157314Y-124599500D01*
X97083380Y-124556814D01*
X97043187Y-124533608D01*
X96979539Y-124516554D01*
X96915892Y-124499500D01*
X96784108Y-124499500D01*
X96656812Y-124533608D01*
X96542686Y-124599500D01*
X96542683Y-124599502D01*
X96449502Y-124692683D01*
X96449500Y-124692686D01*
X96383608Y-124806812D01*
X96368632Y-124862704D01*
X96349500Y-124934108D01*
X90250500Y-124934108D01*
X90250500Y-123684108D01*
X96349500Y-123684108D01*
X96349500Y-123815891D01*
X96383608Y-123943187D01*
X96416121Y-123999500D01*
X96449500Y-124057314D01*
X96542686Y-124150500D01*
X96656814Y-124216392D01*
X96784108Y-124250500D01*
X96784110Y-124250500D01*
X96915890Y-124250500D01*
X96915892Y-124250500D01*
X97043186Y-124216392D01*
X97157314Y-124150500D01*
X97250500Y-124057314D01*
X97316392Y-123943186D01*
X97327541Y-123901577D01*
X109749500Y-123901577D01*
X109749500Y-124098422D01*
X109780290Y-124292826D01*
X109841117Y-124480029D01*
X109884867Y-124565892D01*
X109930476Y-124655405D01*
X110046172Y-124814646D01*
X110185354Y-124953828D01*
X110344595Y-125069524D01*
X110403427Y-125099500D01*
X110519970Y-125158882D01*
X110519972Y-125158882D01*
X110519975Y-125158884D01*
X110597606Y-125184108D01*
X110707173Y-125219709D01*
X110901578Y-125250500D01*
X110901583Y-125250500D01*
X111098422Y-125250500D01*
X111292826Y-125219709D01*
X111480025Y-125158884D01*
X111655405Y-125069524D01*
X111814646Y-124953828D01*
X111953828Y-124814646D01*
X112048670Y-124684108D01*
X116774500Y-124684108D01*
X116774500Y-124815892D01*
X116790472Y-124875500D01*
X116808608Y-124943187D01*
X116822005Y-124966391D01*
X116874500Y-125057314D01*
X116967686Y-125150500D01*
X117081814Y-125216392D01*
X117209108Y-125250500D01*
X117209110Y-125250500D01*
X117340890Y-125250500D01*
X117340892Y-125250500D01*
X117468186Y-125216392D01*
X117524103Y-125184108D01*
X118249500Y-125184108D01*
X118249500Y-125315891D01*
X118283608Y-125443187D01*
X118297005Y-125466391D01*
X118349500Y-125557314D01*
X118442686Y-125650500D01*
X118556814Y-125716392D01*
X118684108Y-125750500D01*
X118684110Y-125750500D01*
X118815890Y-125750500D01*
X118815892Y-125750500D01*
X118943186Y-125716392D01*
X118999103Y-125684108D01*
X125249500Y-125684108D01*
X125249500Y-125815891D01*
X125283608Y-125943187D01*
X125297005Y-125966391D01*
X125349500Y-126057314D01*
X125442686Y-126150500D01*
X125556814Y-126216392D01*
X125684108Y-126250500D01*
X125684110Y-126250500D01*
X125815890Y-126250500D01*
X125815892Y-126250500D01*
X125943186Y-126216392D01*
X126057314Y-126150500D01*
X126150500Y-126057314D01*
X126216392Y-125943186D01*
X126250500Y-125815892D01*
X126250500Y-125684108D01*
X126216392Y-125556814D01*
X126150500Y-125442686D01*
X126141922Y-125434108D01*
X139249500Y-125434108D01*
X139249500Y-125565891D01*
X139283608Y-125693187D01*
X139297005Y-125716391D01*
X139349500Y-125807314D01*
X139442686Y-125900500D01*
X139556814Y-125966392D01*
X139684108Y-126000500D01*
X139684110Y-126000500D01*
X139815890Y-126000500D01*
X139815892Y-126000500D01*
X139943186Y-125966392D01*
X140057314Y-125900500D01*
X140150500Y-125807314D01*
X140216392Y-125693186D01*
X140250500Y-125565892D01*
X140250500Y-125565890D01*
X140252603Y-125558042D01*
X140254109Y-125558445D01*
X140278631Y-125503012D01*
X140285612Y-125495424D01*
X140869218Y-124911819D01*
X140930541Y-124878334D01*
X140956899Y-124875500D01*
X141619317Y-124875500D01*
X141686356Y-124895185D01*
X141732111Y-124947989D01*
X141742055Y-125017147D01*
X141713030Y-125080703D01*
X141694802Y-125097877D01*
X141692683Y-125099502D01*
X141599502Y-125192683D01*
X141599500Y-125192686D01*
X141533608Y-125306812D01*
X141499500Y-125434108D01*
X141499500Y-125565891D01*
X141533608Y-125693187D01*
X141547005Y-125716391D01*
X141599500Y-125807314D01*
X141599502Y-125807316D01*
X141692687Y-125900501D01*
X141694158Y-125901630D01*
X141695083Y-125902897D01*
X141698433Y-125906247D01*
X141697910Y-125906769D01*
X141735356Y-125958060D01*
X141739506Y-126027807D01*
X141705289Y-126088725D01*
X141694158Y-126098370D01*
X141692687Y-126099498D01*
X141599502Y-126192683D01*
X141599500Y-126192686D01*
X141533608Y-126306812D01*
X141499500Y-126434108D01*
X141499500Y-126565891D01*
X141533608Y-126693187D01*
X141547005Y-126716391D01*
X141599500Y-126807314D01*
X141692686Y-126900500D01*
X141806814Y-126966392D01*
X141934108Y-127000500D01*
X141934110Y-127000500D01*
X142065890Y-127000500D01*
X142065892Y-127000500D01*
X142193186Y-126966392D01*
X142307314Y-126900500D01*
X142400500Y-126807314D01*
X142400504Y-126807306D01*
X142401625Y-126805847D01*
X142402892Y-126804921D01*
X142406247Y-126801567D01*
X142406770Y-126802090D01*
X142458053Y-126764645D01*
X142527799Y-126760491D01*
X142588719Y-126794704D01*
X142598375Y-126805847D01*
X142599498Y-126807311D01*
X142599500Y-126807314D01*
X142692686Y-126900500D01*
X142806814Y-126966392D01*
X142934108Y-127000500D01*
X142934110Y-127000500D01*
X143065890Y-127000500D01*
X143065892Y-127000500D01*
X143193186Y-126966392D01*
X143307314Y-126900500D01*
X143400500Y-126807314D01*
X143400504Y-126807306D01*
X143401625Y-126805847D01*
X143402892Y-126804921D01*
X143406247Y-126801567D01*
X143406770Y-126802090D01*
X143458053Y-126764645D01*
X143527799Y-126760491D01*
X143588719Y-126794704D01*
X143598375Y-126805847D01*
X143599498Y-126807311D01*
X143599500Y-126807314D01*
X143692686Y-126900500D01*
X143806814Y-126966392D01*
X143934108Y-127000500D01*
X143934110Y-127000500D01*
X144065890Y-127000500D01*
X144065892Y-127000500D01*
X144193186Y-126966392D01*
X144307314Y-126900500D01*
X144400500Y-126807314D01*
X144466392Y-126693186D01*
X144500500Y-126565892D01*
X144500500Y-126434108D01*
X144466392Y-126306814D01*
X144400500Y-126192686D01*
X144307314Y-126099500D01*
X144307311Y-126099498D01*
X144305847Y-126098375D01*
X144304921Y-126097107D01*
X144301567Y-126093753D01*
X144302090Y-126093229D01*
X144264645Y-126041947D01*
X144260491Y-125972201D01*
X144294704Y-125911281D01*
X144305847Y-125901625D01*
X144307306Y-125900504D01*
X144307314Y-125900500D01*
X144400500Y-125807314D01*
X144466392Y-125693186D01*
X144500500Y-125565892D01*
X144500500Y-125434108D01*
X144466392Y-125306814D01*
X144400500Y-125192686D01*
X144307314Y-125099500D01*
X144307311Y-125099498D01*
X144305198Y-125097877D01*
X144303863Y-125096049D01*
X144301567Y-125093753D01*
X144301925Y-125093394D01*
X144263994Y-125041449D01*
X144259839Y-124971703D01*
X144294050Y-124910783D01*
X144355767Y-124878029D01*
X144380683Y-124875500D01*
X147619317Y-124875500D01*
X147686356Y-124895185D01*
X147732111Y-124947989D01*
X147742055Y-125017147D01*
X147713030Y-125080703D01*
X147694802Y-125097877D01*
X147692683Y-125099502D01*
X147599502Y-125192683D01*
X147599500Y-125192686D01*
X147533608Y-125306812D01*
X147499500Y-125434108D01*
X147499500Y-125565891D01*
X147533608Y-125693187D01*
X147547005Y-125716391D01*
X147599500Y-125807314D01*
X147599502Y-125807316D01*
X147692687Y-125900501D01*
X147694158Y-125901630D01*
X147695083Y-125902897D01*
X147698433Y-125906247D01*
X147697910Y-125906769D01*
X147735356Y-125958060D01*
X147739506Y-126027807D01*
X147705289Y-126088725D01*
X147694158Y-126098370D01*
X147692687Y-126099498D01*
X147599502Y-126192683D01*
X147599500Y-126192686D01*
X147533608Y-126306812D01*
X147499500Y-126434108D01*
X147499500Y-126565891D01*
X147533608Y-126693187D01*
X147547005Y-126716391D01*
X147599500Y-126807314D01*
X147692686Y-126900500D01*
X147806814Y-126966392D01*
X147934108Y-127000500D01*
X147934110Y-127000500D01*
X148065890Y-127000500D01*
X148065892Y-127000500D01*
X148193186Y-126966392D01*
X148307314Y-126900500D01*
X148400500Y-126807314D01*
X148400504Y-126807306D01*
X148401625Y-126805847D01*
X148402892Y-126804921D01*
X148406247Y-126801567D01*
X148406770Y-126802090D01*
X148458053Y-126764645D01*
X148527799Y-126760491D01*
X148588719Y-126794704D01*
X148598375Y-126805847D01*
X148599498Y-126807311D01*
X148599500Y-126807314D01*
X148692686Y-126900500D01*
X148806814Y-126966392D01*
X148934108Y-127000500D01*
X148934110Y-127000500D01*
X149065890Y-127000500D01*
X149065892Y-127000500D01*
X149193186Y-126966392D01*
X149307314Y-126900500D01*
X149400500Y-126807314D01*
X149400504Y-126807306D01*
X149401625Y-126805847D01*
X149402892Y-126804921D01*
X149406247Y-126801567D01*
X149406770Y-126802090D01*
X149458053Y-126764645D01*
X149527799Y-126760491D01*
X149588719Y-126794704D01*
X149598375Y-126805847D01*
X149599498Y-126807311D01*
X149599500Y-126807314D01*
X149692686Y-126900500D01*
X149806814Y-126966392D01*
X149934108Y-127000500D01*
X149934110Y-127000500D01*
X150065890Y-127000500D01*
X150065892Y-127000500D01*
X150193186Y-126966392D01*
X150307314Y-126900500D01*
X150400500Y-126807314D01*
X150466392Y-126693186D01*
X150500500Y-126565892D01*
X150500500Y-126434108D01*
X150466392Y-126306814D01*
X150400500Y-126192686D01*
X150307314Y-126099500D01*
X150307311Y-126099498D01*
X150305847Y-126098375D01*
X150304921Y-126097107D01*
X150301567Y-126093753D01*
X150302090Y-126093229D01*
X150264645Y-126041947D01*
X150260491Y-125972201D01*
X150294704Y-125911281D01*
X150305847Y-125901625D01*
X150307306Y-125900504D01*
X150307314Y-125900500D01*
X150400500Y-125807314D01*
X150466392Y-125693186D01*
X150500500Y-125565892D01*
X150500500Y-125434108D01*
X153499500Y-125434108D01*
X153499500Y-125565891D01*
X153533608Y-125693187D01*
X153547005Y-125716391D01*
X153599500Y-125807314D01*
X153599502Y-125807316D01*
X153692687Y-125900501D01*
X153694158Y-125901630D01*
X153695083Y-125902897D01*
X153698433Y-125906247D01*
X153697910Y-125906769D01*
X153735356Y-125958060D01*
X153739506Y-126027807D01*
X153705289Y-126088725D01*
X153694158Y-126098370D01*
X153692687Y-126099498D01*
X153599502Y-126192683D01*
X153599500Y-126192686D01*
X153533608Y-126306812D01*
X153499500Y-126434108D01*
X153499500Y-126565891D01*
X153533608Y-126693187D01*
X153547005Y-126716391D01*
X153599500Y-126807314D01*
X153692686Y-126900500D01*
X153806814Y-126966392D01*
X153934108Y-127000500D01*
X153934110Y-127000500D01*
X154065890Y-127000500D01*
X154065892Y-127000500D01*
X154193186Y-126966392D01*
X154307314Y-126900500D01*
X154400500Y-126807314D01*
X154400504Y-126807306D01*
X154401625Y-126805847D01*
X154402892Y-126804921D01*
X154406247Y-126801567D01*
X154406770Y-126802090D01*
X154458053Y-126764645D01*
X154527799Y-126760491D01*
X154588719Y-126794704D01*
X154598375Y-126805847D01*
X154599498Y-126807311D01*
X154599500Y-126807314D01*
X154692686Y-126900500D01*
X154806814Y-126966392D01*
X154934108Y-127000500D01*
X154934110Y-127000500D01*
X155065890Y-127000500D01*
X155065892Y-127000500D01*
X155193186Y-126966392D01*
X155307314Y-126900500D01*
X155400500Y-126807314D01*
X155400504Y-126807306D01*
X155401625Y-126805847D01*
X155402892Y-126804921D01*
X155406247Y-126801567D01*
X155406770Y-126802090D01*
X155458053Y-126764645D01*
X155527799Y-126760491D01*
X155588719Y-126794704D01*
X155598375Y-126805847D01*
X155599498Y-126807311D01*
X155599500Y-126807314D01*
X155692686Y-126900500D01*
X155806814Y-126966392D01*
X155934108Y-127000500D01*
X155934110Y-127000500D01*
X156065890Y-127000500D01*
X156065892Y-127000500D01*
X156193186Y-126966392D01*
X156307314Y-126900500D01*
X156400500Y-126807314D01*
X156466392Y-126693186D01*
X156500500Y-126565892D01*
X156500500Y-126434108D01*
X156466392Y-126306814D01*
X156400500Y-126192686D01*
X156307314Y-126099500D01*
X156307311Y-126099498D01*
X156305847Y-126098375D01*
X156304921Y-126097107D01*
X156301567Y-126093753D01*
X156302090Y-126093229D01*
X156264645Y-126041947D01*
X156260491Y-125972201D01*
X156294704Y-125911281D01*
X156305847Y-125901625D01*
X156307306Y-125900504D01*
X156307314Y-125900500D01*
X156400500Y-125807314D01*
X156466392Y-125693186D01*
X156500500Y-125565892D01*
X156500500Y-125434108D01*
X156466392Y-125306814D01*
X156400500Y-125192686D01*
X156307314Y-125099500D01*
X156249100Y-125065890D01*
X156193187Y-125033608D01*
X156129539Y-125016554D01*
X156065892Y-124999500D01*
X155934108Y-124999500D01*
X155806812Y-125033608D01*
X155692686Y-125099500D01*
X155692683Y-125099502D01*
X155599498Y-125192687D01*
X155598370Y-125194158D01*
X155597102Y-125195083D01*
X155593753Y-125198433D01*
X155593230Y-125197910D01*
X155541940Y-125235356D01*
X155472193Y-125239506D01*
X155411275Y-125205289D01*
X155401630Y-125194158D01*
X155400501Y-125192687D01*
X155307316Y-125099502D01*
X155307314Y-125099500D01*
X155249100Y-125065890D01*
X155193187Y-125033608D01*
X155129539Y-125016554D01*
X155065892Y-124999500D01*
X154934108Y-124999500D01*
X154806812Y-125033608D01*
X154692686Y-125099500D01*
X154692683Y-125099502D01*
X154599498Y-125192687D01*
X154598370Y-125194158D01*
X154597102Y-125195083D01*
X154593753Y-125198433D01*
X154593230Y-125197910D01*
X154541940Y-125235356D01*
X154472193Y-125239506D01*
X154411275Y-125205289D01*
X154401630Y-125194158D01*
X154400501Y-125192687D01*
X154307316Y-125099502D01*
X154307314Y-125099500D01*
X154249100Y-125065890D01*
X154193187Y-125033608D01*
X154129539Y-125016554D01*
X154065892Y-124999500D01*
X153934108Y-124999500D01*
X153806812Y-125033608D01*
X153692686Y-125099500D01*
X153692683Y-125099502D01*
X153599502Y-125192683D01*
X153599500Y-125192686D01*
X153533608Y-125306812D01*
X153499500Y-125434108D01*
X150500500Y-125434108D01*
X150466392Y-125306814D01*
X150400500Y-125192686D01*
X150307314Y-125099500D01*
X150307311Y-125099498D01*
X150305198Y-125097877D01*
X150303863Y-125096049D01*
X150301567Y-125093753D01*
X150301925Y-125093394D01*
X150263994Y-125041449D01*
X150259839Y-124971703D01*
X150294050Y-124910783D01*
X150355767Y-124878029D01*
X150380683Y-124875500D01*
X152299435Y-124875500D01*
X152299436Y-124875500D01*
X152347186Y-124862705D01*
X152394938Y-124849910D01*
X152480562Y-124800475D01*
X152550475Y-124730562D01*
X154096929Y-123184108D01*
X174239500Y-123184108D01*
X174239500Y-123315892D01*
X174246094Y-123340500D01*
X174273608Y-123443187D01*
X174306121Y-123499500D01*
X174339500Y-123557314D01*
X174432686Y-123650500D01*
X174546814Y-123716392D01*
X174674108Y-123750500D01*
X174674110Y-123750500D01*
X174805890Y-123750500D01*
X174805892Y-123750500D01*
X174933186Y-123716392D01*
X175047314Y-123650500D01*
X175140500Y-123557314D01*
X175206392Y-123443186D01*
X175240500Y-123315892D01*
X175240500Y-123184108D01*
X175206392Y-123056814D01*
X175202730Y-123050472D01*
X175192115Y-123032086D01*
X175140500Y-122942686D01*
X175047314Y-122849500D01*
X174990250Y-122816554D01*
X174933187Y-122783608D01*
X174868923Y-122766389D01*
X174805892Y-122749500D01*
X174674108Y-122749500D01*
X174546812Y-122783608D01*
X174432686Y-122849500D01*
X174432683Y-122849502D01*
X174339502Y-122942683D01*
X174339500Y-122942686D01*
X174273608Y-123056812D01*
X174258632Y-123112704D01*
X174239500Y-123184108D01*
X154096929Y-123184108D01*
X154927118Y-122353919D01*
X184353184Y-122353919D01*
X184424197Y-122390102D01*
X184648752Y-122463065D01*
X184648751Y-122463065D01*
X184881948Y-122500000D01*
X185118052Y-122500000D01*
X185351247Y-122463065D01*
X185575797Y-122390104D01*
X185646814Y-122353919D01*
X185000001Y-121707106D01*
X185000000Y-121707106D01*
X184353184Y-122353919D01*
X154927118Y-122353919D01*
X155644218Y-121636819D01*
X155705541Y-121603334D01*
X155731899Y-121600500D01*
X156523013Y-121600500D01*
X156590052Y-121620185D01*
X156597266Y-121625257D01*
X156597684Y-121625498D01*
X156597686Y-121625500D01*
X156711814Y-121691392D01*
X156839108Y-121725500D01*
X156839110Y-121725500D01*
X156970890Y-121725500D01*
X156970892Y-121725500D01*
X157098186Y-121691392D01*
X157212314Y-121625500D01*
X157305500Y-121532314D01*
X157371392Y-121418186D01*
X157405500Y-121290892D01*
X157405500Y-121159108D01*
X157371392Y-121031814D01*
X157305500Y-120917686D01*
X157269761Y-120881947D01*
X183500000Y-120881947D01*
X183500000Y-121118052D01*
X183536934Y-121351247D01*
X183609898Y-121575805D01*
X183646078Y-121646813D01*
X183646079Y-121646814D01*
X184292894Y-121000000D01*
X184227068Y-120934174D01*
X184500000Y-120934174D01*
X184500000Y-121065826D01*
X184534075Y-121192993D01*
X184599901Y-121307007D01*
X184692993Y-121400099D01*
X184807007Y-121465925D01*
X184934174Y-121500000D01*
X185065826Y-121500000D01*
X185192993Y-121465925D01*
X185307007Y-121400099D01*
X185400099Y-121307007D01*
X185465925Y-121192993D01*
X185500000Y-121065826D01*
X185500000Y-120999999D01*
X185707106Y-120999999D01*
X185707106Y-121000000D01*
X186353919Y-121646814D01*
X186390104Y-121575797D01*
X186463065Y-121351247D01*
X186500000Y-121118052D01*
X186500000Y-120881947D01*
X186463065Y-120648752D01*
X186390102Y-120424197D01*
X186353919Y-120353184D01*
X185707106Y-120999999D01*
X185500000Y-120999999D01*
X185500000Y-120934174D01*
X185465925Y-120807007D01*
X185400099Y-120692993D01*
X185307007Y-120599901D01*
X185192993Y-120534075D01*
X185065826Y-120500000D01*
X184934174Y-120500000D01*
X184807007Y-120534075D01*
X184692993Y-120599901D01*
X184599901Y-120692993D01*
X184534075Y-120807007D01*
X184500000Y-120934174D01*
X184227068Y-120934174D01*
X183646078Y-120353184D01*
X183609894Y-120424202D01*
X183609894Y-120424203D01*
X183536934Y-120648751D01*
X183500000Y-120881947D01*
X157269761Y-120881947D01*
X157212314Y-120824500D01*
X157141487Y-120783608D01*
X157098187Y-120758608D01*
X157034539Y-120741554D01*
X156970892Y-120724500D01*
X156839108Y-120724500D01*
X156711812Y-120758608D01*
X156632006Y-120804684D01*
X156597686Y-120824500D01*
X156597684Y-120824501D01*
X156590648Y-120828564D01*
X156589868Y-120827213D01*
X156533329Y-120849070D01*
X156523013Y-120849500D01*
X155574436Y-120849500D01*
X155475564Y-120849500D01*
X155467007Y-120851793D01*
X155380060Y-120875090D01*
X155380059Y-120875091D01*
X155294436Y-120924526D01*
X152130782Y-124088181D01*
X152069459Y-124121666D01*
X152043101Y-124124500D01*
X140700564Y-124124500D01*
X140605061Y-124150089D01*
X140519438Y-124199525D01*
X140519435Y-124199527D01*
X139754587Y-124964375D01*
X139693264Y-124997860D01*
X139684574Y-124999375D01*
X139556812Y-125033608D01*
X139442686Y-125099500D01*
X139442683Y-125099502D01*
X139349502Y-125192683D01*
X139349500Y-125192686D01*
X139283608Y-125306812D01*
X139249500Y-125434108D01*
X126141922Y-125434108D01*
X126057314Y-125349500D01*
X125999100Y-125315890D01*
X125943187Y-125283608D01*
X125879539Y-125266554D01*
X125815892Y-125249500D01*
X125684108Y-125249500D01*
X125556812Y-125283608D01*
X125442686Y-125349500D01*
X125442683Y-125349502D01*
X125349502Y-125442683D01*
X125349500Y-125442686D01*
X125283608Y-125556812D01*
X125249500Y-125684108D01*
X118999103Y-125684108D01*
X119057314Y-125650500D01*
X119150500Y-125557314D01*
X119216392Y-125443186D01*
X119250500Y-125315892D01*
X119250500Y-125184108D01*
X119216392Y-125056814D01*
X119150500Y-124942686D01*
X119057314Y-124849500D01*
X118996945Y-124814646D01*
X118943187Y-124783608D01*
X118879539Y-124766554D01*
X118815892Y-124749500D01*
X118684108Y-124749500D01*
X118556812Y-124783608D01*
X118442686Y-124849500D01*
X118442683Y-124849502D01*
X118349502Y-124942683D01*
X118349500Y-124942686D01*
X118283608Y-125056812D01*
X118249500Y-125184108D01*
X117524103Y-125184108D01*
X117582314Y-125150500D01*
X117675500Y-125057314D01*
X117741392Y-124943186D01*
X117775500Y-124815892D01*
X117775500Y-124684108D01*
X117741392Y-124556814D01*
X117688784Y-124465695D01*
X127031087Y-124465695D01*
X127031087Y-124597478D01*
X127065195Y-124724774D01*
X127068537Y-124730562D01*
X127131087Y-124838901D01*
X127224273Y-124932087D01*
X127338401Y-124997979D01*
X127465695Y-125032087D01*
X127465697Y-125032087D01*
X127597477Y-125032087D01*
X127597479Y-125032087D01*
X127724773Y-124997979D01*
X127838901Y-124932087D01*
X127932087Y-124838901D01*
X127997979Y-124724773D01*
X128032087Y-124597479D01*
X128032087Y-124465695D01*
X127997979Y-124338401D01*
X127932087Y-124224273D01*
X127838901Y-124131087D01*
X127764586Y-124088181D01*
X127724774Y-124065195D01*
X127688023Y-124055348D01*
X127597479Y-124031087D01*
X127465695Y-124031087D01*
X127338399Y-124065195D01*
X127224273Y-124131087D01*
X127224270Y-124131089D01*
X127131089Y-124224270D01*
X127131087Y-124224273D01*
X127065195Y-124338399D01*
X127031087Y-124465695D01*
X117688784Y-124465695D01*
X117675500Y-124442686D01*
X117582314Y-124349500D01*
X117525250Y-124316554D01*
X117468187Y-124283608D01*
X117404539Y-124266554D01*
X117340892Y-124249500D01*
X117209108Y-124249500D01*
X117081812Y-124283608D01*
X116967686Y-124349500D01*
X116967683Y-124349502D01*
X116874502Y-124442683D01*
X116874500Y-124442686D01*
X116808608Y-124556812D01*
X116797712Y-124597477D01*
X116774500Y-124684108D01*
X112048670Y-124684108D01*
X112069524Y-124655405D01*
X112076414Y-124641881D01*
X112087725Y-124619685D01*
X112087725Y-124619684D01*
X112158881Y-124480032D01*
X112158881Y-124480028D01*
X112158884Y-124480025D01*
X112219709Y-124292826D01*
X112234486Y-124199527D01*
X112250500Y-124098422D01*
X112250500Y-123901577D01*
X112226571Y-123750499D01*
X112219709Y-123707174D01*
X112212214Y-123684108D01*
X125249500Y-123684108D01*
X125249500Y-123815891D01*
X125283608Y-123943187D01*
X125316121Y-123999500D01*
X125349500Y-124057314D01*
X125442686Y-124150500D01*
X125556814Y-124216392D01*
X125684108Y-124250500D01*
X125684110Y-124250500D01*
X125815890Y-124250500D01*
X125815892Y-124250500D01*
X125943186Y-124216392D01*
X126057314Y-124150500D01*
X126150500Y-124057314D01*
X126216392Y-123943186D01*
X126218824Y-123934108D01*
X132499500Y-123934108D01*
X132499500Y-124065891D01*
X132533608Y-124193187D01*
X132547005Y-124216391D01*
X132599500Y-124307314D01*
X132692686Y-124400500D01*
X132806814Y-124466392D01*
X132934108Y-124500500D01*
X132934110Y-124500500D01*
X133065890Y-124500500D01*
X133065892Y-124500500D01*
X133193186Y-124466392D01*
X133249103Y-124434108D01*
X137009500Y-124434108D01*
X137009500Y-124565891D01*
X137043608Y-124693187D01*
X137061845Y-124724773D01*
X137109500Y-124807314D01*
X137202686Y-124900500D01*
X137316814Y-124966392D01*
X137444108Y-125000500D01*
X137444110Y-125000500D01*
X137575890Y-125000500D01*
X137575892Y-125000500D01*
X137703186Y-124966392D01*
X137817314Y-124900500D01*
X137910500Y-124807314D01*
X137976392Y-124693186D01*
X138010500Y-124565892D01*
X138010500Y-124434108D01*
X137976392Y-124306814D01*
X137910500Y-124192686D01*
X137817314Y-124099500D01*
X137757896Y-124065195D01*
X137703187Y-124033608D01*
X137639539Y-124016554D01*
X137575892Y-123999500D01*
X137444108Y-123999500D01*
X137316812Y-124033608D01*
X137202686Y-124099500D01*
X137202683Y-124099502D01*
X137109502Y-124192683D01*
X137109500Y-124192686D01*
X137043608Y-124306812D01*
X137009500Y-124434108D01*
X133249103Y-124434108D01*
X133307314Y-124400500D01*
X133400500Y-124307314D01*
X133466392Y-124193186D01*
X133500500Y-124065892D01*
X133500500Y-123934108D01*
X133466392Y-123806814D01*
X133400500Y-123692686D01*
X133307314Y-123599500D01*
X133250250Y-123566554D01*
X133193187Y-123533608D01*
X133129539Y-123516554D01*
X133065892Y-123499500D01*
X132934108Y-123499500D01*
X132806812Y-123533608D01*
X132692686Y-123599500D01*
X132692683Y-123599502D01*
X132599502Y-123692683D01*
X132599500Y-123692686D01*
X132533608Y-123806812D01*
X132499500Y-123934108D01*
X126218824Y-123934108D01*
X126250500Y-123815892D01*
X126250500Y-123684108D01*
X126216392Y-123556814D01*
X126150500Y-123442686D01*
X126057314Y-123349500D01*
X125982649Y-123306392D01*
X125943187Y-123283608D01*
X125879539Y-123266554D01*
X125815892Y-123249500D01*
X125684108Y-123249500D01*
X125556812Y-123283608D01*
X125442686Y-123349500D01*
X125442683Y-123349502D01*
X125349502Y-123442683D01*
X125349500Y-123442686D01*
X125283608Y-123556812D01*
X125249500Y-123684108D01*
X112212214Y-123684108D01*
X112170853Y-123556812D01*
X112158884Y-123519975D01*
X112158882Y-123519972D01*
X112158882Y-123519970D01*
X112069523Y-123344594D01*
X111953828Y-123185354D01*
X111814646Y-123046172D01*
X111655405Y-122930476D01*
X111549404Y-122876466D01*
X111480029Y-122841117D01*
X111292826Y-122780290D01*
X111253794Y-122774108D01*
X115999500Y-122774108D01*
X115999500Y-122905891D01*
X116033608Y-123033187D01*
X116065428Y-123088300D01*
X116099500Y-123147314D01*
X116192686Y-123240500D01*
X116306814Y-123306392D01*
X116434108Y-123340500D01*
X116434110Y-123340500D01*
X116565890Y-123340500D01*
X116565892Y-123340500D01*
X116693186Y-123306392D01*
X116807314Y-123240500D01*
X116900500Y-123147314D01*
X116966392Y-123033186D01*
X117000500Y-122905892D01*
X117000500Y-122774108D01*
X116966392Y-122646814D01*
X116900500Y-122532686D01*
X116807314Y-122439500D01*
X116721758Y-122390104D01*
X116693187Y-122373608D01*
X116651062Y-122362321D01*
X116565892Y-122339500D01*
X116434108Y-122339500D01*
X116306812Y-122373608D01*
X116192686Y-122439500D01*
X116192683Y-122439502D01*
X116099502Y-122532683D01*
X116099500Y-122532686D01*
X116033608Y-122646812D01*
X115999500Y-122774108D01*
X111253794Y-122774108D01*
X111098422Y-122749500D01*
X111098417Y-122749500D01*
X110901583Y-122749500D01*
X110901578Y-122749500D01*
X110707173Y-122780290D01*
X110519970Y-122841117D01*
X110344594Y-122930476D01*
X110327789Y-122942686D01*
X110185354Y-123046172D01*
X110185352Y-123046174D01*
X110185351Y-123046174D01*
X110046174Y-123185351D01*
X110046174Y-123185352D01*
X110046172Y-123185354D01*
X110006108Y-123240497D01*
X109930476Y-123344594D01*
X109841117Y-123519970D01*
X109780290Y-123707173D01*
X109749500Y-123901577D01*
X97327541Y-123901577D01*
X97350500Y-123815892D01*
X97350500Y-123684108D01*
X97316392Y-123556814D01*
X97250500Y-123442686D01*
X97157314Y-123349500D01*
X97082649Y-123306392D01*
X97043187Y-123283608D01*
X96979539Y-123266554D01*
X96915892Y-123249500D01*
X96784108Y-123249500D01*
X96656812Y-123283608D01*
X96542686Y-123349500D01*
X96542683Y-123349502D01*
X96449502Y-123442683D01*
X96449500Y-123442686D01*
X96383608Y-123556812D01*
X96349500Y-123684108D01*
X90250500Y-123684108D01*
X90250500Y-122234106D01*
X121624500Y-122234106D01*
X121624500Y-122365889D01*
X121658608Y-122493185D01*
X121691554Y-122550248D01*
X121724500Y-122607312D01*
X121817686Y-122700498D01*
X121931814Y-122766390D01*
X122059108Y-122800498D01*
X122059110Y-122800498D01*
X122190890Y-122800498D01*
X122190892Y-122800498D01*
X122318186Y-122766390D01*
X122432314Y-122700498D01*
X122525500Y-122607312D01*
X122591392Y-122493184D01*
X122598758Y-122465695D01*
X127031087Y-122465695D01*
X127031087Y-122597479D01*
X127033722Y-122607312D01*
X127065195Y-122724774D01*
X127093679Y-122774108D01*
X127131087Y-122838901D01*
X127224273Y-122932087D01*
X127338401Y-122997979D01*
X127465695Y-123032087D01*
X127465697Y-123032087D01*
X127597477Y-123032087D01*
X127597479Y-123032087D01*
X127724773Y-122997979D01*
X127838901Y-122932087D01*
X127932087Y-122838901D01*
X127997979Y-122724773D01*
X128032087Y-122597479D01*
X128032087Y-122465695D01*
X127997979Y-122338401D01*
X127932087Y-122224273D01*
X127838901Y-122131087D01*
X127781837Y-122098141D01*
X127724774Y-122065195D01*
X127661126Y-122048141D01*
X127597479Y-122031087D01*
X127465695Y-122031087D01*
X127338399Y-122065195D01*
X127224273Y-122131087D01*
X127224270Y-122131089D01*
X127131089Y-122224270D01*
X127131087Y-122224273D01*
X127065195Y-122338399D01*
X127055761Y-122373608D01*
X127031087Y-122465695D01*
X122598758Y-122465695D01*
X122625500Y-122365890D01*
X122625500Y-122234106D01*
X122591392Y-122106812D01*
X122525500Y-121992684D01*
X122432314Y-121899498D01*
X122375250Y-121866552D01*
X122318187Y-121833606D01*
X122252068Y-121815890D01*
X122190892Y-121799498D01*
X122059108Y-121799498D01*
X121931812Y-121833606D01*
X121817686Y-121899498D01*
X121817683Y-121899500D01*
X121724502Y-121992681D01*
X121724500Y-121992684D01*
X121658608Y-122106810D01*
X121624500Y-122234106D01*
X90250500Y-122234106D01*
X90250500Y-121684108D01*
X125249500Y-121684108D01*
X125249500Y-121815892D01*
X125266554Y-121879539D01*
X125283608Y-121943187D01*
X125312184Y-121992681D01*
X125349500Y-122057314D01*
X125442686Y-122150500D01*
X125556814Y-122216392D01*
X125684108Y-122250500D01*
X125684110Y-122250500D01*
X125815890Y-122250500D01*
X125815892Y-122250500D01*
X125943186Y-122216392D01*
X126057314Y-122150500D01*
X126150500Y-122057314D01*
X126216392Y-121943186D01*
X126250500Y-121815892D01*
X126250500Y-121684108D01*
X126216392Y-121556814D01*
X126150500Y-121442686D01*
X126057314Y-121349500D01*
X125955802Y-121290892D01*
X125943188Y-121283609D01*
X125943187Y-121283608D01*
X125943186Y-121283608D01*
X125815892Y-121249500D01*
X125684108Y-121249500D01*
X125556812Y-121283608D01*
X125442686Y-121349500D01*
X125442683Y-121349502D01*
X125349502Y-121442683D01*
X125349500Y-121442686D01*
X125283608Y-121556812D01*
X125265204Y-121625499D01*
X125249500Y-121684108D01*
X90250500Y-121684108D01*
X90250500Y-121184108D01*
X139249500Y-121184108D01*
X139249500Y-121315891D01*
X139283608Y-121443187D01*
X139290753Y-121455562D01*
X139349500Y-121557314D01*
X139442686Y-121650500D01*
X139556814Y-121716392D01*
X139684108Y-121750500D01*
X139684109Y-121750500D01*
X139691958Y-121752603D01*
X139691554Y-121754109D01*
X139746988Y-121778633D01*
X139754587Y-121785624D01*
X140949525Y-122980562D01*
X141019438Y-123050475D01*
X141084953Y-123088300D01*
X141105062Y-123099910D01*
X141152811Y-123112705D01*
X141152812Y-123112705D01*
X141162903Y-123115408D01*
X141200564Y-123125500D01*
X141200565Y-123125500D01*
X141200566Y-123125500D01*
X149429435Y-123125500D01*
X149429436Y-123125500D01*
X149477186Y-123112705D01*
X149524938Y-123099910D01*
X149610562Y-123050475D01*
X149680475Y-122980562D01*
X149680474Y-122980562D01*
X149739043Y-122921993D01*
X150900417Y-121760620D01*
X150961736Y-121727138D01*
X150970429Y-121725623D01*
X150970888Y-121725500D01*
X150970892Y-121725500D01*
X151098186Y-121691392D01*
X151212314Y-121625500D01*
X151305500Y-121532314D01*
X151371392Y-121418186D01*
X151405500Y-121290892D01*
X151405500Y-121159108D01*
X151371392Y-121031814D01*
X151305500Y-120917686D01*
X151212314Y-120824500D01*
X151141487Y-120783608D01*
X151098187Y-120758608D01*
X151034539Y-120741554D01*
X150970892Y-120724500D01*
X150839108Y-120724500D01*
X150711812Y-120758608D01*
X150597686Y-120824500D01*
X150597683Y-120824502D01*
X150504502Y-120917683D01*
X150504500Y-120917686D01*
X150438608Y-121031812D01*
X150402397Y-121166958D01*
X150400890Y-121166554D01*
X150376364Y-121221990D01*
X150369376Y-121229585D01*
X149260782Y-122338181D01*
X149199459Y-122371666D01*
X149173101Y-122374500D01*
X141456899Y-122374500D01*
X141389860Y-122354815D01*
X141369218Y-122338181D01*
X140285624Y-121254587D01*
X140252139Y-121193264D01*
X140250624Y-121184572D01*
X140250500Y-121184108D01*
X140216392Y-121056814D01*
X140150500Y-120942686D01*
X140057314Y-120849500D01*
X139983714Y-120807007D01*
X139943187Y-120783608D01*
X139879539Y-120766554D01*
X139815892Y-120749500D01*
X139684108Y-120749500D01*
X139556812Y-120783608D01*
X139442686Y-120849500D01*
X139442683Y-120849502D01*
X139349502Y-120942683D01*
X139349500Y-120942686D01*
X139283608Y-121056812D01*
X139249500Y-121184108D01*
X90250500Y-121184108D01*
X90250500Y-119434108D01*
X125249500Y-119434108D01*
X125249500Y-119565892D01*
X125258639Y-119600000D01*
X125283608Y-119693187D01*
X125316121Y-119749500D01*
X125349500Y-119807314D01*
X125442686Y-119900500D01*
X125556814Y-119966392D01*
X125684108Y-120000500D01*
X125684110Y-120000500D01*
X125815890Y-120000500D01*
X125815892Y-120000500D01*
X125943186Y-119966392D01*
X126057314Y-119900500D01*
X126150500Y-119807314D01*
X126216392Y-119693186D01*
X126218824Y-119684108D01*
X132499500Y-119684108D01*
X132499500Y-119815891D01*
X132533608Y-119943187D01*
X132547005Y-119966391D01*
X132599500Y-120057314D01*
X132692686Y-120150500D01*
X132806814Y-120216392D01*
X132934108Y-120250500D01*
X132934110Y-120250500D01*
X133065890Y-120250500D01*
X133065892Y-120250500D01*
X133193186Y-120216392D01*
X133249103Y-120184108D01*
X137009500Y-120184108D01*
X137009500Y-120315891D01*
X137043608Y-120443187D01*
X137076410Y-120500000D01*
X137109500Y-120557314D01*
X137202686Y-120650500D01*
X137316814Y-120716392D01*
X137444108Y-120750500D01*
X137444110Y-120750500D01*
X137575890Y-120750500D01*
X137575892Y-120750500D01*
X137703186Y-120716392D01*
X137817314Y-120650500D01*
X137910500Y-120557314D01*
X137976392Y-120443186D01*
X138010500Y-120315892D01*
X138010500Y-120184108D01*
X137976392Y-120056814D01*
X137910500Y-119942686D01*
X137817314Y-119849500D01*
X137759100Y-119815890D01*
X137703187Y-119783608D01*
X137639539Y-119766554D01*
X137575892Y-119749500D01*
X137444108Y-119749500D01*
X137316812Y-119783608D01*
X137202686Y-119849500D01*
X137202683Y-119849502D01*
X137109502Y-119942683D01*
X137109500Y-119942686D01*
X137043608Y-120056812D01*
X137009500Y-120184108D01*
X133249103Y-120184108D01*
X133307314Y-120150500D01*
X133400500Y-120057314D01*
X133466392Y-119943186D01*
X133500500Y-119815892D01*
X133500500Y-119684108D01*
X133466392Y-119556814D01*
X133400500Y-119442686D01*
X133307314Y-119349500D01*
X133233380Y-119306814D01*
X133193187Y-119283608D01*
X133129539Y-119266554D01*
X133065892Y-119249500D01*
X132934108Y-119249500D01*
X132806812Y-119283608D01*
X132692686Y-119349500D01*
X132692683Y-119349502D01*
X132599502Y-119442683D01*
X132599500Y-119442686D01*
X132533608Y-119556812D01*
X132499500Y-119684108D01*
X126218824Y-119684108D01*
X126250500Y-119565892D01*
X126250500Y-119434108D01*
X126216392Y-119306814D01*
X126150500Y-119192686D01*
X126057314Y-119099500D01*
X125981783Y-119055892D01*
X125943187Y-119033608D01*
X125879539Y-119016554D01*
X125815892Y-118999500D01*
X125684108Y-118999500D01*
X125556812Y-119033608D01*
X125442686Y-119099500D01*
X125442683Y-119099502D01*
X125349502Y-119192683D01*
X125349500Y-119192686D01*
X125283608Y-119306812D01*
X125249500Y-119434108D01*
X90250500Y-119434108D01*
X90250500Y-117207844D01*
X93650000Y-117207844D01*
X93656401Y-117267372D01*
X93656403Y-117267379D01*
X93706645Y-117402086D01*
X93706649Y-117402093D01*
X93792809Y-117517187D01*
X93792812Y-117517190D01*
X93907906Y-117603350D01*
X93907913Y-117603354D01*
X94042620Y-117653596D01*
X94042627Y-117653598D01*
X94102155Y-117659999D01*
X94102172Y-117660000D01*
X94500000Y-117660000D01*
X95500000Y-117660000D01*
X95897828Y-117660000D01*
X95897844Y-117659999D01*
X95957372Y-117653598D01*
X95957379Y-117653596D01*
X96092086Y-117603354D01*
X96092093Y-117603350D01*
X96207187Y-117517190D01*
X96207190Y-117517187D01*
X96293350Y-117402093D01*
X96293354Y-117402086D01*
X96343596Y-117267379D01*
X96343598Y-117267372D01*
X96349999Y-117207844D01*
X96350000Y-117207827D01*
X96350000Y-116810000D01*
X95500000Y-116810000D01*
X95500000Y-117660000D01*
X94500000Y-117660000D01*
X94500000Y-116810000D01*
X93650000Y-116810000D01*
X93650000Y-117207844D01*
X90250500Y-117207844D01*
X90250500Y-115412155D01*
X93650000Y-115412155D01*
X93650000Y-115810000D01*
X94934174Y-115810000D01*
X94807007Y-115844075D01*
X94692993Y-115909901D01*
X94599901Y-116002993D01*
X94534075Y-116117007D01*
X94500000Y-116244174D01*
X94500000Y-116375826D01*
X94534075Y-116502993D01*
X94599901Y-116617007D01*
X94692993Y-116710099D01*
X94807007Y-116775925D01*
X94934174Y-116810000D01*
X95065826Y-116810000D01*
X95192993Y-116775925D01*
X95307007Y-116710099D01*
X95400099Y-116617007D01*
X95465925Y-116502993D01*
X95500000Y-116375826D01*
X95500000Y-116244174D01*
X95465925Y-116117007D01*
X95400099Y-116002993D01*
X95307007Y-115909901D01*
X95192993Y-115844075D01*
X95065826Y-115810000D01*
X96350000Y-115810000D01*
X96350000Y-115412172D01*
X96349999Y-115412155D01*
X96343598Y-115352627D01*
X96343596Y-115352620D01*
X96293354Y-115217913D01*
X96293350Y-115217906D01*
X96207190Y-115102812D01*
X96207187Y-115102809D01*
X96092093Y-115016649D01*
X96092086Y-115016645D01*
X95957379Y-114966403D01*
X95957372Y-114966401D01*
X95897844Y-114960000D01*
X95605051Y-114960000D01*
X95538012Y-114940315D01*
X95492257Y-114887511D01*
X95482313Y-114818353D01*
X95511338Y-114754797D01*
X95548756Y-114725515D01*
X95551471Y-114724131D01*
X95576788Y-114711232D01*
X95716928Y-114609414D01*
X95839414Y-114486928D01*
X95941232Y-114346788D01*
X96019873Y-114192445D01*
X96073402Y-114027701D01*
X96100500Y-113856611D01*
X96100500Y-113683389D01*
X96073402Y-113512299D01*
X96047996Y-113434108D01*
X98999500Y-113434108D01*
X98999500Y-113565891D01*
X99033608Y-113693187D01*
X99067959Y-113752684D01*
X99099500Y-113807314D01*
X99099501Y-113807315D01*
X99103564Y-113814352D01*
X99102211Y-113815133D01*
X99124069Y-113871660D01*
X99124500Y-113881986D01*
X99124500Y-115049436D01*
X99137277Y-115097123D01*
X99137291Y-115097173D01*
X99137295Y-115097186D01*
X99150090Y-115144938D01*
X99199525Y-115230562D01*
X99199526Y-115230563D01*
X101519438Y-117550475D01*
X101605063Y-117599911D01*
X101700564Y-117625500D01*
X101700565Y-117625500D01*
X123118013Y-117625500D01*
X123185052Y-117645185D01*
X123192266Y-117650257D01*
X123192684Y-117650498D01*
X123192686Y-117650500D01*
X123306814Y-117716392D01*
X123434108Y-117750500D01*
X123434110Y-117750500D01*
X123565890Y-117750500D01*
X123565892Y-117750500D01*
X123693186Y-117716392D01*
X123807314Y-117650500D01*
X123900500Y-117557314D01*
X123966392Y-117443186D01*
X124000500Y-117315892D01*
X124000500Y-117184108D01*
X123966392Y-117056814D01*
X123900500Y-116942686D01*
X123891922Y-116934108D01*
X139249500Y-116934108D01*
X139249500Y-117065891D01*
X139283608Y-117193187D01*
X139302538Y-117225974D01*
X139349500Y-117307314D01*
X139442686Y-117400500D01*
X139556814Y-117466392D01*
X139684108Y-117500500D01*
X139684109Y-117500500D01*
X139691958Y-117502603D01*
X139691554Y-117504109D01*
X139746988Y-117528633D01*
X139754587Y-117535624D01*
X143674525Y-121455562D01*
X143744438Y-121525475D01*
X143830062Y-121574910D01*
X143877811Y-121587705D01*
X143877812Y-121587705D01*
X143887903Y-121590408D01*
X143925564Y-121600500D01*
X143925565Y-121600500D01*
X144523013Y-121600500D01*
X144590052Y-121620185D01*
X144597266Y-121625257D01*
X144597684Y-121625498D01*
X144597686Y-121625500D01*
X144711814Y-121691392D01*
X144839108Y-121725500D01*
X144839110Y-121725500D01*
X144970890Y-121725500D01*
X144970892Y-121725500D01*
X145098186Y-121691392D01*
X145212314Y-121625500D01*
X145305500Y-121532314D01*
X145371392Y-121418186D01*
X145405500Y-121290892D01*
X145405500Y-121159108D01*
X145371392Y-121031814D01*
X145305500Y-120917686D01*
X145212314Y-120824500D01*
X145141487Y-120783608D01*
X145098187Y-120758608D01*
X145034539Y-120741554D01*
X144970892Y-120724500D01*
X144839108Y-120724500D01*
X144711812Y-120758608D01*
X144632006Y-120804684D01*
X144597686Y-120824500D01*
X144597684Y-120824501D01*
X144590648Y-120828564D01*
X144589868Y-120827213D01*
X144533329Y-120849070D01*
X144523013Y-120849500D01*
X144181899Y-120849500D01*
X144114860Y-120829815D01*
X144094218Y-120813181D01*
X143408614Y-120127577D01*
X177175975Y-120127577D01*
X177281236Y-120171178D01*
X177281240Y-120171179D01*
X177426126Y-120199999D01*
X177426129Y-120200000D01*
X177573871Y-120200000D01*
X177573873Y-120199999D01*
X177718760Y-120171179D01*
X177718775Y-120171175D01*
X177824024Y-120127578D01*
X177824024Y-120127577D01*
X177500001Y-119803554D01*
X177500000Y-119803554D01*
X177175975Y-120127577D01*
X143408614Y-120127577D01*
X142657163Y-119376126D01*
X176750000Y-119376126D01*
X176750000Y-119523873D01*
X176778820Y-119668759D01*
X176778822Y-119668767D01*
X176822421Y-119774024D01*
X177146446Y-119450000D01*
X177146446Y-119449999D01*
X177116610Y-119420163D01*
X177350000Y-119420163D01*
X177350000Y-119479837D01*
X177372836Y-119534968D01*
X177415032Y-119577164D01*
X177470163Y-119600000D01*
X177529837Y-119600000D01*
X177584968Y-119577164D01*
X177627164Y-119534968D01*
X177650000Y-119479837D01*
X177650000Y-119449999D01*
X177853554Y-119449999D01*
X177853554Y-119450001D01*
X178177577Y-119774024D01*
X178177578Y-119774024D01*
X178221175Y-119668775D01*
X178221177Y-119668768D01*
X178221948Y-119664894D01*
X178221949Y-119664891D01*
X178225691Y-119646078D01*
X184353184Y-119646078D01*
X185000000Y-120292894D01*
X185000001Y-120292894D01*
X185646814Y-119646079D01*
X185646813Y-119646078D01*
X185575805Y-119609898D01*
X185351247Y-119536934D01*
X185351248Y-119536934D01*
X185118052Y-119500000D01*
X184881948Y-119500000D01*
X184648751Y-119536934D01*
X184424203Y-119609894D01*
X184424202Y-119609894D01*
X184353184Y-119646078D01*
X178225691Y-119646078D01*
X178249999Y-119523873D01*
X178250000Y-119523871D01*
X178250000Y-119376128D01*
X178249999Y-119376126D01*
X178221179Y-119231240D01*
X178221178Y-119231236D01*
X178177577Y-119125975D01*
X177853554Y-119449999D01*
X177650000Y-119449999D01*
X177650000Y-119420163D01*
X177627164Y-119365032D01*
X177584968Y-119322836D01*
X177529837Y-119300000D01*
X177470163Y-119300000D01*
X177415032Y-119322836D01*
X177372836Y-119365032D01*
X177350000Y-119420163D01*
X177116610Y-119420163D01*
X176822421Y-119125974D01*
X176822420Y-119125974D01*
X176778823Y-119231228D01*
X176778820Y-119231240D01*
X176750000Y-119376126D01*
X142657163Y-119376126D01*
X142256037Y-118975000D01*
X177378554Y-118975000D01*
X177500000Y-119096446D01*
X177621446Y-118975000D01*
X177570554Y-118924108D01*
X179499500Y-118924108D01*
X179499500Y-119055891D01*
X179533608Y-119183187D01*
X179561345Y-119231228D01*
X179599500Y-119297314D01*
X179692686Y-119390500D01*
X179806814Y-119456392D01*
X179934108Y-119490500D01*
X179934110Y-119490500D01*
X180065890Y-119490500D01*
X180065892Y-119490500D01*
X180193186Y-119456392D01*
X180307314Y-119390500D01*
X180400500Y-119297314D01*
X180466392Y-119183186D01*
X180500500Y-119055892D01*
X180500500Y-118924108D01*
X180466392Y-118796814D01*
X180400500Y-118682686D01*
X180307314Y-118589500D01*
X180250250Y-118556554D01*
X180193187Y-118523608D01*
X180129539Y-118506554D01*
X180065892Y-118489500D01*
X179934108Y-118489500D01*
X179806812Y-118523608D01*
X179692686Y-118589500D01*
X179692683Y-118589502D01*
X179599502Y-118682683D01*
X179599500Y-118682686D01*
X179533608Y-118796812D01*
X179499500Y-118924108D01*
X177570554Y-118924108D01*
X177500000Y-118853554D01*
X177378554Y-118975000D01*
X142256037Y-118975000D01*
X141465145Y-118184108D01*
X173249500Y-118184108D01*
X173249500Y-118315891D01*
X173283608Y-118443187D01*
X173299183Y-118470163D01*
X173349500Y-118557314D01*
X173442686Y-118650500D01*
X173556814Y-118716392D01*
X173684108Y-118750500D01*
X173684110Y-118750500D01*
X173815890Y-118750500D01*
X173815892Y-118750500D01*
X173943186Y-118716392D01*
X174057314Y-118650500D01*
X174150500Y-118557314D01*
X174216392Y-118443186D01*
X174220963Y-118426126D01*
X176750000Y-118426126D01*
X176750000Y-118573873D01*
X176778820Y-118718759D01*
X176778822Y-118718767D01*
X176822421Y-118824024D01*
X177146446Y-118500000D01*
X177146446Y-118499999D01*
X177116610Y-118470163D01*
X177350000Y-118470163D01*
X177350000Y-118529837D01*
X177372836Y-118584968D01*
X177415032Y-118627164D01*
X177470163Y-118650000D01*
X177529837Y-118650000D01*
X177584968Y-118627164D01*
X177627164Y-118584968D01*
X177650000Y-118529837D01*
X177650000Y-118499999D01*
X177853554Y-118499999D01*
X177853554Y-118500001D01*
X178177577Y-118824024D01*
X178177578Y-118824024D01*
X178221175Y-118718775D01*
X178221179Y-118718760D01*
X178249999Y-118573873D01*
X178250000Y-118573871D01*
X178250000Y-118426128D01*
X178249999Y-118426126D01*
X178221179Y-118281240D01*
X178221178Y-118281236D01*
X178177577Y-118175975D01*
X177853554Y-118499999D01*
X177650000Y-118499999D01*
X177650000Y-118470163D01*
X177627164Y-118415032D01*
X177584968Y-118372836D01*
X177529837Y-118350000D01*
X177470163Y-118350000D01*
X177415032Y-118372836D01*
X177372836Y-118415032D01*
X177350000Y-118470163D01*
X177116610Y-118470163D01*
X176822421Y-118175974D01*
X176822420Y-118175974D01*
X176778823Y-118281228D01*
X176778820Y-118281240D01*
X176750000Y-118426126D01*
X174220963Y-118426126D01*
X174250500Y-118315892D01*
X174250500Y-118184108D01*
X174216392Y-118056814D01*
X174198024Y-118025000D01*
X177378554Y-118025000D01*
X177500000Y-118146446D01*
X177621446Y-118025000D01*
X177500000Y-117903554D01*
X177378554Y-118025000D01*
X174198024Y-118025000D01*
X174150500Y-117942686D01*
X174057314Y-117849500D01*
X174000250Y-117816554D01*
X173943187Y-117783608D01*
X173879539Y-117766554D01*
X173815892Y-117749500D01*
X173684108Y-117749500D01*
X173556812Y-117783608D01*
X173442686Y-117849500D01*
X173442683Y-117849502D01*
X173349502Y-117942683D01*
X173349500Y-117942686D01*
X173283608Y-118056812D01*
X173249500Y-118184108D01*
X141465145Y-118184108D01*
X140757163Y-117476126D01*
X176750000Y-117476126D01*
X176750000Y-117623873D01*
X176778820Y-117768759D01*
X176778822Y-117768767D01*
X176822421Y-117874024D01*
X177146446Y-117550000D01*
X177146446Y-117549999D01*
X177116610Y-117520163D01*
X177350000Y-117520163D01*
X177350000Y-117579837D01*
X177372836Y-117634968D01*
X177415032Y-117677164D01*
X177470163Y-117700000D01*
X177529837Y-117700000D01*
X177584968Y-117677164D01*
X177627164Y-117634968D01*
X177650000Y-117579837D01*
X177650000Y-117549999D01*
X177853554Y-117549999D01*
X177853554Y-117550001D01*
X178177577Y-117874024D01*
X178177578Y-117874024D01*
X178221175Y-117768775D01*
X178221179Y-117768760D01*
X178249999Y-117623873D01*
X178250000Y-117623871D01*
X178250000Y-117476128D01*
X178249999Y-117476126D01*
X178221179Y-117331240D01*
X178221178Y-117331236D01*
X178177577Y-117225975D01*
X177853554Y-117549999D01*
X177650000Y-117549999D01*
X177650000Y-117520163D01*
X177627164Y-117465032D01*
X177584968Y-117422836D01*
X177529837Y-117400000D01*
X177470163Y-117400000D01*
X177415032Y-117422836D01*
X177372836Y-117465032D01*
X177350000Y-117520163D01*
X177116610Y-117520163D01*
X176822421Y-117225974D01*
X176822420Y-117225974D01*
X176778823Y-117331228D01*
X176778820Y-117331240D01*
X176750000Y-117476126D01*
X140757163Y-117476126D01*
X140285624Y-117004587D01*
X140274669Y-116984524D01*
X140259903Y-116967067D01*
X140254367Y-116947344D01*
X140252139Y-116943264D01*
X140250624Y-116934572D01*
X140233971Y-116872420D01*
X177175974Y-116872420D01*
X177175974Y-116872421D01*
X177500000Y-117196446D01*
X177500001Y-117196446D01*
X177824024Y-116872421D01*
X177718767Y-116828822D01*
X177718759Y-116828820D01*
X177573872Y-116800000D01*
X177426128Y-116800000D01*
X177281240Y-116828820D01*
X177281228Y-116828823D01*
X177175974Y-116872420D01*
X140233971Y-116872420D01*
X140216392Y-116806814D01*
X140150500Y-116692686D01*
X140057314Y-116599500D01*
X140000250Y-116566554D01*
X139943187Y-116533608D01*
X139879539Y-116516554D01*
X139815892Y-116499500D01*
X139684108Y-116499500D01*
X139556812Y-116533608D01*
X139442686Y-116599500D01*
X139442683Y-116599502D01*
X139349502Y-116692683D01*
X139349500Y-116692686D01*
X139283608Y-116806812D01*
X139249500Y-116934108D01*
X123891922Y-116934108D01*
X123807314Y-116849500D01*
X123733380Y-116806814D01*
X123693187Y-116783608D01*
X123629539Y-116766554D01*
X123565892Y-116749500D01*
X123434108Y-116749500D01*
X123306812Y-116783608D01*
X123227006Y-116829684D01*
X123192686Y-116849500D01*
X123192684Y-116849501D01*
X123185648Y-116853564D01*
X123184868Y-116852213D01*
X123128329Y-116874070D01*
X123118013Y-116874500D01*
X101956899Y-116874500D01*
X101889860Y-116854815D01*
X101869218Y-116838181D01*
X99911819Y-114880782D01*
X99878334Y-114819459D01*
X99875500Y-114793101D01*
X99875500Y-113881986D01*
X99895185Y-113814947D01*
X99900258Y-113807732D01*
X99900498Y-113807315D01*
X99900500Y-113807314D01*
X99966392Y-113693186D01*
X100000500Y-113565892D01*
X100000500Y-113434108D01*
X99966392Y-113306814D01*
X99900500Y-113192686D01*
X99807314Y-113099500D01*
X99726895Y-113053070D01*
X99693187Y-113033608D01*
X99629539Y-113016554D01*
X99565892Y-112999500D01*
X99434108Y-112999500D01*
X99306812Y-113033608D01*
X99192686Y-113099500D01*
X99192683Y-113099502D01*
X99099502Y-113192683D01*
X99099500Y-113192686D01*
X99033608Y-113306812D01*
X98999500Y-113434108D01*
X96047996Y-113434108D01*
X96019873Y-113347555D01*
X95941232Y-113193212D01*
X95839414Y-113053072D01*
X95716928Y-112930586D01*
X95576788Y-112828768D01*
X95422445Y-112750127D01*
X95257701Y-112696598D01*
X95257699Y-112696597D01*
X95257698Y-112696597D01*
X95126271Y-112675781D01*
X95086611Y-112669500D01*
X94913389Y-112669500D01*
X94873728Y-112675781D01*
X94742302Y-112696597D01*
X94577552Y-112750128D01*
X94423211Y-112828768D01*
X94343256Y-112886859D01*
X94283072Y-112930586D01*
X94283070Y-112930588D01*
X94283069Y-112930588D01*
X94160588Y-113053069D01*
X94160588Y-113053070D01*
X94160586Y-113053072D01*
X94126854Y-113099500D01*
X94058768Y-113193211D01*
X93980128Y-113347552D01*
X93926597Y-113512302D01*
X93899500Y-113683389D01*
X93899500Y-113856610D01*
X93922289Y-114000499D01*
X93926598Y-114027701D01*
X93980127Y-114192445D01*
X94058768Y-114346788D01*
X94160586Y-114486928D01*
X94283072Y-114609414D01*
X94423212Y-114711232D01*
X94446213Y-114722951D01*
X94451244Y-114725515D01*
X94502040Y-114773490D01*
X94518835Y-114841311D01*
X94496297Y-114907446D01*
X94441582Y-114950897D01*
X94394949Y-114960000D01*
X94102155Y-114960000D01*
X94042627Y-114966401D01*
X94042620Y-114966403D01*
X93907913Y-115016645D01*
X93907906Y-115016649D01*
X93792812Y-115102809D01*
X93792809Y-115102812D01*
X93706649Y-115217906D01*
X93706645Y-115217913D01*
X93656403Y-115352620D01*
X93656401Y-115352627D01*
X93650000Y-115412155D01*
X90250500Y-115412155D01*
X90250500Y-111143389D01*
X93899500Y-111143389D01*
X93899500Y-111316610D01*
X93924912Y-111477060D01*
X93926598Y-111487701D01*
X93980127Y-111652445D01*
X94058768Y-111806788D01*
X94160586Y-111946928D01*
X94283072Y-112069414D01*
X94423212Y-112171232D01*
X94577555Y-112249873D01*
X94742299Y-112303402D01*
X94913389Y-112330500D01*
X94913390Y-112330500D01*
X95086610Y-112330500D01*
X95086611Y-112330500D01*
X95257701Y-112303402D01*
X95422445Y-112249873D01*
X95576788Y-112171232D01*
X95716928Y-112069414D01*
X95839414Y-111946928D01*
X95941232Y-111806788D01*
X96019873Y-111652445D01*
X96073402Y-111487701D01*
X96081890Y-111434108D01*
X100499500Y-111434108D01*
X100499500Y-111565891D01*
X100533608Y-111693187D01*
X100567959Y-111752684D01*
X100599500Y-111807314D01*
X100599501Y-111807315D01*
X100603564Y-111814352D01*
X100602211Y-111815133D01*
X100624069Y-111871660D01*
X100624500Y-111881986D01*
X100624500Y-114799435D01*
X100650090Y-114894938D01*
X100675939Y-114939709D01*
X100699526Y-114980563D01*
X101769438Y-116050475D01*
X101855063Y-116099911D01*
X101950564Y-116125500D01*
X101950565Y-116125500D01*
X123118013Y-116125500D01*
X123185052Y-116145185D01*
X123192266Y-116150257D01*
X123192684Y-116150498D01*
X123192686Y-116150500D01*
X123306814Y-116216392D01*
X123434108Y-116250500D01*
X123434110Y-116250500D01*
X123565890Y-116250500D01*
X123565892Y-116250500D01*
X123693186Y-116216392D01*
X123807314Y-116150500D01*
X123900500Y-116057314D01*
X123966392Y-115943186D01*
X123968824Y-115934108D01*
X137009500Y-115934108D01*
X137009500Y-116065892D01*
X137025472Y-116125500D01*
X137043608Y-116193187D01*
X137057005Y-116216391D01*
X137109500Y-116307314D01*
X137202686Y-116400500D01*
X137316814Y-116466392D01*
X137444108Y-116500500D01*
X137444110Y-116500500D01*
X137575890Y-116500500D01*
X137575892Y-116500500D01*
X137703186Y-116466392D01*
X137817314Y-116400500D01*
X137910500Y-116307314D01*
X137976392Y-116193186D01*
X138010500Y-116065892D01*
X138010500Y-115934108D01*
X137976392Y-115806814D01*
X137910500Y-115692686D01*
X137817314Y-115599500D01*
X137703186Y-115533608D01*
X137575892Y-115499500D01*
X137444108Y-115499500D01*
X137316812Y-115533608D01*
X137202686Y-115599500D01*
X137202683Y-115599502D01*
X137109502Y-115692683D01*
X137109500Y-115692686D01*
X137043608Y-115806812D01*
X137035171Y-115838300D01*
X137009500Y-115934108D01*
X123968824Y-115934108D01*
X124000500Y-115815892D01*
X124000500Y-115684108D01*
X123966392Y-115556814D01*
X123900500Y-115442686D01*
X123891922Y-115434108D01*
X140749500Y-115434108D01*
X140749500Y-115565891D01*
X140783608Y-115693187D01*
X140816554Y-115750250D01*
X140849500Y-115807314D01*
X140942686Y-115900500D01*
X141056814Y-115966392D01*
X141184108Y-116000500D01*
X141184110Y-116000500D01*
X141315890Y-116000500D01*
X141315892Y-116000500D01*
X141443186Y-115966392D01*
X141499103Y-115934108D01*
X179499500Y-115934108D01*
X179499500Y-116065892D01*
X179515472Y-116125500D01*
X179533608Y-116193187D01*
X179547005Y-116216391D01*
X179599500Y-116307314D01*
X179692686Y-116400500D01*
X179806814Y-116466392D01*
X179934108Y-116500500D01*
X179934110Y-116500500D01*
X180065890Y-116500500D01*
X180065892Y-116500500D01*
X180193186Y-116466392D01*
X180307314Y-116400500D01*
X180400500Y-116307314D01*
X180466392Y-116193186D01*
X180500500Y-116065892D01*
X180500500Y-115934108D01*
X180466392Y-115806814D01*
X180400500Y-115692686D01*
X180307314Y-115599500D01*
X180233380Y-115556814D01*
X180193187Y-115533608D01*
X180129539Y-115516554D01*
X180065892Y-115499500D01*
X179934108Y-115499500D01*
X179806812Y-115533608D01*
X179692686Y-115599500D01*
X179692683Y-115599502D01*
X179599502Y-115692683D01*
X179599500Y-115692686D01*
X179533608Y-115806812D01*
X179525171Y-115838300D01*
X179499500Y-115934108D01*
X141499103Y-115934108D01*
X141557314Y-115900500D01*
X141650500Y-115807314D01*
X141716392Y-115693186D01*
X141750500Y-115565892D01*
X141750500Y-115434108D01*
X141716392Y-115306814D01*
X141650500Y-115192686D01*
X141557314Y-115099500D01*
X141470601Y-115049436D01*
X141443187Y-115033608D01*
X141379539Y-115016554D01*
X141315892Y-114999500D01*
X141184108Y-114999500D01*
X141056812Y-115033608D01*
X140942686Y-115099500D01*
X140942683Y-115099502D01*
X140849502Y-115192683D01*
X140849500Y-115192686D01*
X140783608Y-115306812D01*
X140749500Y-115434108D01*
X123891922Y-115434108D01*
X123807314Y-115349500D01*
X123733380Y-115306814D01*
X123693187Y-115283608D01*
X123629539Y-115266554D01*
X123565892Y-115249500D01*
X123434108Y-115249500D01*
X123306812Y-115283608D01*
X123227006Y-115329684D01*
X123192686Y-115349500D01*
X123192684Y-115349501D01*
X123185648Y-115353564D01*
X123184868Y-115352213D01*
X123128329Y-115374070D01*
X123118013Y-115374500D01*
X102206899Y-115374500D01*
X102139860Y-115354815D01*
X102119218Y-115338181D01*
X101411819Y-114630782D01*
X101378334Y-114569459D01*
X101375500Y-114543101D01*
X101375500Y-111881986D01*
X101395185Y-111814947D01*
X101400258Y-111807732D01*
X101400498Y-111807315D01*
X101400500Y-111807314D01*
X101466392Y-111693186D01*
X101500500Y-111565892D01*
X101500500Y-111434108D01*
X101466392Y-111306814D01*
X101400500Y-111192686D01*
X101307314Y-111099500D01*
X101250250Y-111066554D01*
X101193187Y-111033608D01*
X101129539Y-111016554D01*
X101065892Y-110999500D01*
X100934108Y-110999500D01*
X100806812Y-111033608D01*
X100692686Y-111099500D01*
X100692683Y-111099502D01*
X100599502Y-111192683D01*
X100599500Y-111192686D01*
X100533608Y-111306812D01*
X100499500Y-111434108D01*
X96081890Y-111434108D01*
X96100500Y-111316611D01*
X96100500Y-111143389D01*
X96073402Y-110972299D01*
X96019873Y-110807555D01*
X95941232Y-110653212D01*
X95839414Y-110513072D01*
X95716928Y-110390586D01*
X95576788Y-110288768D01*
X95422445Y-110210127D01*
X95257701Y-110156598D01*
X95257699Y-110156597D01*
X95257698Y-110156597D01*
X95126271Y-110135781D01*
X95086611Y-110129500D01*
X94913389Y-110129500D01*
X94873728Y-110135781D01*
X94742302Y-110156597D01*
X94577552Y-110210128D01*
X94423211Y-110288768D01*
X94343256Y-110346859D01*
X94283072Y-110390586D01*
X94283070Y-110390588D01*
X94283069Y-110390588D01*
X94160588Y-110513069D01*
X94160588Y-110513070D01*
X94160586Y-110513072D01*
X94116859Y-110573256D01*
X94058768Y-110653211D01*
X93980128Y-110807552D01*
X93926597Y-110972302D01*
X93899500Y-111143389D01*
X90250500Y-111143389D01*
X90250500Y-109830488D01*
X116549500Y-109830488D01*
X116549500Y-110169512D01*
X116555723Y-110232696D01*
X116582729Y-110506901D01*
X116648870Y-110839410D01*
X116747284Y-111163841D01*
X116877024Y-111477060D01*
X116877026Y-111477065D01*
X117036831Y-111776039D01*
X117036842Y-111776057D01*
X117225184Y-112057930D01*
X117225194Y-112057944D01*
X117440269Y-112320014D01*
X117679985Y-112559730D01*
X117679990Y-112559734D01*
X117679991Y-112559735D01*
X117942061Y-112774810D01*
X118223949Y-112963162D01*
X118223958Y-112963167D01*
X118223960Y-112963168D01*
X118522934Y-113122973D01*
X118522936Y-113122973D01*
X118522942Y-113122977D01*
X118836160Y-113252716D01*
X119160586Y-113351129D01*
X119493096Y-113417270D01*
X119830488Y-113450500D01*
X119830491Y-113450500D01*
X120169509Y-113450500D01*
X120169512Y-113450500D01*
X120506904Y-113417270D01*
X120839414Y-113351129D01*
X121163840Y-113252716D01*
X121477058Y-113122977D01*
X121776051Y-112963162D01*
X122057939Y-112774810D01*
X122320009Y-112559735D01*
X122559735Y-112320009D01*
X122774810Y-112057939D01*
X122963162Y-111776051D01*
X123122977Y-111477058D01*
X123252716Y-111163840D01*
X123351129Y-110839414D01*
X123417270Y-110506904D01*
X123450500Y-110169512D01*
X123450500Y-109830488D01*
X156549500Y-109830488D01*
X156549500Y-110169512D01*
X156555723Y-110232696D01*
X156582729Y-110506901D01*
X156648870Y-110839410D01*
X156747284Y-111163841D01*
X156877024Y-111477060D01*
X156877026Y-111477065D01*
X157036831Y-111776039D01*
X157036842Y-111776057D01*
X157225184Y-112057930D01*
X157225194Y-112057944D01*
X157440269Y-112320014D01*
X157679985Y-112559730D01*
X157679990Y-112559734D01*
X157679991Y-112559735D01*
X157942061Y-112774810D01*
X158223949Y-112963162D01*
X158223958Y-112963167D01*
X158223960Y-112963168D01*
X158522934Y-113122973D01*
X158522936Y-113122973D01*
X158522942Y-113122977D01*
X158836160Y-113252716D01*
X159160586Y-113351129D01*
X159493096Y-113417270D01*
X159830488Y-113450500D01*
X159830491Y-113450500D01*
X160169509Y-113450500D01*
X160169512Y-113450500D01*
X160506904Y-113417270D01*
X160839414Y-113351129D01*
X161163840Y-113252716D01*
X161477058Y-113122977D01*
X161776051Y-112963162D01*
X162057939Y-112774810D01*
X162320009Y-112559735D01*
X162411899Y-112467845D01*
X162445636Y-112434108D01*
X177749500Y-112434108D01*
X177749500Y-112565891D01*
X177783608Y-112693187D01*
X177816483Y-112750127D01*
X177849500Y-112807314D01*
X177849502Y-112807316D01*
X177942687Y-112900501D01*
X177944158Y-112901630D01*
X177945083Y-112902897D01*
X177948433Y-112906247D01*
X177947910Y-112906769D01*
X177985356Y-112958060D01*
X177989506Y-113027807D01*
X177955289Y-113088725D01*
X177944158Y-113098370D01*
X177942687Y-113099498D01*
X177849502Y-113192683D01*
X177849500Y-113192686D01*
X177783608Y-113306812D01*
X177749500Y-113434108D01*
X177749500Y-113565891D01*
X177783608Y-113693187D01*
X177816554Y-113750250D01*
X177849500Y-113807314D01*
X177942686Y-113900500D01*
X178056814Y-113966392D01*
X178184108Y-114000500D01*
X178184110Y-114000500D01*
X178315890Y-114000500D01*
X178315892Y-114000500D01*
X178443186Y-113966392D01*
X178557314Y-113900500D01*
X178650500Y-113807314D01*
X178650504Y-113807306D01*
X178651625Y-113805847D01*
X178652892Y-113804921D01*
X178656247Y-113801567D01*
X178656770Y-113802090D01*
X178708053Y-113764645D01*
X178777799Y-113760491D01*
X178838719Y-113794704D01*
X178848375Y-113805847D01*
X178849498Y-113807311D01*
X178849500Y-113807314D01*
X178942686Y-113900500D01*
X179056814Y-113966392D01*
X179184108Y-114000500D01*
X179184110Y-114000500D01*
X179315890Y-114000500D01*
X179315892Y-114000500D01*
X179443186Y-113966392D01*
X179557314Y-113900500D01*
X179650500Y-113807314D01*
X179716392Y-113693186D01*
X179735579Y-113621577D01*
X183749500Y-113621577D01*
X183749500Y-113818422D01*
X183780290Y-114012826D01*
X183841117Y-114200029D01*
X183915895Y-114346788D01*
X183930476Y-114375405D01*
X184046172Y-114534646D01*
X184185354Y-114673828D01*
X184344595Y-114789524D01*
X184403346Y-114819459D01*
X184519970Y-114878882D01*
X184519972Y-114878882D01*
X184519975Y-114878884D01*
X184607879Y-114907446D01*
X184707173Y-114939709D01*
X184901578Y-114970500D01*
X184901583Y-114970500D01*
X185098422Y-114970500D01*
X185292826Y-114939709D01*
X185292829Y-114939708D01*
X185480025Y-114878884D01*
X185655405Y-114789524D01*
X185814646Y-114673828D01*
X185953828Y-114534646D01*
X186069524Y-114375405D01*
X186158884Y-114200025D01*
X186219709Y-114012826D01*
X186221661Y-114000499D01*
X186250500Y-113818422D01*
X186250500Y-113621577D01*
X186219709Y-113427173D01*
X186191487Y-113340317D01*
X186158884Y-113239975D01*
X186158882Y-113239972D01*
X186158882Y-113239970D01*
X186086733Y-113098370D01*
X186069524Y-113064595D01*
X185953828Y-112905354D01*
X185814646Y-112766172D01*
X185655405Y-112650476D01*
X185480029Y-112561117D01*
X185292826Y-112500290D01*
X185098422Y-112469500D01*
X185098417Y-112469500D01*
X184901583Y-112469500D01*
X184901578Y-112469500D01*
X184707173Y-112500290D01*
X184519970Y-112561117D01*
X184344594Y-112650476D01*
X184281115Y-112696597D01*
X184185354Y-112766172D01*
X184185352Y-112766174D01*
X184185351Y-112766174D01*
X184046174Y-112905351D01*
X184046174Y-112905352D01*
X184046172Y-112905354D01*
X184001825Y-112966392D01*
X183930476Y-113064594D01*
X183841117Y-113239970D01*
X183780290Y-113427173D01*
X183749500Y-113621577D01*
X179735579Y-113621577D01*
X179745782Y-113583499D01*
X179782129Y-113523833D01*
X179833468Y-113495790D01*
X179943186Y-113466392D01*
X180057314Y-113400500D01*
X180150500Y-113307314D01*
X180216392Y-113193186D01*
X180250500Y-113065892D01*
X180250500Y-112934108D01*
X180216392Y-112806814D01*
X180150500Y-112692686D01*
X180057314Y-112599500D01*
X179943186Y-112533608D01*
X179833469Y-112504209D01*
X179773810Y-112467845D01*
X179745789Y-112416528D01*
X179724828Y-112338300D01*
X179716392Y-112306814D01*
X179650500Y-112192686D01*
X179557314Y-112099500D01*
X179485337Y-112057944D01*
X179443187Y-112033608D01*
X179379539Y-112016554D01*
X179315892Y-111999500D01*
X179184108Y-111999500D01*
X179056812Y-112033608D01*
X178942686Y-112099500D01*
X178942683Y-112099502D01*
X178849498Y-112192687D01*
X178848370Y-112194158D01*
X178847102Y-112195083D01*
X178843753Y-112198433D01*
X178843230Y-112197910D01*
X178791940Y-112235356D01*
X178722193Y-112239506D01*
X178661275Y-112205289D01*
X178651630Y-112194158D01*
X178650501Y-112192687D01*
X178557316Y-112099502D01*
X178557314Y-112099500D01*
X178485337Y-112057944D01*
X178443187Y-112033608D01*
X178379539Y-112016554D01*
X178315892Y-111999500D01*
X178184108Y-111999500D01*
X178056812Y-112033608D01*
X177942686Y-112099500D01*
X177942683Y-112099502D01*
X177849502Y-112192683D01*
X177849500Y-112192686D01*
X177783608Y-112306812D01*
X177749500Y-112434108D01*
X162445636Y-112434108D01*
X162541445Y-112338300D01*
X162559730Y-112320014D01*
X162559735Y-112320009D01*
X162774810Y-112057939D01*
X162963162Y-111776051D01*
X163122977Y-111477058D01*
X163252716Y-111163840D01*
X163351129Y-110839414D01*
X163417270Y-110506904D01*
X163450500Y-110169512D01*
X163450500Y-109830488D01*
X163420847Y-109529411D01*
X163417271Y-109493104D01*
X163417270Y-109493098D01*
X163417270Y-109493096D01*
X163400130Y-109406930D01*
X163362889Y-109219709D01*
X163351129Y-109160586D01*
X163252716Y-108836160D01*
X163122977Y-108522942D01*
X163100037Y-108480025D01*
X162963168Y-108223960D01*
X162963167Y-108223958D01*
X162963162Y-108223949D01*
X162790540Y-107965602D01*
X162774816Y-107942069D01*
X162774805Y-107942055D01*
X162741586Y-107901577D01*
X164749500Y-107901577D01*
X164749500Y-108098422D01*
X164780290Y-108292826D01*
X164841117Y-108480029D01*
X164930476Y-108655405D01*
X165046172Y-108814646D01*
X165185354Y-108953828D01*
X165344595Y-109069524D01*
X165427455Y-109111743D01*
X165519970Y-109158882D01*
X165519972Y-109158882D01*
X165519975Y-109158884D01*
X165620317Y-109191487D01*
X165707173Y-109219709D01*
X165901578Y-109250500D01*
X165901583Y-109250500D01*
X166098422Y-109250500D01*
X166292826Y-109219709D01*
X166480025Y-109158884D01*
X166655405Y-109069524D01*
X166814646Y-108953828D01*
X166953828Y-108814646D01*
X167069524Y-108655405D01*
X167158884Y-108480025D01*
X167219709Y-108292826D01*
X167250500Y-108098422D01*
X167250500Y-107901577D01*
X167241739Y-107846263D01*
X167239165Y-107830014D01*
X172375000Y-107830014D01*
X172375000Y-108480000D01*
X173536803Y-108480000D01*
X173471740Y-108577374D01*
X173407665Y-108732064D01*
X173375000Y-108896282D01*
X173375000Y-109063718D01*
X173407665Y-109227936D01*
X173471740Y-109382626D01*
X173536803Y-109480000D01*
X172375000Y-109480000D01*
X172375000Y-110129985D01*
X172385493Y-110232689D01*
X172385494Y-110232696D01*
X172440641Y-110399118D01*
X172440643Y-110399123D01*
X172532684Y-110548344D01*
X172656655Y-110672315D01*
X172805876Y-110764356D01*
X172805881Y-110764358D01*
X172972303Y-110819505D01*
X172972310Y-110819506D01*
X173075014Y-110829999D01*
X173075027Y-110830000D01*
X173725000Y-110830000D01*
X173725000Y-109668197D01*
X173822374Y-109733260D01*
X173977064Y-109797335D01*
X174141282Y-109830000D01*
X174308718Y-109830000D01*
X174472936Y-109797335D01*
X174627626Y-109733260D01*
X174725000Y-109668197D01*
X174725000Y-110830000D01*
X175374973Y-110830000D01*
X175374985Y-110829999D01*
X175477689Y-110819506D01*
X175477696Y-110819505D01*
X175644118Y-110764358D01*
X175644123Y-110764356D01*
X175793344Y-110672315D01*
X175917315Y-110548344D01*
X176009356Y-110399123D01*
X176009358Y-110399118D01*
X176064505Y-110232696D01*
X176064506Y-110232689D01*
X176074999Y-110129985D01*
X176075000Y-110129972D01*
X176075000Y-109480000D01*
X174913197Y-109480000D01*
X174978260Y-109382626D01*
X175042335Y-109227936D01*
X175075000Y-109063718D01*
X175075000Y-108896282D01*
X175042335Y-108732064D01*
X174978260Y-108577374D01*
X174913197Y-108480000D01*
X176075000Y-108480000D01*
X176075000Y-107830027D01*
X176074999Y-107830014D01*
X176064506Y-107727310D01*
X176064505Y-107727303D01*
X176009358Y-107560881D01*
X176009356Y-107560876D01*
X175917315Y-107411655D01*
X175793344Y-107287684D01*
X175644123Y-107195643D01*
X175644118Y-107195641D01*
X175477696Y-107140494D01*
X175477689Y-107140493D01*
X175374985Y-107130000D01*
X174725000Y-107130000D01*
X174725000Y-108291802D01*
X174627626Y-108226740D01*
X174472936Y-108162665D01*
X174308718Y-108130000D01*
X174141282Y-108130000D01*
X173977064Y-108162665D01*
X173822374Y-108226740D01*
X173725000Y-108291802D01*
X173725000Y-107130000D01*
X173075014Y-107130000D01*
X172972310Y-107140493D01*
X172972303Y-107140494D01*
X172805881Y-107195641D01*
X172805876Y-107195643D01*
X172656655Y-107287684D01*
X172532684Y-107411655D01*
X172440643Y-107560876D01*
X172440641Y-107560881D01*
X172385494Y-107727303D01*
X172385493Y-107727310D01*
X172375000Y-107830014D01*
X167239165Y-107830014D01*
X167219709Y-107707173D01*
X167172175Y-107560881D01*
X167158884Y-107519975D01*
X167158882Y-107519972D01*
X167158882Y-107519970D01*
X167111743Y-107427455D01*
X167069524Y-107344595D01*
X166953828Y-107185354D01*
X166814646Y-107046172D01*
X166655405Y-106930476D01*
X166480029Y-106841117D01*
X166292826Y-106780290D01*
X166098422Y-106749500D01*
X166098417Y-106749500D01*
X165901583Y-106749500D01*
X165901578Y-106749500D01*
X165707173Y-106780290D01*
X165519970Y-106841117D01*
X165344594Y-106930476D01*
X165313336Y-106953187D01*
X165185354Y-107046172D01*
X165185352Y-107046174D01*
X165185351Y-107046174D01*
X165046174Y-107185351D01*
X165046174Y-107185352D01*
X165046172Y-107185354D01*
X165016357Y-107226391D01*
X164930476Y-107344594D01*
X164841117Y-107519970D01*
X164780290Y-107707173D01*
X164749500Y-107901577D01*
X162741586Y-107901577D01*
X162699739Y-107850586D01*
X162559735Y-107679991D01*
X162559734Y-107679990D01*
X162559730Y-107679985D01*
X162320014Y-107440269D01*
X162057944Y-107225194D01*
X162057943Y-107225193D01*
X162057939Y-107225190D01*
X161776051Y-107036838D01*
X161776046Y-107036835D01*
X161776039Y-107036831D01*
X161477065Y-106877026D01*
X161477060Y-106877024D01*
X161163841Y-106747284D01*
X160973382Y-106689509D01*
X160839414Y-106648871D01*
X160839411Y-106648870D01*
X160839410Y-106648870D01*
X160506901Y-106582729D01*
X160269199Y-106559318D01*
X160169512Y-106549500D01*
X159830488Y-106549500D01*
X159739738Y-106558437D01*
X159493098Y-106582729D01*
X159160589Y-106648870D01*
X158836158Y-106747284D01*
X158522939Y-106877024D01*
X158522934Y-106877026D01*
X158223960Y-107036831D01*
X158223942Y-107036842D01*
X157942069Y-107225184D01*
X157942055Y-107225194D01*
X157679985Y-107440269D01*
X157440269Y-107679985D01*
X157225194Y-107942055D01*
X157225184Y-107942069D01*
X157036842Y-108223942D01*
X157036831Y-108223960D01*
X156877026Y-108522934D01*
X156877024Y-108522939D01*
X156747284Y-108836158D01*
X156648870Y-109160589D01*
X156582729Y-109493098D01*
X156569125Y-109631231D01*
X156549500Y-109830488D01*
X123450500Y-109830488D01*
X123417270Y-109493096D01*
X123351129Y-109160586D01*
X123252716Y-108836160D01*
X123122977Y-108522942D01*
X123100037Y-108480025D01*
X122963168Y-108223960D01*
X122963167Y-108223958D01*
X122963162Y-108223949D01*
X122774810Y-107942061D01*
X122559735Y-107679991D01*
X122559734Y-107679990D01*
X122559730Y-107679985D01*
X122320014Y-107440269D01*
X122057944Y-107225194D01*
X122057943Y-107225193D01*
X122057939Y-107225190D01*
X121776051Y-107036838D01*
X121776046Y-107036835D01*
X121776039Y-107036831D01*
X121477065Y-106877026D01*
X121477060Y-106877024D01*
X121163841Y-106747284D01*
X120973382Y-106689509D01*
X120839414Y-106648871D01*
X120839411Y-106648870D01*
X120839410Y-106648870D01*
X120506901Y-106582729D01*
X120269199Y-106559318D01*
X120169512Y-106549500D01*
X119830488Y-106549500D01*
X119739738Y-106558437D01*
X119493098Y-106582729D01*
X119160589Y-106648870D01*
X118836158Y-106747284D01*
X118522939Y-106877024D01*
X118522934Y-106877026D01*
X118223960Y-107036831D01*
X118223942Y-107036842D01*
X117942069Y-107225184D01*
X117942055Y-107225194D01*
X117679985Y-107440269D01*
X117440269Y-107679985D01*
X117225194Y-107942055D01*
X117225184Y-107942069D01*
X117036842Y-108223942D01*
X117036831Y-108223960D01*
X116877026Y-108522934D01*
X116877024Y-108522939D01*
X116747284Y-108836158D01*
X116648870Y-109160589D01*
X116582729Y-109493098D01*
X116569125Y-109631231D01*
X116549500Y-109830488D01*
X90250500Y-109830488D01*
X90250500Y-108603389D01*
X93899500Y-108603389D01*
X93899500Y-108776611D01*
X93926598Y-108947701D01*
X93980127Y-109112445D01*
X94058768Y-109266788D01*
X94160586Y-109406928D01*
X94283072Y-109529414D01*
X94423212Y-109631232D01*
X94577555Y-109709873D01*
X94742299Y-109763402D01*
X94913389Y-109790500D01*
X94913390Y-109790500D01*
X95086610Y-109790500D01*
X95086611Y-109790500D01*
X95257701Y-109763402D01*
X95422445Y-109709873D01*
X95576788Y-109631232D01*
X95716928Y-109529414D01*
X95839414Y-109406928D01*
X95941232Y-109266788D01*
X96019873Y-109112445D01*
X96073402Y-108947701D01*
X96100500Y-108776611D01*
X96100500Y-108603389D01*
X96073402Y-108432299D01*
X96019873Y-108267555D01*
X95941232Y-108113212D01*
X95839414Y-107973072D01*
X95716928Y-107850586D01*
X95576788Y-107748768D01*
X95422445Y-107670127D01*
X95257701Y-107616598D01*
X95257699Y-107616597D01*
X95257698Y-107616597D01*
X95126271Y-107595781D01*
X95086611Y-107589500D01*
X94913389Y-107589500D01*
X94873728Y-107595781D01*
X94742302Y-107616597D01*
X94577552Y-107670128D01*
X94423211Y-107748768D01*
X94343256Y-107806859D01*
X94283072Y-107850586D01*
X94283070Y-107850588D01*
X94283069Y-107850588D01*
X94160588Y-107973069D01*
X94160588Y-107973070D01*
X94160586Y-107973072D01*
X94116859Y-108033256D01*
X94058768Y-108113211D01*
X93980128Y-108267552D01*
X93926597Y-108432302D01*
X93903620Y-108577374D01*
X93899500Y-108603389D01*
X90250500Y-108603389D01*
X90250500Y-106694108D01*
X104499500Y-106694108D01*
X104499500Y-106825892D01*
X104513200Y-106877023D01*
X104533608Y-106953187D01*
X104566554Y-107010250D01*
X104599500Y-107067314D01*
X104692686Y-107160500D01*
X104791521Y-107217563D01*
X104804721Y-107225184D01*
X104806814Y-107226392D01*
X104934108Y-107260500D01*
X104934110Y-107260500D01*
X105065890Y-107260500D01*
X105065892Y-107260500D01*
X105193186Y-107226392D01*
X105307314Y-107160500D01*
X105400500Y-107067314D01*
X105466392Y-106953186D01*
X105500500Y-106825892D01*
X105500500Y-106694108D01*
X105466392Y-106566814D01*
X105400500Y-106452686D01*
X105307314Y-106359500D01*
X105250250Y-106326554D01*
X105193187Y-106293608D01*
X105129539Y-106276554D01*
X105065892Y-106259500D01*
X104934108Y-106259500D01*
X104806812Y-106293608D01*
X104692686Y-106359500D01*
X104692683Y-106359502D01*
X104599502Y-106452683D01*
X104599500Y-106452686D01*
X104533608Y-106566812D01*
X104529343Y-106582730D01*
X104499500Y-106694108D01*
X90250500Y-106694108D01*
X90250500Y-104894038D01*
X172624500Y-104894038D01*
X172624500Y-105145961D01*
X172663910Y-105394785D01*
X172741760Y-105634383D01*
X172856132Y-105858848D01*
X173004201Y-106062649D01*
X173004205Y-106062654D01*
X173182345Y-106240794D01*
X173182350Y-106240798D01*
X173345733Y-106359502D01*
X173386155Y-106388870D01*
X173511395Y-106452683D01*
X173610616Y-106503239D01*
X173610618Y-106503239D01*
X173610621Y-106503241D01*
X173850215Y-106581090D01*
X174099038Y-106620500D01*
X174099039Y-106620500D01*
X174350961Y-106620500D01*
X174350962Y-106620500D01*
X174599785Y-106581090D01*
X174839379Y-106503241D01*
X175063845Y-106388870D01*
X175267656Y-106240793D01*
X175445793Y-106062656D01*
X175593870Y-105858845D01*
X175708241Y-105634379D01*
X175786090Y-105394785D01*
X175825500Y-105145962D01*
X175825500Y-104894038D01*
X175786090Y-104645215D01*
X175708241Y-104405621D01*
X175708239Y-104405618D01*
X175708239Y-104405616D01*
X175666747Y-104324184D01*
X175593870Y-104181155D01*
X175574952Y-104155117D01*
X175445798Y-103977350D01*
X175445794Y-103977345D01*
X175267654Y-103799205D01*
X175267649Y-103799201D01*
X175063848Y-103651132D01*
X175063847Y-103651131D01*
X175063845Y-103651130D01*
X174993747Y-103615413D01*
X174839383Y-103536760D01*
X174599785Y-103458910D01*
X174350962Y-103419500D01*
X174099038Y-103419500D01*
X173974626Y-103439205D01*
X173850214Y-103458910D01*
X173610616Y-103536760D01*
X173386151Y-103651132D01*
X173182350Y-103799201D01*
X173182345Y-103799205D01*
X173004205Y-103977345D01*
X173004201Y-103977350D01*
X172856132Y-104181151D01*
X172741760Y-104405616D01*
X172663910Y-104645214D01*
X172624500Y-104894038D01*
X90250500Y-104894038D01*
X90250500Y-101924108D01*
X96999500Y-101924108D01*
X96999500Y-102055891D01*
X97033608Y-102183187D01*
X97066554Y-102240250D01*
X97099500Y-102297314D01*
X97192686Y-102390500D01*
X97195690Y-102392234D01*
X97196349Y-102392615D01*
X97198818Y-102395205D01*
X97199135Y-102395448D01*
X97199097Y-102395497D01*
X97244563Y-102443184D01*
X97257783Y-102511791D01*
X97231813Y-102576655D01*
X97196349Y-102607385D01*
X97192689Y-102609498D01*
X97192683Y-102609502D01*
X97099502Y-102702683D01*
X97099500Y-102702686D01*
X97033608Y-102816812D01*
X96999500Y-102944108D01*
X96999500Y-103075891D01*
X97033608Y-103203187D01*
X97066554Y-103260250D01*
X97099500Y-103317314D01*
X97192686Y-103410500D01*
X97306814Y-103476392D01*
X97434108Y-103510500D01*
X97434110Y-103510500D01*
X97565890Y-103510500D01*
X97565892Y-103510500D01*
X97693186Y-103476392D01*
X97807314Y-103410500D01*
X97900500Y-103317314D01*
X97966392Y-103203186D01*
X98000500Y-103075892D01*
X98000500Y-102944108D01*
X97966392Y-102816814D01*
X97900500Y-102702686D01*
X97807314Y-102609500D01*
X97807010Y-102609325D01*
X97803655Y-102607387D01*
X97801188Y-102604800D01*
X97800865Y-102604552D01*
X97800903Y-102604501D01*
X97755439Y-102556821D01*
X97742215Y-102488214D01*
X97768183Y-102423349D01*
X97803655Y-102392613D01*
X97804790Y-102391956D01*
X97807314Y-102390500D01*
X97900500Y-102297314D01*
X97966392Y-102183186D01*
X98000500Y-102055892D01*
X98000500Y-101924108D01*
X97966392Y-101796814D01*
X97900500Y-101682686D01*
X97807314Y-101589500D01*
X97750250Y-101556554D01*
X97693187Y-101523608D01*
X97629539Y-101506554D01*
X97565892Y-101489500D01*
X97434108Y-101489500D01*
X97306812Y-101523608D01*
X97192686Y-101589500D01*
X97192683Y-101589502D01*
X97099502Y-101682683D01*
X97099500Y-101682686D01*
X97033608Y-101796812D01*
X96999500Y-101924108D01*
X90250500Y-101924108D01*
X90250500Y-93059108D01*
X96349500Y-93059108D01*
X96349500Y-93190891D01*
X96383608Y-93318187D01*
X96416554Y-93375250D01*
X96449500Y-93432314D01*
X96542686Y-93525500D01*
X96656814Y-93591392D01*
X96784108Y-93625500D01*
X96784110Y-93625500D01*
X96915890Y-93625500D01*
X96915892Y-93625500D01*
X97043186Y-93591392D01*
X97157314Y-93525500D01*
X97250500Y-93432314D01*
X97316392Y-93318186D01*
X97350500Y-93190892D01*
X97350500Y-93059108D01*
X97316392Y-92931814D01*
X97250500Y-92817686D01*
X97157314Y-92724500D01*
X97100250Y-92691554D01*
X97043187Y-92658608D01*
X96979539Y-92641554D01*
X96915892Y-92624500D01*
X96784108Y-92624500D01*
X96656812Y-92658608D01*
X96542686Y-92724500D01*
X96542683Y-92724502D01*
X96449502Y-92817683D01*
X96449500Y-92817686D01*
X96383608Y-92931812D01*
X96349500Y-93059108D01*
X90250500Y-93059108D01*
X90250500Y-91934108D01*
X135499500Y-91934108D01*
X135499500Y-92065891D01*
X135533608Y-92193187D01*
X135566554Y-92250250D01*
X135599500Y-92307314D01*
X135692686Y-92400500D01*
X135806814Y-92466392D01*
X135934108Y-92500500D01*
X135934110Y-92500500D01*
X136065890Y-92500500D01*
X136065892Y-92500500D01*
X136193186Y-92466392D01*
X136307314Y-92400500D01*
X136400500Y-92307314D01*
X136466392Y-92193186D01*
X136500500Y-92065892D01*
X136500500Y-91934108D01*
X136466392Y-91806814D01*
X136400500Y-91692686D01*
X136307314Y-91599500D01*
X136250250Y-91566554D01*
X136193187Y-91533608D01*
X136129539Y-91516554D01*
X136065892Y-91499500D01*
X135934108Y-91499500D01*
X135806812Y-91533608D01*
X135692686Y-91599500D01*
X135692683Y-91599502D01*
X135599502Y-91692683D01*
X135599500Y-91692686D01*
X135533608Y-91806812D01*
X135499500Y-91934108D01*
X90250500Y-91934108D01*
X90250500Y-89550755D01*
X101693951Y-89550755D01*
X101693951Y-89682538D01*
X101728059Y-89809834D01*
X101761005Y-89866897D01*
X101793951Y-89923961D01*
X101793954Y-89923964D01*
X101798898Y-89930407D01*
X101797732Y-89931301D01*
X101826937Y-89984785D01*
X101821953Y-90054477D01*
X101804149Y-90086626D01*
X101799504Y-90092679D01*
X101733608Y-90206812D01*
X101699500Y-90334108D01*
X101699500Y-90465891D01*
X101733608Y-90593187D01*
X101752129Y-90625266D01*
X101799500Y-90707314D01*
X101799502Y-90707316D01*
X101883566Y-90791380D01*
X101917051Y-90852703D01*
X101915660Y-90911153D01*
X101905049Y-90950753D01*
X101905049Y-91082538D01*
X101939157Y-91209834D01*
X101972103Y-91266897D01*
X102005049Y-91323961D01*
X102098235Y-91417147D01*
X102212363Y-91483039D01*
X102339657Y-91517147D01*
X102339659Y-91517147D01*
X102471439Y-91517147D01*
X102471441Y-91517147D01*
X102598735Y-91483039D01*
X102712863Y-91417147D01*
X102806049Y-91323961D01*
X102871941Y-91209833D01*
X102878834Y-91184108D01*
X137749500Y-91184108D01*
X137749500Y-91315891D01*
X137783608Y-91443187D01*
X137806617Y-91483039D01*
X137849500Y-91557314D01*
X137942686Y-91650500D01*
X138056814Y-91716392D01*
X138184108Y-91750500D01*
X138184110Y-91750500D01*
X138315890Y-91750500D01*
X138315892Y-91750500D01*
X138443186Y-91716392D01*
X138557314Y-91650500D01*
X138650500Y-91557314D01*
X138716392Y-91443186D01*
X138750500Y-91315892D01*
X138750500Y-91184108D01*
X138716392Y-91056814D01*
X138650500Y-90942686D01*
X138557314Y-90849500D01*
X138472444Y-90800500D01*
X138443187Y-90783608D01*
X138379539Y-90766554D01*
X138315892Y-90749500D01*
X138184108Y-90749500D01*
X138056812Y-90783608D01*
X137942686Y-90849500D01*
X137942683Y-90849502D01*
X137849502Y-90942683D01*
X137849500Y-90942686D01*
X137783608Y-91056812D01*
X137749500Y-91184108D01*
X102878834Y-91184108D01*
X102906049Y-91082539D01*
X102906049Y-90950755D01*
X102871941Y-90823461D01*
X102806049Y-90709333D01*
X102721982Y-90625266D01*
X102688497Y-90563943D01*
X102689888Y-90505492D01*
X102700500Y-90465892D01*
X102700500Y-90334108D01*
X102666392Y-90206814D01*
X102600500Y-90092686D01*
X102600495Y-90092681D01*
X102595553Y-90086240D01*
X102596718Y-90085345D01*
X102567513Y-90031861D01*
X102572497Y-89962169D01*
X102590307Y-89930011D01*
X102594945Y-89923966D01*
X102594951Y-89923961D01*
X102660843Y-89809833D01*
X102694951Y-89682539D01*
X102694951Y-89550755D01*
X102684340Y-89511154D01*
X102686002Y-89441306D01*
X102716429Y-89391384D01*
X102800500Y-89307314D01*
X102866392Y-89193186D01*
X102900500Y-89065892D01*
X102900500Y-88934108D01*
X102866392Y-88806814D01*
X102800500Y-88692686D01*
X102707314Y-88599500D01*
X102650250Y-88566554D01*
X102593187Y-88533608D01*
X102493166Y-88506808D01*
X102465892Y-88499500D01*
X102334108Y-88499500D01*
X102206812Y-88533608D01*
X102092686Y-88599500D01*
X102092683Y-88599502D01*
X101999502Y-88692683D01*
X101999500Y-88692686D01*
X101933608Y-88806812D01*
X101910466Y-88893182D01*
X101899500Y-88934108D01*
X101899500Y-89065892D01*
X101905154Y-89086995D01*
X101910111Y-89105492D01*
X101908448Y-89175342D01*
X101878018Y-89225266D01*
X101793951Y-89309333D01*
X101728059Y-89423459D01*
X101693951Y-89550755D01*
X90250500Y-89550755D01*
X90250500Y-87934108D01*
X135249500Y-87934108D01*
X135249500Y-88065891D01*
X135283609Y-88193188D01*
X135283609Y-88193189D01*
X135338347Y-88287997D01*
X135354820Y-88355897D01*
X135338347Y-88411997D01*
X135283609Y-88506804D01*
X135283609Y-88506805D01*
X135283608Y-88506807D01*
X135283608Y-88506808D01*
X135258771Y-88599502D01*
X135249500Y-88634102D01*
X135249500Y-88765885D01*
X135283609Y-88893182D01*
X135283609Y-88893183D01*
X135323915Y-88962995D01*
X135340388Y-89030895D01*
X135323916Y-89086994D01*
X135283608Y-89156809D01*
X135249500Y-89284105D01*
X135249500Y-89415889D01*
X135275026Y-89511156D01*
X135283609Y-89543185D01*
X135283609Y-89543186D01*
X135323915Y-89612998D01*
X135340388Y-89680898D01*
X135323916Y-89736997D01*
X135283608Y-89806812D01*
X135263865Y-89880497D01*
X135249500Y-89934108D01*
X135249500Y-90065892D01*
X135266554Y-90129539D01*
X135283608Y-90193187D01*
X135291475Y-90206812D01*
X135349500Y-90307314D01*
X135442686Y-90400500D01*
X135556814Y-90466392D01*
X135684108Y-90500500D01*
X135684110Y-90500500D01*
X135815890Y-90500500D01*
X135815892Y-90500500D01*
X135943186Y-90466392D01*
X136057314Y-90400500D01*
X136150500Y-90307314D01*
X136216392Y-90193186D01*
X136250500Y-90065892D01*
X136250500Y-89934108D01*
X136216392Y-89806814D01*
X136176084Y-89736998D01*
X136159611Y-89669098D01*
X136176084Y-89612998D01*
X136216392Y-89543183D01*
X136250500Y-89415889D01*
X136250500Y-89414108D01*
X144299500Y-89414108D01*
X144299500Y-89545892D01*
X144300803Y-89550755D01*
X144333608Y-89673187D01*
X144344866Y-89692686D01*
X144399500Y-89787314D01*
X144492686Y-89880500D01*
X144606814Y-89946392D01*
X144734108Y-89980500D01*
X144734110Y-89980500D01*
X144865890Y-89980500D01*
X144865892Y-89980500D01*
X144993186Y-89946392D01*
X145107314Y-89880500D01*
X145200500Y-89787314D01*
X145266392Y-89673186D01*
X145300500Y-89545892D01*
X145300500Y-89414108D01*
X145266392Y-89286814D01*
X145200500Y-89172686D01*
X145107314Y-89079500D01*
X145012909Y-89024995D01*
X144993187Y-89013608D01*
X144929539Y-88996554D01*
X144865892Y-88979500D01*
X144734108Y-88979500D01*
X144606812Y-89013608D01*
X144492686Y-89079500D01*
X144492683Y-89079502D01*
X144399502Y-89172683D01*
X144399500Y-89172686D01*
X144333608Y-89286812D01*
X144328115Y-89307314D01*
X144299500Y-89414108D01*
X136250500Y-89414108D01*
X136250500Y-89284105D01*
X136216392Y-89156811D01*
X136176084Y-89086995D01*
X136159611Y-89019095D01*
X136176084Y-88962995D01*
X136216392Y-88893180D01*
X136250500Y-88765886D01*
X136250500Y-88634102D01*
X136216392Y-88506808D01*
X136161652Y-88411997D01*
X136145179Y-88344098D01*
X136161653Y-88287996D01*
X136216389Y-88193191D01*
X136216390Y-88193189D01*
X136216392Y-88193186D01*
X136250500Y-88065892D01*
X136250500Y-87934108D01*
X136216392Y-87806814D01*
X136150500Y-87692686D01*
X136057314Y-87599500D01*
X136000250Y-87566554D01*
X135943187Y-87533608D01*
X135879539Y-87516554D01*
X135815892Y-87499500D01*
X135684108Y-87499500D01*
X135556812Y-87533608D01*
X135442686Y-87599500D01*
X135442683Y-87599502D01*
X135349502Y-87692683D01*
X135349500Y-87692686D01*
X135283608Y-87806812D01*
X135249500Y-87934108D01*
X90250500Y-87934108D01*
X90250500Y-86924108D01*
X101999500Y-86924108D01*
X101999500Y-87055891D01*
X102033608Y-87183187D01*
X102066554Y-87240250D01*
X102099500Y-87297314D01*
X102192686Y-87390500D01*
X102306814Y-87456392D01*
X102434108Y-87490500D01*
X102434110Y-87490500D01*
X102565890Y-87490500D01*
X102565892Y-87490500D01*
X102693186Y-87456392D01*
X102807314Y-87390500D01*
X102900500Y-87297314D01*
X102966392Y-87183186D01*
X103000500Y-87055892D01*
X103000500Y-86924108D01*
X102966392Y-86796814D01*
X102900500Y-86682686D01*
X102807314Y-86589500D01*
X102750250Y-86556554D01*
X102693187Y-86523608D01*
X102629539Y-86506554D01*
X102565892Y-86489500D01*
X102434108Y-86489500D01*
X102306812Y-86523608D01*
X102192686Y-86589500D01*
X102192683Y-86589502D01*
X102099502Y-86682683D01*
X102099500Y-86682686D01*
X102033608Y-86796812D01*
X101999500Y-86924108D01*
X90250500Y-86924108D01*
X90250500Y-68901577D01*
X104749500Y-68901577D01*
X104749500Y-69098422D01*
X104780290Y-69292826D01*
X104841117Y-69480029D01*
X104930476Y-69655405D01*
X105046172Y-69814646D01*
X105185354Y-69953828D01*
X105344595Y-70069524D01*
X105427455Y-70111743D01*
X105519970Y-70158882D01*
X105519972Y-70158882D01*
X105519975Y-70158884D01*
X105620317Y-70191487D01*
X105707173Y-70219709D01*
X105901578Y-70250500D01*
X105901583Y-70250500D01*
X106098422Y-70250500D01*
X106292826Y-70219709D01*
X106480025Y-70158884D01*
X106655405Y-70069524D01*
X106814646Y-69953828D01*
X106953828Y-69814646D01*
X107069524Y-69655405D01*
X107158884Y-69480025D01*
X107219709Y-69292826D01*
X107250500Y-69098422D01*
X107250500Y-68901577D01*
X109749500Y-68901577D01*
X109749500Y-69098422D01*
X109780290Y-69292826D01*
X109841117Y-69480029D01*
X109930476Y-69655405D01*
X110046172Y-69814646D01*
X110185354Y-69953828D01*
X110344595Y-70069524D01*
X110427455Y-70111743D01*
X110519970Y-70158882D01*
X110519972Y-70158882D01*
X110519975Y-70158884D01*
X110620317Y-70191487D01*
X110707173Y-70219709D01*
X110901578Y-70250500D01*
X110901583Y-70250500D01*
X111098422Y-70250500D01*
X111292826Y-70219709D01*
X111480025Y-70158884D01*
X111655405Y-70069524D01*
X111814646Y-69953828D01*
X111937983Y-69830491D01*
X116549500Y-69830491D01*
X116549500Y-70169508D01*
X116582729Y-70506901D01*
X116648870Y-70839410D01*
X116747284Y-71163841D01*
X116877024Y-71477060D01*
X116877026Y-71477065D01*
X117036831Y-71776039D01*
X117036842Y-71776057D01*
X117225184Y-72057930D01*
X117225194Y-72057944D01*
X117440269Y-72320014D01*
X117679985Y-72559730D01*
X117679990Y-72559734D01*
X117679991Y-72559735D01*
X117942061Y-72774810D01*
X118223949Y-72963162D01*
X118223958Y-72963167D01*
X118223960Y-72963168D01*
X118522934Y-73122973D01*
X118522936Y-73122973D01*
X118522942Y-73122977D01*
X118836160Y-73252716D01*
X119160586Y-73351129D01*
X119493096Y-73417270D01*
X119830488Y-73450500D01*
X119830491Y-73450500D01*
X120169509Y-73450500D01*
X120169512Y-73450500D01*
X120506904Y-73417270D01*
X120839414Y-73351129D01*
X121163840Y-73252716D01*
X121477058Y-73122977D01*
X121776051Y-72963162D01*
X122057939Y-72774810D01*
X122320009Y-72559735D01*
X122559735Y-72320009D01*
X122774810Y-72057939D01*
X122963162Y-71776051D01*
X123122977Y-71477058D01*
X123252716Y-71163840D01*
X123351129Y-70839414D01*
X123417270Y-70506904D01*
X123450500Y-70169512D01*
X123450500Y-69830491D01*
X156549500Y-69830491D01*
X156549500Y-70169508D01*
X156582729Y-70506901D01*
X156648870Y-70839410D01*
X156747284Y-71163841D01*
X156877024Y-71477060D01*
X156877026Y-71477065D01*
X157036831Y-71776039D01*
X157036842Y-71776057D01*
X157225184Y-72057930D01*
X157225194Y-72057944D01*
X157440269Y-72320014D01*
X157679985Y-72559730D01*
X157679990Y-72559734D01*
X157679991Y-72559735D01*
X157942061Y-72774810D01*
X158223949Y-72963162D01*
X158223958Y-72963167D01*
X158223960Y-72963168D01*
X158522934Y-73122973D01*
X158522936Y-73122973D01*
X158522942Y-73122977D01*
X158836160Y-73252716D01*
X159160586Y-73351129D01*
X159493096Y-73417270D01*
X159830488Y-73450500D01*
X159830491Y-73450500D01*
X160169509Y-73450500D01*
X160169512Y-73450500D01*
X160506904Y-73417270D01*
X160839414Y-73351129D01*
X161163840Y-73252716D01*
X161477058Y-73122977D01*
X161776051Y-72963162D01*
X162057939Y-72774810D01*
X162320009Y-72559735D01*
X162559735Y-72320009D01*
X162774810Y-72057939D01*
X162963162Y-71776051D01*
X163122977Y-71477058D01*
X163252716Y-71163840D01*
X163351129Y-70839414D01*
X163417270Y-70506904D01*
X163450500Y-70169512D01*
X163450500Y-69830488D01*
X163417270Y-69493096D01*
X163351129Y-69160586D01*
X163252716Y-68836160D01*
X163122977Y-68522942D01*
X163121388Y-68519970D01*
X162963168Y-68223960D01*
X162963167Y-68223958D01*
X162963162Y-68223949D01*
X162774810Y-67942061D01*
X162559735Y-67679991D01*
X162559734Y-67679990D01*
X162559730Y-67679985D01*
X162320014Y-67440269D01*
X162057944Y-67225194D01*
X162057943Y-67225193D01*
X162057939Y-67225190D01*
X161776051Y-67036838D01*
X161776046Y-67036835D01*
X161776039Y-67036831D01*
X161477065Y-66877026D01*
X161477060Y-66877024D01*
X161163841Y-66747284D01*
X160973382Y-66689509D01*
X160839414Y-66648871D01*
X160839411Y-66648870D01*
X160839410Y-66648870D01*
X160506901Y-66582729D01*
X160269199Y-66559318D01*
X160169512Y-66549500D01*
X159830488Y-66549500D01*
X159739738Y-66558437D01*
X159493098Y-66582729D01*
X159160589Y-66648870D01*
X158836158Y-66747284D01*
X158522939Y-66877024D01*
X158522934Y-66877026D01*
X158223960Y-67036831D01*
X158223942Y-67036842D01*
X157942069Y-67225184D01*
X157942055Y-67225194D01*
X157679985Y-67440269D01*
X157440269Y-67679985D01*
X157225194Y-67942055D01*
X157225184Y-67942069D01*
X157036842Y-68223942D01*
X157036831Y-68223960D01*
X156877026Y-68522934D01*
X156877024Y-68522939D01*
X156747284Y-68836158D01*
X156648870Y-69160589D01*
X156582729Y-69493098D01*
X156566744Y-69655405D01*
X156551061Y-69814646D01*
X156549500Y-69830491D01*
X123450500Y-69830491D01*
X123450500Y-69830488D01*
X123417270Y-69493096D01*
X123351129Y-69160586D01*
X123252716Y-68836160D01*
X123122977Y-68522942D01*
X123121388Y-68519970D01*
X122963168Y-68223960D01*
X122963167Y-68223958D01*
X122963162Y-68223949D01*
X122774810Y-67942061D01*
X122559735Y-67679991D01*
X122559734Y-67679990D01*
X122559730Y-67679985D01*
X122320014Y-67440269D01*
X122057944Y-67225194D01*
X122057943Y-67225193D01*
X122057939Y-67225190D01*
X121776051Y-67036838D01*
X121776046Y-67036835D01*
X121776039Y-67036831D01*
X121477065Y-66877026D01*
X121477060Y-66877024D01*
X121163841Y-66747284D01*
X120973382Y-66689509D01*
X120839414Y-66648871D01*
X120839411Y-66648870D01*
X120839410Y-66648870D01*
X120506901Y-66582729D01*
X120269199Y-66559318D01*
X120169512Y-66549500D01*
X119830488Y-66549500D01*
X119739738Y-66558437D01*
X119493098Y-66582729D01*
X119160589Y-66648870D01*
X118836158Y-66747284D01*
X118522939Y-66877024D01*
X118522934Y-66877026D01*
X118223960Y-67036831D01*
X118223942Y-67036842D01*
X117942069Y-67225184D01*
X117942055Y-67225194D01*
X117679985Y-67440269D01*
X117440269Y-67679985D01*
X117225194Y-67942055D01*
X117225184Y-67942069D01*
X117036842Y-68223942D01*
X117036831Y-68223960D01*
X116877026Y-68522934D01*
X116877024Y-68522939D01*
X116747284Y-68836158D01*
X116648870Y-69160589D01*
X116582729Y-69493098D01*
X116566744Y-69655405D01*
X116551061Y-69814646D01*
X116549500Y-69830491D01*
X111937983Y-69830491D01*
X111953828Y-69814646D01*
X112069524Y-69655405D01*
X112158884Y-69480025D01*
X112219709Y-69292826D01*
X112250500Y-69098422D01*
X112250500Y-68901577D01*
X112219709Y-68707173D01*
X112158882Y-68519970D01*
X112069523Y-68344594D01*
X111953828Y-68185354D01*
X111814646Y-68046172D01*
X111655405Y-67930476D01*
X111480029Y-67841117D01*
X111292826Y-67780290D01*
X111098422Y-67749500D01*
X111098417Y-67749500D01*
X110901583Y-67749500D01*
X110901578Y-67749500D01*
X110707173Y-67780290D01*
X110519970Y-67841117D01*
X110344594Y-67930476D01*
X110253741Y-67996485D01*
X110185354Y-68046172D01*
X110185352Y-68046174D01*
X110185351Y-68046174D01*
X110046174Y-68185351D01*
X110046174Y-68185352D01*
X110046172Y-68185354D01*
X110018136Y-68223942D01*
X109930476Y-68344594D01*
X109841117Y-68519970D01*
X109780290Y-68707173D01*
X109749500Y-68901577D01*
X107250500Y-68901577D01*
X107219709Y-68707173D01*
X107158882Y-68519970D01*
X107069523Y-68344594D01*
X106953828Y-68185354D01*
X106814646Y-68046172D01*
X106655405Y-67930476D01*
X106480029Y-67841117D01*
X106292826Y-67780290D01*
X106098422Y-67749500D01*
X106098417Y-67749500D01*
X105901583Y-67749500D01*
X105901578Y-67749500D01*
X105707173Y-67780290D01*
X105519970Y-67841117D01*
X105344594Y-67930476D01*
X105253741Y-67996485D01*
X105185354Y-68046172D01*
X105185352Y-68046174D01*
X105185351Y-68046174D01*
X105046174Y-68185351D01*
X105046174Y-68185352D01*
X105046172Y-68185354D01*
X105018136Y-68223942D01*
X104930476Y-68344594D01*
X104841117Y-68519970D01*
X104780290Y-68707173D01*
X104749500Y-68901577D01*
X90250500Y-68901577D01*
X90250500Y-64434108D01*
X106239500Y-64434108D01*
X106239500Y-64565892D01*
X106256554Y-64629539D01*
X106273608Y-64693187D01*
X106279382Y-64703187D01*
X106339500Y-64807314D01*
X106432686Y-64900500D01*
X106546814Y-64966392D01*
X106674108Y-65000500D01*
X106674110Y-65000500D01*
X106805890Y-65000500D01*
X106805892Y-65000500D01*
X106933186Y-64966392D01*
X107047314Y-64900500D01*
X107140500Y-64807314D01*
X107206392Y-64693186D01*
X107240500Y-64565892D01*
X107240500Y-64434108D01*
X109509500Y-64434108D01*
X109509500Y-64565892D01*
X109526554Y-64629539D01*
X109543608Y-64693187D01*
X109549382Y-64703187D01*
X109609500Y-64807314D01*
X109702686Y-64900500D01*
X109816814Y-64966392D01*
X109944108Y-65000500D01*
X109944110Y-65000500D01*
X110075890Y-65000500D01*
X110075892Y-65000500D01*
X110203186Y-64966392D01*
X110317314Y-64900500D01*
X110410500Y-64807314D01*
X110476392Y-64693186D01*
X110510500Y-64565892D01*
X110510500Y-64444108D01*
X111499500Y-64444108D01*
X111499500Y-64575891D01*
X111533608Y-64703187D01*
X111566554Y-64760250D01*
X111599500Y-64817314D01*
X111692686Y-64910500D01*
X111806814Y-64976392D01*
X111934108Y-65010500D01*
X111934110Y-65010500D01*
X112065890Y-65010500D01*
X112065892Y-65010500D01*
X112193186Y-64976392D01*
X112307314Y-64910500D01*
X112400500Y-64817314D01*
X112466392Y-64703186D01*
X112500500Y-64575892D01*
X112500500Y-64444108D01*
X112466392Y-64316814D01*
X112460618Y-64306814D01*
X112457563Y-64301521D01*
X112400500Y-64202686D01*
X112307314Y-64109500D01*
X112250250Y-64076554D01*
X112193187Y-64043608D01*
X112129539Y-64026554D01*
X112065892Y-64009500D01*
X111934108Y-64009500D01*
X111806812Y-64043608D01*
X111692686Y-64109500D01*
X111692683Y-64109502D01*
X111599502Y-64202683D01*
X111599500Y-64202686D01*
X111533608Y-64316812D01*
X111499500Y-64444108D01*
X110510500Y-64444108D01*
X110510500Y-64434108D01*
X110476392Y-64306814D01*
X110410500Y-64192686D01*
X110317314Y-64099500D01*
X110260250Y-64066554D01*
X110203187Y-64033608D01*
X110139539Y-64016554D01*
X110075892Y-63999500D01*
X109944108Y-63999500D01*
X109816812Y-64033608D01*
X109702686Y-64099500D01*
X109702683Y-64099502D01*
X109609502Y-64192683D01*
X109609500Y-64192686D01*
X109543608Y-64306812D01*
X109509500Y-64434108D01*
X107240500Y-64434108D01*
X107206392Y-64306814D01*
X107140500Y-64192686D01*
X107047314Y-64099500D01*
X106990250Y-64066554D01*
X106933187Y-64033608D01*
X106869539Y-64016554D01*
X106805892Y-63999500D01*
X106674108Y-63999500D01*
X106546812Y-64033608D01*
X106432686Y-64099500D01*
X106432683Y-64099502D01*
X106339502Y-64192683D01*
X106339500Y-64192686D01*
X106273608Y-64306812D01*
X106239500Y-64434108D01*
X90250500Y-64434108D01*
X90250500Y-62353919D01*
X118353184Y-62353919D01*
X118424197Y-62390102D01*
X118648752Y-62463065D01*
X118648751Y-62463065D01*
X118881948Y-62500000D01*
X119118052Y-62500000D01*
X119351247Y-62463065D01*
X119575797Y-62390104D01*
X119646814Y-62353919D01*
X119000001Y-61707106D01*
X119000000Y-61707106D01*
X118353184Y-62353919D01*
X90250500Y-62353919D01*
X90250500Y-60881947D01*
X117500000Y-60881947D01*
X117500000Y-61118052D01*
X117536934Y-61351247D01*
X117609898Y-61575805D01*
X117646078Y-61646813D01*
X117646079Y-61646814D01*
X118292894Y-61000000D01*
X118227068Y-60934174D01*
X118500000Y-60934174D01*
X118500000Y-61065826D01*
X118534075Y-61192993D01*
X118599901Y-61307007D01*
X118692993Y-61400099D01*
X118807007Y-61465925D01*
X118934174Y-61500000D01*
X119065826Y-61500000D01*
X119192993Y-61465925D01*
X119307007Y-61400099D01*
X119400099Y-61307007D01*
X119465925Y-61192993D01*
X119500000Y-61065826D01*
X119500000Y-60999999D01*
X119707106Y-60999999D01*
X119707106Y-61000000D01*
X120353919Y-61646814D01*
X120390104Y-61575797D01*
X120463065Y-61351247D01*
X120500000Y-61118052D01*
X120500000Y-60901577D01*
X136499500Y-60901577D01*
X136499500Y-61098422D01*
X136530290Y-61292826D01*
X136591117Y-61480029D01*
X136639918Y-61575805D01*
X136680476Y-61655405D01*
X136796172Y-61814646D01*
X136935354Y-61953828D01*
X137094595Y-62069524D01*
X137177455Y-62111743D01*
X137269970Y-62158882D01*
X137269972Y-62158882D01*
X137269975Y-62158884D01*
X137370317Y-62191487D01*
X137457173Y-62219709D01*
X137651578Y-62250500D01*
X137651583Y-62250500D01*
X137848422Y-62250500D01*
X138042826Y-62219709D01*
X138230025Y-62158884D01*
X138405405Y-62069524D01*
X138564646Y-61953828D01*
X138703828Y-61814646D01*
X138819524Y-61655405D01*
X138908884Y-61480025D01*
X138969709Y-61292826D01*
X138985521Y-61192993D01*
X139000500Y-61098422D01*
X139000500Y-60901577D01*
X140749500Y-60901577D01*
X140749500Y-61098422D01*
X140780290Y-61292826D01*
X140841117Y-61480029D01*
X140889918Y-61575805D01*
X140930476Y-61655405D01*
X141046172Y-61814646D01*
X141185354Y-61953828D01*
X141344595Y-62069524D01*
X141427455Y-62111743D01*
X141519970Y-62158882D01*
X141519972Y-62158882D01*
X141519975Y-62158884D01*
X141620317Y-62191487D01*
X141707173Y-62219709D01*
X141901578Y-62250500D01*
X141901583Y-62250500D01*
X142098422Y-62250500D01*
X142292826Y-62219709D01*
X142480025Y-62158884D01*
X142655405Y-62069524D01*
X142814646Y-61953828D01*
X142953828Y-61814646D01*
X143069524Y-61655405D01*
X143158884Y-61480025D01*
X143219709Y-61292826D01*
X143235521Y-61192993D01*
X143250500Y-61098422D01*
X143250500Y-60901577D01*
X143219709Y-60707173D01*
X143158882Y-60519970D01*
X143069523Y-60344594D01*
X142953828Y-60185354D01*
X142814646Y-60046172D01*
X142655405Y-59930476D01*
X142480029Y-59841117D01*
X142292826Y-59780290D01*
X142098422Y-59749500D01*
X142098417Y-59749500D01*
X141901583Y-59749500D01*
X141901578Y-59749500D01*
X141707173Y-59780290D01*
X141519970Y-59841117D01*
X141344594Y-59930476D01*
X141253741Y-59996485D01*
X141185354Y-60046172D01*
X141185352Y-60046174D01*
X141185351Y-60046174D01*
X141046174Y-60185351D01*
X141046174Y-60185352D01*
X141046172Y-60185354D01*
X140996485Y-60253741D01*
X140930476Y-60344594D01*
X140841117Y-60519970D01*
X140780290Y-60707173D01*
X140749500Y-60901577D01*
X139000500Y-60901577D01*
X138969709Y-60707173D01*
X138908882Y-60519970D01*
X138819523Y-60344594D01*
X138703828Y-60185354D01*
X138564646Y-60046172D01*
X138405405Y-59930476D01*
X138230029Y-59841117D01*
X138042826Y-59780290D01*
X137848422Y-59749500D01*
X137848417Y-59749500D01*
X137651583Y-59749500D01*
X137651578Y-59749500D01*
X137457173Y-59780290D01*
X137269970Y-59841117D01*
X137094594Y-59930476D01*
X137003741Y-59996485D01*
X136935354Y-60046172D01*
X136935352Y-60046174D01*
X136935351Y-60046174D01*
X136796174Y-60185351D01*
X136796174Y-60185352D01*
X136796172Y-60185354D01*
X136746485Y-60253741D01*
X136680476Y-60344594D01*
X136591117Y-60519970D01*
X136530290Y-60707173D01*
X136499500Y-60901577D01*
X120500000Y-60901577D01*
X120500000Y-60881947D01*
X120463065Y-60648752D01*
X120390102Y-60424197D01*
X120353919Y-60353184D01*
X119707106Y-60999999D01*
X119500000Y-60999999D01*
X119500000Y-60934174D01*
X119465925Y-60807007D01*
X119400099Y-60692993D01*
X119307007Y-60599901D01*
X119192993Y-60534075D01*
X119065826Y-60500000D01*
X118934174Y-60500000D01*
X118807007Y-60534075D01*
X118692993Y-60599901D01*
X118599901Y-60692993D01*
X118534075Y-60807007D01*
X118500000Y-60934174D01*
X118227068Y-60934174D01*
X117646078Y-60353184D01*
X117609894Y-60424202D01*
X117609894Y-60424203D01*
X117536934Y-60648751D01*
X117500000Y-60881947D01*
X90250500Y-60881947D01*
X90250500Y-59646078D01*
X118353184Y-59646078D01*
X119000000Y-60292894D01*
X119000001Y-60292894D01*
X119646814Y-59646079D01*
X119646813Y-59646078D01*
X119575805Y-59609898D01*
X119351247Y-59536934D01*
X119351248Y-59536934D01*
X119118052Y-59500000D01*
X118881948Y-59500000D01*
X118648751Y-59536934D01*
X118424203Y-59609894D01*
X118424202Y-59609894D01*
X118353184Y-59646078D01*
X90250500Y-59646078D01*
X90250500Y-57784108D01*
X107374500Y-57784108D01*
X107374500Y-57915891D01*
X107408608Y-58043187D01*
X107441554Y-58100250D01*
X107474500Y-58157314D01*
X107567686Y-58250500D01*
X107681814Y-58316392D01*
X107809108Y-58350500D01*
X107809110Y-58350500D01*
X107940890Y-58350500D01*
X107940892Y-58350500D01*
X108068186Y-58316392D01*
X108182314Y-58250500D01*
X108275500Y-58157314D01*
X108341392Y-58043186D01*
X108375500Y-57915892D01*
X108375500Y-57784108D01*
X108341392Y-57656814D01*
X108275500Y-57542686D01*
X108182314Y-57449500D01*
X108125250Y-57416554D01*
X108068187Y-57383608D01*
X108004539Y-57366554D01*
X107940892Y-57349500D01*
X107809108Y-57349500D01*
X107681812Y-57383608D01*
X107567686Y-57449500D01*
X107567683Y-57449502D01*
X107474502Y-57542683D01*
X107474500Y-57542686D01*
X107408608Y-57656812D01*
X107374500Y-57784108D01*
X90250500Y-57784108D01*
X90250500Y-43003480D01*
X90250695Y-42996528D01*
X90253298Y-42950172D01*
X90267398Y-42699097D01*
X90268952Y-42685298D01*
X90318269Y-42395041D01*
X90321363Y-42381489D01*
X90402866Y-42098586D01*
X90407459Y-42085462D01*
X90428981Y-42033502D01*
X90520123Y-41813463D01*
X90526145Y-41800957D01*
X90668572Y-41543257D01*
X90675950Y-41531514D01*
X90846339Y-41291374D01*
X90854977Y-41280542D01*
X91051179Y-41060991D01*
X91060991Y-41051179D01*
X91280542Y-40854977D01*
X91291374Y-40846339D01*
X91531514Y-40675950D01*
X91543257Y-40668572D01*
X91800957Y-40526145D01*
X91813463Y-40520123D01*
X92085462Y-40407459D01*
X92098582Y-40402867D01*
X92381494Y-40321361D01*
X92395041Y-40318269D01*
X92685298Y-40268952D01*
X92699097Y-40267398D01*
X92959562Y-40252770D01*
X92996529Y-40250695D01*
X93003481Y-40250500D01*
X93044170Y-40250500D01*
X186955830Y-40250500D01*
X186996519Y-40250500D01*
X187003471Y-40250695D01*
G37*
%TD.AperFunction*%
%TD*%
M02*
