%TF.GenerationSoftware,KiCad,Pcbnew,10.0.6-10.0.6~ubuntu24.04.1*%
%TF.CreationDate,2026-10-04T15:24:39-04:00*%
%TF.ProjectId,integration-test,696e7465-6772-4617-9469-6f6e2d746573,v1.0*%
%TF.SameCoordinates,Original*%
%TF.FileFunction,Copper,L4,Bot*%
%TF.FilePolarity,Positive*%
%FSLAX46Y46*%
G04 Gerber Fmt 4.6, Leading zero omitted, Abs format (unit mm)*
G04 Created by KiCad (PCBNEW 10.0.6-10.0.6~ubuntu24.04.1) date 2026-10-04 15:24:39*
%MOMM*%
%LPD*%
G01*
G04 APERTURE LIST*
G04 Aperture macros list*
%AMRoundRect*
0 Rectangle with rounded corners*
0 $1 Rounding radius*
0 $2 $3 $4 $5 $6 $7 $8 $9 X,Y pos of 4 corners*
0 Add a 4 corners polygon primitive as box body*
4,1,4,$2,$3,$4,$5,$6,$7,$8,$9,$2,$3,0*
0 Add four circle primitives for the rounded corners*
1,1,$1+$1,$2,$3*
1,1,$1+$1,$4,$5*
1,1,$1+$1,$6,$7*
1,1,$1+$1,$8,$9*
0 Add four rect primitives between the rounded corners*
20,1,$1+$1,$2,$3,$4,$5,0*
20,1,$1+$1,$4,$5,$6,$7,0*
20,1,$1+$1,$6,$7,$8,$9,0*
20,1,$1+$1,$8,$9,$2,$3,0*%
G04 Aperture macros list end*
%TA.AperFunction,ComponentPad*%
%ADD10C,2.000000*%
%TD*%
%TA.AperFunction,ComponentPad*%
%ADD11C,6.400000*%
%TD*%
%TA.AperFunction,ComponentPad*%
%ADD12RoundRect,0.250001X1.099999X1.099999X-1.099999X1.099999X-1.099999X-1.099999X1.099999X-1.099999X0*%
%TD*%
%TA.AperFunction,ComponentPad*%
%ADD13C,2.700000*%
%TD*%
%TA.AperFunction,ComponentPad*%
%ADD14RoundRect,0.250000X0.625000X-0.350000X0.625000X0.350000X-0.625000X0.350000X-0.625000X-0.350000X0*%
%TD*%
%TA.AperFunction,ComponentPad*%
%ADD15O,1.750000X1.200000*%
%TD*%
%TA.AperFunction,HeatsinkPad*%
%ADD16C,0.500000*%
%TD*%
%TA.AperFunction,HeatsinkPad*%
%ADD17R,0.500000X2.400000*%
%TD*%
%TA.AperFunction,ViaPad*%
%ADD18C,0.600000*%
%TD*%
%TA.AperFunction,Conductor*%
%ADD19C,0.200000*%
%TD*%
%TA.AperFunction,Conductor*%
%ADD20C,2.000000*%
%TD*%
%TA.AperFunction,Conductor*%
%ADD21C,1.000000*%
%TD*%
%TA.AperFunction,Conductor*%
%ADD22C,0.180000*%
%TD*%
%TA.AperFunction,Conductor*%
%ADD23C,0.500000*%
%TD*%
G04 APERTURE END LIST*
D10*
%TO.P,I2C_{SDA},1,1_1*%
%TO.N,/MOSFET Temperature Sensor/I2C.SDA*%
X142500000Y-111000000D03*
%TD*%
%TO.P,I2C_{SCL},1,1_1*%
%TO.N,/MOSFET Temperature Sensor/I2C.SCL*%
X146250000Y-111000000D03*
%TD*%
%TO.P,GND,1,1_1*%
%TO.N,GND*%
X109500000Y-124100000D03*
%TD*%
%TO.P,GND,1,1_1*%
%TO.N,GND*%
X138200000Y-74500000D03*
%TD*%
D11*
%TO.P,H2,1,1_1*%
%TO.N,GND*%
X185000000Y-45000000D03*
%TD*%
D10*
%TO.P,OCCOMP,1,1_1*%
%TO.N,Net-(U4E-OCCOMP)*%
X186400000Y-125700000D03*
%TD*%
%TO.P,+5V,1,1_1*%
%TO.N,+5V*%
X176750000Y-76850000D03*
%TD*%
%TO.P,GND,1,1_1*%
%TO.N,GND*%
X180400000Y-72500000D03*
%TD*%
D12*
%TO.P,J1,1,Pin_1_1*%
%TO.N,GND*%
X165760000Y-55300000D03*
D13*
%TO.P,J1,2,Pin_2_2*%
%TO.N,Net-(J1-Pin_2)*%
X161800000Y-55300000D03*
%TD*%
D10*
%TO.P,REG12,1,1_1*%
%TO.N,Net-(U4A-REG12)*%
X163500000Y-126600000D03*
%TD*%
%TO.P,+3.3V,1,1_1*%
%TO.N,+3.3V*%
X144900000Y-74500000D03*
%TD*%
D11*
%TO.P,H4,1,1_1*%
%TO.N,GND*%
X185000000Y-135000000D03*
%TD*%
D10*
%TO.P,GND,1,1_1*%
%TO.N,GND*%
X175250000Y-53750000D03*
%TD*%
D11*
%TO.P,H3,1,1_1*%
%TO.N,GND*%
X95000000Y-135000000D03*
%TD*%
D10*
%TO.P,+3.3V,1,1_1*%
%TO.N,+3.3V*%
X142000000Y-134400000D03*
%TD*%
%TO.P,VBUS,1,1_1*%
%TO.N,VBUS*%
X163750000Y-69750000D03*
%TD*%
D11*
%TO.P,H1,1,1_1*%
%TO.N,GND*%
X95000000Y-45000000D03*
%TD*%
D10*
%TO.P,GND,1,1_1*%
%TO.N,GND*%
X137000000Y-99000000D03*
%TD*%
D14*
%TO.P,J4,1,PHASE_U_1*%
%TO.N,/Motor Connections/MOTORU*%
X183350000Y-96000000D03*
D15*
%TO.P,J4,2,PHASE_V_2*%
%TO.N,/Motor Connections/MOTORV*%
X183350000Y-94000000D03*
%TO.P,J4,3,PHASE_W_3*%
%TO.N,/Motor Connections/MOTORW*%
X183350000Y-92000000D03*
%TO.P,J4,4,+5V_4*%
%TO.N,+5V*%
X183350000Y-90000000D03*
%TO.P,J4,5,GND_5*%
%TO.N,GND*%
X183350000Y-88000000D03*
%TO.P,J4,6,HALL_A_6*%
%TO.N,/Motor Connections/HALL.A*%
X183350000Y-86000000D03*
%TO.P,J4,7,HALL_B_7*%
%TO.N,/Motor Connections/HALL.B*%
X183350000Y-84000000D03*
%TO.P,J4,8,HALL_C_8*%
%TO.N,/Motor Connections/HALL.C*%
X183350000Y-82000000D03*
%TD*%
D10*
%TO.P,TP24/I_{SENSE},1,1_1*%
%TO.N,/Motor Controller/I_{SENSE}*%
X180700000Y-125900000D03*
%TD*%
D16*
%TO.P,U2,11,PAD_11*%
%TO.N,GND*%
X154800000Y-73600000D03*
X154800000Y-72650000D03*
D17*
X154800000Y-72650000D03*
D16*
X154800000Y-71700000D03*
%TD*%
D18*
%TO.N,+3.3V*%
X151500000Y-75500000D03*
X150500000Y-75500000D03*
X150500000Y-76250000D03*
X127100000Y-129400000D03*
X149500000Y-75500000D03*
X167500000Y-134600000D03*
X183700000Y-106600000D03*
X160900000Y-129800000D03*
X168900000Y-83300000D03*
X165300000Y-116000000D03*
X154500000Y-128900000D03*
X175600000Y-110000000D03*
X168900000Y-80900000D03*
X151500000Y-76250000D03*
X178050000Y-133750000D03*
X184300000Y-108900000D03*
X142000000Y-130300000D03*
X176660000Y-106400000D03*
X149500000Y-76250000D03*
X184600000Y-107600000D03*
X150600000Y-113400000D03*
X167500000Y-135500000D03*
%TO.N,VBUS*%
X167100000Y-102000000D03*
X165500000Y-89900000D03*
X167100000Y-96000000D03*
X163700000Y-100500000D03*
X163800000Y-89900000D03*
X160950000Y-89500000D03*
X160100000Y-62900000D03*
X167100000Y-100500000D03*
X167300000Y-76200000D03*
X163700000Y-93000000D03*
X162500000Y-62200000D03*
X160900000Y-62900000D03*
X165500000Y-88400000D03*
X165400000Y-102000000D03*
X159750000Y-89500000D03*
X160500000Y-73600000D03*
X160500000Y-72200000D03*
X163300000Y-62900000D03*
X163800000Y-86900000D03*
X173400000Y-123325000D03*
X160700000Y-97700000D03*
X161700000Y-62900000D03*
X160950000Y-88700000D03*
X162000000Y-98500000D03*
X167200000Y-88400000D03*
X165400000Y-93000000D03*
X162000000Y-97700000D03*
X165400000Y-99000000D03*
X159500000Y-98500000D03*
X165400000Y-94500000D03*
X159500000Y-97700000D03*
X163700000Y-96000000D03*
X159500000Y-73600000D03*
X161700000Y-62200000D03*
X167300000Y-77600000D03*
X160900000Y-62200000D03*
X167100000Y-93000000D03*
X163700000Y-102000000D03*
X162250000Y-88700000D03*
X163700000Y-99000000D03*
X163700000Y-94500000D03*
X170500000Y-123000000D03*
X165400000Y-100500000D03*
X167200000Y-89900000D03*
X167100000Y-99000000D03*
X165400000Y-96000000D03*
X160500000Y-72900000D03*
X162250000Y-89500000D03*
X167200000Y-86900000D03*
X165500000Y-86900000D03*
X163800000Y-88400000D03*
X162500000Y-62900000D03*
X167300000Y-76900000D03*
X167100000Y-94500000D03*
X163300000Y-62200000D03*
X159500000Y-72900000D03*
X160700000Y-98500000D03*
X159500000Y-72200000D03*
X160100000Y-62200000D03*
X159750000Y-88700000D03*
%TO.N,/Motor Connections/HALL.A*%
X181500000Y-121900000D03*
X185800000Y-106300000D03*
%TO.N,/Motor Connections/HALL.B*%
X183224265Y-121024265D03*
X186750000Y-108100000D03*
%TO.N,/Motor Connections/HALL.C*%
X185150000Y-120450000D03*
X187700000Y-117800000D03*
%TO.N,/External Connections/SPI.CSN*%
X175000000Y-132000000D03*
X175000000Y-119600000D03*
%TO.N,/External Connections/SPI.SCK*%
X175800000Y-130300000D03*
X175800000Y-119600000D03*
%TO.N,/External Connections/SPI.MISO*%
X176600000Y-119600000D03*
X176600000Y-129100000D03*
%TO.N,GND*%
X154500000Y-89500000D03*
X130600500Y-57921008D03*
X100600500Y-109882532D03*
X130600500Y-75241516D03*
X155600500Y-83901770D03*
X178500000Y-114000000D03*
X154500000Y-97700000D03*
X115600500Y-83901770D03*
X157000000Y-88700000D03*
X105600500Y-66581262D03*
X167900000Y-119100000D03*
X100600500Y-57921008D03*
X115600500Y-49260754D03*
X140600500Y-92562024D03*
X95600500Y-49260754D03*
X95600500Y-83901770D03*
X145600500Y-118542786D03*
X180600500Y-75241516D03*
X115600500Y-66581262D03*
X157000000Y-98500000D03*
X150600500Y-127203040D03*
X140600500Y-75241516D03*
X155800000Y-98500000D03*
X110600500Y-92562024D03*
X180600500Y-57921008D03*
X181400000Y-114000000D03*
X137368267Y-102990045D03*
X181400000Y-111900000D03*
X120600500Y-75241516D03*
X110600500Y-127203040D03*
X155800000Y-97700000D03*
X158300000Y-84700000D03*
X170300000Y-119100000D03*
X155700000Y-88700000D03*
X105600500Y-83901770D03*
X145600500Y-66581262D03*
X185600500Y-49260754D03*
X95600500Y-66581262D03*
X115600500Y-101222278D03*
X125600500Y-83901770D03*
X100600500Y-127203040D03*
X178500000Y-111900000D03*
X138832733Y-111650299D03*
X181400000Y-111200000D03*
X178500000Y-111200000D03*
X98100500Y-118542786D03*
X120600500Y-57921008D03*
X120600500Y-92562024D03*
X105600500Y-49260754D03*
X125600500Y-101222278D03*
X154500000Y-88700000D03*
X125600500Y-66581262D03*
X135600500Y-66581262D03*
X105600500Y-101222278D03*
X105600500Y-118542786D03*
X158600000Y-93800000D03*
X100600500Y-75241516D03*
X171200000Y-119100000D03*
X130600500Y-109882532D03*
X110600500Y-57921008D03*
X155600500Y-66581262D03*
X157000000Y-97700000D03*
X175600500Y-49260754D03*
X178100500Y-66581262D03*
X110600500Y-75241516D03*
X110600500Y-109882532D03*
X155600500Y-118542786D03*
X125600500Y-118542786D03*
X115600500Y-135863294D03*
X154500000Y-98500000D03*
X120600500Y-127203040D03*
X145600500Y-83901770D03*
X150600500Y-57921008D03*
X125600500Y-49260754D03*
X115600500Y-118542786D03*
X181400000Y-113300000D03*
X135600500Y-118542786D03*
X170600500Y-57921008D03*
X158300000Y-102500000D03*
X140600500Y-57921008D03*
X178500000Y-113300000D03*
X157368267Y-102990045D03*
X135600500Y-135863294D03*
X155700000Y-89500000D03*
X135600500Y-83901770D03*
X130600500Y-92562024D03*
X155600500Y-49260754D03*
X120600500Y-109882532D03*
X169500000Y-119100000D03*
X135600500Y-49260754D03*
X145600500Y-49260754D03*
X157368267Y-137631061D03*
X157000000Y-89500000D03*
X178500000Y-112600000D03*
X95600500Y-101222278D03*
X181400000Y-112600000D03*
X145600500Y-135863294D03*
X100600500Y-92562024D03*
X168832733Y-73473749D03*
X105600500Y-135863294D03*
%TO.N,/External Connections/SPI.MOSI*%
X177400000Y-126600000D03*
X177400000Y-119600000D03*
%TO.N,/Motor Controller/I_{SENSE}*%
X180600000Y-119700000D03*
%TO.N,Net-(U4E-OCCOMP)*%
X184400000Y-117700000D03*
X175000000Y-114200000D03*
%TO.N,/Motor Connections/MOTORW*%
X175100000Y-90300000D03*
X175100000Y-89500000D03*
X172900000Y-90300000D03*
X175100000Y-88700000D03*
X174000000Y-89500000D03*
X174000000Y-88700000D03*
X187250000Y-57500000D03*
X172900000Y-88700000D03*
X172900000Y-89500000D03*
X174000000Y-90300000D03*
%TO.N,/Motor Connections/MOTORV*%
X175200000Y-95700000D03*
X173200000Y-96500000D03*
X174200000Y-94800000D03*
X174200000Y-95700000D03*
X174200000Y-96500000D03*
X175200000Y-94800000D03*
X187250000Y-62000000D03*
X170540000Y-104500000D03*
X173200000Y-95700000D03*
X175200000Y-96500000D03*
%TO.N,/Motor Connections/MOTORU*%
X175100000Y-100100000D03*
X174300000Y-101700000D03*
X174300000Y-102500000D03*
X175100000Y-100900000D03*
X175100000Y-102500000D03*
X187250000Y-66250000D03*
X174300000Y-100900000D03*
X175100000Y-101700000D03*
%TO.N,/Motor Controller/SWD.IO*%
X131000000Y-118700000D03*
X133900000Y-117900000D03*
%TO.N,/MOSFET Temperature Sensor/I2C.SCL*%
X153100000Y-119400000D03*
X145250000Y-114000000D03*
%TO.N,/MOSFET Temperature Sensor/I2C.SDA*%
X153100000Y-120300000D03*
X143500000Y-114250000D03*
%TO.N,Net-(Q5-G)*%
X169325000Y-86495000D03*
X174450000Y-106690000D03*
%TO.N,Net-(Q4-G)*%
X167450000Y-106700000D03*
X177125000Y-92630000D03*
%TO.N,Net-(Q1-G)*%
X165450000Y-106680000D03*
X169275000Y-98630000D03*
%TO.N,Net-(Q3-G)*%
X169275000Y-92595000D03*
X169950000Y-106680000D03*
%TO.N,Net-(Q6-G)*%
X171950000Y-106690000D03*
X177175000Y-86530000D03*
%TO.N,Net-(Q2-G)*%
X177125000Y-98665000D03*
X162950000Y-106700000D03*
%TO.N,Net-(U2-SW)*%
X150500000Y-73150000D03*
X153000000Y-73150000D03*
X149500000Y-73150000D03*
X151500000Y-73150000D03*
%TD*%
%TO.N,+3.3V*%
D19*
X168900000Y-80900000D02*
X168900000Y-83300000D01*
%TO.N,VBUS*%
D20*
X160837500Y-98100000D02*
X160837500Y-120237500D01*
X160837500Y-120237500D02*
X165100000Y-124500000D01*
X169000000Y-124500000D02*
X169500000Y-124000000D01*
D19*
X173400000Y-123325000D02*
X170825000Y-123325000D01*
D21*
X170500000Y-123000000D02*
X169000000Y-124500000D01*
D20*
X165100000Y-124500000D02*
X169000000Y-124500000D01*
D19*
X170825000Y-123325000D02*
X170500000Y-123000000D01*
%TO.N,/Motor Connections/HALL.A*%
X185800000Y-106300000D02*
X185800000Y-117600000D01*
X185800000Y-117600000D02*
X181500000Y-121900000D01*
%TO.N,/Motor Connections/HALL.B*%
X186750000Y-117498530D02*
X183224265Y-121024265D01*
X186750000Y-108100000D02*
X186750000Y-117498530D01*
%TO.N,/Motor Connections/HALL.C*%
X187700000Y-117900000D02*
X185150000Y-120450000D01*
%TO.N,/External Connections/SPI.CSN*%
X175000000Y-132000000D02*
X175000000Y-119600000D01*
%TO.N,/External Connections/SPI.SCK*%
X175800000Y-130300000D02*
X175800000Y-119600000D01*
%TO.N,/External Connections/SPI.MISO*%
X176600000Y-129100000D02*
X176600000Y-119600000D01*
%TO.N,/External Connections/SPI.MOSI*%
X177400000Y-119600000D02*
X177400000Y-126600000D01*
%TO.N,/Motor Controller/I_{SENSE}*%
X180700000Y-119800000D02*
X180700000Y-125900000D01*
X180600000Y-119700000D02*
X180700000Y-119800000D01*
%TO.N,Net-(U4E-OCCOMP)*%
X182100000Y-115400000D02*
X184400000Y-117700000D01*
X176200000Y-115400000D02*
X182100000Y-115400000D01*
X175000000Y-114200000D02*
X176200000Y-115400000D01*
%TO.N,/Motor Connections/MOTORW*%
X187250000Y-57500000D02*
X184750000Y-60000000D01*
X184750000Y-60000000D02*
X184750000Y-90600000D01*
X184750000Y-90600000D02*
X183350000Y-92000000D01*
%TO.N,/Motor Connections/MOTORV*%
X187250000Y-62000000D02*
X186250000Y-63000000D01*
X186250000Y-91100000D02*
X183350000Y-94000000D01*
X186250000Y-63000000D02*
X186250000Y-91100000D01*
%TO.N,/Motor Connections/MOTORU*%
X188000000Y-91350000D02*
X183350000Y-96000000D01*
X187250000Y-66250000D02*
X188000000Y-67000000D01*
X188000000Y-67000000D02*
X188000000Y-91350000D01*
%TO.N,/Motor Controller/SWD.IO*%
X131800000Y-117900000D02*
X131000000Y-118700000D01*
X133900000Y-117900000D02*
X131800000Y-117900000D01*
%TO.N,/MOSFET Temperature Sensor/I2C.SCL*%
X145250000Y-114000000D02*
X150650000Y-119400000D01*
X150650000Y-119400000D02*
X153100000Y-119400000D01*
%TO.N,/MOSFET Temperature Sensor/I2C.SDA*%
X153100000Y-120300000D02*
X149700000Y-120300000D01*
X149700000Y-120300000D02*
X143650000Y-114250000D01*
X143650000Y-114250000D02*
X143500000Y-114250000D01*
%TO.N,Net-(Q5-G)*%
D22*
X170400000Y-87570000D02*
X169325000Y-86495000D01*
X170400000Y-102640000D02*
X170400000Y-87570000D01*
X174450000Y-106690000D02*
X170400000Y-102640000D01*
%TO.N,Net-(Q4-G)*%
X173470000Y-92630000D02*
X177125000Y-92630000D01*
X174851789Y-107660000D02*
X175420000Y-107091788D01*
X171160000Y-102325196D02*
X171160000Y-94940000D01*
X175420000Y-107091788D02*
X175420000Y-106288211D01*
X175420000Y-106288211D02*
X174851788Y-105720000D01*
X167450000Y-106700000D02*
X168410000Y-107660000D01*
X174554804Y-105720000D02*
X171160000Y-102325196D01*
X171160000Y-94940000D02*
X173470000Y-92630000D01*
X174851788Y-105720000D02*
X174554804Y-105720000D01*
X168410000Y-107660000D02*
X174851789Y-107660000D01*
%TO.N,Net-(Q1-G)*%
X169300000Y-102830000D02*
X169300000Y-98655000D01*
X169300000Y-98655000D02*
X169275000Y-98630000D01*
X165450000Y-106680000D02*
X169300000Y-102830000D01*
%TO.N,Net-(Q3-G)*%
X169950000Y-93270000D02*
X169275000Y-92595000D01*
X169950000Y-106680000D02*
X169950000Y-93270000D01*
%TO.N,Net-(Q6-G)*%
X174694387Y-106100000D02*
X174397402Y-106100000D01*
X175040000Y-106445613D02*
X174694387Y-106100000D01*
X172540000Y-107280000D02*
X174694387Y-107280000D01*
X175040000Y-106934387D02*
X175040000Y-106445613D01*
X170780000Y-102482598D02*
X170780000Y-87420000D01*
X174397402Y-106100000D02*
X170780000Y-102482598D01*
X170780000Y-87420000D02*
X171670000Y-86530000D01*
X171950000Y-106690000D02*
X172540000Y-107280000D01*
X171670000Y-86530000D02*
X177175000Y-86530000D01*
X174694387Y-107280000D02*
X175040000Y-106934387D01*
%TO.N,Net-(Q2-G)*%
X174712206Y-105340000D02*
X172600000Y-103227794D01*
X175800000Y-107249189D02*
X175799999Y-106130809D01*
X172600000Y-103227794D02*
X172600000Y-100500000D01*
X172600000Y-100500000D02*
X174435000Y-98665000D01*
X174435000Y-98665000D02*
X177125000Y-98665000D01*
X175009191Y-108039999D02*
X175800000Y-107249189D01*
X162950000Y-106700000D02*
X164290000Y-108040000D01*
X175009189Y-105340000D02*
X174712206Y-105340000D01*
X164290000Y-108040000D02*
X175009191Y-108039999D01*
X175799999Y-106130809D02*
X175009189Y-105340000D01*
%TO.N,Net-(U2-SW)*%
D23*
X153000000Y-73150000D02*
X149500000Y-73150000D01*
%TD*%
%TA.AperFunction,Conductor*%
%TO.N,GND*%
G36*
X187003471Y-40250695D02*
G01*
X187044188Y-40252981D01*
X187300900Y-40267397D01*
X187314703Y-40268953D01*
X187604953Y-40318269D01*
X187618510Y-40321363D01*
X187901413Y-40402866D01*
X187914537Y-40407459D01*
X188186527Y-40520120D01*
X188199049Y-40526149D01*
X188456732Y-40668566D01*
X188468493Y-40675956D01*
X188708616Y-40846333D01*
X188719466Y-40854985D01*
X188827564Y-40951587D01*
X188938997Y-41051169D01*
X188948830Y-41061002D01*
X189145010Y-41280528D01*
X189153668Y-41291385D01*
X189324040Y-41531502D01*
X189331433Y-41543267D01*
X189473846Y-41800943D01*
X189479879Y-41813472D01*
X189592540Y-42085462D01*
X189597133Y-42098586D01*
X189678636Y-42381489D01*
X189681730Y-42395046D01*
X189731045Y-42685288D01*
X189732602Y-42699106D01*
X189749305Y-42996527D01*
X189749500Y-43003480D01*
X189749500Y-136996519D01*
X189749305Y-137003472D01*
X189732602Y-137300893D01*
X189731045Y-137314711D01*
X189681730Y-137604953D01*
X189678636Y-137618510D01*
X189597133Y-137901413D01*
X189592540Y-137914537D01*
X189479879Y-138186527D01*
X189473846Y-138199056D01*
X189331433Y-138456732D01*
X189324035Y-138468505D01*
X189153674Y-138708605D01*
X189145010Y-138719471D01*
X188948830Y-138938997D01*
X188938997Y-138948830D01*
X188719471Y-139145010D01*
X188708605Y-139153674D01*
X188500118Y-139301605D01*
X188468506Y-139324035D01*
X188456732Y-139331433D01*
X188199056Y-139473846D01*
X188186527Y-139479879D01*
X187914537Y-139592540D01*
X187901413Y-139597133D01*
X187618510Y-139678636D01*
X187604953Y-139681730D01*
X187314711Y-139731045D01*
X187300893Y-139732602D01*
X187003472Y-139749305D01*
X186996519Y-139749500D01*
X93003481Y-139749500D01*
X92996528Y-139749305D01*
X92699106Y-139732602D01*
X92685288Y-139731045D01*
X92395046Y-139681730D01*
X92381489Y-139678636D01*
X92098586Y-139597133D01*
X92085462Y-139592540D01*
X91813472Y-139479879D01*
X91800943Y-139473846D01*
X91543267Y-139331433D01*
X91531502Y-139324040D01*
X91291385Y-139153668D01*
X91280528Y-139145010D01*
X91061002Y-138948830D01*
X91051169Y-138938997D01*
X90854989Y-138719471D01*
X90846333Y-138708616D01*
X90675956Y-138468493D01*
X90668566Y-138456732D01*
X90526153Y-138199056D01*
X90520120Y-138186527D01*
X90407459Y-137914537D01*
X90402866Y-137901413D01*
X90321363Y-137618510D01*
X90318269Y-137604953D01*
X90268954Y-137314711D01*
X90267397Y-137300900D01*
X90250695Y-137003471D01*
X90250500Y-136996519D01*
X90250500Y-134305513D01*
X140799500Y-134305513D01*
X140799500Y-134494486D01*
X140829059Y-134681118D01*
X140887454Y-134860836D01*
X140939163Y-134962319D01*
X140973240Y-135029199D01*
X141084310Y-135182073D01*
X141217927Y-135315690D01*
X141370801Y-135426760D01*
X141450347Y-135467290D01*
X141539163Y-135512545D01*
X141539165Y-135512545D01*
X141539168Y-135512547D01*
X141635497Y-135543846D01*
X141718881Y-135570940D01*
X141905514Y-135600500D01*
X141905519Y-135600500D01*
X142094486Y-135600500D01*
X142281118Y-135570940D01*
X142296660Y-135565890D01*
X142460832Y-135512547D01*
X142629199Y-135426760D01*
X142782073Y-135315690D01*
X142915690Y-135182073D01*
X143026760Y-135029199D01*
X143112547Y-134860832D01*
X143170940Y-134681118D01*
X143173352Y-134665890D01*
X143194224Y-134534108D01*
X166999500Y-134534108D01*
X166999500Y-134665891D01*
X167033608Y-134793187D01*
X167066554Y-134850250D01*
X167099500Y-134907314D01*
X167099502Y-134907316D01*
X167154505Y-134962319D01*
X167187990Y-135023642D01*
X167183006Y-135093334D01*
X167154505Y-135137681D01*
X167099502Y-135192683D01*
X167099500Y-135192686D01*
X167033608Y-135306812D01*
X166999500Y-135434108D01*
X166999500Y-135565891D01*
X167033608Y-135693187D01*
X167066554Y-135750250D01*
X167099500Y-135807314D01*
X167192686Y-135900500D01*
X167306814Y-135966392D01*
X167434108Y-136000500D01*
X167434110Y-136000500D01*
X167565890Y-136000500D01*
X167565892Y-136000500D01*
X167693186Y-135966392D01*
X167807314Y-135900500D01*
X167900500Y-135807314D01*
X167966392Y-135693186D01*
X168000500Y-135565892D01*
X168000500Y-135434108D01*
X167966392Y-135306814D01*
X167900500Y-135192686D01*
X167845495Y-135137681D01*
X167812010Y-135076358D01*
X167816994Y-135006666D01*
X167845495Y-134962319D01*
X167900500Y-134907314D01*
X167966392Y-134793186D01*
X168000500Y-134665892D01*
X168000500Y-134534108D01*
X167966392Y-134406814D01*
X167900500Y-134292686D01*
X167807314Y-134199500D01*
X167722439Y-134150497D01*
X167693187Y-134133608D01*
X167629539Y-134116554D01*
X167565892Y-134099500D01*
X167434108Y-134099500D01*
X167306812Y-134133608D01*
X167192686Y-134199500D01*
X167192683Y-134199502D01*
X167099502Y-134292683D01*
X167099500Y-134292686D01*
X167033608Y-134406812D01*
X166999500Y-134534108D01*
X143194224Y-134534108D01*
X143198584Y-134506583D01*
X143200500Y-134494486D01*
X143200500Y-134305513D01*
X143170940Y-134118881D01*
X143113853Y-133943187D01*
X143112547Y-133939168D01*
X143112545Y-133939165D01*
X143112545Y-133939163D01*
X143081423Y-133878083D01*
X143026760Y-133770801D01*
X143024626Y-133767865D01*
X143010826Y-133748869D01*
X143010824Y-133748867D01*
X142963775Y-133684110D01*
X142963774Y-133684108D01*
X177549500Y-133684108D01*
X177549500Y-133815891D01*
X177583608Y-133943187D01*
X177616554Y-134000250D01*
X177649500Y-134057314D01*
X177742686Y-134150500D01*
X177856814Y-134216392D01*
X177984108Y-134250500D01*
X177984110Y-134250500D01*
X178115890Y-134250500D01*
X178115892Y-134250500D01*
X178243186Y-134216392D01*
X178357314Y-134150500D01*
X178450500Y-134057314D01*
X178516392Y-133943186D01*
X178550500Y-133815892D01*
X178550500Y-133684108D01*
X178516392Y-133556814D01*
X178450500Y-133442686D01*
X178357314Y-133349500D01*
X178300250Y-133316554D01*
X178243187Y-133283608D01*
X178179539Y-133266554D01*
X178115892Y-133249500D01*
X177984108Y-133249500D01*
X177856812Y-133283608D01*
X177742686Y-133349500D01*
X177742683Y-133349502D01*
X177649502Y-133442683D01*
X177649500Y-133442686D01*
X177583608Y-133556812D01*
X177549500Y-133684108D01*
X142963774Y-133684108D01*
X142915690Y-133617927D01*
X142782073Y-133484310D01*
X142629199Y-133373240D01*
X142460836Y-133287454D01*
X142281118Y-133229059D01*
X142094486Y-133199500D01*
X142094481Y-133199500D01*
X141905519Y-133199500D01*
X141905514Y-133199500D01*
X141718881Y-133229059D01*
X141539163Y-133287454D01*
X141370800Y-133373240D01*
X141283579Y-133436610D01*
X141217927Y-133484310D01*
X141217925Y-133484312D01*
X141217924Y-133484312D01*
X141084312Y-133617924D01*
X141084312Y-133617925D01*
X141084310Y-133617927D01*
X141036610Y-133683579D01*
X140973240Y-133770800D01*
X140887454Y-133939163D01*
X140829059Y-134118881D01*
X140799500Y-134305513D01*
X90250500Y-134305513D01*
X90250500Y-130234108D01*
X141499500Y-130234108D01*
X141499500Y-130365891D01*
X141533608Y-130493187D01*
X141566554Y-130550250D01*
X141599500Y-130607314D01*
X141692686Y-130700500D01*
X141806814Y-130766392D01*
X141934108Y-130800500D01*
X141934110Y-130800500D01*
X142065890Y-130800500D01*
X142065892Y-130800500D01*
X142193186Y-130766392D01*
X142307314Y-130700500D01*
X142400500Y-130607314D01*
X142466392Y-130493186D01*
X142500500Y-130365892D01*
X142500500Y-130234108D01*
X142466392Y-130106814D01*
X142400500Y-129992686D01*
X142307314Y-129899500D01*
X142193186Y-129833608D01*
X142065892Y-129799500D01*
X141934108Y-129799500D01*
X141806812Y-129833608D01*
X141692686Y-129899500D01*
X141692683Y-129899502D01*
X141599502Y-129992683D01*
X141599500Y-129992686D01*
X141533608Y-130106812D01*
X141499500Y-130234108D01*
X90250500Y-130234108D01*
X90250500Y-129334108D01*
X126599500Y-129334108D01*
X126599500Y-129465892D01*
X126607816Y-129496928D01*
X126633608Y-129593187D01*
X126640033Y-129604315D01*
X126699500Y-129707314D01*
X126792686Y-129800500D01*
X126891521Y-129857563D01*
X126905944Y-129865890D01*
X126906814Y-129866392D01*
X127034108Y-129900500D01*
X127034110Y-129900500D01*
X127165890Y-129900500D01*
X127165892Y-129900500D01*
X127293186Y-129866392D01*
X127407314Y-129800500D01*
X127473706Y-129734108D01*
X160399500Y-129734108D01*
X160399500Y-129865891D01*
X160433608Y-129993187D01*
X160466554Y-130050250D01*
X160499500Y-130107314D01*
X160592686Y-130200500D01*
X160706814Y-130266392D01*
X160834108Y-130300500D01*
X160834110Y-130300500D01*
X160965890Y-130300500D01*
X160965892Y-130300500D01*
X161093186Y-130266392D01*
X161207314Y-130200500D01*
X161300500Y-130107314D01*
X161366392Y-129993186D01*
X161400500Y-129865892D01*
X161400500Y-129734108D01*
X161366392Y-129606814D01*
X161300500Y-129492686D01*
X161207314Y-129399500D01*
X161149968Y-129366391D01*
X161093187Y-129333608D01*
X161029539Y-129316554D01*
X160965892Y-129299500D01*
X160834108Y-129299500D01*
X160706812Y-129333608D01*
X160592686Y-129399500D01*
X160592683Y-129399502D01*
X160499502Y-129492683D01*
X160499500Y-129492686D01*
X160433608Y-129606812D01*
X160399500Y-129734108D01*
X127473706Y-129734108D01*
X127500500Y-129707314D01*
X127566392Y-129593186D01*
X127600500Y-129465892D01*
X127600500Y-129334108D01*
X127566392Y-129206814D01*
X127500500Y-129092686D01*
X127407314Y-128999500D01*
X127293186Y-128933608D01*
X127165892Y-128899500D01*
X127034108Y-128899500D01*
X126906812Y-128933608D01*
X126792686Y-128999500D01*
X126792683Y-128999502D01*
X126699502Y-129092683D01*
X126699500Y-129092686D01*
X126633608Y-129206812D01*
X126608773Y-129299500D01*
X126599500Y-129334108D01*
X90250500Y-129334108D01*
X90250500Y-128834108D01*
X153999500Y-128834108D01*
X153999500Y-128965891D01*
X154033608Y-129093187D01*
X154066554Y-129150250D01*
X154099500Y-129207314D01*
X154192686Y-129300500D01*
X154306814Y-129366392D01*
X154434108Y-129400500D01*
X154434110Y-129400500D01*
X154565890Y-129400500D01*
X154565892Y-129400500D01*
X154693186Y-129366392D01*
X154807314Y-129300500D01*
X154900500Y-129207314D01*
X154966392Y-129093186D01*
X155000500Y-128965892D01*
X155000500Y-128834108D01*
X154966392Y-128706814D01*
X154900500Y-128592686D01*
X154807314Y-128499500D01*
X154750250Y-128466554D01*
X154693187Y-128433608D01*
X154629539Y-128416554D01*
X154565892Y-128399500D01*
X154434108Y-128399500D01*
X154306812Y-128433608D01*
X154192686Y-128499500D01*
X154192683Y-128499502D01*
X154099502Y-128592683D01*
X154099500Y-128592686D01*
X154033608Y-128706812D01*
X153999500Y-128834108D01*
X90250500Y-128834108D01*
X90250500Y-118634108D01*
X130499500Y-118634108D01*
X130499500Y-118765891D01*
X130533608Y-118893187D01*
X130537253Y-118899500D01*
X130599500Y-119007314D01*
X130692686Y-119100500D01*
X130806814Y-119166392D01*
X130934108Y-119200500D01*
X130934110Y-119200500D01*
X131065890Y-119200500D01*
X131065892Y-119200500D01*
X131193186Y-119166392D01*
X131307314Y-119100500D01*
X131400500Y-119007314D01*
X131466392Y-118893186D01*
X131500500Y-118765892D01*
X131500500Y-118675832D01*
X131520185Y-118608793D01*
X131536819Y-118588151D01*
X131888152Y-118236819D01*
X131949475Y-118203334D01*
X131975833Y-118200500D01*
X133441324Y-118200500D01*
X133508363Y-118220185D01*
X133529005Y-118236819D01*
X133592686Y-118300500D01*
X133706814Y-118366392D01*
X133834108Y-118400500D01*
X133834110Y-118400500D01*
X133965890Y-118400500D01*
X133965892Y-118400500D01*
X134093186Y-118366392D01*
X134207314Y-118300500D01*
X134300500Y-118207314D01*
X134366392Y-118093186D01*
X134400500Y-117965892D01*
X134400500Y-117834108D01*
X134366392Y-117706814D01*
X134300500Y-117592686D01*
X134207314Y-117499500D01*
X134140963Y-117461192D01*
X134093187Y-117433608D01*
X134006486Y-117410377D01*
X133965892Y-117399500D01*
X133834108Y-117399500D01*
X133706812Y-117433608D01*
X133592686Y-117499500D01*
X133592683Y-117499502D01*
X133529005Y-117563181D01*
X133467682Y-117596666D01*
X133441324Y-117599500D01*
X131760438Y-117599500D01*
X131722224Y-117609739D01*
X131684009Y-117619979D01*
X131684008Y-117619980D01*
X131625334Y-117653856D01*
X131625332Y-117653857D01*
X131615492Y-117659537D01*
X131615487Y-117659541D01*
X131111847Y-118163181D01*
X131050524Y-118196666D01*
X131024166Y-118199500D01*
X130934108Y-118199500D01*
X130806812Y-118233608D01*
X130692686Y-118299500D01*
X130692683Y-118299502D01*
X130599502Y-118392683D01*
X130599500Y-118392686D01*
X130533608Y-118506812D01*
X130499500Y-118634108D01*
X90250500Y-118634108D01*
X90250500Y-114184108D01*
X142999500Y-114184108D01*
X142999500Y-114315891D01*
X143033608Y-114443187D01*
X143047005Y-114466391D01*
X143099500Y-114557314D01*
X143192686Y-114650500D01*
X143306814Y-114716392D01*
X143434108Y-114750500D01*
X143434110Y-114750500D01*
X143565891Y-114750500D01*
X143565892Y-114750500D01*
X143622640Y-114735294D01*
X143692490Y-114736956D01*
X143742416Y-114767387D01*
X149459540Y-120484511D01*
X149515489Y-120540460D01*
X149515491Y-120540461D01*
X149515495Y-120540464D01*
X149584004Y-120580017D01*
X149584011Y-120580021D01*
X149660438Y-120600500D01*
X149739562Y-120600500D01*
X152641324Y-120600500D01*
X152708363Y-120620185D01*
X152729005Y-120636819D01*
X152792686Y-120700500D01*
X152906814Y-120766392D01*
X153034108Y-120800500D01*
X153034110Y-120800500D01*
X153165890Y-120800500D01*
X153165892Y-120800500D01*
X153293186Y-120766392D01*
X153407314Y-120700500D01*
X153500500Y-120607314D01*
X153566392Y-120493186D01*
X153600500Y-120365892D01*
X153600500Y-120234108D01*
X153566392Y-120106814D01*
X153562745Y-120100498D01*
X153538599Y-120058676D01*
X153500500Y-119992686D01*
X153445495Y-119937681D01*
X153412010Y-119876358D01*
X153416994Y-119806666D01*
X153445495Y-119762319D01*
X153470995Y-119736819D01*
X153500500Y-119707314D01*
X153566392Y-119593186D01*
X153600500Y-119465892D01*
X153600500Y-119334108D01*
X153566392Y-119206814D01*
X153500500Y-119092686D01*
X153407314Y-118999500D01*
X153350250Y-118966554D01*
X153293187Y-118933608D01*
X153229539Y-118916554D01*
X153165892Y-118899500D01*
X153034108Y-118899500D01*
X152906812Y-118933608D01*
X152792686Y-118999500D01*
X152792683Y-118999502D01*
X152729005Y-119063181D01*
X152667682Y-119096666D01*
X152641324Y-119099500D01*
X150825833Y-119099500D01*
X150758794Y-119079815D01*
X150738152Y-119063181D01*
X145786819Y-114111848D01*
X145753334Y-114050525D01*
X145750500Y-114024167D01*
X145750500Y-113934110D01*
X145750500Y-113934108D01*
X145716392Y-113806814D01*
X145650500Y-113692686D01*
X145557314Y-113599500D01*
X145500250Y-113566554D01*
X145443187Y-113533608D01*
X145379539Y-113516554D01*
X145315892Y-113499500D01*
X145184108Y-113499500D01*
X145056812Y-113533608D01*
X144942686Y-113599500D01*
X144942683Y-113599502D01*
X144849502Y-113692683D01*
X144849500Y-113692686D01*
X144783608Y-113806812D01*
X144767644Y-113866392D01*
X144749500Y-113934108D01*
X144749500Y-114065892D01*
X144761814Y-114111848D01*
X144783608Y-114193187D01*
X144785165Y-114195883D01*
X144849500Y-114307314D01*
X144942686Y-114400500D01*
X145056814Y-114466392D01*
X145184108Y-114500500D01*
X145184110Y-114500500D01*
X145274167Y-114500500D01*
X145341206Y-114520185D01*
X145361848Y-114536819D01*
X150409540Y-119584511D01*
X150465489Y-119640460D01*
X150465491Y-119640461D01*
X150465495Y-119640464D01*
X150534004Y-119680017D01*
X150534011Y-119680021D01*
X150610438Y-119700500D01*
X152641324Y-119700500D01*
X152708363Y-119720185D01*
X152729005Y-119736819D01*
X152754505Y-119762319D01*
X152787990Y-119823642D01*
X152783006Y-119893334D01*
X152754505Y-119937681D01*
X152729005Y-119963181D01*
X152667682Y-119996666D01*
X152641324Y-119999500D01*
X149875833Y-119999500D01*
X149808794Y-119979815D01*
X149788152Y-119963181D01*
X144020854Y-114195883D01*
X143988760Y-114140294D01*
X143966393Y-114056816D01*
X143966392Y-114056815D01*
X143966392Y-114056814D01*
X143900500Y-113942686D01*
X143807314Y-113849500D01*
X143733380Y-113806814D01*
X143693187Y-113783608D01*
X143629539Y-113766554D01*
X143565892Y-113749500D01*
X143434108Y-113749500D01*
X143306812Y-113783608D01*
X143192686Y-113849500D01*
X143192683Y-113849502D01*
X143099502Y-113942683D01*
X143099500Y-113942686D01*
X143033608Y-114056812D01*
X142999500Y-114184108D01*
X90250500Y-114184108D01*
X90250500Y-113334108D01*
X150099500Y-113334108D01*
X150099500Y-113465891D01*
X150133608Y-113593187D01*
X150166554Y-113650250D01*
X150199500Y-113707314D01*
X150292686Y-113800500D01*
X150406814Y-113866392D01*
X150534108Y-113900500D01*
X150534110Y-113900500D01*
X150665890Y-113900500D01*
X150665892Y-113900500D01*
X150793186Y-113866392D01*
X150907314Y-113800500D01*
X151000500Y-113707314D01*
X151066392Y-113593186D01*
X151100500Y-113465892D01*
X151100500Y-113334108D01*
X151066392Y-113206814D01*
X151000500Y-113092686D01*
X150907314Y-112999500D01*
X150850250Y-112966554D01*
X150793187Y-112933608D01*
X150729539Y-112916554D01*
X150665892Y-112899500D01*
X150534108Y-112899500D01*
X150406812Y-112933608D01*
X150292686Y-112999500D01*
X150292683Y-112999502D01*
X150199502Y-113092683D01*
X150199500Y-113092686D01*
X150133608Y-113206812D01*
X150099500Y-113334108D01*
X90250500Y-113334108D01*
X90250500Y-110905513D01*
X141299500Y-110905513D01*
X141299500Y-111094486D01*
X141329059Y-111281118D01*
X141387454Y-111460836D01*
X141473240Y-111629199D01*
X141584310Y-111782073D01*
X141717927Y-111915690D01*
X141870801Y-112026760D01*
X141950347Y-112067290D01*
X142039163Y-112112545D01*
X142039165Y-112112545D01*
X142039168Y-112112547D01*
X142135497Y-112143846D01*
X142218881Y-112170940D01*
X142405514Y-112200500D01*
X142405519Y-112200500D01*
X142594486Y-112200500D01*
X142781118Y-112170940D01*
X142960832Y-112112547D01*
X143129199Y-112026760D01*
X143282073Y-111915690D01*
X143415690Y-111782073D01*
X143526760Y-111629199D01*
X143612547Y-111460832D01*
X143670940Y-111281118D01*
X143700500Y-111094486D01*
X143700500Y-110905513D01*
X145049500Y-110905513D01*
X145049500Y-111094486D01*
X145079059Y-111281118D01*
X145137454Y-111460836D01*
X145223240Y-111629199D01*
X145334310Y-111782073D01*
X145467927Y-111915690D01*
X145620801Y-112026760D01*
X145700347Y-112067290D01*
X145789163Y-112112545D01*
X145789165Y-112112545D01*
X145789168Y-112112547D01*
X145885497Y-112143846D01*
X145968881Y-112170940D01*
X146155514Y-112200500D01*
X146155519Y-112200500D01*
X146344486Y-112200500D01*
X146531118Y-112170940D01*
X146710832Y-112112547D01*
X146879199Y-112026760D01*
X147032073Y-111915690D01*
X147165690Y-111782073D01*
X147276760Y-111629199D01*
X147362547Y-111460832D01*
X147420940Y-111281118D01*
X147450500Y-111094486D01*
X147450500Y-110905513D01*
X147420940Y-110718881D01*
X147362545Y-110539163D01*
X147276759Y-110370800D01*
X147165690Y-110217927D01*
X147032073Y-110084310D01*
X146879199Y-109973240D01*
X146710836Y-109887454D01*
X146531118Y-109829059D01*
X146344486Y-109799500D01*
X146344481Y-109799500D01*
X146155519Y-109799500D01*
X146155514Y-109799500D01*
X145968881Y-109829059D01*
X145789163Y-109887454D01*
X145620800Y-109973240D01*
X145533579Y-110036610D01*
X145467927Y-110084310D01*
X145467925Y-110084312D01*
X145467924Y-110084312D01*
X145334312Y-110217924D01*
X145334312Y-110217925D01*
X145334310Y-110217927D01*
X145286610Y-110283579D01*
X145223240Y-110370800D01*
X145137454Y-110539163D01*
X145079059Y-110718881D01*
X145049500Y-110905513D01*
X143700500Y-110905513D01*
X143670940Y-110718881D01*
X143612545Y-110539163D01*
X143526759Y-110370800D01*
X143415690Y-110217927D01*
X143282073Y-110084310D01*
X143129199Y-109973240D01*
X142960836Y-109887454D01*
X142781118Y-109829059D01*
X142594486Y-109799500D01*
X142594481Y-109799500D01*
X142405519Y-109799500D01*
X142405514Y-109799500D01*
X142218881Y-109829059D01*
X142039163Y-109887454D01*
X141870800Y-109973240D01*
X141783579Y-110036610D01*
X141717927Y-110084310D01*
X141717925Y-110084312D01*
X141717924Y-110084312D01*
X141584312Y-110217924D01*
X141584312Y-110217925D01*
X141584310Y-110217927D01*
X141536610Y-110283579D01*
X141473240Y-110370800D01*
X141387454Y-110539163D01*
X141329059Y-110718881D01*
X141299500Y-110905513D01*
X90250500Y-110905513D01*
X90250500Y-97634108D01*
X158999500Y-97634108D01*
X158999500Y-97765891D01*
X159033608Y-97893187D01*
X159066554Y-97950250D01*
X159099500Y-98007314D01*
X159099502Y-98007316D01*
X159104505Y-98012319D01*
X159137990Y-98073642D01*
X159133006Y-98143334D01*
X159104505Y-98187681D01*
X159099502Y-98192683D01*
X159099500Y-98192686D01*
X159033608Y-98306812D01*
X158999500Y-98434108D01*
X158999500Y-98565891D01*
X159033608Y-98693187D01*
X159066554Y-98750250D01*
X159099500Y-98807314D01*
X159192686Y-98900500D01*
X159306814Y-98966392D01*
X159434108Y-99000500D01*
X159434110Y-99000500D01*
X159513000Y-99000500D01*
X159580039Y-99020185D01*
X159625794Y-99072989D01*
X159637000Y-99124500D01*
X159637000Y-120331986D01*
X159666559Y-120518618D01*
X159724954Y-120698336D01*
X159777010Y-120800500D01*
X159810740Y-120866699D01*
X159921810Y-121019574D01*
X159921812Y-121019576D01*
X164282696Y-125380460D01*
X164316181Y-125441783D01*
X164311197Y-125511475D01*
X164269325Y-125567408D01*
X164203861Y-125591825D01*
X164135588Y-125576973D01*
X164130230Y-125573871D01*
X164129207Y-125573244D01*
X163960836Y-125487454D01*
X163781118Y-125429059D01*
X163594486Y-125399500D01*
X163594481Y-125399500D01*
X163405519Y-125399500D01*
X163405514Y-125399500D01*
X163218881Y-125429059D01*
X163039163Y-125487454D01*
X162870800Y-125573240D01*
X162783579Y-125636610D01*
X162717927Y-125684310D01*
X162717925Y-125684312D01*
X162717924Y-125684312D01*
X162584312Y-125817924D01*
X162584312Y-125817925D01*
X162584310Y-125817927D01*
X162536610Y-125883579D01*
X162473240Y-125970800D01*
X162387454Y-126139163D01*
X162329059Y-126318881D01*
X162299500Y-126505513D01*
X162299500Y-126694486D01*
X162329059Y-126881118D01*
X162387454Y-127060836D01*
X162473240Y-127229199D01*
X162584310Y-127382073D01*
X162717927Y-127515690D01*
X162870801Y-127626760D01*
X162950347Y-127667290D01*
X163039163Y-127712545D01*
X163039165Y-127712545D01*
X163039168Y-127712547D01*
X163135497Y-127743846D01*
X163218881Y-127770940D01*
X163405514Y-127800500D01*
X163405519Y-127800500D01*
X163594486Y-127800500D01*
X163781118Y-127770940D01*
X163960832Y-127712547D01*
X164129199Y-127626760D01*
X164282073Y-127515690D01*
X164415690Y-127382073D01*
X164526760Y-127229199D01*
X164612547Y-127060832D01*
X164670940Y-126881118D01*
X164681303Y-126815687D01*
X164700500Y-126694486D01*
X164700500Y-126505513D01*
X164670940Y-126318881D01*
X164632150Y-126199500D01*
X164612547Y-126139168D01*
X164612545Y-126139165D01*
X164612545Y-126139163D01*
X164538828Y-125994486D01*
X164526760Y-125970801D01*
X164415690Y-125817927D01*
X164317300Y-125719537D01*
X164283815Y-125658214D01*
X164288799Y-125588522D01*
X164330671Y-125532589D01*
X164396135Y-125508172D01*
X164464408Y-125523024D01*
X164469774Y-125526131D01*
X164470795Y-125526757D01*
X164470801Y-125526760D01*
X164639168Y-125612547D01*
X164818882Y-125670940D01*
X164888870Y-125682025D01*
X165005513Y-125700500D01*
X165005518Y-125700500D01*
X169094486Y-125700500D01*
X169281118Y-125670940D01*
X169320284Y-125658214D01*
X169460832Y-125612547D01*
X169629199Y-125526760D01*
X169782074Y-125415690D01*
X170415690Y-124782073D01*
X170526760Y-124629199D01*
X170612547Y-124460832D01*
X170670940Y-124281118D01*
X170700500Y-124094486D01*
X170700500Y-123905519D01*
X170694610Y-123868332D01*
X170703564Y-123799039D01*
X170729399Y-123761255D01*
X170828838Y-123661817D01*
X170890161Y-123628334D01*
X170916518Y-123625500D01*
X172941324Y-123625500D01*
X173008363Y-123645185D01*
X173029004Y-123661818D01*
X173092686Y-123725500D01*
X173206814Y-123791392D01*
X173334108Y-123825500D01*
X173334110Y-123825500D01*
X173465890Y-123825500D01*
X173465892Y-123825500D01*
X173593186Y-123791392D01*
X173707314Y-123725500D01*
X173800500Y-123632314D01*
X173866392Y-123518186D01*
X173900500Y-123390892D01*
X173900500Y-123259108D01*
X173866392Y-123131814D01*
X173800500Y-123017686D01*
X173707314Y-122924500D01*
X173643147Y-122887453D01*
X173593187Y-122858608D01*
X173482910Y-122829060D01*
X173465892Y-122824500D01*
X173334108Y-122824500D01*
X173206812Y-122858608D01*
X173092686Y-122924500D01*
X173092683Y-122924502D01*
X173029005Y-122988181D01*
X172967682Y-123021666D01*
X172941324Y-123024500D01*
X171320860Y-123024500D01*
X171253821Y-123004815D01*
X171208066Y-122952011D01*
X171199243Y-122924695D01*
X171173580Y-122795672D01*
X171120774Y-122668189D01*
X171120772Y-122668186D01*
X171120770Y-122668182D01*
X171044113Y-122553456D01*
X170946543Y-122455886D01*
X170831817Y-122379229D01*
X170831807Y-122379224D01*
X170704328Y-122326420D01*
X170704320Y-122326418D01*
X170568998Y-122299501D01*
X170568994Y-122299501D01*
X170431006Y-122299501D01*
X170363338Y-122312960D01*
X170295669Y-122326420D01*
X170168189Y-122379225D01*
X170168185Y-122379227D01*
X170053461Y-122455883D01*
X170053453Y-122455889D01*
X169738746Y-122770596D01*
X169677423Y-122804081D01*
X169631669Y-122805389D01*
X169594484Y-122799500D01*
X169594482Y-122799500D01*
X169405519Y-122799500D01*
X169405514Y-122799500D01*
X169218881Y-122829059D01*
X169039163Y-122887454D01*
X168870800Y-122973240D01*
X168800248Y-123024500D01*
X168717927Y-123084310D01*
X168717925Y-123084312D01*
X168717924Y-123084312D01*
X168539056Y-123263181D01*
X168477733Y-123296666D01*
X168451375Y-123299500D01*
X165648626Y-123299500D01*
X165581587Y-123279815D01*
X165560945Y-123263181D01*
X162074319Y-119776555D01*
X162059615Y-119749627D01*
X162043023Y-119723809D01*
X162042131Y-119717608D01*
X162040834Y-119715232D01*
X162038000Y-119688874D01*
X162038000Y-119534108D01*
X174499500Y-119534108D01*
X174499500Y-119665892D01*
X174513357Y-119717608D01*
X174533608Y-119793187D01*
X174551192Y-119823642D01*
X174599500Y-119907314D01*
X174599502Y-119907316D01*
X174663181Y-119970995D01*
X174696666Y-120032318D01*
X174699500Y-120058676D01*
X174699500Y-131541323D01*
X174679815Y-131608362D01*
X174663182Y-131629004D01*
X174599500Y-131692686D01*
X174533608Y-131806812D01*
X174499500Y-131934108D01*
X174499500Y-132065891D01*
X174533608Y-132193187D01*
X174566554Y-132250250D01*
X174599500Y-132307314D01*
X174692686Y-132400500D01*
X174806814Y-132466392D01*
X174934108Y-132500500D01*
X174934110Y-132500500D01*
X175065890Y-132500500D01*
X175065892Y-132500500D01*
X175193186Y-132466392D01*
X175307314Y-132400500D01*
X175400500Y-132307314D01*
X175466392Y-132193186D01*
X175500500Y-132065892D01*
X175500500Y-131934108D01*
X175466392Y-131806814D01*
X175400500Y-131692686D01*
X175336818Y-131629004D01*
X175303334Y-131567680D01*
X175300500Y-131541323D01*
X175300500Y-130804315D01*
X175320185Y-130737276D01*
X175372989Y-130691521D01*
X175442147Y-130681577D01*
X175486501Y-130696928D01*
X175492683Y-130700497D01*
X175492686Y-130700500D01*
X175606814Y-130766392D01*
X175734108Y-130800500D01*
X175734110Y-130800500D01*
X175865890Y-130800500D01*
X175865892Y-130800500D01*
X175993186Y-130766392D01*
X176107314Y-130700500D01*
X176200500Y-130607314D01*
X176266392Y-130493186D01*
X176300500Y-130365892D01*
X176300500Y-130234108D01*
X176266392Y-130106814D01*
X176200500Y-129992686D01*
X176136818Y-129929004D01*
X176103334Y-129867680D01*
X176100500Y-129841323D01*
X176100500Y-129604315D01*
X176120185Y-129537276D01*
X176172989Y-129491521D01*
X176242147Y-129481577D01*
X176286501Y-129496928D01*
X176292683Y-129500497D01*
X176292686Y-129500500D01*
X176406814Y-129566392D01*
X176534108Y-129600500D01*
X176534110Y-129600500D01*
X176665890Y-129600500D01*
X176665892Y-129600500D01*
X176793186Y-129566392D01*
X176907314Y-129500500D01*
X177000500Y-129407314D01*
X177066392Y-129293186D01*
X177100500Y-129165892D01*
X177100500Y-129034108D01*
X177066392Y-128906814D01*
X177000500Y-128792686D01*
X176936818Y-128729004D01*
X176903334Y-128667680D01*
X176900500Y-128641323D01*
X176900500Y-127104315D01*
X176920185Y-127037276D01*
X176972989Y-126991521D01*
X177042147Y-126981577D01*
X177086501Y-126996928D01*
X177092683Y-127000497D01*
X177092686Y-127000500D01*
X177206814Y-127066392D01*
X177334108Y-127100500D01*
X177334110Y-127100500D01*
X177465890Y-127100500D01*
X177465892Y-127100500D01*
X177593186Y-127066392D01*
X177707314Y-127000500D01*
X177800500Y-126907314D01*
X177866392Y-126793186D01*
X177900500Y-126665892D01*
X177900500Y-126534108D01*
X177866392Y-126406814D01*
X177800500Y-126292686D01*
X177736818Y-126229004D01*
X177703334Y-126167680D01*
X177700500Y-126141323D01*
X177700500Y-120058676D01*
X177720185Y-119991637D01*
X177736819Y-119970995D01*
X177761148Y-119946666D01*
X177800500Y-119907314D01*
X177866392Y-119793186D01*
X177900500Y-119665892D01*
X177900500Y-119534108D01*
X177866392Y-119406814D01*
X177800500Y-119292686D01*
X177707314Y-119199500D01*
X177649968Y-119166391D01*
X177593187Y-119133608D01*
X177529539Y-119116554D01*
X177465892Y-119099500D01*
X177334108Y-119099500D01*
X177206812Y-119133608D01*
X177092686Y-119199500D01*
X177092683Y-119199502D01*
X177087681Y-119204505D01*
X177026358Y-119237990D01*
X176956666Y-119233006D01*
X176912319Y-119204505D01*
X176907316Y-119199502D01*
X176907314Y-119199500D01*
X176849968Y-119166391D01*
X176793187Y-119133608D01*
X176729539Y-119116554D01*
X176665892Y-119099500D01*
X176534108Y-119099500D01*
X176406812Y-119133608D01*
X176292686Y-119199500D01*
X176292683Y-119199502D01*
X176287681Y-119204505D01*
X176226358Y-119237990D01*
X176156666Y-119233006D01*
X176112319Y-119204505D01*
X176107316Y-119199502D01*
X176107314Y-119199500D01*
X176049968Y-119166391D01*
X175993187Y-119133608D01*
X175929539Y-119116554D01*
X175865892Y-119099500D01*
X175734108Y-119099500D01*
X175606812Y-119133608D01*
X175492686Y-119199500D01*
X175492683Y-119199502D01*
X175487681Y-119204505D01*
X175426358Y-119237990D01*
X175356666Y-119233006D01*
X175312319Y-119204505D01*
X175307316Y-119199502D01*
X175307314Y-119199500D01*
X175249968Y-119166391D01*
X175193187Y-119133608D01*
X175129539Y-119116554D01*
X175065892Y-119099500D01*
X174934108Y-119099500D01*
X174806812Y-119133608D01*
X174692686Y-119199500D01*
X174692683Y-119199502D01*
X174599502Y-119292683D01*
X174599500Y-119292686D01*
X174533608Y-119406812D01*
X174517778Y-119465892D01*
X174499500Y-119534108D01*
X162038000Y-119534108D01*
X162038000Y-115934108D01*
X164799500Y-115934108D01*
X164799500Y-116065891D01*
X164833608Y-116193187D01*
X164866554Y-116250250D01*
X164899500Y-116307314D01*
X164992686Y-116400500D01*
X165106814Y-116466392D01*
X165234108Y-116500500D01*
X165234110Y-116500500D01*
X165365890Y-116500500D01*
X165365892Y-116500500D01*
X165493186Y-116466392D01*
X165607314Y-116400500D01*
X165700500Y-116307314D01*
X165766392Y-116193186D01*
X165800500Y-116065892D01*
X165800500Y-115934108D01*
X165766392Y-115806814D01*
X165700500Y-115692686D01*
X165607314Y-115599500D01*
X165550250Y-115566554D01*
X165493187Y-115533608D01*
X165429539Y-115516554D01*
X165365892Y-115499500D01*
X165234108Y-115499500D01*
X165106812Y-115533608D01*
X164992686Y-115599500D01*
X164992683Y-115599502D01*
X164899502Y-115692683D01*
X164899500Y-115692686D01*
X164833608Y-115806812D01*
X164799500Y-115934108D01*
X162038000Y-115934108D01*
X162038000Y-114134108D01*
X174499500Y-114134108D01*
X174499500Y-114265892D01*
X174511814Y-114311848D01*
X174533608Y-114393187D01*
X174562476Y-114443186D01*
X174599500Y-114507314D01*
X174692686Y-114600500D01*
X174806814Y-114666392D01*
X174934108Y-114700500D01*
X174934110Y-114700500D01*
X175024167Y-114700500D01*
X175091206Y-114720185D01*
X175111848Y-114736819D01*
X175959540Y-115584511D01*
X176015489Y-115640460D01*
X176015491Y-115640461D01*
X176015495Y-115640464D01*
X176084004Y-115680017D01*
X176084011Y-115680021D01*
X176160438Y-115700500D01*
X176239562Y-115700500D01*
X181924167Y-115700500D01*
X181991206Y-115720185D01*
X182011848Y-115736819D01*
X183863181Y-117588152D01*
X183896666Y-117649475D01*
X183899500Y-117675833D01*
X183899500Y-117765891D01*
X183933608Y-117893187D01*
X183966554Y-117950250D01*
X183999500Y-118007314D01*
X184092686Y-118100500D01*
X184206814Y-118166392D01*
X184334108Y-118200500D01*
X184334110Y-118200500D01*
X184474019Y-118200500D01*
X184474019Y-118203720D01*
X184528099Y-118212109D01*
X184580393Y-118258447D01*
X184599332Y-118325700D01*
X184578905Y-118392517D01*
X184563021Y-118412006D01*
X181611847Y-121363181D01*
X181550524Y-121396666D01*
X181524166Y-121399500D01*
X181434108Y-121399500D01*
X181306814Y-121433608D01*
X181306813Y-121433608D01*
X181306811Y-121433609D01*
X181306810Y-121433609D01*
X181186500Y-121503071D01*
X181118600Y-121519544D01*
X181052573Y-121496692D01*
X181009382Y-121441770D01*
X181000500Y-121395684D01*
X181000500Y-120040539D01*
X181017112Y-119978540D01*
X181066392Y-119893186D01*
X181100500Y-119765892D01*
X181100500Y-119634108D01*
X181066392Y-119506814D01*
X181000500Y-119392686D01*
X180907314Y-119299500D01*
X180850250Y-119266554D01*
X180793187Y-119233608D01*
X180693188Y-119206814D01*
X180665892Y-119199500D01*
X180534108Y-119199500D01*
X180406812Y-119233608D01*
X180292686Y-119299500D01*
X180292683Y-119299502D01*
X180199502Y-119392683D01*
X180199500Y-119392686D01*
X180133608Y-119506812D01*
X180099500Y-119634108D01*
X180099500Y-119765891D01*
X180133608Y-119893187D01*
X180145152Y-119913181D01*
X180199500Y-120007314D01*
X180292686Y-120100500D01*
X180337500Y-120126373D01*
X180385716Y-120176940D01*
X180399500Y-120233760D01*
X180399500Y-124645266D01*
X180379815Y-124712305D01*
X180327011Y-124758060D01*
X180313825Y-124763194D01*
X180248841Y-124784310D01*
X180239162Y-124787455D01*
X180070800Y-124873240D01*
X180009295Y-124917927D01*
X179917927Y-124984310D01*
X179917925Y-124984312D01*
X179917924Y-124984312D01*
X179784312Y-125117924D01*
X179784312Y-125117925D01*
X179784310Y-125117927D01*
X179736610Y-125183579D01*
X179673240Y-125270800D01*
X179587454Y-125439163D01*
X179529059Y-125618881D01*
X179499500Y-125805513D01*
X179499500Y-125994486D01*
X179529059Y-126181118D01*
X179587454Y-126360836D01*
X179649229Y-126482075D01*
X179673240Y-126529199D01*
X179784310Y-126682073D01*
X179917927Y-126815690D01*
X180070801Y-126926760D01*
X180150347Y-126967290D01*
X180239163Y-127012545D01*
X180239165Y-127012545D01*
X180239168Y-127012547D01*
X180315276Y-127037276D01*
X180418881Y-127070940D01*
X180605514Y-127100500D01*
X180605519Y-127100500D01*
X180794486Y-127100500D01*
X180981118Y-127070940D01*
X180995118Y-127066391D01*
X181160832Y-127012547D01*
X181329199Y-126926760D01*
X181482073Y-126815690D01*
X181615690Y-126682073D01*
X181726760Y-126529199D01*
X181812547Y-126360832D01*
X181870940Y-126181118D01*
X181877585Y-126139163D01*
X181900500Y-125994486D01*
X181900500Y-125805513D01*
X181871124Y-125620045D01*
X181871124Y-125620042D01*
X181871123Y-125620038D01*
X181870940Y-125618882D01*
X181866596Y-125605513D01*
X185199500Y-125605513D01*
X185199500Y-125794486D01*
X185229059Y-125981118D01*
X185287454Y-126160836D01*
X185322188Y-126229004D01*
X185373240Y-126329199D01*
X185484310Y-126482073D01*
X185617927Y-126615690D01*
X185770801Y-126726760D01*
X185850347Y-126767290D01*
X185939163Y-126812545D01*
X185939165Y-126812545D01*
X185939168Y-126812547D01*
X186035497Y-126843846D01*
X186118881Y-126870940D01*
X186305514Y-126900500D01*
X186305519Y-126900500D01*
X186494486Y-126900500D01*
X186681118Y-126870940D01*
X186860832Y-126812547D01*
X187029199Y-126726760D01*
X187182073Y-126615690D01*
X187315690Y-126482073D01*
X187426760Y-126329199D01*
X187512547Y-126160832D01*
X187570940Y-125981118D01*
X187596787Y-125817927D01*
X187600500Y-125794486D01*
X187600500Y-125605513D01*
X187570940Y-125418881D01*
X187512545Y-125239163D01*
X187426759Y-125070800D01*
X187315690Y-124917927D01*
X187182073Y-124784310D01*
X187029199Y-124673240D01*
X186860836Y-124587454D01*
X186681118Y-124529059D01*
X186494486Y-124499500D01*
X186494481Y-124499500D01*
X186305519Y-124499500D01*
X186305514Y-124499500D01*
X186118881Y-124529059D01*
X185939163Y-124587454D01*
X185770800Y-124673240D01*
X185717033Y-124712305D01*
X185617927Y-124784310D01*
X185617925Y-124784312D01*
X185617924Y-124784312D01*
X185484312Y-124917924D01*
X185484312Y-124917925D01*
X185484310Y-124917927D01*
X185436610Y-124983579D01*
X185373240Y-125070800D01*
X185287454Y-125239163D01*
X185229059Y-125418881D01*
X185199500Y-125605513D01*
X181866596Y-125605513D01*
X181812547Y-125439168D01*
X181812545Y-125439165D01*
X181812545Y-125439163D01*
X181726759Y-125270800D01*
X181703777Y-125239168D01*
X181615690Y-125117927D01*
X181482073Y-124984310D01*
X181329199Y-124873240D01*
X181160837Y-124787455D01*
X181160834Y-124787454D01*
X181160832Y-124787453D01*
X181086178Y-124763196D01*
X181028505Y-124723758D01*
X181001308Y-124659399D01*
X181000500Y-124645266D01*
X181000500Y-122404315D01*
X181020185Y-122337276D01*
X181072989Y-122291521D01*
X181142147Y-122281577D01*
X181186501Y-122296928D01*
X181192683Y-122300497D01*
X181192686Y-122300500D01*
X181306814Y-122366392D01*
X181434108Y-122400500D01*
X181434110Y-122400500D01*
X181565890Y-122400500D01*
X181565892Y-122400500D01*
X181693186Y-122366392D01*
X181807314Y-122300500D01*
X181900500Y-122207314D01*
X181966392Y-122093186D01*
X182000500Y-121965892D01*
X182000500Y-121875832D01*
X182020185Y-121808793D01*
X182036819Y-121788151D01*
X182305426Y-121519544D01*
X182588573Y-121236396D01*
X182649894Y-121202913D01*
X182719585Y-121207897D01*
X182775519Y-121249768D01*
X182783639Y-121262079D01*
X182823765Y-121331579D01*
X182916951Y-121424765D01*
X183031079Y-121490657D01*
X183158373Y-121524765D01*
X183158375Y-121524765D01*
X183290155Y-121524765D01*
X183290157Y-121524765D01*
X183417451Y-121490657D01*
X183531579Y-121424765D01*
X183624765Y-121331579D01*
X183690657Y-121217451D01*
X183724765Y-121090157D01*
X183724765Y-121000097D01*
X183744450Y-120933058D01*
X183761084Y-120912416D01*
X184093483Y-120580017D01*
X184454080Y-120219419D01*
X184515401Y-120185936D01*
X184585092Y-120190920D01*
X184641026Y-120232791D01*
X184665443Y-120298256D01*
X184661534Y-120339194D01*
X184649500Y-120384106D01*
X184649500Y-120384108D01*
X184649500Y-120515892D01*
X184656083Y-120540460D01*
X184683608Y-120643187D01*
X184715447Y-120698332D01*
X184749500Y-120757314D01*
X184842686Y-120850500D01*
X184956814Y-120916392D01*
X185084108Y-120950500D01*
X185084110Y-120950500D01*
X185215890Y-120950500D01*
X185215892Y-120950500D01*
X185343186Y-120916392D01*
X185457314Y-120850500D01*
X185550500Y-120757314D01*
X185616392Y-120643186D01*
X185650500Y-120515892D01*
X185650500Y-120425832D01*
X185670185Y-120358793D01*
X185686819Y-120338151D01*
X186632287Y-119392683D01*
X187688429Y-118336541D01*
X187749750Y-118303058D01*
X187759929Y-118301284D01*
X187765879Y-118300500D01*
X187765892Y-118300500D01*
X187893186Y-118266392D01*
X188007314Y-118200500D01*
X188100500Y-118107314D01*
X188166392Y-117993186D01*
X188200500Y-117865892D01*
X188200500Y-117734108D01*
X188166392Y-117606814D01*
X188100500Y-117492686D01*
X188007314Y-117399500D01*
X187950250Y-117366554D01*
X187893187Y-117333608D01*
X187829539Y-117316554D01*
X187765892Y-117299500D01*
X187634108Y-117299500D01*
X187506812Y-117333608D01*
X187392686Y-117399500D01*
X187392683Y-117399502D01*
X187299502Y-117492683D01*
X187299500Y-117492686D01*
X187288438Y-117511847D01*
X187281887Y-117523193D01*
X187231319Y-117571408D01*
X187162712Y-117584630D01*
X187097848Y-117558662D01*
X187057320Y-117501748D01*
X187050500Y-117461192D01*
X187050500Y-108558676D01*
X187070185Y-108491637D01*
X187086819Y-108470995D01*
X187150500Y-108407314D01*
X187216392Y-108293186D01*
X187250500Y-108165892D01*
X187250500Y-108034108D01*
X187216392Y-107906814D01*
X187150500Y-107792686D01*
X187057314Y-107699500D01*
X186999100Y-107665890D01*
X186943187Y-107633608D01*
X186879539Y-107616554D01*
X186815892Y-107599500D01*
X186684108Y-107599500D01*
X186556812Y-107633608D01*
X186442686Y-107699500D01*
X186442683Y-107699502D01*
X186349502Y-107792683D01*
X186349500Y-107792686D01*
X186331887Y-107823193D01*
X186281319Y-107871408D01*
X186212712Y-107884630D01*
X186147848Y-107858662D01*
X186107320Y-107801748D01*
X186100500Y-107761192D01*
X186100500Y-106758676D01*
X186120185Y-106691637D01*
X186136819Y-106670995D01*
X186166124Y-106641690D01*
X186200500Y-106607314D01*
X186266392Y-106493186D01*
X186300500Y-106365892D01*
X186300500Y-106234108D01*
X186266392Y-106106814D01*
X186200500Y-105992686D01*
X186107314Y-105899500D01*
X186050250Y-105866554D01*
X185993187Y-105833608D01*
X185929539Y-105816554D01*
X185865892Y-105799500D01*
X185734108Y-105799500D01*
X185606812Y-105833608D01*
X185492686Y-105899500D01*
X185492683Y-105899502D01*
X185399502Y-105992683D01*
X185399500Y-105992686D01*
X185333608Y-106106812D01*
X185306814Y-106206812D01*
X185299500Y-106234108D01*
X185299500Y-106365892D01*
X185310464Y-106406812D01*
X185333608Y-106493187D01*
X185366554Y-106550250D01*
X185399500Y-106607314D01*
X185399502Y-106607316D01*
X185463181Y-106670995D01*
X185496666Y-106732318D01*
X185499500Y-106758676D01*
X185499500Y-117424166D01*
X185479815Y-117491205D01*
X185463181Y-117511847D01*
X185112006Y-117863021D01*
X185050683Y-117896506D01*
X184980991Y-117891522D01*
X184925058Y-117849650D01*
X184900641Y-117784186D01*
X184900948Y-117774019D01*
X184900500Y-117774019D01*
X184900500Y-117634110D01*
X184900500Y-117634108D01*
X184866392Y-117506814D01*
X184800500Y-117392686D01*
X184707314Y-117299500D01*
X184650250Y-117266554D01*
X184593187Y-117233608D01*
X184529539Y-117216554D01*
X184465892Y-117199500D01*
X184375833Y-117199500D01*
X184308794Y-117179815D01*
X184288152Y-117163181D01*
X182284512Y-115159541D01*
X182284504Y-115159535D01*
X182215995Y-115119982D01*
X182215990Y-115119979D01*
X182190513Y-115113152D01*
X182139562Y-115099500D01*
X182139560Y-115099500D01*
X176375833Y-115099500D01*
X176308794Y-115079815D01*
X176288152Y-115063181D01*
X175536819Y-114311848D01*
X175503334Y-114250525D01*
X175500500Y-114224167D01*
X175500500Y-114134110D01*
X175500500Y-114134108D01*
X175466392Y-114006814D01*
X175400500Y-113892686D01*
X175307314Y-113799500D01*
X175220712Y-113749500D01*
X175193187Y-113733608D01*
X175129539Y-113716554D01*
X175065892Y-113699500D01*
X174934108Y-113699500D01*
X174806812Y-113733608D01*
X174692686Y-113799500D01*
X174692683Y-113799502D01*
X174599502Y-113892683D01*
X174599500Y-113892686D01*
X174533608Y-114006812D01*
X174517778Y-114065892D01*
X174499500Y-114134108D01*
X162038000Y-114134108D01*
X162038000Y-109934108D01*
X175099500Y-109934108D01*
X175099500Y-110065891D01*
X175133608Y-110193187D01*
X175147891Y-110217925D01*
X175199500Y-110307314D01*
X175292686Y-110400500D01*
X175406814Y-110466392D01*
X175534108Y-110500500D01*
X175534110Y-110500500D01*
X175665890Y-110500500D01*
X175665892Y-110500500D01*
X175793186Y-110466392D01*
X175907314Y-110400500D01*
X176000500Y-110307314D01*
X176066392Y-110193186D01*
X176100500Y-110065892D01*
X176100500Y-109934108D01*
X176066392Y-109806814D01*
X176000500Y-109692686D01*
X175907314Y-109599500D01*
X175850250Y-109566554D01*
X175793187Y-109533608D01*
X175729539Y-109516554D01*
X175665892Y-109499500D01*
X175534108Y-109499500D01*
X175406812Y-109533608D01*
X175292686Y-109599500D01*
X175292683Y-109599502D01*
X175199502Y-109692683D01*
X175199500Y-109692686D01*
X175133608Y-109806812D01*
X175099500Y-109934108D01*
X162038000Y-109934108D01*
X162038000Y-108834108D01*
X183799500Y-108834108D01*
X183799500Y-108965891D01*
X183833608Y-109093187D01*
X183866554Y-109150250D01*
X183899500Y-109207314D01*
X183992686Y-109300500D01*
X184106814Y-109366392D01*
X184234108Y-109400500D01*
X184234110Y-109400500D01*
X184365890Y-109400500D01*
X184365892Y-109400500D01*
X184493186Y-109366392D01*
X184607314Y-109300500D01*
X184700500Y-109207314D01*
X184766392Y-109093186D01*
X184800500Y-108965892D01*
X184800500Y-108834108D01*
X184766392Y-108706814D01*
X184700500Y-108592686D01*
X184607314Y-108499500D01*
X184550250Y-108466554D01*
X184493187Y-108433608D01*
X184429539Y-108416554D01*
X184365892Y-108399500D01*
X184234108Y-108399500D01*
X184106812Y-108433608D01*
X183992686Y-108499500D01*
X183992683Y-108499502D01*
X183899502Y-108592683D01*
X183899500Y-108592686D01*
X183833608Y-108706812D01*
X183799500Y-108834108D01*
X162038000Y-108834108D01*
X162038000Y-106634108D01*
X162449500Y-106634108D01*
X162449500Y-106765892D01*
X162454525Y-106784645D01*
X162483608Y-106893187D01*
X162491766Y-106907316D01*
X162549500Y-107007314D01*
X162642686Y-107100500D01*
X162756814Y-107166392D01*
X162884108Y-107200500D01*
X162884110Y-107200500D01*
X162988309Y-107200500D01*
X163055348Y-107220185D01*
X163075990Y-107236819D01*
X164111629Y-108272458D01*
X164147531Y-108293186D01*
X164177867Y-108310701D01*
X164177871Y-108310703D01*
X164251755Y-108330500D01*
X164251757Y-108330500D01*
X164379599Y-108330500D01*
X164379608Y-108330499D01*
X175047434Y-108330499D01*
X175047436Y-108330499D01*
X175121320Y-108310702D01*
X175187562Y-108272457D01*
X175241649Y-108218370D01*
X175241649Y-108218369D01*
X175925910Y-107534108D01*
X184099500Y-107534108D01*
X184099500Y-107665891D01*
X184133608Y-107793187D01*
X184166554Y-107850250D01*
X184199500Y-107907314D01*
X184292686Y-108000500D01*
X184406814Y-108066392D01*
X184534108Y-108100500D01*
X184534110Y-108100500D01*
X184665890Y-108100500D01*
X184665892Y-108100500D01*
X184793186Y-108066392D01*
X184907314Y-108000500D01*
X185000500Y-107907314D01*
X185066392Y-107793186D01*
X185100500Y-107665892D01*
X185100500Y-107534108D01*
X185066392Y-107406814D01*
X185000500Y-107292686D01*
X184907314Y-107199500D01*
X184832649Y-107156392D01*
X184793187Y-107133608D01*
X184729539Y-107116554D01*
X184665892Y-107099500D01*
X184534108Y-107099500D01*
X184406812Y-107133608D01*
X184292686Y-107199500D01*
X184292683Y-107199502D01*
X184199502Y-107292683D01*
X184199500Y-107292686D01*
X184133608Y-107406812D01*
X184099500Y-107534108D01*
X175925910Y-107534108D01*
X176032458Y-107427560D01*
X176057064Y-107384940D01*
X176070704Y-107361318D01*
X176070704Y-107361317D01*
X176090499Y-107287439D01*
X176090500Y-107287433D01*
X176090500Y-107186281D01*
X176090499Y-107186275D01*
X176090499Y-106837675D01*
X176110184Y-106770636D01*
X176162988Y-106724881D01*
X176232146Y-106714937D01*
X176295702Y-106743962D01*
X176302180Y-106749994D01*
X176352686Y-106800500D01*
X176466814Y-106866392D01*
X176594108Y-106900500D01*
X176594110Y-106900500D01*
X176725890Y-106900500D01*
X176725892Y-106900500D01*
X176853186Y-106866392D01*
X176967314Y-106800500D01*
X177060500Y-106707314D01*
X177126392Y-106593186D01*
X177142222Y-106534108D01*
X183199500Y-106534108D01*
X183199500Y-106665892D01*
X183215306Y-106724881D01*
X183233608Y-106793187D01*
X183259294Y-106837675D01*
X183299500Y-106907314D01*
X183392686Y-107000500D01*
X183506814Y-107066392D01*
X183634108Y-107100500D01*
X183634110Y-107100500D01*
X183765890Y-107100500D01*
X183765892Y-107100500D01*
X183893186Y-107066392D01*
X184007314Y-107000500D01*
X184100500Y-106907314D01*
X184166392Y-106793186D01*
X184200500Y-106665892D01*
X184200500Y-106534108D01*
X184166392Y-106406814D01*
X184100500Y-106292686D01*
X184007314Y-106199500D01*
X183950250Y-106166554D01*
X183893187Y-106133608D01*
X183829539Y-106116554D01*
X183765892Y-106099500D01*
X183634108Y-106099500D01*
X183506812Y-106133608D01*
X183392686Y-106199500D01*
X183392683Y-106199502D01*
X183299502Y-106292683D01*
X183299500Y-106292686D01*
X183233608Y-106406812D01*
X183210277Y-106493887D01*
X183199500Y-106534108D01*
X177142222Y-106534108D01*
X177160500Y-106465892D01*
X177160500Y-106334108D01*
X177126392Y-106206814D01*
X177060500Y-106092686D01*
X176967314Y-105999500D01*
X176910250Y-105966554D01*
X176853187Y-105933608D01*
X176789539Y-105916554D01*
X176725892Y-105899500D01*
X176594108Y-105899500D01*
X176466812Y-105933608D01*
X176352686Y-105999500D01*
X176278107Y-106074079D01*
X176216783Y-106107563D01*
X176147092Y-106102578D01*
X176091158Y-106060707D01*
X176074290Y-106025984D01*
X176073810Y-106026184D01*
X176070702Y-106018680D01*
X176032457Y-105952438D01*
X175978370Y-105898351D01*
X175978369Y-105898350D01*
X175187560Y-105107542D01*
X175154439Y-105088419D01*
X175121319Y-105069297D01*
X175084376Y-105059398D01*
X175047434Y-105049500D01*
X175047433Y-105049500D01*
X174883897Y-105049500D01*
X174816858Y-105029815D01*
X174796216Y-105013181D01*
X172926819Y-103143784D01*
X172893334Y-103082461D01*
X172890500Y-103056103D01*
X172890500Y-100834108D01*
X173799500Y-100834108D01*
X173799500Y-100965891D01*
X173833608Y-101093187D01*
X173866554Y-101150250D01*
X173899500Y-101207314D01*
X173899502Y-101207316D01*
X173904505Y-101212319D01*
X173937990Y-101273642D01*
X173933006Y-101343334D01*
X173904505Y-101387681D01*
X173899502Y-101392683D01*
X173899500Y-101392686D01*
X173833608Y-101506812D01*
X173799500Y-101634108D01*
X173799500Y-101765891D01*
X173833608Y-101893187D01*
X173866554Y-101950250D01*
X173899500Y-102007314D01*
X173899502Y-102007316D01*
X173904505Y-102012319D01*
X173937990Y-102073642D01*
X173933006Y-102143334D01*
X173904505Y-102187681D01*
X173899502Y-102192683D01*
X173899500Y-102192686D01*
X173833608Y-102306812D01*
X173799500Y-102434108D01*
X173799500Y-102565891D01*
X173833608Y-102693187D01*
X173852176Y-102725347D01*
X173899500Y-102807314D01*
X173992686Y-102900500D01*
X174106814Y-102966392D01*
X174234108Y-103000500D01*
X174234110Y-103000500D01*
X174365890Y-103000500D01*
X174365892Y-103000500D01*
X174493186Y-102966392D01*
X174607314Y-102900500D01*
X174612319Y-102895495D01*
X174673642Y-102862010D01*
X174743334Y-102866994D01*
X174787681Y-102895495D01*
X174792686Y-102900500D01*
X174906814Y-102966392D01*
X175034108Y-103000500D01*
X175034110Y-103000500D01*
X175165890Y-103000500D01*
X175165892Y-103000500D01*
X175293186Y-102966392D01*
X175407314Y-102900500D01*
X175500500Y-102807314D01*
X175566392Y-102693186D01*
X175600500Y-102565892D01*
X175600500Y-102434108D01*
X175566392Y-102306814D01*
X175500500Y-102192686D01*
X175495495Y-102187681D01*
X175462010Y-102126358D01*
X175466994Y-102056666D01*
X175495495Y-102012319D01*
X175500500Y-102007314D01*
X175566392Y-101893186D01*
X175600500Y-101765892D01*
X175600500Y-101634108D01*
X175566392Y-101506814D01*
X175500500Y-101392686D01*
X175495495Y-101387681D01*
X175462010Y-101326358D01*
X175466994Y-101256666D01*
X175495495Y-101212319D01*
X175500500Y-101207314D01*
X175566392Y-101093186D01*
X175600500Y-100965892D01*
X175600500Y-100834108D01*
X175566392Y-100706814D01*
X175500500Y-100592686D01*
X175495495Y-100587681D01*
X175462010Y-100526358D01*
X175466994Y-100456666D01*
X175495495Y-100412319D01*
X175500500Y-100407314D01*
X175566392Y-100293186D01*
X175600500Y-100165892D01*
X175600500Y-100034108D01*
X175566392Y-99906814D01*
X175500500Y-99792686D01*
X175407314Y-99699500D01*
X175350250Y-99666554D01*
X175293187Y-99633608D01*
X175229539Y-99616554D01*
X175165892Y-99599500D01*
X175034108Y-99599500D01*
X174906812Y-99633608D01*
X174792686Y-99699500D01*
X174792683Y-99699502D01*
X174699502Y-99792683D01*
X174699500Y-99792686D01*
X174633608Y-99906812D01*
X174608773Y-99999500D01*
X174599500Y-100034108D01*
X174599500Y-100165892D01*
X174606679Y-100192686D01*
X174629419Y-100277551D01*
X174627756Y-100347401D01*
X174588593Y-100405263D01*
X174524365Y-100432767D01*
X174477552Y-100429419D01*
X174365892Y-100399500D01*
X174234108Y-100399500D01*
X174106812Y-100433608D01*
X173992686Y-100499500D01*
X173992683Y-100499502D01*
X173899502Y-100592683D01*
X173899500Y-100592686D01*
X173833608Y-100706812D01*
X173799500Y-100834108D01*
X172890500Y-100834108D01*
X172890500Y-100671691D01*
X172910185Y-100604652D01*
X172926819Y-100584010D01*
X174519010Y-98991819D01*
X174580333Y-98958334D01*
X174606691Y-98955500D01*
X176656323Y-98955500D01*
X176723362Y-98975185D01*
X176744004Y-98991818D01*
X176817686Y-99065500D01*
X176916521Y-99122563D01*
X176918449Y-99123676D01*
X176931814Y-99131392D01*
X177059108Y-99165500D01*
X177059110Y-99165500D01*
X177190890Y-99165500D01*
X177190892Y-99165500D01*
X177318186Y-99131392D01*
X177432314Y-99065500D01*
X177525500Y-98972314D01*
X177591392Y-98858186D01*
X177625500Y-98730892D01*
X177625500Y-98599108D01*
X177591392Y-98471814D01*
X177525500Y-98357686D01*
X177432314Y-98264500D01*
X177371692Y-98229500D01*
X177318187Y-98198608D01*
X177254539Y-98181554D01*
X177190892Y-98164500D01*
X177059108Y-98164500D01*
X176931812Y-98198608D01*
X176817686Y-98264500D01*
X176744004Y-98338182D01*
X176682680Y-98371666D01*
X176656323Y-98374500D01*
X174396755Y-98374500D01*
X174322869Y-98394297D01*
X174256629Y-98432542D01*
X174256626Y-98432544D01*
X172367544Y-100321626D01*
X172367542Y-100321629D01*
X172329297Y-100387869D01*
X172309500Y-100461755D01*
X172309500Y-102764505D01*
X172289815Y-102831544D01*
X172237011Y-102877299D01*
X172167853Y-102887243D01*
X172104297Y-102858218D01*
X172097819Y-102852186D01*
X171486819Y-102241186D01*
X171453334Y-102179863D01*
X171450500Y-102153505D01*
X171450500Y-95634108D01*
X172699500Y-95634108D01*
X172699500Y-95765891D01*
X172733608Y-95893187D01*
X172766554Y-95950250D01*
X172799500Y-96007314D01*
X172799502Y-96007316D01*
X172804505Y-96012319D01*
X172837990Y-96073642D01*
X172833006Y-96143334D01*
X172804505Y-96187681D01*
X172799502Y-96192683D01*
X172799500Y-96192686D01*
X172733608Y-96306812D01*
X172699500Y-96434108D01*
X172699500Y-96565891D01*
X172733608Y-96693187D01*
X172766554Y-96750250D01*
X172799500Y-96807314D01*
X172892686Y-96900500D01*
X173006814Y-96966392D01*
X173134108Y-97000500D01*
X173134110Y-97000500D01*
X173265890Y-97000500D01*
X173265892Y-97000500D01*
X173393186Y-96966392D01*
X173507314Y-96900500D01*
X173600500Y-96807314D01*
X173600504Y-96807306D01*
X173601625Y-96805847D01*
X173602892Y-96804921D01*
X173606247Y-96801567D01*
X173606770Y-96802090D01*
X173658053Y-96764645D01*
X173727799Y-96760491D01*
X173788719Y-96794704D01*
X173798375Y-96805847D01*
X173799498Y-96807311D01*
X173799500Y-96807314D01*
X173892686Y-96900500D01*
X174006814Y-96966392D01*
X174134108Y-97000500D01*
X174134110Y-97000500D01*
X174265890Y-97000500D01*
X174265892Y-97000500D01*
X174393186Y-96966392D01*
X174507314Y-96900500D01*
X174600500Y-96807314D01*
X174600504Y-96807306D01*
X174601625Y-96805847D01*
X174602892Y-96804921D01*
X174606247Y-96801567D01*
X174606770Y-96802090D01*
X174658053Y-96764645D01*
X174727799Y-96760491D01*
X174788719Y-96794704D01*
X174798375Y-96805847D01*
X174799498Y-96807311D01*
X174799500Y-96807314D01*
X174892686Y-96900500D01*
X175006814Y-96966392D01*
X175134108Y-97000500D01*
X175134110Y-97000500D01*
X175265890Y-97000500D01*
X175265892Y-97000500D01*
X175393186Y-96966392D01*
X175507314Y-96900500D01*
X175600500Y-96807314D01*
X175666392Y-96693186D01*
X175700500Y-96565892D01*
X175700500Y-96434108D01*
X175666392Y-96306814D01*
X175600500Y-96192686D01*
X175595495Y-96187681D01*
X175562010Y-96126358D01*
X175566994Y-96056666D01*
X175595495Y-96012319D01*
X175600500Y-96007314D01*
X175666392Y-95893186D01*
X175700500Y-95765892D01*
X175700500Y-95634108D01*
X175666392Y-95506814D01*
X175600500Y-95392686D01*
X175545495Y-95337681D01*
X175512010Y-95276358D01*
X175516994Y-95206666D01*
X175545495Y-95162319D01*
X175600500Y-95107314D01*
X175666392Y-94993186D01*
X175700500Y-94865892D01*
X175700500Y-94734108D01*
X175666392Y-94606814D01*
X175600500Y-94492686D01*
X175507314Y-94399500D01*
X175418850Y-94348425D01*
X175393187Y-94333608D01*
X175293188Y-94306814D01*
X175265892Y-94299500D01*
X175134108Y-94299500D01*
X175006812Y-94333608D01*
X174892686Y-94399500D01*
X174892683Y-94399502D01*
X174799498Y-94492687D01*
X174798370Y-94494158D01*
X174797102Y-94495083D01*
X174793753Y-94498433D01*
X174793230Y-94497910D01*
X174741940Y-94535356D01*
X174672193Y-94539506D01*
X174611275Y-94505289D01*
X174601630Y-94494158D01*
X174600501Y-94492687D01*
X174507316Y-94399502D01*
X174507314Y-94399500D01*
X174418850Y-94348425D01*
X174393187Y-94333608D01*
X174293188Y-94306814D01*
X174265892Y-94299500D01*
X174134108Y-94299500D01*
X174006812Y-94333608D01*
X173892686Y-94399500D01*
X173892683Y-94399502D01*
X173799502Y-94492683D01*
X173799500Y-94492686D01*
X173733608Y-94606812D01*
X173699500Y-94734108D01*
X173699500Y-94865891D01*
X173733608Y-94993187D01*
X173751404Y-95024010D01*
X173799500Y-95107314D01*
X173799502Y-95107316D01*
X173854505Y-95162319D01*
X173887990Y-95223642D01*
X173883006Y-95293334D01*
X173854505Y-95337681D01*
X173799498Y-95392687D01*
X173798370Y-95394158D01*
X173797102Y-95395083D01*
X173793753Y-95398433D01*
X173793230Y-95397910D01*
X173741940Y-95435356D01*
X173672193Y-95439506D01*
X173611275Y-95405289D01*
X173601630Y-95394158D01*
X173600501Y-95392687D01*
X173507316Y-95299502D01*
X173507314Y-95299500D01*
X173421578Y-95250000D01*
X173393187Y-95233608D01*
X173276543Y-95202354D01*
X173265892Y-95199500D01*
X173134108Y-95199500D01*
X173006812Y-95233608D01*
X172892686Y-95299500D01*
X172892683Y-95299502D01*
X172799502Y-95392683D01*
X172799500Y-95392686D01*
X172733608Y-95506812D01*
X172699500Y-95634108D01*
X171450500Y-95634108D01*
X171450500Y-95111691D01*
X171470185Y-95044652D01*
X171486819Y-95024010D01*
X173554010Y-92956819D01*
X173615333Y-92923334D01*
X173641691Y-92920500D01*
X176656323Y-92920500D01*
X176723362Y-92940185D01*
X176744004Y-92956818D01*
X176817686Y-93030500D01*
X176931814Y-93096392D01*
X177059108Y-93130500D01*
X177059110Y-93130500D01*
X177190890Y-93130500D01*
X177190892Y-93130500D01*
X177318186Y-93096392D01*
X177432314Y-93030500D01*
X177525500Y-92937314D01*
X177591392Y-92823186D01*
X177625500Y-92695892D01*
X177625500Y-92564108D01*
X177591392Y-92436814D01*
X177525500Y-92322686D01*
X177432314Y-92229500D01*
X177371692Y-92194500D01*
X177318187Y-92163608D01*
X177254539Y-92146554D01*
X177190892Y-92129500D01*
X177059108Y-92129500D01*
X176931812Y-92163608D01*
X176817686Y-92229500D01*
X176744004Y-92303182D01*
X176682680Y-92336666D01*
X176656323Y-92339500D01*
X173508245Y-92339500D01*
X173431754Y-92339500D01*
X173357871Y-92359297D01*
X173357869Y-92359297D01*
X173357869Y-92359298D01*
X173291629Y-92397542D01*
X173291626Y-92397544D01*
X171282181Y-94406990D01*
X171220858Y-94440475D01*
X171151166Y-94435491D01*
X171095233Y-94393619D01*
X171070816Y-94328155D01*
X171070500Y-94319309D01*
X171070500Y-88634108D01*
X172399500Y-88634108D01*
X172399500Y-88765892D01*
X172408772Y-88800497D01*
X172433608Y-88893187D01*
X172466554Y-88950250D01*
X172499500Y-89007314D01*
X172499502Y-89007316D01*
X172504505Y-89012319D01*
X172537990Y-89073642D01*
X172533006Y-89143334D01*
X172504505Y-89187681D01*
X172499502Y-89192683D01*
X172499500Y-89192686D01*
X172433608Y-89306812D01*
X172414477Y-89378211D01*
X172399500Y-89434108D01*
X172399500Y-89565892D01*
X172409750Y-89604147D01*
X172433608Y-89693187D01*
X172441475Y-89706812D01*
X172499500Y-89807314D01*
X172499502Y-89807316D01*
X172504505Y-89812319D01*
X172537990Y-89873642D01*
X172533006Y-89943334D01*
X172504505Y-89987681D01*
X172499502Y-89992683D01*
X172499500Y-89992686D01*
X172433608Y-90106812D01*
X172406680Y-90207313D01*
X172399500Y-90234108D01*
X172399500Y-90365892D01*
X172403060Y-90379179D01*
X172433608Y-90493187D01*
X172443482Y-90510289D01*
X172499500Y-90607314D01*
X172592686Y-90700500D01*
X172706814Y-90766392D01*
X172834108Y-90800500D01*
X172834110Y-90800500D01*
X172965890Y-90800500D01*
X172965892Y-90800500D01*
X173093186Y-90766392D01*
X173207314Y-90700500D01*
X173300500Y-90607314D01*
X173342613Y-90534371D01*
X173393180Y-90486156D01*
X173461787Y-90472933D01*
X173526652Y-90498901D01*
X173557386Y-90534371D01*
X173599500Y-90607314D01*
X173692686Y-90700500D01*
X173806814Y-90766392D01*
X173934108Y-90800500D01*
X173934110Y-90800500D01*
X174065890Y-90800500D01*
X174065892Y-90800500D01*
X174193186Y-90766392D01*
X174307314Y-90700500D01*
X174400500Y-90607314D01*
X174442613Y-90534371D01*
X174493180Y-90486156D01*
X174561787Y-90472933D01*
X174626652Y-90498901D01*
X174657386Y-90534371D01*
X174699500Y-90607314D01*
X174792686Y-90700500D01*
X174906814Y-90766392D01*
X175034108Y-90800500D01*
X175034110Y-90800500D01*
X175165890Y-90800500D01*
X175165892Y-90800500D01*
X175293186Y-90766392D01*
X175407314Y-90700500D01*
X175500500Y-90607314D01*
X175566392Y-90493186D01*
X175600500Y-90365892D01*
X175600500Y-90234108D01*
X175566392Y-90106814D01*
X175500500Y-89992686D01*
X175495495Y-89987681D01*
X175462010Y-89926358D01*
X175466994Y-89856666D01*
X175495495Y-89812319D01*
X175500500Y-89807314D01*
X175566392Y-89693186D01*
X175600500Y-89565892D01*
X175600500Y-89434108D01*
X175566392Y-89306814D01*
X175500500Y-89192686D01*
X175495495Y-89187681D01*
X175462010Y-89126358D01*
X175466994Y-89056666D01*
X175495495Y-89012319D01*
X175500500Y-89007314D01*
X175566392Y-88893186D01*
X175600500Y-88765892D01*
X175600500Y-88634108D01*
X175566392Y-88506814D01*
X175500500Y-88392686D01*
X175407314Y-88299500D01*
X175350250Y-88266554D01*
X175293187Y-88233608D01*
X175193188Y-88206814D01*
X175165892Y-88199500D01*
X175034108Y-88199500D01*
X174906812Y-88233608D01*
X174792686Y-88299500D01*
X174792683Y-88299502D01*
X174699502Y-88392683D01*
X174699500Y-88392686D01*
X174657387Y-88465628D01*
X174606820Y-88513843D01*
X174538212Y-88527065D01*
X174473348Y-88501097D01*
X174442613Y-88465628D01*
X174400500Y-88392686D01*
X174307314Y-88299500D01*
X174250250Y-88266554D01*
X174193187Y-88233608D01*
X174093188Y-88206814D01*
X174065892Y-88199500D01*
X173934108Y-88199500D01*
X173806812Y-88233608D01*
X173692686Y-88299500D01*
X173692683Y-88299502D01*
X173599502Y-88392683D01*
X173599500Y-88392686D01*
X173557387Y-88465628D01*
X173506820Y-88513843D01*
X173438212Y-88527065D01*
X173373348Y-88501097D01*
X173342613Y-88465628D01*
X173300500Y-88392686D01*
X173207314Y-88299500D01*
X173150250Y-88266554D01*
X173093187Y-88233608D01*
X172993188Y-88206814D01*
X172965892Y-88199500D01*
X172834108Y-88199500D01*
X172706812Y-88233608D01*
X172592686Y-88299500D01*
X172592683Y-88299502D01*
X172499502Y-88392683D01*
X172499500Y-88392686D01*
X172433608Y-88506812D01*
X172409751Y-88595851D01*
X172399500Y-88634108D01*
X171070500Y-88634108D01*
X171070500Y-87591691D01*
X171090185Y-87524652D01*
X171106819Y-87504010D01*
X171754010Y-86856819D01*
X171815333Y-86823334D01*
X171841691Y-86820500D01*
X176706323Y-86820500D01*
X176773362Y-86840185D01*
X176794004Y-86856818D01*
X176867686Y-86930500D01*
X176981814Y-86996392D01*
X177109108Y-87030500D01*
X177109110Y-87030500D01*
X177240890Y-87030500D01*
X177240892Y-87030500D01*
X177368186Y-86996392D01*
X177482314Y-86930500D01*
X177575500Y-86837314D01*
X177641392Y-86723186D01*
X177675500Y-86595892D01*
X177675500Y-86464108D01*
X177641392Y-86336814D01*
X177575500Y-86222686D01*
X177482314Y-86129500D01*
X177394579Y-86078846D01*
X177368187Y-86063608D01*
X177304539Y-86046554D01*
X177240892Y-86029500D01*
X177109108Y-86029500D01*
X176981812Y-86063608D01*
X176867686Y-86129500D01*
X176794004Y-86203182D01*
X176732680Y-86236666D01*
X176706323Y-86239500D01*
X171631755Y-86239500D01*
X171557869Y-86259297D01*
X171491629Y-86297542D01*
X171491626Y-86297544D01*
X170602681Y-87186490D01*
X170541358Y-87219975D01*
X170471666Y-87214991D01*
X170427319Y-87186490D01*
X169861819Y-86620990D01*
X169828334Y-86559667D01*
X169825500Y-86533309D01*
X169825500Y-86429110D01*
X169825500Y-86429108D01*
X169791392Y-86301814D01*
X169725500Y-86187686D01*
X169632314Y-86094500D01*
X169575250Y-86061554D01*
X169518187Y-86028608D01*
X169454539Y-86011554D01*
X169390892Y-85994500D01*
X169259108Y-85994500D01*
X169131812Y-86028608D01*
X169017686Y-86094500D01*
X169017683Y-86094502D01*
X168924502Y-86187683D01*
X168924500Y-86187686D01*
X168858608Y-86301812D01*
X168832433Y-86399500D01*
X168824500Y-86429108D01*
X168824500Y-86560892D01*
X168836839Y-86606941D01*
X168858608Y-86688187D01*
X168869363Y-86706814D01*
X168924500Y-86802314D01*
X169017686Y-86895500D01*
X169131814Y-86961392D01*
X169259108Y-86995500D01*
X169259110Y-86995500D01*
X169363309Y-86995500D01*
X169430348Y-87015185D01*
X169450990Y-87031819D01*
X170073181Y-87654010D01*
X170106666Y-87715333D01*
X170109500Y-87741691D01*
X170109500Y-92719309D01*
X170089815Y-92786348D01*
X170037011Y-92832103D01*
X169967853Y-92842047D01*
X169904297Y-92813022D01*
X169897819Y-92806990D01*
X169811819Y-92720990D01*
X169778334Y-92659667D01*
X169775500Y-92633309D01*
X169775500Y-92529110D01*
X169775500Y-92529108D01*
X169741392Y-92401814D01*
X169675500Y-92287686D01*
X169582314Y-92194500D01*
X169525250Y-92161554D01*
X169468187Y-92128608D01*
X169404539Y-92111554D01*
X169340892Y-92094500D01*
X169209108Y-92094500D01*
X169081812Y-92128608D01*
X168967686Y-92194500D01*
X168967683Y-92194502D01*
X168874502Y-92287683D01*
X168874500Y-92287686D01*
X168808608Y-92401812D01*
X168774500Y-92529108D01*
X168774500Y-92660891D01*
X168808608Y-92788187D01*
X168839705Y-92842047D01*
X168874500Y-92902314D01*
X168967686Y-92995500D01*
X169081814Y-93061392D01*
X169209108Y-93095500D01*
X169209110Y-93095500D01*
X169313309Y-93095500D01*
X169380348Y-93115185D01*
X169400990Y-93131819D01*
X169623181Y-93354010D01*
X169656666Y-93415333D01*
X169659500Y-93441691D01*
X169659500Y-98059288D01*
X169639815Y-98126327D01*
X169587011Y-98172082D01*
X169517853Y-98182026D01*
X169473503Y-98166677D01*
X169468189Y-98163609D01*
X169468186Y-98163608D01*
X169340892Y-98129500D01*
X169209108Y-98129500D01*
X169081812Y-98163608D01*
X168967686Y-98229500D01*
X168967683Y-98229502D01*
X168874502Y-98322683D01*
X168874500Y-98322686D01*
X168808608Y-98436812D01*
X168774500Y-98564108D01*
X168774500Y-98695891D01*
X168808608Y-98823187D01*
X168817334Y-98838300D01*
X168874500Y-98937314D01*
X168874502Y-98937316D01*
X168973181Y-99035995D01*
X169006666Y-99097318D01*
X169009500Y-99123676D01*
X169009500Y-102658308D01*
X168989815Y-102725347D01*
X168973181Y-102745989D01*
X165575989Y-106143181D01*
X165514666Y-106176666D01*
X165488308Y-106179500D01*
X165384108Y-106179500D01*
X165256812Y-106213608D01*
X165142686Y-106279500D01*
X165142683Y-106279502D01*
X165049502Y-106372683D01*
X165049500Y-106372686D01*
X164983608Y-106486812D01*
X164960072Y-106574651D01*
X164949500Y-106614108D01*
X164949500Y-106745892D01*
X164954531Y-106764667D01*
X164983608Y-106873187D01*
X165003311Y-106907313D01*
X165049500Y-106987314D01*
X165142686Y-107080500D01*
X165256814Y-107146392D01*
X165384108Y-107180500D01*
X165384110Y-107180500D01*
X165515890Y-107180500D01*
X165515892Y-107180500D01*
X165643186Y-107146392D01*
X165757314Y-107080500D01*
X165850500Y-106987314D01*
X165916392Y-106873186D01*
X165950500Y-106745892D01*
X165950500Y-106641690D01*
X165970185Y-106574651D01*
X165986819Y-106554009D01*
X167733515Y-104807313D01*
X169447821Y-103093007D01*
X169509142Y-103059524D01*
X169578834Y-103064508D01*
X169634767Y-103106380D01*
X169659184Y-103171844D01*
X169659500Y-103180690D01*
X169659500Y-106211323D01*
X169639815Y-106278362D01*
X169623182Y-106299004D01*
X169549500Y-106372686D01*
X169483608Y-106486812D01*
X169460072Y-106574651D01*
X169449500Y-106614108D01*
X169449500Y-106745892D01*
X169454531Y-106764667D01*
X169483608Y-106873187D01*
X169503311Y-106907313D01*
X169549500Y-106987314D01*
X169642686Y-107080500D01*
X169719092Y-107124613D01*
X169742474Y-107138113D01*
X169790690Y-107188680D01*
X169803912Y-107257287D01*
X169777944Y-107322152D01*
X169721030Y-107362680D01*
X169680474Y-107369500D01*
X168581691Y-107369500D01*
X168514652Y-107349815D01*
X168494010Y-107333181D01*
X167986819Y-106825990D01*
X167953334Y-106764667D01*
X167950500Y-106738309D01*
X167950500Y-106634110D01*
X167950500Y-106634108D01*
X167916392Y-106506814D01*
X167910618Y-106496814D01*
X167904844Y-106486812D01*
X167850500Y-106392686D01*
X167757314Y-106299500D01*
X167700250Y-106266554D01*
X167643187Y-106233608D01*
X167543188Y-106206814D01*
X167515892Y-106199500D01*
X167384108Y-106199500D01*
X167256812Y-106233608D01*
X167142686Y-106299500D01*
X167142683Y-106299502D01*
X167049502Y-106392683D01*
X167049500Y-106392686D01*
X166983608Y-106506812D01*
X166956680Y-106607313D01*
X166949500Y-106634108D01*
X166949500Y-106765892D01*
X166954525Y-106784645D01*
X166983608Y-106893187D01*
X166991766Y-106907316D01*
X167049500Y-107007314D01*
X167142686Y-107100500D01*
X167256814Y-107166392D01*
X167384108Y-107200500D01*
X167384110Y-107200500D01*
X167488309Y-107200500D01*
X167555348Y-107220185D01*
X167575990Y-107236819D01*
X167876989Y-107537818D01*
X167910474Y-107599141D01*
X167905490Y-107668833D01*
X167863618Y-107724766D01*
X167798154Y-107749183D01*
X167789308Y-107749499D01*
X164461690Y-107749499D01*
X164394651Y-107729814D01*
X164374009Y-107713180D01*
X163486819Y-106825990D01*
X163453334Y-106764667D01*
X163450500Y-106738309D01*
X163450500Y-106634110D01*
X163450500Y-106634108D01*
X163416392Y-106506814D01*
X163410618Y-106496814D01*
X163404844Y-106486812D01*
X163350500Y-106392686D01*
X163257314Y-106299500D01*
X163200250Y-106266554D01*
X163143187Y-106233608D01*
X163043188Y-106206814D01*
X163015892Y-106199500D01*
X162884108Y-106199500D01*
X162756812Y-106233608D01*
X162642686Y-106299500D01*
X162642683Y-106299502D01*
X162549502Y-106392683D01*
X162549500Y-106392686D01*
X162483608Y-106506812D01*
X162456680Y-106607313D01*
X162449500Y-106634108D01*
X162038000Y-106634108D01*
X162038000Y-101934108D01*
X163199500Y-101934108D01*
X163199500Y-102065891D01*
X163233608Y-102193187D01*
X163240352Y-102204867D01*
X163299500Y-102307314D01*
X163392686Y-102400500D01*
X163506814Y-102466392D01*
X163634108Y-102500500D01*
X163634110Y-102500500D01*
X163765890Y-102500500D01*
X163765892Y-102500500D01*
X163893186Y-102466392D01*
X164007314Y-102400500D01*
X164100500Y-102307314D01*
X164166392Y-102193186D01*
X164200500Y-102065892D01*
X164200500Y-101934108D01*
X164899500Y-101934108D01*
X164899500Y-102065891D01*
X164933608Y-102193187D01*
X164940352Y-102204867D01*
X164999500Y-102307314D01*
X165092686Y-102400500D01*
X165206814Y-102466392D01*
X165334108Y-102500500D01*
X165334110Y-102500500D01*
X165465890Y-102500500D01*
X165465892Y-102500500D01*
X165593186Y-102466392D01*
X165707314Y-102400500D01*
X165800500Y-102307314D01*
X165866392Y-102193186D01*
X165900500Y-102065892D01*
X165900500Y-101934108D01*
X166599500Y-101934108D01*
X166599500Y-102065891D01*
X166633608Y-102193187D01*
X166640352Y-102204867D01*
X166699500Y-102307314D01*
X166792686Y-102400500D01*
X166906814Y-102466392D01*
X167034108Y-102500500D01*
X167034110Y-102500500D01*
X167165890Y-102500500D01*
X167165892Y-102500500D01*
X167293186Y-102466392D01*
X167407314Y-102400500D01*
X167500500Y-102307314D01*
X167566392Y-102193186D01*
X167600500Y-102065892D01*
X167600500Y-101934108D01*
X167566392Y-101806814D01*
X167500500Y-101692686D01*
X167407314Y-101599500D01*
X167350250Y-101566554D01*
X167293187Y-101533608D01*
X167193188Y-101506814D01*
X167165892Y-101499500D01*
X167034108Y-101499500D01*
X166906812Y-101533608D01*
X166792686Y-101599500D01*
X166792683Y-101599502D01*
X166699502Y-101692683D01*
X166699500Y-101692686D01*
X166633608Y-101806812D01*
X166599500Y-101934108D01*
X165900500Y-101934108D01*
X165866392Y-101806814D01*
X165800500Y-101692686D01*
X165707314Y-101599500D01*
X165650250Y-101566554D01*
X165593187Y-101533608D01*
X165493188Y-101506814D01*
X165465892Y-101499500D01*
X165334108Y-101499500D01*
X165206812Y-101533608D01*
X165092686Y-101599500D01*
X165092683Y-101599502D01*
X164999502Y-101692683D01*
X164999500Y-101692686D01*
X164933608Y-101806812D01*
X164899500Y-101934108D01*
X164200500Y-101934108D01*
X164166392Y-101806814D01*
X164100500Y-101692686D01*
X164007314Y-101599500D01*
X163950250Y-101566554D01*
X163893187Y-101533608D01*
X163793188Y-101506814D01*
X163765892Y-101499500D01*
X163634108Y-101499500D01*
X163506812Y-101533608D01*
X163392686Y-101599500D01*
X163392683Y-101599502D01*
X163299502Y-101692683D01*
X163299500Y-101692686D01*
X163233608Y-101806812D01*
X163199500Y-101934108D01*
X162038000Y-101934108D01*
X162038000Y-100434108D01*
X163199500Y-100434108D01*
X163199500Y-100565892D01*
X163209886Y-100604652D01*
X163233608Y-100693187D01*
X163241475Y-100706812D01*
X163299500Y-100807314D01*
X163392686Y-100900500D01*
X163491521Y-100957563D01*
X163505944Y-100965890D01*
X163506814Y-100966392D01*
X163634108Y-101000500D01*
X163634110Y-101000500D01*
X163765890Y-101000500D01*
X163765892Y-101000500D01*
X163893186Y-100966392D01*
X164007314Y-100900500D01*
X164100500Y-100807314D01*
X164166392Y-100693186D01*
X164200500Y-100565892D01*
X164200500Y-100434108D01*
X164899500Y-100434108D01*
X164899500Y-100565892D01*
X164909886Y-100604652D01*
X164933608Y-100693187D01*
X164941475Y-100706812D01*
X164999500Y-100807314D01*
X165092686Y-100900500D01*
X165191521Y-100957563D01*
X165205944Y-100965890D01*
X165206814Y-100966392D01*
X165334108Y-101000500D01*
X165334110Y-101000500D01*
X165465890Y-101000500D01*
X165465892Y-101000500D01*
X165593186Y-100966392D01*
X165707314Y-100900500D01*
X165800500Y-100807314D01*
X165866392Y-100693186D01*
X165900500Y-100565892D01*
X165900500Y-100434108D01*
X166599500Y-100434108D01*
X166599500Y-100565892D01*
X166609886Y-100604652D01*
X166633608Y-100693187D01*
X166641475Y-100706812D01*
X166699500Y-100807314D01*
X166792686Y-100900500D01*
X166891521Y-100957563D01*
X166905944Y-100965890D01*
X166906814Y-100966392D01*
X167034108Y-101000500D01*
X167034110Y-101000500D01*
X167165890Y-101000500D01*
X167165892Y-101000500D01*
X167293186Y-100966392D01*
X167407314Y-100900500D01*
X167500500Y-100807314D01*
X167566392Y-100693186D01*
X167600500Y-100565892D01*
X167600500Y-100434108D01*
X167566392Y-100306814D01*
X167500500Y-100192686D01*
X167407314Y-100099500D01*
X167350250Y-100066554D01*
X167293187Y-100033608D01*
X167229539Y-100016554D01*
X167165892Y-99999500D01*
X167034108Y-99999500D01*
X166906812Y-100033608D01*
X166792686Y-100099500D01*
X166792683Y-100099502D01*
X166699502Y-100192683D01*
X166699500Y-100192686D01*
X166633608Y-100306812D01*
X166611889Y-100387871D01*
X166599500Y-100434108D01*
X165900500Y-100434108D01*
X165866392Y-100306814D01*
X165800500Y-100192686D01*
X165707314Y-100099500D01*
X165650250Y-100066554D01*
X165593187Y-100033608D01*
X165529539Y-100016554D01*
X165465892Y-99999500D01*
X165334108Y-99999500D01*
X165206812Y-100033608D01*
X165092686Y-100099500D01*
X165092683Y-100099502D01*
X164999502Y-100192683D01*
X164999500Y-100192686D01*
X164933608Y-100306812D01*
X164911889Y-100387871D01*
X164899500Y-100434108D01*
X164200500Y-100434108D01*
X164166392Y-100306814D01*
X164100500Y-100192686D01*
X164007314Y-100099500D01*
X163950250Y-100066554D01*
X163893187Y-100033608D01*
X163829539Y-100016554D01*
X163765892Y-99999500D01*
X163634108Y-99999500D01*
X163506812Y-100033608D01*
X163392686Y-100099500D01*
X163392683Y-100099502D01*
X163299502Y-100192683D01*
X163299500Y-100192686D01*
X163233608Y-100306812D01*
X163211889Y-100387871D01*
X163199500Y-100434108D01*
X162038000Y-100434108D01*
X162038000Y-99103122D01*
X162057685Y-99036083D01*
X162110489Y-98990328D01*
X162129902Y-98983348D01*
X162193186Y-98966392D01*
X162249103Y-98934108D01*
X163199500Y-98934108D01*
X163199500Y-99065892D01*
X163209476Y-99103122D01*
X163233608Y-99193187D01*
X163266554Y-99250250D01*
X163299500Y-99307314D01*
X163392686Y-99400500D01*
X163506814Y-99466392D01*
X163634108Y-99500500D01*
X163634110Y-99500500D01*
X163765890Y-99500500D01*
X163765892Y-99500500D01*
X163893186Y-99466392D01*
X164007314Y-99400500D01*
X164100500Y-99307314D01*
X164166392Y-99193186D01*
X164200500Y-99065892D01*
X164200500Y-98934108D01*
X164899500Y-98934108D01*
X164899500Y-99065892D01*
X164909476Y-99103122D01*
X164933608Y-99193187D01*
X164966554Y-99250250D01*
X164999500Y-99307314D01*
X165092686Y-99400500D01*
X165206814Y-99466392D01*
X165334108Y-99500500D01*
X165334110Y-99500500D01*
X165465890Y-99500500D01*
X165465892Y-99500500D01*
X165593186Y-99466392D01*
X165707314Y-99400500D01*
X165800500Y-99307314D01*
X165866392Y-99193186D01*
X165900500Y-99065892D01*
X165900500Y-98934108D01*
X166599500Y-98934108D01*
X166599500Y-99065892D01*
X166609476Y-99103122D01*
X166633608Y-99193187D01*
X166666554Y-99250250D01*
X166699500Y-99307314D01*
X166792686Y-99400500D01*
X166906814Y-99466392D01*
X167034108Y-99500500D01*
X167034110Y-99500500D01*
X167165890Y-99500500D01*
X167165892Y-99500500D01*
X167293186Y-99466392D01*
X167407314Y-99400500D01*
X167500500Y-99307314D01*
X167566392Y-99193186D01*
X167600500Y-99065892D01*
X167600500Y-98934108D01*
X167566392Y-98806814D01*
X167500500Y-98692686D01*
X167407314Y-98599500D01*
X167346013Y-98564108D01*
X167293187Y-98533608D01*
X167229539Y-98516554D01*
X167165892Y-98499500D01*
X167034108Y-98499500D01*
X166906812Y-98533608D01*
X166792686Y-98599500D01*
X166792683Y-98599502D01*
X166699502Y-98692683D01*
X166699500Y-98692686D01*
X166633608Y-98806812D01*
X166608506Y-98900497D01*
X166599500Y-98934108D01*
X165900500Y-98934108D01*
X165866392Y-98806814D01*
X165800500Y-98692686D01*
X165707314Y-98599500D01*
X165646013Y-98564108D01*
X165593187Y-98533608D01*
X165529539Y-98516554D01*
X165465892Y-98499500D01*
X165334108Y-98499500D01*
X165206812Y-98533608D01*
X165092686Y-98599500D01*
X165092683Y-98599502D01*
X164999502Y-98692683D01*
X164999500Y-98692686D01*
X164933608Y-98806812D01*
X164908506Y-98900497D01*
X164899500Y-98934108D01*
X164200500Y-98934108D01*
X164166392Y-98806814D01*
X164100500Y-98692686D01*
X164007314Y-98599500D01*
X163946013Y-98564108D01*
X163893187Y-98533608D01*
X163829539Y-98516554D01*
X163765892Y-98499500D01*
X163634108Y-98499500D01*
X163506812Y-98533608D01*
X163392686Y-98599500D01*
X163392683Y-98599502D01*
X163299502Y-98692683D01*
X163299500Y-98692686D01*
X163233608Y-98806812D01*
X163208506Y-98900497D01*
X163199500Y-98934108D01*
X162249103Y-98934108D01*
X162307314Y-98900500D01*
X162400500Y-98807314D01*
X162466392Y-98693186D01*
X162500500Y-98565892D01*
X162500500Y-98434108D01*
X162466392Y-98306814D01*
X162400500Y-98192686D01*
X162395495Y-98187681D01*
X162362010Y-98126358D01*
X162366994Y-98056666D01*
X162395495Y-98012319D01*
X162400500Y-98007314D01*
X162466392Y-97893186D01*
X162500500Y-97765892D01*
X162500500Y-97634108D01*
X162466392Y-97506814D01*
X162400500Y-97392686D01*
X162307314Y-97299500D01*
X162226767Y-97252996D01*
X162193187Y-97233608D01*
X162129539Y-97216554D01*
X162065892Y-97199500D01*
X161934108Y-97199500D01*
X161806814Y-97233608D01*
X161806809Y-97233610D01*
X161801757Y-97236527D01*
X161733856Y-97252996D01*
X161667830Y-97230141D01*
X161652081Y-97216818D01*
X161619575Y-97184312D01*
X161619573Y-97184310D01*
X161466699Y-97073240D01*
X161298336Y-96987454D01*
X161118618Y-96929059D01*
X160931986Y-96899500D01*
X160931981Y-96899500D01*
X160743019Y-96899500D01*
X160743014Y-96899500D01*
X160556381Y-96929059D01*
X160376663Y-96987454D01*
X160208300Y-97073240D01*
X160055428Y-97184309D01*
X159958863Y-97280874D01*
X159897539Y-97314358D01*
X159827848Y-97309374D01*
X159809181Y-97300579D01*
X159807316Y-97299502D01*
X159807314Y-97299500D01*
X159726767Y-97252996D01*
X159693187Y-97233608D01*
X159629539Y-97216554D01*
X159565892Y-97199500D01*
X159434108Y-97199500D01*
X159306812Y-97233608D01*
X159192686Y-97299500D01*
X159192683Y-97299502D01*
X159099502Y-97392683D01*
X159099500Y-97392686D01*
X159033608Y-97506812D01*
X158999500Y-97634108D01*
X90250500Y-97634108D01*
X90250500Y-95934108D01*
X163199500Y-95934108D01*
X163199500Y-96065891D01*
X163233608Y-96193187D01*
X163266554Y-96250250D01*
X163299500Y-96307314D01*
X163392686Y-96400500D01*
X163506814Y-96466392D01*
X163634108Y-96500500D01*
X163634110Y-96500500D01*
X163765890Y-96500500D01*
X163765892Y-96500500D01*
X163893186Y-96466392D01*
X164007314Y-96400500D01*
X164100500Y-96307314D01*
X164166392Y-96193186D01*
X164200500Y-96065892D01*
X164200500Y-95934108D01*
X164899500Y-95934108D01*
X164899500Y-96065891D01*
X164933608Y-96193187D01*
X164966554Y-96250250D01*
X164999500Y-96307314D01*
X165092686Y-96400500D01*
X165206814Y-96466392D01*
X165334108Y-96500500D01*
X165334110Y-96500500D01*
X165465890Y-96500500D01*
X165465892Y-96500500D01*
X165593186Y-96466392D01*
X165707314Y-96400500D01*
X165800500Y-96307314D01*
X165866392Y-96193186D01*
X165900500Y-96065892D01*
X165900500Y-95934108D01*
X166599500Y-95934108D01*
X166599500Y-96065891D01*
X166633608Y-96193187D01*
X166666554Y-96250250D01*
X166699500Y-96307314D01*
X166792686Y-96400500D01*
X166906814Y-96466392D01*
X167034108Y-96500500D01*
X167034110Y-96500500D01*
X167165890Y-96500500D01*
X167165892Y-96500500D01*
X167293186Y-96466392D01*
X167407314Y-96400500D01*
X167500500Y-96307314D01*
X167566392Y-96193186D01*
X167600500Y-96065892D01*
X167600500Y-95934108D01*
X167566392Y-95806814D01*
X167500500Y-95692686D01*
X167407314Y-95599500D01*
X167348075Y-95565298D01*
X167293187Y-95533608D01*
X167193188Y-95506814D01*
X167165892Y-95499500D01*
X167034108Y-95499500D01*
X166906812Y-95533608D01*
X166792686Y-95599500D01*
X166792683Y-95599502D01*
X166699502Y-95692683D01*
X166699500Y-95692686D01*
X166633608Y-95806812D01*
X166599500Y-95934108D01*
X165900500Y-95934108D01*
X165866392Y-95806814D01*
X165800500Y-95692686D01*
X165707314Y-95599500D01*
X165648075Y-95565298D01*
X165593187Y-95533608D01*
X165493188Y-95506814D01*
X165465892Y-95499500D01*
X165334108Y-95499500D01*
X165206812Y-95533608D01*
X165092686Y-95599500D01*
X165092683Y-95599502D01*
X164999502Y-95692683D01*
X164999500Y-95692686D01*
X164933608Y-95806812D01*
X164899500Y-95934108D01*
X164200500Y-95934108D01*
X164166392Y-95806814D01*
X164100500Y-95692686D01*
X164007314Y-95599500D01*
X163948075Y-95565298D01*
X163893187Y-95533608D01*
X163793188Y-95506814D01*
X163765892Y-95499500D01*
X163634108Y-95499500D01*
X163506812Y-95533608D01*
X163392686Y-95599500D01*
X163392683Y-95599502D01*
X163299502Y-95692683D01*
X163299500Y-95692686D01*
X163233608Y-95806812D01*
X163199500Y-95934108D01*
X90250500Y-95934108D01*
X90250500Y-94434108D01*
X163199500Y-94434108D01*
X163199500Y-94565891D01*
X163233608Y-94693187D01*
X163266554Y-94750250D01*
X163299500Y-94807314D01*
X163392686Y-94900500D01*
X163506814Y-94966392D01*
X163634108Y-95000500D01*
X163634110Y-95000500D01*
X163765890Y-95000500D01*
X163765892Y-95000500D01*
X163893186Y-94966392D01*
X164007314Y-94900500D01*
X164100500Y-94807314D01*
X164166392Y-94693186D01*
X164200500Y-94565892D01*
X164200500Y-94434108D01*
X164899500Y-94434108D01*
X164899500Y-94565891D01*
X164933608Y-94693187D01*
X164966554Y-94750250D01*
X164999500Y-94807314D01*
X165092686Y-94900500D01*
X165206814Y-94966392D01*
X165334108Y-95000500D01*
X165334110Y-95000500D01*
X165465890Y-95000500D01*
X165465892Y-95000500D01*
X165593186Y-94966392D01*
X165707314Y-94900500D01*
X165800500Y-94807314D01*
X165866392Y-94693186D01*
X165900500Y-94565892D01*
X165900500Y-94434108D01*
X166599500Y-94434108D01*
X166599500Y-94565891D01*
X166633608Y-94693187D01*
X166666554Y-94750250D01*
X166699500Y-94807314D01*
X166792686Y-94900500D01*
X166906814Y-94966392D01*
X167034108Y-95000500D01*
X167034110Y-95000500D01*
X167165890Y-95000500D01*
X167165892Y-95000500D01*
X167293186Y-94966392D01*
X167407314Y-94900500D01*
X167500500Y-94807314D01*
X167566392Y-94693186D01*
X167600500Y-94565892D01*
X167600500Y-94434108D01*
X167566392Y-94306814D01*
X167500500Y-94192686D01*
X167407314Y-94099500D01*
X167350250Y-94066554D01*
X167293187Y-94033608D01*
X167229539Y-94016554D01*
X167165892Y-93999500D01*
X167034108Y-93999500D01*
X166906812Y-94033608D01*
X166792686Y-94099500D01*
X166792683Y-94099502D01*
X166699502Y-94192683D01*
X166699500Y-94192686D01*
X166633608Y-94306812D01*
X166599500Y-94434108D01*
X165900500Y-94434108D01*
X165866392Y-94306814D01*
X165800500Y-94192686D01*
X165707314Y-94099500D01*
X165650250Y-94066554D01*
X165593187Y-94033608D01*
X165529539Y-94016554D01*
X165465892Y-93999500D01*
X165334108Y-93999500D01*
X165206812Y-94033608D01*
X165092686Y-94099500D01*
X165092683Y-94099502D01*
X164999502Y-94192683D01*
X164999500Y-94192686D01*
X164933608Y-94306812D01*
X164899500Y-94434108D01*
X164200500Y-94434108D01*
X164166392Y-94306814D01*
X164100500Y-94192686D01*
X164007314Y-94099500D01*
X163950250Y-94066554D01*
X163893187Y-94033608D01*
X163829539Y-94016554D01*
X163765892Y-93999500D01*
X163634108Y-93999500D01*
X163506812Y-94033608D01*
X163392686Y-94099500D01*
X163392683Y-94099502D01*
X163299502Y-94192683D01*
X163299500Y-94192686D01*
X163233608Y-94306812D01*
X163199500Y-94434108D01*
X90250500Y-94434108D01*
X90250500Y-92934108D01*
X163199500Y-92934108D01*
X163199500Y-93065892D01*
X163212708Y-93115185D01*
X163233608Y-93193187D01*
X163255013Y-93230261D01*
X163299500Y-93307314D01*
X163392686Y-93400500D01*
X163506814Y-93466392D01*
X163634108Y-93500500D01*
X163634110Y-93500500D01*
X163765890Y-93500500D01*
X163765892Y-93500500D01*
X163893186Y-93466392D01*
X164007314Y-93400500D01*
X164100500Y-93307314D01*
X164166392Y-93193186D01*
X164200500Y-93065892D01*
X164200500Y-92934108D01*
X164899500Y-92934108D01*
X164899500Y-93065892D01*
X164912708Y-93115185D01*
X164933608Y-93193187D01*
X164955013Y-93230261D01*
X164999500Y-93307314D01*
X165092686Y-93400500D01*
X165206814Y-93466392D01*
X165334108Y-93500500D01*
X165334110Y-93500500D01*
X165465890Y-93500500D01*
X165465892Y-93500500D01*
X165593186Y-93466392D01*
X165707314Y-93400500D01*
X165800500Y-93307314D01*
X165866392Y-93193186D01*
X165900500Y-93065892D01*
X165900500Y-92934108D01*
X166599500Y-92934108D01*
X166599500Y-93065892D01*
X166612708Y-93115185D01*
X166633608Y-93193187D01*
X166655013Y-93230261D01*
X166699500Y-93307314D01*
X166792686Y-93400500D01*
X166906814Y-93466392D01*
X167034108Y-93500500D01*
X167034110Y-93500500D01*
X167165890Y-93500500D01*
X167165892Y-93500500D01*
X167293186Y-93466392D01*
X167407314Y-93400500D01*
X167500500Y-93307314D01*
X167566392Y-93193186D01*
X167600500Y-93065892D01*
X167600500Y-92934108D01*
X167566392Y-92806814D01*
X167500500Y-92692686D01*
X167407314Y-92599500D01*
X167346013Y-92564108D01*
X167293187Y-92533608D01*
X167229539Y-92516554D01*
X167165892Y-92499500D01*
X167034108Y-92499500D01*
X166906812Y-92533608D01*
X166792686Y-92599500D01*
X166792683Y-92599502D01*
X166699502Y-92692683D01*
X166699500Y-92692686D01*
X166633608Y-92806812D01*
X166603146Y-92920500D01*
X166599500Y-92934108D01*
X165900500Y-92934108D01*
X165866392Y-92806814D01*
X165800500Y-92692686D01*
X165707314Y-92599500D01*
X165646013Y-92564108D01*
X165593187Y-92533608D01*
X165529539Y-92516554D01*
X165465892Y-92499500D01*
X165334108Y-92499500D01*
X165206812Y-92533608D01*
X165092686Y-92599500D01*
X165092683Y-92599502D01*
X164999502Y-92692683D01*
X164999500Y-92692686D01*
X164933608Y-92806812D01*
X164903146Y-92920500D01*
X164899500Y-92934108D01*
X164200500Y-92934108D01*
X164166392Y-92806814D01*
X164100500Y-92692686D01*
X164007314Y-92599500D01*
X163946013Y-92564108D01*
X163893187Y-92533608D01*
X163829539Y-92516554D01*
X163765892Y-92499500D01*
X163634108Y-92499500D01*
X163506812Y-92533608D01*
X163392686Y-92599500D01*
X163392683Y-92599502D01*
X163299502Y-92692683D01*
X163299500Y-92692686D01*
X163233608Y-92806812D01*
X163203146Y-92920500D01*
X163199500Y-92934108D01*
X90250500Y-92934108D01*
X90250500Y-88634108D01*
X159249500Y-88634108D01*
X159249500Y-88765892D01*
X159258772Y-88800497D01*
X159283608Y-88893187D01*
X159316554Y-88950250D01*
X159349500Y-89007314D01*
X159349502Y-89007316D01*
X159354505Y-89012319D01*
X159387990Y-89073642D01*
X159383006Y-89143334D01*
X159354505Y-89187681D01*
X159349502Y-89192683D01*
X159349500Y-89192686D01*
X159283608Y-89306812D01*
X159264477Y-89378211D01*
X159249500Y-89434108D01*
X159249500Y-89565892D01*
X159259750Y-89604147D01*
X159283608Y-89693187D01*
X159291475Y-89706812D01*
X159349500Y-89807314D01*
X159442686Y-89900500D01*
X159541521Y-89957563D01*
X159555944Y-89965890D01*
X159556814Y-89966392D01*
X159684108Y-90000500D01*
X159684110Y-90000500D01*
X159815890Y-90000500D01*
X159815892Y-90000500D01*
X159943186Y-89966392D01*
X160057314Y-89900500D01*
X160150500Y-89807314D01*
X160216392Y-89693186D01*
X160230225Y-89641556D01*
X160266590Y-89581897D01*
X160329436Y-89551368D01*
X160398812Y-89559662D01*
X160452690Y-89604147D01*
X160469773Y-89641555D01*
X160479072Y-89676259D01*
X160483608Y-89693187D01*
X160491475Y-89706812D01*
X160549500Y-89807314D01*
X160642686Y-89900500D01*
X160741521Y-89957563D01*
X160755944Y-89965890D01*
X160756814Y-89966392D01*
X160884108Y-90000500D01*
X160884110Y-90000500D01*
X161015890Y-90000500D01*
X161015892Y-90000500D01*
X161143186Y-89966392D01*
X161257314Y-89900500D01*
X161350500Y-89807314D01*
X161416392Y-89693186D01*
X161450500Y-89565892D01*
X161450500Y-89434108D01*
X161416392Y-89306814D01*
X161350500Y-89192686D01*
X161345495Y-89187681D01*
X161312010Y-89126358D01*
X161316994Y-89056666D01*
X161345495Y-89012319D01*
X161350500Y-89007314D01*
X161416392Y-88893186D01*
X161450500Y-88765892D01*
X161450500Y-88634108D01*
X161749500Y-88634108D01*
X161749500Y-88765892D01*
X161758772Y-88800497D01*
X161783608Y-88893187D01*
X161816554Y-88950250D01*
X161849500Y-89007314D01*
X161849502Y-89007316D01*
X161854505Y-89012319D01*
X161887990Y-89073642D01*
X161883006Y-89143334D01*
X161854505Y-89187681D01*
X161849502Y-89192683D01*
X161849500Y-89192686D01*
X161783608Y-89306812D01*
X161764477Y-89378211D01*
X161749500Y-89434108D01*
X161749500Y-89565892D01*
X161759750Y-89604147D01*
X161783608Y-89693187D01*
X161791475Y-89706812D01*
X161849500Y-89807314D01*
X161942686Y-89900500D01*
X162041521Y-89957563D01*
X162055944Y-89965890D01*
X162056814Y-89966392D01*
X162184108Y-90000500D01*
X162184110Y-90000500D01*
X162315890Y-90000500D01*
X162315892Y-90000500D01*
X162443186Y-89966392D01*
X162557314Y-89900500D01*
X162623706Y-89834108D01*
X163299500Y-89834108D01*
X163299500Y-89965892D01*
X163308773Y-90000499D01*
X163333608Y-90093187D01*
X163341475Y-90106812D01*
X163399500Y-90207314D01*
X163492686Y-90300500D01*
X163591521Y-90357563D01*
X163605944Y-90365890D01*
X163606814Y-90366392D01*
X163734108Y-90400500D01*
X163734110Y-90400500D01*
X163865890Y-90400500D01*
X163865892Y-90400500D01*
X163993186Y-90366392D01*
X164107314Y-90300500D01*
X164200500Y-90207314D01*
X164266392Y-90093186D01*
X164300500Y-89965892D01*
X164300500Y-89834108D01*
X164999500Y-89834108D01*
X164999500Y-89965892D01*
X165008773Y-90000499D01*
X165033608Y-90093187D01*
X165041475Y-90106812D01*
X165099500Y-90207314D01*
X165192686Y-90300500D01*
X165291521Y-90357563D01*
X165305944Y-90365890D01*
X165306814Y-90366392D01*
X165434108Y-90400500D01*
X165434110Y-90400500D01*
X165565890Y-90400500D01*
X165565892Y-90400500D01*
X165693186Y-90366392D01*
X165807314Y-90300500D01*
X165900500Y-90207314D01*
X165966392Y-90093186D01*
X166000500Y-89965892D01*
X166000500Y-89834108D01*
X166699500Y-89834108D01*
X166699500Y-89965892D01*
X166708773Y-90000499D01*
X166733608Y-90093187D01*
X166741475Y-90106812D01*
X166799500Y-90207314D01*
X166892686Y-90300500D01*
X166991521Y-90357563D01*
X167005944Y-90365890D01*
X167006814Y-90366392D01*
X167134108Y-90400500D01*
X167134110Y-90400500D01*
X167265890Y-90400500D01*
X167265892Y-90400500D01*
X167393186Y-90366392D01*
X167507314Y-90300500D01*
X167600500Y-90207314D01*
X167666392Y-90093186D01*
X167700500Y-89965892D01*
X167700500Y-89834108D01*
X167666392Y-89706814D01*
X167600500Y-89592686D01*
X167507314Y-89499500D01*
X167419207Y-89448631D01*
X167393187Y-89433608D01*
X167329539Y-89416554D01*
X167265892Y-89399500D01*
X167134108Y-89399500D01*
X167006812Y-89433608D01*
X166892686Y-89499500D01*
X166892683Y-89499502D01*
X166799502Y-89592683D01*
X166799500Y-89592686D01*
X166733608Y-89706812D01*
X166706681Y-89807307D01*
X166699500Y-89834108D01*
X166000500Y-89834108D01*
X165966392Y-89706814D01*
X165900500Y-89592686D01*
X165807314Y-89499500D01*
X165719207Y-89448631D01*
X165693187Y-89433608D01*
X165629539Y-89416554D01*
X165565892Y-89399500D01*
X165434108Y-89399500D01*
X165306812Y-89433608D01*
X165192686Y-89499500D01*
X165192683Y-89499502D01*
X165099502Y-89592683D01*
X165099500Y-89592686D01*
X165033608Y-89706812D01*
X165006681Y-89807307D01*
X164999500Y-89834108D01*
X164300500Y-89834108D01*
X164266392Y-89706814D01*
X164200500Y-89592686D01*
X164107314Y-89499500D01*
X164019207Y-89448631D01*
X163993187Y-89433608D01*
X163929539Y-89416554D01*
X163865892Y-89399500D01*
X163734108Y-89399500D01*
X163606812Y-89433608D01*
X163492686Y-89499500D01*
X163492683Y-89499502D01*
X163399502Y-89592683D01*
X163399500Y-89592686D01*
X163333608Y-89706812D01*
X163306681Y-89807307D01*
X163299500Y-89834108D01*
X162623706Y-89834108D01*
X162650500Y-89807314D01*
X162663023Y-89785622D01*
X162675520Y-89763980D01*
X162716390Y-89693189D01*
X162716392Y-89693186D01*
X162750500Y-89565892D01*
X162750500Y-89434108D01*
X162716392Y-89306814D01*
X162650500Y-89192686D01*
X162645495Y-89187681D01*
X162612010Y-89126358D01*
X162616994Y-89056666D01*
X162645495Y-89012319D01*
X162650500Y-89007314D01*
X162716392Y-88893186D01*
X162750500Y-88765892D01*
X162750500Y-88634108D01*
X162716392Y-88506814D01*
X162713091Y-88501097D01*
X162650503Y-88392691D01*
X162650502Y-88392690D01*
X162650500Y-88392686D01*
X162591922Y-88334108D01*
X163299500Y-88334108D01*
X163299500Y-88465891D01*
X163333608Y-88593187D01*
X163360830Y-88640336D01*
X163399500Y-88707314D01*
X163492686Y-88800500D01*
X163606814Y-88866392D01*
X163734108Y-88900500D01*
X163734110Y-88900500D01*
X163865890Y-88900500D01*
X163865892Y-88900500D01*
X163993186Y-88866392D01*
X164107314Y-88800500D01*
X164200500Y-88707314D01*
X164266392Y-88593186D01*
X164300500Y-88465892D01*
X164300500Y-88334108D01*
X164999500Y-88334108D01*
X164999500Y-88465891D01*
X165033608Y-88593187D01*
X165060830Y-88640336D01*
X165099500Y-88707314D01*
X165192686Y-88800500D01*
X165306814Y-88866392D01*
X165434108Y-88900500D01*
X165434110Y-88900500D01*
X165565890Y-88900500D01*
X165565892Y-88900500D01*
X165693186Y-88866392D01*
X165807314Y-88800500D01*
X165900500Y-88707314D01*
X165966392Y-88593186D01*
X166000500Y-88465892D01*
X166000500Y-88334108D01*
X166699500Y-88334108D01*
X166699500Y-88465891D01*
X166733608Y-88593187D01*
X166760830Y-88640336D01*
X166799500Y-88707314D01*
X166892686Y-88800500D01*
X167006814Y-88866392D01*
X167134108Y-88900500D01*
X167134110Y-88900500D01*
X167265890Y-88900500D01*
X167265892Y-88900500D01*
X167393186Y-88866392D01*
X167507314Y-88800500D01*
X167600500Y-88707314D01*
X167666392Y-88593186D01*
X167700500Y-88465892D01*
X167700500Y-88334108D01*
X167666392Y-88206814D01*
X167600500Y-88092686D01*
X167507314Y-87999500D01*
X167450250Y-87966554D01*
X167393187Y-87933608D01*
X167329539Y-87916554D01*
X167265892Y-87899500D01*
X167134108Y-87899500D01*
X167006812Y-87933608D01*
X166892686Y-87999500D01*
X166892683Y-87999502D01*
X166799502Y-88092683D01*
X166799500Y-88092686D01*
X166733608Y-88206812D01*
X166699500Y-88334108D01*
X166000500Y-88334108D01*
X165966392Y-88206814D01*
X165900500Y-88092686D01*
X165807314Y-87999500D01*
X165750250Y-87966554D01*
X165693187Y-87933608D01*
X165629539Y-87916554D01*
X165565892Y-87899500D01*
X165434108Y-87899500D01*
X165306812Y-87933608D01*
X165192686Y-87999500D01*
X165192683Y-87999502D01*
X165099502Y-88092683D01*
X165099500Y-88092686D01*
X165033608Y-88206812D01*
X164999500Y-88334108D01*
X164300500Y-88334108D01*
X164266392Y-88206814D01*
X164200500Y-88092686D01*
X164107314Y-87999500D01*
X164050250Y-87966554D01*
X163993187Y-87933608D01*
X163929539Y-87916554D01*
X163865892Y-87899500D01*
X163734108Y-87899500D01*
X163606812Y-87933608D01*
X163492686Y-87999500D01*
X163492683Y-87999502D01*
X163399502Y-88092683D01*
X163399500Y-88092686D01*
X163333608Y-88206812D01*
X163299500Y-88334108D01*
X162591922Y-88334108D01*
X162557314Y-88299500D01*
X162500250Y-88266554D01*
X162443187Y-88233608D01*
X162343188Y-88206814D01*
X162315892Y-88199500D01*
X162184108Y-88199500D01*
X162056812Y-88233608D01*
X161942686Y-88299500D01*
X161942683Y-88299502D01*
X161849502Y-88392683D01*
X161849500Y-88392686D01*
X161783608Y-88506812D01*
X161759751Y-88595851D01*
X161749500Y-88634108D01*
X161450500Y-88634108D01*
X161416392Y-88506814D01*
X161350500Y-88392686D01*
X161257314Y-88299500D01*
X161200250Y-88266554D01*
X161143187Y-88233608D01*
X161043188Y-88206814D01*
X161015892Y-88199500D01*
X160884108Y-88199500D01*
X160756812Y-88233608D01*
X160642686Y-88299500D01*
X160642683Y-88299502D01*
X160549502Y-88392683D01*
X160549500Y-88392686D01*
X160483608Y-88506812D01*
X160469775Y-88558441D01*
X160433410Y-88618102D01*
X160370563Y-88648631D01*
X160301188Y-88640336D01*
X160247310Y-88595851D01*
X160230225Y-88558441D01*
X160216391Y-88506812D01*
X160207563Y-88491521D01*
X160150500Y-88392686D01*
X160057314Y-88299500D01*
X160000250Y-88266554D01*
X159943187Y-88233608D01*
X159843188Y-88206814D01*
X159815892Y-88199500D01*
X159684108Y-88199500D01*
X159556812Y-88233608D01*
X159442686Y-88299500D01*
X159442683Y-88299502D01*
X159349502Y-88392683D01*
X159349500Y-88392686D01*
X159283608Y-88506812D01*
X159259751Y-88595851D01*
X159249500Y-88634108D01*
X90250500Y-88634108D01*
X90250500Y-86834108D01*
X163299500Y-86834108D01*
X163299500Y-86965892D01*
X163312708Y-87015185D01*
X163333608Y-87093187D01*
X163366554Y-87150250D01*
X163399500Y-87207314D01*
X163492686Y-87300500D01*
X163606814Y-87366392D01*
X163734108Y-87400500D01*
X163734110Y-87400500D01*
X163865890Y-87400500D01*
X163865892Y-87400500D01*
X163993186Y-87366392D01*
X164107314Y-87300500D01*
X164200500Y-87207314D01*
X164266392Y-87093186D01*
X164300500Y-86965892D01*
X164300500Y-86834108D01*
X164999500Y-86834108D01*
X164999500Y-86965892D01*
X165012708Y-87015185D01*
X165033608Y-87093187D01*
X165066554Y-87150250D01*
X165099500Y-87207314D01*
X165192686Y-87300500D01*
X165306814Y-87366392D01*
X165434108Y-87400500D01*
X165434110Y-87400500D01*
X165565890Y-87400500D01*
X165565892Y-87400500D01*
X165693186Y-87366392D01*
X165807314Y-87300500D01*
X165900500Y-87207314D01*
X165966392Y-87093186D01*
X166000500Y-86965892D01*
X166000500Y-86834108D01*
X166699500Y-86834108D01*
X166699500Y-86965892D01*
X166712708Y-87015185D01*
X166733608Y-87093187D01*
X166766554Y-87150250D01*
X166799500Y-87207314D01*
X166892686Y-87300500D01*
X167006814Y-87366392D01*
X167134108Y-87400500D01*
X167134110Y-87400500D01*
X167265890Y-87400500D01*
X167265892Y-87400500D01*
X167393186Y-87366392D01*
X167507314Y-87300500D01*
X167600500Y-87207314D01*
X167666392Y-87093186D01*
X167700500Y-86965892D01*
X167700500Y-86834108D01*
X167666392Y-86706814D01*
X167600500Y-86592686D01*
X167507314Y-86499500D01*
X167446013Y-86464108D01*
X167393187Y-86433608D01*
X167329539Y-86416554D01*
X167265892Y-86399500D01*
X167134108Y-86399500D01*
X167006812Y-86433608D01*
X166892686Y-86499500D01*
X166892683Y-86499502D01*
X166799502Y-86592683D01*
X166799500Y-86592686D01*
X166733608Y-86706812D01*
X166703146Y-86820500D01*
X166699500Y-86834108D01*
X166000500Y-86834108D01*
X165966392Y-86706814D01*
X165900500Y-86592686D01*
X165807314Y-86499500D01*
X165746013Y-86464108D01*
X165693187Y-86433608D01*
X165629539Y-86416554D01*
X165565892Y-86399500D01*
X165434108Y-86399500D01*
X165306812Y-86433608D01*
X165192686Y-86499500D01*
X165192683Y-86499502D01*
X165099502Y-86592683D01*
X165099500Y-86592686D01*
X165033608Y-86706812D01*
X165003146Y-86820500D01*
X164999500Y-86834108D01*
X164300500Y-86834108D01*
X164266392Y-86706814D01*
X164200500Y-86592686D01*
X164107314Y-86499500D01*
X164046013Y-86464108D01*
X163993187Y-86433608D01*
X163929539Y-86416554D01*
X163865892Y-86399500D01*
X163734108Y-86399500D01*
X163606812Y-86433608D01*
X163492686Y-86499500D01*
X163492683Y-86499502D01*
X163399502Y-86592683D01*
X163399500Y-86592686D01*
X163333608Y-86706812D01*
X163303146Y-86820500D01*
X163299500Y-86834108D01*
X90250500Y-86834108D01*
X90250500Y-80834108D01*
X168399500Y-80834108D01*
X168399500Y-80965891D01*
X168433608Y-81093187D01*
X168466554Y-81150250D01*
X168499500Y-81207314D01*
X168499502Y-81207316D01*
X168563181Y-81270995D01*
X168596666Y-81332318D01*
X168599500Y-81358676D01*
X168599500Y-82841323D01*
X168579815Y-82908362D01*
X168563182Y-82929004D01*
X168499500Y-82992686D01*
X168433608Y-83106812D01*
X168408773Y-83199500D01*
X168399500Y-83234108D01*
X168399500Y-83365892D01*
X168406779Y-83393059D01*
X168433608Y-83493187D01*
X168466554Y-83550250D01*
X168499500Y-83607314D01*
X168592686Y-83700500D01*
X168706814Y-83766392D01*
X168834108Y-83800500D01*
X168834110Y-83800500D01*
X168965890Y-83800500D01*
X168965892Y-83800500D01*
X169093186Y-83766392D01*
X169207314Y-83700500D01*
X169300500Y-83607314D01*
X169366392Y-83493186D01*
X169400500Y-83365892D01*
X169400500Y-83234108D01*
X169366392Y-83106814D01*
X169300500Y-82992686D01*
X169236818Y-82929004D01*
X169203334Y-82867680D01*
X169200500Y-82841323D01*
X169200500Y-81921153D01*
X182274500Y-81921153D01*
X182274500Y-82078846D01*
X182305261Y-82233489D01*
X182305264Y-82233501D01*
X182365602Y-82379172D01*
X182365609Y-82379185D01*
X182453210Y-82510288D01*
X182453213Y-82510292D01*
X182564707Y-82621786D01*
X182564711Y-82621789D01*
X182695814Y-82709390D01*
X182695827Y-82709397D01*
X182841498Y-82769735D01*
X182841503Y-82769737D01*
X182996153Y-82800499D01*
X182996156Y-82800500D01*
X182996158Y-82800500D01*
X183703844Y-82800500D01*
X183703845Y-82800499D01*
X183858497Y-82769737D01*
X184004179Y-82709394D01*
X184135289Y-82621789D01*
X184158983Y-82598095D01*
X184237819Y-82519260D01*
X184299142Y-82485775D01*
X184368834Y-82490759D01*
X184424767Y-82532631D01*
X184449184Y-82598095D01*
X184449500Y-82606941D01*
X184449500Y-83393059D01*
X184429815Y-83460098D01*
X184377011Y-83505853D01*
X184307853Y-83515797D01*
X184244297Y-83486772D01*
X184237819Y-83480740D01*
X184135292Y-83378213D01*
X184135288Y-83378210D01*
X184004185Y-83290609D01*
X184004172Y-83290602D01*
X183858501Y-83230264D01*
X183858489Y-83230261D01*
X183703845Y-83199500D01*
X183703842Y-83199500D01*
X182996158Y-83199500D01*
X182996155Y-83199500D01*
X182841510Y-83230261D01*
X182841498Y-83230264D01*
X182695827Y-83290602D01*
X182695814Y-83290609D01*
X182564711Y-83378210D01*
X182564707Y-83378213D01*
X182453213Y-83489707D01*
X182453210Y-83489711D01*
X182365609Y-83620814D01*
X182365602Y-83620827D01*
X182305264Y-83766498D01*
X182305261Y-83766510D01*
X182274500Y-83921153D01*
X182274500Y-84078846D01*
X182305261Y-84233489D01*
X182305264Y-84233501D01*
X182365602Y-84379172D01*
X182365609Y-84379185D01*
X182453210Y-84510288D01*
X182453213Y-84510292D01*
X182564707Y-84621786D01*
X182564711Y-84621789D01*
X182695814Y-84709390D01*
X182695827Y-84709397D01*
X182841498Y-84769735D01*
X182841503Y-84769737D01*
X182996153Y-84800499D01*
X182996156Y-84800500D01*
X182996158Y-84800500D01*
X183703844Y-84800500D01*
X183703845Y-84800499D01*
X183858497Y-84769737D01*
X184004179Y-84709394D01*
X184135289Y-84621789D01*
X184158983Y-84598095D01*
X184237819Y-84519260D01*
X184299142Y-84485775D01*
X184368834Y-84490759D01*
X184424767Y-84532631D01*
X184449184Y-84598095D01*
X184449500Y-84606941D01*
X184449500Y-85393059D01*
X184429815Y-85460098D01*
X184377011Y-85505853D01*
X184307853Y-85515797D01*
X184244297Y-85486772D01*
X184237819Y-85480740D01*
X184135292Y-85378213D01*
X184135288Y-85378210D01*
X184004185Y-85290609D01*
X184004172Y-85290602D01*
X183858501Y-85230264D01*
X183858489Y-85230261D01*
X183703845Y-85199500D01*
X183703842Y-85199500D01*
X182996158Y-85199500D01*
X182996155Y-85199500D01*
X182841510Y-85230261D01*
X182841498Y-85230264D01*
X182695827Y-85290602D01*
X182695814Y-85290609D01*
X182564711Y-85378210D01*
X182564707Y-85378213D01*
X182453213Y-85489707D01*
X182453210Y-85489711D01*
X182365609Y-85620814D01*
X182365602Y-85620827D01*
X182305264Y-85766498D01*
X182305261Y-85766510D01*
X182274500Y-85921153D01*
X182274500Y-86078846D01*
X182305261Y-86233489D01*
X182305264Y-86233501D01*
X182365602Y-86379172D01*
X182365609Y-86379185D01*
X182453210Y-86510288D01*
X182453213Y-86510292D01*
X182564707Y-86621786D01*
X182564711Y-86621789D01*
X182695814Y-86709390D01*
X182695827Y-86709397D01*
X182841498Y-86769735D01*
X182841503Y-86769737D01*
X182996153Y-86800499D01*
X182996156Y-86800500D01*
X182996158Y-86800500D01*
X183703844Y-86800500D01*
X183703845Y-86800499D01*
X183858497Y-86769737D01*
X184004179Y-86709394D01*
X184135289Y-86621789D01*
X184177433Y-86579645D01*
X184237819Y-86519260D01*
X184299142Y-86485775D01*
X184368834Y-86490759D01*
X184424767Y-86532631D01*
X184449184Y-86598095D01*
X184449500Y-86606941D01*
X184449500Y-89393059D01*
X184429815Y-89460098D01*
X184377011Y-89505853D01*
X184307853Y-89515797D01*
X184244297Y-89486772D01*
X184237819Y-89480740D01*
X184135292Y-89378213D01*
X184135288Y-89378210D01*
X184004185Y-89290609D01*
X184004172Y-89290602D01*
X183858501Y-89230264D01*
X183858489Y-89230261D01*
X183703845Y-89199500D01*
X183703842Y-89199500D01*
X182996158Y-89199500D01*
X182996155Y-89199500D01*
X182841510Y-89230261D01*
X182841498Y-89230264D01*
X182695827Y-89290602D01*
X182695814Y-89290609D01*
X182564711Y-89378210D01*
X182564707Y-89378213D01*
X182453213Y-89489707D01*
X182453210Y-89489711D01*
X182365609Y-89620814D01*
X182365602Y-89620827D01*
X182305264Y-89766498D01*
X182305261Y-89766510D01*
X182274500Y-89921153D01*
X182274500Y-90078846D01*
X182305261Y-90233489D01*
X182305264Y-90233501D01*
X182365602Y-90379172D01*
X182365609Y-90379185D01*
X182453210Y-90510288D01*
X182453213Y-90510292D01*
X182564707Y-90621786D01*
X182564711Y-90621789D01*
X182695814Y-90709390D01*
X182695827Y-90709397D01*
X182833425Y-90766391D01*
X182841503Y-90769737D01*
X182996153Y-90800499D01*
X182996156Y-90800500D01*
X182996158Y-90800500D01*
X183703844Y-90800500D01*
X183828067Y-90775790D01*
X183897659Y-90782017D01*
X183952836Y-90824880D01*
X183976081Y-90890769D01*
X183960013Y-90958766D01*
X183939940Y-90985088D01*
X183761847Y-91163181D01*
X183700524Y-91196666D01*
X183674166Y-91199500D01*
X182996155Y-91199500D01*
X182841510Y-91230261D01*
X182841498Y-91230264D01*
X182695827Y-91290602D01*
X182695814Y-91290609D01*
X182564711Y-91378210D01*
X182564707Y-91378213D01*
X182453213Y-91489707D01*
X182453212Y-91489709D01*
X182365609Y-91620814D01*
X182365602Y-91620827D01*
X182305264Y-91766498D01*
X182305261Y-91766510D01*
X182274500Y-91921153D01*
X182274500Y-92078846D01*
X182305261Y-92233489D01*
X182305264Y-92233501D01*
X182365602Y-92379172D01*
X182365609Y-92379185D01*
X182453210Y-92510288D01*
X182453213Y-92510292D01*
X182564707Y-92621786D01*
X182564711Y-92621789D01*
X182695814Y-92709390D01*
X182695827Y-92709397D01*
X182841498Y-92769735D01*
X182841503Y-92769737D01*
X182996153Y-92800499D01*
X182996156Y-92800500D01*
X182996158Y-92800500D01*
X183703844Y-92800500D01*
X183796762Y-92782017D01*
X183828066Y-92775790D01*
X183897658Y-92782017D01*
X183952835Y-92824880D01*
X183976080Y-92890769D01*
X183960013Y-92958766D01*
X183939939Y-92985088D01*
X183761847Y-93163181D01*
X183700524Y-93196666D01*
X183674166Y-93199500D01*
X182996155Y-93199500D01*
X182841510Y-93230261D01*
X182841498Y-93230264D01*
X182695827Y-93290602D01*
X182695814Y-93290609D01*
X182564711Y-93378210D01*
X182564707Y-93378213D01*
X182453213Y-93489707D01*
X182453210Y-93489711D01*
X182365609Y-93620814D01*
X182365602Y-93620827D01*
X182305264Y-93766498D01*
X182305261Y-93766510D01*
X182274500Y-93921153D01*
X182274500Y-94078846D01*
X182305261Y-94233489D01*
X182305264Y-94233501D01*
X182365602Y-94379172D01*
X182365609Y-94379185D01*
X182453210Y-94510288D01*
X182453213Y-94510292D01*
X182564707Y-94621786D01*
X182564711Y-94621789D01*
X182695814Y-94709390D01*
X182695827Y-94709397D01*
X182841498Y-94769735D01*
X182841503Y-94769737D01*
X182996153Y-94800499D01*
X182996156Y-94800500D01*
X182996158Y-94800500D01*
X183703844Y-94800500D01*
X183828067Y-94775790D01*
X183897659Y-94782017D01*
X183952836Y-94824880D01*
X183976081Y-94890769D01*
X183960013Y-94958766D01*
X183939940Y-94985088D01*
X183761848Y-95163181D01*
X183700525Y-95196666D01*
X183674167Y-95199500D01*
X182670730Y-95199500D01*
X182640300Y-95202353D01*
X182640298Y-95202353D01*
X182512119Y-95247206D01*
X182512117Y-95247207D01*
X182402850Y-95327850D01*
X182322207Y-95437117D01*
X182322206Y-95437119D01*
X182277353Y-95565298D01*
X182277353Y-95565300D01*
X182274500Y-95595730D01*
X182274500Y-96404269D01*
X182277353Y-96434699D01*
X182277353Y-96434701D01*
X182322206Y-96562880D01*
X182322207Y-96562882D01*
X182402850Y-96672150D01*
X182512118Y-96752793D01*
X182534118Y-96760491D01*
X182640299Y-96797646D01*
X182670730Y-96800500D01*
X182670734Y-96800500D01*
X184029270Y-96800500D01*
X184059699Y-96797646D01*
X184059701Y-96797646D01*
X184123790Y-96775219D01*
X184187882Y-96752793D01*
X184297150Y-96672150D01*
X184377793Y-96562882D01*
X184400219Y-96498790D01*
X184422646Y-96434701D01*
X184422646Y-96434699D01*
X184425500Y-96404269D01*
X184425500Y-95595730D01*
X184422646Y-95565301D01*
X184411556Y-95533608D01*
X184393172Y-95481071D01*
X184389610Y-95411294D01*
X184422531Y-95352438D01*
X188240460Y-91534511D01*
X188266325Y-91489711D01*
X188280021Y-91465989D01*
X188300500Y-91389562D01*
X188300500Y-66960438D01*
X188280021Y-66884011D01*
X188280017Y-66884004D01*
X188240464Y-66815495D01*
X188240458Y-66815487D01*
X187786819Y-66361848D01*
X187753334Y-66300525D01*
X187750500Y-66274167D01*
X187750500Y-66184110D01*
X187750500Y-66184108D01*
X187716392Y-66056814D01*
X187650500Y-65942686D01*
X187557314Y-65849500D01*
X187500250Y-65816554D01*
X187443187Y-65783608D01*
X187379539Y-65766554D01*
X187315892Y-65749500D01*
X187184108Y-65749500D01*
X187056812Y-65783608D01*
X186942686Y-65849500D01*
X186942683Y-65849502D01*
X186849502Y-65942683D01*
X186849500Y-65942686D01*
X186781887Y-66059794D01*
X186731319Y-66108009D01*
X186662712Y-66121231D01*
X186597848Y-66095263D01*
X186557320Y-66038349D01*
X186550500Y-65997793D01*
X186550500Y-63175832D01*
X186570185Y-63108793D01*
X186586815Y-63088155D01*
X187138151Y-62536818D01*
X187199474Y-62503334D01*
X187225832Y-62500500D01*
X187315890Y-62500500D01*
X187315892Y-62500500D01*
X187443186Y-62466392D01*
X187557314Y-62400500D01*
X187650500Y-62307314D01*
X187716392Y-62193186D01*
X187750500Y-62065892D01*
X187750500Y-61934108D01*
X187716392Y-61806814D01*
X187650500Y-61692686D01*
X187557314Y-61599500D01*
X187500250Y-61566554D01*
X187443187Y-61533608D01*
X187379539Y-61516554D01*
X187315892Y-61499500D01*
X187184108Y-61499500D01*
X187056812Y-61533608D01*
X186942686Y-61599500D01*
X186942683Y-61599502D01*
X186849502Y-61692683D01*
X186849500Y-61692686D01*
X186783608Y-61806812D01*
X186749500Y-61934108D01*
X186749500Y-62024166D01*
X186729815Y-62091205D01*
X186713181Y-62111847D01*
X186065489Y-62759540D01*
X186009541Y-62815487D01*
X186009535Y-62815495D01*
X185969982Y-62884004D01*
X185969979Y-62884009D01*
X185949500Y-62960439D01*
X185949500Y-90924166D01*
X185929815Y-90991205D01*
X185913181Y-91011847D01*
X184610088Y-92314940D01*
X184548765Y-92348425D01*
X184479073Y-92343441D01*
X184423140Y-92301569D01*
X184398723Y-92236105D01*
X184400790Y-92203067D01*
X184425500Y-92078844D01*
X184425500Y-91921155D01*
X184425499Y-91921153D01*
X184394738Y-91766510D01*
X184394737Y-91766503D01*
X184394735Y-91766498D01*
X184334397Y-91620827D01*
X184334395Y-91620823D01*
X184334394Y-91620821D01*
X184318735Y-91597385D01*
X184297857Y-91530708D01*
X184316341Y-91463328D01*
X184334151Y-91440818D01*
X184990460Y-90784511D01*
X185000921Y-90766392D01*
X185030021Y-90715989D01*
X185050500Y-90639562D01*
X185050500Y-60175832D01*
X185070185Y-60108793D01*
X185086814Y-60088156D01*
X187138151Y-58036818D01*
X187199474Y-58003334D01*
X187225832Y-58000500D01*
X187315890Y-58000500D01*
X187315892Y-58000500D01*
X187443186Y-57966392D01*
X187557314Y-57900500D01*
X187650500Y-57807314D01*
X187716392Y-57693186D01*
X187750500Y-57565892D01*
X187750500Y-57434108D01*
X187716392Y-57306814D01*
X187650500Y-57192686D01*
X187557314Y-57099500D01*
X187500250Y-57066554D01*
X187443187Y-57033608D01*
X187379539Y-57016554D01*
X187315892Y-56999500D01*
X187184108Y-56999500D01*
X187056812Y-57033608D01*
X186942686Y-57099500D01*
X186942683Y-57099502D01*
X186849502Y-57192683D01*
X186849500Y-57192686D01*
X186783608Y-57306812D01*
X186749500Y-57434108D01*
X186749500Y-57524166D01*
X186729815Y-57591205D01*
X186713181Y-57611847D01*
X184565489Y-59759540D01*
X184509541Y-59815487D01*
X184509535Y-59815495D01*
X184469982Y-59884004D01*
X184469979Y-59884009D01*
X184449500Y-59960439D01*
X184449500Y-81393059D01*
X184429815Y-81460098D01*
X184377011Y-81505853D01*
X184307853Y-81515797D01*
X184244297Y-81486772D01*
X184237819Y-81480740D01*
X184135292Y-81378213D01*
X184135288Y-81378210D01*
X184004185Y-81290609D01*
X184004172Y-81290602D01*
X183858501Y-81230264D01*
X183858489Y-81230261D01*
X183703845Y-81199500D01*
X183703842Y-81199500D01*
X182996158Y-81199500D01*
X182996155Y-81199500D01*
X182841510Y-81230261D01*
X182841498Y-81230264D01*
X182695827Y-81290602D01*
X182695814Y-81290609D01*
X182564711Y-81378210D01*
X182564707Y-81378213D01*
X182453213Y-81489707D01*
X182453210Y-81489711D01*
X182365609Y-81620814D01*
X182365602Y-81620827D01*
X182305264Y-81766498D01*
X182305261Y-81766510D01*
X182274500Y-81921153D01*
X169200500Y-81921153D01*
X169200500Y-81358676D01*
X169220185Y-81291637D01*
X169236819Y-81270995D01*
X169300500Y-81207314D01*
X169366392Y-81093186D01*
X169400500Y-80965892D01*
X169400500Y-80834108D01*
X169366392Y-80706814D01*
X169300500Y-80592686D01*
X169207314Y-80499500D01*
X169150250Y-80466554D01*
X169093187Y-80433608D01*
X169029539Y-80416554D01*
X168965892Y-80399500D01*
X168834108Y-80399500D01*
X168706812Y-80433608D01*
X168592686Y-80499500D01*
X168592683Y-80499502D01*
X168499502Y-80592683D01*
X168499500Y-80592686D01*
X168433608Y-80706812D01*
X168399500Y-80834108D01*
X90250500Y-80834108D01*
X90250500Y-74405513D01*
X143699500Y-74405513D01*
X143699500Y-74594486D01*
X143729059Y-74781118D01*
X143787454Y-74960836D01*
X143873240Y-75129199D01*
X143984310Y-75282073D01*
X144117927Y-75415690D01*
X144270801Y-75526760D01*
X144347598Y-75565890D01*
X144439163Y-75612545D01*
X144439165Y-75612545D01*
X144439168Y-75612547D01*
X144535497Y-75643846D01*
X144618881Y-75670940D01*
X144805514Y-75700500D01*
X144805519Y-75700500D01*
X144994486Y-75700500D01*
X145181118Y-75670940D01*
X145360832Y-75612547D01*
X145529199Y-75526760D01*
X145656723Y-75434108D01*
X148999500Y-75434108D01*
X148999500Y-75565892D01*
X149027647Y-75670940D01*
X149033609Y-75693188D01*
X149033609Y-75693189D01*
X149102782Y-75813000D01*
X149119255Y-75880900D01*
X149102782Y-75937000D01*
X149033609Y-76056810D01*
X149033609Y-76056811D01*
X148999500Y-76184108D01*
X148999500Y-76315891D01*
X149033608Y-76443187D01*
X149059481Y-76487999D01*
X149099500Y-76557314D01*
X149192686Y-76650500D01*
X149306814Y-76716392D01*
X149434108Y-76750500D01*
X149434110Y-76750500D01*
X149565890Y-76750500D01*
X149565892Y-76750500D01*
X149693186Y-76716392D01*
X149807314Y-76650500D01*
X149900500Y-76557314D01*
X149900504Y-76557306D01*
X149901625Y-76555847D01*
X149902892Y-76554921D01*
X149906247Y-76551567D01*
X149906770Y-76552090D01*
X149958053Y-76514645D01*
X150027799Y-76510491D01*
X150088719Y-76544704D01*
X150098375Y-76555847D01*
X150099498Y-76557311D01*
X150099500Y-76557314D01*
X150192686Y-76650500D01*
X150306814Y-76716392D01*
X150434108Y-76750500D01*
X150434110Y-76750500D01*
X150565890Y-76750500D01*
X150565892Y-76750500D01*
X150693186Y-76716392D01*
X150807314Y-76650500D01*
X150900500Y-76557314D01*
X150900504Y-76557306D01*
X150901625Y-76555847D01*
X150902892Y-76554921D01*
X150906247Y-76551567D01*
X150906770Y-76552090D01*
X150958053Y-76514645D01*
X151027799Y-76510491D01*
X151088719Y-76544704D01*
X151098375Y-76555847D01*
X151099498Y-76557311D01*
X151099500Y-76557314D01*
X151192686Y-76650500D01*
X151306814Y-76716392D01*
X151434108Y-76750500D01*
X151434110Y-76750500D01*
X151565890Y-76750500D01*
X151565892Y-76750500D01*
X151693186Y-76716392D01*
X151807314Y-76650500D01*
X151900500Y-76557314D01*
X151966392Y-76443186D01*
X152000500Y-76315892D01*
X152000500Y-76184108D01*
X151987103Y-76134108D01*
X166799500Y-76134108D01*
X166799500Y-76265892D01*
X166832531Y-76389168D01*
X166833609Y-76393188D01*
X166833609Y-76393189D01*
X166888348Y-76488000D01*
X166904821Y-76555900D01*
X166888348Y-76612000D01*
X166833609Y-76706810D01*
X166833609Y-76706811D01*
X166833608Y-76706813D01*
X166833608Y-76706814D01*
X166820559Y-76755513D01*
X166799500Y-76834108D01*
X166799500Y-76965891D01*
X166833609Y-77093188D01*
X166833609Y-77093189D01*
X166888348Y-77188000D01*
X166904821Y-77255900D01*
X166888348Y-77312000D01*
X166833609Y-77406810D01*
X166833609Y-77406811D01*
X166799500Y-77534108D01*
X166799500Y-77665891D01*
X166833608Y-77793187D01*
X166866554Y-77850250D01*
X166899500Y-77907314D01*
X166992686Y-78000500D01*
X167106814Y-78066392D01*
X167234108Y-78100500D01*
X167234110Y-78100500D01*
X167365890Y-78100500D01*
X167365892Y-78100500D01*
X167493186Y-78066392D01*
X167607314Y-78000500D01*
X167700500Y-77907314D01*
X167766392Y-77793186D01*
X167800500Y-77665892D01*
X167800500Y-77534108D01*
X167766392Y-77406814D01*
X167711650Y-77311999D01*
X167695178Y-77244100D01*
X167711650Y-77188000D01*
X167766392Y-77093186D01*
X167800500Y-76965892D01*
X167800500Y-76834108D01*
X167779441Y-76755513D01*
X175549500Y-76755513D01*
X175549500Y-76944486D01*
X175579059Y-77131118D01*
X175637454Y-77310836D01*
X175686357Y-77406812D01*
X175723240Y-77479199D01*
X175834310Y-77632073D01*
X175967927Y-77765690D01*
X176120801Y-77876760D01*
X176180765Y-77907313D01*
X176289163Y-77962545D01*
X176289165Y-77962545D01*
X176289168Y-77962547D01*
X176385497Y-77993846D01*
X176468881Y-78020940D01*
X176655514Y-78050500D01*
X176655519Y-78050500D01*
X176844486Y-78050500D01*
X177031118Y-78020940D01*
X177094025Y-78000500D01*
X177210832Y-77962547D01*
X177379199Y-77876760D01*
X177532073Y-77765690D01*
X177665690Y-77632073D01*
X177776760Y-77479199D01*
X177862547Y-77310832D01*
X177920940Y-77131118D01*
X177926947Y-77093189D01*
X177950500Y-76944486D01*
X177950500Y-76755513D01*
X177920940Y-76568881D01*
X177880099Y-76443187D01*
X177862547Y-76389168D01*
X177862545Y-76389165D01*
X177862545Y-76389163D01*
X177776759Y-76220800D01*
X177750102Y-76184110D01*
X177665690Y-76067927D01*
X177532073Y-75934310D01*
X177379199Y-75823240D01*
X177359100Y-75812999D01*
X177210836Y-75737454D01*
X177031118Y-75679059D01*
X176844486Y-75649500D01*
X176844481Y-75649500D01*
X176655519Y-75649500D01*
X176655514Y-75649500D01*
X176468881Y-75679059D01*
X176289163Y-75737454D01*
X176120800Y-75823240D01*
X176057679Y-75869101D01*
X175967927Y-75934310D01*
X175967925Y-75934312D01*
X175967924Y-75934312D01*
X175834312Y-76067924D01*
X175834312Y-76067925D01*
X175834310Y-76067927D01*
X175786610Y-76133579D01*
X175723240Y-76220800D01*
X175637454Y-76389163D01*
X175579059Y-76568881D01*
X175549500Y-76755513D01*
X167779441Y-76755513D01*
X167766392Y-76706814D01*
X167708159Y-76605952D01*
X167705370Y-76599554D01*
X167701836Y-76571544D01*
X167695178Y-76544100D01*
X167697413Y-76536488D01*
X167696624Y-76530234D01*
X167703436Y-76515973D01*
X167711650Y-76488000D01*
X167766392Y-76393186D01*
X167800500Y-76265892D01*
X167800500Y-76134108D01*
X167766392Y-76006814D01*
X167700500Y-75892686D01*
X167607314Y-75799500D01*
X167550250Y-75766554D01*
X167493187Y-75733608D01*
X167429539Y-75716554D01*
X167365892Y-75699500D01*
X167234108Y-75699500D01*
X167106812Y-75733608D01*
X166992686Y-75799500D01*
X166992683Y-75799502D01*
X166899502Y-75892683D01*
X166899500Y-75892686D01*
X166833608Y-76006812D01*
X166817233Y-76067927D01*
X166799500Y-76134108D01*
X151987103Y-76134108D01*
X151966392Y-76056814D01*
X151900500Y-75942686D01*
X151900498Y-75942684D01*
X151897217Y-75937001D01*
X151880744Y-75869101D01*
X151897217Y-75812999D01*
X151900498Y-75807315D01*
X151900500Y-75807314D01*
X151966392Y-75693186D01*
X152000500Y-75565892D01*
X152000500Y-75434108D01*
X151966392Y-75306814D01*
X151900500Y-75192686D01*
X151807314Y-75099500D01*
X151750250Y-75066554D01*
X151693187Y-75033608D01*
X151629539Y-75016554D01*
X151565892Y-74999500D01*
X151434108Y-74999500D01*
X151306812Y-75033608D01*
X151192686Y-75099500D01*
X151192683Y-75099502D01*
X151099498Y-75192687D01*
X151098370Y-75194158D01*
X151097102Y-75195083D01*
X151093753Y-75198433D01*
X151093230Y-75197910D01*
X151041940Y-75235356D01*
X150972193Y-75239506D01*
X150911275Y-75205289D01*
X150901630Y-75194158D01*
X150900501Y-75192687D01*
X150807316Y-75099502D01*
X150807314Y-75099500D01*
X150750250Y-75066554D01*
X150693187Y-75033608D01*
X150629539Y-75016554D01*
X150565892Y-74999500D01*
X150434108Y-74999500D01*
X150306812Y-75033608D01*
X150192686Y-75099500D01*
X150192683Y-75099502D01*
X150099498Y-75192687D01*
X150098370Y-75194158D01*
X150097102Y-75195083D01*
X150093753Y-75198433D01*
X150093230Y-75197910D01*
X150041940Y-75235356D01*
X149972193Y-75239506D01*
X149911275Y-75205289D01*
X149901630Y-75194158D01*
X149900501Y-75192687D01*
X149807316Y-75099502D01*
X149807314Y-75099500D01*
X149750250Y-75066554D01*
X149693187Y-75033608D01*
X149629539Y-75016554D01*
X149565892Y-74999500D01*
X149434108Y-74999500D01*
X149306812Y-75033608D01*
X149192686Y-75099500D01*
X149192683Y-75099502D01*
X149099502Y-75192683D01*
X149099500Y-75192686D01*
X149033608Y-75306812D01*
X149025171Y-75338300D01*
X148999500Y-75434108D01*
X145656723Y-75434108D01*
X145682073Y-75415690D01*
X145815690Y-75282073D01*
X145926760Y-75129199D01*
X146012547Y-74960832D01*
X146070940Y-74781118D01*
X146100500Y-74594486D01*
X146100500Y-74405513D01*
X146070940Y-74218881D01*
X146032475Y-74100499D01*
X146012547Y-74039168D01*
X146012545Y-74039165D01*
X146012545Y-74039163D01*
X145945364Y-73907314D01*
X145926760Y-73870801D01*
X145815690Y-73717927D01*
X145682073Y-73584310D01*
X145529199Y-73473240D01*
X145360836Y-73387454D01*
X145181118Y-73329059D01*
X144994486Y-73299500D01*
X144994481Y-73299500D01*
X144805519Y-73299500D01*
X144805514Y-73299500D01*
X144618881Y-73329059D01*
X144439163Y-73387454D01*
X144270800Y-73473240D01*
X144189593Y-73532241D01*
X144117927Y-73584310D01*
X144117925Y-73584312D01*
X144117924Y-73584312D01*
X143984312Y-73717924D01*
X143984312Y-73717925D01*
X143984310Y-73717927D01*
X143936610Y-73783579D01*
X143873240Y-73870800D01*
X143787454Y-74039163D01*
X143729059Y-74218881D01*
X143699500Y-74405513D01*
X90250500Y-74405513D01*
X90250500Y-73084108D01*
X148999500Y-73084108D01*
X148999500Y-73215891D01*
X149033608Y-73343187D01*
X149059166Y-73387453D01*
X149099500Y-73457314D01*
X149192686Y-73550500D01*
X149291521Y-73607563D01*
X149301425Y-73613281D01*
X149306814Y-73616392D01*
X149434108Y-73650500D01*
X149434110Y-73650500D01*
X149565890Y-73650500D01*
X149565892Y-73650500D01*
X149693186Y-73616392D01*
X149693194Y-73616387D01*
X149700696Y-73613281D01*
X149701249Y-73614618D01*
X149753937Y-73600500D01*
X150246063Y-73600500D01*
X150298750Y-73614618D01*
X150299304Y-73613281D01*
X150306807Y-73616388D01*
X150306814Y-73616392D01*
X150434108Y-73650500D01*
X150434110Y-73650500D01*
X150565890Y-73650500D01*
X150565892Y-73650500D01*
X150693186Y-73616392D01*
X150693194Y-73616387D01*
X150700696Y-73613281D01*
X150701249Y-73614618D01*
X150753937Y-73600500D01*
X151246063Y-73600500D01*
X151298750Y-73614618D01*
X151299304Y-73613281D01*
X151306807Y-73616388D01*
X151306814Y-73616392D01*
X151434108Y-73650500D01*
X151434110Y-73650500D01*
X151565890Y-73650500D01*
X151565892Y-73650500D01*
X151693186Y-73616392D01*
X151693194Y-73616387D01*
X151700696Y-73613281D01*
X151701249Y-73614618D01*
X151753937Y-73600500D01*
X152746063Y-73600500D01*
X152798750Y-73614618D01*
X152799304Y-73613281D01*
X152806807Y-73616388D01*
X152806814Y-73616392D01*
X152934108Y-73650500D01*
X152934110Y-73650500D01*
X153065890Y-73650500D01*
X153065892Y-73650500D01*
X153193186Y-73616392D01*
X153307314Y-73550500D01*
X153400500Y-73457314D01*
X153466392Y-73343186D01*
X153500500Y-73215892D01*
X153500500Y-73084108D01*
X153466392Y-72956814D01*
X153400500Y-72842686D01*
X153307314Y-72749500D01*
X153233380Y-72706814D01*
X153193187Y-72683608D01*
X153129539Y-72666554D01*
X153065892Y-72649500D01*
X152934108Y-72649500D01*
X152806814Y-72683608D01*
X152799304Y-72686719D01*
X152798750Y-72685381D01*
X152746063Y-72699500D01*
X151753937Y-72699500D01*
X151701249Y-72685381D01*
X151700696Y-72686719D01*
X151693188Y-72683609D01*
X151693186Y-72683608D01*
X151565892Y-72649500D01*
X151434108Y-72649500D01*
X151306814Y-72683608D01*
X151299304Y-72686719D01*
X151298750Y-72685381D01*
X151246063Y-72699500D01*
X150753937Y-72699500D01*
X150701249Y-72685381D01*
X150700696Y-72686719D01*
X150693188Y-72683609D01*
X150693186Y-72683608D01*
X150565892Y-72649500D01*
X150434108Y-72649500D01*
X150306814Y-72683608D01*
X150299304Y-72686719D01*
X150298750Y-72685381D01*
X150246063Y-72699500D01*
X149753937Y-72699500D01*
X149701249Y-72685381D01*
X149700696Y-72686719D01*
X149693188Y-72683609D01*
X149693186Y-72683608D01*
X149565892Y-72649500D01*
X149434108Y-72649500D01*
X149306812Y-72683608D01*
X149192686Y-72749500D01*
X149192683Y-72749502D01*
X149099502Y-72842683D01*
X149099500Y-72842686D01*
X149033608Y-72956812D01*
X148999500Y-73084108D01*
X90250500Y-73084108D01*
X90250500Y-72134108D01*
X158999500Y-72134108D01*
X158999500Y-72265891D01*
X159033609Y-72393188D01*
X159033609Y-72393189D01*
X159088348Y-72488000D01*
X159104821Y-72555900D01*
X159088348Y-72612000D01*
X159033609Y-72706810D01*
X159033609Y-72706811D01*
X159033609Y-72706812D01*
X159033608Y-72706814D01*
X158999500Y-72834108D01*
X158999500Y-72965892D01*
X159031176Y-73084110D01*
X159033609Y-73093188D01*
X159033609Y-73093189D01*
X159088348Y-73188000D01*
X159104821Y-73255900D01*
X159088348Y-73312000D01*
X159033609Y-73406810D01*
X159033609Y-73406811D01*
X158999500Y-73534108D01*
X158999500Y-73665891D01*
X159033608Y-73793187D01*
X159066554Y-73850250D01*
X159099500Y-73907314D01*
X159192686Y-74000500D01*
X159306814Y-74066392D01*
X159434108Y-74100500D01*
X159434110Y-74100500D01*
X159565890Y-74100500D01*
X159565892Y-74100500D01*
X159693186Y-74066392D01*
X159807314Y-74000500D01*
X159900500Y-73907314D01*
X159900504Y-73907306D01*
X159901625Y-73905847D01*
X159902892Y-73904921D01*
X159906247Y-73901567D01*
X159906770Y-73902090D01*
X159958053Y-73864645D01*
X160027799Y-73860491D01*
X160088719Y-73894704D01*
X160098375Y-73905847D01*
X160099498Y-73907311D01*
X160099500Y-73907314D01*
X160192686Y-74000500D01*
X160306814Y-74066392D01*
X160434108Y-74100500D01*
X160434110Y-74100500D01*
X160565890Y-74100500D01*
X160565892Y-74100500D01*
X160693186Y-74066392D01*
X160807314Y-74000500D01*
X160900500Y-73907314D01*
X160966392Y-73793186D01*
X161000500Y-73665892D01*
X161000500Y-73534108D01*
X160966392Y-73406814D01*
X160911650Y-73311999D01*
X160895178Y-73244100D01*
X160911650Y-73188000D01*
X160966392Y-73093186D01*
X161000500Y-72965892D01*
X161000500Y-72834108D01*
X160966392Y-72706814D01*
X160911650Y-72611999D01*
X160895178Y-72544100D01*
X160911650Y-72488000D01*
X160966392Y-72393186D01*
X161000500Y-72265892D01*
X161000500Y-72134108D01*
X160966392Y-72006814D01*
X160900500Y-71892686D01*
X160807314Y-71799500D01*
X160750250Y-71766554D01*
X160693187Y-71733608D01*
X160629539Y-71716554D01*
X160565892Y-71699500D01*
X160434108Y-71699500D01*
X160306812Y-71733608D01*
X160192686Y-71799500D01*
X160192683Y-71799502D01*
X160099498Y-71892687D01*
X160098370Y-71894158D01*
X160097102Y-71895083D01*
X160093753Y-71898433D01*
X160093230Y-71897910D01*
X160041940Y-71935356D01*
X159972193Y-71939506D01*
X159911275Y-71905289D01*
X159901630Y-71894158D01*
X159900501Y-71892687D01*
X159807316Y-71799502D01*
X159807314Y-71799500D01*
X159750250Y-71766554D01*
X159693187Y-71733608D01*
X159629539Y-71716554D01*
X159565892Y-71699500D01*
X159434108Y-71699500D01*
X159306812Y-71733608D01*
X159192686Y-71799500D01*
X159192683Y-71799502D01*
X159099502Y-71892683D01*
X159099500Y-71892686D01*
X159033608Y-72006812D01*
X158999500Y-72134108D01*
X90250500Y-72134108D01*
X90250500Y-69655513D01*
X162549500Y-69655513D01*
X162549500Y-69844486D01*
X162579059Y-70031118D01*
X162637454Y-70210836D01*
X162723240Y-70379199D01*
X162834310Y-70532073D01*
X162967927Y-70665690D01*
X163120801Y-70776760D01*
X163200347Y-70817290D01*
X163289163Y-70862545D01*
X163289165Y-70862545D01*
X163289168Y-70862547D01*
X163385497Y-70893846D01*
X163468881Y-70920940D01*
X163655514Y-70950500D01*
X163655519Y-70950500D01*
X163844486Y-70950500D01*
X164031118Y-70920940D01*
X164210832Y-70862547D01*
X164379199Y-70776760D01*
X164532073Y-70665690D01*
X164665690Y-70532073D01*
X164776760Y-70379199D01*
X164862547Y-70210832D01*
X164920940Y-70031118D01*
X164950500Y-69844486D01*
X164950500Y-69655513D01*
X164920940Y-69468881D01*
X164862545Y-69289163D01*
X164776759Y-69120800D01*
X164665690Y-68967927D01*
X164532073Y-68834310D01*
X164379199Y-68723240D01*
X164210836Y-68637454D01*
X164031118Y-68579059D01*
X163844486Y-68549500D01*
X163844481Y-68549500D01*
X163655519Y-68549500D01*
X163655514Y-68549500D01*
X163468881Y-68579059D01*
X163289163Y-68637454D01*
X163120800Y-68723240D01*
X163033579Y-68786610D01*
X162967927Y-68834310D01*
X162967925Y-68834312D01*
X162967924Y-68834312D01*
X162834312Y-68967924D01*
X162834312Y-68967925D01*
X162834310Y-68967927D01*
X162786610Y-69033579D01*
X162723240Y-69120800D01*
X162637454Y-69289163D01*
X162579059Y-69468881D01*
X162549500Y-69655513D01*
X90250500Y-69655513D01*
X90250500Y-62134108D01*
X159599500Y-62134108D01*
X159599500Y-62265892D01*
X159610599Y-62307316D01*
X159633609Y-62393188D01*
X159633609Y-62393189D01*
X159688348Y-62488000D01*
X159704821Y-62555900D01*
X159688348Y-62612000D01*
X159633609Y-62706810D01*
X159633609Y-62706811D01*
X159599500Y-62834108D01*
X159599500Y-62965891D01*
X159633608Y-63093187D01*
X159651670Y-63124471D01*
X159699500Y-63207314D01*
X159792686Y-63300500D01*
X159906814Y-63366392D01*
X160034108Y-63400500D01*
X160034110Y-63400500D01*
X160165890Y-63400500D01*
X160165892Y-63400500D01*
X160293186Y-63366392D01*
X160407314Y-63300500D01*
X160412319Y-63295495D01*
X160473642Y-63262010D01*
X160543334Y-63266994D01*
X160587681Y-63295495D01*
X160592686Y-63300500D01*
X160706814Y-63366392D01*
X160834108Y-63400500D01*
X160834110Y-63400500D01*
X160965890Y-63400500D01*
X160965892Y-63400500D01*
X161093186Y-63366392D01*
X161207314Y-63300500D01*
X161212319Y-63295495D01*
X161273642Y-63262010D01*
X161343334Y-63266994D01*
X161387681Y-63295495D01*
X161392686Y-63300500D01*
X161506814Y-63366392D01*
X161634108Y-63400500D01*
X161634110Y-63400500D01*
X161765890Y-63400500D01*
X161765892Y-63400500D01*
X161893186Y-63366392D01*
X162007314Y-63300500D01*
X162012319Y-63295495D01*
X162073642Y-63262010D01*
X162143334Y-63266994D01*
X162187681Y-63295495D01*
X162192686Y-63300500D01*
X162306814Y-63366392D01*
X162434108Y-63400500D01*
X162434110Y-63400500D01*
X162565890Y-63400500D01*
X162565892Y-63400500D01*
X162693186Y-63366392D01*
X162807314Y-63300500D01*
X162812319Y-63295495D01*
X162873642Y-63262010D01*
X162943334Y-63266994D01*
X162987681Y-63295495D01*
X162992686Y-63300500D01*
X163106814Y-63366392D01*
X163234108Y-63400500D01*
X163234110Y-63400500D01*
X163365890Y-63400500D01*
X163365892Y-63400500D01*
X163493186Y-63366392D01*
X163607314Y-63300500D01*
X163700500Y-63207314D01*
X163766392Y-63093186D01*
X163800500Y-62965892D01*
X163800500Y-62834108D01*
X163766392Y-62706814D01*
X163711650Y-62611999D01*
X163695178Y-62544100D01*
X163711650Y-62488000D01*
X163766392Y-62393186D01*
X163800500Y-62265892D01*
X163800500Y-62134108D01*
X163766392Y-62006814D01*
X163700500Y-61892686D01*
X163607314Y-61799500D01*
X163550250Y-61766554D01*
X163493187Y-61733608D01*
X163429539Y-61716554D01*
X163365892Y-61699500D01*
X163234108Y-61699500D01*
X163106812Y-61733608D01*
X162992686Y-61799500D01*
X162992683Y-61799502D01*
X162987681Y-61804505D01*
X162926358Y-61837990D01*
X162856666Y-61833006D01*
X162812319Y-61804505D01*
X162807316Y-61799502D01*
X162807314Y-61799500D01*
X162750250Y-61766554D01*
X162693187Y-61733608D01*
X162629539Y-61716554D01*
X162565892Y-61699500D01*
X162434108Y-61699500D01*
X162306812Y-61733608D01*
X162192686Y-61799500D01*
X162192683Y-61799502D01*
X162187681Y-61804505D01*
X162126358Y-61837990D01*
X162056666Y-61833006D01*
X162012319Y-61804505D01*
X162007316Y-61799502D01*
X162007314Y-61799500D01*
X161950250Y-61766554D01*
X161893187Y-61733608D01*
X161829539Y-61716554D01*
X161765892Y-61699500D01*
X161634108Y-61699500D01*
X161506812Y-61733608D01*
X161392686Y-61799500D01*
X161392683Y-61799502D01*
X161387681Y-61804505D01*
X161326358Y-61837990D01*
X161256666Y-61833006D01*
X161212319Y-61804505D01*
X161207316Y-61799502D01*
X161207314Y-61799500D01*
X161150250Y-61766554D01*
X161093187Y-61733608D01*
X161029539Y-61716554D01*
X160965892Y-61699500D01*
X160834108Y-61699500D01*
X160706812Y-61733608D01*
X160592686Y-61799500D01*
X160592683Y-61799502D01*
X160587681Y-61804505D01*
X160526358Y-61837990D01*
X160456666Y-61833006D01*
X160412319Y-61804505D01*
X160407316Y-61799502D01*
X160407314Y-61799500D01*
X160350250Y-61766554D01*
X160293187Y-61733608D01*
X160229539Y-61716554D01*
X160165892Y-61699500D01*
X160034108Y-61699500D01*
X159906812Y-61733608D01*
X159792686Y-61799500D01*
X159792683Y-61799502D01*
X159699502Y-61892683D01*
X159699500Y-61892686D01*
X159633608Y-62006812D01*
X159617778Y-62065892D01*
X159599500Y-62134108D01*
X90250500Y-62134108D01*
X90250500Y-55177973D01*
X160249500Y-55177973D01*
X160249500Y-55422026D01*
X160287678Y-55663072D01*
X160363097Y-55895187D01*
X160473896Y-56112642D01*
X160617339Y-56310076D01*
X160617343Y-56310081D01*
X160789918Y-56482656D01*
X160789923Y-56482660D01*
X160962136Y-56607779D01*
X160987361Y-56626106D01*
X161204815Y-56736904D01*
X161436924Y-56812321D01*
X161677973Y-56850500D01*
X161677974Y-56850500D01*
X161922026Y-56850500D01*
X161922027Y-56850500D01*
X162163076Y-56812321D01*
X162395185Y-56736904D01*
X162612639Y-56626106D01*
X162810083Y-56482655D01*
X162982655Y-56310083D01*
X163126106Y-56112639D01*
X163236904Y-55895185D01*
X163312321Y-55663076D01*
X163350500Y-55422027D01*
X163350500Y-55177973D01*
X163312321Y-54936924D01*
X163236904Y-54704815D01*
X163126106Y-54487361D01*
X163107779Y-54462136D01*
X162982660Y-54289923D01*
X162982656Y-54289918D01*
X162810081Y-54117343D01*
X162810076Y-54117339D01*
X162612642Y-53973896D01*
X162612641Y-53973895D01*
X162612639Y-53973894D01*
X162395185Y-53863096D01*
X162163076Y-53787679D01*
X162163074Y-53787678D01*
X162163072Y-53787678D01*
X161994769Y-53761021D01*
X161922027Y-53749500D01*
X161677973Y-53749500D01*
X161622093Y-53758350D01*
X161436927Y-53787678D01*
X161204812Y-53863097D01*
X160987357Y-53973896D01*
X160789923Y-54117339D01*
X160789918Y-54117343D01*
X160617343Y-54289918D01*
X160617339Y-54289923D01*
X160473896Y-54487357D01*
X160363097Y-54704812D01*
X160287678Y-54936927D01*
X160249500Y-55177973D01*
X90250500Y-55177973D01*
X90250500Y-43003480D01*
X90250695Y-42996528D01*
X90253298Y-42950172D01*
X90267398Y-42699097D01*
X90268952Y-42685298D01*
X90318269Y-42395041D01*
X90321363Y-42381489D01*
X90402866Y-42098586D01*
X90407459Y-42085462D01*
X90428981Y-42033502D01*
X90520123Y-41813463D01*
X90526145Y-41800957D01*
X90668572Y-41543257D01*
X90675950Y-41531514D01*
X90846339Y-41291374D01*
X90854977Y-41280542D01*
X91051179Y-41060991D01*
X91060991Y-41051179D01*
X91280542Y-40854977D01*
X91291374Y-40846339D01*
X91531514Y-40675950D01*
X91543257Y-40668572D01*
X91800957Y-40526145D01*
X91813463Y-40520123D01*
X92085462Y-40407459D01*
X92098582Y-40402867D01*
X92381494Y-40321361D01*
X92395041Y-40318269D01*
X92685298Y-40268952D01*
X92699097Y-40267398D01*
X92959562Y-40252770D01*
X92996529Y-40250695D01*
X93003481Y-40250500D01*
X93044170Y-40250500D01*
X186955830Y-40250500D01*
X186996519Y-40250500D01*
X187003471Y-40250695D01*
G37*
%TD.AperFunction*%
%TD*%
M02*
