M48
;GenerationSoftware,Autodesk,EAGLE,9.2.1*%
;CreationDate,2019-02-18T01:26:50Z*%
FMAT,2
ICI,OFF
METRIC,TZ,000.000
T11C0.350
T10C0.750
T9C0.800
T8C0.914
T7C1.000
T6C1.020
T5C1.500
T4C1.600
T3C1.650
T2C1.750
T1C3.800
%
G90
M71
T1
X-57000Y56940
X-48500Y940
X48500Y940
X57000Y56940
X16000Y36000
T2
X25200Y-21765
X21800Y-21765
X25200Y-35235
X21800Y-35235
T3
X-60500Y27520
X-60500Y31480
T4
X16750Y-35700
X1750Y-35700
T5
X13210Y-20500
X5290Y-20500
T6
X20500Y72250
X4420Y72250
X6960Y72250
X12040Y72250
X9500Y72250
X46630Y46070
X44090Y46070
X41550Y46070
X39010Y46070
X36470Y46070
X33930Y46070
X31390Y46070
X28850Y46070
X26310Y46070
X23770Y46070
X21230Y46070
X18690Y46070
X16150Y46070
X13610Y46070
X11070Y46070
X8530Y46070
X5990Y46070
X3450Y46070
X910Y46070
X-1630Y46070
X-1630Y68930
X910Y68930
X3450Y68930
X5990Y68930
X8530Y68930
X11070Y68930
X13610Y68930
X16150Y68930
X18690Y68930
X21230Y68930
X23770Y68930
X26310Y68930
X28850Y68930
X31390Y68930
X33930Y68930
X36470Y68930
X39010Y68930
X41550Y68930
X44090Y68930
X46630Y68930
X30660Y72250
X28120Y72250
X-16000Y-36500
X25580Y72250
X23040Y72250
X17960Y72250
T7
X-11420Y68270
X62500Y9750
X-13960Y68270
X-16500Y68270
X-19040Y68270
X-21580Y68270
X-21580Y65730
X-19040Y65730
X-11420Y65730
X-13960Y65730
X-16500Y65730
X-62500Y21250
X-62500Y18750
X-62500Y16250
X-62500Y13750
X-62500Y11250
X-62500Y8750
X-62500Y6250
X-62500Y3750
X-49187Y-14613
X-47419Y-16381
X-45652Y-18148
X-43884Y-19916
X-42116Y-21684
X-40348Y-23452
X-38581Y-25219
X-36813Y-26987
X34313Y-29687
X36081Y-27919
X37848Y-26152
X39616Y-24384
X41384Y-22616
X43152Y-20848
X44919Y-19081
X46687Y-17313
X62500Y7250
X62500Y12250
X62500Y14750
X62500Y17250
X62500Y19750
X62500Y22250
X62500Y24750
T8
X-47996Y26000
X28500Y13000
X33000Y38750
X38004Y38750
X45500Y8500
X40496Y8500
X-12000Y-7500
X-12000Y-12504
X-35500Y27500
X-40504Y27500
X-43500Y57500
X-48504Y57500
X-14500Y-18996
X-14500Y-24000
X33504Y13000
X44996Y38000
X50000Y38000
X-53000Y26000
T9
X-59750Y50500
X-59750Y48500
X-59750Y44500
X-59750Y42500
X-59750Y40500
X-59750Y38500
X-59750Y36500
X60250Y1100
X60250Y-900
X-57750Y-2650
X60250Y-4900
X60250Y-2900
X54371Y-7129
X52957Y-8543
X-37040Y68750
X-37040Y71290
X-29420Y71290
X-29420Y68750
X-29420Y66210
X-37040Y66210
X50129Y-11371
X51543Y-9957
X-22300Y-33450
X-24300Y-33450
X-57750Y-4650
X-28300Y-33450
X-26300Y-33450
X-57750Y-8650
X-57750Y-6650
X-59750Y46500
T10
X-11500Y-28500
X-9000Y-28500
X-8500Y-37000
X-8500Y-30500
X-8500Y-34500
X-8500Y-32500
T11
X9000Y26500
X4500Y28000
X9000Y30500
X500Y29000
X3500Y32000
X8750Y32000
X-500Y32000
X-3250Y35000
X-7500Y15500
X-3250Y14500
X250Y14000
X3250Y14000
X4500Y18500
X7500Y17000
X9000Y23500
X6500Y41750
X-46000Y70500
X-46000Y63500
X-3500Y-1250
X4500Y-1250
X1000Y-1250
X1000Y-13500
X5250Y-11500
X-1750Y-13500
X3000Y-15500
X25750Y52750
X10000Y500
X-8500Y-22500
X-5000Y-15500
X-4250Y-16000
X-5000Y-16500
X-2000Y-26000
X4750Y26000
X9000Y19500
X56000Y3500
X55000Y4500
X56000Y4500
X57000Y4500
X55000Y3500
X57000Y2500
X56000Y2500
X55000Y2500
X-48000Y-6500
X-46000Y-6500
X-48000Y-7500
X-46000Y-7500
X-48000Y-8500
X-47000Y-8500
X-46000Y-8500
X4500Y21000
X24500Y64500
X16500Y63500
X19000Y59000
X22500Y64500
X20750Y60500
X-41000Y54250
X31500Y9000
X58000Y7500
X52000Y7500
X-47000Y-7500
X-30000Y9000
X-42000Y-4500
X-43500Y2500
X-38000Y-5000
X-3000Y18500
X-1750Y-16000
X57000Y3500
X-47000Y-6500
X-41500Y63500
X-39000Y68500
X-11650Y-5000
X22000Y50000
X61750Y30250
X-19000Y-31000
X30000Y-19000
X36500Y-15500
X40500Y-10500
X51500Y11500
X51500Y18000
X51500Y24000
X-34500Y-12500
X-30000Y-17500
X-39500Y-8000
X-50000Y10500
X-49000Y16000
X-49500Y21250
X20000Y65000
X18000Y63500
X-8500Y18000
X-53750Y-10000
X40000Y54500
X31000Y54500
X58000Y-1000
X-21500Y-26500
X-4000Y-25500
X60750Y30250
X-8500Y29000
X-14500Y44250
X-9000Y43000
X-5500Y35500
X8000Y24500
X8901Y27750
X2500Y32000
X6000Y32000
X-4500Y32000
X-2000Y14000
X6000Y14000
X8000Y14000
X-500Y42500
X-36500Y56000
X8750Y52000
X53500Y-4500
X9000Y20500
X0Y-13250
X22500Y61500
X-52500Y58500
X7500Y32000
X9000Y40000
X-17000Y49500
X7000Y56000
X-16000Y50500
X4750Y56000
X-32000Y63500
X-35750Y60000
X-37500Y60000
X-24500Y58500
X-51000Y55500
X-24000Y-26500
X-24500Y57500
X-50500Y54550
X-55250Y-750
X-26500Y56500
X50500Y-7000
X-24970Y59530
X-51500Y56500
X-15000Y51500
X56500Y-4000
X-52000Y57500
X-25500Y60400
X-5500Y5000
X-5500Y4000
X-5500Y3000
X-5500Y2000
X-4500Y2000
X-4500Y3000
X-4500Y4000
X-4500Y5000
X-3500Y5000
X-2500Y5000
X-1500Y5000
X-500Y5000
X500Y5000
X500Y4000
X500Y3000
X500Y2000
X-1500Y2000
X-500Y2000
X-500Y3000
X-500Y4000
X-1500Y4000
X-1500Y3000
X-2500Y3000
X-2500Y4000
X-3500Y4000
X-3500Y3000
X-3500Y2000
X-2500Y2000
X-44500Y51655
X-28000Y3500
X59750Y30250
X20000Y-12000
X-15500Y-14000
X-14500Y-14000
X-13500Y-14000
X-12500Y-14000
X-12500Y-15000
X-12500Y-16000
X-13500Y-16000
X-13500Y-15000
X-14500Y-15000
X-14500Y-16000
X-15500Y-16000
X-15500Y-15000
X42000Y39500
X37500Y13500
X23000Y-11000
X30000Y48000
X6500Y-15000
X-5250Y-36000
X-1000Y-26000
X-23500Y24750
X-20000Y10250
X-23500Y18250
X-23500Y19250
X-19500Y17000
X-17500Y3914
X22590Y4910
X26000Y28000
X-53000Y12750
X-35500Y-16000
X39000Y-15500
X53000Y19500
X-31000Y16600
X-44000Y9000
X-22000Y-4000
X-29000Y-12500
X31000Y1000
X36998Y-6002
X36000Y30000
X45000Y27000
X-53000Y7750
X-30250Y-20750
X43000Y-10500
X55000Y25250
X-32000Y18000
X-43500Y15500
X-24000Y-1500
X-34000Y-8000
X28000Y-1500
X33000Y-11500
X36000Y26000
X46000Y20500
X-53000Y19000
X-40750Y-12250
X34250Y-20750
X53000Y13000
X-33000Y21000
X-45000Y21000
X-26500Y0
X-38000Y-3500
X25500Y-4500
X27500Y-15000
X37000Y20000
X46000Y13500
X-20000Y19500
X-18500Y4974
X22000Y4000
X26000Y27000
X-23500Y15750
X-19000Y19500
X7100Y36500
X-17000Y12500
X-14900Y14500
X-11439Y4250
X-2000Y7000
X5500Y8000
X19500Y15000
X22000Y30750
X-21000Y31500
X-20530Y13970
X-25500Y31500
X-44000Y-6250
X-18000Y13000
X-15500Y13500
X-12300Y3800
X-1000Y7000
X4500Y8000
X18500Y15000
X21000Y30250
X-19000Y30500
X-20500Y15400
X-24500Y30500
X-43000Y-6000
X-19750Y15000
X-29500Y40250
X-15000Y5000
X0Y7000
X3500Y8000
X17500Y15000
X19500Y29500
X-22000Y29500
X-28000Y35500
X-42000Y-5500
X-52000Y36500
X-52000Y35500
X-52000Y34500
X-53000Y35000
X-53000Y36000
X-39000Y40000
X-50000Y33000
X-40500Y39000
X-51500Y39000
X-52000Y43000
X-52000Y42000
X-52000Y41000
X-53000Y41500
X-53000Y42500
X-40000Y42500
X-49500Y39500
X-39000Y42100
X-51500Y45500
X-52000Y49500
X-52000Y48500
X-52000Y47500
X-53000Y48000
X-53000Y49000
X-41000Y47000
X-50000Y46150
X-39500Y46600
X-50500Y51655
X11000Y13500
X10000Y40500
X2500Y36500
X-9500Y33500
X-4500Y42000
X-17500Y28500
X-32500Y24500
X16100Y24500
X27000Y17000
X-17500Y26500
X-31500Y24500
X16500Y25500
X28000Y17500
X-17500Y24250
X-31500Y23500
X16500Y26500
X29000Y18000
X13000Y7000
X28500Y10000
X-17500Y20500
X-21500Y13000
X12470Y6470
X28000Y9000
X58750Y30250
X-7500Y27750
X5000Y32000
X-4500Y14000
X-4000Y20000
X9000Y18500
X7500Y-12000
X11000Y4000
X57750Y30250
X-7500Y30000
X9000Y29000
X-5500Y32000
X-7500Y17000
X4500Y14000
X13000Y17000
X8000Y5500
X7750Y-14000
X23000Y23000
X26000Y25500
X22000Y22500
X23000Y26500
X-24000Y38000
X-29500Y43000
X-23000Y38000
X-29500Y44250
X-22000Y39000
X-26500Y44400
X-8000Y-26500
X3500Y-10000
X-5250Y-31500
X-5250Y-33750
X-26000Y62500
X-19000Y20500
X-20500Y24250
X-23000Y42000
X-19500Y9500
X-19500Y-1000
X31000Y31000
X23000Y20000
X28000Y3500
X56750Y30250
X-32000Y36000
X-26750Y47000
X-11500Y-1000
X10000Y6500
X-4750Y-1000
X16500Y3000
X-31600Y13750
X-28500Y17000
X-43000Y9000
X-44500Y6500
X-45500Y6000
X-44500Y5500
X-45500Y5000
X-44500Y4500
X-52000Y6750
X-27750Y-15250
X-27000Y-16000
X-26250Y-16750
X-27100Y-16850
X-27850Y-16100
X-23000Y-3500
X-28000Y-11500
X-28500Y-20750
X41000Y-4000
X41100Y-4900
X40250Y-4750
X40400Y-5600
X39500Y-5500
X31530Y470
X40000Y-1000
X43000Y-8000
X47000Y31500
X48000Y31000
X47000Y30500
X48000Y30000
X47000Y29500
X35000Y29000
X44500Y33000
X54000Y26250
X-32000Y19000
X-42000Y15500
X-44500Y13000
X-45500Y12500
X-44500Y12000
X-45500Y11500
X-44500Y11000
X-51500Y12750
X-32500Y-10500
X-32500Y-11500
X-31650Y-11450
X-31650Y-12350
X-30750Y-12250
X-25000Y-2000
X-33250Y-7250
X-33250Y-15750
X36500Y-8500
X36600Y-9400
X35750Y-9250
X35900Y-10100
X35000Y-10000
X27250Y-1500
X32000Y-10500
X39000Y-14500
X47000Y25000
X48000Y24500
X47000Y24000
X48000Y23500
X47000Y23000
X36000Y25000
X44500Y20500
X52500Y21000
X-5250Y-29500
X-34000Y20500
X-43000Y16500
X-44500Y19500
X-45500Y19000
X-45500Y18000
X-44500Y18500
X-44500Y17500
X-52000Y18500
X-37000Y-6000
X-37100Y-6900
X-36250Y-6750
X-36400Y-7600
X-35500Y-7500
X-27500Y1000
X-32500Y-6500
X-38000Y-11500
X32000Y-13000
X32100Y-13900
X31250Y-13750
X31400Y-14600
X30500Y-14500
X23500Y-1000
X31000Y-10000
X34500Y-19000
X47000Y18500
X48000Y18000
X47000Y17500
X48000Y17000
X47000Y16500
X35500Y20500
X45000Y14000
X52500Y14500
X58000Y45500
X-9250Y41000
X-6500Y42000
X-12500Y36000
X-42450Y74500
X-35550Y73550
X-15000Y58000
X43290Y57525
X42500Y58175
X45500Y53000
X46500Y51000
X41500Y56875
X-10500Y35750
X-29000Y28500
X-46000Y-4000
X59000Y5000
X15000Y63500
X17000Y64500
X-33000Y7000
X-40000Y0
X38000Y8000
X49000Y9000
X58000Y0
X-8000Y63000
X-14000Y42000
X-1500Y28000
X-3750Y28000
X-7500Y31000
X-6750Y-36000
X-6750Y-33750
X32500Y-22000
X37500Y-16500
X42000Y-12000
X34500Y2500
X33500Y2500
X33850Y1600
X32850Y1900
X33000Y1000
X30000Y-2000
X29000Y-2000
X29250Y-2750
X28350Y-2700
X28500Y-3500
X24250Y-8250
X24000Y-7500
X25000Y-7500
X25750Y-6750
X25000Y-6500
X29500Y5000
X22000Y2000
X23000Y1000
X23000Y2000
X23000Y3000
X24000Y2000
X25000Y2500
X24000Y3000
X23500Y4000
X56000Y11500
X56000Y18000
X56500Y24000
X38500Y16500
X37500Y17000
X38500Y17500
X37500Y18000
X38500Y18500
X38500Y23000
X37500Y23500
X38500Y24000
X37500Y24500
X38500Y25000
X38500Y31500
X38500Y30500
X38500Y29500
X37500Y30000
X37500Y31000
X30500Y33500
X29500Y26000
X28500Y26000
X27500Y26000
X29000Y27000
X28000Y27000
X29500Y28000
X28500Y28000
X27500Y28000
X-33000Y-21000
X-38000Y-16000
X-42000Y-11000
X35500Y61500
X40500Y56000
X30500Y56000
X-36000Y55000
X-43500Y36000
X-43500Y35000
X-42500Y34500
X-42500Y35500
X-42500Y36500
X-43500Y41500
X-42500Y41000
X-42500Y42000
X-42500Y43000
X-43500Y42500
X-42500Y47500
X-43500Y48000
X-42500Y48500
X-43500Y49000
X-42500Y49500
X-20000Y-10500
X-20750Y-9750
X-19750Y-9750
X-21500Y-9000
X-20750Y-8750
X-24500Y-6000
X-24400Y-5100
X-25400Y-5200
X-26000Y-4500
X-25250Y-4250
X-29250Y-1250
X-29000Y-500
X-30000Y-500
X-30000Y500
X-30750Y250
X-17500Y-3000
X-20500Y2000
X-19000Y3500
X-20000Y3000
X-21000Y3000
X-20000Y4000
X-20500Y5000
X-21000Y4000
X-22000Y3500
X-32000Y37000
X-22000Y42000
X-25500Y48500
X-31000Y42500
X-32000Y42500
X-33000Y42500
X-31500Y43500
X-32500Y43500
X-31000Y44500
X-32000Y44500
X-33000Y44500
X-53000Y8500
X-53000Y13500
X-53000Y20500
X-36000Y6000
X-36000Y5000
X-35000Y4500
X-35000Y5500
X-35000Y6500
X-36000Y12500
X-36000Y11500
X-35000Y12000
X-35000Y11000
X-35000Y13000
X-36000Y19000
X-36000Y18000
X-35000Y18500
X-35000Y17500
X-35000Y19500
X-30000Y13250
X-25000Y18500
X-26000Y18500
X-27000Y18500
X-25500Y19500
X-26500Y19500
X-25000Y20500
X-26000Y20500
X-27000Y20500
X-19000Y27000
X-16750Y14500
X-7500Y20000
X-8000Y23250
X-6250Y32000
X-500Y30500
X-25500Y36000
M30