%TF.GenerationSoftware,KiCad,Pcbnew,10.0.0-10.0.0~ubuntu24.04.1*%
%TF.CreationDate,2026-04-10T19:40:46-04:00*%
%TF.ProjectId,motorboard-v1.0,6d6f746f-7262-46f6-9172-642d76312e30,1.2*%
%TF.SameCoordinates,Original*%
%TF.FileFunction,Soldermask,Bot*%
%TF.FilePolarity,Negative*%
%FSLAX46Y46*%
G04 Gerber Fmt 4.6, Leading zero omitted, Abs format (unit mm)*
G04 Created by KiCad (PCBNEW 10.0.0-10.0.0~ubuntu24.04.1) date 2026-04-10 19:40:46*
%MOMM*%
%LPD*%
G01*
G04 APERTURE LIST*
G04 Aperture macros list*
%AMRoundRect*
0 Rectangle with rounded corners*
0 $1 Rounding radius*
0 $2 $3 $4 $5 $6 $7 $8 $9 X,Y pos of 4 corners*
0 Add a 4 corners polygon primitive as box body*
4,1,4,$2,$3,$4,$5,$6,$7,$8,$9,$2,$3,0*
0 Add four circle primitives for the rounded corners*
1,1,$1+$1,$2,$3*
1,1,$1+$1,$4,$5*
1,1,$1+$1,$6,$7*
1,1,$1+$1,$8,$9*
0 Add four rect primitives between the rounded corners*
20,1,$1+$1,$2,$3,$4,$5,0*
20,1,$1+$1,$4,$5,$6,$7,0*
20,1,$1+$1,$6,$7,$8,$9,0*
20,1,$1+$1,$8,$9,$2,$3,0*%
G04 Aperture macros list end*
%ADD10C,2.000000*%
%ADD11C,2.500000*%
%ADD12RoundRect,0.250001X1.399999X-1.099999X1.399999X1.099999X-1.399999X1.099999X-1.399999X-1.099999X0*%
%ADD13O,3.300000X2.700000*%
%ADD14C,4.050000*%
%ADD15C,2.700000*%
%ADD16R,1.700000X1.700000*%
%ADD17O,1.700000X1.700000*%
%ADD18C,7.400000*%
%ADD19RoundRect,0.250001X-1.399999X1.099999X-1.399999X-1.099999X1.399999X-1.099999X1.399999X1.099999X0*%
%ADD20C,1.473200*%
%ADD21C,0.900000*%
%ADD22C,0.700000*%
%ADD23C,2.082800*%
%ADD24C,2.109000*%
%ADD25RoundRect,0.200000X0.200000X0.275000X-0.200000X0.275000X-0.200000X-0.275000X0.200000X-0.275000X0*%
%ADD26RoundRect,0.250000X0.312500X0.625000X-0.312500X0.625000X-0.312500X-0.625000X0.312500X-0.625000X0*%
%ADD27R,0.450000X1.050000*%
%ADD28RoundRect,0.200000X-0.200000X-0.275000X0.200000X-0.275000X0.200000X0.275000X-0.200000X0.275000X0*%
%ADD29RoundRect,0.225000X-0.250000X0.225000X-0.250000X-0.225000X0.250000X-0.225000X0.250000X0.225000X0*%
%ADD30RoundRect,0.225000X0.225000X0.250000X-0.225000X0.250000X-0.225000X-0.250000X0.225000X-0.250000X0*%
%ADD31RoundRect,0.150000X-0.150000X0.587500X-0.150000X-0.587500X0.150000X-0.587500X0.150000X0.587500X0*%
%ADD32R,2.209800X0.939800*%
%ADD33R,5.969000X5.461000*%
%ADD34RoundRect,0.250000X0.625000X-0.312500X0.625000X0.312500X-0.625000X0.312500X-0.625000X-0.312500X0*%
%ADD35RoundRect,0.200000X-0.275000X0.200000X-0.275000X-0.200000X0.275000X-0.200000X0.275000X0.200000X0*%
%ADD36RoundRect,0.225000X-0.225000X-0.250000X0.225000X-0.250000X0.225000X0.250000X-0.225000X0.250000X0*%
%ADD37RoundRect,0.250000X0.325000X0.650000X-0.325000X0.650000X-0.325000X-0.650000X0.325000X-0.650000X0*%
%ADD38R,0.939800X2.209800*%
%ADD39R,5.461000X5.969000*%
%ADD40RoundRect,0.200000X0.275000X-0.200000X0.275000X0.200000X-0.275000X0.200000X-0.275000X-0.200000X0*%
%ADD41RoundRect,0.150000X0.150000X-0.587500X0.150000X0.587500X-0.150000X0.587500X-0.150000X-0.587500X0*%
%ADD42RoundRect,0.225000X0.250000X-0.225000X0.250000X0.225000X-0.250000X0.225000X-0.250000X-0.225000X0*%
%ADD43C,2.550000*%
%ADD44C,1.500000*%
%ADD45RoundRect,0.059250X-0.602750X-0.177750X0.602750X-0.177750X0.602750X0.177750X-0.602750X0.177750X0*%
%ADD46RoundRect,0.250000X-0.325000X-0.650000X0.325000X-0.650000X0.325000X0.650000X-0.325000X0.650000X0*%
%ADD47RoundRect,0.100500X-0.986500X-0.301500X0.986500X-0.301500X0.986500X0.301500X-0.986500X0.301500X0*%
%ADD48RoundRect,0.250000X-1.500000X-0.550000X1.500000X-0.550000X1.500000X0.550000X-1.500000X0.550000X0*%
%ADD49RoundRect,0.059250X-0.177750X0.602750X-0.177750X-0.602750X0.177750X-0.602750X0.177750X0.602750X0*%
%ADD50RoundRect,0.250000X0.550000X-1.500000X0.550000X1.500000X-0.550000X1.500000X-0.550000X-1.500000X0*%
%ADD51RoundRect,0.059250X0.602750X0.177750X-0.602750X0.177750X-0.602750X-0.177750X0.602750X-0.177750X0*%
%ADD52RoundRect,0.102000X-1.000000X0.300000X-1.000000X-0.300000X1.000000X-0.300000X1.000000X0.300000X0*%
%ADD53RoundRect,0.102000X-2.100000X0.350000X-2.100000X-0.350000X2.100000X-0.350000X2.100000X0.350000X0*%
%ADD54RoundRect,0.100500X0.986500X0.301500X-0.986500X0.301500X-0.986500X-0.301500X0.986500X-0.301500X0*%
%ADD55RoundRect,0.250000X-0.312500X-0.625000X0.312500X-0.625000X0.312500X0.625000X-0.312500X0.625000X0*%
G04 APERTURE END LIST*
D10*
%TO.C,SW1*%
X188650000Y-95600000D03*
X188650000Y-86600000D03*
D11*
X182400000Y-93600000D03*
X194900000Y-93600000D03*
X182400000Y-88600000D03*
X194900000Y-88600000D03*
%TD*%
D12*
%TO.C,J16*%
X87500001Y-139900002D03*
D13*
X87500001Y-135700002D03*
X87500001Y-131500002D03*
X87500001Y-127300002D03*
X93000001Y-139900002D03*
X93000001Y-135700002D03*
X93000001Y-131500002D03*
X93000001Y-127300002D03*
%TD*%
D14*
%TO.C,J15*%
X146500000Y-163500000D03*
X153700000Y-163500000D03*
D15*
X143350000Y-169500000D03*
X156850000Y-169500000D03*
%TD*%
D16*
%TO.C,J18*%
X189090000Y-100350000D03*
D17*
X189090000Y-102890000D03*
%TD*%
D16*
%TO.C,J27*%
X199890000Y-100375000D03*
D17*
X199890000Y-102915000D03*
%TD*%
D18*
%TO.C,H1*%
X93000000Y-93000000D03*
%TD*%
D19*
%TO.C,J22*%
X212500000Y-160400002D03*
D13*
X212500000Y-164600002D03*
X212500000Y-168800002D03*
X212500000Y-173000002D03*
X207000000Y-160400002D03*
X207000000Y-164600002D03*
X207000000Y-168800002D03*
X207000000Y-173000002D03*
%TD*%
D16*
%TO.C,J21*%
X192690000Y-100375000D03*
D17*
X192690000Y-102915000D03*
%TD*%
D18*
%TO.C,H3*%
X198500000Y-149000000D03*
%TD*%
D20*
%TO.C,J23*%
X167000000Y-176600000D03*
X167000000Y-174060000D03*
X169540000Y-176600000D03*
X169540000Y-174060000D03*
X172080000Y-176600000D03*
X172080000Y-174060000D03*
X174620000Y-176600000D03*
X174620000Y-174060000D03*
X177160000Y-176600000D03*
X177160000Y-174060000D03*
%TD*%
%TO.C,J17*%
X88800000Y-103858600D03*
X91340000Y-103858600D03*
X88800000Y-106398600D03*
X91340000Y-106398600D03*
X88800000Y-108938600D03*
X91340000Y-108938600D03*
X88800000Y-111478600D03*
X91340000Y-111478600D03*
X88800000Y-114018600D03*
X91340000Y-114018600D03*
%TD*%
%TO.C,J20*%
X122840000Y-176600000D03*
X122840000Y-174060000D03*
X125380000Y-176600000D03*
X125380000Y-174060000D03*
X127920000Y-176600000D03*
X127920000Y-174060000D03*
X130460000Y-176600000D03*
X130460000Y-174060000D03*
X133000000Y-176600000D03*
X133000000Y-174060000D03*
%TD*%
D21*
%TO.C,J8*%
X161490000Y-103000000D03*
D22*
X170510000Y-103000000D03*
%TD*%
D21*
%TO.C,J9*%
X162000000Y-150510000D03*
D22*
X162000000Y-141490000D03*
%TD*%
D21*
%TO.C,J4*%
X129490000Y-103000000D03*
D22*
X138510000Y-103000000D03*
%TD*%
D19*
%TO.C,J25*%
X212540000Y-127200042D03*
D13*
X212540000Y-131400042D03*
X212540000Y-135600042D03*
X212540000Y-139800042D03*
X207040000Y-127200042D03*
X207040000Y-131400042D03*
X207040000Y-135600042D03*
X207040000Y-139800042D03*
%TD*%
D23*
%TO.C,X1*%
X150050000Y-150830000D03*
D24*
X153860000Y-158450000D03*
X146240000Y-158450000D03*
%TD*%
D20*
%TO.C,J26*%
X211500000Y-114000000D03*
X208960000Y-114000000D03*
X211500000Y-111460000D03*
X208960000Y-111460000D03*
X211500000Y-108920000D03*
X208960000Y-108920000D03*
X211500000Y-106380000D03*
X208960000Y-106380000D03*
X211500000Y-103840000D03*
X208960000Y-103840000D03*
%TD*%
D12*
%TO.C,J19*%
X87500001Y-172799998D03*
D13*
X87500001Y-168599998D03*
X87500001Y-164399998D03*
X87500001Y-160199998D03*
X93000001Y-172799998D03*
X93000001Y-168599998D03*
X93000001Y-164399998D03*
X93000001Y-160199998D03*
%TD*%
D16*
%TO.C,J13*%
X203490000Y-100375000D03*
D17*
X203490000Y-102915000D03*
%TD*%
D21*
%TO.C,J5*%
X138000000Y-141490000D03*
D22*
X138000000Y-150510000D03*
%TD*%
D18*
%TO.C,H2*%
X101500000Y-149000000D03*
%TD*%
D16*
%TO.C,J29*%
X185490000Y-100350000D03*
D17*
X185490000Y-102890000D03*
%TD*%
D18*
%TO.C,H4*%
X207000000Y-93000000D03*
%TD*%
D16*
%TO.C,J24*%
X196290000Y-100375000D03*
D17*
X196290000Y-102915000D03*
%TD*%
D25*
%TO.C,R91*%
X129600000Y-106800000D03*
X127950000Y-106800000D03*
%TD*%
D26*
%TO.C,R46*%
X117862500Y-176200000D03*
X114937500Y-176200000D03*
%TD*%
D27*
%TO.C,U5*%
X174575000Y-89700000D03*
X175225000Y-89700000D03*
X175875000Y-89700000D03*
X176525000Y-89700000D03*
X176525000Y-92300000D03*
X175875000Y-92300000D03*
X175225000Y-92300000D03*
X174575000Y-92300000D03*
%TD*%
D28*
%TO.C,R51*%
X128800000Y-152400000D03*
X130450000Y-152400000D03*
%TD*%
D29*
%TO.C,C51*%
X164200000Y-170425000D03*
X164200000Y-171975000D03*
%TD*%
D30*
%TO.C,C93*%
X134775000Y-119150000D03*
X133225000Y-119150000D03*
%TD*%
D28*
%TO.C,R74*%
X179550000Y-137600000D03*
X181200000Y-137600000D03*
%TD*%
D30*
%TO.C,C52*%
X178965000Y-165600000D03*
X177415000Y-165600000D03*
%TD*%
D31*
%TO.C,Q28*%
X209250000Y-149125000D03*
X211150000Y-149125000D03*
X210200000Y-151000000D03*
%TD*%
D29*
%TO.C,C32*%
X131000000Y-156025000D03*
X131000000Y-157575000D03*
%TD*%
D28*
%TO.C,R3*%
X177126250Y-103330000D03*
X178776250Y-103330000D03*
%TD*%
D25*
%TO.C,R54*%
X179025000Y-167400000D03*
X177375000Y-167400000D03*
%TD*%
D32*
%TO.C,Q20*%
X187399300Y-176550400D03*
D33*
X194587500Y-174264400D03*
D32*
X187399300Y-171978400D03*
%TD*%
D26*
%TO.C,R31*%
X119962500Y-140000000D03*
X117037500Y-140000000D03*
%TD*%
D34*
%TO.C,R61*%
X184150000Y-175012500D03*
X184150000Y-172087500D03*
%TD*%
D28*
%TO.C,R75*%
X179575000Y-136000000D03*
X181225000Y-136000000D03*
%TD*%
D32*
%TO.C,Q2*%
X111433500Y-138078400D03*
D33*
X104245300Y-140364400D03*
D32*
X111433500Y-142650400D03*
%TD*%
D35*
%TO.C,R50*%
X132225000Y-150595000D03*
X132225000Y-152245000D03*
%TD*%
D36*
%TO.C,C74*%
X169225000Y-128400000D03*
X170775000Y-128400000D03*
%TD*%
D37*
%TO.C,C16*%
X123675000Y-121000000D03*
X120725000Y-121000000D03*
%TD*%
D38*
%TO.C,Q30*%
X101286000Y-107200700D03*
D39*
X99000000Y-100012500D03*
D38*
X96714000Y-107200700D03*
%TD*%
D32*
%TO.C,Q18*%
X187378600Y-168286000D03*
D33*
X194566800Y-166000000D03*
D32*
X187378600Y-163714000D03*
%TD*%
D35*
%TO.C,R16*%
X176150000Y-94175000D03*
X176150000Y-95825000D03*
%TD*%
D25*
%TO.C,R84*%
X123985000Y-118100000D03*
X122335000Y-118100000D03*
%TD*%
D40*
%TO.C,R34*%
X92400000Y-151025000D03*
X92400000Y-149375000D03*
%TD*%
D25*
%TO.C,R85*%
X123985000Y-113300000D03*
X122335000Y-113300000D03*
%TD*%
D41*
%TO.C,Q21*%
X205200000Y-151050000D03*
X203300000Y-151050000D03*
X204250000Y-149175000D03*
%TD*%
D38*
%TO.C,Q32*%
X109286000Y-107133900D03*
D39*
X107000000Y-99945700D03*
D38*
X104714000Y-107133900D03*
%TD*%
D42*
%TO.C,C19*%
X131200000Y-140775000D03*
X131200000Y-139225000D03*
%TD*%
D32*
%TO.C,Q27*%
X189399300Y-142786000D03*
D33*
X196587500Y-140500000D03*
D32*
X189399300Y-138214000D03*
%TD*%
D40*
%TO.C,R5*%
X161825000Y-139650000D03*
X161825000Y-138000000D03*
%TD*%
D25*
%TO.C,R41*%
X120025000Y-162800000D03*
X118375000Y-162800000D03*
%TD*%
D32*
%TO.C,Q11*%
X112100700Y-163368300D03*
D33*
X104912500Y-165654300D03*
D32*
X112100700Y-167940300D03*
%TD*%
D25*
%TO.C,R44*%
X120025000Y-154800000D03*
X118375000Y-154800000D03*
%TD*%
D32*
%TO.C,Q6*%
X111433500Y-121714000D03*
D33*
X104245300Y-124000000D03*
D32*
X111433500Y-126286000D03*
%TD*%
%TO.C,Q4*%
X111366700Y-130078400D03*
D33*
X104178500Y-132364400D03*
D32*
X111366700Y-134650400D03*
%TD*%
D43*
%TO.C,J12*%
X136200000Y-88850000D03*
X136200000Y-93850000D03*
D44*
X126200000Y-96850000D03*
X126200000Y-85850000D03*
%TD*%
D28*
%TO.C,R60*%
X179575000Y-161400000D03*
X181225000Y-161400000D03*
%TD*%
D45*
%TO.C,U8*%
X125995000Y-140550000D03*
X125995000Y-140050000D03*
X125995000Y-139550000D03*
X125995000Y-139050000D03*
X128805000Y-139050000D03*
X128805000Y-139550000D03*
X128805000Y-140050000D03*
X128805000Y-140550000D03*
%TD*%
D34*
%TO.C,R89*%
X96400000Y-117662500D03*
X96400000Y-114737500D03*
%TD*%
D46*
%TO.C,C37*%
X132325000Y-170600000D03*
X135275000Y-170600000D03*
%TD*%
D32*
%TO.C,Q9*%
X112188200Y-171714000D03*
D33*
X105000000Y-174000000D03*
D32*
X112188200Y-176286000D03*
%TD*%
D29*
%TO.C,C1*%
X163500000Y-138050000D03*
X163500000Y-139600000D03*
%TD*%
D25*
%TO.C,R30*%
X119850000Y-131000000D03*
X118200000Y-131000000D03*
%TD*%
%TO.C,R42*%
X120025000Y-158000000D03*
X118375000Y-158000000D03*
%TD*%
D28*
%TO.C,R24*%
X118950000Y-125600000D03*
X120600000Y-125600000D03*
%TD*%
D32*
%TO.C,Q16*%
X187399300Y-159786000D03*
D33*
X194587500Y-157500000D03*
D32*
X187399300Y-155214000D03*
%TD*%
D40*
%TO.C,R19*%
X178160000Y-92325000D03*
X178160000Y-90675000D03*
%TD*%
D35*
%TO.C,R20*%
X171200000Y-89575000D03*
X171200000Y-91225000D03*
%TD*%
D28*
%TO.C,R2*%
X177126250Y-101530000D03*
X178776250Y-101530000D03*
%TD*%
D31*
%TO.C,Q7*%
X94337500Y-149175000D03*
X96237500Y-149175000D03*
X95287500Y-151050000D03*
%TD*%
D47*
%TO.C,U15*%
X170130000Y-169905000D03*
X170130000Y-168635000D03*
X170130000Y-167365000D03*
X170130000Y-166095000D03*
X175070000Y-166095000D03*
X175070000Y-167365000D03*
X175070000Y-168635000D03*
X175070000Y-169905000D03*
%TD*%
%TO.C,U11*%
X124930000Y-170705000D03*
X124930000Y-169435000D03*
X124930000Y-168165000D03*
X124930000Y-166895000D03*
X129870000Y-166895000D03*
X129870000Y-168165000D03*
X129870000Y-169435000D03*
X129870000Y-170705000D03*
%TD*%
D28*
%TO.C,R56*%
X179575000Y-155000000D03*
X181225000Y-155000000D03*
%TD*%
%TO.C,R97*%
X116420000Y-87640000D03*
X118070000Y-87640000D03*
%TD*%
D25*
%TO.C,R95*%
X111635000Y-87640000D03*
X109985000Y-87640000D03*
%TD*%
D36*
%TO.C,C61*%
X168100000Y-164500000D03*
X169650000Y-164500000D03*
%TD*%
D40*
%TO.C,R49*%
X86825000Y-151025000D03*
X86825000Y-149375000D03*
%TD*%
D48*
%TO.C,C44*%
X112800000Y-148900000D03*
X118200000Y-148900000D03*
%TD*%
D42*
%TO.C,C38*%
X119400000Y-168375000D03*
X119400000Y-166825000D03*
%TD*%
D35*
%TO.C,R79*%
X213000000Y-149187500D03*
X213000000Y-150837500D03*
%TD*%
D28*
%TO.C,R57*%
X179575000Y-159800000D03*
X181225000Y-159800000D03*
%TD*%
D29*
%TO.C,C82*%
X169000000Y-139225000D03*
X169000000Y-140775000D03*
%TD*%
D36*
%TO.C,C40*%
X132225000Y-164800000D03*
X133775000Y-164800000D03*
%TD*%
D42*
%TO.C,C80*%
X166800000Y-125875000D03*
X166800000Y-124325000D03*
%TD*%
D25*
%TO.C,R40*%
X120025000Y-161200000D03*
X118375000Y-161200000D03*
%TD*%
D28*
%TO.C,R82*%
X129800000Y-119200000D03*
X131450000Y-119200000D03*
%TD*%
D25*
%TO.C,R43*%
X120025000Y-159600000D03*
X118375000Y-159600000D03*
%TD*%
D28*
%TO.C,R55*%
X179575000Y-156600000D03*
X181225000Y-156600000D03*
%TD*%
D36*
%TO.C,C10*%
X119000000Y-127400000D03*
X120550000Y-127400000D03*
%TD*%
%TO.C,C9*%
X119025000Y-123800000D03*
X120575000Y-123800000D03*
%TD*%
D25*
%TO.C,R83*%
X123985000Y-116500000D03*
X122335000Y-116500000D03*
%TD*%
D36*
%TO.C,C98*%
X121250000Y-105250000D03*
X122800000Y-105250000D03*
%TD*%
D29*
%TO.C,C6*%
X177750000Y-94225000D03*
X177750000Y-95775000D03*
%TD*%
D28*
%TO.C,R94*%
X127975000Y-108600000D03*
X129625000Y-108600000D03*
%TD*%
D30*
%TO.C,C31*%
X133775000Y-166600000D03*
X132225000Y-166600000D03*
%TD*%
D29*
%TO.C,C30*%
X119000000Y-171225000D03*
X119000000Y-172775000D03*
%TD*%
D25*
%TO.C,R25*%
X119850000Y-135800000D03*
X118200000Y-135800000D03*
%TD*%
D29*
%TO.C,C12*%
X131400000Y-134425000D03*
X131400000Y-135975000D03*
%TD*%
D38*
%TO.C,Q34*%
X117286000Y-107000700D03*
D39*
X115000000Y-99812500D03*
D38*
X112714000Y-107000700D03*
%TD*%
D32*
%TO.C,Q23*%
X189384800Y-125786000D03*
D33*
X196573000Y-123500000D03*
D32*
X189384800Y-121214000D03*
%TD*%
D49*
%TO.C,U23*%
X121275000Y-100045000D03*
X121775000Y-100045000D03*
X122275000Y-100045000D03*
X122775000Y-100045000D03*
X122775000Y-102855000D03*
X122275000Y-102855000D03*
X121775000Y-102855000D03*
X121275000Y-102855000D03*
%TD*%
D25*
%TO.C,R27*%
X119850000Y-132600000D03*
X118200000Y-132600000D03*
%TD*%
%TO.C,R48*%
X130450000Y-150620000D03*
X128800000Y-150620000D03*
%TD*%
D50*
%TO.C,C65*%
X185950000Y-151100000D03*
X185950000Y-145700000D03*
%TD*%
D28*
%TO.C,R96*%
X113215000Y-87640000D03*
X114865000Y-87640000D03*
%TD*%
%TO.C,R71*%
X179575000Y-129600000D03*
X181225000Y-129600000D03*
%TD*%
D42*
%TO.C,C54*%
X168400000Y-158175000D03*
X168400000Y-156625000D03*
%TD*%
D25*
%TO.C,R87*%
X123985000Y-110100000D03*
X122335000Y-110100000D03*
%TD*%
D32*
%TO.C,Q25*%
X189318000Y-134352800D03*
D33*
X196506200Y-132066800D03*
D32*
X189318000Y-129780800D03*
%TD*%
D40*
%TO.C,R23*%
X131400000Y-124825000D03*
X131400000Y-123175000D03*
%TD*%
D28*
%TO.C,R73*%
X179575000Y-132800000D03*
X181225000Y-132800000D03*
%TD*%
D41*
%TO.C,Q14*%
X90550000Y-151075000D03*
X88650000Y-151075000D03*
X89600000Y-149200000D03*
%TD*%
D25*
%TO.C,R26*%
X119850000Y-137400000D03*
X118200000Y-137400000D03*
%TD*%
D35*
%TO.C,R64*%
X207225000Y-149175000D03*
X207225000Y-150825000D03*
%TD*%
D25*
%TO.C,R86*%
X123985000Y-114900000D03*
X122335000Y-114900000D03*
%TD*%
D51*
%TO.C,U20*%
X174405000Y-139450000D03*
X174405000Y-139950000D03*
X174405000Y-140450000D03*
X174405000Y-140950000D03*
X171595000Y-140950000D03*
X171595000Y-140450000D03*
X171595000Y-139950000D03*
X171595000Y-139450000D03*
%TD*%
D28*
%TO.C,R37*%
X124675000Y-163800000D03*
X126325000Y-163800000D03*
%TD*%
D52*
%TO.C,J14*%
X195850000Y-107500000D03*
X195850000Y-108500000D03*
X195850000Y-109500000D03*
X195850000Y-110500000D03*
X195850000Y-111500000D03*
X195850000Y-112500000D03*
X195850000Y-113500000D03*
X195850000Y-114500000D03*
D53*
X197950000Y-106500000D03*
X197950000Y-115500000D03*
%TD*%
D28*
%TO.C,R59*%
X179575000Y-163000000D03*
X181225000Y-163000000D03*
%TD*%
D35*
%TO.C,R93*%
X131600000Y-106575000D03*
X131600000Y-108225000D03*
%TD*%
D29*
%TO.C,C11*%
X131400000Y-130025000D03*
X131400000Y-131575000D03*
%TD*%
D35*
%TO.C,R14*%
X169500000Y-89575000D03*
X169500000Y-91225000D03*
%TD*%
D25*
%TO.C,R88*%
X123985000Y-111700000D03*
X122335000Y-111700000D03*
%TD*%
D49*
%TO.C,U21*%
X168900000Y-122395000D03*
X169400000Y-122395000D03*
X169900000Y-122395000D03*
X170400000Y-122395000D03*
X170400000Y-125205000D03*
X169900000Y-125205000D03*
X169400000Y-125205000D03*
X168900000Y-125205000D03*
%TD*%
D28*
%TO.C,R72*%
X179575000Y-134400000D03*
X181225000Y-134400000D03*
%TD*%
%TO.C,R38*%
X120775000Y-171200000D03*
X122425000Y-171200000D03*
%TD*%
%TO.C,R70*%
X179575000Y-131200000D03*
X181225000Y-131200000D03*
%TD*%
D25*
%TO.C,R28*%
X119850000Y-134200000D03*
X118200000Y-134200000D03*
%TD*%
D35*
%TO.C,R4*%
X160200000Y-138000000D03*
X160200000Y-139650000D03*
%TD*%
D28*
%TO.C,R53*%
X165975000Y-170400000D03*
X167625000Y-170400000D03*
%TD*%
D36*
%TO.C,C59*%
X172275000Y-164500000D03*
X173825000Y-164500000D03*
%TD*%
D25*
%TO.C,R39*%
X133825000Y-168400000D03*
X132175000Y-168400000D03*
%TD*%
D32*
%TO.C,Q13*%
X112033900Y-154714000D03*
D33*
X104845700Y-157000000D03*
D32*
X112033900Y-159286000D03*
%TD*%
D54*
%TO.C,U7*%
X128670000Y-123295000D03*
X128670000Y-124565000D03*
X128670000Y-125835000D03*
X128670000Y-127105000D03*
X123730000Y-127105000D03*
X123730000Y-125835000D03*
X123730000Y-124565000D03*
X123730000Y-123295000D03*
%TD*%
D40*
%TO.C,R21*%
X172800000Y-91225000D03*
X172800000Y-89575000D03*
%TD*%
D36*
%TO.C,C7*%
X175750000Y-86000000D03*
X177300000Y-86000000D03*
%TD*%
D30*
%TO.C,C53*%
X171575000Y-154000000D03*
X170025000Y-154000000D03*
%TD*%
D29*
%TO.C,C33*%
X131000000Y-160025000D03*
X131000000Y-161575000D03*
%TD*%
D25*
%TO.C,R67*%
X174625000Y-128500000D03*
X172975000Y-128500000D03*
%TD*%
D35*
%TO.C,R47*%
X127025000Y-150595000D03*
X127025000Y-152245000D03*
%TD*%
D25*
%TO.C,R45*%
X120025000Y-156400000D03*
X118375000Y-156400000D03*
%TD*%
D35*
%TO.C,R90*%
X126000000Y-106575000D03*
X126000000Y-108225000D03*
%TD*%
D28*
%TO.C,R58*%
X179575000Y-158200000D03*
X181225000Y-158200000D03*
%TD*%
%TO.C,R1*%
X177176250Y-99730000D03*
X178826250Y-99730000D03*
%TD*%
D25*
%TO.C,R29*%
X119850000Y-129400000D03*
X118200000Y-129400000D03*
%TD*%
D46*
%TO.C,C58*%
X177515000Y-169600000D03*
X180465000Y-169600000D03*
%TD*%
D55*
%TO.C,R76*%
X183487500Y-140550000D03*
X186412500Y-140550000D03*
%TD*%
M02*
