%TF.GenerationSoftware,KiCad,Pcbnew,9.0.1*%
%TF.CreationDate,2026-02-10T20:47:57-05:00*%
%TF.ProjectId,motorboard-v1.0,6d6f746f-7262-46f6-9172-642d76312e30,rev?*%
%TF.SameCoordinates,Original*%
%TF.FileFunction,Soldermask,Top*%
%TF.FilePolarity,Negative*%
%FSLAX46Y46*%
G04 Gerber Fmt 4.6, Leading zero omitted, Abs format (unit mm)*
G04 Created by KiCad (PCBNEW 9.0.1) date 2026-02-10 20:47:57*
%MOMM*%
%LPD*%
G01*
G04 APERTURE LIST*
G04 Aperture macros list*
%AMRoundRect*
0 Rectangle with rounded corners*
0 $1 Rounding radius*
0 $2 $3 $4 $5 $6 $7 $8 $9 X,Y pos of 4 corners*
0 Add a 4 corners polygon primitive as box body*
4,1,4,$2,$3,$4,$5,$6,$7,$8,$9,$2,$3,0*
0 Add four circle primitives for the rounded corners*
1,1,$1+$1,$2,$3*
1,1,$1+$1,$4,$5*
1,1,$1+$1,$6,$7*
1,1,$1+$1,$8,$9*
0 Add four rect primitives between the rounded corners*
20,1,$1+$1,$2,$3,$4,$5,0*
20,1,$1+$1,$4,$5,$6,$7,0*
20,1,$1+$1,$6,$7,$8,$9,0*
20,1,$1+$1,$8,$9,$2,$3,0*%
G04 Aperture macros list end*
%ADD10RoundRect,0.250000X0.650000X-0.325000X0.650000X0.325000X-0.650000X0.325000X-0.650000X-0.325000X0*%
%ADD11RoundRect,0.200000X-0.275000X0.200000X-0.275000X-0.200000X0.275000X-0.200000X0.275000X0.200000X0*%
%ADD12R,0.939800X2.209800*%
%ADD13R,5.461000X5.969000*%
%ADD14RoundRect,0.250000X-0.650000X0.325000X-0.650000X-0.325000X0.650000X-0.325000X0.650000X0.325000X0*%
%ADD15RoundRect,0.200000X0.200000X0.275000X-0.200000X0.275000X-0.200000X-0.275000X0.200000X-0.275000X0*%
%ADD16R,2.209800X0.939800*%
%ADD17R,5.969000X5.461000*%
%ADD18C,2.500000*%
%ADD19RoundRect,0.250000X-0.325000X-0.650000X0.325000X-0.650000X0.325000X0.650000X-0.325000X0.650000X0*%
%ADD20RoundRect,0.225000X0.225000X0.250000X-0.225000X0.250000X-0.225000X-0.250000X0.225000X-0.250000X0*%
%ADD21RoundRect,0.225000X0.250000X-0.225000X0.250000X0.225000X-0.250000X0.225000X-0.250000X-0.225000X0*%
%ADD22R,1.900000X1.900000*%
%ADD23C,1.900000*%
%ADD24RoundRect,0.038000X0.425000X0.150000X-0.425000X0.150000X-0.425000X-0.150000X0.425000X-0.150000X0*%
%ADD25RoundRect,0.038000X0.150000X0.425000X-0.150000X0.425000X-0.150000X-0.425000X0.150000X-0.425000X0*%
%ADD26RoundRect,0.102000X1.400000X1.400000X-1.400000X1.400000X-1.400000X-1.400000X1.400000X-1.400000X0*%
%ADD27RoundRect,0.059250X0.177750X-0.602750X0.177750X0.602750X-0.177750X0.602750X-0.177750X-0.602750X0*%
%ADD28C,4.050000*%
%ADD29C,2.700000*%
%ADD30RoundRect,0.250000X0.325000X0.650000X-0.325000X0.650000X-0.325000X-0.650000X0.325000X-0.650000X0*%
%ADD31R,0.800000X0.250000*%
%ADD32R,1.100000X0.250000*%
%ADD33R,0.500000X0.250000*%
%ADD34R,0.600000X1.950000*%
%ADD35R,0.700000X0.250000*%
%ADD36R,0.250000X0.700000*%
%ADD37R,0.250000X1.100000*%
%ADD38RoundRect,0.218750X0.218750X0.256250X-0.218750X0.256250X-0.218750X-0.256250X0.218750X-0.256250X0*%
%ADD39RoundRect,0.250000X0.550000X-1.500000X0.550000X1.500000X-0.550000X1.500000X-0.550000X-1.500000X0*%
%ADD40RoundRect,0.200000X-0.200000X-0.275000X0.200000X-0.275000X0.200000X0.275000X-0.200000X0.275000X0*%
%ADD41RoundRect,0.225000X-0.250000X0.225000X-0.250000X-0.225000X0.250000X-0.225000X0.250000X0.225000X0*%
%ADD42RoundRect,0.218750X-0.256250X0.218750X-0.256250X-0.218750X0.256250X-0.218750X0.256250X0.218750X0*%
%ADD43RoundRect,0.059250X0.602750X0.177750X-0.602750X0.177750X-0.602750X-0.177750X0.602750X-0.177750X0*%
%ADD44R,1.700000X1.700000*%
%ADD45O,1.700000X1.700000*%
%ADD46RoundRect,0.200000X0.275000X-0.200000X0.275000X0.200000X-0.275000X0.200000X-0.275000X-0.200000X0*%
%ADD47C,7.400000*%
%ADD48RoundRect,0.038000X-0.425000X-0.150000X0.425000X-0.150000X0.425000X0.150000X-0.425000X0.150000X0*%
%ADD49RoundRect,0.038000X-0.150000X-0.425000X0.150000X-0.425000X0.150000X0.425000X-0.150000X0.425000X0*%
%ADD50RoundRect,0.102000X-1.400000X-1.400000X1.400000X-1.400000X1.400000X1.400000X-1.400000X1.400000X0*%
%ADD51R,0.990600X3.505200*%
%ADD52R,1.498600X3.403600*%
%ADD53RoundRect,0.059250X-0.602750X-0.177750X0.602750X-0.177750X0.602750X0.177750X-0.602750X0.177750X0*%
%ADD54RoundRect,0.150000X0.587500X0.150000X-0.587500X0.150000X-0.587500X-0.150000X0.587500X-0.150000X0*%
%ADD55C,1.473200*%
%ADD56R,0.350000X2.500000*%
%ADD57R,2.500000X2.000000*%
%ADD58R,2.500000X0.350000*%
%ADD59R,2.000000X2.500000*%
%ADD60RoundRect,0.059250X-0.177750X0.602750X-0.177750X-0.602750X0.177750X-0.602750X0.177750X0.602750X0*%
%ADD61RoundRect,0.100500X0.301500X-0.986500X0.301500X0.986500X-0.301500X0.986500X-0.301500X-0.986500X0*%
%ADD62C,2.109000*%
%ADD63RoundRect,0.150000X-0.150000X-0.625000X0.150000X-0.625000X0.150000X0.625000X-0.150000X0.625000X0*%
%ADD64RoundRect,0.250000X-0.350000X-0.650000X0.350000X-0.650000X0.350000X0.650000X-0.350000X0.650000X0*%
%ADD65RoundRect,0.218750X0.256250X-0.218750X0.256250X0.218750X-0.256250X0.218750X-0.256250X-0.218750X0*%
%ADD66RoundRect,0.218750X-0.218750X-0.256250X0.218750X-0.256250X0.218750X0.256250X-0.218750X0.256250X0*%
%ADD67R,1.792199X0.583400*%
%ADD68R,7.493000X9.601200*%
%ADD69R,1.447800X1.397000*%
%ADD70R,5.613400X4.191000*%
%ADD71RoundRect,0.225000X-0.225000X-0.250000X0.225000X-0.250000X0.225000X0.250000X-0.225000X0.250000X0*%
%ADD72C,2.550000*%
%ADD73C,1.500000*%
G04 APERTURE END LIST*
D10*
%TO.C,C49*%
X125000000Y-151500000D03*
X125000000Y-148550000D03*
%TD*%
D11*
%TO.C,R35*%
X126200000Y-125975000D03*
X126200000Y-127625000D03*
%TD*%
D12*
%TO.C,Q29*%
X101286000Y-98632900D03*
D13*
X99000000Y-105821100D03*
D12*
X96714000Y-98632900D03*
%TD*%
D14*
%TO.C,C84*%
X174000000Y-143325000D03*
X174000000Y-146275000D03*
%TD*%
D15*
%TO.C,R7*%
X151447262Y-114997262D03*
X149797262Y-114997262D03*
%TD*%
D16*
%TO.C,Q22*%
X198188200Y-125786000D03*
D17*
X191000000Y-123500000D03*
D16*
X198188200Y-121214000D03*
%TD*%
%TO.C,Q19*%
X196100700Y-176286000D03*
D17*
X188912500Y-174000000D03*
D16*
X196100700Y-171714000D03*
%TD*%
D18*
%TO.C,SW1*%
X182400000Y-93600000D03*
X194900000Y-93600000D03*
X182400000Y-88600000D03*
X194900000Y-88600000D03*
%TD*%
D19*
%TO.C,C26*%
X160725000Y-135800000D03*
X163675000Y-135800000D03*
%TD*%
D15*
%TO.C,R33*%
X124425000Y-125800000D03*
X122775000Y-125800000D03*
%TD*%
D10*
%TO.C,C69*%
X182000000Y-151475000D03*
X182000000Y-148525000D03*
%TD*%
D20*
%TO.C,C73*%
X174775000Y-119650000D03*
X173225000Y-119650000D03*
%TD*%
D21*
%TO.C,C15*%
X119800000Y-130975000D03*
X119800000Y-129425000D03*
%TD*%
D22*
%TO.C,J16*%
X87500001Y-139900002D03*
D23*
X87500001Y-135700003D03*
X87500001Y-131500004D03*
X87500001Y-127300004D03*
X93000000Y-139900002D03*
X93000000Y-135700003D03*
X93000000Y-131500004D03*
X93000000Y-127300004D03*
%TD*%
D19*
%TO.C,C41*%
X135450000Y-161200000D03*
X138400000Y-161200000D03*
%TD*%
D21*
%TO.C,C35*%
X120025000Y-159750000D03*
X120025000Y-158200000D03*
%TD*%
D24*
%TO.C,U10*%
X129225000Y-161950000D03*
X129225000Y-161450000D03*
X129225000Y-160950000D03*
X129225000Y-160450000D03*
X129225000Y-159950000D03*
X129225000Y-159450000D03*
X129225000Y-158950000D03*
X129225000Y-158450000D03*
X129225000Y-157950000D03*
X129225000Y-157450000D03*
X129225000Y-156950000D03*
X129225000Y-156450000D03*
D25*
X128550000Y-155775000D03*
X128050000Y-155775000D03*
X127550000Y-155775000D03*
X127050000Y-155775000D03*
X126550000Y-155775000D03*
X126050000Y-155775000D03*
X125550000Y-155775000D03*
X125050000Y-155775000D03*
X124550000Y-155775000D03*
X124050000Y-155775000D03*
X123550000Y-155775000D03*
X123050000Y-155775000D03*
D24*
X122375000Y-156450000D03*
X122375000Y-156950000D03*
X122375000Y-157450000D03*
X122375000Y-157950000D03*
X122375000Y-158450000D03*
X122375000Y-158950000D03*
X122375000Y-159450000D03*
X122375000Y-159950000D03*
X122375000Y-160450000D03*
X122375000Y-160950000D03*
X122375000Y-161450000D03*
X122375000Y-161950000D03*
D25*
X123050000Y-162625000D03*
X123550000Y-162625000D03*
X124050000Y-162625000D03*
X124550000Y-162625000D03*
X125050000Y-162625000D03*
X125550000Y-162625000D03*
X126050000Y-162625000D03*
X126550000Y-162625000D03*
X127050000Y-162625000D03*
X127550000Y-162625000D03*
X128050000Y-162625000D03*
X128550000Y-162625000D03*
D26*
X125800000Y-159200000D03*
%TD*%
D14*
%TO.C,C8*%
X156800000Y-111225000D03*
X156800000Y-114175000D03*
%TD*%
%TO.C,C106*%
X114000000Y-116125000D03*
X114000000Y-119075000D03*
%TD*%
D21*
%TO.C,C14*%
X119800000Y-134175000D03*
X119800000Y-132625000D03*
%TD*%
D27*
%TO.C,U17*%
X171925000Y-168255000D03*
X172425000Y-168255000D03*
X172925000Y-168255000D03*
X173425000Y-168255000D03*
X173425000Y-165445000D03*
X172925000Y-165445000D03*
X172425000Y-165445000D03*
X171925000Y-165445000D03*
%TD*%
D28*
%TO.C,J15*%
X146500000Y-163500000D03*
X153700000Y-163500000D03*
D29*
X143350000Y-169500000D03*
X156850000Y-169500000D03*
%TD*%
D30*
%TO.C,C62*%
X164675000Y-164600000D03*
X161725000Y-164600000D03*
%TD*%
D11*
%TO.C,R18*%
X166000000Y-111450000D03*
X166000000Y-113100000D03*
%TD*%
D31*
%TO.C,U4*%
X162650000Y-113700000D03*
D32*
X162500000Y-113050000D03*
X162500000Y-112400000D03*
D33*
X162800000Y-111750000D03*
D34*
X162250000Y-110900000D03*
D33*
X162800000Y-110900000D03*
X162800000Y-110050000D03*
D34*
X160250000Y-110900000D03*
D33*
X159700000Y-110050000D03*
X159700000Y-110900000D03*
X159700000Y-111750000D03*
D32*
X160000000Y-112400000D03*
X160000000Y-113050000D03*
D35*
X159800000Y-113700000D03*
D36*
X160000000Y-114600000D03*
X160500000Y-114600000D03*
D37*
X161000000Y-114400000D03*
X161500000Y-114400000D03*
D36*
X162000000Y-114600000D03*
X162500000Y-114600000D03*
%TD*%
D10*
%TO.C,C91*%
X200000000Y-117075000D03*
X200000000Y-114125000D03*
%TD*%
D30*
%TO.C,C64*%
X164675000Y-157800000D03*
X161725000Y-157800000D03*
%TD*%
D11*
%TO.C,R32*%
X120800000Y-125975000D03*
X120800000Y-127625000D03*
%TD*%
D38*
%TO.C,D3*%
X178748750Y-103330000D03*
X177173750Y-103330000D03*
%TD*%
D39*
%TO.C,C103*%
X144750000Y-92583920D03*
X144750000Y-87183920D03*
%TD*%
D24*
%TO.C,U22*%
X133500000Y-116750000D03*
X133500000Y-116250000D03*
X133500000Y-115750000D03*
X133500000Y-115250000D03*
X133500000Y-114750000D03*
X133500000Y-114250000D03*
X133500000Y-113750000D03*
X133500000Y-113250000D03*
X133500000Y-112750000D03*
X133500000Y-112250000D03*
X133500000Y-111750000D03*
X133500000Y-111250000D03*
D25*
X132825000Y-110575000D03*
X132325000Y-110575000D03*
X131825000Y-110575000D03*
X131325000Y-110575000D03*
X130825000Y-110575000D03*
X130325000Y-110575000D03*
X129825000Y-110575000D03*
X129325000Y-110575000D03*
X128825000Y-110575000D03*
X128325000Y-110575000D03*
X127825000Y-110575000D03*
X127325000Y-110575000D03*
D24*
X126650000Y-111250000D03*
X126650000Y-111750000D03*
X126650000Y-112250000D03*
X126650000Y-112750000D03*
X126650000Y-113250000D03*
X126650000Y-113750000D03*
X126650000Y-114250000D03*
X126650000Y-114750000D03*
X126650000Y-115250000D03*
X126650000Y-115750000D03*
X126650000Y-116250000D03*
X126650000Y-116750000D03*
D25*
X127325000Y-117425000D03*
X127825000Y-117425000D03*
X128325000Y-117425000D03*
X128825000Y-117425000D03*
X129325000Y-117425000D03*
X129825000Y-117425000D03*
X130325000Y-117425000D03*
X130825000Y-117425000D03*
X131325000Y-117425000D03*
X131825000Y-117425000D03*
X132325000Y-117425000D03*
X132825000Y-117425000D03*
D26*
X130075000Y-114000000D03*
%TD*%
D40*
%TO.C,R10*%
X139175000Y-130200000D03*
X140825000Y-130200000D03*
%TD*%
D41*
%TO.C,C78*%
X179600000Y-136025000D03*
X179600000Y-137575000D03*
%TD*%
D42*
%TO.C,D5*%
X86800000Y-149412500D03*
X86800000Y-150987500D03*
%TD*%
D43*
%TO.C,U13*%
X122755000Y-168250000D03*
X122755000Y-167750000D03*
X122755000Y-167250000D03*
X122755000Y-166750000D03*
X119945000Y-166750000D03*
X119945000Y-167250000D03*
X119945000Y-167750000D03*
X119945000Y-168250000D03*
%TD*%
D40*
%TO.C,R6*%
X146947262Y-117347262D03*
X148597262Y-117347262D03*
%TD*%
D14*
%TO.C,C81*%
X182000000Y-143325000D03*
X182000000Y-146275000D03*
%TD*%
D44*
%TO.C,J18*%
X189090000Y-100350000D03*
D45*
X189090000Y-102890000D03*
%TD*%
D46*
%TO.C,R80*%
X172200000Y-140225000D03*
X172200000Y-138575000D03*
%TD*%
D39*
%TO.C,C23*%
X153625000Y-92508920D03*
X153625000Y-87108920D03*
%TD*%
D44*
%TO.C,J27*%
X199890000Y-100375000D03*
D45*
X199890000Y-102915000D03*
%TD*%
D10*
%TO.C,C25*%
X180400000Y-117075000D03*
X180400000Y-114125000D03*
%TD*%
D47*
%TO.C,H1*%
X93000000Y-93000000D03*
%TD*%
D41*
%TO.C,C56*%
X179600000Y-158225000D03*
X179600000Y-159775000D03*
%TD*%
D46*
%TO.C,R62*%
X181000000Y-166825000D03*
X181000000Y-165175000D03*
%TD*%
D40*
%TO.C,R11*%
X137375000Y-136000001D03*
X139025000Y-136000001D03*
%TD*%
D21*
%TO.C,C95*%
X123960000Y-117975000D03*
X123960000Y-116425000D03*
%TD*%
D48*
%TO.C,U18*%
X170075000Y-130750000D03*
X170075000Y-131250000D03*
X170075000Y-131750000D03*
X170075000Y-132250000D03*
X170075000Y-132750000D03*
X170075000Y-133250000D03*
X170075000Y-133750000D03*
X170075000Y-134250000D03*
X170075000Y-134750000D03*
X170075000Y-135250000D03*
X170075000Y-135750000D03*
X170075000Y-136250000D03*
D49*
X170750000Y-136925000D03*
X171250000Y-136925000D03*
X171750000Y-136925000D03*
X172250000Y-136925000D03*
X172750000Y-136925000D03*
X173250000Y-136925000D03*
X173750000Y-136925000D03*
X174250000Y-136925000D03*
X174750000Y-136925000D03*
X175250000Y-136925000D03*
X175750000Y-136925000D03*
X176250000Y-136925000D03*
D48*
X176925000Y-136250000D03*
X176925000Y-135750000D03*
X176925000Y-135250000D03*
X176925000Y-134750000D03*
X176925000Y-134250000D03*
X176925000Y-133750000D03*
X176925000Y-133250000D03*
X176925000Y-132750000D03*
X176925000Y-132250000D03*
X176925000Y-131750000D03*
X176925000Y-131250000D03*
X176925000Y-130750000D03*
D49*
X176250000Y-130075000D03*
X175750000Y-130075000D03*
X175250000Y-130075000D03*
X174750000Y-130075000D03*
X174250000Y-130075000D03*
X173750000Y-130075000D03*
X173250000Y-130075000D03*
X172750000Y-130075000D03*
X172250000Y-130075000D03*
X171750000Y-130075000D03*
X171250000Y-130075000D03*
X170750000Y-130075000D03*
D50*
X173500000Y-133500000D03*
%TD*%
D22*
%TO.C,J22*%
X212500000Y-160400002D03*
D23*
X212500000Y-164600001D03*
X212500000Y-168800000D03*
X212500000Y-173000000D03*
X207000001Y-160400002D03*
X207000001Y-164600001D03*
X207000001Y-168800000D03*
X207000001Y-173000000D03*
%TD*%
D16*
%TO.C,Q26*%
X198275700Y-142786000D03*
D17*
X191087500Y-140500000D03*
D16*
X198275700Y-138214000D03*
%TD*%
D15*
%TO.C,R69*%
X174825000Y-121300000D03*
X173175000Y-121300000D03*
%TD*%
D51*
%TO.C,J28*%
X117999999Y-91555300D03*
X116000000Y-91555300D03*
X113999999Y-91555300D03*
X112000001Y-91555300D03*
X109999999Y-91555300D03*
X108000001Y-91555300D03*
X106000000Y-91555300D03*
X103999999Y-91555300D03*
D52*
X120350002Y-85805299D03*
X101649998Y-85805299D03*
%TD*%
D14*
%TO.C,C108*%
X108000000Y-114800000D03*
X108000000Y-117750000D03*
%TD*%
D44*
%TO.C,J21*%
X192690000Y-100375000D03*
D45*
X192690000Y-102915000D03*
%TD*%
D10*
%TO.C,C24*%
X183200000Y-117075000D03*
X183200000Y-114125000D03*
%TD*%
D53*
%TO.C,U12*%
X126045000Y-166800000D03*
X126045000Y-167300000D03*
X126045000Y-167800000D03*
X126045000Y-168300000D03*
X128855000Y-168300000D03*
X128855000Y-167800000D03*
X128855000Y-167300000D03*
X128855000Y-166800000D03*
%TD*%
D14*
%TO.C,C101*%
X99200000Y-114800000D03*
X99200000Y-117750000D03*
%TD*%
D54*
%TO.C,Q35*%
X131800000Y-92150000D03*
X131800000Y-90250000D03*
X129925000Y-91200000D03*
%TD*%
D10*
%TO.C,C89*%
X194400000Y-117075000D03*
X194400000Y-114125000D03*
%TD*%
D21*
%TO.C,C34*%
X120000000Y-162975000D03*
X120000000Y-161425000D03*
%TD*%
D16*
%TO.C,Q15*%
X196269500Y-159786000D03*
D17*
X189081300Y-157500000D03*
D16*
X196269500Y-155214000D03*
%TD*%
D30*
%TO.C,C2*%
X144897262Y-117747262D03*
X141947262Y-117747262D03*
%TD*%
D47*
%TO.C,H3*%
X198500000Y-149000000D03*
%TD*%
D21*
%TO.C,C96*%
X123960000Y-114775000D03*
X123960000Y-113225000D03*
%TD*%
D27*
%TO.C,U16*%
X168000000Y-168255000D03*
X168500000Y-168255000D03*
X169000000Y-168255000D03*
X169500000Y-168255000D03*
X169500000Y-165445000D03*
X169000000Y-165445000D03*
X168500000Y-165445000D03*
X168000000Y-165445000D03*
%TD*%
D10*
%TO.C,C71*%
X190000000Y-151475000D03*
X190000000Y-148525000D03*
%TD*%
D30*
%TO.C,C5*%
X162175000Y-117450000D03*
X159225000Y-117450000D03*
%TD*%
D14*
%TO.C,C3*%
X135100000Y-132325000D03*
X135100000Y-135275000D03*
%TD*%
D41*
%TO.C,C94*%
X135270000Y-115725000D03*
X135270000Y-117275000D03*
%TD*%
D55*
%TO.C,J23*%
X167000000Y-176600000D03*
X167000000Y-174060000D03*
X169540000Y-176600000D03*
X169540000Y-174060000D03*
X172080000Y-176600000D03*
X172080000Y-174060000D03*
X174620000Y-176600000D03*
X174620000Y-174060000D03*
X177160000Y-176600000D03*
X177160000Y-174060000D03*
%TD*%
D10*
%TO.C,C68*%
X178000000Y-151475000D03*
X178000000Y-148525000D03*
%TD*%
%TO.C,C50*%
X129000000Y-151500000D03*
X129000000Y-148550000D03*
%TD*%
D40*
%TO.C,R8*%
X137352799Y-132200000D03*
X139002799Y-132200000D03*
%TD*%
D14*
%TO.C,C18*%
X129000000Y-143325000D03*
X129000000Y-146275000D03*
%TD*%
D46*
%TO.C,R17*%
X167600000Y-113100000D03*
X167600000Y-111450000D03*
%TD*%
D55*
%TO.C,J17*%
X88800000Y-103858600D03*
X91340000Y-103858600D03*
X88800000Y-106398600D03*
X91340000Y-106398600D03*
X88800000Y-108938600D03*
X91340000Y-108938600D03*
X88800000Y-111478600D03*
X91340000Y-111478600D03*
X88800000Y-114018600D03*
X91340000Y-114018600D03*
%TD*%
D40*
%TO.C,R9*%
X137375000Y-134100000D03*
X139025000Y-134100000D03*
%TD*%
D14*
%TO.C,C107*%
X111000000Y-114800000D03*
X111000000Y-117750000D03*
%TD*%
D21*
%TO.C,C97*%
X123960000Y-111575000D03*
X123960000Y-110025000D03*
%TD*%
D55*
%TO.C,J20*%
X122840000Y-176600000D03*
X122840000Y-174060000D03*
X125380000Y-176600000D03*
X125380000Y-174060000D03*
X127920000Y-176600000D03*
X127920000Y-174060000D03*
X130460000Y-176600000D03*
X130460000Y-174060000D03*
X133000000Y-176600000D03*
X133000000Y-174060000D03*
%TD*%
D12*
%TO.C,Q33*%
X117464000Y-98211800D03*
D13*
X115178000Y-105400000D03*
D12*
X112892000Y-98211800D03*
%TD*%
D56*
%TO.C,J8*%
X163143000Y-105350000D03*
X163143000Y-100650000D03*
X163777000Y-105350000D03*
X163777000Y-100650000D03*
X164412000Y-105350000D03*
X164412000Y-100650000D03*
X165047000Y-105350000D03*
X165047000Y-100650000D03*
X165682000Y-105350000D03*
X165682000Y-100650000D03*
X166317000Y-105350000D03*
X166317000Y-100650000D03*
X166952000Y-105350000D03*
X166952000Y-100650000D03*
X167587000Y-105350000D03*
X167587000Y-100650000D03*
X168222000Y-105350000D03*
X168222000Y-100650000D03*
X168857000Y-105350000D03*
X168857000Y-100650000D03*
D57*
X159440000Y-103000000D03*
X172560000Y-103000000D03*
%TD*%
D58*
%TO.C,J9*%
X164350000Y-148857000D03*
X159650000Y-148857000D03*
X164350000Y-148223000D03*
X159650000Y-148223000D03*
X164350000Y-147588000D03*
X159650000Y-147588000D03*
X164350000Y-146953000D03*
X159650000Y-146953000D03*
X164350000Y-146318000D03*
X159650000Y-146318000D03*
X164350000Y-145683000D03*
X159650000Y-145683000D03*
X164350000Y-145048000D03*
X159650000Y-145048000D03*
X164350000Y-144413000D03*
X159650000Y-144413000D03*
X164350000Y-143778000D03*
X159650000Y-143778000D03*
X164350000Y-143143000D03*
X159650000Y-143143000D03*
D59*
X162000000Y-152560000D03*
X162000000Y-139440000D03*
%TD*%
D60*
%TO.C,U9*%
X129950000Y-124395000D03*
X129450000Y-124395000D03*
X128950000Y-124395000D03*
X128450000Y-124395000D03*
X128450000Y-127205000D03*
X128950000Y-127205000D03*
X129450000Y-127205000D03*
X129950000Y-127205000D03*
%TD*%
D41*
%TO.C,C57*%
X179600000Y-161425000D03*
X179600000Y-162975000D03*
%TD*%
D10*
%TO.C,C70*%
X186000000Y-151475000D03*
X186000000Y-148525000D03*
%TD*%
D56*
%TO.C,J4*%
X131143000Y-105350000D03*
X131143000Y-100650000D03*
X131777000Y-105350000D03*
X131777000Y-100650000D03*
X132412000Y-105350000D03*
X132412000Y-100650000D03*
X133047000Y-105350000D03*
X133047000Y-100650000D03*
X133682000Y-105350000D03*
X133682000Y-100650000D03*
X134317000Y-105350000D03*
X134317000Y-100650000D03*
X134952000Y-105350000D03*
X134952000Y-100650000D03*
X135587000Y-105350000D03*
X135587000Y-100650000D03*
X136222000Y-105350000D03*
X136222000Y-100650000D03*
X136857000Y-105350000D03*
X136857000Y-100650000D03*
D57*
X127440000Y-103000000D03*
X140560000Y-103000000D03*
%TD*%
D61*
%TO.C,U19*%
X167590000Y-124600000D03*
X168860000Y-124600000D03*
X170130000Y-124600000D03*
X171400000Y-124600000D03*
X171400000Y-119660000D03*
X170130000Y-119660000D03*
X168860000Y-119660000D03*
X167590000Y-119660000D03*
%TD*%
D21*
%TO.C,C17*%
X131500000Y-127775000D03*
X131500000Y-126225000D03*
%TD*%
D16*
%TO.C,Q1*%
X102778200Y-138342800D03*
D17*
X109966400Y-140628800D03*
D16*
X102778200Y-142914800D03*
%TD*%
D21*
%TO.C,C36*%
X120025000Y-156525000D03*
X120025000Y-154975000D03*
%TD*%
D15*
%TO.C,R52*%
X174825000Y-153600000D03*
X173175000Y-153600000D03*
%TD*%
D30*
%TO.C,C63*%
X164675000Y-161200000D03*
X161725000Y-161200000D03*
%TD*%
D10*
%TO.C,C67*%
X174000000Y-151475000D03*
X174000000Y-148525000D03*
%TD*%
D14*
%TO.C,C105*%
X117000000Y-118325000D03*
X117000000Y-121275000D03*
%TD*%
D16*
%TO.C,Q8*%
X102811800Y-171714000D03*
D17*
X110000000Y-174000000D03*
D16*
X102811800Y-176286000D03*
%TD*%
D41*
%TO.C,C77*%
X179600000Y-132825000D03*
X179600000Y-134375000D03*
%TD*%
D14*
%TO.C,C22*%
X117000000Y-143325000D03*
X117000000Y-146275000D03*
%TD*%
D10*
%TO.C,C90*%
X197200000Y-117075000D03*
X197200000Y-114125000D03*
%TD*%
D22*
%TO.C,J25*%
X212540000Y-127200042D03*
D23*
X212540000Y-131400041D03*
X212540000Y-135600040D03*
X212540000Y-139800040D03*
X207040001Y-127200042D03*
X207040001Y-131400041D03*
X207040001Y-135600040D03*
X207040001Y-139800040D03*
%TD*%
D40*
%TO.C,R78*%
X173975000Y-140400000D03*
X175625000Y-140400000D03*
%TD*%
D46*
%TO.C,R12*%
X149872262Y-111272262D03*
X149872262Y-109622262D03*
%TD*%
D62*
%TO.C,X1*%
X153860000Y-158450000D03*
X146240000Y-158450000D03*
%TD*%
D16*
%TO.C,Q12*%
X102811800Y-154714000D03*
D17*
X110000000Y-157000000D03*
D16*
X102811800Y-159286000D03*
%TD*%
D63*
%TO.C,J11*%
X148200000Y-103525000D03*
X149200000Y-103525000D03*
X150200000Y-103525000D03*
X151200000Y-103525000D03*
X152200000Y-103525000D03*
D64*
X146900000Y-101000000D03*
X153500000Y-101000000D03*
%TD*%
D10*
%TO.C,C47*%
X117000000Y-151500000D03*
X117000000Y-148550000D03*
%TD*%
%TO.C,C79*%
X165150000Y-121575000D03*
X165150000Y-118625000D03*
%TD*%
D40*
%TO.C,R22*%
X125350000Y-138600000D03*
X127000000Y-138600000D03*
%TD*%
D10*
%TO.C,C46*%
X113000000Y-151500000D03*
X113000000Y-148550000D03*
%TD*%
D40*
%TO.C,R92*%
X129575000Y-88100000D03*
X131225000Y-88100000D03*
%TD*%
D10*
%TO.C,C45*%
X109000000Y-151500000D03*
X109000000Y-148550000D03*
%TD*%
D19*
%TO.C,C28*%
X160725000Y-130700000D03*
X163675000Y-130700000D03*
%TD*%
D41*
%TO.C,C76*%
X179600000Y-129625000D03*
X179600000Y-131175000D03*
%TD*%
%TO.C,C55*%
X179600000Y-155025000D03*
X179600000Y-156575000D03*
%TD*%
D15*
%TO.C,R15*%
X167625000Y-114850000D03*
X165975000Y-114850000D03*
%TD*%
D16*
%TO.C,Q17*%
X196100700Y-167786000D03*
D17*
X188912500Y-165500000D03*
D16*
X196100700Y-163214000D03*
%TD*%
%TO.C,Q10*%
X102878600Y-163214000D03*
D17*
X110066800Y-165500000D03*
D16*
X102878600Y-167786000D03*
%TD*%
D65*
%TO.C,D6*%
X207200000Y-150787500D03*
X207200000Y-149212500D03*
%TD*%
D40*
%TO.C,R63*%
X177600000Y-166800000D03*
X179250000Y-166800000D03*
%TD*%
D30*
%TO.C,C60*%
X164675000Y-167800000D03*
X161725000Y-167800000D03*
%TD*%
D55*
%TO.C,J26*%
X211500000Y-114000000D03*
X208960000Y-114000000D03*
X211500000Y-111460000D03*
X208960000Y-111460000D03*
X211500000Y-108920000D03*
X208960000Y-108920000D03*
X211500000Y-106380000D03*
X208960000Y-106380000D03*
X211500000Y-103840000D03*
X208960000Y-103840000D03*
%TD*%
D14*
%TO.C,C104*%
X120000000Y-119325000D03*
X120000000Y-122275000D03*
%TD*%
D22*
%TO.C,J19*%
X87500001Y-172799998D03*
D23*
X87500001Y-168599999D03*
X87500001Y-164400000D03*
X87500001Y-160200000D03*
X93000000Y-172799998D03*
X93000000Y-168599999D03*
X93000000Y-164400000D03*
X93000000Y-160200000D03*
%TD*%
D40*
%TO.C,R68*%
X163975000Y-125150000D03*
X165625000Y-125150000D03*
%TD*%
D14*
%TO.C,C85*%
X170000000Y-143325000D03*
X170000000Y-146275000D03*
%TD*%
D46*
%TO.C,R77*%
X177400000Y-140225000D03*
X177400000Y-138575000D03*
%TD*%
D24*
%TO.C,U6*%
X129355000Y-136250000D03*
X129355000Y-135750000D03*
X129355000Y-135250000D03*
X129355000Y-134750000D03*
X129355000Y-134250000D03*
X129355000Y-133750000D03*
X129355000Y-133250000D03*
X129355000Y-132750000D03*
X129355000Y-132250000D03*
X129355000Y-131750000D03*
X129355000Y-131250000D03*
X129355000Y-130750000D03*
D25*
X128680000Y-130075000D03*
X128180000Y-130075000D03*
X127680000Y-130075000D03*
X127180000Y-130075000D03*
X126680000Y-130075000D03*
X126180000Y-130075000D03*
X125680000Y-130075000D03*
X125180000Y-130075000D03*
X124680000Y-130075000D03*
X124180000Y-130075000D03*
X123680000Y-130075000D03*
X123180000Y-130075000D03*
D24*
X122505000Y-130750000D03*
X122505000Y-131250000D03*
X122505000Y-131750000D03*
X122505000Y-132250000D03*
X122505000Y-132750000D03*
X122505000Y-133250000D03*
X122505000Y-133750000D03*
X122505000Y-134250000D03*
X122505000Y-134750000D03*
X122505000Y-135250000D03*
X122505000Y-135750000D03*
X122505000Y-136250000D03*
D25*
X123180000Y-136925000D03*
X123680000Y-136925000D03*
X124180000Y-136925000D03*
X124680000Y-136925000D03*
X125180000Y-136925000D03*
X125680000Y-136925000D03*
X126180000Y-136925000D03*
X126680000Y-136925000D03*
X127180000Y-136925000D03*
X127680000Y-136925000D03*
X128180000Y-136925000D03*
X128680000Y-136925000D03*
D26*
X125930000Y-133500000D03*
%TD*%
D16*
%TO.C,Q3*%
X102932500Y-129578400D03*
D17*
X110120700Y-131864400D03*
D16*
X102932500Y-134150400D03*
%TD*%
D39*
%TO.C,C86*%
X162450000Y-92533920D03*
X162450000Y-87133920D03*
%TD*%
D42*
%TO.C,D4*%
X92400000Y-149412500D03*
X92400000Y-150987500D03*
%TD*%
D21*
%TO.C,C75*%
X168400000Y-132875000D03*
X168400000Y-131325000D03*
%TD*%
D10*
%TO.C,C87*%
X188800000Y-117075000D03*
X188800000Y-114125000D03*
%TD*%
D44*
%TO.C,J13*%
X203490000Y-100375000D03*
D45*
X203490000Y-102915000D03*
%TD*%
D40*
%TO.C,R36*%
X122775000Y-127800000D03*
X124425000Y-127800000D03*
%TD*%
D48*
%TO.C,U14*%
X170075000Y-156250000D03*
X170075000Y-156750000D03*
X170075000Y-157250000D03*
X170075000Y-157750000D03*
X170075000Y-158250000D03*
X170075000Y-158750000D03*
X170075000Y-159250000D03*
X170075000Y-159750000D03*
X170075000Y-160250000D03*
X170075000Y-160750000D03*
X170075000Y-161250000D03*
X170075000Y-161750000D03*
D49*
X170750000Y-162425000D03*
X171250000Y-162425000D03*
X171750000Y-162425000D03*
X172250000Y-162425000D03*
X172750000Y-162425000D03*
X173250000Y-162425000D03*
X173750000Y-162425000D03*
X174250000Y-162425000D03*
X174750000Y-162425000D03*
X175250000Y-162425000D03*
X175750000Y-162425000D03*
X176250000Y-162425000D03*
D48*
X176925000Y-161750000D03*
X176925000Y-161250000D03*
X176925000Y-160750000D03*
X176925000Y-160250000D03*
X176925000Y-159750000D03*
X176925000Y-159250000D03*
X176925000Y-158750000D03*
X176925000Y-158250000D03*
X176925000Y-157750000D03*
X176925000Y-157250000D03*
X176925000Y-156750000D03*
X176925000Y-156250000D03*
D49*
X176250000Y-155575000D03*
X175750000Y-155575000D03*
X175250000Y-155575000D03*
X174750000Y-155575000D03*
X174250000Y-155575000D03*
X173750000Y-155575000D03*
X173250000Y-155575000D03*
X172750000Y-155575000D03*
X172250000Y-155575000D03*
X171750000Y-155575000D03*
X171250000Y-155575000D03*
X170750000Y-155575000D03*
D50*
X173500000Y-159000000D03*
%TD*%
D14*
%TO.C,C83*%
X178000000Y-143325000D03*
X178000000Y-146275000D03*
%TD*%
D66*
%TO.C,D8*%
X125630000Y-89180000D03*
X127205000Y-89180000D03*
%TD*%
D19*
%TO.C,C42*%
X135450000Y-164600000D03*
X138400000Y-164600000D03*
%TD*%
D21*
%TO.C,C13*%
X119800000Y-137375000D03*
X119800000Y-135825000D03*
%TD*%
D15*
%TO.C,R13*%
X151447262Y-112952738D03*
X149797262Y-112952738D03*
%TD*%
D58*
%TO.C,J5*%
X135650000Y-143143000D03*
X140350000Y-143143000D03*
X135650000Y-143777000D03*
X140350000Y-143777000D03*
X135650000Y-144412000D03*
X140350000Y-144412000D03*
X135650000Y-145047000D03*
X140350000Y-145047000D03*
X135650000Y-145682000D03*
X140350000Y-145682000D03*
X135650000Y-146317000D03*
X140350000Y-146317000D03*
X135650000Y-146952000D03*
X140350000Y-146952000D03*
X135650000Y-147587000D03*
X140350000Y-147587000D03*
X135650000Y-148222000D03*
X140350000Y-148222000D03*
X135650000Y-148857000D03*
X140350000Y-148857000D03*
D59*
X138000000Y-139440000D03*
X138000000Y-152560000D03*
%TD*%
D67*
%TO.C,U3*%
X156629400Y-135540000D03*
X156629400Y-134270000D03*
X156629400Y-133000000D03*
X156629400Y-131730000D03*
X156629400Y-130460000D03*
X143370600Y-130460000D03*
X143370600Y-131730000D03*
X143370600Y-133000000D03*
X143370600Y-134270000D03*
X143370600Y-135540000D03*
D68*
X150000000Y-133000000D03*
%TD*%
D69*
%TO.C,U2*%
X141683000Y-125150000D03*
X141683000Y-127250000D03*
D70*
X138000000Y-126200000D03*
%TD*%
D19*
%TO.C,C27*%
X160725000Y-133200000D03*
X163675000Y-133200000D03*
%TD*%
D16*
%TO.C,Q24*%
X198188200Y-134286000D03*
D17*
X191000000Y-132000000D03*
D16*
X198188200Y-129714000D03*
%TD*%
D46*
%TO.C,R65*%
X175800000Y-167425000D03*
X175800000Y-165775000D03*
%TD*%
D14*
%TO.C,C100*%
X96400000Y-114800000D03*
X96400000Y-117750000D03*
%TD*%
D71*
%TO.C,C72*%
X164025000Y-123450000D03*
X165575000Y-123450000D03*
%TD*%
D19*
%TO.C,C29*%
X160725000Y-128200000D03*
X163675000Y-128200000D03*
%TD*%
D47*
%TO.C,H2*%
X101500000Y-149000000D03*
%TD*%
D14*
%TO.C,C21*%
X121000000Y-143325000D03*
X121000000Y-146275000D03*
%TD*%
D19*
%TO.C,C39*%
X135450000Y-157800000D03*
X138400000Y-157800000D03*
%TD*%
D15*
%TO.C,R81*%
X175625000Y-138600000D03*
X173975000Y-138600000D03*
%TD*%
D10*
%TO.C,C66*%
X170000000Y-151475000D03*
X170000000Y-148525000D03*
%TD*%
D31*
%TO.C,U1*%
X146622262Y-113747262D03*
D32*
X146472262Y-113097262D03*
X146472262Y-112447262D03*
D33*
X146772262Y-111797262D03*
D34*
X146222262Y-110947262D03*
D33*
X146772262Y-110947262D03*
X146772262Y-110097262D03*
D34*
X144222262Y-110947262D03*
D33*
X143672262Y-110097262D03*
X143672262Y-110947262D03*
X143672262Y-111797262D03*
D32*
X143972262Y-112447262D03*
X143972262Y-113097262D03*
D35*
X143772262Y-113747262D03*
D36*
X143972262Y-114647262D03*
X144472262Y-114647262D03*
D37*
X144972262Y-114447262D03*
X145472262Y-114447262D03*
D36*
X145972262Y-114647262D03*
X146472262Y-114647262D03*
%TD*%
D38*
%TO.C,D2*%
X178748750Y-101530000D03*
X177173750Y-101530000D03*
%TD*%
%TO.C,D1*%
X178748750Y-99730000D03*
X177173750Y-99730000D03*
%TD*%
D44*
%TO.C,J29*%
X185490000Y-100350000D03*
D45*
X185490000Y-102890000D03*
%TD*%
D47*
%TO.C,H4*%
X207000000Y-93000000D03*
%TD*%
D10*
%TO.C,C48*%
X121000000Y-151500000D03*
X121000000Y-148550000D03*
%TD*%
%TO.C,C88*%
X191600000Y-117075000D03*
X191600000Y-114125000D03*
%TD*%
D14*
%TO.C,C102*%
X102000000Y-114800000D03*
X102000000Y-117750000D03*
%TD*%
D19*
%TO.C,C43*%
X135450000Y-167900000D03*
X138400000Y-167900000D03*
%TD*%
D10*
%TO.C,C92*%
X202800000Y-117075000D03*
X202800000Y-114125000D03*
%TD*%
D44*
%TO.C,J24*%
X196290000Y-100375000D03*
D45*
X196290000Y-102915000D03*
%TD*%
D10*
%TO.C,C99*%
X186000000Y-117075000D03*
X186000000Y-114125000D03*
%TD*%
D15*
%TO.C,R66*%
X179250000Y-165220000D03*
X177600000Y-165220000D03*
%TD*%
D14*
%TO.C,C109*%
X105000000Y-114800000D03*
X105000000Y-117750000D03*
%TD*%
%TO.C,C4*%
X140772262Y-111522262D03*
X140772262Y-114472262D03*
%TD*%
%TO.C,C20*%
X125000000Y-143325000D03*
X125000000Y-146275000D03*
%TD*%
D12*
%TO.C,Q31*%
X109286000Y-98411800D03*
D13*
X107000000Y-105600000D03*
D12*
X104714000Y-98411800D03*
%TD*%
D16*
%TO.C,Q5*%
X102999300Y-121478400D03*
D17*
X110187500Y-123764400D03*
D16*
X102999300Y-126050400D03*
%TD*%
D65*
%TO.C,D7*%
X213000000Y-150800000D03*
X213000000Y-149225000D03*
%TD*%
D72*
%TO.C,J12*%
X136200000Y-88850000D03*
X136200000Y-93850000D03*
D73*
X126200000Y-96850000D03*
X126200000Y-85850000D03*
%TD*%
M02*
