999
"DXF R12 Output" (www.mydxf.blogspot.com)
 0 
SECTION
 2 
HEADER
 9 
$ACADVER
 1 
AC1009
 9 
$EXTMIN
 10 
 0 
 20 
 0 
 9 
$EXTMAX
 10 
 8.5 
 20 
 11 
 0 
ENDSEC
 0 
SECTION
 2 
ENTITIES
0
LINE
8
g4
10
3.087410
20
19.380200
11
2.868284
21
19.361768
0
LINE
8
g4
10
2.868284
20
19.361768
11
2.867087
21
19.257812
0
LINE
8
g4
10
2.867087
20
19.257812
11
4.486830
21
18.577132
0
LINE
8
g4
10
4.486830
20
18.577132
11
5.782779
21
18.019130
0
LINE
8
g4
10
5.782779
20
18.019130
11
6.742612
21
17.416863
0
LINE
8
g4
10
6.742612
20
17.416863
11
7.824570
21
16.365362
0
LINE
8
g4
10
7.824570
20
16.365362
11
6.703180
21
16.213948
0
LINE
8
g4
10
6.703180
20
16.213948
11
6.279080
21
15.988212
0
LINE
8
g4
10
6.279080
20
15.988212
11
5.997796
21
15.943172
0
LINE
8
g4
10
5.997796
20
15.943172
11
5.393720
21
16.434163
0
LINE
8
g4
10
5.393720
20
16.434163
11
4.273331
21
17.146498
0
LINE
8
g4
10
4.273331
20
17.146498
11
2.732600
21
17.794093
0
LINE
8
g4
10
2.732600
20
17.794093
11
0.867496
21
18.090862
0
LINE
8
g4
10
0.867496
20
18.090862
11
0.576554
21
18.087700
0
LINE
8
g4
10
0.576554
20
18.087700
11
0.146468
21
17.963654
0
LINE
8
g4
10
0.146468
20
17.963654
11
0.447194
21
17.810072
0
LINE
8
g4
10
0.447194
20
17.810072
11
1.836954
21
17.596763
0
LINE
8
g4
10
1.836954
20
17.596763
11
3.204210
21
17.319413
0
LINE
8
g4
10
3.204210
20
17.319413
11
4.267768
21
16.905791
0
LINE
8
g4
10
4.267768
20
16.905791
11
5.513364
21
16.092963
0
LINE
8
g4
10
5.513364
20
16.092963
11
4.813696
21
16.121230
0
LINE
8
g4
10
4.813696
20
16.121230
11
4.216048
21
15.974630
0
LINE
8
g4
10
4.216048
20
15.974630
11
3.323138
21
15.314450
0
LINE
8
g4
10
3.323138
20
15.314450
11
2.827299
21
14.427671
0
LINE
8
g4
10
2.827299
20
14.427671
11
2.721194
21
13.629543
0
LINE
8
g4
10
2.721194
20
13.629543
11
2.775971
21
13.253859
0
LINE
8
g4
10
2.775971
20
13.253859
11
2.336777
21
12.612078
0
LINE
8
g4
10
2.336777
20
12.612078
11
1.833805
21
11.528783
0
LINE
8
g4
10
1.833805
20
11.528783
11
1.515628
21
10.265428
0
LINE
8
g4
10
1.515628
20
10.265428
11
1.503518
21
9.647933
0
LINE
8
g4
10
1.503518
20
9.647933
11
1.630821
21
9.083469
0
LINE
8
g4
10
1.630821
20
9.083469
11
2.033240
21
8.466271
0
LINE
8
g4
10
2.033240
20
8.466271
11
2.676751
21
8.144510
0
LINE
8
g4
10
2.676751
20
8.144510
11
3.416888
21
8.221559
0
LINE
8
g4
10
3.416888
20
8.221559
11
4.069951
21
8.536731
0
LINE
8
g4
10
4.069951
20
8.536731
11
4.388914
21
8.488806
0
LINE
8
g4
10
4.388914
20
8.488806
11
4.576896
21
8.329508
0
LINE
8
g4
10
4.576896
20
8.329508
11
4.285859
21
7.955755
0
LINE
8
g4
10
4.285859
20
7.955755
11
3.858157
21
7.723109
0
LINE
8
g4
10
3.858157
20
7.723109
11
3.465554
21
7.459831
0
LINE
8
g4
10
3.465554
20
7.459831
11
3.279816
21
6.994178
0
LINE
8
g4
10
3.279816
20
6.994178
11
3.300352
21
6.528133
0
LINE
8
g4
10
3.300352
20
6.528133
11
3.457534
21
6.043990
0
LINE
8
g4
10
3.457534
20
6.043990
11
3.798138
21
5.526548
0
LINE
8
g4
10
3.798138
20
5.526548
11
4.250119
21
5.199806
0
LINE
8
g4
10
4.250119
20
5.199806
11
4.829598
21
5.107975
0
LINE
8
g4
10
4.829598
20
5.107975
11
5.221782
21
5.298974
0
LINE
8
g4
10
5.221782
20
5.298974
11
5.531357
21
5.628890
0
LINE
8
g4
10
5.531357
20
5.628890
11
5.896722
21
5.630954
0
LINE
8
g4
10
5.896722
20
5.630954
11
6.087172
21
5.807863
0
LINE
8
g4
10
6.087172
20
5.807863
11
6.111181
21
6.173036
0
LINE
8
g4
10
6.111181
20
6.173036
11
6.011806
21
6.374814
0
LINE
8
g4
10
6.011806
20
6.374814
11
6.123335
21
6.455298
0
LINE
8
g4
10
6.123335
20
6.455298
11
6.508059
21
6.624683
0
LINE
8
g4
10
6.508059
20
6.624683
11
6.548069
21
6.881969
0
LINE
8
g4
10
6.548069
20
6.881969
11
6.433460
21
7.089532
0
LINE
8
g4
10
6.433460
20
7.089532
11
6.219714
21
7.300618
0
LINE
8
g4
10
6.219714
20
7.300618
11
6.147627
21
7.542650
0
LINE
8
g4
10
6.147627
20
7.542650
11
6.222226
21
7.784025
0
LINE
8
g4
10
6.222226
20
7.784025
11
6.487924
21
8.216849
0
LINE
8
g4
10
6.487924
20
8.216849
11
7.245202
21
8.026896
0
LINE
8
g4
10
7.245202
20
8.026896
11
8.031514
21
7.996190
0
LINE
8
g4
10
8.031514
20
7.996190
11
8.823580
21
7.894233
0
LINE
8
g4
10
8.823580
20
7.894233
11
9.327961
21
7.770164
0
LINE
8
g4
10
9.327961
20
7.770164
11
9.552874
21
7.555391
0
LINE
8
g4
10
9.552874
20
7.555391
11
9.529620
21
6.636064
0
LINE
8
g4
10
9.529620
20
6.636064
11
9.259199
21
6.399092
0
LINE
8
g4
10
9.259199
20
6.399092
11
8.849964
21
5.742525
0
LINE
8
g4
10
8.849964
20
5.742525
11
8.709244
21
4.632542
0
LINE
8
g4
10
8.709244
20
4.632542
11
8.866869
21
3.896951
0
LINE
8
g4
10
8.866869
20
3.896951
11
9.244371
21
3.035324
0
LINE
8
g4
10
9.244371
20
3.035324
11
8.661231
21
1.745254
0
LINE
8
g4
10
8.661231
20
1.745254
11
7.471861
21
0.141294
0
LINE
8
g4
10
7.471861
20
0.141294
11
8.479252
21
0.538172
0
LINE
8
g4
10
8.479252
20
0.538172
11
9.581122
21
1.159844
0
LINE
8
g4
10
9.581122
20
1.159844
11
10.941891
21
2.175294
0
LINE
8
g4
10
10.941891
20
2.175294
11
11.530110
21
2.222893
0
LINE
8
g4
10
11.530110
20
2.222893
11
12.717899
21
2.494376
0
LINE
8
g4
10
12.717899
20
2.494376
11
13.355987
21
2.850900
0
LINE
8
g4
10
13.355987
20
2.850900
11
13.927194
21
3.427589
0
LINE
8
g4
10
13.927194
20
3.427589
11
14.359261
21
4.279173
0
LINE
8
g4
10
14.359261
20
4.279173
11
14.579931
21
5.460384
0
LINE
8
g4
10
14.579931
20
5.460384
11
14.578897
21
6.044442
0
LINE
8
g4
10
14.578897
20
6.044442
11
14.447638
21
6.937824
0
LINE
8
g4
10
14.447638
20
6.937824
11
14.570202
21
7.991791
0
LINE
8
g4
10
14.570202
20
7.991791
11
14.340717
21
8.881243
0
LINE
8
g4
10
14.340717
20
8.881243
11
14.030705
21
9.333749
0
LINE
8
g4
10
14.030705
20
9.333749
11
13.543816
21
9.759884
0
LINE
8
g4
10
13.543816
20
9.759884
11
12.948500
21
10.553639
0
LINE
8
g4
10
12.948500
20
10.553639
11
13.097048
21
10.827154
0
LINE
8
g4
10
13.097048
20
10.827154
11
13.257006
21
11.082809
0
LINE
8
g4
10
13.257006
20
11.082809
11
13.918468
21
11.082809
0
LINE
8
g4
10
13.918468
20
11.082809
11
14.703036
21
11.075420
0
LINE
8
g4
10
14.703036
20
11.075420
11
14.555951
21
10.825481
0
LINE
8
g4
10
14.555951
20
10.825481
11
14.339720
21
10.437815
0
LINE
8
g4
10
14.339720
20
10.437815
11
14.475209
21
10.225093
0
LINE
8
g4
10
14.475209
20
10.225093
11
14.916853
21
10.017249
0
LINE
8
g4
10
14.916853
20
10.017249
11
15.417607
21
9.473606
0
LINE
8
g4
10
15.417607
20
9.473606
11
15.826953
21
9.175992
0
LINE
8
g4
10
15.826953
20
9.175992
11
16.073310
21
9.201414
0
LINE
8
g4
10
16.073310
20
9.201414
11
16.376198
21
9.475670
0
LINE
8
g4
10
16.376198
20
9.475670
11
16.653018
21
10.192226
0
LINE
8
g4
10
16.653018
20
10.192226
11
16.787012
21
10.491697
0
LINE
8
g4
10
16.787012
20
10.491697
11
16.785485
21
10.836830
0
LINE
8
g4
10
16.785485
20
10.836830
11
15.951625
21
11.672700
0
LINE
8
g4
10
15.951625
20
11.672700
11
15.245525
21
12.229530
0
LINE
8
g4
10
15.245525
20
12.229530
11
16.304821
21
12.736928
0
LINE
8
g4
10
16.304821
20
12.736928
11
17.074895
21
13.377780
0
LINE
8
g4
10
17.074895
20
13.377780
11
17.444793
21
14.092553
0
LINE
8
g4
10
17.444793
20
14.092553
11
17.293117
21
14.449496
0
LINE
8
g4
10
17.293117
20
14.449496
11
16.848621
21
14.568495
0
LINE
8
g4
10
16.848621
20
14.568495
11
16.340063
21
14.569440
0
LINE
8
g4
10
16.340063
20
14.569440
11
17.260517
21
15.704125
0
LINE
8
g4
10
17.260517
20
15.704125
11
17.567817
21
16.322860
0
LINE
8
g4
10
17.567817
20
16.322860
11
17.590123
21
16.788960
0
LINE
8
g4
10
17.590123
20
16.788960
11
17.396272
21
17.092364
0
LINE
8
g4
10
17.396272
20
17.092364
11
16.814968
21
17.212719
0
LINE
8
g4
10
16.814968
20
17.212719
11
15.750439
21
16.955757
0
LINE
8
g4
10
15.750439
20
16.955757
11
14.710293
21
16.488966
0
LINE
8
g4
10
14.710293
20
16.488966
11
13.727844
21
15.860696
0
LINE
8
g4
10
13.727844
20
15.860696
11
12.836408
21
15.119299
0
LINE
8
g4
10
12.836408
20
15.119299
11
13.171915
21
16.171770
0
LINE
8
g4
10
13.171915
20
16.171770
11
13.344413
21
17.057632
0
LINE
8
g4
10
13.344413
20
17.057632
11
13.271518
21
17.934219
0
LINE
8
g4
10
13.271518
20
17.934219
11
12.980739
21
18.071459
0
LINE
8
g4
10
12.980739
20
18.071459
11
12.509460
21
17.862167
0
LINE
8
g4
10
12.509460
20
17.862167
11
11.442127
21
16.667152
0
LINE
8
g4
10
11.442127
20
16.667152
11
10.718350
21
15.200177
0
LINE
8
g4
10
10.718350
20
15.200177
11
9.889073
21
15.695668
0
LINE
8
g4
10
9.889073
20
15.695668
11
8.916900
21
15.876615
0
LINE
8
g4
10
8.916900
20
15.876615
11
8.100417
21
16.314821
0
LINE
8
g4
10
8.100417
20
16.314821
11
7.403008
21
17.078087
0
LINE
8
g4
10
7.403008
20
17.078087
11
6.319858
21
18.028109
0
LINE
8
g4
10
6.319858
20
18.028109
11
4.926895
21
18.884022
0
LINE
8
g4
10
4.926895
20
18.884022
11
3.300047
21
19.364961
0
LINE
8
g4
10
3.300047
20
19.364961
11
3.087138
21
19.379947
0
LINE
8
g4
10
3.087138
20
19.379947
11
3.087410
21
19.380200
 0 
ENDSEC
 0 
EOF