%
M48
M72
T01C0.0150
T02C0.0236
T03C0.0256
T04C0.0276
T05C0.0315
T06C0.0354
T07C0.0360
T08C0.0394
T09C0.0551
T10C0.0630
T11C0.0650
T12C0.0787
T13C0.0866
T14C0.1500
%
T01
X4594Y10668
X5914Y13578
X6374Y13818
X5884Y15308
X5884Y15888
X4884Y15978
X4164Y15678
X3984Y16398
X4574Y17438
X7434Y15808
X8014Y15948
X8474Y17728
X9544Y19738
X9934Y20188
X10264Y19728
X10684Y20198
X10984Y19718
X11264Y20188
X11624Y19688
X12464Y20468
X12074Y20768
X12474Y21078
X10654Y20828
X9294Y20458
X12514Y17508
X13644Y17538
X14544Y19248
X17004Y19218
X19674Y16488
X20604Y15798
X20594Y15388
X20384Y14988
X20494Y14398
X18844Y14648
X16844Y14848
X14834Y15078
X14244Y13048
X14914Y10858
X16654Y10848
X12744Y10888
X11154Y10848
X9094Y10808
X8104Y10838
X8304Y12248
X8184Y13528
X19834Y21988
X20804Y21878
X21024Y22298
X21274Y22718
X21274Y23168
X21514Y23508
X21844Y23688
X22214Y23958
X22524Y23698
X22854Y23518
X23514Y23058
X23284Y22718
X23284Y22318
X23564Y22058
X24674Y21978
X25104Y23158
X24664Y23548
X25674Y23948
X26394Y24338
X26044Y25268
X25484Y25248
X27024Y25698
X26134Y26818
X28204Y25688
X29384Y25278
X29974Y25708
X30454Y24728
X30604Y24018
X31514Y24088
X31944Y23688
X33604Y23628
X34754Y23768
X35264Y22288
X33434Y21868
X31944Y21978
X31014Y20168
X30614Y19808
X31514Y19818
X31354Y19028
X30954Y18908
X30174Y18918
X29774Y18918
X29384Y18488
X28404Y18498
X27224Y18918
X26634Y18468
X25964Y18488
X26344Y19378
X25674Y20268
X25054Y19948
X24664Y20408
X23204Y20368
X24594Y17298
X23714Y16388
X23914Y16038
X25094Y15468
X26744Y15138
X27014Y14678
X27794Y14788
X27814Y15198
X28534Y15428
X29094Y15168
X29094Y14758
X29094Y14358
X29714Y13888
X29414Y13588
X30184Y13238
X31824Y13858
X31834Y15388
X30754Y15358
X29934Y16728
X29884Y17328
X30374Y17318
X28944Y17148
X27794Y16848
X27804Y16388
X27134Y16298
X26974Y17368
X25714Y13968
X26544Y13428
X26944Y13058
X27854Y13378
X27264Y11618
X26754Y11248
X24454Y12988
X24364Y13868
X23264Y13348
X23324Y12888
X22714Y12788
X22434Y12498
X30324Y6628
X35524Y8768
X35564Y9178
X35934Y9528
X36514Y8918
X37974Y9988
X39244Y10502
X40024Y10708
X41314Y9988
X40204Y8848
X40094Y8228
X38644Y7438
X42354Y7478
X44154Y7458
X43614Y8908
X43264Y9128
X44734Y10018
X45954Y10698
X43434Y10728
X42604Y10628
X47494Y12778
X47954Y13438
X47964Y14238
X47934Y15548
X48604Y16088
X47954Y16298
X47964Y17138
X47964Y18038
X47934Y18798
X48724Y18608
X48724Y19708
X47964Y19608
X47994Y20468
X48674Y20818
X47994Y21328
X48754Y21778
X47994Y22048
X48014Y22798
X48824Y23758
X48154Y24408
X48204Y25348
X47364Y25278
X47414Y25938
X48234Y26298
X47474Y26588
X48144Y26918
X48814Y27288
X49454Y27638
X50064Y27918
X49924Y26758
X49014Y26178
X49694Y25648
X49094Y25008
X49764Y24198
X49494Y23068
X49974Y22428
X50114Y21038
X50064Y19818
X46744Y25538
X46714Y26328
X46174Y26328
X45684Y26348
X45124Y26348
X44594Y26338
X43954Y26318
X43514Y25918
X43444Y25298
X44054Y25588
X43164Y26448
X42414Y26628
X41744Y26798
X40974Y27008
X40374Y26758
X40404Y27428
X40394Y28188
X40404Y28988
X41064Y29318
X41854Y29618
X42764Y29708
X42654Y28768
X43324Y28588
X43994Y28358
X44634Y28178
X44634Y28928
X43684Y29218
X44574Y29628
X45144Y29978
X45434Y29418
X45434Y28758
X45984Y28308
X45374Y27998
X46614Y28658
X47224Y28988
X47784Y29298
X48354Y29588
X47894Y29948
X48204Y30548
X47394Y30418
X47074Y29578
X46424Y29998
X46204Y29298
X43984Y29988
X42844Y31618
X41734Y32438
X41974Y33068
X40424Y32768
X38954Y31608
X37984Y32418
X38184Y33068
X36664Y32698
X34754Y32168
X34394Y31858
X34054Y31518
X33734Y31108
X31434Y30578
X31394Y31078
X31334Y31528
X29454Y29428
X29034Y29398
X28624Y29588
X27874Y30578
X27314Y30538
X26374Y29208
X25744Y29048
X25764Y29528
X23444Y31448
X21584Y31538
X20684Y31758
X20674Y32158
X20924Y32498
X21114Y33018
X19854Y32158
X19974Y31608
X20524Y30968
X18934Y30808
X17084Y31388
X16244Y31408
X17164Y29228
X15864Y28898
X13744Y28808
X12114Y28858
X10044Y28788
X8354Y28688
X6244Y29358
X5954Y29918
X5624Y30738
X6334Y34098
X5604Y34418
X5604Y34908
X5874Y35218
X5964Y35628
X5084Y36158
X6354Y39458
X17054Y34518
X21344Y34438
X22044Y29478
X21634Y29358
X22544Y29368
X20664Y26848
X23514Y26498
X22954Y24408
X26994Y22958
X28664Y23008
X29204Y21038
X32034Y18318
X32304Y17648
X31944Y17418
X34084Y18038
X33274Y19988
X40344Y24908
X40404Y25658
X41414Y26058
X42474Y25738
X42604Y24918
X42474Y23468
X42524Y22478
X42524Y21558
X42544Y20598
X42494Y19558
X42544Y18398
X40574Y20288
X40574Y21478
X40634Y22458
X40594Y23488
X35544Y27608
X35044Y26938
X32144Y27308
X31804Y27568
X32094Y27888
X31454Y26958
X30674Y26848
X28914Y27588
X28684Y27228
X38894Y34738
X40914Y34638
X44254Y32768
X45494Y32488
X45774Y33058
X46564Y32968
X46614Y31598
X48934Y29908
X49054Y30538
X49214Y32648
X49244Y34348
X46424Y34388
X28244Y38908
X19264Y42178
X17964Y42158
X8524Y26358
X10784Y24968
X11284Y24948
X5774Y23328
X30874Y11698
X31404Y11708
X32124Y11738
X33084Y12348
X33424Y12138
X36724Y10748
X37874Y13888
X48594Y5888
X49134Y7858
X49444Y12908
X36904Y3788
T02
X39234Y2938
X42494Y3798
X43034Y4568
X46124Y4188
X46224Y7388
X38594Y5778
X23734Y18208
X26744Y20228
X18864Y20308
X18864Y18568
X17834Y23448
X17834Y13418
X18864Y13438
X14814Y7398
X14194Y5768
X11074Y7398
X10304Y7718
X7334Y7398
X5684Y7258
X3904Y8638
X6634Y8838
X9304Y2978
X13054Y2978
X10844Y34558
X12644Y34698
X14364Y36508
X16394Y34698
X17824Y37678
X14554Y39278
X10804Y39278
X7094Y39248
X7594Y34908
X8884Y34698
X21534Y38318
X22854Y38368
X24194Y37678
X25174Y38408
X26774Y38348
X28244Y38328
X29034Y38318
X28214Y35308
X30134Y34688
X26384Y34688
X22634Y34698
X32734Y41818
X33294Y40828
X36424Y37678
X39264Y36498
X39574Y37678
X38334Y34918
X42134Y34698
X43944Y37688
X42934Y38568
X45884Y34878
X46874Y35778
T03
X16614Y15912
X16614Y13943
T04
X3304Y13659
X3304Y14446
X3304Y15234
X3304Y16021
X3304Y16809
X3304Y17596
X3304Y23789
X3304Y24576
X3304Y25364
X3304Y26151
X3304Y26939
X3304Y27726
X3454Y31809
X3454Y32596
X3454Y33384
X3454Y34171
X3454Y34959
X3454Y35746
X6379Y41598
X7166Y41598
X7953Y41598
X8741Y41598
X9528Y41598
X10316Y41598
X11103Y41598
X11890Y41598
X22839Y41498
X23626Y41498
X24413Y41498
X25201Y41498
X25988Y41498
X26776Y41498
X27563Y41498
X28350Y41498
X36376Y41498
X37163Y41498
X37951Y41498
X38738Y41498
X39526Y41498
X40313Y41498
X43266Y41478
X44053Y41478
X44841Y41478
X45628Y41478
X46416Y41478
X47203Y41478
X50344Y36716
X50344Y35929
X50344Y35141
X50344Y34354
X50344Y33566
X50344Y32779
X50104Y10176
X50104Y9389
X50104Y8601
X50104Y7814
X50104Y7026
X50104Y6239
X2984Y6279
X2984Y7066
X2984Y7854
X2984Y8641
X2984Y9429
X2984Y10216
T05
X18864Y35318
X41744Y28968
X41744Y27968
X41744Y24968
X41744Y23968
X41744Y22968
X41744Y21968
X41744Y20968
X41744Y19968
X41744Y18968
X41744Y17968
X50794Y17808
X50794Y18808
X50794Y19808
X50794Y20808
X50794Y21808
X50794Y22808
X50794Y23808
X50794Y24808
X50794Y25808
X50794Y26808
X50794Y27808
X50794Y28808
X50794Y29808
X50794Y16808
X50794Y15808
X50794Y14808
X50794Y13808
X50794Y12808
T06
X16804Y2968
T07
X32754Y8728
X33754Y8728
X34754Y8728
X34754Y11048
X33754Y11048
X32754Y11048
T08
X20304Y9972
X20304Y8003
X4479Y20788
X2510Y20788
T09
X23714Y5836
X33214Y5836
T10
X44394Y21108
X45394Y22108
X44394Y23108
X46394Y23108
X46394Y21108
T11
X32624Y4498
X31065Y4498
X23124Y4498
X21565Y4498
T12
X26244Y4748
X27944Y4748
X27944Y2898
X26244Y2898
X26244Y6598
X27944Y6598
T13
X27964Y9048
X26364Y9048
X24364Y9048
X29964Y9048
T14
X3344Y3248
X3344Y41248
X50344Y41248
X50344Y3248
M30
