%TF.GenerationSoftware,KiCad,Pcbnew,10.0.6-10.0.6~ubuntu24.04.1*%
%TF.CreationDate,2026-10-04T15:28:06-04:00*%
%TF.ProjectId,ControlBoard2027,436f6e74-726f-46c4-926f-617264323032,rev?*%
%TF.SameCoordinates,Original*%
%TF.FileFunction,Legend,Bot*%
%TF.FilePolarity,Positive*%
%FSLAX46Y46*%
G04 Gerber Fmt 4.6, Leading zero omitted, Abs format (unit mm)*
G04 Created by KiCad (PCBNEW 10.0.6-10.0.6~ubuntu24.04.1) date 2026-10-04 15:28:06*
%MOMM*%
%LPD*%
G01*
G04 APERTURE LIST*
G04 Aperture macros list*
%AMRoundRect*
0 Rectangle with rounded corners*
0 $1 Rounding radius*
0 $2 $3 $4 $5 $6 $7 $8 $9 X,Y pos of 4 corners*
0 Add a 4 corners polygon primitive as box body*
4,1,4,$2,$3,$4,$5,$6,$7,$8,$9,$2,$3,0*
0 Add four circle primitives for the rounded corners*
1,1,$1+$1,$2,$3*
1,1,$1+$1,$4,$5*
1,1,$1+$1,$6,$7*
1,1,$1+$1,$8,$9*
0 Add four rect primitives between the rounded corners*
20,1,$1+$1,$2,$3,$4,$5,0*
20,1,$1+$1,$4,$5,$6,$7,0*
20,1,$1+$1,$6,$7,$8,$9,0*
20,1,$1+$1,$8,$9,$2,$3,0*%
G04 Aperture macros list end*
%ADD10C,0.150000*%
%ADD11C,0.120000*%
%ADD12RoundRect,0.050000X0.850000X-0.850000X0.850000X0.850000X-0.850000X0.850000X-0.850000X-0.850000X0*%
%ADD13C,1.800000*%
%ADD14RoundRect,0.300000X-0.350000X-0.625000X0.350000X-0.625000X0.350000X0.625000X-0.350000X0.625000X0*%
%ADD15O,1.300000X1.850000*%
%ADD16C,3.300000*%
%ADD17RoundRect,0.050000X1.125000X1.125000X-1.125000X1.125000X-1.125000X-1.125000X1.125000X-1.125000X0*%
%ADD18C,2.350000*%
%ADD19RoundRect,0.050000X-0.850000X-0.850000X0.850000X-0.850000X0.850000X0.850000X-0.850000X0.850000X0*%
%ADD20RoundRect,0.050000X0.850000X0.850000X-0.850000X0.850000X-0.850000X-0.850000X0.850000X-0.850000X0*%
%ADD21RoundRect,0.050000X0.889000X-0.889000X0.889000X0.889000X-0.889000X0.889000X-0.889000X-0.889000X0*%
%ADD22C,1.878000*%
%ADD23RoundRect,0.300000X-0.550000X0.550000X-0.550000X-0.550000X0.550000X-0.550000X0.550000X0.550000X0*%
%ADD24C,1.700000*%
%ADD25C,0.750000*%
%ADD26RoundRect,0.300000X0.600000X0.725000X-0.600000X0.725000X-0.600000X-0.725000X0.600000X-0.725000X0*%
%ADD27O,1.800000X2.050000*%
%ADD28RoundRect,0.275000X0.225000X0.250000X-0.225000X0.250000X-0.225000X-0.250000X0.225000X-0.250000X0*%
%ADD29RoundRect,0.275000X-0.225000X-0.250000X0.225000X-0.250000X0.225000X0.250000X-0.225000X0.250000X0*%
%ADD30RoundRect,0.185000X0.135000X0.185000X-0.135000X0.185000X-0.135000X-0.185000X0.135000X-0.185000X0*%
%ADD31RoundRect,0.185000X-0.135000X-0.185000X0.135000X-0.185000X0.135000X0.185000X-0.135000X0.185000X0*%
%ADD32RoundRect,0.190000X0.170000X-0.140000X0.170000X0.140000X-0.170000X0.140000X-0.170000X-0.140000X0*%
%ADD33RoundRect,0.190000X-0.140000X-0.170000X0.140000X-0.170000X0.140000X0.170000X-0.140000X0.170000X0*%
%ADD34RoundRect,0.190000X-0.170000X0.140000X-0.170000X-0.140000X0.170000X-0.140000X0.170000X0.140000X0*%
%ADD35RoundRect,0.275000X0.250000X-0.225000X0.250000X0.225000X-0.250000X0.225000X-0.250000X-0.225000X0*%
%ADD36RoundRect,0.190000X0.140000X0.170000X-0.140000X0.170000X-0.140000X-0.170000X0.140000X-0.170000X0*%
%ADD37RoundRect,0.423333X-0.466667X-1.101667X0.466667X-1.101667X0.466667X1.101667X-0.466667X1.101667X0*%
G04 APERTURE END LIST*
D10*
X75914285Y-76386104D02*
X75952381Y-76424200D01*
X75952381Y-76424200D02*
X76066666Y-76462295D01*
X76066666Y-76462295D02*
X76142857Y-76462295D01*
X76142857Y-76462295D02*
X76257143Y-76424200D01*
X76257143Y-76424200D02*
X76333333Y-76348009D01*
X76333333Y-76348009D02*
X76371428Y-76271819D01*
X76371428Y-76271819D02*
X76409524Y-76119438D01*
X76409524Y-76119438D02*
X76409524Y-76005152D01*
X76409524Y-76005152D02*
X76371428Y-75852771D01*
X76371428Y-75852771D02*
X76333333Y-75776580D01*
X76333333Y-75776580D02*
X76257143Y-75700390D01*
X76257143Y-75700390D02*
X76142857Y-75662295D01*
X76142857Y-75662295D02*
X76066666Y-75662295D01*
X76066666Y-75662295D02*
X75952381Y-75700390D01*
X75952381Y-75700390D02*
X75914285Y-75738485D01*
X75609524Y-75738485D02*
X75571428Y-75700390D01*
X75571428Y-75700390D02*
X75495238Y-75662295D01*
X75495238Y-75662295D02*
X75304762Y-75662295D01*
X75304762Y-75662295D02*
X75228571Y-75700390D01*
X75228571Y-75700390D02*
X75190476Y-75738485D01*
X75190476Y-75738485D02*
X75152381Y-75814676D01*
X75152381Y-75814676D02*
X75152381Y-75890866D01*
X75152381Y-75890866D02*
X75190476Y-76005152D01*
X75190476Y-76005152D02*
X75647619Y-76462295D01*
X75647619Y-76462295D02*
X75152381Y-76462295D01*
X74885714Y-75662295D02*
X74390476Y-75662295D01*
X74390476Y-75662295D02*
X74657142Y-75967057D01*
X74657142Y-75967057D02*
X74542857Y-75967057D01*
X74542857Y-75967057D02*
X74466666Y-76005152D01*
X74466666Y-76005152D02*
X74428571Y-76043247D01*
X74428571Y-76043247D02*
X74390476Y-76119438D01*
X74390476Y-76119438D02*
X74390476Y-76309914D01*
X74390476Y-76309914D02*
X74428571Y-76386104D01*
X74428571Y-76386104D02*
X74466666Y-76424200D01*
X74466666Y-76424200D02*
X74542857Y-76462295D01*
X74542857Y-76462295D02*
X74771428Y-76462295D01*
X74771428Y-76462295D02*
X74847619Y-76424200D01*
X74847619Y-76424200D02*
X74885714Y-76386104D01*
X57914285Y-61286104D02*
X57952381Y-61324200D01*
X57952381Y-61324200D02*
X58066666Y-61362295D01*
X58066666Y-61362295D02*
X58142857Y-61362295D01*
X58142857Y-61362295D02*
X58257143Y-61324200D01*
X58257143Y-61324200D02*
X58333333Y-61248009D01*
X58333333Y-61248009D02*
X58371428Y-61171819D01*
X58371428Y-61171819D02*
X58409524Y-61019438D01*
X58409524Y-61019438D02*
X58409524Y-60905152D01*
X58409524Y-60905152D02*
X58371428Y-60752771D01*
X58371428Y-60752771D02*
X58333333Y-60676580D01*
X58333333Y-60676580D02*
X58257143Y-60600390D01*
X58257143Y-60600390D02*
X58142857Y-60562295D01*
X58142857Y-60562295D02*
X58066666Y-60562295D01*
X58066666Y-60562295D02*
X57952381Y-60600390D01*
X57952381Y-60600390D02*
X57914285Y-60638485D01*
X57609524Y-60638485D02*
X57571428Y-60600390D01*
X57571428Y-60600390D02*
X57495238Y-60562295D01*
X57495238Y-60562295D02*
X57304762Y-60562295D01*
X57304762Y-60562295D02*
X57228571Y-60600390D01*
X57228571Y-60600390D02*
X57190476Y-60638485D01*
X57190476Y-60638485D02*
X57152381Y-60714676D01*
X57152381Y-60714676D02*
X57152381Y-60790866D01*
X57152381Y-60790866D02*
X57190476Y-60905152D01*
X57190476Y-60905152D02*
X57647619Y-61362295D01*
X57647619Y-61362295D02*
X57152381Y-61362295D01*
X56466666Y-60828961D02*
X56466666Y-61362295D01*
X56657142Y-60524200D02*
X56847619Y-61095628D01*
X56847619Y-61095628D02*
X56352380Y-61095628D01*
X54514285Y-56686104D02*
X54552381Y-56724200D01*
X54552381Y-56724200D02*
X54666666Y-56762295D01*
X54666666Y-56762295D02*
X54742857Y-56762295D01*
X54742857Y-56762295D02*
X54857143Y-56724200D01*
X54857143Y-56724200D02*
X54933333Y-56648009D01*
X54933333Y-56648009D02*
X54971428Y-56571819D01*
X54971428Y-56571819D02*
X55009524Y-56419438D01*
X55009524Y-56419438D02*
X55009524Y-56305152D01*
X55009524Y-56305152D02*
X54971428Y-56152771D01*
X54971428Y-56152771D02*
X54933333Y-56076580D01*
X54933333Y-56076580D02*
X54857143Y-56000390D01*
X54857143Y-56000390D02*
X54742857Y-55962295D01*
X54742857Y-55962295D02*
X54666666Y-55962295D01*
X54666666Y-55962295D02*
X54552381Y-56000390D01*
X54552381Y-56000390D02*
X54514285Y-56038485D01*
X54209524Y-56038485D02*
X54171428Y-56000390D01*
X54171428Y-56000390D02*
X54095238Y-55962295D01*
X54095238Y-55962295D02*
X53904762Y-55962295D01*
X53904762Y-55962295D02*
X53828571Y-56000390D01*
X53828571Y-56000390D02*
X53790476Y-56038485D01*
X53790476Y-56038485D02*
X53752381Y-56114676D01*
X53752381Y-56114676D02*
X53752381Y-56190866D01*
X53752381Y-56190866D02*
X53790476Y-56305152D01*
X53790476Y-56305152D02*
X54247619Y-56762295D01*
X54247619Y-56762295D02*
X53752381Y-56762295D01*
X53066666Y-55962295D02*
X53219047Y-55962295D01*
X53219047Y-55962295D02*
X53295238Y-56000390D01*
X53295238Y-56000390D02*
X53333333Y-56038485D01*
X53333333Y-56038485D02*
X53409523Y-56152771D01*
X53409523Y-56152771D02*
X53447619Y-56305152D01*
X53447619Y-56305152D02*
X53447619Y-56609914D01*
X53447619Y-56609914D02*
X53409523Y-56686104D01*
X53409523Y-56686104D02*
X53371428Y-56724200D01*
X53371428Y-56724200D02*
X53295238Y-56762295D01*
X53295238Y-56762295D02*
X53142857Y-56762295D01*
X53142857Y-56762295D02*
X53066666Y-56724200D01*
X53066666Y-56724200D02*
X53028571Y-56686104D01*
X53028571Y-56686104D02*
X52990476Y-56609914D01*
X52990476Y-56609914D02*
X52990476Y-56419438D01*
X52990476Y-56419438D02*
X53028571Y-56343247D01*
X53028571Y-56343247D02*
X53066666Y-56305152D01*
X53066666Y-56305152D02*
X53142857Y-56267057D01*
X53142857Y-56267057D02*
X53295238Y-56267057D01*
X53295238Y-56267057D02*
X53371428Y-56305152D01*
X53371428Y-56305152D02*
X53409523Y-56343247D01*
X53409523Y-56343247D02*
X53447619Y-56419438D01*
X78714285Y-63922295D02*
X78980952Y-63541342D01*
X79171428Y-63922295D02*
X79171428Y-63122295D01*
X79171428Y-63122295D02*
X78866666Y-63122295D01*
X78866666Y-63122295D02*
X78790476Y-63160390D01*
X78790476Y-63160390D02*
X78752381Y-63198485D01*
X78752381Y-63198485D02*
X78714285Y-63274676D01*
X78714285Y-63274676D02*
X78714285Y-63388961D01*
X78714285Y-63388961D02*
X78752381Y-63465152D01*
X78752381Y-63465152D02*
X78790476Y-63503247D01*
X78790476Y-63503247D02*
X78866666Y-63541342D01*
X78866666Y-63541342D02*
X79171428Y-63541342D01*
X77952381Y-63922295D02*
X78409524Y-63922295D01*
X78180952Y-63922295D02*
X78180952Y-63122295D01*
X78180952Y-63122295D02*
X78257143Y-63236580D01*
X78257143Y-63236580D02*
X78333333Y-63312771D01*
X78333333Y-63312771D02*
X78409524Y-63350866D01*
X77190476Y-63922295D02*
X77647619Y-63922295D01*
X77419047Y-63922295D02*
X77419047Y-63122295D01*
X77419047Y-63122295D02*
X77495238Y-63236580D01*
X77495238Y-63236580D02*
X77571428Y-63312771D01*
X77571428Y-63312771D02*
X77647619Y-63350866D01*
X84214285Y-75922295D02*
X84480952Y-75541342D01*
X84671428Y-75922295D02*
X84671428Y-75122295D01*
X84671428Y-75122295D02*
X84366666Y-75122295D01*
X84366666Y-75122295D02*
X84290476Y-75160390D01*
X84290476Y-75160390D02*
X84252381Y-75198485D01*
X84252381Y-75198485D02*
X84214285Y-75274676D01*
X84214285Y-75274676D02*
X84214285Y-75388961D01*
X84214285Y-75388961D02*
X84252381Y-75465152D01*
X84252381Y-75465152D02*
X84290476Y-75503247D01*
X84290476Y-75503247D02*
X84366666Y-75541342D01*
X84366666Y-75541342D02*
X84671428Y-75541342D01*
X83452381Y-75922295D02*
X83909524Y-75922295D01*
X83680952Y-75922295D02*
X83680952Y-75122295D01*
X83680952Y-75122295D02*
X83757143Y-75236580D01*
X83757143Y-75236580D02*
X83833333Y-75312771D01*
X83833333Y-75312771D02*
X83909524Y-75350866D01*
X83185714Y-75122295D02*
X82690476Y-75122295D01*
X82690476Y-75122295D02*
X82957142Y-75427057D01*
X82957142Y-75427057D02*
X82842857Y-75427057D01*
X82842857Y-75427057D02*
X82766666Y-75465152D01*
X82766666Y-75465152D02*
X82728571Y-75503247D01*
X82728571Y-75503247D02*
X82690476Y-75579438D01*
X82690476Y-75579438D02*
X82690476Y-75769914D01*
X82690476Y-75769914D02*
X82728571Y-75846104D01*
X82728571Y-75846104D02*
X82766666Y-75884200D01*
X82766666Y-75884200D02*
X82842857Y-75922295D01*
X82842857Y-75922295D02*
X83071428Y-75922295D01*
X83071428Y-75922295D02*
X83147619Y-75884200D01*
X83147619Y-75884200D02*
X83185714Y-75846104D01*
X66056103Y-76297714D02*
X66094199Y-76259618D01*
X66094199Y-76259618D02*
X66132294Y-76145333D01*
X66132294Y-76145333D02*
X66132294Y-76069142D01*
X66132294Y-76069142D02*
X66094199Y-75954856D01*
X66094199Y-75954856D02*
X66018008Y-75878666D01*
X66018008Y-75878666D02*
X65941818Y-75840571D01*
X65941818Y-75840571D02*
X65789437Y-75802475D01*
X65789437Y-75802475D02*
X65675151Y-75802475D01*
X65675151Y-75802475D02*
X65522770Y-75840571D01*
X65522770Y-75840571D02*
X65446579Y-75878666D01*
X65446579Y-75878666D02*
X65370389Y-75954856D01*
X65370389Y-75954856D02*
X65332294Y-76069142D01*
X65332294Y-76069142D02*
X65332294Y-76145333D01*
X65332294Y-76145333D02*
X65370389Y-76259618D01*
X65370389Y-76259618D02*
X65408484Y-76297714D01*
X66132294Y-77059618D02*
X66132294Y-76602475D01*
X66132294Y-76831047D02*
X65332294Y-76831047D01*
X65332294Y-76831047D02*
X65446579Y-76754856D01*
X65446579Y-76754856D02*
X65522770Y-76678666D01*
X65522770Y-76678666D02*
X65560865Y-76602475D01*
X65332294Y-77783428D02*
X65332294Y-77402476D01*
X65332294Y-77402476D02*
X65713246Y-77364380D01*
X65713246Y-77364380D02*
X65675151Y-77402476D01*
X65675151Y-77402476D02*
X65637056Y-77478666D01*
X65637056Y-77478666D02*
X65637056Y-77669142D01*
X65637056Y-77669142D02*
X65675151Y-77745333D01*
X65675151Y-77745333D02*
X65713246Y-77783428D01*
X65713246Y-77783428D02*
X65789437Y-77821523D01*
X65789437Y-77821523D02*
X65979913Y-77821523D01*
X65979913Y-77821523D02*
X66056103Y-77783428D01*
X66056103Y-77783428D02*
X66094199Y-77745333D01*
X66094199Y-77745333D02*
X66132294Y-77669142D01*
X66132294Y-77669142D02*
X66132294Y-77478666D01*
X66132294Y-77478666D02*
X66094199Y-77402476D01*
X66094199Y-77402476D02*
X66056103Y-77364380D01*
X103356104Y-66966666D02*
X103394200Y-66928570D01*
X103394200Y-66928570D02*
X103432295Y-66814285D01*
X103432295Y-66814285D02*
X103432295Y-66738094D01*
X103432295Y-66738094D02*
X103394200Y-66623808D01*
X103394200Y-66623808D02*
X103318009Y-66547618D01*
X103318009Y-66547618D02*
X103241819Y-66509523D01*
X103241819Y-66509523D02*
X103089438Y-66471427D01*
X103089438Y-66471427D02*
X102975152Y-66471427D01*
X102975152Y-66471427D02*
X102822771Y-66509523D01*
X102822771Y-66509523D02*
X102746580Y-66547618D01*
X102746580Y-66547618D02*
X102670390Y-66623808D01*
X102670390Y-66623808D02*
X102632295Y-66738094D01*
X102632295Y-66738094D02*
X102632295Y-66814285D01*
X102632295Y-66814285D02*
X102670390Y-66928570D01*
X102670390Y-66928570D02*
X102708485Y-66966666D01*
X102708485Y-67271427D02*
X102670390Y-67309523D01*
X102670390Y-67309523D02*
X102632295Y-67385713D01*
X102632295Y-67385713D02*
X102632295Y-67576189D01*
X102632295Y-67576189D02*
X102670390Y-67652380D01*
X102670390Y-67652380D02*
X102708485Y-67690475D01*
X102708485Y-67690475D02*
X102784676Y-67728570D01*
X102784676Y-67728570D02*
X102860866Y-67728570D01*
X102860866Y-67728570D02*
X102975152Y-67690475D01*
X102975152Y-67690475D02*
X103432295Y-67233332D01*
X103432295Y-67233332D02*
X103432295Y-67728570D01*
X63701285Y-80516104D02*
X63739381Y-80554200D01*
X63739381Y-80554200D02*
X63853666Y-80592295D01*
X63853666Y-80592295D02*
X63929857Y-80592295D01*
X63929857Y-80592295D02*
X64044143Y-80554200D01*
X64044143Y-80554200D02*
X64120333Y-80478009D01*
X64120333Y-80478009D02*
X64158428Y-80401819D01*
X64158428Y-80401819D02*
X64196524Y-80249438D01*
X64196524Y-80249438D02*
X64196524Y-80135152D01*
X64196524Y-80135152D02*
X64158428Y-79982771D01*
X64158428Y-79982771D02*
X64120333Y-79906580D01*
X64120333Y-79906580D02*
X64044143Y-79830390D01*
X64044143Y-79830390D02*
X63929857Y-79792295D01*
X63929857Y-79792295D02*
X63853666Y-79792295D01*
X63853666Y-79792295D02*
X63739381Y-79830390D01*
X63739381Y-79830390D02*
X63701285Y-79868485D01*
X62939381Y-80592295D02*
X63396524Y-80592295D01*
X63167952Y-80592295D02*
X63167952Y-79792295D01*
X63167952Y-79792295D02*
X63244143Y-79906580D01*
X63244143Y-79906580D02*
X63320333Y-79982771D01*
X63320333Y-79982771D02*
X63396524Y-80020866D01*
X62253666Y-80058961D02*
X62253666Y-80592295D01*
X62444142Y-79754200D02*
X62634619Y-80325628D01*
X62634619Y-80325628D02*
X62139380Y-80325628D01*
X69556104Y-63053667D02*
X69594200Y-63015571D01*
X69594200Y-63015571D02*
X69632295Y-62901286D01*
X69632295Y-62901286D02*
X69632295Y-62825095D01*
X69632295Y-62825095D02*
X69594200Y-62710809D01*
X69594200Y-62710809D02*
X69518009Y-62634619D01*
X69518009Y-62634619D02*
X69441819Y-62596524D01*
X69441819Y-62596524D02*
X69289438Y-62558428D01*
X69289438Y-62558428D02*
X69175152Y-62558428D01*
X69175152Y-62558428D02*
X69022771Y-62596524D01*
X69022771Y-62596524D02*
X68946580Y-62634619D01*
X68946580Y-62634619D02*
X68870390Y-62710809D01*
X68870390Y-62710809D02*
X68832295Y-62825095D01*
X68832295Y-62825095D02*
X68832295Y-62901286D01*
X68832295Y-62901286D02*
X68870390Y-63015571D01*
X68870390Y-63015571D02*
X68908485Y-63053667D01*
X69098961Y-63739381D02*
X69632295Y-63739381D01*
X68794200Y-63548905D02*
X69365628Y-63358428D01*
X69365628Y-63358428D02*
X69365628Y-63853667D01*
X66256104Y-64685714D02*
X66294200Y-64647618D01*
X66294200Y-64647618D02*
X66332295Y-64533333D01*
X66332295Y-64533333D02*
X66332295Y-64457142D01*
X66332295Y-64457142D02*
X66294200Y-64342856D01*
X66294200Y-64342856D02*
X66218009Y-64266666D01*
X66218009Y-64266666D02*
X66141819Y-64228571D01*
X66141819Y-64228571D02*
X65989438Y-64190475D01*
X65989438Y-64190475D02*
X65875152Y-64190475D01*
X65875152Y-64190475D02*
X65722771Y-64228571D01*
X65722771Y-64228571D02*
X65646580Y-64266666D01*
X65646580Y-64266666D02*
X65570390Y-64342856D01*
X65570390Y-64342856D02*
X65532295Y-64457142D01*
X65532295Y-64457142D02*
X65532295Y-64533333D01*
X65532295Y-64533333D02*
X65570390Y-64647618D01*
X65570390Y-64647618D02*
X65608485Y-64685714D01*
X65608485Y-64990475D02*
X65570390Y-65028571D01*
X65570390Y-65028571D02*
X65532295Y-65104761D01*
X65532295Y-65104761D02*
X65532295Y-65295237D01*
X65532295Y-65295237D02*
X65570390Y-65371428D01*
X65570390Y-65371428D02*
X65608485Y-65409523D01*
X65608485Y-65409523D02*
X65684676Y-65447618D01*
X65684676Y-65447618D02*
X65760866Y-65447618D01*
X65760866Y-65447618D02*
X65875152Y-65409523D01*
X65875152Y-65409523D02*
X66332295Y-64952380D01*
X66332295Y-64952380D02*
X66332295Y-65447618D01*
X65532295Y-65942857D02*
X65532295Y-66019047D01*
X65532295Y-66019047D02*
X65570390Y-66095238D01*
X65570390Y-66095238D02*
X65608485Y-66133333D01*
X65608485Y-66133333D02*
X65684676Y-66171428D01*
X65684676Y-66171428D02*
X65837057Y-66209523D01*
X65837057Y-66209523D02*
X66027533Y-66209523D01*
X66027533Y-66209523D02*
X66179914Y-66171428D01*
X66179914Y-66171428D02*
X66256104Y-66133333D01*
X66256104Y-66133333D02*
X66294200Y-66095238D01*
X66294200Y-66095238D02*
X66332295Y-66019047D01*
X66332295Y-66019047D02*
X66332295Y-65942857D01*
X66332295Y-65942857D02*
X66294200Y-65866666D01*
X66294200Y-65866666D02*
X66256104Y-65828571D01*
X66256104Y-65828571D02*
X66179914Y-65790476D01*
X66179914Y-65790476D02*
X66027533Y-65752380D01*
X66027533Y-65752380D02*
X65837057Y-65752380D01*
X65837057Y-65752380D02*
X65684676Y-65790476D01*
X65684676Y-65790476D02*
X65608485Y-65828571D01*
X65608485Y-65828571D02*
X65570390Y-65866666D01*
X65570390Y-65866666D02*
X65532295Y-65942857D01*
X81386104Y-71866667D02*
X81424200Y-71828571D01*
X81424200Y-71828571D02*
X81462295Y-71714286D01*
X81462295Y-71714286D02*
X81462295Y-71638095D01*
X81462295Y-71638095D02*
X81424200Y-71523809D01*
X81424200Y-71523809D02*
X81348009Y-71447619D01*
X81348009Y-71447619D02*
X81271819Y-71409524D01*
X81271819Y-71409524D02*
X81119438Y-71371428D01*
X81119438Y-71371428D02*
X81005152Y-71371428D01*
X81005152Y-71371428D02*
X80852771Y-71409524D01*
X80852771Y-71409524D02*
X80776580Y-71447619D01*
X80776580Y-71447619D02*
X80700390Y-71523809D01*
X80700390Y-71523809D02*
X80662295Y-71638095D01*
X80662295Y-71638095D02*
X80662295Y-71714286D01*
X80662295Y-71714286D02*
X80700390Y-71828571D01*
X80700390Y-71828571D02*
X80738485Y-71866667D01*
X80662295Y-72590476D02*
X80662295Y-72209524D01*
X80662295Y-72209524D02*
X81043247Y-72171428D01*
X81043247Y-72171428D02*
X81005152Y-72209524D01*
X81005152Y-72209524D02*
X80967057Y-72285714D01*
X80967057Y-72285714D02*
X80967057Y-72476190D01*
X80967057Y-72476190D02*
X81005152Y-72552381D01*
X81005152Y-72552381D02*
X81043247Y-72590476D01*
X81043247Y-72590476D02*
X81119438Y-72628571D01*
X81119438Y-72628571D02*
X81309914Y-72628571D01*
X81309914Y-72628571D02*
X81386104Y-72590476D01*
X81386104Y-72590476D02*
X81424200Y-72552381D01*
X81424200Y-72552381D02*
X81462295Y-72476190D01*
X81462295Y-72476190D02*
X81462295Y-72285714D01*
X81462295Y-72285714D02*
X81424200Y-72209524D01*
X81424200Y-72209524D02*
X81386104Y-72171428D01*
X59986104Y-83266667D02*
X60024200Y-83228571D01*
X60024200Y-83228571D02*
X60062295Y-83114286D01*
X60062295Y-83114286D02*
X60062295Y-83038095D01*
X60062295Y-83038095D02*
X60024200Y-82923809D01*
X60024200Y-82923809D02*
X59948009Y-82847619D01*
X59948009Y-82847619D02*
X59871819Y-82809524D01*
X59871819Y-82809524D02*
X59719438Y-82771428D01*
X59719438Y-82771428D02*
X59605152Y-82771428D01*
X59605152Y-82771428D02*
X59452771Y-82809524D01*
X59452771Y-82809524D02*
X59376580Y-82847619D01*
X59376580Y-82847619D02*
X59300390Y-82923809D01*
X59300390Y-82923809D02*
X59262295Y-83038095D01*
X59262295Y-83038095D02*
X59262295Y-83114286D01*
X59262295Y-83114286D02*
X59300390Y-83228571D01*
X59300390Y-83228571D02*
X59338485Y-83266667D01*
X59262295Y-83533333D02*
X59262295Y-84066667D01*
X59262295Y-84066667D02*
X60062295Y-83723809D01*
X61186104Y-75485714D02*
X61224200Y-75447618D01*
X61224200Y-75447618D02*
X61262295Y-75333333D01*
X61262295Y-75333333D02*
X61262295Y-75257142D01*
X61262295Y-75257142D02*
X61224200Y-75142856D01*
X61224200Y-75142856D02*
X61148009Y-75066666D01*
X61148009Y-75066666D02*
X61071819Y-75028571D01*
X61071819Y-75028571D02*
X60919438Y-74990475D01*
X60919438Y-74990475D02*
X60805152Y-74990475D01*
X60805152Y-74990475D02*
X60652771Y-75028571D01*
X60652771Y-75028571D02*
X60576580Y-75066666D01*
X60576580Y-75066666D02*
X60500390Y-75142856D01*
X60500390Y-75142856D02*
X60462295Y-75257142D01*
X60462295Y-75257142D02*
X60462295Y-75333333D01*
X60462295Y-75333333D02*
X60500390Y-75447618D01*
X60500390Y-75447618D02*
X60538485Y-75485714D01*
X60538485Y-75790475D02*
X60500390Y-75828571D01*
X60500390Y-75828571D02*
X60462295Y-75904761D01*
X60462295Y-75904761D02*
X60462295Y-76095237D01*
X60462295Y-76095237D02*
X60500390Y-76171428D01*
X60500390Y-76171428D02*
X60538485Y-76209523D01*
X60538485Y-76209523D02*
X60614676Y-76247618D01*
X60614676Y-76247618D02*
X60690866Y-76247618D01*
X60690866Y-76247618D02*
X60805152Y-76209523D01*
X60805152Y-76209523D02*
X61262295Y-75752380D01*
X61262295Y-75752380D02*
X61262295Y-76247618D01*
X60538485Y-76552380D02*
X60500390Y-76590476D01*
X60500390Y-76590476D02*
X60462295Y-76666666D01*
X60462295Y-76666666D02*
X60462295Y-76857142D01*
X60462295Y-76857142D02*
X60500390Y-76933333D01*
X60500390Y-76933333D02*
X60538485Y-76971428D01*
X60538485Y-76971428D02*
X60614676Y-77009523D01*
X60614676Y-77009523D02*
X60690866Y-77009523D01*
X60690866Y-77009523D02*
X60805152Y-76971428D01*
X60805152Y-76971428D02*
X61262295Y-76514285D01*
X61262295Y-76514285D02*
X61262295Y-77009523D01*
X77326285Y-66556103D02*
X77364381Y-66594199D01*
X77364381Y-66594199D02*
X77478666Y-66632294D01*
X77478666Y-66632294D02*
X77554857Y-66632294D01*
X77554857Y-66632294D02*
X77669143Y-66594199D01*
X77669143Y-66594199D02*
X77745333Y-66518008D01*
X77745333Y-66518008D02*
X77783428Y-66441818D01*
X77783428Y-66441818D02*
X77821524Y-66289437D01*
X77821524Y-66289437D02*
X77821524Y-66175151D01*
X77821524Y-66175151D02*
X77783428Y-66022770D01*
X77783428Y-66022770D02*
X77745333Y-65946579D01*
X77745333Y-65946579D02*
X77669143Y-65870389D01*
X77669143Y-65870389D02*
X77554857Y-65832294D01*
X77554857Y-65832294D02*
X77478666Y-65832294D01*
X77478666Y-65832294D02*
X77364381Y-65870389D01*
X77364381Y-65870389D02*
X77326285Y-65908484D01*
X77021524Y-65908484D02*
X76983428Y-65870389D01*
X76983428Y-65870389D02*
X76907238Y-65832294D01*
X76907238Y-65832294D02*
X76716762Y-65832294D01*
X76716762Y-65832294D02*
X76640571Y-65870389D01*
X76640571Y-65870389D02*
X76602476Y-65908484D01*
X76602476Y-65908484D02*
X76564381Y-65984675D01*
X76564381Y-65984675D02*
X76564381Y-66060865D01*
X76564381Y-66060865D02*
X76602476Y-66175151D01*
X76602476Y-66175151D02*
X77059619Y-66632294D01*
X77059619Y-66632294D02*
X76564381Y-66632294D01*
X75840571Y-65832294D02*
X76221523Y-65832294D01*
X76221523Y-65832294D02*
X76259619Y-66213246D01*
X76259619Y-66213246D02*
X76221523Y-66175151D01*
X76221523Y-66175151D02*
X76145333Y-66137056D01*
X76145333Y-66137056D02*
X75954857Y-66137056D01*
X75954857Y-66137056D02*
X75878666Y-66175151D01*
X75878666Y-66175151D02*
X75840571Y-66213246D01*
X75840571Y-66213246D02*
X75802476Y-66289437D01*
X75802476Y-66289437D02*
X75802476Y-66479913D01*
X75802476Y-66479913D02*
X75840571Y-66556103D01*
X75840571Y-66556103D02*
X75878666Y-66594199D01*
X75878666Y-66594199D02*
X75954857Y-66632294D01*
X75954857Y-66632294D02*
X76145333Y-66632294D01*
X76145333Y-66632294D02*
X76221523Y-66594199D01*
X76221523Y-66594199D02*
X76259619Y-66556103D01*
X71556104Y-76297714D02*
X71594200Y-76259618D01*
X71594200Y-76259618D02*
X71632295Y-76145333D01*
X71632295Y-76145333D02*
X71632295Y-76069142D01*
X71632295Y-76069142D02*
X71594200Y-75954856D01*
X71594200Y-75954856D02*
X71518009Y-75878666D01*
X71518009Y-75878666D02*
X71441819Y-75840571D01*
X71441819Y-75840571D02*
X71289438Y-75802475D01*
X71289438Y-75802475D02*
X71175152Y-75802475D01*
X71175152Y-75802475D02*
X71022771Y-75840571D01*
X71022771Y-75840571D02*
X70946580Y-75878666D01*
X70946580Y-75878666D02*
X70870390Y-75954856D01*
X70870390Y-75954856D02*
X70832295Y-76069142D01*
X70832295Y-76069142D02*
X70832295Y-76145333D01*
X70832295Y-76145333D02*
X70870390Y-76259618D01*
X70870390Y-76259618D02*
X70908485Y-76297714D01*
X71632295Y-77059618D02*
X71632295Y-76602475D01*
X71632295Y-76831047D02*
X70832295Y-76831047D01*
X70832295Y-76831047D02*
X70946580Y-76754856D01*
X70946580Y-76754856D02*
X71022771Y-76678666D01*
X71022771Y-76678666D02*
X71060866Y-76602475D01*
X70832295Y-77745333D02*
X70832295Y-77592952D01*
X70832295Y-77592952D02*
X70870390Y-77516761D01*
X70870390Y-77516761D02*
X70908485Y-77478666D01*
X70908485Y-77478666D02*
X71022771Y-77402476D01*
X71022771Y-77402476D02*
X71175152Y-77364380D01*
X71175152Y-77364380D02*
X71479914Y-77364380D01*
X71479914Y-77364380D02*
X71556104Y-77402476D01*
X71556104Y-77402476D02*
X71594200Y-77440571D01*
X71594200Y-77440571D02*
X71632295Y-77516761D01*
X71632295Y-77516761D02*
X71632295Y-77669142D01*
X71632295Y-77669142D02*
X71594200Y-77745333D01*
X71594200Y-77745333D02*
X71556104Y-77783428D01*
X71556104Y-77783428D02*
X71479914Y-77821523D01*
X71479914Y-77821523D02*
X71289438Y-77821523D01*
X71289438Y-77821523D02*
X71213247Y-77783428D01*
X71213247Y-77783428D02*
X71175152Y-77745333D01*
X71175152Y-77745333D02*
X71137057Y-77669142D01*
X71137057Y-77669142D02*
X71137057Y-77516761D01*
X71137057Y-77516761D02*
X71175152Y-77440571D01*
X71175152Y-77440571D02*
X71213247Y-77402476D01*
X71213247Y-77402476D02*
X71289438Y-77364380D01*
X78114285Y-60306104D02*
X78152381Y-60344200D01*
X78152381Y-60344200D02*
X78266666Y-60382295D01*
X78266666Y-60382295D02*
X78342857Y-60382295D01*
X78342857Y-60382295D02*
X78457143Y-60344200D01*
X78457143Y-60344200D02*
X78533333Y-60268009D01*
X78533333Y-60268009D02*
X78571428Y-60191819D01*
X78571428Y-60191819D02*
X78609524Y-60039438D01*
X78609524Y-60039438D02*
X78609524Y-59925152D01*
X78609524Y-59925152D02*
X78571428Y-59772771D01*
X78571428Y-59772771D02*
X78533333Y-59696580D01*
X78533333Y-59696580D02*
X78457143Y-59620390D01*
X78457143Y-59620390D02*
X78342857Y-59582295D01*
X78342857Y-59582295D02*
X78266666Y-59582295D01*
X78266666Y-59582295D02*
X78152381Y-59620390D01*
X78152381Y-59620390D02*
X78114285Y-59658485D01*
X77809524Y-59658485D02*
X77771428Y-59620390D01*
X77771428Y-59620390D02*
X77695238Y-59582295D01*
X77695238Y-59582295D02*
X77504762Y-59582295D01*
X77504762Y-59582295D02*
X77428571Y-59620390D01*
X77428571Y-59620390D02*
X77390476Y-59658485D01*
X77390476Y-59658485D02*
X77352381Y-59734676D01*
X77352381Y-59734676D02*
X77352381Y-59810866D01*
X77352381Y-59810866D02*
X77390476Y-59925152D01*
X77390476Y-59925152D02*
X77847619Y-60382295D01*
X77847619Y-60382295D02*
X77352381Y-60382295D01*
X77085714Y-59582295D02*
X76552380Y-59582295D01*
X76552380Y-59582295D02*
X76895238Y-60382295D01*
X77326285Y-71556104D02*
X77364381Y-71594200D01*
X77364381Y-71594200D02*
X77478666Y-71632295D01*
X77478666Y-71632295D02*
X77554857Y-71632295D01*
X77554857Y-71632295D02*
X77669143Y-71594200D01*
X77669143Y-71594200D02*
X77745333Y-71518009D01*
X77745333Y-71518009D02*
X77783428Y-71441819D01*
X77783428Y-71441819D02*
X77821524Y-71289438D01*
X77821524Y-71289438D02*
X77821524Y-71175152D01*
X77821524Y-71175152D02*
X77783428Y-71022771D01*
X77783428Y-71022771D02*
X77745333Y-70946580D01*
X77745333Y-70946580D02*
X77669143Y-70870390D01*
X77669143Y-70870390D02*
X77554857Y-70832295D01*
X77554857Y-70832295D02*
X77478666Y-70832295D01*
X77478666Y-70832295D02*
X77364381Y-70870390D01*
X77364381Y-70870390D02*
X77326285Y-70908485D01*
X77021524Y-70908485D02*
X76983428Y-70870390D01*
X76983428Y-70870390D02*
X76907238Y-70832295D01*
X76907238Y-70832295D02*
X76716762Y-70832295D01*
X76716762Y-70832295D02*
X76640571Y-70870390D01*
X76640571Y-70870390D02*
X76602476Y-70908485D01*
X76602476Y-70908485D02*
X76564381Y-70984676D01*
X76564381Y-70984676D02*
X76564381Y-71060866D01*
X76564381Y-71060866D02*
X76602476Y-71175152D01*
X76602476Y-71175152D02*
X77059619Y-71632295D01*
X77059619Y-71632295D02*
X76564381Y-71632295D01*
X75802476Y-71632295D02*
X76259619Y-71632295D01*
X76031047Y-71632295D02*
X76031047Y-70832295D01*
X76031047Y-70832295D02*
X76107238Y-70946580D01*
X76107238Y-70946580D02*
X76183428Y-71022771D01*
X76183428Y-71022771D02*
X76259619Y-71060866D01*
X53266666Y-106023247D02*
X53533332Y-106023247D01*
X53533332Y-106442295D02*
X53533332Y-105642295D01*
X53533332Y-105642295D02*
X53152380Y-105642295D01*
X52923809Y-105642295D02*
X52428571Y-105642295D01*
X52428571Y-105642295D02*
X52695237Y-105947057D01*
X52695237Y-105947057D02*
X52580952Y-105947057D01*
X52580952Y-105947057D02*
X52504761Y-105985152D01*
X52504761Y-105985152D02*
X52466666Y-106023247D01*
X52466666Y-106023247D02*
X52428571Y-106099438D01*
X52428571Y-106099438D02*
X52428571Y-106289914D01*
X52428571Y-106289914D02*
X52466666Y-106366104D01*
X52466666Y-106366104D02*
X52504761Y-106404200D01*
X52504761Y-106404200D02*
X52580952Y-106442295D01*
X52580952Y-106442295D02*
X52809523Y-106442295D01*
X52809523Y-106442295D02*
X52885714Y-106404200D01*
X52885714Y-106404200D02*
X52923809Y-106366104D01*
X108486104Y-66966666D02*
X108524200Y-66928570D01*
X108524200Y-66928570D02*
X108562295Y-66814285D01*
X108562295Y-66814285D02*
X108562295Y-66738094D01*
X108562295Y-66738094D02*
X108524200Y-66623808D01*
X108524200Y-66623808D02*
X108448009Y-66547618D01*
X108448009Y-66547618D02*
X108371819Y-66509523D01*
X108371819Y-66509523D02*
X108219438Y-66471427D01*
X108219438Y-66471427D02*
X108105152Y-66471427D01*
X108105152Y-66471427D02*
X107952771Y-66509523D01*
X107952771Y-66509523D02*
X107876580Y-66547618D01*
X107876580Y-66547618D02*
X107800390Y-66623808D01*
X107800390Y-66623808D02*
X107762295Y-66738094D01*
X107762295Y-66738094D02*
X107762295Y-66814285D01*
X107762295Y-66814285D02*
X107800390Y-66928570D01*
X107800390Y-66928570D02*
X107838485Y-66966666D01*
X108562295Y-67728570D02*
X108562295Y-67271427D01*
X108562295Y-67499999D02*
X107762295Y-67499999D01*
X107762295Y-67499999D02*
X107876580Y-67423808D01*
X107876580Y-67423808D02*
X107952771Y-67347618D01*
X107952771Y-67347618D02*
X107990866Y-67271427D01*
X63701285Y-73056104D02*
X63739381Y-73094200D01*
X63739381Y-73094200D02*
X63853666Y-73132295D01*
X63853666Y-73132295D02*
X63929857Y-73132295D01*
X63929857Y-73132295D02*
X64044143Y-73094200D01*
X64044143Y-73094200D02*
X64120333Y-73018009D01*
X64120333Y-73018009D02*
X64158428Y-72941819D01*
X64158428Y-72941819D02*
X64196524Y-72789438D01*
X64196524Y-72789438D02*
X64196524Y-72675152D01*
X64196524Y-72675152D02*
X64158428Y-72522771D01*
X64158428Y-72522771D02*
X64120333Y-72446580D01*
X64120333Y-72446580D02*
X64044143Y-72370390D01*
X64044143Y-72370390D02*
X63929857Y-72332295D01*
X63929857Y-72332295D02*
X63853666Y-72332295D01*
X63853666Y-72332295D02*
X63739381Y-72370390D01*
X63739381Y-72370390D02*
X63701285Y-72408485D01*
X62939381Y-73132295D02*
X63396524Y-73132295D01*
X63167952Y-73132295D02*
X63167952Y-72332295D01*
X63167952Y-72332295D02*
X63244143Y-72446580D01*
X63244143Y-72446580D02*
X63320333Y-72522771D01*
X63320333Y-72522771D02*
X63396524Y-72560866D01*
X62672714Y-72332295D02*
X62177476Y-72332295D01*
X62177476Y-72332295D02*
X62444142Y-72637057D01*
X62444142Y-72637057D02*
X62329857Y-72637057D01*
X62329857Y-72637057D02*
X62253666Y-72675152D01*
X62253666Y-72675152D02*
X62215571Y-72713247D01*
X62215571Y-72713247D02*
X62177476Y-72789438D01*
X62177476Y-72789438D02*
X62177476Y-72979914D01*
X62177476Y-72979914D02*
X62215571Y-73056104D01*
X62215571Y-73056104D02*
X62253666Y-73094200D01*
X62253666Y-73094200D02*
X62329857Y-73132295D01*
X62329857Y-73132295D02*
X62558428Y-73132295D01*
X62558428Y-73132295D02*
X62634619Y-73094200D01*
X62634619Y-73094200D02*
X62672714Y-73056104D01*
X71914285Y-83786104D02*
X71952381Y-83824200D01*
X71952381Y-83824200D02*
X72066666Y-83862295D01*
X72066666Y-83862295D02*
X72142857Y-83862295D01*
X72142857Y-83862295D02*
X72257143Y-83824200D01*
X72257143Y-83824200D02*
X72333333Y-83748009D01*
X72333333Y-83748009D02*
X72371428Y-83671819D01*
X72371428Y-83671819D02*
X72409524Y-83519438D01*
X72409524Y-83519438D02*
X72409524Y-83405152D01*
X72409524Y-83405152D02*
X72371428Y-83252771D01*
X72371428Y-83252771D02*
X72333333Y-83176580D01*
X72333333Y-83176580D02*
X72257143Y-83100390D01*
X72257143Y-83100390D02*
X72142857Y-83062295D01*
X72142857Y-83062295D02*
X72066666Y-83062295D01*
X72066666Y-83062295D02*
X71952381Y-83100390D01*
X71952381Y-83100390D02*
X71914285Y-83138485D01*
X71152381Y-83862295D02*
X71609524Y-83862295D01*
X71380952Y-83862295D02*
X71380952Y-83062295D01*
X71380952Y-83062295D02*
X71457143Y-83176580D01*
X71457143Y-83176580D02*
X71533333Y-83252771D01*
X71533333Y-83252771D02*
X71609524Y-83290866D01*
X70390476Y-83862295D02*
X70847619Y-83862295D01*
X70619047Y-83862295D02*
X70619047Y-83062295D01*
X70619047Y-83062295D02*
X70695238Y-83176580D01*
X70695238Y-83176580D02*
X70771428Y-83252771D01*
X70771428Y-83252771D02*
X70847619Y-83290866D01*
X78056104Y-83985714D02*
X78094200Y-83947618D01*
X78094200Y-83947618D02*
X78132295Y-83833333D01*
X78132295Y-83833333D02*
X78132295Y-83757142D01*
X78132295Y-83757142D02*
X78094200Y-83642856D01*
X78094200Y-83642856D02*
X78018009Y-83566666D01*
X78018009Y-83566666D02*
X77941819Y-83528571D01*
X77941819Y-83528571D02*
X77789438Y-83490475D01*
X77789438Y-83490475D02*
X77675152Y-83490475D01*
X77675152Y-83490475D02*
X77522771Y-83528571D01*
X77522771Y-83528571D02*
X77446580Y-83566666D01*
X77446580Y-83566666D02*
X77370390Y-83642856D01*
X77370390Y-83642856D02*
X77332295Y-83757142D01*
X77332295Y-83757142D02*
X77332295Y-83833333D01*
X77332295Y-83833333D02*
X77370390Y-83947618D01*
X77370390Y-83947618D02*
X77408485Y-83985714D01*
X78132295Y-84747618D02*
X78132295Y-84290475D01*
X78132295Y-84519047D02*
X77332295Y-84519047D01*
X77332295Y-84519047D02*
X77446580Y-84442856D01*
X77446580Y-84442856D02*
X77522771Y-84366666D01*
X77522771Y-84366666D02*
X77560866Y-84290475D01*
X77332295Y-85014285D02*
X77332295Y-85547619D01*
X77332295Y-85547619D02*
X78132295Y-85204761D01*
X63701285Y-68056104D02*
X63739381Y-68094200D01*
X63739381Y-68094200D02*
X63853666Y-68132295D01*
X63853666Y-68132295D02*
X63929857Y-68132295D01*
X63929857Y-68132295D02*
X64044143Y-68094200D01*
X64044143Y-68094200D02*
X64120333Y-68018009D01*
X64120333Y-68018009D02*
X64158428Y-67941819D01*
X64158428Y-67941819D02*
X64196524Y-67789438D01*
X64196524Y-67789438D02*
X64196524Y-67675152D01*
X64196524Y-67675152D02*
X64158428Y-67522771D01*
X64158428Y-67522771D02*
X64120333Y-67446580D01*
X64120333Y-67446580D02*
X64044143Y-67370390D01*
X64044143Y-67370390D02*
X63929857Y-67332295D01*
X63929857Y-67332295D02*
X63853666Y-67332295D01*
X63853666Y-67332295D02*
X63739381Y-67370390D01*
X63739381Y-67370390D02*
X63701285Y-67408485D01*
X62939381Y-68132295D02*
X63396524Y-68132295D01*
X63167952Y-68132295D02*
X63167952Y-67332295D01*
X63167952Y-67332295D02*
X63244143Y-67446580D01*
X63244143Y-67446580D02*
X63320333Y-67522771D01*
X63320333Y-67522771D02*
X63396524Y-67560866D01*
X62634619Y-67408485D02*
X62596523Y-67370390D01*
X62596523Y-67370390D02*
X62520333Y-67332295D01*
X62520333Y-67332295D02*
X62329857Y-67332295D01*
X62329857Y-67332295D02*
X62253666Y-67370390D01*
X62253666Y-67370390D02*
X62215571Y-67408485D01*
X62215571Y-67408485D02*
X62177476Y-67484676D01*
X62177476Y-67484676D02*
X62177476Y-67560866D01*
X62177476Y-67560866D02*
X62215571Y-67675152D01*
X62215571Y-67675152D02*
X62672714Y-68132295D01*
X62672714Y-68132295D02*
X62177476Y-68132295D01*
X63556104Y-63053667D02*
X63594200Y-63015571D01*
X63594200Y-63015571D02*
X63632295Y-62901286D01*
X63632295Y-62901286D02*
X63632295Y-62825095D01*
X63632295Y-62825095D02*
X63594200Y-62710809D01*
X63594200Y-62710809D02*
X63518009Y-62634619D01*
X63518009Y-62634619D02*
X63441819Y-62596524D01*
X63441819Y-62596524D02*
X63289438Y-62558428D01*
X63289438Y-62558428D02*
X63175152Y-62558428D01*
X63175152Y-62558428D02*
X63022771Y-62596524D01*
X63022771Y-62596524D02*
X62946580Y-62634619D01*
X62946580Y-62634619D02*
X62870390Y-62710809D01*
X62870390Y-62710809D02*
X62832295Y-62825095D01*
X62832295Y-62825095D02*
X62832295Y-62901286D01*
X62832295Y-62901286D02*
X62870390Y-63015571D01*
X62870390Y-63015571D02*
X62908485Y-63053667D01*
X62832295Y-63739381D02*
X62832295Y-63587000D01*
X62832295Y-63587000D02*
X62870390Y-63510809D01*
X62870390Y-63510809D02*
X62908485Y-63472714D01*
X62908485Y-63472714D02*
X63022771Y-63396524D01*
X63022771Y-63396524D02*
X63175152Y-63358428D01*
X63175152Y-63358428D02*
X63479914Y-63358428D01*
X63479914Y-63358428D02*
X63556104Y-63396524D01*
X63556104Y-63396524D02*
X63594200Y-63434619D01*
X63594200Y-63434619D02*
X63632295Y-63510809D01*
X63632295Y-63510809D02*
X63632295Y-63663190D01*
X63632295Y-63663190D02*
X63594200Y-63739381D01*
X63594200Y-63739381D02*
X63556104Y-63777476D01*
X63556104Y-63777476D02*
X63479914Y-63815571D01*
X63479914Y-63815571D02*
X63289438Y-63815571D01*
X63289438Y-63815571D02*
X63213247Y-63777476D01*
X63213247Y-63777476D02*
X63175152Y-63739381D01*
X63175152Y-63739381D02*
X63137057Y-63663190D01*
X63137057Y-63663190D02*
X63137057Y-63510809D01*
X63137057Y-63510809D02*
X63175152Y-63434619D01*
X63175152Y-63434619D02*
X63213247Y-63396524D01*
X63213247Y-63396524D02*
X63289438Y-63358428D01*
X60456104Y-63785714D02*
X60494200Y-63747618D01*
X60494200Y-63747618D02*
X60532295Y-63633333D01*
X60532295Y-63633333D02*
X60532295Y-63557142D01*
X60532295Y-63557142D02*
X60494200Y-63442856D01*
X60494200Y-63442856D02*
X60418009Y-63366666D01*
X60418009Y-63366666D02*
X60341819Y-63328571D01*
X60341819Y-63328571D02*
X60189438Y-63290475D01*
X60189438Y-63290475D02*
X60075152Y-63290475D01*
X60075152Y-63290475D02*
X59922771Y-63328571D01*
X59922771Y-63328571D02*
X59846580Y-63366666D01*
X59846580Y-63366666D02*
X59770390Y-63442856D01*
X59770390Y-63442856D02*
X59732295Y-63557142D01*
X59732295Y-63557142D02*
X59732295Y-63633333D01*
X59732295Y-63633333D02*
X59770390Y-63747618D01*
X59770390Y-63747618D02*
X59808485Y-63785714D01*
X60532295Y-64547618D02*
X60532295Y-64090475D01*
X60532295Y-64319047D02*
X59732295Y-64319047D01*
X59732295Y-64319047D02*
X59846580Y-64242856D01*
X59846580Y-64242856D02*
X59922771Y-64166666D01*
X59922771Y-64166666D02*
X59960866Y-64090475D01*
X59732295Y-65042857D02*
X59732295Y-65119047D01*
X59732295Y-65119047D02*
X59770390Y-65195238D01*
X59770390Y-65195238D02*
X59808485Y-65233333D01*
X59808485Y-65233333D02*
X59884676Y-65271428D01*
X59884676Y-65271428D02*
X60037057Y-65309523D01*
X60037057Y-65309523D02*
X60227533Y-65309523D01*
X60227533Y-65309523D02*
X60379914Y-65271428D01*
X60379914Y-65271428D02*
X60456104Y-65233333D01*
X60456104Y-65233333D02*
X60494200Y-65195238D01*
X60494200Y-65195238D02*
X60532295Y-65119047D01*
X60532295Y-65119047D02*
X60532295Y-65042857D01*
X60532295Y-65042857D02*
X60494200Y-64966666D01*
X60494200Y-64966666D02*
X60456104Y-64928571D01*
X60456104Y-64928571D02*
X60379914Y-64890476D01*
X60379914Y-64890476D02*
X60227533Y-64852380D01*
X60227533Y-64852380D02*
X60037057Y-64852380D01*
X60037057Y-64852380D02*
X59884676Y-64890476D01*
X59884676Y-64890476D02*
X59808485Y-64928571D01*
X59808485Y-64928571D02*
X59770390Y-64966666D01*
X59770390Y-64966666D02*
X59732295Y-65042857D01*
X43766666Y-106023247D02*
X44033332Y-106023247D01*
X44033332Y-106442295D02*
X44033332Y-105642295D01*
X44033332Y-105642295D02*
X43652380Y-105642295D01*
X43004761Y-105908961D02*
X43004761Y-106442295D01*
X43195237Y-105604200D02*
X43385714Y-106175628D01*
X43385714Y-106175628D02*
X42890475Y-106175628D01*
X75306104Y-63053667D02*
X75344200Y-63015571D01*
X75344200Y-63015571D02*
X75382295Y-62901286D01*
X75382295Y-62901286D02*
X75382295Y-62825095D01*
X75382295Y-62825095D02*
X75344200Y-62710809D01*
X75344200Y-62710809D02*
X75268009Y-62634619D01*
X75268009Y-62634619D02*
X75191819Y-62596524D01*
X75191819Y-62596524D02*
X75039438Y-62558428D01*
X75039438Y-62558428D02*
X74925152Y-62558428D01*
X74925152Y-62558428D02*
X74772771Y-62596524D01*
X74772771Y-62596524D02*
X74696580Y-62634619D01*
X74696580Y-62634619D02*
X74620390Y-62710809D01*
X74620390Y-62710809D02*
X74582295Y-62825095D01*
X74582295Y-62825095D02*
X74582295Y-62901286D01*
X74582295Y-62901286D02*
X74620390Y-63015571D01*
X74620390Y-63015571D02*
X74658485Y-63053667D01*
X74582295Y-63320333D02*
X74582295Y-63815571D01*
X74582295Y-63815571D02*
X74887057Y-63548905D01*
X74887057Y-63548905D02*
X74887057Y-63663190D01*
X74887057Y-63663190D02*
X74925152Y-63739381D01*
X74925152Y-63739381D02*
X74963247Y-63777476D01*
X74963247Y-63777476D02*
X75039438Y-63815571D01*
X75039438Y-63815571D02*
X75229914Y-63815571D01*
X75229914Y-63815571D02*
X75306104Y-63777476D01*
X75306104Y-63777476D02*
X75344200Y-63739381D01*
X75344200Y-63739381D02*
X75382295Y-63663190D01*
X75382295Y-63663190D02*
X75382295Y-63434619D01*
X75382295Y-63434619D02*
X75344200Y-63358428D01*
X75344200Y-63358428D02*
X75306104Y-63320333D01*
%TO.C,C23*%
D11*
X75540580Y-77090000D02*
X75259420Y-77090000D01*
X75540580Y-78110000D02*
X75259420Y-78110000D01*
%TO.C,C24*%
X57259420Y-59090000D02*
X57540580Y-59090000D01*
X57259420Y-60110000D02*
X57540580Y-60110000D01*
%TO.C,C26*%
X53859420Y-57290000D02*
X54140580Y-57290000D01*
X53859420Y-58310000D02*
X54140580Y-58310000D01*
%TO.C,R11*%
X78353641Y-64420000D02*
X78046359Y-64420000D01*
X78353641Y-65180000D02*
X78046359Y-65180000D01*
%TO.C,R13*%
X83546359Y-76420000D02*
X83853641Y-76420000D01*
X83546359Y-77180000D02*
X83853641Y-77180000D01*
%TO.C,C15*%
X66640000Y-76919836D02*
X66640000Y-76704164D01*
X67360000Y-76919836D02*
X67360000Y-76704164D01*
%TO.C,C2*%
X103940000Y-67207835D02*
X103940000Y-66992163D01*
X104660000Y-67207835D02*
X104660000Y-66992163D01*
%TO.C,C14*%
X63079164Y-78640000D02*
X63294836Y-78640000D01*
X63079164Y-79360000D02*
X63294836Y-79360000D01*
%TO.C,C4*%
X70140000Y-63079164D02*
X70140000Y-63294836D01*
X70860000Y-63079164D02*
X70860000Y-63294836D01*
%TO.C,C20*%
X66840000Y-65307836D02*
X66840000Y-65092164D01*
X67560000Y-65307836D02*
X67560000Y-65092164D01*
%TO.C,C5*%
X82090000Y-72140580D02*
X82090000Y-71859420D01*
X83110000Y-72140580D02*
X83110000Y-71859420D01*
%TO.C,C7*%
X57690000Y-83540580D02*
X57690000Y-83259420D01*
X58710000Y-83540580D02*
X58710000Y-83259420D01*
%TO.C,C22*%
X61890000Y-76140580D02*
X61890000Y-75859420D01*
X62910000Y-76140580D02*
X62910000Y-75859420D01*
%TO.C,C25*%
X76919836Y-67140000D02*
X76704164Y-67140000D01*
X76919836Y-67860000D02*
X76704164Y-67860000D01*
%TO.C,C16*%
X72140000Y-76919836D02*
X72140000Y-76704164D01*
X72860000Y-76919836D02*
X72860000Y-76704164D01*
%TO.C,C27*%
X77707836Y-60890000D02*
X77492164Y-60890000D01*
X77707836Y-61610000D02*
X77492164Y-61610000D01*
%TO.C,C21*%
X76919836Y-72140000D02*
X76704164Y-72140000D01*
X76919836Y-72860000D02*
X76704164Y-72860000D01*
%TO.C,F3*%
X51613748Y-107090000D02*
X54386252Y-107090000D01*
X51613748Y-110510000D02*
X54386252Y-110510000D01*
%TO.C,C1*%
X106190000Y-67240579D02*
X106190000Y-66959419D01*
X107210000Y-67240579D02*
X107210000Y-66959419D01*
%TO.C,C13*%
X63079164Y-73640000D02*
X63294836Y-73640000D01*
X63079164Y-74360000D02*
X63294836Y-74360000D01*
%TO.C,C11*%
X71259420Y-81490000D02*
X71540580Y-81490000D01*
X71259420Y-82510000D02*
X71540580Y-82510000D01*
%TO.C,C17*%
X78640000Y-84392164D02*
X78640000Y-84607836D01*
X79360000Y-84392164D02*
X79360000Y-84607836D01*
%TO.C,C12*%
X63079164Y-68640000D02*
X63294836Y-68640000D01*
X63079164Y-69360000D02*
X63294836Y-69360000D01*
%TO.C,C6*%
X64140000Y-63079164D02*
X64140000Y-63294836D01*
X64860000Y-63079164D02*
X64860000Y-63294836D01*
%TO.C,C10*%
X61040000Y-64192164D02*
X61040000Y-64407836D01*
X61760000Y-64192164D02*
X61760000Y-64407836D01*
%TO.C,F4*%
X42113748Y-107090000D02*
X44886252Y-107090000D01*
X42113748Y-110510000D02*
X44886252Y-110510000D01*
%TO.C,C3*%
X75890000Y-63079164D02*
X75890000Y-63294836D01*
X76610000Y-63079164D02*
X76610000Y-63294836D01*
%TD*%
%LPC*%
D12*
%TO.C,J3*%
X104000000Y-77500000D03*
D13*
X106540000Y-77500000D03*
X109080000Y-77500000D03*
X111620000Y-77500000D03*
X114160000Y-77500000D03*
%TD*%
D14*
%TO.C,J4*%
X31000000Y-59000000D03*
D15*
X33000000Y-59000000D03*
X35000000Y-59000000D03*
X37000000Y-59000000D03*
X39000000Y-59000000D03*
X41000000Y-59000000D03*
%TD*%
D16*
%TO.C,H2*%
X116000000Y-24000000D03*
%TD*%
D14*
%TO.C,J6*%
X31000000Y-82600000D03*
D15*
X33000000Y-82600000D03*
X35000000Y-82600000D03*
X37000000Y-82600000D03*
X39000000Y-82600000D03*
X41000000Y-82600000D03*
%TD*%
D17*
%TO.C,SW1*%
X84000000Y-28600000D03*
D18*
X84000000Y-22100000D03*
%TD*%
D19*
%TO.C,J17*%
X94360000Y-84960000D03*
D13*
X96900000Y-84960000D03*
X94360000Y-87500000D03*
X96900000Y-87500000D03*
%TD*%
D14*
%TO.C,J5*%
X31000000Y-70800000D03*
D15*
X33000000Y-70800000D03*
X35000000Y-70800000D03*
X37000000Y-70800000D03*
X39000000Y-70800000D03*
X41000000Y-70800000D03*
%TD*%
D14*
%TO.C,J7*%
X31000000Y-94400000D03*
D15*
X33000000Y-94400000D03*
X35000000Y-94400000D03*
X37000000Y-94400000D03*
X39000000Y-94400000D03*
X41000000Y-94400000D03*
%TD*%
D20*
%TO.C,J18*%
X88100000Y-87500000D03*
D13*
X85560000Y-87500000D03*
X88100000Y-84960000D03*
X85560000Y-84960000D03*
X88100000Y-82420000D03*
X85560000Y-82420000D03*
%TD*%
D16*
%TO.C,H3*%
X24000000Y-116000000D03*
%TD*%
D21*
%TO.C,J13*%
X57235000Y-30210000D03*
D22*
X57235000Y-32750000D03*
X57235000Y-35290000D03*
X57235000Y-37830000D03*
X57235000Y-40370000D03*
X57235000Y-42910000D03*
X57235000Y-45450000D03*
X57235000Y-47990000D03*
%TD*%
D20*
%TO.C,J16*%
X105700000Y-87500000D03*
D13*
X103160000Y-87500000D03*
X105700000Y-84960000D03*
X103160000Y-84960000D03*
X105700000Y-82420000D03*
X103160000Y-82420000D03*
%TD*%
D14*
%TO.C,J10*%
X64000000Y-115000000D03*
D15*
X66000000Y-115000000D03*
X68000000Y-115000000D03*
%TD*%
D23*
%TO.C,SW3*%
X75000000Y-30000000D03*
D24*
X72460000Y-30000000D03*
X69920000Y-30000000D03*
X67380000Y-30000000D03*
X64840000Y-30000000D03*
X62300000Y-30000000D03*
X62300000Y-37620000D03*
X64840000Y-37620000D03*
X67380000Y-37620000D03*
X69920000Y-37620000D03*
X72460000Y-37620000D03*
X75000000Y-37620000D03*
%TD*%
D14*
%TO.C,J12*%
X38000000Y-115000000D03*
D15*
X40000000Y-115000000D03*
X42000000Y-115000000D03*
X44000000Y-115000000D03*
%TD*%
D16*
%TO.C,H4*%
X116000000Y-116000000D03*
%TD*%
D25*
%TO.C,J2*%
X75110000Y-113720000D03*
X80890000Y-113720000D03*
%TD*%
D16*
%TO.C,H1*%
X24000000Y-24000000D03*
%TD*%
D26*
%TO.C,J15*%
X108000000Y-116000000D03*
D27*
X105500000Y-116000000D03*
X103000000Y-116000000D03*
X100500000Y-116000000D03*
X98000000Y-116000000D03*
X95500000Y-116000000D03*
X93000000Y-116000000D03*
X90500000Y-116000000D03*
%TD*%
D17*
%TO.C,SW6*%
X109500000Y-28600000D03*
D18*
X109500000Y-22100000D03*
%TD*%
D14*
%TO.C,J11*%
X50000000Y-115000000D03*
D15*
X52000000Y-115000000D03*
X54000000Y-115000000D03*
X56000000Y-115000000D03*
%TD*%
D14*
%TO.C,J8*%
X31000000Y-106200000D03*
D15*
X33000000Y-106200000D03*
X35000000Y-106200000D03*
X37000000Y-106200000D03*
X39000000Y-106200000D03*
X41000000Y-106200000D03*
%TD*%
D17*
%TO.C,SW2*%
X90000000Y-28600000D03*
D18*
X90000000Y-22100000D03*
%TD*%
D17*
%TO.C,SW5*%
X103500000Y-28600000D03*
D18*
X103500000Y-22100000D03*
%TD*%
D19*
%TO.C,J14*%
X111960000Y-84960000D03*
D13*
X114500000Y-84960000D03*
X111960000Y-87500000D03*
X114500000Y-87500000D03*
%TD*%
D17*
%TO.C,SW4*%
X97500000Y-28600000D03*
D18*
X97500000Y-22100000D03*
%TD*%
D28*
%TO.C,C23*%
X76175000Y-77600000D03*
X74625000Y-77600000D03*
%TD*%
D29*
%TO.C,C24*%
X56625000Y-59600000D03*
X58175000Y-59600000D03*
%TD*%
%TO.C,C26*%
X53225000Y-57800000D03*
X54775000Y-57800000D03*
%TD*%
D30*
%TO.C,R11*%
X78710000Y-64800000D03*
X77690000Y-64800000D03*
%TD*%
D31*
%TO.C,R13*%
X83190000Y-76800000D03*
X84210000Y-76800000D03*
%TD*%
D32*
%TO.C,C15*%
X67000000Y-77292000D03*
X67000000Y-76332000D03*
%TD*%
%TO.C,C2*%
X104300000Y-67579999D03*
X104300000Y-66619999D03*
%TD*%
D33*
%TO.C,C14*%
X62707000Y-79000000D03*
X63667000Y-79000000D03*
%TD*%
D34*
%TO.C,C4*%
X70500000Y-62707000D03*
X70500000Y-63667000D03*
%TD*%
D32*
%TO.C,C20*%
X67200000Y-65680000D03*
X67200000Y-64720000D03*
%TD*%
D35*
%TO.C,C5*%
X82600000Y-72775000D03*
X82600000Y-71225000D03*
%TD*%
%TO.C,C7*%
X58200000Y-84175000D03*
X58200000Y-82625000D03*
%TD*%
%TO.C,C22*%
X62400000Y-76775000D03*
X62400000Y-75225000D03*
%TD*%
D36*
%TO.C,C25*%
X77292000Y-67500000D03*
X76332000Y-67500000D03*
%TD*%
D32*
%TO.C,C16*%
X72500000Y-77292000D03*
X72500000Y-76332000D03*
%TD*%
D36*
%TO.C,C27*%
X78080000Y-61250000D03*
X77120000Y-61250000D03*
%TD*%
%TO.C,C21*%
X77292000Y-72500000D03*
X76332000Y-72500000D03*
%TD*%
D37*
%TO.C,F3*%
X50610000Y-108800000D03*
X55390000Y-108800000D03*
%TD*%
D35*
%TO.C,C1*%
X106700000Y-67874999D03*
X106700000Y-66324999D03*
%TD*%
D33*
%TO.C,C13*%
X62707000Y-74000000D03*
X63667000Y-74000000D03*
%TD*%
D29*
%TO.C,C11*%
X70625000Y-82000000D03*
X72175000Y-82000000D03*
%TD*%
D34*
%TO.C,C17*%
X79000000Y-84020000D03*
X79000000Y-84980000D03*
%TD*%
D33*
%TO.C,C12*%
X62707000Y-69000000D03*
X63667000Y-69000000D03*
%TD*%
D34*
%TO.C,C6*%
X64500000Y-62707000D03*
X64500000Y-63667000D03*
%TD*%
%TO.C,C10*%
X61400000Y-63820000D03*
X61400000Y-64780000D03*
%TD*%
D37*
%TO.C,F4*%
X41110000Y-108800000D03*
X45890000Y-108800000D03*
%TD*%
D34*
%TO.C,C3*%
X76250000Y-62707000D03*
X76250000Y-63667000D03*
%TD*%
%LPD*%
M02*
