%TF.GenerationSoftware,KiCad,Pcbnew,10.0.6-10.0.6~ubuntu24.04.1*%
%TF.CreationDate,2026-10-04T15:28:06-04:00*%
%TF.ProjectId,ControlBoard2027,436f6e74-726f-46c4-926f-617264323032,rev?*%
%TF.SameCoordinates,Original*%
%TF.FileFunction,Paste,Top*%
%TF.FilePolarity,Positive*%
%FSLAX46Y46*%
G04 Gerber Fmt 4.6, Leading zero omitted, Abs format (unit mm)*
G04 Created by KiCad (PCBNEW 10.0.6-10.0.6~ubuntu24.04.1) date 2026-10-04 15:28:06*
%MOMM*%
%LPD*%
G01*
G04 APERTURE LIST*
G04 Aperture macros list*
%AMRoundRect*
0 Rectangle with rounded corners*
0 $1 Rounding radius*
0 $2 $3 $4 $5 $6 $7 $8 $9 X,Y pos of 4 corners*
0 Add a 4 corners polygon primitive as box body*
4,1,4,$2,$3,$4,$5,$6,$7,$8,$9,$2,$3,0*
0 Add four circle primitives for the rounded corners*
1,1,$1+$1,$2,$3*
1,1,$1+$1,$4,$5*
1,1,$1+$1,$6,$7*
1,1,$1+$1,$8,$9*
0 Add four rect primitives between the rounded corners*
20,1,$1+$1,$2,$3,$4,$5,0*
20,1,$1+$1,$4,$5,$6,$7,0*
20,1,$1+$1,$6,$7,$8,$9,0*
20,1,$1+$1,$8,$9,$2,$3,0*%
G04 Aperture macros list end*
%ADD10RoundRect,0.140000X0.170000X-0.140000X0.170000X0.140000X-0.170000X0.140000X-0.170000X-0.140000X0*%
%ADD11RoundRect,0.135000X-0.135000X-0.185000X0.135000X-0.185000X0.135000X0.185000X-0.135000X0.185000X0*%
%ADD12R,0.400000X0.800000*%
%ADD13R,0.600000X0.800000*%
%ADD14R,0.400000X1.000000*%
%ADD15RoundRect,0.373333X-1.101667X0.466667X-1.101667X-0.466667X1.101667X-0.466667X1.101667X0.466667X0*%
%ADD16RoundRect,0.150000X0.150000X-0.512500X0.150000X0.512500X-0.150000X0.512500X-0.150000X-0.512500X0*%
%ADD17RoundRect,0.135000X0.185000X-0.135000X0.185000X0.135000X-0.185000X0.135000X-0.185000X-0.135000X0*%
%ADD18RoundRect,0.112500X-0.187500X-0.112500X0.187500X-0.112500X0.187500X0.112500X-0.187500X0.112500X0*%
%ADD19RoundRect,0.200000X0.200000X0.275000X-0.200000X0.275000X-0.200000X-0.275000X0.200000X-0.275000X0*%
%ADD20RoundRect,0.135000X0.135000X0.185000X-0.135000X0.185000X-0.135000X-0.185000X0.135000X-0.185000X0*%
%ADD21RoundRect,0.250000X0.450000X0.350000X-0.450000X0.350000X-0.450000X-0.350000X0.450000X-0.350000X0*%
%ADD22RoundRect,0.140000X-0.170000X0.140000X-0.170000X-0.140000X0.170000X-0.140000X0.170000X0.140000X0*%
%ADD23RoundRect,0.200000X-0.275000X0.200000X-0.275000X-0.200000X0.275000X-0.200000X0.275000X0.200000X0*%
%ADD24RoundRect,0.200000X0.275000X-0.200000X0.275000X0.200000X-0.275000X0.200000X-0.275000X-0.200000X0*%
%ADD25RoundRect,0.075000X-0.075000X-0.200000X0.075000X-0.200000X0.075000X0.200000X-0.075000X0.200000X0*%
%ADD26RoundRect,0.218750X0.256250X-0.218750X0.256250X0.218750X-0.256250X0.218750X-0.256250X-0.218750X0*%
%ADD27RoundRect,0.225000X-0.225000X-0.250000X0.225000X-0.250000X0.225000X0.250000X-0.225000X0.250000X0*%
%ADD28RoundRect,0.160000X-0.245000X-0.160000X0.245000X-0.160000X0.245000X0.160000X-0.245000X0.160000X0*%
%ADD29RoundRect,0.093750X-0.093750X-0.106250X0.093750X-0.106250X0.093750X0.106250X-0.093750X0.106250X0*%
%ADD30RoundRect,0.140000X-0.140000X-0.170000X0.140000X-0.170000X0.140000X0.170000X-0.140000X0.170000X0*%
%ADD31RoundRect,0.250000X-0.250000X-0.475000X0.250000X-0.475000X0.250000X0.475000X-0.250000X0.475000X0*%
%ADD32RoundRect,0.050000X-0.325000X-0.050000X0.325000X-0.050000X0.325000X0.050000X-0.325000X0.050000X0*%
%ADD33RoundRect,0.075000X0.237500X0.075000X-0.237500X0.075000X-0.237500X-0.075000X0.237500X-0.075000X0*%
%ADD34RoundRect,0.075000X0.075000X0.237500X-0.075000X0.237500X-0.075000X-0.237500X0.075000X-0.237500X0*%
%ADD35RoundRect,0.160000X0.245000X0.160000X-0.245000X0.160000X-0.245000X-0.160000X0.245000X-0.160000X0*%
%ADD36RoundRect,0.093750X0.093750X0.106250X-0.093750X0.106250X-0.093750X-0.106250X0.093750X-0.106250X0*%
%ADD37RoundRect,0.135000X-0.185000X0.135000X-0.185000X-0.135000X0.185000X-0.135000X0.185000X0.135000X0*%
%ADD38RoundRect,0.150000X-0.825000X-0.150000X0.825000X-0.150000X0.825000X0.150000X-0.825000X0.150000X0*%
%ADD39R,1.200000X0.700000*%
%ADD40R,0.800000X1.000000*%
%ADD41R,1.200000X1.000000*%
%ADD42R,2.800000X1.000000*%
%ADD43R,1.900000X1.300000*%
%ADD44RoundRect,0.200000X-0.200000X-0.275000X0.200000X-0.275000X0.200000X0.275000X-0.200000X0.275000X0*%
%ADD45RoundRect,0.150000X-0.150000X0.587500X-0.150000X-0.587500X0.150000X-0.587500X0.150000X0.587500X0*%
%ADD46RoundRect,0.250000X0.450000X-0.262500X0.450000X0.262500X-0.450000X0.262500X-0.450000X-0.262500X0*%
%ADD47RoundRect,0.375000X0.375000X-0.625000X0.375000X0.625000X-0.375000X0.625000X-0.375000X-0.625000X0*%
%ADD48RoundRect,0.500000X1.400000X-0.500000X1.400000X0.500000X-1.400000X0.500000X-1.400000X-0.500000X0*%
%ADD49RoundRect,0.150000X-0.150000X-0.425000X0.150000X-0.425000X0.150000X0.425000X-0.150000X0.425000X0*%
%ADD50RoundRect,0.075000X-0.075000X-0.500000X0.075000X-0.500000X0.075000X0.500000X-0.075000X0.500000X0*%
%ADD51RoundRect,0.250000X-0.840000X-0.750000X0.840000X-0.750000X0.840000X0.750000X-0.840000X0.750000X0*%
%ADD52RoundRect,0.373333X0.466667X1.101667X-0.466667X1.101667X-0.466667X-1.101667X0.466667X-1.101667X0*%
%ADD53RoundRect,0.218750X-0.218750X-0.256250X0.218750X-0.256250X0.218750X0.256250X-0.218750X0.256250X0*%
%ADD54RoundRect,0.225000X0.250000X-0.225000X0.250000X0.225000X-0.250000X0.225000X-0.250000X-0.225000X0*%
%ADD55RoundRect,0.250000X0.250000X0.475000X-0.250000X0.475000X-0.250000X-0.475000X0.250000X-0.475000X0*%
%ADD56RoundRect,0.160000X-0.160000X0.245000X-0.160000X-0.245000X0.160000X-0.245000X0.160000X0.245000X0*%
%ADD57RoundRect,0.093750X-0.106250X0.093750X-0.106250X-0.093750X0.106250X-0.093750X0.106250X0.093750X0*%
%ADD58RoundRect,0.050100X0.099900X-0.284900X0.099900X0.284900X-0.099900X0.284900X-0.099900X-0.284900X0*%
%ADD59RoundRect,0.075000X-0.075000X0.662500X-0.075000X-0.662500X0.075000X-0.662500X0.075000X0.662500X0*%
%ADD60RoundRect,0.075000X-0.662500X0.075000X-0.662500X-0.075000X0.662500X-0.075000X0.662500X0.075000X0*%
%ADD61RoundRect,0.150000X0.700000X-0.150000X0.700000X0.150000X-0.700000X0.150000X-0.700000X-0.150000X0*%
%ADD62RoundRect,0.250000X1.150000X-0.250000X1.150000X0.250000X-1.150000X0.250000X-1.150000X-0.250000X0*%
%ADD63RoundRect,0.225000X0.225000X0.250000X-0.225000X0.250000X-0.225000X-0.250000X0.225000X-0.250000X0*%
G04 APERTURE END LIST*
D10*
%TO.C,C9*%
X62250000Y-57430000D03*
X62250000Y-56470000D03*
%TD*%
D11*
%TO.C,R66*%
X84690000Y-72250000D03*
X85710000Y-72250000D03*
%TD*%
D12*
%TO.C,D10*%
X70000000Y-96300000D03*
D13*
X70900000Y-96300000D03*
X70900000Y-94700000D03*
X69100000Y-94700000D03*
X69100000Y-96300000D03*
D14*
X70000000Y-94800000D03*
%TD*%
D15*
%TO.C,F5*%
X107500000Y-98810000D03*
X107500000Y-103590000D03*
%TD*%
D12*
%TO.C,D8*%
X62000000Y-96300000D03*
D13*
X62900000Y-96300000D03*
X62900000Y-94700000D03*
X61100000Y-94700000D03*
X61100000Y-96300000D03*
D14*
X62000000Y-94800000D03*
%TD*%
D16*
%TO.C,U3*%
X76350000Y-105637500D03*
X77300000Y-105637500D03*
X78250000Y-105637500D03*
X78250000Y-103362500D03*
X77300000Y-103362500D03*
X76350000Y-103362500D03*
%TD*%
D12*
%TO.C,D7*%
X58000000Y-96300000D03*
D13*
X58900000Y-96300000D03*
X58900000Y-94700000D03*
X57100000Y-94700000D03*
X57100000Y-96300000D03*
D14*
X58000000Y-94800000D03*
%TD*%
D17*
%TO.C,R14*%
X61400000Y-48110000D03*
X61400000Y-47090000D03*
%TD*%
%TO.C,R19*%
X55600000Y-78870000D03*
X55600000Y-77850000D03*
%TD*%
D11*
%TO.C,R4*%
X95780000Y-70300000D03*
X96800000Y-70300000D03*
%TD*%
D18*
%TO.C,D2*%
X110150000Y-105700000D03*
X112250000Y-105700000D03*
%TD*%
D12*
%TO.C,D11*%
X74000000Y-96300000D03*
D13*
X74900000Y-96300000D03*
X74900000Y-94700000D03*
X73100000Y-94700000D03*
X73100000Y-96300000D03*
D14*
X74000000Y-94800000D03*
%TD*%
D19*
%TO.C,R46*%
X94525000Y-100600000D03*
X92875000Y-100600000D03*
%TD*%
D17*
%TO.C,R29*%
X104000000Y-44700000D03*
X104000000Y-43680000D03*
%TD*%
D20*
%TO.C,R48*%
X58600000Y-83700000D03*
X57580000Y-83700000D03*
%TD*%
D21*
%TO.C,X1*%
X68600000Y-53750000D03*
X66400000Y-53750000D03*
X66400000Y-55450000D03*
X68600000Y-55450000D03*
%TD*%
D22*
%TO.C,C45*%
X66000000Y-97470000D03*
X66000000Y-98430000D03*
%TD*%
D23*
%TO.C,R56*%
X67380000Y-24175000D03*
X67380000Y-25825000D03*
%TD*%
%TO.C,R55*%
X69920000Y-24175000D03*
X69920000Y-25825000D03*
%TD*%
D24*
%TO.C,R41*%
X100300000Y-94225000D03*
X100300000Y-92575000D03*
%TD*%
D10*
%TO.C,C48*%
X75000000Y-49380000D03*
X75000000Y-48420000D03*
%TD*%
D24*
%TO.C,R60*%
X101600000Y-35725000D03*
X101600000Y-34075000D03*
%TD*%
D10*
%TO.C,C49*%
X72000000Y-49380000D03*
X72000000Y-48420000D03*
%TD*%
D25*
%TO.C,U4*%
X37000000Y-54885000D03*
X37500000Y-54885000D03*
X38000000Y-54885000D03*
X38500000Y-54885000D03*
X39000000Y-54885000D03*
X39000000Y-54115000D03*
X38500000Y-54115000D03*
X38000000Y-54115000D03*
X37500000Y-54115000D03*
X37000000Y-54115000D03*
%TD*%
D26*
%TO.C,D5*%
X101500000Y-104337500D03*
X101500000Y-102762500D03*
%TD*%
D22*
%TO.C,C40*%
X92700000Y-93500000D03*
X92700000Y-94460000D03*
%TD*%
D27*
%TO.C,C36*%
X94850000Y-90800000D03*
X96400000Y-90800000D03*
%TD*%
D28*
%TO.C,D3*%
X107200000Y-105800000D03*
X107200000Y-106600000D03*
D29*
X106312500Y-105550000D03*
X106312500Y-106200000D03*
X106312500Y-106850000D03*
X108087500Y-106850000D03*
X108087500Y-106200000D03*
X108087500Y-105550000D03*
%TD*%
D17*
%TO.C,R28*%
X41300000Y-101150000D03*
X41300000Y-100130000D03*
%TD*%
%TO.C,R8*%
X55600000Y-71370000D03*
X55600000Y-70350000D03*
%TD*%
D10*
%TO.C,C50*%
X99400000Y-35380000D03*
X99400000Y-34420000D03*
%TD*%
D23*
%TO.C,R54*%
X72460000Y-24175000D03*
X72460000Y-25825000D03*
%TD*%
D11*
%TO.C,R65*%
X83290000Y-67300000D03*
X84310000Y-67300000D03*
%TD*%
D30*
%TO.C,C29*%
X110320000Y-54000000D03*
X111280000Y-54000000D03*
%TD*%
D31*
%TO.C,C33*%
X111750000Y-96200000D03*
X113650000Y-96200000D03*
%TD*%
D32*
%TO.C,U1*%
X98325000Y-66000000D03*
X98325000Y-66500000D03*
X98325000Y-67000000D03*
X98325000Y-67500000D03*
X98325000Y-68000000D03*
X98325000Y-68500000D03*
X98325000Y-69000000D03*
X99675000Y-69000000D03*
X99675000Y-68500000D03*
X99675000Y-68000000D03*
X99675000Y-67500000D03*
X99675000Y-67000000D03*
X99675000Y-66500000D03*
X99675000Y-66000000D03*
%TD*%
D27*
%TO.C,C31*%
X81825000Y-100200000D03*
X83375000Y-100200000D03*
%TD*%
D24*
%TO.C,R40*%
X117200000Y-94225000D03*
X117200000Y-92575000D03*
%TD*%
D22*
%TO.C,C44*%
X62000000Y-97470000D03*
X62000000Y-98430000D03*
%TD*%
D20*
%TO.C,R1*%
X99345000Y-63800000D03*
X98325000Y-63800000D03*
%TD*%
D25*
%TO.C,U13*%
X37000000Y-90285000D03*
X37500000Y-90285000D03*
X38000000Y-90285000D03*
X38500000Y-90285000D03*
X39000000Y-90285000D03*
X39000000Y-89515000D03*
X38500000Y-89515000D03*
X38000000Y-89515000D03*
X37500000Y-89515000D03*
X37000000Y-89515000D03*
%TD*%
D17*
%TO.C,R33*%
X62600000Y-51810000D03*
X62600000Y-50790000D03*
%TD*%
D22*
%TO.C,C39*%
X109600000Y-93500000D03*
X109600000Y-94460000D03*
%TD*%
D33*
%TO.C,U11*%
X74912500Y-52250000D03*
X74912500Y-51750000D03*
X74912500Y-51250000D03*
X74912500Y-50750000D03*
D34*
X74250000Y-50587500D03*
X73750000Y-50587500D03*
X73250000Y-50587500D03*
D33*
X72587500Y-50750000D03*
X72587500Y-51250000D03*
X72587500Y-51750000D03*
X72587500Y-52250000D03*
D34*
X73250000Y-52412500D03*
X73750000Y-52412500D03*
X74250000Y-52412500D03*
%TD*%
D20*
%TO.C,R7*%
X75920000Y-54600000D03*
X74900000Y-54600000D03*
%TD*%
D17*
%TO.C,R23*%
X72900000Y-108710000D03*
X72900000Y-107690000D03*
%TD*%
D35*
%TO.C,D1*%
X82000000Y-108600000D03*
X82000000Y-107800000D03*
D36*
X82887500Y-108850000D03*
X82887500Y-108200000D03*
X82887500Y-107550000D03*
X81112500Y-107550000D03*
X81112500Y-108200000D03*
X81112500Y-108850000D03*
%TD*%
D37*
%TO.C,R24*%
X42200000Y-51400000D03*
X42200000Y-52420000D03*
%TD*%
D38*
%TO.C,U10*%
X60525000Y-83540000D03*
X60525000Y-84810000D03*
X60525000Y-86080000D03*
X60525000Y-87350000D03*
X60525000Y-88620000D03*
X60525000Y-89890000D03*
X60525000Y-91160000D03*
X65475000Y-91160000D03*
X65475000Y-89890000D03*
X65475000Y-88620000D03*
X65475000Y-87350000D03*
X65475000Y-86080000D03*
X65475000Y-84810000D03*
X65475000Y-83540000D03*
%TD*%
D30*
%TO.C,C41*%
X67520000Y-83800000D03*
X68480000Y-83800000D03*
%TD*%
D17*
%TO.C,R26*%
X41300000Y-77550000D03*
X41300000Y-76530000D03*
%TD*%
D27*
%TO.C,C34*%
X94850000Y-96200000D03*
X96400000Y-96200000D03*
%TD*%
D22*
%TO.C,C47*%
X74000000Y-97470000D03*
X74000000Y-98430000D03*
%TD*%
D39*
%TO.C,J1*%
X103400000Y-63750000D03*
X103400000Y-64850000D03*
X103400000Y-65950000D03*
X103400000Y-67050000D03*
X103400000Y-68150000D03*
X103400000Y-69250000D03*
X103400000Y-70350000D03*
X103400000Y-71450000D03*
X103400000Y-72400000D03*
D40*
X113900000Y-73350000D03*
D41*
X107700000Y-73350000D03*
D42*
X118050000Y-73350000D03*
D41*
X103400000Y-62200000D03*
D43*
X118500000Y-59850000D03*
%TD*%
D11*
%TO.C,R6*%
X86490000Y-76750000D03*
X87510000Y-76750000D03*
%TD*%
D20*
%TO.C,R9*%
X75920000Y-55700000D03*
X74900000Y-55700000D03*
%TD*%
D44*
%TO.C,R35*%
X113575000Y-107500000D03*
X115225000Y-107500000D03*
%TD*%
D24*
%TO.C,R37*%
X115500000Y-92825000D03*
X115500000Y-91175000D03*
%TD*%
D25*
%TO.C,U6*%
X59000000Y-109585000D03*
X59500000Y-109585000D03*
X60000000Y-109585000D03*
X60500000Y-109585000D03*
X61000000Y-109585000D03*
X61000000Y-108815000D03*
X60500000Y-108815000D03*
X60000000Y-108815000D03*
X59500000Y-108815000D03*
X59000000Y-108815000D03*
%TD*%
D11*
%TO.C,R3*%
X93980000Y-64700000D03*
X95000000Y-64700000D03*
%TD*%
D45*
%TO.C,Q1*%
X111700000Y-108762500D03*
X109800000Y-108762500D03*
X110750000Y-110637500D03*
%TD*%
D10*
%TO.C,C51*%
X105400000Y-35380000D03*
X105400000Y-34420000D03*
%TD*%
D46*
%TO.C,R16*%
X51000000Y-59412500D03*
X51000000Y-57587500D03*
%TD*%
D17*
%TO.C,R32*%
X100000000Y-39900000D03*
X100000000Y-38880000D03*
%TD*%
%TO.C,R21*%
X74000000Y-86510000D03*
X74000000Y-85490000D03*
%TD*%
D47*
%TO.C,U7*%
X82300000Y-97150000D03*
X84600000Y-97150000D03*
D48*
X84600000Y-90850000D03*
D47*
X86900000Y-97150000D03*
%TD*%
D11*
%TO.C,R47*%
X63290000Y-82210000D03*
X64310000Y-82210000D03*
%TD*%
D31*
%TO.C,C35*%
X111750000Y-90800000D03*
X113650000Y-90800000D03*
%TD*%
D17*
%TO.C,R27*%
X41300000Y-89350000D03*
X41300000Y-88330000D03*
%TD*%
D37*
%TO.C,R17*%
X62800000Y-43490000D03*
X62800000Y-44510000D03*
%TD*%
D49*
%TO.C,J2*%
X74800000Y-112645000D03*
X75600000Y-112645000D03*
D50*
X76750000Y-112645000D03*
X77750000Y-112645000D03*
X78250000Y-112645000D03*
X79250000Y-112645000D03*
D49*
X80400000Y-112645000D03*
X81200000Y-112645000D03*
X81200000Y-112645000D03*
X80400000Y-112645000D03*
D50*
X79750000Y-112645000D03*
X78750000Y-112645000D03*
X77250000Y-112645000D03*
X76250000Y-112645000D03*
D49*
X75600000Y-112645000D03*
X74800000Y-112645000D03*
D51*
X72890000Y-113220000D03*
X72890000Y-117150000D03*
X83110000Y-113220000D03*
X83110000Y-117150000D03*
%TD*%
D10*
%TO.C,C8*%
X63250000Y-57430000D03*
X63250000Y-56470000D03*
%TD*%
D23*
%TO.C,R63*%
X103500000Y-34075000D03*
X103500000Y-35725000D03*
%TD*%
D24*
%TO.C,R44*%
X117200000Y-91025000D03*
X117200000Y-89375000D03*
%TD*%
D25*
%TO.C,U5*%
X37000000Y-66685000D03*
X37500000Y-66685000D03*
X38000000Y-66685000D03*
X38500000Y-66685000D03*
X39000000Y-66685000D03*
X39000000Y-65915000D03*
X38500000Y-65915000D03*
X38000000Y-65915000D03*
X37500000Y-65915000D03*
X37000000Y-65915000D03*
%TD*%
D17*
%TO.C,R34*%
X60000000Y-51810000D03*
X60000000Y-50790000D03*
%TD*%
%TO.C,R25*%
X41300000Y-65750000D03*
X41300000Y-64730000D03*
%TD*%
D52*
%TO.C,F1*%
X87190000Y-104400000D03*
X82410000Y-104400000D03*
%TD*%
D17*
%TO.C,R22*%
X79750000Y-109710000D03*
X79750000Y-108690000D03*
%TD*%
D25*
%TO.C,U12*%
X37000000Y-78485000D03*
X37500000Y-78485000D03*
X38000000Y-78485000D03*
X38500000Y-78485000D03*
X39000000Y-78485000D03*
X39000000Y-77715000D03*
X38500000Y-77715000D03*
X38000000Y-77715000D03*
X37500000Y-77715000D03*
X37000000Y-77715000D03*
%TD*%
D23*
%TO.C,R64*%
X109500000Y-34075000D03*
X109500000Y-35725000D03*
%TD*%
D27*
%TO.C,C32*%
X86625000Y-100200000D03*
X88175000Y-100200000D03*
%TD*%
D12*
%TO.C,D9*%
X66000000Y-96300000D03*
D13*
X66900000Y-96300000D03*
X66900000Y-94700000D03*
X65100000Y-94700000D03*
X65100000Y-96300000D03*
D14*
X66000000Y-94800000D03*
%TD*%
D11*
%TO.C,R2*%
X95980000Y-63600000D03*
X97000000Y-63600000D03*
%TD*%
D23*
%TO.C,R58*%
X62300000Y-24175000D03*
X62300000Y-25825000D03*
%TD*%
D11*
%TO.C,R12*%
X65490000Y-57200000D03*
X66510000Y-57200000D03*
%TD*%
D20*
%TO.C,R5*%
X98720000Y-72000000D03*
X97700000Y-72000000D03*
%TD*%
D24*
%TO.C,R59*%
X95600000Y-35725000D03*
X95600000Y-34075000D03*
%TD*%
D10*
%TO.C,C19*%
X64400000Y-55450000D03*
X64400000Y-54490000D03*
%TD*%
D53*
%TO.C,D6*%
X89912500Y-100600000D03*
X91487500Y-100600000D03*
%TD*%
D24*
%TO.C,R39*%
X98600000Y-92825000D03*
X98600000Y-91175000D03*
%TD*%
D54*
%TO.C,C30*%
X89400000Y-105175000D03*
X89400000Y-103625000D03*
%TD*%
D20*
%TO.C,R15*%
X56910000Y-62500000D03*
X55890000Y-62500000D03*
%TD*%
D17*
%TO.C,R31*%
X102000000Y-42300000D03*
X102000000Y-41280000D03*
%TD*%
D37*
%TO.C,R10*%
X57200000Y-68630000D03*
X57200000Y-69650000D03*
%TD*%
D31*
%TO.C,C28*%
X106850000Y-54000000D03*
X108750000Y-54000000D03*
%TD*%
D24*
%TO.C,R61*%
X107600000Y-35725000D03*
X107600000Y-34075000D03*
%TD*%
D55*
%TO.C,C42*%
X56950000Y-100200000D03*
X55050000Y-100200000D03*
%TD*%
%TO.C,C37*%
X107500000Y-90800000D03*
X105600000Y-90800000D03*
%TD*%
D56*
%TO.C,D4*%
X100100000Y-110600000D03*
X99300000Y-110600000D03*
D57*
X100350000Y-109712500D03*
X99700000Y-109712500D03*
X99050000Y-109712500D03*
X99050000Y-111487500D03*
X99700000Y-111487500D03*
X100350000Y-111487500D03*
%TD*%
D23*
%TO.C,R57*%
X64840000Y-24175000D03*
X64840000Y-25825000D03*
%TD*%
%TO.C,R62*%
X97500000Y-34075000D03*
X97500000Y-35725000D03*
%TD*%
D24*
%TO.C,R38*%
X98600000Y-95850000D03*
X98600000Y-94200000D03*
%TD*%
D23*
%TO.C,R42*%
X109300000Y-90275000D03*
X109300000Y-91925000D03*
%TD*%
D15*
%TO.C,F6*%
X95000000Y-103610000D03*
X95000000Y-108390000D03*
%TD*%
D58*
%TO.C,U9*%
X93850000Y-94240000D03*
X94350000Y-94240000D03*
X94850000Y-94240000D03*
X95350000Y-94240000D03*
X93850000Y-92760000D03*
X94350000Y-92760000D03*
X94850000Y-92760000D03*
X95350000Y-92760000D03*
%TD*%
D23*
%TO.C,R45*%
X101500000Y-99500000D03*
X101500000Y-101150000D03*
%TD*%
D22*
%TO.C,C46*%
X70000000Y-97470000D03*
X70000000Y-98430000D03*
%TD*%
D24*
%TO.C,R36*%
X115500000Y-95850000D03*
X115500000Y-94200000D03*
%TD*%
D23*
%TO.C,R53*%
X75000000Y-24175000D03*
X75000000Y-25825000D03*
%TD*%
D25*
%TO.C,U14*%
X37000000Y-102085000D03*
X37500000Y-102085000D03*
X38000000Y-102085000D03*
X38500000Y-102085000D03*
X39000000Y-102085000D03*
X39000000Y-101315000D03*
X38500000Y-101315000D03*
X38000000Y-101315000D03*
X37500000Y-101315000D03*
X37000000Y-101315000D03*
%TD*%
D59*
%TO.C,U2*%
X78750000Y-59337500D03*
X78250000Y-59337500D03*
X77750000Y-59337500D03*
X77250000Y-59337500D03*
X76750000Y-59337500D03*
X76250000Y-59337500D03*
X75750000Y-59337500D03*
X75250000Y-59337500D03*
X74750000Y-59337500D03*
X74250000Y-59337500D03*
X73750000Y-59337500D03*
X73250000Y-59337500D03*
X72750000Y-59337500D03*
X72250000Y-59337500D03*
X71750000Y-59337500D03*
X71250000Y-59337500D03*
X70750000Y-59337500D03*
X70250000Y-59337500D03*
X69750000Y-59337500D03*
X69250000Y-59337500D03*
X68750000Y-59337500D03*
X68250000Y-59337500D03*
X67750000Y-59337500D03*
X67250000Y-59337500D03*
X66750000Y-59337500D03*
X66250000Y-59337500D03*
X65750000Y-59337500D03*
X65250000Y-59337500D03*
X64750000Y-59337500D03*
X64250000Y-59337500D03*
X63750000Y-59337500D03*
X63250000Y-59337500D03*
X62750000Y-59337500D03*
X62250000Y-59337500D03*
X61750000Y-59337500D03*
X61250000Y-59337500D03*
D60*
X59337500Y-61250000D03*
X59337500Y-61750000D03*
X59337500Y-62250000D03*
X59337500Y-62750000D03*
X59337500Y-63250000D03*
X59337500Y-63750000D03*
X59337500Y-64250000D03*
X59337500Y-64750000D03*
X59337500Y-65250000D03*
X59337500Y-65750000D03*
X59337500Y-66250000D03*
X59337500Y-66750000D03*
X59337500Y-67250000D03*
X59337500Y-67750000D03*
X59337500Y-68250000D03*
X59337500Y-68750000D03*
X59337500Y-69250000D03*
X59337500Y-69750000D03*
X59337500Y-70250000D03*
X59337500Y-70750000D03*
X59337500Y-71250000D03*
X59337500Y-71750000D03*
X59337500Y-72250000D03*
X59337500Y-72750000D03*
X59337500Y-73250000D03*
X59337500Y-73750000D03*
X59337500Y-74250000D03*
X59337500Y-74750000D03*
X59337500Y-75250000D03*
X59337500Y-75750000D03*
X59337500Y-76250000D03*
X59337500Y-76750000D03*
X59337500Y-77250000D03*
X59337500Y-77750000D03*
X59337500Y-78250000D03*
X59337500Y-78750000D03*
D59*
X61250000Y-80662500D03*
X61750000Y-80662500D03*
X62250000Y-80662500D03*
X62750000Y-80662500D03*
X63250000Y-80662500D03*
X63750000Y-80662500D03*
X64250000Y-80662500D03*
X64750000Y-80662500D03*
X65250000Y-80662500D03*
X65750000Y-80662500D03*
X66250000Y-80662500D03*
X66750000Y-80662500D03*
X67250000Y-80662500D03*
X67750000Y-80662500D03*
X68250000Y-80662500D03*
X68750000Y-80662500D03*
X69250000Y-80662500D03*
X69750000Y-80662500D03*
X70250000Y-80662500D03*
X70750000Y-80662500D03*
X71250000Y-80662500D03*
X71750000Y-80662500D03*
X72250000Y-80662500D03*
X72750000Y-80662500D03*
X73250000Y-80662500D03*
X73750000Y-80662500D03*
X74250000Y-80662500D03*
X74750000Y-80662500D03*
X75250000Y-80662500D03*
X75750000Y-80662500D03*
X76250000Y-80662500D03*
X76750000Y-80662500D03*
X77250000Y-80662500D03*
X77750000Y-80662500D03*
X78250000Y-80662500D03*
X78750000Y-80662500D03*
D60*
X80662500Y-78750000D03*
X80662500Y-78250000D03*
X80662500Y-77750000D03*
X80662500Y-77250000D03*
X80662500Y-76750000D03*
X80662500Y-76250000D03*
X80662500Y-75750000D03*
X80662500Y-75250000D03*
X80662500Y-74750000D03*
X80662500Y-74250000D03*
X80662500Y-73750000D03*
X80662500Y-73250000D03*
X80662500Y-72750000D03*
X80662500Y-72250000D03*
X80662500Y-71750000D03*
X80662500Y-71250000D03*
X80662500Y-70750000D03*
X80662500Y-70250000D03*
X80662500Y-69750000D03*
X80662500Y-69250000D03*
X80662500Y-68750000D03*
X80662500Y-68250000D03*
X80662500Y-67750000D03*
X80662500Y-67250000D03*
X80662500Y-66750000D03*
X80662500Y-66250000D03*
X80662500Y-65750000D03*
X80662500Y-65250000D03*
X80662500Y-64750000D03*
X80662500Y-64250000D03*
X80662500Y-63750000D03*
X80662500Y-63250000D03*
X80662500Y-62750000D03*
X80662500Y-62250000D03*
X80662500Y-61750000D03*
X80662500Y-61250000D03*
%TD*%
D22*
%TO.C,C43*%
X58000000Y-97470000D03*
X58000000Y-98430000D03*
%TD*%
D61*
%TO.C,J9*%
X117450000Y-53750000D03*
X117450000Y-52500000D03*
X117450000Y-51250000D03*
X117450000Y-50000000D03*
X117450000Y-48750000D03*
X117450000Y-47500000D03*
X117450000Y-46250000D03*
X117450000Y-45000000D03*
X117450000Y-43750000D03*
X117450000Y-42500000D03*
X117450000Y-41250000D03*
X117450000Y-40000000D03*
X117450000Y-38750000D03*
X117450000Y-37500000D03*
X117450000Y-36250000D03*
D62*
X114100000Y-55600000D03*
X114100000Y-34400000D03*
%TD*%
D17*
%TO.C,R30*%
X42200000Y-46900000D03*
X42200000Y-45880000D03*
%TD*%
D63*
%TO.C,C38*%
X90600000Y-90800000D03*
X89050000Y-90800000D03*
%TD*%
D58*
%TO.C,U8*%
X110750000Y-94240000D03*
X111250000Y-94240000D03*
X111750000Y-94240000D03*
X112250000Y-94240000D03*
X110750000Y-92760000D03*
X111250000Y-92760000D03*
X111750000Y-92760000D03*
X112250000Y-92760000D03*
%TD*%
D22*
%TO.C,C18*%
X70600000Y-53750000D03*
X70600000Y-54710000D03*
%TD*%
D37*
%TO.C,R18*%
X57200000Y-76130000D03*
X57200000Y-77150000D03*
%TD*%
D17*
%TO.C,R20*%
X72600000Y-86510000D03*
X72600000Y-85490000D03*
%TD*%
D10*
%TO.C,C52*%
X111400000Y-35380000D03*
X111400000Y-34420000D03*
%TD*%
D23*
%TO.C,R43*%
X92400000Y-90275000D03*
X92400000Y-91925000D03*
%TD*%
M02*
