%TF.GenerationSoftware,KiCad,Pcbnew,10.0.6-10.0.6~ubuntu24.04.1*%
%TF.CreationDate,2026-10-04T15:28:06-04:00*%
%TF.ProjectId,ControlBoard2027,436f6e74-726f-46c4-926f-617264323032,rev?*%
%TF.SameCoordinates,Original*%
%TF.FileFunction,Soldermask,Bot*%
%TF.FilePolarity,Negative*%
%FSLAX46Y46*%
G04 Gerber Fmt 4.6, Leading zero omitted, Abs format (unit mm)*
G04 Created by KiCad (PCBNEW 10.0.6-10.0.6~ubuntu24.04.1) date 2026-10-04 15:28:06*
%MOMM*%
%LPD*%
G01*
G04 APERTURE LIST*
G04 Aperture macros list*
%AMRoundRect*
0 Rectangle with rounded corners*
0 $1 Rounding radius*
0 $2 $3 $4 $5 $6 $7 $8 $9 X,Y pos of 4 corners*
0 Add a 4 corners polygon primitive as box body*
4,1,4,$2,$3,$4,$5,$6,$7,$8,$9,$2,$3,0*
0 Add four circle primitives for the rounded corners*
1,1,$1+$1,$2,$3*
1,1,$1+$1,$4,$5*
1,1,$1+$1,$6,$7*
1,1,$1+$1,$8,$9*
0 Add four rect primitives between the rounded corners*
20,1,$1+$1,$2,$3,$4,$5,0*
20,1,$1+$1,$4,$5,$6,$7,0*
20,1,$1+$1,$6,$7,$8,$9,0*
20,1,$1+$1,$8,$9,$2,$3,0*%
G04 Aperture macros list end*
%ADD10RoundRect,0.050000X0.850000X-0.850000X0.850000X0.850000X-0.850000X0.850000X-0.850000X-0.850000X0*%
%ADD11C,1.800000*%
%ADD12RoundRect,0.300000X-0.350000X-0.625000X0.350000X-0.625000X0.350000X0.625000X-0.350000X0.625000X0*%
%ADD13O,1.300000X1.850000*%
%ADD14C,3.300000*%
%ADD15RoundRect,0.050000X1.125000X1.125000X-1.125000X1.125000X-1.125000X-1.125000X1.125000X-1.125000X0*%
%ADD16C,2.350000*%
%ADD17RoundRect,0.050000X-0.850000X-0.850000X0.850000X-0.850000X0.850000X0.850000X-0.850000X0.850000X0*%
%ADD18RoundRect,0.050000X0.850000X0.850000X-0.850000X0.850000X-0.850000X-0.850000X0.850000X-0.850000X0*%
%ADD19RoundRect,0.050000X0.889000X-0.889000X0.889000X0.889000X-0.889000X0.889000X-0.889000X-0.889000X0*%
%ADD20C,1.878000*%
%ADD21RoundRect,0.300000X-0.550000X0.550000X-0.550000X-0.550000X0.550000X-0.550000X0.550000X0.550000X0*%
%ADD22C,1.700000*%
%ADD23C,0.750000*%
%ADD24RoundRect,0.300000X0.600000X0.725000X-0.600000X0.725000X-0.600000X-0.725000X0.600000X-0.725000X0*%
%ADD25O,1.800000X2.050000*%
%ADD26RoundRect,0.275000X0.225000X0.250000X-0.225000X0.250000X-0.225000X-0.250000X0.225000X-0.250000X0*%
%ADD27RoundRect,0.275000X-0.225000X-0.250000X0.225000X-0.250000X0.225000X0.250000X-0.225000X0.250000X0*%
%ADD28RoundRect,0.185000X0.135000X0.185000X-0.135000X0.185000X-0.135000X-0.185000X0.135000X-0.185000X0*%
%ADD29RoundRect,0.185000X-0.135000X-0.185000X0.135000X-0.185000X0.135000X0.185000X-0.135000X0.185000X0*%
%ADD30RoundRect,0.190000X0.170000X-0.140000X0.170000X0.140000X-0.170000X0.140000X-0.170000X-0.140000X0*%
%ADD31RoundRect,0.190000X-0.140000X-0.170000X0.140000X-0.170000X0.140000X0.170000X-0.140000X0.170000X0*%
%ADD32RoundRect,0.190000X-0.170000X0.140000X-0.170000X-0.140000X0.170000X-0.140000X0.170000X0.140000X0*%
%ADD33RoundRect,0.275000X0.250000X-0.225000X0.250000X0.225000X-0.250000X0.225000X-0.250000X-0.225000X0*%
%ADD34RoundRect,0.190000X0.140000X0.170000X-0.140000X0.170000X-0.140000X-0.170000X0.140000X-0.170000X0*%
%ADD35RoundRect,0.423333X-0.466667X-1.101667X0.466667X-1.101667X0.466667X1.101667X-0.466667X1.101667X0*%
G04 APERTURE END LIST*
D10*
%TO.C,J3*%
X104000000Y-77500000D03*
D11*
X106540000Y-77500000D03*
X109080000Y-77500000D03*
X111620000Y-77500000D03*
X114160000Y-77500000D03*
%TD*%
D12*
%TO.C,J4*%
X31000000Y-59000000D03*
D13*
X33000000Y-59000000D03*
X35000000Y-59000000D03*
X37000000Y-59000000D03*
X39000000Y-59000000D03*
X41000000Y-59000000D03*
%TD*%
D14*
%TO.C,H2*%
X116000000Y-24000000D03*
%TD*%
D12*
%TO.C,J6*%
X31000000Y-82600000D03*
D13*
X33000000Y-82600000D03*
X35000000Y-82600000D03*
X37000000Y-82600000D03*
X39000000Y-82600000D03*
X41000000Y-82600000D03*
%TD*%
D15*
%TO.C,SW1*%
X84000000Y-28600000D03*
D16*
X84000000Y-22100000D03*
%TD*%
D17*
%TO.C,J17*%
X94360000Y-84960000D03*
D11*
X96900000Y-84960000D03*
X94360000Y-87500000D03*
X96900000Y-87500000D03*
%TD*%
D12*
%TO.C,J5*%
X31000000Y-70800000D03*
D13*
X33000000Y-70800000D03*
X35000000Y-70800000D03*
X37000000Y-70800000D03*
X39000000Y-70800000D03*
X41000000Y-70800000D03*
%TD*%
D12*
%TO.C,J7*%
X31000000Y-94400000D03*
D13*
X33000000Y-94400000D03*
X35000000Y-94400000D03*
X37000000Y-94400000D03*
X39000000Y-94400000D03*
X41000000Y-94400000D03*
%TD*%
D18*
%TO.C,J18*%
X88100000Y-87500000D03*
D11*
X85560000Y-87500000D03*
X88100000Y-84960000D03*
X85560000Y-84960000D03*
X88100000Y-82420000D03*
X85560000Y-82420000D03*
%TD*%
D14*
%TO.C,H3*%
X24000000Y-116000000D03*
%TD*%
D19*
%TO.C,J13*%
X57235000Y-30210000D03*
D20*
X57235000Y-32750000D03*
X57235000Y-35290000D03*
X57235000Y-37830000D03*
X57235000Y-40370000D03*
X57235000Y-42910000D03*
X57235000Y-45450000D03*
X57235000Y-47990000D03*
%TD*%
D18*
%TO.C,J16*%
X105700000Y-87500000D03*
D11*
X103160000Y-87500000D03*
X105700000Y-84960000D03*
X103160000Y-84960000D03*
X105700000Y-82420000D03*
X103160000Y-82420000D03*
%TD*%
D12*
%TO.C,J10*%
X64000000Y-115000000D03*
D13*
X66000000Y-115000000D03*
X68000000Y-115000000D03*
%TD*%
D21*
%TO.C,SW3*%
X75000000Y-30000000D03*
D22*
X72460000Y-30000000D03*
X69920000Y-30000000D03*
X67380000Y-30000000D03*
X64840000Y-30000000D03*
X62300000Y-30000000D03*
X62300000Y-37620000D03*
X64840000Y-37620000D03*
X67380000Y-37620000D03*
X69920000Y-37620000D03*
X72460000Y-37620000D03*
X75000000Y-37620000D03*
%TD*%
D12*
%TO.C,J12*%
X38000000Y-115000000D03*
D13*
X40000000Y-115000000D03*
X42000000Y-115000000D03*
X44000000Y-115000000D03*
%TD*%
D14*
%TO.C,H4*%
X116000000Y-116000000D03*
%TD*%
D23*
%TO.C,J2*%
X75110000Y-113720000D03*
X80890000Y-113720000D03*
%TD*%
D14*
%TO.C,H1*%
X24000000Y-24000000D03*
%TD*%
D24*
%TO.C,J15*%
X108000000Y-116000000D03*
D25*
X105500000Y-116000000D03*
X103000000Y-116000000D03*
X100500000Y-116000000D03*
X98000000Y-116000000D03*
X95500000Y-116000000D03*
X93000000Y-116000000D03*
X90500000Y-116000000D03*
%TD*%
D15*
%TO.C,SW6*%
X109500000Y-28600000D03*
D16*
X109500000Y-22100000D03*
%TD*%
D12*
%TO.C,J11*%
X50000000Y-115000000D03*
D13*
X52000000Y-115000000D03*
X54000000Y-115000000D03*
X56000000Y-115000000D03*
%TD*%
D12*
%TO.C,J8*%
X31000000Y-106200000D03*
D13*
X33000000Y-106200000D03*
X35000000Y-106200000D03*
X37000000Y-106200000D03*
X39000000Y-106200000D03*
X41000000Y-106200000D03*
%TD*%
D15*
%TO.C,SW2*%
X90000000Y-28600000D03*
D16*
X90000000Y-22100000D03*
%TD*%
D15*
%TO.C,SW5*%
X103500000Y-28600000D03*
D16*
X103500000Y-22100000D03*
%TD*%
D17*
%TO.C,J14*%
X111960000Y-84960000D03*
D11*
X114500000Y-84960000D03*
X111960000Y-87500000D03*
X114500000Y-87500000D03*
%TD*%
D15*
%TO.C,SW4*%
X97500000Y-28600000D03*
D16*
X97500000Y-22100000D03*
%TD*%
D26*
%TO.C,C23*%
X76175000Y-77600000D03*
X74625000Y-77600000D03*
%TD*%
D27*
%TO.C,C24*%
X56625000Y-59600000D03*
X58175000Y-59600000D03*
%TD*%
%TO.C,C26*%
X53225000Y-57800000D03*
X54775000Y-57800000D03*
%TD*%
D28*
%TO.C,R11*%
X78710000Y-64800000D03*
X77690000Y-64800000D03*
%TD*%
D29*
%TO.C,R13*%
X83190000Y-76800000D03*
X84210000Y-76800000D03*
%TD*%
D30*
%TO.C,C15*%
X67000000Y-77292000D03*
X67000000Y-76332000D03*
%TD*%
%TO.C,C2*%
X104300000Y-67579999D03*
X104300000Y-66619999D03*
%TD*%
D31*
%TO.C,C14*%
X62707000Y-79000000D03*
X63667000Y-79000000D03*
%TD*%
D32*
%TO.C,C4*%
X70500000Y-62707000D03*
X70500000Y-63667000D03*
%TD*%
D30*
%TO.C,C20*%
X67200000Y-65680000D03*
X67200000Y-64720000D03*
%TD*%
D33*
%TO.C,C5*%
X82600000Y-72775000D03*
X82600000Y-71225000D03*
%TD*%
%TO.C,C7*%
X58200000Y-84175000D03*
X58200000Y-82625000D03*
%TD*%
%TO.C,C22*%
X62400000Y-76775000D03*
X62400000Y-75225000D03*
%TD*%
D34*
%TO.C,C25*%
X77292000Y-67500000D03*
X76332000Y-67500000D03*
%TD*%
D30*
%TO.C,C16*%
X72500000Y-77292000D03*
X72500000Y-76332000D03*
%TD*%
D34*
%TO.C,C27*%
X78080000Y-61250000D03*
X77120000Y-61250000D03*
%TD*%
%TO.C,C21*%
X77292000Y-72500000D03*
X76332000Y-72500000D03*
%TD*%
D35*
%TO.C,F3*%
X50610000Y-108800000D03*
X55390000Y-108800000D03*
%TD*%
D33*
%TO.C,C1*%
X106700000Y-67874999D03*
X106700000Y-66324999D03*
%TD*%
D31*
%TO.C,C13*%
X62707000Y-74000000D03*
X63667000Y-74000000D03*
%TD*%
D27*
%TO.C,C11*%
X70625000Y-82000000D03*
X72175000Y-82000000D03*
%TD*%
D32*
%TO.C,C17*%
X79000000Y-84020000D03*
X79000000Y-84980000D03*
%TD*%
D31*
%TO.C,C12*%
X62707000Y-69000000D03*
X63667000Y-69000000D03*
%TD*%
D32*
%TO.C,C6*%
X64500000Y-62707000D03*
X64500000Y-63667000D03*
%TD*%
%TO.C,C10*%
X61400000Y-63820000D03*
X61400000Y-64780000D03*
%TD*%
D35*
%TO.C,F4*%
X41110000Y-108800000D03*
X45890000Y-108800000D03*
%TD*%
D32*
%TO.C,C3*%
X76250000Y-62707000D03*
X76250000Y-63667000D03*
%TD*%
M02*
