%TF.GenerationSoftware,KiCad,Pcbnew,10.0.1*%
%TF.CreationDate,2026-05-01T20:27:45-04:00*%
%TF.ProjectId,breakout-AS5047P,62726561-6b6f-4757-942d-415335303437,v1.1*%
%TF.SameCoordinates,Original*%
%TF.FileFunction,Copper,L1,Top*%
%TF.FilePolarity,Positive*%
%FSLAX46Y46*%
G04 Gerber Fmt 4.6, Leading zero omitted, Abs format (unit mm)*
G04 Created by KiCad (PCBNEW 10.0.1) date 2026-05-01 20:27:45*
%MOMM*%
%LPD*%
G01*
G04 APERTURE LIST*
G04 Aperture macros list*
%AMRoundRect*
0 Rectangle with rounded corners*
0 $1 Rounding radius*
0 $2 $3 $4 $5 $6 $7 $8 $9 X,Y pos of 4 corners*
0 Add a 4 corners polygon primitive as box body*
4,1,4,$2,$3,$4,$5,$6,$7,$8,$9,$2,$3,0*
0 Add four circle primitives for the rounded corners*
1,1,$1+$1,$2,$3*
1,1,$1+$1,$4,$5*
1,1,$1+$1,$6,$7*
1,1,$1+$1,$8,$9*
0 Add four rect primitives between the rounded corners*
20,1,$1+$1,$2,$3,$4,$5,0*
20,1,$1+$1,$4,$5,$6,$7,0*
20,1,$1+$1,$6,$7,$8,$9,0*
20,1,$1+$1,$8,$9,$2,$3,0*%
G04 Aperture macros list end*
%TA.AperFunction,NonConductor*%
%ADD10C,0.200000*%
%TD*%
%ADD11C,0.200000*%
%ADD12C,0.300000*%
%TA.AperFunction,NonConductor*%
%ADD13C,0.300000*%
%TD*%
%TA.AperFunction,EtchedComponent*%
%ADD14C,0.000000*%
%TD*%
%TA.AperFunction,SMDPad,CuDef*%
%ADD15RoundRect,0.100000X-0.637500X-0.100000X0.637500X-0.100000X0.637500X0.100000X-0.637500X0.100000X0*%
%TD*%
%TA.AperFunction,ComponentPad*%
%ADD16C,6.400000*%
%TD*%
%TA.AperFunction,SMDPad,CuDef*%
%ADD17RoundRect,0.237500X0.237500X-0.300000X0.237500X0.300000X-0.237500X0.300000X-0.237500X-0.300000X0*%
%TD*%
%TA.AperFunction,ComponentPad*%
%ADD18R,1.700000X1.700000*%
%TD*%
%TA.AperFunction,ComponentPad*%
%ADD19C,1.700000*%
%TD*%
%TA.AperFunction,Conductor*%
%ADD20C,0.200000*%
%TD*%
%TA.AperFunction,Conductor*%
%ADD21C,0.500000*%
%TD*%
%TA.AperFunction,Conductor*%
%ADD22C,0.400000*%
%TD*%
G04 APERTURE END LIST*
D10*
X112100000Y-52500000D02*
X111700000Y-52100000D01*
X112500000Y-52100000D01*
X112100000Y-52500000D01*
%TA.AperFunction,NonConductor*%
G36*
X112100000Y-52500000D02*
G01*
X111700000Y-52100000D01*
X112500000Y-52100000D01*
X112100000Y-52500000D01*
G37*
%TD.AperFunction*%
X101000000Y-74000000D02*
X100000000Y-75000000D01*
X101000000Y-76000000D02*
X100000000Y-75000000D01*
X108500000Y-40000000D02*
X121500000Y-40000000D01*
X121500000Y-50000000D01*
X108500000Y-50000000D01*
X108500000Y-40000000D01*
X111500000Y-75000000D02*
X100000000Y-75000000D01*
X113000000Y-52250000D02*
X117000000Y-52250000D01*
X113000000Y-57750000D02*
X117000000Y-57750000D01*
X118500000Y-75000000D02*
X130000000Y-75000000D01*
X129000000Y-74000000D02*
X130000000Y-75000000D01*
X129000000Y-76000000D02*
X130000000Y-75000000D01*
D11*
D10*
X109941101Y-41441980D02*
X109893482Y-41489600D01*
X109893482Y-41489600D02*
X109750625Y-41537219D01*
X109750625Y-41537219D02*
X109655387Y-41537219D01*
X109655387Y-41537219D02*
X109512530Y-41489600D01*
X109512530Y-41489600D02*
X109417292Y-41394361D01*
X109417292Y-41394361D02*
X109369673Y-41299123D01*
X109369673Y-41299123D02*
X109322054Y-41108647D01*
X109322054Y-41108647D02*
X109322054Y-40965790D01*
X109322054Y-40965790D02*
X109369673Y-40775314D01*
X109369673Y-40775314D02*
X109417292Y-40680076D01*
X109417292Y-40680076D02*
X109512530Y-40584838D01*
X109512530Y-40584838D02*
X109655387Y-40537219D01*
X109655387Y-40537219D02*
X109750625Y-40537219D01*
X109750625Y-40537219D02*
X109893482Y-40584838D01*
X109893482Y-40584838D02*
X109941101Y-40632457D01*
X110322054Y-41489600D02*
X110464911Y-41537219D01*
X110464911Y-41537219D02*
X110703006Y-41537219D01*
X110703006Y-41537219D02*
X110798244Y-41489600D01*
X110798244Y-41489600D02*
X110845863Y-41441980D01*
X110845863Y-41441980D02*
X110893482Y-41346742D01*
X110893482Y-41346742D02*
X110893482Y-41251504D01*
X110893482Y-41251504D02*
X110845863Y-41156266D01*
X110845863Y-41156266D02*
X110798244Y-41108647D01*
X110798244Y-41108647D02*
X110703006Y-41061028D01*
X110703006Y-41061028D02*
X110512530Y-41013409D01*
X110512530Y-41013409D02*
X110417292Y-40965790D01*
X110417292Y-40965790D02*
X110369673Y-40918171D01*
X110369673Y-40918171D02*
X110322054Y-40822933D01*
X110322054Y-40822933D02*
X110322054Y-40727695D01*
X110322054Y-40727695D02*
X110369673Y-40632457D01*
X110369673Y-40632457D02*
X110417292Y-40584838D01*
X110417292Y-40584838D02*
X110512530Y-40537219D01*
X110512530Y-40537219D02*
X110750625Y-40537219D01*
X110750625Y-40537219D02*
X110893482Y-40584838D01*
X109941101Y-43051924D02*
X109893482Y-43099544D01*
X109893482Y-43099544D02*
X109750625Y-43147163D01*
X109750625Y-43147163D02*
X109655387Y-43147163D01*
X109655387Y-43147163D02*
X109512530Y-43099544D01*
X109512530Y-43099544D02*
X109417292Y-43004305D01*
X109417292Y-43004305D02*
X109369673Y-42909067D01*
X109369673Y-42909067D02*
X109322054Y-42718591D01*
X109322054Y-42718591D02*
X109322054Y-42575734D01*
X109322054Y-42575734D02*
X109369673Y-42385258D01*
X109369673Y-42385258D02*
X109417292Y-42290020D01*
X109417292Y-42290020D02*
X109512530Y-42194782D01*
X109512530Y-42194782D02*
X109655387Y-42147163D01*
X109655387Y-42147163D02*
X109750625Y-42147163D01*
X109750625Y-42147163D02*
X109893482Y-42194782D01*
X109893482Y-42194782D02*
X109941101Y-42242401D01*
X110845863Y-43147163D02*
X110369673Y-43147163D01*
X110369673Y-43147163D02*
X110369673Y-42147163D01*
X111179197Y-43147163D02*
X111179197Y-42147163D01*
X111750625Y-43147163D02*
X111322054Y-42575734D01*
X111750625Y-42147163D02*
X111179197Y-42718591D01*
X109369673Y-44757107D02*
X109369673Y-43757107D01*
X109369673Y-43757107D02*
X109703006Y-44471392D01*
X109703006Y-44471392D02*
X110036339Y-43757107D01*
X110036339Y-43757107D02*
X110036339Y-44757107D01*
X110703006Y-43757107D02*
X110893482Y-43757107D01*
X110893482Y-43757107D02*
X110988720Y-43804726D01*
X110988720Y-43804726D02*
X111083958Y-43899964D01*
X111083958Y-43899964D02*
X111131577Y-44090440D01*
X111131577Y-44090440D02*
X111131577Y-44423773D01*
X111131577Y-44423773D02*
X111083958Y-44614249D01*
X111083958Y-44614249D02*
X110988720Y-44709488D01*
X110988720Y-44709488D02*
X110893482Y-44757107D01*
X110893482Y-44757107D02*
X110703006Y-44757107D01*
X110703006Y-44757107D02*
X110607768Y-44709488D01*
X110607768Y-44709488D02*
X110512530Y-44614249D01*
X110512530Y-44614249D02*
X110464911Y-44423773D01*
X110464911Y-44423773D02*
X110464911Y-44090440D01*
X110464911Y-44090440D02*
X110512530Y-43899964D01*
X110512530Y-43899964D02*
X110607768Y-43804726D01*
X110607768Y-43804726D02*
X110703006Y-43757107D01*
X111512530Y-44709488D02*
X111655387Y-44757107D01*
X111655387Y-44757107D02*
X111893482Y-44757107D01*
X111893482Y-44757107D02*
X111988720Y-44709488D01*
X111988720Y-44709488D02*
X112036339Y-44661868D01*
X112036339Y-44661868D02*
X112083958Y-44566630D01*
X112083958Y-44566630D02*
X112083958Y-44471392D01*
X112083958Y-44471392D02*
X112036339Y-44376154D01*
X112036339Y-44376154D02*
X111988720Y-44328535D01*
X111988720Y-44328535D02*
X111893482Y-44280916D01*
X111893482Y-44280916D02*
X111703006Y-44233297D01*
X111703006Y-44233297D02*
X111607768Y-44185678D01*
X111607768Y-44185678D02*
X111560149Y-44138059D01*
X111560149Y-44138059D02*
X111512530Y-44042821D01*
X111512530Y-44042821D02*
X111512530Y-43947583D01*
X111512530Y-43947583D02*
X111560149Y-43852345D01*
X111560149Y-43852345D02*
X111607768Y-43804726D01*
X111607768Y-43804726D02*
X111703006Y-43757107D01*
X111703006Y-43757107D02*
X111941101Y-43757107D01*
X111941101Y-43757107D02*
X112083958Y-43804726D01*
X112512530Y-44757107D02*
X112512530Y-43757107D01*
X109369673Y-46367051D02*
X109369673Y-45367051D01*
X109369673Y-45367051D02*
X109703006Y-46081336D01*
X109703006Y-46081336D02*
X110036339Y-45367051D01*
X110036339Y-45367051D02*
X110036339Y-46367051D01*
X110512530Y-46367051D02*
X110512530Y-45367051D01*
X110941101Y-46319432D02*
X111083958Y-46367051D01*
X111083958Y-46367051D02*
X111322053Y-46367051D01*
X111322053Y-46367051D02*
X111417291Y-46319432D01*
X111417291Y-46319432D02*
X111464910Y-46271812D01*
X111464910Y-46271812D02*
X111512529Y-46176574D01*
X111512529Y-46176574D02*
X111512529Y-46081336D01*
X111512529Y-46081336D02*
X111464910Y-45986098D01*
X111464910Y-45986098D02*
X111417291Y-45938479D01*
X111417291Y-45938479D02*
X111322053Y-45890860D01*
X111322053Y-45890860D02*
X111131577Y-45843241D01*
X111131577Y-45843241D02*
X111036339Y-45795622D01*
X111036339Y-45795622D02*
X110988720Y-45748003D01*
X110988720Y-45748003D02*
X110941101Y-45652765D01*
X110941101Y-45652765D02*
X110941101Y-45557527D01*
X110941101Y-45557527D02*
X110988720Y-45462289D01*
X110988720Y-45462289D02*
X111036339Y-45414670D01*
X111036339Y-45414670D02*
X111131577Y-45367051D01*
X111131577Y-45367051D02*
X111369672Y-45367051D01*
X111369672Y-45367051D02*
X111512529Y-45414670D01*
X112131577Y-45367051D02*
X112226815Y-45367051D01*
X112226815Y-45367051D02*
X112322053Y-45414670D01*
X112322053Y-45414670D02*
X112369672Y-45462289D01*
X112369672Y-45462289D02*
X112417291Y-45557527D01*
X112417291Y-45557527D02*
X112464910Y-45748003D01*
X112464910Y-45748003D02*
X112464910Y-45986098D01*
X112464910Y-45986098D02*
X112417291Y-46176574D01*
X112417291Y-46176574D02*
X112369672Y-46271812D01*
X112369672Y-46271812D02*
X112322053Y-46319432D01*
X112322053Y-46319432D02*
X112226815Y-46367051D01*
X112226815Y-46367051D02*
X112131577Y-46367051D01*
X112131577Y-46367051D02*
X112036339Y-46319432D01*
X112036339Y-46319432D02*
X111988720Y-46271812D01*
X111988720Y-46271812D02*
X111941101Y-46176574D01*
X111941101Y-46176574D02*
X111893482Y-45986098D01*
X111893482Y-45986098D02*
X111893482Y-45748003D01*
X111893482Y-45748003D02*
X111941101Y-45557527D01*
X111941101Y-45557527D02*
X111988720Y-45462289D01*
X111988720Y-45462289D02*
X112036339Y-45414670D01*
X112036339Y-45414670D02*
X112131577Y-45367051D01*
X109369673Y-47453185D02*
X109703006Y-47453185D01*
X109845863Y-47976995D02*
X109369673Y-47976995D01*
X109369673Y-47976995D02*
X109369673Y-46976995D01*
X109369673Y-46976995D02*
X109845863Y-46976995D01*
X110274435Y-47976995D02*
X110274435Y-46976995D01*
X110274435Y-46976995D02*
X110845863Y-47976995D01*
X110845863Y-47976995D02*
X110845863Y-46976995D01*
X111893482Y-47881756D02*
X111845863Y-47929376D01*
X111845863Y-47929376D02*
X111703006Y-47976995D01*
X111703006Y-47976995D02*
X111607768Y-47976995D01*
X111607768Y-47976995D02*
X111464911Y-47929376D01*
X111464911Y-47929376D02*
X111369673Y-47834137D01*
X111369673Y-47834137D02*
X111322054Y-47738899D01*
X111322054Y-47738899D02*
X111274435Y-47548423D01*
X111274435Y-47548423D02*
X111274435Y-47405566D01*
X111274435Y-47405566D02*
X111322054Y-47215090D01*
X111322054Y-47215090D02*
X111369673Y-47119852D01*
X111369673Y-47119852D02*
X111464911Y-47024614D01*
X111464911Y-47024614D02*
X111607768Y-46976995D01*
X111607768Y-46976995D02*
X111703006Y-46976995D01*
X111703006Y-46976995D02*
X111845863Y-47024614D01*
X111845863Y-47024614D02*
X111893482Y-47072233D01*
X112274435Y-47691280D02*
X112750625Y-47691280D01*
X112179197Y-47976995D02*
X112512530Y-46976995D01*
X112512530Y-46976995D02*
X112845863Y-47976995D01*
X109369673Y-49063129D02*
X109703006Y-49063129D01*
X109845863Y-49586939D02*
X109369673Y-49586939D01*
X109369673Y-49586939D02*
X109369673Y-48586939D01*
X109369673Y-48586939D02*
X109845863Y-48586939D01*
X110274435Y-49586939D02*
X110274435Y-48586939D01*
X110274435Y-48586939D02*
X110845863Y-49586939D01*
X110845863Y-49586939D02*
X110845863Y-48586939D01*
X111893482Y-49491700D02*
X111845863Y-49539320D01*
X111845863Y-49539320D02*
X111703006Y-49586939D01*
X111703006Y-49586939D02*
X111607768Y-49586939D01*
X111607768Y-49586939D02*
X111464911Y-49539320D01*
X111464911Y-49539320D02*
X111369673Y-49444081D01*
X111369673Y-49444081D02*
X111322054Y-49348843D01*
X111322054Y-49348843D02*
X111274435Y-49158367D01*
X111274435Y-49158367D02*
X111274435Y-49015510D01*
X111274435Y-49015510D02*
X111322054Y-48825034D01*
X111322054Y-48825034D02*
X111369673Y-48729796D01*
X111369673Y-48729796D02*
X111464911Y-48634558D01*
X111464911Y-48634558D02*
X111607768Y-48586939D01*
X111607768Y-48586939D02*
X111703006Y-48586939D01*
X111703006Y-48586939D02*
X111845863Y-48634558D01*
X111845863Y-48634558D02*
X111893482Y-48682177D01*
X112655387Y-49063129D02*
X112798244Y-49110748D01*
X112798244Y-49110748D02*
X112845863Y-49158367D01*
X112845863Y-49158367D02*
X112893482Y-49253605D01*
X112893482Y-49253605D02*
X112893482Y-49396462D01*
X112893482Y-49396462D02*
X112845863Y-49491700D01*
X112845863Y-49491700D02*
X112798244Y-49539320D01*
X112798244Y-49539320D02*
X112703006Y-49586939D01*
X112703006Y-49586939D02*
X112322054Y-49586939D01*
X112322054Y-49586939D02*
X112322054Y-48586939D01*
X112322054Y-48586939D02*
X112655387Y-48586939D01*
X112655387Y-48586939D02*
X112750625Y-48634558D01*
X112750625Y-48634558D02*
X112798244Y-48682177D01*
X112798244Y-48682177D02*
X112845863Y-48777415D01*
X112845863Y-48777415D02*
X112845863Y-48872653D01*
X112845863Y-48872653D02*
X112798244Y-48967891D01*
X112798244Y-48967891D02*
X112750625Y-49015510D01*
X112750625Y-49015510D02*
X112655387Y-49063129D01*
X112655387Y-49063129D02*
X112322054Y-49063129D01*
D11*
D10*
X117677946Y-41013409D02*
X118011279Y-41013409D01*
X118154136Y-41537219D02*
X117677946Y-41537219D01*
X117677946Y-41537219D02*
X117677946Y-40537219D01*
X117677946Y-40537219D02*
X118154136Y-40537219D01*
X118582708Y-41537219D02*
X118582708Y-40537219D01*
X118582708Y-40537219D02*
X119154136Y-41537219D01*
X119154136Y-41537219D02*
X119154136Y-40537219D01*
X120201755Y-41441980D02*
X120154136Y-41489600D01*
X120154136Y-41489600D02*
X120011279Y-41537219D01*
X120011279Y-41537219D02*
X119916041Y-41537219D01*
X119916041Y-41537219D02*
X119773184Y-41489600D01*
X119773184Y-41489600D02*
X119677946Y-41394361D01*
X119677946Y-41394361D02*
X119630327Y-41299123D01*
X119630327Y-41299123D02*
X119582708Y-41108647D01*
X119582708Y-41108647D02*
X119582708Y-40965790D01*
X119582708Y-40965790D02*
X119630327Y-40775314D01*
X119630327Y-40775314D02*
X119677946Y-40680076D01*
X119677946Y-40680076D02*
X119773184Y-40584838D01*
X119773184Y-40584838D02*
X119916041Y-40537219D01*
X119916041Y-40537219D02*
X120011279Y-40537219D01*
X120011279Y-40537219D02*
X120154136Y-40584838D01*
X120154136Y-40584838D02*
X120201755Y-40632457D01*
X120630327Y-41537219D02*
X120630327Y-40537219D01*
X118582707Y-42194782D02*
X118487469Y-42147163D01*
X118487469Y-42147163D02*
X118344612Y-42147163D01*
X118344612Y-42147163D02*
X118201755Y-42194782D01*
X118201755Y-42194782D02*
X118106517Y-42290020D01*
X118106517Y-42290020D02*
X118058898Y-42385258D01*
X118058898Y-42385258D02*
X118011279Y-42575734D01*
X118011279Y-42575734D02*
X118011279Y-42718591D01*
X118011279Y-42718591D02*
X118058898Y-42909067D01*
X118058898Y-42909067D02*
X118106517Y-43004305D01*
X118106517Y-43004305D02*
X118201755Y-43099544D01*
X118201755Y-43099544D02*
X118344612Y-43147163D01*
X118344612Y-43147163D02*
X118439850Y-43147163D01*
X118439850Y-43147163D02*
X118582707Y-43099544D01*
X118582707Y-43099544D02*
X118630326Y-43051924D01*
X118630326Y-43051924D02*
X118630326Y-42718591D01*
X118630326Y-42718591D02*
X118439850Y-42718591D01*
X119058898Y-43147163D02*
X119058898Y-42147163D01*
X119058898Y-42147163D02*
X119630326Y-43147163D01*
X119630326Y-43147163D02*
X119630326Y-42147163D01*
X120106517Y-43147163D02*
X120106517Y-42147163D01*
X120106517Y-42147163D02*
X120344612Y-42147163D01*
X120344612Y-42147163D02*
X120487469Y-42194782D01*
X120487469Y-42194782D02*
X120582707Y-42290020D01*
X120582707Y-42290020D02*
X120630326Y-42385258D01*
X120630326Y-42385258D02*
X120677945Y-42575734D01*
X120677945Y-42575734D02*
X120677945Y-42718591D01*
X120677945Y-42718591D02*
X120630326Y-42909067D01*
X120630326Y-42909067D02*
X120582707Y-43004305D01*
X120582707Y-43004305D02*
X120487469Y-43099544D01*
X120487469Y-43099544D02*
X120344612Y-43147163D01*
X120344612Y-43147163D02*
X120106517Y-43147163D01*
X118582707Y-43804726D02*
X118487469Y-43757107D01*
X118487469Y-43757107D02*
X118344612Y-43757107D01*
X118344612Y-43757107D02*
X118201755Y-43804726D01*
X118201755Y-43804726D02*
X118106517Y-43899964D01*
X118106517Y-43899964D02*
X118058898Y-43995202D01*
X118058898Y-43995202D02*
X118011279Y-44185678D01*
X118011279Y-44185678D02*
X118011279Y-44328535D01*
X118011279Y-44328535D02*
X118058898Y-44519011D01*
X118058898Y-44519011D02*
X118106517Y-44614249D01*
X118106517Y-44614249D02*
X118201755Y-44709488D01*
X118201755Y-44709488D02*
X118344612Y-44757107D01*
X118344612Y-44757107D02*
X118439850Y-44757107D01*
X118439850Y-44757107D02*
X118582707Y-44709488D01*
X118582707Y-44709488D02*
X118630326Y-44661868D01*
X118630326Y-44661868D02*
X118630326Y-44328535D01*
X118630326Y-44328535D02*
X118439850Y-44328535D01*
X119058898Y-44757107D02*
X119058898Y-43757107D01*
X119058898Y-43757107D02*
X119630326Y-44757107D01*
X119630326Y-44757107D02*
X119630326Y-43757107D01*
X120106517Y-44757107D02*
X120106517Y-43757107D01*
X120106517Y-43757107D02*
X120344612Y-43757107D01*
X120344612Y-43757107D02*
X120487469Y-43804726D01*
X120487469Y-43804726D02*
X120582707Y-43899964D01*
X120582707Y-43899964D02*
X120630326Y-43995202D01*
X120630326Y-43995202D02*
X120677945Y-44185678D01*
X120677945Y-44185678D02*
X120677945Y-44328535D01*
X120677945Y-44328535D02*
X120630326Y-44519011D01*
X120630326Y-44519011D02*
X120582707Y-44614249D01*
X120582707Y-44614249D02*
X120487469Y-44709488D01*
X120487469Y-44709488D02*
X120344612Y-44757107D01*
X120344612Y-44757107D02*
X120106517Y-44757107D01*
X117773184Y-45367051D02*
X118392231Y-45367051D01*
X118392231Y-45367051D02*
X118058898Y-45748003D01*
X118058898Y-45748003D02*
X118201755Y-45748003D01*
X118201755Y-45748003D02*
X118296993Y-45795622D01*
X118296993Y-45795622D02*
X118344612Y-45843241D01*
X118344612Y-45843241D02*
X118392231Y-45938479D01*
X118392231Y-45938479D02*
X118392231Y-46176574D01*
X118392231Y-46176574D02*
X118344612Y-46271812D01*
X118344612Y-46271812D02*
X118296993Y-46319432D01*
X118296993Y-46319432D02*
X118201755Y-46367051D01*
X118201755Y-46367051D02*
X117916041Y-46367051D01*
X117916041Y-46367051D02*
X117820803Y-46319432D01*
X117820803Y-46319432D02*
X117773184Y-46271812D01*
X118820803Y-46271812D02*
X118868422Y-46319432D01*
X118868422Y-46319432D02*
X118820803Y-46367051D01*
X118820803Y-46367051D02*
X118773184Y-46319432D01*
X118773184Y-46319432D02*
X118820803Y-46271812D01*
X118820803Y-46271812D02*
X118820803Y-46367051D01*
X119201755Y-45367051D02*
X119820802Y-45367051D01*
X119820802Y-45367051D02*
X119487469Y-45748003D01*
X119487469Y-45748003D02*
X119630326Y-45748003D01*
X119630326Y-45748003D02*
X119725564Y-45795622D01*
X119725564Y-45795622D02*
X119773183Y-45843241D01*
X119773183Y-45843241D02*
X119820802Y-45938479D01*
X119820802Y-45938479D02*
X119820802Y-46176574D01*
X119820802Y-46176574D02*
X119773183Y-46271812D01*
X119773183Y-46271812D02*
X119725564Y-46319432D01*
X119725564Y-46319432D02*
X119630326Y-46367051D01*
X119630326Y-46367051D02*
X119344612Y-46367051D01*
X119344612Y-46367051D02*
X119249374Y-46319432D01*
X119249374Y-46319432D02*
X119201755Y-46271812D01*
X120106517Y-45367051D02*
X120439850Y-46367051D01*
X120439850Y-46367051D02*
X120773183Y-45367051D01*
X117773184Y-46976995D02*
X118392231Y-46976995D01*
X118392231Y-46976995D02*
X118058898Y-47357947D01*
X118058898Y-47357947D02*
X118201755Y-47357947D01*
X118201755Y-47357947D02*
X118296993Y-47405566D01*
X118296993Y-47405566D02*
X118344612Y-47453185D01*
X118344612Y-47453185D02*
X118392231Y-47548423D01*
X118392231Y-47548423D02*
X118392231Y-47786518D01*
X118392231Y-47786518D02*
X118344612Y-47881756D01*
X118344612Y-47881756D02*
X118296993Y-47929376D01*
X118296993Y-47929376D02*
X118201755Y-47976995D01*
X118201755Y-47976995D02*
X117916041Y-47976995D01*
X117916041Y-47976995D02*
X117820803Y-47929376D01*
X117820803Y-47929376D02*
X117773184Y-47881756D01*
X118820803Y-47881756D02*
X118868422Y-47929376D01*
X118868422Y-47929376D02*
X118820803Y-47976995D01*
X118820803Y-47976995D02*
X118773184Y-47929376D01*
X118773184Y-47929376D02*
X118820803Y-47881756D01*
X118820803Y-47881756D02*
X118820803Y-47976995D01*
X119201755Y-46976995D02*
X119820802Y-46976995D01*
X119820802Y-46976995D02*
X119487469Y-47357947D01*
X119487469Y-47357947D02*
X119630326Y-47357947D01*
X119630326Y-47357947D02*
X119725564Y-47405566D01*
X119725564Y-47405566D02*
X119773183Y-47453185D01*
X119773183Y-47453185D02*
X119820802Y-47548423D01*
X119820802Y-47548423D02*
X119820802Y-47786518D01*
X119820802Y-47786518D02*
X119773183Y-47881756D01*
X119773183Y-47881756D02*
X119725564Y-47929376D01*
X119725564Y-47929376D02*
X119630326Y-47976995D01*
X119630326Y-47976995D02*
X119344612Y-47976995D01*
X119344612Y-47976995D02*
X119249374Y-47929376D01*
X119249374Y-47929376D02*
X119201755Y-47881756D01*
X120106517Y-46976995D02*
X120439850Y-47976995D01*
X120439850Y-47976995D02*
X120773183Y-46976995D01*
X117820803Y-49586939D02*
X117820803Y-48586939D01*
X117820803Y-48586939D02*
X118201755Y-48586939D01*
X118201755Y-48586939D02*
X118296993Y-48634558D01*
X118296993Y-48634558D02*
X118344612Y-48682177D01*
X118344612Y-48682177D02*
X118392231Y-48777415D01*
X118392231Y-48777415D02*
X118392231Y-48920272D01*
X118392231Y-48920272D02*
X118344612Y-49015510D01*
X118344612Y-49015510D02*
X118296993Y-49063129D01*
X118296993Y-49063129D02*
X118201755Y-49110748D01*
X118201755Y-49110748D02*
X117820803Y-49110748D01*
X118725565Y-48586939D02*
X118963660Y-49586939D01*
X118963660Y-49586939D02*
X119154136Y-48872653D01*
X119154136Y-48872653D02*
X119344612Y-49586939D01*
X119344612Y-49586939D02*
X119582708Y-48586939D01*
X119963660Y-49586939D02*
X119963660Y-48586939D01*
X119963660Y-48586939D02*
X120296993Y-49301224D01*
X120296993Y-49301224D02*
X120630326Y-48586939D01*
X120630326Y-48586939D02*
X120630326Y-49586939D01*
D11*
D10*
X113000000Y-74785552D02*
X113000000Y-75452219D01*
X112761905Y-74404600D02*
X112523810Y-75118885D01*
X112523810Y-75118885D02*
X113142857Y-75118885D01*
X113714286Y-74452219D02*
X113809524Y-74452219D01*
X113809524Y-74452219D02*
X113904762Y-74499838D01*
X113904762Y-74499838D02*
X113952381Y-74547457D01*
X113952381Y-74547457D02*
X114000000Y-74642695D01*
X114000000Y-74642695D02*
X114047619Y-74833171D01*
X114047619Y-74833171D02*
X114047619Y-75071266D01*
X114047619Y-75071266D02*
X114000000Y-75261742D01*
X114000000Y-75261742D02*
X113952381Y-75356980D01*
X113952381Y-75356980D02*
X113904762Y-75404600D01*
X113904762Y-75404600D02*
X113809524Y-75452219D01*
X113809524Y-75452219D02*
X113714286Y-75452219D01*
X113714286Y-75452219D02*
X113619048Y-75404600D01*
X113619048Y-75404600D02*
X113571429Y-75356980D01*
X113571429Y-75356980D02*
X113523810Y-75261742D01*
X113523810Y-75261742D02*
X113476191Y-75071266D01*
X113476191Y-75071266D02*
X113476191Y-74833171D01*
X113476191Y-74833171D02*
X113523810Y-74642695D01*
X113523810Y-74642695D02*
X113571429Y-74547457D01*
X113571429Y-74547457D02*
X113619048Y-74499838D01*
X113619048Y-74499838D02*
X113714286Y-74452219D01*
X115238096Y-75452219D02*
X115238096Y-74785552D01*
X115238096Y-74880790D02*
X115285715Y-74833171D01*
X115285715Y-74833171D02*
X115380953Y-74785552D01*
X115380953Y-74785552D02*
X115523810Y-74785552D01*
X115523810Y-74785552D02*
X115619048Y-74833171D01*
X115619048Y-74833171D02*
X115666667Y-74928409D01*
X115666667Y-74928409D02*
X115666667Y-75452219D01*
X115666667Y-74928409D02*
X115714286Y-74833171D01*
X115714286Y-74833171D02*
X115809524Y-74785552D01*
X115809524Y-74785552D02*
X115952381Y-74785552D01*
X115952381Y-74785552D02*
X116047620Y-74833171D01*
X116047620Y-74833171D02*
X116095239Y-74928409D01*
X116095239Y-74928409D02*
X116095239Y-75452219D01*
X116571429Y-75452219D02*
X116571429Y-74785552D01*
X116571429Y-74880790D02*
X116619048Y-74833171D01*
X116619048Y-74833171D02*
X116714286Y-74785552D01*
X116714286Y-74785552D02*
X116857143Y-74785552D01*
X116857143Y-74785552D02*
X116952381Y-74833171D01*
X116952381Y-74833171D02*
X117000000Y-74928409D01*
X117000000Y-74928409D02*
X117000000Y-75452219D01*
X117000000Y-74928409D02*
X117047619Y-74833171D01*
X117047619Y-74833171D02*
X117142857Y-74785552D01*
X117142857Y-74785552D02*
X117285714Y-74785552D01*
X117285714Y-74785552D02*
X117380953Y-74833171D01*
X117380953Y-74833171D02*
X117428572Y-74928409D01*
X117428572Y-74928409D02*
X117428572Y-75452219D01*
D12*
D13*
X104821430Y-36127257D02*
X105535716Y-36127257D01*
X104678573Y-36555828D02*
X105178573Y-35055828D01*
X105178573Y-35055828D02*
X105678573Y-36555828D01*
X106107144Y-36484400D02*
X106321430Y-36555828D01*
X106321430Y-36555828D02*
X106678572Y-36555828D01*
X106678572Y-36555828D02*
X106821430Y-36484400D01*
X106821430Y-36484400D02*
X106892858Y-36412971D01*
X106892858Y-36412971D02*
X106964287Y-36270114D01*
X106964287Y-36270114D02*
X106964287Y-36127257D01*
X106964287Y-36127257D02*
X106892858Y-35984400D01*
X106892858Y-35984400D02*
X106821430Y-35912971D01*
X106821430Y-35912971D02*
X106678572Y-35841542D01*
X106678572Y-35841542D02*
X106392858Y-35770114D01*
X106392858Y-35770114D02*
X106250001Y-35698685D01*
X106250001Y-35698685D02*
X106178572Y-35627257D01*
X106178572Y-35627257D02*
X106107144Y-35484400D01*
X106107144Y-35484400D02*
X106107144Y-35341542D01*
X106107144Y-35341542D02*
X106178572Y-35198685D01*
X106178572Y-35198685D02*
X106250001Y-35127257D01*
X106250001Y-35127257D02*
X106392858Y-35055828D01*
X106392858Y-35055828D02*
X106750001Y-35055828D01*
X106750001Y-35055828D02*
X106964287Y-35127257D01*
X108321429Y-35055828D02*
X107607143Y-35055828D01*
X107607143Y-35055828D02*
X107535715Y-35770114D01*
X107535715Y-35770114D02*
X107607143Y-35698685D01*
X107607143Y-35698685D02*
X107750001Y-35627257D01*
X107750001Y-35627257D02*
X108107143Y-35627257D01*
X108107143Y-35627257D02*
X108250001Y-35698685D01*
X108250001Y-35698685D02*
X108321429Y-35770114D01*
X108321429Y-35770114D02*
X108392858Y-35912971D01*
X108392858Y-35912971D02*
X108392858Y-36270114D01*
X108392858Y-36270114D02*
X108321429Y-36412971D01*
X108321429Y-36412971D02*
X108250001Y-36484400D01*
X108250001Y-36484400D02*
X108107143Y-36555828D01*
X108107143Y-36555828D02*
X107750001Y-36555828D01*
X107750001Y-36555828D02*
X107607143Y-36484400D01*
X107607143Y-36484400D02*
X107535715Y-36412971D01*
X109321429Y-35055828D02*
X109464286Y-35055828D01*
X109464286Y-35055828D02*
X109607143Y-35127257D01*
X109607143Y-35127257D02*
X109678572Y-35198685D01*
X109678572Y-35198685D02*
X109750000Y-35341542D01*
X109750000Y-35341542D02*
X109821429Y-35627257D01*
X109821429Y-35627257D02*
X109821429Y-35984400D01*
X109821429Y-35984400D02*
X109750000Y-36270114D01*
X109750000Y-36270114D02*
X109678572Y-36412971D01*
X109678572Y-36412971D02*
X109607143Y-36484400D01*
X109607143Y-36484400D02*
X109464286Y-36555828D01*
X109464286Y-36555828D02*
X109321429Y-36555828D01*
X109321429Y-36555828D02*
X109178572Y-36484400D01*
X109178572Y-36484400D02*
X109107143Y-36412971D01*
X109107143Y-36412971D02*
X109035714Y-36270114D01*
X109035714Y-36270114D02*
X108964286Y-35984400D01*
X108964286Y-35984400D02*
X108964286Y-35627257D01*
X108964286Y-35627257D02*
X109035714Y-35341542D01*
X109035714Y-35341542D02*
X109107143Y-35198685D01*
X109107143Y-35198685D02*
X109178572Y-35127257D01*
X109178572Y-35127257D02*
X109321429Y-35055828D01*
X111107143Y-35555828D02*
X111107143Y-36555828D01*
X110750000Y-34984400D02*
X110392857Y-36055828D01*
X110392857Y-36055828D02*
X111321428Y-36055828D01*
X111749999Y-35055828D02*
X112749999Y-35055828D01*
X112749999Y-35055828D02*
X112107142Y-36555828D01*
X113321427Y-36555828D02*
X113321427Y-35055828D01*
X113321427Y-35055828D02*
X113892856Y-35055828D01*
X113892856Y-35055828D02*
X114035713Y-35127257D01*
X114035713Y-35127257D02*
X114107142Y-35198685D01*
X114107142Y-35198685D02*
X114178570Y-35341542D01*
X114178570Y-35341542D02*
X114178570Y-35555828D01*
X114178570Y-35555828D02*
X114107142Y-35698685D01*
X114107142Y-35698685D02*
X114035713Y-35770114D01*
X114035713Y-35770114D02*
X113892856Y-35841542D01*
X113892856Y-35841542D02*
X113321427Y-35841542D01*
X116464284Y-35770114D02*
X116678570Y-35841542D01*
X116678570Y-35841542D02*
X116749999Y-35912971D01*
X116749999Y-35912971D02*
X116821427Y-36055828D01*
X116821427Y-36055828D02*
X116821427Y-36270114D01*
X116821427Y-36270114D02*
X116749999Y-36412971D01*
X116749999Y-36412971D02*
X116678570Y-36484400D01*
X116678570Y-36484400D02*
X116535713Y-36555828D01*
X116535713Y-36555828D02*
X115964284Y-36555828D01*
X115964284Y-36555828D02*
X115964284Y-35055828D01*
X115964284Y-35055828D02*
X116464284Y-35055828D01*
X116464284Y-35055828D02*
X116607142Y-35127257D01*
X116607142Y-35127257D02*
X116678570Y-35198685D01*
X116678570Y-35198685D02*
X116749999Y-35341542D01*
X116749999Y-35341542D02*
X116749999Y-35484400D01*
X116749999Y-35484400D02*
X116678570Y-35627257D01*
X116678570Y-35627257D02*
X116607142Y-35698685D01*
X116607142Y-35698685D02*
X116464284Y-35770114D01*
X116464284Y-35770114D02*
X115964284Y-35770114D01*
X117464284Y-36555828D02*
X117464284Y-35555828D01*
X117464284Y-35841542D02*
X117535713Y-35698685D01*
X117535713Y-35698685D02*
X117607142Y-35627257D01*
X117607142Y-35627257D02*
X117749999Y-35555828D01*
X117749999Y-35555828D02*
X117892856Y-35555828D01*
X118964284Y-36484400D02*
X118821427Y-36555828D01*
X118821427Y-36555828D02*
X118535713Y-36555828D01*
X118535713Y-36555828D02*
X118392855Y-36484400D01*
X118392855Y-36484400D02*
X118321427Y-36341542D01*
X118321427Y-36341542D02*
X118321427Y-35770114D01*
X118321427Y-35770114D02*
X118392855Y-35627257D01*
X118392855Y-35627257D02*
X118535713Y-35555828D01*
X118535713Y-35555828D02*
X118821427Y-35555828D01*
X118821427Y-35555828D02*
X118964284Y-35627257D01*
X118964284Y-35627257D02*
X119035713Y-35770114D01*
X119035713Y-35770114D02*
X119035713Y-35912971D01*
X119035713Y-35912971D02*
X118321427Y-36055828D01*
X120321427Y-36555828D02*
X120321427Y-35770114D01*
X120321427Y-35770114D02*
X120249998Y-35627257D01*
X120249998Y-35627257D02*
X120107141Y-35555828D01*
X120107141Y-35555828D02*
X119821427Y-35555828D01*
X119821427Y-35555828D02*
X119678569Y-35627257D01*
X120321427Y-36484400D02*
X120178569Y-36555828D01*
X120178569Y-36555828D02*
X119821427Y-36555828D01*
X119821427Y-36555828D02*
X119678569Y-36484400D01*
X119678569Y-36484400D02*
X119607141Y-36341542D01*
X119607141Y-36341542D02*
X119607141Y-36198685D01*
X119607141Y-36198685D02*
X119678569Y-36055828D01*
X119678569Y-36055828D02*
X119821427Y-35984400D01*
X119821427Y-35984400D02*
X120178569Y-35984400D01*
X120178569Y-35984400D02*
X120321427Y-35912971D01*
X121035712Y-36555828D02*
X121035712Y-35055828D01*
X121178570Y-35984400D02*
X121607141Y-36555828D01*
X121607141Y-35555828D02*
X121035712Y-36127257D01*
X122464284Y-36555828D02*
X122321427Y-36484400D01*
X122321427Y-36484400D02*
X122249998Y-36412971D01*
X122249998Y-36412971D02*
X122178570Y-36270114D01*
X122178570Y-36270114D02*
X122178570Y-35841542D01*
X122178570Y-35841542D02*
X122249998Y-35698685D01*
X122249998Y-35698685D02*
X122321427Y-35627257D01*
X122321427Y-35627257D02*
X122464284Y-35555828D01*
X122464284Y-35555828D02*
X122678570Y-35555828D01*
X122678570Y-35555828D02*
X122821427Y-35627257D01*
X122821427Y-35627257D02*
X122892856Y-35698685D01*
X122892856Y-35698685D02*
X122964284Y-35841542D01*
X122964284Y-35841542D02*
X122964284Y-36270114D01*
X122964284Y-36270114D02*
X122892856Y-36412971D01*
X122892856Y-36412971D02*
X122821427Y-36484400D01*
X122821427Y-36484400D02*
X122678570Y-36555828D01*
X122678570Y-36555828D02*
X122464284Y-36555828D01*
X124249999Y-35555828D02*
X124249999Y-36555828D01*
X123607141Y-35555828D02*
X123607141Y-36341542D01*
X123607141Y-36341542D02*
X123678570Y-36484400D01*
X123678570Y-36484400D02*
X123821427Y-36555828D01*
X123821427Y-36555828D02*
X124035713Y-36555828D01*
X124035713Y-36555828D02*
X124178570Y-36484400D01*
X124178570Y-36484400D02*
X124249999Y-36412971D01*
X124749999Y-35555828D02*
X125321427Y-35555828D01*
X124964284Y-35055828D02*
X124964284Y-36341542D01*
X124964284Y-36341542D02*
X125035713Y-36484400D01*
X125035713Y-36484400D02*
X125178570Y-36555828D01*
X125178570Y-36555828D02*
X125321427Y-36555828D01*
X111321429Y-38970744D02*
X110821429Y-38256458D01*
X110464286Y-38970744D02*
X110464286Y-37470744D01*
X110464286Y-37470744D02*
X111035715Y-37470744D01*
X111035715Y-37470744D02*
X111178572Y-37542173D01*
X111178572Y-37542173D02*
X111250001Y-37613601D01*
X111250001Y-37613601D02*
X111321429Y-37756458D01*
X111321429Y-37756458D02*
X111321429Y-37970744D01*
X111321429Y-37970744D02*
X111250001Y-38113601D01*
X111250001Y-38113601D02*
X111178572Y-38185030D01*
X111178572Y-38185030D02*
X111035715Y-38256458D01*
X111035715Y-38256458D02*
X110464286Y-38256458D01*
X112535715Y-38899316D02*
X112392858Y-38970744D01*
X112392858Y-38970744D02*
X112107144Y-38970744D01*
X112107144Y-38970744D02*
X111964286Y-38899316D01*
X111964286Y-38899316D02*
X111892858Y-38756458D01*
X111892858Y-38756458D02*
X111892858Y-38185030D01*
X111892858Y-38185030D02*
X111964286Y-38042173D01*
X111964286Y-38042173D02*
X112107144Y-37970744D01*
X112107144Y-37970744D02*
X112392858Y-37970744D01*
X112392858Y-37970744D02*
X112535715Y-38042173D01*
X112535715Y-38042173D02*
X112607144Y-38185030D01*
X112607144Y-38185030D02*
X112607144Y-38327887D01*
X112607144Y-38327887D02*
X111892858Y-38470744D01*
X113107143Y-37970744D02*
X113464286Y-38970744D01*
X113464286Y-38970744D02*
X113821429Y-37970744D01*
X115392857Y-37970744D02*
X115750000Y-38970744D01*
X115750000Y-38970744D02*
X116107143Y-37970744D01*
X117464286Y-38970744D02*
X116607143Y-38970744D01*
X117035714Y-38970744D02*
X117035714Y-37470744D01*
X117035714Y-37470744D02*
X116892857Y-37685030D01*
X116892857Y-37685030D02*
X116750000Y-37827887D01*
X116750000Y-37827887D02*
X116607143Y-37899316D01*
X118107142Y-38827887D02*
X118178571Y-38899316D01*
X118178571Y-38899316D02*
X118107142Y-38970744D01*
X118107142Y-38970744D02*
X118035714Y-38899316D01*
X118035714Y-38899316D02*
X118107142Y-38827887D01*
X118107142Y-38827887D02*
X118107142Y-38970744D01*
X119607143Y-38970744D02*
X118750000Y-38970744D01*
X119178571Y-38970744D02*
X119178571Y-37470744D01*
X119178571Y-37470744D02*
X119035714Y-37685030D01*
X119035714Y-37685030D02*
X118892857Y-37827887D01*
X118892857Y-37827887D02*
X118750000Y-37899316D01*
D14*
%TA.AperFunction,EtchedComponent*%
%TO.C,G\u002A\u002A\u002A*%
G36*
X111535000Y-71080000D02*
G01*
X111535000Y-71220000D01*
X111397500Y-71220000D01*
X111260000Y-71220000D01*
X111260000Y-71080000D01*
X111260000Y-70940000D01*
X111397500Y-70940000D01*
X111535000Y-70940000D01*
X111535000Y-71080000D01*
G37*
%TD.AperFunction*%
%TA.AperFunction,EtchedComponent*%
G36*
X113370000Y-70497500D02*
G01*
X113370000Y-71220000D01*
X113250000Y-71220000D01*
X113130000Y-71220000D01*
X113130000Y-70497500D01*
X113130000Y-69775000D01*
X113250000Y-69775000D01*
X113370000Y-69775000D01*
X113370000Y-70497500D01*
G37*
%TD.AperFunction*%
%TA.AperFunction,EtchedComponent*%
G36*
X114460000Y-63735000D02*
G01*
X114460000Y-64820000D01*
X114280000Y-64820000D01*
X114100000Y-64820000D01*
X114100000Y-63735000D01*
X114100000Y-62650000D01*
X114280000Y-62650000D01*
X114460000Y-62650000D01*
X114460000Y-63735000D01*
G37*
%TD.AperFunction*%
%TA.AperFunction,EtchedComponent*%
G36*
X115000000Y-68500000D02*
G01*
X115000000Y-69500000D01*
X114000000Y-69500000D01*
X113000000Y-69500000D01*
X113000000Y-68500000D01*
X113000000Y-67500000D01*
X114000000Y-67500000D01*
X115000000Y-67500000D01*
X115000000Y-68500000D01*
G37*
%TD.AperFunction*%
%TA.AperFunction,EtchedComponent*%
G36*
X118710000Y-71080000D02*
G01*
X118710000Y-71220000D01*
X118572500Y-71220000D01*
X118435000Y-71220000D01*
X118435000Y-71080000D01*
X118435000Y-70940000D01*
X118572500Y-70940000D01*
X118710000Y-70940000D01*
X118710000Y-71080000D01*
G37*
%TD.AperFunction*%
%TA.AperFunction,EtchedComponent*%
G36*
X111000000Y-62500000D02*
G01*
X111000000Y-63500000D01*
X110000000Y-63500000D01*
X109000000Y-63500000D01*
X109000000Y-64500000D01*
X109000000Y-65500000D01*
X108000000Y-65500000D01*
X107000000Y-65500000D01*
X107000000Y-63500000D01*
X107000000Y-61500000D01*
X109000000Y-61500000D01*
X111000000Y-61500000D01*
X111000000Y-62500000D01*
G37*
%TD.AperFunction*%
%TA.AperFunction,EtchedComponent*%
G36*
X111000000Y-67500000D02*
G01*
X111000000Y-69500000D01*
X109000000Y-69500000D01*
X107000000Y-69500000D01*
X107000000Y-68500000D01*
X107000000Y-67500000D01*
X108000000Y-67500000D01*
X109000000Y-67500000D01*
X109000000Y-66500000D01*
X109000000Y-65500000D01*
X110000000Y-65500000D01*
X111000000Y-65500000D01*
X111000000Y-67500000D01*
G37*
%TD.AperFunction*%
%TA.AperFunction,EtchedComponent*%
G36*
X123000000Y-62550000D02*
G01*
X123000000Y-63600000D01*
X122900000Y-63600000D01*
X122800000Y-63600000D01*
X122800000Y-62650000D01*
X122800000Y-61700000D01*
X121900000Y-61700000D01*
X121000000Y-61700000D01*
X121000000Y-61600000D01*
X121000000Y-61500000D01*
X122000000Y-61500000D01*
X123000000Y-61500000D01*
X123000000Y-62550000D01*
G37*
%TD.AperFunction*%
%TA.AperFunction,EtchedComponent*%
G36*
X121385000Y-69877500D02*
G01*
X121385000Y-69980000D01*
X121030000Y-69980000D01*
X120675000Y-69980000D01*
X120675000Y-70185000D01*
X120675000Y-70390000D01*
X120987500Y-70390000D01*
X121300000Y-70390000D01*
X121300000Y-70492500D01*
X121300000Y-70595000D01*
X120985000Y-70595000D01*
X120670000Y-70595000D01*
X120670000Y-70802500D01*
X120670000Y-71010000D01*
X121035000Y-71010000D01*
X121400000Y-71010000D01*
X121400000Y-71115000D01*
X121400000Y-71220000D01*
X120915000Y-71220000D01*
X120430000Y-71220000D01*
X120430000Y-70497500D01*
X120430000Y-69775000D01*
X120907500Y-69775000D01*
X121385000Y-69775000D01*
X121385000Y-69877500D01*
G37*
%TD.AperFunction*%
%TA.AperFunction,EtchedComponent*%
G36*
X117550619Y-70280795D02*
G01*
X117594554Y-70344898D01*
X117637017Y-70406816D01*
X117677655Y-70466039D01*
X117716116Y-70522052D01*
X117752046Y-70574343D01*
X117785092Y-70622400D01*
X117814902Y-70665709D01*
X117841123Y-70703758D01*
X117863401Y-70736034D01*
X117881384Y-70762025D01*
X117894720Y-70781217D01*
X117903054Y-70793097D01*
X117905926Y-70797045D01*
X117907334Y-70798378D01*
X117908583Y-70798439D01*
X117909682Y-70796675D01*
X117910642Y-70792534D01*
X117911472Y-70785460D01*
X117912181Y-70774900D01*
X117912780Y-70760301D01*
X117913279Y-70741109D01*
X117913686Y-70716771D01*
X117914012Y-70686732D01*
X117914267Y-70650439D01*
X117914460Y-70607338D01*
X117914601Y-70556876D01*
X117914699Y-70498499D01*
X117914766Y-70431653D01*
X117914809Y-70355784D01*
X117914833Y-70291250D01*
X117915000Y-69775000D01*
X118035000Y-69775000D01*
X118155000Y-69775000D01*
X118155000Y-70497500D01*
X118155000Y-71220000D01*
X118045881Y-71220000D01*
X117936763Y-71220000D01*
X117574631Y-70691478D01*
X117212500Y-70162956D01*
X117211227Y-70691478D01*
X117209954Y-71220000D01*
X117087477Y-71220000D01*
X116965000Y-71220000D01*
X116965000Y-70497500D01*
X116965000Y-69775000D01*
X117084526Y-69775000D01*
X117204052Y-69775000D01*
X117550619Y-70280795D01*
G37*
%TD.AperFunction*%
%TA.AperFunction,EtchedComponent*%
G36*
X120033096Y-62651186D02*
G01*
X120211192Y-62652500D01*
X120741846Y-63426752D01*
X121272500Y-64201004D01*
X121273765Y-63425502D01*
X121275031Y-62650000D01*
X121455015Y-62650000D01*
X121635000Y-62650000D01*
X121635000Y-63735068D01*
X121635000Y-64820136D01*
X121471471Y-64818818D01*
X121307943Y-64817500D01*
X120767488Y-64028767D01*
X120712577Y-63948644D01*
X120659139Y-63870699D01*
X120607451Y-63795334D01*
X120557791Y-63722954D01*
X120510437Y-63653962D01*
X120465665Y-63588761D01*
X120423754Y-63527755D01*
X120384981Y-63471347D01*
X120349623Y-63419942D01*
X120317958Y-63373942D01*
X120290263Y-63333752D01*
X120266816Y-63299774D01*
X120247895Y-63272412D01*
X120233776Y-63252070D01*
X120224737Y-63239151D01*
X120221056Y-63234059D01*
X120221017Y-63234017D01*
X120220194Y-63235224D01*
X120219444Y-63240810D01*
X120218763Y-63251141D01*
X120218150Y-63266583D01*
X120217601Y-63287501D01*
X120217113Y-63314262D01*
X120216684Y-63347232D01*
X120216311Y-63386776D01*
X120215991Y-63433261D01*
X120215721Y-63487052D01*
X120215499Y-63548516D01*
X120215321Y-63618018D01*
X120215185Y-63695925D01*
X120215088Y-63782602D01*
X120215028Y-63878416D01*
X120215001Y-63983731D01*
X120215000Y-64024000D01*
X120215000Y-64820000D01*
X120035000Y-64820000D01*
X119855000Y-64820000D01*
X119855000Y-63734936D01*
X119855000Y-62649873D01*
X120033096Y-62651186D01*
G37*
%TD.AperFunction*%
%TA.AperFunction,EtchedComponent*%
G36*
X114093733Y-69846250D02*
G01*
X114098872Y-69861080D01*
X114106991Y-69884610D01*
X114117826Y-69916080D01*
X114131118Y-69954729D01*
X114146606Y-69999798D01*
X114164028Y-70050524D01*
X114183122Y-70106148D01*
X114203628Y-70165910D01*
X114225286Y-70229048D01*
X114247832Y-70294803D01*
X114271007Y-70362414D01*
X114282647Y-70396381D01*
X114305433Y-70462739D01*
X114327350Y-70526297D01*
X114348180Y-70586432D01*
X114367702Y-70642520D01*
X114385696Y-70693940D01*
X114401942Y-70740066D01*
X114416219Y-70780277D01*
X114428308Y-70813949D01*
X114437989Y-70840458D01*
X114445042Y-70859181D01*
X114449246Y-70869496D01*
X114450374Y-70871381D01*
X114452453Y-70866241D01*
X114457588Y-70852243D01*
X114465571Y-70829981D01*
X114476194Y-70800049D01*
X114489248Y-70763041D01*
X114504526Y-70719553D01*
X114521819Y-70670176D01*
X114540919Y-70615507D01*
X114561618Y-70556138D01*
X114583708Y-70492665D01*
X114606979Y-70425680D01*
X114631225Y-70355779D01*
X114643188Y-70321250D01*
X114832363Y-69775000D01*
X115003681Y-69775000D01*
X115175000Y-69775000D01*
X115175000Y-70497500D01*
X115175000Y-71220000D01*
X115052521Y-71220000D01*
X114930042Y-71220000D01*
X114928771Y-70657327D01*
X114927500Y-70094655D01*
X114863743Y-70283577D01*
X114851401Y-70320170D01*
X114836309Y-70364956D01*
X114818897Y-70416648D01*
X114799601Y-70473962D01*
X114778852Y-70535609D01*
X114757083Y-70600304D01*
X114734728Y-70666760D01*
X114712219Y-70733692D01*
X114689989Y-70799812D01*
X114674381Y-70846250D01*
X114548776Y-71220000D01*
X114448138Y-71219962D01*
X114347500Y-71219924D01*
X114159032Y-70658712D01*
X113970564Y-70097500D01*
X113970282Y-70658750D01*
X113970000Y-71220000D01*
X113847500Y-71220000D01*
X113725000Y-71220000D01*
X113725000Y-70497500D01*
X113725000Y-69775000D01*
X113896954Y-69775000D01*
X114068908Y-69775000D01*
X114093733Y-69846250D01*
G37*
%TD.AperFunction*%
%TA.AperFunction,EtchedComponent*%
G36*
X119256250Y-69776440D02*
G01*
X119320006Y-69777220D01*
X119374887Y-69778122D01*
X119422020Y-69779228D01*
X119462529Y-69780619D01*
X119497539Y-69782379D01*
X119528177Y-69784590D01*
X119555568Y-69787334D01*
X119580836Y-69790695D01*
X119605108Y-69794753D01*
X119629509Y-69799593D01*
X119655164Y-69805296D01*
X119657500Y-69805837D01*
X119737654Y-69828768D01*
X119811166Y-69858685D01*
X119877807Y-69895423D01*
X119937351Y-69938816D01*
X119989571Y-69988698D01*
X120034240Y-70044906D01*
X120071131Y-70107272D01*
X120071246Y-70107500D01*
X120100447Y-70174958D01*
X120122801Y-70247832D01*
X120138425Y-70326707D01*
X120147439Y-70412170D01*
X120150000Y-70494546D01*
X120146156Y-70589398D01*
X120134684Y-70678054D01*
X120115676Y-70760399D01*
X120089221Y-70836315D01*
X120055411Y-70905686D01*
X120014335Y-70968395D01*
X119966084Y-71024328D01*
X119910748Y-71073366D01*
X119848418Y-71115394D01*
X119779185Y-71150296D01*
X119703139Y-71177954D01*
X119620370Y-71198253D01*
X119600000Y-71201935D01*
X119572096Y-71206275D01*
X119543371Y-71209901D01*
X119512678Y-71212869D01*
X119478866Y-71215233D01*
X119440786Y-71217048D01*
X119397292Y-71218370D01*
X119347232Y-71219252D01*
X119289459Y-71219751D01*
X119223750Y-71219920D01*
X119015000Y-71220000D01*
X119015000Y-71021258D01*
X119260000Y-71021258D01*
X119376250Y-71018471D01*
X119426663Y-71016855D01*
X119468880Y-71014636D01*
X119502337Y-71011853D01*
X119526473Y-71008545D01*
X119529857Y-71007881D01*
X119598563Y-70989552D01*
X119659814Y-70964735D01*
X119713762Y-70933263D01*
X119760561Y-70894966D01*
X119800363Y-70849678D01*
X119833323Y-70797229D01*
X119859593Y-70737453D01*
X119879326Y-70670181D01*
X119890263Y-70612500D01*
X119892943Y-70587365D01*
X119894790Y-70554915D01*
X119895803Y-70517799D01*
X119895981Y-70478665D01*
X119895324Y-70440163D01*
X119893829Y-70404942D01*
X119891498Y-70375652D01*
X119890348Y-70366316D01*
X119876484Y-70295540D01*
X119855887Y-70231696D01*
X119828671Y-70174962D01*
X119794948Y-70125513D01*
X119754830Y-70083528D01*
X119708431Y-70049182D01*
X119677500Y-70032255D01*
X119636942Y-70014443D01*
X119595953Y-70000369D01*
X119552828Y-69989725D01*
X119505862Y-69982203D01*
X119453350Y-69977494D01*
X119393587Y-69975289D01*
X119361250Y-69975029D01*
X119260000Y-69975000D01*
X119260000Y-70498129D01*
X119260000Y-71021258D01*
X119015000Y-71021258D01*
X119015000Y-70498129D01*
X119015000Y-70496905D01*
X119015000Y-69773810D01*
X119256250Y-69776440D01*
G37*
%TD.AperFunction*%
%TA.AperFunction,EtchedComponent*%
G36*
X107556250Y-69775014D02*
G01*
X107621853Y-69775123D01*
X107681789Y-69775438D01*
X107735405Y-69775947D01*
X107782047Y-69776639D01*
X107821063Y-69777503D01*
X107851799Y-69778528D01*
X107873603Y-69779703D01*
X107882500Y-69780520D01*
X107958449Y-69793768D01*
X108028430Y-69814092D01*
X108092094Y-69841233D01*
X108149095Y-69874926D01*
X108199085Y-69914910D01*
X108241717Y-69960923D01*
X108276644Y-70012701D01*
X108303520Y-70069983D01*
X108315976Y-70108109D01*
X108320025Y-70124102D01*
X108322967Y-70139757D01*
X108324978Y-70157146D01*
X108326234Y-70178339D01*
X108326912Y-70205409D01*
X108327185Y-70240000D01*
X108327176Y-70274078D01*
X108326768Y-70300215D01*
X108325789Y-70320462D01*
X108324063Y-70336876D01*
X108321417Y-70351511D01*
X108317676Y-70366422D01*
X108315957Y-70372500D01*
X108293143Y-70434888D01*
X108262577Y-70491005D01*
X108224379Y-70540745D01*
X108178671Y-70584004D01*
X108125573Y-70620676D01*
X108065205Y-70650655D01*
X107997689Y-70673836D01*
X107959857Y-70683156D01*
X107947887Y-70685332D01*
X107933146Y-70687166D01*
X107914623Y-70688702D01*
X107891306Y-70689983D01*
X107862184Y-70691055D01*
X107826247Y-70691961D01*
X107782482Y-70692745D01*
X107729878Y-70693452D01*
X107721250Y-70693553D01*
X107520000Y-70695872D01*
X107520000Y-70957936D01*
X107520000Y-71220000D01*
X107397500Y-71220000D01*
X107275000Y-71220000D01*
X107275000Y-70500000D01*
X107520000Y-70500000D01*
X107691250Y-70499926D01*
X107740835Y-70499812D01*
X107781516Y-70499492D01*
X107814387Y-70498924D01*
X107840543Y-70498066D01*
X107861078Y-70496878D01*
X107877086Y-70495318D01*
X107889662Y-70493344D01*
X107894735Y-70492254D01*
X107943331Y-70476002D01*
X107987132Y-70451742D01*
X108025211Y-70420375D01*
X108056642Y-70382802D01*
X108080499Y-70339923D01*
X108094680Y-70297740D01*
X108099230Y-70268491D01*
X108100752Y-70233983D01*
X108099364Y-70198189D01*
X108095179Y-70165078D01*
X108090230Y-70144250D01*
X108071450Y-70100189D01*
X108044361Y-70061274D01*
X108009637Y-70028255D01*
X107967950Y-70001881D01*
X107958113Y-69997137D01*
X107942091Y-69989934D01*
X107927752Y-69984043D01*
X107913872Y-69979317D01*
X107899224Y-69975611D01*
X107882583Y-69972780D01*
X107862725Y-69970678D01*
X107838424Y-69969159D01*
X107808456Y-69968078D01*
X107771594Y-69967289D01*
X107726615Y-69966647D01*
X107698750Y-69966313D01*
X107520000Y-69964225D01*
X107520000Y-70232112D01*
X107520000Y-70500000D01*
X107275000Y-70500000D01*
X107275000Y-70497500D01*
X107275000Y-70232112D01*
X107275000Y-69775000D01*
X107556250Y-69775014D01*
G37*
%TD.AperFunction*%
%TA.AperFunction,EtchedComponent*%
G36*
X112148750Y-69776319D02*
G01*
X112212256Y-69776731D01*
X112266620Y-69777126D01*
X112312699Y-69777536D01*
X112351350Y-69777992D01*
X112383430Y-69778524D01*
X112409796Y-69779165D01*
X112431307Y-69779944D01*
X112448819Y-69780893D01*
X112463189Y-69782043D01*
X112475275Y-69783424D01*
X112485934Y-69785067D01*
X112496023Y-69787005D01*
X112506219Y-69789226D01*
X112580359Y-69809912D01*
X112647086Y-69836854D01*
X112706248Y-69869908D01*
X112757690Y-69908932D01*
X112801261Y-69953783D01*
X112836808Y-70004319D01*
X112864177Y-70060398D01*
X112883215Y-70121876D01*
X112887946Y-70145000D01*
X112892771Y-70184363D01*
X112894678Y-70229295D01*
X112893720Y-70275820D01*
X112889952Y-70319957D01*
X112885133Y-70350000D01*
X112873042Y-70393158D01*
X112854685Y-70438509D01*
X112831843Y-70482307D01*
X112806296Y-70520807D01*
X112800277Y-70528455D01*
X112760252Y-70569917D01*
X112712362Y-70606340D01*
X112657664Y-70637200D01*
X112597219Y-70661969D01*
X112532084Y-70680124D01*
X112475131Y-70689804D01*
X112459896Y-70691049D01*
X112436196Y-70692187D01*
X112405565Y-70693182D01*
X112369539Y-70693995D01*
X112329651Y-70694591D01*
X112287437Y-70694932D01*
X112258881Y-70695000D01*
X112085000Y-70695000D01*
X112085000Y-70957500D01*
X112085000Y-71220000D01*
X111962500Y-71220000D01*
X111840000Y-71220000D01*
X111840000Y-70500564D01*
X112085000Y-70500564D01*
X112268750Y-70499010D01*
X112316621Y-70498585D01*
X112355621Y-70498154D01*
X112386880Y-70497649D01*
X112411526Y-70496999D01*
X112430687Y-70496137D01*
X112445494Y-70494993D01*
X112457075Y-70493498D01*
X112466558Y-70491582D01*
X112475074Y-70489177D01*
X112483750Y-70486213D01*
X112485000Y-70485765D01*
X112533305Y-70463499D01*
X112575044Y-70434066D01*
X112609687Y-70398040D01*
X112636702Y-70355993D01*
X112655556Y-70308497D01*
X112658022Y-70299493D01*
X112663316Y-70268076D01*
X112665015Y-70231962D01*
X112663299Y-70194597D01*
X112658349Y-70159424D01*
X112650345Y-70129888D01*
X112648928Y-70126242D01*
X112626319Y-70083742D01*
X112595644Y-70047145D01*
X112556921Y-70016473D01*
X112527273Y-69999636D01*
X112511323Y-69991878D01*
X112496956Y-69985520D01*
X112482960Y-69980408D01*
X112468127Y-69976389D01*
X112451247Y-69973311D01*
X112431109Y-69971021D01*
X112406503Y-69969365D01*
X112376220Y-69968191D01*
X112339050Y-69967346D01*
X112293784Y-69966676D01*
X112263750Y-69966313D01*
X112085000Y-69964225D01*
X112085000Y-70232394D01*
X112085000Y-70500564D01*
X111840000Y-70500564D01*
X111840000Y-70497190D01*
X111840000Y-70232394D01*
X111840000Y-69774380D01*
X112148750Y-69776319D01*
G37*
%TD.AperFunction*%
%TA.AperFunction,EtchedComponent*%
G36*
X122002812Y-70354942D02*
G01*
X122028645Y-70428071D01*
X122053582Y-70498536D01*
X122077417Y-70565766D01*
X122099947Y-70629193D01*
X122120969Y-70688246D01*
X122140279Y-70742356D01*
X122157672Y-70790953D01*
X122172946Y-70833468D01*
X122185896Y-70869332D01*
X122196318Y-70897974D01*
X122204008Y-70918826D01*
X122208764Y-70931317D01*
X122210360Y-70934942D01*
X122212352Y-70930327D01*
X122217458Y-70916849D01*
X122225475Y-70895076D01*
X122236199Y-70865578D01*
X122249426Y-70828924D01*
X122264953Y-70785684D01*
X122282575Y-70736427D01*
X122302090Y-70681722D01*
X122323292Y-70622139D01*
X122345980Y-70558248D01*
X122369948Y-70490618D01*
X122394993Y-70419817D01*
X122417860Y-70355062D01*
X122622500Y-69775124D01*
X122738750Y-69775062D01*
X122771639Y-69775198D01*
X122800913Y-69775614D01*
X122825185Y-69776265D01*
X122843067Y-69777109D01*
X122853174Y-69778099D01*
X122854928Y-69778750D01*
X122853293Y-69783813D01*
X122848525Y-69797796D01*
X122840803Y-69820183D01*
X122830309Y-69850458D01*
X122817221Y-69888105D01*
X122801720Y-69932609D01*
X122783985Y-69983454D01*
X122764198Y-70040124D01*
X122742537Y-70102103D01*
X122719183Y-70168876D01*
X122694316Y-70239927D01*
X122668116Y-70314741D01*
X122640763Y-70392801D01*
X122612436Y-70473592D01*
X122603174Y-70500000D01*
X122351492Y-71217500D01*
X122211310Y-71218826D01*
X122170084Y-71219178D01*
X122137747Y-71219324D01*
X122113190Y-71219206D01*
X122095305Y-71218766D01*
X122082982Y-71217946D01*
X122075111Y-71216689D01*
X122070584Y-71214935D01*
X122068290Y-71212628D01*
X122067665Y-71211326D01*
X122065641Y-71205668D01*
X122060500Y-71191095D01*
X122052423Y-71168136D01*
X122041597Y-71137314D01*
X122028206Y-71099156D01*
X122012433Y-71054187D01*
X121994463Y-71002933D01*
X121974480Y-70945919D01*
X121952669Y-70883672D01*
X121929213Y-70816717D01*
X121904297Y-70745578D01*
X121878105Y-70670783D01*
X121850821Y-70592857D01*
X121822631Y-70512325D01*
X121817442Y-70497500D01*
X121789107Y-70416553D01*
X121761648Y-70338118D01*
X121735248Y-70262721D01*
X121710091Y-70190885D01*
X121686362Y-70123138D01*
X121664244Y-70060004D01*
X121643923Y-70002009D01*
X121625582Y-69949679D01*
X121609405Y-69903540D01*
X121595576Y-69864116D01*
X121584281Y-69831933D01*
X121575702Y-69807517D01*
X121570024Y-69791394D01*
X121567431Y-69784089D01*
X121567306Y-69783750D01*
X121566804Y-69780972D01*
X121568482Y-69778851D01*
X121573486Y-69777300D01*
X121582962Y-69776231D01*
X121598055Y-69775554D01*
X121619910Y-69775182D01*
X121649673Y-69775027D01*
X121681027Y-69775000D01*
X121798125Y-69775000D01*
X122002812Y-70354942D01*
G37*
%TD.AperFunction*%
%TA.AperFunction,EtchedComponent*%
G36*
X112603750Y-62651432D02*
G01*
X112693218Y-62651930D01*
X112772911Y-62652498D01*
X112843049Y-62653140D01*
X112903857Y-62653861D01*
X112955557Y-62654663D01*
X112998372Y-62655551D01*
X113032525Y-62656528D01*
X113058240Y-62657598D01*
X113075739Y-62658765D01*
X113082500Y-62659529D01*
X113166246Y-62674991D01*
X113246507Y-62695783D01*
X113321841Y-62721407D01*
X113390810Y-62751365D01*
X113451973Y-62785157D01*
X113460000Y-62790275D01*
X113521686Y-62835738D01*
X113577381Y-62887757D01*
X113626144Y-62945220D01*
X113667036Y-63007016D01*
X113699120Y-63072033D01*
X113700149Y-63074544D01*
X113721359Y-63137663D01*
X113736561Y-63206720D01*
X113745700Y-63279614D01*
X113748716Y-63354244D01*
X113745553Y-63428509D01*
X113736153Y-63500309D01*
X113720457Y-63567543D01*
X113714227Y-63587360D01*
X113684889Y-63659420D01*
X113647299Y-63726082D01*
X113601818Y-63787028D01*
X113548805Y-63841945D01*
X113488621Y-63890515D01*
X113421625Y-63932423D01*
X113348178Y-63967354D01*
X113268639Y-63994992D01*
X113240765Y-64002547D01*
X113217307Y-64008348D01*
X113195646Y-64013314D01*
X113174770Y-64017520D01*
X113153667Y-64021037D01*
X113131324Y-64023940D01*
X113106729Y-64026302D01*
X113078872Y-64028195D01*
X113046738Y-64029693D01*
X113009317Y-64030868D01*
X112965596Y-64031795D01*
X112914564Y-64032547D01*
X112855207Y-64033195D01*
X112811250Y-64033601D01*
X112535000Y-64036034D01*
X112535000Y-64428017D01*
X112535000Y-64820000D01*
X112350000Y-64820000D01*
X112165000Y-64820000D01*
X112165000Y-63740479D01*
X112530000Y-63740479D01*
X112801250Y-63738789D01*
X112860313Y-63738411D01*
X112910270Y-63738047D01*
X112952018Y-63737660D01*
X112986449Y-63737212D01*
X113014459Y-63736665D01*
X113036942Y-63735983D01*
X113054794Y-63735126D01*
X113068908Y-63734058D01*
X113080179Y-63732741D01*
X113089503Y-63731137D01*
X113097773Y-63729208D01*
X113105884Y-63726917D01*
X113109547Y-63725811D01*
X113171276Y-63702290D01*
X113226916Y-63671431D01*
X113275966Y-63633729D01*
X113317926Y-63589680D01*
X113352296Y-63539779D01*
X113378575Y-63484523D01*
X113390745Y-63447209D01*
X113395391Y-63428041D01*
X113398581Y-63408833D01*
X113400571Y-63386969D01*
X113401616Y-63359832D01*
X113401943Y-63332500D01*
X113401506Y-63292680D01*
X113399380Y-63260061D01*
X113395000Y-63231905D01*
X113387799Y-63205478D01*
X113377211Y-63178042D01*
X113364210Y-63150000D01*
X113337523Y-63106115D01*
X113302328Y-63065385D01*
X113259898Y-63028884D01*
X113211508Y-62997685D01*
X113158430Y-62972863D01*
X113150821Y-62970002D01*
X113132779Y-62963615D01*
X113115806Y-62958200D01*
X113098907Y-62953678D01*
X113081090Y-62949969D01*
X113061361Y-62946993D01*
X113038727Y-62944671D01*
X113012195Y-62942922D01*
X112980771Y-62941668D01*
X112943461Y-62940829D01*
X112899274Y-62940324D01*
X112847215Y-62940074D01*
X112786290Y-62940000D01*
X112776845Y-62940000D01*
X112530000Y-62940000D01*
X112530000Y-63340239D01*
X112530000Y-63740479D01*
X112165000Y-63740479D01*
X112165000Y-63734639D01*
X112165000Y-63340239D01*
X112165000Y-62649278D01*
X112603750Y-62651432D01*
G37*
%TD.AperFunction*%
%TA.AperFunction,EtchedComponent*%
G36*
X118514176Y-62651193D02*
G01*
X118711450Y-62652500D01*
X119085556Y-63695000D01*
X119121073Y-63793969D01*
X119155808Y-63890758D01*
X119189603Y-63984922D01*
X119222297Y-64076013D01*
X119253730Y-64163587D01*
X119283742Y-64247196D01*
X119312172Y-64326396D01*
X119338861Y-64400740D01*
X119363649Y-64469782D01*
X119386374Y-64533077D01*
X119406878Y-64590177D01*
X119425000Y-64640638D01*
X119440580Y-64684012D01*
X119453458Y-64719855D01*
X119463474Y-64747720D01*
X119470467Y-64767162D01*
X119474278Y-64777733D01*
X119474668Y-64778811D01*
X119489674Y-64820122D01*
X119306862Y-64818811D01*
X119124050Y-64817500D01*
X119028075Y-64547500D01*
X118932099Y-64277500D01*
X118515152Y-64277500D01*
X118098204Y-64277500D01*
X118030065Y-64467500D01*
X118013774Y-64512933D01*
X117997310Y-64558859D01*
X117981264Y-64603632D01*
X117966223Y-64645608D01*
X117952778Y-64683142D01*
X117941517Y-64714591D01*
X117933031Y-64738309D01*
X117932873Y-64738750D01*
X117903820Y-64820000D01*
X117721375Y-64820000D01*
X117672041Y-64819932D01*
X117631926Y-64819712D01*
X117600246Y-64819312D01*
X117576223Y-64818705D01*
X117559073Y-64817864D01*
X117548016Y-64816762D01*
X117542270Y-64815372D01*
X117541024Y-64813750D01*
X117542883Y-64808526D01*
X117547968Y-64794310D01*
X117556129Y-64771519D01*
X117567214Y-64740574D01*
X117581074Y-64701893D01*
X117597559Y-64655896D01*
X117616517Y-64603003D01*
X117637799Y-64543633D01*
X117661254Y-64478206D01*
X117686731Y-64407140D01*
X117714082Y-64330855D01*
X117743154Y-64249771D01*
X117773798Y-64164307D01*
X117805864Y-64074882D01*
X117839200Y-63981916D01*
X117850645Y-63950000D01*
X118185247Y-63950000D01*
X118512306Y-63950000D01*
X118839365Y-63950000D01*
X118825295Y-63908750D01*
X118804442Y-63847685D01*
X118782758Y-63784321D01*
X118760479Y-63719340D01*
X118737841Y-63653423D01*
X118715080Y-63587252D01*
X118692432Y-63521506D01*
X118670133Y-63456869D01*
X118648420Y-63394020D01*
X118627527Y-63333642D01*
X118607691Y-63276414D01*
X118589148Y-63223020D01*
X118572134Y-63174139D01*
X118556884Y-63130453D01*
X118543636Y-63092644D01*
X118532624Y-63061392D01*
X118524085Y-63037379D01*
X118518255Y-63021286D01*
X118515370Y-63013794D01*
X118515131Y-63013339D01*
X118511822Y-63015682D01*
X118506561Y-63025608D01*
X118500346Y-63041145D01*
X118498704Y-63045839D01*
X118493461Y-63061167D01*
X118485515Y-63084288D01*
X118475146Y-63114391D01*
X118462635Y-63150668D01*
X118448263Y-63192306D01*
X118432309Y-63238496D01*
X118415055Y-63288428D01*
X118396780Y-63341291D01*
X118377765Y-63396275D01*
X118358290Y-63452570D01*
X118338637Y-63509365D01*
X118319085Y-63565850D01*
X118299915Y-63621215D01*
X118281407Y-63674650D01*
X118263842Y-63725344D01*
X118247500Y-63772487D01*
X118232662Y-63815268D01*
X118219608Y-63852878D01*
X118208619Y-63884505D01*
X118199975Y-63909341D01*
X118193956Y-63926574D01*
X118190843Y-63935394D01*
X118190528Y-63936250D01*
X118185247Y-63950000D01*
X117850645Y-63950000D01*
X117873658Y-63885828D01*
X117909086Y-63787038D01*
X117930010Y-63728693D01*
X118316901Y-62649886D01*
X118514176Y-62651193D01*
G37*
%TD.AperFunction*%
%TA.AperFunction,EtchedComponent*%
G36*
X109159966Y-69756360D02*
G01*
X109238948Y-69764112D01*
X109312713Y-69780363D01*
X109381409Y-69805174D01*
X109445184Y-69838604D01*
X109504187Y-69880714D01*
X109536822Y-69909656D01*
X109584919Y-69961139D01*
X109624240Y-70015536D01*
X109655411Y-70074048D01*
X109679060Y-70137877D01*
X109695817Y-70208223D01*
X109697253Y-70216334D01*
X109700484Y-70235169D01*
X109572060Y-70233834D01*
X109443636Y-70232500D01*
X109436812Y-70205000D01*
X109431556Y-70188382D01*
X109423064Y-70166422D01*
X109412746Y-70142634D01*
X109406779Y-70130000D01*
X109393034Y-70103738D01*
X109379397Y-70082693D01*
X109363011Y-70062896D01*
X109345241Y-70044533D01*
X109308183Y-70012311D01*
X109269645Y-69988263D01*
X109227958Y-69971747D01*
X109181454Y-69962119D01*
X109128464Y-69958738D01*
X109122500Y-69958719D01*
X109061181Y-69962885D01*
X109005693Y-69975161D01*
X108955998Y-69995574D01*
X108912059Y-70024154D01*
X108873839Y-70060927D01*
X108841302Y-70105921D01*
X108814411Y-70159164D01*
X108798329Y-70203242D01*
X108783414Y-70260934D01*
X108772371Y-70325777D01*
X108765222Y-70395696D01*
X108761988Y-70468613D01*
X108762692Y-70542450D01*
X108767354Y-70615131D01*
X108775998Y-70684579D01*
X108788644Y-70748717D01*
X108792458Y-70763772D01*
X108813146Y-70826110D01*
X108839918Y-70880597D01*
X108872736Y-70927186D01*
X108911560Y-70965832D01*
X108956351Y-70996490D01*
X109007071Y-71019112D01*
X109010000Y-71020111D01*
X109038099Y-71027046D01*
X109072658Y-71031783D01*
X109110351Y-71034187D01*
X109147852Y-71034123D01*
X109181836Y-71031456D01*
X109201933Y-71027925D01*
X109251214Y-71011321D01*
X109296354Y-70985936D01*
X109336891Y-70952287D01*
X109372364Y-70910892D01*
X109402309Y-70862268D01*
X109426266Y-70806933D01*
X109440048Y-70761250D01*
X109445385Y-70740000D01*
X109573132Y-70740000D01*
X109700878Y-70740000D01*
X109697503Y-70761250D01*
X109691870Y-70790100D01*
X109683603Y-70824132D01*
X109673786Y-70859242D01*
X109663505Y-70891329D01*
X109661771Y-70896240D01*
X109632576Y-70964203D01*
X109596447Y-71024981D01*
X109553522Y-71078454D01*
X109503942Y-71124506D01*
X109447846Y-71163018D01*
X109385372Y-71193872D01*
X109316661Y-71216951D01*
X109270000Y-71227489D01*
X109242385Y-71231417D01*
X109207791Y-71234491D01*
X109169165Y-71236619D01*
X109129454Y-71237708D01*
X109091606Y-71237668D01*
X109058569Y-71236407D01*
X109039225Y-71234668D01*
X108961493Y-71220334D01*
X108888704Y-71197342D01*
X108821106Y-71165861D01*
X108758946Y-71126060D01*
X108702469Y-71078109D01*
X108651922Y-71022176D01*
X108607551Y-70958431D01*
X108588461Y-70925000D01*
X108559825Y-70862777D01*
X108536104Y-70793171D01*
X108517514Y-70717627D01*
X108504272Y-70637588D01*
X108496593Y-70554499D01*
X108494693Y-70469804D01*
X108498789Y-70384947D01*
X108502361Y-70349506D01*
X108516836Y-70260599D01*
X108538567Y-70178174D01*
X108567324Y-70102438D01*
X108602880Y-70033595D01*
X108645007Y-69971853D01*
X108693475Y-69917417D01*
X108748056Y-69870494D01*
X108808522Y-69831289D01*
X108874645Y-69800008D01*
X108946196Y-69776858D01*
X109022946Y-69762045D01*
X109104668Y-69755774D01*
X109159966Y-69756360D01*
G37*
%TD.AperFunction*%
%TA.AperFunction,EtchedComponent*%
G36*
X117170000Y-63734955D02*
G01*
X117170000Y-64820000D01*
X116985000Y-64820000D01*
X116800000Y-64820000D01*
X116799736Y-63971250D01*
X116799472Y-63122500D01*
X116647345Y-63575000D01*
X116621510Y-63651843D01*
X116593655Y-63734692D01*
X116564346Y-63821862D01*
X116534151Y-63911667D01*
X116503635Y-64002422D01*
X116473365Y-64092442D01*
X116443908Y-64180042D01*
X116415831Y-64263536D01*
X116389700Y-64341240D01*
X116366082Y-64411469D01*
X116361952Y-64423750D01*
X116228686Y-64820000D01*
X116077269Y-64820000D01*
X115925852Y-64820000D01*
X115873668Y-64663750D01*
X115841122Y-64566344D01*
X115808414Y-64468533D01*
X115775697Y-64370779D01*
X115743129Y-64273543D01*
X115710865Y-64177289D01*
X115679060Y-64082477D01*
X115647871Y-63989570D01*
X115617453Y-63899030D01*
X115587962Y-63811319D01*
X115559553Y-63726899D01*
X115532383Y-63646231D01*
X115506606Y-63569779D01*
X115482380Y-63498004D01*
X115459859Y-63431368D01*
X115439199Y-63370333D01*
X115420556Y-63315361D01*
X115404086Y-63266915D01*
X115389944Y-63225455D01*
X115378286Y-63191445D01*
X115369269Y-63165346D01*
X115363046Y-63147621D01*
X115359775Y-63138731D01*
X115359326Y-63137749D01*
X115358843Y-63142131D01*
X115358376Y-63156039D01*
X115357930Y-63178999D01*
X115357505Y-63210538D01*
X115357106Y-63250182D01*
X115356733Y-63297456D01*
X115356390Y-63351889D01*
X115356078Y-63413004D01*
X115355802Y-63480330D01*
X115355562Y-63553392D01*
X115355361Y-63631716D01*
X115355202Y-63714828D01*
X115355087Y-63802255D01*
X115355019Y-63893523D01*
X115355000Y-63976499D01*
X115355000Y-64820000D01*
X115172500Y-64820000D01*
X114990000Y-64820000D01*
X114990000Y-63735000D01*
X114990000Y-62650000D01*
X115250000Y-62650000D01*
X115299936Y-62650039D01*
X115346722Y-62650151D01*
X115389429Y-62650330D01*
X115427129Y-62650567D01*
X115458893Y-62650855D01*
X115483794Y-62651186D01*
X115500903Y-62651553D01*
X115509291Y-62651949D01*
X115510000Y-62652104D01*
X115511594Y-62656986D01*
X115516264Y-62670824D01*
X115523837Y-62693117D01*
X115534142Y-62723364D01*
X115547008Y-62761063D01*
X115562262Y-62805713D01*
X115579733Y-62856811D01*
X115599249Y-62913856D01*
X115620640Y-62976348D01*
X115643733Y-63043783D01*
X115668357Y-63115661D01*
X115694340Y-63191480D01*
X115721510Y-63270738D01*
X115749696Y-63352935D01*
X115770421Y-63413354D01*
X115799644Y-63498542D01*
X115828228Y-63581870D01*
X115855981Y-63662780D01*
X115882712Y-63740711D01*
X115908229Y-63815104D01*
X115932339Y-63885398D01*
X115954850Y-63951035D01*
X115975571Y-64011454D01*
X115994310Y-64066095D01*
X116010874Y-64114399D01*
X116025071Y-64155806D01*
X116036711Y-64189756D01*
X116045600Y-64215690D01*
X116051546Y-64233048D01*
X116053563Y-64238941D01*
X116061891Y-64262524D01*
X116069273Y-64282000D01*
X116075063Y-64295766D01*
X116078612Y-64302222D01*
X116079225Y-64302441D01*
X116081149Y-64297479D01*
X116086175Y-64283549D01*
X116094136Y-64261132D01*
X116104864Y-64230710D01*
X116118190Y-64192763D01*
X116133947Y-64147773D01*
X116151967Y-64096223D01*
X116172081Y-64038592D01*
X116194121Y-63975363D01*
X116217921Y-63907017D01*
X116243311Y-63834035D01*
X116270123Y-63756900D01*
X116298190Y-63676092D01*
X116327344Y-63592093D01*
X116357416Y-63505384D01*
X116367603Y-63475999D01*
X116653039Y-62652500D01*
X116911519Y-62651205D01*
X117170000Y-62649910D01*
X117170000Y-63734955D01*
G37*
%TD.AperFunction*%
%TA.AperFunction,EtchedComponent*%
G36*
X116114450Y-69775113D02*
G01*
X116147336Y-69775480D01*
X116171997Y-69776142D01*
X116189321Y-69777141D01*
X116200194Y-69778517D01*
X116205503Y-69780314D01*
X116206306Y-69781250D01*
X116209017Y-69788645D01*
X116214820Y-69804678D01*
X116223489Y-69828720D01*
X116234799Y-69860143D01*
X116248526Y-69898320D01*
X116264444Y-69942622D01*
X116282328Y-69992422D01*
X116301954Y-70047092D01*
X116323095Y-70106004D01*
X116345528Y-70168530D01*
X116369027Y-70234043D01*
X116393367Y-70301914D01*
X116418324Y-70371515D01*
X116443671Y-70442219D01*
X116469184Y-70513398D01*
X116494638Y-70584424D01*
X116519808Y-70654669D01*
X116544469Y-70723506D01*
X116568396Y-70790305D01*
X116591363Y-70854441D01*
X116613147Y-70915284D01*
X116633521Y-70972206D01*
X116652261Y-71024581D01*
X116669141Y-71071780D01*
X116683937Y-71113175D01*
X116696424Y-71148138D01*
X116706376Y-71176042D01*
X116713569Y-71196259D01*
X116717777Y-71208160D01*
X116718839Y-71211250D01*
X116718983Y-71213997D01*
X116717006Y-71216103D01*
X116711766Y-71217651D01*
X116702121Y-71218727D01*
X116686928Y-71219415D01*
X116665047Y-71219800D01*
X116635335Y-71219966D01*
X116600996Y-71220000D01*
X116480827Y-71220000D01*
X116472895Y-71198750D01*
X116469338Y-71188994D01*
X116462897Y-71171096D01*
X116454031Y-71146339D01*
X116443198Y-71116006D01*
X116430856Y-71081380D01*
X116417464Y-71043743D01*
X116408138Y-71017500D01*
X116351314Y-70857500D01*
X116073861Y-70856208D01*
X115796408Y-70854916D01*
X115742326Y-71006208D01*
X115728583Y-71044621D01*
X115715413Y-71081372D01*
X115703328Y-71115035D01*
X115692841Y-71144184D01*
X115684465Y-71167394D01*
X115678713Y-71183237D01*
X115677148Y-71187500D01*
X115666052Y-71217500D01*
X115544919Y-71218840D01*
X115507044Y-71219220D01*
X115478028Y-71219366D01*
X115456732Y-71219208D01*
X115442016Y-71218673D01*
X115432740Y-71217690D01*
X115427766Y-71216185D01*
X115425952Y-71214088D01*
X115426157Y-71211340D01*
X115428093Y-71205691D01*
X115433223Y-71191157D01*
X115441359Y-71168262D01*
X115452312Y-71137533D01*
X115465895Y-71099493D01*
X115481920Y-71054669D01*
X115500198Y-71003585D01*
X115520542Y-70946767D01*
X115542764Y-70884740D01*
X115566676Y-70818029D01*
X115592089Y-70747160D01*
X115618816Y-70672657D01*
X115631034Y-70638612D01*
X115855000Y-70638612D01*
X115859830Y-70638902D01*
X115873646Y-70639172D01*
X115895431Y-70639415D01*
X115924170Y-70639625D01*
X115958847Y-70639794D01*
X115998449Y-70639916D01*
X116041958Y-70639986D01*
X116072350Y-70640000D01*
X116289700Y-70640000D01*
X116240437Y-70496250D01*
X116212631Y-70415135D01*
X116187895Y-70343022D01*
X116166067Y-70279449D01*
X116146988Y-70223953D01*
X116130496Y-70176073D01*
X116116432Y-70135345D01*
X116104634Y-70101309D01*
X116094943Y-70073502D01*
X116087198Y-70051461D01*
X116081238Y-70034724D01*
X116076903Y-70022829D01*
X116074033Y-70015315D01*
X116072467Y-70011718D01*
X116072078Y-70011254D01*
X116070294Y-70016033D01*
X116065581Y-70029316D01*
X116058269Y-70050151D01*
X116048686Y-70077589D01*
X116037162Y-70110677D01*
X116024024Y-70148466D01*
X116009604Y-70190005D01*
X115994228Y-70234342D01*
X115978228Y-70280527D01*
X115961930Y-70327609D01*
X115945665Y-70374637D01*
X115929762Y-70420661D01*
X115914549Y-70464729D01*
X115900356Y-70505890D01*
X115887511Y-70543195D01*
X115876343Y-70575691D01*
X115867182Y-70602429D01*
X115860357Y-70622457D01*
X115856196Y-70634824D01*
X115855000Y-70638612D01*
X115631034Y-70638612D01*
X115646669Y-70595047D01*
X115675459Y-70514853D01*
X115679895Y-70502500D01*
X115708851Y-70421863D01*
X115736927Y-70343671D01*
X115763935Y-70268454D01*
X115789683Y-70196743D01*
X115813980Y-70129067D01*
X115836638Y-70065957D01*
X115857465Y-70007944D01*
X115876270Y-69955556D01*
X115892865Y-69909324D01*
X115907058Y-69869779D01*
X115918659Y-69837451D01*
X115927478Y-69812869D01*
X115933324Y-69796564D01*
X115936007Y-69789066D01*
X115936120Y-69788750D01*
X115940978Y-69775000D01*
X116072454Y-69775000D01*
X116114450Y-69775113D01*
G37*
%TD.AperFunction*%
%TA.AperFunction,EtchedComponent*%
G36*
X119181005Y-66144008D02*
G01*
X119220416Y-66145500D01*
X119253493Y-66148082D01*
X119265000Y-66149512D01*
X119347547Y-66165803D01*
X119425798Y-66190143D01*
X119499037Y-66222182D01*
X119566552Y-66261569D01*
X119627629Y-66307954D01*
X119669996Y-66348403D01*
X119721954Y-66410449D01*
X119765545Y-66477830D01*
X119800622Y-66550193D01*
X119827040Y-66627179D01*
X119844653Y-66708433D01*
X119853315Y-66793600D01*
X119853436Y-66796250D01*
X119856483Y-66865000D01*
X119668931Y-66865000D01*
X119481379Y-66865000D01*
X119478080Y-66828593D01*
X119467578Y-66762750D01*
X119447946Y-66698584D01*
X119427893Y-66652500D01*
X119396699Y-66598890D01*
X119359415Y-66553169D01*
X119316210Y-66515430D01*
X119267255Y-66485766D01*
X119212722Y-66464269D01*
X119152780Y-66451031D01*
X119087600Y-66446146D01*
X119049132Y-66447078D01*
X118977247Y-66455834D01*
X118909626Y-66473609D01*
X118846297Y-66500367D01*
X118787284Y-66536070D01*
X118732614Y-66580681D01*
X118682314Y-66634163D01*
X118636408Y-66696479D01*
X118594924Y-66767591D01*
X118557886Y-66847462D01*
X118525321Y-66936055D01*
X118497254Y-67033332D01*
X118473713Y-67139257D01*
X118454722Y-67253792D01*
X118447446Y-67310000D01*
X118443208Y-67352649D01*
X118439879Y-67400277D01*
X118437512Y-67450540D01*
X118436161Y-67501095D01*
X118435881Y-67549598D01*
X118436725Y-67593707D01*
X118438748Y-67631079D01*
X118439772Y-67642400D01*
X118450091Y-67711707D01*
X118466090Y-67776660D01*
X118487337Y-67836040D01*
X118513398Y-67888625D01*
X118542249Y-67931209D01*
X118579637Y-67970408D01*
X118624485Y-68003881D01*
X118675569Y-68030856D01*
X118731664Y-68050565D01*
X118732500Y-68050791D01*
X118763147Y-68056808D01*
X118800550Y-68060684D01*
X118841773Y-68062420D01*
X118883882Y-68062015D01*
X118923941Y-68059471D01*
X118959016Y-68054788D01*
X118977230Y-68050741D01*
X119038705Y-68028890D01*
X119097634Y-67997878D01*
X119153373Y-67958363D01*
X119205276Y-67911002D01*
X119252700Y-67856452D01*
X119295000Y-67795369D01*
X119331531Y-67728411D01*
X119360144Y-67660399D01*
X119373960Y-67622500D01*
X119561980Y-67621189D01*
X119610712Y-67620887D01*
X119650355Y-67620748D01*
X119681822Y-67620802D01*
X119706023Y-67621080D01*
X119723870Y-67621612D01*
X119736273Y-67622431D01*
X119744143Y-67623565D01*
X119748392Y-67625047D01*
X119749930Y-67626906D01*
X119750000Y-67627525D01*
X119748254Y-67636986D01*
X119743459Y-67653857D01*
X119736271Y-67676259D01*
X119727349Y-67702314D01*
X119717354Y-67730146D01*
X119706942Y-67757877D01*
X119696774Y-67783629D01*
X119687688Y-67805118D01*
X119642369Y-67896624D01*
X119590836Y-67980876D01*
X119533317Y-68057579D01*
X119470040Y-68126439D01*
X119401232Y-68187161D01*
X119380142Y-68203305D01*
X119345638Y-68226619D01*
X119304476Y-68250842D01*
X119259686Y-68274403D01*
X119214298Y-68295732D01*
X119171343Y-68313260D01*
X119160291Y-68317229D01*
X119088149Y-68338298D01*
X119009520Y-68354073D01*
X118926538Y-68364324D01*
X118841339Y-68368824D01*
X118756056Y-68367345D01*
X118717007Y-68364561D01*
X118631005Y-68352422D01*
X118549546Y-68331876D01*
X118473046Y-68303116D01*
X118401923Y-68266332D01*
X118336594Y-68221717D01*
X118277477Y-68169461D01*
X118265998Y-68157647D01*
X118213537Y-68094963D01*
X118168211Y-68025330D01*
X118130038Y-67948823D01*
X118099033Y-67865514D01*
X118075213Y-67775478D01*
X118058593Y-67678787D01*
X118049191Y-67575517D01*
X118047023Y-67465740D01*
X118052105Y-67349531D01*
X118062686Y-67241184D01*
X118081252Y-67121021D01*
X118107101Y-67005890D01*
X118140052Y-66896197D01*
X118179921Y-66792350D01*
X118226526Y-66694754D01*
X118279683Y-66603817D01*
X118339209Y-66519945D01*
X118404921Y-66443545D01*
X118435724Y-66412423D01*
X118508073Y-66348551D01*
X118583904Y-66293704D01*
X118663782Y-66247609D01*
X118748275Y-66209994D01*
X118837950Y-66180587D01*
X118933374Y-66159114D01*
X118977500Y-66152086D01*
X119010628Y-66148474D01*
X119050073Y-66145837D01*
X119093304Y-66144199D01*
X119137792Y-66143581D01*
X119181005Y-66144008D01*
G37*
%TD.AperFunction*%
%TA.AperFunction,EtchedComponent*%
G36*
X110326357Y-69775070D02*
G01*
X110387021Y-69775311D01*
X110439563Y-69775773D01*
X110484920Y-69776501D01*
X110524030Y-69777543D01*
X110557832Y-69778947D01*
X110587264Y-69780761D01*
X110613263Y-69783032D01*
X110636768Y-69785808D01*
X110658717Y-69789135D01*
X110680049Y-69793062D01*
X110701203Y-69797526D01*
X110768300Y-69816277D01*
X110827960Y-69841051D01*
X110879982Y-69871686D01*
X110924165Y-69908017D01*
X110960311Y-69949877D01*
X110988218Y-69997104D01*
X111007687Y-70049531D01*
X111007816Y-70050000D01*
X111013678Y-70079402D01*
X111017353Y-70114752D01*
X111018728Y-70152337D01*
X111017690Y-70188443D01*
X111014127Y-70219356D01*
X111013114Y-70224529D01*
X110998607Y-70275049D01*
X110977549Y-70319783D01*
X110949272Y-70359529D01*
X110913107Y-70395081D01*
X110868388Y-70427236D01*
X110820692Y-70453719D01*
X110763885Y-70481980D01*
X110795692Y-70490855D01*
X110825839Y-70501274D01*
X110859808Y-70516228D01*
X110894073Y-70533918D01*
X110925106Y-70552544D01*
X110946056Y-70567565D01*
X110981229Y-70602144D01*
X111009821Y-70643743D01*
X111031559Y-70691624D01*
X111046170Y-70745048D01*
X111053382Y-70803276D01*
X111053382Y-70858041D01*
X111046861Y-70916772D01*
X111033786Y-70968675D01*
X111013719Y-71014835D01*
X110986224Y-71056336D01*
X110962568Y-71082947D01*
X110923899Y-71116680D01*
X110879504Y-71145216D01*
X110828737Y-71168791D01*
X110770950Y-71187641D01*
X110705497Y-71202005D01*
X110631730Y-71212118D01*
X110602535Y-71214804D01*
X110585310Y-71215788D01*
X110559268Y-71216711D01*
X110525591Y-71217555D01*
X110485462Y-71218304D01*
X110440063Y-71218937D01*
X110390577Y-71219439D01*
X110338187Y-71219791D01*
X110284075Y-71219976D01*
X110256773Y-71220000D01*
X109975000Y-71220000D01*
X109975000Y-71025734D01*
X110220000Y-71025734D01*
X110411250Y-71023775D01*
X110461918Y-71023198D01*
X110503649Y-71022573D01*
X110537507Y-71021847D01*
X110564554Y-71020970D01*
X110585853Y-71019893D01*
X110602469Y-71018563D01*
X110615463Y-71016931D01*
X110625899Y-71014947D01*
X110632500Y-71013250D01*
X110667549Y-71001197D01*
X110701221Y-70985882D01*
X110730717Y-70968752D01*
X110753236Y-70951254D01*
X110754226Y-70950301D01*
X110767927Y-70934247D01*
X110781866Y-70913672D01*
X110791636Y-70895793D01*
X110798800Y-70879796D01*
X110803369Y-70866448D01*
X110805909Y-70852615D01*
X110806988Y-70835160D01*
X110807175Y-70810949D01*
X110807173Y-70810000D01*
X110805531Y-70772177D01*
X110800202Y-70741458D01*
X110790230Y-70715327D01*
X110774661Y-70691266D01*
X110752937Y-70667155D01*
X110726353Y-70643812D01*
X110697645Y-70625491D01*
X110664108Y-70610730D01*
X110627500Y-70599260D01*
X110616345Y-70596392D01*
X110605273Y-70594047D01*
X110593103Y-70592159D01*
X110578653Y-70590658D01*
X110560743Y-70589475D01*
X110538190Y-70588541D01*
X110509815Y-70587788D01*
X110474434Y-70587146D01*
X110430868Y-70586548D01*
X110403750Y-70586220D01*
X110220000Y-70584066D01*
X110220000Y-70804900D01*
X110220000Y-71025734D01*
X109975000Y-71025734D01*
X109975000Y-70804900D01*
X109975000Y-70497500D01*
X109975000Y-70390000D01*
X110220000Y-70390000D01*
X110390210Y-70390000D01*
X110440223Y-70389900D01*
X110481387Y-70389574D01*
X110514852Y-70388978D01*
X110541768Y-70388070D01*
X110563284Y-70386806D01*
X110580551Y-70385144D01*
X110594718Y-70383041D01*
X110598960Y-70382233D01*
X110634436Y-70372694D01*
X110669671Y-70358959D01*
X110701539Y-70342462D01*
X110726910Y-70324635D01*
X110729346Y-70322495D01*
X110742485Y-70307920D01*
X110756173Y-70288490D01*
X110766201Y-70270817D01*
X110773279Y-70255879D01*
X110777944Y-70243543D01*
X110780696Y-70231018D01*
X110782037Y-70215513D01*
X110782468Y-70194238D01*
X110782500Y-70180105D01*
X110782301Y-70154392D01*
X110781416Y-70135986D01*
X110779411Y-70122197D01*
X110775852Y-70110337D01*
X110770307Y-70097714D01*
X110768679Y-70094368D01*
X110746839Y-70061049D01*
X110716315Y-70031730D01*
X110677784Y-70006889D01*
X110631922Y-69987006D01*
X110605717Y-69978872D01*
X110594554Y-69976030D01*
X110583160Y-69973717D01*
X110570318Y-69971861D01*
X110554809Y-69970388D01*
X110535414Y-69969226D01*
X110510913Y-69968303D01*
X110480089Y-69967546D01*
X110441722Y-69966882D01*
X110394595Y-69966238D01*
X110393750Y-69966227D01*
X110220000Y-69964028D01*
X110220000Y-70177014D01*
X110220000Y-70390000D01*
X109975000Y-70390000D01*
X109975000Y-70177014D01*
X109975000Y-69775000D01*
X110256631Y-69775000D01*
X110326357Y-69775070D01*
G37*
%TD.AperFunction*%
%TA.AperFunction,EtchedComponent*%
G36*
X116856542Y-66171358D02*
G01*
X116935413Y-66171756D01*
X117005025Y-66172157D01*
X117066121Y-66172603D01*
X117119441Y-66173134D01*
X117165729Y-66173792D01*
X117205724Y-66174617D01*
X117240170Y-66175651D01*
X117269807Y-66176934D01*
X117295377Y-66178507D01*
X117317622Y-66180411D01*
X117337284Y-66182687D01*
X117355104Y-66185377D01*
X117371823Y-66188521D01*
X117388184Y-66192160D01*
X117404928Y-66196335D01*
X117422797Y-66201087D01*
X117429968Y-66203034D01*
X117509283Y-66228904D01*
X117580991Y-66261172D01*
X117644970Y-66299672D01*
X117701101Y-66344236D01*
X117749261Y-66394697D01*
X117789331Y-66450888D01*
X117821189Y-66512641D01*
X117844715Y-66579790D01*
X117859788Y-66652166D01*
X117866288Y-66729603D01*
X117864603Y-66805003D01*
X117853732Y-66896403D01*
X117834211Y-66983695D01*
X117806228Y-67066450D01*
X117769968Y-67144242D01*
X117725619Y-67216644D01*
X117673367Y-67283228D01*
X117640087Y-67318446D01*
X117574610Y-67376311D01*
X117503315Y-67426071D01*
X117426296Y-67467685D01*
X117343644Y-67501114D01*
X117255455Y-67526318D01*
X117161819Y-67543259D01*
X117095857Y-67549982D01*
X117075777Y-67551057D01*
X117047195Y-67552053D01*
X117011608Y-67552945D01*
X116970514Y-67553705D01*
X116925411Y-67554308D01*
X116877795Y-67554727D01*
X116829164Y-67554937D01*
X116811806Y-67554956D01*
X116596112Y-67555000D01*
X116593195Y-67571250D01*
X116592004Y-67578779D01*
X116589489Y-67595379D01*
X116585771Y-67620226D01*
X116580973Y-67652496D01*
X116575216Y-67691365D01*
X116568623Y-67736010D01*
X116561314Y-67785607D01*
X116553413Y-67839330D01*
X116545040Y-67896358D01*
X116537543Y-67947500D01*
X116528862Y-68006712D01*
X116520545Y-68063331D01*
X116512716Y-68116532D01*
X116505496Y-68165491D01*
X116499006Y-68209385D01*
X116493370Y-68247389D01*
X116488709Y-68278679D01*
X116485144Y-68302432D01*
X116482798Y-68317824D01*
X116481848Y-68323750D01*
X116478887Y-68340000D01*
X116297636Y-68340000D01*
X116116386Y-68340000D01*
X116118340Y-68328750D01*
X116119243Y-68322785D01*
X116121525Y-68307385D01*
X116125119Y-68283009D01*
X116129958Y-68250117D01*
X116135974Y-68209168D01*
X116143101Y-68160621D01*
X116151270Y-68104937D01*
X116160415Y-68042575D01*
X116170468Y-67973994D01*
X116181362Y-67899653D01*
X116193029Y-67820013D01*
X116205402Y-67735532D01*
X116218414Y-67646671D01*
X116231997Y-67553888D01*
X116246084Y-67457643D01*
X116260608Y-67358396D01*
X116275004Y-67260000D01*
X116275258Y-67258267D01*
X116635000Y-67258267D01*
X116639839Y-67258613D01*
X116653712Y-67258935D01*
X116675653Y-67259228D01*
X116704698Y-67259484D01*
X116739879Y-67259696D01*
X116780231Y-67259857D01*
X116824789Y-67259961D01*
X116872586Y-67259999D01*
X116875210Y-67260000D01*
X116932955Y-67259951D01*
X116981642Y-67259789D01*
X117022215Y-67259485D01*
X117055615Y-67259014D01*
X117082785Y-67258348D01*
X117104667Y-67257461D01*
X117122204Y-67256325D01*
X117136338Y-67254914D01*
X117148011Y-67253202D01*
X117153960Y-67252073D01*
X117219034Y-67233757D01*
X117279560Y-67206539D01*
X117335419Y-67170481D01*
X117376391Y-67135573D01*
X117422605Y-67085651D01*
X117459932Y-67032250D01*
X117489160Y-66974026D01*
X117511074Y-66909639D01*
X117512974Y-66902500D01*
X117520059Y-66867834D01*
X117524817Y-66829047D01*
X117527135Y-66789092D01*
X117526901Y-66750924D01*
X117524001Y-66717500D01*
X117520703Y-66700000D01*
X117503209Y-66649548D01*
X117477111Y-66603339D01*
X117443244Y-66562301D01*
X117402439Y-66527362D01*
X117355530Y-66499450D01*
X117331470Y-66488969D01*
X117314655Y-66482622D01*
X117298940Y-66477273D01*
X117283306Y-66472838D01*
X117266737Y-66469231D01*
X117248215Y-66466368D01*
X117226720Y-66464163D01*
X117201236Y-66462531D01*
X117170744Y-66461388D01*
X117134227Y-66460648D01*
X117090667Y-66460227D01*
X117039046Y-66460039D01*
X116984560Y-66460000D01*
X116932511Y-66460094D01*
X116885475Y-66460369D01*
X116844207Y-66460808D01*
X116809458Y-66461398D01*
X116781984Y-66462123D01*
X116762537Y-66462970D01*
X116751872Y-66463923D01*
X116750000Y-66464557D01*
X116749293Y-66470106D01*
X116747247Y-66484794D01*
X116743970Y-66507869D01*
X116739570Y-66538577D01*
X116734157Y-66576163D01*
X116727840Y-66619874D01*
X116720727Y-66668956D01*
X116712927Y-66722655D01*
X116704549Y-66780216D01*
X116695703Y-66840886D01*
X116692500Y-66862825D01*
X116683520Y-66924327D01*
X116674971Y-66982925D01*
X116666961Y-67037872D01*
X116659598Y-67088421D01*
X116652990Y-67133825D01*
X116647247Y-67173338D01*
X116642478Y-67206212D01*
X116638789Y-67231700D01*
X116636291Y-67249056D01*
X116635092Y-67257533D01*
X116635000Y-67258267D01*
X116275258Y-67258267D01*
X116289899Y-67158204D01*
X116304431Y-67058922D01*
X116318531Y-66962616D01*
X116332133Y-66869749D01*
X116345168Y-66780782D01*
X116357568Y-66696179D01*
X116369265Y-66616402D01*
X116380192Y-66541914D01*
X116390281Y-66473177D01*
X116399463Y-66410654D01*
X116407671Y-66354808D01*
X116414837Y-66306100D01*
X116420893Y-66264994D01*
X116425771Y-66231953D01*
X116429404Y-66207438D01*
X116431723Y-66191912D01*
X116432649Y-66185899D01*
X116435584Y-66169298D01*
X116856542Y-66171358D01*
G37*
%TD.AperFunction*%
%TA.AperFunction,EtchedComponent*%
G36*
X120763845Y-66170044D02*
G01*
X120849335Y-66170128D01*
X120925565Y-66170374D01*
X120993270Y-66170804D01*
X121053189Y-66171440D01*
X121106060Y-66172305D01*
X121152619Y-66173421D01*
X121193606Y-66174811D01*
X121229756Y-66176496D01*
X121261808Y-66178500D01*
X121290500Y-66180845D01*
X121316568Y-66183552D01*
X121340751Y-66186645D01*
X121348775Y-66187804D01*
X121432580Y-66203722D01*
X121508621Y-66225396D01*
X121576800Y-66252750D01*
X121637015Y-66285708D01*
X121689168Y-66324195D01*
X121733159Y-66368136D01*
X121768887Y-66417454D01*
X121796252Y-66472074D01*
X121815155Y-66531920D01*
X121817497Y-66542500D01*
X121822472Y-66576006D01*
X121825249Y-66617512D01*
X121825812Y-66650000D01*
X121821171Y-66729359D01*
X121807312Y-66804860D01*
X121784242Y-66876478D01*
X121751970Y-66944191D01*
X121710503Y-67007977D01*
X121686219Y-67038516D01*
X121653969Y-67071583D01*
X121613413Y-67105019D01*
X121566149Y-67137808D01*
X121513773Y-67168935D01*
X121457885Y-67197386D01*
X121400081Y-67222145D01*
X121392737Y-67224954D01*
X121386676Y-67227552D01*
X121384847Y-67229962D01*
X121388418Y-67232920D01*
X121398560Y-67237158D01*
X121416443Y-67243412D01*
X121428755Y-67247559D01*
X121494213Y-67273337D01*
X121551011Y-67303904D01*
X121599356Y-67339422D01*
X121639451Y-67380049D01*
X121671503Y-67425947D01*
X121682076Y-67445735D01*
X121697585Y-67479150D01*
X121709137Y-67509324D01*
X121717264Y-67538795D01*
X121722497Y-67570099D01*
X121725367Y-67605772D01*
X121726407Y-67648351D01*
X121726441Y-67657500D01*
X121726205Y-67693685D01*
X121725249Y-67722609D01*
X121723353Y-67746998D01*
X121720302Y-67769578D01*
X121715878Y-67793076D01*
X121715475Y-67795000D01*
X121694127Y-67876618D01*
X121665953Y-67951104D01*
X121630816Y-68018590D01*
X121588579Y-68079209D01*
X121539106Y-68133094D01*
X121482260Y-68180379D01*
X121417904Y-68221197D01*
X121345903Y-68255681D01*
X121266119Y-68283964D01*
X121195000Y-68302576D01*
X121167267Y-68308607D01*
X121140276Y-68313966D01*
X121113285Y-68318690D01*
X121085551Y-68322819D01*
X121056331Y-68326391D01*
X121024883Y-68329444D01*
X120990465Y-68332018D01*
X120952334Y-68334152D01*
X120909747Y-68335883D01*
X120861962Y-68337250D01*
X120808236Y-68338293D01*
X120747827Y-68339049D01*
X120679993Y-68339557D01*
X120603990Y-68339857D01*
X120519077Y-68339987D01*
X120476240Y-68340000D01*
X120074809Y-68340000D01*
X120077348Y-68328750D01*
X120078305Y-68322787D01*
X120080638Y-68307387D01*
X120084279Y-68283009D01*
X120089163Y-68250111D01*
X120095220Y-68209151D01*
X120102383Y-68160589D01*
X120110587Y-68104881D01*
X120119576Y-68043750D01*
X120480006Y-68043750D01*
X120484813Y-68045460D01*
X120498484Y-68046920D01*
X120519884Y-68048133D01*
X120547881Y-68049101D01*
X120581339Y-68049826D01*
X120619126Y-68050313D01*
X120660108Y-68050563D01*
X120703152Y-68050579D01*
X120747123Y-68050364D01*
X120790888Y-68049922D01*
X120833313Y-68049254D01*
X120873266Y-68048363D01*
X120909611Y-68047253D01*
X120941216Y-68045926D01*
X120966947Y-68044384D01*
X120985670Y-68042632D01*
X120986670Y-68042503D01*
X121058758Y-68029329D01*
X121123827Y-68009710D01*
X121181678Y-67983795D01*
X121232109Y-67951735D01*
X121274920Y-67913681D01*
X121309910Y-67869783D01*
X121336877Y-67820191D01*
X121355276Y-67766420D01*
X121366503Y-67707192D01*
X121368814Y-67652465D01*
X121362285Y-67602369D01*
X121346992Y-67557034D01*
X121323015Y-67516590D01*
X121290429Y-67481169D01*
X121249312Y-67450900D01*
X121199741Y-67425913D01*
X121141854Y-67406356D01*
X121092500Y-67392981D01*
X120834217Y-67391169D01*
X120575935Y-67389357D01*
X120573003Y-67403428D01*
X120571727Y-67411017D01*
X120569207Y-67427305D01*
X120565591Y-67451270D01*
X120561028Y-67481888D01*
X120555667Y-67518134D01*
X120549656Y-67558986D01*
X120543144Y-67603420D01*
X120536279Y-67650412D01*
X120529211Y-67698938D01*
X120522087Y-67747976D01*
X120515057Y-67796500D01*
X120508269Y-67843489D01*
X120501873Y-67887917D01*
X120496015Y-67928762D01*
X120490846Y-67965000D01*
X120486514Y-67995607D01*
X120483167Y-68019560D01*
X120480955Y-68035835D01*
X120480025Y-68043408D01*
X120480006Y-68043750D01*
X120119576Y-68043750D01*
X120119762Y-68042487D01*
X120129842Y-67973865D01*
X120140759Y-67899473D01*
X120152446Y-67819771D01*
X120164836Y-67735215D01*
X120177862Y-67646266D01*
X120191455Y-67553380D01*
X120205549Y-67457017D01*
X120220077Y-67357636D01*
X120234970Y-67255693D01*
X120235072Y-67255000D01*
X120249967Y-67153041D01*
X120258451Y-67095000D01*
X120614809Y-67095000D01*
X120851154Y-67094979D01*
X120910329Y-67094909D01*
X120960449Y-67094690D01*
X121002458Y-67094299D01*
X121037301Y-67093710D01*
X121065922Y-67092897D01*
X121089265Y-67091835D01*
X121108274Y-67090499D01*
X121123894Y-67088864D01*
X121134173Y-67087390D01*
X121200502Y-67072530D01*
X121260375Y-67050711D01*
X121313462Y-67022287D01*
X121359435Y-66987611D01*
X121397966Y-66947037D01*
X121428726Y-66900918D01*
X121451386Y-66849608D01*
X121465617Y-66793460D01*
X121471091Y-66732827D01*
X121471143Y-66725000D01*
X121467073Y-66674733D01*
X121454982Y-66629991D01*
X121434689Y-66590541D01*
X121406009Y-66556154D01*
X121368760Y-66526600D01*
X121322758Y-66501647D01*
X121280438Y-66485147D01*
X121262488Y-66479502D01*
X121244269Y-66474749D01*
X121224763Y-66470816D01*
X121202950Y-66467630D01*
X121177809Y-66465115D01*
X121148322Y-66463200D01*
X121113469Y-66461811D01*
X121072230Y-66460874D01*
X121023585Y-66460316D01*
X120966516Y-66460064D01*
X120931647Y-66460029D01*
X120710794Y-66460000D01*
X120707921Y-66473750D01*
X120706695Y-66481098D01*
X120704173Y-66497428D01*
X120700491Y-66521821D01*
X120695786Y-66553362D01*
X120690192Y-66591133D01*
X120683845Y-66634219D01*
X120676883Y-66681702D01*
X120669439Y-66732667D01*
X120662550Y-66780000D01*
X120654805Y-66833192D01*
X120647428Y-66883643D01*
X120640553Y-66930447D01*
X120634314Y-66972697D01*
X120628847Y-67009487D01*
X120624287Y-67039910D01*
X120620766Y-67063060D01*
X120618422Y-67078030D01*
X120617430Y-67083750D01*
X120614809Y-67095000D01*
X120258451Y-67095000D01*
X120264496Y-67053641D01*
X120278592Y-66957256D01*
X120292187Y-66864346D01*
X120305213Y-66775368D01*
X120317605Y-66690782D01*
X120329293Y-66611045D01*
X120340212Y-66536616D01*
X120350293Y-66467954D01*
X120359469Y-66405517D01*
X120367674Y-66349762D01*
X120374839Y-66301150D01*
X120380898Y-66260138D01*
X120385783Y-66227184D01*
X120389427Y-66202747D01*
X120391762Y-66187285D01*
X120392721Y-66181257D01*
X120392723Y-66181250D01*
X120395190Y-66170000D01*
X120763845Y-66170044D01*
G37*
%TD.AperFunction*%
%TD*%
D15*
%TO.P,U1,1,~{CS}_1*%
%TO.N,/~{SPI_CS}*%
X112137500Y-53050000D03*
%TO.P,U1,2,CLK_2*%
%TO.N,/SPI_CLK*%
X112137500Y-53700000D03*
%TO.P,U1,3,MISO_3*%
%TO.N,/SPI_MISO*%
X112137500Y-54350000D03*
%TO.P,U1,4,MOSI_4*%
%TO.N,/SPI_MOSI*%
X112137500Y-55000000D03*
%TO.P,U1,5,TEST_5*%
%TO.N,GND*%
X112137500Y-55650000D03*
%TO.P,U1,6,B_6*%
%TO.N,/ENC_B*%
X112137500Y-56300000D03*
%TO.P,U1,7,A_7*%
%TO.N,/ENC_A*%
X112137500Y-56950000D03*
%TO.P,U1,8,W/PWM_8*%
%TO.N,/PWM*%
X117862500Y-56950000D03*
%TO.P,U1,9,V_9*%
%TO.N,unconnected-(U1-V-Pad9)*%
X117862500Y-56300000D03*
%TO.P,U1,10,U_10*%
%TO.N,unconnected-(U1-U-Pad10)*%
X117862500Y-55650000D03*
%TO.P,U1,11,VDD5V_11*%
%TO.N,+3.3V*%
X117862500Y-55000000D03*
%TO.P,U1,12,VDD3V3_12*%
X117862500Y-54350000D03*
%TO.P,U1,13,GND_13*%
%TO.N,GND*%
X117862500Y-53700000D03*
%TO.P,U1,14,I_14*%
%TO.N,/ENC_I*%
X117862500Y-53050000D03*
%TD*%
D16*
%TO.P,H4,1*%
%TO.N,N/C*%
X95000000Y-75000000D03*
%TD*%
%TO.P,H1,1*%
%TO.N,N/C*%
X95000000Y-35000000D03*
%TD*%
%TO.P,H3,1*%
%TO.N,N/C*%
X135000000Y-75000000D03*
%TD*%
D17*
%TO.P,C1,1*%
%TO.N,+3.3V*%
X120500000Y-55862500D03*
%TO.P,C1,2*%
%TO.N,GND*%
X120500000Y-54137500D03*
%TD*%
D16*
%TO.P,H2,1*%
%TO.N,N/C*%
X135000000Y-35000000D03*
%TD*%
D18*
%TO.P,J2,1,Pin_1_1*%
%TO.N,/ENC_I*%
X125160000Y-48688000D03*
D19*
%TO.P,J2,2,Pin_2_2*%
%TO.N,GND*%
X125160000Y-51228000D03*
%TO.P,J2,3,Pin_3_3*%
X125160000Y-53768000D03*
%TO.P,J2,4,Pin_4_4*%
%TO.N,+3.3V*%
X125160000Y-56308000D03*
%TO.P,J2,5,Pin_5_5*%
X125160000Y-58848000D03*
%TO.P,J2,6,Pin_6_6*%
%TO.N,/PWM*%
X125160000Y-61388000D03*
%TD*%
D18*
%TO.P,J1,1,Pin_1_1*%
%TO.N,/~{SPI_CS}*%
X104840000Y-48650000D03*
D19*
%TO.P,J1,2,Pin_2_2*%
%TO.N,/SPI_CLK*%
X104840000Y-51190000D03*
%TO.P,J1,3,Pin_3_3*%
%TO.N,/SPI_MISO*%
X104840000Y-53730000D03*
%TO.P,J1,4,Pin_4_4*%
%TO.N,/SPI_MOSI*%
X104840000Y-56270000D03*
%TO.P,J1,5,Pin_5_5*%
%TO.N,/ENC_B*%
X104840000Y-58810000D03*
%TO.P,J1,6,Pin_6_6*%
%TO.N,/ENC_A*%
X104840000Y-61350000D03*
%TD*%
%TO.N,/~{SPI_CS}*%
D20*
X112137500Y-53050000D02*
X109240000Y-53050000D01*
X109240000Y-53050000D02*
X104840000Y-48650000D01*
%TO.N,/SPI_CLK*%
X112137500Y-53700000D02*
X107350000Y-53700000D01*
X107350000Y-53700000D02*
X104840000Y-51190000D01*
%TO.N,/SPI_MISO*%
X105460000Y-54350000D02*
X104840000Y-53730000D01*
X112137500Y-54350000D02*
X105460000Y-54350000D01*
%TO.N,/SPI_MOSI*%
X112137500Y-55000000D02*
X106110000Y-55000000D01*
X106110000Y-55000000D02*
X104840000Y-56270000D01*
%TO.N,GND*%
D21*
X120637500Y-54000000D02*
X120500000Y-54137500D01*
X124928000Y-54000000D02*
X120637500Y-54000000D01*
D22*
X116300000Y-53700000D02*
X114350000Y-55650000D01*
X114350000Y-55650000D02*
X112137500Y-55650000D01*
D21*
X125160000Y-53768000D02*
X124928000Y-54000000D01*
D22*
X120500000Y-54137500D02*
X120062500Y-53700000D01*
X120062500Y-53700000D02*
X116300000Y-53700000D01*
D21*
X125160000Y-51228000D02*
X125160000Y-53768000D01*
%TO.N,/ENC_B*%
D20*
X112137500Y-56300000D02*
X107350000Y-56300000D01*
X107350000Y-56300000D02*
X104840000Y-58810000D01*
%TO.N,/ENC_A*%
X109240000Y-56950000D02*
X104840000Y-61350000D01*
X112137500Y-56950000D02*
X109240000Y-56950000D01*
%TO.N,/PWM*%
X120760000Y-56950000D02*
X117862500Y-56950000D01*
X125160000Y-61350000D02*
X120760000Y-56950000D01*
%TO.N,+3.3V*%
D21*
X125160000Y-56308000D02*
X124852000Y-56000000D01*
X120637500Y-56000000D02*
X120500000Y-55862500D01*
X119337500Y-54700000D02*
X118400000Y-54700000D01*
X120500000Y-55862500D02*
X119337500Y-54700000D01*
X125160000Y-56308000D02*
X125160000Y-58848000D01*
X124852000Y-56000000D02*
X120637500Y-56000000D01*
%TO.N,/ENC_I*%
D20*
X117862500Y-53050000D02*
X120760000Y-53050000D01*
X120760000Y-53050000D02*
X125160000Y-48650000D01*
%TD*%
M02*
