%TF.GenerationSoftware,KiCad,Pcbnew,10.0.1*%
%TF.CreationDate,2026-05-01T20:27:45-04:00*%
%TF.ProjectId,breakout-AS5047P,62726561-6b6f-4757-942d-415335303437,v1.1*%
%TF.SameCoordinates,Original*%
%TF.FileFunction,Copper,L2,Bot*%
%TF.FilePolarity,Positive*%
%FSLAX46Y46*%
G04 Gerber Fmt 4.6, Leading zero omitted, Abs format (unit mm)*
G04 Created by KiCad (PCBNEW 10.0.1) date 2026-05-01 20:27:45*
%MOMM*%
%LPD*%
G01*
G04 APERTURE LIST*
%TA.AperFunction,ComponentPad*%
%ADD10C,6.400000*%
%TD*%
%TA.AperFunction,ComponentPad*%
%ADD11R,1.700000X1.700000*%
%TD*%
%TA.AperFunction,ComponentPad*%
%ADD12C,1.700000*%
%TD*%
G04 APERTURE END LIST*
D10*
%TO.P,H4,1*%
%TO.N,N/C*%
X95000000Y-75000000D03*
%TD*%
%TO.P,H1,1*%
%TO.N,N/C*%
X95000000Y-35000000D03*
%TD*%
%TO.P,H3,1*%
%TO.N,N/C*%
X135000000Y-75000000D03*
%TD*%
%TO.P,H2,1*%
%TO.N,N/C*%
X135000000Y-35000000D03*
%TD*%
D11*
%TO.P,J2,1,Pin_1_1*%
%TO.N,/ENC_I*%
X125160000Y-48688000D03*
D12*
%TO.P,J2,2,Pin_2_2*%
%TO.N,GND*%
X125160000Y-51228000D03*
%TO.P,J2,3,Pin_3_3*%
X125160000Y-53768000D03*
%TO.P,J2,4,Pin_4_4*%
%TO.N,+3.3V*%
X125160000Y-56308000D03*
%TO.P,J2,5,Pin_5_5*%
X125160000Y-58848000D03*
%TO.P,J2,6,Pin_6_6*%
%TO.N,/PWM*%
X125160000Y-61388000D03*
%TD*%
D11*
%TO.P,J1,1,Pin_1_1*%
%TO.N,/~{SPI_CS}*%
X104840000Y-48650000D03*
D12*
%TO.P,J1,2,Pin_2_2*%
%TO.N,/SPI_CLK*%
X104840000Y-51190000D03*
%TO.P,J1,3,Pin_3_3*%
%TO.N,/SPI_MISO*%
X104840000Y-53730000D03*
%TO.P,J1,4,Pin_4_4*%
%TO.N,/SPI_MOSI*%
X104840000Y-56270000D03*
%TO.P,J1,5,Pin_5_5*%
%TO.N,/ENC_B*%
X104840000Y-58810000D03*
%TO.P,J1,6,Pin_6_6*%
%TO.N,/ENC_A*%
X104840000Y-61350000D03*
%TD*%
%TA.AperFunction,NonConductor*%
G36*
X138004418Y-30500816D02*
G01*
X138204561Y-30515130D01*
X138222063Y-30517647D01*
X138413795Y-30559355D01*
X138430760Y-30564336D01*
X138614611Y-30632909D01*
X138630694Y-30640253D01*
X138747495Y-30704032D01*
X138802908Y-30734290D01*
X138817791Y-30743855D01*
X138974864Y-30861438D01*
X138988235Y-30873024D01*
X139126975Y-31011764D01*
X139138561Y-31025135D01*
X139256144Y-31182208D01*
X139265709Y-31197091D01*
X139359743Y-31369300D01*
X139367093Y-31385394D01*
X139435661Y-31569234D01*
X139440645Y-31586209D01*
X139482351Y-31777931D01*
X139484869Y-31795442D01*
X139499184Y-31995580D01*
X139499500Y-32004427D01*
X139499500Y-37995572D01*
X139499184Y-38004419D01*
X139484869Y-38204557D01*
X139482351Y-38222068D01*
X139440645Y-38413790D01*
X139435661Y-38430765D01*
X139367093Y-38614605D01*
X139359743Y-38630699D01*
X139265709Y-38802908D01*
X139256144Y-38817791D01*
X139138561Y-38974864D01*
X139126975Y-38988235D01*
X138988235Y-39126975D01*
X138974864Y-39138561D01*
X138817791Y-39256144D01*
X138802908Y-39265709D01*
X138630699Y-39359743D01*
X138614605Y-39367093D01*
X138430765Y-39435661D01*
X138413790Y-39440645D01*
X138222068Y-39482351D01*
X138204557Y-39484869D01*
X138023779Y-39497799D01*
X138004417Y-39499184D01*
X137995572Y-39499500D01*
X128848746Y-39499500D01*
X128698598Y-39517731D01*
X128548449Y-39535963D01*
X128399459Y-39572685D01*
X128254728Y-39608358D01*
X127971886Y-39715627D01*
X127865711Y-39771352D01*
X127704032Y-39856207D01*
X127704030Y-39856208D01*
X127704025Y-39856211D01*
X127455070Y-40028054D01*
X127228648Y-40228646D01*
X127228646Y-40228648D01*
X127028054Y-40455070D01*
X126856211Y-40704025D01*
X126715627Y-40971886D01*
X126608358Y-41254728D01*
X126608357Y-41254734D01*
X126535963Y-41548449D01*
X126521377Y-41668568D01*
X126499500Y-41848745D01*
X126499500Y-46876000D01*
X126479815Y-46943039D01*
X126427011Y-46988794D01*
X126375500Y-47000000D01*
X123000000Y-47000000D01*
X123000000Y-63000000D01*
X126375500Y-63000000D01*
X126442539Y-63019685D01*
X126488294Y-63072489D01*
X126499500Y-63124000D01*
X126499500Y-67934108D01*
X126499500Y-68000000D01*
X126499500Y-68151252D01*
X126535963Y-68451551D01*
X126578200Y-68622915D01*
X126608358Y-68745271D01*
X126633169Y-68810691D01*
X126715627Y-69028113D01*
X126856207Y-69295968D01*
X127028050Y-69544924D01*
X127028052Y-69544926D01*
X127028054Y-69544929D01*
X127228646Y-69771351D01*
X127228648Y-69771353D01*
X127324429Y-69856207D01*
X127455076Y-69971950D01*
X127704032Y-70143793D01*
X127971887Y-70284373D01*
X128167783Y-70358666D01*
X128254728Y-70391641D01*
X128254730Y-70391641D01*
X128254734Y-70391643D01*
X128548449Y-70464037D01*
X128799661Y-70494539D01*
X128848746Y-70500500D01*
X128848748Y-70500500D01*
X128934108Y-70500500D01*
X137934108Y-70500500D01*
X137995572Y-70500500D01*
X138004418Y-70500816D01*
X138204561Y-70515130D01*
X138222063Y-70517647D01*
X138413795Y-70559355D01*
X138430760Y-70564336D01*
X138614611Y-70632909D01*
X138630694Y-70640253D01*
X138747495Y-70704032D01*
X138802908Y-70734290D01*
X138817791Y-70743855D01*
X138974864Y-70861438D01*
X138988235Y-70873024D01*
X139126975Y-71011764D01*
X139138561Y-71025135D01*
X139256144Y-71182208D01*
X139265709Y-71197091D01*
X139359743Y-71369300D01*
X139367093Y-71385394D01*
X139435661Y-71569234D01*
X139440645Y-71586209D01*
X139482351Y-71777931D01*
X139484869Y-71795442D01*
X139499184Y-71995580D01*
X139499500Y-72004427D01*
X139499500Y-77995572D01*
X139499184Y-78004419D01*
X139484869Y-78204557D01*
X139482351Y-78222068D01*
X139440645Y-78413790D01*
X139435661Y-78430765D01*
X139367093Y-78614605D01*
X139359743Y-78630699D01*
X139265709Y-78802908D01*
X139256144Y-78817791D01*
X139138561Y-78974864D01*
X139126975Y-78988235D01*
X138988235Y-79126975D01*
X138974864Y-79138561D01*
X138817791Y-79256144D01*
X138802908Y-79265709D01*
X138630699Y-79359743D01*
X138614605Y-79367093D01*
X138430765Y-79435661D01*
X138413790Y-79440645D01*
X138222068Y-79482351D01*
X138204557Y-79484869D01*
X138023779Y-79497799D01*
X138004417Y-79499184D01*
X137995572Y-79499500D01*
X92004428Y-79499500D01*
X91995582Y-79499184D01*
X91973622Y-79497613D01*
X91795442Y-79484869D01*
X91777931Y-79482351D01*
X91586209Y-79440645D01*
X91569234Y-79435661D01*
X91385394Y-79367093D01*
X91369300Y-79359743D01*
X91197091Y-79265709D01*
X91182208Y-79256144D01*
X91025135Y-79138561D01*
X91011764Y-79126975D01*
X90873024Y-78988235D01*
X90861438Y-78974864D01*
X90743855Y-78817791D01*
X90734290Y-78802908D01*
X90640256Y-78630699D01*
X90632909Y-78614611D01*
X90564336Y-78430760D01*
X90559354Y-78413790D01*
X90545313Y-78349245D01*
X90517647Y-78222063D01*
X90515130Y-78204556D01*
X90513220Y-78177853D01*
X90500816Y-78004418D01*
X90500500Y-77995572D01*
X90500500Y-74818209D01*
X91299500Y-74818209D01*
X91299500Y-75181790D01*
X91335137Y-75543630D01*
X91406064Y-75900212D01*
X91406067Y-75900223D01*
X91511614Y-76248165D01*
X91650754Y-76584078D01*
X91650756Y-76584083D01*
X91822140Y-76904720D01*
X91822151Y-76904738D01*
X92024140Y-77207035D01*
X92024150Y-77207049D01*
X92254807Y-77488106D01*
X92511893Y-77745192D01*
X92511898Y-77745196D01*
X92511899Y-77745197D01*
X92792956Y-77975854D01*
X93095268Y-78177853D01*
X93095277Y-78177858D01*
X93095279Y-78177859D01*
X93415916Y-78349243D01*
X93415918Y-78349243D01*
X93415924Y-78349247D01*
X93751836Y-78488386D01*
X94099767Y-78593930D01*
X94099773Y-78593931D01*
X94099776Y-78593932D01*
X94099787Y-78593935D01*
X94456369Y-78664862D01*
X94818206Y-78700500D01*
X94818209Y-78700500D01*
X95181791Y-78700500D01*
X95181794Y-78700500D01*
X95543631Y-78664862D01*
X95613045Y-78651054D01*
X95900212Y-78593935D01*
X95900223Y-78593932D01*
X95900223Y-78593931D01*
X95900233Y-78593930D01*
X96248164Y-78488386D01*
X96584076Y-78349247D01*
X96904732Y-78177853D01*
X97207044Y-77975854D01*
X97488101Y-77745197D01*
X97745197Y-77488101D01*
X97975854Y-77207044D01*
X98177853Y-76904732D01*
X98349247Y-76584076D01*
X98488386Y-76248164D01*
X98593930Y-75900233D01*
X98593932Y-75900223D01*
X98593935Y-75900212D01*
X98664862Y-75543630D01*
X98700500Y-75181790D01*
X98700500Y-74818209D01*
X131299500Y-74818209D01*
X131299500Y-75181790D01*
X131335137Y-75543630D01*
X131406064Y-75900212D01*
X131406067Y-75900223D01*
X131511614Y-76248165D01*
X131650754Y-76584078D01*
X131650756Y-76584083D01*
X131822140Y-76904720D01*
X131822151Y-76904738D01*
X132024140Y-77207035D01*
X132024150Y-77207049D01*
X132254807Y-77488106D01*
X132511893Y-77745192D01*
X132511898Y-77745196D01*
X132511899Y-77745197D01*
X132792956Y-77975854D01*
X133095268Y-78177853D01*
X133095277Y-78177858D01*
X133095279Y-78177859D01*
X133415916Y-78349243D01*
X133415918Y-78349243D01*
X133415924Y-78349247D01*
X133751836Y-78488386D01*
X134099767Y-78593930D01*
X134099773Y-78593931D01*
X134099776Y-78593932D01*
X134099787Y-78593935D01*
X134456369Y-78664862D01*
X134818206Y-78700500D01*
X134818209Y-78700500D01*
X135181791Y-78700500D01*
X135181794Y-78700500D01*
X135543631Y-78664862D01*
X135613045Y-78651054D01*
X135900212Y-78593935D01*
X135900223Y-78593932D01*
X135900223Y-78593931D01*
X135900233Y-78593930D01*
X136248164Y-78488386D01*
X136584076Y-78349247D01*
X136904732Y-78177853D01*
X137207044Y-77975854D01*
X137488101Y-77745197D01*
X137745197Y-77488101D01*
X137975854Y-77207044D01*
X138177853Y-76904732D01*
X138349247Y-76584076D01*
X138488386Y-76248164D01*
X138593930Y-75900233D01*
X138593932Y-75900223D01*
X138593935Y-75900212D01*
X138664862Y-75543630D01*
X138700500Y-75181790D01*
X138700500Y-74818209D01*
X138664862Y-74456369D01*
X138593935Y-74099787D01*
X138593932Y-74099776D01*
X138593931Y-74099773D01*
X138593930Y-74099767D01*
X138488386Y-73751836D01*
X138349247Y-73415924D01*
X138177853Y-73095268D01*
X137975854Y-72792956D01*
X137745197Y-72511899D01*
X137745196Y-72511898D01*
X137745192Y-72511893D01*
X137488106Y-72254807D01*
X137207049Y-72024150D01*
X137207048Y-72024149D01*
X137207044Y-72024146D01*
X136904732Y-71822147D01*
X136904727Y-71822144D01*
X136904720Y-71822140D01*
X136584083Y-71650756D01*
X136584078Y-71650754D01*
X136248165Y-71511614D01*
X135900223Y-71406067D01*
X135900212Y-71406064D01*
X135543630Y-71335137D01*
X135271111Y-71308296D01*
X135181794Y-71299500D01*
X134818206Y-71299500D01*
X134735679Y-71307628D01*
X134456369Y-71335137D01*
X134099787Y-71406064D01*
X134099776Y-71406067D01*
X133751834Y-71511614D01*
X133415921Y-71650754D01*
X133415916Y-71650756D01*
X133095279Y-71822140D01*
X133095261Y-71822151D01*
X132792964Y-72024140D01*
X132792950Y-72024150D01*
X132511893Y-72254807D01*
X132254807Y-72511893D01*
X132024150Y-72792950D01*
X132024140Y-72792964D01*
X131822151Y-73095261D01*
X131822140Y-73095279D01*
X131650756Y-73415916D01*
X131650754Y-73415921D01*
X131511614Y-73751834D01*
X131406067Y-74099776D01*
X131406064Y-74099787D01*
X131335137Y-74456369D01*
X131299500Y-74818209D01*
X98700500Y-74818209D01*
X98664862Y-74456369D01*
X98593935Y-74099787D01*
X98593932Y-74099776D01*
X98593931Y-74099773D01*
X98593930Y-74099767D01*
X98488386Y-73751836D01*
X98349247Y-73415924D01*
X98177853Y-73095268D01*
X97975854Y-72792956D01*
X97745197Y-72511899D01*
X97745196Y-72511898D01*
X97745192Y-72511893D01*
X97488106Y-72254807D01*
X97207049Y-72024150D01*
X97207048Y-72024149D01*
X97207044Y-72024146D01*
X96904732Y-71822147D01*
X96904727Y-71822144D01*
X96904720Y-71822140D01*
X96584083Y-71650756D01*
X96584078Y-71650754D01*
X96248165Y-71511614D01*
X95900223Y-71406067D01*
X95900212Y-71406064D01*
X95543630Y-71335137D01*
X95271111Y-71308296D01*
X95181794Y-71299500D01*
X94818206Y-71299500D01*
X94735679Y-71307628D01*
X94456369Y-71335137D01*
X94099787Y-71406064D01*
X94099776Y-71406067D01*
X93751834Y-71511614D01*
X93415921Y-71650754D01*
X93415916Y-71650756D01*
X93095279Y-71822140D01*
X93095261Y-71822151D01*
X92792964Y-72024140D01*
X92792950Y-72024150D01*
X92511893Y-72254807D01*
X92254807Y-72511893D01*
X92024150Y-72792950D01*
X92024140Y-72792964D01*
X91822151Y-73095261D01*
X91822140Y-73095279D01*
X91650756Y-73415916D01*
X91650754Y-73415921D01*
X91511614Y-73751834D01*
X91406067Y-74099776D01*
X91406064Y-74099787D01*
X91335137Y-74456369D01*
X91299500Y-74818209D01*
X90500500Y-74818209D01*
X90500500Y-72004427D01*
X90500816Y-71995581D01*
X90513220Y-71822151D01*
X90515131Y-71795434D01*
X90517646Y-71777938D01*
X90559356Y-71586200D01*
X90564335Y-71569242D01*
X90632911Y-71385382D01*
X90640251Y-71369310D01*
X90734294Y-71197083D01*
X90743850Y-71182214D01*
X90861443Y-71025128D01*
X90873017Y-71011771D01*
X91011771Y-70873017D01*
X91025128Y-70861443D01*
X91182214Y-70743850D01*
X91197083Y-70734294D01*
X91369310Y-70640251D01*
X91385382Y-70632911D01*
X91569242Y-70564335D01*
X91586200Y-70559356D01*
X91777938Y-70517646D01*
X91795436Y-70515130D01*
X91995582Y-70500816D01*
X92004428Y-70500500D01*
X101151254Y-70500500D01*
X101196630Y-70494990D01*
X101451551Y-70464037D01*
X101745266Y-70391643D01*
X102028113Y-70284373D01*
X102295968Y-70143793D01*
X102544924Y-69971950D01*
X102771352Y-69771352D01*
X102971950Y-69544924D01*
X103143793Y-69295968D01*
X103284373Y-69028113D01*
X103391643Y-68745266D01*
X103464037Y-68451551D01*
X103500500Y-68151252D01*
X103500500Y-68000000D01*
X103500500Y-67934108D01*
X103500500Y-63124000D01*
X103520185Y-63056961D01*
X103572989Y-63011206D01*
X103624500Y-63000000D01*
X107000000Y-63000000D01*
X107000000Y-47000000D01*
X103624500Y-47000000D01*
X103557461Y-46980315D01*
X103511706Y-46927511D01*
X103500500Y-46876000D01*
X103500500Y-41848745D01*
X103492235Y-41780680D01*
X103464037Y-41548449D01*
X103391643Y-41254734D01*
X103284373Y-40971887D01*
X103143793Y-40704032D01*
X102971950Y-40455076D01*
X102971945Y-40455070D01*
X102771353Y-40228648D01*
X102771351Y-40228646D01*
X102544929Y-40028054D01*
X102544926Y-40028052D01*
X102544924Y-40028050D01*
X102295968Y-39856207D01*
X102028113Y-39715627D01*
X101745271Y-39608358D01*
X101675034Y-39591046D01*
X101451551Y-39535963D01*
X101271371Y-39514085D01*
X101151254Y-39499500D01*
X101151252Y-39499500D01*
X101065892Y-39499500D01*
X92004428Y-39499500D01*
X91995582Y-39499184D01*
X91973622Y-39497613D01*
X91795442Y-39484869D01*
X91777931Y-39482351D01*
X91586209Y-39440645D01*
X91569234Y-39435661D01*
X91385394Y-39367093D01*
X91369300Y-39359743D01*
X91197091Y-39265709D01*
X91182208Y-39256144D01*
X91025135Y-39138561D01*
X91011764Y-39126975D01*
X90873024Y-38988235D01*
X90861438Y-38974864D01*
X90743855Y-38817791D01*
X90734290Y-38802908D01*
X90640256Y-38630699D01*
X90632909Y-38614611D01*
X90564336Y-38430760D01*
X90559354Y-38413790D01*
X90545313Y-38349245D01*
X90517647Y-38222063D01*
X90515130Y-38204556D01*
X90513220Y-38177853D01*
X90500816Y-38004418D01*
X90500500Y-37995572D01*
X90500500Y-34818209D01*
X91299500Y-34818209D01*
X91299500Y-35181790D01*
X91335137Y-35543630D01*
X91406064Y-35900212D01*
X91406067Y-35900223D01*
X91511614Y-36248165D01*
X91650754Y-36584078D01*
X91650756Y-36584083D01*
X91822140Y-36904720D01*
X91822151Y-36904738D01*
X92024140Y-37207035D01*
X92024150Y-37207049D01*
X92254807Y-37488106D01*
X92511893Y-37745192D01*
X92511898Y-37745196D01*
X92511899Y-37745197D01*
X92792956Y-37975854D01*
X93095268Y-38177853D01*
X93095277Y-38177858D01*
X93095279Y-38177859D01*
X93415916Y-38349243D01*
X93415918Y-38349243D01*
X93415924Y-38349247D01*
X93751836Y-38488386D01*
X94099767Y-38593930D01*
X94099773Y-38593931D01*
X94099776Y-38593932D01*
X94099787Y-38593935D01*
X94456369Y-38664862D01*
X94818206Y-38700500D01*
X94818209Y-38700500D01*
X95181791Y-38700500D01*
X95181794Y-38700500D01*
X95543631Y-38664862D01*
X95613045Y-38651054D01*
X95900212Y-38593935D01*
X95900223Y-38593932D01*
X95900223Y-38593931D01*
X95900233Y-38593930D01*
X96248164Y-38488386D01*
X96584076Y-38349247D01*
X96904732Y-38177853D01*
X97207044Y-37975854D01*
X97488101Y-37745197D01*
X97745197Y-37488101D01*
X97975854Y-37207044D01*
X98177853Y-36904732D01*
X98349247Y-36584076D01*
X98488386Y-36248164D01*
X98593930Y-35900233D01*
X98593932Y-35900223D01*
X98593935Y-35900212D01*
X98664862Y-35543630D01*
X98700500Y-35181790D01*
X98700500Y-34818209D01*
X131299500Y-34818209D01*
X131299500Y-35181790D01*
X131335137Y-35543630D01*
X131406064Y-35900212D01*
X131406067Y-35900223D01*
X131511614Y-36248165D01*
X131650754Y-36584078D01*
X131650756Y-36584083D01*
X131822140Y-36904720D01*
X131822151Y-36904738D01*
X132024140Y-37207035D01*
X132024150Y-37207049D01*
X132254807Y-37488106D01*
X132511893Y-37745192D01*
X132511898Y-37745196D01*
X132511899Y-37745197D01*
X132792956Y-37975854D01*
X133095268Y-38177853D01*
X133095277Y-38177858D01*
X133095279Y-38177859D01*
X133415916Y-38349243D01*
X133415918Y-38349243D01*
X133415924Y-38349247D01*
X133751836Y-38488386D01*
X134099767Y-38593930D01*
X134099773Y-38593931D01*
X134099776Y-38593932D01*
X134099787Y-38593935D01*
X134456369Y-38664862D01*
X134818206Y-38700500D01*
X134818209Y-38700500D01*
X135181791Y-38700500D01*
X135181794Y-38700500D01*
X135543631Y-38664862D01*
X135613045Y-38651054D01*
X135900212Y-38593935D01*
X135900223Y-38593932D01*
X135900223Y-38593931D01*
X135900233Y-38593930D01*
X136248164Y-38488386D01*
X136584076Y-38349247D01*
X136904732Y-38177853D01*
X137207044Y-37975854D01*
X137488101Y-37745197D01*
X137745197Y-37488101D01*
X137975854Y-37207044D01*
X138177853Y-36904732D01*
X138349247Y-36584076D01*
X138488386Y-36248164D01*
X138593930Y-35900233D01*
X138593932Y-35900223D01*
X138593935Y-35900212D01*
X138664862Y-35543630D01*
X138700500Y-35181790D01*
X138700500Y-34818209D01*
X138664862Y-34456369D01*
X138593935Y-34099787D01*
X138593932Y-34099776D01*
X138593931Y-34099773D01*
X138593930Y-34099767D01*
X138488386Y-33751836D01*
X138349247Y-33415924D01*
X138177853Y-33095268D01*
X137975854Y-32792956D01*
X137745197Y-32511899D01*
X137745196Y-32511898D01*
X137745192Y-32511893D01*
X137488106Y-32254807D01*
X137207049Y-32024150D01*
X137207048Y-32024149D01*
X137207044Y-32024146D01*
X136904732Y-31822147D01*
X136904727Y-31822144D01*
X136904720Y-31822140D01*
X136584083Y-31650756D01*
X136584078Y-31650754D01*
X136248165Y-31511614D01*
X135900223Y-31406067D01*
X135900212Y-31406064D01*
X135543630Y-31335137D01*
X135271111Y-31308296D01*
X135181794Y-31299500D01*
X134818206Y-31299500D01*
X134735679Y-31307628D01*
X134456369Y-31335137D01*
X134099787Y-31406064D01*
X134099776Y-31406067D01*
X133751834Y-31511614D01*
X133415921Y-31650754D01*
X133415916Y-31650756D01*
X133095279Y-31822140D01*
X133095261Y-31822151D01*
X132792964Y-32024140D01*
X132792950Y-32024150D01*
X132511893Y-32254807D01*
X132254807Y-32511893D01*
X132024150Y-32792950D01*
X132024140Y-32792964D01*
X131822151Y-33095261D01*
X131822140Y-33095279D01*
X131650756Y-33415916D01*
X131650754Y-33415921D01*
X131511614Y-33751834D01*
X131406067Y-34099776D01*
X131406064Y-34099787D01*
X131335137Y-34456369D01*
X131299500Y-34818209D01*
X98700500Y-34818209D01*
X98664862Y-34456369D01*
X98593935Y-34099787D01*
X98593932Y-34099776D01*
X98593931Y-34099773D01*
X98593930Y-34099767D01*
X98488386Y-33751836D01*
X98349247Y-33415924D01*
X98177853Y-33095268D01*
X97975854Y-32792956D01*
X97745197Y-32511899D01*
X97745196Y-32511898D01*
X97745192Y-32511893D01*
X97488106Y-32254807D01*
X97207049Y-32024150D01*
X97207048Y-32024149D01*
X97207044Y-32024146D01*
X96904732Y-31822147D01*
X96904727Y-31822144D01*
X96904720Y-31822140D01*
X96584083Y-31650756D01*
X96584078Y-31650754D01*
X96248165Y-31511614D01*
X95900223Y-31406067D01*
X95900212Y-31406064D01*
X95543630Y-31335137D01*
X95271111Y-31308296D01*
X95181794Y-31299500D01*
X94818206Y-31299500D01*
X94735679Y-31307628D01*
X94456369Y-31335137D01*
X94099787Y-31406064D01*
X94099776Y-31406067D01*
X93751834Y-31511614D01*
X93415921Y-31650754D01*
X93415916Y-31650756D01*
X93095279Y-31822140D01*
X93095261Y-31822151D01*
X92792964Y-32024140D01*
X92792950Y-32024150D01*
X92511893Y-32254807D01*
X92254807Y-32511893D01*
X92024150Y-32792950D01*
X92024140Y-32792964D01*
X91822151Y-33095261D01*
X91822140Y-33095279D01*
X91650756Y-33415916D01*
X91650754Y-33415921D01*
X91511614Y-33751834D01*
X91406067Y-34099776D01*
X91406064Y-34099787D01*
X91335137Y-34456369D01*
X91299500Y-34818209D01*
X90500500Y-34818209D01*
X90500500Y-32004427D01*
X90500816Y-31995581D01*
X90513220Y-31822151D01*
X90515131Y-31795434D01*
X90517646Y-31777938D01*
X90559356Y-31586200D01*
X90564335Y-31569242D01*
X90632911Y-31385382D01*
X90640251Y-31369310D01*
X90734294Y-31197083D01*
X90743850Y-31182214D01*
X90861443Y-31025128D01*
X90873017Y-31011771D01*
X91011771Y-30873017D01*
X91025128Y-30861443D01*
X91182214Y-30743850D01*
X91197083Y-30734294D01*
X91369310Y-30640251D01*
X91385382Y-30632911D01*
X91569242Y-30564335D01*
X91586200Y-30559356D01*
X91777938Y-30517646D01*
X91795436Y-30515130D01*
X91995582Y-30500816D01*
X92004428Y-30500500D01*
X92065892Y-30500500D01*
X137934108Y-30500500D01*
X137995572Y-30500500D01*
X138004418Y-30500816D01*
G37*
%TD.AperFunction*%
M02*
