%TF.GenerationSoftware,KiCad,Pcbnew,10.0.1*%
%TF.CreationDate,2026-05-01T20:27:45-04:00*%
%TF.ProjectId,breakout-AS5047P,62726561-6b6f-4757-942d-415335303437,v1.1*%
%TF.SameCoordinates,Original*%
%TF.FileFunction,Profile,NP*%
%FSLAX46Y46*%
G04 Gerber Fmt 4.6, Leading zero omitted, Abs format (unit mm)*
G04 Created by KiCad (PCBNEW 10.0.1) date 2026-05-01 20:27:45*
%MOMM*%
%LPD*%
G01*
G04 APERTURE LIST*
%TA.AperFunction,Profile*%
%ADD10C,0.050000*%
%TD*%
G04 APERTURE END LIST*
D10*
X90000000Y-32000000D02*
X90000000Y-38000000D01*
X90000000Y-32000000D02*
G75*
G02*
X92000000Y-30000000I2000000J0D01*
G01*
X90000000Y-72000000D02*
X90000000Y-78000000D01*
X90000000Y-72000000D02*
G75*
G02*
X92000000Y-70000000I2000000J0D01*
G01*
X92000000Y-40000000D02*
G75*
G02*
X90000000Y-38000000I0J2000000D01*
G01*
X92000000Y-40000000D02*
X101000000Y-40000000D01*
X92000000Y-70000000D02*
X101000000Y-70000000D01*
X92000000Y-80000000D02*
G75*
G02*
X90000000Y-78000000I0J2000000D01*
G01*
X92000000Y-80000000D02*
X138000000Y-80000000D01*
X101000000Y-40000000D02*
G75*
G02*
X103000000Y-42000000I0J-2000000D01*
G01*
X103000000Y-42000000D02*
X103000000Y-68000000D01*
X103000000Y-68000000D02*
G75*
G02*
X101000000Y-70000000I-2000000J0D01*
G01*
X127000000Y-42000000D02*
G75*
G02*
X129000000Y-40000000I2000000J0D01*
G01*
X127000000Y-68000000D02*
X127000000Y-42000000D01*
X129000000Y-70000000D02*
G75*
G02*
X127000000Y-68000000I0J2000000D01*
G01*
X138000000Y-30000000D02*
X92000000Y-30000000D01*
X138000000Y-30000000D02*
G75*
G02*
X140000000Y-32000000I0J-2000000D01*
G01*
X138000000Y-40000000D02*
X129000000Y-40000000D01*
X138000000Y-70000000D02*
X129000000Y-70000000D01*
X138000000Y-70000000D02*
G75*
G02*
X140000000Y-72000000I0J-2000000D01*
G01*
X140000000Y-38000000D02*
G75*
G02*
X138000000Y-40000000I-2000000J0D01*
G01*
X140000000Y-38000000D02*
X140000000Y-32000000D01*
X140000000Y-78000000D02*
G75*
G02*
X138000000Y-80000000I-2000000J0D01*
G01*
X140000000Y-78000000D02*
X140000000Y-72000000D01*
M02*
