G75*
G70*
%OFA0B0*%
%FSLAX24Y24*%
%IPPOS*%
%LPD*%
%AMOC8*
5,1,8,0,0,1.08239X$1,22.5*
%
%ADD10R,0.0945X0.0945*%
%ADD11R,0.1500X0.0820*%
%ADD12R,0.3500X0.4500*%
%ADD13R,0.0866X0.0236*%
%ADD14C,0.0945*%
%ADD15R,0.0630X0.0710*%
%ADD16R,0.0591X0.0787*%
%ADD17R,0.1004X0.0984*%
%ADD18C,0.0974*%
%ADD19R,0.0433X0.0394*%
%ADD20R,0.0748X0.0236*%
%ADD21R,0.1102X0.0827*%
%ADD22R,0.0551X0.0709*%
%ADD23R,0.0272X0.0394*%
%ADD24R,0.0394X0.0433*%
%ADD25R,0.0120X0.0350*%
%ADD26R,0.0740X0.0661*%
%ADD27R,0.0709X0.0630*%
%ADD28R,0.0512X0.0591*%
%ADD29R,0.0480X0.0880*%
%ADD30R,0.1417X0.0866*%
%ADD31R,0.0350X0.0310*%
%ADD32R,0.1260X0.0709*%
%ADD33R,0.0591X0.0472*%
%ADD34R,0.5118X0.1969*%
%ADD35C,0.1125*%
%ADD36C,0.0600*%
%ADD37C,0.0515*%
%ADD38C,0.0520*%
%ADD39C,0.0397*%
%ADD40C,0.0100*%
%ADD41C,0.0310*%
%ADD42C,0.0500*%
%ADD43C,0.0160*%
%ADD44C,0.0120*%
%ADD45C,0.0240*%
%ADD46C,0.0320*%
%ADD47C,0.0400*%
D10*
X001566Y020734D03*
X001566Y022466D03*
D11*
X022816Y019850D03*
X022816Y017850D03*
D12*
X018316Y018850D03*
D13*
X025542Y005850D03*
X025542Y005350D03*
X025542Y004850D03*
X025542Y004350D03*
X027590Y004350D03*
X027590Y004850D03*
X027590Y005350D03*
X027590Y005850D03*
D14*
X036066Y005350D03*
X036066Y011350D03*
X044316Y011350D03*
X044316Y005350D03*
D15*
X044506Y006400D03*
X045626Y006400D03*
X037376Y006400D03*
X036256Y006400D03*
D16*
X027156Y006850D03*
X025975Y006850D03*
D17*
X025572Y008100D03*
X027560Y008100D03*
D18*
X036036Y004100D03*
X037595Y004100D03*
X044286Y004100D03*
X045845Y004100D03*
X009345Y005850D03*
X007786Y005850D03*
D19*
X010816Y008265D03*
X010816Y008935D03*
X011816Y008935D03*
X011816Y008265D03*
X008651Y009600D03*
X007981Y009600D03*
X006566Y011265D03*
X006566Y011935D03*
X005316Y011935D03*
X005316Y011265D03*
X004066Y011265D03*
X004066Y011935D03*
X004066Y007185D03*
X004066Y006515D03*
X012981Y011850D03*
X013651Y011850D03*
X014316Y012015D03*
X014316Y012685D03*
X013651Y012850D03*
X012981Y012850D03*
X015316Y013515D03*
X015316Y014185D03*
X017316Y014185D03*
X017316Y013515D03*
X018316Y010685D03*
X018316Y010015D03*
X023816Y006185D03*
X023816Y005515D03*
X023816Y003935D03*
X023816Y003265D03*
X025731Y009350D03*
X026401Y009350D03*
X026651Y018850D03*
X025981Y018850D03*
D20*
X002566Y010606D03*
X002566Y010212D03*
X002566Y009819D03*
X002566Y009425D03*
X002566Y009031D03*
X002566Y008637D03*
X002566Y008244D03*
X002566Y007850D03*
D21*
X001641Y006610D03*
X001641Y011846D03*
D22*
X023647Y011350D03*
X024985Y011350D03*
X035397Y015100D03*
X036735Y015100D03*
X043647Y015100D03*
X044985Y015100D03*
D23*
X006690Y009112D03*
X006316Y009112D03*
X005942Y009112D03*
X005942Y008088D03*
X006316Y008088D03*
X006690Y008088D03*
D24*
X007816Y011265D03*
X007816Y011935D03*
X014481Y006350D03*
X015151Y006350D03*
X018731Y005600D03*
X019401Y005600D03*
X017316Y010015D03*
X017316Y010685D03*
X016316Y013515D03*
X016316Y014185D03*
X020981Y015100D03*
X021651Y015100D03*
X022481Y015100D03*
X023151Y015100D03*
X023981Y015100D03*
X024651Y015100D03*
X025981Y017850D03*
X026651Y017850D03*
X025151Y018850D03*
X024481Y018850D03*
X025981Y011350D03*
X026651Y011350D03*
D25*
X016353Y010641D03*
X016156Y010641D03*
X015960Y010641D03*
X015763Y010641D03*
X015566Y010641D03*
X015566Y012350D03*
X015763Y012350D03*
X015960Y012350D03*
X016156Y012350D03*
X016353Y012350D03*
D26*
X015960Y011496D03*
D27*
X016316Y008401D03*
X016316Y007299D03*
D28*
X022692Y016100D03*
X023440Y016100D03*
D29*
X022226Y006630D03*
X021316Y006630D03*
X020406Y006630D03*
D30*
X021316Y009070D03*
D31*
X021166Y005720D03*
X021166Y004960D03*
X021966Y005340D03*
D32*
X021316Y010248D03*
X021316Y012452D03*
D33*
X017887Y005600D03*
X016745Y005600D03*
D34*
X020034Y023600D03*
X010534Y023600D03*
X029534Y023600D03*
D35*
X033916Y012600D03*
X036066Y012600D03*
X038216Y012600D03*
X042166Y012600D03*
X044316Y012600D03*
X046466Y012600D03*
D36*
X015506Y029350D03*
X015506Y034350D03*
D37*
X013066Y037600D03*
X012279Y037600D03*
X011491Y037600D03*
X010704Y037600D03*
X008566Y037600D03*
X007779Y037600D03*
X006991Y037600D03*
X031779Y037600D03*
X032566Y037600D03*
D38*
X029066Y037100D03*
X029066Y038100D03*
X029066Y039100D03*
X029066Y040100D03*
X027816Y039100D03*
X025816Y039100D03*
X025066Y039100D03*
X025066Y037850D03*
X023066Y037850D03*
X023066Y039100D03*
X019066Y039100D03*
X019066Y038100D03*
X018316Y038100D03*
X018316Y037100D03*
X016316Y037100D03*
X016316Y038100D03*
X013816Y035100D03*
X013816Y034100D03*
X012066Y034100D03*
X012066Y035100D03*
X010316Y035100D03*
X010316Y034100D03*
X008566Y034100D03*
X008566Y035100D03*
X006566Y035100D03*
X006566Y034100D03*
X007066Y032350D03*
X009066Y032350D03*
X010816Y032350D03*
X012066Y032350D03*
X013316Y032350D03*
X013316Y030350D03*
X012066Y030350D03*
X010816Y030350D03*
X009066Y030350D03*
X008066Y030350D03*
X007066Y030350D03*
X008066Y028350D03*
X008566Y027850D03*
X009566Y027850D03*
D39*
X020816Y039100D03*
X021308Y039100D03*
X021800Y039100D03*
X022292Y039100D03*
D40*
X032066Y024600D02*
X032066Y004600D01*
X033566Y003100D01*
X035566Y003100D01*
X035566Y006750D01*
X036566Y006750D01*
X036566Y003100D01*
X043816Y003100D01*
X043816Y006750D01*
X044816Y006750D01*
X044816Y001850D01*
X032066Y001850D01*
X029816Y004100D01*
X029816Y012350D01*
X020816Y012350D01*
X020816Y013100D01*
X029816Y013100D01*
X029816Y022600D01*
X001066Y022600D01*
X001066Y024600D01*
X032066Y024600D01*
X032066Y024551D02*
X001066Y024551D01*
X001066Y024452D02*
X032066Y024452D01*
X032066Y024354D02*
X001066Y024354D01*
X001066Y024255D02*
X032066Y024255D01*
X032066Y024157D02*
X001066Y024157D01*
X001066Y024058D02*
X032066Y024058D01*
X032066Y023960D02*
X001066Y023960D01*
X001066Y023861D02*
X032066Y023861D01*
X032066Y023763D02*
X001066Y023763D01*
X001066Y023664D02*
X032066Y023664D01*
X032066Y023566D02*
X001066Y023566D01*
X001066Y023467D02*
X032066Y023467D01*
X032066Y023369D02*
X001066Y023369D01*
X001066Y023270D02*
X032066Y023270D01*
X032066Y023172D02*
X001066Y023172D01*
X001066Y023073D02*
X032066Y023073D01*
X032066Y022975D02*
X001066Y022975D01*
X001066Y022876D02*
X032066Y022876D01*
X032066Y022778D02*
X001066Y022778D01*
X001066Y022679D02*
X032066Y022679D01*
X032066Y022581D02*
X029816Y022581D01*
X029816Y022482D02*
X032066Y022482D01*
X032066Y022384D02*
X029816Y022384D01*
X029816Y022285D02*
X032066Y022285D01*
X032066Y022187D02*
X029816Y022187D01*
X029816Y022088D02*
X032066Y022088D01*
X032066Y021990D02*
X029816Y021990D01*
X029816Y021891D02*
X032066Y021891D01*
X032066Y021793D02*
X029816Y021793D01*
X029816Y021694D02*
X032066Y021694D01*
X032066Y021596D02*
X029816Y021596D01*
X029816Y021497D02*
X032066Y021497D01*
X032066Y021399D02*
X029816Y021399D01*
X029816Y021300D02*
X032066Y021300D01*
X032066Y021202D02*
X029816Y021202D01*
X029816Y021103D02*
X032066Y021103D01*
X032066Y021005D02*
X029816Y021005D01*
X029816Y020906D02*
X032066Y020906D01*
X032066Y020808D02*
X029816Y020808D01*
X029816Y020709D02*
X032066Y020709D01*
X032066Y020611D02*
X029816Y020611D01*
X029816Y020512D02*
X032066Y020512D01*
X032066Y020414D02*
X029816Y020414D01*
X029816Y020315D02*
X032066Y020315D01*
X032066Y020217D02*
X029816Y020217D01*
X029816Y020118D02*
X032066Y020118D01*
X032066Y020020D02*
X029816Y020020D01*
X029816Y019921D02*
X032066Y019921D01*
X032066Y019823D02*
X029816Y019823D01*
X029816Y019724D02*
X032066Y019724D01*
X032066Y019626D02*
X029816Y019626D01*
X029816Y019527D02*
X032066Y019527D01*
X032066Y019429D02*
X029816Y019429D01*
X029816Y019330D02*
X032066Y019330D01*
X032066Y019232D02*
X029816Y019232D01*
X029816Y019133D02*
X032066Y019133D01*
X032066Y019035D02*
X029816Y019035D01*
X029816Y018936D02*
X032066Y018936D01*
X032066Y018838D02*
X029816Y018838D01*
X029816Y018739D02*
X032066Y018739D01*
X032066Y018641D02*
X029816Y018641D01*
X029816Y018542D02*
X032066Y018542D01*
X032066Y018444D02*
X029816Y018444D01*
X029816Y018345D02*
X032066Y018345D01*
X032066Y018247D02*
X029816Y018247D01*
X029816Y018148D02*
X032066Y018148D01*
X032066Y018050D02*
X029816Y018050D01*
X029816Y017951D02*
X032066Y017951D01*
X032066Y017853D02*
X029816Y017853D01*
X029816Y017754D02*
X032066Y017754D01*
X032066Y017656D02*
X029816Y017656D01*
X029816Y017557D02*
X032066Y017557D01*
X032066Y017459D02*
X029816Y017459D01*
X029816Y017360D02*
X032066Y017360D01*
X032066Y017262D02*
X029816Y017262D01*
X029816Y017163D02*
X032066Y017163D01*
X032066Y017065D02*
X029816Y017065D01*
X029816Y016966D02*
X032066Y016966D01*
X032066Y016868D02*
X029816Y016868D01*
X029816Y016769D02*
X032066Y016769D01*
X032066Y016671D02*
X029816Y016671D01*
X029816Y016572D02*
X032066Y016572D01*
X032066Y016474D02*
X029816Y016474D01*
X029816Y016375D02*
X032066Y016375D01*
X032066Y016277D02*
X029816Y016277D01*
X029816Y016178D02*
X032066Y016178D01*
X032066Y016080D02*
X029816Y016080D01*
X029816Y015981D02*
X032066Y015981D01*
X032066Y015883D02*
X029816Y015883D01*
X029816Y015784D02*
X032066Y015784D01*
X032066Y015686D02*
X029816Y015686D01*
X029816Y015587D02*
X032066Y015587D01*
X032066Y015489D02*
X029816Y015489D01*
X029816Y015390D02*
X032066Y015390D01*
X032066Y015292D02*
X029816Y015292D01*
X029816Y015193D02*
X032066Y015193D01*
X032066Y015095D02*
X029816Y015095D01*
X029816Y014996D02*
X032066Y014996D01*
X032066Y014898D02*
X029816Y014898D01*
X029816Y014799D02*
X032066Y014799D01*
X032066Y014701D02*
X029816Y014701D01*
X029816Y014602D02*
X032066Y014602D01*
X032066Y014504D02*
X029816Y014504D01*
X029816Y014405D02*
X032066Y014405D01*
X032066Y014307D02*
X029816Y014307D01*
X029816Y014208D02*
X032066Y014208D01*
X032066Y014110D02*
X029816Y014110D01*
X029816Y014011D02*
X032066Y014011D01*
X032066Y013913D02*
X029816Y013913D01*
X029816Y013814D02*
X032066Y013814D01*
X032066Y013716D02*
X029816Y013716D01*
X029816Y013617D02*
X032066Y013617D01*
X032066Y013519D02*
X029816Y013519D01*
X029816Y013420D02*
X032066Y013420D01*
X032066Y013322D02*
X029816Y013322D01*
X029816Y013223D02*
X032066Y013223D01*
X032066Y013125D02*
X029816Y013125D01*
X029816Y012337D02*
X032066Y012337D01*
X032066Y012435D02*
X020816Y012435D01*
X020816Y012534D02*
X032066Y012534D01*
X032066Y012632D02*
X020816Y012632D01*
X020816Y012731D02*
X032066Y012731D01*
X032066Y012829D02*
X020816Y012829D01*
X020816Y012928D02*
X032066Y012928D01*
X032066Y013026D02*
X020816Y013026D01*
X020981Y015100D02*
X017816Y015100D01*
X017566Y015350D01*
X015066Y015350D01*
X014816Y015100D01*
X014816Y013850D01*
X015151Y013515D01*
X015316Y013515D01*
X015316Y013100D01*
X015763Y012653D01*
X015763Y012350D01*
X015960Y012350D02*
X015960Y012744D01*
X016316Y013100D01*
X016316Y013515D01*
X016316Y012850D02*
X017066Y012850D01*
X017316Y013100D01*
X017316Y013515D01*
X016316Y012850D02*
X016156Y012691D01*
X016156Y012350D01*
X016353Y012350D02*
X016353Y011889D01*
X016114Y011650D01*
X016116Y011650D01*
X016114Y011650D02*
X015960Y011496D01*
X015960Y010641D02*
X015960Y009206D01*
X016316Y008850D01*
X016316Y008401D01*
X015763Y007547D02*
X015151Y006935D01*
X015151Y006350D01*
X016316Y006350D01*
X016745Y005921D01*
X016745Y005600D01*
X015763Y007547D02*
X015763Y010641D01*
X015566Y010641D02*
X015566Y010350D01*
X015316Y010100D01*
X016156Y010009D02*
X016566Y009600D01*
X019566Y009600D01*
X020066Y010100D01*
X020066Y010350D01*
X020566Y010350D02*
X022066Y010350D01*
X022066Y008850D01*
X020566Y008850D01*
X020566Y010350D01*
X020566Y010268D02*
X022066Y010268D01*
X022066Y010170D02*
X020566Y010170D01*
X020566Y010071D02*
X022066Y010071D01*
X022066Y009973D02*
X020566Y009973D01*
X020566Y009874D02*
X022066Y009874D01*
X022066Y009776D02*
X020566Y009776D01*
X020566Y009677D02*
X022066Y009677D01*
X022066Y009579D02*
X020566Y009579D01*
X020566Y009480D02*
X022066Y009480D01*
X022066Y009382D02*
X020566Y009382D01*
X020566Y009283D02*
X022066Y009283D01*
X022066Y009185D02*
X020566Y009185D01*
X020566Y009086D02*
X022066Y009086D01*
X022066Y008988D02*
X020566Y008988D01*
X020566Y008889D02*
X022066Y008889D01*
X024566Y008600D02*
X024566Y007600D01*
X025316Y007600D01*
X025316Y008600D01*
X024566Y008600D01*
X024566Y008594D02*
X025316Y008594D01*
X025316Y008495D02*
X024566Y008495D01*
X024566Y008397D02*
X025316Y008397D01*
X025316Y008298D02*
X024566Y008298D01*
X024566Y008200D02*
X025316Y008200D01*
X025316Y008101D02*
X024566Y008101D01*
X024566Y008003D02*
X025316Y008003D01*
X025316Y007904D02*
X024566Y007904D01*
X024566Y007806D02*
X025316Y007806D01*
X025316Y007707D02*
X024566Y007707D01*
X024566Y007609D02*
X025316Y007609D01*
X025975Y006850D02*
X025896Y006770D01*
X029816Y006722D02*
X032066Y006722D01*
X032066Y006624D02*
X029816Y006624D01*
X029816Y006525D02*
X032066Y006525D01*
X032066Y006427D02*
X029816Y006427D01*
X029816Y006328D02*
X032066Y006328D01*
X032066Y006230D02*
X029816Y006230D01*
X029816Y006131D02*
X032066Y006131D01*
X032066Y006033D02*
X029816Y006033D01*
X029816Y005934D02*
X032066Y005934D01*
X032066Y005836D02*
X029816Y005836D01*
X029816Y005737D02*
X032066Y005737D01*
X032066Y005639D02*
X029816Y005639D01*
X029816Y005540D02*
X032066Y005540D01*
X032066Y005442D02*
X029816Y005442D01*
X029816Y005343D02*
X032066Y005343D01*
X032066Y005245D02*
X029816Y005245D01*
X029816Y005146D02*
X032066Y005146D01*
X032066Y005048D02*
X029816Y005048D01*
X029816Y004949D02*
X032066Y004949D01*
X032066Y004851D02*
X029816Y004851D01*
X029816Y004752D02*
X032066Y004752D01*
X032066Y004654D02*
X029816Y004654D01*
X029816Y004555D02*
X032111Y004555D01*
X032209Y004457D02*
X029816Y004457D01*
X029816Y004358D02*
X032308Y004358D01*
X032406Y004260D02*
X029816Y004260D01*
X029816Y004161D02*
X032505Y004161D01*
X032603Y004063D02*
X029853Y004063D01*
X029952Y003964D02*
X032702Y003964D01*
X032800Y003866D02*
X030050Y003866D01*
X030149Y003767D02*
X032899Y003767D01*
X032997Y003669D02*
X030247Y003669D01*
X030346Y003570D02*
X033096Y003570D01*
X033194Y003472D02*
X030444Y003472D01*
X030543Y003373D02*
X033293Y003373D01*
X033391Y003275D02*
X030641Y003275D01*
X030740Y003176D02*
X033490Y003176D01*
X032020Y001896D02*
X044816Y001896D01*
X044816Y001994D02*
X031922Y001994D01*
X031823Y002093D02*
X044816Y002093D01*
X044816Y002191D02*
X031725Y002191D01*
X031626Y002290D02*
X044816Y002290D01*
X044816Y002388D02*
X031528Y002388D01*
X031429Y002487D02*
X044816Y002487D01*
X044816Y002585D02*
X031331Y002585D01*
X031232Y002684D02*
X044816Y002684D01*
X044816Y002782D02*
X031134Y002782D01*
X031035Y002881D02*
X044816Y002881D01*
X044816Y002979D02*
X030937Y002979D01*
X030838Y003078D02*
X044816Y003078D01*
X044816Y003176D02*
X043816Y003176D01*
X043816Y003275D02*
X044816Y003275D01*
X044816Y003373D02*
X043816Y003373D01*
X043816Y003472D02*
X044816Y003472D01*
X044816Y003570D02*
X043816Y003570D01*
X043816Y003669D02*
X044816Y003669D01*
X044816Y003767D02*
X043816Y003767D01*
X043816Y003866D02*
X044816Y003866D01*
X044816Y003964D02*
X043816Y003964D01*
X043816Y004063D02*
X044816Y004063D01*
X044816Y004161D02*
X043816Y004161D01*
X043816Y004260D02*
X044816Y004260D01*
X044816Y004358D02*
X043816Y004358D01*
X043816Y004457D02*
X044816Y004457D01*
X044816Y004555D02*
X043816Y004555D01*
X043816Y004654D02*
X044816Y004654D01*
X044816Y004752D02*
X043816Y004752D01*
X043816Y004851D02*
X044816Y004851D01*
X044816Y004949D02*
X043816Y004949D01*
X043816Y005048D02*
X044816Y005048D01*
X044816Y005146D02*
X043816Y005146D01*
X043816Y005245D02*
X044816Y005245D01*
X044816Y005343D02*
X043816Y005343D01*
X043816Y005442D02*
X044816Y005442D01*
X044816Y005540D02*
X043816Y005540D01*
X043816Y005639D02*
X044816Y005639D01*
X044816Y005737D02*
X043816Y005737D01*
X043816Y005836D02*
X044816Y005836D01*
X044816Y005934D02*
X043816Y005934D01*
X043816Y006033D02*
X044816Y006033D01*
X044816Y006131D02*
X043816Y006131D01*
X043816Y006230D02*
X044816Y006230D01*
X044816Y006328D02*
X043816Y006328D01*
X043816Y006427D02*
X044816Y006427D01*
X044816Y006525D02*
X043816Y006525D01*
X043816Y006624D02*
X044816Y006624D01*
X044816Y006722D02*
X043816Y006722D01*
X045316Y006722D02*
X046366Y006722D01*
X046366Y006624D02*
X045316Y006624D01*
X045316Y006525D02*
X046366Y006525D01*
X046366Y006427D02*
X045316Y006427D01*
X045316Y006328D02*
X046366Y006328D01*
X046366Y006230D02*
X045316Y006230D01*
X045316Y006131D02*
X046366Y006131D01*
X046366Y006033D02*
X045316Y006033D01*
X045316Y005934D02*
X046366Y005934D01*
X046366Y005836D02*
X045316Y005836D01*
X045316Y005737D02*
X046366Y005737D01*
X046366Y005639D02*
X045316Y005639D01*
X045316Y005540D02*
X046366Y005540D01*
X046366Y005442D02*
X045316Y005442D01*
X045316Y005343D02*
X046366Y005343D01*
X046366Y005245D02*
X045316Y005245D01*
X045316Y005146D02*
X046366Y005146D01*
X046366Y005048D02*
X045316Y005048D01*
X045316Y004949D02*
X046366Y004949D01*
X046366Y004851D02*
X045316Y004851D01*
X045316Y004752D02*
X046366Y004752D01*
X046366Y004654D02*
X045316Y004654D01*
X045316Y004555D02*
X046366Y004555D01*
X046366Y004457D02*
X045316Y004457D01*
X045316Y004358D02*
X046366Y004358D01*
X046366Y004260D02*
X045316Y004260D01*
X045316Y004161D02*
X046366Y004161D01*
X046366Y004063D02*
X045316Y004063D01*
X045316Y003964D02*
X046366Y003964D01*
X046366Y003866D02*
X045316Y003866D01*
X045316Y003767D02*
X046366Y003767D01*
X046366Y003669D02*
X045316Y003669D01*
X045316Y003570D02*
X046366Y003570D01*
X046366Y003550D02*
X045316Y003550D01*
X045316Y009100D01*
X043716Y010700D01*
X043716Y013200D01*
X044916Y013200D01*
X044916Y011000D01*
X046366Y009550D01*
X046366Y003550D01*
X046366Y006821D02*
X045316Y006821D01*
X045316Y006919D02*
X046366Y006919D01*
X046366Y007018D02*
X045316Y007018D01*
X045316Y007116D02*
X046366Y007116D01*
X046366Y007215D02*
X045316Y007215D01*
X045316Y007313D02*
X046366Y007313D01*
X046366Y007412D02*
X045316Y007412D01*
X045316Y007510D02*
X046366Y007510D01*
X046366Y007609D02*
X045316Y007609D01*
X045316Y007707D02*
X046366Y007707D01*
X046366Y007806D02*
X045316Y007806D01*
X045316Y007904D02*
X046366Y007904D01*
X046366Y008003D02*
X045316Y008003D01*
X045316Y008101D02*
X046366Y008101D01*
X046366Y008200D02*
X045316Y008200D01*
X045316Y008298D02*
X046366Y008298D01*
X046366Y008397D02*
X045316Y008397D01*
X045316Y008495D02*
X046366Y008495D01*
X046366Y008594D02*
X045316Y008594D01*
X045316Y008692D02*
X046366Y008692D01*
X046366Y008791D02*
X045316Y008791D01*
X045316Y008889D02*
X046366Y008889D01*
X046366Y008988D02*
X045316Y008988D01*
X045316Y009086D02*
X046366Y009086D01*
X046366Y009185D02*
X045231Y009185D01*
X045133Y009283D02*
X046366Y009283D01*
X046366Y009382D02*
X045034Y009382D01*
X044936Y009480D02*
X046366Y009480D01*
X046337Y009579D02*
X044837Y009579D01*
X044739Y009677D02*
X046239Y009677D01*
X046140Y009776D02*
X044640Y009776D01*
X044542Y009874D02*
X046042Y009874D01*
X045943Y009973D02*
X044443Y009973D01*
X044345Y010071D02*
X045845Y010071D01*
X045746Y010170D02*
X044246Y010170D01*
X044148Y010268D02*
X045648Y010268D01*
X045549Y010367D02*
X044049Y010367D01*
X043951Y010465D02*
X045451Y010465D01*
X045352Y010564D02*
X043852Y010564D01*
X043754Y010662D02*
X045254Y010662D01*
X045155Y010761D02*
X043716Y010761D01*
X043716Y010859D02*
X045057Y010859D01*
X044958Y010958D02*
X043716Y010958D01*
X043716Y011056D02*
X044916Y011056D01*
X044916Y011155D02*
X043716Y011155D01*
X043716Y011253D02*
X044916Y011253D01*
X044916Y011352D02*
X043716Y011352D01*
X043716Y011450D02*
X044916Y011450D01*
X044916Y011549D02*
X043716Y011549D01*
X043716Y011647D02*
X044916Y011647D01*
X044916Y011746D02*
X043716Y011746D01*
X043716Y011844D02*
X044916Y011844D01*
X044916Y011943D02*
X043716Y011943D01*
X043716Y012041D02*
X044916Y012041D01*
X044916Y012140D02*
X043716Y012140D01*
X043716Y012238D02*
X044916Y012238D01*
X044916Y012337D02*
X043716Y012337D01*
X043716Y012435D02*
X044916Y012435D01*
X044916Y012534D02*
X043716Y012534D01*
X043716Y012632D02*
X044916Y012632D01*
X044916Y012731D02*
X043716Y012731D01*
X043716Y012829D02*
X044916Y012829D01*
X044916Y012928D02*
X043716Y012928D01*
X043716Y013026D02*
X044916Y013026D01*
X044916Y013125D02*
X043716Y013125D01*
X038116Y009550D02*
X038116Y003550D01*
X037066Y003550D01*
X037066Y009100D01*
X035466Y010700D01*
X035466Y013200D01*
X036666Y013200D01*
X036666Y011000D01*
X038116Y009550D01*
X038087Y009579D02*
X036587Y009579D01*
X036489Y009677D02*
X037989Y009677D01*
X037890Y009776D02*
X036390Y009776D01*
X036292Y009874D02*
X037792Y009874D01*
X037693Y009973D02*
X036193Y009973D01*
X036095Y010071D02*
X037595Y010071D01*
X037496Y010170D02*
X035996Y010170D01*
X035898Y010268D02*
X037398Y010268D01*
X037299Y010367D02*
X035799Y010367D01*
X035701Y010465D02*
X037201Y010465D01*
X037102Y010564D02*
X035602Y010564D01*
X035504Y010662D02*
X037004Y010662D01*
X036905Y010761D02*
X035466Y010761D01*
X035466Y010859D02*
X036807Y010859D01*
X036708Y010958D02*
X035466Y010958D01*
X035466Y011056D02*
X036666Y011056D01*
X036666Y011155D02*
X035466Y011155D01*
X035466Y011253D02*
X036666Y011253D01*
X036666Y011352D02*
X035466Y011352D01*
X035466Y011450D02*
X036666Y011450D01*
X036666Y011549D02*
X035466Y011549D01*
X035466Y011647D02*
X036666Y011647D01*
X036666Y011746D02*
X035466Y011746D01*
X035466Y011844D02*
X036666Y011844D01*
X036666Y011943D02*
X035466Y011943D01*
X035466Y012041D02*
X036666Y012041D01*
X036666Y012140D02*
X035466Y012140D01*
X035466Y012238D02*
X036666Y012238D01*
X036666Y012337D02*
X035466Y012337D01*
X035466Y012435D02*
X036666Y012435D01*
X036666Y012534D02*
X035466Y012534D01*
X035466Y012632D02*
X036666Y012632D01*
X036666Y012731D02*
X035466Y012731D01*
X035466Y012829D02*
X036666Y012829D01*
X036666Y012928D02*
X035466Y012928D01*
X035466Y013026D02*
X036666Y013026D01*
X036666Y013125D02*
X035466Y013125D01*
X032066Y012238D02*
X029816Y012238D01*
X029816Y012140D02*
X032066Y012140D01*
X032066Y012041D02*
X029816Y012041D01*
X029816Y011943D02*
X032066Y011943D01*
X032066Y011844D02*
X029816Y011844D01*
X029816Y011746D02*
X032066Y011746D01*
X032066Y011647D02*
X029816Y011647D01*
X029816Y011549D02*
X032066Y011549D01*
X032066Y011450D02*
X029816Y011450D01*
X029816Y011352D02*
X032066Y011352D01*
X032066Y011253D02*
X029816Y011253D01*
X029816Y011155D02*
X032066Y011155D01*
X032066Y011056D02*
X029816Y011056D01*
X029816Y010958D02*
X032066Y010958D01*
X032066Y010859D02*
X029816Y010859D01*
X029816Y010761D02*
X032066Y010761D01*
X032066Y010662D02*
X029816Y010662D01*
X029816Y010564D02*
X032066Y010564D01*
X032066Y010465D02*
X029816Y010465D01*
X029816Y010367D02*
X032066Y010367D01*
X032066Y010268D02*
X029816Y010268D01*
X029816Y010170D02*
X032066Y010170D01*
X032066Y010071D02*
X029816Y010071D01*
X029816Y009973D02*
X032066Y009973D01*
X032066Y009874D02*
X029816Y009874D01*
X029816Y009776D02*
X032066Y009776D01*
X032066Y009677D02*
X029816Y009677D01*
X029816Y009579D02*
X032066Y009579D01*
X032066Y009480D02*
X029816Y009480D01*
X029816Y009382D02*
X032066Y009382D01*
X032066Y009283D02*
X029816Y009283D01*
X029816Y009185D02*
X032066Y009185D01*
X032066Y009086D02*
X029816Y009086D01*
X029816Y008988D02*
X032066Y008988D01*
X032066Y008889D02*
X029816Y008889D01*
X029816Y008791D02*
X032066Y008791D01*
X032066Y008692D02*
X029816Y008692D01*
X029816Y008594D02*
X032066Y008594D01*
X032066Y008495D02*
X029816Y008495D01*
X029816Y008397D02*
X032066Y008397D01*
X032066Y008298D02*
X029816Y008298D01*
X029816Y008200D02*
X032066Y008200D01*
X032066Y008101D02*
X029816Y008101D01*
X029816Y008003D02*
X032066Y008003D01*
X032066Y007904D02*
X029816Y007904D01*
X029816Y007806D02*
X032066Y007806D01*
X032066Y007707D02*
X029816Y007707D01*
X029816Y007609D02*
X032066Y007609D01*
X032066Y007510D02*
X029816Y007510D01*
X029816Y007412D02*
X032066Y007412D01*
X032066Y007313D02*
X029816Y007313D01*
X029816Y007215D02*
X032066Y007215D01*
X032066Y007116D02*
X029816Y007116D01*
X029816Y007018D02*
X032066Y007018D01*
X032066Y006919D02*
X029816Y006919D01*
X029816Y006821D02*
X032066Y006821D01*
X035566Y006722D02*
X036566Y006722D01*
X036566Y006624D02*
X035566Y006624D01*
X035566Y006525D02*
X036566Y006525D01*
X036566Y006427D02*
X035566Y006427D01*
X035566Y006328D02*
X036566Y006328D01*
X036566Y006230D02*
X035566Y006230D01*
X035566Y006131D02*
X036566Y006131D01*
X036566Y006033D02*
X035566Y006033D01*
X035566Y005934D02*
X036566Y005934D01*
X036566Y005836D02*
X035566Y005836D01*
X035566Y005737D02*
X036566Y005737D01*
X036566Y005639D02*
X035566Y005639D01*
X035566Y005540D02*
X036566Y005540D01*
X036566Y005442D02*
X035566Y005442D01*
X035566Y005343D02*
X036566Y005343D01*
X036566Y005245D02*
X035566Y005245D01*
X035566Y005146D02*
X036566Y005146D01*
X036566Y005048D02*
X035566Y005048D01*
X035566Y004949D02*
X036566Y004949D01*
X036566Y004851D02*
X035566Y004851D01*
X035566Y004752D02*
X036566Y004752D01*
X036566Y004654D02*
X035566Y004654D01*
X035566Y004555D02*
X036566Y004555D01*
X036566Y004457D02*
X035566Y004457D01*
X035566Y004358D02*
X036566Y004358D01*
X036566Y004260D02*
X035566Y004260D01*
X035566Y004161D02*
X036566Y004161D01*
X036566Y004063D02*
X035566Y004063D01*
X035566Y003964D02*
X036566Y003964D01*
X036566Y003866D02*
X035566Y003866D01*
X035566Y003767D02*
X036566Y003767D01*
X036566Y003669D02*
X035566Y003669D01*
X035566Y003570D02*
X036566Y003570D01*
X036566Y003472D02*
X035566Y003472D01*
X035566Y003373D02*
X036566Y003373D01*
X036566Y003275D02*
X035566Y003275D01*
X035566Y003176D02*
X036566Y003176D01*
X037066Y003570D02*
X038116Y003570D01*
X038116Y003669D02*
X037066Y003669D01*
X037066Y003767D02*
X038116Y003767D01*
X038116Y003866D02*
X037066Y003866D01*
X037066Y003964D02*
X038116Y003964D01*
X038116Y004063D02*
X037066Y004063D01*
X037066Y004161D02*
X038116Y004161D01*
X038116Y004260D02*
X037066Y004260D01*
X037066Y004358D02*
X038116Y004358D01*
X038116Y004457D02*
X037066Y004457D01*
X037066Y004555D02*
X038116Y004555D01*
X038116Y004654D02*
X037066Y004654D01*
X037066Y004752D02*
X038116Y004752D01*
X038116Y004851D02*
X037066Y004851D01*
X037066Y004949D02*
X038116Y004949D01*
X038116Y005048D02*
X037066Y005048D01*
X037066Y005146D02*
X038116Y005146D01*
X038116Y005245D02*
X037066Y005245D01*
X037066Y005343D02*
X038116Y005343D01*
X038116Y005442D02*
X037066Y005442D01*
X037066Y005540D02*
X038116Y005540D01*
X038116Y005639D02*
X037066Y005639D01*
X037066Y005737D02*
X038116Y005737D01*
X038116Y005836D02*
X037066Y005836D01*
X037066Y005934D02*
X038116Y005934D01*
X038116Y006033D02*
X037066Y006033D01*
X037066Y006131D02*
X038116Y006131D01*
X038116Y006230D02*
X037066Y006230D01*
X037066Y006328D02*
X038116Y006328D01*
X038116Y006427D02*
X037066Y006427D01*
X037066Y006525D02*
X038116Y006525D01*
X038116Y006624D02*
X037066Y006624D01*
X037066Y006722D02*
X038116Y006722D01*
X038116Y006821D02*
X037066Y006821D01*
X037066Y006919D02*
X038116Y006919D01*
X038116Y007018D02*
X037066Y007018D01*
X037066Y007116D02*
X038116Y007116D01*
X038116Y007215D02*
X037066Y007215D01*
X037066Y007313D02*
X038116Y007313D01*
X038116Y007412D02*
X037066Y007412D01*
X037066Y007510D02*
X038116Y007510D01*
X038116Y007609D02*
X037066Y007609D01*
X037066Y007707D02*
X038116Y007707D01*
X038116Y007806D02*
X037066Y007806D01*
X037066Y007904D02*
X038116Y007904D01*
X038116Y008003D02*
X037066Y008003D01*
X037066Y008101D02*
X038116Y008101D01*
X038116Y008200D02*
X037066Y008200D01*
X037066Y008298D02*
X038116Y008298D01*
X038116Y008397D02*
X037066Y008397D01*
X037066Y008495D02*
X038116Y008495D01*
X038116Y008594D02*
X037066Y008594D01*
X037066Y008692D02*
X038116Y008692D01*
X038116Y008791D02*
X037066Y008791D01*
X037066Y008889D02*
X038116Y008889D01*
X038116Y008988D02*
X037066Y008988D01*
X037066Y009086D02*
X038116Y009086D01*
X038116Y009185D02*
X036981Y009185D01*
X036883Y009283D02*
X038116Y009283D01*
X038116Y009382D02*
X036784Y009382D01*
X036686Y009480D02*
X038116Y009480D01*
X030066Y015100D02*
X024651Y015100D01*
X023981Y015100D02*
X023151Y015100D01*
X022481Y015100D02*
X021651Y015100D01*
X022692Y016100D02*
X018816Y016100D01*
X019816Y017100D02*
X014066Y017100D01*
X014066Y018100D01*
X016816Y018100D01*
X016816Y019850D01*
X019816Y019850D01*
X019816Y017100D01*
X019816Y017163D02*
X014066Y017163D01*
X014066Y017262D02*
X019816Y017262D01*
X019816Y017360D02*
X014066Y017360D01*
X014066Y017459D02*
X019816Y017459D01*
X019816Y017557D02*
X014066Y017557D01*
X014066Y017656D02*
X019816Y017656D01*
X019816Y017754D02*
X014066Y017754D01*
X014066Y017853D02*
X019816Y017853D01*
X019816Y017951D02*
X014066Y017951D01*
X014066Y018050D02*
X019816Y018050D01*
X019816Y018148D02*
X016816Y018148D01*
X016816Y018247D02*
X019816Y018247D01*
X019816Y018345D02*
X016816Y018345D01*
X016816Y018444D02*
X019816Y018444D01*
X019816Y018542D02*
X016816Y018542D01*
X016816Y018641D02*
X019816Y018641D01*
X019816Y018739D02*
X016816Y018739D01*
X016816Y018838D02*
X019816Y018838D01*
X019816Y018936D02*
X016816Y018936D01*
X016816Y019035D02*
X019816Y019035D01*
X019816Y019133D02*
X016816Y019133D01*
X016816Y019232D02*
X019816Y019232D01*
X019816Y019330D02*
X016816Y019330D01*
X016816Y019429D02*
X019816Y019429D01*
X019816Y019527D02*
X016816Y019527D01*
X016816Y019626D02*
X019816Y019626D01*
X019816Y019724D02*
X016816Y019724D01*
X016816Y019823D02*
X019816Y019823D01*
X015566Y012350D02*
X015316Y012350D01*
X014981Y012685D01*
X014316Y012685D01*
X016156Y010641D02*
X016156Y010009D01*
X016353Y010313D02*
X016651Y010015D01*
X017316Y010015D01*
X018316Y010015D01*
X018316Y010685D02*
X018316Y011350D01*
X017316Y011350D02*
X017316Y010685D01*
X016353Y010641D02*
X016353Y010313D01*
X014481Y006350D02*
X013816Y006350D01*
X002066Y019600D02*
X001066Y019600D01*
X001066Y021100D01*
X002066Y021100D01*
X002066Y019600D01*
X002066Y019626D02*
X001066Y019626D01*
X001066Y019724D02*
X002066Y019724D01*
X002066Y019823D02*
X001066Y019823D01*
X001066Y019921D02*
X002066Y019921D01*
X002066Y020020D02*
X001066Y020020D01*
X001066Y020118D02*
X002066Y020118D01*
X002066Y020217D02*
X001066Y020217D01*
X001066Y020315D02*
X002066Y020315D01*
X002066Y020414D02*
X001066Y020414D01*
X001066Y020512D02*
X002066Y020512D01*
X002066Y020611D02*
X001066Y020611D01*
X001066Y020709D02*
X002066Y020709D01*
X002066Y020808D02*
X001066Y020808D01*
X001066Y020906D02*
X002066Y020906D01*
X002066Y021005D02*
X001066Y021005D01*
D41*
X001316Y020350D03*
X001816Y020350D03*
X001816Y019850D03*
X001316Y019850D03*
X005316Y010600D03*
X005316Y009850D03*
X006316Y007600D03*
X004066Y005100D03*
X009316Y009600D03*
X010816Y009600D03*
X012416Y011850D03*
X012416Y012850D03*
X015316Y014850D03*
X016316Y014850D03*
X017316Y014850D03*
X018816Y016100D03*
X014816Y017350D03*
X014816Y017850D03*
X014316Y017850D03*
X014316Y017350D03*
X015766Y011650D03*
X015766Y011330D03*
X016116Y011330D03*
X016116Y011650D03*
X017316Y011350D03*
X018316Y011350D03*
X020066Y010350D03*
X023066Y011350D03*
X023316Y009350D03*
X024816Y008350D03*
X024816Y007850D03*
X023816Y006850D03*
X020566Y005350D03*
X020066Y005600D03*
X017066Y007600D03*
X017066Y008600D03*
X015316Y010100D03*
X013816Y006350D03*
X023816Y002600D03*
X028566Y004850D03*
X028566Y005850D03*
X024566Y016100D03*
X024066Y016100D03*
X027316Y018850D03*
X024066Y019850D03*
D42*
X022692Y017726D02*
X022692Y016100D01*
X023440Y016100D02*
X024566Y016100D01*
D43*
X022816Y017850D02*
X022692Y017726D01*
X022816Y019850D02*
X024066Y019850D01*
X026651Y018850D02*
X026651Y017850D01*
X026651Y018850D02*
X027316Y018850D01*
X017316Y014850D02*
X017316Y014185D01*
X016316Y014185D02*
X016316Y014850D01*
X015316Y014850D02*
X015316Y014185D01*
X014151Y012850D02*
X014316Y012685D01*
X014151Y012850D02*
X013651Y012850D01*
X012981Y012850D02*
X012416Y012850D01*
X012416Y011850D02*
X012981Y011850D01*
X013651Y011850D02*
X014151Y011850D01*
X014316Y012015D01*
X025542Y005350D02*
X026066Y005350D01*
X026316Y005600D01*
X026316Y006509D01*
X025975Y006850D01*
X026816Y006509D02*
X027156Y006850D01*
X026816Y006509D02*
X026816Y005600D01*
X027066Y005350D01*
X027590Y005350D01*
D44*
X005481Y003935D02*
X004816Y004600D01*
X004816Y007600D01*
X004172Y008244D01*
X002566Y008244D01*
X002566Y008637D02*
X004279Y008637D01*
X005066Y007850D01*
X005066Y004850D01*
X005566Y004350D01*
X023066Y004350D01*
X023816Y005100D01*
X023816Y005515D01*
X024481Y005515D01*
X024816Y005850D01*
X025542Y005850D01*
X025542Y004850D02*
X024316Y004850D01*
X023816Y004350D01*
X023816Y003935D01*
X005481Y003935D01*
X005816Y004600D02*
X014566Y004600D01*
X015151Y005185D01*
X015151Y006350D01*
X016745Y005600D02*
X016745Y005171D01*
X016956Y004960D01*
X021166Y004960D01*
X020566Y005350D02*
X020566Y005600D01*
X020686Y005720D01*
X021166Y005720D01*
X020406Y005940D02*
X020066Y005600D01*
X019401Y005600D01*
X018731Y005600D02*
X017887Y005600D01*
X020406Y005940D02*
X020406Y006630D01*
X021966Y005750D02*
X021966Y005340D01*
X021966Y005750D02*
X022226Y006010D01*
X022226Y006630D01*
X022226Y007510D01*
X022816Y008100D01*
X022816Y009850D01*
X023316Y010350D01*
X024566Y010350D01*
X024985Y010769D01*
X024985Y011350D01*
X025981Y011350D01*
X026651Y011350D02*
X030066Y011350D01*
X023816Y006850D02*
X023816Y006185D01*
X023816Y003265D02*
X023816Y002600D01*
X011816Y008265D02*
X010816Y008265D01*
X010816Y007600D01*
X010316Y007100D01*
X006316Y007100D01*
X005942Y007474D01*
X005942Y008088D01*
X006316Y008088D02*
X006316Y007600D01*
X006690Y007726D02*
X006690Y008088D01*
X006690Y007726D02*
X006816Y007600D01*
X007816Y007600D01*
X007981Y007765D01*
X007981Y009600D01*
X007981Y010185D01*
X007816Y010350D01*
X007816Y011265D01*
X007816Y011935D02*
X006566Y011935D01*
X005316Y011935D01*
X004066Y011935D01*
X004066Y011265D02*
X004066Y010850D01*
X003822Y010606D01*
X002566Y010606D01*
X002566Y010212D02*
X006566Y010212D01*
X006566Y009850D01*
X006690Y009726D01*
X006690Y009112D01*
X006316Y009112D02*
X006316Y009600D01*
X006066Y009850D01*
X005316Y009850D01*
X002597Y009850D01*
X002566Y009819D01*
X002566Y009031D02*
X004385Y009031D01*
X005316Y008100D01*
X005316Y005100D01*
X005816Y004600D01*
X004066Y005100D02*
X004066Y006515D01*
X004066Y007185D02*
X004066Y007600D01*
X003816Y007850D01*
X002566Y007850D01*
X005316Y010600D02*
X005316Y011265D01*
X006566Y011265D02*
X006566Y010212D01*
X008651Y009600D02*
X009316Y009600D01*
X010816Y009600D02*
X010816Y008935D01*
X011816Y008935D02*
X011816Y022600D01*
X025981Y018850D02*
X025981Y017850D01*
D45*
X023647Y011350D02*
X023066Y011350D01*
X027590Y005850D02*
X028566Y005850D01*
X028566Y004850D02*
X027590Y004850D01*
D46*
X027156Y006850D02*
X027156Y007696D01*
X027560Y008100D01*
X027566Y008094D01*
X027560Y008100D02*
X027560Y008856D01*
X027066Y009350D01*
X026401Y009350D01*
X025731Y009350D02*
X023316Y009350D01*
X025572Y008100D02*
X025975Y007696D01*
X025975Y006850D01*
X033916Y012600D02*
X033916Y014450D01*
X034566Y015100D01*
X035397Y015100D01*
X036735Y015100D02*
X037566Y015100D01*
X038216Y014450D01*
X038216Y012600D01*
X042166Y012600D02*
X042166Y014450D01*
X042816Y015100D01*
X043647Y015100D01*
X044985Y015100D02*
X045816Y015100D01*
X046466Y014450D01*
X046466Y012600D01*
X025981Y018850D02*
X025151Y018850D01*
X024481Y018850D02*
X018316Y018850D01*
X010066Y027850D02*
X009566Y027850D01*
X010066Y027850D02*
X010816Y028600D01*
X010816Y030350D01*
X010316Y030350D01*
X009816Y030850D01*
X009816Y032850D01*
X009316Y033350D01*
X009316Y035600D01*
X008566Y036350D01*
X008566Y037600D01*
X021800Y039100D02*
X021800Y039584D01*
X022316Y040100D01*
X029066Y040100D01*
X027816Y039100D02*
X027816Y037100D01*
X028566Y036350D01*
X031066Y036350D01*
X031779Y037063D01*
X031779Y037600D01*
X017066Y008600D02*
X016867Y008401D01*
X016316Y008401D01*
X017066Y007600D02*
X016765Y007299D01*
X016316Y007299D01*
D47*
X021316Y006630D02*
X021316Y009070D01*
M02*
