G75*
G70*
%OFA0B0*%
%FSLAX24Y24*%
%IPPOS*%
%LPD*%
%AMOC8*
5,1,8,0,0,1.08239X$1,22.5*
%
%ADD10C,0.0000*%
D10*
X000566Y000100D02*
X000566Y041100D01*
X050566Y041100D01*
X050566Y000100D01*
X000566Y000100D01*
X001316Y001600D02*
X001318Y001654D01*
X001324Y001708D01*
X001334Y001761D01*
X001347Y001814D01*
X001364Y001865D01*
X001385Y001915D01*
X001410Y001963D01*
X001438Y002010D01*
X001469Y002054D01*
X001503Y002096D01*
X001540Y002135D01*
X001580Y002172D01*
X001623Y002205D01*
X001668Y002236D01*
X001715Y002263D01*
X001763Y002286D01*
X001814Y002306D01*
X001865Y002323D01*
X001918Y002335D01*
X001971Y002344D01*
X002025Y002349D01*
X002080Y002350D01*
X002134Y002347D01*
X002187Y002340D01*
X002240Y002329D01*
X002293Y002315D01*
X002344Y002297D01*
X002393Y002275D01*
X002441Y002250D01*
X002487Y002221D01*
X002531Y002189D01*
X002572Y002154D01*
X002610Y002116D01*
X002646Y002075D01*
X002679Y002032D01*
X002709Y001987D01*
X002735Y001939D01*
X002758Y001890D01*
X002777Y001839D01*
X002792Y001788D01*
X002804Y001735D01*
X002812Y001681D01*
X002816Y001627D01*
X002816Y001573D01*
X002812Y001519D01*
X002804Y001465D01*
X002792Y001412D01*
X002777Y001361D01*
X002758Y001310D01*
X002735Y001261D01*
X002709Y001213D01*
X002679Y001168D01*
X002646Y001125D01*
X002610Y001084D01*
X002572Y001046D01*
X002531Y001011D01*
X002487Y000979D01*
X002441Y000950D01*
X002393Y000925D01*
X002344Y000903D01*
X002293Y000885D01*
X002240Y000871D01*
X002187Y000860D01*
X002134Y000853D01*
X002080Y000850D01*
X002025Y000851D01*
X001971Y000856D01*
X001918Y000865D01*
X001865Y000877D01*
X001814Y000894D01*
X001763Y000914D01*
X001715Y000937D01*
X001668Y000964D01*
X001623Y000995D01*
X001580Y001028D01*
X001540Y001065D01*
X001503Y001104D01*
X001469Y001146D01*
X001438Y001190D01*
X001410Y001237D01*
X001385Y001285D01*
X001364Y001335D01*
X001347Y001386D01*
X001334Y001439D01*
X001324Y001492D01*
X001318Y001546D01*
X001316Y001600D01*
X024431Y028400D02*
X024433Y028443D01*
X024439Y028485D01*
X024449Y028527D01*
X024462Y028568D01*
X024480Y028607D01*
X024501Y028645D01*
X024525Y028680D01*
X024552Y028713D01*
X024583Y028744D01*
X024616Y028771D01*
X024651Y028795D01*
X024689Y028816D01*
X024728Y028834D01*
X024769Y028847D01*
X024811Y028857D01*
X024853Y028863D01*
X024896Y028865D01*
X024939Y028863D01*
X024981Y028857D01*
X025023Y028847D01*
X025064Y028834D01*
X025103Y028816D01*
X025141Y028795D01*
X025176Y028771D01*
X025209Y028744D01*
X025240Y028713D01*
X025267Y028680D01*
X025291Y028645D01*
X025312Y028607D01*
X025330Y028568D01*
X025343Y028527D01*
X025353Y028485D01*
X025359Y028443D01*
X025361Y028400D01*
X025359Y028357D01*
X025353Y028315D01*
X025343Y028273D01*
X025330Y028232D01*
X025312Y028193D01*
X025291Y028155D01*
X025267Y028120D01*
X025240Y028087D01*
X025209Y028056D01*
X025176Y028029D01*
X025141Y028005D01*
X025103Y027984D01*
X025064Y027966D01*
X025023Y027953D01*
X024981Y027943D01*
X024939Y027937D01*
X024896Y027935D01*
X024853Y027937D01*
X024811Y027943D01*
X024769Y027953D01*
X024728Y027966D01*
X024689Y027984D01*
X024651Y028005D01*
X024616Y028029D01*
X024583Y028056D01*
X024552Y028087D01*
X024525Y028120D01*
X024501Y028155D01*
X024480Y028193D01*
X024462Y028232D01*
X024449Y028273D01*
X024439Y028315D01*
X024433Y028357D01*
X024431Y028400D01*
X024431Y035300D02*
X024433Y035343D01*
X024439Y035385D01*
X024449Y035427D01*
X024462Y035468D01*
X024480Y035507D01*
X024501Y035545D01*
X024525Y035580D01*
X024552Y035613D01*
X024583Y035644D01*
X024616Y035671D01*
X024651Y035695D01*
X024689Y035716D01*
X024728Y035734D01*
X024769Y035747D01*
X024811Y035757D01*
X024853Y035763D01*
X024896Y035765D01*
X024939Y035763D01*
X024981Y035757D01*
X025023Y035747D01*
X025064Y035734D01*
X025103Y035716D01*
X025141Y035695D01*
X025176Y035671D01*
X025209Y035644D01*
X025240Y035613D01*
X025267Y035580D01*
X025291Y035545D01*
X025312Y035507D01*
X025330Y035468D01*
X025343Y035427D01*
X025353Y035385D01*
X025359Y035343D01*
X025361Y035300D01*
X025359Y035257D01*
X025353Y035215D01*
X025343Y035173D01*
X025330Y035132D01*
X025312Y035093D01*
X025291Y035055D01*
X025267Y035020D01*
X025240Y034987D01*
X025209Y034956D01*
X025176Y034929D01*
X025141Y034905D01*
X025103Y034884D01*
X025064Y034866D01*
X025023Y034853D01*
X024981Y034843D01*
X024939Y034837D01*
X024896Y034835D01*
X024853Y034837D01*
X024811Y034843D01*
X024769Y034853D01*
X024728Y034866D01*
X024689Y034884D01*
X024651Y034905D01*
X024616Y034929D01*
X024583Y034956D01*
X024552Y034987D01*
X024525Y035020D01*
X024501Y035055D01*
X024480Y035093D01*
X024462Y035132D01*
X024449Y035173D01*
X024439Y035215D01*
X024433Y035257D01*
X024431Y035300D01*
X035316Y022040D02*
X035318Y022094D01*
X035324Y022148D01*
X035334Y022201D01*
X035347Y022254D01*
X035364Y022305D01*
X035385Y022355D01*
X035410Y022403D01*
X035438Y022450D01*
X035469Y022494D01*
X035503Y022536D01*
X035540Y022575D01*
X035580Y022612D01*
X035623Y022645D01*
X035668Y022676D01*
X035715Y022703D01*
X035763Y022726D01*
X035814Y022746D01*
X035865Y022763D01*
X035918Y022775D01*
X035971Y022784D01*
X036025Y022789D01*
X036080Y022790D01*
X036134Y022787D01*
X036187Y022780D01*
X036240Y022769D01*
X036293Y022755D01*
X036344Y022737D01*
X036393Y022715D01*
X036441Y022690D01*
X036487Y022661D01*
X036531Y022629D01*
X036572Y022594D01*
X036610Y022556D01*
X036646Y022515D01*
X036679Y022472D01*
X036709Y022427D01*
X036735Y022379D01*
X036758Y022330D01*
X036777Y022279D01*
X036792Y022228D01*
X036804Y022175D01*
X036812Y022121D01*
X036816Y022067D01*
X036816Y022013D01*
X036812Y021959D01*
X036804Y021905D01*
X036792Y021852D01*
X036777Y021801D01*
X036758Y021750D01*
X036735Y021701D01*
X036709Y021653D01*
X036679Y021608D01*
X036646Y021565D01*
X036610Y021524D01*
X036572Y021486D01*
X036531Y021451D01*
X036487Y021419D01*
X036441Y021390D01*
X036393Y021365D01*
X036344Y021343D01*
X036293Y021325D01*
X036240Y021311D01*
X036187Y021300D01*
X036134Y021293D01*
X036080Y021290D01*
X036025Y021291D01*
X035971Y021296D01*
X035918Y021305D01*
X035865Y021317D01*
X035814Y021334D01*
X035763Y021354D01*
X035715Y021377D01*
X035668Y021404D01*
X035623Y021435D01*
X035580Y021468D01*
X035540Y021505D01*
X035503Y021544D01*
X035469Y021586D01*
X035438Y021630D01*
X035410Y021677D01*
X035385Y021725D01*
X035364Y021775D01*
X035347Y021826D01*
X035334Y021879D01*
X035324Y021932D01*
X035318Y021986D01*
X035316Y022040D01*
X043566Y022040D02*
X043568Y022094D01*
X043574Y022148D01*
X043584Y022201D01*
X043597Y022254D01*
X043614Y022305D01*
X043635Y022355D01*
X043660Y022403D01*
X043688Y022450D01*
X043719Y022494D01*
X043753Y022536D01*
X043790Y022575D01*
X043830Y022612D01*
X043873Y022645D01*
X043918Y022676D01*
X043965Y022703D01*
X044013Y022726D01*
X044064Y022746D01*
X044115Y022763D01*
X044168Y022775D01*
X044221Y022784D01*
X044275Y022789D01*
X044330Y022790D01*
X044384Y022787D01*
X044437Y022780D01*
X044490Y022769D01*
X044543Y022755D01*
X044594Y022737D01*
X044643Y022715D01*
X044691Y022690D01*
X044737Y022661D01*
X044781Y022629D01*
X044822Y022594D01*
X044860Y022556D01*
X044896Y022515D01*
X044929Y022472D01*
X044959Y022427D01*
X044985Y022379D01*
X045008Y022330D01*
X045027Y022279D01*
X045042Y022228D01*
X045054Y022175D01*
X045062Y022121D01*
X045066Y022067D01*
X045066Y022013D01*
X045062Y021959D01*
X045054Y021905D01*
X045042Y021852D01*
X045027Y021801D01*
X045008Y021750D01*
X044985Y021701D01*
X044959Y021653D01*
X044929Y021608D01*
X044896Y021565D01*
X044860Y021524D01*
X044822Y021486D01*
X044781Y021451D01*
X044737Y021419D01*
X044691Y021390D01*
X044643Y021365D01*
X044594Y021343D01*
X044543Y021325D01*
X044490Y021311D01*
X044437Y021300D01*
X044384Y021293D01*
X044330Y021290D01*
X044275Y021291D01*
X044221Y021296D01*
X044168Y021305D01*
X044115Y021317D01*
X044064Y021334D01*
X044013Y021354D01*
X043965Y021377D01*
X043918Y021404D01*
X043873Y021435D01*
X043830Y021468D01*
X043790Y021505D01*
X043753Y021544D01*
X043719Y021586D01*
X043688Y021630D01*
X043660Y021677D01*
X043635Y021725D01*
X043614Y021775D01*
X043597Y021826D01*
X043584Y021879D01*
X043574Y021932D01*
X043568Y021986D01*
X043566Y022040D01*
X048316Y039600D02*
X048318Y039654D01*
X048324Y039708D01*
X048334Y039761D01*
X048347Y039814D01*
X048364Y039865D01*
X048385Y039915D01*
X048410Y039963D01*
X048438Y040010D01*
X048469Y040054D01*
X048503Y040096D01*
X048540Y040135D01*
X048580Y040172D01*
X048623Y040205D01*
X048668Y040236D01*
X048715Y040263D01*
X048763Y040286D01*
X048814Y040306D01*
X048865Y040323D01*
X048918Y040335D01*
X048971Y040344D01*
X049025Y040349D01*
X049080Y040350D01*
X049134Y040347D01*
X049187Y040340D01*
X049240Y040329D01*
X049293Y040315D01*
X049344Y040297D01*
X049393Y040275D01*
X049441Y040250D01*
X049487Y040221D01*
X049531Y040189D01*
X049572Y040154D01*
X049610Y040116D01*
X049646Y040075D01*
X049679Y040032D01*
X049709Y039987D01*
X049735Y039939D01*
X049758Y039890D01*
X049777Y039839D01*
X049792Y039788D01*
X049804Y039735D01*
X049812Y039681D01*
X049816Y039627D01*
X049816Y039573D01*
X049812Y039519D01*
X049804Y039465D01*
X049792Y039412D01*
X049777Y039361D01*
X049758Y039310D01*
X049735Y039261D01*
X049709Y039213D01*
X049679Y039168D01*
X049646Y039125D01*
X049610Y039084D01*
X049572Y039046D01*
X049531Y039011D01*
X049487Y038979D01*
X049441Y038950D01*
X049393Y038925D01*
X049344Y038903D01*
X049293Y038885D01*
X049240Y038871D01*
X049187Y038860D01*
X049134Y038853D01*
X049080Y038850D01*
X049025Y038851D01*
X048971Y038856D01*
X048918Y038865D01*
X048865Y038877D01*
X048814Y038894D01*
X048763Y038914D01*
X048715Y038937D01*
X048668Y038964D01*
X048623Y038995D01*
X048580Y039028D01*
X048540Y039065D01*
X048503Y039104D01*
X048469Y039146D01*
X048438Y039190D01*
X048410Y039237D01*
X048385Y039285D01*
X048364Y039335D01*
X048347Y039386D01*
X048334Y039439D01*
X048324Y039492D01*
X048318Y039546D01*
X048316Y039600D01*
X048316Y001600D02*
X048318Y001654D01*
X048324Y001708D01*
X048334Y001761D01*
X048347Y001814D01*
X048364Y001865D01*
X048385Y001915D01*
X048410Y001963D01*
X048438Y002010D01*
X048469Y002054D01*
X048503Y002096D01*
X048540Y002135D01*
X048580Y002172D01*
X048623Y002205D01*
X048668Y002236D01*
X048715Y002263D01*
X048763Y002286D01*
X048814Y002306D01*
X048865Y002323D01*
X048918Y002335D01*
X048971Y002344D01*
X049025Y002349D01*
X049080Y002350D01*
X049134Y002347D01*
X049187Y002340D01*
X049240Y002329D01*
X049293Y002315D01*
X049344Y002297D01*
X049393Y002275D01*
X049441Y002250D01*
X049487Y002221D01*
X049531Y002189D01*
X049572Y002154D01*
X049610Y002116D01*
X049646Y002075D01*
X049679Y002032D01*
X049709Y001987D01*
X049735Y001939D01*
X049758Y001890D01*
X049777Y001839D01*
X049792Y001788D01*
X049804Y001735D01*
X049812Y001681D01*
X049816Y001627D01*
X049816Y001573D01*
X049812Y001519D01*
X049804Y001465D01*
X049792Y001412D01*
X049777Y001361D01*
X049758Y001310D01*
X049735Y001261D01*
X049709Y001213D01*
X049679Y001168D01*
X049646Y001125D01*
X049610Y001084D01*
X049572Y001046D01*
X049531Y001011D01*
X049487Y000979D01*
X049441Y000950D01*
X049393Y000925D01*
X049344Y000903D01*
X049293Y000885D01*
X049240Y000871D01*
X049187Y000860D01*
X049134Y000853D01*
X049080Y000850D01*
X049025Y000851D01*
X048971Y000856D01*
X048918Y000865D01*
X048865Y000877D01*
X048814Y000894D01*
X048763Y000914D01*
X048715Y000937D01*
X048668Y000964D01*
X048623Y000995D01*
X048580Y001028D01*
X048540Y001065D01*
X048503Y001104D01*
X048469Y001146D01*
X048438Y001190D01*
X048410Y001237D01*
X048385Y001285D01*
X048364Y001335D01*
X048347Y001386D01*
X048334Y001439D01*
X048324Y001492D01*
X048318Y001546D01*
X048316Y001600D01*
X001316Y039600D02*
X001318Y039654D01*
X001324Y039708D01*
X001334Y039761D01*
X001347Y039814D01*
X001364Y039865D01*
X001385Y039915D01*
X001410Y039963D01*
X001438Y040010D01*
X001469Y040054D01*
X001503Y040096D01*
X001540Y040135D01*
X001580Y040172D01*
X001623Y040205D01*
X001668Y040236D01*
X001715Y040263D01*
X001763Y040286D01*
X001814Y040306D01*
X001865Y040323D01*
X001918Y040335D01*
X001971Y040344D01*
X002025Y040349D01*
X002080Y040350D01*
X002134Y040347D01*
X002187Y040340D01*
X002240Y040329D01*
X002293Y040315D01*
X002344Y040297D01*
X002393Y040275D01*
X002441Y040250D01*
X002487Y040221D01*
X002531Y040189D01*
X002572Y040154D01*
X002610Y040116D01*
X002646Y040075D01*
X002679Y040032D01*
X002709Y039987D01*
X002735Y039939D01*
X002758Y039890D01*
X002777Y039839D01*
X002792Y039788D01*
X002804Y039735D01*
X002812Y039681D01*
X002816Y039627D01*
X002816Y039573D01*
X002812Y039519D01*
X002804Y039465D01*
X002792Y039412D01*
X002777Y039361D01*
X002758Y039310D01*
X002735Y039261D01*
X002709Y039213D01*
X002679Y039168D01*
X002646Y039125D01*
X002610Y039084D01*
X002572Y039046D01*
X002531Y039011D01*
X002487Y038979D01*
X002441Y038950D01*
X002393Y038925D01*
X002344Y038903D01*
X002293Y038885D01*
X002240Y038871D01*
X002187Y038860D01*
X002134Y038853D01*
X002080Y038850D01*
X002025Y038851D01*
X001971Y038856D01*
X001918Y038865D01*
X001865Y038877D01*
X001814Y038894D01*
X001763Y038914D01*
X001715Y038937D01*
X001668Y038964D01*
X001623Y038995D01*
X001580Y039028D01*
X001540Y039065D01*
X001503Y039104D01*
X001469Y039146D01*
X001438Y039190D01*
X001410Y039237D01*
X001385Y039285D01*
X001364Y039335D01*
X001347Y039386D01*
X001334Y039439D01*
X001324Y039492D01*
X001318Y039546D01*
X001316Y039600D01*
M02*
