G75*
G70*
%OFA0B0*%
%FSLAX24Y24*%
%IPPOS*%
%LPD*%
%AMOC8*
5,1,8,0,0,1.08239X$1,22.5*
%
%ADD10R,0.1300X0.0500*%
%ADD11C,0.0945*%
%ADD12R,0.1181X0.0945*%
%ADD13C,0.0974*%
%ADD14R,0.0433X0.0394*%
%ADD15R,0.0630X0.1535*%
%ADD16R,0.0394X0.0433*%
%ADD17R,0.0315X0.0315*%
%ADD18R,0.5118X0.1969*%
%ADD19C,0.1125*%
%ADD20C,0.0600*%
%ADD21C,0.0515*%
%ADD22C,0.0520*%
%ADD23R,0.0354X0.0394*%
%ADD24C,0.0397*%
%ADD25C,0.0310*%
%ADD26C,0.0100*%
%ADD27C,0.0660*%
%ADD28C,0.0320*%
%ADD29C,0.0240*%
%ADD30C,0.0120*%
D10*
X002766Y014150D03*
X002766Y015330D03*
X002766Y016510D03*
X002766Y017690D03*
X002766Y018870D03*
X002766Y020050D03*
X013366Y020050D03*
X013366Y018870D03*
X013366Y017690D03*
X013366Y016510D03*
X013366Y015330D03*
X013366Y014150D03*
D11*
X036066Y011350D03*
X036066Y005350D03*
X044316Y005350D03*
X044316Y011350D03*
D12*
X002816Y009557D03*
X002816Y007643D03*
D13*
X007786Y005850D03*
X009345Y005850D03*
X036036Y004100D03*
X037595Y004100D03*
X044286Y004100D03*
X045845Y004100D03*
D14*
X041066Y010265D03*
X041066Y010935D03*
X033316Y010935D03*
X033316Y010265D03*
D15*
X009066Y011523D03*
X009066Y008177D03*
D16*
X014481Y008600D03*
X015151Y008600D03*
D17*
X021021Y001350D03*
X021611Y001350D03*
D18*
X025597Y023600D03*
X016097Y023600D03*
X006597Y023600D03*
D19*
X033916Y012600D03*
X036066Y012600D03*
X038216Y012600D03*
X042166Y012600D03*
X044316Y012600D03*
X046466Y012600D03*
D20*
X015506Y029350D03*
X015506Y034350D03*
D21*
X013066Y037600D03*
X012279Y037600D03*
X011491Y037600D03*
X010704Y037600D03*
X008566Y037600D03*
X007779Y037600D03*
X006991Y037600D03*
X031779Y037600D03*
X032566Y037600D03*
D22*
X029066Y037100D03*
X029066Y038100D03*
X029066Y039100D03*
X029066Y040100D03*
X027816Y039100D03*
X025816Y039100D03*
X025066Y039100D03*
X025066Y037850D03*
X023066Y037850D03*
X023066Y039100D03*
X019066Y039100D03*
X019066Y038100D03*
X018316Y038100D03*
X018316Y037100D03*
X016316Y037100D03*
X016316Y038100D03*
X013816Y035100D03*
X013816Y034100D03*
X012066Y034100D03*
X012066Y035100D03*
X010316Y035100D03*
X010316Y034100D03*
X008566Y034100D03*
X008566Y035100D03*
X006566Y035100D03*
X006566Y034100D03*
X007066Y032350D03*
X009066Y032350D03*
X010816Y032350D03*
X012066Y032350D03*
X013316Y032350D03*
X013316Y030350D03*
X012066Y030350D03*
X010816Y030350D03*
X009066Y030350D03*
X008066Y030350D03*
X007066Y030350D03*
X008066Y028350D03*
X008566Y027850D03*
X009566Y027850D03*
D23*
X011759Y028285D03*
X011759Y028915D03*
X013373Y028915D03*
X013373Y028285D03*
D24*
X020816Y039100D03*
X021308Y039100D03*
X021800Y039100D03*
X022292Y039100D03*
D25*
X001816Y020350D03*
X001816Y019850D03*
X001316Y019850D03*
X001316Y020350D03*
X005316Y010600D03*
X005316Y009850D03*
X006316Y007600D03*
X004066Y005100D03*
X009316Y009600D03*
X010816Y009600D03*
X012416Y011850D03*
X012416Y012850D03*
X015316Y014850D03*
X016316Y014850D03*
X017316Y014850D03*
X018816Y016100D03*
X014816Y017350D03*
X014816Y017850D03*
X014316Y017850D03*
X014316Y017350D03*
X015766Y011650D03*
X015766Y011330D03*
X016116Y011330D03*
X016116Y011650D03*
X017316Y011350D03*
X018316Y011350D03*
X020066Y010350D03*
X023066Y011350D03*
X023316Y009350D03*
X024816Y008350D03*
X024816Y007850D03*
X023816Y006850D03*
X020566Y005350D03*
X020066Y005600D03*
X017066Y007600D03*
X017066Y008600D03*
X015316Y010100D03*
X013816Y006350D03*
X023816Y002600D03*
X028566Y004850D03*
X028566Y005850D03*
X024566Y016100D03*
X024066Y016100D03*
X027316Y018850D03*
X024066Y019850D03*
D26*
X001066Y013100D02*
X001066Y002850D01*
X003316Y002850D01*
X003316Y000600D01*
X007066Y000600D01*
X007066Y005310D01*
X003459Y005310D01*
X003260Y005392D01*
X003108Y005544D01*
X003108Y005544D01*
X002358Y006294D01*
X002276Y006493D01*
X002276Y006961D01*
X002138Y006961D01*
X002015Y007084D01*
X002015Y008203D01*
X002138Y008326D01*
X003493Y008326D01*
X003616Y008203D01*
X003616Y007084D01*
X003493Y006961D01*
X003356Y006961D01*
X003356Y006824D01*
X003790Y006390D01*
X007066Y006390D01*
X007066Y009100D01*
X010066Y009100D01*
X010066Y000600D01*
X020566Y000600D01*
X020566Y001080D01*
X020262Y001080D01*
X020163Y001121D01*
X019837Y001447D01*
X019796Y001546D01*
X019796Y005354D01*
X019757Y005393D01*
X019701Y005527D01*
X019701Y005673D01*
X019757Y005807D01*
X019859Y005909D01*
X019993Y005965D01*
X020139Y005965D01*
X020273Y005909D01*
X020375Y005807D01*
X020431Y005673D01*
X020431Y005527D01*
X020375Y005393D01*
X020336Y005354D01*
X020336Y001712D01*
X020428Y001620D01*
X020566Y001620D01*
X020566Y001850D01*
X022066Y001850D01*
X022066Y000600D01*
X047816Y000600D01*
X047816Y002850D01*
X050066Y002850D01*
X050066Y024600D01*
X001066Y024600D01*
X001066Y021350D01*
X004316Y021350D01*
X004316Y020600D01*
X014566Y020600D01*
X014566Y018600D01*
X015566Y018600D01*
X015566Y016600D01*
X014566Y016600D01*
X014566Y013350D01*
X005066Y013350D01*
X005066Y012063D01*
X008541Y012063D01*
X008541Y012378D01*
X008664Y012501D01*
X009468Y012501D01*
X009591Y012378D01*
X009591Y011893D01*
X011716Y011893D01*
X011852Y011837D01*
X013969Y009720D01*
X015056Y009720D01*
X015056Y009844D01*
X015007Y009893D01*
X014951Y010027D01*
X014951Y010173D01*
X015007Y010307D01*
X015109Y010409D01*
X015243Y010465D01*
X015389Y010465D01*
X015523Y010409D01*
X015625Y010307D01*
X015681Y010173D01*
X015681Y010027D01*
X015625Y009893D01*
X015576Y009844D01*
X015576Y009720D01*
X023390Y009720D01*
X023526Y009664D01*
X023630Y009560D01*
X023686Y009424D01*
X023686Y009276D01*
X023630Y009140D01*
X023526Y009036D01*
X023390Y008980D01*
X015481Y008980D01*
X015491Y008970D01*
X017140Y008970D01*
X017276Y008914D01*
X017380Y008810D01*
X017436Y008674D01*
X017436Y008526D01*
X017380Y008390D01*
X017276Y008286D01*
X017140Y008230D01*
X015491Y008230D01*
X015434Y008173D01*
X014867Y008173D01*
X014816Y008224D01*
X014765Y008173D01*
X014197Y008173D01*
X014074Y008296D01*
X014074Y008904D01*
X014111Y008940D01*
X014111Y008980D01*
X013742Y008980D01*
X013606Y009036D01*
X011489Y011153D01*
X009591Y011153D01*
X009591Y010669D01*
X009468Y010546D01*
X008664Y010546D01*
X008541Y010669D01*
X008541Y010983D01*
X005066Y010983D01*
X005066Y010866D01*
X005109Y010909D01*
X005243Y010965D01*
X005389Y010965D01*
X005523Y010909D01*
X005625Y010807D01*
X005681Y010673D01*
X005681Y010527D01*
X005625Y010393D01*
X005586Y010354D01*
X005586Y010096D01*
X005625Y010057D01*
X005681Y009923D01*
X005681Y009777D01*
X005625Y009643D01*
X005523Y009541D01*
X005389Y009485D01*
X005243Y009485D01*
X005109Y009541D01*
X005007Y009643D01*
X004951Y009777D01*
X004951Y009923D01*
X005007Y010057D01*
X005046Y010096D01*
X005046Y010354D01*
X005007Y010393D01*
X004951Y010527D01*
X004951Y010673D01*
X005007Y010807D01*
X005050Y010850D01*
X004080Y010850D01*
X003469Y010239D01*
X003493Y010239D01*
X003616Y010116D01*
X003616Y008997D01*
X003493Y008874D01*
X002138Y008874D01*
X002015Y008997D01*
X002015Y010116D01*
X002138Y010239D01*
X002276Y010239D01*
X002276Y010457D01*
X002358Y010656D01*
X003316Y011614D01*
X003316Y013100D01*
X001066Y013100D01*
X001066Y013026D02*
X003316Y013026D01*
X003316Y012928D02*
X001066Y012928D01*
X001066Y012829D02*
X003316Y012829D01*
X003316Y012731D02*
X001066Y012731D01*
X001066Y012632D02*
X003316Y012632D01*
X003316Y012534D02*
X001066Y012534D01*
X001066Y012435D02*
X003316Y012435D01*
X003316Y012337D02*
X001066Y012337D01*
X001066Y012238D02*
X003316Y012238D01*
X003316Y012140D02*
X001066Y012140D01*
X001066Y012041D02*
X003316Y012041D01*
X003316Y011943D02*
X001066Y011943D01*
X001066Y011844D02*
X003316Y011844D01*
X003316Y011746D02*
X001066Y011746D01*
X001066Y011647D02*
X003316Y011647D01*
X003251Y011549D02*
X001066Y011549D01*
X001066Y011450D02*
X003152Y011450D01*
X003054Y011352D02*
X001066Y011352D01*
X001066Y011253D02*
X002955Y011253D01*
X002857Y011155D02*
X001066Y011155D01*
X001066Y011056D02*
X002758Y011056D01*
X002660Y010958D02*
X001066Y010958D01*
X001066Y010859D02*
X002561Y010859D01*
X002463Y010761D02*
X001066Y010761D01*
X001066Y010662D02*
X002364Y010662D01*
X002320Y010564D02*
X001066Y010564D01*
X001066Y010465D02*
X002279Y010465D01*
X002276Y010367D02*
X001066Y010367D01*
X001066Y010268D02*
X002276Y010268D01*
X002069Y010170D02*
X001066Y010170D01*
X001066Y010071D02*
X002015Y010071D01*
X002015Y009973D02*
X001066Y009973D01*
X001066Y009874D02*
X002015Y009874D01*
X002015Y009776D02*
X001066Y009776D01*
X001066Y009677D02*
X002015Y009677D01*
X002015Y009579D02*
X001066Y009579D01*
X001066Y009480D02*
X002015Y009480D01*
X002015Y009382D02*
X001066Y009382D01*
X001066Y009283D02*
X002015Y009283D01*
X002015Y009185D02*
X001066Y009185D01*
X001066Y009086D02*
X002015Y009086D01*
X002025Y008988D02*
X001066Y008988D01*
X001066Y008889D02*
X002124Y008889D01*
X002111Y008298D02*
X001066Y008298D01*
X001066Y008200D02*
X002015Y008200D01*
X002015Y008101D02*
X001066Y008101D01*
X001066Y008003D02*
X002015Y008003D01*
X002015Y007904D02*
X001066Y007904D01*
X001066Y007806D02*
X002015Y007806D01*
X002015Y007707D02*
X001066Y007707D01*
X001066Y007609D02*
X002015Y007609D01*
X002015Y007510D02*
X001066Y007510D01*
X001066Y007412D02*
X002015Y007412D01*
X002015Y007313D02*
X001066Y007313D01*
X001066Y007215D02*
X002015Y007215D01*
X002015Y007116D02*
X001066Y007116D01*
X001066Y007018D02*
X002082Y007018D01*
X002276Y006919D02*
X001066Y006919D01*
X001066Y006821D02*
X002276Y006821D01*
X002276Y006722D02*
X001066Y006722D01*
X001066Y006624D02*
X002276Y006624D01*
X002276Y006525D02*
X001066Y006525D01*
X001066Y006427D02*
X002303Y006427D01*
X002344Y006328D02*
X001066Y006328D01*
X001066Y006230D02*
X002423Y006230D01*
X002521Y006131D02*
X001066Y006131D01*
X001066Y006033D02*
X002620Y006033D01*
X002718Y005934D02*
X001066Y005934D01*
X001066Y005836D02*
X002817Y005836D01*
X002915Y005737D02*
X001066Y005737D01*
X001066Y005639D02*
X003014Y005639D01*
X003112Y005540D02*
X001066Y005540D01*
X001066Y005442D02*
X003211Y005442D01*
X003379Y005343D02*
X001066Y005343D01*
X001066Y005245D02*
X007066Y005245D01*
X007066Y005146D02*
X001066Y005146D01*
X001066Y005048D02*
X007066Y005048D01*
X007066Y004949D02*
X001066Y004949D01*
X001066Y004851D02*
X007066Y004851D01*
X007066Y004752D02*
X001066Y004752D01*
X001066Y004654D02*
X007066Y004654D01*
X007066Y004555D02*
X001066Y004555D01*
X001066Y004457D02*
X007066Y004457D01*
X007066Y004358D02*
X001066Y004358D01*
X001066Y004260D02*
X007066Y004260D01*
X007066Y004161D02*
X001066Y004161D01*
X001066Y004063D02*
X007066Y004063D01*
X007066Y003964D02*
X001066Y003964D01*
X001066Y003866D02*
X007066Y003866D01*
X007066Y003767D02*
X001066Y003767D01*
X001066Y003669D02*
X007066Y003669D01*
X007066Y003570D02*
X001066Y003570D01*
X001066Y003472D02*
X007066Y003472D01*
X007066Y003373D02*
X001066Y003373D01*
X001066Y003275D02*
X007066Y003275D01*
X007066Y003176D02*
X001066Y003176D01*
X001066Y003078D02*
X007066Y003078D01*
X007066Y002979D02*
X001066Y002979D01*
X001066Y002881D02*
X007066Y002881D01*
X007066Y002782D02*
X003316Y002782D01*
X003316Y002684D02*
X007066Y002684D01*
X007066Y002585D02*
X003316Y002585D01*
X003316Y002487D02*
X007066Y002487D01*
X007066Y002388D02*
X003316Y002388D01*
X003316Y002290D02*
X007066Y002290D01*
X007066Y002191D02*
X003316Y002191D01*
X003316Y002093D02*
X007066Y002093D01*
X007066Y001994D02*
X003316Y001994D01*
X003316Y001896D02*
X007066Y001896D01*
X007066Y001797D02*
X003316Y001797D01*
X003316Y001699D02*
X007066Y001699D01*
X007066Y001600D02*
X003316Y001600D01*
X003316Y001501D02*
X007066Y001501D01*
X007066Y001403D02*
X003316Y001403D01*
X003316Y001304D02*
X007066Y001304D01*
X007066Y001206D02*
X003316Y001206D01*
X003316Y001107D02*
X007066Y001107D01*
X007066Y001009D02*
X003316Y001009D01*
X003316Y000910D02*
X007066Y000910D01*
X007066Y000812D02*
X003316Y000812D01*
X003316Y000713D02*
X007066Y000713D01*
X007066Y000615D02*
X003316Y000615D01*
X006816Y000615D02*
X010316Y000615D01*
X010316Y000600D02*
X006816Y000600D01*
X006816Y005310D01*
X007340Y005310D01*
X007391Y005259D01*
X007648Y005153D01*
X007925Y005153D01*
X008181Y005259D01*
X008377Y005455D01*
X008484Y005711D01*
X008484Y005989D01*
X008377Y006245D01*
X008181Y006441D01*
X007925Y006547D01*
X007648Y006547D01*
X007391Y006441D01*
X007340Y006390D01*
X006816Y006390D01*
X006816Y009100D01*
X010316Y009100D01*
X010316Y000600D01*
X010316Y000713D02*
X006816Y000713D01*
X006816Y000812D02*
X010316Y000812D01*
X010316Y000910D02*
X006816Y000910D01*
X006816Y001009D02*
X010316Y001009D01*
X010316Y001107D02*
X006816Y001107D01*
X006816Y001206D02*
X010316Y001206D01*
X010316Y001304D02*
X006816Y001304D01*
X006816Y001403D02*
X010316Y001403D01*
X010316Y001501D02*
X006816Y001501D01*
X006816Y001600D02*
X010316Y001600D01*
X010316Y001699D02*
X006816Y001699D01*
X006816Y001797D02*
X010316Y001797D01*
X010316Y001896D02*
X006816Y001896D01*
X006816Y001994D02*
X010316Y001994D01*
X010316Y002093D02*
X006816Y002093D01*
X006816Y002191D02*
X010316Y002191D01*
X010316Y002290D02*
X006816Y002290D01*
X006816Y002388D02*
X010316Y002388D01*
X010316Y002487D02*
X006816Y002487D01*
X006816Y002585D02*
X010316Y002585D01*
X010316Y002684D02*
X006816Y002684D01*
X006816Y002782D02*
X010316Y002782D01*
X010316Y002881D02*
X006816Y002881D01*
X006816Y002979D02*
X010316Y002979D01*
X010316Y003078D02*
X006816Y003078D01*
X006816Y003176D02*
X010316Y003176D01*
X010316Y003275D02*
X006816Y003275D01*
X006816Y003373D02*
X010316Y003373D01*
X010316Y003472D02*
X006816Y003472D01*
X006816Y003570D02*
X010316Y003570D01*
X010316Y003669D02*
X006816Y003669D01*
X006816Y003767D02*
X010316Y003767D01*
X010316Y003866D02*
X006816Y003866D01*
X006816Y003964D02*
X010316Y003964D01*
X010316Y004063D02*
X006816Y004063D01*
X006816Y004161D02*
X010316Y004161D01*
X010316Y004260D02*
X006816Y004260D01*
X006816Y004358D02*
X010316Y004358D01*
X010316Y004457D02*
X006816Y004457D01*
X006816Y004555D02*
X010316Y004555D01*
X010316Y004654D02*
X006816Y004654D01*
X006816Y004752D02*
X010316Y004752D01*
X010316Y004851D02*
X006816Y004851D01*
X006816Y004949D02*
X010316Y004949D01*
X010316Y005048D02*
X006816Y005048D01*
X006816Y005146D02*
X010316Y005146D01*
X010316Y005245D02*
X009548Y005245D01*
X009551Y005245D02*
X009628Y005277D01*
X009700Y005319D01*
X009767Y005370D01*
X009826Y005429D01*
X009876Y005495D01*
X009918Y005568D01*
X009950Y005645D01*
X009972Y005725D01*
X009982Y005800D01*
X009395Y005800D01*
X009395Y005214D01*
X009470Y005224D01*
X009551Y005245D01*
X009395Y005245D02*
X009295Y005245D01*
X009295Y005214D02*
X009295Y005800D01*
X008709Y005800D01*
X008719Y005725D01*
X008741Y005645D01*
X008773Y005568D01*
X008815Y005495D01*
X008865Y005429D01*
X008924Y005370D01*
X008991Y005319D01*
X009063Y005277D01*
X009140Y005245D01*
X009221Y005224D01*
X009295Y005214D01*
X009295Y005343D02*
X009395Y005343D01*
X009395Y005442D02*
X009295Y005442D01*
X009295Y005540D02*
X009395Y005540D01*
X009395Y005639D02*
X009295Y005639D01*
X009295Y005737D02*
X009395Y005737D01*
X009395Y005800D02*
X009295Y005800D01*
X009295Y005900D01*
X008709Y005900D01*
X008719Y005975D01*
X008741Y006055D01*
X008773Y006132D01*
X008815Y006205D01*
X008865Y006271D01*
X008924Y006330D01*
X008991Y006381D01*
X009063Y006423D01*
X009140Y006455D01*
X009221Y006476D01*
X009295Y006486D01*
X009295Y005900D01*
X009395Y005900D01*
X009395Y006486D01*
X009470Y006476D01*
X009551Y006455D01*
X009628Y006423D01*
X009700Y006381D01*
X009767Y006330D01*
X009826Y006271D01*
X009876Y006205D01*
X009918Y006132D01*
X009950Y006055D01*
X009972Y005975D01*
X009982Y005900D01*
X009395Y005900D01*
X009395Y005800D01*
X009395Y005836D02*
X010316Y005836D01*
X010316Y005934D02*
X009977Y005934D01*
X010066Y005934D02*
X019919Y005934D01*
X019785Y005836D02*
X010066Y005836D01*
X010066Y005737D02*
X019728Y005737D01*
X019701Y005639D02*
X010066Y005639D01*
X010066Y005540D02*
X019701Y005540D01*
X019737Y005442D02*
X010066Y005442D01*
X010066Y005343D02*
X019796Y005343D01*
X019796Y005245D02*
X010066Y005245D01*
X010066Y005146D02*
X019796Y005146D01*
X019796Y005048D02*
X010066Y005048D01*
X010066Y004949D02*
X019796Y004949D01*
X019796Y004851D02*
X010066Y004851D01*
X010066Y004752D02*
X019796Y004752D01*
X019796Y004654D02*
X010066Y004654D01*
X010066Y004555D02*
X019796Y004555D01*
X019796Y004457D02*
X010066Y004457D01*
X010066Y004358D02*
X019796Y004358D01*
X019796Y004260D02*
X010066Y004260D01*
X010066Y004161D02*
X019796Y004161D01*
X019796Y004063D02*
X010066Y004063D01*
X010066Y003964D02*
X019796Y003964D01*
X019796Y003866D02*
X010066Y003866D01*
X010066Y003767D02*
X019796Y003767D01*
X019796Y003669D02*
X010066Y003669D01*
X010066Y003570D02*
X019796Y003570D01*
X019796Y003472D02*
X010066Y003472D01*
X010066Y003373D02*
X019796Y003373D01*
X019796Y003275D02*
X010066Y003275D01*
X010066Y003176D02*
X019796Y003176D01*
X019796Y003078D02*
X010066Y003078D01*
X010066Y002979D02*
X019796Y002979D01*
X019796Y002881D02*
X010066Y002881D01*
X010066Y002782D02*
X019796Y002782D01*
X019796Y002684D02*
X010066Y002684D01*
X010066Y002585D02*
X019796Y002585D01*
X019796Y002487D02*
X010066Y002487D01*
X010066Y002388D02*
X019796Y002388D01*
X019796Y002290D02*
X010066Y002290D01*
X010066Y002191D02*
X019796Y002191D01*
X019796Y002093D02*
X010066Y002093D01*
X010066Y001994D02*
X019796Y001994D01*
X019796Y001896D02*
X010066Y001896D01*
X010066Y001797D02*
X019796Y001797D01*
X019796Y001699D02*
X010066Y001699D01*
X010066Y001600D02*
X019796Y001600D01*
X019814Y001501D02*
X010066Y001501D01*
X010066Y001403D02*
X019881Y001403D01*
X019980Y001304D02*
X010066Y001304D01*
X010066Y001206D02*
X020078Y001206D01*
X020196Y001107D02*
X010066Y001107D01*
X010066Y001009D02*
X020566Y001009D01*
X020566Y000910D02*
X010066Y000910D01*
X010066Y000812D02*
X020566Y000812D01*
X020566Y000713D02*
X010066Y000713D01*
X010066Y000615D02*
X020566Y000615D01*
X020566Y001699D02*
X020349Y001699D01*
X020336Y001797D02*
X020566Y001797D01*
X020336Y001896D02*
X047816Y001896D01*
X047816Y001994D02*
X020336Y001994D01*
X020336Y002093D02*
X047816Y002093D01*
X047816Y002191D02*
X020336Y002191D01*
X020336Y002290D02*
X047816Y002290D01*
X047816Y002388D02*
X020336Y002388D01*
X020336Y002487D02*
X047816Y002487D01*
X047816Y002585D02*
X020336Y002585D01*
X020336Y002684D02*
X047816Y002684D01*
X047816Y002782D02*
X020336Y002782D01*
X020336Y002881D02*
X050066Y002881D01*
X050066Y002979D02*
X020336Y002979D01*
X020336Y003078D02*
X050066Y003078D01*
X050066Y003176D02*
X020336Y003176D01*
X020336Y003275D02*
X050066Y003275D01*
X050066Y003373D02*
X020336Y003373D01*
X020336Y003472D02*
X035732Y003472D01*
X035641Y003509D02*
X035898Y003403D01*
X036175Y003403D01*
X036431Y003509D01*
X036627Y003705D01*
X036734Y003961D01*
X036734Y004239D01*
X036627Y004495D01*
X036431Y004691D01*
X036345Y004727D01*
X036453Y004771D01*
X036645Y004963D01*
X036748Y005214D01*
X036748Y005486D01*
X036645Y005737D01*
X036453Y005929D01*
X036202Y006032D01*
X035930Y006032D01*
X035679Y005929D01*
X035487Y005737D01*
X035383Y005486D01*
X035383Y005214D01*
X035487Y004963D01*
X035679Y004771D01*
X035757Y004739D01*
X035641Y004691D01*
X035445Y004495D01*
X035339Y004239D01*
X035339Y003961D01*
X035445Y003705D01*
X035641Y003509D01*
X035580Y003570D02*
X020336Y003570D01*
X020336Y003669D02*
X035482Y003669D01*
X035420Y003767D02*
X020336Y003767D01*
X020336Y003866D02*
X035379Y003866D01*
X035339Y003964D02*
X020336Y003964D01*
X020336Y004063D02*
X035339Y004063D01*
X035339Y004161D02*
X020336Y004161D01*
X020336Y004260D02*
X035348Y004260D01*
X035389Y004358D02*
X020336Y004358D01*
X020336Y004457D02*
X035429Y004457D01*
X035505Y004555D02*
X033716Y004555D01*
X033753Y004570D02*
X034253Y005070D01*
X034346Y005163D01*
X034396Y005284D01*
X034396Y008463D01*
X034703Y008770D01*
X040632Y008770D01*
X040753Y008820D01*
X041346Y009413D01*
X041396Y009534D01*
X041396Y009885D01*
X041492Y009982D01*
X041492Y010549D01*
X041442Y010600D01*
X041492Y010651D01*
X041492Y011218D01*
X041396Y011315D01*
X041396Y011363D01*
X041905Y011872D01*
X042012Y011828D01*
X042320Y011828D01*
X042604Y011945D01*
X042821Y012162D01*
X042938Y012446D01*
X042938Y012754D01*
X042821Y013038D01*
X042604Y013255D01*
X042320Y013372D01*
X042012Y013372D01*
X041728Y013255D01*
X041511Y013038D01*
X041393Y012754D01*
X041393Y012446D01*
X041438Y012339D01*
X040786Y011687D01*
X040736Y011566D01*
X040736Y011315D01*
X040639Y011218D01*
X040639Y010651D01*
X040690Y010600D01*
X040639Y010549D01*
X040639Y009982D01*
X040736Y009885D01*
X040736Y009737D01*
X040429Y009430D01*
X034500Y009430D01*
X034379Y009380D01*
X033786Y008787D01*
X033736Y008666D01*
X033736Y005487D01*
X033429Y005180D01*
X028723Y005180D01*
X028639Y005215D01*
X028493Y005215D01*
X028359Y005159D01*
X028257Y005057D01*
X028201Y004923D01*
X028201Y004777D01*
X028257Y004643D01*
X028359Y004541D01*
X028493Y004485D01*
X028639Y004485D01*
X028723Y004520D01*
X033632Y004520D01*
X033753Y004570D01*
X033836Y004654D02*
X035604Y004654D01*
X035726Y004752D02*
X033935Y004752D01*
X034033Y004851D02*
X035600Y004851D01*
X035502Y004949D02*
X034132Y004949D01*
X034230Y005048D02*
X035453Y005048D01*
X035412Y005146D02*
X034329Y005146D01*
X034379Y005245D02*
X035383Y005245D01*
X035383Y005343D02*
X034396Y005343D01*
X034396Y005442D02*
X035383Y005442D01*
X035406Y005540D02*
X034396Y005540D01*
X034396Y005639D02*
X035447Y005639D01*
X035488Y005737D02*
X034396Y005737D01*
X034396Y005836D02*
X035586Y005836D01*
X035692Y005934D02*
X034396Y005934D01*
X034396Y006033D02*
X050066Y006033D01*
X050066Y006131D02*
X034396Y006131D01*
X034396Y006230D02*
X050066Y006230D01*
X050066Y006328D02*
X034396Y006328D01*
X034396Y006427D02*
X050066Y006427D01*
X050066Y006525D02*
X034396Y006525D01*
X034396Y006624D02*
X050066Y006624D01*
X050066Y006722D02*
X034396Y006722D01*
X034396Y006821D02*
X050066Y006821D01*
X050066Y006919D02*
X034396Y006919D01*
X034396Y007018D02*
X050066Y007018D01*
X050066Y007116D02*
X034396Y007116D01*
X034396Y007215D02*
X050066Y007215D01*
X050066Y007313D02*
X034396Y007313D01*
X034396Y007412D02*
X050066Y007412D01*
X050066Y007510D02*
X034396Y007510D01*
X034396Y007609D02*
X050066Y007609D01*
X050066Y007707D02*
X034396Y007707D01*
X034396Y007806D02*
X050066Y007806D01*
X050066Y007904D02*
X034396Y007904D01*
X034396Y008003D02*
X050066Y008003D01*
X050066Y008101D02*
X034396Y008101D01*
X034396Y008200D02*
X050066Y008200D01*
X050066Y008298D02*
X034396Y008298D01*
X034396Y008397D02*
X050066Y008397D01*
X050066Y008495D02*
X034428Y008495D01*
X034526Y008594D02*
X050066Y008594D01*
X050066Y008692D02*
X034625Y008692D01*
X034184Y009185D02*
X033646Y009185D01*
X033646Y009283D02*
X034282Y009283D01*
X034383Y009382D02*
X033646Y009382D01*
X033646Y009480D02*
X040479Y009480D01*
X040578Y009579D02*
X033646Y009579D01*
X033646Y009677D02*
X040676Y009677D01*
X040736Y009776D02*
X033646Y009776D01*
X033646Y009874D02*
X040736Y009874D01*
X040648Y009973D02*
X033733Y009973D01*
X033742Y009982D02*
X033742Y010549D01*
X033692Y010600D01*
X033742Y010651D01*
X033742Y011218D01*
X033646Y011315D01*
X033646Y011863D01*
X033655Y011872D01*
X033762Y011828D01*
X034070Y011828D01*
X034354Y011945D01*
X034571Y012162D01*
X034688Y012446D01*
X034688Y012754D01*
X034571Y013038D01*
X034354Y013255D01*
X034070Y013372D01*
X033762Y013372D01*
X033478Y013255D01*
X033261Y013038D01*
X033143Y012754D01*
X033143Y012446D01*
X033188Y012339D01*
X033036Y012187D01*
X032986Y012066D01*
X032986Y011315D01*
X032889Y011218D01*
X032889Y010651D01*
X032940Y010600D01*
X032889Y010549D01*
X032889Y009982D01*
X032986Y009885D01*
X032986Y006487D01*
X032679Y006180D01*
X028723Y006180D01*
X028639Y006215D01*
X028493Y006215D01*
X028359Y006159D01*
X028257Y006057D01*
X028201Y005923D01*
X028201Y005777D01*
X028257Y005643D01*
X028359Y005541D01*
X028493Y005485D01*
X028639Y005485D01*
X028723Y005520D01*
X032882Y005520D01*
X033003Y005570D01*
X033503Y006070D01*
X033596Y006163D01*
X033646Y006284D01*
X033646Y009885D01*
X033742Y009982D01*
X033742Y010071D02*
X040639Y010071D01*
X040639Y010170D02*
X033742Y010170D01*
X033742Y010268D02*
X040639Y010268D01*
X040639Y010367D02*
X033742Y010367D01*
X033742Y010465D02*
X040639Y010465D01*
X040654Y010564D02*
X033728Y010564D01*
X033742Y010662D02*
X040639Y010662D01*
X040639Y010761D02*
X036426Y010761D01*
X036453Y010771D02*
X036645Y010963D01*
X036748Y011214D01*
X036748Y011486D01*
X036645Y011737D01*
X036456Y011925D01*
X036504Y011945D01*
X036721Y012162D01*
X036838Y012446D01*
X036838Y012754D01*
X036721Y013038D01*
X036504Y013255D01*
X036220Y013372D01*
X035912Y013372D01*
X035628Y013255D01*
X035411Y013038D01*
X035293Y012754D01*
X035293Y012446D01*
X035411Y012162D01*
X035628Y011945D01*
X035676Y011925D01*
X035487Y011737D01*
X035383Y011486D01*
X035383Y011214D01*
X035487Y010963D01*
X035679Y010771D01*
X035930Y010668D01*
X036202Y010668D01*
X036453Y010771D01*
X036540Y010859D02*
X040639Y010859D01*
X040639Y010958D02*
X036639Y010958D01*
X036683Y011056D02*
X040639Y011056D01*
X040639Y011155D02*
X036724Y011155D01*
X036748Y011253D02*
X040674Y011253D01*
X040736Y011352D02*
X036748Y011352D01*
X036748Y011450D02*
X040736Y011450D01*
X040736Y011549D02*
X036722Y011549D01*
X036682Y011647D02*
X040770Y011647D01*
X040845Y011746D02*
X036636Y011746D01*
X036537Y011844D02*
X040943Y011844D01*
X041042Y011943D02*
X036497Y011943D01*
X036599Y012041D02*
X041140Y012041D01*
X041239Y012140D02*
X036698Y012140D01*
X036752Y012238D02*
X041337Y012238D01*
X041436Y012337D02*
X036793Y012337D01*
X036834Y012435D02*
X041398Y012435D01*
X041393Y012534D02*
X036838Y012534D01*
X036838Y012632D02*
X041393Y012632D01*
X041393Y012731D02*
X036838Y012731D01*
X036807Y012829D02*
X041425Y012829D01*
X041465Y012928D02*
X036766Y012928D01*
X036726Y013026D02*
X041506Y013026D01*
X041598Y013125D02*
X036634Y013125D01*
X036535Y013223D02*
X041696Y013223D01*
X041889Y013322D02*
X036343Y013322D01*
X035789Y013322D02*
X034193Y013322D01*
X034385Y013223D02*
X035596Y013223D01*
X035498Y013125D02*
X034484Y013125D01*
X034576Y013026D02*
X035406Y013026D01*
X035365Y012928D02*
X034616Y012928D01*
X034657Y012829D02*
X035325Y012829D01*
X035293Y012731D02*
X034688Y012731D01*
X034688Y012632D02*
X035293Y012632D01*
X035293Y012534D02*
X034688Y012534D01*
X034684Y012435D02*
X035298Y012435D01*
X035339Y012337D02*
X034643Y012337D01*
X034602Y012238D02*
X035380Y012238D01*
X035434Y012140D02*
X034548Y012140D01*
X034449Y012041D02*
X035532Y012041D01*
X035635Y011943D02*
X034347Y011943D01*
X034109Y011844D02*
X035595Y011844D01*
X035496Y011746D02*
X033646Y011746D01*
X033646Y011844D02*
X033722Y011844D01*
X033646Y011647D02*
X035450Y011647D01*
X035409Y011549D02*
X033646Y011549D01*
X033646Y011450D02*
X035383Y011450D01*
X035383Y011352D02*
X033646Y011352D01*
X033708Y011253D02*
X035383Y011253D01*
X035408Y011155D02*
X033742Y011155D01*
X033742Y011056D02*
X035449Y011056D01*
X035493Y010958D02*
X033742Y010958D01*
X033742Y010859D02*
X035592Y010859D01*
X035706Y010761D02*
X033742Y010761D01*
X032986Y011352D02*
X020326Y011352D01*
X020326Y011450D02*
X032986Y011450D01*
X032986Y011549D02*
X020326Y011549D01*
X020326Y011647D02*
X032986Y011647D01*
X032986Y011746D02*
X020326Y011746D01*
X020326Y011844D02*
X032986Y011844D01*
X032986Y011943D02*
X020326Y011943D01*
X020326Y012041D02*
X032986Y012041D01*
X033017Y012140D02*
X020326Y012140D01*
X020326Y012238D02*
X033087Y012238D01*
X033186Y012337D02*
X020326Y012337D01*
X020326Y012435D02*
X033148Y012435D01*
X033143Y012534D02*
X020326Y012534D01*
X020326Y012632D02*
X033143Y012632D01*
X033143Y012731D02*
X020326Y012731D01*
X020326Y012829D02*
X033175Y012829D01*
X033215Y012928D02*
X020326Y012928D01*
X020326Y013026D02*
X033256Y013026D01*
X033348Y013125D02*
X020326Y013125D01*
X020326Y013223D02*
X033446Y013223D01*
X033639Y013322D02*
X020326Y013322D01*
X020326Y013420D02*
X050066Y013420D01*
X050066Y013322D02*
X044593Y013322D01*
X044470Y013372D02*
X044754Y013255D01*
X044971Y013038D01*
X045088Y012754D01*
X045088Y012446D01*
X044971Y012162D01*
X044754Y011945D01*
X044706Y011925D01*
X044895Y011737D01*
X044998Y011486D01*
X044998Y011214D01*
X044895Y010963D01*
X044703Y010771D01*
X044452Y010668D01*
X044180Y010668D01*
X043929Y010771D01*
X043737Y010963D01*
X043633Y011214D01*
X043633Y011486D01*
X043737Y011737D01*
X043926Y011925D01*
X043878Y011945D01*
X043661Y012162D01*
X043543Y012446D01*
X043543Y012754D01*
X043661Y013038D01*
X043878Y013255D01*
X044162Y013372D01*
X044470Y013372D01*
X044785Y013223D02*
X050066Y013223D01*
X050066Y013125D02*
X044884Y013125D01*
X044976Y013026D02*
X050066Y013026D01*
X050066Y012928D02*
X045016Y012928D01*
X045057Y012829D02*
X050066Y012829D01*
X050066Y012731D02*
X045088Y012731D01*
X045088Y012632D02*
X050066Y012632D01*
X050066Y012534D02*
X045088Y012534D01*
X045084Y012435D02*
X050066Y012435D01*
X050066Y012337D02*
X045043Y012337D01*
X045002Y012238D02*
X050066Y012238D01*
X050066Y012140D02*
X044948Y012140D01*
X044849Y012041D02*
X050066Y012041D01*
X050066Y011943D02*
X044747Y011943D01*
X044787Y011844D02*
X050066Y011844D01*
X050066Y011746D02*
X044886Y011746D01*
X044932Y011647D02*
X050066Y011647D01*
X050066Y011549D02*
X044972Y011549D01*
X044998Y011450D02*
X050066Y011450D01*
X050066Y011352D02*
X044998Y011352D01*
X044998Y011253D02*
X050066Y011253D01*
X050066Y011155D02*
X044974Y011155D01*
X044933Y011056D02*
X050066Y011056D01*
X050066Y010958D02*
X044889Y010958D01*
X044790Y010859D02*
X050066Y010859D01*
X050066Y010761D02*
X044676Y010761D01*
X043956Y010761D02*
X041492Y010761D01*
X041492Y010859D02*
X043842Y010859D01*
X043743Y010958D02*
X041492Y010958D01*
X041492Y011056D02*
X043699Y011056D01*
X043658Y011155D02*
X041492Y011155D01*
X041458Y011253D02*
X043633Y011253D01*
X043633Y011352D02*
X041396Y011352D01*
X041483Y011450D02*
X043633Y011450D01*
X043659Y011549D02*
X041581Y011549D01*
X041680Y011647D02*
X043700Y011647D01*
X043746Y011746D02*
X041778Y011746D01*
X041877Y011844D02*
X041972Y011844D01*
X042359Y011844D02*
X043845Y011844D01*
X043885Y011943D02*
X042597Y011943D01*
X042699Y012041D02*
X043782Y012041D01*
X043684Y012140D02*
X042798Y012140D01*
X042852Y012238D02*
X043630Y012238D01*
X043589Y012337D02*
X042893Y012337D01*
X042934Y012435D02*
X043548Y012435D01*
X043543Y012534D02*
X042938Y012534D01*
X042938Y012632D02*
X043543Y012632D01*
X043543Y012731D02*
X042938Y012731D01*
X042907Y012829D02*
X043575Y012829D01*
X043615Y012928D02*
X042866Y012928D01*
X042826Y013026D02*
X043656Y013026D01*
X043748Y013125D02*
X042734Y013125D01*
X042635Y013223D02*
X043846Y013223D01*
X044039Y013322D02*
X042443Y013322D01*
X041492Y010662D02*
X050066Y010662D01*
X050066Y010564D02*
X041478Y010564D01*
X041492Y010465D02*
X050066Y010465D01*
X050066Y010367D02*
X041492Y010367D01*
X041492Y010268D02*
X050066Y010268D01*
X050066Y010170D02*
X041492Y010170D01*
X041492Y010071D02*
X050066Y010071D01*
X050066Y009973D02*
X041483Y009973D01*
X041396Y009874D02*
X050066Y009874D01*
X050066Y009776D02*
X041396Y009776D01*
X041396Y009677D02*
X050066Y009677D01*
X050066Y009579D02*
X041396Y009579D01*
X041373Y009480D02*
X050066Y009480D01*
X050066Y009382D02*
X041314Y009382D01*
X041216Y009283D02*
X050066Y009283D01*
X050066Y009185D02*
X041117Y009185D01*
X041019Y009086D02*
X050066Y009086D01*
X050066Y008988D02*
X040920Y008988D01*
X040822Y008889D02*
X050066Y008889D01*
X050066Y008791D02*
X040681Y008791D01*
X043738Y005737D02*
X036644Y005737D01*
X036685Y005639D02*
X043697Y005639D01*
X043737Y005737D02*
X043633Y005486D01*
X043633Y005214D01*
X043737Y004963D01*
X043929Y004771D01*
X044007Y004739D01*
X043891Y004691D01*
X043695Y004495D01*
X043589Y004239D01*
X043589Y003961D01*
X043695Y003705D01*
X043891Y003509D01*
X044148Y003403D01*
X044425Y003403D01*
X044681Y003509D01*
X044877Y003705D01*
X044984Y003961D01*
X044984Y004239D01*
X044877Y004495D01*
X044681Y004691D01*
X044595Y004727D01*
X044703Y004771D01*
X044895Y004963D01*
X044998Y005214D01*
X044998Y005486D01*
X044895Y005737D01*
X044703Y005929D01*
X044452Y006032D01*
X044180Y006032D01*
X043929Y005929D01*
X043737Y005737D01*
X043836Y005836D02*
X036546Y005836D01*
X036439Y005934D02*
X043942Y005934D01*
X043656Y005540D02*
X036726Y005540D01*
X036748Y005442D02*
X043633Y005442D01*
X043633Y005343D02*
X036748Y005343D01*
X036748Y005245D02*
X043633Y005245D01*
X043662Y005146D02*
X036720Y005146D01*
X036679Y005048D02*
X043703Y005048D01*
X043752Y004949D02*
X036630Y004949D01*
X036532Y004851D02*
X043850Y004851D01*
X043976Y004752D02*
X037843Y004752D01*
X037734Y004797D02*
X037457Y004797D01*
X037201Y004691D01*
X037004Y004495D01*
X036898Y004239D01*
X036898Y003961D01*
X037004Y003705D01*
X037201Y003509D01*
X037457Y003403D01*
X037734Y003403D01*
X037990Y003509D01*
X038187Y003705D01*
X038293Y003961D01*
X038293Y004239D01*
X038187Y004495D01*
X037990Y004691D01*
X037734Y004797D01*
X038028Y004654D02*
X043854Y004654D01*
X043755Y004555D02*
X038126Y004555D01*
X038202Y004457D02*
X043679Y004457D01*
X043639Y004358D02*
X038243Y004358D01*
X038284Y004260D02*
X043598Y004260D01*
X043589Y004161D02*
X038293Y004161D01*
X038293Y004063D02*
X043589Y004063D01*
X043589Y003964D02*
X038293Y003964D01*
X038253Y003866D02*
X043629Y003866D01*
X043670Y003767D02*
X038212Y003767D01*
X038150Y003669D02*
X043732Y003669D01*
X043830Y003570D02*
X038051Y003570D01*
X037900Y003472D02*
X043982Y003472D01*
X044591Y003472D02*
X045541Y003472D01*
X045451Y003509D02*
X045707Y003403D01*
X045984Y003403D01*
X046240Y003509D01*
X046437Y003705D01*
X046543Y003961D01*
X046543Y004239D01*
X046437Y004495D01*
X046240Y004691D01*
X045984Y004797D01*
X045707Y004797D01*
X045451Y004691D01*
X045254Y004495D01*
X045148Y004239D01*
X045148Y003961D01*
X045254Y003705D01*
X045451Y003509D01*
X045389Y003570D02*
X044742Y003570D01*
X044841Y003669D02*
X045291Y003669D01*
X045229Y003767D02*
X044903Y003767D01*
X044944Y003866D02*
X045188Y003866D01*
X045148Y003964D02*
X044984Y003964D01*
X044984Y004063D02*
X045148Y004063D01*
X045148Y004161D02*
X044984Y004161D01*
X044975Y004260D02*
X045157Y004260D01*
X045198Y004358D02*
X044934Y004358D01*
X044893Y004457D02*
X045238Y004457D01*
X045314Y004555D02*
X044817Y004555D01*
X044719Y004654D02*
X045413Y004654D01*
X045598Y004752D02*
X044656Y004752D01*
X044782Y004851D02*
X050066Y004851D01*
X050066Y004949D02*
X044880Y004949D01*
X044929Y005048D02*
X050066Y005048D01*
X050066Y005146D02*
X044970Y005146D01*
X044998Y005245D02*
X050066Y005245D01*
X050066Y005343D02*
X044998Y005343D01*
X044998Y005442D02*
X050066Y005442D01*
X050066Y005540D02*
X044976Y005540D01*
X044935Y005639D02*
X050066Y005639D01*
X050066Y005737D02*
X044894Y005737D01*
X044796Y005836D02*
X050066Y005836D01*
X050066Y005934D02*
X044689Y005934D01*
X046093Y004752D02*
X050066Y004752D01*
X050066Y004654D02*
X046278Y004654D01*
X046376Y004555D02*
X050066Y004555D01*
X050066Y004457D02*
X046452Y004457D01*
X046493Y004358D02*
X050066Y004358D01*
X050066Y004260D02*
X046534Y004260D01*
X046543Y004161D02*
X050066Y004161D01*
X050066Y004063D02*
X046543Y004063D01*
X046543Y003964D02*
X050066Y003964D01*
X050066Y003866D02*
X046503Y003866D01*
X046462Y003767D02*
X050066Y003767D01*
X050066Y003669D02*
X046400Y003669D01*
X046301Y003570D02*
X050066Y003570D01*
X050066Y003472D02*
X046150Y003472D01*
X047816Y001797D02*
X022066Y001797D01*
X022066Y001699D02*
X047816Y001699D01*
X047816Y001600D02*
X022066Y001600D01*
X022066Y001501D02*
X047816Y001501D01*
X047816Y001403D02*
X022066Y001403D01*
X022066Y001304D02*
X047816Y001304D01*
X047816Y001206D02*
X022066Y001206D01*
X022066Y001107D02*
X047816Y001107D01*
X047816Y001009D02*
X022066Y001009D01*
X022066Y000910D02*
X047816Y000910D01*
X047816Y000812D02*
X022066Y000812D01*
X022066Y000713D02*
X047816Y000713D01*
X047816Y000615D02*
X022066Y000615D01*
X022316Y001350D02*
X021611Y001350D01*
X020336Y004555D02*
X028345Y004555D01*
X028252Y004654D02*
X020336Y004654D01*
X020336Y004752D02*
X028211Y004752D01*
X028201Y004851D02*
X020336Y004851D01*
X020336Y004949D02*
X028212Y004949D01*
X028253Y005048D02*
X020336Y005048D01*
X020336Y005146D02*
X028346Y005146D01*
X028361Y005540D02*
X020431Y005540D01*
X020431Y005639D02*
X028261Y005639D01*
X028218Y005737D02*
X020404Y005737D01*
X020347Y005836D02*
X028201Y005836D01*
X028206Y005934D02*
X020213Y005934D01*
X020395Y005442D02*
X033691Y005442D01*
X033736Y005540D02*
X032930Y005540D01*
X033071Y005639D02*
X033736Y005639D01*
X033736Y005737D02*
X033170Y005737D01*
X033268Y005836D02*
X033736Y005836D01*
X033736Y005934D02*
X033367Y005934D01*
X033465Y006033D02*
X033736Y006033D01*
X033736Y006131D02*
X033564Y006131D01*
X033623Y006230D02*
X033736Y006230D01*
X033736Y006328D02*
X033646Y006328D01*
X033646Y006427D02*
X033736Y006427D01*
X033736Y006525D02*
X033646Y006525D01*
X033646Y006624D02*
X033736Y006624D01*
X033736Y006722D02*
X033646Y006722D01*
X033646Y006821D02*
X033736Y006821D01*
X033736Y006919D02*
X033646Y006919D01*
X033646Y007018D02*
X033736Y007018D01*
X033736Y007116D02*
X033646Y007116D01*
X033646Y007215D02*
X033736Y007215D01*
X033736Y007313D02*
X033646Y007313D01*
X033646Y007412D02*
X033736Y007412D01*
X033736Y007510D02*
X033646Y007510D01*
X033646Y007609D02*
X033736Y007609D01*
X033736Y007707D02*
X033646Y007707D01*
X033646Y007806D02*
X033736Y007806D01*
X033736Y007904D02*
X033646Y007904D01*
X033646Y008003D02*
X033736Y008003D01*
X033736Y008101D02*
X033646Y008101D01*
X033646Y008200D02*
X033736Y008200D01*
X033736Y008298D02*
X033646Y008298D01*
X033646Y008397D02*
X033736Y008397D01*
X033736Y008495D02*
X033646Y008495D01*
X033646Y008594D02*
X033736Y008594D01*
X033747Y008692D02*
X033646Y008692D01*
X033646Y008791D02*
X033790Y008791D01*
X033888Y008889D02*
X033646Y008889D01*
X033646Y008988D02*
X033987Y008988D01*
X034085Y009086D02*
X033646Y009086D01*
X032986Y009086D02*
X023575Y009086D01*
X023648Y009185D02*
X032986Y009185D01*
X032986Y009283D02*
X023686Y009283D01*
X023686Y009382D02*
X032986Y009382D01*
X032986Y009480D02*
X023663Y009480D01*
X023611Y009579D02*
X032986Y009579D01*
X032986Y009677D02*
X023493Y009677D01*
X023408Y008988D02*
X032986Y008988D01*
X032986Y008889D02*
X017300Y008889D01*
X017388Y008791D02*
X032986Y008791D01*
X032986Y008692D02*
X017428Y008692D01*
X017436Y008594D02*
X032986Y008594D01*
X032986Y008495D02*
X017423Y008495D01*
X017382Y008397D02*
X032986Y008397D01*
X032986Y008298D02*
X017287Y008298D01*
X015460Y008200D02*
X032986Y008200D01*
X032986Y008101D02*
X010066Y008101D01*
X010066Y008003D02*
X032986Y008003D01*
X032986Y007904D02*
X010066Y007904D01*
X010066Y007806D02*
X032986Y007806D01*
X032986Y007707D02*
X010066Y007707D01*
X010066Y007609D02*
X032986Y007609D01*
X032986Y007510D02*
X010066Y007510D01*
X010066Y007412D02*
X032986Y007412D01*
X032986Y007313D02*
X010066Y007313D01*
X010066Y007215D02*
X032986Y007215D01*
X032986Y007116D02*
X010066Y007116D01*
X010066Y007018D02*
X032986Y007018D01*
X032986Y006919D02*
X010066Y006919D01*
X010066Y006821D02*
X032986Y006821D01*
X032986Y006722D02*
X010066Y006722D01*
X010066Y006624D02*
X032986Y006624D01*
X032986Y006525D02*
X010066Y006525D01*
X010066Y006427D02*
X032926Y006427D01*
X032827Y006328D02*
X010066Y006328D01*
X010066Y006230D02*
X032729Y006230D01*
X033592Y005343D02*
X020336Y005343D01*
X020336Y005245D02*
X033494Y005245D01*
X036406Y004752D02*
X037348Y004752D01*
X037163Y004654D02*
X036469Y004654D01*
X036567Y004555D02*
X037064Y004555D01*
X036988Y004457D02*
X036643Y004457D01*
X036684Y004358D02*
X036948Y004358D01*
X036907Y004260D02*
X036725Y004260D01*
X036734Y004161D02*
X036898Y004161D01*
X036898Y004063D02*
X036734Y004063D01*
X036734Y003964D02*
X036898Y003964D01*
X036938Y003866D02*
X036694Y003866D01*
X036653Y003767D02*
X036979Y003767D01*
X037041Y003669D02*
X036591Y003669D01*
X036492Y003570D02*
X037139Y003570D01*
X037291Y003472D02*
X036341Y003472D01*
X032986Y009776D02*
X015576Y009776D01*
X015606Y009874D02*
X032986Y009874D01*
X032898Y009973D02*
X015658Y009973D01*
X015681Y010071D02*
X019829Y010071D01*
X019859Y010041D02*
X019993Y009985D01*
X020139Y009985D01*
X020273Y010041D01*
X020375Y010143D01*
X020431Y010277D01*
X020431Y010423D01*
X020375Y010557D01*
X020326Y010606D01*
X020326Y019242D01*
X020674Y019590D01*
X023810Y019590D01*
X023859Y019541D01*
X023993Y019485D01*
X024139Y019485D01*
X024273Y019541D01*
X024375Y019643D01*
X024431Y019777D01*
X024431Y019923D01*
X024375Y020057D01*
X024273Y020159D01*
X024139Y020215D01*
X023993Y020215D01*
X023859Y020159D01*
X023810Y020110D01*
X020514Y020110D01*
X020419Y020070D01*
X019846Y019497D01*
X019806Y019402D01*
X019806Y010606D01*
X019757Y010557D01*
X019701Y010423D01*
X019701Y010277D01*
X019757Y010143D01*
X019859Y010041D01*
X019746Y010170D02*
X015681Y010170D01*
X015641Y010268D02*
X019705Y010268D01*
X019701Y010367D02*
X015566Y010367D01*
X015316Y010100D02*
X015316Y009350D01*
X015056Y009776D02*
X013914Y009776D01*
X013815Y009874D02*
X015026Y009874D01*
X014974Y009973D02*
X013717Y009973D01*
X013618Y010071D02*
X014951Y010071D01*
X014951Y010170D02*
X013520Y010170D01*
X013421Y010268D02*
X014990Y010268D01*
X015066Y010367D02*
X013323Y010367D01*
X013224Y010465D02*
X019719Y010465D01*
X019763Y010564D02*
X013126Y010564D01*
X013027Y010662D02*
X019806Y010662D01*
X019806Y010761D02*
X012929Y010761D01*
X012830Y010859D02*
X019806Y010859D01*
X019806Y010958D02*
X012732Y010958D01*
X012633Y011056D02*
X018094Y011056D01*
X018109Y011041D02*
X018243Y010985D01*
X018389Y010985D01*
X018523Y011041D01*
X018625Y011143D01*
X018681Y011277D01*
X018681Y011423D01*
X018625Y011557D01*
X018576Y011606D01*
X018576Y015492D01*
X018819Y015735D01*
X018889Y015735D01*
X019023Y015791D01*
X019125Y015893D01*
X019181Y016027D01*
X019181Y016173D01*
X019125Y016307D01*
X019023Y016409D01*
X018889Y016465D01*
X018743Y016465D01*
X018609Y016409D01*
X018507Y016307D01*
X018451Y016173D01*
X018451Y016103D01*
X018169Y015820D01*
X018096Y015747D01*
X018056Y015652D01*
X018056Y011606D01*
X018007Y011557D01*
X017951Y011423D01*
X017951Y011277D01*
X018007Y011143D01*
X018109Y011041D01*
X018002Y011155D02*
X012535Y011155D01*
X012436Y011253D02*
X017961Y011253D01*
X017951Y011352D02*
X012338Y011352D01*
X012239Y011450D02*
X017962Y011450D01*
X018003Y011549D02*
X012141Y011549D01*
X012042Y011647D02*
X018056Y011647D01*
X018056Y011746D02*
X011944Y011746D01*
X011835Y011844D02*
X018056Y011844D01*
X018056Y011943D02*
X009591Y011943D01*
X009591Y012041D02*
X018056Y012041D01*
X018056Y012140D02*
X009591Y012140D01*
X009591Y012238D02*
X018056Y012238D01*
X018056Y012337D02*
X009591Y012337D01*
X009534Y012435D02*
X018056Y012435D01*
X018056Y012534D02*
X005066Y012534D01*
X005066Y012632D02*
X018056Y012632D01*
X018056Y012731D02*
X005066Y012731D01*
X005066Y012829D02*
X018056Y012829D01*
X018056Y012928D02*
X005066Y012928D01*
X005066Y013026D02*
X018056Y013026D01*
X018056Y013125D02*
X005066Y013125D01*
X012066Y013125D01*
X012066Y013100D02*
X005066Y013100D01*
X005066Y018850D01*
X004066Y018850D01*
X004066Y022466D01*
X006547Y022466D01*
X006547Y023550D01*
X006647Y023550D01*
X006647Y022466D01*
X009176Y022466D01*
X009214Y022476D01*
X009249Y022496D01*
X009277Y022524D01*
X009296Y022558D01*
X009306Y022596D01*
X009306Y023550D01*
X006647Y023550D01*
X006647Y023650D01*
X009306Y023650D01*
X009306Y024600D01*
X013388Y024600D01*
X013388Y023650D01*
X014566Y023650D01*
X014566Y023550D01*
X013388Y023550D01*
X013388Y022596D01*
X013399Y022558D01*
X013418Y022524D01*
X013446Y022496D01*
X013480Y022476D01*
X013519Y022466D01*
X014566Y022466D01*
X014566Y019600D01*
X012066Y019600D01*
X012066Y013100D01*
X012066Y013223D02*
X005066Y013223D01*
X018056Y013223D01*
X018056Y013322D02*
X005066Y013322D01*
X012066Y013322D01*
X012066Y013420D02*
X005066Y013420D01*
X005066Y013519D02*
X012066Y013519D01*
X012066Y013617D02*
X005066Y013617D01*
X005066Y013716D02*
X012066Y013716D01*
X012066Y013814D02*
X005066Y013814D01*
X005066Y013913D02*
X012066Y013913D01*
X012066Y014011D02*
X005066Y014011D01*
X005066Y014110D02*
X012066Y014110D01*
X012066Y014208D02*
X005066Y014208D01*
X005066Y014307D02*
X012066Y014307D01*
X012066Y014405D02*
X005066Y014405D01*
X005066Y014504D02*
X012066Y014504D01*
X012066Y014602D02*
X005066Y014602D01*
X005066Y014701D02*
X012066Y014701D01*
X012066Y014799D02*
X005066Y014799D01*
X005066Y014898D02*
X012066Y014898D01*
X012066Y014996D02*
X005066Y014996D01*
X005066Y015095D02*
X012066Y015095D01*
X012066Y015193D02*
X005066Y015193D01*
X005066Y015292D02*
X012066Y015292D01*
X012066Y015390D02*
X005066Y015390D01*
X005066Y015489D02*
X012066Y015489D01*
X012066Y015587D02*
X005066Y015587D01*
X005066Y015686D02*
X012066Y015686D01*
X012066Y015784D02*
X005066Y015784D01*
X005066Y015883D02*
X012066Y015883D01*
X012066Y015981D02*
X005066Y015981D01*
X005066Y016080D02*
X012066Y016080D01*
X012066Y016178D02*
X005066Y016178D01*
X005066Y016277D02*
X012066Y016277D01*
X012066Y016375D02*
X005066Y016375D01*
X005066Y016474D02*
X012066Y016474D01*
X012066Y016572D02*
X005066Y016572D01*
X005066Y016671D02*
X012066Y016671D01*
X012066Y016769D02*
X005066Y016769D01*
X005066Y016868D02*
X012066Y016868D01*
X012066Y016966D02*
X005066Y016966D01*
X005066Y017065D02*
X012066Y017065D01*
X012066Y017163D02*
X005066Y017163D01*
X005066Y017262D02*
X012066Y017262D01*
X012066Y017360D02*
X005066Y017360D01*
X005066Y017459D02*
X012066Y017459D01*
X012066Y017557D02*
X005066Y017557D01*
X005066Y017656D02*
X012066Y017656D01*
X012066Y017754D02*
X005066Y017754D01*
X005066Y017853D02*
X012066Y017853D01*
X012066Y017951D02*
X005066Y017951D01*
X005066Y018050D02*
X012066Y018050D01*
X012066Y018148D02*
X005066Y018148D01*
X005066Y018247D02*
X012066Y018247D01*
X012066Y018345D02*
X005066Y018345D01*
X005066Y018444D02*
X012066Y018444D01*
X012066Y018542D02*
X005066Y018542D01*
X005066Y018641D02*
X012066Y018641D01*
X012066Y018739D02*
X005066Y018739D01*
X005066Y018838D02*
X012066Y018838D01*
X012066Y018936D02*
X004066Y018936D01*
X004066Y019035D02*
X012066Y019035D01*
X012066Y019133D02*
X004066Y019133D01*
X004066Y019232D02*
X012066Y019232D01*
X012066Y019330D02*
X004066Y019330D01*
X004066Y019429D02*
X012066Y019429D01*
X012066Y019527D02*
X004066Y019527D01*
X004066Y019626D02*
X014566Y019626D01*
X019974Y019626D01*
X020072Y019724D02*
X014566Y019724D01*
X014145Y019724D01*
X014136Y019708D02*
X014156Y019742D01*
X014166Y019780D01*
X014166Y020000D01*
X013416Y020000D01*
X013416Y020100D01*
X014166Y020100D01*
X014166Y020320D01*
X014156Y020358D01*
X014136Y020392D01*
X014108Y020420D01*
X014074Y020440D01*
X014036Y020450D01*
X013416Y020450D01*
X013416Y020100D01*
X013316Y020100D01*
X013316Y020450D01*
X012696Y020450D01*
X012658Y020440D01*
X012624Y020420D01*
X012596Y020392D01*
X012576Y020358D01*
X012566Y020320D01*
X012566Y020100D01*
X013316Y020100D01*
X013316Y020000D01*
X013416Y020000D01*
X013416Y019650D01*
X014036Y019650D01*
X014074Y019660D01*
X014108Y019680D01*
X014136Y019708D01*
X014166Y019823D02*
X014566Y019823D01*
X020171Y019823D01*
X020269Y019921D02*
X014566Y019921D01*
X014166Y019921D01*
X014166Y020118D02*
X014566Y020118D01*
X023818Y020118D01*
X024066Y019850D02*
X020566Y019850D01*
X020066Y019350D01*
X020066Y010350D01*
X020431Y010367D02*
X032889Y010367D01*
X032889Y010465D02*
X020413Y010465D01*
X020369Y010564D02*
X032904Y010564D01*
X032889Y010662D02*
X020326Y010662D01*
X020326Y010761D02*
X032889Y010761D01*
X032889Y010859D02*
X020326Y010859D01*
X020326Y010958D02*
X032889Y010958D01*
X032889Y011056D02*
X020326Y011056D01*
X020326Y011155D02*
X032889Y011155D01*
X032924Y011253D02*
X020326Y011253D01*
X019806Y011253D02*
X018671Y011253D01*
X018681Y011352D02*
X019806Y011352D01*
X019806Y011450D02*
X018670Y011450D01*
X018629Y011549D02*
X019806Y011549D01*
X019806Y011647D02*
X018576Y011647D01*
X018576Y011746D02*
X019806Y011746D01*
X019806Y011844D02*
X018576Y011844D01*
X018576Y011943D02*
X019806Y011943D01*
X019806Y012041D02*
X018576Y012041D01*
X018576Y012140D02*
X019806Y012140D01*
X019806Y012238D02*
X018576Y012238D01*
X018576Y012337D02*
X019806Y012337D01*
X019806Y012435D02*
X018576Y012435D01*
X018576Y012534D02*
X019806Y012534D01*
X019806Y012632D02*
X018576Y012632D01*
X018576Y012731D02*
X019806Y012731D01*
X019806Y012829D02*
X018576Y012829D01*
X018576Y012928D02*
X019806Y012928D01*
X019806Y013026D02*
X018576Y013026D01*
X018576Y013125D02*
X019806Y013125D01*
X019806Y013223D02*
X018576Y013223D01*
X018576Y013322D02*
X019806Y013322D01*
X019806Y013420D02*
X018576Y013420D01*
X018576Y013519D02*
X019806Y013519D01*
X019806Y013617D02*
X018576Y013617D01*
X018576Y013716D02*
X019806Y013716D01*
X019806Y013814D02*
X018576Y013814D01*
X018576Y013913D02*
X019806Y013913D01*
X019806Y014011D02*
X018576Y014011D01*
X018576Y014110D02*
X019806Y014110D01*
X019806Y014208D02*
X018576Y014208D01*
X018576Y014307D02*
X019806Y014307D01*
X019806Y014405D02*
X018576Y014405D01*
X018576Y014504D02*
X019806Y014504D01*
X019806Y014602D02*
X018576Y014602D01*
X018576Y014701D02*
X019806Y014701D01*
X019806Y014799D02*
X018576Y014799D01*
X018576Y014898D02*
X019806Y014898D01*
X019806Y014996D02*
X018576Y014996D01*
X018576Y015095D02*
X019806Y015095D01*
X019806Y015193D02*
X018576Y015193D01*
X018576Y015292D02*
X019806Y015292D01*
X019806Y015390D02*
X018576Y015390D01*
X018576Y015489D02*
X019806Y015489D01*
X019806Y015587D02*
X018671Y015587D01*
X018769Y015686D02*
X019806Y015686D01*
X019806Y015784D02*
X019007Y015784D01*
X019115Y015883D02*
X019806Y015883D01*
X019806Y015981D02*
X019162Y015981D01*
X019181Y016080D02*
X019806Y016080D01*
X019806Y016178D02*
X019179Y016178D01*
X019138Y016277D02*
X019806Y016277D01*
X019806Y016375D02*
X019057Y016375D01*
X018816Y016100D02*
X018316Y015600D01*
X018316Y011350D01*
X018538Y011056D02*
X019806Y011056D01*
X019806Y011155D02*
X018630Y011155D01*
X020303Y010071D02*
X032889Y010071D01*
X032889Y010170D02*
X020386Y010170D01*
X020427Y010268D02*
X032889Y010268D01*
X028331Y006131D02*
X010066Y006131D01*
X010066Y006033D02*
X028246Y006033D01*
X020326Y013519D02*
X050066Y013519D01*
X050066Y013617D02*
X020326Y013617D01*
X020326Y013716D02*
X050066Y013716D01*
X050066Y013814D02*
X020326Y013814D01*
X020326Y013913D02*
X050066Y013913D01*
X050066Y014011D02*
X020326Y014011D01*
X020326Y014110D02*
X050066Y014110D01*
X050066Y014208D02*
X020326Y014208D01*
X020326Y014307D02*
X050066Y014307D01*
X050066Y014405D02*
X020326Y014405D01*
X020326Y014504D02*
X050066Y014504D01*
X050066Y014602D02*
X020326Y014602D01*
X020326Y014701D02*
X050066Y014701D01*
X050066Y014799D02*
X020326Y014799D01*
X020326Y014898D02*
X050066Y014898D01*
X050066Y014996D02*
X020326Y014996D01*
X020326Y015095D02*
X050066Y015095D01*
X050066Y015193D02*
X020326Y015193D01*
X020326Y015292D02*
X050066Y015292D01*
X050066Y015390D02*
X020326Y015390D01*
X020326Y015489D02*
X050066Y015489D01*
X050066Y015587D02*
X020326Y015587D01*
X020326Y015686D02*
X050066Y015686D01*
X050066Y015784D02*
X020326Y015784D01*
X020326Y015883D02*
X050066Y015883D01*
X050066Y015981D02*
X020326Y015981D01*
X020326Y016080D02*
X050066Y016080D01*
X050066Y016178D02*
X020326Y016178D01*
X020326Y016277D02*
X050066Y016277D01*
X050066Y016375D02*
X020326Y016375D01*
X020326Y016474D02*
X050066Y016474D01*
X050066Y016572D02*
X020326Y016572D01*
X020326Y016671D02*
X050066Y016671D01*
X050066Y016769D02*
X020326Y016769D01*
X020326Y016868D02*
X050066Y016868D01*
X050066Y016966D02*
X020326Y016966D01*
X020326Y017065D02*
X050066Y017065D01*
X050066Y017163D02*
X020326Y017163D01*
X020326Y017262D02*
X050066Y017262D01*
X050066Y017360D02*
X020326Y017360D01*
X020326Y017459D02*
X050066Y017459D01*
X050066Y017557D02*
X020326Y017557D01*
X020326Y017656D02*
X050066Y017656D01*
X050066Y017754D02*
X020326Y017754D01*
X020326Y017853D02*
X050066Y017853D01*
X050066Y017951D02*
X020326Y017951D01*
X020326Y018050D02*
X050066Y018050D01*
X050066Y018148D02*
X020326Y018148D01*
X020326Y018247D02*
X050066Y018247D01*
X050066Y018345D02*
X020326Y018345D01*
X020326Y018444D02*
X050066Y018444D01*
X050066Y018542D02*
X020326Y018542D01*
X020326Y018641D02*
X050066Y018641D01*
X050066Y018739D02*
X020326Y018739D01*
X020326Y018838D02*
X050066Y018838D01*
X050066Y018936D02*
X020326Y018936D01*
X020326Y019035D02*
X050066Y019035D01*
X050066Y019133D02*
X020326Y019133D01*
X020326Y019232D02*
X050066Y019232D01*
X050066Y019330D02*
X020414Y019330D01*
X020512Y019429D02*
X050066Y019429D01*
X050066Y019527D02*
X024240Y019527D01*
X024358Y019626D02*
X050066Y019626D01*
X050066Y019724D02*
X024409Y019724D01*
X024431Y019823D02*
X050066Y019823D01*
X050066Y019921D02*
X024431Y019921D01*
X024391Y020020D02*
X050066Y020020D01*
X050066Y020118D02*
X024314Y020118D01*
X023892Y019527D02*
X020611Y019527D01*
X020368Y020020D02*
X014566Y020020D01*
X013416Y020020D01*
X013416Y020118D02*
X013316Y020118D01*
X013316Y020020D02*
X004066Y020020D01*
X004066Y020118D02*
X012566Y020118D01*
X012566Y020217D02*
X004066Y020217D01*
X004066Y020315D02*
X012566Y020315D01*
X012617Y020414D02*
X004066Y020414D01*
X004066Y020512D02*
X014566Y020512D01*
X050066Y020512D01*
X050066Y020414D02*
X014566Y020414D01*
X014115Y020414D01*
X014166Y020315D02*
X014566Y020315D01*
X050066Y020315D01*
X050066Y020217D02*
X014566Y020217D01*
X014166Y020217D01*
X014566Y020611D02*
X004066Y020611D01*
X004066Y020709D02*
X014566Y020709D01*
X014566Y020808D02*
X004066Y020808D01*
X004066Y020906D02*
X014566Y020906D01*
X014566Y021005D02*
X004066Y021005D01*
X004066Y021103D02*
X014566Y021103D01*
X014566Y021202D02*
X004066Y021202D01*
X004066Y021300D02*
X014566Y021300D01*
X014566Y021399D02*
X004066Y021399D01*
X004066Y021497D02*
X014566Y021497D01*
X014566Y021596D02*
X004066Y021596D01*
X004066Y021694D02*
X014566Y021694D01*
X014566Y021793D02*
X004066Y021793D01*
X004066Y021891D02*
X014566Y021891D01*
X014566Y021990D02*
X004066Y021990D01*
X004066Y022088D02*
X014566Y022088D01*
X014566Y022187D02*
X004066Y022187D01*
X004066Y022285D02*
X014566Y022285D01*
X014566Y022384D02*
X004066Y022384D01*
X004316Y021300D02*
X035448Y021300D01*
X035522Y021226D02*
X035252Y021496D01*
X035106Y021849D01*
X035106Y022231D01*
X035252Y022584D01*
X035522Y022854D01*
X035875Y023000D01*
X036257Y023000D01*
X036610Y022854D01*
X036880Y022584D01*
X037026Y022231D01*
X037026Y021849D01*
X036880Y021496D01*
X036610Y021226D01*
X036257Y021080D01*
X035875Y021080D01*
X035522Y021226D01*
X035582Y021202D02*
X004316Y021202D01*
X004316Y021103D02*
X035819Y021103D01*
X036313Y021103D02*
X044069Y021103D01*
X044125Y021080D02*
X043772Y021226D01*
X043502Y021496D01*
X043356Y021849D01*
X043356Y022231D01*
X043502Y022584D01*
X043772Y022854D01*
X044125Y023000D01*
X044507Y023000D01*
X044860Y022854D01*
X045130Y022584D01*
X045276Y022231D01*
X045276Y021849D01*
X045130Y021496D01*
X044860Y021226D01*
X044507Y021080D01*
X044125Y021080D01*
X043832Y021202D02*
X036550Y021202D01*
X036684Y021300D02*
X043698Y021300D01*
X043600Y021399D02*
X036782Y021399D01*
X036880Y021497D02*
X043502Y021497D01*
X043461Y021596D02*
X036921Y021596D01*
X036962Y021694D02*
X043420Y021694D01*
X043379Y021793D02*
X037003Y021793D01*
X037026Y021891D02*
X043356Y021891D01*
X043356Y021990D02*
X037026Y021990D01*
X037026Y022088D02*
X043356Y022088D01*
X043356Y022187D02*
X037026Y022187D01*
X037004Y022285D02*
X043378Y022285D01*
X043419Y022384D02*
X036963Y022384D01*
X036922Y022482D02*
X043460Y022482D01*
X043501Y022581D02*
X036881Y022581D01*
X036785Y022679D02*
X043597Y022679D01*
X043696Y022778D02*
X036686Y022778D01*
X036556Y022876D02*
X043826Y022876D01*
X044064Y022975D02*
X036318Y022975D01*
X035814Y022975D02*
X001066Y022975D01*
X001066Y023073D02*
X050066Y023073D01*
X050066Y022975D02*
X044568Y022975D01*
X044806Y022876D02*
X050066Y022876D01*
X050066Y022778D02*
X044936Y022778D01*
X045035Y022679D02*
X050066Y022679D01*
X050066Y022581D02*
X045131Y022581D01*
X045172Y022482D02*
X050066Y022482D01*
X050066Y022384D02*
X045213Y022384D01*
X045254Y022285D02*
X050066Y022285D01*
X050066Y022187D02*
X045276Y022187D01*
X045276Y022088D02*
X050066Y022088D01*
X050066Y021990D02*
X045276Y021990D01*
X045276Y021891D02*
X050066Y021891D01*
X050066Y021793D02*
X045253Y021793D01*
X045212Y021694D02*
X050066Y021694D01*
X050066Y021596D02*
X045171Y021596D01*
X045130Y021497D02*
X050066Y021497D01*
X050066Y021399D02*
X045032Y021399D01*
X044934Y021300D02*
X050066Y021300D01*
X050066Y021202D02*
X044800Y021202D01*
X044563Y021103D02*
X050066Y021103D01*
X050066Y021005D02*
X004316Y021005D01*
X004316Y020906D02*
X050066Y020906D01*
X050066Y020808D02*
X004316Y020808D01*
X004316Y020709D02*
X050066Y020709D01*
X050066Y020611D02*
X004316Y020611D01*
X004066Y019921D02*
X012566Y019921D01*
X012566Y020000D02*
X012566Y019780D01*
X012576Y019742D01*
X012596Y019708D01*
X012624Y019680D01*
X012658Y019660D01*
X012696Y019650D01*
X013316Y019650D01*
X013316Y020000D01*
X012566Y020000D01*
X012566Y019823D02*
X004066Y019823D01*
X004066Y019724D02*
X012587Y019724D01*
X013316Y019724D02*
X013416Y019724D01*
X013416Y019823D02*
X013316Y019823D01*
X013316Y019921D02*
X013416Y019921D01*
X013416Y020217D02*
X013316Y020217D01*
X013316Y020315D02*
X013416Y020315D01*
X013416Y020414D02*
X013316Y020414D01*
X014566Y019527D02*
X019875Y019527D01*
X019817Y019429D02*
X014566Y019429D01*
X014566Y019330D02*
X019806Y019330D01*
X019806Y019232D02*
X014566Y019232D01*
X014566Y019133D02*
X019806Y019133D01*
X019806Y019035D02*
X014566Y019035D01*
X014566Y018936D02*
X019806Y018936D01*
X019806Y018838D02*
X014566Y018838D01*
X014566Y018739D02*
X019806Y018739D01*
X019806Y018641D02*
X014566Y018641D01*
X015066Y018100D02*
X012566Y018100D01*
X012566Y013850D01*
X014066Y013850D01*
X014066Y017100D01*
X015066Y017100D01*
X015066Y018100D01*
X015066Y018050D02*
X012566Y018050D01*
X012566Y017951D02*
X015066Y017951D01*
X015066Y017853D02*
X012566Y017853D01*
X012566Y017754D02*
X015066Y017754D01*
X015066Y017656D02*
X012566Y017656D01*
X012566Y017557D02*
X015066Y017557D01*
X015066Y017459D02*
X012566Y017459D01*
X012566Y017360D02*
X015066Y017360D01*
X015066Y017262D02*
X012566Y017262D01*
X012566Y017163D02*
X015066Y017163D01*
X015566Y017163D02*
X019806Y017163D01*
X019806Y017065D02*
X015566Y017065D01*
X015566Y016966D02*
X019806Y016966D01*
X019806Y016868D02*
X015566Y016868D01*
X015566Y016769D02*
X019806Y016769D01*
X019806Y016671D02*
X015566Y016671D01*
X015566Y017262D02*
X019806Y017262D01*
X019806Y017360D02*
X015566Y017360D01*
X015566Y017459D02*
X019806Y017459D01*
X019806Y017557D02*
X015566Y017557D01*
X015566Y017656D02*
X019806Y017656D01*
X019806Y017754D02*
X015566Y017754D01*
X015566Y017853D02*
X019806Y017853D01*
X019806Y017951D02*
X015566Y017951D01*
X015566Y018050D02*
X019806Y018050D01*
X019806Y018148D02*
X015566Y018148D01*
X015566Y018247D02*
X019806Y018247D01*
X019806Y018345D02*
X015566Y018345D01*
X015566Y018444D02*
X019806Y018444D01*
X019806Y018542D02*
X015566Y018542D01*
X014066Y017065D02*
X012566Y017065D01*
X012566Y016966D02*
X014066Y016966D01*
X014066Y016868D02*
X012566Y016868D01*
X012566Y016769D02*
X014066Y016769D01*
X014066Y016671D02*
X012566Y016671D01*
X012566Y016572D02*
X014066Y016572D01*
X014066Y016474D02*
X012566Y016474D01*
X012566Y016375D02*
X014066Y016375D01*
X014066Y016277D02*
X012566Y016277D01*
X012566Y016178D02*
X014066Y016178D01*
X014066Y016080D02*
X012566Y016080D01*
X012566Y015981D02*
X014066Y015981D01*
X014066Y015883D02*
X012566Y015883D01*
X012566Y015784D02*
X014066Y015784D01*
X014066Y015686D02*
X012566Y015686D01*
X012566Y015587D02*
X014066Y015587D01*
X014066Y015489D02*
X012566Y015489D01*
X012566Y015390D02*
X014066Y015390D01*
X014066Y015292D02*
X012566Y015292D01*
X012566Y015193D02*
X014066Y015193D01*
X014066Y015095D02*
X012566Y015095D01*
X012566Y014996D02*
X014066Y014996D01*
X014066Y014898D02*
X012566Y014898D01*
X012566Y014799D02*
X014066Y014799D01*
X014066Y014701D02*
X012566Y014701D01*
X012566Y014602D02*
X014066Y014602D01*
X014066Y014504D02*
X012566Y014504D01*
X012566Y014405D02*
X014066Y014405D01*
X014066Y014307D02*
X012566Y014307D01*
X012566Y014208D02*
X014066Y014208D01*
X014066Y014110D02*
X012566Y014110D01*
X012566Y014011D02*
X014066Y014011D01*
X014066Y013913D02*
X012566Y013913D01*
X014566Y013913D02*
X018056Y013913D01*
X018056Y014011D02*
X014566Y014011D01*
X014566Y014110D02*
X018056Y014110D01*
X018056Y014208D02*
X014566Y014208D01*
X014566Y014307D02*
X018056Y014307D01*
X018056Y014405D02*
X014566Y014405D01*
X014566Y014504D02*
X018056Y014504D01*
X018056Y014602D02*
X014566Y014602D01*
X014566Y014701D02*
X018056Y014701D01*
X018056Y014799D02*
X014566Y014799D01*
X014566Y014898D02*
X018056Y014898D01*
X018056Y014996D02*
X014566Y014996D01*
X014566Y015095D02*
X018056Y015095D01*
X018056Y015193D02*
X014566Y015193D01*
X014566Y015292D02*
X018056Y015292D01*
X018056Y015390D02*
X014566Y015390D01*
X014566Y015489D02*
X018056Y015489D01*
X018056Y015587D02*
X014566Y015587D01*
X014566Y015686D02*
X018070Y015686D01*
X018132Y015784D02*
X014566Y015784D01*
X014566Y015883D02*
X018231Y015883D01*
X018329Y015981D02*
X014566Y015981D01*
X014566Y016080D02*
X018428Y016080D01*
X018453Y016178D02*
X014566Y016178D01*
X014566Y016277D02*
X018494Y016277D01*
X018575Y016375D02*
X014566Y016375D01*
X014566Y016474D02*
X019806Y016474D01*
X019806Y016572D02*
X014566Y016572D01*
X014566Y013814D02*
X018056Y013814D01*
X018056Y013716D02*
X014566Y013716D01*
X014566Y013617D02*
X018056Y013617D01*
X018056Y013519D02*
X014566Y013519D01*
X014566Y013420D02*
X018056Y013420D01*
X013360Y009283D02*
X003616Y009283D01*
X003616Y009185D02*
X013458Y009185D01*
X013557Y009086D02*
X010066Y009086D01*
X010066Y008988D02*
X013724Y008988D01*
X014074Y008889D02*
X010066Y008889D01*
X010066Y008791D02*
X014074Y008791D01*
X014074Y008692D02*
X010066Y008692D01*
X010066Y008594D02*
X014074Y008594D01*
X014074Y008495D02*
X010066Y008495D01*
X010066Y008397D02*
X014074Y008397D01*
X014074Y008298D02*
X010066Y008298D01*
X010066Y008200D02*
X014171Y008200D01*
X014791Y008200D02*
X014841Y008200D01*
X013261Y009382D02*
X003616Y009382D01*
X003616Y009480D02*
X013163Y009480D01*
X013064Y009579D02*
X005561Y009579D01*
X005639Y009677D02*
X012966Y009677D01*
X012867Y009776D02*
X005680Y009776D01*
X005681Y009874D02*
X012769Y009874D01*
X012670Y009973D02*
X005660Y009973D01*
X005611Y010071D02*
X012572Y010071D01*
X012473Y010170D02*
X005586Y010170D01*
X005586Y010268D02*
X012375Y010268D01*
X012276Y010367D02*
X005599Y010367D01*
X005655Y010465D02*
X012178Y010465D01*
X012079Y010564D02*
X009486Y010564D01*
X009584Y010662D02*
X011981Y010662D01*
X011882Y010761D02*
X009591Y010761D01*
X009591Y010859D02*
X011784Y010859D01*
X011685Y010958D02*
X009591Y010958D01*
X009591Y011056D02*
X011587Y011056D01*
X010316Y009086D02*
X009432Y009086D01*
X009439Y009084D02*
X009401Y009094D01*
X009116Y009094D01*
X009116Y008227D01*
X009016Y008227D01*
X009016Y009094D01*
X008731Y009094D01*
X008693Y009084D01*
X008659Y009065D01*
X008631Y009037D01*
X008611Y009002D01*
X008601Y008964D01*
X008601Y008227D01*
X009016Y008227D01*
X009016Y008127D01*
X008601Y008127D01*
X008601Y007389D01*
X008611Y007351D01*
X008631Y007317D01*
X008659Y007289D01*
X008693Y007269D01*
X008731Y007259D01*
X009016Y007259D01*
X009016Y008127D01*
X009116Y008127D01*
X009116Y008227D01*
X009531Y008227D01*
X009531Y008964D01*
X009521Y009002D01*
X009501Y009037D01*
X009473Y009065D01*
X009439Y009084D01*
X009525Y008988D02*
X010316Y008988D01*
X010316Y008889D02*
X009531Y008889D01*
X009531Y008791D02*
X010316Y008791D01*
X010316Y008692D02*
X009531Y008692D01*
X009531Y008594D02*
X010316Y008594D01*
X010316Y008495D02*
X009531Y008495D01*
X009531Y008397D02*
X010316Y008397D01*
X010316Y008298D02*
X009531Y008298D01*
X009531Y008127D02*
X009116Y008127D01*
X009116Y007259D01*
X009401Y007259D01*
X009439Y007269D01*
X009473Y007289D01*
X009501Y007317D01*
X009521Y007351D01*
X009531Y007389D01*
X009531Y008127D01*
X009531Y008101D02*
X010316Y008101D01*
X010316Y008003D02*
X009531Y008003D01*
X009531Y007904D02*
X010316Y007904D01*
X010316Y007806D02*
X009531Y007806D01*
X009531Y007707D02*
X010316Y007707D01*
X010316Y007609D02*
X009531Y007609D01*
X009531Y007510D02*
X010316Y007510D01*
X010316Y007412D02*
X009531Y007412D01*
X009497Y007313D02*
X010316Y007313D01*
X010316Y007215D02*
X006816Y007215D01*
X006816Y007313D02*
X008635Y007313D01*
X008601Y007412D02*
X006816Y007412D01*
X006816Y007510D02*
X008601Y007510D01*
X008601Y007609D02*
X006816Y007609D01*
X006816Y007707D02*
X008601Y007707D01*
X008601Y007806D02*
X006816Y007806D01*
X006816Y007904D02*
X008601Y007904D01*
X008601Y008003D02*
X006816Y008003D01*
X006816Y008101D02*
X008601Y008101D01*
X008601Y008298D02*
X006816Y008298D01*
X006816Y008200D02*
X009016Y008200D01*
X009016Y008298D02*
X009116Y008298D01*
X009116Y008200D02*
X010316Y008200D01*
X010316Y007116D02*
X006816Y007116D01*
X006816Y007018D02*
X010316Y007018D01*
X010316Y006919D02*
X006816Y006919D01*
X006816Y006821D02*
X010316Y006821D01*
X010316Y006722D02*
X006816Y006722D01*
X006816Y006624D02*
X010316Y006624D01*
X010316Y006525D02*
X007979Y006525D01*
X008196Y006427D02*
X009072Y006427D01*
X008922Y006328D02*
X008294Y006328D01*
X008384Y006230D02*
X008834Y006230D01*
X008772Y006131D02*
X008425Y006131D01*
X008465Y006033D02*
X008735Y006033D01*
X008714Y005934D02*
X008484Y005934D01*
X008484Y005836D02*
X009295Y005836D01*
X009295Y005934D02*
X009395Y005934D01*
X009395Y006033D02*
X009295Y006033D01*
X009295Y006131D02*
X009395Y006131D01*
X009395Y006230D02*
X009295Y006230D01*
X009295Y006328D02*
X009395Y006328D01*
X009395Y006427D02*
X009295Y006427D01*
X009619Y006427D02*
X010316Y006427D01*
X010316Y006328D02*
X009769Y006328D01*
X009857Y006230D02*
X010316Y006230D01*
X010316Y006131D02*
X009919Y006131D01*
X009956Y006033D02*
X010316Y006033D01*
X010316Y005737D02*
X009973Y005737D01*
X009948Y005639D02*
X010316Y005639D01*
X010316Y005540D02*
X009902Y005540D01*
X009835Y005442D02*
X010316Y005442D01*
X010316Y005343D02*
X009731Y005343D01*
X009143Y005245D02*
X008147Y005245D01*
X008265Y005343D02*
X008959Y005343D01*
X008856Y005442D02*
X008364Y005442D01*
X008413Y005540D02*
X008789Y005540D01*
X008743Y005639D02*
X008453Y005639D01*
X008484Y005737D02*
X008718Y005737D01*
X007594Y006525D02*
X006816Y006525D01*
X006816Y006427D02*
X007377Y006427D01*
X007066Y006427D02*
X003753Y006427D01*
X003655Y006525D02*
X007066Y006525D01*
X007066Y006624D02*
X003556Y006624D01*
X003458Y006722D02*
X007066Y006722D01*
X007066Y006821D02*
X003359Y006821D01*
X003356Y006919D02*
X007066Y006919D01*
X007066Y007018D02*
X003550Y007018D01*
X003616Y007116D02*
X007066Y007116D01*
X007066Y007215D02*
X003616Y007215D01*
X003616Y007313D02*
X007066Y007313D01*
X007066Y007412D02*
X003616Y007412D01*
X003616Y007510D02*
X007066Y007510D01*
X007066Y007609D02*
X003616Y007609D01*
X003616Y007707D02*
X007066Y007707D01*
X007066Y007806D02*
X003616Y007806D01*
X003616Y007904D02*
X007066Y007904D01*
X007066Y008003D02*
X003616Y008003D01*
X003616Y008101D02*
X007066Y008101D01*
X007066Y008200D02*
X003616Y008200D01*
X003521Y008298D02*
X007066Y008298D01*
X007066Y008397D02*
X001066Y008397D01*
X001066Y008495D02*
X007066Y008495D01*
X007066Y008594D02*
X001066Y008594D01*
X001066Y008692D02*
X007066Y008692D01*
X007066Y008791D02*
X001066Y008791D01*
X003508Y008889D02*
X007066Y008889D01*
X007066Y008988D02*
X003607Y008988D01*
X003616Y009086D02*
X007066Y009086D01*
X006816Y009086D02*
X008700Y009086D01*
X008607Y008988D02*
X006816Y008988D01*
X006816Y008889D02*
X008601Y008889D01*
X008601Y008791D02*
X006816Y008791D01*
X006816Y008692D02*
X008601Y008692D01*
X008601Y008594D02*
X006816Y008594D01*
X006816Y008495D02*
X008601Y008495D01*
X008601Y008397D02*
X006816Y008397D01*
X005071Y009579D02*
X003616Y009579D01*
X003616Y009677D02*
X004993Y009677D01*
X004952Y009776D02*
X003616Y009776D01*
X003616Y009874D02*
X004951Y009874D01*
X004972Y009973D02*
X003616Y009973D01*
X003616Y010071D02*
X005021Y010071D01*
X005046Y010170D02*
X003563Y010170D01*
X003498Y010268D02*
X005046Y010268D01*
X005033Y010367D02*
X003596Y010367D01*
X003695Y010465D02*
X004977Y010465D01*
X004951Y010564D02*
X003793Y010564D01*
X003892Y010662D02*
X004951Y010662D01*
X004987Y010761D02*
X003990Y010761D01*
X003816Y011350D02*
X003816Y013850D01*
X002066Y013850D01*
X002066Y018100D01*
X004566Y018100D01*
X004566Y011350D01*
X003816Y011350D01*
X003816Y011352D02*
X004566Y011352D01*
X004566Y011450D02*
X003816Y011450D01*
X003816Y011549D02*
X004566Y011549D01*
X004566Y011647D02*
X003816Y011647D01*
X003816Y011746D02*
X004566Y011746D01*
X004566Y011844D02*
X003816Y011844D01*
X003816Y011943D02*
X004566Y011943D01*
X004566Y012041D02*
X003816Y012041D01*
X003816Y012140D02*
X004566Y012140D01*
X004566Y012238D02*
X003816Y012238D01*
X003816Y012337D02*
X004566Y012337D01*
X004566Y012435D02*
X003816Y012435D01*
X003816Y012534D02*
X004566Y012534D01*
X004566Y012632D02*
X003816Y012632D01*
X003816Y012731D02*
X004566Y012731D01*
X004566Y012829D02*
X003816Y012829D01*
X003816Y012928D02*
X004566Y012928D01*
X004566Y013026D02*
X003816Y013026D01*
X003816Y013125D02*
X004566Y013125D01*
X004566Y013223D02*
X003816Y013223D01*
X003816Y013322D02*
X004566Y013322D01*
X004566Y013420D02*
X003816Y013420D01*
X003816Y013519D02*
X004566Y013519D01*
X004566Y013617D02*
X003816Y013617D01*
X003816Y013716D02*
X004566Y013716D01*
X004566Y013814D02*
X003816Y013814D01*
X004566Y013913D02*
X002066Y013913D01*
X002066Y014011D02*
X004566Y014011D01*
X004566Y014110D02*
X002066Y014110D01*
X002066Y014208D02*
X004566Y014208D01*
X004566Y014307D02*
X002066Y014307D01*
X002066Y014405D02*
X004566Y014405D01*
X004566Y014504D02*
X002066Y014504D01*
X002066Y014602D02*
X004566Y014602D01*
X004566Y014701D02*
X002066Y014701D01*
X002066Y014799D02*
X004566Y014799D01*
X004566Y014898D02*
X002066Y014898D01*
X002066Y014996D02*
X004566Y014996D01*
X004566Y015095D02*
X002066Y015095D01*
X002066Y015193D02*
X004566Y015193D01*
X004566Y015292D02*
X002066Y015292D01*
X002066Y015390D02*
X004566Y015390D01*
X004566Y015489D02*
X002066Y015489D01*
X002066Y015587D02*
X004566Y015587D01*
X004566Y015686D02*
X002066Y015686D01*
X002066Y015784D02*
X004566Y015784D01*
X004566Y015883D02*
X002066Y015883D01*
X002066Y015981D02*
X004566Y015981D01*
X004566Y016080D02*
X002066Y016080D01*
X002066Y016178D02*
X004566Y016178D01*
X004566Y016277D02*
X002066Y016277D01*
X002066Y016375D02*
X004566Y016375D01*
X004566Y016474D02*
X002066Y016474D01*
X002066Y016572D02*
X004566Y016572D01*
X004566Y016671D02*
X002066Y016671D01*
X002066Y016769D02*
X004566Y016769D01*
X004566Y016868D02*
X002066Y016868D01*
X002066Y016966D02*
X004566Y016966D01*
X004566Y017065D02*
X002066Y017065D01*
X002066Y017163D02*
X004566Y017163D01*
X004566Y017262D02*
X002066Y017262D01*
X002066Y017360D02*
X004566Y017360D01*
X004566Y017459D02*
X002066Y017459D01*
X002066Y017557D02*
X004566Y017557D01*
X004566Y017656D02*
X002066Y017656D01*
X002066Y017754D02*
X004566Y017754D01*
X004566Y017853D02*
X002066Y017853D01*
X002066Y017951D02*
X004566Y017951D01*
X004566Y018050D02*
X002066Y018050D01*
X001066Y019600D02*
X001066Y020600D01*
X003566Y020600D01*
X003566Y019600D01*
X001066Y019600D01*
X001066Y019626D02*
X003566Y019626D01*
X003566Y019724D02*
X001066Y019724D01*
X001066Y019823D02*
X003566Y019823D01*
X003566Y019921D02*
X001066Y019921D01*
X001066Y020020D02*
X003566Y020020D01*
X003566Y020118D02*
X001066Y020118D01*
X001066Y020217D02*
X003566Y020217D01*
X003566Y020315D02*
X001066Y020315D01*
X001066Y020414D02*
X003566Y020414D01*
X003566Y020512D02*
X001066Y020512D01*
X001066Y021399D02*
X035350Y021399D01*
X035252Y021497D02*
X001066Y021497D01*
X001066Y021596D02*
X035211Y021596D01*
X035170Y021694D02*
X001066Y021694D01*
X001066Y021793D02*
X035129Y021793D01*
X035106Y021891D02*
X001066Y021891D01*
X001066Y021990D02*
X035106Y021990D01*
X035106Y022088D02*
X001066Y022088D01*
X001066Y022187D02*
X035106Y022187D01*
X035128Y022285D02*
X001066Y022285D01*
X001066Y022384D02*
X035169Y022384D01*
X035210Y022482D02*
X001066Y022482D01*
X001066Y022581D02*
X035251Y022581D01*
X035347Y022679D02*
X001066Y022679D01*
X001066Y022778D02*
X035446Y022778D01*
X035576Y022876D02*
X001066Y022876D01*
X001066Y023172D02*
X050066Y023172D01*
X050066Y023270D02*
X001066Y023270D01*
X001066Y023369D02*
X050066Y023369D01*
X050066Y023467D02*
X001066Y023467D01*
X001066Y023566D02*
X050066Y023566D01*
X050066Y023664D02*
X001066Y023664D01*
X001066Y023763D02*
X050066Y023763D01*
X050066Y023861D02*
X001066Y023861D01*
X001066Y023960D02*
X050066Y023960D01*
X050066Y024058D02*
X001066Y024058D01*
X001066Y024157D02*
X050066Y024157D01*
X050066Y024255D02*
X001066Y024255D01*
X001066Y024354D02*
X050066Y024354D01*
X050066Y024452D02*
X001066Y024452D01*
X001066Y024551D02*
X050066Y024551D01*
X014566Y023566D02*
X006647Y023566D01*
X006647Y023467D02*
X006547Y023467D01*
X006547Y023369D02*
X006647Y023369D01*
X006647Y023270D02*
X006547Y023270D01*
X006547Y023172D02*
X006647Y023172D01*
X006647Y023073D02*
X006547Y023073D01*
X006547Y022975D02*
X006647Y022975D01*
X006647Y022876D02*
X006547Y022876D01*
X006547Y022778D02*
X006647Y022778D01*
X006647Y022679D02*
X006547Y022679D01*
X006547Y022581D02*
X006647Y022581D01*
X006647Y022482D02*
X006547Y022482D01*
X009225Y022482D02*
X013470Y022482D01*
X013393Y022581D02*
X009302Y022581D01*
X009306Y022679D02*
X013388Y022679D01*
X013388Y022778D02*
X009306Y022778D01*
X009306Y022876D02*
X013388Y022876D01*
X013388Y022975D02*
X009306Y022975D01*
X009306Y023073D02*
X013388Y023073D01*
X013388Y023172D02*
X009306Y023172D01*
X009306Y023270D02*
X013388Y023270D01*
X013388Y023369D02*
X009306Y023369D01*
X009306Y023467D02*
X013388Y023467D01*
X013388Y023664D02*
X009306Y023664D01*
X009306Y023763D02*
X013388Y023763D01*
X013388Y023861D02*
X009306Y023861D01*
X009306Y023960D02*
X013388Y023960D01*
X013388Y024058D02*
X009306Y024058D01*
X009306Y024157D02*
X013388Y024157D01*
X013388Y024255D02*
X009306Y024255D01*
X009306Y024354D02*
X013388Y024354D01*
X013388Y024452D02*
X009306Y024452D01*
X009306Y024551D02*
X013388Y024551D01*
X008598Y012435D02*
X005066Y012435D01*
X005066Y012337D02*
X008541Y012337D01*
X008541Y012238D02*
X005066Y012238D01*
X005066Y012140D02*
X008541Y012140D01*
X008541Y010958D02*
X005407Y010958D01*
X005225Y010958D02*
X005066Y010958D01*
X005573Y010859D02*
X008541Y010859D01*
X008541Y010761D02*
X005645Y010761D01*
X005681Y010662D02*
X008547Y010662D01*
X008646Y010564D02*
X005681Y010564D01*
X009016Y009086D02*
X009116Y009086D01*
X009116Y008988D02*
X009016Y008988D01*
X009016Y008889D02*
X009116Y008889D01*
X009116Y008791D02*
X009016Y008791D01*
X009016Y008692D02*
X009116Y008692D01*
X009116Y008594D02*
X009016Y008594D01*
X009016Y008495D02*
X009116Y008495D01*
X009116Y008397D02*
X009016Y008397D01*
X009016Y008101D02*
X009116Y008101D01*
X009116Y008003D02*
X009016Y008003D01*
X009016Y007904D02*
X009116Y007904D01*
X009116Y007806D02*
X009016Y007806D01*
X009016Y007707D02*
X009116Y007707D01*
X009116Y007609D02*
X009016Y007609D01*
X009016Y007510D02*
X009116Y007510D01*
X009116Y007412D02*
X009016Y007412D01*
X009016Y007313D02*
X009116Y007313D01*
X007426Y005245D02*
X006816Y005245D01*
D27*
X007786Y005850D02*
X003566Y005850D01*
X002816Y006600D01*
X002816Y007643D01*
X002816Y009557D02*
X002816Y010350D01*
X003989Y011523D01*
X009066Y011523D01*
D28*
X011643Y011523D01*
X013816Y009350D01*
X014566Y009350D01*
X014481Y009265D01*
X014481Y008600D01*
X015151Y008600D02*
X017066Y008600D01*
X015316Y009350D02*
X014566Y009350D01*
X015316Y009350D02*
X023316Y009350D01*
X008566Y027850D02*
X008066Y028350D01*
X008066Y030350D02*
X009066Y030350D01*
X009066Y031350D01*
X007566Y031350D01*
X007066Y030850D01*
X007066Y030350D01*
X009066Y031350D02*
X012066Y031350D01*
X012066Y030350D01*
X010816Y030350D02*
X010816Y029350D01*
X011251Y028915D01*
X011759Y028915D01*
X013373Y028915D01*
X013373Y030293D01*
X013316Y030350D01*
X015566Y030350D01*
X020816Y035600D01*
X020816Y038100D01*
X021566Y038100D01*
X021800Y038334D01*
X021800Y039100D01*
X021308Y039100D02*
X021308Y039592D01*
X021316Y039850D01*
X016816Y039850D01*
X015506Y038540D01*
X015506Y034350D01*
X017566Y034350D01*
X018316Y035100D01*
X018316Y037100D01*
X018316Y038100D02*
X019066Y038100D01*
X019066Y039100D02*
X020816Y039100D01*
X020816Y038100D01*
X022292Y039100D02*
X023066Y039100D01*
X023066Y037850D01*
X022292Y039100D02*
X022292Y039624D01*
X022066Y039850D01*
X021316Y039850D01*
X025066Y039100D02*
X025816Y039100D01*
X026316Y037850D02*
X025066Y037850D01*
X026316Y037850D02*
X027066Y037100D01*
X029066Y037100D01*
X029066Y038100D02*
X029066Y039100D01*
X029066Y040100D02*
X031316Y040100D01*
X032566Y038850D01*
X032566Y037600D01*
X016316Y038100D02*
X016316Y037100D01*
X013816Y037100D02*
X013816Y035100D01*
X013816Y034100D02*
X013816Y033600D01*
X013316Y033100D01*
X013316Y032350D01*
X012066Y032350D02*
X012066Y034100D01*
X012066Y035100D02*
X012279Y035137D01*
X012279Y037600D01*
X013066Y037600D02*
X013316Y037600D01*
X013816Y037100D01*
X011491Y037025D02*
X011491Y037600D01*
X010704Y037600D02*
X009566Y037600D01*
X008566Y036600D01*
X008566Y035100D01*
X008566Y034100D02*
X008566Y033350D01*
X009066Y032850D01*
X009066Y032350D01*
X010316Y033600D02*
X010816Y033100D01*
X010816Y032350D01*
X012066Y031350D02*
X014816Y031350D01*
X015506Y032040D01*
X015506Y034350D01*
X011491Y037025D02*
X010316Y035850D01*
X010316Y035100D01*
X010316Y034100D02*
X010316Y033600D01*
X007779Y036313D02*
X006566Y035100D01*
X006566Y034100D02*
X006566Y032850D01*
X007066Y032350D01*
X007779Y036313D02*
X007779Y037600D01*
X015506Y029350D02*
X014441Y028285D01*
X013373Y028285D01*
X011759Y028285D01*
D29*
X033316Y012000D02*
X033316Y010935D01*
X033316Y010265D02*
X033316Y006350D01*
X032816Y005850D01*
X028566Y005850D01*
X028566Y004850D02*
X033566Y004850D01*
X034066Y005350D01*
X034066Y008600D01*
X034566Y009100D01*
X040566Y009100D01*
X041066Y009600D01*
X041066Y010265D01*
X041066Y010935D02*
X041066Y011500D01*
X042166Y012600D01*
X033916Y012600D02*
X033316Y012000D01*
D30*
X021021Y001350D02*
X020316Y001350D01*
X020066Y001600D01*
X020066Y005600D01*
X005316Y009850D02*
X005316Y010600D01*
M02*
