G75*
G70*
%OFA0B0*%
%FSLAX24Y24*%
%IPPOS*%
%LPD*%
%AMOC8*
5,1,8,0,0,1.08239X$1,22.5*
%
%ADD10C,0.0060*%
%ADD11R,0.4750X1.4500*%
%ADD12C,0.1250*%
%ADD13C,0.0160*%
%ADD14C,0.0040*%
%ADD15C,0.0050*%
%ADD16C,0.0500*%
%ADD17C,0.0070*%
%ADD18R,0.3600X0.0200*%
%ADD19R,0.0500X0.0500*%
%ADD20R,0.0340X0.0160*%
%ADD21R,0.0354X0.0374*%
%ADD22C,0.0030*%
%ADD23R,0.0160X0.0340*%
%ADD24C,0.0020*%
%ADD25R,0.0059X0.0079*%
%ADD26R,0.0020X0.0020*%
%ADD27R,0.0148X0.0020*%
%ADD28R,0.0118X0.0079*%
%ADD29R,0.0089X0.0354*%
%ADD30R,0.0197X0.0079*%
%ADD31R,0.0089X0.0217*%
%ADD32R,0.0039X0.0039*%
%ADD33R,0.0098X0.0098*%
%ADD34R,0.2756X0.0394*%
%ADD35R,0.1260X0.1020*%
%ADD36R,0.1020X0.1020*%
%ADD37C,0.0100*%
%ADD38C,0.0200*%
%ADD39R,0.0200X0.0100*%
%ADD40R,0.0100X0.0200*%
D10*
X006809Y005987D02*
X006809Y006414D01*
X006596Y006200D02*
X007023Y006200D01*
X010096Y006273D02*
X010523Y006273D01*
X010666Y003771D02*
X010346Y003771D01*
X010346Y003130D01*
X010346Y003344D02*
X010666Y003344D01*
X010773Y003450D01*
X010773Y003664D01*
X010666Y003771D01*
X010990Y003664D02*
X010990Y003237D01*
X011097Y003130D01*
X011311Y003130D01*
X011418Y003237D01*
X011418Y003664D01*
X011311Y003771D01*
X011097Y003771D01*
X010990Y003664D01*
X011635Y003771D02*
X011635Y003130D01*
X011849Y003344D01*
X012062Y003130D01*
X012062Y003771D01*
X012280Y003771D02*
X012280Y003130D01*
X012707Y003130D01*
X012924Y003130D02*
X012924Y003771D01*
X013244Y003771D01*
X013351Y003664D01*
X013351Y003450D01*
X013244Y003344D01*
X012924Y003344D01*
X013138Y003344D02*
X013351Y003130D01*
X012707Y003771D02*
X012280Y003771D01*
X012280Y003450D02*
X012493Y003450D01*
X013096Y001021D02*
X013416Y001021D01*
X013523Y000914D01*
X013523Y000487D01*
X013416Y000380D01*
X013096Y000380D01*
X013096Y001021D01*
X013740Y000807D02*
X013740Y000380D01*
X013740Y000700D02*
X014168Y000700D01*
X014168Y000807D02*
X014168Y000380D01*
X014385Y000380D02*
X014385Y001021D01*
X014812Y000380D01*
X014812Y001021D01*
X015030Y000914D02*
X015030Y000487D01*
X015136Y000380D01*
X015350Y000380D01*
X015457Y000487D01*
X015457Y000700D01*
X015243Y000700D01*
X015030Y000914D02*
X015136Y001021D01*
X015350Y001021D01*
X015457Y000914D01*
X015674Y001021D02*
X015674Y000380D01*
X016101Y000380D01*
X016319Y000380D02*
X016319Y001021D01*
X016639Y001021D01*
X016746Y000914D01*
X016746Y000700D01*
X016639Y000594D01*
X016319Y000594D01*
X016532Y000594D02*
X016746Y000380D01*
X017608Y000700D02*
X018035Y000700D01*
X018897Y000700D02*
X019324Y000700D01*
X019324Y000380D02*
X019324Y001021D01*
X019541Y001021D02*
X019755Y001021D01*
X019648Y001021D02*
X019648Y000380D01*
X019541Y000380D02*
X019755Y000380D01*
X019971Y000487D02*
X020078Y000380D01*
X020291Y000380D01*
X020398Y000487D01*
X020398Y000700D01*
X020185Y000700D01*
X020398Y000914D02*
X020291Y001021D01*
X020078Y001021D01*
X019971Y000914D01*
X019971Y000487D01*
X020616Y000380D02*
X020616Y001021D01*
X020616Y000700D02*
X021043Y000700D01*
X021043Y000380D02*
X021043Y001021D01*
X021905Y001021D02*
X021905Y000594D01*
X022118Y000380D01*
X022332Y000594D01*
X022332Y001021D01*
X022549Y000914D02*
X022549Y000487D01*
X022656Y000380D01*
X022870Y000380D01*
X022976Y000487D01*
X022976Y000914D01*
X022870Y001021D01*
X022656Y001021D01*
X022549Y000914D01*
X023194Y001021D02*
X023194Y000380D01*
X023621Y000380D01*
X024052Y000380D02*
X024052Y001021D01*
X024265Y001021D02*
X023838Y001021D01*
X024483Y000807D02*
X024697Y001021D01*
X024910Y000807D01*
X024910Y000380D01*
X025128Y000487D02*
X025234Y000380D01*
X025448Y000380D01*
X025555Y000487D01*
X025555Y000700D01*
X025341Y000700D01*
X025128Y000914D02*
X025128Y000487D01*
X024910Y000700D02*
X024483Y000700D01*
X024483Y000807D02*
X024483Y000380D01*
X025128Y000914D02*
X025234Y001021D01*
X025448Y001021D01*
X025555Y000914D01*
X025772Y001021D02*
X025772Y000380D01*
X026199Y000380D01*
X025986Y000700D02*
X025772Y000700D01*
X025772Y001021D02*
X026199Y001021D01*
X023359Y003021D02*
X022932Y003021D01*
X023146Y003021D02*
X023146Y002380D01*
X022715Y002380D02*
X022715Y003021D01*
X022715Y002700D02*
X022287Y002700D01*
X022070Y002700D02*
X021856Y002700D01*
X022070Y002700D02*
X022070Y002487D01*
X021963Y002380D01*
X021750Y002380D01*
X021643Y002487D01*
X021643Y002914D01*
X021750Y003021D01*
X021963Y003021D01*
X022070Y002914D01*
X022287Y003021D02*
X022287Y002380D01*
X021427Y002380D02*
X021213Y002380D01*
X021320Y002380D02*
X021320Y003021D01*
X021213Y003021D02*
X021427Y003021D01*
X020996Y002380D02*
X020569Y002380D01*
X020569Y003021D01*
X020351Y003021D02*
X020351Y002380D01*
X020351Y002700D02*
X019924Y002700D01*
X019924Y002380D02*
X019924Y003021D01*
X019707Y003021D02*
X019280Y003021D01*
X019493Y003021D02*
X019493Y002380D01*
X019062Y002380D02*
X019062Y002807D01*
X018849Y003021D01*
X018635Y002807D01*
X018635Y002380D01*
X018418Y002380D02*
X017990Y002380D01*
X017990Y003021D01*
X018418Y003021D01*
X018204Y002700D02*
X017990Y002700D01*
X017773Y002487D02*
X017773Y002914D01*
X017666Y003021D01*
X017346Y003021D01*
X017346Y002380D01*
X017666Y002380D01*
X017773Y002487D01*
X018635Y002700D02*
X019062Y002700D01*
X018897Y001021D02*
X018897Y000380D01*
X016101Y001021D02*
X015674Y001021D01*
X015674Y000700D02*
X015888Y000700D01*
X014168Y000807D02*
X013954Y001021D01*
X013740Y000807D01*
X014646Y008460D02*
X014986Y008460D01*
X014986Y008740D02*
X014646Y008740D01*
X032846Y002021D02*
X032846Y001380D01*
X032846Y001594D02*
X033273Y002021D01*
X033490Y002021D02*
X033704Y002021D01*
X033597Y002021D02*
X033597Y001380D01*
X033490Y001380D02*
X033704Y001380D01*
X033920Y001487D02*
X034027Y001380D01*
X034240Y001380D01*
X034347Y001487D01*
X034565Y001594D02*
X034992Y002021D01*
X034565Y002021D02*
X034565Y001380D01*
X034672Y001700D02*
X034992Y001380D01*
X034347Y001914D02*
X034240Y002021D01*
X034027Y002021D01*
X033920Y001914D01*
X033920Y001487D01*
X033273Y001380D02*
X032953Y001700D01*
X035059Y004737D02*
X035059Y005164D01*
X034846Y004950D02*
X035273Y004950D01*
X034266Y006500D02*
X034266Y010200D01*
X037866Y010200D01*
X037866Y006500D01*
X034266Y006500D01*
X036066Y007900D02*
X036066Y008350D01*
X036316Y008850D01*
X035816Y008850D01*
X036066Y008350D01*
X036316Y008350D01*
X036066Y008350D02*
X036066Y009350D01*
X036066Y008350D02*
X035816Y008350D01*
X033456Y010430D02*
X033456Y010770D01*
X033176Y010770D02*
X033176Y010430D01*
X034703Y012630D02*
X034916Y012630D01*
X035023Y012737D01*
X035023Y012950D01*
X034809Y012950D01*
X034596Y013164D02*
X034596Y012737D01*
X034703Y012630D01*
X034596Y013164D02*
X034703Y013271D01*
X034916Y013271D01*
X035023Y013164D01*
X036846Y013164D02*
X036846Y012737D01*
X036953Y012630D01*
X037166Y012630D01*
X037273Y012737D01*
X037273Y013164D02*
X037166Y013271D01*
X036953Y013271D01*
X036846Y013164D01*
X038846Y013271D02*
X038846Y012630D01*
X039273Y012630D01*
X039059Y012950D02*
X038846Y012950D01*
X038846Y013271D02*
X039273Y013271D01*
X040926Y010770D02*
X040926Y010430D01*
X041206Y010430D02*
X041206Y010770D01*
X042516Y010200D02*
X042516Y006500D01*
X046116Y006500D01*
X046116Y010200D01*
X042516Y010200D01*
X044066Y008850D02*
X044566Y008850D01*
X044316Y008350D01*
X044566Y008350D01*
X044316Y008350D02*
X044316Y009350D01*
X044066Y008850D02*
X044316Y008350D01*
X044066Y008350D01*
X044316Y008350D02*
X044316Y007900D01*
X042809Y005164D02*
X042809Y004737D01*
X042596Y004950D02*
X043023Y004950D01*
X046096Y005023D02*
X046523Y005023D01*
X043242Y001914D02*
X043242Y001700D01*
X043135Y001594D01*
X042815Y001594D01*
X042815Y001380D02*
X042815Y002021D01*
X043135Y002021D01*
X043242Y001914D01*
X042599Y002021D02*
X042385Y002021D01*
X042492Y002021D02*
X042492Y001380D01*
X042385Y001380D02*
X042599Y001380D01*
X042168Y001380D02*
X042168Y002021D01*
X042168Y001700D02*
X041740Y001700D01*
X041523Y001487D02*
X041416Y001380D01*
X041203Y001380D01*
X041096Y001487D01*
X041096Y001914D01*
X041203Y002021D01*
X041416Y002021D01*
X041523Y001914D01*
X041740Y002021D02*
X041740Y001380D01*
X038773Y005023D02*
X038346Y005023D01*
X042953Y012630D02*
X043166Y012630D01*
X043273Y012737D01*
X043273Y012950D01*
X043059Y012950D01*
X042846Y013164D02*
X042846Y012737D01*
X042953Y012630D01*
X042846Y013164D02*
X042953Y013271D01*
X043166Y013271D01*
X043273Y013164D01*
X045096Y013164D02*
X045096Y012737D01*
X045203Y012630D01*
X045416Y012630D01*
X045523Y012737D01*
X045523Y013164D02*
X045416Y013271D01*
X045203Y013271D01*
X045096Y013164D01*
X047096Y013271D02*
X047096Y012630D01*
X047523Y012630D01*
X047309Y012950D02*
X047096Y012950D01*
X047096Y013271D02*
X047523Y013271D01*
X048645Y025630D02*
X048645Y025950D01*
X048752Y026057D01*
X049179Y026057D01*
X049286Y025950D01*
X049286Y025630D01*
X048645Y025630D01*
X048859Y026275D02*
X048645Y026488D01*
X048859Y026702D01*
X049286Y026702D01*
X049286Y026919D02*
X048645Y026919D01*
X049286Y027346D01*
X048645Y027346D01*
X048752Y027564D02*
X049179Y027564D01*
X049286Y027670D01*
X049286Y027884D01*
X049179Y027991D01*
X048966Y027991D01*
X048966Y027777D01*
X048752Y027564D02*
X048645Y027670D01*
X048645Y027884D01*
X048752Y027991D01*
X048645Y028208D02*
X049286Y028208D01*
X049286Y028635D01*
X049286Y028853D02*
X048645Y028853D01*
X048645Y029173D01*
X048752Y029280D01*
X048966Y029280D01*
X049072Y029173D01*
X049072Y028853D01*
X049072Y029066D02*
X049286Y029280D01*
X048645Y028635D02*
X048645Y028208D01*
X048966Y028208D02*
X048966Y028422D01*
X048966Y030142D02*
X048966Y030569D01*
X048966Y031431D02*
X048966Y031858D01*
X049286Y031858D02*
X048645Y031858D01*
X048645Y032075D02*
X048645Y032289D01*
X048645Y032182D02*
X049286Y032182D01*
X049286Y032075D02*
X049286Y032289D01*
X049179Y032505D02*
X049286Y032612D01*
X049286Y032825D01*
X049179Y032932D01*
X048966Y032932D01*
X048966Y032719D01*
X049179Y032505D02*
X048752Y032505D01*
X048645Y032612D01*
X048645Y032825D01*
X048752Y032932D01*
X048645Y033150D02*
X049286Y033150D01*
X048966Y033150D02*
X048966Y033577D01*
X049286Y033577D02*
X048645Y033577D01*
X048645Y034439D02*
X049072Y034439D01*
X049286Y034652D01*
X049072Y034866D01*
X048645Y034866D01*
X048752Y035083D02*
X049179Y035083D01*
X049286Y035190D01*
X049286Y035404D01*
X049179Y035510D01*
X048752Y035510D01*
X048645Y035404D01*
X048645Y035190D01*
X048752Y035083D01*
X048645Y035728D02*
X049286Y035728D01*
X049286Y036155D01*
X049286Y036586D02*
X048645Y036586D01*
X048645Y036372D02*
X048645Y036800D01*
X048859Y037017D02*
X048645Y037231D01*
X048859Y037444D01*
X049286Y037444D01*
X049179Y037662D02*
X048752Y037662D01*
X048645Y037768D01*
X048645Y037982D01*
X048752Y038089D01*
X048966Y038089D02*
X048966Y037875D01*
X048966Y038089D02*
X049179Y038089D01*
X049286Y037982D01*
X049286Y037768D01*
X049179Y037662D01*
X048966Y037444D02*
X048966Y037017D01*
X048859Y037017D02*
X049286Y037017D01*
X049286Y038306D02*
X048645Y038306D01*
X048645Y038733D01*
X048966Y038520D02*
X048966Y038306D01*
X049286Y038306D02*
X049286Y038733D01*
X042536Y035833D02*
X042109Y035833D01*
X041895Y035619D01*
X042109Y035406D01*
X042536Y035406D01*
X042216Y035406D02*
X042216Y035833D01*
X041536Y035727D02*
X041429Y035621D01*
X041002Y035621D01*
X040895Y035727D01*
X040895Y035941D01*
X041002Y036048D01*
X041109Y036265D02*
X041429Y036265D01*
X041536Y036372D01*
X041536Y036692D01*
X041109Y036692D01*
X041109Y036910D02*
X041109Y037230D01*
X041216Y037337D01*
X041429Y037337D01*
X041536Y037230D01*
X041536Y036910D01*
X041749Y036910D02*
X041109Y036910D01*
X041429Y036048D02*
X041536Y035941D01*
X041536Y035727D01*
X041429Y035403D02*
X041216Y035403D01*
X041109Y035296D01*
X041109Y035083D01*
X041216Y034976D01*
X041429Y034976D01*
X041536Y035083D01*
X041536Y035296D01*
X041429Y035403D01*
X041429Y034758D02*
X041216Y034758D01*
X041109Y034652D01*
X041109Y034331D01*
X040895Y034331D02*
X041536Y034331D01*
X041536Y034652D01*
X041429Y034758D01*
X041429Y034114D02*
X041216Y034114D01*
X041109Y034007D01*
X041109Y033794D01*
X041216Y033687D01*
X041429Y033687D01*
X041536Y033794D01*
X041536Y034007D01*
X041429Y034114D01*
X041536Y033469D02*
X041322Y033256D01*
X041322Y033363D02*
X041322Y033042D01*
X041536Y033042D02*
X040895Y033042D01*
X040895Y033363D01*
X041002Y033469D01*
X041216Y033469D01*
X041322Y033363D01*
X042109Y033255D02*
X042109Y033148D01*
X042322Y032935D01*
X042109Y032935D02*
X042536Y032935D01*
X042429Y033472D02*
X042216Y033472D01*
X042109Y033579D01*
X042109Y033792D01*
X042216Y033899D01*
X042322Y033899D01*
X042322Y033472D01*
X042429Y033472D02*
X042536Y033579D01*
X042536Y033792D01*
X042109Y034117D02*
X042536Y034330D01*
X042109Y034544D01*
X041429Y032180D02*
X041322Y032073D01*
X041322Y031860D01*
X041216Y031753D01*
X041109Y031860D01*
X041109Y032180D01*
X041429Y032180D02*
X041536Y032073D01*
X041536Y031753D01*
X041536Y031537D02*
X041429Y031430D01*
X041002Y031430D01*
X041109Y031324D02*
X041109Y031537D01*
X041216Y031106D02*
X041322Y031106D01*
X041322Y030679D01*
X041216Y030679D02*
X041109Y030786D01*
X041109Y030999D01*
X041216Y031106D01*
X041536Y030999D02*
X041536Y030786D01*
X041429Y030679D01*
X041216Y030679D01*
X041109Y030462D02*
X041322Y030142D01*
X041536Y030462D01*
X041536Y030142D02*
X040895Y030142D01*
X041109Y029924D02*
X041109Y029604D01*
X041216Y029497D01*
X041429Y029497D01*
X041536Y029604D01*
X041536Y029924D01*
X041895Y030032D02*
X041895Y029819D01*
X042002Y029712D01*
X041895Y030032D02*
X042002Y030139D01*
X042109Y030139D01*
X042536Y029712D01*
X042536Y030139D01*
X042429Y030357D02*
X042002Y030784D01*
X042429Y030784D01*
X042536Y030677D01*
X042536Y030463D01*
X042429Y030357D01*
X042002Y030357D01*
X041895Y030463D01*
X041895Y030677D01*
X042002Y030784D01*
X042109Y031001D02*
X041895Y031215D01*
X042536Y031215D01*
X042536Y031428D02*
X042536Y031001D01*
X042429Y031646D02*
X042536Y031753D01*
X042536Y031966D01*
X042429Y032073D01*
X042322Y032073D01*
X042216Y031966D01*
X042216Y031859D01*
X042216Y031966D02*
X042109Y032073D01*
X042002Y032073D01*
X041895Y031966D01*
X041895Y031753D01*
X042002Y031646D01*
X041536Y029280D02*
X041536Y028960D01*
X041429Y028853D01*
X041322Y028960D01*
X041322Y029280D01*
X041216Y029280D02*
X041536Y029280D01*
X041216Y029280D02*
X041109Y029173D01*
X041109Y028960D01*
X040895Y028635D02*
X040895Y028422D01*
X040895Y028528D02*
X041429Y028528D01*
X041536Y028422D01*
X041536Y028315D01*
X041429Y028208D01*
X041429Y027991D02*
X041216Y027991D01*
X041109Y027884D01*
X041109Y027670D01*
X041216Y027564D01*
X041429Y027564D01*
X041536Y027670D01*
X041536Y027884D01*
X041429Y027991D01*
X041429Y027346D02*
X041216Y027346D01*
X041109Y027239D01*
X041109Y026919D01*
X040895Y026919D02*
X041536Y026919D01*
X041536Y027239D01*
X041429Y027346D01*
X041895Y027349D02*
X042536Y027349D01*
X042322Y027349D02*
X042109Y027669D01*
X042216Y027886D02*
X042109Y027993D01*
X042109Y028206D01*
X042216Y028313D01*
X042322Y028313D01*
X042322Y027886D01*
X042216Y027886D02*
X042429Y027886D01*
X042536Y027993D01*
X042536Y028206D01*
X042536Y028530D02*
X042109Y028530D01*
X042322Y028530D02*
X042109Y028744D01*
X042109Y028851D01*
X042536Y027669D02*
X042322Y027349D01*
X042109Y027131D02*
X042109Y026811D01*
X042216Y026704D01*
X042429Y026704D01*
X042536Y026811D01*
X042536Y027131D01*
X042536Y026488D02*
X042536Y026275D01*
X042536Y026381D02*
X042109Y026381D01*
X042109Y026275D01*
X041895Y026381D02*
X041789Y026381D01*
X041536Y026381D02*
X041536Y026595D01*
X041429Y026702D01*
X041216Y026702D01*
X041109Y026595D01*
X041109Y026381D01*
X041216Y026275D01*
X041429Y026275D01*
X041536Y026381D01*
X041536Y026057D02*
X041322Y025844D01*
X041322Y025950D02*
X041322Y025630D01*
X041536Y025630D02*
X040895Y025630D01*
X040895Y025950D01*
X041002Y026057D01*
X041216Y026057D01*
X041322Y025950D01*
X041895Y026057D02*
X042322Y025630D01*
X042216Y025737D02*
X042536Y026057D01*
X042536Y025630D02*
X041895Y025630D01*
X039286Y025844D02*
X039072Y026057D01*
X038645Y026057D01*
X038645Y026275D02*
X038859Y026488D01*
X038645Y026702D01*
X039286Y026702D01*
X039286Y026919D02*
X038859Y026919D01*
X038645Y027133D01*
X038859Y027346D01*
X039286Y027346D01*
X039286Y027564D02*
X038645Y027991D01*
X038859Y028208D02*
X038966Y028208D01*
X038966Y028315D01*
X038859Y028315D01*
X038859Y028208D01*
X039179Y028208D02*
X039179Y028315D01*
X039286Y028315D01*
X039286Y028208D01*
X039179Y028208D01*
X039286Y027991D02*
X038645Y027564D01*
X038966Y027346D02*
X038966Y026919D01*
X038036Y027026D02*
X038036Y027239D01*
X037929Y027346D01*
X037716Y027346D01*
X037716Y027133D01*
X037502Y027346D02*
X037395Y027239D01*
X037395Y027026D01*
X037502Y026919D01*
X037929Y026919D01*
X038036Y027026D01*
X038036Y026702D02*
X037395Y026702D01*
X037716Y026702D02*
X037716Y026275D01*
X037929Y026057D02*
X038036Y025950D01*
X038036Y025737D01*
X037929Y025630D01*
X037502Y025630D01*
X037395Y025737D01*
X037395Y025950D01*
X037502Y026057D01*
X037395Y026275D02*
X038036Y026275D01*
X038645Y026275D02*
X039286Y026275D01*
X039286Y025844D02*
X039072Y025630D01*
X038645Y025630D01*
X038143Y027564D02*
X038143Y027991D01*
X038036Y028208D02*
X037395Y028208D01*
X037395Y028528D01*
X037502Y028635D01*
X037716Y028635D01*
X037822Y028528D01*
X037822Y028208D01*
X037822Y028422D02*
X038036Y028635D01*
X038036Y028853D02*
X037609Y028853D01*
X037395Y029066D01*
X037609Y029280D01*
X038036Y029280D01*
X037716Y029280D02*
X037716Y028853D01*
X037395Y029497D02*
X037395Y029924D01*
X037395Y029711D02*
X038036Y029711D01*
X038036Y030142D02*
X038036Y030569D01*
X038036Y030786D02*
X037929Y030786D01*
X037929Y030893D01*
X038036Y030893D01*
X038036Y030786D01*
X037716Y030786D02*
X037716Y030893D01*
X037609Y030893D01*
X037609Y030786D01*
X037716Y030786D01*
X037609Y031109D02*
X037716Y031215D01*
X037716Y031536D01*
X037929Y031536D02*
X037502Y031536D01*
X037395Y031429D01*
X037395Y031215D01*
X037502Y031109D01*
X037609Y031109D01*
X037929Y031109D02*
X038036Y031215D01*
X038036Y031429D01*
X037929Y031536D01*
X038036Y031753D02*
X037609Y031753D01*
X037395Y031967D01*
X037609Y032180D01*
X038036Y032180D01*
X037716Y032180D02*
X037716Y031753D01*
X038645Y031536D02*
X039072Y031536D01*
X039286Y031322D01*
X039072Y031109D01*
X038645Y031109D01*
X038752Y030891D02*
X039179Y030464D01*
X039286Y030571D01*
X039286Y030784D01*
X039179Y030891D01*
X038752Y030891D01*
X038645Y030784D01*
X038645Y030571D01*
X038752Y030464D01*
X039179Y030464D01*
X039179Y030247D02*
X038966Y030247D01*
X038859Y030140D01*
X038859Y030033D01*
X038966Y029820D01*
X038645Y029820D01*
X038645Y030247D01*
X039179Y030247D02*
X039286Y030140D01*
X039286Y029926D01*
X039179Y029820D01*
X039286Y029602D02*
X039286Y029175D01*
X038859Y029602D01*
X038752Y029602D01*
X038645Y029495D01*
X038645Y029282D01*
X038752Y029175D01*
X038966Y028958D02*
X038966Y028530D01*
X039179Y028744D02*
X038752Y028744D01*
X038036Y030142D02*
X037395Y030142D01*
X037395Y030569D01*
X037716Y030355D02*
X037716Y030142D01*
X038145Y035630D02*
X038145Y036057D01*
X038145Y036275D02*
X038145Y036595D01*
X038252Y036702D01*
X038466Y036702D01*
X038572Y036595D01*
X038572Y036275D01*
X038572Y036488D02*
X038786Y036702D01*
X038679Y036919D02*
X038786Y037026D01*
X038786Y037239D01*
X038679Y037346D01*
X038252Y037346D01*
X038145Y037239D01*
X038145Y037026D01*
X038252Y036919D01*
X038679Y036919D01*
X038786Y036275D02*
X038145Y036275D01*
X038466Y035844D02*
X038466Y035630D01*
X038786Y035630D02*
X038145Y035630D01*
X038145Y037564D02*
X038786Y037991D01*
X038145Y037991D01*
X038145Y038208D02*
X038145Y038635D01*
X038145Y038422D02*
X038786Y038422D01*
X038786Y037564D02*
X038145Y037564D01*
X040895Y038305D02*
X041002Y038199D01*
X041109Y038199D01*
X041216Y038305D01*
X041216Y038519D01*
X041322Y038626D01*
X041429Y038626D01*
X041536Y038519D01*
X041536Y038305D01*
X041429Y038199D01*
X040895Y038305D02*
X040895Y038519D01*
X041002Y038626D01*
X041002Y038843D02*
X041109Y038843D01*
X041216Y038950D01*
X041216Y039164D01*
X041322Y039270D01*
X041429Y039270D01*
X041536Y039164D01*
X041536Y038950D01*
X041429Y038843D01*
X041002Y038843D02*
X040895Y038950D01*
X040895Y039164D01*
X041002Y039270D01*
X040895Y039488D02*
X041536Y039488D01*
X041536Y039915D01*
X048645Y031431D02*
X049286Y031431D01*
X048966Y026702D02*
X048966Y026275D01*
X048859Y026275D02*
X049286Y026275D01*
X029465Y037152D02*
X029427Y037121D01*
X029387Y037093D01*
X029345Y037069D01*
X029302Y037048D01*
X029256Y037031D01*
X029210Y037018D01*
X029162Y037008D01*
X029114Y037002D01*
X029066Y037000D01*
X028466Y037600D02*
X028468Y037647D01*
X028474Y037695D01*
X028483Y037741D01*
X028496Y037787D01*
X028512Y037831D01*
X028533Y037875D01*
X028556Y037916D01*
X028582Y037955D01*
X028612Y037992D01*
X028645Y038027D01*
X028680Y038059D01*
X028717Y038088D01*
X029666Y037600D02*
X029664Y037555D01*
X029659Y037509D01*
X029651Y037465D01*
X029639Y037421D01*
X029623Y037378D01*
X029605Y037336D01*
X029583Y037296D01*
X029559Y037258D01*
X029532Y037222D01*
X029502Y037187D01*
X029469Y037156D01*
X029434Y037126D01*
X029066Y038200D02*
X029019Y038198D01*
X028972Y038193D01*
X028926Y038183D01*
X028880Y038170D01*
X028836Y038154D01*
X028793Y038134D01*
X028752Y038111D01*
X028713Y038085D01*
X028676Y038056D01*
X029066Y038200D02*
X029112Y038198D01*
X029158Y038193D01*
X029204Y038184D01*
X029248Y038172D01*
X029292Y038156D01*
X029334Y038137D01*
X029375Y038115D01*
X029413Y038089D01*
X029450Y038061D01*
X029066Y038000D02*
X029105Y037998D01*
X029144Y037992D01*
X029182Y037983D01*
X029219Y037970D01*
X029255Y037953D01*
X029288Y037933D01*
X029320Y037909D01*
X029349Y037883D01*
X029375Y037854D01*
X029399Y037822D01*
X029419Y037789D01*
X029436Y037753D01*
X029449Y037716D01*
X029458Y037678D01*
X029464Y037639D01*
X029466Y037600D01*
X029066Y037000D02*
X029020Y037002D01*
X028974Y037007D01*
X028928Y037016D01*
X028884Y037028D01*
X028840Y037044D01*
X028798Y037063D01*
X028757Y037085D01*
X028719Y037111D01*
X028682Y037139D01*
X029666Y037600D02*
X029664Y037645D01*
X029659Y037691D01*
X029651Y037735D01*
X029639Y037779D01*
X029623Y037822D01*
X029605Y037864D01*
X029583Y037904D01*
X029559Y037942D01*
X029532Y037978D01*
X029502Y038013D01*
X029469Y038044D01*
X029434Y038074D01*
X029066Y037850D02*
X029096Y037848D01*
X029126Y037843D01*
X029155Y037834D01*
X029182Y037821D01*
X029208Y037806D01*
X029232Y037787D01*
X029253Y037766D01*
X029272Y037742D01*
X029287Y037716D01*
X029300Y037689D01*
X029309Y037660D01*
X029314Y037630D01*
X029316Y037600D01*
X029066Y037200D02*
X029027Y037202D01*
X028988Y037208D01*
X028950Y037217D01*
X028913Y037230D01*
X028877Y037247D01*
X028844Y037267D01*
X028812Y037291D01*
X028783Y037317D01*
X028757Y037346D01*
X028733Y037378D01*
X028713Y037411D01*
X028696Y037447D01*
X028683Y037484D01*
X028674Y037522D01*
X028668Y037561D01*
X028666Y037600D01*
X028816Y037600D02*
X028818Y037570D01*
X028823Y037540D01*
X028832Y037511D01*
X028845Y037484D01*
X028860Y037458D01*
X028879Y037434D01*
X028900Y037413D01*
X028924Y037394D01*
X028950Y037379D01*
X028977Y037366D01*
X029006Y037357D01*
X029036Y037352D01*
X029066Y037350D01*
X028706Y037120D02*
X028670Y037149D01*
X028636Y037181D01*
X028605Y037216D01*
X028577Y037252D01*
X028552Y037291D01*
X028529Y037332D01*
X028510Y037374D01*
X028494Y037417D01*
X028482Y037462D01*
X028473Y037508D01*
X028468Y037554D01*
X028466Y037600D01*
X027416Y038750D02*
X027316Y038750D01*
X027266Y038800D01*
X026366Y038800D01*
X026316Y038750D01*
X026216Y038750D01*
X026199Y038752D01*
X026182Y038756D01*
X026166Y038763D01*
X026152Y038773D01*
X026139Y038786D01*
X026129Y038800D01*
X026122Y038816D01*
X026118Y038833D01*
X026116Y038850D01*
X026116Y039350D01*
X026118Y039367D01*
X026122Y039384D01*
X026129Y039400D01*
X026139Y039414D01*
X026152Y039427D01*
X026166Y039437D01*
X026182Y039444D01*
X026199Y039448D01*
X026216Y039450D01*
X026316Y039450D01*
X026366Y039400D01*
X027266Y039400D01*
X027316Y039450D01*
X027416Y039450D01*
X027433Y039448D01*
X027450Y039444D01*
X027466Y039437D01*
X027480Y039427D01*
X027493Y039414D01*
X027503Y039400D01*
X027510Y039384D01*
X027514Y039367D01*
X027516Y039350D01*
X027516Y038850D01*
X027514Y038833D01*
X027510Y038816D01*
X027503Y038800D01*
X027493Y038786D01*
X027480Y038773D01*
X027466Y038763D01*
X027450Y038756D01*
X027433Y038752D01*
X027416Y038750D01*
X028466Y039600D02*
X028468Y039647D01*
X028474Y039695D01*
X028483Y039741D01*
X028496Y039787D01*
X028512Y039831D01*
X028533Y039875D01*
X028556Y039916D01*
X028582Y039955D01*
X028612Y039992D01*
X028645Y040027D01*
X028680Y040059D01*
X028717Y040088D01*
X029666Y039600D02*
X029664Y039555D01*
X029659Y039509D01*
X029651Y039465D01*
X029639Y039421D01*
X029623Y039378D01*
X029605Y039336D01*
X029583Y039296D01*
X029559Y039258D01*
X029532Y039222D01*
X029502Y039187D01*
X029469Y039156D01*
X029434Y039126D01*
X029465Y039152D02*
X029427Y039121D01*
X029387Y039093D01*
X029345Y039069D01*
X029302Y039048D01*
X029256Y039031D01*
X029210Y039018D01*
X029162Y039008D01*
X029114Y039002D01*
X029066Y039000D01*
X029666Y039600D02*
X029664Y039645D01*
X029659Y039691D01*
X029651Y039735D01*
X029639Y039779D01*
X029623Y039822D01*
X029605Y039864D01*
X029583Y039904D01*
X029559Y039942D01*
X029532Y039978D01*
X029502Y040013D01*
X029469Y040044D01*
X029434Y040074D01*
X029066Y040200D02*
X029019Y040198D01*
X028972Y040193D01*
X028926Y040183D01*
X028880Y040170D01*
X028836Y040154D01*
X028793Y040134D01*
X028752Y040111D01*
X028713Y040085D01*
X028676Y040056D01*
X029066Y040200D02*
X029112Y040198D01*
X029158Y040193D01*
X029204Y040184D01*
X029248Y040172D01*
X029292Y040156D01*
X029334Y040137D01*
X029375Y040115D01*
X029413Y040089D01*
X029450Y040061D01*
X029066Y040000D02*
X029105Y039998D01*
X029144Y039992D01*
X029182Y039983D01*
X029219Y039970D01*
X029255Y039953D01*
X029288Y039933D01*
X029320Y039909D01*
X029349Y039883D01*
X029375Y039854D01*
X029399Y039822D01*
X029419Y039789D01*
X029436Y039753D01*
X029449Y039716D01*
X029458Y039678D01*
X029464Y039639D01*
X029466Y039600D01*
X029066Y039000D02*
X029020Y039002D01*
X028974Y039007D01*
X028928Y039016D01*
X028884Y039028D01*
X028840Y039044D01*
X028798Y039063D01*
X028757Y039085D01*
X028719Y039111D01*
X028682Y039139D01*
X029316Y039600D02*
X029314Y039630D01*
X029309Y039660D01*
X029300Y039689D01*
X029287Y039716D01*
X029272Y039742D01*
X029253Y039766D01*
X029232Y039787D01*
X029208Y039806D01*
X029182Y039821D01*
X029155Y039834D01*
X029126Y039843D01*
X029096Y039848D01*
X029066Y039850D01*
X028666Y039600D02*
X028668Y039561D01*
X028674Y039522D01*
X028683Y039484D01*
X028696Y039447D01*
X028713Y039411D01*
X028733Y039378D01*
X028757Y039346D01*
X028783Y039317D01*
X028812Y039291D01*
X028844Y039267D01*
X028877Y039247D01*
X028913Y039230D01*
X028950Y039217D01*
X028988Y039208D01*
X029027Y039202D01*
X029066Y039200D01*
X029066Y039350D02*
X029036Y039352D01*
X029006Y039357D01*
X028977Y039366D01*
X028950Y039379D01*
X028924Y039394D01*
X028900Y039413D01*
X028879Y039434D01*
X028860Y039458D01*
X028845Y039484D01*
X028832Y039511D01*
X028823Y039540D01*
X028818Y039570D01*
X028816Y039600D01*
X028466Y039600D02*
X028468Y039554D01*
X028473Y039508D01*
X028482Y039462D01*
X028494Y039417D01*
X028510Y039374D01*
X028529Y039332D01*
X028552Y039291D01*
X028577Y039252D01*
X028605Y039216D01*
X028636Y039181D01*
X028670Y039149D01*
X028706Y039120D01*
X024766Y039350D02*
X024766Y038850D01*
X024764Y038833D01*
X024760Y038816D01*
X024753Y038800D01*
X024743Y038786D01*
X024730Y038773D01*
X024716Y038763D01*
X024700Y038756D01*
X024683Y038752D01*
X024666Y038750D01*
X024566Y038750D01*
X024516Y038800D01*
X023616Y038800D01*
X023566Y038750D01*
X023466Y038750D01*
X023449Y038752D01*
X023432Y038756D01*
X023416Y038763D01*
X023402Y038773D01*
X023389Y038786D01*
X023379Y038800D01*
X023372Y038816D01*
X023368Y038833D01*
X023366Y038850D01*
X023366Y039350D01*
X023368Y039367D01*
X023372Y039384D01*
X023379Y039400D01*
X023389Y039414D01*
X023402Y039427D01*
X023416Y039437D01*
X023432Y039444D01*
X023449Y039448D01*
X023466Y039450D01*
X023566Y039450D01*
X023616Y039400D01*
X024516Y039400D01*
X024566Y039450D01*
X024666Y039450D01*
X024683Y039448D01*
X024700Y039444D01*
X024716Y039437D01*
X024730Y039427D01*
X024743Y039414D01*
X024753Y039400D01*
X024760Y039384D01*
X024764Y039367D01*
X024766Y039350D01*
X024666Y038200D02*
X024566Y038200D01*
X024516Y038150D01*
X023616Y038150D01*
X023566Y038200D01*
X023466Y038200D01*
X023449Y038198D01*
X023432Y038194D01*
X023416Y038187D01*
X023402Y038177D01*
X023389Y038164D01*
X023379Y038150D01*
X023372Y038134D01*
X023368Y038117D01*
X023366Y038100D01*
X023366Y037600D01*
X023368Y037583D01*
X023372Y037566D01*
X023379Y037550D01*
X023389Y037536D01*
X023402Y037523D01*
X023416Y037513D01*
X023432Y037506D01*
X023449Y037502D01*
X023466Y037500D01*
X023566Y037500D01*
X023616Y037550D01*
X024516Y037550D01*
X024566Y037500D01*
X024666Y037500D01*
X024683Y037502D01*
X024700Y037506D01*
X024716Y037513D01*
X024730Y037523D01*
X024743Y037536D01*
X024753Y037550D01*
X024760Y037566D01*
X024764Y037583D01*
X024766Y037600D01*
X024766Y038100D01*
X024764Y038117D01*
X024760Y038134D01*
X024753Y038150D01*
X024743Y038164D01*
X024730Y038177D01*
X024716Y038187D01*
X024700Y038194D01*
X024683Y038198D01*
X024666Y038200D01*
X019465Y038152D02*
X019427Y038121D01*
X019387Y038093D01*
X019345Y038069D01*
X019302Y038048D01*
X019256Y038031D01*
X019210Y038018D01*
X019162Y038008D01*
X019114Y038002D01*
X019066Y038000D01*
X018466Y038600D02*
X018468Y038647D01*
X018474Y038695D01*
X018483Y038741D01*
X018496Y038787D01*
X018512Y038831D01*
X018533Y038875D01*
X018556Y038916D01*
X018582Y038955D01*
X018612Y038992D01*
X018645Y039027D01*
X018680Y039059D01*
X018717Y039088D01*
X019666Y038600D02*
X019664Y038555D01*
X019659Y038509D01*
X019651Y038465D01*
X019639Y038421D01*
X019623Y038378D01*
X019605Y038336D01*
X019583Y038296D01*
X019559Y038258D01*
X019532Y038222D01*
X019502Y038187D01*
X019469Y038156D01*
X019434Y038126D01*
X019066Y039200D02*
X019019Y039198D01*
X018972Y039193D01*
X018926Y039183D01*
X018880Y039170D01*
X018836Y039154D01*
X018793Y039134D01*
X018752Y039111D01*
X018713Y039085D01*
X018676Y039056D01*
X019066Y039200D02*
X019112Y039198D01*
X019158Y039193D01*
X019204Y039184D01*
X019248Y039172D01*
X019292Y039156D01*
X019334Y039137D01*
X019375Y039115D01*
X019413Y039089D01*
X019450Y039061D01*
X019066Y039000D02*
X019105Y038998D01*
X019144Y038992D01*
X019182Y038983D01*
X019219Y038970D01*
X019255Y038953D01*
X019288Y038933D01*
X019320Y038909D01*
X019349Y038883D01*
X019375Y038854D01*
X019399Y038822D01*
X019419Y038789D01*
X019436Y038753D01*
X019449Y038716D01*
X019458Y038678D01*
X019464Y038639D01*
X019466Y038600D01*
X019066Y038000D02*
X019020Y038002D01*
X018974Y038007D01*
X018928Y038016D01*
X018884Y038028D01*
X018840Y038044D01*
X018798Y038063D01*
X018757Y038085D01*
X018719Y038111D01*
X018682Y038139D01*
X019666Y038600D02*
X019664Y038645D01*
X019659Y038691D01*
X019651Y038735D01*
X019639Y038779D01*
X019623Y038822D01*
X019605Y038864D01*
X019583Y038904D01*
X019559Y038942D01*
X019532Y038978D01*
X019502Y039013D01*
X019469Y039044D01*
X019434Y039074D01*
X019066Y038850D02*
X019096Y038848D01*
X019126Y038843D01*
X019155Y038834D01*
X019182Y038821D01*
X019208Y038806D01*
X019232Y038787D01*
X019253Y038766D01*
X019272Y038742D01*
X019287Y038716D01*
X019300Y038689D01*
X019309Y038660D01*
X019314Y038630D01*
X019316Y038600D01*
X019066Y038200D02*
X019027Y038202D01*
X018988Y038208D01*
X018950Y038217D01*
X018913Y038230D01*
X018877Y038247D01*
X018844Y038267D01*
X018812Y038291D01*
X018783Y038317D01*
X018757Y038346D01*
X018733Y038378D01*
X018713Y038411D01*
X018696Y038447D01*
X018683Y038484D01*
X018674Y038522D01*
X018668Y038561D01*
X018666Y038600D01*
X018816Y038600D02*
X018818Y038570D01*
X018823Y038540D01*
X018832Y038511D01*
X018845Y038484D01*
X018860Y038458D01*
X018879Y038434D01*
X018900Y038413D01*
X018924Y038394D01*
X018950Y038379D01*
X018977Y038366D01*
X019006Y038357D01*
X019036Y038352D01*
X019066Y038350D01*
X018706Y038120D02*
X018670Y038149D01*
X018636Y038181D01*
X018605Y038216D01*
X018577Y038252D01*
X018552Y038291D01*
X018529Y038332D01*
X018510Y038374D01*
X018494Y038417D01*
X018482Y038462D01*
X018473Y038508D01*
X018468Y038554D01*
X018466Y038600D01*
X018016Y038350D02*
X018016Y037850D01*
X018014Y037833D01*
X018010Y037816D01*
X018003Y037800D01*
X017993Y037786D01*
X017980Y037773D01*
X017966Y037763D01*
X017950Y037756D01*
X017933Y037752D01*
X017916Y037750D01*
X017816Y037750D01*
X017766Y037800D01*
X016866Y037800D01*
X016816Y037750D01*
X016716Y037750D01*
X016699Y037752D01*
X016682Y037756D01*
X016666Y037763D01*
X016652Y037773D01*
X016639Y037786D01*
X016629Y037800D01*
X016622Y037816D01*
X016618Y037833D01*
X016616Y037850D01*
X016616Y038350D01*
X016618Y038367D01*
X016622Y038384D01*
X016629Y038400D01*
X016639Y038414D01*
X016652Y038427D01*
X016666Y038437D01*
X016682Y038444D01*
X016699Y038448D01*
X016716Y038450D01*
X016816Y038450D01*
X016866Y038400D01*
X017766Y038400D01*
X017816Y038450D01*
X017916Y038450D01*
X017933Y038448D01*
X017950Y038444D01*
X017966Y038437D01*
X017980Y038427D01*
X017993Y038414D01*
X018003Y038400D01*
X018010Y038384D01*
X018014Y038367D01*
X018016Y038350D01*
X017916Y037450D02*
X017816Y037450D01*
X017766Y037400D01*
X016866Y037400D01*
X016816Y037450D01*
X016716Y037450D01*
X016699Y037448D01*
X016682Y037444D01*
X016666Y037437D01*
X016652Y037427D01*
X016639Y037414D01*
X016629Y037400D01*
X016622Y037384D01*
X016618Y037367D01*
X016616Y037350D01*
X016616Y036850D01*
X016618Y036833D01*
X016622Y036816D01*
X016629Y036800D01*
X016639Y036786D01*
X016652Y036773D01*
X016666Y036763D01*
X016682Y036756D01*
X016699Y036752D01*
X016716Y036750D01*
X016816Y036750D01*
X016866Y036800D01*
X017766Y036800D01*
X017816Y036750D01*
X017916Y036750D01*
X017933Y036752D01*
X017950Y036756D01*
X017966Y036763D01*
X017980Y036773D01*
X017993Y036786D01*
X018003Y036800D01*
X018010Y036816D01*
X018014Y036833D01*
X018016Y036850D01*
X018016Y037350D01*
X018014Y037367D01*
X018010Y037384D01*
X018003Y037400D01*
X017993Y037414D01*
X017980Y037427D01*
X017966Y037437D01*
X017950Y037444D01*
X017933Y037448D01*
X017916Y037450D01*
X016166Y034162D02*
X016166Y033735D01*
X016379Y033949D02*
X015952Y033949D01*
X013816Y034000D02*
X013770Y034002D01*
X013724Y034007D01*
X013678Y034016D01*
X013634Y034028D01*
X013590Y034044D01*
X013548Y034063D01*
X013507Y034085D01*
X013469Y034111D01*
X013432Y034139D01*
X013417Y035048D02*
X013455Y035079D01*
X013495Y035107D01*
X013537Y035131D01*
X013580Y035152D01*
X013626Y035169D01*
X013672Y035182D01*
X013720Y035192D01*
X013768Y035198D01*
X013816Y035200D01*
X014416Y034600D02*
X014414Y034553D01*
X014408Y034505D01*
X014399Y034459D01*
X014386Y034413D01*
X014370Y034369D01*
X014349Y034325D01*
X014326Y034284D01*
X014300Y034245D01*
X014270Y034208D01*
X014237Y034173D01*
X014202Y034141D01*
X014165Y034112D01*
X013216Y034600D02*
X013218Y034645D01*
X013223Y034691D01*
X013231Y034735D01*
X013243Y034779D01*
X013259Y034822D01*
X013277Y034864D01*
X013299Y034904D01*
X013323Y034942D01*
X013350Y034978D01*
X013380Y035013D01*
X013413Y035044D01*
X013448Y035074D01*
X013816Y034000D02*
X013863Y034002D01*
X013910Y034007D01*
X013956Y034017D01*
X014002Y034030D01*
X014046Y034046D01*
X014089Y034066D01*
X014130Y034089D01*
X014169Y034115D01*
X014206Y034144D01*
X013816Y034200D02*
X013777Y034202D01*
X013738Y034208D01*
X013700Y034217D01*
X013663Y034230D01*
X013627Y034247D01*
X013594Y034267D01*
X013562Y034291D01*
X013533Y034317D01*
X013507Y034346D01*
X013483Y034378D01*
X013463Y034411D01*
X013446Y034447D01*
X013433Y034484D01*
X013424Y034522D01*
X013418Y034561D01*
X013416Y034600D01*
X013816Y035200D02*
X013862Y035198D01*
X013908Y035193D01*
X013954Y035184D01*
X013998Y035172D01*
X014042Y035156D01*
X014084Y035137D01*
X014125Y035115D01*
X014163Y035089D01*
X014200Y035061D01*
X013216Y034600D02*
X013218Y034555D01*
X013223Y034509D01*
X013231Y034465D01*
X013243Y034421D01*
X013259Y034378D01*
X013277Y034336D01*
X013299Y034296D01*
X013323Y034258D01*
X013350Y034222D01*
X013380Y034187D01*
X013413Y034156D01*
X013448Y034126D01*
X014416Y034600D02*
X014414Y034646D01*
X014409Y034692D01*
X014400Y034738D01*
X014388Y034783D01*
X014372Y034826D01*
X014353Y034868D01*
X014330Y034909D01*
X014305Y034948D01*
X014277Y034984D01*
X014246Y035019D01*
X014212Y035051D01*
X014176Y035080D01*
X013566Y034600D02*
X013568Y034570D01*
X013573Y034540D01*
X013582Y034511D01*
X013595Y034484D01*
X013610Y034458D01*
X013629Y034434D01*
X013650Y034413D01*
X013674Y034394D01*
X013700Y034379D01*
X013727Y034366D01*
X013756Y034357D01*
X013786Y034352D01*
X013816Y034350D01*
X014216Y034600D02*
X014214Y034639D01*
X014208Y034678D01*
X014199Y034716D01*
X014186Y034753D01*
X014169Y034789D01*
X014149Y034822D01*
X014125Y034854D01*
X014099Y034883D01*
X014070Y034909D01*
X014038Y034933D01*
X014005Y034953D01*
X013969Y034970D01*
X013932Y034983D01*
X013894Y034992D01*
X013855Y034998D01*
X013816Y035000D01*
X013816Y034850D02*
X013846Y034848D01*
X013876Y034843D01*
X013905Y034834D01*
X013932Y034821D01*
X013958Y034806D01*
X013982Y034787D01*
X014003Y034766D01*
X014022Y034742D01*
X014037Y034716D01*
X014050Y034689D01*
X014059Y034660D01*
X014064Y034630D01*
X014066Y034600D01*
X012465Y034152D02*
X012427Y034121D01*
X012387Y034093D01*
X012345Y034069D01*
X012302Y034048D01*
X012256Y034031D01*
X012210Y034018D01*
X012162Y034008D01*
X012114Y034002D01*
X012066Y034000D01*
X011466Y034600D02*
X011468Y034647D01*
X011474Y034695D01*
X011483Y034741D01*
X011496Y034787D01*
X011512Y034831D01*
X011533Y034875D01*
X011556Y034916D01*
X011582Y034955D01*
X011612Y034992D01*
X011645Y035027D01*
X011680Y035059D01*
X011717Y035088D01*
X012666Y034600D02*
X012664Y034555D01*
X012659Y034509D01*
X012651Y034465D01*
X012639Y034421D01*
X012623Y034378D01*
X012605Y034336D01*
X012583Y034296D01*
X012559Y034258D01*
X012532Y034222D01*
X012502Y034187D01*
X012469Y034156D01*
X012434Y034126D01*
X012066Y035200D02*
X012019Y035198D01*
X011972Y035193D01*
X011926Y035183D01*
X011880Y035170D01*
X011836Y035154D01*
X011793Y035134D01*
X011752Y035111D01*
X011713Y035085D01*
X011676Y035056D01*
X012066Y035200D02*
X012112Y035198D01*
X012158Y035193D01*
X012204Y035184D01*
X012248Y035172D01*
X012292Y035156D01*
X012334Y035137D01*
X012375Y035115D01*
X012413Y035089D01*
X012450Y035061D01*
X012066Y035000D02*
X012105Y034998D01*
X012144Y034992D01*
X012182Y034983D01*
X012219Y034970D01*
X012255Y034953D01*
X012288Y034933D01*
X012320Y034909D01*
X012349Y034883D01*
X012375Y034854D01*
X012399Y034822D01*
X012419Y034789D01*
X012436Y034753D01*
X012449Y034716D01*
X012458Y034678D01*
X012464Y034639D01*
X012466Y034600D01*
X012066Y034000D02*
X012020Y034002D01*
X011974Y034007D01*
X011928Y034016D01*
X011884Y034028D01*
X011840Y034044D01*
X011798Y034063D01*
X011757Y034085D01*
X011719Y034111D01*
X011682Y034139D01*
X012666Y034600D02*
X012664Y034645D01*
X012659Y034691D01*
X012651Y034735D01*
X012639Y034779D01*
X012623Y034822D01*
X012605Y034864D01*
X012583Y034904D01*
X012559Y034942D01*
X012532Y034978D01*
X012502Y035013D01*
X012469Y035044D01*
X012434Y035074D01*
X012066Y034850D02*
X012096Y034848D01*
X012126Y034843D01*
X012155Y034834D01*
X012182Y034821D01*
X012208Y034806D01*
X012232Y034787D01*
X012253Y034766D01*
X012272Y034742D01*
X012287Y034716D01*
X012300Y034689D01*
X012309Y034660D01*
X012314Y034630D01*
X012316Y034600D01*
X012066Y034200D02*
X012027Y034202D01*
X011988Y034208D01*
X011950Y034217D01*
X011913Y034230D01*
X011877Y034247D01*
X011844Y034267D01*
X011812Y034291D01*
X011783Y034317D01*
X011757Y034346D01*
X011733Y034378D01*
X011713Y034411D01*
X011696Y034447D01*
X011683Y034484D01*
X011674Y034522D01*
X011668Y034561D01*
X011666Y034600D01*
X011816Y034600D02*
X011818Y034570D01*
X011823Y034540D01*
X011832Y034511D01*
X011845Y034484D01*
X011860Y034458D01*
X011879Y034434D01*
X011900Y034413D01*
X011924Y034394D01*
X011950Y034379D01*
X011977Y034366D01*
X012006Y034357D01*
X012036Y034352D01*
X012066Y034350D01*
X011706Y034120D02*
X011670Y034149D01*
X011636Y034181D01*
X011605Y034216D01*
X011577Y034252D01*
X011552Y034291D01*
X011529Y034332D01*
X011510Y034374D01*
X011494Y034417D01*
X011482Y034462D01*
X011473Y034508D01*
X011468Y034554D01*
X011466Y034600D01*
X010316Y034000D02*
X010270Y034002D01*
X010224Y034007D01*
X010178Y034016D01*
X010134Y034028D01*
X010090Y034044D01*
X010048Y034063D01*
X010007Y034085D01*
X009969Y034111D01*
X009932Y034139D01*
X009917Y035048D02*
X009955Y035079D01*
X009995Y035107D01*
X010037Y035131D01*
X010080Y035152D01*
X010126Y035169D01*
X010172Y035182D01*
X010220Y035192D01*
X010268Y035198D01*
X010316Y035200D01*
X010916Y034600D02*
X010914Y034553D01*
X010908Y034505D01*
X010899Y034459D01*
X010886Y034413D01*
X010870Y034369D01*
X010849Y034325D01*
X010826Y034284D01*
X010800Y034245D01*
X010770Y034208D01*
X010737Y034173D01*
X010702Y034141D01*
X010665Y034112D01*
X009716Y034600D02*
X009718Y034645D01*
X009723Y034691D01*
X009731Y034735D01*
X009743Y034779D01*
X009759Y034822D01*
X009777Y034864D01*
X009799Y034904D01*
X009823Y034942D01*
X009850Y034978D01*
X009880Y035013D01*
X009913Y035044D01*
X009948Y035074D01*
X010316Y034000D02*
X010363Y034002D01*
X010410Y034007D01*
X010456Y034017D01*
X010502Y034030D01*
X010546Y034046D01*
X010589Y034066D01*
X010630Y034089D01*
X010669Y034115D01*
X010706Y034144D01*
X010316Y034200D02*
X010277Y034202D01*
X010238Y034208D01*
X010200Y034217D01*
X010163Y034230D01*
X010127Y034247D01*
X010094Y034267D01*
X010062Y034291D01*
X010033Y034317D01*
X010007Y034346D01*
X009983Y034378D01*
X009963Y034411D01*
X009946Y034447D01*
X009933Y034484D01*
X009924Y034522D01*
X009918Y034561D01*
X009916Y034600D01*
X010316Y035200D02*
X010362Y035198D01*
X010408Y035193D01*
X010454Y035184D01*
X010498Y035172D01*
X010542Y035156D01*
X010584Y035137D01*
X010625Y035115D01*
X010663Y035089D01*
X010700Y035061D01*
X009716Y034600D02*
X009718Y034555D01*
X009723Y034509D01*
X009731Y034465D01*
X009743Y034421D01*
X009759Y034378D01*
X009777Y034336D01*
X009799Y034296D01*
X009823Y034258D01*
X009850Y034222D01*
X009880Y034187D01*
X009913Y034156D01*
X009948Y034126D01*
X010916Y034600D02*
X010914Y034646D01*
X010909Y034692D01*
X010900Y034738D01*
X010888Y034783D01*
X010872Y034826D01*
X010853Y034868D01*
X010830Y034909D01*
X010805Y034948D01*
X010777Y034984D01*
X010746Y035019D01*
X010712Y035051D01*
X010676Y035080D01*
X010066Y034600D02*
X010068Y034570D01*
X010073Y034540D01*
X010082Y034511D01*
X010095Y034484D01*
X010110Y034458D01*
X010129Y034434D01*
X010150Y034413D01*
X010174Y034394D01*
X010200Y034379D01*
X010227Y034366D01*
X010256Y034357D01*
X010286Y034352D01*
X010316Y034350D01*
X010716Y034600D02*
X010714Y034639D01*
X010708Y034678D01*
X010699Y034716D01*
X010686Y034753D01*
X010669Y034789D01*
X010649Y034822D01*
X010625Y034854D01*
X010599Y034883D01*
X010570Y034909D01*
X010538Y034933D01*
X010505Y034953D01*
X010469Y034970D01*
X010432Y034983D01*
X010394Y034992D01*
X010355Y034998D01*
X010316Y035000D01*
X010316Y034850D02*
X010346Y034848D01*
X010376Y034843D01*
X010405Y034834D01*
X010432Y034821D01*
X010458Y034806D01*
X010482Y034787D01*
X010503Y034766D01*
X010522Y034742D01*
X010537Y034716D01*
X010550Y034689D01*
X010559Y034660D01*
X010564Y034630D01*
X010566Y034600D01*
X008965Y034152D02*
X008927Y034121D01*
X008887Y034093D01*
X008845Y034069D01*
X008802Y034048D01*
X008756Y034031D01*
X008710Y034018D01*
X008662Y034008D01*
X008614Y034002D01*
X008566Y034000D01*
X007966Y034600D02*
X007968Y034647D01*
X007974Y034695D01*
X007983Y034741D01*
X007996Y034787D01*
X008012Y034831D01*
X008033Y034875D01*
X008056Y034916D01*
X008082Y034955D01*
X008112Y034992D01*
X008145Y035027D01*
X008180Y035059D01*
X008217Y035088D01*
X009166Y034600D02*
X009164Y034555D01*
X009159Y034509D01*
X009151Y034465D01*
X009139Y034421D01*
X009123Y034378D01*
X009105Y034336D01*
X009083Y034296D01*
X009059Y034258D01*
X009032Y034222D01*
X009002Y034187D01*
X008969Y034156D01*
X008934Y034126D01*
X008566Y035200D02*
X008519Y035198D01*
X008472Y035193D01*
X008426Y035183D01*
X008380Y035170D01*
X008336Y035154D01*
X008293Y035134D01*
X008252Y035111D01*
X008213Y035085D01*
X008176Y035056D01*
X008566Y035200D02*
X008612Y035198D01*
X008658Y035193D01*
X008704Y035184D01*
X008748Y035172D01*
X008792Y035156D01*
X008834Y035137D01*
X008875Y035115D01*
X008913Y035089D01*
X008950Y035061D01*
X008566Y035000D02*
X008605Y034998D01*
X008644Y034992D01*
X008682Y034983D01*
X008719Y034970D01*
X008755Y034953D01*
X008788Y034933D01*
X008820Y034909D01*
X008849Y034883D01*
X008875Y034854D01*
X008899Y034822D01*
X008919Y034789D01*
X008936Y034753D01*
X008949Y034716D01*
X008958Y034678D01*
X008964Y034639D01*
X008966Y034600D01*
X008566Y034000D02*
X008520Y034002D01*
X008474Y034007D01*
X008428Y034016D01*
X008384Y034028D01*
X008340Y034044D01*
X008298Y034063D01*
X008257Y034085D01*
X008219Y034111D01*
X008182Y034139D01*
X009166Y034600D02*
X009164Y034645D01*
X009159Y034691D01*
X009151Y034735D01*
X009139Y034779D01*
X009123Y034822D01*
X009105Y034864D01*
X009083Y034904D01*
X009059Y034942D01*
X009032Y034978D01*
X009002Y035013D01*
X008969Y035044D01*
X008934Y035074D01*
X008566Y034850D02*
X008596Y034848D01*
X008626Y034843D01*
X008655Y034834D01*
X008682Y034821D01*
X008708Y034806D01*
X008732Y034787D01*
X008753Y034766D01*
X008772Y034742D01*
X008787Y034716D01*
X008800Y034689D01*
X008809Y034660D01*
X008814Y034630D01*
X008816Y034600D01*
X008566Y034200D02*
X008527Y034202D01*
X008488Y034208D01*
X008450Y034217D01*
X008413Y034230D01*
X008377Y034247D01*
X008344Y034267D01*
X008312Y034291D01*
X008283Y034317D01*
X008257Y034346D01*
X008233Y034378D01*
X008213Y034411D01*
X008196Y034447D01*
X008183Y034484D01*
X008174Y034522D01*
X008168Y034561D01*
X008166Y034600D01*
X008316Y034600D02*
X008318Y034570D01*
X008323Y034540D01*
X008332Y034511D01*
X008345Y034484D01*
X008360Y034458D01*
X008379Y034434D01*
X008400Y034413D01*
X008424Y034394D01*
X008450Y034379D01*
X008477Y034366D01*
X008506Y034357D01*
X008536Y034352D01*
X008566Y034350D01*
X008206Y034120D02*
X008170Y034149D01*
X008136Y034181D01*
X008105Y034216D01*
X008077Y034252D01*
X008052Y034291D01*
X008029Y034332D01*
X008010Y034374D01*
X007994Y034417D01*
X007982Y034462D01*
X007973Y034508D01*
X007968Y034554D01*
X007966Y034600D01*
X006965Y034152D02*
X006927Y034121D01*
X006887Y034093D01*
X006845Y034069D01*
X006802Y034048D01*
X006756Y034031D01*
X006710Y034018D01*
X006662Y034008D01*
X006614Y034002D01*
X006566Y034000D01*
X005966Y034600D02*
X005968Y034647D01*
X005974Y034695D01*
X005983Y034741D01*
X005996Y034787D01*
X006012Y034831D01*
X006033Y034875D01*
X006056Y034916D01*
X006082Y034955D01*
X006112Y034992D01*
X006145Y035027D01*
X006180Y035059D01*
X006217Y035088D01*
X007166Y034600D02*
X007164Y034555D01*
X007159Y034509D01*
X007151Y034465D01*
X007139Y034421D01*
X007123Y034378D01*
X007105Y034336D01*
X007083Y034296D01*
X007059Y034258D01*
X007032Y034222D01*
X007002Y034187D01*
X006969Y034156D01*
X006934Y034126D01*
X006566Y035200D02*
X006519Y035198D01*
X006472Y035193D01*
X006426Y035183D01*
X006380Y035170D01*
X006336Y035154D01*
X006293Y035134D01*
X006252Y035111D01*
X006213Y035085D01*
X006176Y035056D01*
X006566Y035200D02*
X006612Y035198D01*
X006658Y035193D01*
X006704Y035184D01*
X006748Y035172D01*
X006792Y035156D01*
X006834Y035137D01*
X006875Y035115D01*
X006913Y035089D01*
X006950Y035061D01*
X006566Y035000D02*
X006605Y034998D01*
X006644Y034992D01*
X006682Y034983D01*
X006719Y034970D01*
X006755Y034953D01*
X006788Y034933D01*
X006820Y034909D01*
X006849Y034883D01*
X006875Y034854D01*
X006899Y034822D01*
X006919Y034789D01*
X006936Y034753D01*
X006949Y034716D01*
X006958Y034678D01*
X006964Y034639D01*
X006966Y034600D01*
X006566Y034000D02*
X006520Y034002D01*
X006474Y034007D01*
X006428Y034016D01*
X006384Y034028D01*
X006340Y034044D01*
X006298Y034063D01*
X006257Y034085D01*
X006219Y034111D01*
X006182Y034139D01*
X007166Y034600D02*
X007164Y034645D01*
X007159Y034691D01*
X007151Y034735D01*
X007139Y034779D01*
X007123Y034822D01*
X007105Y034864D01*
X007083Y034904D01*
X007059Y034942D01*
X007032Y034978D01*
X007002Y035013D01*
X006969Y035044D01*
X006934Y035074D01*
X006566Y034850D02*
X006596Y034848D01*
X006626Y034843D01*
X006655Y034834D01*
X006682Y034821D01*
X006708Y034806D01*
X006732Y034787D01*
X006753Y034766D01*
X006772Y034742D01*
X006787Y034716D01*
X006800Y034689D01*
X006809Y034660D01*
X006814Y034630D01*
X006816Y034600D01*
X006566Y034200D02*
X006527Y034202D01*
X006488Y034208D01*
X006450Y034217D01*
X006413Y034230D01*
X006377Y034247D01*
X006344Y034267D01*
X006312Y034291D01*
X006283Y034317D01*
X006257Y034346D01*
X006233Y034378D01*
X006213Y034411D01*
X006196Y034447D01*
X006183Y034484D01*
X006174Y034522D01*
X006168Y034561D01*
X006166Y034600D01*
X006316Y034600D02*
X006318Y034570D01*
X006323Y034540D01*
X006332Y034511D01*
X006345Y034484D01*
X006360Y034458D01*
X006379Y034434D01*
X006400Y034413D01*
X006424Y034394D01*
X006450Y034379D01*
X006477Y034366D01*
X006506Y034357D01*
X006536Y034352D01*
X006566Y034350D01*
X006206Y034120D02*
X006170Y034149D01*
X006136Y034181D01*
X006105Y034216D01*
X006077Y034252D01*
X006052Y034291D01*
X006029Y034332D01*
X006010Y034374D01*
X005994Y034417D01*
X005982Y034462D01*
X005973Y034508D01*
X005968Y034554D01*
X005966Y034600D01*
X006816Y032050D02*
X007316Y032050D01*
X007333Y032048D01*
X007350Y032044D01*
X007366Y032037D01*
X007380Y032027D01*
X007393Y032014D01*
X007403Y032000D01*
X007410Y031984D01*
X007414Y031967D01*
X007416Y031950D01*
X007416Y031850D01*
X007366Y031800D01*
X007366Y030900D01*
X007416Y030850D01*
X007416Y030750D01*
X007414Y030733D01*
X007410Y030716D01*
X007403Y030700D01*
X007393Y030686D01*
X007380Y030673D01*
X007366Y030663D01*
X007350Y030656D01*
X007333Y030652D01*
X007316Y030650D01*
X006816Y030650D01*
X006799Y030652D01*
X006782Y030656D01*
X006766Y030663D01*
X006752Y030673D01*
X006739Y030686D01*
X006729Y030700D01*
X006722Y030716D01*
X006718Y030733D01*
X006716Y030750D01*
X006716Y030850D01*
X006766Y030900D01*
X006766Y031800D01*
X006716Y031850D01*
X006716Y031950D01*
X006718Y031967D01*
X006722Y031984D01*
X006729Y032000D01*
X006739Y032014D01*
X006752Y032027D01*
X006766Y032037D01*
X006782Y032044D01*
X006799Y032048D01*
X006816Y032050D01*
X008716Y031950D02*
X008716Y031850D01*
X008766Y031800D01*
X008766Y030900D01*
X008716Y030850D01*
X008716Y030750D01*
X008718Y030733D01*
X008722Y030716D01*
X008729Y030700D01*
X008739Y030686D01*
X008752Y030673D01*
X008766Y030663D01*
X008782Y030656D01*
X008799Y030652D01*
X008816Y030650D01*
X009316Y030650D01*
X009333Y030652D01*
X009350Y030656D01*
X009366Y030663D01*
X009380Y030673D01*
X009393Y030686D01*
X009403Y030700D01*
X009410Y030716D01*
X009414Y030733D01*
X009416Y030750D01*
X009416Y030850D01*
X009366Y030900D01*
X009366Y031800D01*
X009416Y031850D01*
X009416Y031950D01*
X009414Y031967D01*
X009410Y031984D01*
X009403Y032000D01*
X009393Y032014D01*
X009380Y032027D01*
X009366Y032037D01*
X009350Y032044D01*
X009333Y032048D01*
X009316Y032050D01*
X008816Y032050D01*
X008799Y032048D01*
X008782Y032044D01*
X008766Y032037D01*
X008752Y032027D01*
X008739Y032014D01*
X008729Y032000D01*
X008722Y031984D01*
X008718Y031967D01*
X008716Y031950D01*
X010466Y031950D02*
X010466Y031850D01*
X010516Y031800D01*
X010516Y030900D01*
X010466Y030850D01*
X010466Y030750D01*
X010468Y030733D01*
X010472Y030716D01*
X010479Y030700D01*
X010489Y030686D01*
X010502Y030673D01*
X010516Y030663D01*
X010532Y030656D01*
X010549Y030652D01*
X010566Y030650D01*
X011066Y030650D01*
X011083Y030652D01*
X011100Y030656D01*
X011116Y030663D01*
X011130Y030673D01*
X011143Y030686D01*
X011153Y030700D01*
X011160Y030716D01*
X011164Y030733D01*
X011166Y030750D01*
X011166Y030850D01*
X011116Y030900D01*
X011116Y031800D01*
X011166Y031850D01*
X011166Y031950D01*
X011164Y031967D01*
X011160Y031984D01*
X011153Y032000D01*
X011143Y032014D01*
X011130Y032027D01*
X011116Y032037D01*
X011100Y032044D01*
X011083Y032048D01*
X011066Y032050D01*
X010566Y032050D01*
X010549Y032048D01*
X010532Y032044D01*
X010516Y032037D01*
X010502Y032027D01*
X010489Y032014D01*
X010479Y032000D01*
X010472Y031984D01*
X010468Y031967D01*
X010466Y031950D01*
X011716Y031950D02*
X011716Y031850D01*
X011766Y031800D01*
X011766Y030900D01*
X011716Y030850D01*
X011716Y030750D01*
X011718Y030733D01*
X011722Y030716D01*
X011729Y030700D01*
X011739Y030686D01*
X011752Y030673D01*
X011766Y030663D01*
X011782Y030656D01*
X011799Y030652D01*
X011816Y030650D01*
X012316Y030650D01*
X012333Y030652D01*
X012350Y030656D01*
X012366Y030663D01*
X012380Y030673D01*
X012393Y030686D01*
X012403Y030700D01*
X012410Y030716D01*
X012414Y030733D01*
X012416Y030750D01*
X012416Y030850D01*
X012366Y030900D01*
X012366Y031800D01*
X012416Y031850D01*
X012416Y031950D01*
X012414Y031967D01*
X012410Y031984D01*
X012403Y032000D01*
X012393Y032014D01*
X012380Y032027D01*
X012366Y032037D01*
X012350Y032044D01*
X012333Y032048D01*
X012316Y032050D01*
X011816Y032050D01*
X011799Y032048D01*
X011782Y032044D01*
X011766Y032037D01*
X011752Y032027D01*
X011739Y032014D01*
X011729Y032000D01*
X011722Y031984D01*
X011718Y031967D01*
X011716Y031950D01*
X012966Y031950D02*
X012966Y031850D01*
X013016Y031800D01*
X013016Y030900D01*
X012966Y030850D01*
X012966Y030750D01*
X012968Y030733D01*
X012972Y030716D01*
X012979Y030700D01*
X012989Y030686D01*
X013002Y030673D01*
X013016Y030663D01*
X013032Y030656D01*
X013049Y030652D01*
X013066Y030650D01*
X013566Y030650D01*
X013583Y030652D01*
X013600Y030656D01*
X013616Y030663D01*
X013630Y030673D01*
X013643Y030686D01*
X013653Y030700D01*
X013660Y030716D01*
X013664Y030733D01*
X013666Y030750D01*
X013666Y030850D01*
X013616Y030900D01*
X013616Y031800D01*
X013666Y031850D01*
X013666Y031950D01*
X013664Y031967D01*
X013660Y031984D01*
X013653Y032000D01*
X013643Y032014D01*
X013630Y032027D01*
X013616Y032037D01*
X013600Y032044D01*
X013583Y032048D01*
X013566Y032050D01*
X013066Y032050D01*
X013049Y032048D01*
X013032Y032044D01*
X013016Y032037D01*
X013002Y032027D01*
X012989Y032014D01*
X012979Y032000D01*
X012972Y031984D01*
X012968Y031967D01*
X012966Y031950D01*
X016166Y029162D02*
X016166Y028735D01*
X009066Y027250D02*
X009021Y027252D01*
X008975Y027257D01*
X008931Y027265D01*
X008887Y027277D01*
X008844Y027293D01*
X008802Y027311D01*
X008762Y027333D01*
X008724Y027357D01*
X008688Y027384D01*
X008653Y027414D01*
X008622Y027447D01*
X008592Y027482D01*
X008618Y027451D02*
X008587Y027489D01*
X008559Y027529D01*
X008535Y027571D01*
X008514Y027614D01*
X008497Y027660D01*
X008484Y027706D01*
X008474Y027754D01*
X008468Y027802D01*
X008466Y027850D01*
X009066Y028450D02*
X009113Y028448D01*
X009161Y028442D01*
X009207Y028433D01*
X009253Y028420D01*
X009297Y028404D01*
X009341Y028383D01*
X009382Y028360D01*
X009421Y028334D01*
X009458Y028304D01*
X009493Y028271D01*
X009525Y028236D01*
X009554Y028199D01*
X009466Y027850D02*
X009464Y027811D01*
X009458Y027772D01*
X009449Y027734D01*
X009436Y027697D01*
X009419Y027661D01*
X009399Y027628D01*
X009375Y027596D01*
X009349Y027567D01*
X009320Y027541D01*
X009288Y027517D01*
X009255Y027497D01*
X009219Y027480D01*
X009182Y027467D01*
X009144Y027458D01*
X009105Y027452D01*
X009066Y027450D01*
X009666Y027850D02*
X009664Y027897D01*
X009659Y027944D01*
X009649Y027990D01*
X009636Y028036D01*
X009620Y028080D01*
X009600Y028123D01*
X009577Y028164D01*
X009551Y028203D01*
X009522Y028240D01*
X009316Y027850D02*
X009314Y027820D01*
X009309Y027790D01*
X009300Y027761D01*
X009287Y027734D01*
X009272Y027708D01*
X009253Y027684D01*
X009232Y027663D01*
X009208Y027644D01*
X009182Y027629D01*
X009155Y027616D01*
X009126Y027607D01*
X009096Y027602D01*
X009066Y027600D01*
X008466Y027850D02*
X008468Y027896D01*
X008473Y027942D01*
X008482Y027988D01*
X008494Y028032D01*
X008510Y028076D01*
X008529Y028118D01*
X008551Y028159D01*
X008577Y028197D01*
X008605Y028234D01*
X008316Y028650D02*
X007816Y028650D01*
X007799Y028652D01*
X007782Y028656D01*
X007766Y028663D01*
X007752Y028673D01*
X007739Y028686D01*
X007729Y028700D01*
X007722Y028716D01*
X007718Y028733D01*
X007716Y028750D01*
X007716Y028850D01*
X007766Y028900D01*
X007766Y029800D01*
X007716Y029850D01*
X007716Y029950D01*
X007718Y029967D01*
X007722Y029984D01*
X007729Y030000D01*
X007739Y030014D01*
X007752Y030027D01*
X007766Y030037D01*
X007782Y030044D01*
X007799Y030048D01*
X007816Y030050D01*
X008316Y030050D01*
X008333Y030048D01*
X008350Y030044D01*
X008366Y030037D01*
X008380Y030027D01*
X008393Y030014D01*
X008403Y030000D01*
X008410Y029984D01*
X008414Y029967D01*
X008416Y029950D01*
X008416Y029850D01*
X008366Y029800D01*
X008366Y028900D01*
X008416Y028850D01*
X008416Y028750D01*
X008414Y028733D01*
X008410Y028716D01*
X008403Y028700D01*
X008393Y028686D01*
X008380Y028673D01*
X008366Y028663D01*
X008350Y028656D01*
X008333Y028652D01*
X008316Y028650D01*
X009066Y027250D02*
X009111Y027252D01*
X009157Y027257D01*
X009201Y027265D01*
X009245Y027277D01*
X009288Y027293D01*
X009330Y027311D01*
X009370Y027333D01*
X009408Y027357D01*
X009444Y027384D01*
X009479Y027414D01*
X009510Y027447D01*
X009540Y027482D01*
X009066Y028250D02*
X009027Y028248D01*
X008988Y028242D01*
X008950Y028233D01*
X008913Y028220D01*
X008877Y028203D01*
X008844Y028183D01*
X008812Y028159D01*
X008783Y028133D01*
X008757Y028104D01*
X008733Y028072D01*
X008713Y028039D01*
X008696Y028003D01*
X008683Y027966D01*
X008674Y027928D01*
X008668Y027889D01*
X008666Y027850D01*
X008816Y027850D02*
X008818Y027880D01*
X008823Y027910D01*
X008832Y027939D01*
X008845Y027966D01*
X008860Y027992D01*
X008879Y028016D01*
X008900Y028037D01*
X008924Y028056D01*
X008950Y028071D01*
X008977Y028084D01*
X009006Y028093D01*
X009036Y028098D01*
X009066Y028100D01*
X009666Y027850D02*
X009664Y027804D01*
X009659Y027758D01*
X009650Y027712D01*
X009638Y027668D01*
X009622Y027624D01*
X009603Y027582D01*
X009581Y027541D01*
X009555Y027503D01*
X009527Y027466D01*
X009066Y028450D02*
X009020Y028448D01*
X008974Y028443D01*
X008928Y028434D01*
X008883Y028422D01*
X008840Y028406D01*
X008798Y028387D01*
X008757Y028364D01*
X008718Y028339D01*
X008682Y028311D01*
X008647Y028280D01*
X008615Y028246D01*
X008586Y028210D01*
D11*
X045191Y033100D03*
D12*
X036316Y040100D02*
X036316Y025850D01*
X004566Y025850D01*
X004566Y040100D01*
D13*
X038066Y039100D02*
X040066Y039100D01*
X039066Y040600D01*
X038066Y039100D01*
X039066Y040600D02*
X039066Y035600D01*
D14*
X034853Y037447D02*
X034853Y037523D01*
X034777Y037600D01*
X034546Y037600D01*
X034546Y037447D01*
X034623Y037370D01*
X034777Y037370D01*
X034853Y037447D01*
X034700Y037754D02*
X034546Y037600D01*
X034700Y037754D02*
X034853Y037830D01*
X034393Y037830D02*
X034239Y037830D01*
X034316Y037830D02*
X034316Y037447D01*
X034239Y037370D01*
X034163Y037370D01*
X034086Y037447D01*
X027500Y038328D02*
X027442Y038270D01*
X027325Y038270D01*
X027267Y038328D01*
X027267Y038387D01*
X027325Y038445D01*
X027442Y038445D01*
X027500Y038387D01*
X027500Y038328D01*
X027442Y038445D02*
X027500Y038504D01*
X027500Y038562D01*
X027442Y038620D01*
X027325Y038620D01*
X027267Y038562D01*
X027267Y038504D01*
X027325Y038445D01*
X027141Y038387D02*
X027141Y038328D01*
X027083Y038270D01*
X026966Y038270D01*
X026908Y038328D01*
X026782Y038270D02*
X026665Y038387D01*
X026724Y038387D02*
X026549Y038387D01*
X026549Y038270D02*
X026549Y038620D01*
X026724Y038620D01*
X026782Y038562D01*
X026782Y038445D01*
X026724Y038387D01*
X026908Y038562D02*
X026966Y038620D01*
X027083Y038620D01*
X027141Y038562D01*
X027141Y038504D01*
X027083Y038445D01*
X027141Y038387D01*
X027083Y038445D02*
X027024Y038445D01*
X024750Y038562D02*
X024517Y038328D01*
X024517Y038270D01*
X024391Y038328D02*
X024333Y038270D01*
X024216Y038270D01*
X024158Y038328D01*
X024032Y038270D02*
X023915Y038387D01*
X023974Y038387D02*
X023799Y038387D01*
X023799Y038270D02*
X023799Y038620D01*
X023974Y038620D01*
X024032Y038562D01*
X024032Y038445D01*
X023974Y038387D01*
X024158Y038562D02*
X024216Y038620D01*
X024333Y038620D01*
X024391Y038562D01*
X024391Y038504D01*
X024333Y038445D01*
X024391Y038387D01*
X024391Y038328D01*
X024333Y038445D02*
X024274Y038445D01*
X024517Y038620D02*
X024750Y038620D01*
X024750Y038562D01*
X024750Y037370D02*
X024517Y037370D01*
X024517Y037195D01*
X024634Y037254D01*
X024692Y037254D01*
X024750Y037195D01*
X024750Y037078D01*
X024692Y037020D01*
X024575Y037020D01*
X024517Y037078D01*
X024391Y037078D02*
X024333Y037020D01*
X024216Y037020D01*
X024158Y037078D01*
X024032Y037020D02*
X023915Y037137D01*
X023974Y037137D02*
X023799Y037137D01*
X023799Y037020D02*
X023799Y037370D01*
X023974Y037370D01*
X024032Y037312D01*
X024032Y037195D01*
X023974Y037137D01*
X024158Y037312D02*
X024216Y037370D01*
X024333Y037370D01*
X024391Y037312D01*
X024391Y037254D01*
X024333Y037195D01*
X024391Y037137D01*
X024391Y037078D01*
X024333Y037195D02*
X024274Y037195D01*
X015998Y037255D02*
X015764Y037255D01*
X015939Y037430D01*
X015939Y037080D01*
X015639Y037138D02*
X015580Y037080D01*
X015463Y037080D01*
X015405Y037138D01*
X015279Y037080D02*
X015163Y037197D01*
X015221Y037197D02*
X015046Y037197D01*
X015046Y037080D02*
X015046Y037430D01*
X015221Y037430D01*
X015279Y037372D01*
X015279Y037255D01*
X015221Y037197D01*
X015405Y037372D02*
X015463Y037430D01*
X015580Y037430D01*
X015639Y037372D01*
X015639Y037314D01*
X015580Y037255D01*
X015639Y037197D01*
X015639Y037138D01*
X015580Y037255D02*
X015522Y037255D01*
X015580Y037830D02*
X015463Y037830D01*
X015405Y037888D01*
X015279Y037830D02*
X015163Y037947D01*
X015221Y037947D02*
X015046Y037947D01*
X015046Y037830D02*
X015046Y038180D01*
X015221Y038180D01*
X015279Y038122D01*
X015279Y038005D01*
X015221Y037947D01*
X015405Y038122D02*
X015463Y038180D01*
X015580Y038180D01*
X015639Y038122D01*
X015639Y038064D01*
X015580Y038005D01*
X015639Y037947D01*
X015639Y037888D01*
X015580Y037830D01*
X015580Y038005D02*
X015522Y038005D01*
X015764Y037888D02*
X015823Y037830D01*
X015939Y037830D01*
X015998Y037888D01*
X015998Y037947D01*
X015939Y038005D01*
X015881Y038005D01*
X015939Y038005D02*
X015998Y038064D01*
X015998Y038122D01*
X015939Y038180D01*
X015823Y038180D01*
X015764Y038122D01*
X010853Y036580D02*
X010853Y036504D01*
X010546Y036197D01*
X010546Y036120D01*
X010316Y036197D02*
X010239Y036120D01*
X010163Y036120D01*
X010086Y036197D01*
X010316Y036197D02*
X010316Y036580D01*
X010239Y036580D02*
X010393Y036580D01*
X010546Y036580D02*
X010853Y036580D01*
X007353Y036580D02*
X007046Y036580D01*
X007046Y036350D01*
X007200Y036427D01*
X007277Y036427D01*
X007353Y036350D01*
X007353Y036197D01*
X007277Y036120D01*
X007123Y036120D01*
X007046Y036197D01*
X006816Y036197D02*
X006816Y036580D01*
X006739Y036580D02*
X006893Y036580D01*
X006816Y036197D02*
X006739Y036120D01*
X006663Y036120D01*
X006586Y036197D01*
X007546Y032034D02*
X007604Y031918D01*
X007721Y031801D01*
X007721Y031976D01*
X007779Y032034D01*
X007838Y032034D01*
X007896Y031976D01*
X007896Y031859D01*
X007838Y031801D01*
X007721Y031801D01*
X007779Y031675D02*
X007838Y031675D01*
X007896Y031617D01*
X007896Y031500D01*
X007838Y031442D01*
X007896Y031316D02*
X007779Y031199D01*
X007779Y031258D02*
X007779Y031083D01*
X007896Y031083D02*
X007546Y031083D01*
X007546Y031258D01*
X007604Y031316D01*
X007721Y031316D01*
X007779Y031258D01*
X007604Y031442D02*
X007546Y031500D01*
X007546Y031617D01*
X007604Y031675D01*
X007662Y031675D01*
X007721Y031617D01*
X007779Y031675D01*
X007721Y031617D02*
X007721Y031559D01*
X009546Y031617D02*
X009604Y031675D01*
X009721Y031675D01*
X009779Y031617D01*
X009779Y031442D01*
X009779Y031559D02*
X009896Y031675D01*
X009838Y031801D02*
X009896Y031859D01*
X009896Y031976D01*
X009838Y032034D01*
X009721Y032034D01*
X009662Y031976D01*
X009662Y031918D01*
X009721Y031801D01*
X009546Y031801D01*
X009546Y032034D01*
X009546Y031617D02*
X009546Y031442D01*
X009896Y031442D01*
X011296Y031500D02*
X011296Y031617D01*
X011354Y031675D01*
X011412Y031675D01*
X011471Y031617D01*
X011529Y031675D01*
X011588Y031675D01*
X011646Y031617D01*
X011646Y031500D01*
X011588Y031442D01*
X011646Y031316D02*
X011529Y031199D01*
X011529Y031258D02*
X011529Y031083D01*
X011646Y031083D02*
X011296Y031083D01*
X011296Y031258D01*
X011354Y031316D01*
X011471Y031316D01*
X011529Y031258D01*
X011354Y031442D02*
X011296Y031500D01*
X011471Y031559D02*
X011471Y031617D01*
X011588Y031801D02*
X011354Y032034D01*
X011588Y032034D01*
X011646Y031976D01*
X011646Y031859D01*
X011588Y031801D01*
X011354Y031801D01*
X011296Y031859D01*
X011296Y031976D01*
X011354Y032034D01*
X012546Y031918D02*
X012896Y031918D01*
X012896Y032034D02*
X012896Y031801D01*
X012838Y031675D02*
X012896Y031617D01*
X012896Y031500D01*
X012838Y031442D01*
X012896Y031316D02*
X012779Y031199D01*
X012779Y031258D02*
X012779Y031083D01*
X012896Y031083D02*
X012546Y031083D01*
X012546Y031258D01*
X012604Y031316D01*
X012721Y031316D01*
X012779Y031258D01*
X012604Y031442D02*
X012546Y031500D01*
X012546Y031617D01*
X012604Y031675D01*
X012662Y031675D01*
X012721Y031617D01*
X012779Y031675D01*
X012838Y031675D01*
X012721Y031617D02*
X012721Y031559D01*
X012662Y031801D02*
X012546Y031918D01*
X013796Y031976D02*
X013796Y031859D01*
X013854Y031801D01*
X013854Y031675D02*
X013912Y031675D01*
X013971Y031617D01*
X014029Y031675D01*
X014088Y031675D01*
X014146Y031617D01*
X014146Y031500D01*
X014088Y031442D01*
X014146Y031316D02*
X014029Y031199D01*
X014029Y031258D02*
X014029Y031083D01*
X014146Y031083D02*
X013796Y031083D01*
X013796Y031258D01*
X013854Y031316D01*
X013971Y031316D01*
X014029Y031258D01*
X013854Y031442D02*
X013796Y031500D01*
X013796Y031617D01*
X013854Y031675D01*
X013971Y031617D02*
X013971Y031559D01*
X014146Y031801D02*
X013912Y032034D01*
X013854Y032034D01*
X013796Y031976D01*
X014146Y032034D02*
X014146Y031801D01*
X012929Y027780D02*
X012929Y027320D01*
X012776Y027320D02*
X013082Y027320D01*
X012776Y027627D02*
X012929Y027780D01*
X012622Y027704D02*
X012545Y027780D01*
X012392Y027780D01*
X012315Y027704D01*
X012315Y027627D01*
X012392Y027550D01*
X012545Y027550D01*
X012622Y027473D01*
X012622Y027397D01*
X012545Y027320D01*
X012392Y027320D01*
X012315Y027397D01*
X007586Y028580D02*
X007236Y028580D01*
X007236Y028755D01*
X007294Y028814D01*
X007411Y028814D01*
X007469Y028755D01*
X007469Y028580D01*
X007469Y028697D02*
X007586Y028814D01*
X007528Y028939D02*
X007586Y028997D01*
X007586Y029114D01*
X007528Y029173D01*
X007469Y029173D01*
X007411Y029114D01*
X007411Y029056D01*
X007411Y029114D02*
X007352Y029173D01*
X007294Y029173D01*
X007236Y029114D01*
X007236Y028997D01*
X007294Y028939D01*
X002984Y021330D02*
X002984Y021023D01*
X002831Y020870D01*
X002678Y021023D01*
X002678Y021330D01*
X002524Y021254D02*
X002217Y020947D01*
X002294Y020870D01*
X002447Y020870D01*
X002524Y020947D01*
X002524Y021254D01*
X002447Y021330D01*
X002294Y021330D01*
X002217Y021254D01*
X002217Y020947D01*
X002064Y020947D02*
X001987Y020870D01*
X001833Y020870D01*
X001757Y020947D01*
X001757Y021100D02*
X001910Y021177D01*
X001987Y021177D01*
X002064Y021100D01*
X002064Y020947D01*
X001757Y021100D02*
X001757Y021330D01*
X002064Y021330D01*
X001603Y021254D02*
X001527Y021330D01*
X001373Y021330D01*
X001296Y021254D01*
X001143Y021100D02*
X000836Y021100D01*
X000989Y020947D02*
X000989Y021254D01*
X001296Y020870D02*
X001603Y021177D01*
X001603Y021254D01*
X001603Y020870D02*
X001296Y020870D01*
X004984Y012870D02*
X005214Y012870D01*
X005291Y012794D01*
X005291Y012487D01*
X005214Y012410D01*
X004984Y012410D01*
X004984Y012870D01*
X005444Y012717D02*
X005597Y012870D01*
X005751Y012717D01*
X005751Y012410D01*
X005904Y012410D02*
X006211Y012717D01*
X006211Y012794D01*
X006135Y012870D01*
X005981Y012870D01*
X005904Y012794D01*
X005751Y012640D02*
X005444Y012640D01*
X005444Y012717D02*
X005444Y012410D01*
X005904Y012410D02*
X006211Y012410D01*
X006365Y012487D02*
X006672Y012794D01*
X006672Y012487D01*
X006595Y012410D01*
X006441Y012410D01*
X006365Y012487D01*
X006365Y012794D01*
X006441Y012870D01*
X006595Y012870D01*
X006672Y012794D01*
X006825Y012794D02*
X006902Y012870D01*
X007055Y012870D01*
X007132Y012794D01*
X007132Y012717D01*
X007055Y012640D01*
X007132Y012563D01*
X007132Y012487D01*
X007055Y012410D01*
X006902Y012410D01*
X006825Y012487D01*
X006979Y012640D02*
X007055Y012640D01*
X007286Y012640D02*
X007516Y012870D01*
X007516Y012410D01*
X007592Y012640D02*
X007286Y012640D01*
X007964Y011858D02*
X008672Y011858D01*
X009460Y011858D02*
X010168Y011858D01*
X011074Y010952D01*
X011074Y007842D01*
X009460Y007842D01*
X009521Y007991D02*
X008611Y007991D01*
X008456Y008019D02*
X008889Y007941D01*
X009243Y007941D01*
X009676Y008019D01*
X010149Y008256D01*
X010483Y008551D01*
X007668Y008551D01*
X007649Y008551D01*
X007983Y008256D01*
X008456Y008019D01*
X008435Y008030D02*
X009697Y008030D01*
X009774Y008068D02*
X008358Y008068D01*
X008281Y008107D02*
X009851Y008107D01*
X009928Y008145D02*
X008204Y008145D01*
X008127Y008184D02*
X010005Y008184D01*
X010082Y008222D02*
X008050Y008222D01*
X007978Y008261D02*
X010154Y008261D01*
X010198Y008299D02*
X007934Y008299D01*
X007890Y008338D02*
X010242Y008338D01*
X010285Y008376D02*
X007847Y008376D01*
X007803Y008415D02*
X010329Y008415D01*
X010372Y008453D02*
X007759Y008453D01*
X007716Y008492D02*
X010416Y008492D01*
X010460Y008530D02*
X007672Y008530D01*
X007609Y008570D02*
X010503Y008570D01*
X011074Y007842D02*
X007058Y007842D01*
X007058Y010952D01*
X007964Y011858D01*
X010168Y011858D01*
X011074Y010952D01*
X011074Y007842D01*
X009309Y007953D02*
X008823Y007953D01*
X008672Y007842D02*
X007058Y007842D01*
X007058Y010952D01*
X007964Y011858D01*
X009460Y011760D02*
X009553Y011738D01*
X009644Y011712D01*
X009734Y011682D01*
X009823Y011647D01*
X009910Y011608D01*
X009995Y011565D01*
X010077Y011517D01*
X010157Y011466D01*
X010235Y011411D01*
X010310Y011352D01*
X010382Y011289D01*
X010450Y011223D01*
X010516Y011154D01*
X010578Y011082D01*
X010636Y011007D01*
X010691Y010929D01*
X010741Y010848D01*
X010788Y010765D01*
X010831Y010680D01*
X010869Y010593D01*
X010903Y010504D01*
X010933Y010413D01*
X010958Y010321D01*
X010979Y010229D01*
X010995Y010135D01*
X011007Y010040D01*
X011014Y009945D01*
X011016Y009850D01*
X011014Y009755D01*
X011007Y009660D01*
X010995Y009565D01*
X010979Y009471D01*
X010958Y009379D01*
X010933Y009287D01*
X010903Y009196D01*
X010869Y009107D01*
X010831Y009020D01*
X010788Y008935D01*
X010741Y008852D01*
X010691Y008771D01*
X010636Y008693D01*
X010578Y008618D01*
X010516Y008546D01*
X010450Y008477D01*
X010382Y008411D01*
X010310Y008348D01*
X010235Y008289D01*
X010157Y008234D01*
X010077Y008183D01*
X009995Y008135D01*
X009910Y008092D01*
X009823Y008053D01*
X009734Y008018D01*
X009644Y007988D01*
X009553Y007962D01*
X009460Y007940D01*
X009450Y007080D02*
X009450Y006620D01*
X009603Y006620D02*
X009296Y006620D01*
X009066Y006697D02*
X009066Y007080D01*
X008989Y007080D02*
X009143Y007080D01*
X009296Y006927D02*
X009450Y007080D01*
X009066Y006697D02*
X008989Y006620D01*
X008913Y006620D01*
X008836Y006697D01*
X007117Y009850D02*
X007119Y009946D01*
X007126Y010041D01*
X007138Y010136D01*
X007154Y010230D01*
X007175Y010324D01*
X007201Y010416D01*
X007231Y010507D01*
X007265Y010596D01*
X007304Y010683D01*
X007347Y010769D01*
X007394Y010852D01*
X007445Y010933D01*
X007501Y011011D01*
X007559Y011086D01*
X007622Y011159D01*
X007688Y011228D01*
X007757Y011294D01*
X007830Y011357D01*
X007905Y011415D01*
X007983Y011471D01*
X008064Y011522D01*
X008147Y011569D01*
X008233Y011612D01*
X008320Y011651D01*
X008409Y011685D01*
X008500Y011715D01*
X008592Y011741D01*
X008686Y011762D01*
X008780Y011778D01*
X008875Y011790D01*
X008970Y011797D01*
X009066Y011799D01*
X009162Y011797D01*
X009257Y011790D01*
X009352Y011778D01*
X009446Y011762D01*
X009540Y011741D01*
X009632Y011715D01*
X009723Y011685D01*
X009812Y011651D01*
X009899Y011612D01*
X009985Y011569D01*
X010068Y011522D01*
X010149Y011471D01*
X010227Y011415D01*
X010302Y011357D01*
X010375Y011294D01*
X010444Y011228D01*
X010510Y011159D01*
X010573Y011086D01*
X010631Y011011D01*
X010687Y010933D01*
X010738Y010852D01*
X010785Y010769D01*
X010828Y010683D01*
X010867Y010596D01*
X010901Y010507D01*
X010931Y010416D01*
X010957Y010324D01*
X010978Y010230D01*
X010994Y010136D01*
X011006Y010041D01*
X011013Y009946D01*
X011015Y009850D01*
X011013Y009754D01*
X011006Y009659D01*
X010994Y009564D01*
X010978Y009470D01*
X010957Y009376D01*
X010931Y009284D01*
X010901Y009193D01*
X010867Y009104D01*
X010828Y009017D01*
X010785Y008931D01*
X010738Y008848D01*
X010687Y008767D01*
X010631Y008689D01*
X010573Y008614D01*
X010510Y008541D01*
X010444Y008472D01*
X010375Y008406D01*
X010302Y008343D01*
X010227Y008285D01*
X010149Y008229D01*
X010068Y008178D01*
X009985Y008131D01*
X009899Y008088D01*
X009812Y008049D01*
X009723Y008015D01*
X009632Y007985D01*
X009540Y007959D01*
X009446Y007938D01*
X009352Y007922D01*
X009257Y007910D01*
X009162Y007903D01*
X009066Y007901D01*
X008970Y007903D01*
X008875Y007910D01*
X008780Y007922D01*
X008686Y007938D01*
X008592Y007959D01*
X008500Y007985D01*
X008409Y008015D01*
X008320Y008049D01*
X008233Y008088D01*
X008147Y008131D01*
X008064Y008178D01*
X007983Y008229D01*
X007905Y008285D01*
X007830Y008343D01*
X007757Y008406D01*
X007688Y008472D01*
X007622Y008541D01*
X007559Y008614D01*
X007501Y008689D01*
X007445Y008767D01*
X007394Y008848D01*
X007347Y008931D01*
X007304Y009017D01*
X007265Y009104D01*
X007231Y009193D01*
X007201Y009284D01*
X007175Y009376D01*
X007154Y009470D01*
X007138Y009564D01*
X007126Y009659D01*
X007119Y009754D01*
X007117Y009850D01*
X008672Y011760D02*
X008579Y011738D01*
X008488Y011712D01*
X008398Y011682D01*
X008309Y011647D01*
X008222Y011608D01*
X008137Y011565D01*
X008055Y011517D01*
X007975Y011466D01*
X007897Y011411D01*
X007822Y011352D01*
X007750Y011289D01*
X007682Y011223D01*
X007616Y011154D01*
X007554Y011082D01*
X007496Y011007D01*
X007441Y010929D01*
X007391Y010848D01*
X007344Y010765D01*
X007301Y010680D01*
X007263Y010593D01*
X007229Y010504D01*
X007199Y010413D01*
X007174Y010321D01*
X007153Y010229D01*
X007137Y010135D01*
X007125Y010040D01*
X007118Y009945D01*
X007116Y009850D01*
X007118Y009755D01*
X007125Y009660D01*
X007137Y009565D01*
X007153Y009471D01*
X007174Y009379D01*
X007199Y009287D01*
X007229Y009196D01*
X007263Y009107D01*
X007301Y009020D01*
X007344Y008935D01*
X007391Y008852D01*
X007441Y008771D01*
X007496Y008693D01*
X007554Y008618D01*
X007616Y008546D01*
X007682Y008477D01*
X007750Y008411D01*
X007822Y008348D01*
X007897Y008289D01*
X007975Y008234D01*
X008055Y008183D01*
X008137Y008135D01*
X008222Y008092D01*
X008309Y008053D01*
X008398Y008018D01*
X008488Y007988D01*
X008579Y007962D01*
X008672Y007940D01*
X010229Y012420D02*
X010229Y012880D01*
X010382Y012880D02*
X010075Y012880D01*
X010536Y012727D02*
X010689Y012880D01*
X010689Y012420D01*
X010536Y012420D02*
X010842Y012420D01*
X014286Y009380D02*
X014516Y009380D01*
X014593Y009304D01*
X014593Y009150D01*
X014516Y009073D01*
X014286Y009073D01*
X014286Y008920D02*
X014286Y009380D01*
X014439Y009073D02*
X014593Y008920D01*
X014746Y008920D02*
X015053Y008920D01*
X014900Y008920D02*
X014900Y009380D01*
X014746Y009227D01*
X015207Y009227D02*
X015207Y009304D01*
X015283Y009380D01*
X015437Y009380D01*
X015514Y009304D01*
X015514Y008997D01*
X015437Y008920D01*
X015283Y008920D01*
X015207Y008997D01*
X015283Y009150D02*
X015514Y009150D01*
X015283Y009150D02*
X015207Y009227D01*
X015106Y008330D02*
X015182Y008254D01*
X015182Y008100D01*
X015106Y008023D01*
X014876Y008023D01*
X014876Y007870D02*
X014876Y008330D01*
X015106Y008330D01*
X014722Y008330D02*
X014722Y007870D01*
X014415Y008330D01*
X014415Y007870D01*
X020836Y002080D02*
X021066Y002080D01*
X021143Y002004D01*
X021143Y001697D01*
X021066Y001620D01*
X020836Y001620D01*
X020836Y002080D01*
X021296Y001927D02*
X021450Y002080D01*
X021450Y001620D01*
X021464Y001507D02*
X021178Y001507D01*
X021296Y001620D02*
X021603Y001620D01*
X021757Y001697D02*
X022064Y002004D01*
X022064Y001697D01*
X021987Y001620D01*
X021833Y001620D01*
X021757Y001697D01*
X021757Y002004D01*
X021833Y002080D01*
X021987Y002080D01*
X022064Y002004D01*
X021631Y001469D02*
X021610Y001465D01*
X021591Y001458D01*
X021573Y001448D01*
X021557Y001434D01*
X021544Y001418D01*
X021533Y001400D01*
X021526Y001381D01*
X021522Y001360D01*
X021522Y001340D01*
X021526Y001319D01*
X021533Y001300D01*
X021544Y001282D01*
X021557Y001266D01*
X021573Y001252D01*
X021591Y001242D01*
X021610Y001235D01*
X021631Y001231D01*
X021454Y001193D02*
X021178Y001193D01*
X032586Y010370D02*
X032586Y010600D01*
X032662Y010677D01*
X032816Y010677D01*
X032892Y010600D01*
X032892Y010370D01*
X032892Y010523D02*
X033046Y010677D01*
X032816Y010830D02*
X032816Y011137D01*
X033046Y011061D02*
X032586Y011061D01*
X032816Y010830D01*
X033046Y010370D02*
X032586Y010370D01*
X037239Y005330D02*
X037393Y005330D01*
X037316Y005330D02*
X037316Y004947D01*
X037239Y004870D01*
X037163Y004870D01*
X037086Y004947D01*
X037546Y004870D02*
X037853Y005177D01*
X037853Y005254D01*
X037777Y005330D01*
X037623Y005330D01*
X037546Y005254D01*
X037546Y004870D02*
X037853Y004870D01*
X040336Y010370D02*
X040336Y010600D01*
X040412Y010677D01*
X040566Y010677D01*
X040642Y010600D01*
X040642Y010370D01*
X040642Y010523D02*
X040796Y010677D01*
X040719Y010830D02*
X040796Y010907D01*
X040796Y011061D01*
X040719Y011137D01*
X040642Y011137D01*
X040566Y011061D01*
X040566Y010830D01*
X040719Y010830D01*
X040566Y010830D02*
X040412Y010984D01*
X040336Y011137D01*
X040336Y010370D02*
X040796Y010370D01*
X045239Y005330D02*
X045393Y005330D01*
X045316Y005330D02*
X045316Y004947D01*
X045239Y004870D01*
X045163Y004870D01*
X045086Y004947D01*
X045546Y004947D02*
X045623Y004870D01*
X045777Y004870D01*
X045853Y004947D01*
X045853Y005023D01*
X045777Y005100D01*
X045700Y005100D01*
X045777Y005100D02*
X045853Y005177D01*
X045853Y005254D01*
X045777Y005330D01*
X045623Y005330D01*
X045546Y005254D01*
X041296Y023620D02*
X041296Y023697D01*
X041603Y024004D01*
X041603Y024080D01*
X041296Y024080D01*
X041143Y024004D02*
X041143Y023697D01*
X041066Y023620D01*
X040913Y023620D01*
X040836Y023697D01*
X040836Y024004D01*
X040913Y024080D01*
X041066Y024080D01*
X041143Y024004D01*
X040989Y023773D02*
X041143Y023620D01*
X033353Y023697D02*
X033353Y023773D01*
X033277Y023850D01*
X033046Y023850D01*
X033046Y023697D01*
X033123Y023620D01*
X033277Y023620D01*
X033353Y023697D01*
X033200Y024004D02*
X033046Y023850D01*
X032893Y023697D02*
X032816Y023620D01*
X032663Y023620D01*
X032586Y023697D01*
X032586Y024004D01*
X032663Y024080D01*
X032816Y024080D01*
X032893Y024004D01*
X032893Y023697D01*
X032893Y023620D02*
X032739Y023773D01*
X033200Y024004D02*
X033353Y024080D01*
X003114Y010439D02*
X002807Y010439D01*
X002960Y010439D02*
X002960Y010899D01*
X002807Y010746D01*
X002653Y010899D02*
X002346Y010899D01*
X002346Y010439D01*
X002346Y010669D02*
X002500Y010669D01*
X001699Y009917D02*
X001393Y009917D01*
X001239Y009763D01*
X001393Y009610D01*
X001699Y009610D01*
X001623Y009456D02*
X001699Y009379D01*
X001699Y009226D01*
X001623Y009149D01*
X001316Y009456D01*
X001623Y009456D01*
X001469Y009610D02*
X001469Y009917D01*
X001316Y009456D02*
X001239Y009379D01*
X001239Y009226D01*
X001316Y009149D01*
X001623Y009149D01*
X001699Y008996D02*
X001699Y008689D01*
X001699Y008842D02*
X001239Y008842D01*
X001393Y008689D01*
D15*
X006991Y003015D02*
X010141Y003015D01*
X010141Y004275D01*
X010141Y005850D01*
X010141Y004275D02*
X006991Y004275D01*
X006991Y003015D01*
X006991Y004275D02*
X006991Y005850D01*
X003761Y006946D02*
X001871Y006946D01*
X001871Y010254D01*
X003761Y010254D01*
X003761Y006946D01*
X003931Y013050D02*
X012201Y013050D01*
X012201Y021150D01*
X003931Y021150D01*
X003931Y013050D01*
X004254Y020600D02*
X004256Y020629D01*
X004262Y020657D01*
X004272Y020684D01*
X004285Y020710D01*
X004302Y020734D01*
X004321Y020755D01*
X004344Y020773D01*
X004368Y020788D01*
X004395Y020800D01*
X004423Y020808D01*
X004452Y020812D01*
X004480Y020812D01*
X004509Y020808D01*
X004537Y020800D01*
X004564Y020788D01*
X004588Y020773D01*
X004611Y020755D01*
X004630Y020734D01*
X004647Y020710D01*
X004660Y020684D01*
X004670Y020657D01*
X004676Y020629D01*
X004678Y020600D01*
X004676Y020571D01*
X004670Y020543D01*
X004660Y020516D01*
X004647Y020490D01*
X004630Y020466D01*
X004611Y020445D01*
X004588Y020427D01*
X004564Y020412D01*
X004537Y020400D01*
X004509Y020392D01*
X004480Y020388D01*
X004452Y020388D01*
X004423Y020392D01*
X004395Y020400D01*
X004368Y020412D01*
X004344Y020427D01*
X004321Y020445D01*
X004302Y020466D01*
X004285Y020490D01*
X004272Y020516D01*
X004262Y020543D01*
X004256Y020571D01*
X004254Y020600D01*
X009841Y028025D02*
X010141Y028025D01*
X010301Y028025D02*
X010602Y028025D01*
X010762Y028025D02*
X010762Y028475D01*
X010987Y028475D01*
X011062Y028400D01*
X011062Y028100D01*
X010987Y028025D01*
X010762Y028025D01*
X010451Y028250D02*
X010301Y028250D01*
X010301Y028475D02*
X010301Y028025D01*
X010301Y028475D02*
X010602Y028475D01*
X009841Y028475D02*
X009841Y028025D01*
X011222Y028025D02*
X011522Y028025D01*
X011660Y028049D02*
X011660Y029151D01*
X013471Y029151D01*
X013471Y028049D01*
X011660Y028049D01*
X011372Y028025D02*
X011372Y028475D01*
X011222Y028325D01*
X014816Y027050D02*
X034976Y027050D01*
X034976Y036650D01*
X014816Y036650D01*
X014816Y027050D01*
X014697Y033275D02*
X014547Y033275D01*
X014472Y033350D01*
X014472Y033500D02*
X014622Y033575D01*
X014697Y033575D01*
X014772Y033500D01*
X014772Y033350D01*
X014697Y033275D01*
X014472Y033500D02*
X014472Y033725D01*
X014772Y033725D01*
X014312Y033650D02*
X014312Y033350D01*
X014237Y033275D01*
X014012Y033275D01*
X014012Y033725D01*
X014237Y033725D01*
X014312Y033650D01*
X013852Y033725D02*
X013551Y033725D01*
X013551Y033275D01*
X013852Y033275D01*
X013701Y033500D02*
X013551Y033500D01*
X013391Y033275D02*
X013091Y033275D01*
X013091Y033725D01*
X011272Y033650D02*
X011272Y033575D01*
X011197Y033500D01*
X011272Y033425D01*
X011272Y033350D01*
X011197Y033275D01*
X011047Y033275D01*
X010972Y033350D01*
X010812Y033350D02*
X010812Y033650D01*
X010737Y033725D01*
X010512Y033725D01*
X010512Y033275D01*
X010737Y033275D01*
X010812Y033350D01*
X010972Y033650D02*
X011047Y033725D01*
X011197Y033725D01*
X011272Y033650D01*
X011197Y033500D02*
X011122Y033500D01*
X010352Y033275D02*
X010051Y033275D01*
X010051Y033725D01*
X010352Y033725D01*
X010201Y033500D02*
X010051Y033500D01*
X009891Y033275D02*
X009591Y033275D01*
X009591Y033725D01*
X009522Y035525D02*
X009222Y035525D01*
X009522Y035825D01*
X009522Y035900D01*
X009447Y035975D01*
X009297Y035975D01*
X009222Y035900D01*
X009062Y035900D02*
X009062Y035600D01*
X008987Y035525D01*
X008762Y035525D01*
X008762Y035975D01*
X008987Y035975D01*
X009062Y035900D01*
X008602Y035975D02*
X008301Y035975D01*
X008301Y035525D01*
X008602Y035525D01*
X008451Y035750D02*
X008301Y035750D01*
X008141Y035525D02*
X007841Y035525D01*
X007841Y035975D01*
X007522Y035975D02*
X007522Y035900D01*
X007222Y035600D01*
X007222Y035525D01*
X007062Y035600D02*
X007062Y035900D01*
X006987Y035975D01*
X006762Y035975D01*
X006762Y035525D01*
X006987Y035525D01*
X007062Y035600D01*
X007222Y035975D02*
X007522Y035975D01*
X006602Y035975D02*
X006301Y035975D01*
X006301Y035525D01*
X006602Y035525D01*
X006451Y035750D02*
X006301Y035750D01*
X006141Y035525D02*
X005841Y035525D01*
X005841Y035975D01*
X005810Y036813D02*
X009747Y036813D01*
X009747Y040750D01*
X005810Y040750D01*
X005810Y036813D01*
X009838Y036813D02*
X013932Y036813D01*
X013932Y040750D01*
X009838Y040750D01*
X009838Y036813D01*
X011341Y035975D02*
X011341Y035525D01*
X011641Y035525D01*
X011801Y035525D02*
X011801Y035975D01*
X012102Y035975D01*
X012262Y035975D02*
X012262Y035525D01*
X012487Y035525D01*
X012562Y035600D01*
X012562Y035900D01*
X012487Y035975D01*
X012262Y035975D01*
X011951Y035750D02*
X011801Y035750D01*
X011801Y035525D02*
X012102Y035525D01*
X012722Y035750D02*
X013022Y035750D01*
X012947Y035525D02*
X012947Y035975D01*
X012722Y035750D01*
X017999Y039475D02*
X018300Y039475D01*
X018460Y039475D02*
X018760Y039475D01*
X018920Y039475D02*
X019145Y039475D01*
X019220Y039550D01*
X019220Y039850D01*
X019145Y039925D01*
X018920Y039925D01*
X018920Y039475D01*
X018610Y039700D02*
X018460Y039700D01*
X018460Y039925D02*
X018460Y039475D01*
X018460Y039925D02*
X018760Y039925D01*
X019381Y039700D02*
X019381Y039550D01*
X019456Y039475D01*
X019606Y039475D01*
X019681Y039550D01*
X019681Y039625D01*
X019606Y039700D01*
X019381Y039700D01*
X019531Y039850D01*
X019681Y039925D01*
X017999Y039925D02*
X017999Y039475D01*
X029991Y039469D02*
X030066Y039544D01*
X030366Y039544D01*
X030441Y039469D01*
X030441Y039319D01*
X030366Y039244D01*
X030066Y039244D01*
X029991Y039319D01*
X029991Y039469D01*
X030066Y039704D02*
X030141Y039704D01*
X030216Y039779D01*
X030216Y040004D01*
X030366Y040004D02*
X030066Y040004D01*
X029991Y039929D01*
X029991Y039779D01*
X030066Y039704D01*
X030366Y039704D02*
X030441Y039779D01*
X030441Y039929D01*
X030366Y040004D01*
X030366Y040165D02*
X030441Y040240D01*
X030441Y040390D01*
X030366Y040465D01*
X030066Y040465D01*
X029991Y040390D01*
X029991Y040240D01*
X030066Y040165D01*
X030141Y040165D01*
X030216Y040240D01*
X030216Y040465D01*
X030597Y040750D02*
X030597Y036813D01*
X033747Y036813D01*
X033747Y040750D01*
X030597Y040750D01*
X030441Y039544D02*
X030291Y039394D01*
X030291Y038465D02*
X030366Y038465D01*
X030441Y038390D01*
X030441Y038240D01*
X030366Y038165D01*
X030291Y038165D01*
X030216Y038240D01*
X030216Y038390D01*
X030291Y038465D01*
X030216Y038390D02*
X030141Y038465D01*
X030066Y038465D01*
X029991Y038390D01*
X029991Y038240D01*
X030066Y038165D01*
X030141Y038165D01*
X030216Y038240D01*
X030366Y038004D02*
X030066Y038004D01*
X029991Y037929D01*
X029991Y037704D01*
X030441Y037704D01*
X030441Y037929D01*
X030366Y038004D01*
X030441Y037544D02*
X030441Y037244D01*
X029991Y037244D01*
X029991Y037544D01*
X030216Y037394D02*
X030216Y037244D01*
X030441Y037084D02*
X030441Y036783D01*
X029991Y036783D01*
X032066Y024570D02*
X040066Y024570D01*
X040066Y014100D01*
X032066Y014100D01*
X032066Y024570D01*
X040316Y024570D02*
X048316Y024570D01*
X048316Y014100D01*
X040316Y014100D01*
X040316Y024570D01*
X038391Y004100D02*
X038391Y002525D01*
X038391Y001265D01*
X035241Y001265D01*
X035241Y002525D01*
X038391Y002525D01*
X035241Y002525D02*
X035241Y004100D01*
X043491Y004100D02*
X043491Y002525D01*
X043491Y001265D01*
X046641Y001265D01*
X046641Y002525D01*
X046641Y004100D01*
X046641Y002525D02*
X043491Y002525D01*
D16*
X044316Y005350D02*
X044316Y005900D01*
X044316Y010800D02*
X044316Y011350D01*
X036066Y011350D02*
X036066Y010800D01*
X036066Y005900D02*
X036066Y005350D01*
D17*
X034121Y006545D02*
X034121Y006860D01*
X034016Y006965D01*
X033595Y006965D01*
X033490Y006860D01*
X033490Y006545D01*
X034121Y006545D01*
X034016Y007190D02*
X034121Y007295D01*
X034121Y007505D01*
X034016Y007610D01*
X033911Y007610D01*
X033806Y007505D01*
X033806Y007400D01*
X033806Y007505D02*
X033701Y007610D01*
X033595Y007610D01*
X033490Y007505D01*
X033490Y007295D01*
X033595Y007190D01*
X041740Y007295D02*
X041845Y007190D01*
X041740Y007295D02*
X041740Y007505D01*
X041845Y007610D01*
X041951Y007610D01*
X042371Y007190D01*
X042371Y007610D01*
X042266Y006965D02*
X041845Y006965D01*
X041740Y006860D01*
X041740Y006545D01*
X042371Y006545D01*
X042371Y006860D01*
X042266Y006965D01*
D18*
X044316Y007100D03*
X036066Y007100D03*
D19*
X036066Y006250D03*
X036066Y010450D03*
X044316Y010450D03*
X044316Y006250D03*
D20*
X041066Y010350D03*
X041066Y010850D03*
X033316Y010850D03*
X033316Y010350D03*
D21*
X009066Y011966D03*
X009066Y007734D03*
D22*
X011242Y007923D02*
X011303Y007861D01*
X011550Y007861D01*
X011612Y007923D01*
X011612Y008046D01*
X011550Y008108D01*
X011612Y008229D02*
X011612Y008476D01*
X011612Y008353D02*
X011242Y008353D01*
X011365Y008229D01*
X011303Y008108D02*
X011242Y008046D01*
X011242Y007923D01*
D23*
X014566Y008600D03*
X015066Y008600D03*
D24*
X020991Y001458D02*
X021011Y001456D01*
X021030Y001451D01*
X021048Y001442D01*
X021064Y001430D01*
X021077Y001415D01*
X021088Y001398D01*
X021095Y001380D01*
X021099Y001360D01*
X021099Y001340D01*
X021095Y001320D01*
X021088Y001302D01*
X021077Y001285D01*
X021064Y001270D01*
X021048Y001258D01*
X021030Y001249D01*
X021011Y001244D01*
X020991Y001242D01*
X021532Y001488D02*
X021534Y001498D01*
X021539Y001507D01*
X021547Y001514D01*
X021557Y001518D01*
X021567Y001518D01*
X021577Y001514D01*
X021585Y001507D01*
X021590Y001498D01*
X021592Y001488D01*
X021590Y001478D01*
X021585Y001469D01*
X021577Y001462D01*
X021567Y001458D01*
X021557Y001458D01*
X021547Y001462D01*
X021539Y001469D01*
X021534Y001478D01*
X021532Y001488D01*
D25*
X021621Y001488D03*
D26*
X021542Y001448D03*
D27*
X021528Y001517D03*
D28*
X021592Y001212D03*
D29*
X021498Y001350D03*
D30*
X021080Y001212D03*
X021080Y001488D03*
D31*
X021134Y001350D03*
D32*
X021080Y001439D03*
X021080Y001261D03*
D33*
X021365Y001350D03*
D34*
X025401Y022222D03*
X015901Y022222D03*
X006401Y022222D03*
D35*
X036066Y013590D03*
X044316Y013590D03*
D36*
X046466Y013590D03*
X042166Y013590D03*
X038216Y013590D03*
X033916Y013590D03*
D37*
X009686Y027350D02*
X009686Y028350D01*
X009066Y028650D02*
X009012Y028648D01*
X008958Y028643D01*
X008905Y028634D01*
X008852Y028621D01*
X008801Y028605D01*
X008751Y028585D01*
X008702Y028562D01*
X008654Y028536D01*
X008609Y028507D01*
X008566Y028474D01*
X008525Y028439D01*
X008486Y028401D01*
X008450Y028361D01*
X008417Y028318D01*
X008387Y028273D01*
X008360Y028226D01*
X008371Y027453D02*
X008401Y027405D01*
X008434Y027360D01*
X008470Y027317D01*
X008508Y027276D01*
X008550Y027239D01*
X008594Y027204D01*
X008640Y027173D01*
X008689Y027144D01*
X008739Y027120D01*
X008791Y027099D01*
X008845Y027081D01*
X008899Y027068D01*
X008954Y027058D01*
X009010Y027052D01*
X009066Y027050D01*
X008385Y027431D02*
X008357Y027479D01*
X008333Y027528D01*
X008313Y027580D01*
X008296Y027632D01*
X008283Y027686D01*
X008274Y027740D01*
X008268Y027795D01*
X008266Y027850D01*
X008268Y027906D01*
X008274Y027963D01*
X008284Y028018D01*
X008298Y028073D01*
X008315Y028126D01*
X008337Y028179D01*
X008362Y028229D01*
X009066Y028650D02*
X009120Y028648D01*
X009173Y028643D01*
X009227Y028634D01*
X009279Y028621D01*
X009330Y028605D01*
X009381Y028585D01*
X009430Y028563D01*
X009477Y028537D01*
X009522Y028507D01*
X009565Y028475D01*
X009606Y028440D01*
X009645Y028402D01*
X009681Y028362D01*
X009677Y027333D02*
X009641Y027294D01*
X009602Y027256D01*
X009562Y027222D01*
X009519Y027190D01*
X009474Y027162D01*
X009427Y027136D01*
X009378Y027113D01*
X009328Y027094D01*
X009277Y027078D01*
X009225Y027066D01*
X009173Y027057D01*
X009119Y027052D01*
X009066Y027050D01*
X009816Y033980D02*
X010816Y033980D01*
X011116Y034600D02*
X011114Y034654D01*
X011109Y034708D01*
X011100Y034761D01*
X011087Y034814D01*
X011071Y034865D01*
X011051Y034915D01*
X011028Y034964D01*
X011002Y035012D01*
X010973Y035057D01*
X010940Y035100D01*
X010905Y035141D01*
X010867Y035180D01*
X010827Y035216D01*
X010784Y035249D01*
X010739Y035279D01*
X010692Y035306D01*
X011566Y035220D02*
X012566Y035220D01*
X012485Y033919D02*
X012437Y033891D01*
X012388Y033867D01*
X012336Y033847D01*
X012284Y033830D01*
X012230Y033817D01*
X012176Y033808D01*
X012121Y033802D01*
X012066Y033800D01*
X012463Y033905D02*
X012511Y033935D01*
X012556Y033968D01*
X012599Y034004D01*
X012640Y034042D01*
X012677Y034084D01*
X012712Y034128D01*
X012743Y034174D01*
X012772Y034223D01*
X012796Y034273D01*
X012817Y034325D01*
X012835Y034379D01*
X012848Y034433D01*
X012858Y034488D01*
X012864Y034544D01*
X012866Y034600D01*
X013316Y033980D02*
X014316Y033980D01*
X014616Y034600D02*
X014614Y034654D01*
X014609Y034708D01*
X014600Y034761D01*
X014587Y034814D01*
X014571Y034865D01*
X014551Y034915D01*
X014528Y034964D01*
X014502Y035012D01*
X014473Y035057D01*
X014440Y035100D01*
X014405Y035141D01*
X014367Y035180D01*
X014327Y035216D01*
X014284Y035249D01*
X014239Y035279D01*
X014192Y035306D01*
X013419Y035295D02*
X013371Y035265D01*
X013326Y035232D01*
X013283Y035196D01*
X013242Y035158D01*
X013205Y035116D01*
X013170Y035072D01*
X013139Y035026D01*
X013110Y034977D01*
X013086Y034927D01*
X013065Y034875D01*
X013047Y034821D01*
X013034Y034767D01*
X013024Y034712D01*
X013018Y034656D01*
X013016Y034600D01*
X013397Y035281D02*
X013445Y035309D01*
X013494Y035333D01*
X013546Y035353D01*
X013598Y035370D01*
X013652Y035383D01*
X013706Y035392D01*
X013761Y035398D01*
X013816Y035400D01*
X013872Y035398D01*
X013929Y035392D01*
X013984Y035382D01*
X014039Y035368D01*
X014092Y035351D01*
X014145Y035329D01*
X014195Y035304D01*
X014616Y034600D02*
X014614Y034546D01*
X014609Y034493D01*
X014600Y034439D01*
X014587Y034387D01*
X014571Y034336D01*
X014551Y034285D01*
X014529Y034236D01*
X014503Y034189D01*
X014473Y034144D01*
X014441Y034101D01*
X014406Y034060D01*
X014368Y034021D01*
X014328Y033985D01*
X013299Y033989D02*
X013260Y034025D01*
X013222Y034064D01*
X013188Y034104D01*
X013156Y034147D01*
X013128Y034192D01*
X013102Y034239D01*
X013079Y034288D01*
X013060Y034338D01*
X013044Y034389D01*
X013032Y034441D01*
X013023Y034493D01*
X013018Y034547D01*
X013016Y034600D01*
X012066Y033800D02*
X012010Y033802D01*
X011953Y033808D01*
X011898Y033818D01*
X011843Y033832D01*
X011790Y033849D01*
X011737Y033871D01*
X011687Y033896D01*
X011266Y034600D02*
X011268Y034654D01*
X011273Y034707D01*
X011282Y034761D01*
X011295Y034813D01*
X011311Y034864D01*
X011331Y034915D01*
X011353Y034964D01*
X011379Y035011D01*
X011409Y035056D01*
X011441Y035099D01*
X011476Y035140D01*
X011514Y035179D01*
X011554Y035215D01*
X011266Y034600D02*
X011268Y034546D01*
X011273Y034492D01*
X011282Y034439D01*
X011295Y034386D01*
X011311Y034335D01*
X011331Y034285D01*
X011354Y034236D01*
X011380Y034188D01*
X011409Y034143D01*
X011442Y034100D01*
X011477Y034059D01*
X011515Y034020D01*
X011555Y033984D01*
X011598Y033951D01*
X011643Y033921D01*
X011690Y033894D01*
X012866Y034600D02*
X012864Y034653D01*
X012859Y034707D01*
X012850Y034759D01*
X012838Y034811D01*
X012822Y034862D01*
X012803Y034912D01*
X012780Y034961D01*
X012754Y035008D01*
X012726Y035053D01*
X012694Y035096D01*
X012660Y035136D01*
X012622Y035175D01*
X012583Y035211D01*
X009919Y035295D02*
X009871Y035265D01*
X009826Y035232D01*
X009783Y035196D01*
X009742Y035158D01*
X009705Y035116D01*
X009670Y035072D01*
X009639Y035026D01*
X009610Y034977D01*
X009586Y034927D01*
X009565Y034875D01*
X009547Y034821D01*
X009534Y034767D01*
X009524Y034712D01*
X009518Y034656D01*
X009516Y034600D01*
X009066Y035220D02*
X008066Y035220D01*
X007766Y034600D02*
X007768Y034546D01*
X007773Y034492D01*
X007782Y034439D01*
X007795Y034386D01*
X007811Y034335D01*
X007831Y034285D01*
X007854Y034236D01*
X007880Y034188D01*
X007909Y034143D01*
X007942Y034100D01*
X007977Y034059D01*
X008015Y034020D01*
X008055Y033984D01*
X008098Y033951D01*
X008143Y033921D01*
X008190Y033894D01*
X008963Y033905D02*
X009011Y033935D01*
X009056Y033968D01*
X009099Y034004D01*
X009140Y034042D01*
X009177Y034084D01*
X009212Y034128D01*
X009243Y034174D01*
X009272Y034223D01*
X009296Y034273D01*
X009317Y034325D01*
X009335Y034379D01*
X009348Y034433D01*
X009358Y034488D01*
X009364Y034544D01*
X009366Y034600D01*
X008985Y033919D02*
X008937Y033891D01*
X008888Y033867D01*
X008836Y033847D01*
X008784Y033830D01*
X008730Y033817D01*
X008676Y033808D01*
X008621Y033802D01*
X008566Y033800D01*
X008510Y033802D01*
X008453Y033808D01*
X008398Y033818D01*
X008343Y033832D01*
X008290Y033849D01*
X008237Y033871D01*
X008187Y033896D01*
X007766Y034600D02*
X007768Y034654D01*
X007773Y034707D01*
X007782Y034761D01*
X007795Y034813D01*
X007811Y034864D01*
X007831Y034915D01*
X007853Y034964D01*
X007879Y035011D01*
X007909Y035056D01*
X007941Y035099D01*
X007976Y035140D01*
X008014Y035179D01*
X008054Y035215D01*
X009083Y035211D02*
X009122Y035175D01*
X009160Y035136D01*
X009194Y035096D01*
X009226Y035053D01*
X009254Y035008D01*
X009280Y034961D01*
X009303Y034912D01*
X009322Y034862D01*
X009338Y034811D01*
X009350Y034759D01*
X009359Y034707D01*
X009364Y034653D01*
X009366Y034600D01*
X009897Y035281D02*
X009945Y035309D01*
X009994Y035333D01*
X010046Y035353D01*
X010098Y035370D01*
X010152Y035383D01*
X010206Y035392D01*
X010261Y035398D01*
X010316Y035400D01*
X010372Y035398D01*
X010429Y035392D01*
X010484Y035382D01*
X010539Y035368D01*
X010592Y035351D01*
X010645Y035329D01*
X010695Y035304D01*
X011116Y034600D02*
X011114Y034546D01*
X011109Y034493D01*
X011100Y034439D01*
X011087Y034387D01*
X011071Y034336D01*
X011051Y034285D01*
X011029Y034236D01*
X011003Y034189D01*
X010973Y034144D01*
X010941Y034101D01*
X010906Y034060D01*
X010868Y034021D01*
X010828Y033985D01*
X009799Y033989D02*
X009760Y034025D01*
X009722Y034064D01*
X009688Y034104D01*
X009656Y034147D01*
X009628Y034192D01*
X009602Y034239D01*
X009579Y034288D01*
X009560Y034338D01*
X009544Y034389D01*
X009532Y034441D01*
X009523Y034493D01*
X009518Y034547D01*
X009516Y034600D01*
X007066Y035220D02*
X006066Y035220D01*
X005766Y034600D02*
X005768Y034546D01*
X005773Y034492D01*
X005782Y034439D01*
X005795Y034386D01*
X005811Y034335D01*
X005831Y034285D01*
X005854Y034236D01*
X005880Y034188D01*
X005909Y034143D01*
X005942Y034100D01*
X005977Y034059D01*
X006015Y034020D01*
X006055Y033984D01*
X006098Y033951D01*
X006143Y033921D01*
X006190Y033894D01*
X006963Y033905D02*
X007011Y033935D01*
X007056Y033968D01*
X007099Y034004D01*
X007140Y034042D01*
X007177Y034084D01*
X007212Y034128D01*
X007243Y034174D01*
X007272Y034223D01*
X007296Y034273D01*
X007317Y034325D01*
X007335Y034379D01*
X007348Y034433D01*
X007358Y034488D01*
X007364Y034544D01*
X007366Y034600D01*
X006985Y033919D02*
X006937Y033891D01*
X006888Y033867D01*
X006836Y033847D01*
X006784Y033830D01*
X006730Y033817D01*
X006676Y033808D01*
X006621Y033802D01*
X006566Y033800D01*
X006510Y033802D01*
X006453Y033808D01*
X006398Y033818D01*
X006343Y033832D01*
X006290Y033849D01*
X006237Y033871D01*
X006187Y033896D01*
X005766Y034600D02*
X005768Y034654D01*
X005773Y034707D01*
X005782Y034761D01*
X005795Y034813D01*
X005811Y034864D01*
X005831Y034915D01*
X005853Y034964D01*
X005879Y035011D01*
X005909Y035056D01*
X005941Y035099D01*
X005976Y035140D01*
X006014Y035179D01*
X006054Y035215D01*
X007083Y035211D02*
X007122Y035175D01*
X007160Y035136D01*
X007194Y035096D01*
X007226Y035053D01*
X007254Y035008D01*
X007280Y034961D01*
X007303Y034912D01*
X007322Y034862D01*
X007338Y034811D01*
X007350Y034759D01*
X007359Y034707D01*
X007364Y034653D01*
X007366Y034600D01*
X018566Y039220D02*
X019566Y039220D01*
X019485Y037919D02*
X019437Y037891D01*
X019388Y037867D01*
X019336Y037847D01*
X019284Y037830D01*
X019230Y037817D01*
X019176Y037808D01*
X019121Y037802D01*
X019066Y037800D01*
X019463Y037905D02*
X019511Y037935D01*
X019556Y037968D01*
X019599Y038004D01*
X019640Y038042D01*
X019677Y038084D01*
X019712Y038128D01*
X019743Y038174D01*
X019772Y038223D01*
X019796Y038273D01*
X019817Y038325D01*
X019835Y038379D01*
X019848Y038433D01*
X019858Y038488D01*
X019864Y038544D01*
X019866Y038600D01*
X019066Y037800D02*
X019010Y037802D01*
X018953Y037808D01*
X018898Y037818D01*
X018843Y037832D01*
X018790Y037849D01*
X018737Y037871D01*
X018687Y037896D01*
X018266Y038600D02*
X018268Y038654D01*
X018273Y038707D01*
X018282Y038761D01*
X018295Y038813D01*
X018311Y038864D01*
X018331Y038915D01*
X018353Y038964D01*
X018379Y039011D01*
X018409Y039056D01*
X018441Y039099D01*
X018476Y039140D01*
X018514Y039179D01*
X018554Y039215D01*
X018266Y038600D02*
X018268Y038546D01*
X018273Y038492D01*
X018282Y038439D01*
X018295Y038386D01*
X018311Y038335D01*
X018331Y038285D01*
X018354Y038236D01*
X018380Y038188D01*
X018409Y038143D01*
X018442Y038100D01*
X018477Y038059D01*
X018515Y038020D01*
X018555Y037984D01*
X018598Y037951D01*
X018643Y037921D01*
X018690Y037894D01*
X019866Y038600D02*
X019864Y038653D01*
X019859Y038707D01*
X019850Y038759D01*
X019838Y038811D01*
X019822Y038862D01*
X019803Y038912D01*
X019780Y038961D01*
X019754Y039008D01*
X019726Y039053D01*
X019694Y039096D01*
X019660Y039136D01*
X019622Y039175D01*
X019583Y039211D01*
X028566Y038220D02*
X029566Y038220D01*
X029485Y036919D02*
X029437Y036891D01*
X029388Y036867D01*
X029336Y036847D01*
X029284Y036830D01*
X029230Y036817D01*
X029176Y036808D01*
X029121Y036802D01*
X029066Y036800D01*
X029463Y036905D02*
X029511Y036935D01*
X029556Y036968D01*
X029599Y037004D01*
X029640Y037042D01*
X029677Y037084D01*
X029712Y037128D01*
X029743Y037174D01*
X029772Y037223D01*
X029796Y037273D01*
X029817Y037325D01*
X029835Y037379D01*
X029848Y037433D01*
X029858Y037488D01*
X029864Y037544D01*
X029866Y037600D01*
X029066Y036800D02*
X029010Y036802D01*
X028953Y036808D01*
X028898Y036818D01*
X028843Y036832D01*
X028790Y036849D01*
X028737Y036871D01*
X028687Y036896D01*
X028266Y037600D02*
X028268Y037654D01*
X028273Y037707D01*
X028282Y037761D01*
X028295Y037813D01*
X028311Y037864D01*
X028331Y037915D01*
X028353Y037964D01*
X028379Y038011D01*
X028409Y038056D01*
X028441Y038099D01*
X028476Y038140D01*
X028514Y038179D01*
X028554Y038215D01*
X028266Y037600D02*
X028268Y037546D01*
X028273Y037492D01*
X028282Y037439D01*
X028295Y037386D01*
X028311Y037335D01*
X028331Y037285D01*
X028354Y037236D01*
X028380Y037188D01*
X028409Y037143D01*
X028442Y037100D01*
X028477Y037059D01*
X028515Y037020D01*
X028555Y036984D01*
X028598Y036951D01*
X028643Y036921D01*
X028690Y036894D01*
X029866Y037600D02*
X029864Y037653D01*
X029859Y037707D01*
X029850Y037759D01*
X029838Y037811D01*
X029822Y037862D01*
X029803Y037912D01*
X029780Y037961D01*
X029754Y038008D01*
X029726Y038053D01*
X029694Y038096D01*
X029660Y038136D01*
X029622Y038175D01*
X029583Y038211D01*
X029463Y038905D02*
X029511Y038935D01*
X029556Y038968D01*
X029599Y039004D01*
X029640Y039042D01*
X029677Y039084D01*
X029712Y039128D01*
X029743Y039174D01*
X029772Y039223D01*
X029796Y039273D01*
X029817Y039325D01*
X029835Y039379D01*
X029848Y039433D01*
X029858Y039488D01*
X029864Y039544D01*
X029866Y039600D01*
X029485Y038919D02*
X029437Y038891D01*
X029388Y038867D01*
X029336Y038847D01*
X029284Y038830D01*
X029230Y038817D01*
X029176Y038808D01*
X029121Y038802D01*
X029066Y038800D01*
X029010Y038802D01*
X028953Y038808D01*
X028898Y038818D01*
X028843Y038832D01*
X028790Y038849D01*
X028737Y038871D01*
X028687Y038896D01*
X028266Y039600D02*
X028268Y039654D01*
X028273Y039707D01*
X028282Y039761D01*
X028295Y039813D01*
X028311Y039864D01*
X028331Y039915D01*
X028353Y039964D01*
X028379Y040011D01*
X028409Y040056D01*
X028441Y040099D01*
X028476Y040140D01*
X028514Y040179D01*
X028554Y040215D01*
X028566Y040220D02*
X029566Y040220D01*
X028266Y039600D02*
X028268Y039546D01*
X028273Y039492D01*
X028282Y039439D01*
X028295Y039386D01*
X028311Y039335D01*
X028331Y039285D01*
X028354Y039236D01*
X028380Y039188D01*
X028409Y039143D01*
X028442Y039100D01*
X028477Y039059D01*
X028515Y039020D01*
X028555Y038984D01*
X028598Y038951D01*
X028643Y038921D01*
X028690Y038894D01*
X029866Y039600D02*
X029864Y039653D01*
X029859Y039707D01*
X029850Y039759D01*
X029838Y039811D01*
X029822Y039862D01*
X029803Y039912D01*
X029780Y039961D01*
X029754Y040008D01*
X029726Y040053D01*
X029694Y040096D01*
X029660Y040136D01*
X029622Y040175D01*
X029583Y040211D01*
D38*
X027816Y039100D02*
X027616Y039100D01*
X026016Y039100D02*
X025816Y039100D01*
X025066Y039100D02*
X024866Y039100D01*
X024866Y037850D02*
X025066Y037850D01*
X023266Y037850D02*
X023066Y037850D01*
X023066Y039100D02*
X023266Y039100D01*
X018316Y038100D02*
X018116Y038100D01*
X018116Y037100D02*
X018316Y037100D01*
X016516Y037100D02*
X016316Y037100D01*
X016316Y038100D02*
X016516Y038100D01*
X013316Y032350D02*
X013316Y032150D01*
X012066Y032150D02*
X012066Y032350D01*
X010816Y032350D02*
X010816Y032150D01*
X010816Y030550D02*
X010816Y030350D01*
X012066Y030350D02*
X012066Y030550D01*
X013316Y030550D02*
X013316Y030350D01*
X009066Y030350D02*
X009066Y030550D01*
X008066Y030350D02*
X008066Y030150D01*
X007066Y030350D02*
X007066Y030550D01*
X007066Y032150D02*
X007066Y032350D01*
X009066Y032350D02*
X009066Y032150D01*
X008066Y028550D02*
X008066Y028350D01*
D39*
X008066Y028600D03*
X008066Y030100D03*
X009066Y030600D03*
X009066Y032100D03*
X010816Y032100D03*
X012066Y032100D03*
X013316Y032100D03*
X013316Y030600D03*
X012066Y030600D03*
X010816Y030600D03*
X007066Y030600D03*
X007066Y032100D03*
D40*
X016566Y037100D03*
X016566Y038100D03*
X018066Y038100D03*
X018066Y037100D03*
X023316Y037850D03*
X024816Y037850D03*
X024816Y039100D03*
X023316Y039100D03*
X026066Y039100D03*
X027566Y039100D03*
M02*
